<svg width="126" height="32" viewBox="0 0 126 32" fill="none" xmlns="http://www.w3.org/2000/svg">
<path d="M124.836 16.3477V25.333H122.198V16.0717C122.198 13.3117 121.094 12.085 118.58 12.085C116.126 12.085 114.44 13.7103 114.44 16.8077V25.333H111.802V9.99966H114.44V12.5143C115.421 10.705 117.23 9.69299 119.285 9.69299C122.812 9.69299 124.836 12.1157 124.836 16.3477Z" fill="#1E1F21"/>
<path d="M104.693 5.95157C104.693 4.78624 105.46 4.11157 106.533 4.11157C107.606 4.11157 108.373 4.78624 108.373 5.95157C108.373 7.11691 107.606 7.79157 106.533 7.79157C105.46 7.79157 104.693 7.11691 104.693 5.95157ZM105.184 25.3329V9.99957H107.821V25.3329H105.184Z" fill="#1E1F21"/>
<path d="M91.1139 16.8077V25.333H88.4766V16.0717C88.4766 13.3117 87.3726 12.085 84.8579 12.085C82.4046 12.085 80.7179 13.7103 80.7179 16.8077V25.333H78.0806V9.99966H80.7179V12.5143C81.6992 10.705 83.5086 9.69299 85.5632 9.69299C88.1699 9.69299 89.9486 11.0117 90.7152 13.4343C91.5739 11.073 93.6286 9.69299 96.1739 9.69299C99.6086 9.69299 101.51 12.0237 101.51 16.3477V25.333H98.8726V16.8077C98.8726 13.649 97.7686 12.085 95.2539 12.085C92.8006 12.085 91.1139 13.7103 91.1139 16.8077Z" fill="#1E1F21"/>
<path d="M62.7872 17.6661C62.7872 21.3461 64.2592 23.1861 66.9886 23.1861C69.3499 23.1861 71.4659 21.6834 71.4659 18.2794V17.0528C71.4659 13.6488 69.5339 12.1461 67.2952 12.1461C64.3206 12.1461 62.7872 14.1088 62.7872 17.6661ZM71.4659 25.3328V22.5728C70.4846 24.5968 68.6446 25.6394 66.2832 25.6394C62.2046 25.6394 60.1499 22.1741 60.1499 17.6661C60.1499 13.3421 62.2966 9.69275 66.5899 9.69275C68.8286 9.69275 70.5459 10.7048 71.4659 12.6981V3.59009H74.1032V25.3328H71.4659Z" fill="#1E1F21"/>
<path d="M49.4453 21.3152C47.912 21.3152 46.348 21.1312 44.6307 20.7939L42.944 25.3326H39.8467L47.7893 5.18457H51.2853L59.228 25.3326H56.1307L54.444 20.7632C52.6347 21.1312 51.0707 21.3152 49.4453 21.3152ZM49.4453 18.8619C50.7333 18.8619 52.052 18.7086 53.616 18.4632L49.5373 7.42324L45.4587 18.4939C46.9613 18.7392 48.2187 18.8619 49.4453 18.8619Z" fill="#1E1F21"/>
<path d="M0 8C0 3.58172 3.58172 0 8 0H24C28.4183 0 32 3.58172 32 8V24C32 28.4183 28.4183 32 24 32H8C3.58172 32 0 28.4183 0 24V8Z" fill="#DDDEE1"/>
<path fill-rule="evenodd" clip-rule="evenodd" d="M13.8264 6.39941H18.0805L19.419 9.96863L23.1797 9.34309L25.3068 13.0273L22.8845 15.9716L25.3063 18.9154L23.1792 22.5996L19.419 21.9742L18.0805 25.5433H13.8264L12.4878 21.9738L8.72768 22.5993L6.60058 18.915L9.02209 15.9716L6.6001 13.0277L8.7272 9.34343L12.4878 9.96896L13.8264 6.39941ZM15.9537 19.5608C17.9361 19.5608 19.5432 17.9538 19.5432 15.9714C19.5432 13.9889 17.9361 12.3819 15.9537 12.3819C13.9713 12.3819 12.3642 13.9889 12.3642 15.9714C12.3642 17.9538 13.9713 19.5608 15.9537 19.5608Z" fill="#101214"/>
</svg>
