<svg width="106" height="32" viewBox="0 0 106 32" fill="none" xmlns="http://www.w3.org/2000/svg">
<g clip-path="url(#clip0_95640_16151)">
<path d="M105.762 16.348V25.3334H103.125V16.072C103.125 13.312 102.021 12.0854 99.5061 12.0854C97.0528 12.0854 95.3661 13.7107 95.3661 16.808V25.3334H92.7288V10H95.3661V12.5147C96.3474 10.7054 98.1568 9.69336 100.211 9.69336C103.738 9.69336 105.762 12.116 105.762 16.348Z" fill="#1E1F21"/>
<path d="M86.1726 24.1067V22.5734C85.1913 24.5974 83.3513 25.64 80.99 25.64C76.942 25.64 74.918 22.1747 74.918 17.6667C74.918 13.3427 77.034 9.69336 81.2966 9.69336C83.5353 9.69336 85.2526 10.7054 86.1726 12.6987V10H88.7486V23.9534C88.7486 28.4614 86.6326 31.4974 81.1433 31.4974C78.5673 31.4974 77.1566 31.16 75.6846 30.6694V28.0934C77.3713 28.6454 79.1193 29.0134 81.0206 29.0134C84.854 29.0134 86.1726 26.9587 86.1726 24.1067ZM77.494 17.6667C77.494 21.3467 78.966 23.1867 81.6953 23.1867C84.0566 23.1867 86.1726 21.684 86.1726 18.28V17.0534C86.1726 13.6494 84.2406 12.1467 82.002 12.1467C79.0273 12.1467 77.494 14.1094 77.494 17.6667Z" fill="#1E1F21"/>
<path d="M68.7288 5.95182C68.7288 4.78648 69.4954 4.11182 70.5688 4.11182C71.6421 4.11182 72.4088 4.78648 72.4088 5.95182C72.4088 7.11715 71.6421 7.79182 70.5688 7.79182C69.4954 7.79182 68.7288 7.11715 68.7288 5.95182ZM69.2194 25.3332V9.99982H71.8568V25.3332H69.2194Z" fill="#1E1F21"/>
<path d="M66.6823 25.3028C66.4676 25.3642 66.0076 25.4255 65.333 25.4255C62.8183 25.4255 61.2236 24.2295 61.2236 21.4082V3.59082H63.861V21.1015C63.861 22.4815 64.781 22.9722 65.9156 22.9722C66.1916 22.9722 66.3756 22.9722 66.6823 22.9415V25.3028Z" fill="#1E1F21"/>
<path d="M49.5987 21.3162C48.0653 21.3162 46.5013 21.1322 44.784 20.7949L43.0973 25.3335H40L47.9427 5.18555H51.4387L59.3813 25.3335H56.284L54.5973 20.7642C52.788 21.1322 51.224 21.3162 49.5987 21.3162ZM49.5987 18.8629C50.8867 18.8629 52.2053 18.7095 53.7693 18.4642L49.6907 7.42421L45.612 18.4949C47.1147 18.7402 48.372 18.8629 49.5987 18.8629Z" fill="#1E1F21"/>
<path d="M0 8C0 3.58172 3.58172 0 8 0H24C28.4183 0 32 3.58172 32 8V24C32 28.4183 28.4183 32 24 32H8C3.58172 32 0 28.4183 0 24V8Z" fill="#FB9700"/>
<path d="M23.7349 23.7351C23.7349 20.8068 21.339 18.4404 18.4402 18.4404H13.5596V13.974H8.26489V22.759C8.26489 23.4393 8.56069 23.7351 9.24101 23.7351H23.7349ZM8.26489 8.26514C8.26489 11.1935 10.6017 13.5598 13.53 13.5598H18.4402V18.0263H23.7349V9.24126C23.7349 8.59051 23.4095 8.26514 22.7588 8.26514H8.26489Z" fill="#101214"/>
</g>
<defs>
<clipPath id="clip0_95640_16151">
<rect width="106" height="32" fill="white"/>
</clipPath>
</defs>
</svg>
