<svg width="161" height="32" viewBox="0 0 161 32" fill="none" xmlns="http://www.w3.org/2000/svg">
<g clip-path="url(#clip0_95640_16115)">
<path d="M160.655 21.1622C160.655 23.7075 158.999 25.6395 154.89 25.6395C152.59 25.6395 150.719 25.1182 149.554 24.5049V21.7142C150.873 22.4809 153.081 23.2169 155.013 23.2169C157.037 23.2169 158.079 22.3889 158.079 21.1929C158.079 20.0275 157.19 19.3529 154.277 18.6475C150.873 17.8195 149.431 16.5009 149.431 13.9862C149.431 11.3182 151.486 9.69287 154.982 9.69287C156.975 9.69287 158.785 10.1835 159.919 10.7969V13.5262C158.079 12.6062 156.577 12.1155 154.951 12.1155C153.019 12.1155 151.977 12.7902 151.977 13.9862C151.977 15.0595 152.713 15.7342 155.534 16.4089C158.938 17.2369 160.655 18.4942 160.655 21.1622Z" fill="#1E1F21"/>
<path d="M147.065 22.5729V24.9342C146.145 25.4249 144.734 25.6395 143.323 25.6395C137.865 25.6395 135.319 22.3275 135.319 17.6355C135.319 13.0049 137.865 9.69287 143.323 9.69287C144.703 9.69287 145.777 9.87687 146.973 10.4289V12.8822C145.991 12.4222 144.949 12.1462 143.507 12.1462C139.521 12.1462 137.895 14.6609 137.895 17.6355C137.895 20.6102 139.551 23.1249 143.569 23.1249C145.133 23.1249 146.114 22.9102 147.065 22.5729Z" fill="#1E1F21"/>
<path d="M129.13 5.95133C129.13 4.786 129.897 4.11133 130.97 4.11133C132.043 4.11133 132.81 4.786 132.81 5.95133C132.81 7.11666 132.043 7.79133 130.97 7.79133C129.897 7.79133 129.13 7.11666 129.13 5.95133ZM129.621 25.3327V9.99933H132.258V25.3327H129.621Z" fill="#1E1F21"/>
<path d="M122.16 20.5797C122.16 21.929 122.957 22.849 124.582 22.849C125.196 22.849 125.778 22.7264 126.238 22.6344V25.1797C125.778 25.3024 125.257 25.425 124.46 25.425C121.178 25.425 119.584 23.493 119.584 20.641V12.453H117.1V9.99969H119.584V6.74902H122.16V9.99969H126.238V12.453H122.16V20.5797Z" fill="#1E1F21"/>
<path d="M108.039 24.3515H106.321L100.771 9.99951H103.592L108.499 23.1248L113.405 9.99951H116.227L110.431 24.8422C108.713 29.2275 107.732 31.4968 103.837 31.4968C102.519 31.4968 101.783 31.3742 101.016 31.0675V28.7982C101.905 29.0742 102.917 29.1662 103.684 29.1662C105.831 29.1662 106.781 27.6942 108.039 24.3515Z" fill="#1E1F21"/>
<path d="M100.25 25.3018C100.036 25.3632 99.5757 25.4245 98.9011 25.4245C96.3864 25.4245 94.7917 24.2285 94.7917 21.4072V3.58984H97.4291V21.1005C97.4291 22.4805 98.3491 22.9712 99.4837 22.9712C99.7597 22.9712 99.9438 22.9712 100.25 22.9405V25.3018Z" fill="#1E1F21"/>
<path d="M79.4984 17.6662C79.4984 21.3462 80.9704 23.1862 83.6998 23.1862C86.0611 23.1862 88.1771 21.6835 88.1771 18.2795V17.0529C88.1771 13.6489 86.2451 12.1462 84.0064 12.1462C81.0318 12.1462 79.4984 14.1089 79.4984 17.6662ZM88.1771 25.3329V22.5729C87.1958 24.5969 85.3557 25.6395 82.9944 25.6395C78.9157 25.6395 76.8611 22.1742 76.8611 17.6662C76.8611 13.3422 79.0077 9.69287 83.3011 9.69287C85.5397 9.69287 87.2571 10.7049 88.1771 12.6982V9.99954H90.8144V25.3329H88.1771Z" fill="#1E1F21"/>
<path d="M74.1036 16.3475V25.3329H71.4663V16.0715C71.4663 13.3115 70.3623 12.0849 67.8476 12.0849C65.3943 12.0849 63.7076 13.7102 63.7076 16.8075V25.3329H61.0703V9.99954H63.7076V12.5142C64.689 10.7049 66.4983 9.69287 68.553 9.69287C72.0796 9.69287 74.1036 12.1155 74.1036 16.3475Z" fill="#1E1F21"/>
<path d="M49.4453 21.3152C47.912 21.3152 46.348 21.1312 44.6307 20.7939L42.944 25.3326H39.8467L47.7893 5.18457H51.2853L59.228 25.3326H56.1307L54.444 20.7632C52.6347 21.1312 51.0707 21.3152 49.4453 21.3152ZM49.4453 18.8619C50.7333 18.8619 52.052 18.7086 53.616 18.4632L49.5373 7.42324L45.4587 18.4939C46.9613 18.7392 48.2187 18.8619 49.4453 18.8619Z" fill="#1E1F21"/>
<path d="M0 8C0 3.58172 3.58172 0 8 0H24C28.4183 0 32 3.58172 32 8V24C32 28.4183 28.4183 32 24 32H8C3.58172 32 0 28.4183 0 24V8Z" fill="#DDDEE1"/>
<g clip-path="url(#clip1_95640_16115)">
<path d="M19.4999 7.8335L19.4999 20.0835H23.5833V7.8335H19.4999Z" fill="#101214"/>
<path d="M7.83325 24.1668H23.5833V21.8335H7.83325V24.1668Z" fill="#101214"/>
<path d="M7.83325 20.0835V13.6668H11.9166L11.9166 20.0835H7.83325Z" fill="#101214"/>
<path d="M13.6666 11.3335L13.6666 20.0835H17.7499V11.3335L13.6666 11.3335Z" fill="#101214"/>
</g>
</g>
<defs>
<clipPath id="clip0_95640_16115">
<rect width="160.667" height="32" fill="white"/>
</clipPath>
<clipPath id="clip1_95640_16115">
<rect width="28" height="28" fill="white" transform="translate(2 2)"/>
</clipPath>
</defs>
</svg>
