<svg width="126" height="32" viewBox="0 0 126 32" fill="none" xmlns="http://www.w3.org/2000/svg">
<g clip-path="url(#clip0_95164_16514)">
<path d="M125.796 21.1617C125.796 23.7071 124.14 25.6391 120.031 25.6391C117.731 25.6391 115.86 25.1177 114.695 24.5044V21.7137C116.013 22.4804 118.221 23.2164 120.153 23.2164C122.177 23.2164 123.22 22.3884 123.22 21.1924C123.22 20.0271 122.331 19.3524 119.417 18.6471C116.013 17.8191 114.572 16.5004 114.572 13.9857C114.572 11.3177 116.627 9.69238 120.123 9.69238C122.116 9.69238 123.925 10.1831 125.06 10.7964V13.5257C123.22 12.6057 121.717 12.1151 120.092 12.1151C118.16 12.1151 117.117 12.7897 117.117 13.9857C117.117 15.0591 117.853 15.7337 120.675 16.4084C124.079 17.2364 125.796 18.4937 125.796 21.1617Z" fill="#1E1F21"/>
<path d="M108.054 20.5787C108.054 21.928 108.851 22.848 110.477 22.848C111.09 22.848 111.673 22.7254 112.133 22.6334V25.1787C111.673 25.3014 111.151 25.424 110.354 25.424C107.073 25.424 105.478 23.492 105.478 20.64V12.452H102.994V9.99871H105.478V6.74805H108.054V9.99871H112.133V12.452H108.054V20.5787Z" fill="#1E1F21"/>
<path d="M94.5173 12.0844C91.7266 12.0844 90.3159 13.8937 90.0399 16.5617H98.5959C98.4426 13.7097 97.1546 12.0844 94.5173 12.0844ZM100.405 24.7191C99.1479 25.3937 97.2159 25.6391 95.6519 25.6391C89.9173 25.6391 87.4026 22.3271 87.4026 17.635C87.4026 13.0044 89.9786 9.69238 94.6399 9.69238C99.3626 9.69238 101.264 12.9737 101.264 17.635V18.8311H90.0706C90.4386 21.4377 92.1253 23.1244 95.7439 23.1244C97.5226 23.1244 99.0253 22.7871 100.405 22.2964V24.7191Z" fill="#1E1F21"/>
<path d="M85.2765 21.1617C85.2765 23.7071 83.6205 25.6391 79.5112 25.6391C77.2112 25.6391 75.3405 25.1177 74.1752 24.5044V21.7137C75.4938 22.4804 77.7018 23.2164 79.6338 23.2164C81.6578 23.2164 82.7005 22.3884 82.7005 21.1924C82.7005 20.0271 81.8112 19.3524 78.8978 18.6471C75.4938 17.8191 74.0525 16.5004 74.0525 13.9857C74.0525 11.3177 76.1072 9.69238 79.6032 9.69238C81.5965 9.69238 83.4058 10.1831 84.5405 10.7964V13.5257C82.7005 12.6057 81.1978 12.1151 79.5725 12.1151C77.6405 12.1151 76.5978 12.7897 76.5978 13.9857C76.5978 15.0591 77.3338 15.7337 80.1552 16.4084C83.5592 17.2364 85.2765 18.4937 85.2765 21.1617Z" fill="#1E1F21"/>
<path d="M71.65 21.1617C71.65 23.7071 69.994 25.6391 65.8847 25.6391C63.5847 25.6391 61.714 25.1177 60.5487 24.5044V21.7137C61.8674 22.4804 64.0754 23.2164 66.0074 23.2164C68.0314 23.2164 69.074 22.3884 69.074 21.1924C69.074 20.0271 68.1847 19.3524 65.2714 18.6471C61.8674 17.8191 60.426 16.5004 60.426 13.9857C60.426 11.3177 62.4807 9.69238 65.9767 9.69238C67.97 9.69238 69.7794 10.1831 70.914 10.7964V13.5257C69.074 12.6057 67.5714 12.1151 65.946 12.1151C64.014 12.1151 62.9714 12.7897 62.9714 13.9857C62.9714 15.0591 63.7074 15.7337 66.5287 16.4084C69.9327 17.2364 71.65 18.4937 71.65 21.1617Z" fill="#1E1F21"/>
<path d="M49.4453 21.3152C47.912 21.3152 46.348 21.1312 44.6307 20.7939L42.944 25.3326H39.8467L47.7893 5.18457H51.2853L59.228 25.3326H56.1307L54.444 20.7632C52.6347 21.1312 51.0707 21.3152 49.4453 21.3152ZM49.4453 18.8619C50.7333 18.8619 52.052 18.7086 53.616 18.4632L49.5373 7.42324L45.4587 18.4939C46.9613 18.7392 48.2187 18.8619 49.4453 18.8619Z" fill="#1E1F21"/>
<path d="M0 8C0 3.58172 3.58172 0 8 0H24C28.4183 0 32 3.58172 32 8V24C32 28.4183 28.4183 32 24 32H8C3.58172 32 0 28.4183 0 24V8Z" fill="#FFC716"/>
<path fill-rule="evenodd" clip-rule="evenodd" d="M11.667 15.4251C13.6271 15.1807 15.1807 13.6271 15.4251 11.667H18.167V9.50033H15.1437C14.5008 7.91225 12.9439 6.79199 11.1253 6.79199C8.73209 6.79199 6.79199 8.73209 6.79199 11.1253C6.79199 12.9439 7.91225 14.5008 9.50033 15.1437L9.50033 18.167H11.667V15.4251ZM11.1253 12.7503C12.0228 12.7503 12.7503 12.0228 12.7503 11.1253C12.7503 10.2279 12.0228 9.50033 11.1253 9.50033C10.2279 9.50033 9.50033 10.2279 9.50033 11.1253C9.50033 12.0228 10.2279 12.7503 11.1253 12.7503Z" fill="#101214"/>
<path d="M24.667 10.5837C24.667 12.0794 23.4544 13.292 21.9587 13.292C20.4629 13.292 19.2503 12.0794 19.2503 10.5837C19.2503 9.08789 20.4629 7.87533 21.9587 7.87533C23.4544 7.87533 24.667 9.08789 24.667 10.5837Z" fill="#101214"/>
<path d="M10.5837 24.667C12.0794 24.667 13.292 23.4544 13.292 21.9587C13.292 20.4629 12.0794 19.2503 10.5837 19.2503C9.08789 19.2503 7.87533 20.4629 7.87533 21.9587C7.87533 23.4544 9.08789 24.667 10.5837 24.667Z" fill="#101214"/>
<path d="M21.9587 24.667C23.4544 24.667 24.667 23.4544 24.667 21.9587C24.667 20.4629 23.4544 19.2503 21.9587 19.2503C20.4629 19.2503 19.2503 20.4629 19.2503 21.9587C19.2503 23.4544 20.4629 24.667 21.9587 24.667Z" fill="#101214"/>
<path d="M18.167 20.8753H14.3753V23.042H18.167V20.8753Z" fill="#101214"/>
<path d="M20.8753 14.3753V18.167H23.042V14.3753H20.8753Z" fill="#101214"/>
</g>
<defs>
<clipPath id="clip0_95164_16514">
<rect width="126" height="32" fill="white"/>
</clipPath>
</defs>
</svg>
