<svg width="115" height="24" viewBox="0 0 115 24" fill="none" xmlns="http://www.w3.org/2000/svg">
<path d="M109.502 19.23C106.052 19.23 104.028 16.677 104.028 13.227C104.028 9.77702 106.052 7.27002 109.502 7.27002C112.929 7.27002 114.93 9.77702 114.93 13.227C114.93 16.677 112.929 19.23 109.502 19.23ZM109.502 9.11002C107.041 9.11002 105.96 11.042 105.96 13.227C105.96 15.412 107.041 17.39 109.502 17.39C111.94 17.39 112.998 15.412 112.998 13.227C112.998 11.042 111.94 9.11002 109.502 9.11002Z" fill="#1E1F21"/>
<path d="M96.9908 19.23C93.5408 19.23 91.5168 16.677 91.5168 13.227C91.5168 9.77702 93.5408 7.27002 96.9908 7.27002C100.418 7.27002 102.419 9.77702 102.419 13.227C102.419 16.677 100.418 19.23 96.9908 19.23ZM96.9908 9.11002C94.5298 9.11002 93.4488 11.042 93.4488 13.227C93.4488 15.412 94.5298 17.39 96.9908 17.39C99.4288 17.39 100.487 15.412 100.487 13.227C100.487 11.042 99.4288 9.11002 96.9908 9.11002Z" fill="#1E1F21"/>
<path d="M87.9361 13.25C87.9361 10.49 86.8321 9.10999 84.7851 9.10999C83.0141 9.10999 81.4271 10.237 81.4271 12.79V13.71C81.4271 16.263 82.8761 17.39 84.5551 17.39C86.7861 17.39 87.9361 15.918 87.9361 13.25ZM85.0841 19.23C83.4051 19.23 82.1171 18.471 81.4271 16.976V19H79.4491V2.69299H81.4271V9.56999C82.1631 8.05199 83.5431 7.26999 85.3141 7.26999C88.3731 7.26999 89.9141 9.86899 89.9141 13.25C89.9141 16.493 88.3041 19.23 85.0841 19.23Z" fill="#1E1F21"/>
<path d="M68.8969 12.606V19H66.9189V12.054C66.9189 9.98402 66.0909 9.06402 64.2049 9.06402C62.3649 9.06402 61.0999 10.283 61.0999 12.606V19H59.1219V7.50002H61.0999V9.38602C61.8359 8.02902 63.1929 7.27002 64.7339 7.27002C66.6889 7.27002 68.0229 8.25902 68.5979 10.076C69.2419 8.30502 70.7829 7.27002 72.6919 7.27002C75.2679 7.27002 76.6939 9.01802 76.6939 12.261V19H74.7159V12.606C74.7159 10.237 73.8879 9.06402 72.0019 9.06402C70.1619 9.06402 68.8969 10.283 68.8969 12.606Z" fill="#1E1F21"/>
<path d="M47.6521 13.25C47.6521 16.01 48.7561 17.39 50.8031 17.39C52.5741 17.39 54.1611 16.263 54.1611 13.71V12.79C54.1611 10.237 52.7121 9.11002 51.0331 9.11002C48.8021 9.11002 47.6521 10.582 47.6521 13.25ZM54.1611 19V16.93C53.4251 18.448 52.0451 19.23 50.2741 19.23C47.2151 19.23 45.6741 16.631 45.6741 13.25C45.6741 10.007 47.2841 7.27002 50.5041 7.27002C52.1831 7.27002 53.4711 8.02902 54.1611 9.52402V7.50002H56.1391V19H54.1611Z" fill="#1E1F21"/>
<path d="M38.993 12.2149H34.347V16.9299H39.039C41.017 16.9299 41.914 16.2169 41.914 14.6989C41.914 13.0889 41.063 12.2149 38.993 12.2149ZM38.326 5.86692H34.347V10.3749H38.326C40.281 10.3749 41.086 9.47792 41.086 8.02892C41.086 6.55692 40.212 5.86692 38.326 5.86692ZM32.277 18.9999V3.88892H38.602C41.684 3.88892 43.179 5.40692 43.179 7.84492C43.179 9.66192 42.351 10.7889 40.649 11.2029C42.88 11.5709 43.984 12.7899 43.984 14.9289C43.984 17.3439 42.351 18.9999 38.97 18.9999H32.277Z" fill="#1E1F21"/>
<path d="M6 0.5H18C21.0376 0.5 23.5 2.96243 23.5 6V18C23.5 21.0376 21.0376 23.5 18 23.5H6C2.96243 23.5 0.5 21.0376 0.5 18V6C0.5 2.96243 2.96243 0.5 6 0.5Z" fill="white"/>
<path d="M6 0.5H18C21.0376 0.5 23.5 2.96243 23.5 6V18C23.5 21.0376 21.0376 23.5 18 23.5H6C2.96243 23.5 0.5 21.0376 0.5 18V6C0.5 2.96243 2.96243 0.5 6 0.5Z" stroke="#DDDEE1"/>
<path d="M9.21484 12.6523C9.21508 14.1643 10.4485 15.3936 11.9639 15.3936V19.5986C8.54219 19.5986 5.69508 17.1219 5.11523 13.8721L5.06641 13.5547L9.21484 12.6523ZM18.4746 12.6523C18.7275 12.6523 18.9279 12.8676 18.9111 13.1201C18.689 16.4314 16.1285 19.1087 12.8682 19.5342L11.9639 15.3945C13.3532 15.3944 14.5054 14.3608 14.6875 13.0234C14.717 12.8076 14.9103 12.6523 15.1279 12.6523H18.4746ZM11.9629 9.90918C10.4476 9.90929 9.21505 11.1386 9.21484 12.6514H5V12.5859C5.03266 9.09141 7.6675 6.21174 11.0586 5.76953L11.9629 9.90918ZM11.9639 3.93652C11.9641 3.564 12.401 3.36362 12.6836 3.60644L17.5068 7.74511C17.7095 7.9189 17.7095 8.23302 17.5068 8.40722L12.6836 12.5459C12.4009 12.7885 11.9639 12.5874 11.9639 12.2148V3.93652Z" fill="#1868DB"/>
</svg>
