<svg width="154" height="32" viewBox="0 0 154 32" fill="none" xmlns="http://www.w3.org/2000/svg">
<path d="M146.002 25.64C141.402 25.64 138.704 22.236 138.704 17.636C138.704 13.036 141.402 9.6933 146.002 9.6933C150.572 9.6933 153.24 13.036 153.24 17.636C153.24 22.236 150.572 25.64 146.002 25.64ZM146.002 12.1466C142.721 12.1466 141.28 14.7226 141.28 17.636C141.28 20.5493 142.721 23.1866 146.002 23.1866C149.253 23.1866 150.664 20.5493 150.664 17.636C150.664 14.7226 149.253 12.1466 146.002 12.1466Z" fill="#1E1F21"/>
<path d="M129.321 25.64C124.721 25.64 122.023 22.236 122.023 17.636C122.023 13.036 124.721 9.6933 129.321 9.6933C133.891 9.6933 136.559 13.036 136.559 17.636C136.559 22.236 133.891 25.64 129.321 25.64ZM129.321 12.1466C126.04 12.1466 124.599 14.7226 124.599 17.636C124.599 20.5493 126.04 23.1866 129.321 23.1866C132.572 23.1866 133.983 20.5493 133.983 17.636C133.983 14.7226 132.572 12.1466 129.321 12.1466Z" fill="#1E1F21"/>
<path d="M117.248 17.6666C117.248 13.9866 115.776 12.1466 113.047 12.1466C110.685 12.1466 108.569 13.6493 108.569 17.0533V18.28C108.569 21.684 110.501 23.1866 112.74 23.1866C115.715 23.1866 117.248 21.224 117.248 17.6666ZM113.445 25.64C111.207 25.64 109.489 24.628 108.569 22.6346V25.3333H105.932V3.59064H108.569V12.76C109.551 10.736 111.391 9.6933 113.752 9.6933C117.831 9.6933 119.885 13.1586 119.885 17.6666C119.885 21.9906 117.739 25.64 113.445 25.64Z" fill="#1E1F21"/>
<path d="M91.8626 16.808V25.3333H89.2253V16.072C89.2253 13.312 88.1213 12.0853 85.6066 12.0853C83.1533 12.0853 81.4666 13.7106 81.4666 16.808V25.3333H78.8293V9.99997H81.4666V12.5146C82.4479 10.7053 84.2573 9.6933 86.312 9.6933C88.9186 9.6933 90.6973 11.012 91.464 13.4346C92.3226 11.0733 94.3773 9.6933 96.9226 9.6933C100.357 9.6933 102.259 12.024 102.259 16.348V25.3333H99.6213V16.808C99.6213 13.6493 98.5173 12.0853 96.0026 12.0853C93.5493 12.0853 91.8626 13.7106 91.8626 16.808Z" fill="#1E1F21"/>
<path d="M63.5362 17.6666C63.5362 21.3466 65.0082 23.1866 67.7375 23.1866C70.0989 23.1866 72.2149 21.684 72.2149 18.28V17.0533C72.2149 13.6493 70.2829 12.1466 68.0442 12.1466C65.0695 12.1466 63.5362 14.1093 63.5362 17.6666ZM72.2149 25.3333V22.5733C71.2335 24.5973 69.3935 25.64 67.0322 25.64C62.9535 25.64 60.8989 22.1746 60.8989 17.6666C60.8989 13.3426 63.0455 9.6933 67.3389 9.6933C69.5775 9.6933 71.2949 10.7053 72.2149 12.6986V9.99997H74.8522V25.3333H72.2149Z" fill="#1E1F21"/>
<path d="M51.9907 16.2867H45.796V22.5734H52.052C54.6893 22.5734 55.8853 21.6227 55.8853 19.5987C55.8853 17.452 54.7507 16.2867 51.9907 16.2867ZM51.1013 7.8227H45.796V13.8334H51.1013C53.708 13.8334 54.7813 12.6374 54.7813 10.7054C54.7813 8.7427 53.616 7.8227 51.1013 7.8227ZM43.036 25.3334V5.18536H51.4693C55.5787 5.18536 57.572 7.20936 57.572 10.46C57.572 12.8827 56.468 14.3854 54.1987 14.9374C57.1733 15.428 58.6453 17.0534 58.6453 19.9054C58.6453 23.1254 56.468 25.3334 51.96 25.3334H43.036Z" fill="#1E1F21"/>
<path d="M8 0.666992H24C28.0501 0.666992 31.333 3.94991 31.333 8V24C31.333 28.0501 28.0501 31.333 24 31.333H8C3.94991 31.333 0.666992 28.0501 0.666992 24V8C0.666992 3.94991 3.94991 0.666992 8 0.666992Z" fill="white"/>
<path d="M8 0.666992H24C28.0501 0.666992 31.333 3.94991 31.333 8V24C31.333 28.0501 28.0501 31.333 24 31.333H8C3.94991 31.333 0.666992 28.0501 0.666992 24V8C0.666992 3.94991 3.94991 0.666992 8 0.666992Z" stroke="#DDDEE1" stroke-width="1.33333"/>
<path d="M12.2868 16.8688C12.2868 18.8849 13.9312 20.525 15.9518 20.525V26.1324C11.2422 26.1324 7.34963 22.6122 6.75555 18.0729L12.2868 16.8688ZM24.6335 16.8697C24.9705 16.87 25.2378 17.1563 25.2155 17.4928C24.9196 21.9082 21.5052 25.4792 17.1579 26.0465L15.9518 20.526C17.8042 20.5257 19.3398 19.148 19.5827 17.3648C19.6218 17.0768 19.8803 16.8688 20.1706 16.8688H24.6335V16.8697ZM15.9509 13.2125C13.9303 13.2125 12.2859 14.8516 12.2858 16.8688H6.66669V16.7809C6.71024 12.1216 10.2226 8.28277 14.7438 7.69297L15.9509 13.2125ZM15.9518 5.24864C15.9521 4.75195 16.535 4.48445 16.9118 4.80821L23.3425 10.3268C23.6127 10.5585 23.6127 10.9773 23.3425 11.2096L16.9118 16.7272C16.535 17.0509 15.9521 16.7834 15.9518 16.2867V5.24864Z" fill="#1868DB"/>
</svg>
