<svg width="166" height="32" viewBox="0 0 166 32" fill="none" xmlns="http://www.w3.org/2000/svg">
<g clip-path="url(#clip0_95164_15510)">
<path d="M161.212 20.5802C161.212 21.9295 162.009 22.8495 163.634 22.8495C164.248 22.8495 164.83 22.7268 165.29 22.6348V25.1802C164.83 25.3028 164.309 25.4255 163.512 25.4255C160.23 25.4255 158.636 23.4935 158.636 20.6415V12.4535H156.152V10.0002H158.636V6.74951H161.212V10.0002H165.29V12.4535H161.212V20.5802Z" fill="#1E1F21"/>
<path d="M147.675 12.0858C144.885 12.0858 143.474 13.8952 143.198 16.5632H151.754C151.601 13.7112 150.313 12.0858 147.675 12.0858ZM153.563 24.7205C152.306 25.3952 150.374 25.6405 148.81 25.6405C143.075 25.6405 140.561 22.3285 140.561 17.6365C140.561 13.0058 143.137 9.69385 147.798 9.69385C152.521 9.69385 154.422 12.9752 154.422 17.6365V18.8325H143.229C143.597 21.4392 145.283 23.1258 148.902 23.1258C150.681 23.1258 152.183 22.7885 153.563 22.2978V24.7205Z" fill="#1E1F21"/>
<path d="M129.743 25.3335H127.105V3.59082H129.743V17.1762L136.336 10.0002H139.771L132.564 17.5442L140.077 25.3335H136.489L129.743 18.1575V25.3335Z" fill="#1E1F21"/>
<path d="M124.095 22.5739V24.9352C123.175 25.4258 121.764 25.6405 120.354 25.6405C114.895 25.6405 112.35 22.3285 112.35 17.6365C112.35 13.0058 114.895 9.69385 120.354 9.69385C121.734 9.69385 122.807 9.87785 124.003 10.4298V12.8832C123.022 12.4232 121.979 12.1472 120.538 12.1472C116.551 12.1472 114.926 14.6618 114.926 17.6365C114.926 20.6112 116.582 23.1258 120.599 23.1258C122.163 23.1258 123.144 22.9112 124.095 22.5739Z" fill="#1E1F21"/>
<path d="M96.252 18.9858V10.0005H98.8893V19.2618C98.8893 22.0218 99.9933 23.2485 102.508 23.2485C104.961 23.2485 106.648 21.6232 106.648 18.5258V10.0005H109.285V25.3338H106.648V22.8192C105.667 24.6285 103.857 25.6405 101.803 25.6405C98.276 25.6405 96.252 23.2178 96.252 18.9858Z" fill="#1E1F21"/>
<path d="M90.8641 17.6668C90.8641 13.9868 89.3921 12.1468 86.6628 12.1468C84.3014 12.1468 82.1854 13.6495 82.1854 17.0535V18.2802C82.1854 21.6842 84.1174 23.1868 86.3561 23.1868C89.3308 23.1868 90.8641 21.2242 90.8641 17.6668ZM87.0614 25.6402C84.8228 25.6402 83.1054 24.6282 82.1854 22.6348V25.3335H79.5481V3.59082H82.1854V12.7602C83.1668 10.7362 85.0068 9.69349 87.3681 9.69349C91.4468 9.69349 93.5014 13.1588 93.5014 17.6668C93.5014 21.9908 91.3548 25.6402 87.0614 25.6402Z" fill="#1E1F21"/>
<path d="M72.0866 20.5802C72.0866 21.9295 72.8839 22.8495 74.5093 22.8495C75.1226 22.8495 75.7053 22.7268 76.1653 22.6348V25.1802C75.7053 25.3028 75.1839 25.4255 74.3866 25.4255C71.1053 25.4255 69.5106 23.4935 69.5106 20.6415V12.4535H67.0266V10.0002H69.5106V6.74951H72.0866V10.0002H76.1653V12.4535H72.0866V20.5802Z" fill="#1E1F21"/>
<path d="M61.3284 5.9523C61.3284 4.78697 62.095 4.1123 63.1684 4.1123C64.2417 4.1123 65.0084 4.78697 65.0084 5.9523C65.0084 7.11764 64.2417 7.7923 63.1684 7.7923C62.095 7.7923 61.3284 7.11764 61.3284 5.9523ZM61.819 25.3336V10.0003H64.4564V25.3336H61.819Z" fill="#1E1F21"/>
<path d="M51.9908 16.2869H45.7961V22.5735H52.0521C54.6895 22.5735 55.8855 21.6229 55.8855 19.5989C55.8855 17.4522 54.7508 16.2869 51.9908 16.2869ZM51.1015 7.82288H45.7961V13.8335H51.1015C53.7081 13.8335 54.7815 12.6375 54.7815 10.7055C54.7815 8.74288 53.6161 7.82288 51.1015 7.82288ZM43.0361 25.3335V5.18555H51.4695C55.5788 5.18555 57.5721 7.20955 57.5721 10.4602C57.5721 12.8829 56.4681 14.3855 54.1988 14.9375C57.1735 15.4282 58.6455 17.0535 58.6455 19.9055C58.6455 23.1255 56.4681 25.3335 51.9601 25.3335H43.0361Z" fill="#1E1F21"/>
<path d="M0 8C0 3.58172 3.58172 0 8 0H24C28.4183 0 32 3.58172 32 8V24C32 28.4183 28.4183 32 24 32H8C3.58172 32 0 28.4183 0 24V8Z" fill="#94C748"/>
<path d="M23.7902 15.6844L22.4754 23.7164C22.3896 24.2024 22.0466 24.4882 21.5607 24.4882H10.4131C9.92715 24.4882 9.58414 24.2024 9.49839 23.7164L7.18312 9.39604C7.09737 8.91012 7.35462 8.5957 7.81196 8.5957H24.1618C24.6191 8.5957 24.8764 8.91012 24.7906 9.39604L24.1618 13.1691C24.076 13.7122 23.7616 13.9408 23.2471 13.9408H13.4143C13.2714 13.9408 13.1857 14.0266 13.2143 14.1981L13.986 18.943C14.0146 19.0573 14.1004 19.1431 14.2147 19.1431H17.7591C17.8734 19.1431 17.9591 19.0573 17.9877 18.943L18.5308 15.5129C18.588 15.0842 18.8738 14.9127 19.274 14.9127H23.1328C23.7045 14.9127 23.876 15.1985 23.7902 15.6844Z" fill="#101214"/>
</g>
<defs>
<clipPath id="clip0_95164_15510">
<rect width="165.333" height="32" fill="white"/>
</clipPath>
</defs>
</svg>
