<svg width="207" height="41" viewBox="0 0 207 41" fill="none" xmlns="http://www.w3.org/2000/svg">
<path d="M201.524 25.7254C201.525 27.4121 202.522 28.5617 204.554 28.5609C205.32 28.5606 206.049 28.407 206.624 28.2918L206.625 31.4735C206.05 31.627 205.398 31.7806 204.402 31.781C200.3 31.7825 198.306 29.3683 198.304 25.8033L198.301 15.5683L195.196 15.5695L195.194 12.5028L198.299 12.5016L198.298 8.43828L201.518 8.43707L201.519 12.5004L206.618 12.4985L206.619 15.5651L201.521 15.5671L201.524 25.7254Z" fill="#1E1F21"/>
<path d="M184.6 15.1146C181.111 15.1159 179.349 17.3782 179.005 20.7134L189.7 20.7093C189.507 17.1444 187.896 15.1133 184.6 15.1146ZM191.966 30.9051C190.394 31.7491 187.979 32.0566 186.024 32.0574C178.856 32.0601 175.711 27.9213 175.709 22.0563C175.707 16.2679 178.925 12.1267 184.752 12.1245C190.655 12.1223 193.034 16.2231 193.036 22.0497L193.036 23.5447L179.045 23.55C179.506 26.8082 181.615 28.9157 186.138 28.914C188.362 28.9132 190.24 28.4908 191.965 27.8768L191.966 30.9051Z" fill="#1E1F21"/>
<path d="M162.19 31.683L158.894 31.6842L158.884 4.50586L162.18 4.50462L162.187 21.4863L170.425 12.5132L174.718 12.5116L165.713 21.945L175.109 31.6781L170.624 31.6798L162.187 22.713L162.19 31.683Z" fill="#1E1F21"/>
<path d="M155.129 28.2351L155.13 31.1868C153.981 31.8005 152.217 32.0695 150.454 32.0702C143.631 32.0728 140.448 27.934 140.445 22.069C140.443 16.2806 143.623 12.1394 150.447 12.1369C152.172 12.1362 153.513 12.3657 155.009 13.0551L155.01 16.1218C153.783 15.5473 152.479 15.2028 150.678 15.2034C145.694 15.2053 143.664 18.3494 143.665 22.0677C143.667 25.7861 145.738 28.9286 150.76 28.9267C152.715 28.926 153.941 28.6572 155.129 28.2351Z" fill="#1E1F21"/>
<path d="M120.324 23.7629L120.32 12.5312L123.616 12.53L123.621 24.1067C123.622 27.5567 125.002 29.0895 128.146 29.0883C131.212 29.0871 133.32 27.0547 133.319 23.183L133.315 12.5264L136.611 12.5251L136.618 31.6918L133.322 31.693L133.321 28.5497C132.095 30.8118 129.834 32.0777 127.265 32.0786C122.857 32.0803 120.326 29.0529 120.324 23.7629Z" fill="#1E1F21"/>
<path d="M113.589 22.116C113.587 17.516 111.746 15.2167 108.334 15.218C105.383 15.2191 102.738 17.0985 102.74 21.3535L102.741 22.8868C102.742 27.1418 105.158 29.0192 107.956 29.0182C111.675 29.0168 113.59 26.5627 113.589 22.116ZM108.839 32.0845C106.041 32.0856 103.894 30.8214 102.743 28.3301L102.744 31.7035L99.4473 31.7047L99.437 4.52637L102.734 4.52513L102.738 15.9868C103.964 13.4563 106.263 12.1521 109.215 12.151C114.313 12.1491 116.883 16.4798 116.885 22.1148C116.887 27.5198 114.206 32.0825 108.839 32.0845Z" fill="#1E1F21"/>
<path d="M90.1181 25.7674C90.1188 27.4541 91.1159 28.6037 93.1475 28.6029C93.9142 28.6026 94.6425 28.449 95.2174 28.3338L95.2186 31.5155C94.6437 31.669 93.9921 31.8226 92.9954 31.823C88.8937 31.8245 86.8995 29.4103 86.8982 25.8453L86.8943 15.6103L83.7893 15.6114L83.7882 12.5448L86.8931 12.5436L86.8916 8.48028L90.1116 8.47906L90.1132 12.5424L95.2115 12.5405L95.2126 15.6071L90.1143 15.6091L90.1181 25.7674Z" fill="#1E1F21"/>
<path d="M76.6632 7.4875C76.6627 6.03083 77.6207 5.18714 78.9624 5.18663C80.304 5.18613 81.2627 6.0291 81.2632 7.48577C81.2638 8.94243 80.3058 9.78613 78.9641 9.78663C77.6224 9.78714 76.6638 8.94417 76.6632 7.4875ZM77.2857 31.7139L77.2785 12.5473L80.5751 12.546L80.5823 31.7127L77.2857 31.7139Z" fill="#1E1F21"/>
<path d="M64.9962 20.4105L57.2528 20.4135L57.2558 28.2718L65.0758 28.2688C68.3725 28.2676 69.867 27.0787 69.8661 24.5487C69.8651 21.8654 68.4462 20.4092 64.9962 20.4105ZM63.8805 9.83095L57.2488 9.83345L57.2517 17.3468L63.8833 17.3443C67.1417 17.3431 68.4828 15.8476 68.4819 13.4326C68.4809 10.9792 67.0238 9.82977 63.8805 9.83095ZM53.8071 31.7231L53.7976 6.53809L64.3393 6.53411C69.4759 6.53218 71.9686 9.06124 71.9701 13.1246C71.9712 16.1529 70.5919 18.0318 67.7555 18.7228C71.4741 19.3348 73.3149 21.3657 73.3162 24.9307C73.3177 28.9557 70.5971 31.7168 64.9621 31.7189L53.8071 31.7231Z" fill="#1E1F21"/>
<path d="M10.0003 0.907366L30.0003 0.899831C35.0629 0.897924 39.1688 5.00076 39.1708 10.0634L39.1783 30.0634C39.1802 35.126 35.0774 39.2319 30.0148 39.2338L10.0148 39.2413C4.95214 39.2433 0.846217 35.1404 0.844309 30.0778L0.836775 10.0778C0.834868 5.0152 4.9377 0.909273 10.0003 0.907366Z" fill="white"/>
<path d="M10.0003 0.907366L30.0003 0.899831C35.0629 0.897924 39.1688 5.00076 39.1708 10.0634L39.1783 30.0634C39.1802 35.126 35.0774 39.2319 30.0148 39.2338L10.0148 39.2413C4.95214 39.2433 0.846217 35.1404 0.844309 30.0778L0.836775 10.0778C0.834868 5.0152 4.9377 0.909273 10.0003 0.907366Z" stroke="#DDDEE1" stroke-width="1.66667"/>
<path d="M29.7448 19.6715L28.105 29.7121C27.9981 30.3195 27.5695 30.677 26.9621 30.6772L13.0275 30.6825C12.4201 30.6827 11.9913 30.3256 11.8838 29.7182L8.983 11.8188C8.87558 11.2114 9.197 10.8183 9.76867 10.8181L30.206 10.8104C30.7776 10.8101 31.0994 11.203 30.9924 11.8105L30.2081 16.5271C30.1012 17.206 29.7083 17.492 29.0651 17.4922L16.7742 17.4968C16.5955 17.4969 16.4884 17.6041 16.5242 17.8185L17.4911 23.7492C17.5269 23.8921 17.6341 23.9993 17.7771 23.9992L22.2075 23.9976C22.3504 23.9975 22.4576 23.8903 22.4933 23.7474L23.1705 19.4596C23.2418 18.9236 23.599 18.7091 24.0992 18.7089L28.9227 18.7071C29.6373 18.7068 29.8518 19.064 29.7448 19.6715Z" fill="#1868DB"/>
</svg>
