<svg width="162" height="32" viewBox="0 0 162 32" fill="none" xmlns="http://www.w3.org/2000/svg">
<g clip-path="url(#clip0_95164_15528)">
<path d="M161.793 21.1632C161.793 23.7085 160.137 25.6405 156.028 25.6405C153.728 25.6405 151.857 25.1192 150.692 24.5058V21.7152C152.011 22.4818 154.219 23.2178 156.151 23.2178C158.175 23.2178 159.217 22.3898 159.217 21.1938C159.217 20.0285 158.328 19.3538 155.415 18.6485C152.011 17.8205 150.569 16.5018 150.569 13.9872C150.569 11.3192 152.624 9.69385 156.12 9.69385C158.113 9.69385 159.923 10.1845 161.057 10.7978V13.5272C159.217 12.6072 157.715 12.1165 156.089 12.1165C154.157 12.1165 153.115 12.7912 153.115 13.9872C153.115 15.0605 153.851 15.7352 156.672 16.4098C160.076 17.2378 161.793 18.4952 161.793 21.1632Z" fill="#1E1F21"/>
<path d="M148.167 21.1632C148.167 23.7085 146.511 25.6405 142.402 25.6405C140.102 25.6405 138.231 25.1192 137.066 24.5058V21.7152C138.384 22.4818 140.592 23.2178 142.524 23.2178C144.548 23.2178 145.591 22.3898 145.591 21.1938C145.591 20.0285 144.702 19.3538 141.788 18.6485C138.384 17.8205 136.943 16.5018 136.943 13.9872C136.943 11.3192 138.998 9.69385 142.494 9.69385C144.487 9.69385 146.296 10.1845 147.431 10.7978V13.5272C145.591 12.6072 144.088 12.1165 142.463 12.1165C140.531 12.1165 139.488 12.7912 139.488 13.9872C139.488 15.0605 140.224 15.7352 143.046 16.4098C146.45 17.2378 148.167 18.4952 148.167 21.1632Z" fill="#1E1F21"/>
<path d="M122.294 17.6672C122.294 21.3472 123.766 23.1872 126.495 23.1872C128.856 23.1872 130.972 21.6845 130.972 18.2805V17.0538C130.972 13.6498 129.04 12.1472 126.802 12.1472C123.827 12.1472 122.294 14.1098 122.294 17.6672ZM130.972 25.3338V22.5739C129.991 24.5979 128.151 25.6405 125.79 25.6405C121.711 25.6405 119.656 22.1752 119.656 17.6672C119.656 13.3432 121.803 9.69385 126.096 9.69385C128.335 9.69385 130.052 10.7058 130.972 12.6992V10.0005H133.61V25.3338H130.972Z" fill="#1E1F21"/>
<path d="M114.882 17.6672C114.882 13.9872 113.41 12.1472 110.681 12.1472C108.319 12.1472 106.203 13.6498 106.203 17.0538V18.2805C106.203 21.6845 108.135 23.1872 110.374 23.1872C113.349 23.1872 114.882 21.2245 114.882 17.6672ZM111.079 25.6405C108.841 25.6405 107.123 24.6285 106.203 22.6352V31.3139H103.566V10.0005H106.203V12.7605C107.185 10.7365 109.025 9.69385 111.386 9.69385C115.465 9.69385 117.519 13.1592 117.519 17.6672C117.519 21.9912 115.373 25.6405 111.079 25.6405Z" fill="#1E1F21"/>
<path d="M89.4965 16.8085V25.3338H86.8591V16.0725C86.8591 13.3125 85.7551 12.0858 83.2405 12.0858C80.7871 12.0858 79.1005 13.7112 79.1005 16.8085V25.3338H76.4631V10.0005H79.1005V12.5152C80.0818 10.7058 81.8911 9.69385 83.9458 9.69385C86.5525 9.69385 88.3311 11.0125 89.0978 13.4352C89.9565 11.0738 92.0111 9.69385 94.5565 9.69385C97.9911 9.69385 99.8925 12.0245 99.8925 16.3485V25.3338H97.2551V16.8085C97.2551 13.6498 96.1511 12.0858 93.6365 12.0858C91.1831 12.0858 89.4965 13.7112 89.4965 16.8085Z" fill="#1E1F21"/>
<path d="M66.161 25.6405C61.561 25.6405 58.8623 22.2365 58.8623 17.6365C58.8623 13.0365 61.561 9.69385 66.161 9.69385C70.7303 9.69385 73.3983 13.0365 73.3983 17.6365C73.3983 22.2365 70.7303 25.6405 66.161 25.6405ZM66.161 12.1472C62.8796 12.1472 61.4383 14.7232 61.4383 17.6365C61.4383 20.5498 62.8796 23.1872 66.161 23.1872C69.4116 23.1872 70.8223 20.5498 70.8223 17.6365C70.8223 14.7232 69.4116 12.1472 66.161 12.1472Z" fill="#1E1F21"/>
<path d="M56.9279 21.7762V24.4442C55.6706 25.2722 53.6772 25.6402 51.5919 25.6402C44.9679 25.6402 41.2266 21.6536 41.2266 15.3056C41.2266 9.17224 44.9679 4.87891 51.5306 4.87891C53.4932 4.87891 55.4559 5.24691 56.8972 6.28957V8.95757C55.4559 8.03757 53.8612 7.54691 51.5306 7.54691C46.8079 7.54691 43.9866 10.6749 43.9866 15.3056C43.9866 19.9362 46.8999 23.0029 51.6839 23.0029C53.7999 23.0029 55.4559 22.5122 56.9279 21.7762Z" fill="#1E1F21"/>
<path d="M0 8C0 3.58172 3.58172 0 8 0H24C28.4183 0 32 3.58172 32 8V24C32 28.4183 28.4183 32 24 32H8C3.58172 32 0 28.4183 0 24V8Z" fill="#94C748"/>
<path d="M16.69 15.1617V19.4059H12.4378V15.1617H16.69V10.9204H8.93313C8.51886 10.9233 8.18554 11.2556 8.1884 11.6632C8.1884 11.6666 8.1884 11.6699 8.1884 11.6732V22.9167C8.17982 23.3243 8.50886 23.661 8.92266 23.6695C8.92599 23.6695 8.9298 23.6695 8.93313 23.6695H20.1871C20.6013 23.6667 20.9347 23.3343 20.9318 22.9267C20.9318 22.9234 20.9318 22.92 20.9318 22.9167V15.1617H16.69Z" fill="#101214"/>
<path d="M16.6902 6.67699V10.9207H20.9524V15.162H25.1918V7.41983C25.2004 7.01222 24.8714 6.67556 24.4576 6.66699C24.4542 6.66699 24.4504 6.66699 24.4471 6.66699L16.6902 6.67699Z" fill="#101214"/>
</g>
<defs>
<clipPath id="clip0_95164_15528">
<rect width="162" height="32" fill="white"/>
</clipPath>
</defs>
</svg>
