<svg width="236" height="41" viewBox="0 0 236 41" fill="none" xmlns="http://www.w3.org/2000/svg">
<path d="M226.452 15.1097C222.963 15.111 221.201 17.3733 220.857 20.7085L231.552 20.7044C231.359 17.1395 229.748 15.1085 226.452 15.1097ZM233.818 30.9003C232.246 31.7442 229.831 32.0518 227.876 32.0525C220.708 32.0552 217.563 27.9164 217.561 22.0514C217.559 16.263 220.777 12.1218 226.604 12.1196C232.507 12.1174 234.885 16.2182 234.888 22.0449L234.888 23.5399L220.896 23.5451C221.358 26.8033 223.467 28.9108 227.99 28.9091C230.213 28.9083 232.092 28.4859 233.816 27.8719L233.818 30.9003Z" fill="#1E1F21"/>
<path d="M214.95 28.2234L214.951 31.175C213.801 31.7888 212.038 32.0578 210.275 32.0585C203.451 32.061 200.268 27.9222 200.266 22.0572C200.264 16.2689 203.444 12.1277 210.267 12.1251C211.992 12.1245 213.334 12.354 214.829 13.0434L214.83 16.1101C213.603 15.5355 212.3 15.191 210.498 15.1917C205.515 15.1936 203.485 18.3377 203.486 22.056C203.487 25.7744 205.559 28.9169 210.58 28.915C212.535 28.9143 213.762 28.6455 214.95 28.2234Z" fill="#1E1F21"/>
<path d="M196.818 20.4489L196.822 31.6806L193.526 31.6818L193.521 20.1052C193.52 16.6552 192.14 15.1223 188.996 15.1235C185.93 15.1247 183.822 17.1571 183.823 21.0288L183.827 31.6855L180.531 31.6867L180.524 12.5201L183.82 12.5188L183.821 15.6621C185.047 13.4 187.308 12.1342 189.877 12.1332C194.285 12.1315 196.816 15.1589 196.818 20.4489Z" fill="#1E1F21"/>
<path d="M168.165 15.1312C164.677 15.1325 162.915 17.3948 162.571 20.73L173.266 20.7259C173.073 17.161 171.462 15.1299 168.165 15.1312ZM175.531 30.9217C173.96 31.7657 171.545 32.0732 169.59 32.074C162.422 32.0767 159.277 27.9379 159.275 22.0729C159.273 16.2845 162.491 12.1433 168.318 12.1411C174.221 12.1389 176.599 16.2397 176.601 22.0663L176.602 23.5613L162.61 23.5666C163.072 26.8248 165.181 28.9323 169.704 28.9306C171.927 28.9298 173.805 28.5074 175.53 27.8934L175.531 30.9217Z" fill="#1E1F21"/>
<path d="M139.153 23.7668L139.149 12.5352L142.446 12.5339L142.45 24.1106C142.451 27.5606 143.832 29.0934 146.975 29.0922C150.042 29.0911 152.15 27.0586 152.148 23.1869L152.144 12.5303L155.441 12.529L155.448 31.6957L152.151 31.6969L152.15 28.5536C150.924 30.8157 148.663 32.0816 146.095 32.0825C141.687 32.0842 139.155 29.0568 139.153 23.7668Z" fill="#1E1F21"/>
<path d="M136.368 31.6648C136.099 31.7415 135.524 31.8184 134.681 31.8187C131.538 31.8199 129.544 30.3257 129.543 26.799L129.534 4.52734L132.831 4.5261L132.839 26.4144C132.84 28.1394 133.99 28.7523 135.408 28.7518C135.753 28.7517 135.983 28.7516 136.367 28.7131L136.368 31.6648Z" fill="#1E1F21"/>
<path d="M121.034 10.5113L121.034 12.543L125.979 12.5411L125.981 15.6078L121.036 15.6096L121.042 31.7096L117.822 31.7109L117.815 15.6109L114.711 15.612L114.709 12.5454L117.814 12.5442L117.814 10.4359C117.812 6.87086 119.805 4.45511 123.906 4.45357C124.903 4.45319 125.555 4.60628 126.13 4.7594L126.131 7.78773C125.556 7.67294 124.827 7.59655 124.061 7.59684C122.029 7.59761 121.033 8.78631 121.034 10.5113Z" fill="#1E1F21"/>
<path d="M111.878 20.4811L111.883 31.7128L108.586 31.7141L108.581 20.1374C108.58 16.6874 107.2 15.1546 104.056 15.1558C100.99 15.1569 98.8821 17.1894 98.8835 21.061L98.8875 31.7177L95.5909 31.7189L95.5836 12.5523L98.8803 12.551L98.8815 15.6944C100.107 13.4322 102.368 12.1664 104.937 12.1654C109.345 12.1638 111.876 15.1911 111.878 20.4811Z" fill="#1E1F21"/>
<path d="M82.7134 32.1067C76.9634 32.1088 73.5884 27.8551 73.5863 22.1051C73.5841 16.3551 76.9559 12.1755 82.7059 12.1733C88.4175 12.1712 91.7541 16.3482 91.7563 22.0982C91.7584 27.8482 88.425 32.1045 82.7134 32.1067ZM82.707 15.24C78.6053 15.2415 76.8049 18.4622 76.8063 22.1039C76.8076 25.7455 78.6105 29.0415 82.7122 29.04C86.7755 29.0385 88.5376 25.7411 88.5363 22.0995C88.5349 18.4578 86.7703 15.2385 82.707 15.24Z" fill="#1E1F21"/>
<path d="M71.1703 27.2813L71.1715 30.6163C69.6002 31.6519 67.1088 32.1128 64.5021 32.1138C56.2221 32.1169 51.5435 27.1353 51.5406 19.2003C51.5377 11.5337 56.2123 6.16523 64.4156 6.16214C66.869 6.16122 69.3225 6.62029 71.1246 7.92295L71.1259 11.2579C69.3238 10.1086 67.3302 9.49604 64.4169 9.49714C58.5136 9.49936 54.9884 13.4107 54.9906 19.199C54.9927 24.9874 58.6358 28.8193 64.6158 28.8171C67.2608 28.8161 69.3306 28.202 71.1703 27.2813Z" fill="#1E1F21"/>
<path d="M10.0003 0.918108L30.0003 0.910573C35.0629 0.908666 39.1688 5.0115 39.1708 10.0741L39.1783 30.0741C39.1802 35.1367 35.0774 39.2426 30.0148 39.2446L10.0148 39.2521C4.95214 39.254 0.846217 35.1512 0.844309 30.0886L0.836775 10.0886C0.834868 5.02594 4.9377 0.920015 10.0003 0.918108Z" fill="white"/>
<path d="M10.0003 0.918108L30.0003 0.910573C35.0629 0.908666 39.1688 5.0115 39.1708 10.0741L39.1783 30.0741C39.1802 35.1367 35.0774 39.2426 30.0148 39.2446L10.0148 39.2521C4.95214 39.254 0.846217 35.1512 0.844309 30.0886L0.836775 10.0886C0.834868 5.02594 4.9377 0.920015 10.0003 0.918108Z" stroke="#DDDEE1" stroke-width="1.66667"/>
<path d="M28.9583 23.8537C22.7849 20.8716 20.9816 20.4263 18.381 20.4273C15.3295 20.4284 12.7293 21.6987 10.4074 25.2672L10.0262 25.8505C9.71433 26.3309 9.64504 26.5024 9.64512 26.7083C9.6452 26.9141 9.74929 27.0856 10.1308 27.3256L14.0501 29.7597C14.2582 29.8968 14.4316 29.9654 14.6049 29.9653C14.813 29.9652 14.9517 29.8623 15.1596 29.5535L15.7834 28.5927C16.7537 27.1172 17.6204 26.6367 18.7301 26.6362C19.701 26.6359 20.8454 26.9099 22.2673 27.5954L26.3597 29.5149C26.7759 29.7206 27.2267 29.6175 27.4345 29.1372L29.3748 24.8827C29.5826 24.4024 29.4438 24.0937 28.9583 23.8537ZM10.9589 16.3479C17.1322 19.33 18.9355 19.7753 21.5362 19.7743C24.5876 19.7732 27.1878 18.5029 29.5097 14.9344L29.8909 14.3511C30.2028 13.8707 30.2721 13.6992 30.272 13.4933C30.272 13.2875 30.1679 13.116 29.7864 12.876L25.8671 10.4419C25.659 10.3048 25.4856 10.2362 25.3122 10.2363C25.1042 10.2364 24.9655 10.3393 24.7576 10.6481L24.1338 11.6089C23.1634 13.0844 22.2967 13.5649 21.1871 13.5654C20.2162 13.5657 19.0718 13.2917 17.6498 12.6062L13.5574 10.6867C13.1412 10.481 12.6905 10.5841 12.4826 11.0644L10.5424 15.3189C10.3345 15.7992 10.4733 16.1079 10.9589 16.3479Z" fill="#1868DB"/>
</svg>
