<svg width="188" height="32" viewBox="0 0 188 32" fill="none" xmlns="http://www.w3.org/2000/svg">
<g clip-path="url(#clip0_95164_15560)">
<path d="M181.157 12.0854C178.366 12.0854 176.955 13.8947 176.679 16.5627H185.235C185.082 13.7107 183.794 12.0854 181.157 12.0854ZM187.045 24.72C185.787 25.3947 183.855 25.64 182.291 25.64C176.557 25.64 174.042 22.328 174.042 17.636C174.042 13.0054 176.618 9.69336 181.279 9.69336C186.002 9.69336 187.903 12.9747 187.903 17.636V18.832H176.71C177.078 21.4387 178.765 23.1254 182.383 23.1254C184.162 23.1254 185.665 22.788 187.045 22.2974V24.72Z" fill="#1E1F21"/>
<path d="M171.951 22.5734V24.9347C171.031 25.4254 169.621 25.64 168.21 25.64C162.751 25.64 160.206 22.328 160.206 17.636C160.206 13.0054 162.751 9.69336 168.21 9.69336C169.59 9.69336 170.663 9.87736 171.859 10.4294V12.8827C170.878 12.4227 169.835 12.1467 168.394 12.1467C164.407 12.1467 162.782 14.6614 162.782 17.636C162.782 20.6107 164.438 23.1254 168.455 23.1254C170.019 23.1254 171.001 22.9107 171.951 22.5734Z" fill="#1E1F21"/>
<path d="M157.448 16.348V25.3334H154.811V16.072C154.811 13.312 153.707 12.0854 151.192 12.0854C148.739 12.0854 147.052 13.7107 147.052 16.808V25.3334H144.415V10H147.052V12.5147C148.034 10.7054 149.843 9.69336 151.898 9.69336C155.424 9.69336 157.448 12.116 157.448 16.348Z" fill="#1E1F21"/>
<path d="M134.528 12.0854C131.737 12.0854 130.326 13.8947 130.05 16.5627H138.606C138.453 13.7107 137.165 12.0854 134.528 12.0854ZM140.416 24.72C139.158 25.3947 137.226 25.64 135.662 25.64C129.928 25.64 127.413 22.328 127.413 17.636C127.413 13.0054 129.989 9.69336 134.65 9.69336C139.373 9.69336 141.274 12.9747 141.274 17.636V18.832H130.081C130.449 21.4387 132.136 23.1254 135.754 23.1254C137.533 23.1254 139.036 22.788 140.416 22.2974V24.72Z" fill="#1E1F21"/>
<path d="M111.315 18.9853V10H113.953V19.2613C113.953 22.0213 115.057 23.248 117.571 23.248C120.025 23.248 121.711 21.6227 121.711 18.5253V10H124.349V25.3333H121.711V22.8187C120.73 24.628 118.921 25.64 116.866 25.64C113.339 25.64 111.315 23.2173 111.315 18.9853Z" fill="#1E1F21"/>
<path d="M109.085 25.3028C108.87 25.3642 108.41 25.4255 107.735 25.4255C105.221 25.4255 103.626 24.2295 103.626 21.4082V3.59082H106.263V21.1015C106.263 22.4815 107.183 22.9722 108.318 22.9722C108.594 22.9722 108.778 22.9722 109.085 22.9415V25.3028Z" fill="#1E1F21"/>
<path d="M96.8237 8.37463V9.99996H100.78V12.4533H96.8237V25.3333H94.2477V12.4533H91.7637V9.99996H94.2477V8.3133C94.2477 5.4613 95.8423 3.5293 99.1237 3.5293C99.921 3.5293 100.442 3.65196 100.902 3.77463V6.1973C100.442 6.1053 99.8597 6.04396 99.2463 6.04396C97.621 6.04396 96.8237 6.99463 96.8237 8.37463Z" fill="#1E1F21"/>
<path d="M89.4965 16.348V25.3334H86.8591V16.072C86.8591 13.312 85.7551 12.0854 83.2405 12.0854C80.7871 12.0854 79.1005 13.7107 79.1005 16.808V25.3334H76.4631V10H79.1005V12.5147C80.0818 10.7054 81.8911 9.69336 83.9458 9.69336C87.4725 9.69336 89.4965 12.116 89.4965 16.348Z" fill="#1E1F21"/>
<path d="M66.161 25.64C61.561 25.64 58.8623 22.236 58.8623 17.636C58.8623 13.036 61.561 9.69336 66.161 9.69336C70.7303 9.69336 73.3983 13.036 73.3983 17.636C73.3983 22.236 70.7303 25.64 66.161 25.64ZM66.161 12.1467C62.8796 12.1467 61.4383 14.7227 61.4383 17.636C61.4383 20.5494 62.8796 23.1867 66.161 23.1867C69.4116 23.1867 70.8223 20.5494 70.8223 17.636C70.8223 14.7227 69.4116 12.1467 66.161 12.1467Z" fill="#1E1F21"/>
<path d="M56.9279 21.7758V24.4438C55.6706 25.2718 53.6772 25.6398 51.5919 25.6398C44.9679 25.6398 41.2266 21.6531 41.2266 15.3051C41.2266 9.17175 44.9679 4.87842 51.5306 4.87842C53.4932 4.87842 55.4559 5.24642 56.8972 6.28909V8.95709C55.4559 8.03709 53.8612 7.54642 51.5306 7.54642C46.8079 7.54642 43.9866 10.6744 43.9866 15.3051C43.9866 19.9358 46.8999 23.0024 51.6839 23.0024C53.7999 23.0024 55.4559 22.5118 56.9279 21.7758Z" fill="#1E1F21"/>
<path d="M0 8C0 3.58172 3.58172 0 8 0H24C28.4183 0 32 3.58172 32 8V24C32 28.4183 28.4183 32 24 32H8C3.58172 32 0 28.4183 0 24V8Z" fill="#1868DB"/>
<g clip-path="url(#clip1_95164_15560)">
<path d="M23.1594 19.0201C18.2216 16.6325 16.7791 16.2757 14.6986 16.2757C12.2574 16.2757 10.1769 17.2911 8.3183 20.1452L8.01315 20.6118C7.76349 20.996 7.70801 21.1332 7.70801 21.2979C7.70801 21.4625 7.79123 21.5997 8.09637 21.7919L11.231 23.7403C11.3975 23.8501 11.5362 23.905 11.6749 23.905C11.8413 23.905 11.9523 23.8227 12.1187 23.5757L12.6181 22.8073C13.3948 21.6272 14.0883 21.243 14.976 21.243C15.7527 21.243 16.6681 21.4625 17.8055 22.0114L21.0789 23.5482C21.4117 23.7129 21.7724 23.6306 21.9388 23.2464L23.4923 19.8434C23.6587 19.4592 23.5478 19.2122 23.1594 19.0201ZM8.76214 13.0099C13.6999 15.3975 15.1424 15.7543 17.223 15.7543C19.6641 15.7543 21.7446 14.7389 23.6032 11.8848L23.9084 11.4182C24.158 11.034 24.2135 10.8968 24.2135 10.7321C24.2135 10.5675 24.1303 10.4303 23.8252 10.2381L20.6905 8.28966C20.5241 8.17989 20.3854 8.125 20.2467 8.125C20.0802 8.125 19.9693 8.20733 19.8028 8.45432L19.3035 9.22274C18.5268 10.4028 17.8332 10.787 16.9456 10.787C16.1688 10.787 15.2534 10.5675 14.116 10.0186L10.8427 8.48177C10.5098 8.3171 10.1492 8.39943 9.98272 8.78364L8.42926 12.1866C8.26282 12.5708 8.37378 12.8178 8.76214 13.0099Z" fill="white"/>
</g>
</g>
<defs>
<clipPath id="clip0_95164_15560">
<rect width="188" height="32" fill="white"/>
</clipPath>
<clipPath id="clip1_95164_15560">
<rect width="16.5055" height="15.78" fill="white" transform="translate(7.70801 8.125)"/>
</clipPath>
</defs>
</svg>
