<svg width="126" height="32" viewBox="0 0 126 32" fill="none" xmlns="http://www.w3.org/2000/svg">
<path d="M113.968 17.6666C113.968 21.3466 115.44 23.1866 118.17 23.1866C120.531 23.1866 122.647 21.684 122.647 18.28V17.0533C122.647 13.6493 120.715 12.1466 118.476 12.1466C115.502 12.1466 113.968 14.1093 113.968 17.6666ZM122.647 25.3333V22.5733C121.666 24.5973 119.826 25.64 117.464 25.64C113.386 25.64 111.331 22.1746 111.331 17.6666C111.331 13.3426 113.478 9.6933 117.771 9.6933C120.01 9.6933 121.727 10.7053 122.647 12.6986V3.59064H125.284V25.3333H122.647Z" fill="#1E1F21"/>
<path d="M104.934 25.3333H101.561L98.9238 17.912L97.5132 13.1893L96.1025 17.912L93.4652 25.3333H90.0918L84.4492 10H87.3625L91.7785 23.0027L96.2558 10H98.7705L103.248 23.0027L107.664 10H110.577L104.934 25.3333Z" fill="#1E1F21"/>
<path d="M76.4632 25.64C71.8632 25.64 69.1645 22.236 69.1645 17.636C69.1645 13.036 71.8632 9.6933 76.4632 9.6933C81.0325 9.6933 83.7005 13.036 83.7005 17.636C83.7005 22.236 81.0325 25.64 76.4632 25.64ZM76.4632 12.1466C73.1818 12.1466 71.7405 14.7226 71.7405 17.636C71.7405 20.5493 73.1818 23.1866 76.4632 23.1866C79.7138 23.1866 81.1245 20.5493 81.1245 17.636C81.1245 14.7226 79.7138 12.1466 76.4632 12.1466Z" fill="#1E1F21"/>
<path d="M62.6878 16.2867V25.3334H60.1118V10H62.6878V12.6987C63.5772 10.8894 65.1105 9.60137 68.1158 9.78537V12.3614C64.7425 12.024 62.6878 13.036 62.6878 16.2867Z" fill="#1E1F21"/>
<path d="M56.928 21.776V24.444C55.6707 25.272 53.6774 25.64 51.592 25.64C44.968 25.64 41.2267 21.6533 41.2267 15.3053C41.2267 9.172 44.968 4.87866 51.5307 4.87866C53.4934 4.87866 55.456 5.24666 56.8974 6.28933V8.95733C55.456 8.03733 53.8614 7.54666 51.5307 7.54666C46.808 7.54666 43.9867 10.6747 43.9867 15.3053C43.9867 19.936 46.9 23.0027 51.684 23.0027C53.8 23.0027 55.456 22.512 56.928 21.776Z" fill="#1E1F21"/>
<path d="M8 0.666992H24C28.0501 0.666992 31.333 3.94991 31.333 8V24C31.333 28.0501 28.0501 31.333 24 31.333H8C3.94991 31.333 0.666992 28.0501 0.666992 24V8C0.666992 3.94991 3.94991 0.666992 8 0.666992Z" fill="white"/>
<path d="M8 0.666992H24C28.0501 0.666992 31.333 3.94991 31.333 8V24C31.333 28.0501 28.0501 31.333 24 31.333H8C3.94991 31.333 0.666992 28.0501 0.666992 24V8C0.666992 3.94991 3.94991 0.666992 8 0.666992Z" stroke="#DDDEE1" stroke-width="1.33333"/>
<path d="M24.9463 9.95116L16.0003 6.65692L7.05425 9.95116C6.81374 10.0396 6.6579 10.2725 6.66707 10.5281L6.85365 15.604C6.99116 19.801 9.09852 22.9227 12.4046 24.961C12.7147 25.1519 13.1229 25.0235 13.2647 24.6887L15.192 20.1396C15.2604 19.9784 15.1742 19.7934 15.0065 19.7433C13.5872 19.3167 12.5534 18.001 12.5534 16.4431C12.5534 14.5396 14.0968 12.9963 16.0003 12.9963C17.9038 12.9963 19.4471 14.5396 19.4471 16.4431C19.4471 18.001 18.4129 19.3167 16.9941 19.7433C16.8264 19.794 16.7401 19.9784 16.8086 20.1396L18.7359 24.6887C18.8777 25.0241 19.2864 25.1524 19.596 24.961C22.9015 22.9227 25.0094 19.801 25.1464 15.604L25.333 10.5281C25.3421 10.2725 25.1863 10.0396 24.9458 9.95116H24.9463Z" fill="#1868DB"/>
</svg>
