<svg width="94" height="24" viewBox="0 0 94 24" fill="none" xmlns="http://www.w3.org/2000/svg">
<path d="M85.4764 13.25C85.4764 16.01 86.5804 17.39 88.6274 17.39C90.3984 17.39 91.9854 16.263 91.9854 13.71V12.79C91.9854 10.237 90.5364 9.10999 88.8574 9.10999C86.6264 9.10999 85.4764 10.582 85.4764 13.25ZM91.9854 19V16.93C91.2494 18.448 89.8694 19.23 88.0984 19.23C85.0394 19.23 83.4984 16.631 83.4984 13.25C83.4984 10.007 85.1084 7.26999 88.3284 7.26999C90.0074 7.26999 91.2954 8.02899 91.9854 9.52399V2.69299H93.9634V19H91.9854Z" fill="#1E1F21"/>
<path d="M78.7009 19H76.1709L74.1929 13.434L73.1349 9.892L72.0769 13.434L70.0989 19H67.5689L63.3369 7.5H65.5219L68.8339 17.252L72.1919 7.5H74.0779L77.4359 17.252L80.7479 7.5H82.9329L78.7009 19Z" fill="#1E1F21"/>
<path d="M57.3474 19.23C53.8974 19.23 51.8734 16.677 51.8734 13.227C51.8734 9.77702 53.8974 7.27002 57.3474 7.27002C60.7744 7.27002 62.7754 9.77702 62.7754 13.227C62.7754 16.677 60.7744 19.23 57.3474 19.23ZM57.3474 9.11002C54.8864 9.11002 53.8054 11.042 53.8054 13.227C53.8054 15.412 54.8864 17.39 57.3474 17.39C59.7854 17.39 60.8434 15.412 60.8434 13.227C60.8434 11.042 59.7854 9.11002 57.3474 9.11002Z" fill="#1E1F21"/>
<path d="M47.016 12.215V19H45.084V7.50005H47.016V9.52404C47.683 8.16705 48.833 7.20105 51.087 7.33904V9.27105C48.557 9.01805 47.016 9.77704 47.016 12.215Z" fill="#1E1F21"/>
<path d="M42.696 16.3319V18.3329C41.753 18.9539 40.258 19.2299 38.694 19.2299C33.726 19.2299 30.92 16.2399 30.92 11.4789C30.92 6.87894 33.726 3.65894 38.648 3.65894C40.12 3.65894 41.592 3.93494 42.673 4.71694V6.71794C41.592 6.02794 40.396 5.65994 38.648 5.65994C35.106 5.65994 32.99 8.00594 32.99 11.4789C32.99 14.9519 35.175 17.2519 38.763 17.2519C40.35 17.2519 41.592 16.8839 42.696 16.3319Z" fill="#1E1F21"/>
<path d="M6 0.5H18C21.0376 0.5 23.5 2.96243 23.5 6V18C23.5 21.0376 21.0376 23.5 18 23.5H6C2.96243 23.5 0.5 21.0376 0.5 18V6C0.5 2.96243 2.96243 0.5 6 0.5Z" fill="white"/>
<path d="M6 0.5H18C21.0376 0.5 23.5 2.96243 23.5 6V18C23.5 21.0376 21.0376 23.5 18 23.5H6C2.96243 23.5 0.5 21.0376 0.5 18V6C0.5 2.96243 2.96243 0.5 6 0.5Z" stroke="#DDDEE1"/>
<path d="M18.7097 7.46335L12.0002 4.99268L5.29067 7.46335C5.11029 7.52968 4.99341 7.70439 5.00029 7.8961L5.14022 11.703C5.24335 14.8507 6.82387 17.192 9.30345 18.7207C9.536 18.8639 9.84215 18.7676 9.94852 18.5165L11.394 15.1047C11.4453 14.9838 11.3806 14.8451 11.2548 14.8074C10.1904 14.4875 9.41507 13.5007 9.41507 12.3323C9.41507 10.9047 10.5726 9.74718 12.0002 9.74718C13.4278 9.74718 14.5853 10.9047 14.5853 12.3323C14.5853 13.5007 13.8096 14.4875 12.7456 14.8074C12.6198 14.8455 12.5551 14.9838 12.6064 15.1047L14.0519 18.5165C14.1583 18.768 14.4648 18.8643 14.697 18.7207C17.1761 17.192 18.7571 14.8507 18.8598 11.703L18.9997 7.8961C19.0066 7.70439 18.8897 7.52968 18.7093 7.46335H18.7097Z" fill="#1868DB"/>
</svg>
