<svg width="120" height="32" viewBox="0 0 120 32" fill="none" xmlns="http://www.w3.org/2000/svg">
<g clip-path="url(#clip0_95164_15870)">
<path d="M108.398 17.6668C108.398 21.3468 109.87 23.1868 112.599 23.1868C114.961 23.1868 117.077 21.6842 117.077 18.2802V17.0535C117.077 13.6495 115.145 12.1468 112.906 12.1468C109.931 12.1468 108.398 14.1095 108.398 17.6668ZM117.077 25.3335V22.5735C116.095 24.5975 114.255 25.6402 111.894 25.6402C107.815 25.6402 105.761 22.1748 105.761 17.6668C105.761 13.3428 107.907 9.69349 112.201 9.69349C114.439 9.69349 116.157 10.7055 117.077 12.6988V3.59082H119.714V25.3335H117.077Z" fill="#1E1F21"/>
<path d="M99.284 16.2869V25.3336H96.708V10.0002H99.284V12.6989C100.173 10.8896 101.707 9.60156 104.712 9.78556V12.3616C101.339 12.0242 99.284 13.0362 99.284 16.2869Z" fill="#1E1F21"/>
<path d="M81.4149 17.6667C81.4149 21.3467 82.8869 23.1867 85.6163 23.1867C87.9776 23.1867 90.0936 21.684 90.0936 18.28V17.0534C90.0936 13.6494 88.1616 12.1467 85.9229 12.1467C82.9483 12.1467 81.4149 14.1094 81.4149 17.6667ZM90.0936 25.3334V22.5734C89.1123 24.5974 87.2723 25.64 84.9109 25.64C80.8323 25.64 78.7776 22.1747 78.7776 17.6667C78.7776 13.3427 80.9243 9.69336 85.2176 9.69336C87.4563 9.69336 89.1736 10.7054 90.0936 12.6987V10H92.7309V25.3334H90.0936Z" fill="#1E1F21"/>
<path d="M62.6799 18.9853V10H65.3173V19.2613C65.3173 22.0213 66.4213 23.248 68.9359 23.248C71.3893 23.248 73.0759 21.6227 73.0759 18.5253V10H75.7133V25.3333H73.0759V22.8187C72.0946 24.628 70.2853 25.64 68.2306 25.64C64.7039 25.64 62.6799 23.2173 62.6799 18.9853Z" fill="#1E1F21"/>
<path d="M58.7066 24.1988C57.1119 25.1495 54.1679 25.6401 51.8986 25.6401C44.9679 25.6401 41.2266 21.4081 41.2266 15.3055C41.2266 8.74281 45.4892 4.84814 52.6652 4.84814C54.2599 4.84814 56.1306 5.03214 57.9092 5.64548V8.40548C56.3759 7.79215 54.5666 7.51614 52.6959 7.51614C46.7159 7.51614 43.9866 10.4908 43.9866 15.2441C43.9866 19.9055 46.7466 23.0028 52.5426 23.0028C53.4932 23.0028 54.8119 22.9108 55.9466 22.5735V16.9615H50.7946V14.3241H58.7066V24.1988Z" fill="#1E1F21"/>
<path d="M0 8C0 3.58172 3.58172 0 8 0H24C28.4183 0 32 3.58172 32 8V24C32 28.4183 28.4183 32 24 32H8C3.58172 32 0 28.4183 0 24V8Z" fill="#DDDEE1"/>
<g clip-path="url(#clip1_95164_15870)">
<path d="M8.18835 14.644H23.8108C24.2597 14.644 24.4991 14.4046 24.4991 13.9557V8.68835C24.4991 8.23942 24.2597 8 23.8108 8H20.5187C20.0698 8 19.8304 8.23942 19.8304 8.68835V11.3519H18.334V8.68835C18.334 8.23942 18.0945 8 17.6456 8H14.3535C13.9046 8 13.6652 8.23942 13.6652 8.68835V11.3519H12.1688V8.68835C12.1688 8.23942 11.9294 8 11.4804 8H8.18835C7.73942 8 7.5 8.23942 7.5 8.68835V13.9557C7.5 14.4046 7.73942 14.644 8.18835 14.644ZM8.4577 19.2529C8.12849 18.3252 7.91899 17.3675 7.85914 16.2601C7.82921 15.8711 8.00878 15.6616 8.42777 15.6616H23.5714C23.9904 15.6616 24.1699 15.8412 24.1699 16.2003C24.1101 17.3076 23.9006 18.3252 23.5414 19.2529C23.3619 19.7318 23.0925 19.9413 22.5837 19.9413H9.4154C8.90662 19.9413 8.63727 19.7318 8.4577 19.2529ZM22.3144 21.737C20.8778 23.5027 18.5135 24.64 15.9996 24.64C13.4856 24.64 11.0614 23.5027 9.65482 21.737C9.29568 21.2581 9.47525 20.9588 9.83439 20.9588H22.1647C22.5239 20.9588 22.7035 21.2581 22.3144 21.737Z" fill="#101214"/>
</g>
</g>
<defs>
<clipPath id="clip0_95164_15870">
<rect width="120" height="32" fill="white"/>
</clipPath>
<clipPath id="clip1_95164_15870">
<rect width="16.9991" height="16.64" fill="white" transform="translate(7.5 8)"/>
</clipPath>
</defs>
</svg>
