<svg width="121" height="32" viewBox="0 0 121 32" fill="none" xmlns="http://www.w3.org/2000/svg">
<g clip-path="url(#clip0_95164_16185)">
<path d="M113.565 12.0854C110.774 12.0854 109.363 13.8947 109.087 16.5627H117.643C117.49 13.7107 116.202 12.0854 113.565 12.0854ZM119.453 24.72C118.195 25.3947 116.263 25.64 114.699 25.64C108.965 25.64 106.45 22.328 106.45 17.636C106.45 13.0054 109.026 9.69336 113.687 9.69336C118.41 9.69336 120.311 12.9747 120.311 17.636V18.832H109.118C109.486 21.4387 111.173 23.1254 114.791 23.1254C116.57 23.1254 118.073 22.788 119.453 22.2974V24.72Z" fill="#1E1F21"/>
<path d="M93.3002 16.808V25.3334H90.6628V16.072C90.6628 13.312 89.5588 12.0854 87.0442 12.0854C84.5908 12.0854 82.9042 13.7107 82.9042 16.808V25.3334H80.2668V10H82.9042V12.5147C83.8855 10.7054 85.6948 9.69336 87.7495 9.69336C90.3562 9.69336 92.1348 11.012 92.9015 13.4347C93.7602 11.0734 95.8148 9.69336 98.3602 9.69336C101.795 9.69336 103.696 12.024 103.696 16.348V25.3334H101.059V16.808C101.059 13.6494 99.9548 12.0854 97.4402 12.0854C94.9868 12.0854 93.3002 13.7107 93.3002 16.808Z" fill="#1E1F21"/>
<path d="M69.9647 25.64C65.3647 25.64 62.666 22.236 62.666 17.636C62.666 13.036 65.3647 9.69336 69.9647 9.69336C74.534 9.69336 77.202 13.036 77.202 17.636C77.202 22.236 74.534 25.64 69.9647 25.64ZM69.9647 12.1467C66.6833 12.1467 65.242 14.7227 65.242 17.636C65.242 20.5494 66.6833 23.1867 69.9647 23.1867C73.2153 23.1867 74.626 20.5494 74.626 17.636C74.626 14.7227 73.2153 12.1467 69.9647 12.1467Z" fill="#1E1F21"/>
<path d="M56.4068 5.18555H59.1668V25.3335H56.4068V16.6242H45.7961V25.3335H43.0361V5.18555H45.7961V13.9869H56.4068V5.18555Z" fill="#1E1F21"/>
<path d="M0 8C0 3.58172 3.58172 0 8 0H24C28.4183 0 32 3.58172 32 8V24C32 28.4183 28.4183 32 24 32H8C3.58172 32 0 28.4183 0 24V8Z" fill="#DDDEE1"/>
<g clip-path="url(#clip1_95164_16185)">
<path d="M7.25 14.125V24.75H13.5V18.5H18.5V24.75H24.75V14.125L16 6L7.25 14.125Z" fill="#101214"/>
</g>
</g>
<defs>
<clipPath id="clip0_95164_16185">
<rect width="120.667" height="32" fill="white"/>
</clipPath>
<clipPath id="clip1_95164_16185">
<rect width="30" height="30" fill="white" transform="translate(1 1)"/>
</clipPath>
</defs>
</svg>
