<svg width="372" height="32" viewBox="0 0 372 32" fill="none" xmlns="http://www.w3.org/2000/svg">
<g clip-path="url(#clip0_95164_15661)">
<path d="M367.074 20.5802C367.074 21.9295 367.871 22.8495 369.496 22.8495C370.11 22.8495 370.692 22.7268 371.152 22.6348V25.1802C370.692 25.3028 370.171 25.4255 369.374 25.4255C366.092 25.4255 364.498 23.4935 364.498 20.6415V12.4535H362.014V10.0002H364.498V6.74951H367.074V10.0002H371.152V12.4535H367.074V20.5802Z" fill="#1E1F21"/>
<path d="M359.746 16.348V25.3334H357.109V16.072C357.109 13.312 356.005 12.0854 353.49 12.0854C351.037 12.0854 349.35 13.7107 349.35 16.808V25.3334H346.713V10H349.35V12.5147C350.332 10.7054 352.141 9.69336 354.196 9.69336C357.722 9.69336 359.746 12.116 359.746 16.348Z" fill="#1E1F21"/>
<path d="M336.826 12.0854C334.035 12.0854 332.625 13.8947 332.349 16.5627H340.905C340.751 13.7107 339.463 12.0854 336.826 12.0854ZM342.714 24.72C341.457 25.3947 339.525 25.64 337.961 25.64C332.226 25.64 329.711 22.328 329.711 17.636C329.711 13.0054 332.287 9.69336 336.949 9.69336C341.671 9.69336 343.573 12.9747 343.573 17.636V18.832H332.379C332.747 21.4387 334.434 23.1254 338.053 23.1254C339.831 23.1254 341.334 22.788 342.714 22.2974V24.72Z" fill="#1E1F21"/>
<path d="M316.562 16.808V25.3334H313.924V16.072C313.924 13.312 312.82 12.0854 310.306 12.0854C307.852 12.0854 306.166 13.7107 306.166 16.808V25.3334H303.528V10H306.166V12.5147C307.147 10.7054 308.956 9.69336 311.011 9.69336C313.618 9.69336 315.396 11.012 316.163 13.4347C317.022 11.0734 319.076 9.69336 321.622 9.69336C325.056 9.69336 326.958 12.024 326.958 16.348V25.3334H324.32V16.808C324.32 13.6494 323.216 12.0854 320.702 12.0854C318.248 12.0854 316.562 13.7107 316.562 16.808Z" fill="#1E1F21"/>
<path d="M293.641 12.0854C290.85 12.0854 289.44 13.8947 289.164 16.5627H297.72C297.566 13.7107 296.278 12.0854 293.641 12.0854ZM299.529 24.72C298.272 25.3947 296.34 25.64 294.776 25.64C289.041 25.64 286.526 22.328 286.526 17.636C286.526 13.0054 289.102 9.69336 293.764 9.69336C298.486 9.69336 300.388 12.9747 300.388 17.636V18.832H289.194C289.562 21.4387 291.249 23.1254 294.868 23.1254C296.646 23.1254 298.149 22.788 299.529 22.2974V24.72Z" fill="#1E1F21"/>
<path d="M280.89 24.1067V22.5734C279.909 24.5974 278.069 25.64 275.708 25.64C271.66 25.64 269.636 22.1747 269.636 17.6667C269.636 13.3427 271.752 9.69336 276.014 9.69336C278.253 9.69336 279.97 10.7054 280.89 12.6987V10H283.466V23.9534C283.466 28.4614 281.35 31.4974 275.861 31.4974C273.285 31.4974 271.874 31.16 270.402 30.6694V28.0934C272.089 28.6454 273.837 29.0134 275.738 29.0134C279.572 29.0134 280.89 26.9587 280.89 24.1067ZM272.212 17.6667C272.212 21.3467 273.684 23.1867 276.413 23.1867C278.774 23.1867 280.89 21.684 280.89 18.28V17.0534C280.89 13.6494 278.958 12.1467 276.72 12.1467C273.745 12.1467 272.212 14.1094 272.212 17.6667Z" fill="#1E1F21"/>
<path d="M255.263 17.6667C255.263 21.3467 256.735 23.1867 259.464 23.1867C261.825 23.1867 263.941 21.684 263.941 18.28V17.0534C263.941 13.6494 262.009 12.1467 259.771 12.1467C256.796 12.1467 255.263 14.1094 255.263 17.6667ZM263.941 25.3334V22.5734C262.96 24.5974 261.12 25.64 258.759 25.64C254.68 25.64 252.625 22.1747 252.625 17.6667C252.625 13.3427 254.772 9.69336 259.065 9.69336C261.304 9.69336 263.021 10.7054 263.941 12.6987V10H266.579V25.3334H263.941Z" fill="#1E1F21"/>
<path d="M249.868 16.348V25.3334H247.23V16.072C247.23 13.312 246.126 12.0854 243.612 12.0854C241.158 12.0854 239.472 13.7107 239.472 16.808V25.3334H236.834V10H239.472V12.5147C240.453 10.7054 242.262 9.69336 244.317 9.69336C247.844 9.69336 249.868 12.116 249.868 16.348Z" fill="#1E1F21"/>
<path d="M221.541 17.6667C221.541 21.3467 223.013 23.1867 225.743 23.1867C228.104 23.1867 230.22 21.684 230.22 18.28V17.0534C230.22 13.6494 228.288 12.1467 226.049 12.1467C223.075 12.1467 221.541 14.1094 221.541 17.6667ZM230.22 25.3334V22.5734C229.239 24.5974 227.399 25.64 225.037 25.64C220.959 25.64 218.904 22.1747 218.904 17.6667C218.904 13.3427 221.051 9.69336 225.344 9.69336C227.583 9.69336 229.3 10.7054 230.22 12.6987V10H232.857V25.3334H230.22Z" fill="#1E1F21"/>
<path d="M198.775 14.3237L196.015 6.84106V25.3331H193.255V5.18506H198.039L202.608 16.7464L204.479 22.2971L206.35 16.7464L210.95 5.18506H215.396V25.3331H212.636V7.05573L210.275 14.3237L205.828 25.3331H203.16L198.775 14.3237Z" fill="#1E1F21"/>
<path d="M177.263 12.0854C174.473 12.0854 173.062 13.8947 172.786 16.5627H181.342C181.189 13.7107 179.901 12.0854 177.263 12.0854ZM183.151 24.72C181.894 25.3947 179.962 25.64 178.398 25.64C172.663 25.64 170.149 22.328 170.149 17.636C170.149 13.0054 172.725 9.69336 177.386 9.69336C182.109 9.69336 184.01 12.9747 184.01 17.636V18.832H172.817C173.185 21.4387 174.871 23.1254 178.49 23.1254C180.269 23.1254 181.771 22.788 183.151 22.2974V24.72Z" fill="#1E1F21"/>
<path d="M168.058 22.5734V24.9347C167.138 25.4254 165.727 25.64 164.317 25.64C158.858 25.64 156.313 22.328 156.313 17.636C156.313 13.0054 158.858 9.69336 164.317 9.69336C165.697 9.69336 166.77 9.87736 167.966 10.4294V12.8827C166.985 12.4227 165.942 12.1467 164.501 12.1467C160.514 12.1467 158.889 14.6614 158.889 17.636C158.889 20.6107 160.545 23.1254 164.562 23.1254C166.126 23.1254 167.107 22.9107 168.058 22.5734Z" fill="#1E1F21"/>
<path d="M150.124 5.95182C150.124 4.78648 150.89 4.11182 151.964 4.11182C153.037 4.11182 153.804 4.78648 153.804 5.95182C153.804 7.11715 153.037 7.79182 151.964 7.79182C150.89 7.79182 150.124 7.11715 150.124 5.95182ZM150.614 25.3332V9.99982H153.252V25.3332H150.614Z" fill="#1E1F21"/>
<path d="M142.381 25.3333H138.854L132.905 10H135.665L140.633 23.0947L145.57 10H148.33L142.381 25.3333Z" fill="#1E1F21"/>
<path d="M126.926 16.2869V25.3336H124.35V10.0002H126.926V12.6989C127.815 10.8896 129.349 9.60156 132.354 9.78556V12.3616C128.981 12.0242 126.926 13.0362 126.926 16.2869Z" fill="#1E1F21"/>
<path d="M114.463 12.0854C111.672 12.0854 110.261 13.8947 109.985 16.5627H118.541C118.388 13.7107 117.1 12.0854 114.463 12.0854ZM120.351 24.72C119.093 25.3947 117.161 25.64 115.597 25.64C109.863 25.64 107.348 22.328 107.348 17.636C107.348 13.0054 109.924 9.69336 114.585 9.69336C119.308 9.69336 121.209 12.9747 121.209 17.636V18.832H110.016C110.384 21.4387 112.071 23.1254 115.689 23.1254C117.468 23.1254 118.971 22.788 120.351 22.2974V24.72Z" fill="#1E1F21"/>
<path d="M105.024 19.7824C105.024 23.2784 102.939 25.6398 97.9401 25.6398C94.0455 25.6398 92.2361 24.8731 90.6721 24.0758V21.2544C92.5428 22.2358 95.4255 22.9411 98.0935 22.9411C101.129 22.9411 102.264 21.7451 102.264 19.9664C102.264 18.1878 101.16 17.2371 97.3268 16.3171C92.7881 15.2131 90.7641 13.6491 90.7641 10.3371C90.7641 7.20909 93.1561 4.87842 97.8481 4.87842C100.761 4.87842 102.632 5.58375 104.012 6.35042V9.11042C101.988 7.94509 99.8108 7.57708 97.7255 7.57708C95.0881 7.57708 93.5241 8.49709 93.5241 10.3371C93.5241 11.9931 94.8121 12.8211 98.3695 13.7104C102.632 14.7838 105.024 16.1638 105.024 19.7824Z" fill="#1E1F21"/>
<path d="M71.0231 17.6667C71.0231 21.3467 72.4951 23.1867 75.2244 23.1867C77.5857 23.1867 79.7017 21.684 79.7017 18.28V17.0534C79.7017 13.6494 77.7697 12.1467 75.5311 12.1467C72.5564 12.1467 71.0231 14.1094 71.0231 17.6667ZM79.7017 25.3334V22.5734C78.7204 24.5974 76.8804 25.64 74.5191 25.64C70.4404 25.64 68.3857 22.1747 68.3857 17.6667C68.3857 13.3427 70.5324 9.69336 74.8257 9.69336C77.0644 9.69336 78.7817 10.7054 79.7017 12.6987V10H82.3391V25.3334H79.7017Z" fill="#1E1F21"/>
<path d="M61.909 16.2869V25.3336H59.333V10.0002H61.909V12.6989C62.7983 10.8896 64.3317 9.60156 67.337 9.78556V12.3616C63.9637 12.0242 61.909 13.0362 61.909 16.2869Z" fill="#1E1F21"/>
<path d="M52.2239 5.95182C52.2239 4.78648 52.9905 4.11182 54.0639 4.11182C55.1372 4.11182 55.9039 4.78648 55.9039 5.95182C55.9039 7.11715 55.1372 7.79182 54.0639 7.79182C52.9905 7.79182 52.2239 7.11715 52.2239 5.95182ZM52.7145 25.3332V9.99982H55.3519V25.3332H52.7145Z" fill="#1E1F21"/>
<path d="M46.2866 19.3837V5.18506H49.0466V19.1997C49.0466 22.9104 47.4213 25.4557 43.6186 25.4557C42.1773 25.4557 41.0733 25.2104 40.3066 24.9344V22.2664C41.1346 22.6037 42.1466 22.7877 43.1586 22.7877C45.4893 22.7877 46.2866 21.3771 46.2866 19.3837Z" fill="#1E1F21"/>
<path d="M0 8C0 3.58172 3.58172 0 8 0H24C28.4183 0 32 3.58172 32 8V24C32 28.4183 28.4183 32 24 32H8C3.58172 32 0 28.4183 0 24V8Z" fill="#FFC716"/>
<g clip-path="url(#clip1_95164_15661)">
<path d="M18.2679 13.6036H24.219C25.1127 13.6036 25.4179 14.4538 24.8729 15.1295L15.5648 26.6175C12.5566 24.2196 12.84 20.4266 15.0417 17.6582L18.2679 13.6036ZM13.6683 18.1814H7.71728C6.82353 18.1814 6.51835 17.3312 7.06332 16.6554L16.3714 5.16748C19.3796 7.56535 19.0526 11.3147 16.8728 14.105L13.6683 18.1814Z" fill="#101214"/>
</g>
</g>
<defs>
<clipPath id="clip0_95164_15661">
<rect width="371.333" height="32" fill="white"/>
</clipPath>
<clipPath id="clip1_95164_15661">
<rect width="18.3522" height="21.45" fill="white" transform="translate(6.79175 5.16699)"/>
</clipPath>
</defs>
</svg>
