<svg width="327" height="32" viewBox="0 0 327 32" fill="none" xmlns="http://www.w3.org/2000/svg">
<g clip-path="url(#clip0_95164_15622)">
<path d="M317.884 24.352H316.167L310.616 10H313.437L318.344 23.1253L323.251 10H326.072L320.276 24.8427C318.559 29.228 317.577 31.4973 313.683 31.4973C312.364 31.4973 311.628 31.3747 310.861 31.068V28.7987C311.751 29.0747 312.763 29.1667 313.529 29.1667C315.676 29.1667 316.627 27.6947 317.884 24.352Z" fill="#1E1F21"/>
<path d="M304.637 16.2869V25.3336H302.061V10.0002H304.637V12.6989C305.526 10.8896 307.059 9.60156 310.065 9.78556V12.3616C306.691 12.0242 304.637 13.0362 304.637 16.2869Z" fill="#1E1F21"/>
<path d="M292.174 12.0854C289.383 12.0854 287.972 13.8947 287.696 16.5627H296.252C296.099 13.7107 294.811 12.0854 292.174 12.0854ZM298.062 24.72C296.804 25.3947 294.872 25.64 293.308 25.64C287.574 25.64 285.059 22.328 285.059 17.636C285.059 13.0054 287.635 9.69336 292.296 9.69336C297.019 9.69336 298.92 12.9747 298.92 17.636V18.832H287.727C288.095 21.4387 289.782 23.1254 293.4 23.1254C295.179 23.1254 296.682 22.788 298.062 22.2974V24.72Z" fill="#1E1F21"/>
<path d="M278.344 25.3333H274.818L268.868 10H271.628L276.596 23.0947L281.534 10H284.294L278.344 25.3333Z" fill="#1E1F21"/>
<path d="M260.882 25.64C256.282 25.64 253.584 22.236 253.584 17.636C253.584 13.036 256.282 9.69336 260.882 9.69336C265.452 9.69336 268.12 13.036 268.12 17.636C268.12 22.236 265.452 25.64 260.882 25.64ZM260.882 12.1467C257.601 12.1467 256.16 14.7227 256.16 17.636C256.16 20.5494 257.601 23.1867 260.882 23.1867C264.133 23.1867 265.544 20.5494 265.544 17.636C265.544 14.7227 264.133 12.1467 260.882 12.1467Z" fill="#1E1F21"/>
<path d="M251.493 22.5734V24.9347C250.573 25.4254 249.162 25.64 247.752 25.64C242.293 25.64 239.748 22.328 239.748 17.636C239.748 13.0054 242.293 9.69336 247.752 9.69336C249.132 9.69336 250.205 9.87736 251.401 10.4294V12.8827C250.42 12.4227 249.377 12.1467 247.936 12.1467C243.949 12.1467 242.324 14.6614 242.324 17.636C242.324 20.6107 243.98 23.1254 247.997 23.1254C249.561 23.1254 250.542 22.9107 251.493 22.5734Z" fill="#1E1F21"/>
<path d="M237.621 21.1627C237.621 23.708 235.965 25.64 231.856 25.64C229.556 25.64 227.685 25.1187 226.52 24.5054V21.7147C227.839 22.4814 230.047 23.2174 231.979 23.2174C234.003 23.2174 235.045 22.3894 235.045 21.1934C235.045 20.028 234.156 19.3534 231.243 18.648C227.839 17.82 226.397 16.5014 226.397 13.9867C226.397 11.3187 228.452 9.69336 231.948 9.69336C233.941 9.69336 235.751 10.184 236.885 10.7974V13.5267C235.045 12.6067 233.543 12.116 231.917 12.116C229.985 12.116 228.943 12.7907 228.943 13.9867C228.943 15.06 229.679 15.7347 232.5 16.4094C235.904 17.2374 237.621 18.4947 237.621 21.1627Z" fill="#1E1F21"/>
<path d="M219.932 5.9523C219.932 4.78697 220.699 4.1123 221.772 4.1123C222.846 4.1123 223.612 4.78697 223.612 5.9523C223.612 7.11764 222.846 7.7923 221.772 7.7923C220.699 7.7923 219.932 7.11764 219.932 5.9523ZM220.423 25.3336V10.0003H223.06V25.3336H220.423Z" fill="#1E1F21"/>
<path d="M207.678 7.82288H203.139V22.6962H207.831C212.431 22.6962 214.731 20.2735 214.731 15.3975C214.731 10.4909 212.554 7.82288 207.678 7.82288ZM200.379 25.3335V5.18555H207.8C214.332 5.18555 217.491 9.26421 217.491 15.3055C217.491 21.4082 214.302 25.3335 207.8 25.3335H200.379Z" fill="#1E1F21"/>
<path d="M186.967 20.5802C186.967 21.9295 187.764 22.8495 189.39 22.8495C190.003 22.8495 190.586 22.7268 191.046 22.6348V25.1802C190.586 25.3028 190.064 25.4255 189.267 25.4255C185.986 25.4255 184.391 23.4935 184.391 20.6415V12.4535H181.907V10.0002H184.391V6.74951H186.967V10.0002H191.046V12.4535H186.967V20.5802Z" fill="#1E1F21"/>
<path d="M180.307 22.5734V24.9347C179.387 25.4254 177.976 25.64 176.566 25.64C171.107 25.64 168.562 22.328 168.562 17.636C168.562 13.0054 171.107 9.69336 176.566 9.69336C177.946 9.69336 179.019 9.87736 180.215 10.4294V12.8827C179.234 12.4227 178.191 12.1467 176.75 12.1467C172.763 12.1467 171.138 14.6614 171.138 17.636C171.138 20.6107 172.794 23.1254 176.811 23.1254C178.375 23.1254 179.356 22.9107 180.307 22.5734Z" fill="#1E1F21"/>
<path d="M152.464 18.9853V10H155.101V19.2613C155.101 22.0213 156.205 23.248 158.72 23.248C161.173 23.248 162.86 21.6227 162.86 18.5253V10H165.497V25.3333H162.86V22.8187C161.879 24.628 160.069 25.64 158.015 25.64C154.488 25.64 152.464 23.2173 152.464 18.9853Z" fill="#1E1F21"/>
<path d="M137.477 17.6668C137.477 21.3468 138.949 23.1868 141.679 23.1868C144.04 23.1868 146.156 21.6842 146.156 18.2802V17.0535C146.156 13.6495 144.224 12.1468 141.985 12.1468C139.011 12.1468 137.477 14.1095 137.477 17.6668ZM146.156 25.3335V22.5735C145.175 24.5975 143.335 25.6402 140.973 25.6402C136.895 25.6402 134.84 22.1748 134.84 17.6668C134.84 13.3428 136.987 9.69349 141.28 9.69349C143.519 9.69349 145.236 10.7055 146.156 12.6988V3.59082H148.793V25.3335H146.156Z" fill="#1E1F21"/>
<path d="M125.458 25.64C120.858 25.64 118.159 22.236 118.159 17.636C118.159 13.036 120.858 9.69336 125.458 9.69336C130.027 9.69336 132.695 13.036 132.695 17.636C132.695 22.236 130.027 25.64 125.458 25.64ZM125.458 12.1467C122.177 12.1467 120.735 14.7227 120.735 17.636C120.735 20.5494 122.177 23.1867 125.458 23.1867C128.709 23.1867 130.119 20.5494 130.119 17.636C130.119 14.7227 128.709 12.1467 125.458 12.1467Z" fill="#1E1F21"/>
<path d="M111.682 16.2869V25.3336H109.106V10.0002H111.682V12.6989C112.572 10.8896 114.105 9.60156 117.11 9.78556V12.3616C113.737 12.0242 111.682 13.0362 111.682 16.2869Z" fill="#1E1F21"/>
<path d="M106.68 11.9015C106.68 16.2869 104.227 18.7402 99.1975 18.7402H95.1802V25.3335H92.4202V5.18555H99.1975C104.227 5.18555 106.68 7.76155 106.68 11.9015ZM98.8908 16.1029C102.448 16.2255 103.828 14.5389 103.828 11.9629C103.828 9.50955 102.448 7.82288 98.8908 7.82288H95.1802V16.1029H98.8908Z" fill="#1E1F21"/>
<path d="M71.0231 17.6667C71.0231 21.3467 72.4951 23.1867 75.2244 23.1867C77.5857 23.1867 79.7017 21.684 79.7017 18.28V17.0534C79.7017 13.6494 77.7697 12.1467 75.5311 12.1467C72.5564 12.1467 71.0231 14.1094 71.0231 17.6667ZM79.7017 25.3334V22.5734C78.7204 24.5974 76.8804 25.64 74.5191 25.64C70.4404 25.64 68.3857 22.1747 68.3857 17.6667C68.3857 13.3427 70.5324 9.69336 74.8257 9.69336C77.0644 9.69336 78.7817 10.7054 79.7017 12.6987V10H82.3391V25.3334H79.7017Z" fill="#1E1F21"/>
<path d="M61.909 16.2869V25.3336H59.333V10.0002H61.909V12.6989C62.7983 10.8896 64.3317 9.60156 67.337 9.78556V12.3616C63.9637 12.0242 61.909 13.0362 61.909 16.2869Z" fill="#1E1F21"/>
<path d="M52.2239 5.9523C52.2239 4.78697 52.9905 4.1123 54.0639 4.1123C55.1372 4.1123 55.9039 4.78697 55.9039 5.9523C55.9039 7.11764 55.1372 7.7923 54.0639 7.7923C52.9905 7.7923 52.2239 7.11764 52.2239 5.9523ZM52.7145 25.3336V10.0003H55.3519V25.3336H52.7145Z" fill="#1E1F21"/>
<path d="M46.2866 19.3842V5.18555H49.0466V19.2002C49.0466 22.9109 47.4213 25.4562 43.6186 25.4562C42.1773 25.4562 41.0733 25.2109 40.3066 24.9349V22.2669C41.1346 22.6042 42.1466 22.7882 43.1586 22.7882C45.4893 22.7882 46.2866 21.3775 46.2866 19.3842Z" fill="#1E1F21"/>
<path d="M0 8C0 3.58172 3.58172 0 8 0H24C28.4183 0 32 3.58172 32 8V24C32 28.4183 28.4183 32 24 32H8C3.58172 32 0 28.4183 0 24V8Z" fill="#C97CF4"/>
<g clip-path="url(#clip1_95164_15622)">
<path d="M17.448 6.96711C19.9918 7.71333 22.5606 7.71333 25.1044 6.96711C25.3289 6.91736 25.4785 7.0666 25.4286 7.29047C24.7054 9.90226 24.7054 12.3151 25.4286 14.9268C25.4785 15.1258 25.3289 15.3 25.1044 15.2253C22.5606 14.5289 19.9918 14.5289 17.448 15.2253C17.2485 15.3 17.074 15.1258 17.1488 14.9268C17.8221 12.3151 17.8221 9.90226 17.1488 7.29047C17.074 7.0666 17.2485 6.91736 17.448 6.96711ZM18.4706 16.2203V16.6432C18.4706 18.6082 17.0989 20.0509 15.403 20.0509C13.7071 20.0509 12.3604 18.6829 12.3604 16.9914C12.3604 15.3 13.7321 13.9568 15.6524 13.9568H16.1512V8.01182C15.9018 7.98695 15.6524 7.98695 15.403 7.98695C10.4152 7.98695 6.375 12.0166 6.375 17.0163C6.375 22.016 10.4152 26.0207 15.403 26.0207C20.3909 26.0207 24.456 21.9911 24.456 17.0163V16.2203H18.4706Z" fill="#101214"/>
</g>
</g>
<defs>
<clipPath id="clip0_95164_15622">
<rect width="326.667" height="32" fill="white"/>
</clipPath>
<clipPath id="clip1_95164_15622">
<rect width="19.0633" height="19.0633" fill="white" transform="translate(6.375 6.95801)"/>
</clipPath>
</defs>
</svg>
