<svg width="104" height="41" viewBox="0 0 104 41" fill="none" xmlns="http://www.w3.org/2000/svg">
<path d="M88.7875 22.0904C88.7892 26.6904 90.6301 28.9897 94.0417 28.9884C96.9934 28.9873 99.6377 27.108 99.6361 22.853L99.6355 21.3197C99.6339 17.0647 97.2182 15.1872 94.4199 15.1883C90.7015 15.1897 88.7858 17.6438 88.7875 22.0904ZM99.6394 31.6697L99.6381 28.2197C98.4124 30.7501 96.1129 32.0543 93.1612 32.0554C88.0629 32.0574 85.4929 27.7267 85.4908 22.0917C85.4888 16.6867 88.1704 12.124 93.5371 12.122C96.3354 12.1209 98.4825 13.3851 99.6335 15.8763L99.6322 12.503L102.929 12.5018L102.936 31.6684L99.6394 31.6697Z" fill="#1E1F21"/>
<path d="M77.3942 20.369L77.3985 31.6773L74.1785 31.6785L74.1713 12.5119L77.3913 12.5107L77.3925 15.884C78.5033 13.6219 80.4194 12.0112 84.1761 12.2398L84.1774 15.4598C79.9605 15.0397 77.3927 16.3057 77.3942 20.369Z" fill="#1E1F21"/>
<path d="M65.2828 7.45527C65.2823 5.99861 66.2403 5.15491 67.582 5.15441C68.9236 5.1539 69.8823 5.99687 69.8828 7.45354C69.8834 8.91021 68.9254 9.7539 67.5837 9.75441C66.242 9.75491 65.2834 8.91194 65.2828 7.45527ZM65.9053 31.6817L65.8981 12.515L69.1948 12.5138L69.202 31.6805L65.9053 31.6817Z" fill="#1E1F21"/>
<path d="M57.8674 24.2484L57.8607 6.50011L61.3107 6.49881L61.3173 24.0171C61.3191 28.6555 59.2886 31.8379 54.5353 31.8397C52.7336 31.8404 51.3535 31.5342 50.395 31.1896L50.3938 27.8546C51.4289 28.2759 52.694 28.5054 53.959 28.5049C56.8724 28.5038 57.8684 26.7401 57.8674 24.2484Z" fill="#1E1F21"/>
<path d="M10.0003 0.868303L30.0003 0.860769C35.0629 0.858862 39.1688 4.9617 39.1708 10.0243L39.1783 30.0243C39.1802 35.0869 35.0774 39.1928 30.0148 39.1948L10.0148 39.2023C4.95214 39.2042 0.846217 35.1014 0.844309 30.0387L0.836775 10.0387C0.834868 4.97614 4.9377 0.87021 10.0003 0.868303Z" fill="white"/>
<path d="M10.0003 0.868303L30.0003 0.860769C35.0629 0.858862 39.1688 4.9617 39.1708 10.0243L39.1783 30.0243C39.1802 35.0869 35.0774 39.1928 30.0148 39.1948L10.0148 39.2023C4.95214 39.2042 0.846217 35.1014 0.844309 30.0387L0.836775 10.0387C0.834868 4.97614 4.9377 0.87021 10.0003 0.868303Z" stroke="#DDDEE1" stroke-width="1.66667"/>
<path d="M14.9656 25.9056L12.7117 25.9065C9.3125 25.9078 6.87313 23.8266 6.87198 20.7778L18.991 20.7733C19.6191 20.773 20.0257 21.219 20.0259 21.8511L20.0305 34.0462C17.0008 34.0473 14.9677 31.5942 14.9664 28.1736L14.9656 25.9056ZM20.9489 19.843L18.6951 19.8439C15.2958 19.8452 12.8565 17.8012 12.8553 14.7524L24.9743 14.7479C25.6024 14.7476 26.046 15.1564 26.0462 15.7885L26.0508 27.9835C23.0211 27.9847 20.951 25.5316 20.9497 22.111L20.9489 19.843ZM26.9692 13.8176L24.7153 13.8185C21.3161 13.8197 18.8767 11.7386 18.8756 8.68981L30.9946 8.68525C31.6227 8.68501 32.0293 9.13102 32.0295 9.7259L32.0341 21.9209C29.0044 21.9221 26.9713 19.469 26.97 16.0484L26.9692 13.8176Z" fill="#1868DB"/>
</svg>
