<svg width="100" height="32" viewBox="0 0 100 32" fill="none" xmlns="http://www.w3.org/2000/svg">
<path d="M66.7062 5.11395C66.7062 6.19296 67.1943 7.04074 69.1725 7.4261C70.3285 7.68301 70.5855 7.86284 70.5855 8.2482C70.5855 8.63356 70.3285 8.86477 69.5064 8.86477C68.5559 8.86477 67.4255 8.5308 66.6805 8.09406V9.84102C67.2714 10.1236 68.0421 10.4576 69.5064 10.4576C71.5617 10.4576 72.3581 9.53273 72.3581 8.19682M72.3581 8.22251C72.3581 6.93798 71.6901 6.3471 69.7633 5.93605C68.71 5.70483 68.4531 5.47362 68.4531 5.13964C68.4531 4.72859 68.8385 4.54876 69.5321 4.54876C70.3799 4.54876 71.202 4.80566 71.9984 5.16533V3.49545C71.4332 3.21285 70.5854 3.00732 69.5835 3.00732C67.6824 3.00732 66.7062 3.82942 66.7062 5.16533" fill="#101214"/>
<path d="M93.0134 3.05859V10.3804H94.5806V4.80555L95.2228 6.26991L97.4322 10.3804H99.3847V3.05859H97.8433V7.78566L97.2524 6.39837L95.4797 3.05859H93.0134Z" fill="#101214"/>
<path d="M83.0968 3.05859H81.4012V10.3804H83.0968V3.05859Z" fill="#101214"/>
<path d="M79.4487 8.19675C79.4487 6.91222 78.7807 6.32134 76.8539 5.91029C75.8006 5.67908 75.5437 5.44786 75.5437 5.11388C75.5437 4.70284 75.9291 4.523 76.6227 4.523C77.4705 4.523 78.2926 4.77991 79.089 5.13958V3.46969C78.5238 3.18709 77.676 2.98157 76.6741 2.98157C74.773 2.98157 73.7967 3.80367 73.7967 5.13958C73.7967 6.21858 74.2849 7.06637 76.263 7.45173C77.4191 7.70863 77.676 7.88847 77.676 8.27382C77.676 8.65918 77.4191 8.8904 76.597 8.8904C75.6465 8.8904 74.5161 8.55642 73.7711 8.11968V9.86664C74.3619 10.1492 75.1327 10.4832 76.597 10.4832C78.6266 10.4832 79.4487 9.55835 79.4487 8.19675Z" fill="#101214"/>
<path d="M53.5012 3.05859V10.3804H56.9951L57.5346 8.78759H55.1967V3.05859H53.5012Z" fill="#101214"/>
<path d="M46.5906 3.05859V4.62572H48.466V10.3804H50.1873V4.62572H52.2168V3.05859H46.5906Z" fill="#101214"/>
<path d="M44.0985 3.05859H41.8634L39.3201 10.3804H41.2726L41.6322 9.14726C42.069 9.27571 42.5314 9.35278 42.9938 9.35278C43.4562 9.35278 43.9187 9.27571 44.3554 9.14726L44.7151 10.3804H46.6676C46.6419 10.3804 44.0985 3.05859 44.0985 3.05859ZM42.9681 7.81135C42.6342 7.81135 42.3259 7.75997 42.0433 7.6829L42.9681 4.49727L43.893 7.6829C43.6104 7.75997 43.3021 7.81135 42.9681 7.81135Z" fill="#101214"/>
<path d="M63.0324 3.05859H60.7973L58.2283 10.3804H60.1808L60.5404 9.14726C60.9772 9.27571 61.4396 9.35278 61.902 9.35278C62.3645 9.35278 62.8269 9.27571 63.2636 9.14726L63.6233 10.3804H65.5758L63.0324 3.05859ZM61.902 7.81135C61.568 7.81135 61.2598 7.75997 60.9772 7.6829L61.902 4.49727L62.8269 7.6829C62.5443 7.75997 62.236 7.81135 61.902 7.81135Z" fill="#101214"/>
<path d="M89.2368 3.05859H87.0017L84.4584 10.3804H86.4109L86.7705 9.14726C87.2073 9.27571 87.6697 9.35278 88.1321 9.35278C88.5946 9.35278 89.057 9.27571 89.4937 9.14726L89.8534 10.3804H91.8059L89.2368 3.05859ZM88.1321 7.81135C87.7981 7.81135 87.4899 7.75997 87.2073 7.6829L88.1321 4.49727L89.057 7.6829C88.7744 7.75997 88.4404 7.81135 88.1321 7.81135Z" fill="#101214"/>
<path d="M0 8C0 3.58172 3.58172 0 8 0H24C28.4183 0 32 3.58172 32 8V24C32 28.4183 28.4183 32 24 32H8C3.58172 32 0 28.4183 0 24V8Z" fill="#1868DB"/>
<path d="M25.3751 15.3093H19.9898L24.6537 12.6166L23.6295 10.842L18.9656 13.5347L21.6577 8.87119L19.8832 7.84635L17.191 12.5099V7.125H15.1425V12.5104L12.4493 7.84635L10.6754 8.87067L13.368 13.5342L8.70406 10.842L7.67977 12.616L12.3437 15.3088H6.95844V17.3574H12.3432L7.67977 20.0501L8.70406 21.8246L13.3675 19.1324L10.6749 23.796L12.4493 24.8203L15.142 20.1563V25.5417H17.1906V20.1568L19.8827 24.8203L21.6571 23.796L18.9645 19.132L23.6284 21.8246L24.6528 20.0501L19.9893 17.3579H25.374V15.3093H25.3751ZM16.1668 19.1195C14.6221 19.1195 13.3701 17.8675 13.3701 16.3228C13.3701 14.7781 14.6221 13.526 16.1668 13.526C17.7115 13.526 18.9634 14.7781 18.9634 16.3228C18.9634 17.8675 17.7115 19.1195 16.1668 19.1195Z" fill="white"/>
<path d="M39.32 27.7394V14.0372H41.8357V27.7394H39.32Z" fill="#1E1F21"/>
<path d="M63.4484 18.4278H65.8507V19.5638C66.3612 18.6554 67.5535 18.163 68.5746 18.163C69.8425 18.163 70.8636 18.7121 71.3364 19.7148C72.0737 18.5788 73.0581 18.163 74.2876 18.163C76.0087 18.163 77.6544 19.204 77.6544 21.7019V27.7393H75.2143V22.2133C75.2143 21.21 74.7221 20.4532 73.5682 20.4532C72.4897 20.4532 71.8464 21.286 71.8464 22.2893V27.7399H69.3503V22.2133C69.3503 21.21 68.8396 20.4532 67.7041 20.4532C66.6068 20.4532 65.9634 21.2672 65.9634 22.2893V27.7399H63.4484V18.4278Z" fill="#1E1F21"/>
<path d="M47.5207 28.0094C44.6867 28.0094 42.6344 25.9074 42.6344 23.0841C42.6344 20.3058 44.68 18.1538 47.5207 18.1538C50.3752 18.1538 52.407 20.3258 52.407 23.0841C52.407 25.8868 50.3535 28.0094 47.5207 28.0094ZM47.5207 20.433C46.059 20.433 44.87 21.6222 44.87 23.0847C44.87 24.5471 46.059 25.7364 47.5207 25.7364C48.9824 25.7364 50.1708 24.5471 50.1708 23.0847C50.1708 21.6222 48.9824 20.433 47.5207 20.433Z" fill="#1E1F21"/>
<path d="M57.7805 28.0094C54.9464 28.0094 52.8942 25.9074 52.8942 23.0841C52.8942 20.3058 54.9398 18.1538 57.7805 18.1538C60.6349 18.1538 62.6667 20.3258 62.6667 23.0841C62.6667 25.8868 60.6122 28.0094 57.7805 28.0094ZM57.7805 20.4013C56.302 20.4013 55.0992 21.605 55.0992 23.0835C55.0992 24.5621 56.302 25.7658 57.7805 25.7658C59.2588 25.7658 60.4617 24.5621 60.4617 23.0835C60.4611 21.605 59.2583 20.4013 57.7805 20.4013Z" fill="#1E1F21"/>
</svg>
