<svg width="164" height="32" viewBox="0 0 164 32" fill="none" xmlns="http://www.w3.org/2000/svg">
<path d="M156.689 12.0849C153.898 12.0849 152.488 13.8942 152.212 16.5622H160.768C160.614 13.7102 159.326 12.0849 156.689 12.0849ZM162.577 24.7195C161.32 25.3942 159.388 25.6395 157.824 25.6395C152.089 25.6395 149.574 22.3275 149.574 17.6355C149.574 13.0049 152.15 9.69287 156.812 9.69287C161.534 9.69287 163.436 12.9742 163.436 17.6355V18.8315H152.242C152.61 21.4382 154.297 23.1249 157.916 23.1249C159.694 23.1249 161.197 22.7875 162.577 22.2969V24.7195Z" fill="#1E1F21"/>
<path d="M143.385 5.95133C143.385 4.786 144.152 4.11133 145.226 4.11133C146.299 4.11133 147.066 4.786 147.066 5.95133C147.066 7.11666 146.299 7.79133 145.226 7.79133C144.152 7.79133 143.385 7.11666 143.385 5.95133ZM143.876 25.3327V9.99933H146.513V25.3327H143.876Z" fill="#1E1F21"/>
<path d="M140.198 16.3475V25.3329H137.561V16.0715C137.561 13.3115 136.457 12.0849 133.942 12.0849C131.489 12.0849 129.802 13.7102 129.802 16.8075V25.3329H127.165V9.99954H129.802V12.5142C130.784 10.7049 132.593 9.69287 134.648 9.69287C138.174 9.69287 140.198 12.1155 140.198 16.3475Z" fill="#1E1F21"/>
<path d="M117.278 12.0849C114.487 12.0849 113.076 13.8942 112.8 16.5622H121.356C121.203 13.7102 119.915 12.0849 117.278 12.0849ZM123.166 24.7195C121.908 25.3942 119.976 25.6395 118.412 25.6395C112.678 25.6395 110.163 22.3275 110.163 17.6355C110.163 13.0049 112.739 9.69287 117.4 9.69287C122.123 9.69287 124.024 12.9742 124.024 17.6355V18.8315H112.831C113.199 21.4382 114.886 23.1249 118.504 23.1249C120.283 23.1249 121.786 22.7875 123.166 22.2969V24.7195Z" fill="#1E1F21"/>
<path d="M104.527 24.1062V22.5729C103.546 24.5969 101.706 25.6395 99.3445 25.6395C95.2965 25.6395 93.2725 22.1742 93.2725 17.6662C93.2725 13.3422 95.3885 9.69287 99.6511 9.69287C101.89 9.69287 103.607 10.7049 104.527 12.6982V9.99954H107.103V23.9529C107.103 28.4609 104.987 31.4969 99.4978 31.4969C96.9218 31.4969 95.5111 31.1595 94.0391 30.6689V28.0929C95.7258 28.6449 97.4738 29.0129 99.3751 29.0129C103.208 29.0129 104.527 26.9582 104.527 24.1062ZM95.8485 17.6662C95.8485 21.3462 97.3205 23.1862 100.05 23.1862C102.411 23.1862 104.527 21.6835 104.527 18.2795V17.0529C104.527 13.6489 102.595 12.1462 100.356 12.1462C97.3818 12.1462 95.8485 14.1089 95.8485 17.6662Z" fill="#1E1F21"/>
<path d="M91.1461 21.1622C91.1461 23.7075 89.4901 25.6395 85.3808 25.6395C83.0808 25.6395 81.2101 25.1182 80.0448 24.5049V21.7142C81.3635 22.4809 83.5715 23.2169 85.5035 23.2169C87.5275 23.2169 88.5701 22.3889 88.5701 21.1929C88.5701 20.0275 87.6808 19.3529 84.7675 18.6475C81.3635 17.8195 79.9221 16.5009 79.9221 13.9862C79.9221 11.3182 81.9768 9.69287 85.4728 9.69287C87.4661 9.69287 89.2755 10.1835 90.4101 10.7969V13.5262C88.5701 12.6062 87.0675 12.1155 85.4421 12.1155C83.5101 12.1155 82.4675 12.7902 82.4675 13.9862C82.4675 15.0595 83.2035 15.7342 86.0248 16.4089C89.4288 17.2369 91.1461 18.4942 91.1461 21.1622Z" fill="#1E1F21"/>
<path d="M74.8717 17.6662C74.8717 13.9862 73.3997 12.1462 70.6703 12.1462C68.309 12.1462 66.193 13.6489 66.193 17.0529V18.2795C66.193 21.6835 68.125 23.1862 70.3637 23.1862C73.3383 23.1862 74.8717 21.2235 74.8717 17.6662ZM71.069 25.6395C68.8303 25.6395 67.113 24.6275 66.193 22.6342V31.3129H63.5557V9.99954H66.193V12.7595C67.1743 10.7355 69.0143 9.69287 71.3757 9.69287C75.4543 9.69287 77.509 13.1582 77.509 17.6662C77.509 21.9902 75.3623 25.6395 71.069 25.6395Z" fill="#1E1F21"/>
<path d="M50.9479 25.6398C44.7226 25.6398 41.2266 21.3464 41.2266 15.2131C41.2266 9.14109 44.7226 4.87842 50.9479 4.87842C57.1426 4.87842 60.6386 9.14109 60.6386 15.2131C60.6386 21.3464 57.1426 25.6398 50.9479 25.6398ZM50.9479 7.51575C45.9799 7.51575 43.9866 11.0424 43.9866 15.2131C43.9866 19.4758 45.9799 23.0024 50.9479 23.0024C55.8852 23.0024 57.8786 19.4758 57.8786 15.2131C57.8786 11.0424 55.8852 7.51575 50.9479 7.51575Z" fill="#1E1F21"/>
<path d="M0 8C0 3.58172 3.58172 0 8 0H24C28.4183 0 32 3.58172 32 8V24C32 28.4183 28.4183 32 24 32H8C3.58172 32 0 28.4183 0 24V8Z" fill="#FFC716"/>
<path d="M16.9046 25.6841C16.2667 26.1541 15.931 26.1206 15.2932 25.6506C12.2047 23.4349 9.35129 20.9172 7.4378 18.2987C7.23638 18.0302 7.33709 17.6609 7.63922 17.493L11.1305 15.311C11.4326 15.1096 11.7012 15.1431 11.9362 15.4117C13.279 16.9559 14.5882 18.4666 16.0989 19.5408C17.6095 18.4666 18.9188 16.9559 20.2616 15.4117C20.4966 15.1431 20.7651 15.1096 21.0672 15.311L24.5585 17.493C24.8607 17.6609 24.9614 18.0302 24.76 18.2987C22.8465 20.9172 19.993 23.4349 16.9046 25.6841ZM16.0989 16.0495C18.8516 16.0495 21.1344 13.8003 21.1344 11.0476C21.1344 8.29485 18.8516 5.97852 16.0989 5.97852C13.3461 5.97852 11.0634 8.26128 11.0634 11.0476C11.0634 13.8339 13.279 16.0495 16.0989 16.0495Z" fill="#101214"/>
</svg>
