<svg width="145" height="32" viewBox="0 0 145 32" fill="none" xmlns="http://www.w3.org/2000/svg">
<g clip-path="url(#clip0_95164_16253)">
<path d="M144.544 21.1622C144.544 23.7075 142.888 25.6395 138.778 25.6395C136.478 25.6395 134.608 25.1182 133.442 24.5049V21.7142C134.761 22.4809 136.969 23.2169 138.901 23.2169C140.925 23.2169 141.968 22.3889 141.968 21.1929C141.968 20.0275 141.078 19.3529 138.165 18.6475C134.761 17.8195 133.32 16.5009 133.32 13.9862C133.32 11.3182 135.374 9.69287 138.87 9.69287C140.864 9.69287 142.673 10.1835 143.808 10.7969V13.5262C141.968 12.6062 140.465 12.1155 138.84 12.1155C136.908 12.1155 135.865 12.7902 135.865 13.9862C135.865 15.0595 136.601 15.7342 139.422 16.4089C142.826 17.2369 144.544 18.4942 144.544 21.1622Z" fill="#1E1F21"/>
<path d="M126.801 20.5797C126.801 21.929 127.599 22.849 129.224 22.849C129.837 22.849 130.42 22.7264 130.88 22.6344V25.1797C130.42 25.3024 129.899 25.425 129.101 25.425C125.82 25.425 124.225 23.493 124.225 20.641V12.453H121.741V9.99969H124.225V6.74902H126.801V9.99969H130.88V12.453H126.801V20.5797Z" fill="#1E1F21"/>
<path d="M120.142 22.5729V24.9342C119.222 25.4249 117.811 25.6395 116.4 25.6395C110.942 25.6395 108.396 22.3275 108.396 17.6355C108.396 13.0049 110.942 9.69287 116.4 9.69287C117.78 9.69287 118.854 9.87687 120.05 10.4289V12.8822C119.068 12.4222 118.026 12.1462 116.584 12.1462C112.598 12.1462 110.972 14.6609 110.972 17.6355C110.972 20.6102 112.628 23.1249 116.646 23.1249C118.21 23.1249 119.191 22.9102 120.142 22.5729Z" fill="#1E1F21"/>
<path d="M99.4291 12.0849C96.6385 12.0849 95.2278 13.8942 94.9518 16.5622H103.508C103.354 13.7102 102.066 12.0849 99.4291 12.0849ZM105.317 24.7195C104.06 25.3942 102.128 25.6395 100.564 25.6395C94.8291 25.6395 92.3145 22.3275 92.3145 17.6355C92.3145 13.0049 94.8905 9.69287 99.5518 9.69287C104.274 9.69287 106.176 12.9742 106.176 17.6355V18.8315H94.9825C95.3505 21.4382 97.0371 23.1249 100.656 23.1249C102.434 23.1249 103.937 22.7875 105.317 22.2969V24.7195Z" fill="#1E1F21"/>
<path d="M83.8 31.2513V28.89C84.1067 28.9207 84.2907 28.9207 84.5667 28.9207C85.7014 28.9207 86.6214 28.43 86.6214 27.05V9.99933H89.2587V27.3567C89.2587 30.178 87.6641 31.374 85.1494 31.374C84.4747 31.374 84.0147 31.3127 83.8 31.2513ZM86.1 5.95133C86.1 4.786 86.8667 4.11133 87.94 4.11133C89.0134 4.11133 89.78 4.786 89.78 5.95133C89.78 7.11666 89.0134 7.79133 87.94 7.79133C86.8667 7.79133 86.1 7.11666 86.1 5.95133Z" fill="#1E1F21"/>
<path d="M76.0741 25.6395C71.4741 25.6395 68.7754 22.2355 68.7754 17.6355C68.7754 13.0355 71.4741 9.69287 76.0741 9.69287C80.6434 9.69287 83.3114 13.0355 83.3114 17.6355C83.3114 22.2355 80.6434 25.6395 76.0741 25.6395ZM76.0741 12.1462C72.7927 12.1462 71.3514 14.7222 71.3514 17.6355C71.3514 20.5489 72.7927 23.1862 76.0741 23.1862C79.3247 23.1862 80.7354 20.5489 80.7354 17.6355C80.7354 14.7222 79.3247 12.1462 76.0741 12.1462Z" fill="#1E1F21"/>
<path d="M62.2987 16.2859V25.3326H59.7227V9.99925H62.2987V12.6979C63.188 10.8886 64.7213 9.60058 67.7267 9.78458V12.3606C64.3533 12.0232 62.2987 13.0352 62.2987 16.2859Z" fill="#1E1F21"/>
<path d="M57.2961 11.9011C57.2961 16.2864 54.8428 18.7397 49.8135 18.7397H45.7961V25.3331H43.0361V5.18506H49.8135C54.8428 5.18506 57.2961 7.76106 57.2961 11.9011ZM49.5068 16.1024C53.0641 16.2251 54.4441 14.5384 54.4441 11.9624C54.4441 9.50906 53.0641 7.82239 49.5068 7.82239H45.7961V16.1024H49.5068Z" fill="#1E1F21"/>
<path d="M0 8C0 3.58172 3.58172 0 8 0H24C28.4183 0 32 3.58172 32 8V24C32 28.4183 28.4183 32 24 32H8C3.58172 32 0 28.4183 0 24V8Z" fill="#DDDEE1"/>
<g clip-path="url(#clip1_95164_16253)">
<path fill-rule="evenodd" clip-rule="evenodd" d="M6.15161 19.4861L8.80326 16.8344L6.15161 14.1828L8.36132 11.9731H13.6646L17.6421 7.99561H23.8293V14.1828L19.8518 18.1603V23.4636L17.6421 25.6733L14.9904 23.0216L12.3388 25.6733L9.91024 23.2447L13.8877 19.2673L12.5618 17.9415L8.58442 21.9189L6.15161 19.4861ZM20.7357 13.299C20.1255 13.9092 19.1362 13.9092 18.526 13.299C17.9158 12.6888 17.9158 11.6995 18.526 11.0893C19.1362 10.4791 20.1255 10.4791 20.7357 11.0893C21.3459 11.6995 21.3459 12.6888 20.7357 13.299Z" fill="#101214"/>
</g>
</g>
<defs>
<clipPath id="clip0_95164_16253">
<rect width="144.667" height="32" fill="white"/>
</clipPath>
<clipPath id="clip1_95164_16253">
<rect width="30" height="30" fill="white" transform="translate(1 1)"/>
</clipPath>
</defs>
</svg>
