<svg width="102" height="32" viewBox="0 0 102 32" fill="none" xmlns="http://www.w3.org/2000/svg">
<path d="M93.5015 25.9734C88.9015 25.9734 86.2029 22.5694 86.2029 17.9694C86.2029 13.3694 88.9015 10.0268 93.5015 10.0268C98.0709 10.0268 100.739 13.3694 100.739 17.9694C100.739 22.5694 98.0709 25.9734 93.5015 25.9734ZM93.5015 12.4801C90.2202 12.4801 88.7789 15.0561 88.7789 17.9694C88.7789 20.8828 90.2202 23.5201 93.5015 23.5201C96.7522 23.5201 98.1629 20.8828 98.1629 17.9694C98.1629 15.0561 96.7522 12.4801 93.5015 12.4801Z" fill="#1E1F21"/>
<path d="M79.4882 25.6671H75.9616L70.0122 10.3338H72.7722L77.7402 23.4285L82.6776 10.3338H85.4376L79.4882 25.6671Z" fill="#1E1F21"/>
<path d="M62.0265 25.9734C57.4265 25.9734 54.7279 22.5694 54.7279 17.9694C54.7279 13.3694 57.4265 10.0268 62.0265 10.0268C66.5959 10.0268 69.2639 13.3694 69.2639 17.9694C69.2639 22.5694 66.5959 25.9734 62.0265 25.9734ZM62.0265 12.4801C58.7452 12.4801 57.3039 15.0561 57.3039 17.9694C57.3039 20.8828 58.7452 23.5201 62.0265 23.5201C65.2772 23.5201 66.6879 20.8828 66.6879 17.9694C66.6879 15.0561 65.2772 12.4801 62.0265 12.4801Z" fill="#1E1F21"/>
<path d="M44.9906 8.15609H40.9426V15.5161H44.9906C48.5786 15.5161 49.6826 14.1361 49.6826 11.8361C49.6826 9.65875 48.5479 8.15609 44.9906 8.15609ZM52.4426 11.7748C52.4426 14.8108 51.1546 16.8654 48.4866 17.7241L53.4239 25.6668H50.1733L45.7266 18.1534C45.6039 18.1534 45.4506 18.1534 45.2973 18.1534H40.9426V25.6668H38.1826V5.51875H45.2973C50.1119 5.51875 52.4426 7.91075 52.4426 11.7748Z" fill="#1E1F21"/>
<path fill-rule="evenodd" clip-rule="evenodd" d="M15.892 22.3851L6.35383 27.9438L1.81625 25.3305C0.694355 24.6836 7.62939e-05 23.4837 7.62939e-05 22.191V9.82147C7.62939e-05 8.5236 0.690284 7.32889 1.81551 6.68243L9.87351 2.03338C9.85564 2.08355 9.83861 2.13407 9.82242 2.1849C9.67325 2.64778 9.59418 3.13683 9.59418 3.63671V16.0062C9.59418 17.7054 10.4993 19.2727 11.9742 20.1205L15.892 22.3851Z" fill="#1868DB"/>
<path fill-rule="evenodd" clip-rule="evenodd" d="M13.3177 20.8953L3.72662 26.4327L12.5359 31.5152C13.6377 32.1503 14.9936 32.1617 16.1044 31.549C16.1245 31.5334 16.1459 31.5189 16.1686 31.5059C16.9601 31.0495 17.539 30.3178 17.8111 29.4724C17.9219 29.1229 17.9804 28.7537 17.9804 28.3757V23.5843L13.3177 20.8953Z" fill="#6A9A23"/>
<path fill-rule="evenodd" clip-rule="evenodd" d="M26.8926 6.67017L21.0206 3.28542L13.1478 9.80573L16.7352 11.8804C18.2104 12.7282 19.1148 14.2952 19.1148 15.9945V28.364C19.1148 28.8646 19.0356 29.3543 18.886 29.8177C18.87 29.8679 18.8532 29.9178 18.8355 29.9673L26.8935 25.3183C28.0188 24.6718 28.709 23.4771 28.709 22.1792V9.80972C28.709 8.51698 28.0145 7.31697 26.8926 6.67017Z" fill="#AF59E1"/>
<path fill-rule="evenodd" clip-rule="evenodd" d="M15.2437 11.0218L10.7253 8.4161V3.62467C10.7253 3.24712 10.7837 2.87829 10.8943 2.52916C11.166 1.68416 11.7439 0.952645 12.5346 0.495997L12.537 0.494614C12.5597 0.481537 12.5812 0.467033 12.6014 0.451438C13.7122 -0.161299 15.0681 -0.150042 16.1699 0.485208L24.8348 5.48439L15.2437 11.0218Z" fill="#FCA700"/>
</svg>
