<svg width="130" height="32" viewBox="0 0 130 32" fill="none" xmlns="http://www.w3.org/2000/svg">
<g clip-path="url(#clip0_95164_16402)">
<path d="M128.818 16.3482V25.3335H126.181V16.8082C126.181 13.6495 125.077 12.0855 122.562 12.0855C120.109 12.0855 118.422 13.7108 118.422 16.8082V25.3335H115.785V3.59082H118.422V12.5455C119.434 10.7362 121.274 9.69349 123.482 9.69349C126.917 9.69349 128.818 12.0242 128.818 16.3482Z" fill="#1E1F21"/>
<path d="M112.775 22.5734V24.9347C111.855 25.4254 110.444 25.64 109.033 25.64C103.575 25.64 101.029 22.328 101.029 17.636C101.029 13.0054 103.575 9.69336 109.033 9.69336C110.413 9.69336 111.487 9.87736 112.683 10.4294V12.8827C111.701 12.4227 110.659 12.1467 109.217 12.1467C105.231 12.1467 103.605 14.6614 103.605 17.636C103.605 20.6107 105.261 23.1254 109.279 23.1254C110.843 23.1254 111.824 22.9107 112.775 22.5734Z" fill="#1E1F21"/>
<path d="M94.5526 16.2864V25.3331H91.9766V9.99974H94.5526V12.6984C95.4419 10.8891 96.9752 9.60107 99.9806 9.78507V12.3611C96.6072 12.0237 94.5526 13.0357 94.5526 16.2864Z" fill="#1E1F21"/>
<path d="M76.6835 17.6667C76.6835 21.3467 78.1555 23.1867 80.8848 23.1867C83.2461 23.1867 85.3621 21.684 85.3621 18.28V17.0534C85.3621 13.6494 83.4301 12.1467 81.1915 12.1467C78.2168 12.1467 76.6835 14.1094 76.6835 17.6667ZM85.3621 25.3334V22.5734C84.3808 24.5974 82.5408 25.64 80.1795 25.64C76.1008 25.64 74.0461 22.1747 74.0461 17.6667C74.0461 13.3427 76.1928 9.69336 80.4861 9.69336C82.7248 9.69336 84.4421 10.7054 85.3621 12.6987V10H87.9995V25.3334H85.3621Z" fill="#1E1F21"/>
<path d="M65.0788 12.0854C62.2881 12.0854 60.8774 13.8947 60.6014 16.5627H69.1574C69.0041 13.7107 67.7161 12.0854 65.0788 12.0854ZM70.9668 24.72C69.7094 25.3947 67.7774 25.64 66.2134 25.64C60.4788 25.64 57.9641 22.328 57.9641 17.636C57.9641 13.0054 60.5401 9.69336 65.2014 9.69336C69.9241 9.69336 71.8254 12.9747 71.8254 17.636V18.832H60.6321C61.0001 21.4387 62.6868 23.1254 66.3054 23.1254C68.0841 23.1254 69.5868 22.788 70.9668 22.2974V24.72Z" fill="#1E1F21"/>
<path d="M55.6401 19.7824C55.6401 23.2784 53.5548 25.6398 48.5561 25.6398C44.6614 25.6398 42.8521 24.8731 41.2881 24.0758V21.2544C43.1588 22.2358 46.0414 22.9411 48.7094 22.9411C51.7454 22.9411 52.8801 21.7451 52.8801 19.9664C52.8801 18.1878 51.7761 17.2371 47.9428 16.3171C43.4041 15.2131 41.3801 13.6491 41.3801 10.3371C41.3801 7.20909 43.7721 4.87842 48.4641 4.87842C51.3774 4.87842 53.2481 5.58375 54.6281 6.35042V9.11042C52.6041 7.94509 50.4268 7.57708 48.3414 7.57708C45.7041 7.57708 44.1401 8.49709 44.1401 10.3371C44.1401 11.9931 45.4281 12.8211 48.9854 13.7104C53.2481 14.7838 55.6401 16.1638 55.6401 19.7824Z" fill="#1E1F21"/>
<path d="M0 8C0 3.58172 3.58172 0 8 0H24C28.4183 0 32 3.58172 32 8V24C32 28.4183 28.4183 32 24 32H8C3.58172 32 0 28.4183 0 24V8Z" fill="#DDDEE1"/>
<path fill-rule="evenodd" clip-rule="evenodd" d="M7.1272 14.8333C7.1272 19.0215 10.5224 22.4167 14.7105 22.4167C16.0551 22.4167 17.318 22.0667 18.413 21.4529L22.8767 25.9167L25.7641 23.0293L21.3086 18.5739C21.9357 17.4701 22.2939 16.1935 22.2939 14.8333C22.2939 10.6452 18.8987 7.25 14.7105 7.25C10.5224 7.25 7.1272 10.6452 7.1272 14.8333ZM10.0439 14.8333C10.0439 17.4107 12.1332 19.5 14.7105 19.5C17.2879 19.5 19.3772 17.4107 19.3772 14.8333C19.3772 12.256 17.2879 10.1667 14.7105 10.1667C12.1332 10.1667 10.0439 12.256 10.0439 14.8333Z" fill="#101214"/>
</g>
<defs>
<clipPath id="clip0_95164_16402">
<rect width="129.333" height="32" fill="white"/>
</clipPath>
</defs>
</svg>
