<svg width="192" height="32" viewBox="0 0 192 32" fill="none" xmlns="http://www.w3.org/2000/svg">
<g clip-path="url(#clip0_95164_15788)">
<path d="M184.96 12.0854C182.17 12.0854 180.759 13.8947 180.483 16.5627H189.039C188.886 13.7107 187.598 12.0854 184.96 12.0854ZM190.848 24.72C189.591 25.3947 187.659 25.64 186.095 25.64C180.36 25.64 177.846 22.328 177.846 17.636C177.846 13.0054 180.422 9.69336 185.083 9.69336C189.806 9.69336 191.707 12.9747 191.707 17.636V18.832H180.514C180.882 21.4387 182.568 23.1254 186.187 23.1254C187.966 23.1254 189.468 22.788 190.848 22.2974V24.72Z" fill="#1E1F21"/>
<path d="M172.21 24.1067V22.5734C171.228 24.5974 169.388 25.64 167.027 25.64C162.979 25.64 160.955 22.1747 160.955 17.6667C160.955 13.3427 163.071 9.69336 167.334 9.69336C169.572 9.69336 171.29 10.7054 172.21 12.6987V10H174.786V23.9534C174.786 28.4614 172.67 31.4974 167.18 31.4974C164.604 31.4974 163.194 31.16 161.722 30.6694V28.0934C163.408 28.6454 165.156 29.0134 167.058 29.0134C170.891 29.0134 172.21 26.9587 172.21 24.1067ZM163.531 17.6667C163.531 21.3467 165.003 23.1867 167.732 23.1867C170.094 23.1867 172.21 21.684 172.21 18.28V17.0534C172.21 13.6494 170.278 12.1467 168.039 12.1467C165.064 12.1467 163.531 14.1094 163.531 17.6667Z" fill="#1E1F21"/>
<path d="M146.582 17.6667C146.582 21.3467 148.054 23.1867 150.783 23.1867C153.145 23.1867 155.261 21.684 155.261 18.28V17.0534C155.261 13.6494 153.329 12.1467 151.09 12.1467C148.115 12.1467 146.582 14.1094 146.582 17.6667ZM155.261 25.3334V22.5734C154.279 24.5974 152.439 25.64 150.078 25.64C145.999 25.64 143.945 22.1747 143.945 17.6667C143.945 13.3427 146.091 9.69336 150.385 9.69336C152.623 9.69336 154.341 10.7054 155.261 12.6987V10H157.898V25.3334H155.261Z" fill="#1E1F21"/>
<path d="M139.17 17.6667C139.17 13.9867 137.698 12.1467 134.969 12.1467C132.608 12.1467 130.492 13.6494 130.492 17.0534V18.28C130.492 21.684 132.424 23.1867 134.662 23.1867C137.637 23.1867 139.17 21.224 139.17 17.6667ZM135.368 25.64C133.129 25.64 131.412 24.628 130.492 22.6347V31.3134H127.854V10H130.492V12.76C131.473 10.736 133.313 9.69336 135.674 9.69336C139.753 9.69336 141.808 13.1587 141.808 17.6667C141.808 21.9907 139.661 25.64 135.368 25.64Z" fill="#1E1F21"/>
<path d="M124.808 21.1627C124.808 23.708 123.152 25.64 119.042 25.64C116.742 25.64 114.872 25.1187 113.706 24.5054V21.7147C115.025 22.4814 117.233 23.2174 119.165 23.2174C121.189 23.2174 122.232 22.3894 122.232 21.1934C122.232 20.028 121.342 19.3534 118.429 18.648C115.025 17.82 113.584 16.5014 113.584 13.9867C113.584 11.3187 115.638 9.69336 119.134 9.69336C121.128 9.69336 122.937 10.184 124.072 10.7974V13.5267C122.232 12.6067 120.729 12.116 119.104 12.116C117.172 12.116 116.129 12.7907 116.129 13.9867C116.129 15.06 116.865 15.7347 119.686 16.4094C123.09 17.2374 124.808 18.4947 124.808 21.1627Z" fill="#1E1F21"/>
<path d="M97.2102 18.9853V10H99.8475V19.2613C99.8475 22.0213 100.952 23.248 103.466 23.248C105.92 23.248 107.606 21.6227 107.606 18.5253V10H110.244V25.3333H107.606V22.8187C106.625 24.628 104.816 25.64 102.761 25.64C99.2342 25.64 97.2102 23.2173 97.2102 18.9853Z" fill="#1E1F21"/>
<path d="M90.0554 20.5802C90.0554 21.9295 90.8527 22.8495 92.478 22.8495C93.0914 22.8495 93.674 22.7268 94.134 22.6348V25.1802C93.674 25.3028 93.1527 25.4255 92.3554 25.4255C89.074 25.4255 87.4794 23.4935 87.4794 20.6415V12.4535H84.9954V10.0002H87.4794V6.74951H90.0554V10.0002H94.134V12.4535H90.0554V20.5802Z" fill="#1E1F21"/>
<path d="M71.1132 17.6667C71.1132 21.3467 72.5852 23.1867 75.3145 23.1867C77.6758 23.1867 79.7918 21.684 79.7918 18.28V17.0534C79.7918 13.6494 77.8598 12.1467 75.6212 12.1467C72.6465 12.1467 71.1132 14.1094 71.1132 17.6667ZM79.7918 25.3334V22.5734C78.8105 24.5974 76.9705 25.64 74.6092 25.64C70.5305 25.64 68.4758 22.1747 68.4758 17.6667C68.4758 13.3427 70.6225 9.69336 74.9158 9.69336C77.1545 9.69336 78.8718 10.7054 79.7918 12.6987V10H82.4292V25.3334H79.7918Z" fill="#1E1F21"/>
<path d="M62.5334 20.5802C62.5334 21.9295 63.3307 22.8495 64.9561 22.8495C65.5694 22.8495 66.1521 22.7268 66.6121 22.6348V25.1802C66.1521 25.3028 65.6307 25.4255 64.8334 25.4255C61.5521 25.4255 59.9574 23.4935 59.9574 20.6415V12.4535H57.4734V10.0002H59.9574V6.74951H62.5334V10.0002H66.6121V12.4535H62.5334V20.5802Z" fill="#1E1F21"/>
<path d="M55.6401 19.7829C55.6401 23.2789 53.5548 25.6402 48.5561 25.6402C44.6614 25.6402 42.8521 24.8736 41.2881 24.0762V21.2549C43.1588 22.2362 46.0414 22.9416 48.7094 22.9416C51.7454 22.9416 52.8801 21.7456 52.8801 19.9669C52.8801 18.1882 51.7761 17.2376 47.9428 16.3176C43.4041 15.2136 41.3801 13.6496 41.3801 10.3376C41.3801 7.20957 43.7721 4.87891 48.4641 4.87891C51.3774 4.87891 53.2481 5.58424 54.6281 6.35091V9.11091C52.6041 7.94557 50.4268 7.57757 48.3414 7.57757C45.7041 7.57757 44.1401 8.49757 44.1401 10.3376C44.1401 11.9936 45.4281 12.8216 48.9854 13.7109C53.2481 14.7842 55.6401 16.1642 55.6401 19.7829Z" fill="#1E1F21"/>
<path d="M0 8C0 3.58172 3.58172 0 8 0H24C28.4183 0 32 3.58172 32 8V24C32 28.4183 28.4183 32 24 32H8C3.58172 32 0 28.4183 0 24V8Z" fill="#FFC716"/>
<path d="M15.896 13.1964C13.4325 13.1964 11.0366 14.31 9.0793 16.0311C8.87683 16.2335 8.67435 16.3348 8.47187 16.3348C8.30314 16.3348 8.13441 16.2335 7.99943 16.0648L5.53597 13.1627C5.40099 12.9939 5.3335 12.8252 5.3335 12.6902C5.3335 12.4877 5.43473 12.319 5.63721 12.1165C8.60686 9.48434 12.2177 7.99951 15.896 7.99951C19.5743 7.99951 23.1851 9.48434 26.1548 12.1165C26.3573 12.319 26.4585 12.4877 26.4585 12.6902C26.4585 12.8252 26.391 12.9939 26.256 13.1627L23.7926 16.0648C23.6576 16.2335 23.4888 16.3348 23.3201 16.3348C23.1176 16.3348 22.9152 16.2335 22.7127 16.0311C20.7554 14.31 18.3595 13.1964 15.896 13.1964ZM15.896 24.0626C13.1626 24.0626 10.9353 21.8354 10.9353 19.1357C10.9353 16.436 13.1626 14.2088 15.896 14.2088C18.6294 14.2088 20.8567 16.4023 20.8567 19.1357C20.8567 21.8691 18.6294 24.0626 15.896 24.0626Z" fill="#101214"/>
</g>
<defs>
<clipPath id="clip0_95164_15788">
<rect width="192" height="32" fill="white"/>
</clipPath>
</defs>
</svg>
