<svg width="124" height="32" viewBox="0 0 124 32" fill="none" xmlns="http://www.w3.org/2000/svg">
<path d="M116.713 25.6397C112.113 25.6397 109.414 22.2357 109.414 17.6357C109.414 13.0357 112.113 9.69303 116.713 9.69303C121.282 9.69303 123.95 13.0357 123.95 17.6357C123.95 22.2357 121.282 25.6397 116.713 25.6397ZM116.713 12.1464C113.432 12.1464 111.99 14.7224 111.99 17.6357C111.99 20.549 113.432 23.1864 116.713 23.1864C119.964 23.1864 121.374 20.549 121.374 17.6357C121.374 14.7224 119.964 12.1464 116.713 12.1464Z" fill="#1E1F21"/>
<path d="M103.225 5.95165C103.225 4.78632 103.992 4.11165 105.065 4.11165C106.138 4.11165 106.905 4.78632 106.905 5.95165C106.905 7.11698 106.138 7.79165 105.065 7.79165C103.992 7.79165 103.225 7.11698 103.225 5.95165ZM103.716 25.333V9.99965H106.353V25.333H103.716Z" fill="#1E1F21"/>
<path d="M88.423 17.6662C88.423 21.3462 89.895 23.1862 92.6243 23.1862C94.9856 23.1862 97.1016 21.6835 97.1016 18.2795V17.0528C97.1016 13.6488 95.1696 12.1462 92.931 12.1462C89.9563 12.1462 88.423 14.1088 88.423 17.6662ZM97.1016 25.3328V22.5728C96.1203 24.5968 94.2803 25.6395 91.919 25.6395C87.8403 25.6395 85.7856 22.1742 85.7856 17.6662C85.7856 13.3422 87.9323 9.69283 92.2256 9.69283C94.4643 9.69283 96.1816 10.7048 97.1016 12.6982V3.59016H99.739V25.3328H97.1016Z" fill="#1E1F21"/>
<path d="M69.6877 18.985V9.99967H72.325V19.261C72.325 22.021 73.429 23.2477 75.9437 23.2477C78.397 23.2477 80.0837 21.6223 80.0837 18.525V9.99967H82.721V25.333H80.0837V22.8183C79.1023 24.6277 77.293 25.6397 75.2383 25.6397C71.7117 25.6397 69.6877 23.217 69.6877 18.985Z" fill="#1E1F21"/>
<path d="M62.5331 20.5797C62.5331 21.929 63.3305 22.849 64.9558 22.849C65.5691 22.849 66.1518 22.7264 66.6118 22.6344V25.1797C66.1518 25.3024 65.6305 25.425 64.8331 25.425C61.5518 25.425 59.9571 23.493 59.9571 20.641V12.453H57.4731V9.99969H59.9571V6.74902H62.5331V9.99969H66.6118V12.453H62.5331V20.5797Z" fill="#1E1F21"/>
<path d="M55.6399 19.7819C55.6399 23.2779 53.5546 25.6393 48.5559 25.6393C44.6613 25.6393 42.8519 24.8726 41.2879 24.0753V21.2539C43.1586 22.2353 46.0413 22.9406 48.7093 22.9406C51.7453 22.9406 52.8799 21.7446 52.8799 19.9659C52.8799 18.1873 51.7759 17.2366 47.9426 16.3166C43.4039 15.2126 41.3799 13.6486 41.3799 10.3366C41.3799 7.2086 43.7719 4.87793 48.4639 4.87793C51.3773 4.87793 53.2479 5.58326 54.6279 6.34993V9.10993C52.6039 7.9446 50.4266 7.5766 48.3413 7.5766C45.7039 7.5766 44.1399 8.4966 44.1399 10.3366C44.1399 11.9926 45.4279 12.8206 48.9853 13.7099C53.2479 14.7833 55.6399 16.1633 55.6399 19.7819Z" fill="#1E1F21"/>
<path d="M0 8C0 3.58172 3.58172 0 8 0H24C28.4183 0 32 3.58172 32 8V24C32 28.4183 28.4183 32 24 32H8C3.58172 32 0 28.4183 0 24V8Z" fill="#DDDEE1"/>
<path fill-rule="evenodd" clip-rule="evenodd" d="M14.1254 24.75V14.125H24.7504V24.75H14.1254ZM19.2033 16.1L18.9853 16.6713C18.6725 17.4914 18.5161 17.9015 18.223 18.2122C17.9298 18.5229 17.5295 18.7028 16.7289 19.0626L16.434 19.1952V19.6714L16.7287 19.8039C17.5294 20.1637 17.9297 20.3437 18.2229 20.6544C18.5161 20.9651 18.6725 21.3752 18.9854 22.1954L19.2033 22.7667H19.6647L19.8827 22.1952C20.1955 21.3751 20.3519 20.965 20.6451 20.6544C20.9383 20.3437 21.3386 20.1637 22.1392 19.8039L22.434 19.6714V19.1952L22.139 19.0626C21.3385 18.7028 20.9382 18.5229 20.6451 18.2122C20.3519 17.9015 20.1955 17.4915 19.8827 16.6714L19.6647 16.1H19.2033Z" fill="#101214"/>
<path d="M19.7504 9.59375L13.5004 6L7.25036 9.59375V16.7812L12.2504 19.6563V12.25H19.7504V9.59375Z" fill="#101214"/>
</svg>
