<svg width="124" height="32" viewBox="0 0 124 32" fill="none" xmlns="http://www.w3.org/2000/svg">
<g clip-path="url(#clip0_95164_16436)">
<path d="M116.713 25.64C112.113 25.64 109.415 22.236 109.415 17.636C109.415 13.036 112.113 9.69336 116.713 9.69336C121.283 9.69336 123.951 13.036 123.951 17.636C123.951 22.236 121.283 25.64 116.713 25.64ZM116.713 12.1467C113.432 12.1467 111.991 14.7227 111.991 17.636C111.991 20.5494 113.432 23.1867 116.713 23.1867C119.964 23.1867 121.375 20.5494 121.375 17.636C121.375 14.7227 119.964 12.1467 116.713 12.1467Z" fill="#1E1F21"/>
<path d="M103.225 5.95133C103.225 4.786 103.992 4.11133 105.065 4.11133C106.139 4.11133 106.905 4.786 106.905 5.95133C106.905 7.11666 106.139 7.79133 105.065 7.79133C103.992 7.79133 103.225 7.11666 103.225 5.95133ZM103.716 25.3327V9.99933H106.353V25.3327H103.716Z" fill="#1E1F21"/>
<path d="M88.4232 17.6668C88.4232 21.3468 89.8952 23.1868 92.6246 23.1868C94.9859 23.1868 97.1019 21.6842 97.1019 18.2802V17.0535C97.1019 13.6495 95.1699 12.1468 92.9312 12.1468C89.9566 12.1468 88.4232 14.1095 88.4232 17.6668ZM97.1019 25.3335V22.5735C96.1206 24.5975 94.2806 25.6402 91.9192 25.6402C87.8406 25.6402 85.7859 22.1748 85.7859 17.6668C85.7859 13.3428 87.9326 9.69349 92.2259 9.69349C94.4646 9.69349 96.1819 10.7055 97.1019 12.6988V3.59082H99.7392V25.3335H97.1019Z" fill="#1E1F21"/>
<path d="M69.6882 18.9848V9.99951H72.3256V19.2608C72.3256 22.0208 73.4296 23.2475 75.9442 23.2475C78.3976 23.2475 80.0842 21.6222 80.0842 18.5248V9.99951H82.7216V25.3328H80.0842V22.8182C79.1029 24.6275 77.2936 25.6395 75.2389 25.6395C71.7122 25.6395 69.6882 23.2168 69.6882 18.9848Z" fill="#1E1F21"/>
<path d="M62.5334 20.5802C62.5334 21.9295 63.3307 22.8495 64.9561 22.8495C65.5694 22.8495 66.1521 22.7268 66.6121 22.6348V25.1802C66.1521 25.3028 65.6307 25.4255 64.8334 25.4255C61.5521 25.4255 59.9574 23.4935 59.9574 20.6415V12.4535H57.4734V10.0002H59.9574V6.74951H62.5334V10.0002H66.6121V12.4535H62.5334V20.5802Z" fill="#1E1F21"/>
<path d="M55.6401 19.7824C55.6401 23.2784 53.5548 25.6398 48.5561 25.6398C44.6614 25.6398 42.8521 24.8731 41.2881 24.0758V21.2544C43.1588 22.2358 46.0414 22.9411 48.7094 22.9411C51.7454 22.9411 52.8801 21.7451 52.8801 19.9664C52.8801 18.1878 51.7761 17.2371 47.9428 16.3171C43.4041 15.2131 41.3801 13.6491 41.3801 10.3371C41.3801 7.20909 43.7721 4.87842 48.4641 4.87842C51.3774 4.87842 53.2481 5.58375 54.6281 6.35042V9.11042C52.6041 7.94509 50.4268 7.57708 48.3414 7.57708C45.7041 7.57708 44.1401 8.49709 44.1401 10.3371C44.1401 11.9931 45.4281 12.8211 48.9854 13.7104C53.2481 14.7838 55.6401 16.1638 55.6401 19.7824Z" fill="#1E1F21"/>
<path d="M0 8C0 3.58172 3.58172 0 8 0H24C28.4183 0 32 3.58172 32 8V24C32 28.4183 28.4183 32 24 32H8C3.58172 32 0 28.4183 0 24V8Z" fill="#DDDEE1"/>
<path d="M14.1252 14.125V24.75H24.7502V14.125H14.1252Z" fill="#101214"/>
<path d="M19.7502 9.59375L13.5002 6L7.25024 9.59375V16.7812L12.2502 19.6562V12.25H19.7502V9.59375Z" fill="#101214"/>
</g>
<defs>
<clipPath id="clip0_95164_16436">
<rect width="124" height="32" fill="white"/>
</clipPath>
</defs>
</svg>
