<svg width="127" height="32" viewBox="0 0 127 32" fill="none" xmlns="http://www.w3.org/2000/svg">
<g clip-path="url(#clip0_95164_16333)">
<path d="M126.575 21.1617C126.575 23.7071 124.919 25.6391 120.809 25.6391C118.509 25.6391 116.639 25.1177 115.473 24.5044V21.7137C116.792 22.4804 119 23.2164 120.932 23.2164C122.956 23.2164 123.999 22.3884 123.999 21.1924C123.999 20.0271 123.109 19.3524 120.196 18.6471C116.792 17.8191 115.351 16.5004 115.351 13.9857C115.351 11.3177 117.405 9.69238 120.901 9.69238C122.895 9.69238 124.704 10.1831 125.839 10.7964V13.5257C123.999 12.6057 122.496 12.1151 120.871 12.1151C118.939 12.1151 117.896 12.7897 117.896 13.9857C117.896 15.0591 118.632 15.7337 121.453 16.4084C124.857 17.2364 126.575 18.4937 126.575 21.1617Z" fill="#1E1F21"/>
<path d="M101.925 16.807V25.3324H99.2881V16.0711C99.2881 13.3111 98.1841 12.0844 95.6694 12.0844C93.2161 12.0844 91.5294 13.7097 91.5294 16.807V25.3324H88.8921V9.99905H91.5294V12.5137C92.5108 10.7044 94.3201 9.69238 96.3748 9.69238C98.9814 9.69238 100.76 11.0111 101.527 13.4337C102.385 11.0724 104.44 9.69238 106.985 9.69238C110.42 9.69238 112.321 12.0231 112.321 16.3471V25.3324H109.684V16.807C109.684 13.6484 108.58 12.0844 106.065 12.0844C103.612 12.0844 101.925 13.7097 101.925 16.807Z" fill="#1E1F21"/>
<path d="M73.5988 17.6657C73.5988 21.3457 75.0708 23.1857 77.8001 23.1857C80.1614 23.1857 82.2774 21.6831 82.2774 18.2791V17.0524C82.2774 13.6484 80.3454 12.1457 78.1068 12.1457C75.1321 12.1457 73.5988 14.1084 73.5988 17.6657ZM82.2774 25.3324V22.5724C81.2961 24.5964 79.4561 25.6391 77.0948 25.6391C73.0161 25.6391 70.9614 22.1737 70.9614 17.6657C70.9614 13.3417 73.1081 9.69238 77.4014 9.69238C79.6401 9.69238 81.3574 10.7044 82.2774 12.6977V9.99905H84.9148V25.3324H82.2774Z" fill="#1E1F21"/>
<path d="M61.9941 12.0844C59.2034 12.0844 57.7927 13.8937 57.5167 16.5617H66.0727C65.9194 13.7097 64.6314 12.0844 61.9941 12.0844ZM67.8821 24.7191C66.6247 25.3937 64.6927 25.6391 63.1287 25.6391C57.3941 25.6391 54.8794 22.3271 54.8794 17.635C54.8794 13.0044 57.4554 9.69238 62.1167 9.69238C66.8394 9.69238 68.7407 12.9737 68.7407 17.635V18.8311H57.5474C57.9154 21.4377 59.6021 23.1244 63.2207 23.1244C64.9994 23.1244 66.5021 22.7871 67.8821 22.2964V24.7191Z" fill="#1E1F21"/>
<path d="M40.2764 5.18457H55.3644V7.8219H49.2004V25.3326H46.4404V7.8219H40.2764V5.18457Z" fill="#1E1F21"/>
<path d="M0 8C0 3.58172 3.58172 0 8 0H24C28.4183 0 32 3.58172 32 8V24C32 28.4183 28.4183 32 24 32H8C3.58172 32 0 28.4183 0 24V8Z" fill="#DDDEE1"/>
<path d="M10.7503 14.833C12.6833 14.833 14.2503 13.266 14.2503 11.333C14.2503 9.40001 12.6833 7.83301 10.7503 7.83301C8.81733 7.83301 7.25033 9.40001 7.25033 11.333C7.25033 13.266 8.81733 14.833 10.7503 14.833Z" fill="#101214"/>
<path d="M21.2503 14.833C23.1833 14.833 24.7503 13.266 24.7503 11.333C24.7503 9.40001 23.1833 7.83301 21.2503 7.83301C19.3173 7.83301 17.7503 9.40001 17.7503 11.333C17.7503 13.266 19.3173 14.833 21.2503 14.833Z" fill="#101214"/>
<path d="M21.4746 16.583C23.6059 16.583 25.3337 18.3108 25.3337 20.4421V24.1663H15.7087L17.9205 18.9384C18.5245 17.5107 19.9243 16.583 21.4746 16.583Z" fill="#101214"/>
<path d="M6.66699 20.6663V24.1663H13.0837L14.8337 20.083C14.8337 18.15 13.2667 16.583 11.3337 16.583H10.7503C8.49516 16.583 6.66699 18.4112 6.66699 20.6663Z" fill="#101214"/>
</g>
<defs>
<clipPath id="clip0_95164_16333">
<rect width="126.667" height="32" fill="white"/>
</clipPath>
</defs>
</svg>
