<svg width="113" height="32" viewBox="0 0 113 32" fill="none" xmlns="http://www.w3.org/2000/svg">
<g clip-path="url(#clip0_95164_15820)">
<path d="M104.974 25.6395C100.374 25.6395 97.675 22.2355 97.675 17.6355C97.675 13.0355 100.374 9.69287 104.974 9.69287C109.543 9.69287 112.211 13.0355 112.211 17.6355C112.211 22.2355 109.543 25.6395 104.974 25.6395ZM104.974 12.1462C101.692 12.1462 100.251 14.7222 100.251 17.6355C100.251 20.5489 101.692 23.1862 104.974 23.1862C108.224 23.1862 109.635 20.5489 109.635 17.6355C109.635 14.7222 108.224 12.1462 104.974 12.1462Z" fill="#1E1F21"/>
<path d="M96.2077 25.3018C95.993 25.3632 95.533 25.4245 94.8584 25.4245C92.3437 25.4245 90.749 24.2285 90.749 21.4072V3.58984H93.3864V21.1005C93.3864 22.4805 94.3064 22.9712 95.441 22.9712C95.717 22.9712 95.901 22.9712 96.2077 22.9405V25.3018Z" fill="#1E1F21"/>
<path d="M88.2116 25.3018C87.9969 25.3632 87.5369 25.4245 86.8623 25.4245C84.3476 25.4245 82.7529 24.2285 82.7529 21.4072V3.58984H85.3903V21.1005C85.3903 22.4805 86.3103 22.9712 87.4449 22.9712C87.7209 22.9712 87.9049 22.9712 88.2116 22.9405V25.3018Z" fill="#1E1F21"/>
<path d="M72.8652 12.0849C70.0745 12.0849 68.6638 13.8942 68.3878 16.5622H76.9438C76.7905 13.7102 75.5025 12.0849 72.8652 12.0849ZM78.7532 24.7195C77.4958 25.3942 75.5638 25.6395 73.9998 25.6395C68.2652 25.6395 65.7505 22.3275 65.7505 17.6355C65.7505 13.0049 68.3265 9.69287 72.9878 9.69287C77.7105 9.69287 79.6118 12.9742 79.6118 17.6355V18.8315H68.4185C68.7865 21.4382 70.4732 23.1249 74.0918 23.1249C75.8705 23.1249 77.3732 22.7875 78.7532 22.2969V24.7195Z" fill="#1E1F21"/>
<path d="M59.2742 16.2859V25.3326H56.6982V9.99925H59.2742V12.6979C60.1636 10.8886 61.6969 9.60058 64.7022 9.78458V12.3606C61.3289 12.0232 59.2742 13.0352 59.2742 16.2859Z" fill="#1E1F21"/>
<path d="M40.2764 5.18457H55.3644V7.8219H49.2004V25.3326H46.4404V7.8219H40.2764V5.18457Z" fill="#1E1F21"/>
<path d="M0 8C0 3.58172 3.58172 0 8 0H24C28.4183 0 32 3.58172 32 8V24C32 28.4183 28.4183 32 24 32H8C3.58172 32 0 28.4183 0 24V8Z" fill="#1558BC"/>
<path d="M12.897 24C13.5192 24 14.0241 23.5086 14.0241 22.9013V9.09874C14.0241 8.49222 13.5201 8 12.897 8H8.12708C7.50491 8 7 8.49136 7 9.09874V22.9013C7 23.5078 7.50404 24 8.12708 24H12.897Z" fill="white"/>
<path d="M23.8729 17.6635C24.4951 17.6635 25 17.1721 25 16.5647V9.09874C25 8.49222 24.496 8 23.8729 8H19.103C18.4808 8 17.9759 8.49136 17.9759 9.09874V16.5647C17.9759 17.1713 18.4799 17.6635 19.103 17.6635H23.8729Z" fill="white"/>
</g>
<defs>
<clipPath id="clip0_95164_15820">
<rect width="112.667" height="32" fill="white"/>
</clipPath>
</defs>
</svg>
