<?xml version="1.0" encoding="UTF-8"?>
<svg width="20px" height="20px" viewBox="0 0 20 20" version="1.1" xmlns="http://www.w3.org/2000/svg" xmlns:xlink="http://www.w3.org/1999/xlink">
    <!-- Generator: Sketch 55.1 (78136) - https://sketchapp.com -->
    <title>action-default</title>
    <desc>Created with Sketch.</desc>
    <g id="action-default" stroke="none" stroke-width="1" fill="none" fill-rule="evenodd">
        <g id="checkbox-default">
            <path d="M1.11111111,2.21676588 L1.11111111,17.7832341 C1.11111111,18.394261 1.60584337,18.8888889 2.21676588,18.8888889 L17.7832341,18.8888889 C18.394261,18.8888889 18.8888889,18.3941566 18.8888889,17.7832341 L18.8888889,2.21676588 C18.8888889,1.60573904 18.3941566,1.11111111 17.7832341,1.11111111 L2.21676588,1.11111111 C1.60573904,1.11111111 1.11111111,1.60584337 1.11111111,2.21676588 Z M0,2.21676588 C0,0.992479891 0.99180311,0 2.21676588,0 L17.7832341,0 C19.0075201,0 20,0.99180311 20,2.21676588 L20,17.7832341 C20,19.0075201 19.0081969,20 17.7832341,20 L2.21676588,20 C0.992479891,20 0,19.0081969 0,17.7832341 L0,2.21676588 Z" id="Rectangle-23" fill-opacity="0.129999995" fill="#091E42" fill-rule="nonzero"></path>
            <path d="M1.11111111,2.21676588 L1.11111111,17.7832341 C1.11111111,18.394261 1.60584337,18.8888889 2.21676588,18.8888889 L17.7832341,18.8888889 C18.394261,18.8888889 18.8888889,18.3941566 18.8888889,17.7832341 L18.8888889,2.21676588 C18.8888889,1.60573904 18.3941566,1.11111111 17.7832341,1.11111111 L2.21676588,1.11111111 C1.60573904,1.11111111 1.11111111,1.60584337 1.11111111,2.21676588 Z" id="Path" fill="#FFFFFF"></path>
        </g>
    </g>
</svg>