<?xml version="1.0" encoding="UTF-8"?>
<svg width="20px" height="20px" viewBox="0 0 20 20" version="1.1" xmlns="http://www.w3.org/2000/svg" xmlns:xlink="http://www.w3.org/1999/xlink">
    <!-- Generator: Sketch 55.1 (78136) - https://sketchapp.com -->
    <title>decision-icon</title>
    <desc>Created with Sketch.</desc>
    <g id="decision-icon" stroke="none" stroke-width="1" fill="none" fill-rule="evenodd">
        <path d="M5.68992888,3.33370833 L11.1781936,8.82197306 C11.4898564,9.13363583 11.6665208,9.55863052 11.6665208,10.0002917 L11.6665208,18.3335208 C11.6665208,19.2535093 10.9198635,20.0001667 9.999875,20.0001667 C9.0798865,20.0001667 8.33322917,19.2535093 8.33322917,18.3335208 L8.33322917,10.690283 L3.33329167,5.69034554 L3.33329167,7.50032291 C3.33329167,8.42031141 2.58663433,9.16696875 1.66664583,9.16696875 C0.746657333,9.16696875 0,8.42031141 0,7.50032291 L0,1.6670625 C0,0.747073995 0.746657333,0.000416661458 1.66664583,0.000416661458 L7.49990625,0.000416661458 C8.41989475,0.000416661458 9.16655208,0.747073995 9.16655208,1.6670625 C9.16655208,2.587051 8.41989475,3.33370833 7.49990625,3.33370833 L5.68992888,3.33370833 Z M19.5112561,0.488743891 C20.1629146,1.14040241 20.1629146,2.19372258 19.5112561,2.8453811 L15.3446415,7.01199568 C15.0196456,7.33699162 14.5929843,7.50032291 14.1663229,7.50032291 C13.7396616,7.50032291 13.3130003,7.33699162 12.9880043,7.01199568 C12.3363458,6.36033716 12.3363458,5.307017 12.9880043,4.65535847 L17.1546189,0.488743891 C17.8062774,-0.16291463 18.8595976,-0.16291463 19.5112561,0.488743891 Z" id="Fill-1" fill="#36B37E"></path>
    </g>
</svg>