<?xml version="1.0" encoding="UTF-8"?>
<svg width="18px" height="18px" viewBox="0 0 18 18" version="1.1" xmlns="http://www.w3.org/2000/svg" xmlns:xlink="http://www.w3.org/1999/xlink">
    <!-- Generator: Sketch 55.1 (78136) - https://sketchapp.com -->
    <title>🌐 Icon</title>
    <desc>Created with Sketch.</desc>
    <defs>
        <path d="M12,21 C7.02943725,21 3,16.9705627 3,12 C3,7.02943725 7.02943725,3 12,3 C16.9705627,3 21,7.02943725 21,12 C21,16.9705627 16.9705627,21 12,21 Z M16.1553041,14.4934041 L13.6622098,12.0001469 L16.1553041,9.5068898 C16.6148986,9.04726531 16.6148986,8.30316735 16.1553041,7.84471837 C15.6957097,7.38509388 14.9528357,7.38509388 14.4932413,7.84471837 L12.0001469,10.3379755 L9.50587717,7.84471837 C9.04745813,7.38509388 8.30340876,7.38509388 7.84381428,7.84471837 C7.38539524,8.30316735 7.38539524,9.04726531 7.84381428,9.5068898 L10.3369086,12.0001469 L7.84381428,14.4934041 C7.38539524,14.9530286 7.38539524,15.695951 7.84381428,16.1555755 C8.07419924,16.3848 8.37393476,16.5 8.67484572,16.5 C8.97575669,16.5 9.27666765,16.3848 9.50587717,16.1555755 L12.0001469,13.6623184 L14.4932413,16.1555755 C14.7224508,16.3848 15.0233617,16.5 15.3242727,16.5 C15.6251837,16.5 15.9260946,16.3848 16.1553041,16.1555755 C16.6148986,15.695951 16.6148986,14.9530286 16.1553041,14.4934041 Z" id="path-1"></path>
    </defs>
    <g id="Page-1" stroke="none" stroke-width="1" fill="none" fill-rule="evenodd">
        <g id="Section-message-/-Change---title" transform="translate(-19.000000, -19.000000)">
            <g id="DO-NOT-CHANGE-THIS">
                <g id="global/cross-circle2" transform="translate(16.000000, 16.000000)">
                    <mask id="mask-2" fill="white">
                        <use xlink:href="#path-1"></use>
                    </mask>
                    <use id="Mask" fill="#A5ADBA" fill-rule="evenodd" xlink:href="#path-1"></use>
                    <g id="Red-/-R500" mask="url(#mask-2)" fill="#BF2600" fill-rule="evenodd">
                        <rect id="R500" x="0" y="0" width="24" height="24"></rect>
                    </g>
                </g>
            </g>
        </g>
    </g>
</svg>