<?xml version="1.0" encoding="UTF-8"?>
<svg width="18px" height="18px" viewBox="0 0 18 18" version="1.1" xmlns="http://www.w3.org/2000/svg" xmlns:xlink="http://www.w3.org/1999/xlink">
    <!-- Generator: Sketch 55.1 (78136) - https://sketchapp.com -->
    <title>🌐 Icon-question@1.5x</title>
    <desc>Created with Sketch.</desc>
    <defs>
        <path d="M12,21 C16.9705627,21 21,16.9705627 21,12 C21,7.02943725 16.9705627,3 12,3 C7.02943725,3 3,7.02943725 3,12 C3,16.9705627 7.02943725,21 12,21 Z M8,10 C8,7.48382717 10.3214369,5.51107517 12.9389485,6.10713238 C14.3829485,6.43513238 15.5569485,7.60513238 15.8899485,9.04813238 C16.3809485,11.1771324 15.1719485,13.0911324 13.3589485,13.7471324 C13.1549485,13.8201324 13.0099485,14.0021324 13.0099485,14.2191324 L13.0099485,15.0001324 C13.0099485,15.5521324 12.5629485,16.0001324 12.0099485,16.0001324 C11.4579485,16.0001324 11.0099485,15.5521324 11.0099485,15.0001324 L11.0099485,12.9871324 C11.0179485,12.4411324 11.4599485,12.0001324 11.9999485,12.0001324 C13.1029485,12.0001324 13.9999485,11.1021324 13.9999485,10.0001324 C13.9999485,8.89713238 13.1029485,8.00013238 11.9999485,8.00013238 C10.8959485,8.00013238 9.99935095,8.92313011 10.000351,10.0271301 C9.98522031,10.56663 9.54291202,11 9,11 C8.47773128,11 8.04856117,10.5989598 8.0038452,10.0882349 C8.00128173,10.0492325 8,10.0198208 8,10 Z M12,19 C11.448,19 11,18.552 11,18 C11,17.448 11.448,17 12,17 C12.552,17 13,17.448 13,18 C13,18.552 12.552,19 12,19 Z" id="path-1"></path>
    </defs>
    <g id="Page-1" stroke="none" stroke-width="1" fill="none" fill-rule="evenodd">
        <g id="Section-message-/-Info---no-title" transform="translate(-19.000000, -19.000000)">
            <g id="DO-NOT-CHANGE-THIS">
                <g id="global/question-circle" transform="translate(16.000000, 16.000000)">
                    <mask id="mask-2" fill="white">
                        <use xlink:href="#path-1"></use>
                    </mask>
                    <use id="Oval-2" fill="#42526E" fill-rule="evenodd" xlink:href="#path-1"></use>
                    <g id="Purple-/-P500" mask="url(#mask-2)" fill="#403294" fill-rule="evenodd">
                        <rect id="P500" x="0" y="0" width="24" height="24"></rect>
                    </g>
                </g>
            </g>
        </g>
    </g>
</svg>