<?xml version="1.0" encoding="UTF-8"?>
<svg width="16px" height="16px" viewBox="0 0 12 16" version="1.1" xmlns="http://www.w3.org/2000/svg" xmlns:xlink="http://www.w3.org/1999/xlink">
    <!-- Generator: Sketch 55.1 (78136) - https://sketchapp.com -->
    <title>🌐 Icon</title>
    <desc>Created with Sketch.</desc>
    <defs>
        <path d="M11.9979,4 C8.6849,4 5.9999,6.685 5.9999,9.998 C5.9999,12.216 8.2879,14.482 8.2879,14.482 C8.6779,14.869 8.9979,15.594 8.9979,16.093 C8.9979,16.592 9.4479,17 9.9979,17 L13.9979,17 C14.5479,17 14.9979,16.592 14.9979,16.093 C14.9979,15.594 15.3179,14.869 15.7079,14.482 C15.7079,14.482 17.9959,12.216 17.9959,9.998 C17.9959,6.685 15.3109,4 11.9979,4 L11.9979,4 Z M14.9628,19 C14.9628,18.45 14.5128,18 13.9628,18 L9.9628,18 C9.4128,18 8.9628,18.45 8.9628,19 L8.9628,19.003 C8.9628,19.553 9.4128,20.003 9.9628,20.003 L13.9628,20.003 C14.5128,20.003 14.9628,19.553 14.9628,19.003 L14.9628,19 Z" id="path-1"></path>
    </defs>
    <g id="Page-1" stroke="none" stroke-width="1" fill="none" fill-rule="evenodd">
        <g id="Section-message-/-Change---title" transform="translate(-22.000000, -20.000000)">
            <g id="DO-NOT-CHANGE-THIS">
                <g id="global/lightbulb-filled" transform="translate(16.000000, 16.000000)">
                    <mask id="mask-2" fill="white">
                        <use xlink:href="#path-1"></use>
                    </mask>
                    <use id="Shape" fill="#42526E" fill-rule="evenodd" xlink:href="#path-1"></use>
                    <g id="Green-/-G500" mask="url(#mask-2)" fill="#006644" fill-rule="evenodd">
                        <rect id="G500" x="0" y="0" width="24" height="24"></rect>
                    </g>
                </g>
            </g>
        </g>
    </g>
</svg>