<svg xmlns="http://www.w3.org/2000/svg" width="16" height="16" viewBox="0 0 16 16">
  <path fill="#FFAB00" fill-rule="evenodd" d="M2,0 L14,0 C15.1045695,-2.02906125e-16 16,0.8954305 16,2 L16,14 C16,15.1045695 15.1045695,16 14,16 L2,16 C0.8954305,16 1.3527075e-16,15.1045695 0,14 L0,2 C-1.3527075e-16,0.8954305 0.8954305,2.02906125e-16 2,0 Z M6.74999999,11.75 L6.20710679,11.2071067 C5.8165825,10.8165824 5.18341752,10.8165824 4.79289322,11.2071067 L3,13 L6.74999999,13 L13,13 L13,10.7499997 L11.205467,8.77601369 C10.8339601,8.36735609 10.2015118,8.33723954 9.79285416,8.70874649 C9.78111741,8.71941627 9.76963617,8.73036379 9.75842021,8.74157975 L6.74999999,11.75 Z M4.66666667,6.33333333 C5.58714125,6.33333333 6.33333333,5.58714125 6.33333333,4.66666667 C6.33333333,3.74619208 5.58714125,3 4.66666667,3 C3.74619208,3 3,3.74619208 3,4.66666667 C3,5.58714125 3.74619208,6.33333333 4.66666667,6.33333333 Z"/>
</svg>
