<svg xmlns="http://www.w3.org/2000/svg" width="16" height="16" viewBox="0 0 16 16">
  <path fill="#00B8D9" fill-rule="evenodd" d="M0,1.99406028 C0,0.892771196 0.894513756,0 1.99406028,0 L14.0059397,0 C15.1072288,0 16,0.894513756 16,1.99406028 L16,14.0059397 C16,15.1072288 15.1054862,16 14.0059397,16 L1.99406028,16 C0.892771196,16 0,15.1054862 0,14.0059397 L0,1.99406028 Z M6.63903775,10.4113575 L4.25328654,8.0986584 L6.84154919,5.58899608 C7.20865897,5.23298281 7.21790606,4.64764153 6.8618928,4.28145646 C6.50680425,3.91434668 5.92146296,3.90509958 5.55435318,4.26111284 L2.28088059,7.43471678 C1.90637314,7.79812772 1.90637314,8.39918907 2.28088059,8.76260001 L5.35184174,11.7392408 C5.71802681,12.0943293 6.3033681,12.0860069 6.65938136,11.7188972 C7.01446991,11.3527121 7.00522282,10.7664461 6.63903775,10.4113575 Z M13.8418023,7.2377536 L10.7708411,4.26111284 C10.4046561,3.90509958 9.81931479,3.91434668 9.46330153,4.28145646 C9.10821298,4.64764153 9.11746008,5.23298281 9.48364515,5.58899608 L11.8693964,7.90169521 L9.28113371,10.4113575 C8.91402393,10.7664461 8.90477683,11.3517874 9.26079009,11.7188972 C9.61587864,12.0860069 10.2012199,12.0943293 10.5683297,11.7392408 L13.8418023,8.56563683 C14.2163098,8.20222589 14.2163098,7.60116454 13.8418023,7.2377536 Z"/>
</svg>
