<svg xmlns="http://www.w3.org/2000/svg" width="24" height="24" viewBox="0 0 24 24">
  <path fill="#00B8D9" fill-rule="evenodd" d="M3,0 L21,0 C22.6568542,-3.04359188e-16 24,1.34314575 24,3 L24,21 C24,22.6568542 22.6568542,24 21,24 L3,24 C1.34314575,24 2.02906125e-16,22.6568542 0,21 L0,3 C-2.02906125e-16,1.34314575 1.34314575,3.04359188e-16 3,0 Z M8.01675,12.2648952 L5.43675,9.76389516 L8.23575,7.04989516 C8.63275,6.66489516 8.64275,6.03189516 8.25775,5.63589516 C7.87375,5.23889516 7.24075,5.22889516 6.84375,5.61389516 L3.30375,9.04589516 C2.89875,9.43889516 2.89875,10.0888952 3.30375,10.4818952 L6.62475,13.7008952 C7.02075,14.0848952 7.65375,14.0758952 8.03875,13.6788952 C8.42275,13.2828952 8.41275,12.6488952 8.01675,12.2648952 Z M14.654804,4.05479516 C14.132804,3.87479516 13.563804,4.15279516 13.383804,4.67579516 L8.55480395,18.7207952 C8.37480395,19.2427952 8.65280395,19.8117952 9.17480395,19.9917952 C9.69780395,20.1717952 10.266804,19.8937952 10.445804,19.3717952 L15.274804,5.32579516 C15.454804,4.80379516 15.176804,4.23479516 14.654804,4.05479516 Z M20.7363728,13.8313727 L17.4153728,10.6123727 C17.0193728,10.2273727 16.3863728,10.2373727 16.0013728,10.6343727 C15.6173728,11.0303727 15.6273728,11.6633727 16.0233728,12.0483727 L18.6033728,14.5493727 L15.8043728,17.2633727 C15.4073728,17.6473727 15.3973728,18.2803727 15.7823728,18.6773727 C16.1663728,19.0743727 16.7993728,19.0833727 17.1963728,18.6993727 L20.7363728,15.2673727 C21.1413728,14.8743727 21.1413728,14.2243727 20.7363728,13.8313727 Z"/>
</svg>
