<?xml version="1.0" encoding="UTF-8"?>
<svg width="24px" height="24px" viewBox="0 0 24 24" version="1.1" xmlns="http://www.w3.org/2000/svg" xmlns:xlink="http://www.w3.org/1999/xlink">
    <!-- Generator: Sketch 45 (43475) - http://www.bohemiancoding.com/sketch -->
    <title>Artboard</title>
    <desc>Created with Sketch.</desc>
    <defs></defs>
    <g id="Page-1" stroke="none" stroke-width="1" fill="none" fill-rule="evenodd">
        <g id="Artboard" fill="#FFFFFF">
            <g id="Group" transform="translate(2.000000, 3.000000)">
                <path d="M2.98191189,16.0232856 C1.33534782,16.0232856 0,14.6883989 0,13.0413737 L0,2.98191189 C0,1.33562031 1.33562031,0 2.98191189,0 L17.0651584,0 C18.71145,0 20.0470703,1.33562031 20.0470703,2.98191189 L20.0470703,13.0413737 C20.0470703,14.6883989 18.7117225,16.0232856 17.0651584,16.0232856 L16.0146634,16.0232856 L16.0021244,17.4276423 C15.9893758,18.9013895 14.108938,19.506223 13.007258,18.6413722 L9.66751933,16.0232856 L2.98191189,16.0232856 Z M14.0918688,14.0832465 L17.0651584,14.0832465 C17.6404185,14.0832465 18.1070312,13.6167949 18.1070312,13.0413737 L18.1070312,2.98191189 C18.1070312,2.4070743 17.639996,1.94003906 17.0651584,1.94003906 L2.98191189,1.94003906 C2.4070743,1.94003906 1.94003906,2.4070743 1.94003906,2.98191189 L1.94003906,13.0413737 C1.94003906,13.6167949 2.40665185,14.0832465 2.98191189,14.0832465 L10.3373012,14.0832465 L10.6008618,14.2898568 L14.0657721,17.0060682 L14.0918688,14.0832465 Z M14.0621687,17.4096512 C14.0650177,17.100221 14.150539,17.0725785 14.2045824,17.1148843 L14.0657721,17.0060682 L14.0621687,17.4096512 Z" id="Fill-1" fill-rule="nonzero"></path>
                <polygon id="Path" points="3.88007813 7.18532986 15.9514323 7.18532986 15.9514323 5.1734375 3.88007813 5.1734375"></polygon>
                <polygon id="Path" points="3.88007812 11.065408 10.9217014 11.065408 10.9217014 9.05351563 3.88007812 9.05351563"></polygon>
            </g>
        </g>
    </g>
</svg>