<svg width="96" height="96" viewBox="0 0 96 96" fill="none" xmlns="http://www.w3.org/2000/svg">
<path d="M57.23 57.23C48.81 65.65 35.1 65.65 26.67 57.23C18.25 48.81 18.25 35.1 26.67 26.67C35.09 18.25 48.8 18.25 57.23 26.67C65.66 35.09 65.65 48.8 57.23 57.23ZM32.17 32.17C26.78 37.56 26.78 46.34 32.17 51.73C37.56 57.12 46.34 57.12 51.73 51.73C57.12 46.34 57.12 37.56 51.73 32.17C46.34 26.78 37.56 26.78 32.17 32.17Z" fill="#1868DB"/>
<path d="M56.9414 48.9057L48.9158 56.9313L67.6187 75.6343L75.6444 67.6086L56.9414 48.9057Z" fill="#BF63F3"/>
<path d="M48.9099 56.93L52.6899 60.71C54.3199 59.78 55.8499 58.62 57.2399 57.23C58.6299 55.84 59.7899 54.31 60.7199 52.68L56.9399 48.9L48.9099 56.93Z" fill="#AE2A19"/>
</svg>
