<svg xmlns="http://www.w3.org/2000/svg" width="16" height="16" viewBox="0 0 16 16">
  <path fill="#2196F3" fill-rule="evenodd" d="M2,0 L14,0 C15.1045695,-2.02906125e-16 16,0.8954305 16,2 L16,14 C16,15.1045695 15.1045695,16 14,16 L2,16 C0.8954305,16 1.3527075e-16,15.1045695 0,14 L0,2 C-1.3527075e-16,0.8954305 0.8954305,2.02906125e-16 2,0 Z M10.2865339,2.49987043 L6.22031607,2.54090174 L9.72808894,8.65413583 L13.7943068,8.61267261 L10.2865339,2.49987043 Z M2,9.33136849 L4.06809223,12.8540149 L7.5758651,6.74078081 L5.50777287,3.2181344 L2,9.33136849 Z M6.9843684,9.43675419 L4.98667201,13 L12.0022178,13 L13.9999142,9.43675419 L6.9843684,9.43675419 Z"/>
</svg>
