<svg width="24" height="24" viewBox="0 0 24 24" fill="none" xmlns="http://www.w3.org/2000/svg">
<path d="M18 0C21.3137 0 24 2.68629 24 6V18C24 21.3137 21.3137 24 18 24H6C2.68629 24 0 21.3137 0 18V6C0 2.68629 2.68629 0 6 0H18ZM7.43164 14.7041C6.17653 14.7042 5.15918 15.7224 5.15918 16.9775C5.15932 18.2325 6.17662 19.2499 7.43164 19.25C8.68674 19.25 9.70396 18.2326 9.7041 16.9775C9.7041 15.7223 8.68683 14.7041 7.43164 14.7041ZM16.9775 14.7041C15.7223 14.7041 14.7041 15.7223 14.7041 16.9775C14.7042 18.2326 15.7224 19.25 16.9775 19.25C18.2325 19.2499 19.2499 18.2325 19.25 16.9775C19.25 15.7224 18.2326 14.7042 16.9775 14.7041ZM10.6133 16.0684V17.8867H13.7959V16.0684H10.6133ZM7.88672 4.25C5.87841 4.25 4.25 5.87841 4.25 7.88672C4.25015 9.41261 5.18996 10.7194 6.52246 11.2588V13.7959H8.34082V11.4941C9.98569 11.289 11.289 9.98569 11.4941 8.34082H13.7959V6.52246H11.2588C10.7194 5.18996 9.41261 4.25015 7.88672 4.25ZM16.0684 10.6133V13.7959H17.8867V10.6133H16.0684ZM16.9775 5.15918C15.7224 5.15918 14.7042 6.17653 14.7041 7.43164C14.7041 8.68683 15.7223 9.7041 16.9775 9.7041C18.2326 9.70396 19.25 8.68674 19.25 7.43164C19.2499 6.17662 18.2325 5.15932 16.9775 5.15918ZM7.88672 6.52246C8.63967 6.52265 9.25 7.13372 9.25 7.88672C9.24981 8.63955 8.63955 9.24981 7.88672 9.25C7.13372 9.25 6.52265 8.63967 6.52246 7.88672C6.52246 7.1336 7.1336 6.52246 7.88672 6.52246Z" fill="#292A2E"/>
</svg>
