<svg width="24" height="24" viewBox="0 0 24 24" fill="none" xmlns="http://www.w3.org/2000/svg">
<path d="M6 0.5H18C21.0376 0.5 23.5 2.96243 23.5 6V18C23.5 21.0376 21.0376 23.5 18 23.5H6C2.96243 23.5 0.5 21.0376 0.5 18V6C0.5 2.96243 2.96243 0.5 6 0.5Z" fill="white"/>
<path d="M6 0.5H18C21.0376 0.5 23.5 2.96243 23.5 6V18C23.5 21.0376 21.0376 23.5 18 23.5H6C2.96243 23.5 0.5 21.0376 0.5 18V6C0.5 2.96243 2.96243 0.5 6 0.5Z" stroke="#DDDEE1"/>
<path d="M9.21484 12.6523C9.21508 14.1643 10.4485 15.3936 11.9639 15.3936V19.5986C8.54219 19.5986 5.69508 17.1219 5.11523 13.8721L5.06641 13.5547L9.21484 12.6523ZM18.4746 12.6523C18.7275 12.6523 18.9279 12.8676 18.9111 13.1201C18.689 16.4314 16.1285 19.1087 12.8682 19.5342L11.9639 15.3945C13.3532 15.3944 14.5054 14.3608 14.6875 13.0234C14.717 12.8076 14.9103 12.6523 15.1279 12.6523H18.4746ZM11.9629 9.90918C10.4476 9.90929 9.21505 11.1386 9.21484 12.6514H5V12.5859C5.03266 9.09141 7.6675 6.21174 11.0586 5.76953L11.9629 9.90918ZM11.9639 3.93652C11.9641 3.564 12.401 3.36362 12.6836 3.60644L17.5068 7.74511C17.7095 7.9189 17.7095 8.23302 17.5068 8.40722L12.6836 12.5459C12.4009 12.7885 11.9639 12.5874 11.9639 12.2148V3.93652Z" fill="#1868DB"/>
</svg>
