<svg width="24" height="24" viewBox="0 0 24 24" fill="none" xmlns="http://www.w3.org/2000/svg">
<path d="M6 0.5H18C21.0376 0.500001 23.5 2.96243 23.5 6V18C23.5 21.0376 21.0376 23.5 18 23.5H6C2.96243 23.5 0.500001 21.0376 0.5 18V6C0.5 2.96243 2.96243 0.5 6 0.5Z" fill="white"/>
<path d="M6 0.5H18C21.0376 0.500001 23.5 2.96243 23.5 6V18C23.5 21.0376 21.0376 23.5 18 23.5H6C2.96243 23.5 0.500001 21.0376 0.5 18V6C0.5 2.96243 2.96243 0.5 6 0.5Z" stroke="#DDDEE1"/>
<path d="M17.8427 11.7633L16.8565 17.7873C16.7922 18.1518 16.535 18.3662 16.1705 18.3662H7.8098C7.44536 18.3662 7.18811 18.1518 7.12379 17.7873L5.38734 7.04703C5.32302 6.68259 5.51596 6.44678 5.85897 6.44678H18.1213C18.4644 6.44678 18.6573 6.68259 18.593 7.04703L18.1213 9.87681C18.057 10.2841 17.8212 10.4556 17.4353 10.4556H10.0608C9.95357 10.4556 9.88926 10.5199 9.9107 10.6486L10.4895 14.2072C10.511 14.293 10.5753 14.3573 10.661 14.3573H13.3193C13.405 14.3573 13.4694 14.293 13.4908 14.2072L13.8981 11.6347C13.941 11.3131 14.1554 11.1845 14.4555 11.1845H17.3496C17.7783 11.1845 17.907 11.3989 17.8427 11.7633Z" fill="#1868DB"/>
</svg>
