<svg width="24" height="24" viewBox="0 0 24 24" fill="none" xmlns="http://www.w3.org/2000/svg">
<path d="M0 6C0 2.68629 2.68629 0 6 0H18C21.3137 0 24 2.68629 24 6V18C24 21.3137 21.3137 24 18 24H6C2.68629 24 0 21.3137 0 18V6Z" fill="#DDDEE1"/>
<path fill-rule="evenodd" clip-rule="evenodd" d="M18.5628 16.6875L10.1253 16.6877L5.43777 19.5V5.43768L18.5628 5.4375V16.6875ZM11.7325 7.3125L11.4776 7.96009C11.1155 8.88027 10.9345 9.34037 10.6003 9.68671C10.2662 10.033 9.81294 10.2305 8.90635 10.6254L8.51813 10.7946V11.3304L8.90618 11.4994C9.81283 11.8943 10.2662 12.0918 10.6003 12.4381C10.9345 12.7845 11.1155 13.2446 11.4777 14.1649L11.7325 14.8125H12.2681L12.5231 14.1647C12.8852 13.2446 13.0662 12.7845 13.4004 12.4381C13.7345 12.0918 14.1878 11.8943 15.0944 11.4994L15.4824 11.3304V10.7946L15.0942 10.6254C14.1877 10.2305 13.7344 10.033 13.4003 9.68673C13.0662 9.34041 12.8852 8.88036 12.5231 7.96026L12.2681 7.3125H11.7325Z" fill="#101214"/>
</svg>
