<svg width="24" height="24" viewBox="0 0 24 24" fill="none" xmlns="http://www.w3.org/2000/svg">
<path d="M0 6C0 2.68629 2.68629 0 6 0H18C21.3137 0 24 2.68629 24 6V18C24 21.3137 21.3137 24 18 24H6C2.68629 24 0 21.3137 0 18V6Z" fill="#DDDEE1"/>
<path fill-rule="evenodd" clip-rule="evenodd" d="M10.125 16.5002L18.25 16.5V6L5.75 6.00017V19L10.125 16.5002ZM12 12.125C12.4832 12.125 12.875 11.7332 12.875 11.25C12.875 10.7668 12.4832 10.375 12 10.375C11.5168 10.375 11.125 10.7668 11.125 11.25C11.125 11.7332 11.5168 12.125 12 12.125ZM16 11.25C16 11.7332 15.6082 12.125 15.125 12.125C14.6418 12.125 14.25 11.7332 14.25 11.25C14.25 10.7668 14.6418 10.375 15.125 10.375C15.6082 10.375 16 10.7668 16 11.25ZM8.875 12.125C9.35825 12.125 9.75 11.7332 9.75 11.25C9.75 10.7668 9.35825 10.375 8.875 10.375C8.39175 10.375 8 10.7668 8 11.25C8 11.7332 8.39175 12.125 8.875 12.125Z" fill="#101214"/>
</svg>
