<svg width="24" height="24" viewBox="0 0 24 24" fill="none" xmlns="http://www.w3.org/2000/svg">
<path d="M0 6C0 2.68629 2.68629 0 6 0H18C21.3137 0 24 2.68629 24 6V18C24 21.3137 21.3137 24 18 24H6C2.68629 24 0 21.3137 0 18V6Z" fill="#94C748"/>
<path d="M12.7502 7.87736V4.50794L18.9091 4.5H18.9174C19.2459 4.50681 19.5072 4.77411 19.5004 5.09774V11.2449H16.1344V7.87736H12.7502Z" fill="#101214"/>
<path d="M12.7503 14.6147V11.2449H16.1182V17.4102C16.1205 17.7339 15.8558 17.9977 15.5269 18H6.58312C6.25458 17.9932 5.99332 17.7259 6.00013 17.4023V8.46718C5.99786 8.14355 6.26252 7.87965 6.59144 7.87738L12.7502 7.87736L12.7503 11.2449H9.37409V14.6147H12.7503Z" fill="#101214"/>
</svg>
