<svg width="24" height="24" viewBox="0 0 24 24" fill="none" xmlns="http://www.w3.org/2000/svg">
<path d="M0 6C0 2.68629 2.68629 0 6 0H18C21.3137 0 24 2.68629 24 6V18C24 21.3137 21.3137 24 18 24H6C2.68629 24 0 21.3137 0 18V6Z" fill="#DDDEE1"/>
<path fill-rule="evenodd" clip-rule="evenodd" d="M6.75 19V5H17.25V19H13.3127V15.9375H10.6877V19H6.75ZM9.375 8.0625H11.125V6.75H9.375V8.0625ZM12.875 8.0625H14.625V6.75H12.875V8.0625ZM11.125 11.125H9.375V9.8125H11.125V11.125ZM9.375 14.1875H11.125V12.875H9.375V14.1875ZM14.625 11.125H12.875V9.8125H14.625V11.125ZM12.875 14.1875H14.625V12.875H12.875V14.1875Z" fill="#101214"/>
</svg>
