<svg width="24" height="24" viewBox="0 0 24 24" fill="none" xmlns="http://www.w3.org/2000/svg">
<path d="M18 0C21.3137 0 24 2.68629 24 6V18C24 21.3137 21.3137 24 18 24H6C2.68629 24 0 21.3137 0 18V6C0 2.68629 2.68629 0 6 0H18ZM10.9678 12.2168C8.97114 12.2168 7.26919 13.0474 5.74902 15.3818L5.5 15.7627C5.2958 16.0769 5.25 16.1895 5.25 16.3242C5.25001 16.4589 5.31787 16.5714 5.56738 16.7285L8.13184 18.3223C8.26764 18.4118 8.38094 18.4569 8.49414 18.457C8.63022 18.457 8.72138 18.3893 8.85742 18.1875L9.26562 17.5586C9.90086 16.5935 10.4684 16.2794 11.1943 16.2793C11.8296 16.2793 12.5785 16.4593 13.5088 16.9082L16.1865 18.165C16.4587 18.2994 16.7536 18.232 16.8896 17.918L18.1602 15.1348C18.2963 14.8205 18.2053 14.6181 17.8877 14.4609C13.8493 12.5082 12.6694 12.2168 10.9678 12.2168ZM15.5059 5.5498C15.3697 5.5498 15.2787 5.61737 15.1426 5.81934L14.7344 6.44824C14.0992 7.41324 13.5316 7.72748 12.8057 7.72754C12.1704 7.72754 11.4215 7.54756 10.4912 7.09863L7.81348 5.8418C7.54129 5.70732 7.24643 5.77474 7.11035 6.08887L5.83984 8.87207C5.70375 9.18628 5.79468 9.38878 6.1123 9.5459C10.1506 11.4985 11.3307 11.79 13.0322 11.79C15.0289 11.79 16.7308 10.9594 18.251 8.625L18.5 8.24316C18.704 7.92915 18.7499 7.81718 18.75 7.68262C18.75 7.54797 18.6821 7.43539 18.4326 7.27832L15.8682 5.68457C15.7323 5.59501 15.6191 5.54991 15.5059 5.5498Z" fill="#292A2E"/>
</svg>
