<svg width="24" height="24" viewBox="0 0 24 24" fill="none" xmlns="http://www.w3.org/2000/svg">
<path d="M6 0.5H18C21.0376 0.5 23.5 2.96243 23.5 6V18C23.5 21.0376 21.0376 23.5 18 23.5H6C2.96243 23.5 0.500001 21.0376 0.5 18V6C0.5 2.96243 2.96243 0.5 6 0.5Z" fill="white"/>
<path d="M6 0.5H18C21.0376 0.5 23.5 2.96243 23.5 6V18C23.5 21.0376 21.0376 23.5 18 23.5H6C2.96243 23.5 0.500001 21.0376 0.5 18V6C0.5 2.96243 2.96243 0.5 6 0.5Z" stroke="#DDDEE1"/>
<path d="M17.3698 14.265C13.6664 12.4744 12.5846 12.2068 11.0242 12.2068C9.19331 12.2068 7.63292 12.9683 6.23897 15.1089L6.01011 15.4588C5.82286 15.747 5.78125 15.8499 5.78125 15.9734C5.78125 16.0969 5.84367 16.1998 6.07252 16.3439L8.42352 17.8053C8.54835 17.8876 8.65238 17.9287 8.7564 17.9287C8.88124 17.9287 8.96446 17.867 9.08929 17.6818L9.46378 17.1054C10.0463 16.2204 10.5665 15.9322 11.2322 15.9322C11.8148 15.9322 12.5014 16.0969 13.3544 16.5085L15.8094 17.6612C16.0591 17.7847 16.3295 17.7229 16.4544 17.4348L17.6195 14.8825C17.7443 14.5944 17.6611 14.4091 17.3698 14.265ZM6.57185 9.75745C10.2752 11.5481 11.3571 11.8157 12.9175 11.8157C14.7483 11.8157 16.3087 11.0542 17.7027 8.91357L17.9315 8.56366C18.1188 8.27551 18.1604 8.17259 18.1604 8.0491C18.1604 7.9256 18.098 7.82269 17.8691 7.67861L15.5181 6.21725C15.3933 6.13492 15.2893 6.09375 15.1852 6.09375C15.0604 6.09375 14.9772 6.1555 14.8523 6.34074L14.4779 6.91705C13.8953 7.80211 13.3752 8.09026 12.7094 8.09026C12.1269 8.09026 11.4403 7.9256 10.5873 7.51395L8.13225 6.36132C7.88258 6.23783 7.61211 6.29958 7.48728 6.58773L6.32219 9.13998C6.19736 9.42813 6.28058 9.61338 6.57185 9.75745Z" fill="#1868DB"/>
</svg>
