<svg width="24" height="24" viewBox="0 0 24 24" fill="none" xmlns="http://www.w3.org/2000/svg">
<path d="M0 6C0 2.68629 2.68629 0 6 0H18C21.3137 0 24 2.68629 24 6V18C24 21.3137 21.3137 24 18 24H6C2.68629 24 0 21.3137 0 18V6Z" fill="#1868DB"/>
<path d="M17.8878 14.4611C13.8492 12.5083 12.6693 12.2165 10.9676 12.2165C8.97101 12.2165 7.26933 13.047 5.74916 15.3814L5.49958 15.763C5.29538 16.0773 5.25 16.1895 5.25 16.3242C5.25 16.4589 5.31807 16.5711 5.56765 16.7282L8.13151 18.3219C8.26765 18.4117 8.38109 18.4566 8.49454 18.4566C8.63067 18.4566 8.72143 18.3892 8.85756 18.1872L9.26597 17.5587C9.90126 16.5935 10.4685 16.2793 11.1945 16.2793C11.8298 16.2793 12.5786 16.4589 13.5088 16.9078L16.1861 18.1648C16.4584 18.2995 16.7534 18.2321 16.8895 17.9179L18.1601 15.1345C18.2962 14.8203 18.2055 14.6183 17.8878 14.4611ZM6.11218 9.54542C10.1508 11.4982 11.3307 11.79 13.0324 11.79C15.029 11.79 16.7307 10.9595 18.2508 8.62512L18.5004 8.24354C18.7046 7.92929 18.75 7.81706 18.75 7.68238C18.75 7.5477 18.6819 7.43547 18.4324 7.27835L15.8685 5.68467C15.7324 5.59488 15.6189 5.54999 15.5055 5.54999C15.3693 5.54999 15.2786 5.61733 15.1424 5.81934L14.734 6.44784C14.0987 7.41303 13.5315 7.72727 12.8055 7.72727C12.1702 7.72727 11.4214 7.5477 10.4912 7.09878L7.81387 5.84179C7.5416 5.70711 7.24664 5.77445 7.1105 6.0887L5.83992 8.87203C5.70378 9.18628 5.79454 9.3883 6.11218 9.54542Z" fill="white"/>
</svg>
