<svg width="24" height="24" viewBox="0 0 24 24" fill="none" xmlns="http://www.w3.org/2000/svg">
<path d="M6 0.5H18C21.0376 0.5 23.5 2.96243 23.5 6V18C23.5 21.0376 21.0376 23.5 18 23.5H6C2.96243 23.5 0.5 21.0376 0.5 18V6C0.5 2.96243 2.96243 0.5 6 0.5Z" fill="white"/>
<path d="M6 0.5H18C21.0376 0.5 23.5 2.96243 23.5 6V18C23.5 21.0376 21.0376 23.5 18 23.5H6C2.96243 23.5 0.5 21.0376 0.5 18V6C0.5 2.96243 2.96243 0.5 6 0.5Z" stroke="#DDDEE1"/>
<path d="M18.7097 7.46335L12.0002 4.99268L5.29067 7.46335C5.11029 7.52968 4.99341 7.70439 5.00029 7.8961L5.14022 11.703C5.24335 14.8507 6.82387 17.192 9.30345 18.7207C9.536 18.8639 9.84215 18.7676 9.94852 18.5165L11.394 15.1047C11.4453 14.9838 11.3806 14.8451 11.2548 14.8074C10.1904 14.4875 9.41507 13.5007 9.41507 12.3323C9.41507 10.9047 10.5726 9.74718 12.0002 9.74718C13.4278 9.74718 14.5853 10.9047 14.5853 12.3323C14.5853 13.5007 13.8096 14.4875 12.7456 14.8074C12.6198 14.8455 12.5551 14.9838 12.6064 15.1047L14.0519 18.5165C14.1583 18.768 14.4648 18.8643 14.697 18.7207C17.1761 17.192 18.7571 14.8507 18.8598 11.703L18.9997 7.8961C19.0066 7.70439 18.8897 7.52968 18.7093 7.46335H18.7097Z" fill="#1868DB"/>
</svg>
