<svg width="24" height="24" viewBox="0 0 24 24" fill="none" xmlns="http://www.w3.org/2000/svg">
<path d="M18 0C21.3137 0 24 2.68629 24 6V18C24 21.3137 21.3137 24 18 24H6C2.68629 24 0 21.3137 0 18V6C0 2.68629 2.68629 0 6 0H18ZM13.7617 14.751C13.2534 15.0771 12.6487 15.2666 12 15.2666C11.3513 15.2666 10.7465 15.078 10.2383 14.752L6.40039 18.5332V19H12C13.6808 19 15.223 18.4073 16.4297 17.4199L13.7617 14.751ZM6.58008 7.57031C5.59268 8.77699 5 10.3192 5 12C5 13.6808 5.59269 15.223 6.58008 16.4297L9.24902 13.7617C8.92292 13.2534 8.7334 12.6487 8.7334 12C8.7334 11.3513 8.92292 10.7466 9.24902 10.2383L6.58008 7.57031ZM14.752 10.2383C15.078 10.7465 15.2666 11.3513 15.2666 12C15.2666 12.6487 15.078 13.2535 14.752 13.7617L17.4199 16.4297C18.4073 15.223 19 13.6808 19 12C19 10.3192 18.4073 8.77699 17.4199 7.57031L14.752 10.2383ZM12 5C10.3192 5 8.77699 5.59269 7.57031 6.58008L10.2383 9.24805C10.7465 8.922 11.3513 8.7334 12 8.7334C12.6487 8.7334 13.2534 8.92292 13.7617 9.24902L16.4297 6.58008C15.223 5.59269 13.6808 5 12 5Z" fill="#292A2E"/>
</svg>
