<svg width="24" height="24" viewBox="0 0 48 48" fill="none" xmlns="http://www.w3.org/2000/svg">
<path d="M0 12C0 5.37258 5.37258 0 12 0H36C42.6274 0 48 5.37258 48 12V36C48 42.6274 42.6274 48 36 48H12C5.37258 48 0 42.6274 0 36V12Z" fill="#94C748"/>
<path d="M36.2159 26.751L41.1203 34.0001H36.3417C35.8238 33.4043 35.3207 32.6869 34.8752 32.0246C34.1917 31.0085 34.1934 29.6138 34.8996 28.6142L36.2159 26.751Z" fill="#101214"/>
<path d="M28.9226 21.2493L24.0183 14.0001L28.7969 14.0001C29.3148 14.596 29.8179 15.3134 30.2634 15.9757C30.9469 16.9918 30.9452 18.3865 30.2389 19.3861L28.9226 21.2493Z" fill="#101214"/>
<path d="M35.9017 15.2298C36.4046 14.3883 36.9706 14.0647 37.8508 14.0647L41.7491 14L29.0675 33.2674C28.7925 33.6852 28.3359 33.9353 27.8478 33.9353H23.5938C27.6612 27.686 31.9674 21.5659 35.9017 15.2298Z" fill="#101214"/>
<path d="M7.99927 33.9355H14.8938C21.0583 33.9355 24.8166 30.0598 24.8166 23.9971C24.8166 17.9345 21.0583 14.0588 14.8938 14.0588H7.99927L12.2748 17.9622H10.5143C9.12528 17.9622 7.99927 19.1213 7.99927 20.5512V30.0321V33.9355ZM12.4064 30.0321V17.9622H14.8668C18.3817 17.9622 20.3554 20.3429 20.3554 23.9971C20.3554 27.6514 18.3817 30.0321 14.8938 30.0321H12.4064Z" fill="#101214"/>
</svg>
