<svg width="24" height="24" viewBox="0 0 24 24" fill="none" xmlns="http://www.w3.org/2000/svg">
<path d="M0 6C0 2.68629 2.68629 0 6 0H18C21.3137 0 24 2.68629 24 6V18C24 21.3137 21.3137 24 18 24H6C2.68629 24 0 21.3137 0 18V6Z" fill="#DDDEE1"/>
<path d="M5.49025 10.87H18.5089C18.8831 10.87 19.0826 10.6705 19.0826 10.2964V5.90696C19.0826 5.53286 18.8831 5.33334 18.5089 5.33334H15.7655C15.3914 5.33334 15.1919 5.53286 15.1919 5.90696V8.12663H13.9449V5.90696C13.9449 5.53286 13.7454 5.33334 13.3713 5.33334H10.6279C10.2538 5.33334 10.0543 5.53286 10.0543 5.90696V8.12663H8.80727V5.90696C8.80727 5.53286 8.60775 5.33334 8.23365 5.33334H5.49025C5.11615 5.33334 4.91663 5.53286 4.91663 5.90696V10.2964C4.91663 10.6705 5.11615 10.87 5.49025 10.87ZM5.71471 14.7108C5.44037 13.9377 5.26579 13.1396 5.21591 12.2168C5.19097 11.8926 5.34061 11.718 5.68977 11.718H18.3094C18.6586 11.718 18.8082 11.8676 18.8082 12.1669C18.7584 13.0897 18.5838 13.9377 18.2845 14.7108C18.1348 15.1098 17.9104 15.2844 17.4864 15.2844H6.51279C6.08881 15.2844 5.86435 15.1098 5.71471 14.7108ZM17.2619 16.7808C16.0648 18.2523 14.0946 19.2 11.9996 19.2C9.90463 19.2 7.88449 18.2523 6.71231 16.7808C6.41303 16.3818 6.56267 16.1324 6.86195 16.1324H17.1372C17.4365 16.1324 17.5862 16.3818 17.2619 16.7808Z" fill="#101214"/>
</svg>
