<svg width="24" height="24" viewBox="0 0 24 24" fill="none" xmlns="http://www.w3.org/2000/svg">
<path d="M0 6C0 2.68629 2.68629 0 6 0H18C21.3137 0 24 2.68629 24 6V18C24 21.3137 21.3137 24 18 24H6C2.68629 24 0 21.3137 0 18V6Z" fill="#C97CF4"/>
<path d="M13.4666 4.88179C15.268 5.41024 17.0872 5.41024 18.8886 4.88179C19.0475 4.84656 19.1535 4.95225 19.1182 5.11079C18.606 6.96038 18.606 8.66905 19.1182 10.5186C19.1535 10.6596 19.0475 10.7829 18.8886 10.73C17.0872 10.2368 15.268 10.2368 13.4666 10.73C13.3253 10.7829 13.2017 10.6596 13.2547 10.5186C13.7315 8.66905 13.7315 6.96038 13.2547 5.11079C13.2017 4.95225 13.3253 4.84656 13.4666 4.88179ZM14.1907 11.4346V11.7341C14.1907 13.1257 13.2193 14.1474 12.0184 14.1474C10.8174 14.1474 9.8637 13.1785 9.8637 11.9807C9.8637 10.7829 10.8351 9.83165 12.195 9.83165H12.5482V5.62163C12.3716 5.60401 12.195 5.60401 12.0184 5.60401C8.48612 5.60401 5.625 8.45767 5.625 11.9983C5.625 15.539 8.48612 18.375 12.0184 18.375C15.5506 18.375 18.4294 15.5213 18.4294 11.9983V11.4346H14.1907Z" fill="#101214"/>
</svg>
