<svg width="24" height="24" viewBox="0 0 24 24" fill="none" xmlns="http://www.w3.org/2000/svg">
<path d="M0 6C0 2.68629 2.68629 0 6 0H18C21.3137 0 24 2.68629 24 6V18C24 21.3137 21.3137 24 18 24H6C2.68629 24 0 21.3137 0 18V6Z" fill="#FFC716"/>
<path d="M13.7444 10.156H18.3221C19.0096 10.156 19.2444 10.81 18.8252 11.3298L11.6651 20.1667C9.35107 18.3222 9.56906 15.4045 11.2627 13.2749L13.7444 10.156ZM10.2063 13.6774H5.62851C4.94101 13.6774 4.70625 13.0234 5.12546 12.5036L12.2855 3.66669C14.5995 5.5112 14.348 8.39535 12.6712 10.5417L10.2063 13.6774Z" fill="#101214"/>
</svg>
