<svg width="24" height="24" viewBox="0 0 24 24" fill="none" xmlns="http://www.w3.org/2000/svg">
<path d="M6 0.5H18C21.0376 0.5 23.5 2.96243 23.5 6V18C23.5 21.0376 21.0376 23.5 18 23.5H6C2.96243 23.5 0.500001 21.0376 0.5 18V6C0.5 2.96243 2.96243 0.5 6 0.5Z" fill="white"/>
<path d="M6 0.5H18C21.0376 0.5 23.5 2.96243 23.5 6V18C23.5 21.0376 21.0376 23.5 18 23.5H6C2.96243 23.5 0.500001 21.0376 0.5 18V6C0.5 2.96243 2.96243 0.5 6 0.5Z" stroke="#DDDEE1"/>
<path d="M8.97377 15.5234H7.62146C5.58192 15.5234 4.11877 14.2742 4.11877 12.4449H11.3902C11.767 12.4449 12.0109 12.7126 12.0109 13.0919V20.4089C10.1931 20.4089 8.97377 18.9366 8.97377 16.8842V15.5234ZM12.5651 11.8872H11.2128C9.17329 11.8872 7.71014 10.6603 7.71014 8.83103H14.9815C15.3584 8.83103 15.6244 9.07642 15.6244 9.45565V16.7727C13.8066 16.7727 12.5651 15.3004 12.5651 13.248V11.8872ZM16.1787 8.27333H14.8264C12.7868 8.27333 11.3237 7.02408 11.3237 5.19482H18.5951C18.9719 5.19482 19.2158 5.46252 19.2158 5.81945V13.1365C17.398 13.1365 16.1787 11.6641 16.1787 9.61181V8.27333Z" fill="#1868DB"/>
</svg>
