<svg width="24" height="24" viewBox="0 0 24 24" fill="none" xmlns="http://www.w3.org/2000/svg">
<path d="M0 6C0 2.68629 2.68629 0 6 0H18C21.3137 0 24 2.68629 24 6V18C24 21.3137 21.3137 24 18 24H6C2.68629 24 0 21.3137 0 18V6Z" fill="#DDDEE1"/>
<path fill-rule="evenodd" clip-rule="evenodd" d="M5.1062 14.44L6.96236 12.5839L5.1062 10.7277L6.653 9.1809H10.3653L13.1495 6.39667H17.4806V10.7277L14.6963 13.5119V17.2242L13.1495 18.771L11.2934 16.9149L9.43723 18.771L7.73724 17.071L10.5214 14.2868L9.59337 13.3588L6.80917 16.143L5.1062 14.44ZM15.315 10.109C14.8879 10.5362 14.1954 10.5362 13.7682 10.109C13.3411 9.6819 13.3411 8.98938 13.7682 8.56224C14.1954 8.13511 14.8879 8.13511 15.315 8.56224C15.7422 8.98938 15.7422 9.6819 15.315 10.109Z" fill="#101214"/>
</svg>
