<svg width="24" height="24" viewBox="0 0 24 24" fill="none" xmlns="http://www.w3.org/2000/svg">
<path fill-rule="evenodd" clip-rule="evenodd" d="M13.2268 16.7887L6.0732 20.9577L2.67001 18.9977C1.82859 18.5126 1.30788 17.6127 1.30788 16.6431V7.366C1.30788 6.3926 1.82554 5.49657 2.66946 5.01172L8.71296 1.52493C8.69956 1.56256 8.68679 1.60045 8.67465 1.63857C8.56276 1.98573 8.50346 2.35252 8.50346 2.72743V12.0046C8.50346 13.2789 9.18228 14.4544 10.2885 15.0903L13.2268 16.7887Z" fill="#1868DB"/>
<path fill-rule="evenodd" clip-rule="evenodd" d="M11.2961 15.6714L4.1028 19.8244L10.7097 23.6363C11.5361 24.1127 12.553 24.1211 13.3861 23.6616C13.4012 23.6499 13.4173 23.6391 13.4343 23.6293C14.0279 23.287 14.4621 22.7382 14.6662 22.1042C14.7493 21.8421 14.7932 21.5652 14.7932 21.2817V17.6881L11.2961 15.6714Z" fill="#6A9A23"/>
<path fill-rule="evenodd" clip-rule="evenodd" d="M21.4773 5.00252L17.0733 2.46396L11.1687 7.35419L13.8592 8.91023C14.9656 9.54601 15.644 10.7213 15.644 11.9958V21.2729C15.644 21.6483 15.5845 22.0156 15.4723 22.3632C15.4603 22.4008 15.4477 22.4382 15.4345 22.4754L21.478 18.9886C22.3219 18.5038 22.8396 17.6077 22.8396 16.6343V7.35719C22.8396 6.38763 22.3187 5.48762 21.4773 5.00252Z" fill="#AF59E1"/>
<path fill-rule="evenodd" clip-rule="evenodd" d="M12.7406 8.26626L9.35181 6.31198V2.7184C9.35181 2.43524 9.39561 2.15862 9.47851 1.89677C9.68231 1.26302 10.1158 0.714383 10.7088 0.371897L10.7106 0.370859C10.7276 0.361051 10.7438 0.350173 10.7588 0.338477C11.592 -0.121075 12.6089 -0.112633 13.4353 0.363805L19.9339 4.11319L12.7406 8.26626Z" fill="#FCA700"/>
</svg>
