<svg width="24" height="24" viewBox="0 0 24 24" fill="none" xmlns="http://www.w3.org/2000/svg">
<path d="M0 6C0 2.68629 2.68629 0 6 0H18C21.3137 0 24 2.68629 24 6V18C24 21.3137 21.3137 24 18 24H6C2.68629 24 0 21.3137 0 18V6Z" fill="#FFC716"/>
<path d="M12 9.79611C10.0759 9.79611 8.20447 10.628 6.67572 11.9138C6.51757 12.065 6.35943 12.1406 6.20128 12.1406C6.06949 12.1406 5.9377 12.065 5.83227 11.939L3.90815 9.7709C3.80272 9.64485 3.75 9.5188 3.75 9.41796C3.75 9.2667 3.82907 9.14065 3.98722 8.98939C6.30671 7.023 9.127 5.91376 12 5.91376C14.873 5.91376 17.6933 7.023 20.0128 8.98939C20.1709 9.14065 20.25 9.2667 20.25 9.41796C20.25 9.5188 20.1973 9.64485 20.0919 9.7709L18.1677 11.939C18.0623 12.065 17.9305 12.1406 17.7987 12.1406C17.6406 12.1406 17.4824 12.065 17.3243 11.9138C15.7955 10.628 13.9241 9.79611 12 9.79611ZM12 17.9138C9.86502 17.9138 8.1254 16.2499 8.1254 14.2331C8.1254 12.2163 9.86502 10.5524 12 10.5524C14.135 10.5524 15.8746 12.1911 15.8746 14.2331C15.8746 16.2751 14.135 17.9138 12 17.9138Z" fill="#101214"/>
</svg>
