<svg width="24" height="24" viewBox="0 0 24 24" fill="none" xmlns="http://www.w3.org/2000/svg">
<path d="M0 6C0 2.68629 2.68629 0 6 0H18C21.3137 0 24 2.68629 24 6V18C24 21.3137 21.3137 24 18 24H6C2.68629 24 0 21.3137 0 18V6Z" fill="#DDDEE1"/>
<path fill-rule="evenodd" clip-rule="evenodd" d="M10.594 18.5625V10.5938H18.5627V18.5625H10.594ZM14.4024 12.075L14.239 12.5035C14.0044 13.1186 13.8871 13.4261 13.6672 13.6591C13.4473 13.8921 13.1471 14.0271 12.5466 14.297L12.3254 14.3964V14.7536L12.5465 14.8529C13.147 15.1228 13.4473 15.2577 13.6672 15.4908C13.8871 15.7238 14.0044 16.0314 14.239 16.6465L14.4024 17.075H14.7485L14.912 16.6464C15.1466 16.0313 15.2639 15.7238 15.4838 15.4908C15.7037 15.2577 16.0039 15.1228 16.6044 14.8529L16.8254 14.7536V14.3964L16.6042 14.2969C16.0038 14.0271 15.7036 13.8921 15.4838 13.6591C15.2639 13.4261 15.1466 13.1186 14.912 12.5036L14.7485 12.075H14.4024Z" fill="#101214"/>
<path d="M14.8127 7.19531L10.1252 4.5L5.43775 7.19531V12.5859L9.18775 14.7422V9.1875H14.8127V7.19531Z" fill="#101214"/>
</svg>
