<svg width="275" height="275" viewBox="0 0 275 275" fill="none" xmlns="http://www.w3.org/2000/svg">
<path d="M55.99 215.63L56.08 215.81H218.91L219.01 215.63L137.5 64.9902L55.99 215.63Z" fill="#4B4D51"/>
<path fill-rule="evenodd" clip-rule="evenodd" d="M134.115 173.95V118.94H141.445V173.95H134.115Z" fill="#101214"/>
<path fill-rule="evenodd" clip-rule="evenodd" d="M136.432 183.039C136.965 182.943 137.474 182.915 137.91 182.915C138.371 182.915 138.828 182.947 139.287 183.018L139.304 183.02L139.321 183.023C142.228 183.498 144.648 185.521 145.234 188.753C145.337 189.301 145.365 189.827 145.365 190.26C145.365 190.596 145.348 190.974 145.295 191.375V191.436L145.237 191.758C144.659 194.981 142.245 197.029 139.321 197.507L139.304 197.51L139.287 197.512C138.828 197.583 138.371 197.615 137.91 197.615C137.471 197.615 136.958 197.586 136.42 197.489C133.551 196.992 131.143 194.987 130.557 191.769C130.455 191.23 130.425 190.726 130.425 190.27C130.425 189.819 130.454 189.299 130.559 188.749C131.152 185.581 133.51 183.531 136.432 183.039ZM137.755 190.251C137.755 190.257 137.755 190.263 137.755 190.27C137.755 190.273 137.755 190.276 137.755 190.279C137.758 190.28 137.762 190.28 137.766 190.28C137.8 190.283 137.848 190.285 137.91 190.285C137.957 190.285 137.998 190.284 138.035 190.282C138.035 190.275 138.035 190.268 138.035 190.26C138.035 190.256 138.035 190.252 138.035 190.248C137.998 190.246 137.957 190.245 137.91 190.245C137.848 190.245 137.8 190.247 137.766 190.25C137.762 190.25 137.758 190.251 137.755 190.251Z" fill="#101214"/>
</svg>
