<svg xmlns="http://www.w3.org/2000/svg" fill="none" viewBox="0 0 275 275">
	<path fill="#4B4D51" d="M191.87 88.67c-2.28-4.36-5.07-8.68-8.3-12.86-3.27-4.23-6.8-8.07-10.5-11.4-21.6-19.51-49.11-22.5-75.49-8.19a93.066 93.066 0 0 0-12.54 8.22 94.563 94.563 0 0 0-11.53 10.51c-20.39 22.01-24.43 49.35-11.09 75.03 2.3 4.42 5.12 8.81 8.39 13.04 3.23 4.18 6.72 7.96 10.37 11.26 12.5 11.29 27.05 17.01 42.25 17.01 10.9 0 22.13-2.94 33.18-8.88 4.46-2.4 8.86-5.26 13.07-8.52 4.06-3.14 7.79-6.53 11.11-10.07 20.52-21.96 24.56-49.35 11.08-75.14v-.01Zm-30.56 74.37c-3.61 2.79-7.37 5.25-11.17 7.29-21.38 11.48-42.6 9.27-59.76-6.23-3.05-2.76-5.98-5.94-8.72-9.48-2.77-3.59-5.16-7.28-7.08-10.97-10.67-20.53-7.48-41.63 8.98-59.4 2.93-3.17 6.25-6.19 9.86-8.98 3.47-2.69 7.07-5.04 10.7-7.01 8.96-4.86 17.91-7.28 26.57-7.28 11.89 0 23.21 4.56 33.2 13.59 3.09 2.79 6.07 6.03 8.84 9.62 2.73 3.54 5.09 7.18 6.99 10.82 10.77 20.62 7.6 41.73-8.95 59.44-2.81 3.01-6 5.9-9.48 8.59h.02Z"/>
	<path fill="#4B4D51" d="M179.96 171c-3.54-4.93-7.34-4.9-11.05-2.03-3.48 2.69-4.41 6.33-.7 11.12l4.24 5.48 11.75-9.09-4.24-5.48Z"/>
	<path fill="#4B4D51" d="m187.155 174.199-17.642 13.64 33.152 42.878 17.642-13.64-33.152-42.878Z"/>
	<path fill="#7E8188" d="m184.32 176.391-11.97 9.255 11.243 14.54 11.969-9.254-11.242-14.541Z"/>
	<path fill="#4B4D51" fill-rule="evenodd" d="m157.715 95.826-53.98 53.979-7.07-7.071 53.979-53.98 7.071 7.072Z" clip-rule="evenodd"/>
	<path fill="#4B4D51" fill-rule="evenodd" d="m150.644 149.805-53.98-53.98 7.071-7.07 53.98 53.979-7.071 7.071Z" clip-rule="evenodd"/>
</svg>
