<svg xmlns="http://www.w3.org/2000/svg" fill="none" viewBox="0 0 275 275">
	<path fill="#fff" d="M185.8 91.84c-2.07-3.97-4.61-7.92-7.64-11.84-3.07-3.97-6.31-7.47-9.67-10.51-20.01-18.08-44.6-19.74-67.63-7.25-3.93 2.13-7.81 4.67-11.62 7.61-3.97 3.07-7.54 6.33-10.7 9.74C60.71 98.83 56.14 123 68.5 146.8c2.09 4.02 4.66 8.03 7.73 12.01 3.03 3.92 6.22 7.37 9.54 10.37 19.88 17.95 44.45 19.62 67.59 7.18 4.1-2.2 8.15-4.83 12.12-7.9 3.81-2.94 7.24-6.07 10.29-9.33 17.91-19.17 22.48-43.43 10.01-67.29h.02Z"/>
	<path fill="#DDDEE1" d="M123.44 191.28c-15.2 0-29.74-5.72-42.25-17.01-3.65-3.3-7.14-7.09-10.37-11.26-3.27-4.23-6.1-8.62-8.39-13.04-13.34-25.67-9.3-53.02 11.09-75.03 3.45-3.72 7.33-7.26 11.53-10.51 4.05-3.13 8.27-5.9 12.54-8.22 26.38-14.31 53.9-11.32 75.49 8.19 3.69 3.34 7.22 7.17 10.5 11.4 3.23 4.17 6.02 8.5 8.3 12.86 13.48 25.79 9.44 53.18-11.08 75.14-3.31 3.55-7.05 6.94-11.11 10.07-4.21 3.25-8.61 6.12-13.07 8.52-11.05 5.94-22.29 8.88-33.18 8.88v.01Zm7.25-130.3c-8.65 0-17.61 2.41-26.57 7.28-3.62 1.97-7.22 4.33-10.7 7.01-3.61 2.79-6.93 5.81-9.86 8.98-16.46 17.77-19.65 38.86-8.98 59.4 1.92 3.69 4.3 7.39 7.08 10.97 2.73 3.53 5.66 6.72 8.72 9.48 17.16 15.5 38.38 17.71 59.76 6.23 3.8-2.04 7.56-4.49 11.17-7.29 3.48-2.69 6.66-5.58 9.48-8.59 16.55-17.71 19.72-38.82 8.95-59.44-1.9-3.64-4.26-7.29-6.99-10.82-2.78-3.59-5.75-6.83-8.84-9.62-10-9.03-21.32-13.59-33.2-13.59h-.02Z"/><path fill="#DDDEE1" d="M179.96 171c-3.54-4.93-7.34-4.9-11.05-2.03-3.48 2.69-4.41 6.33-.7 11.12l4.24 5.48 11.75-9.09-4.24-5.48Z"/>
	<path fill="#DDDEE1" d="m187.155 174.199-17.642 13.64 33.152 42.878 17.642-13.64-33.152-42.878Z"/>
	<path fill="#B7B9BE" d="m184.32 176.391-11.97 9.255 11.243 14.54 11.969-9.254-11.242-14.541Z"/>
	<path fill="#DDDEE1" fill-rule="evenodd" d="m157.715 95.826-53.98 53.979-7.07-7.071 53.979-53.98 7.071 7.072Z" clip-rule="evenodd"/>
	<path fill="#DDDEE1" fill-rule="evenodd" d="m150.644 149.805-53.98-53.98 7.071-7.07 53.98 53.979-7.071 7.071Z" clip-rule="evenodd"/>
</svg>
