<svg width="24" height="24" viewBox="0 0 24 24"><path fill="currentcolor" fill-rule="evenodd" d="M6 8.51c0-.282.229-.51.5-.51h11c.276 0 .5.228.5.51v8.98c0 .282-.229.51-.5.51h-11a.505.505 0 0 1-.5-.51zm2 2.995v.99c0 .291.226.505.505.505h.99a.497.497 0 0 0 .505-.505v-.99A.497.497 0 0 0 9.495 11h-.99a.497.497 0 0 0-.505.505m3 0v.99c0 .291.226.505.505.505h.99a.497.497 0 0 0 .505-.505v-.99a.497.497 0 0 0-.505-.505h-.99a.497.497 0 0 0-.505.505m-3 3v.99c0 .291.226.505.505.505h.99a.497.497 0 0 0 .505-.505v-.99A.497.497 0 0 0 9.495 14h-.99a.497.497 0 0 0-.505.505M7.5 8v1h3V8zm6 0v1h3V8zm.5-1.495c0-.279.214-.505.505-.505h.99c.279 0 .505.214.505.505V8h-2zm-6 0C8 6.226 8.214 6 8.505 6h.99c.279 0 .505.214.505.505V8H8z"/></svg>