<svg width="24" height="24" viewBox="0 0 24 24"><path fill="currentcolor" fill-rule="evenodd" d="m10.88 5.48-8.43 6.83c-.4.32-.58.96-.41 1.42l.1.27c.17.46.73.83 1.23.82l1.13-.02 6.06-.1 3.65-.06c.51-.01.79-.38.62-.86l-2.92-8.03c-.1-.29-.32-.44-.57-.44a.73.73 0 0 0-.46.18m-5.9 10.46 1.75 4.82a1 1 0 1 0 1.88-.68l-1.54-4.23zm13.71-9.11-2.82 1.03a1 1 0 1 0 .68 1.88l2.82-1.03a1 1 0 1 0-.68-1.88m-1.79 3.85a1 1 0 0 0-.64.77 1 1 0 0 0 .81 1.16l2.96.52a1 1 0 0 0 1.12-1.3l-.02-.05a1 1 0 0 0-.76-.62l-2.95-.52a.97.97 0 0 0-.51.05m-.56-7.65-1.93 2.3a1 1 0 0 0 1.53 1.29l1.93-2.3a1 1 0 0 0-.76-1.64 1 1 0 0 0-.77.36"/></svg>