<svg width="24" height="24" viewBox="0 0 24 24"><g fill="currentcolor" fill-rule="evenodd"><path fill-rule="nonzero" d="M5 12.99C5 13 19.01 13 19.01 13 19 13 19 5.01 19 5.01 19 5 5 5 5 5zM3 5.01C3 3.9 3.89 3 5 3h14.01A2 2 0 0 1 21 5.01v7.98A2 2 0 0 1 19.01 15H5a2 2 0 0 1-2-2.01zM19 19c0 1.11-.9 2-2.01 2H7.01A2.01 2.01 0 0 1 5 19zm1-3a2 2 0 0 1-1.99 2H5.99A2 2 0 0 1 4 16z"/><path d="M10.674 11.331c.36.36.941.36 1.3 0l2.758-2.763a.92.92 0 0 0-1.301-1.298l-2.108 2.11-.755-.754a.92.92 0 0 0-1.3 1.3z"/></g></svg>