<svg width="24" height="24" viewBox="0 0 24 24"><path fill="currentcolor" fill-rule="evenodd" d="M6.59 17.83a2 2 0 0 0 2.83 0L6.59 15a2 2 0 0 0 0 2.83m4.79-12.35A5.04 5.04 0 0 1 14.95 4c.97 0 1.95.28 2.79.84q.03-.04.07-.07a1.01 1.01 0 1 1 1.35 1.49 5.05 5.05 0 0 1-.64 6.36l-.72.73c-.78.78-1.81 2.21-2.31 3.21l-1.51 3.02c-.25.5-.77.58-1.17.19l-8.56-8.55c-.4-.4-.31-.92.19-1.17l3.02-1.51c.99-.49 2.42-1.53 3.21-2.31zm2.74 9.63c.52-.97 1.57-2.4 2.35-3.18l.73-.73a3.05 3.05 0 0 0 .39-3.83c-.19-.29-.72-.77-.86-.86A3.04 3.04 0 0 0 15.05 6c-.8 0-1.57.31-2.16.89l-.95.95c-.78.79-2.22 1.82-3.2 2.31L7 11.02l6.07 6.07z"/></svg>