<svg width="24" height="24" viewBox="0 0 24 24"><g fill="currentcolor" fill-rule="evenodd"><path d="M8.13 10H4a2 2 0 0 0-2 2v3.73c0 1.31 1.87 2.05 4 2.23V15a3 3 0 0 1 3-3h.35a4 4 0 0 1-1.23-2m7.75 0H20c1.11 0 2 .89 2 2v3.73c0 1.31-1.87 2.05-4 2.23V15a3 3 0 0 0-3-3h-.35a4 4 0 0 0 1.23-2M9.97 5.55a3 3 0 1 0-1.96 3.27 4 4 0 0 1 1.96-3.27M16 8.83a3 3 0 1 0-1.96-3.28A4 4 0 0 1 16 8.83"/><path d="M7 15c0-1.105.887-2 2-2h6c1.105 0 2 .885 2 2v3.73c0 3.027-10 3.027-10 0z"/><circle cx="12" cy="9" r="3"/></g></svg>