<svg width="24" height="24" viewBox="0 0 24 24"><g fill="currentcolor" fill-rule="evenodd"><path fill-rule="nonzero" d="M6 12h8v-2H6zM4 8.99C4 8.445 4.456 8 5.002 8h9.996C15.55 8 16 8.451 16 8.99V14H4z"/><path d="M6 7.005C6 5.898 6.898 5 7.998 5h2.004C11.106 5 12 5.894 12 7.005V10H6zm4 0V7H7.999c.005 0 .002.003.002.005V8h2z"/><path fill-rule="nonzero" d="M4.5 17h13.994l1.002-3H4.14zm-2.495-4.012A.862.862 0 0 1 2.883 12h18.393c.55 0 .857.417.681.944l-1.707 5.112c-.174.521-.758.944-1.315.944H3.725a1.15 1.15 0 0 1-1.118-.988z"/></g></svg>