<svg width="24" height="24" viewBox="0 0 24 24"><path fill="currentColor" fill-rule="evenodd" d="M9 7.2a1.8 1.8 0 1 1-3.6 0 1.8 1.8 0 0 1 3.6 0m1.8 0a3.6 3.6 0 1 1-7.2 0 3.6 3.6 0 0 1 7.2 0m7.8 0a1.8 1.8 0 1 1-3.6 0 1.8 1.8 0 0 1 3.6 0m1.8 0a3.6 3.6 0 1 1-7.2 0 3.6 3.6 0 0 1 7.2 0m1.2 9.3a4.5 4.5 0 0 0-4.5-4.5h-1.378c-.484 0-1.275.127-1.875.41l.77 1.627c.14-.066.342-.129.566-.174s.421-.063.539-.063H17.1a2.7 2.7 0 0 1 2.7 2.7V18a.6.6 0 0 1-.6.6h-3.478a2.7 2.7 0 0 1-2.538-1.777l-.676-1.86A4.5 4.5 0 0 0 8.278 12H6.9a4.5 4.5 0 0 0-4.5 4.5V18a2.4 2.4 0 0 0 2.4 2.4h4.8v-1.8H4.8a.6.6 0 0 1-.6-.6v-1.5a2.7 2.7 0 0 1 2.7-2.7h1.378a2.7 2.7 0 0 1 2.538 1.777l.676 1.86a4.5 4.5 0 0 0 4.23 2.963H19.2a2.4 2.4 0 0 0 2.4-2.4z" clip-rule="evenodd"/></svg>