<svg xmlns="http://www.w3.org/2000/svg" width="16" height="16" viewBox="0 0 16 16">
  <path fill="#FFAB00" fill-rule="evenodd" d="M2,0 L14,0 C15.1045695,-2.02906125e-16 16,0.8954305 16,2 L16,14 C16,15.1045695 15.1045695,16 14,16 L2,16 C0.8954305,16 1.3527075e-16,15.1045695 0,14 L0,2 C-1.3527075e-16,0.8954305 0.8954305,2.02906125e-16 2,0 Z M9.04237838,11.0907387 L7.75545946,11.0907387 C7.6652973,11.0907387 7.5932973,11.0180901 7.5932973,10.9285766 L7.5932973,5.58954955 C7.5932973,5.49938739 7.6652973,5.42738739 7.75545946,5.42738739 L9.04237838,5.42738739 C9.13189189,5.42738739 9.20454054,5.49938739 9.20454054,5.58954955 L9.20454054,10.9285766 C9.20454054,11.0180901 9.13189189,11.0907387 9.04237838,11.0907387 M11.5695135,11.0907387 L10.2819459,11.0907387 C10.1924324,11.0907387 10.1197838,11.0180901 10.1197838,10.9285766 L10.1197838,5.58954955 C10.1197838,5.49938739 10.1924324,5.42738739 10.2819459,5.42738739 L13.8378378,5.42738739 C13.9267027,5.42738739 14,5.49938739 14,5.58954955 L14,6.63776577 C14,6.72727928 13.9267027,6.79992793 13.8378378,6.79992793 L11.7316757,6.79992793 L11.7316757,7.74695495 L13.6302703,7.74695495 C13.7197838,7.74695495 13.7924324,7.8196036 13.7924324,7.90911712 L13.7924324,8.92165766 C13.7924324,9.01117117 13.7197838,9.08381982 13.6302703,9.08381982 L11.7316757,9.08381982 L11.7316757,10.9285766 C11.7316757,11.0180901 11.6583784,11.0907387 11.5695135,11.0907387 M4.52454054,11.188036 C2.94378378,11.188036 2,10.2066306 2,8.56230631 L2,7.92079279 C2,6.32446847 2.96843243,5.33333333 4.52843243,5.33333333 C6.07156757,5.33333333 6.81945946,6.3114955 6.87654054,7.28122523 C6.87913514,7.32598198 6.86356757,7.37009009 6.83308108,7.40187387 C6.80194595,7.43495495 6.75913514,7.45311712 6.71502703,7.45311712 L5.46313514,7.45311712 C5.38464865,7.45311712 5.31783784,7.39733333 5.30356757,7.32014414 C5.23675676,6.95300901 4.93513514,6.72533333 4.51675676,6.72533333 C3.77794595,6.72533333 3.62291892,7.38176577 3.62291892,7.93246847 L3.62291892,8.55841441 C3.62291892,9.3796036 3.93491892,9.79603604 4.55178378,9.79603604 C5.14205405,9.79603604 5.35221622,9.43733333 5.35221622,9.12922523 L5.35221622,9.06825225 L4.58291892,9.06825225 C4.49340541,9.06825225 4.42075676,8.99625225 4.42075676,8.90609009 L4.42075676,7.99084685 C4.42075676,7.90133333 4.49340541,7.82868468 4.58291892,7.82868468 L6.7267027,7.82868468 C6.81621622,7.82868468 6.88886486,7.90133333 6.88886486,7.99084685 L6.88886486,9.02738739 C6.88886486,10.0243604 6.26940541,11.188036 4.52454054,11.188036"/>
</svg>
