<svg xmlns="http://www.w3.org/2000/svg" width="24" height="24" viewBox="0 0 24 24">
  <path fill="#FFAB00" fill-rule="evenodd" d="M3,1.0658141e-14 L21,1.0658141e-14 C22.6568542,1.03537818e-14 24,1.34314575 24,3 L24,21 C24,22.6568542 22.6568542,24 21,24 L3,24 C1.34314575,24 -3.34980755e-15,22.6568542 -3.55271368e-15,21 L-3.55271368e-15,3 C-3.7556198e-15,1.34314575 1.34314575,1.09625002e-14 3,1.0658141e-14 Z M13.5635676,16.6361081 L11.6331892,16.6361081 C11.4979459,16.6361081 11.3899459,16.5271351 11.3899459,16.3928649 L11.3899459,8.38432432 C11.3899459,8.24908108 11.4979459,8.14108108 11.6331892,8.14108108 L13.5635676,8.14108108 C13.6978378,8.14108108 13.8068108,8.24908108 13.8068108,8.38432432 L13.8068108,16.3928649 C13.8068108,16.5271351 13.6978378,16.6361081 13.5635676,16.6361081 M17.3542703,16.6361081 L15.4229189,16.6361081 C15.2886486,16.6361081 15.1796757,16.5271351 15.1796757,16.3928649 L15.1796757,8.38432432 C15.1796757,8.24908108 15.2886486,8.14108108 15.4229189,8.14108108 L20.7567568,8.14108108 C20.8900541,8.14108108 21,8.24908108 21,8.38432432 L21,9.95664865 C21,10.0909189 20.8900541,10.1998919 20.7567568,10.1998919 L17.5975135,10.1998919 L17.5975135,11.6204324 L20.4454054,11.6204324 C20.5796757,11.6204324 20.6886486,11.7294054 20.6886486,11.8636757 L20.6886486,13.3824865 C20.6886486,13.5167568 20.5796757,13.6257297 20.4454054,13.6257297 L17.5975135,13.6257297 L17.5975135,16.3928649 C17.5975135,16.5271351 17.4875676,16.6361081 17.3542703,16.6361081 M6.78681081,16.7820541 C4.41567568,16.7820541 3,15.3099459 3,12.8434595 L3,11.8811892 C3,9.4867027 4.45264865,8 6.79264865,8 C9.10735135,8 10.2291892,9.46724324 10.3148108,10.9218378 C10.3187027,10.988973 10.2953514,11.0551351 10.2496216,11.1028108 C10.2029189,11.1524324 10.1387027,11.1796757 10.0725405,11.1796757 L8.1947027,11.1796757 C8.07697297,11.1796757 7.97675676,11.096 7.95535135,10.9802162 C7.85513514,10.4295135 7.4027027,10.088 6.77513514,10.088 C5.66691892,10.088 5.43437838,11.0726486 5.43437838,11.8987027 L5.43437838,12.8376216 C5.43437838,14.0694054 5.90237838,14.6940541 6.82767568,14.6940541 C7.71308108,14.6940541 8.02832432,14.156 8.02832432,13.6938378 L8.02832432,13.6023784 L6.87437838,13.6023784 C6.74010811,13.6023784 6.63113514,13.4943784 6.63113514,13.3591351 L6.63113514,11.9862703 C6.63113514,11.852 6.74010811,11.743027 6.87437838,11.743027 L10.0900541,11.743027 C10.2243243,11.743027 10.3332973,11.852 10.3332973,11.9862703 L10.3332973,13.5410811 C10.3332973,15.0365405 9.40410811,16.7820541 6.78681081,16.7820541"/>
</svg>
