<svg xmlns="http://www.w3.org/2000/svg" width="48" height="64" viewBox="0 0 48 64">
  <g fill="none" fill-rule="evenodd">
    <path fill="#FFF" stroke="#091E42" stroke-opacity=".08" d="M4,0.5 L32.007097,0.5 C32.9580806,0.5 33.8681235,0.886970896 34.5278649,1.57188773 L46.5207679,14.0224343 C47.1490066,14.6746463 47.5,15.5449725 47.5,16.4505466 L47.5,60 C47.5,61.9329966 45.9329966,63.5 44,63.5 L4,63.5 C2.06700338,63.5 0.5,61.9329966 0.5,60 L0.5,4 C0.5,2.06700338 2.06700338,0.5 4,0.5 Z"/>
    <path fill="#FFAB00" d="M25.8241622,37.4087928 L23.5720541,37.4087928 C23.4142703,37.4087928 23.2882703,37.2816577 23.2882703,37.125009 L23.2882703,27.7817117 C23.2882703,27.6239279 23.4142703,27.4979279 23.5720541,27.4979279 L25.8241622,27.4979279 C25.9808108,27.4979279 26.1079459,27.6239279 26.1079459,27.7817117 L26.1079459,37.125009 C26.1079459,37.2816577 25.9808108,37.4087928 25.8241622,37.4087928 Z M30.2466486,37.4087928 L27.9934054,37.4087928 C27.8367568,37.4087928 27.7096216,37.2816577 27.7096216,37.125009 L27.7096216,27.7817117 C27.7096216,27.6239279 27.8367568,27.4979279 27.9934054,27.4979279 L34.2162162,27.4979279 C34.3717297,27.4979279 34.5,27.6239279 34.5,27.7817117 L34.5,29.6160901 C34.5,29.7727387 34.3717297,29.8998739 34.2162162,29.8998739 L30.5304324,29.8998739 L30.5304324,31.5571712 L33.852973,31.5571712 C34.0096216,31.5571712 34.1367568,31.6843063 34.1367568,31.840955 L34.1367568,33.6129009 C34.1367568,33.7695495 34.0096216,33.8966847 33.852973,33.8966847 L30.5304324,33.8966847 L30.5304324,37.125009 C30.5304324,37.2816577 30.4021622,37.4087928 30.2466486,37.4087928 M17.9179459,37.5790631 C15.1516216,37.5790631 13.5,35.8616036 13.5,32.984036 L13.5,31.8613874 C13.5,29.0678198 15.1947568,27.3333333 17.9247568,27.3333333 C20.6252432,27.3333333 21.9340541,29.0451171 22.0339459,30.7421441 C22.0384865,30.8204685 22.0112432,30.8976577 21.9578919,30.9532793 C21.9034054,31.0111712 21.8284865,31.042955 21.7512973,31.042955 L19.5604865,31.042955 C19.4231351,31.042955 19.3062162,30.9453333 19.2812432,30.8102523 C19.1643243,30.1677658 18.6364865,29.7693333 17.9043243,29.7693333 C16.6114054,29.7693333 16.3401081,30.9180901 16.3401081,31.8818198 L16.3401081,32.9772252 C16.3401081,34.4143063 16.8861081,35.1430631 17.9656216,35.1430631 C18.9985946,35.1430631 19.3663784,34.5153333 19.3663784,33.9761441 L19.3663784,33.8694414 L18.0201081,33.8694414 C17.8634595,33.8694414 17.7363243,33.7434414 17.7363243,33.5856577 L17.7363243,31.983982 C17.7363243,31.8273333 17.8634595,31.7001982 18.0201081,31.7001982 L21.7717297,31.7001982 C21.9283784,31.7001982 22.0555135,31.8273333 22.0555135,31.983982 L22.0555135,33.7979279 C22.0555135,35.5426306 20.9714595,37.5790631 17.9179459,37.5790631"/>
  </g>
</svg>
