<svg xmlns="http://www.w3.org/2000/svg" width="48" height="64" viewBox="0 0 48 64">
  <g fill="none" fill-rule="evenodd">
    <path fill="#FFF" stroke="#091E42" stroke-opacity=".08" d="M4,0.5 L32.007097,0.5 C32.9580806,0.5 33.8681235,0.886970896 34.5278649,1.57188773 L46.5207679,14.0224343 C47.1490066,14.6746463 47.5,15.5449725 47.5,16.4505466 L47.5,60 C47.5,61.9329966 45.9329966,63.5 44,63.5 L4,63.5 C2.06700338,63.5 0.5,61.9329966 0.5,60 L0.5,4 C0.5,2.06700338 2.06700338,0.5 4,0.5 Z"/>
    <path fill="#36B37E" d="M15.8333333,23.8333333 L19.3333333,23.8333333 C19.9776655,23.8333333 20.5,24.3556678 20.5,25 C20.5,25.6443322 19.9776655,26.1666667 19.3333333,26.1666667 L15.8333333,26.1666667 C15.1890011,26.1666667 14.6666667,25.6443322 14.6666667,25 C14.6666667,24.3556678 15.1890011,23.8333333 15.8333333,23.8333333 Z M15.8333333,28.5 L19.3333333,28.5 C19.9776655,28.5 20.5,29.0223345 20.5,29.6666667 C20.5,30.3109989 19.9776655,30.8333333 19.3333333,30.8333333 L15.8333333,30.8333333 C15.1890011,30.8333333 14.6666667,30.3109989 14.6666667,29.6666667 C14.6666667,29.0223345 15.1890011,28.5 15.8333333,28.5 Z M15.8333333,33.1666667 L19.3333333,33.1666667 C19.9776655,33.1666667 20.5,33.6890011 20.5,34.3333333 C20.5,34.9776655 19.9776655,35.5 19.3333333,35.5 L15.8333333,35.5 C15.1890011,35.5 14.6666667,34.9776655 14.6666667,34.3333333 C14.6666667,33.6890011 15.1890011,33.1666667 15.8333333,33.1666667 Z M15.8333333,37.8333333 L19.3333333,37.8333333 C19.9776655,37.8333333 20.5,38.3556678 20.5,39 C20.5,39.6443322 19.9776655,40.1666667 19.3333333,40.1666667 L15.8333333,40.1666667 C15.1890011,40.1666667 14.6666667,39.6443322 14.6666667,39 C14.6666667,38.3556678 15.1890011,37.8333333 15.8333333,37.8333333 Z M24,23.8333333 L32.1666667,23.8333333 C32.8109989,23.8333333 33.3333333,24.3556678 33.3333333,25 C33.3333333,25.6443322 32.8109989,26.1666667 32.1666667,26.1666667 L24,26.1666667 C23.3556678,26.1666667 22.8333333,25.6443322 22.8333333,25 C22.8333333,24.3556678 23.3556678,23.8333333 24,23.8333333 Z M24,28.5 L32.1666667,28.5 C32.8109989,28.5 33.3333333,29.0223345 33.3333333,29.6666667 C33.3333333,30.3109989 32.8109989,30.8333333 32.1666667,30.8333333 L24,30.8333333 C23.3556678,30.8333333 22.8333333,30.3109989 22.8333333,29.6666667 C22.8333333,29.0223345 23.3556678,28.5 24,28.5 Z M24,33.1666667 L32.1666667,33.1666667 C32.8109989,33.1666667 33.3333333,33.6890011 33.3333333,34.3333333 C33.3333333,34.9776655 32.8109989,35.5 32.1666667,35.5 L24,35.5 C23.3556678,35.5 22.8333333,34.9776655 22.8333333,34.3333333 C22.8333333,33.6890011 23.3556678,33.1666667 24,33.1666667 Z M24,37.8333333 L32.1666667,37.8333333 C32.8109989,37.8333333 33.3333333,38.3556678 33.3333333,39 C33.3333333,39.6443322 32.8109989,40.1666667 32.1666667,40.1666667 L24,40.1666667 C23.3556678,40.1666667 22.8333333,39.6443322 22.8333333,39 C22.8333333,38.3556678 23.3556678,37.8333333 24,37.8333333 Z"/>
  </g>
</svg>
