<svg width="12" height="12" fill="none" viewBox="0 0 12 12"><path fill="currentcolor" fill-rule="evenodd" d="M1.25 6.25a.25.25 0 1 0 0-.5.25.25 0 0 0 0 .5M0 6a1.25 1.25 0 1 1 2.5 0A1.25 1.25 0 0 1 0 6m6 .25a.25.25 0 1 0 0-.5.25.25 0 0 0 0 .5M4.75 6a1.25 1.25 0 1 1 2.5 0 1.25 1.25 0 0 1-2.5 0m6 .25a.25.25 0 1 0 0-.5.25.25 0 0 0 0 .5M9.5 6A1.25 1.25 0 1 1 12 6a1.25 1.25 0 0 1-2.5 0" clip-rule="evenodd"/><path fill="currentcolor" d="M1.5 6A.25.25 0 1 1 1 6a.25.25 0 0 1 .5 0m4.75 0a.25.25 0 1 1-.5 0 .25.25 0 0 1 .5 0M11 6a.25.25 0 1 1-.5 0 .25.25 0 0 1 .5 0"/></svg>