<svg width="12" height="12" fill="none" viewBox="0 0 12 12"><path fill="currentcolor" fill-rule="evenodd" d="M6 1.5A.25.25 0 1 0 6 1a.25.25 0 0 0 0 .5m-1.25-.25a1.25 1.25 0 1 1 2.5 0 1.25 1.25 0 0 1-2.5 0m1.25 5a.25.25 0 1 0 0-.5.25.25 0 0 0 0 .5M4.75 6a1.25 1.25 0 1 1 2.5 0 1.25 1.25 0 0 1-2.5 0M6 11a.25.25 0 1 0 0-.5.25.25 0 0 0 0 .5m-1.25-.25a1.25 1.25 0 1 1 2.5 0 1.25 1.25 0 0 1-2.5 0" clip-rule="evenodd"/><path fill="currentcolor" d="M6.25 1.25a.25.25 0 1 1-.5 0 .25.25 0 0 1 .5 0m0 4.75a.25.25 0 1 1-.5 0 .25.25 0 0 1 .5 0m0 4.75a.25.25 0 1 1-.5 0 .25.25 0 0 1 .5 0"/></svg>