<svg xmlns="http://www.w3.org/2000/svg" width="16" height="16" viewBox="0 0 16 16">
  <path fill="#2684FF" fill-rule="evenodd" d="M6.97247687,6.12776594 C6.79272174,4.92359826 5.75421983,4 4.5,4 C3.11928813,4 2,5.11928813 2,6.5 C2,7.88071187 3.11928813,9 4.5,9 C4.53427547,9 4.56838984,8.99931023 4.60232999,8.99794382 C4.32513248,9.39183513 3.98630247,9.81345783 3.58583959,10.2628116 C3.29951795,10.5840962 3.27552459,11.0613962 3.52818298,11.4097748 C3.55499462,11.4467441 3.58589571,11.4805671 3.62029877,11.5106007 C3.87265227,11.7309039 4.2558162,11.704922 4.47611616,11.4525657 C6.41477652,9.23186333 7.24689676,7.45693009 6.97247687,6.12776594 Z M13.9724769,6.12776594 C13.7927217,4.92359826 12.7542198,4 11.5,4 C10.1192881,4 9,5.11928813 9,6.5 C9,7.88071187 10.1192881,9 11.5,9 C11.5342755,9 11.5683898,8.99931023 11.60233,8.99794382 C11.3251325,9.39183513 10.9863025,9.81345783 10.5858396,10.2628116 C10.2995179,10.5840962 10.2755246,11.0613962 10.528183,11.4097748 C10.5549946,11.4467441 10.5858957,11.4805671 10.6202988,11.5106007 C10.8726523,11.7309039 11.2558162,11.704922 11.4761162,11.4525657 C13.4147765,9.23186333 14.2468968,7.45693009 13.9724769,6.12776594 Z M2,0 L14,0 C15.1045695,-2.02906125e-16 16,0.8954305 16,2 L16,14 C16,15.1045695 15.1045695,16 14,16 L2,16 C0.8954305,16 1.3527075e-16,15.1045695 0,14 L0,2 C-1.3527075e-16,0.8954305 0.8954305,2.02906125e-16 2,0 Z"/>
</svg>
