<svg xmlns="http://www.w3.org/2000/svg" width="24" height="24" viewBox="0 0 24 24">
  <path fill="#2684FF" fill-rule="evenodd" d="M10.9982107,9.03548403 C10.7709389,7.32206198 9.30418116,6 7.52863925,6 C5.59556348,6 4.02849595,7.56706753 4.02849595,9.5001433 C4.02849595,11.4332191 5.59556348,13.0002866 7.52863925,13.0002866 C7.6719525,13.0002866 7.81325404,12.9916734 7.95205445,12.9749365 C7.47884539,13.8109989 6.85551566,14.7534017 6.08206456,15.8021444 C5.74318774,16.2616419 5.78633252,16.8988197 6.1840593,17.30844 C6.21795115,17.3433453 6.25477618,17.3752775 6.29412903,17.4038851 C6.67398592,17.6800221 7.20577406,17.5959405 7.48191109,17.2160837 L7.48194544,17.2161086 C10.1569732,13.5363134 11.3290617,10.8094385 10.9982107,9.03548403 Z M19.8932434,9.03548403 C19.6659716,7.32206198 18.1992138,6 16.4236719,6 C14.4905962,6 12.9235286,7.56706753 12.9235286,9.5001433 C12.9235286,11.4332191 14.4905962,13.0002866 16.4236719,13.0002866 C16.5669852,13.0002866 16.7082867,12.9916734 16.8470871,12.9749365 C16.3738781,13.8109989 15.7505483,14.7534017 14.9770972,15.8021444 C14.6382204,16.2616419 14.6813652,16.8988197 15.079092,17.30844 C15.1129838,17.3433453 15.1498089,17.3752775 15.1891617,17.4038851 C15.5690186,17.6800221 16.1008067,17.5959405 16.3769438,17.2160837 L16.3769781,17.2161086 C19.0520059,13.5363134 20.2240943,10.8094385 19.8932434,9.03548403 Z M3,0 L21,0 C22.6568542,-3.04359188e-16 24,1.34314575 24,3 L24,21 C24,22.6568542 22.6568542,24 21,24 L3,24 C1.34314575,24 2.02906125e-16,22.6568542 0,21 L0,3 C-2.02906125e-16,1.34314575 1.34314575,3.04359188e-16 3,0 Z"/>
</svg>
