<svg width="12" height="12" viewBox="0 0 12 12" fill="none" xmlns="http://www.w3.org/2000/svg">
<path fill-rule="evenodd" clip-rule="evenodd" d="M0 6C0 2.68629 2.68629 0 6 0C9.31371 0 12 2.68629 12 6C12 9.31371 9.31371 12 6 12C2.68629 12 0 9.31371 0 6ZM6 1.5C3.51472 1.5 1.5 3.51472 1.5 6C1.5 8.48528 3.51472 10.5 6 10.5C8.48528 10.5 10.5 8.48528 10.5 6C10.5 3.51472 8.48528 1.5 6 1.5ZM9.29168 4.30772L5.67099 8.65255C5.5285 8.82355 5.31741 8.92241 5.09483 8.92241C4.87224 8.92241 4.66116 8.82355 4.51866 8.65255L2.70832 6.48014L3.86065 5.51986L5.09483 7.00088L8.13935 3.34745L9.29168 4.30772Z" fill="#292A2E"/>
</svg>
