<svg width="12" height="12" viewBox="0 0 12 12" fill="none" xmlns="http://www.w3.org/2000/svg">
<path d="M9.75 5C9.05964 5 8.5 4.44036 8.5 3.75C8.5 3.05964 9.05964 2.5 9.75 2.5C10.4404 2.5 11 3.05964 11 3.75C11 4.44036 10.4404 5 9.75 5Z" fill="#44546F"/>
<path d="M9.75 9.5C9.05964 9.5 8.5 8.94036 8.5 8.25C8.5 7.55964 9.05964 7 9.75 7C10.4404 7 11 7.55964 11 8.25C11 8.94036 10.4404 9.5 9.75 9.5Z" fill="#44546F"/>
<path d="M6 5C5.30964 5 4.75 4.44036 4.75 3.75C4.75 3.05964 5.30964 2.5 6 2.5C6.69036 2.5 7.25 3.05964 7.25 3.75C7.25 4.44036 6.69036 5 6 5Z" fill="#44546F"/>
<path d="M6 9.5C5.30964 9.5 4.75 8.94036 4.75 8.25C4.75 7.55964 5.30964 7 6 7C6.69036 7 7.25 7.55964 7.25 8.25C7.25 8.94036 6.69036 9.5 6 9.5Z" fill="#44546F"/>
<path d="M2.25 5C1.55964 5 1 4.44036 1 3.75C1 3.05964 1.55964 2.5 2.25 2.5C2.94036 2.5 3.5 3.05964 3.5 3.75C3.5 4.44036 2.94036 5 2.25 5Z" fill="#44546F"/>
<path d="M2.25 9.5C1.55964 9.5 1 8.94036 1 8.25C1 7.55964 1.55964 7 2.25 7C2.94036 7 3.5 7.55964 3.5 8.25C3.5 8.94036 2.94036 9.5 2.25 9.5Z" fill="#44546F"/>
</svg>
