<svg width="12" height="12" viewBox="0 0 12 12" fill="none" xmlns="http://www.w3.org/2000/svg">
<path d="M5 2.25C5 2.94036 4.44036 3.5 3.75 3.5C3.05964 3.5 2.5 2.94036 2.5 2.25C2.5 1.55964 3.05964 1 3.75 1C4.44036 1 5 1.55964 5 2.25Z" fill="#292A2E"/>
<path d="M9.5 2.25C9.5 2.94036 8.94036 3.5 8.25 3.5C7.55964 3.5 7 2.94036 7 2.25C7 1.55964 7.55964 1 8.25 1C8.94036 1 9.5 1.55964 9.5 2.25Z" fill="#292A2E"/>
<path d="M5 6C5 6.69036 4.44036 7.25 3.75 7.25C3.05964 7.25 2.5 6.69036 2.5 6C2.5 5.30964 3.05964 4.75 3.75 4.75C4.44036 4.75 5 5.30964 5 6Z" fill="#292A2E"/>
<path d="M9.5 6C9.5 6.69036 8.94036 7.25 8.25 7.25C7.55964 7.25 7 6.69036 7 6C7 5.30964 7.55964 4.75 8.25 4.75C8.94036 4.75 9.5 5.30964 9.5 6Z" fill="#292A2E"/>
<path d="M5 9.75C5 10.4404 4.44036 11 3.75 11C3.05964 11 2.5 10.4404 2.5 9.75C2.5 9.05964 3.05964 8.5 3.75 8.5C4.44036 8.5 5 9.05964 5 9.75Z" fill="#292A2E"/>
<path d="M9.5 9.75C9.5 10.4404 8.94036 11 8.25 11C7.55964 11 7 10.4404 7 9.75C7 9.05964 7.55964 8.5 8.25 8.5C8.94036 8.5 9.5 9.05964 9.5 9.75Z" fill="#292A2E"/>
</svg>
