<svg width="12" height="12" viewBox="0 0 12 12" fill="none" xmlns="http://www.w3.org/2000/svg">
<path d="M4.99999 2.25C4.99999 2.94036 4.44035 3.5 3.74999 3.5C3.05964 3.5 2.49999 2.94036 2.49999 2.25C2.49999 1.55964 3.05964 1 3.74999 1C4.44035 1 4.99999 1.55964 4.99999 2.25Z" fill="#44546F"/>
<path d="M9.49999 2.25C9.49999 2.94036 8.94035 3.5 8.24999 3.5C7.55964 3.5 6.99999 2.94036 6.99999 2.25C6.99999 1.55964 7.55964 1 8.24999 1C8.94035 1 9.49999 1.55964 9.49999 2.25Z" fill="#44546F"/>
<path d="M4.99999 6C4.99999 6.69036 4.44035 7.25 3.74999 7.25C3.05964 7.25 2.49999 6.69036 2.49999 6C2.49999 5.30964 3.05964 4.75 3.74999 4.75C4.44035 4.75 4.99999 5.30964 4.99999 6Z" fill="#44546F"/>
<path d="M9.49999 6C9.49999 6.69036 8.94035 7.25 8.24999 7.25C7.55964 7.25 6.99999 6.69036 6.99999 6C6.99999 5.30964 7.55964 4.75 8.24999 4.75C8.94035 4.75 9.49999 5.30964 9.49999 6Z" fill="#44546F"/>
<path d="M4.99999 9.75C4.99999 10.4404 4.44035 11 3.74999 11C3.05964 11 2.49999 10.4404 2.49999 9.75C2.49999 9.05964 3.05964 8.5 3.74999 8.5C4.44035 8.5 4.99999 9.05964 4.99999 9.75Z" fill="#44546F"/>
<path d="M9.49999 9.75C9.49999 10.4404 8.94035 11 8.24999 11C7.55964 11 6.99999 10.4404 6.99999 9.75C6.99999 9.05964 7.55964 8.5 8.24999 8.5C8.94035 8.5 9.49999 9.05964 9.49999 9.75Z" fill="#44546F"/>
</svg>
