<svg width="12" height="12" viewBox="0 0 12 12" fill="none" xmlns="http://www.w3.org/2000/svg">
<path fill-rule="evenodd" clip-rule="evenodd" d="M0.383878 5.11612L5.11611 0.383885C5.60427 -0.10427 6.39572 -0.10427 6.88388 0.383886L11.6161 5.11612C12.1043 5.60427 12.1043 6.39573 11.6161 6.88389L6.88388 11.6161C6.39572 12.1043 5.60427 12.1043 5.11611 11.6161L0.383877 6.88389C-0.104278 6.39573 -0.104277 5.60427 0.383878 5.11612ZM6.74999 2.5V6.5H5.24999V2.5H6.74999ZM5.99999 9.75C6.55228 9.75 6.99999 9.30229 6.99999 8.75C6.99999 8.19772 6.55228 7.75 5.99999 7.75C5.44771 7.75 4.99999 8.19772 4.99999 8.75C4.99999 9.30229 5.44771 9.75 5.99999 9.75Z" fill="#44546F"/>
</svg>
