<svg width="12" height="12" viewBox="0 0 12 12" fill="none" xmlns="http://www.w3.org/2000/svg">
<path fill-rule="evenodd" clip-rule="evenodd" d="M0.383939 5.11612L5.11617 0.383885C5.60433 -0.10427 6.39578 -0.10427 6.88394 0.383886L11.6162 5.11612C12.1043 5.60427 12.1043 6.39573 11.6162 6.88389L6.88394 11.6161C6.39578 12.1043 5.60433 12.1043 5.11617 11.6161L0.383938 6.88389C-0.104217 6.39573 -0.104216 5.60427 0.383939 5.11612ZM6.75006 2.5V6.5H5.25006V2.5H6.75006ZM6.00006 9.75C6.55234 9.75 7.00006 9.30229 7.00006 8.75C7.00006 8.19772 6.55234 7.75 6.00006 7.75C5.44777 7.75 5.00006 8.19772 5.00006 8.75C5.00006 9.30229 5.44777 9.75 6.00006 9.75Z" fill="#44546F"/>
</svg>
