<svg width="12" height="12" viewBox="0 0 12 12" fill="none" xmlns="http://www.w3.org/2000/svg">
<path fill-rule="evenodd" clip-rule="evenodd" d="M0.383878 5.11611L5.11611 0.383877C5.60427 -0.104278 6.39572 -0.104277 6.88388 0.383878L11.6161 5.11611C12.1043 5.60427 12.1043 6.39572 11.6161 6.88388L6.88388 11.6161C6.39572 12.1043 5.60427 12.1043 5.11611 11.6161L0.383877 6.88388C-0.104278 6.39572 -0.104277 5.60427 0.383878 5.11611ZM6.74999 2.49999V6.49999H5.24999V2.49999H6.74999ZM5.99999 9.74999C6.55228 9.74999 6.99999 9.30228 6.99999 8.74999C6.99999 8.19771 6.55228 7.74999 5.99999 7.74999C5.44771 7.74999 4.99999 8.19771 4.99999 8.74999C4.99999 9.30228 5.44771 9.74999 5.99999 9.74999Z" fill="#44546F"/>
</svg>
