<svg width="12" height="12" viewBox="0 0 12 12" fill="none" xmlns="http://www.w3.org/2000/svg">
<path fill-rule="evenodd" clip-rule="evenodd" d="M0.383878 5.11617L5.11611 0.383938C5.60427 -0.104217 6.39572 -0.104216 6.88388 0.383939L11.6161 5.11617C12.1043 5.60433 12.1043 6.39578 11.6161 6.88394L6.88388 11.6162C6.39572 12.1043 5.60427 12.1043 5.11611 11.6162L0.383877 6.88394C-0.104278 6.39578 -0.104277 5.60433 0.383878 5.11617ZM6.74999 2.50006V6.50006H5.24999V2.50006H6.74999ZM5.99999 9.75006C6.55228 9.75006 6.99999 9.30234 6.99999 8.75006C6.99999 8.19777 6.55228 7.75006 5.99999 7.75006C5.44771 7.75006 4.99999 8.19777 4.99999 8.75006C4.99999 9.30234 5.44771 9.75006 5.99999 9.75006Z" fill="#44546F"/>
</svg>
