<svg width="12" height="12" viewBox="0 0 12 12" fill="none" xmlns="http://www.w3.org/2000/svg">
<path fill-rule="evenodd" clip-rule="evenodd" d="M2.6875 2.5C2.58395 2.5 2.5 2.58395 2.5 2.6875V9.3125C2.5 9.41605 2.58395 9.5 2.6875 9.5H9.3125C9.41605 9.5 9.5 9.41605 9.5 9.3125V8.5H11V9.3125C11 10.2445 10.2445 11 9.3125 11H2.6875C1.75552 11 1 10.2445 1 9.3125V2.6875C1 1.75552 1.75552 1 2.6875 1H3.5V2.5H2.6875ZM5.75 1H10.25C10.6642 1 11 1.33579 11 1.75V6.25H9.5V3.56066L5.53033 7.53033L4.46967 6.46967L8.43934 2.5H5.75V1Z" fill="#292A2E"/>
</svg>
