<svg width="12" height="12" viewBox="0 0 12 12" fill="none" xmlns="http://www.w3.org/2000/svg">
<path d="M2.25 7.1875C2.25 6.66973 2.66973 6.25 3.1875 6.25H3.75H8.8125C9.33027 6.25 9.75 6.66973 9.75 7.1875V10.3125C9.75 10.8303 9.33027 11.25 8.8125 11.25H3.1875C2.66973 11.25 2.25 10.8303 2.25 10.3125V7.1875Z" fill="#44546F"/>
<path d="M8.25 3C8.25 1.75736 7.24264 0.75 6 0.75C4.75736 0.75 3.75 1.75736 3.75 3V6.25M3.75 6.25H3.1875C2.66973 6.25 2.25 6.66973 2.25 7.1875V10.3125C2.25 10.8303 2.66973 11.25 3.1875 11.25H8.8125C9.33027 11.25 9.75 10.8303 9.75 10.3125V7.1875C9.75 6.66973 9.33027 6.25 8.8125 6.25H3.75Z" stroke="#44546F" stroke-width="1.5" stroke-linejoin="round"/>
</svg>
