<svg width="12" height="12" viewBox="0 0 12 12" fill="none" xmlns="http://www.w3.org/2000/svg">
<path d="M8.8125 11.25C9.33027 11.25 9.75 10.8303 9.75 10.3125V6.6875C9.75 6.16973 9.33027 5.75 8.8125 5.75H8.25H3.75H3.1875C2.66973 5.75 2.25 6.16973 2.25 6.6875V10.3125C2.25 10.8303 2.66973 11.25 3.1875 11.25H8.8125Z" fill="#44546F"/>
<path d="M3.75 5.75H3.1875C2.66973 5.75 2.25 6.16973 2.25 6.6875V10.3125C2.25 10.8303 2.66973 11.25 3.1875 11.25H8.8125C9.33027 11.25 9.75 10.8303 9.75 10.3125V6.6875C9.75 6.16973 9.33027 5.75 8.8125 5.75H8.25M3.75 5.75V3C3.75 1.75736 4.75736 0.75 6 0.75C7.24264 0.75 8.25 1.75736 8.25 3V5.75M3.75 5.75H8.25" stroke="#44546F" stroke-width="1.5" stroke-linejoin="round"/>
</svg>
