<svg width="12" height="12" viewBox="0 0 12 12" fill="none" xmlns="http://www.w3.org/2000/svg">
<path fill-rule="evenodd" clip-rule="evenodd" d="M1.25 6.25C1.38807 6.25 1.5 6.13807 1.5 6C1.5 5.86193 1.38807 5.75 1.25 5.75C1.11193 5.75 1 5.86193 1 6C1 6.13807 1.11193 6.25 1.25 6.25ZM0 6C0 5.30964 0.559644 4.75 1.25 4.75C1.94036 4.75 2.5 5.30964 2.5 6C2.5 6.69036 1.94036 7.25 1.25 7.25C0.559644 7.25 0 6.69036 0 6ZM6 6.25C6.13807 6.25 6.25 6.13807 6.25 6C6.25 5.86193 6.13807 5.75 6 5.75C5.86193 5.75 5.75 5.86193 5.75 6C5.75 6.13807 5.86193 6.25 6 6.25ZM4.75 6C4.75 5.30964 5.30964 4.75 6 4.75C6.69036 4.75 7.25 5.30964 7.25 6C7.25 6.69036 6.69036 7.25 6 7.25C5.30964 7.25 4.75 6.69036 4.75 6ZM10.75 6.25C10.8881 6.25 11 6.13807 11 6C11 5.86193 10.8881 5.75 10.75 5.75C10.6119 5.75 10.5 5.86193 10.5 6C10.5 6.13807 10.6119 6.25 10.75 6.25ZM9.5 6C9.5 5.30964 10.0596 4.75 10.75 4.75C11.4404 4.75 12 5.30964 12 6C12 6.69036 11.4404 7.25 10.75 7.25C10.0596 7.25 9.5 6.69036 9.5 6Z" fill="#44546F"/>
<path d="M1.5 6C1.5 6.13807 1.38807 6.25 1.25 6.25C1.11193 6.25 1 6.13807 1 6C1 5.86193 1.11193 5.75 1.25 5.75C1.38807 5.75 1.5 5.86193 1.5 6Z" fill="#44546F"/>
<path d="M6.25 6C6.25 6.13807 6.13807 6.25 6 6.25C5.86193 6.25 5.75 6.13807 5.75 6C5.75 5.86193 5.86193 5.75 6 5.75C6.13807 5.75 6.25 5.86193 6.25 6Z" fill="#44546F"/>
<path d="M11 6C11 6.13807 10.8881 6.25 10.75 6.25C10.6119 6.25 10.5 6.13807 10.5 6C10.5 5.86193 10.6119 5.75 10.75 5.75C10.8881 5.75 11 5.86193 11 6Z" fill="#44546F"/>
</svg>
