<svg width="12" height="12" viewBox="0 0 12 12" fill="none" xmlns="http://www.w3.org/2000/svg">
<path d="M6.5 6C6.5 6.27614 6.27614 6.5 6 6.5C5.72386 6.5 5.5 6.27614 5.5 6C5.5 5.72386 5.72386 5.5 6 5.5C6.27614 5.5 6.5 5.72386 6.5 6Z" fill="#44546F"/>
<path d="M6.5 10.75C6.5 11.0261 6.27614 11.25 6 11.25C5.72386 11.25 5.5 11.0261 5.5 10.75C5.5 10.4739 5.72386 10.25 6 10.25C6.27614 10.25 6.5 10.4739 6.5 10.75Z" fill="#44546F"/>
<path d="M6.5 1.25C6.5 1.52614 6.27614 1.75 6 1.75C5.72386 1.75 5.5 1.52614 5.5 1.25C5.5 0.973858 5.72386 0.75 6 0.75C6.27614 0.75 6.5 0.973858 6.5 1.25Z" fill="#44546F"/>
<path d="M6.5 6C6.5 6.27614 6.27614 6.5 6 6.5C5.72386 6.5 5.5 6.27614 5.5 6C5.5 5.72386 5.72386 5.5 6 5.5C6.27614 5.5 6.5 5.72386 6.5 6Z" stroke="#44546F" stroke-width="1.5"/>
<path d="M6.5 10.75C6.5 11.0261 6.27614 11.25 6 11.25C5.72386 11.25 5.5 11.0261 5.5 10.75C5.5 10.4739 5.72386 10.25 6 10.25C6.27614 10.25 6.5 10.4739 6.5 10.75Z" stroke="#44546F" stroke-width="1.5"/>
<path d="M6.5 1.25C6.5 1.52614 6.27614 1.75 6 1.75C5.72386 1.75 5.5 1.52614 5.5 1.25C5.5 0.973858 5.72386 0.75 6 0.75C6.27614 0.75 6.5 0.973858 6.5 1.25Z" stroke="#44546F" stroke-width="1.5"/>
</svg>
