<svg width="12" height="12" viewBox="0 0 12 12" fill="none" xmlns="http://www.w3.org/2000/svg">
<path fill-rule="evenodd" clip-rule="evenodd" d="M6 1.5C6.13807 1.5 6.25 1.38807 6.25 1.25C6.25 1.11193 6.13807 1 6 1C5.86193 1 5.75 1.11193 5.75 1.25C5.75 1.38807 5.86193 1.5 6 1.5ZM4.75 1.25C4.75 0.559644 5.30964 0 6 0C6.69036 0 7.25 0.559644 7.25 1.25C7.25 1.94036 6.69036 2.5 6 2.5C5.30964 2.5 4.75 1.94036 4.75 1.25ZM6 6.25C6.13807 6.25 6.25 6.13807 6.25 6C6.25 5.86193 6.13807 5.75 6 5.75C5.86193 5.75 5.75 5.86193 5.75 6C5.75 6.13807 5.86193 6.25 6 6.25ZM4.75 6C4.75 5.30964 5.30964 4.75 6 4.75C6.69036 4.75 7.25 5.30964 7.25 6C7.25 6.69036 6.69036 7.25 6 7.25C5.30964 7.25 4.75 6.69036 4.75 6ZM6 11C6.13807 11 6.25 10.8881 6.25 10.75C6.25 10.6119 6.13807 10.5 6 10.5C5.86193 10.5 5.75 10.6119 5.75 10.75C5.75 10.8881 5.86193 11 6 11ZM4.75 10.75C4.75 10.0596 5.30964 9.5 6 9.5C6.69036 9.5 7.25 10.0596 7.25 10.75C7.25 11.4404 6.69036 12 6 12C5.30964 12 4.75 11.4404 4.75 10.75Z" fill="#292A2E"/>
<path d="M6.25 1.25C6.25 1.38807 6.13807 1.5 6 1.5C5.86193 1.5 5.75 1.38807 5.75 1.25C5.75 1.11193 5.86193 1 6 1C6.13807 1 6.25 1.11193 6.25 1.25Z" fill="#292A2E"/>
<path d="M6.25 6C6.25 6.13807 6.13807 6.25 6 6.25C5.86193 6.25 5.75 6.13807 5.75 6C5.75 5.86193 5.86193 5.75 6 5.75C6.13807 5.75 6.25 5.86193 6.25 6Z" fill="#292A2E"/>
<path d="M6.25 10.75C6.25 10.8881 6.13807 11 6 11C5.86193 11 5.75 10.8881 5.75 10.75C5.75 10.6119 5.86193 10.5 6 10.5C6.13807 10.5 6.25 10.6119 6.25 10.75Z" fill="#292A2E"/>
</svg>
