<svg width="12" height="12" viewBox="0 0 12 12" fill="none" xmlns="http://www.w3.org/2000/svg">
<path fill-rule="evenodd" clip-rule="evenodd" d="M6 0C6.31033 0 6.58861 0.191122 6.70001 0.480766L7.98826 3.83021L11.3075 4.08554C11.6119 4.10895 11.8717 4.31448 11.9645 4.60527C12.0573 4.89605 11.9646 5.21409 11.7301 5.4095L9.18204 7.53292L10.1272 11.0557C10.2085 11.3589 10.0924 11.6808 9.83606 11.8622C9.57976 12.0436 9.2376 12.0461 8.97863 11.8685L6 9.82606L3.02137 11.8685C2.76241 12.0461 2.42024 12.0436 2.16394 11.8622C1.90764 11.6808 1.79147 11.3589 1.87284 11.0557L2.81796 7.53292L0.269862 5.4095C0.0353677 5.21409 -0.0573035 4.89605 0.0355181 4.60527C0.12834 4.31448 0.388134 4.10895 0.692478 4.08554L4.01174 3.83021L5.29999 0.480766C5.41139 0.191122 5.68967 0 6 0ZM6 2.83926L5.07159 5.25312L2.64891 5.43948L4.51537 6.99486L3.8478 9.48307L6 8.00728L8.1522 9.48307L7.48463 6.99486L9.35109 5.43948L6.92841 5.25312L6 2.83926Z" fill="#292A2E"/>
</svg>
