<svg width="12" height="12" viewBox="0 0 12 12" fill="none" xmlns="http://www.w3.org/2000/svg">
<path d="M6 8.91667L2.59722 11.25L3.66667 7.26389L0.75 4.83333L4.54167 4.54167L6 0.75L7.45833 4.54167L11.25 4.83333L8.33333 7.26389L9.40278 11.25L6 8.91667Z" fill="#44546F"/>
<path d="M6 8.91667L6.42415 8.29812L6 8.00728L5.57585 8.29812L6 8.91667ZM2.59722 11.25L1.87284 11.0557C1.79147 11.3589 1.90764 11.6808 2.16394 11.8622C2.42024 12.0436 2.76241 12.0461 3.02137 11.8685L2.59722 11.25ZM3.66667 7.26389L4.39105 7.45824L4.51537 6.99486L4.14681 6.68772L3.66667 7.26389ZM0.75 4.83333L0.692478 4.08554C0.388133 4.10895 0.128339 4.31448 0.0355176 4.60527C-0.057304 4.89605 0.0353672 5.21409 0.269862 5.4095L0.75 4.83333ZM4.54167 4.54167L4.59919 5.28946L5.07159 5.25312L5.24168 4.8109L4.54167 4.54167ZM6 0.75L6.70001 0.480766C6.58861 0.191122 6.31033 0 6 0C5.68967 0 5.41139 0.191122 5.29999 0.480766L6 0.75ZM7.45833 4.54167L6.75832 4.8109L6.92841 5.25312L7.40081 5.28946L7.45833 4.54167ZM11.25 4.83333L11.7301 5.4095C11.9646 5.21409 12.0573 4.89605 11.9645 4.60527C11.8717 4.31448 11.6119 4.10895 11.3075 4.08554L11.25 4.83333ZM8.33333 7.26389L7.8532 6.68772L7.48463 6.99486L7.60895 7.45824L8.33333 7.26389ZM9.40278 11.25L8.97863 11.8685C9.23759 12.0461 9.57976 12.0436 9.83606 11.8622C10.0924 11.6808 10.2085 11.3589 10.1272 11.0557L9.40278 11.25ZM5.57585 8.29812L2.17308 10.6315L3.02137 11.8685L6.42415 9.53521L5.57585 8.29812ZM3.3216 11.4443L4.39105 7.45824L2.94228 7.06954L1.87284 11.0557L3.3216 11.4443ZM4.14681 6.68772L1.23014 4.25717L0.269862 5.4095L3.18653 7.84005L4.14681 6.68772ZM0.807522 5.58112L4.59919 5.28946L4.48414 3.79388L0.692478 4.08554L0.807522 5.58112ZM5.24168 4.8109L6.70001 1.01923L5.29999 0.480766L3.84166 4.27243L5.24168 4.8109ZM5.29999 1.01923L6.75832 4.8109L8.15834 4.27243L6.70001 0.480766L5.29999 1.01923ZM7.40081 5.28946L11.1925 5.58112L11.3075 4.08554L7.51586 3.79388L7.40081 5.28946ZM10.7699 4.25717L7.8532 6.68772L8.81347 7.84005L11.7301 5.4095L10.7699 4.25717ZM7.60895 7.45824L8.6784 11.4443L10.1272 11.0557L9.05772 7.06954L7.60895 7.45824ZM9.82692 10.6315L6.42415 8.29812L5.57585 9.53521L8.97863 11.8685L9.82692 10.6315Z" fill="#44546F"/>
</svg>
