<?xml version="1.0" encoding="UTF-8" standalone="no"?>
<svg width="24px" height="24px" viewBox="0 0 24 24" version="1.1" xmlns="http://www.w3.org/2000/svg" xmlns:xlink="http://www.w3.org/1999/xlink">
    <!-- Generator: Sketch 45.1 (43504) - http://www.bohemiancoding.com/sketch -->
    <title>media-services/annotate</title>
    <desc>Created with Sketch.</desc>
    <defs></defs>
    <g id="Media-services" stroke="none" stroke-width="1" fill="none" fill-rule="evenodd">
        <g id="media-services/annotate" fill-rule="nonzero" fill="#42526E">
            <path d="M9.86438759,10.7362841 C10.634577,9.99017661 11.7574347,10.2004178 12.5836408,11.0009517 C13.4098469,11.8014856 13.6271284,12.8892351 12.8567812,13.6353427 C11.0407372,15.3947134 7.3751971,15.6371439 8.09157902,14.8420527 C9.67882258,13.0811269 8.67004953,11.8932329 9.86438759,10.7362841 Z M19.9680013,4.02991948 C20.3704606,4.40837757 16.8683217,8.76246365 15.5407865,10.0102453 C14.882047,10.6294773 14.5290398,10.8362514 14.2646732,11.0260752 C14.150218,11.1084478 14.1146581,10.9993115 14.0875994,10.9501457 C13.9561961,10.7113851 13.6940107,10.3704307 13.4579468,10.1486887 C13.2219866,9.9269468 12.851486,9.70437583 12.5905406,9.57739709 C12.5382893,9.55192205 12.422279,9.51851702 12.5100902,9.41076848 C12.7120456,9.16246111 12.9320401,8.83049251 13.5907796,8.21135965 C14.9182111,6.96357797 19.5651273,3.65156051 19.9680013,4.02991948 Z M18.3795831,19.9456186 C18.2737834,19.9816085 18.161105,20 18.0477657,20 C17.6402707,20 17.2774755,19.7697139 17.1347964,19.3717662 C16.7919014,18.4152468 15.9950316,17.7296926 14.8784767,17.4391132 C12.6958255,16.8711263 11.6587358,17.1745897 9.82504807,18.433814 C9.74524787,18.4886049 9.74524787,18.4886049 9.66457132,18.5437936 C9.22846819,18.8415685 8.93598281,19.0248017 8.61638341,19.1881523 C7.13878461,19.9433576 5.98434277,20.0134289 5.13404216,19.6067148 C4.54792919,19.3263514 4.14541159,18.8131065 4.03439415,18.2001289 C3.78021553,16.7970912 4.96352111,15.5531144 6.63587448,15.0439828 C7.13810634,14.8911947 7.63092744,15.1472217 7.79071327,15.6452109 C7.94830315,16.1363376 7.70940613,16.6668353 7.17110725,16.8306704 C6.84179773,16.9309685 6.45356174,17.1424613 6.19273669,17.3636328 C5.99777196,17.5289566 5.86309026,17.7191141 5.88709469,17.7976249 C5.92923936,17.9356052 5.97512351,17.9833075 6.04623229,18.0119551 C6.20219556,18.0749842 6.49155497,18.0408219 6.86504897,17.9156439 C7.02939063,17.8605642 7.20460923,17.7900665 7.38851741,17.7068136 C7.58501692,17.6178608 7.73693057,17.5413161 7.9688261,17.4191601 C8.04459467,17.3792573 8.14606592,17.3094705 8.41435167,17.1163212 C9.50335416,16.3323907 10.2163816,15.917991 11.2594797,15.5960025 C12.8206021,15.1142233 14.4384372,15.2065125 16.0605984,15.8679255 C17.4599354,16.4385221 18.4599729,17.4569904 18.9444299,18.8081038 C19.1176817,19.2914142 18.8738538,19.7774941 18.3795831,19.9456186 Z" id="Combined-Shape"></path>
        </g>
    </g>
</svg>