<?xml version="1.0" encoding="UTF-8" standalone="no"?>
<svg width="24px" height="24px" viewBox="0 0 24 24" version="1.1" xmlns="http://www.w3.org/2000/svg" xmlns:xlink="http://www.w3.org/1999/xlink">
    <!-- Generator: Sketch 45.1 (43504) - http://www.bohemiancoding.com/sketch -->
    <title>media-services/blur</title>
    <desc>Created with Sketch.</desc>
    <defs></defs>
    <g id="Media-services" stroke="none" stroke-width="1" fill="none" fill-rule="evenodd">
        <g id="media-services/blur" fill-rule="nonzero" fill="#42526E">
            <path d="M4.88888889,4 L12,4 L12,12 L4,12 L4,4.88888889 L4,4.88888889 C4,4.39796911 4.39796911,4 4.88888889,4 Z" id="Rectangle-11"></path>
            <path d="M4,12 L12,12 L12,20 L4.88888889,20 L4.88888889,20 C4.39796911,20 4,19.6020309 4,19.1111111 L4,12 Z" id="Rectangle-11-Copy-6" opacity="0.4"></path>
            <path d="M12,4 L19.1111111,4 L19.1111111,4 C19.6020309,4 20,4.39796911 20,4.88888889 L20,12 L12,12 L12,4 Z" id="Rectangle-11-Copy-2" opacity="0.55"></path>
            <path d="M12,12 L20,12 L20,19.1111111 L20,19.1111111 C20,19.6020309 19.6020309,20 19.1111111,20 L12,20 L12,12 Z" id="Rectangle-11-Copy-8" opacity="0.75"></path>
        </g>
    </g>
</svg>