<?xml version="1.0" encoding="UTF-8" standalone="no"?>
<svg width="24px" height="24px" viewBox="0 0 24 24" version="1.1" xmlns="http://www.w3.org/2000/svg" xmlns:xlink="http://www.w3.org/1999/xlink">
    <!-- Generator: Sketch 45.1 (43504) - http://www.bohemiancoding.com/sketch -->
    <title>media-services/brush</title>
    <desc>Created with Sketch.</desc>
    <defs></defs>
    <g id="Media-services" stroke="none" stroke-width="1" fill="none" fill-rule="evenodd">
        <g id="media-services/brush" fill-rule="nonzero" fill="#42526E">
            <path d="M6.48585012,13.7284198 C4.89339938,15.3270457 6.23843011,16.9684306 4.12210536,19.4016081 C3.16692946,20.5002337 8.05431627,20.1652528 10.4757082,17.734224 C11.5028379,16.7032822 11.2131293,15.200273 10.1115211,14.094127 C9.00991295,12.9879809 7.51276941,12.6974779 6.48585012,13.7284198 Z M19.957335,4.04334643 C19.4201697,3.49519155 13.2242815,8.29354096 11.4543728,10.1012888 C10.5760535,10.9982695 10.2827275,11.4792155 10.0134536,11.8389556 C9.89637203,11.9950584 10.0510524,12.0434546 10.1207208,12.080362 C10.4686481,12.2643249 10.9626488,12.5867789 11.2772624,12.9080319 C11.5920142,13.2292848 11.9415948,13.7232492 12.1167991,14.0691581 C12.1528774,14.1403881 12.2002906,14.2985014 12.3528976,14.1791625 C12.7053864,13.9041516 13.1760627,13.6045836 14.054382,12.7074593 C15.824429,10.8997114 20.4939475,4.59164491 19.957335,4.04334643 Z" id="Shape"></path>
        </g>
    </g>
</svg>