<?xml version="1.0" encoding="UTF-8" standalone="no"?>
<svg width="24px" height="24px" viewBox="0 0 24 24" version="1.1" xmlns="http://www.w3.org/2000/svg" xmlns:xlink="http://www.w3.org/1999/xlink">
    <!-- Generator: Sketch 45.1 (43504) - http://www.bohemiancoding.com/sketch -->
    <title>media-services/scale-small</title>
    <desc>Created with Sketch.</desc>
    <defs></defs>
    <g id="Media-services" stroke="none" stroke-width="1" fill="none" fill-rule="evenodd">
        <g id="media-services/scale-small" fill="#42526E">
            <path d="M8,8.57534027 L8,15.4246597 C8,15.7518034 8.25758861,16 8.57534027,16 L15.4246597,16 C15.7518034,16 16,15.7424114 16,15.4246597 L16,8.57534027 C16,8.2481966 15.7424114,8 15.4246597,8 L8.57534027,8 C8.2481966,8 8,8.25758861 8,8.57534027 Z M6,8.57534027 C6,7.15478338 7.14176218,6 8.57534027,6 L15.4246597,6 C16.8452166,6 18,7.14176218 18,8.57534027 L18,15.4246597 C18,16.8452166 16.8582378,18 15.4246597,18 L8.57534027,18 C7.15478338,18 6,16.8582378 6,15.4246597 L6,8.57534027 Z" id="Rectangle-2" fill-rule="nonzero"></path>
            <path d="M11.4253941,14.8571429 L14.5711795,14.8571429 C14.725259,14.8571429 14.8571429,14.7269272 14.8571429,14.5662981 L14.8571429,13.632481 C14.8571429,13.5446427 14.8123797,13.4364746 14.7571615,13.3757346 L13.4333147,11.9195033 C13.3710007,11.850958 13.2879351,11.854922 13.2319336,11.9109235 L11.4285714,13.7142857 L10.9592454,13.2449597 C10.8995187,13.185233 10.81143,13.18857 10.7550403,13.2449597 L9.33950751,14.6604925 C9.23502459,14.7649754 9.2737324,14.8571429 9.43517521,14.8571429 L11.4253941,14.8571429 Z" id="Combined-Shape"></path>
            <circle id="Oval-6" cx="10.2857143" cy="10.2857143" r="1.14285714"></circle>
        </g>
    </g>
</svg>