<?xml version="1.0" encoding="UTF-8" standalone="no"?>
<svg width="24px" height="24px" viewBox="0 0 24 24" version="1.1" xmlns="http://www.w3.org/2000/svg" xmlns:xlink="http://www.w3.org/1999/xlink">
    <!-- Generator: Sketch 45.1 (43504) - http://www.bohemiancoding.com/sketch -->
    <title>media-services/unknown</title>
    <desc>Created with Sketch.</desc>
    <defs></defs>
    <g id="Media-services" stroke="none" stroke-width="1" fill="none" fill-rule="evenodd">
        <g id="media-services/unknown">
            <rect id="Path-Copy" fill="#42526E" x="4" y="4" width="16" height="16" rx="2"></rect>
            <path d="M12,11 L15.5023012,11 C15.7771727,11 16,11.2278805 16,11.4910052 L16,16.009222 C16,16.5564136 15.5562834,17 15.0001925,17 L11.5,17 L9.0093689,17 C8.45190985,17 8,16.5443356 8,16.0046024 L8,7.99539757 C8,7.44565467 8.44335318,7 9.0093689,7 L11.5095215,7 C11.7804053,7 12,7.22765279 12,7.50964952 L12,11 Z M13,7 L16,10 L13,10 L13,7 Z" id="Combined-Shape-Copy" fill="#79F2C0"></path>
        </g>
    </g>
</svg>