<svg xmlns="http://www.w3.org/2000/svg" width="24" height="24" viewBox="0 0 24 24">
  <path fill="#5E6C84" fill-rule="evenodd" d="M3,0 L21,0 C22.6568542,-3.04359188e-16 24,1.34314575 24,3 L24,21 C24,22.6568542 22.6568542,24 21,24 L3,24 C1.34314575,24 2.02906125e-16,22.6568542 0,21 L0,3 C-2.02906125e-16,1.34314575 1.34314575,3.04359188e-16 3,0 Z M9,3 L9,6 L12,6 L12,3 L9,3 Z M12,6 L12,9 L15,9 L15,6 L12,6 Z M9,9 L9,12 L12,12 L12,9 L9,9 Z M12,12 L12,15 L15,15 L15,12 L12,12 Z M9,15 L9,18 L12,18 L12,15 L9,15 Z M12,18 L12,21 L15,21 L15,18 L12,18 Z"/>
</svg>
