<?xml version="1.0" encoding="UTF-8" standalone="no"?>
<svg width="24px" height="24px" viewBox="0 0 24 24" version="1.1" xmlns="http://www.w3.org/2000/svg" xmlns:xlink="http://www.w3.org/1999/xlink">
    <!-- Generator: Sketch 45.1 (43504) - http://www.bohemiancoding.com/sketch -->
    <title>jira/capture</title>
    <desc>Created with Sketch.</desc>
    <defs></defs>
    <g id="JIRA" stroke="none" stroke-width="1" fill="none" fill-rule="evenodd">
        <g id="jira/capture" fill="#42526E">
            <path d="M12,15 C10.3431458,15 9,13.6568542 9,12 C9,10.3431458 10.3431458,9 12,9 C13.6568542,9 15,10.3431458 15,12 C15,13.6568542 13.6568542,15 12,15 Z M13,3 C17,3 19,3 19,3 C20.1358643,3 21,4 21,5 C21,5 21,7 21,11 L19,9 L19,5 L15,5 L13,3 Z M3,11 C3,7 3,5 3,5 C3,3.86413574 4,3 5,3 C5,3 7,3 11,3 L9,5 L5,5 L5,9 L3,11 Z M11,21 C7,21 5,21 5,21 C3.86413574,21 3,20 3,19 C3,19 3,17 3,13 L5,15 L5,19 L9,19 L11,21 Z M21,13 C21,17 21,19 21,19 C21,20.1358643 20,21 19,21 C19,21 17,21 13,21 L15,19 L19,19 L19,15 L21,13 Z" id="Combined-Shape"></path>
        </g>
    </g>
</svg>