<?xml version="1.0" encoding="UTF-8" standalone="no"?>
<svg width="24px" height="24px" viewBox="0 0 24 24" version="1.1" xmlns="http://www.w3.org/2000/svg" xmlns:xlink="http://www.w3.org/1999/xlink">
    <!-- Generator: Sketch 45.1 (43504) - http://www.bohemiancoding.com/sketch -->
    <title>jira/failed-build-status</title>
    <desc>Created with Sketch.</desc>
    <defs></defs>
    <g id="JIRA" stroke="none" stroke-width="1" fill="none" fill-rule="evenodd">
        <g id="jira/failed-build-status">
            <circle id="Combined-Shape" fill="#42526E" cx="12" cy="12" r="10"></circle>
            <path d="M12,14 L12,14 C11.448,14 11,13.552 11,13 L11,8 C11,7.448 11.448,7 12,7 L12,7 C12.552,7 13,7.448 13,8 L13,13 C13,13.552 12.552,14 12,14" id="Fill-1" fill="#79F2C0"></path>
            <path d="M12,17 L12,17 C11.448,17 11,16.552 11,16 L11,16 C11,15.448 11.448,15 12,15 L12,15 C12.552,15 13,15.448 13,16 L13,16 C13,16.552 12.552,17 12,17" id="Fill-3" fill="#79F2C0"></path>
        </g>
    </g>
</svg>