<svg xmlns="http://www.w3.org/2000/svg" width="24" height="24" viewBox="0 0 24 24">
  <path fill="#5E6C84" fill-rule="evenodd" d="M12,4.0002 L8,4.0002 C6.895,4.0002 6,4.8952 6,6.0002 L6,18.0002 C6,19.1042 6.895,20.0002 8,20.0002 L16,20.0002 C17.105,20.0002 18,19.1042 18,18.0002 L18,11.0052 L16,11.0052 L16,18.0002 L8,18.0002 L8,6.0002 L12,6.0002 L12,8 C12,9.1045695 12.8954305,10 14,10 L17.5,10 C17.7761424,10 18,9.77614237 18,9.5 L18,8.21275563 C18,8.08081559 17.9478497,7.95422354 17.8549146,7.86056866 L14.6107233,4.59125212 C14.2352167,4.21283737 13.7241719,4 13.1910651,4 L12,4 Z M3,0 L21,0 C22.6568542,-3.04359188e-16 24,1.34314575 24,3 L24,21 C24,22.6568542 22.6568542,24 21,24 L3,24 C1.34314575,24 2.02906125e-16,22.6568542 0,21 L0,3 C-2.02906125e-16,1.34314575 1.34314575,3.04359188e-16 3,0 Z"/>
</svg>
