<svg width="24" height="24" viewBox="0 0 24 24" fill="none" xmlns="http://www.w3.org/2000/svg">
<g clip-path="url(#clip0_14_2)">
<rect width="24" height="24" rx="12" fill="#625DF5"/>
<path d="M19.083 11.212H14.941L18.529 9.14099L17.741 7.77599L14.153 9.84699L16.223 6.25999L14.859 5.47199L12.788 9.05899V4.91699H11.212V9.05899L9.14099 5.47199L7.77599 6.25899L9.84699 9.84699L6.25999 7.77599L5.47199 9.13999L9.05899 11.21H4.91699V12.787H9.05899L5.47199 14.858L6.25999 16.223L9.84699 14.153L7.77599 17.74L9.14099 18.527L11.211 14.94V19.082H12.788V14.94L14.858 18.527L16.223 17.74L14.153 14.152L17.74 16.223L18.528 14.858L14.941 12.788H19.083V11.212ZM12 14.143C11.4295 14.143 10.8824 13.9164 10.479 13.513C10.0756 13.1096 9.84899 12.5625 9.84899 11.992C9.84899 11.4215 10.0756 10.8744 10.479 10.471C10.8824 10.0676 11.4295 9.84099 12 9.84099C12.5705 9.84099 13.1176 10.0676 13.521 10.471C13.9244 10.8744 14.151 11.4215 14.151 11.992C14.151 12.5625 13.9244 13.1096 13.521 13.513C13.1176 13.9164 12.5705 14.143 12 14.143Z" fill="white"/>
</g>
<defs>
<clipPath id="clip0_14_2">
<rect width="24" height="24" fill="white"/>
</clipPath>
</defs>
</svg>
