<svg width="384" height="112" viewBox="0 0 384 112" fill="none" xmlns="http://www.w3.org/2000/svg">
<g clip-path="url(#clip0_29_3035)">
<g clip-path="url(#clip1_29_3035)">
<path d="M324.436 139.627V47.6995C318.34 47.1312 312.14 46.3942 305.84 45.4812C291.024 43.3362 274.72 40.0985 258.396 35.4052V139.627H324.436Z" fill="#FCA700"/>
<path d="M49.7519 136.382L52.6519 76.3217L155.216 119.222C160.824 116.666 166.204 113.839 171.336 110.744C199.38 93.8337 220.264 68.9627 232.756 36.8171L151.124 25.0067C142.648 40.5791 130.18 52.8441 113.4 60.9767L113.016 61.2041L112.976 61.2224C97.7399 68.5997 79.1519 72.4717 56.7559 72.4717C46.0519 72.4717 34.4799 71.5881 21.9759 69.7804C14.8919 68.7537 7.51191 67.4191 0.00390625 65.7581V130.233C5.97991 131.384 11.8239 132.359 17.4519 133.173C28.5519 134.779 39.3239 135.843 49.7519 136.382Z" fill="#FCA700"/>
<path d="M354.236 47.2962C364.536 47.2962 374.464 46.7462 384.004 45.6682V0.00358009H326.436V46.0386C335.976 46.8782 345.248 47.2962 354.236 47.2962Z" fill="#FCA700"/>
<path d="M51.7515 136.481C56.4155 136.693 61.0155 136.8 65.5395 136.8C98.6995 136.8 128.023 131.142 152.887 120.259L54.5235 79.1155L51.7515 136.477V136.481Z" fill="#FCA700"/>
<path d="M256.396 32.8972V0.00358009H209.772L207.596 12.6389C222.648 21.2446 239.476 27.8702 256.396 32.8972Z" fill="#FCA700"/>
<path d="M258.396 33.4802C274.808 38.2359 291.236 41.5139 306.152 43.6699C312.352 44.5682 318.448 45.2942 324.44 45.8552V0.00358009H258.4V33.4802H258.396Z" fill="#FCA700"/>
<path d="M45.0839 38.6393H45.1119C50.5279 38.6393 55.7239 38.2617 60.6799 37.521C73.7159 35.5813 85.0279 31.1373 94.0319 24.398C102.328 18.183 108.668 10.0137 112.584 0H0.00390625V27.2873C8.16391 32.3253 17.8879 35.75 28.8399 37.4293C33.9999 38.2213 39.4239 38.632 45.0839 38.6357V38.6393Z" fill="#FCA700"/>
<path d="M56.7559 70.6419C78.8879 70.6419 97.1199 66.8212 112.004 59.6199L112.38 59.3962L112.42 59.3779C129.06 51.3186 141.328 39.1672 149.66 23.5912L149.984 22.9826L235.444 35.3466L235.048 36.3842C222.488 69.3622 201.164 94.9592 172.436 112.273C167.676 115.144 162.708 117.781 157.548 120.193L305.752 182.182V164.571H384V47.5199C374.448 48.5906 364.52 49.1296 354.232 49.1296C345.236 49.1296 335.964 48.7116 326.432 47.8792V141.46H256.392V34.8222C238.936 29.6742 221.528 22.8432 205.968 13.8746L205.408 13.5519L207.74 0.00358009H114.708C110.7 10.5929 104.044 19.2719 95.2919 25.8206C85.9839 32.7872 74.3239 37.3522 60.9959 39.3322C55.9279 40.0876 50.6239 40.4726 45.1079 40.4726H45.0799C39.3159 40.4726 33.7799 40.0509 28.5079 39.2406C17.8039 37.6016 8.19191 34.3199 0.00390625 29.4872V63.8732C7.61591 65.5709 15.1079 66.9349 22.2879 67.9726C34.7039 69.7692 46.1759 70.6419 56.7559 70.6419Z" fill="#FCA700"/>
<path d="M258.172 33.4179H258.392V0.00358009H256.392V32.8972C256.984 33.0732 257.58 33.2419 258.172 33.4142V33.4179Z" fill="#FA8700"/>
<path d="M326.436 46.0386V0.00358009H324.436V45.8589C325.104 45.9212 325.772 45.9799 326.436 46.0386Z" fill="#FA8700"/>
<path d="M49.7515 136.381C50.4195 136.414 51.0835 136.447 51.7475 136.48L54.5195 79.1191L152.883 120.263C153.663 119.922 154.443 119.577 155.215 119.221L52.6515 76.3214L49.7515 136.381Z" fill="#FFC716"/>
<path d="M49.664 138.215C50.332 138.248 50.996 138.281 51.66 138.314C56.352 138.527 60.98 138.637 65.536 138.637C99.608 138.637 129.76 132.708 155.252 121.257C156.02 120.912 156.784 120.556 157.544 120.201C162.704 117.788 167.672 115.152 172.432 112.281C201.16 94.9631 222.484 69.3697 235.044 36.3917L235.44 35.3541L149.98 22.9901L149.656 23.5987C141.32 39.1711 129.052 51.3224 112.416 59.3854L112.376 59.4037L112 59.6274C97.112 66.8251 78.884 70.6457 56.752 70.6494C46.168 70.6494 34.696 69.7767 22.284 67.9801C15.104 66.9424 7.616 65.5784 0 63.8807V65.7691C7.504 67.4301 14.884 68.7684 21.972 69.7914C34.476 71.5991 46.052 72.4827 56.752 72.4827C79.148 72.4827 97.736 68.6107 112.972 61.2334L113.012 61.2151L113.396 60.9877C130.176 52.8551 142.648 40.5901 151.12 25.0177L232.752 36.8281C220.26 68.9737 199.376 93.8447 171.332 110.755C166.2 113.85 160.82 116.677 155.212 119.233C154.44 119.585 153.66 119.929 152.88 120.274C128.016 131.157 98.692 136.811 65.532 136.814C61.008 136.814 56.408 136.708 51.744 136.495C51.08 136.466 50.412 136.433 49.748 136.396C39.316 135.857 28.544 134.794 17.448 133.188C11.82 132.374 5.976 131.399 0 130.247V132.121C5.868 133.243 11.608 134.2 17.136 134.999C28.304 136.616 39.152 137.683 49.66 138.226L49.664 138.215Z" fill="#FA8700"/>
<path d="M258.172 33.4179C258.244 33.4399 258.32 33.4619 258.392 33.4839V33.4179H258.172Z" fill="#FA8700"/>
<path d="M324.436 139.627H258.396V35.4052C257.728 35.2146 257.064 35.0202 256.396 34.8222V141.46H326.436V47.8792C325.768 47.8206 325.104 47.7619 324.436 47.6996V139.627Z" fill="#FA8700"/>
<path d="M45.0839 40.4726H45.1119C50.6279 40.4726 55.9359 40.0876 60.9999 39.3322C74.3279 37.3486 85.9919 32.7872 95.2959 25.8206C104.048 19.2719 110.704 10.5929 114.712 0.00358009H112.584C108.668 10.0172 102.328 18.1866 94.0319 24.4016C85.0279 31.1409 73.7159 35.5849 60.6799 37.5246C55.7239 38.2616 50.5239 38.6429 45.1119 38.6429H45.0839C39.4239 38.6429 33.9999 38.2286 28.8399 37.4366C17.8919 35.7609 8.16791 32.3326 0.00390625 27.2946V29.4909C8.19191 34.3236 17.8079 37.6052 28.5079 39.2442C33.7799 40.0509 39.3159 40.4726 45.0799 40.4762L45.0839 40.4726Z" fill="#FFC716"/>
<path d="M205.968 13.8744C221.528 22.8431 238.936 29.6741 256.392 34.8221C257.06 35.0201 257.724 35.2144 258.392 35.4051C274.716 40.0984 291.02 43.3361 305.836 45.4811C312.14 46.3941 318.34 47.1311 324.432 47.6994C325.1 47.7617 325.764 47.8204 326.432 47.8791C335.964 48.7114 345.236 49.1294 354.232 49.1294C364.52 49.1294 374.448 48.5867 384 47.5197V45.6717C374.46 46.7497 364.532 47.2997 354.232 47.2997C345.244 47.2997 335.972 46.8817 326.432 46.0421C325.768 45.9834 325.1 45.9247 324.432 45.8624C318.44 45.3014 312.344 44.5717 306.144 43.6771C291.232 41.5211 274.8 38.2431 258.388 33.4874C258.316 33.4654 258.24 33.4434 258.168 33.4214C257.576 33.2491 256.98 33.0804 256.388 32.9044C239.468 27.8737 222.64 21.2517 207.588 12.6461L209.764 0.0107422H207.74L205.408 13.5591L205.968 13.8817V13.8744Z" fill="#FFC716"/>
</g>
<path d="M174.04 91.9973C179.57 93.4843 185.604 94.1937 191.923 94.1937C198.242 94.1937 203.732 93.4979 209.1 92.0383C220.597 88.928 229.973 82.2572 234.702 71.2758C236.822 66.3375 238.045 60.5671 238.045 53.8009C238.045 47.0346 236.809 41.0733 234.662 36.0941C229.919 25.099 220.569 18.4555 209.1 15.3452C203.746 13.8856 197.93 13.1899 191.923 13.1899C185.604 13.1899 179.57 13.8992 174.04 15.3998C162.434 18.5374 153.166 25.1808 148.464 36.1077C146.317 41.1006 145.108 46.9528 145.108 53.8145C145.108 60.6763 146.317 66.3512 148.424 71.2894C153.098 82.2027 162.394 88.8598 174.04 91.9973Z" fill="white"/>
<g clip-path="url(#clip2_29_3035)">
<path d="M165.82 85.2437C166.195 85.6412 166.537 85.9788 166.84 86.2525C167.152 86.5225 167.433 86.725 167.665 86.8787C168.138 87.1787 168.449 87.2538 168.573 87.1337C168.697 87.0138 168.637 86.695 168.37 86.2112C168.239 85.9675 168.052 85.6863 167.819 85.3638C167.59 85.0338 167.309 84.6625 166.972 84.2537C165.089 81.9062 163.33 79.3675 161.737 76.4463C160.942 74.9838 160.184 73.4312 159.494 71.755C159.149 70.915 158.827 70.0525 158.508 69.1413C158.185 68.2188 157.867 67.285 157.559 66.3175C156.145 61.9525 155.714 59.1438 155.774 56.7663C155.815 55.5813 155.999 54.5013 156.419 53.4513C156.637 52.93 156.914 52.4238 157.278 51.9325C157.372 51.8163 157.473 51.6813 157.563 51.5763C157.66 51.4713 157.777 51.3513 157.897 51.2388C158.14 51.01 158.407 50.785 158.699 50.5713C159.674 49.8438 160.9 49.2625 162.198 49.2175C162.847 49.1875 163.492 49.315 164.122 49.5663C164.752 49.8175 165.34 50.2225 165.865 50.7063C166.39 51.1975 166.837 51.79 167.193 52.4238C167.365 52.7538 167.512 53.065 167.647 53.4325C167.782 53.7925 167.898 54.16 167.999 54.535C168.404 56.035 168.562 57.61 168.592 59.1588C168.592 59.3575 168.599 59.5525 168.603 59.7475L168.61 60.0588C168.614 60.175 168.61 60.265 168.64 60.4675C168.659 60.5425 168.64 60.5613 168.73 60.7975C168.742 60.82 168.749 60.8425 168.79 60.9175C168.824 60.9775 168.865 61.0375 168.91 61.09C168.959 61.1575 169.158 61.33 169.315 61.3863C169.454 61.4538 169.743 61.5025 169.968 61.4425C170.245 61.3638 170.215 61.3488 170.339 61.2813C170.425 61.225 170.515 61.135 170.523 61.1275C170.549 61.1013 170.575 61.0713 170.598 61.0413C170.624 61.0113 170.647 60.9775 170.65 60.97L170.707 60.88L170.722 60.85L170.744 60.805L170.785 60.7188L170.947 60.3663C171.029 60.1525 171.093 59.9575 171.168 59.7513C171.415 58.9713 171.618 58.2438 171.817 57.5388C172.21 56.1363 172.597 54.85 172.987 53.7025C173.763 51.4113 174.558 49.7125 175.053 48.8013C175.327 48.25 175.642 47.7288 175.934 47.1888C176.065 46.9488 176.253 46.6788 176.455 46.3563C176.65 46.0263 176.909 45.6813 177.198 45.295C177.464 44.9163 177.839 44.4625 178.214 44.0013C178.597 43.54 179.009 43.0488 179.467 42.5575C180.374 41.5638 181.465 40.54 182.778 39.6775C183.442 39.265 184.15 38.8863 184.919 38.6088C185.688 38.3463 186.505 38.1775 187.357 38.1325C188.253 38.095 189.119 38.1663 189.963 38.41C190.795 38.6575 191.575 39.055 192.202 39.6513C192.835 40.24 193.33 41.005 193.66 41.89C193.825 42.3325 193.96 42.7938 194.054 43.285C194.099 43.5213 194.159 43.8063 194.174 44.035L194.249 44.755C194.305 46.7575 193.897 48.9138 193.342 51.0025C192.779 53.0988 192.048 55.165 191.257 57.1638C190.147 59.9913 188.995 62.4963 187.9 64.7275C186.809 66.9625 185.759 68.9088 184.81 70.6187C182.902 74.035 181.372 76.4725 180.314 78.1375C177.787 82.0563 175.443 85.39 173.14 88.3562C170.838 91.3225 168.618 93.9625 166.207 96.3587C165.554 97.0262 165.078 97.5437 164.8 97.9412C164.523 98.3387 164.44 98.6125 164.538 98.7288C164.635 98.8487 164.913 98.8113 165.352 98.5937C165.794 98.3762 166.409 97.9862 167.125 97.3487C169.765 95.0612 172.177 92.485 174.622 89.5413C177.067 86.5975 179.508 83.245 182.08 79.27C183.067 77.7175 184.645 75.3588 186.543 72.145C188.437 68.9275 190.687 64.87 192.82 59.8488C193.177 59.035 193.484 58.1988 193.807 57.3738C194.099 56.5338 194.407 55.7013 194.658 54.85C195.228 53.0238 195.742 51.1 196.094 49.0863C196.199 48.5913 196.24 48.0663 196.319 47.56C196.39 47.05 196.402 46.5175 196.447 45.9963C196.458 45.7338 196.447 45.46 196.447 45.1938C196.439 44.9238 196.454 44.6613 196.409 44.3838L196.315 43.5625C196.278 43.3 196.229 43.0563 196.173 42.79C195.952 41.7475 195.58 40.7013 195.018 39.7563C194.452 38.815 193.679 37.9788 192.779 37.3863C191.883 36.7825 190.885 36.4 189.91 36.2013C188.935 35.9988 187.964 35.95 187.064 36.0175C185.2 36.13 183.543 36.7375 182.242 37.4913C180.929 38.2375 179.913 39.0775 179.122 39.8013C178.33 40.5325 177.753 41.1513 177.37 41.5825C176.98 42.01 176.782 42.25 176.782 42.25C176.782 42.25 176.478 42.6025 175.957 43.2438C175.694 43.5475 175.379 43.9938 175.015 44.4738C174.824 44.7138 174.663 44.995 174.472 45.2763C174.288 45.565 174.078 45.8613 173.898 46.195C173.118 47.4963 172.353 49.12 171.663 50.9575C170.973 52.795 170.373 54.8575 169.814 56.9913C169.672 57.5163 169.529 58.0488 169.387 58.5813C169.312 58.8363 169.24 59.11 169.154 59.3388C169.113 59.4513 169.075 59.5975 169.03 59.6763L168.97 59.815L168.94 59.8863V59.8938L169.567 60.235L169.649 60.2913C169.668 60.3025 169.687 60.3175 169.705 60.3325C169.739 60.3588 169.743 60.3813 169.743 60.3775C169.743 60.3663 169.773 60.3475 169.818 60.3288C169.867 60.3063 169.915 60.295 169.998 60.2725C170.035 60.2613 170.073 60.2538 170.11 60.25L170.257 60.22L170.583 60.1675C170.677 60.1525 170.654 60.1563 170.654 60.1563L170.65 60.0963L170.643 59.9125L170.628 59.4925L170.594 58.615C170.564 58.0225 170.515 57.4263 170.444 56.83C170.298 55.6375 170.05 54.4413 169.66 53.2825C169.563 52.9938 169.458 52.7088 169.334 52.4238L169.139 51.9888L168.918 51.5688C168.61 51.0175 168.25 50.5 167.842 50.0275C167.032 49.0825 166.012 48.325 164.875 47.8525C163.739 47.38 162.472 47.2675 161.35 47.4513C160.225 47.6425 159.228 48.0663 158.395 48.58C157.552 49.0938 156.865 49.6713 156.262 50.3013C155.815 50.8188 155.452 51.31 155.163 51.85C154.863 52.375 154.638 52.915 154.458 53.4438C154.105 54.5013 153.944 55.5138 153.873 56.4513C153.742 58.3263 153.937 59.8938 154.139 61.225C154.597 63.88 155.159 65.6238 155.568 66.9475C155.887 67.945 156.224 68.905 156.554 69.8275C156.888 70.7575 157.24 71.6725 157.612 72.5463C158.362 74.29 159.187 75.8988 160.06 77.3988C161.812 80.395 163.754 82.945 165.839 85.2362L165.82 85.2437Z" fill="#101214"/>
<path d="M215.677 81.8313C217.57 82.9263 218.2 81.8388 216.535 80.5788C215.362 79.6638 214.195 78.6888 212.995 77.5713C211.799 76.45 210.562 75.1938 209.302 73.6675C208.578 72.8125 208.023 72.0925 207.558 71.4663C207.089 70.8325 206.733 70.315 206.433 69.8125C205.852 68.8075 205.428 67.9 205.36 66.4937C205.342 66.2012 205.353 65.8787 205.379 65.5637C205.405 65.2712 205.465 64.9637 205.559 64.66C205.75 64.0562 206.08 63.4525 206.534 62.9837C206.984 62.5037 207.55 62.1887 208.124 62.095C208.428 62.0575 208.657 62.0612 208.923 62.1362C209.185 62.2075 209.452 62.3425 209.71 62.515C210.228 62.8637 210.697 63.3625 211.094 63.865C211.488 64.375 211.818 64.9038 212.077 65.395C212.339 65.8863 212.534 66.3437 212.662 66.7112C212.793 67.0675 212.83 67.3825 212.804 67.3113V67.36V67.3787V67.3862C212.804 67.3675 212.804 67.4388 212.815 67.54C212.823 67.5963 212.834 67.6712 212.883 67.8137C212.909 67.885 212.947 67.9788 213.033 68.1025C213.115 68.2225 213.254 68.3875 213.498 68.5188C213.738 68.6538 214.083 68.7025 214.342 68.6462C214.604 68.5975 214.773 68.4925 214.882 68.41C215.099 68.2412 215.152 68.1362 215.2 68.065C215.283 67.93 215.298 67.8775 215.313 67.8438C215.328 67.8025 215.343 67.7612 215.354 67.72C215.377 67.6375 215.395 67.54 215.399 67.465L215.407 67.3825L215.418 67.2625L215.437 67.03L215.467 66.565C215.497 66.01 215.564 64.9787 215.725 63.6287C215.894 62.2825 216.145 60.5987 216.67 58.8512C216.933 57.985 217.27 57.0925 217.735 56.3425C217.964 55.9675 218.234 55.6413 218.512 55.42C218.654 55.3075 218.759 55.2437 219.007 55.12C219.213 55.0187 219.408 54.9325 219.603 54.8688C219.993 54.7413 220.345 54.7112 220.612 54.7825C220.762 54.8237 220.837 54.85 220.96 54.9437C221.08 55.03 221.208 55.1575 221.328 55.3075C221.815 55.93 222.123 56.89 222.31 57.8612C222.592 59.2375 222.667 60.5537 222.644 61.7312C222.614 62.9087 222.524 63.9625 222.367 64.885C222.303 65.3463 222.217 65.7737 222.13 66.1712C222.089 66.37 222.048 66.5613 222.01 66.7488C221.962 66.9325 221.917 67.1088 221.872 67.2775C221.782 67.615 221.71 67.9263 221.624 68.2038C221.534 68.4813 221.455 68.7325 221.384 68.9612C220.698 71.095 219.865 72.88 219.052 74.515C218.212 76.135 217.345 77.5788 216.408 78.9663C215.894 79.7275 215.819 80.2712 216.055 80.4737C216.284 80.6687 216.832 80.5112 217.477 79.8025C218.643 78.5087 219.712 77.095 220.713 75.445C221.688 73.7838 222.644 71.905 223.39 69.6138C223.533 69.1675 223.739 68.6087 223.938 67.9187C224.043 67.5775 224.163 67.2063 224.26 66.7975C224.358 66.3888 224.489 65.9575 224.572 65.485C224.954 63.6138 225.28 61.2138 224.909 58.3675C224.782 57.4375 224.568 56.5187 224.174 55.5962C223.957 55.0975 223.69 54.5912 223.323 54.1037C222.944 53.62 222.479 53.1362 221.774 52.8137C221.073 52.5062 220.338 52.4838 219.7 52.5925C219.063 52.7088 218.504 52.9412 218.013 53.2C217.803 53.3087 217.484 53.4925 217.24 53.6875C216.989 53.8825 216.775 54.0962 216.584 54.3175C216.202 54.76 215.913 55.2213 215.669 55.675C215.185 56.5863 214.874 57.4825 214.615 58.3225C214.117 59.9987 213.862 61.45 213.689 62.4812C213.524 63.5125 213.449 64.12 213.449 64.12C213.382 64.6638 213.325 65.2075 213.277 65.7512L213.209 66.5688L213.179 66.9775L213.168 67.18L213.16 67.2775V67.2888C213.168 67.2888 213.142 67.2888 213.179 67.2888L213.307 67.3L213.434 67.3113C213.487 67.3188 213.509 67.315 213.517 67.3113L213.607 67.3C213.727 67.2888 213.843 67.3 213.959 67.3262L214.042 67.3525L214.083 67.3675C214.083 67.3675 214.12 67.3825 214.102 67.375C214.083 67.3638 214.06 67.3562 214.049 67.3337C214.042 67.3225 214.012 67.2587 214.135 67.2325C214.267 67.2475 214.289 67.3187 214.315 67.3262C214.342 67.345 214.364 67.3563 214.387 67.3638C214.387 67.3713 214.428 67.3638 214.462 67.3638H214.559L214.754 67.36H215.065V67.3562V67.3225C215.065 67.1687 215.05 67.0075 215.024 66.8762C214.998 66.7525 214.972 66.6325 214.942 66.5312C214.882 66.3138 214.81 66.1225 214.735 65.9312C214.585 65.5562 214.42 65.2037 214.24 64.8587C213.877 64.1725 213.468 63.5238 212.988 62.905C212.512 62.29 211.972 61.7012 211.312 61.1912C210.659 60.6887 209.849 60.2425 208.874 60.1412C208.638 60.115 208.375 60.1187 208.147 60.1412C207.918 60.1675 207.689 60.2013 207.464 60.2688C207.235 60.3175 207.029 60.415 206.815 60.4937C206.617 60.5988 206.403 60.6887 206.219 60.8162C205.458 61.2962 204.873 61.96 204.438 62.6838C204.003 63.4113 203.722 64.2212 203.602 65.065C203.545 65.5037 203.534 65.8825 203.538 66.2837C203.545 66.685 203.575 67.0862 203.635 67.4837C203.83 68.7587 204.258 69.79 204.685 70.6187C205.109 71.4512 205.548 72.1075 205.915 72.655C206.669 73.7537 207.247 74.4663 207.685 75.0063C209.035 76.6263 210.393 77.9275 211.72 79.03C213.052 80.1325 214.36 81.0363 215.684 81.8313H215.677Z" fill="#101214"/>
<path d="M212.002 32.8863C213.427 34.2738 214.323 33.3925 213.142 31.885C212.317 30.805 211.503 29.6838 210.723 28.435C210.337 27.8088 209.962 27.1525 209.609 26.4363C209.253 25.72 208.927 24.9513 208.552 24.0813C208.439 23.8338 208.33 23.6013 208.225 23.3763C208.162 23.2488 208.147 23.1963 208.109 23.1138C208.075 23.0463 208.045 22.9563 208.019 22.8738C207.903 22.5438 207.832 22.195 207.764 21.8763C207.648 21.2313 207.61 20.6688 207.61 20.155C207.61 19.6413 207.655 19.165 207.779 18.7C207.899 18.2388 208.09 17.755 208.45 17.3725C208.533 17.3013 208.612 17.2263 208.69 17.1475C208.784 17.0875 208.878 17.0313 208.968 16.9675C209.159 16.8588 209.429 16.7725 209.695 16.7125C210.239 16.5963 210.817 16.615 211.308 16.8175C211.555 16.9113 211.788 17.0575 211.994 17.2375C212.099 17.3275 212.197 17.4288 212.287 17.5338C212.332 17.5863 212.373 17.6425 212.414 17.6988L212.474 17.785C212.493 17.815 212.485 17.8038 212.504 17.8375C212.665 18.13 212.812 18.4375 212.943 18.7488C213.16 19.2663 213.4 19.9375 213.592 20.6125C213.794 21.2838 213.997 21.9963 214.222 22.4463C214.45 22.8363 214.657 23.0238 214.829 23.1475C215.005 23.2863 215.137 23.35 215.324 23.3875C215.425 23.395 215.478 23.3763 215.515 23.3688L215.628 23.3388C215.699 23.3163 215.767 23.2938 215.834 23.26C215.969 23.1775 216.127 23.1063 216.28 22.9338C216.438 22.7763 216.592 22.51 216.7 22.15C216.809 21.79 216.895 21.4075 216.974 21.0738C217.053 20.74 217.12 20.4513 217.18 20.2075L217.394 19.3488L217.608 18.5425C217.739 18.085 217.968 17.1775 218.47 16.2738C218.598 16.0525 218.74 15.8388 218.898 15.67C219.055 15.4938 219.19 15.3888 219.449 15.25C219.569 15.1863 219.704 15.1263 219.843 15.0738C219.91 15.0475 219.985 15.025 220.049 15.0063C220.094 14.995 220.068 14.9988 220.105 14.9913C220.139 14.9875 220.169 14.9763 220.203 14.9725C220.465 14.9313 220.758 14.9388 221.084 15.0025C221.41 15.0625 221.767 15.1863 222.138 15.3438L222.277 15.4038L222.385 15.46C222.46 15.4975 222.535 15.5313 222.599 15.58C222.738 15.6663 222.869 15.7638 222.989 15.8763C223.477 16.3225 223.81 17.02 224.032 17.9013C224.088 18.1188 224.159 18.3925 224.193 18.5875C224.238 18.8013 224.287 19.0113 224.302 19.2288L224.339 19.5513L224.35 19.8775C224.365 20.095 224.35 20.3125 224.339 20.53C224.29 21.4038 224.062 22.2738 223.735 23.1025C223.51 23.6913 223.244 24.2425 222.963 24.7713C222.813 25.0413 222.667 25.3075 222.528 25.5625C222.37 25.8625 222.235 26.065 222.1 26.29C221.965 26.5075 221.842 26.725 221.707 26.9313C221.557 27.13 221.41 27.325 221.268 27.5125C221.122 27.7 220.998 27.8875 220.848 28.06C220.698 28.2288 220.555 28.3938 220.417 28.555C220.278 28.7163 220.143 28.87 220.015 29.02C219.877 29.1625 219.742 29.3013 219.61 29.4363C219.348 29.7025 219.112 29.9538 218.883 30.175C218.41 30.61 218.024 30.9813 217.698 31.2738C216.153 32.65 214.72 33.7825 213.385 34.8213C212.05 35.86 210.805 36.7975 209.564 37.72C209.223 37.9713 209.002 38.215 208.882 38.4288C208.852 38.4813 208.829 38.5338 208.814 38.5825C208.81 38.6238 208.747 38.7025 208.739 38.755C208.709 38.8675 208.739 38.935 208.803 38.9838C208.863 39.0325 208.949 39.0625 209.032 39.1038C209.099 39.1525 209.2 39.1713 209.328 39.1638C209.575 39.16 209.902 39.0663 210.288 38.8675C211.683 38.1325 213.055 37.3263 214.503 36.3663C215.947 35.4025 217.473 34.2888 219.104 32.8488C219.423 32.5713 219.824 32.2113 220.319 31.7913C220.567 31.5813 220.818 31.3338 221.103 31.075C221.384 30.8163 221.688 30.5425 221.984 30.22C222.599 29.5975 223.259 28.855 223.904 27.9325C224.058 27.6925 224.215 27.4488 224.38 27.2013L224.5 27.0138L224.598 26.845C224.665 26.7288 224.737 26.6125 224.804 26.4925C225.093 26.0013 225.404 25.4538 225.682 24.8538C226.049 24.0738 226.334 23.23 226.484 22.3563C226.653 21.415 226.709 20.4063 226.597 19.4013L226.484 18.6513L226.312 17.9125C226.195 17.485 226.072 17.0088 225.888 16.5288C225.539 15.5763 224.924 14.6013 224.039 13.9713C223.822 13.8175 223.597 13.675 223.364 13.5625C223.124 13.435 222.94 13.3675 222.723 13.2775C222.303 13.1125 221.864 12.9738 221.41 12.8913C220.957 12.8088 220.492 12.7825 220.042 12.8313C219.929 12.8425 219.82 12.8575 219.712 12.88C219.663 12.8875 219.565 12.91 219.52 12.9213L219.367 12.9663C219.168 13.0263 218.988 13.0938 218.812 13.165C218.455 13.315 218.14 13.4875 217.837 13.7088C217.537 13.9338 217.308 14.17 217.12 14.3875C216.753 14.8263 216.547 15.1975 216.408 15.4488C216.269 15.7 216.205 15.8388 216.205 15.8388C216.205 15.8388 216.104 16.045 215.95 16.4163C215.875 16.6038 215.789 16.8288 215.695 17.095C215.65 17.2263 215.605 17.3688 215.557 17.5188C215.515 17.6538 215.47 17.7963 215.425 17.95C215.369 18.145 215.324 18.3325 215.275 18.5688C215.249 18.6813 215.227 18.805 215.197 18.925C215.189 18.955 215.182 18.985 215.167 19.015C215.144 19.0638 215.118 19 215.11 18.9775C215.084 18.9175 215.062 18.8538 215.043 18.79C215.002 18.6625 214.96 18.5313 214.919 18.4L214.852 18.205C214.825 18.1413 214.803 18.0813 214.762 17.9875L214.608 17.665C214.548 17.5375 214.48 17.4138 214.413 17.2863C214.349 17.1588 214.274 17.0388 214.203 16.915C214.173 16.8663 214.124 16.7725 214.057 16.6788C214.008 16.6113 213.959 16.5475 213.91 16.4838C213.509 15.9775 213.003 15.5538 212.422 15.2613C211.84 14.965 211.207 14.8188 210.607 14.7963C210.007 14.7775 209.44 14.8638 208.923 15.025C208.66 15.1075 208.413 15.2013 208.158 15.3325C207.918 15.4863 207.67 15.6213 207.472 15.8013C207.28 15.9813 207.078 16.15 206.943 16.3488C206.793 16.5363 206.65 16.72 206.557 16.9113C205.912 18.04 205.773 19.0713 205.69 19.9413C205.623 20.8188 205.672 21.5613 205.758 22.2063C205.848 22.8513 205.983 23.395 206.174 23.89C206.279 24.16 206.35 24.31 206.425 24.475C206.497 24.6363 206.564 24.7863 206.624 24.925C206.992 25.7725 207.367 26.6125 207.783 27.385C208.199 28.1613 208.645 28.8663 209.107 29.5188C210.04 30.8163 211.008 31.8963 212.005 32.89L212.002 32.8863Z" fill="#101214"/>
</g>
</g>
<defs>
<clipPath id="clip0_29_3035">
<rect width="384" height="112" fill="white"/>
</clipPath>
<clipPath id="clip1_29_3035">
<rect width="384" height="198" fill="white"/>
</clipPath>
<clipPath id="clip2_29_3035">
<rect width="72.84" height="86.4412" fill="white" transform="translate(153.812 12.8125)"/>
</clipPath>
</defs>
</svg>
