<svg width="73" height="24" viewBox="0 0 73 24" fill="none" xmlns="http://www.w3.org/2000/svg">
<path d="M0 6C0 2.68629 2.68629 0 6 0H18C21.3137 0 24 2.68629 24 6V18C24 21.3137 21.3137 24 18 24H6C2.68629 24 0 21.3137 0 18V6Z" fill="#DDDEE1"/>
<path fill-rule="evenodd" clip-rule="evenodd" d="M10.4445 4.99999H13.5556L14.5344 7.61018L17.2846 7.15272L18.8402 9.84702L17.0688 12.0002L18.8398 14.153L17.2843 16.8473L14.5344 16.3899L13.5556 19H10.4445L9.46561 16.3896L6.71582 16.847L5.16027 14.1527L6.93112 12.0002L5.15991 9.84727L6.71547 7.15297L9.46559 7.61042L10.4445 4.99999ZM12.0002 14.625C13.45 14.625 14.6252 13.4497 14.6252 12C14.6252 10.5502 13.45 9.37499 12.0002 9.37499C10.5505 9.37499 9.37525 10.5502 9.37525 12C9.37525 13.4497 10.5505 14.625 12.0002 14.625Z" fill="#101214"/>
<path d="M67.1172 12.5498V17H65.1895V9.35742H67.0078L67.042 11.2578H66.9121C67.1172 10.6107 67.4248 10.1162 67.835 9.77441C68.2451 9.43262 68.7692 9.26172 69.4072 9.26172C69.9313 9.26172 70.3893 9.37565 70.7812 9.60352C71.1777 9.83138 71.4831 10.1595 71.6973 10.5879C71.916 11.0163 72.0254 11.5335 72.0254 12.1396V17H70.1045V12.4609C70.1045 11.9642 69.9769 11.5768 69.7217 11.2988C69.4665 11.0208 69.1156 10.8818 68.6689 10.8818C68.3682 10.8818 68.0993 10.9479 67.8623 11.0801C67.6299 11.2077 67.4476 11.3968 67.3154 11.6475C67.1833 11.8936 67.1172 12.1943 67.1172 12.5498Z" fill="#292A2E"/>
<path d="M61.457 17V9.35742H63.3848V17H61.457ZM61.4365 8.27051V6.51367H63.4189V8.27051H61.4365Z" fill="#292A2E"/>
<path d="M48.7559 17V9.35742H50.5537L50.6357 11.2305H50.499C50.613 10.7656 50.7839 10.3874 51.0117 10.0957C51.2441 9.80404 51.5153 9.58984 51.8252 9.45312C52.1351 9.31185 52.4587 9.24121 52.7959 9.24121C53.3473 9.24121 53.7917 9.41439 54.1289 9.76074C54.4661 10.1071 54.71 10.6312 54.8604 11.333H54.6348C54.7441 10.859 54.9264 10.4671 55.1816 10.1572C55.4414 9.84733 55.7445 9.61719 56.0908 9.4668C56.4417 9.31641 56.8154 9.24121 57.2119 9.24121C57.6722 9.24121 58.0846 9.34147 58.4492 9.54199C58.8184 9.74251 59.1077 10.0365 59.3174 10.4238C59.5316 10.8112 59.6387 11.2852 59.6387 11.8457V17H57.7178V12.1807C57.7178 11.7295 57.5947 11.3968 57.3486 11.1826C57.1025 10.9684 56.804 10.8613 56.4531 10.8613C56.1842 10.8613 55.9495 10.9206 55.749 11.0391C55.5531 11.153 55.4004 11.3148 55.291 11.5244C55.1862 11.734 55.1338 11.9779 55.1338 12.2559V17H53.2676V12.1123C53.2676 11.7295 53.1514 11.4264 52.9189 11.2031C52.6911 10.9753 52.3949 10.8613 52.0303 10.8613C51.7796 10.8613 51.5518 10.9183 51.3467 11.0322C51.1416 11.1462 50.9798 11.3148 50.8613 11.5381C50.7428 11.7568 50.6836 12.028 50.6836 12.3516V17H48.7559Z" fill="#292A2E"/>
<path d="M42.7744 17.1299C42.182 17.1299 41.6488 16.9772 41.1748 16.6719C40.7008 16.3665 40.3271 15.9222 40.0537 15.3389C39.7803 14.751 39.6436 14.0355 39.6436 13.1924C39.6436 12.3311 39.7826 11.6087 40.0605 11.0254C40.3431 10.4421 40.7214 10.0023 41.1953 9.70605C41.6693 9.40983 42.1934 9.26172 42.7676 9.26172C43.2096 9.26172 43.5742 9.33691 43.8613 9.4873C44.1484 9.63314 44.3786 9.81315 44.5518 10.0273C44.7295 10.237 44.8617 10.4398 44.9482 10.6357H45.0166V6.81445H46.9375V17H45.0508V15.7832H44.9482C44.8571 15.9792 44.7227 16.182 44.5449 16.3916C44.3672 16.5967 44.1348 16.7721 43.8477 16.918C43.5605 17.0592 43.2028 17.1299 42.7744 17.1299ZM43.335 15.5781C43.7041 15.5781 44.0163 15.4779 44.2715 15.2773C44.5267 15.0768 44.7204 14.7965 44.8525 14.4365C44.9893 14.0765 45.0576 13.6595 45.0576 13.1855C45.0576 12.707 44.9915 12.2923 44.8594 11.9414C44.7272 11.5859 44.5312 11.3102 44.2715 11.1143C44.0163 10.9183 43.7041 10.8203 43.335 10.8203C42.9567 10.8203 42.64 10.9229 42.3848 11.1279C42.1296 11.3285 41.9359 11.6064 41.8037 11.9619C41.6761 12.3174 41.6123 12.7253 41.6123 13.1855C41.6123 13.6458 41.6761 14.056 41.8037 14.416C41.9359 14.776 42.1296 15.0609 42.3848 15.2705C42.6445 15.4756 42.9613 15.5781 43.335 15.5781Z" fill="#292A2E"/>
<path d="M29.335 17L32.8555 6.81445H35.3916L38.9941 17H36.8203L35.1045 11.9072C34.9176 11.3148 34.724 10.6562 34.5234 9.93164C34.3275 9.20703 34.1156 8.40267 33.8877 7.51855H34.3115C34.0882 8.40723 33.8831 9.21615 33.6963 9.94531C33.5094 10.6745 33.3271 11.3285 33.1494 11.9072L31.4951 17H29.335ZM31.4609 14.5596V13.001H36.8613V14.5596H31.4609Z" fill="#292A2E"/>
</svg>
