<svg width="67" height="24" viewBox="0 0 67 24" fill="none" xmlns="http://www.w3.org/2000/svg">
<path d="M0 6C0 2.68629 2.68629 0 6 0H18C21.3137 0 24 2.68629 24 6V18C24 21.3137 21.3137 24 18 24H6C2.68629 24 0 21.3137 0 18V6Z" fill="#FB9700"/>
<path d="M17.8012 17.8013C17.8012 15.6051 16.0043 13.8303 13.8302 13.8303H10.1698V10.4804H6.19873V17.0692C6.19873 17.5795 6.42058 17.8013 6.93082 17.8013H17.8012ZM6.19873 6.19882C6.19873 8.39509 7.95131 10.1698 10.1476 10.1698H13.8302V13.5197H17.8012V6.93091C17.8012 6.44285 17.5572 6.19882 17.0691 6.19882H6.19873Z" fill="#101214"/>
<path d="M60.2783 12.5498V17H58.3506V9.35742H60.1689L60.2031 11.2578H60.0732C60.2783 10.6107 60.5859 10.1162 60.9961 9.77441C61.4062 9.43262 61.9303 9.26172 62.5684 9.26172C63.0924 9.26172 63.5505 9.37565 63.9424 9.60352C64.3389 9.83138 64.6442 10.1595 64.8584 10.5879C65.0771 11.0163 65.1865 11.5335 65.1865 12.1396V17H63.2656V12.4609C63.2656 11.9642 63.138 11.5768 62.8828 11.2988C62.6276 11.0208 62.2767 10.8818 61.8301 10.8818C61.5293 10.8818 61.2604 10.9479 61.0234 11.0801C60.791 11.2077 60.6087 11.3968 60.4766 11.6475C60.3444 11.8936 60.2783 12.1943 60.2783 12.5498Z" fill="#292A2E"/>
<path d="M52.8955 20.0215C52.2712 20.0215 51.7266 19.9417 51.2617 19.7822C50.8014 19.6273 50.4232 19.4108 50.127 19.1328C49.8353 18.8594 49.6302 18.5472 49.5117 18.1963L51.1523 17.6836C51.2253 17.8249 51.3301 17.9661 51.4668 18.1074C51.6035 18.2487 51.7881 18.3649 52.0205 18.4561C52.2529 18.5518 52.5423 18.5996 52.8887 18.5996C53.4264 18.5996 53.8525 18.4743 54.167 18.2236C54.4814 17.9775 54.6387 17.5902 54.6387 17.0615V15.6396H54.4883C54.3971 15.8356 54.265 16.0293 54.0918 16.2207C53.9232 16.4121 53.6976 16.5716 53.415 16.6992C53.1325 16.8268 52.777 16.8906 52.3486 16.8906C51.7699 16.8906 51.2435 16.7539 50.7695 16.4805C50.3001 16.207 49.9242 15.7946 49.6416 15.2432C49.3636 14.6917 49.2246 13.999 49.2246 13.165C49.2246 12.3128 49.3659 11.5973 49.6484 11.0186C49.931 10.4398 50.3092 10.0023 50.7832 9.70605C51.2572 9.40983 51.7835 9.26172 52.3623 9.26172C52.7998 9.26172 53.1644 9.33691 53.4561 9.4873C53.7477 9.63314 53.9824 9.81315 54.1602 10.0273C54.3379 10.237 54.4723 10.4398 54.5635 10.6357H54.6523V9.35742H56.5391V16.9795C56.5391 17.6631 56.3818 18.2305 56.0674 18.6816C55.7575 19.1328 55.3268 19.4678 54.7754 19.6865C54.2285 19.9098 53.6019 20.0215 52.8955 20.0215ZM52.9229 15.4004C53.292 15.4004 53.6042 15.3115 53.8594 15.1338C54.1146 14.9561 54.3083 14.6986 54.4404 14.3613C54.5771 14.0241 54.6455 13.6208 54.6455 13.1514C54.6455 12.682 54.5794 12.2741 54.4473 11.9277C54.3151 11.5768 54.1214 11.3057 53.8662 11.1143C53.611 10.9183 53.2965 10.8203 52.9229 10.8203C52.5446 10.8203 52.2256 10.9206 51.9658 11.1211C51.7106 11.3216 51.5169 11.5973 51.3848 11.9482C51.2572 12.2992 51.1934 12.7002 51.1934 13.1514C51.1934 13.6071 51.2594 14.0036 51.3916 14.3408C51.5238 14.6781 51.7174 14.9401 51.9727 15.127C52.2324 15.3092 52.5492 15.4004 52.9229 15.4004Z" fill="#292A2E"/>
<path d="M45.8135 17V9.35742H47.7412V17H45.8135ZM45.793 8.27051V6.51367H47.7754V8.27051H45.793Z" fill="#292A2E"/>
<path d="M43.749 17.0479C43.0016 17.0479 42.4502 16.8815 42.0947 16.5488C41.7393 16.2161 41.5615 15.7194 41.5615 15.0586V6.81445H43.4893V14.7783C43.4893 15.0381 43.5303 15.2272 43.6123 15.3457C43.6989 15.4596 43.8493 15.5166 44.0635 15.5166C44.1774 15.5166 44.264 15.512 44.3232 15.5029C44.387 15.4938 44.4417 15.4824 44.4873 15.4688L44.8018 16.8906C44.6924 16.9271 44.5443 16.9635 44.3574 17C44.1751 17.0319 43.9723 17.0479 43.749 17.0479Z" fill="#292A2E"/>
<path d="M30.6582 17L34.1787 6.81445H36.7148L40.3174 17H38.1436L36.4277 11.9072C36.2409 11.3148 36.0472 10.6562 35.8467 9.93164C35.6507 9.20703 35.4388 8.40267 35.2109 7.51855H35.6348C35.4115 8.40723 35.2064 9.21615 35.0195 9.94531C34.8327 10.6745 34.6504 11.3285 34.4727 11.9072L32.8184 17H30.6582ZM32.7842 14.5596V13.001H38.1846V14.5596H32.7842Z" fill="#292A2E"/>
</svg>
