<svg width="96" height="24" viewBox="0 0 96 24" fill="none" xmlns="http://www.w3.org/2000/svg">
<path d="M0 6C0 2.68629 2.68629 0 6 0H18C21.3137 0 24 2.68629 24 6V18C24 21.3137 21.3137 24 18 24H6C2.68629 24 0 21.3137 0 18V6Z" fill="#DDDEE1"/>
<path d="M14.625 5.875L14.625 15.0625H17.6875V5.875H14.625Z" fill="#1E1F21"/>
<path d="M5.875 18.125H17.6875V16.375H5.875V18.125Z" fill="#1E1F21"/>
<path d="M5.875 15.0625V10.25H8.9375L8.9375 15.0625H5.875Z" fill="#1E1F21"/>
<path d="M10.25 8.5L10.25 15.0625H13.3125V8.5L10.25 8.5Z" fill="#1E1F21"/>
<path d="M91.1523 17.1504C90.5508 17.1504 90.0176 17.0661 89.5527 16.8975C89.0879 16.7243 88.7074 16.4736 88.4111 16.1455C88.1195 15.8128 87.9281 15.4141 87.8369 14.9492L89.6348 14.6279C89.735 14.9925 89.915 15.266 90.1748 15.4482C90.4346 15.626 90.7764 15.7148 91.2002 15.7148C91.6104 15.7148 91.9362 15.6351 92.1777 15.4756C92.4193 15.3115 92.54 15.1087 92.54 14.8672C92.54 14.6576 92.458 14.4867 92.2939 14.3545C92.1299 14.2178 91.877 14.113 91.5352 14.04L90.2227 13.7666C89.4935 13.6117 88.9489 13.3564 88.5889 13.001C88.2288 12.641 88.0488 12.1761 88.0488 11.6064C88.0488 11.1279 88.181 10.7132 88.4453 10.3623C88.7096 10.0114 89.0765 9.74023 89.5459 9.54883C90.0199 9.35742 90.569 9.26172 91.1934 9.26172C91.7858 9.26172 92.2962 9.34603 92.7246 9.51465C93.1576 9.67871 93.5062 9.91113 93.7705 10.2119C94.0394 10.5081 94.2217 10.8613 94.3174 11.2715L92.6084 11.5859C92.5264 11.3216 92.3714 11.1029 92.1436 10.9297C91.9202 10.752 91.6126 10.6631 91.2207 10.6631C90.8652 10.6631 90.5667 10.7406 90.3252 10.8955C90.0882 11.0459 89.9697 11.2441 89.9697 11.4902C89.9697 11.6999 90.0472 11.873 90.2021 12.0098C90.3617 12.1465 90.6283 12.2559 91.002 12.3379L92.3418 12.6113C93.071 12.7617 93.6133 13.0078 93.9688 13.3496C94.3288 13.6914 94.5088 14.1335 94.5088 14.6758C94.5088 15.168 94.3652 15.6009 94.0781 15.9746C93.791 16.3438 93.3945 16.6331 92.8887 16.8428C92.3874 17.0479 91.8086 17.1504 91.1523 17.1504Z" fill="#292A2E"/>
<path d="M83.3457 17.1504C82.5938 17.1504 81.9398 16.9863 81.3838 16.6582C80.8324 16.3301 80.4062 15.8698 80.1055 15.2773C79.8047 14.6849 79.6543 13.9967 79.6543 13.2129C79.6543 12.4245 79.8047 11.734 80.1055 11.1416C80.4062 10.5446 80.8324 10.082 81.3838 9.75391C81.9398 9.42578 82.5938 9.26172 83.3457 9.26172C83.7878 9.26172 84.1956 9.31868 84.5693 9.43262C84.943 9.54655 85.2757 9.71061 85.5674 9.9248C85.8591 10.139 86.1006 10.3988 86.292 10.7041C86.488 11.0094 86.6247 11.3535 86.7021 11.7363L84.9043 12.0918C84.8633 11.8913 84.7972 11.7113 84.7061 11.5518C84.6149 11.3923 84.5033 11.2578 84.3711 11.1484C84.2435 11.0345 84.0954 10.9479 83.9268 10.8887C83.7581 10.8249 83.5713 10.793 83.3662 10.793C82.9788 10.793 82.6553 10.8978 82.3955 11.1074C82.1357 11.3125 81.9398 11.5973 81.8076 11.9619C81.6755 12.3219 81.6094 12.7367 81.6094 13.2061C81.6094 13.6709 81.6755 14.0856 81.8076 14.4502C81.9398 14.8102 82.1357 15.0951 82.3955 15.3047C82.6553 15.5143 82.9788 15.6191 83.3662 15.6191C83.5758 15.6191 83.765 15.5895 83.9336 15.5303C84.1068 15.4665 84.2594 15.3753 84.3916 15.2568C84.5238 15.1383 84.6354 14.9971 84.7266 14.833C84.8177 14.6644 84.8838 14.4775 84.9248 14.2725L86.7158 14.6211C86.6383 15.0176 86.5039 15.3708 86.3125 15.6807C86.1211 15.9906 85.8773 16.2549 85.5811 16.4736C85.2894 16.6924 84.9544 16.861 84.5762 16.9795C84.2025 17.0934 83.7923 17.1504 83.3457 17.1504Z" fill="#292A2E"/>
<path d="M76.2432 17V9.35742H78.1709V17H76.2432ZM76.2227 8.27051V6.51367H78.2051V8.27051H76.2227Z" fill="#292A2E"/>
<path d="M74.876 9.35742V10.8408H70.4326V9.35742H74.876ZM71.499 7.53906H73.4199V14.8057C73.4199 15.0609 73.4769 15.25 73.5908 15.373C73.7048 15.4961 73.8916 15.5576 74.1514 15.5576C74.2288 15.5576 74.3359 15.5485 74.4727 15.5303C74.6094 15.5075 74.7165 15.487 74.7939 15.4688L75.0811 16.9316C74.8714 16.9954 74.6595 17.0387 74.4453 17.0615C74.2311 17.0889 74.0238 17.1025 73.8232 17.1025C73.0713 17.1025 72.4948 16.9202 72.0938 16.5557C71.6973 16.1865 71.499 15.6579 71.499 14.9697V7.53906Z" fill="#292A2E"/>
<path d="M62.5645 19.7139L63.0088 18.2441L63.2412 18.3057C63.5146 18.3786 63.7562 18.3991 63.9658 18.3672C64.18 18.3353 64.3532 18.2441 64.4854 18.0938C64.6221 17.9479 64.7132 17.7406 64.7588 17.4717L64.8408 17.0273L61.9629 9.35742H64.0068L65.3467 13.4111C65.5062 13.9079 65.6361 14.4046 65.7363 14.9014C65.8411 15.3981 65.9551 15.9108 66.0781 16.4395H65.6064C65.7341 15.9108 65.8571 15.3981 65.9756 14.9014C66.0986 14.4001 66.2422 13.9033 66.4062 13.4111L67.8008 9.35742H69.8242L66.5635 17.9365C66.4085 18.3467 66.2103 18.6999 65.9688 18.9961C65.7318 19.2923 65.4378 19.5179 65.0869 19.6729C64.7406 19.8324 64.3236 19.9121 63.8359 19.9121C63.5716 19.9121 63.3255 19.8916 63.0977 19.8506C62.8743 19.8141 62.6966 19.7686 62.5645 19.7139Z" fill="#292A2E"/>
<path d="M60.958 17.0479C60.2106 17.0479 59.6592 16.8815 59.3037 16.5488C58.9482 16.2161 58.7705 15.7194 58.7705 15.0586V6.81445H60.6982V14.7783C60.6982 15.0381 60.7393 15.2272 60.8213 15.3457C60.9079 15.4596 61.0583 15.5166 61.2725 15.5166C61.3864 15.5166 61.473 15.512 61.5322 15.5029C61.596 15.4938 61.6507 15.4824 61.6963 15.4688L62.0107 16.8906C61.9014 16.9271 61.7533 16.9635 61.5664 17C61.3841 17.0319 61.1813 17.0479 60.958 17.0479Z" fill="#292A2E"/>
<path d="M52.7822 17.1299C52.1943 17.1299 51.6634 16.9772 51.1895 16.6719C50.7201 16.3665 50.3464 15.9222 50.0684 15.3389C49.7949 14.751 49.6582 14.0355 49.6582 13.1924C49.6582 12.3311 49.7995 11.6087 50.082 11.0254C50.3646 10.4421 50.7428 10.0023 51.2168 9.70605C51.6908 9.40983 52.2171 9.26172 52.7959 9.26172C53.2334 9.26172 53.5957 9.33691 53.8828 9.4873C54.1699 9.63314 54.4001 9.81315 54.5732 10.0273C54.7464 10.237 54.8786 10.4398 54.9697 10.6357H55.0449V9.35742H56.9521V17H55.0518V15.7832H54.9697C54.8786 15.9792 54.7419 16.182 54.5596 16.3916C54.3818 16.6012 54.1494 16.7767 53.8623 16.918C53.5752 17.0592 53.2152 17.1299 52.7822 17.1299ZM53.3564 15.5781C53.7256 15.5781 54.0378 15.4779 54.293 15.2773C54.5482 15.0768 54.7419 14.7965 54.874 14.4365C55.0107 14.0765 55.0791 13.6595 55.0791 13.1855C55.0791 12.707 55.013 12.2923 54.8809 11.9414C54.7487 11.5859 54.555 11.3102 54.2998 11.1143C54.0446 10.9183 53.7301 10.8203 53.3564 10.8203C52.9782 10.8203 52.6592 10.9206 52.3994 11.1211C52.1442 11.3216 51.9505 11.5996 51.8184 11.9551C51.6908 12.3105 51.627 12.7207 51.627 13.1855C51.627 13.6458 51.693 14.056 51.8252 14.416C51.9574 14.776 52.151 15.0609 52.4062 15.2705C52.666 15.4756 52.9827 15.5781 53.3564 15.5781Z" fill="#292A2E"/>
<path d="M43.2529 12.5498V17H41.3252V9.35742H43.1436L43.1777 11.2578H43.0479C43.2529 10.6107 43.5605 10.1162 43.9707 9.77441C44.3809 9.43262 44.9049 9.26172 45.543 9.26172C46.0671 9.26172 46.5251 9.37565 46.917 9.60352C47.3135 9.83138 47.6188 10.1595 47.833 10.5879C48.0518 11.0163 48.1611 11.5335 48.1611 12.1396V17H46.2402V12.4609C46.2402 11.9642 46.1126 11.5768 45.8574 11.2988C45.6022 11.0208 45.2513 10.8818 44.8047 10.8818C44.5039 10.8818 44.235 10.9479 43.998 11.0801C43.7656 11.2077 43.5833 11.3968 43.4512 11.6475C43.319 11.8936 43.2529 12.1943 43.2529 12.5498Z" fill="#292A2E"/>
<path d="M30.4219 17L33.9424 6.81445H36.4785L40.0811 17H37.9072L36.1914 11.9072C36.0046 11.3148 35.8109 10.6562 35.6104 9.93164C35.4144 9.20703 35.2025 8.40267 34.9746 7.51855H35.3984C35.1751 8.40723 34.9701 9.21615 34.7832 9.94531C34.5964 10.6745 34.4141 11.3285 34.2363 11.9072L32.582 17H30.4219ZM32.5479 14.5596V13.001H37.9482V14.5596H32.5479Z" fill="#292A2E"/>
</svg>
