<svg width="77" height="24" viewBox="0 0 77 24" fill="none" xmlns="http://www.w3.org/2000/svg">
<path d="M0 6C0 2.68629 2.68629 0 6 0H18C21.3137 0 24 2.68629 24 6V18C24 21.3137 21.3137 24 18 24H6C2.68629 24 0 21.3137 0 18V6Z" fill="#FFC716"/>
<path fill-rule="evenodd" clip-rule="evenodd" d="M8.75 11.5686C10.2201 11.3853 11.3853 10.2201 11.5686 8.75H13.625V7.125H11.3575C10.8754 5.93394 9.70768 5.09375 8.34375 5.09375C6.54882 5.09375 5.09375 6.54882 5.09375 8.34375C5.09375 9.70768 5.93394 10.8754 7.125 11.3575L7.125 13.625H8.75V11.5686ZM8.34375 9.5625C9.01685 9.5625 9.5625 9.01685 9.5625 8.34375C9.5625 7.67065 9.01685 7.125 8.34375 7.125C7.67065 7.125 7.125 7.67065 7.125 8.34375C7.125 9.01685 7.67065 9.5625 8.34375 9.5625Z" fill="#101214"/>
<path d="M18.5 7.9375C18.5 9.05933 17.5906 9.96875 16.4688 9.96875C15.3469 9.96875 14.4375 9.05933 14.4375 7.9375C14.4375 6.81567 15.3469 5.90625 16.4688 5.90625C17.5906 5.90625 18.5 6.81567 18.5 7.9375Z" fill="#101214"/>
<path d="M7.9375 18.5C9.05933 18.5 9.96875 17.5906 9.96875 16.4688C9.96875 15.3469 9.05933 14.4375 7.9375 14.4375C6.81567 14.4375 5.90625 15.3469 5.90625 16.4688C5.90625 17.5906 6.81567 18.5 7.9375 18.5Z" fill="#101214"/>
<path d="M16.4688 18.5C17.5906 18.5 18.5 17.5906 18.5 16.4688C18.5 15.3469 17.5906 14.4375 16.4688 14.4375C15.3469 14.4375 14.4375 15.3469 14.4375 16.4688C14.4375 17.5906 15.3469 18.5 16.4688 18.5Z" fill="#101214"/>
<path d="M13.625 15.6562H10.7812V17.2812H13.625V15.6562Z" fill="#101214"/>
<path d="M15.6562 10.7812V13.625H17.2812V10.7812H15.6562Z" fill="#101214"/>
<path d="M71.9902 17.1504C71.3887 17.1504 70.8555 17.0661 70.3906 16.8975C69.9258 16.7243 69.5452 16.4736 69.249 16.1455C68.9574 15.8128 68.7659 15.4141 68.6748 14.9492L70.4727 14.6279C70.5729 14.9925 70.7529 15.266 71.0127 15.4482C71.2725 15.626 71.6143 15.7148 72.0381 15.7148C72.4482 15.7148 72.7741 15.6351 73.0156 15.4756C73.2572 15.3115 73.3779 15.1087 73.3779 14.8672C73.3779 14.6576 73.2959 14.4867 73.1318 14.3545C72.9678 14.2178 72.7148 14.113 72.373 14.04L71.0605 13.7666C70.3314 13.6117 69.7868 13.3564 69.4268 13.001C69.0667 12.641 68.8867 12.1761 68.8867 11.6064C68.8867 11.1279 69.0189 10.7132 69.2832 10.3623C69.5475 10.0114 69.9144 9.74023 70.3838 9.54883C70.8577 9.35742 71.4069 9.26172 72.0312 9.26172C72.6237 9.26172 73.1341 9.34603 73.5625 9.51465C73.9954 9.67871 74.3441 9.91113 74.6084 10.2119C74.8773 10.5081 75.0596 10.8613 75.1553 11.2715L73.4463 11.5859C73.3643 11.3216 73.2093 11.1029 72.9814 10.9297C72.7581 10.752 72.4505 10.6631 72.0586 10.6631C71.7031 10.6631 71.4046 10.7406 71.1631 10.8955C70.9261 11.0459 70.8076 11.2441 70.8076 11.4902C70.8076 11.6999 70.8851 11.873 71.04 12.0098C71.1995 12.1465 71.4661 12.2559 71.8398 12.3379L73.1797 12.6113C73.9089 12.7617 74.4512 13.0078 74.8066 13.3496C75.1667 13.6914 75.3467 14.1335 75.3467 14.6758C75.3467 15.168 75.2031 15.6009 74.916 15.9746C74.6289 16.3438 74.2324 16.6331 73.7266 16.8428C73.2253 17.0479 72.6465 17.1504 71.9902 17.1504Z" fill="#292A2E"/>
<path d="M67.7588 9.35742V10.8408H63.3154V9.35742H67.7588ZM64.3818 7.53906H66.3027V14.8057C66.3027 15.0609 66.3597 15.25 66.4736 15.373C66.5876 15.4961 66.7744 15.5576 67.0342 15.5576C67.1117 15.5576 67.2188 15.5485 67.3555 15.5303C67.4922 15.5075 67.5993 15.487 67.6768 15.4688L67.9639 16.9316C67.7542 16.9954 67.5423 17.0387 67.3281 17.0615C67.1139 17.0889 66.9066 17.1025 66.7061 17.1025C65.9541 17.1025 65.3776 16.9202 64.9766 16.5557C64.5801 16.1865 64.3818 15.6579 64.3818 14.9697V7.53906Z" fill="#292A2E"/>
<path d="M59.1934 17.1504C58.4186 17.1504 57.751 16.9909 57.1904 16.6719C56.6299 16.3483 56.1992 15.8926 55.8984 15.3047C55.5977 14.7168 55.4473 14.0218 55.4473 13.2197C55.4473 12.4359 55.5954 11.7477 55.8916 11.1553C56.1924 10.5583 56.6139 10.0934 57.1562 9.76074C57.7031 9.42806 58.3457 9.26172 59.084 9.26172C59.5671 9.26172 60.0205 9.33919 60.4443 9.49414C60.8727 9.64909 61.251 9.88607 61.5791 10.2051C61.9072 10.5195 62.1624 10.9206 62.3447 11.4082C62.5316 11.8913 62.625 12.4655 62.625 13.1309V13.6982H56.2881V12.4473H61.6816L60.7793 12.7959C60.7793 12.3812 60.7155 12.0212 60.5879 11.7158C60.4603 11.4059 60.2712 11.1667 60.0205 10.998C59.7744 10.8249 59.4645 10.7383 59.0908 10.7383C58.7217 10.7383 58.4072 10.8249 58.1475 10.998C57.8877 11.1712 57.6895 11.4059 57.5527 11.7021C57.416 11.9938 57.3477 12.3219 57.3477 12.6865V13.5615C57.3477 14.0218 57.4251 14.4115 57.5801 14.7305C57.7396 15.0449 57.9583 15.2819 58.2363 15.4414C58.5189 15.6009 58.847 15.6807 59.2207 15.6807C59.4668 15.6807 59.6924 15.6442 59.8975 15.5713C60.1025 15.4984 60.278 15.3936 60.4238 15.2568C60.5697 15.1156 60.6813 14.9424 60.7588 14.7373L62.5088 15.0791C62.3857 15.4938 62.1738 15.8584 61.873 16.1729C61.5723 16.4827 61.194 16.7243 60.7383 16.8975C60.2871 17.0661 59.7721 17.1504 59.1934 17.1504Z" fill="#292A2E"/>
<path d="M50.9629 17.1504C50.3613 17.1504 49.8281 17.0661 49.3633 16.8975C48.8984 16.7243 48.5179 16.4736 48.2217 16.1455C47.93 15.8128 47.7386 15.4141 47.6475 14.9492L49.4453 14.6279C49.5456 14.9925 49.7256 15.266 49.9854 15.4482C50.2451 15.626 50.5869 15.7148 51.0107 15.7148C51.4209 15.7148 51.7467 15.6351 51.9883 15.4756C52.2298 15.3115 52.3506 15.1087 52.3506 14.8672C52.3506 14.6576 52.2686 14.4867 52.1045 14.3545C51.9404 14.2178 51.6875 14.113 51.3457 14.04L50.0332 13.7666C49.304 13.6117 48.7594 13.3564 48.3994 13.001C48.0394 12.641 47.8594 12.1761 47.8594 11.6064C47.8594 11.1279 47.9915 10.7132 48.2559 10.3623C48.5202 10.0114 48.887 9.74023 49.3564 9.54883C49.8304 9.35742 50.3796 9.26172 51.0039 9.26172C51.5964 9.26172 52.1068 9.34603 52.5352 9.51465C52.9681 9.67871 53.3167 9.91113 53.5811 10.2119C53.8499 10.5081 54.0322 10.8613 54.1279 11.2715L52.4189 11.5859C52.3369 11.3216 52.182 11.1029 51.9541 10.9297C51.7308 10.752 51.4232 10.6631 51.0312 10.6631C50.6758 10.6631 50.3773 10.7406 50.1357 10.8955C49.8988 11.0459 49.7803 11.2441 49.7803 11.4902C49.7803 11.6999 49.8577 11.873 50.0127 12.0098C50.1722 12.1465 50.4388 12.2559 50.8125 12.3379L52.1523 12.6113C52.8815 12.7617 53.4238 13.0078 53.7793 13.3496C54.1393 13.6914 54.3193 14.1335 54.3193 14.6758C54.3193 15.168 54.1758 15.6009 53.8887 15.9746C53.6016 16.3438 53.2051 16.6331 52.6992 16.8428C52.1979 17.0479 51.6191 17.1504 50.9629 17.1504Z" fill="#292A2E"/>
<path d="M43.1836 17.1504C42.582 17.1504 42.0488 17.0661 41.584 16.8975C41.1191 16.7243 40.7386 16.4736 40.4424 16.1455C40.1507 15.8128 39.9593 15.4141 39.8682 14.9492L41.666 14.6279C41.7663 14.9925 41.9463 15.266 42.2061 15.4482C42.4658 15.626 42.8076 15.7148 43.2314 15.7148C43.6416 15.7148 43.9674 15.6351 44.209 15.4756C44.4505 15.3115 44.5713 15.1087 44.5713 14.8672C44.5713 14.6576 44.4893 14.4867 44.3252 14.3545C44.1611 14.2178 43.9082 14.113 43.5664 14.04L42.2539 13.7666C41.5247 13.6117 40.9801 13.3564 40.6201 13.001C40.2601 12.641 40.0801 12.1761 40.0801 11.6064C40.0801 11.1279 40.2122 10.7132 40.4766 10.3623C40.7409 10.0114 41.1077 9.74023 41.5771 9.54883C42.0511 9.35742 42.6003 9.26172 43.2246 9.26172C43.8171 9.26172 44.3275 9.34603 44.7559 9.51465C45.1888 9.67871 45.5374 9.91113 45.8018 10.2119C46.0706 10.5081 46.2529 10.8613 46.3486 11.2715L44.6396 11.5859C44.5576 11.3216 44.4027 11.1029 44.1748 10.9297C43.9515 10.752 43.6439 10.6631 43.252 10.6631C42.8965 10.6631 42.598 10.7406 42.3564 10.8955C42.1195 11.0459 42.001 11.2441 42.001 11.4902C42.001 11.6999 42.0785 11.873 42.2334 12.0098C42.3929 12.1465 42.6595 12.2559 43.0332 12.3379L44.373 12.6113C45.1022 12.7617 45.6445 13.0078 46 13.3496C46.36 13.6914 46.54 14.1335 46.54 14.6758C46.54 15.168 46.3965 15.6009 46.1094 15.9746C45.8223 16.3438 45.4258 16.6331 44.9199 16.8428C44.4186 17.0479 43.8398 17.1504 43.1836 17.1504Z" fill="#292A2E"/>
<path d="M29.4434 17L32.9639 6.81445H35.5L39.1025 17H36.9287L35.2129 11.9072C35.026 11.3148 34.8324 10.6562 34.6318 9.93164C34.4359 9.20703 34.224 8.40267 33.9961 7.51855H34.4199C34.1966 8.40723 33.9915 9.21615 33.8047 9.94531C33.6178 10.6745 33.4355 11.3285 33.2578 11.9072L31.6035 17H29.4434ZM31.5693 14.5596V13.001H36.9697V14.5596H31.5693Z" fill="#292A2E"/>
</svg>
