<svg width="76" height="24" viewBox="0 0 76 24" fill="none" xmlns="http://www.w3.org/2000/svg">
<path d="M18 0C21.3137 0 24 2.68629 24 6V18C24 21.3137 21.3137 24 18 24H6C2.68629 24 0 21.3137 0 18V6C0 2.68629 2.68629 0 6 0H18ZM7.43164 14.7041C6.17653 14.7042 5.15918 15.7224 5.15918 16.9775C5.15932 18.2325 6.17662 19.2499 7.43164 19.25C8.68674 19.25 9.70396 18.2326 9.7041 16.9775C9.7041 15.7223 8.68683 14.7041 7.43164 14.7041ZM16.9775 14.7041C15.7223 14.7041 14.7041 15.7223 14.7041 16.9775C14.7042 18.2326 15.7224 19.25 16.9775 19.25C18.2325 19.2499 19.2499 18.2325 19.25 16.9775C19.25 15.7224 18.2326 14.7042 16.9775 14.7041ZM10.6133 16.0684V17.8867H13.7959V16.0684H10.6133ZM7.88672 4.25C5.87841 4.25 4.25 5.87841 4.25 7.88672C4.25015 9.41261 5.18996 10.7194 6.52246 11.2588V13.7959H8.34082V11.4941C9.98569 11.289 11.289 9.98569 11.4941 8.34082H13.7959V6.52246H11.2588C10.7194 5.18996 9.41261 4.25015 7.88672 4.25ZM16.0684 10.6133V13.7959H17.8867V10.6133H16.0684ZM16.9775 5.15918C15.7224 5.15918 14.7042 6.17653 14.7041 7.43164C14.7041 8.68683 15.7223 9.7041 16.9775 9.7041C18.2326 9.70396 19.25 8.68674 19.25 7.43164C19.2499 6.17662 18.2325 5.15932 16.9775 5.15918ZM7.88672 6.52246C8.63967 6.52265 9.25 7.13372 9.25 7.88672C9.24981 8.63955 8.63955 9.24981 7.88672 9.25C7.13372 9.25 6.52265 8.63967 6.52246 7.88672C6.52246 7.1336 7.1336 6.52246 7.88672 6.52246Z" fill="#292A2E"/>
<path d="M71.8818 17.1504C71.2803 17.1504 70.7471 17.0661 70.2822 16.8975C69.8174 16.7243 69.4368 16.4736 69.1406 16.1455C68.849 15.8128 68.6576 15.4141 68.5664 14.9492L70.3643 14.6279C70.4645 14.9925 70.6445 15.266 70.9043 15.4482C71.1641 15.626 71.5059 15.7148 71.9297 15.7148C72.3398 15.7148 72.6657 15.6351 72.9072 15.4756C73.1488 15.3115 73.2695 15.1087 73.2695 14.8672C73.2695 14.6576 73.1875 14.4867 73.0234 14.3545C72.8594 14.2178 72.6064 14.113 72.2646 14.04L70.9521 13.7666C70.223 13.6117 69.6784 13.3564 69.3184 13.001C68.9583 12.641 68.7783 12.1761 68.7783 11.6064C68.7783 11.1279 68.9105 10.7132 69.1748 10.3623C69.4391 10.0114 69.806 9.74023 70.2754 9.54883C70.7493 9.35742 71.2985 9.26172 71.9229 9.26172C72.5153 9.26172 73.0257 9.34603 73.4541 9.51465C73.887 9.67871 74.2357 9.91113 74.5 10.2119C74.7689 10.5081 74.9512 10.8613 75.0469 11.2715L73.3379 11.5859C73.2559 11.3216 73.1009 11.1029 72.873 10.9297C72.6497 10.752 72.3421 10.6631 71.9502 10.6631C71.5947 10.6631 71.2962 10.7406 71.0547 10.8955C70.8177 11.0459 70.6992 11.2441 70.6992 11.4902C70.6992 11.6999 70.7767 11.873 70.9316 12.0098C71.0911 12.1465 71.3577 12.2559 71.7314 12.3379L73.0713 12.6113C73.8005 12.7617 74.3428 13.0078 74.6982 13.3496C75.0583 13.6914 75.2383 14.1335 75.2383 14.6758C75.2383 15.168 75.0947 15.6009 74.8076 15.9746C74.5205 16.3438 74.124 16.6331 73.6182 16.8428C73.1169 17.0479 72.5381 17.1504 71.8818 17.1504Z" fill="#292A2E"/>
<path d="M67.6504 9.35742V10.8408H63.207V9.35742H67.6504ZM64.2734 7.53906H66.1943V14.8057C66.1943 15.0609 66.2513 15.25 66.3652 15.373C66.4792 15.4961 66.666 15.5576 66.9258 15.5576C67.0033 15.5576 67.1104 15.5485 67.2471 15.5303C67.3838 15.5075 67.4909 15.487 67.5684 15.4688L67.8555 16.9316C67.6458 16.9954 67.4339 17.0387 67.2197 17.0615C67.0055 17.0889 66.7982 17.1025 66.5977 17.1025C65.8457 17.1025 65.2692 16.9202 64.8682 16.5557C64.4717 16.1865 64.2734 15.6579 64.2734 14.9697V7.53906Z" fill="#292A2E"/>
<path d="M59.085 17.1504C58.3102 17.1504 57.6426 16.9909 57.082 16.6719C56.5215 16.3483 56.0908 15.8926 55.79 15.3047C55.4893 14.7168 55.3389 14.0218 55.3389 13.2197C55.3389 12.4359 55.487 11.7477 55.7832 11.1553C56.084 10.5583 56.5055 10.0934 57.0479 9.76074C57.5947 9.42806 58.2373 9.26172 58.9756 9.26172C59.4587 9.26172 59.9121 9.33919 60.3359 9.49414C60.7643 9.64909 61.1426 9.88607 61.4707 10.2051C61.7988 10.5195 62.054 10.9206 62.2363 11.4082C62.4232 11.8913 62.5166 12.4655 62.5166 13.1309V13.6982H56.1797V12.4473H61.5732L60.6709 12.7959C60.6709 12.3812 60.6071 12.0212 60.4795 11.7158C60.3519 11.4059 60.1628 11.1667 59.9121 10.998C59.666 10.8249 59.3561 10.7383 58.9824 10.7383C58.6133 10.7383 58.2988 10.8249 58.0391 10.998C57.7793 11.1712 57.5811 11.4059 57.4443 11.7021C57.3076 11.9938 57.2393 12.3219 57.2393 12.6865V13.5615C57.2393 14.0218 57.3167 14.4115 57.4717 14.7305C57.6312 15.0449 57.8499 15.2819 58.1279 15.4414C58.4105 15.6009 58.7386 15.6807 59.1123 15.6807C59.3584 15.6807 59.584 15.6442 59.7891 15.5713C59.9941 15.4984 60.1696 15.3936 60.3154 15.2568C60.4613 15.1156 60.5729 14.9424 60.6504 14.7373L62.4004 15.0791C62.2773 15.4938 62.0654 15.8584 61.7646 16.1729C61.4639 16.4827 61.0856 16.7243 60.6299 16.8975C60.1787 17.0661 59.6637 17.1504 59.085 17.1504Z" fill="#292A2E"/>
<path d="M50.8545 17.1504C50.2529 17.1504 49.7197 17.0661 49.2549 16.8975C48.79 16.7243 48.4095 16.4736 48.1133 16.1455C47.8216 15.8128 47.6302 15.4141 47.5391 14.9492L49.3369 14.6279C49.4372 14.9925 49.6172 15.266 49.877 15.4482C50.1367 15.626 50.4785 15.7148 50.9023 15.7148C51.3125 15.7148 51.6383 15.6351 51.8799 15.4756C52.1214 15.3115 52.2422 15.1087 52.2422 14.8672C52.2422 14.6576 52.1602 14.4867 51.9961 14.3545C51.832 14.2178 51.5791 14.113 51.2373 14.04L49.9248 13.7666C49.1956 13.6117 48.651 13.3564 48.291 13.001C47.931 12.641 47.751 12.1761 47.751 11.6064C47.751 11.1279 47.8831 10.7132 48.1475 10.3623C48.4118 10.0114 48.7786 9.74023 49.248 9.54883C49.722 9.35742 50.2712 9.26172 50.8955 9.26172C51.488 9.26172 51.9984 9.34603 52.4268 9.51465C52.8597 9.67871 53.2083 9.91113 53.4727 10.2119C53.7415 10.5081 53.9238 10.8613 54.0195 11.2715L52.3105 11.5859C52.2285 11.3216 52.0736 11.1029 51.8457 10.9297C51.6224 10.752 51.3148 10.6631 50.9229 10.6631C50.5674 10.6631 50.2689 10.7406 50.0273 10.8955C49.7904 11.0459 49.6719 11.2441 49.6719 11.4902C49.6719 11.6999 49.7493 11.873 49.9043 12.0098C50.0638 12.1465 50.3304 12.2559 50.7041 12.3379L52.0439 12.6113C52.7731 12.7617 53.3154 13.0078 53.6709 13.3496C54.0309 13.6914 54.2109 14.1335 54.2109 14.6758C54.2109 15.168 54.0674 15.6009 53.7803 15.9746C53.4932 16.3438 53.0967 16.6331 52.5908 16.8428C52.0895 17.0479 51.5107 17.1504 50.8545 17.1504Z" fill="#292A2E"/>
<path d="M43.0752 17.1504C42.4736 17.1504 41.9404 17.0661 41.4756 16.8975C41.0107 16.7243 40.6302 16.4736 40.334 16.1455C40.0423 15.8128 39.8509 15.4141 39.7598 14.9492L41.5576 14.6279C41.6579 14.9925 41.8379 15.266 42.0977 15.4482C42.3574 15.626 42.6992 15.7148 43.123 15.7148C43.5332 15.7148 43.859 15.6351 44.1006 15.4756C44.3421 15.3115 44.4629 15.1087 44.4629 14.8672C44.4629 14.6576 44.3809 14.4867 44.2168 14.3545C44.0527 14.2178 43.7998 14.113 43.458 14.04L42.1455 13.7666C41.4163 13.6117 40.8717 13.3564 40.5117 13.001C40.1517 12.641 39.9717 12.1761 39.9717 11.6064C39.9717 11.1279 40.1038 10.7132 40.3682 10.3623C40.6325 10.0114 40.9993 9.74023 41.4688 9.54883C41.9427 9.35742 42.4919 9.26172 43.1162 9.26172C43.7087 9.26172 44.2191 9.34603 44.6475 9.51465C45.0804 9.67871 45.429 9.91113 45.6934 10.2119C45.9622 10.5081 46.1445 10.8613 46.2402 11.2715L44.5312 11.5859C44.4492 11.3216 44.2943 11.1029 44.0664 10.9297C43.8431 10.752 43.5355 10.6631 43.1436 10.6631C42.7881 10.6631 42.4896 10.7406 42.248 10.8955C42.0111 11.0459 41.8926 11.2441 41.8926 11.4902C41.8926 11.6999 41.9701 11.873 42.125 12.0098C42.2845 12.1465 42.5511 12.2559 42.9248 12.3379L44.2646 12.6113C44.9938 12.7617 45.5361 13.0078 45.8916 13.3496C46.2516 13.6914 46.4316 14.1335 46.4316 14.6758C46.4316 15.168 46.2881 15.6009 46.001 15.9746C45.7139 16.3438 45.3174 16.6331 44.8115 16.8428C44.3102 17.0479 43.7314 17.1504 43.0752 17.1504Z" fill="#292A2E"/>
<path d="M29.335 17L32.8555 6.81445H35.3916L38.9941 17H36.8203L35.1045 11.9072C34.9176 11.3148 34.724 10.6562 34.5234 9.93164C34.3275 9.20703 34.1156 8.40267 33.8877 7.51855H34.3115C34.0882 8.40723 33.8831 9.21615 33.6963 9.94531C33.5094 10.6745 33.3271 11.3285 33.1494 11.9072L31.4951 17H29.335ZM31.4609 14.5596V13.001H36.8613V14.5596H31.4609Z" fill="#292A2E"/>
</svg>
