<svg width="95" height="24" viewBox="0 0 95 24" fill="none" xmlns="http://www.w3.org/2000/svg">
<path d="M18 0C21.3137 0 24 2.68629 24 6V18C24 21.3137 21.3137 24 18 24H6C2.68629 24 0 21.3137 0 18V6C0 2.68629 2.68629 0 6 0H18ZM5.82129 6C5.47561 6 5.28089 6.23759 5.3457 6.60449L7.0957 17.417C7.16052 17.7839 7.41983 18 7.78711 18H16.2129C16.5802 18 16.8395 17.7839 16.9043 17.417L17.8984 11.3525C17.9632 10.9857 17.8333 10.7696 17.4014 10.7695H14.4844C14.1821 10.7696 13.9662 10.8992 13.9229 11.2227L13.5127 13.8125C13.4911 13.8987 13.4261 13.9637 13.3398 13.9639H10.6602C10.5739 13.9637 10.5089 13.8987 10.4873 13.8125L9.9043 10.2305C9.88269 10.101 9.94764 10.0361 10.0557 10.0361H17.4873C17.8762 10.0361 18.1139 9.8632 18.1787 9.45312L18.6543 6.60449C18.7191 6.23759 18.5244 6 18.1787 6H5.82129Z" fill="#292A2E"/>
<path d="M94.3398 9.35742V10.8408H89.8965V9.35742H94.3398ZM90.9629 7.53906H92.8838V14.8057C92.8838 15.0609 92.9408 15.25 93.0547 15.373C93.1686 15.4961 93.3555 15.5576 93.6152 15.5576C93.6927 15.5576 93.7998 15.5485 93.9365 15.5303C94.0732 15.5075 94.1803 15.487 94.2578 15.4688L94.5449 16.9316C94.3353 16.9954 94.1234 17.0387 93.9092 17.0615C93.695 17.0889 93.4876 17.1025 93.2871 17.1025C92.5352 17.1025 91.9587 16.9202 91.5576 16.5557C91.1611 16.1865 90.9629 15.6579 90.9629 14.9697V7.53906Z" fill="#292A2E"/>
<path d="M85.7744 17.1504C84.9997 17.1504 84.332 16.9909 83.7715 16.6719C83.2109 16.3483 82.7803 15.8926 82.4795 15.3047C82.1787 14.7168 82.0283 14.0218 82.0283 13.2197C82.0283 12.4359 82.1764 11.7477 82.4727 11.1553C82.7734 10.5583 83.195 10.0934 83.7373 9.76074C84.2842 9.42806 84.9268 9.26172 85.665 9.26172C86.1481 9.26172 86.6016 9.33919 87.0254 9.49414C87.4538 9.64909 87.832 9.88607 88.1602 10.2051C88.4883 10.5195 88.7435 10.9206 88.9258 11.4082C89.1126 11.8913 89.2061 12.4655 89.2061 13.1309V13.6982H82.8691V12.4473H88.2627L87.3604 12.7959C87.3604 12.3812 87.2966 12.0212 87.1689 11.7158C87.0413 11.4059 86.8522 11.1667 86.6016 10.998C86.3555 10.8249 86.0456 10.7383 85.6719 10.7383C85.3027 10.7383 84.9883 10.8249 84.7285 10.998C84.4688 11.1712 84.2705 11.4059 84.1338 11.7021C83.9971 11.9938 83.9287 12.3219 83.9287 12.6865V13.5615C83.9287 14.0218 84.0062 14.4115 84.1611 14.7305C84.3206 15.0449 84.5394 15.2819 84.8174 15.4414C85.0999 15.6009 85.4281 15.6807 85.8018 15.6807C86.0479 15.6807 86.2734 15.6442 86.4785 15.5713C86.6836 15.4984 86.8591 15.3936 87.0049 15.2568C87.1507 15.1156 87.2624 14.9424 87.3398 14.7373L89.0898 15.0791C88.9668 15.4938 88.7549 15.8584 88.4541 16.1729C88.1533 16.4827 87.7751 16.7243 87.3193 16.8975C86.8682 17.0661 86.3532 17.1504 85.7744 17.1504Z" fill="#292A2E"/>
<path d="M76.3613 14.6826V12.3652H76.6621L79.2803 9.35742H81.5225L78.1797 13.1582H77.749L76.3613 14.6826ZM74.6113 17V6.81445H76.5391V17H74.6113ZM79.3965 17L77.0039 13.5889L78.2959 12.2217L81.6797 17H79.3965Z" fill="#292A2E"/>
<path d="M69.7783 17.1504C69.0264 17.1504 68.3724 16.9863 67.8164 16.6582C67.265 16.3301 66.8389 15.8698 66.5381 15.2773C66.2373 14.6849 66.0869 13.9967 66.0869 13.2129C66.0869 12.4245 66.2373 11.734 66.5381 11.1416C66.8389 10.5446 67.265 10.082 67.8164 9.75391C68.3724 9.42578 69.0264 9.26172 69.7783 9.26172C70.2204 9.26172 70.6283 9.31868 71.002 9.43262C71.3757 9.54655 71.7083 9.71061 72 9.9248C72.2917 10.139 72.5332 10.3988 72.7246 10.7041C72.9206 11.0094 73.0573 11.3535 73.1348 11.7363L71.3369 12.0918C71.2959 11.8913 71.2298 11.7113 71.1387 11.5518C71.0475 11.3923 70.9359 11.2578 70.8037 11.1484C70.6761 11.0345 70.528 10.9479 70.3594 10.8887C70.1908 10.8249 70.0039 10.793 69.7988 10.793C69.4115 10.793 69.0879 10.8978 68.8281 11.1074C68.5684 11.3125 68.3724 11.5973 68.2402 11.9619C68.1081 12.3219 68.042 12.7367 68.042 13.2061C68.042 13.6709 68.1081 14.0856 68.2402 14.4502C68.3724 14.8102 68.5684 15.0951 68.8281 15.3047C69.0879 15.5143 69.4115 15.6191 69.7988 15.6191C70.0085 15.6191 70.1976 15.5895 70.3662 15.5303C70.5394 15.4665 70.6921 15.3753 70.8242 15.2568C70.9564 15.1383 71.068 14.9971 71.1592 14.833C71.2503 14.6644 71.3164 14.4775 71.3574 14.2725L73.1484 14.6211C73.071 15.0176 72.9365 15.3708 72.7451 15.6807C72.5537 15.9906 72.3099 16.2549 72.0137 16.4736C71.722 16.6924 71.387 16.861 71.0088 16.9795C70.6351 17.0934 70.2249 17.1504 69.7783 17.1504Z" fill="#292A2E"/>
<path d="M60.3857 17.0957C59.8571 17.0957 59.3945 16.9818 58.998 16.7539C58.6061 16.526 58.3008 16.1979 58.082 15.7695C57.8633 15.3366 57.7539 14.8193 57.7539 14.2178V9.35742H59.6816V13.8965C59.6816 14.3932 59.8092 14.7806 60.0645 15.0586C60.3197 15.3366 60.6706 15.4756 61.1172 15.4756C61.4225 15.4756 61.6914 15.4118 61.9238 15.2842C62.1562 15.152 62.3385 14.9606 62.4707 14.71C62.6029 14.4593 62.6689 14.1585 62.6689 13.8076V9.35742H64.5967V17H62.7715L62.751 15.0996H62.874C62.6689 15.7559 62.359 16.2526 61.9443 16.5898C61.5296 16.9271 61.0101 17.0957 60.3857 17.0957Z" fill="#292A2E"/>
<path d="M53.1328 17.1299C52.709 17.1299 52.3512 17.0592 52.0596 16.918C51.7725 16.7721 51.54 16.5967 51.3623 16.3916C51.1891 16.182 51.0547 15.9792 50.959 15.7832H50.8564V17H48.9629V6.81445H50.8906V10.6357H50.959C51.0501 10.4398 51.1823 10.237 51.3555 10.0273C51.5286 9.81315 51.7588 9.63314 52.0459 9.4873C52.333 9.33691 52.6976 9.26172 53.1396 9.26172C53.7184 9.26172 54.2425 9.40983 54.7119 9.70605C55.1859 10.0023 55.5618 10.4421 55.8398 11.0254C56.1224 11.6087 56.2637 12.3311 56.2637 13.1924C56.2637 14.0355 56.127 14.751 55.8535 15.3389C55.5801 15.9222 55.2064 16.3665 54.7324 16.6719C54.263 16.9772 53.7298 17.1299 53.1328 17.1299ZM52.5723 15.5781C52.9505 15.5781 53.2673 15.4756 53.5225 15.2705C53.7777 15.0609 53.9691 14.776 54.0967 14.416C54.2288 14.056 54.2949 13.6458 54.2949 13.1855C54.2949 12.7253 54.2288 12.3174 54.0967 11.9619C53.9691 11.6064 53.7777 11.3285 53.5225 11.1279C53.2673 10.9229 52.9505 10.8203 52.5723 10.8203C52.2031 10.8203 51.8887 10.9183 51.6289 11.1143C51.3737 11.3102 51.18 11.5859 51.0479 11.9414C50.9157 12.2923 50.8496 12.707 50.8496 13.1855C50.8496 13.6595 50.9157 14.0765 51.0479 14.4365C51.1846 14.7965 51.3805 15.0768 51.6357 15.2773C51.8955 15.4779 52.2077 15.5781 52.5723 15.5781Z" fill="#292A2E"/>
<path d="M47.5684 9.35742V10.8408H43.125V9.35742H47.5684ZM44.1914 7.53906H46.1123V14.8057C46.1123 15.0609 46.1693 15.25 46.2832 15.373C46.3971 15.4961 46.584 15.5576 46.8438 15.5576C46.9212 15.5576 47.0283 15.5485 47.165 15.5303C47.3018 15.5075 47.4089 15.487 47.4863 15.4688L47.7734 16.9316C47.5638 16.9954 47.3519 17.0387 47.1377 17.0615C46.9235 17.0889 46.7161 17.1025 46.5156 17.1025C45.7637 17.1025 45.1872 16.9202 44.7861 16.5557C44.3896 16.1865 44.1914 15.6579 44.1914 14.9697V7.53906Z" fill="#292A2E"/>
<path d="M40.1582 17V9.35742H42.0859V17H40.1582ZM40.1377 8.27051V6.51367H42.1201V8.27051H40.1377Z" fill="#292A2E"/>
<path d="M30.9707 17V6.81445H34.9424C35.6852 6.81445 36.3027 6.92839 36.7949 7.15625C37.2871 7.38411 37.6562 7.69629 37.9023 8.09277C38.1484 8.48926 38.2715 8.94043 38.2715 9.44629C38.2715 9.85189 38.1917 10.2028 38.0322 10.499C37.8727 10.7952 37.6562 11.0368 37.3828 11.2236C37.1139 11.4105 36.8086 11.5426 36.4668 11.6201V11.7227C36.8405 11.7409 37.1937 11.8503 37.5264 12.0508C37.8636 12.2513 38.137 12.5339 38.3467 12.8984C38.5609 13.263 38.668 13.7005 38.668 14.2109C38.668 14.7396 38.5381 15.2158 38.2783 15.6396C38.0186 16.0589 37.6312 16.3916 37.1162 16.6377C36.6012 16.8792 35.9564 17 35.1816 17H30.9707ZM32.9326 15.373H34.8262C35.4688 15.373 35.9336 15.25 36.2207 15.0039C36.5124 14.7533 36.6582 14.432 36.6582 14.04C36.6582 13.7438 36.5853 13.4795 36.4395 13.2471C36.2982 13.0146 36.0954 12.8324 35.8311 12.7002C35.5667 12.5635 35.2523 12.4951 34.8877 12.4951H32.9326V15.373ZM32.9326 11.1211H34.6689C34.9788 11.1211 35.2568 11.0664 35.5029 10.957C35.749 10.8431 35.9427 10.6836 36.084 10.4785C36.2253 10.2689 36.2959 10.0205 36.2959 9.7334C36.2959 9.35059 36.1615 9.03841 35.8926 8.79688C35.6237 8.55078 35.2295 8.42773 34.71 8.42773H32.9326V11.1211Z" fill="#292A2E"/>
</svg>
