<svg width="64" height="24" viewBox="0 0 64 24" fill="none" xmlns="http://www.w3.org/2000/svg">
<path d="M0 6C0 2.68629 2.68629 0 6 0H18C21.3137 0 24 2.68629 24 6V18C24 21.3137 21.3137 24 18 24H6C2.68629 24 0 21.3137 0 18V6Z" fill="#DDDEE1"/>
<path fill-rule="evenodd" clip-rule="evenodd" d="M10.125 16.5002L18.25 16.5V6L5.75 6.00017V19L10.125 16.5002ZM12 12.125C12.4832 12.125 12.875 11.7332 12.875 11.25C12.875 10.7668 12.4832 10.375 12 10.375C11.5168 10.375 11.125 10.7668 11.125 11.25C11.125 11.7332 11.5168 12.125 12 12.125ZM16 11.25C16 11.7332 15.6082 12.125 15.125 12.125C14.6418 12.125 14.25 11.7332 14.25 11.25C14.25 10.7668 14.6418 10.375 15.125 10.375C15.6082 10.375 16 10.7668 16 11.25ZM8.875 12.125C9.35825 12.125 9.75 11.7332 9.75 11.25C9.75 10.7668 9.35825 10.375 8.875 10.375C8.39175 10.375 8 10.7668 8 11.25C8 11.7332 8.39175 12.125 8.875 12.125Z" fill="#1E1F21"/>
<path d="M62.3613 9.35742V10.8408H57.918V9.35742H62.3613ZM58.9844 7.53906H60.9053V14.8057C60.9053 15.0609 60.9622 15.25 61.0762 15.373C61.1901 15.4961 61.377 15.5576 61.6367 15.5576C61.7142 15.5576 61.8213 15.5485 61.958 15.5303C62.0947 15.5075 62.2018 15.487 62.2793 15.4688L62.5664 16.9316C62.3568 16.9954 62.1449 17.0387 61.9307 17.0615C61.7165 17.0889 61.5091 17.1025 61.3086 17.1025C60.5566 17.1025 59.9801 16.9202 59.5791 16.5557C59.1826 16.1865 58.9844 15.6579 58.9844 14.9697V7.53906Z" fill="#292A2E"/>
<path d="M52.6953 17.1299C52.1074 17.1299 51.5765 16.9772 51.1025 16.6719C50.6331 16.3665 50.2594 15.9222 49.9814 15.3389C49.708 14.751 49.5713 14.0355 49.5713 13.1924C49.5713 12.3311 49.7126 11.6087 49.9951 11.0254C50.2777 10.4421 50.6559 10.0023 51.1299 9.70605C51.6038 9.40983 52.1302 9.26172 52.709 9.26172C53.1465 9.26172 53.5088 9.33691 53.7959 9.4873C54.083 9.63314 54.3132 9.81315 54.4863 10.0273C54.6595 10.237 54.7917 10.4398 54.8828 10.6357H54.958V9.35742H56.8652V17H54.9648V15.7832H54.8828C54.7917 15.9792 54.6549 16.182 54.4727 16.3916C54.2949 16.6012 54.0625 16.7767 53.7754 16.918C53.4883 17.0592 53.1283 17.1299 52.6953 17.1299ZM53.2695 15.5781C53.6387 15.5781 53.9508 15.4779 54.2061 15.2773C54.4613 15.0768 54.6549 14.7965 54.7871 14.4365C54.9238 14.0765 54.9922 13.6595 54.9922 13.1855C54.9922 12.707 54.9261 12.2923 54.7939 11.9414C54.6618 11.5859 54.4681 11.3102 54.2129 11.1143C53.9577 10.9183 53.6432 10.8203 53.2695 10.8203C52.8913 10.8203 52.5723 10.9206 52.3125 11.1211C52.0573 11.3216 51.8636 11.5996 51.7314 11.9551C51.6038 12.3105 51.54 12.7207 51.54 13.1855C51.54 13.6458 51.6061 14.056 51.7383 14.416C51.8704 14.776 52.0641 15.0609 52.3193 15.2705C52.5791 15.4756 52.8958 15.5781 53.2695 15.5781Z" fill="#292A2E"/>
<path d="M43.166 12.5498V17H41.2383V6.81445H43.1318V11.2578H42.9609C43.166 10.6107 43.4736 10.1162 43.8838 9.77441C44.2939 9.43262 44.818 9.26172 45.4561 9.26172C45.9801 9.26172 46.4382 9.37565 46.8301 9.60352C47.2266 9.83138 47.5342 10.1595 47.7529 10.5879C47.9717 11.0163 48.0811 11.5335 48.0811 12.1396V17H46.1533V12.4609C46.1533 11.9642 46.0257 11.5768 45.7705 11.2988C45.5153 11.0208 45.1644 10.8818 44.7178 10.8818C44.417 10.8818 44.1481 10.9479 43.9111 11.0801C43.6787 11.2077 43.4964 11.3968 43.3643 11.6475C43.2321 11.8936 43.166 12.1943 43.166 12.5498Z" fill="#292A2E"/>
<path d="M35.3662 17.1367C34.4684 17.1367 33.6663 16.9316 32.96 16.5215C32.2536 16.1068 31.6953 15.5098 31.2852 14.7305C30.875 13.9512 30.6699 13.0124 30.6699 11.9141C30.6699 10.8112 30.875 9.87012 31.2852 9.09082C31.6999 8.30697 32.2604 7.70996 32.9668 7.2998C33.6777 6.88509 34.4775 6.67773 35.3662 6.67773C35.9359 6.67773 36.4668 6.75749 36.959 6.91699C37.4557 7.0765 37.8955 7.3112 38.2783 7.62109C38.6611 7.92643 38.9756 8.30013 39.2217 8.74219C39.4678 9.18424 39.6296 9.68783 39.707 10.2529H37.7246C37.6745 9.96126 37.5811 9.70378 37.4443 9.48047C37.3076 9.25716 37.1367 9.06803 36.9316 8.91309C36.7311 8.75358 36.501 8.63281 36.2412 8.55078C35.9814 8.46875 35.7035 8.42773 35.4072 8.42773C34.8649 8.42773 34.3864 8.56445 33.9717 8.83789C33.557 9.10677 33.2334 9.50098 33.001 10.0205C32.7731 10.54 32.6592 11.1712 32.6592 11.9141C32.6592 12.666 32.7754 13.3018 33.0078 13.8213C33.2402 14.3363 33.5615 14.7259 33.9717 14.9902C34.3864 15.2546 34.8626 15.3867 35.4004 15.3867C35.6966 15.3867 35.9723 15.3457 36.2275 15.2637C36.4873 15.1816 36.7197 15.0632 36.9248 14.9082C37.1344 14.7487 37.3076 14.5573 37.4443 14.334C37.5811 14.1061 37.6768 13.8486 37.7314 13.5615H39.7139C39.6546 14.04 39.5111 14.4935 39.2832 14.9219C39.0553 15.3503 38.7546 15.7331 38.3809 16.0703C38.0072 16.403 37.5674 16.665 37.0615 16.8564C36.5557 17.0433 35.9906 17.1367 35.3662 17.1367Z" fill="#292A2E"/>
</svg>
