<svg width="95" height="24" viewBox="0 0 95 24" fill="none" xmlns="http://www.w3.org/2000/svg">
<path d="M0 6C0 2.68629 2.68629 0 6 0H18C21.3137 0 24 2.68629 24 6V18C24 21.3137 21.3137 24 18 24H6C2.68629 24 0 21.3137 0 18V6Z" fill="#94C748"/>
<path d="M12.7502 7.87736V4.50794L18.9091 4.5H18.9174C19.2459 4.50681 19.5072 4.77411 19.5004 5.09774V11.2449H16.1344V7.87736H12.7502Z" fill="#101214"/>
<path d="M12.7503 14.6147V11.2449H16.1182V17.4102C16.1205 17.7339 15.8558 17.9977 15.5269 18H6.58312C6.25458 17.9932 5.99332 17.7259 6.00013 17.4023V8.46718C5.99786 8.14355 6.26252 7.87965 6.59144 7.87738L12.7502 7.87736L12.7503 11.2449H9.37409V14.6147H12.7503Z" fill="#101214"/>
<path d="M90.833 17.1504C90.2314 17.1504 89.6982 17.0661 89.2334 16.8975C88.7686 16.7243 88.388 16.4736 88.0918 16.1455C87.8001 15.8128 87.6087 15.4141 87.5176 14.9492L89.3154 14.6279C89.4157 14.9925 89.5957 15.266 89.8555 15.4482C90.1152 15.626 90.457 15.7148 90.8809 15.7148C91.291 15.7148 91.6169 15.6351 91.8584 15.4756C92.0999 15.3115 92.2207 15.1087 92.2207 14.8672C92.2207 14.6576 92.1387 14.4867 91.9746 14.3545C91.8105 14.2178 91.5576 14.113 91.2158 14.04L89.9033 13.7666C89.1742 13.6117 88.6296 13.3564 88.2695 13.001C87.9095 12.641 87.7295 12.1761 87.7295 11.6064C87.7295 11.1279 87.8617 10.7132 88.126 10.3623C88.3903 10.0114 88.7572 9.74023 89.2266 9.54883C89.7005 9.35742 90.2497 9.26172 90.874 9.26172C91.4665 9.26172 91.9769 9.34603 92.4053 9.51465C92.8382 9.67871 93.1868 9.91113 93.4512 10.2119C93.7201 10.5081 93.9023 10.8613 93.998 11.2715L92.2891 11.5859C92.207 11.3216 92.0521 11.1029 91.8242 10.9297C91.6009 10.752 91.2933 10.6631 90.9014 10.6631C90.5459 10.6631 90.2474 10.7406 90.0059 10.8955C89.7689 11.0459 89.6504 11.2441 89.6504 11.4902C89.6504 11.6999 89.7279 11.873 89.8828 12.0098C90.0423 12.1465 90.3089 12.2559 90.6826 12.3379L92.0225 12.6113C92.7516 12.7617 93.2939 13.0078 93.6494 13.3496C94.0094 13.6914 94.1895 14.1335 94.1895 14.6758C94.1895 15.168 94.0459 15.6009 93.7588 15.9746C93.4717 16.3438 93.0752 16.6331 92.5693 16.8428C92.068 17.0479 91.4893 17.1504 90.833 17.1504Z" fill="#292A2E"/>
<path d="M83.0537 17.1504C82.4521 17.1504 81.9189 17.0661 81.4541 16.8975C80.9893 16.7243 80.6087 16.4736 80.3125 16.1455C80.0208 15.8128 79.8294 15.4141 79.7383 14.9492L81.5361 14.6279C81.6364 14.9925 81.8164 15.266 82.0762 15.4482C82.3359 15.626 82.6777 15.7148 83.1016 15.7148C83.5117 15.7148 83.8376 15.6351 84.0791 15.4756C84.3206 15.3115 84.4414 15.1087 84.4414 14.8672C84.4414 14.6576 84.3594 14.4867 84.1953 14.3545C84.0312 14.2178 83.7783 14.113 83.4365 14.04L82.124 13.7666C81.3949 13.6117 80.8503 13.3564 80.4902 13.001C80.1302 12.641 79.9502 12.1761 79.9502 11.6064C79.9502 11.1279 80.0824 10.7132 80.3467 10.3623C80.611 10.0114 80.9779 9.74023 81.4473 9.54883C81.9212 9.35742 82.4704 9.26172 83.0947 9.26172C83.6872 9.26172 84.1976 9.34603 84.626 9.51465C85.0589 9.67871 85.4076 9.91113 85.6719 10.2119C85.9408 10.5081 86.123 10.8613 86.2188 11.2715L84.5098 11.5859C84.4277 11.3216 84.2728 11.1029 84.0449 10.9297C83.8216 10.752 83.514 10.6631 83.1221 10.6631C82.7666 10.6631 82.4681 10.7406 82.2266 10.8955C81.9896 11.0459 81.8711 11.2441 81.8711 11.4902C81.8711 11.6999 81.9486 11.873 82.1035 12.0098C82.263 12.1465 82.5296 12.2559 82.9033 12.3379L84.2432 12.6113C84.9723 12.7617 85.5146 13.0078 85.8701 13.3496C86.2301 13.6914 86.4102 14.1335 86.4102 14.6758C86.4102 15.168 86.2666 15.6009 85.9795 15.9746C85.6924 16.3438 85.2959 16.6331 84.79 16.8428C84.2887 17.0479 83.71 17.1504 83.0537 17.1504Z" fill="#292A2E"/>
<path d="M74.0918 17.1299C73.5039 17.1299 72.973 16.9772 72.499 16.6719C72.0296 16.3665 71.6559 15.9222 71.3779 15.3389C71.1045 14.751 70.9678 14.0355 70.9678 13.1924C70.9678 12.3311 71.1091 11.6087 71.3916 11.0254C71.6742 10.4421 72.0524 10.0023 72.5264 9.70605C73.0003 9.40983 73.5267 9.26172 74.1055 9.26172C74.543 9.26172 74.9053 9.33691 75.1924 9.4873C75.4795 9.63314 75.7096 9.81315 75.8828 10.0273C76.056 10.237 76.1882 10.4398 76.2793 10.6357H76.3545V9.35742H78.2617V17H76.3613V15.7832H76.2793C76.1882 15.9792 76.0514 16.182 75.8691 16.3916C75.6914 16.6012 75.459 16.7767 75.1719 16.918C74.8848 17.0592 74.5247 17.1299 74.0918 17.1299ZM74.666 15.5781C75.0352 15.5781 75.3473 15.4779 75.6025 15.2773C75.8577 15.0768 76.0514 14.7965 76.1836 14.4365C76.3203 14.0765 76.3887 13.6595 76.3887 13.1855C76.3887 12.707 76.3226 12.2923 76.1904 11.9414C76.0583 11.5859 75.8646 11.3102 75.6094 11.1143C75.3542 10.9183 75.0397 10.8203 74.666 10.8203C74.2878 10.8203 73.9688 10.9206 73.709 11.1211C73.4538 11.3216 73.2601 11.5996 73.1279 11.9551C73.0003 12.3105 72.9365 12.7207 72.9365 13.1855C72.9365 13.6458 73.0026 14.056 73.1348 14.416C73.2669 14.776 73.4606 15.0609 73.7158 15.2705C73.9756 15.4756 74.2923 15.5781 74.666 15.5781Z" fill="#292A2E"/>
<path d="M62.498 19.8574V9.35742H64.3916V10.6357H64.4941C64.5853 10.4398 64.7174 10.237 64.8906 10.0273C65.0638 9.81315 65.2939 9.63314 65.5811 9.4873C65.8682 9.33691 66.2327 9.26172 66.6748 9.26172C67.2536 9.26172 67.7777 9.40983 68.2471 9.70605C68.721 10.0023 69.097 10.4421 69.375 11.0254C69.6576 11.6087 69.7988 12.3311 69.7988 13.1924C69.7988 14.0355 69.6621 14.751 69.3887 15.3389C69.1152 15.9222 68.7415 16.3665 68.2676 16.6719C67.7982 16.9772 67.265 17.1299 66.668 17.1299C66.2441 17.1299 65.8864 17.0592 65.5947 16.918C65.3076 16.7721 65.0752 16.5967 64.8975 16.3916C64.7243 16.182 64.5898 15.9792 64.4941 15.7832H64.4258V19.8574H62.498ZM66.1074 15.5781C66.4857 15.5781 66.8024 15.4756 67.0576 15.2705C67.3128 15.0609 67.5042 14.776 67.6318 14.416C67.764 14.056 67.8301 13.6458 67.8301 13.1855C67.8301 12.7253 67.764 12.3174 67.6318 11.9619C67.5042 11.6064 67.3128 11.3285 67.0576 11.1279C66.8024 10.9229 66.4857 10.8203 66.1074 10.8203C65.7383 10.8203 65.4238 10.9183 65.1641 11.1143C64.9089 11.3102 64.7152 11.5859 64.583 11.9414C64.4508 12.2923 64.3848 12.707 64.3848 13.1855C64.3848 13.6595 64.4508 14.0765 64.583 14.4365C64.7197 14.7965 64.9157 15.0768 65.1709 15.2773C65.4307 15.4779 65.7428 15.5781 66.1074 15.5781Z" fill="#292A2E"/>
<path d="M49.7969 17V9.35742H51.5947L51.6768 11.2305H51.54C51.654 10.7656 51.8249 10.3874 52.0527 10.0957C52.2852 9.80404 52.5563 9.58984 52.8662 9.45312C53.1761 9.31185 53.4997 9.24121 53.8369 9.24121C54.3883 9.24121 54.8327 9.41439 55.1699 9.76074C55.5072 10.1071 55.751 10.6312 55.9014 11.333H55.6758C55.7852 10.859 55.9674 10.4671 56.2227 10.1572C56.4824 9.84733 56.7855 9.61719 57.1318 9.4668C57.4827 9.31641 57.8564 9.24121 58.2529 9.24121C58.7132 9.24121 59.1257 9.34147 59.4902 9.54199C59.8594 9.74251 60.1488 10.0365 60.3584 10.4238C60.5726 10.8112 60.6797 11.2852 60.6797 11.8457V17H58.7588V12.1807C58.7588 11.7295 58.6357 11.3968 58.3896 11.1826C58.1436 10.9684 57.8451 10.8613 57.4941 10.8613C57.2253 10.8613 56.9906 10.9206 56.79 11.0391C56.5941 11.153 56.4414 11.3148 56.332 11.5244C56.2272 11.734 56.1748 11.9779 56.1748 12.2559V17H54.3086V12.1123C54.3086 11.7295 54.1924 11.4264 53.96 11.2031C53.7321 10.9753 53.4359 10.8613 53.0713 10.8613C52.8206 10.8613 52.5928 10.9183 52.3877 11.0322C52.1826 11.1462 52.0208 11.3148 51.9023 11.5381C51.7839 11.7568 51.7246 12.028 51.7246 12.3516V17H49.7969Z" fill="#292A2E"/>
<path d="M44.6152 17.1504C43.8587 17.1504 43.2025 16.9863 42.6465 16.6582C42.0951 16.3301 41.6689 15.8698 41.3682 15.2773C41.0674 14.6849 40.917 13.9967 40.917 13.2129C40.917 12.4245 41.0674 11.734 41.3682 11.1416C41.6689 10.5446 42.0951 10.082 42.6465 9.75391C43.2025 9.42578 43.8587 9.26172 44.6152 9.26172C45.3717 9.26172 46.0257 9.42578 46.5771 9.75391C47.1331 10.082 47.5615 10.5446 47.8623 11.1416C48.1631 11.734 48.3135 12.4245 48.3135 13.2129C48.3135 13.9967 48.1631 14.6849 47.8623 15.2773C47.5615 15.8698 47.1331 16.3301 46.5771 16.6582C46.0257 16.9863 45.3717 17.1504 44.6152 17.1504ZM44.6152 15.6191C45.0026 15.6191 45.3262 15.5143 45.5859 15.3047C45.8457 15.0905 46.0394 14.8011 46.167 14.4365C46.2946 14.0719 46.3584 13.6618 46.3584 13.2061C46.3584 12.7503 46.2946 12.3402 46.167 11.9756C46.0394 11.611 45.8457 11.3239 45.5859 11.1143C45.3262 10.9001 45.0026 10.793 44.6152 10.793C44.2279 10.793 43.9043 10.9001 43.6445 11.1143C43.3893 11.3239 43.1956 11.611 43.0635 11.9756C42.9359 12.3356 42.8721 12.7458 42.8721 13.2061C42.8721 13.6618 42.9359 14.0719 43.0635 14.4365C43.1956 14.8011 43.3893 15.0905 43.6445 15.3047C43.9043 15.5143 44.2279 15.6191 44.6152 15.6191Z" fill="#292A2E"/>
<path d="M35.3662 17.1367C34.4684 17.1367 33.6663 16.9316 32.96 16.5215C32.2536 16.1068 31.6953 15.5098 31.2852 14.7305C30.875 13.9512 30.6699 13.0124 30.6699 11.9141C30.6699 10.8112 30.875 9.87012 31.2852 9.09082C31.6999 8.30697 32.2604 7.70996 32.9668 7.2998C33.6777 6.88509 34.4775 6.67773 35.3662 6.67773C35.9359 6.67773 36.4668 6.75749 36.959 6.91699C37.4557 7.0765 37.8955 7.3112 38.2783 7.62109C38.6611 7.92643 38.9756 8.30013 39.2217 8.74219C39.4678 9.18424 39.6296 9.68783 39.707 10.2529H37.7246C37.6745 9.96126 37.5811 9.70378 37.4443 9.48047C37.3076 9.25716 37.1367 9.06803 36.9316 8.91309C36.7311 8.75358 36.501 8.63281 36.2412 8.55078C35.9814 8.46875 35.7035 8.42773 35.4072 8.42773C34.8649 8.42773 34.3864 8.56445 33.9717 8.83789C33.557 9.10677 33.2334 9.50098 33.001 10.0205C32.7731 10.54 32.6592 11.1712 32.6592 11.9141C32.6592 12.666 32.7754 13.3018 33.0078 13.8213C33.2402 14.3363 33.5615 14.7259 33.9717 14.9902C34.3864 15.2546 34.8626 15.3867 35.4004 15.3867C35.6966 15.3867 35.9723 15.3457 36.2275 15.2637C36.4873 15.1816 36.7197 15.0632 36.9248 14.9082C37.1344 14.7487 37.3076 14.5573 37.4443 14.334C37.5811 14.1061 37.6768 13.8486 37.7314 13.5615H39.7139C39.6546 14.04 39.5111 14.4935 39.2832 14.9219C39.0553 15.3503 38.7546 15.7331 38.3809 16.0703C38.0072 16.403 37.5674 16.665 37.0615 16.8564C36.5557 17.0433 35.9906 17.1367 35.3662 17.1367Z" fill="#292A2E"/>
</svg>
