<svg width="96" height="24" viewBox="0 0 96 24" fill="none" xmlns="http://www.w3.org/2000/svg">
<path d="M0 6C0 2.68629 2.68629 0 6 0H18C21.3137 0 24 2.68629 24 6V18C24 21.3137 21.3137 24 18 24H6C2.68629 24 0 21.3137 0 18V6Z" fill="#94C748"/>
<path d="M12.7502 7.87736V4.50794L18.9091 4.5H18.9174C19.2459 4.50681 19.5072 4.77411 19.5004 5.09774V11.2449H16.1344V7.87736H12.7502Z" fill="#111213"/>
<path d="M12.7503 14.6147V11.2449H16.1182V17.4102C16.1205 17.7339 15.8558 17.9977 15.5269 18H6.58312C6.25458 17.9932 5.99332 17.7259 6.00013 17.4023V8.46718C5.99786 8.14355 6.26252 7.87965 6.59144 7.87738L12.7502 7.87736L12.7503 11.2449H9.37409V14.6147H12.7503Z" fill="#111213"/>
<path d="M90.9424 17.1504C90.3408 17.1504 89.8076 17.0661 89.3428 16.8975C88.8779 16.7243 88.4974 16.4736 88.2012 16.1455C87.9095 15.8128 87.7181 15.4141 87.627 14.9492L89.4248 14.6279C89.5251 14.9925 89.7051 15.266 89.9648 15.4482C90.2246 15.626 90.5664 15.7148 90.9902 15.7148C91.4004 15.7148 91.7262 15.6351 91.9678 15.4756C92.2093 15.3115 92.3301 15.1087 92.3301 14.8672C92.3301 14.6576 92.248 14.4867 92.084 14.3545C91.9199 14.2178 91.667 14.113 91.3252 14.04L90.0127 13.7666C89.2835 13.6117 88.7389 13.3564 88.3789 13.001C88.0189 12.641 87.8389 12.1761 87.8389 11.6064C87.8389 11.1279 87.971 10.7132 88.2354 10.3623C88.4997 10.0114 88.8665 9.74023 89.3359 9.54883C89.8099 9.35742 90.3591 9.26172 90.9834 9.26172C91.5758 9.26172 92.0863 9.34603 92.5146 9.51465C92.9476 9.67871 93.2962 9.91113 93.5605 10.2119C93.8294 10.5081 94.0117 10.8613 94.1074 11.2715L92.3984 11.5859C92.3164 11.3216 92.1615 11.1029 91.9336 10.9297C91.7103 10.752 91.4027 10.6631 91.0107 10.6631C90.6553 10.6631 90.3568 10.7406 90.1152 10.8955C89.8783 11.0459 89.7598 11.2441 89.7598 11.4902C89.7598 11.6999 89.8372 11.873 89.9922 12.0098C90.1517 12.1465 90.4183 12.2559 90.792 12.3379L92.1318 12.6113C92.861 12.7617 93.4033 13.0078 93.7588 13.3496C94.1188 13.6914 94.2988 14.1335 94.2988 14.6758C94.2988 15.168 94.1553 15.6009 93.8682 15.9746C93.5811 16.3438 93.1846 16.6331 92.6787 16.8428C92.1774 17.0479 91.5986 17.1504 90.9424 17.1504Z" fill="#292A2E"/>
<path d="M83.1631 17.1504C82.5615 17.1504 82.0283 17.0661 81.5635 16.8975C81.0986 16.7243 80.7181 16.4736 80.4219 16.1455C80.1302 15.8128 79.9388 15.4141 79.8477 14.9492L81.6455 14.6279C81.7458 14.9925 81.9258 15.266 82.1855 15.4482C82.4453 15.626 82.7871 15.7148 83.2109 15.7148C83.6211 15.7148 83.9469 15.6351 84.1885 15.4756C84.43 15.3115 84.5508 15.1087 84.5508 14.8672C84.5508 14.6576 84.4688 14.4867 84.3047 14.3545C84.1406 14.2178 83.8877 14.113 83.5459 14.04L82.2334 13.7666C81.5042 13.6117 80.9596 13.3564 80.5996 13.001C80.2396 12.641 80.0596 12.1761 80.0596 11.6064C80.0596 11.1279 80.1917 10.7132 80.4561 10.3623C80.7204 10.0114 81.0872 9.74023 81.5566 9.54883C82.0306 9.35742 82.5798 9.26172 83.2041 9.26172C83.7966 9.26172 84.307 9.34603 84.7354 9.51465C85.1683 9.67871 85.5169 9.91113 85.7812 10.2119C86.0501 10.5081 86.2324 10.8613 86.3281 11.2715L84.6191 11.5859C84.5371 11.3216 84.3822 11.1029 84.1543 10.9297C83.931 10.752 83.6234 10.6631 83.2314 10.6631C82.876 10.6631 82.5775 10.7406 82.3359 10.8955C82.099 11.0459 81.9805 11.2441 81.9805 11.4902C81.9805 11.6999 82.0579 11.873 82.2129 12.0098C82.3724 12.1465 82.639 12.2559 83.0127 12.3379L84.3525 12.6113C85.0817 12.7617 85.624 13.0078 85.9795 13.3496C86.3395 13.6914 86.5195 14.1335 86.5195 14.6758C86.5195 15.168 86.376 15.6009 86.0889 15.9746C85.8018 16.3438 85.4053 16.6331 84.8994 16.8428C84.3981 17.0479 83.8193 17.1504 83.1631 17.1504Z" fill="#292A2E"/>
<path d="M74.2012 17.1299C73.6133 17.1299 73.0824 16.9772 72.6084 16.6719C72.139 16.3665 71.7653 15.9222 71.4873 15.3389C71.2139 14.751 71.0771 14.0355 71.0771 13.1924C71.0771 12.3311 71.2184 11.6087 71.501 11.0254C71.7835 10.4421 72.1618 10.0023 72.6357 9.70605C73.1097 9.40983 73.6361 9.26172 74.2148 9.26172C74.6523 9.26172 75.0146 9.33691 75.3018 9.4873C75.5889 9.63314 75.819 9.81315 75.9922 10.0273C76.1654 10.237 76.2975 10.4398 76.3887 10.6357H76.4639V9.35742H78.3711V17H76.4707V15.7832H76.3887C76.2975 15.9792 76.1608 16.182 75.9785 16.3916C75.8008 16.6012 75.5684 16.7767 75.2812 16.918C74.9941 17.0592 74.6341 17.1299 74.2012 17.1299ZM74.7754 15.5781C75.1445 15.5781 75.4567 15.4779 75.7119 15.2773C75.9671 15.0768 76.1608 14.7965 76.293 14.4365C76.4297 14.0765 76.498 13.6595 76.498 13.1855C76.498 12.707 76.432 12.2923 76.2998 11.9414C76.1676 11.5859 75.974 11.3102 75.7188 11.1143C75.4635 10.9183 75.1491 10.8203 74.7754 10.8203C74.3971 10.8203 74.0781 10.9206 73.8184 11.1211C73.5632 11.3216 73.3695 11.5996 73.2373 11.9551C73.1097 12.3105 73.0459 12.7207 73.0459 13.1855C73.0459 13.6458 73.112 14.056 73.2441 14.416C73.3763 14.776 73.57 15.0609 73.8252 15.2705C74.085 15.4756 74.4017 15.5781 74.7754 15.5781Z" fill="#292A2E"/>
<path d="M62.6074 19.8574V9.35742H64.501V10.6357H64.6035C64.6947 10.4398 64.8268 10.237 65 10.0273C65.1732 9.81315 65.4033 9.63314 65.6904 9.4873C65.9775 9.33691 66.3421 9.26172 66.7842 9.26172C67.363 9.26172 67.887 9.40983 68.3564 9.70605C68.8304 10.0023 69.2064 10.4421 69.4844 11.0254C69.7669 11.6087 69.9082 12.3311 69.9082 13.1924C69.9082 14.0355 69.7715 14.751 69.498 15.3389C69.2246 15.9222 68.8509 16.3665 68.377 16.6719C67.9076 16.9772 67.3743 17.1299 66.7773 17.1299C66.3535 17.1299 65.9958 17.0592 65.7041 16.918C65.417 16.7721 65.1846 16.5967 65.0068 16.3916C64.8337 16.182 64.6992 15.9792 64.6035 15.7832H64.5352V19.8574H62.6074ZM66.2168 15.5781C66.5951 15.5781 66.9118 15.4756 67.167 15.2705C67.4222 15.0609 67.6136 14.776 67.7412 14.416C67.8734 14.056 67.9395 13.6458 67.9395 13.1855C67.9395 12.7253 67.8734 12.3174 67.7412 11.9619C67.6136 11.6064 67.4222 11.3285 67.167 11.1279C66.9118 10.9229 66.5951 10.8203 66.2168 10.8203C65.8477 10.8203 65.5332 10.9183 65.2734 11.1143C65.0182 11.3102 64.8245 11.5859 64.6924 11.9414C64.5602 12.2923 64.4941 12.707 64.4941 13.1855C64.4941 13.6595 64.5602 14.0765 64.6924 14.4365C64.8291 14.7965 65.0251 15.0768 65.2803 15.2773C65.54 15.4779 65.8522 15.5781 66.2168 15.5781Z" fill="#292A2E"/>
<path d="M49.9062 17V9.35742H51.7041L51.7861 11.2305H51.6494C51.7633 10.7656 51.9342 10.3874 52.1621 10.0957C52.3945 9.80404 52.6657 9.58984 52.9756 9.45312C53.2855 9.31185 53.609 9.24121 53.9463 9.24121C54.4977 9.24121 54.9421 9.41439 55.2793 9.76074C55.6165 10.1071 55.8604 10.6312 56.0107 11.333H55.7852C55.8945 10.859 56.0768 10.4671 56.332 10.1572C56.5918 9.84733 56.8949 9.61719 57.2412 9.4668C57.5921 9.31641 57.9658 9.24121 58.3623 9.24121C58.8226 9.24121 59.235 9.34147 59.5996 9.54199C59.9688 9.74251 60.2581 10.0365 60.4678 10.4238C60.682 10.8112 60.7891 11.2852 60.7891 11.8457V17H58.8682V12.1807C58.8682 11.7295 58.7451 11.3968 58.499 11.1826C58.2529 10.9684 57.9544 10.8613 57.6035 10.8613C57.3346 10.8613 57.0999 10.9206 56.8994 11.0391C56.7035 11.153 56.5508 11.3148 56.4414 11.5244C56.3366 11.734 56.2842 11.9779 56.2842 12.2559V17H54.418V12.1123C54.418 11.7295 54.3018 11.4264 54.0693 11.2031C53.8415 10.9753 53.5452 10.8613 53.1807 10.8613C52.93 10.8613 52.7021 10.9183 52.4971 11.0322C52.292 11.1462 52.1302 11.3148 52.0117 11.5381C51.8932 11.7568 51.834 12.028 51.834 12.3516V17H49.9062Z" fill="#292A2E"/>
<path d="M44.7246 17.1504C43.9681 17.1504 43.3118 16.9863 42.7559 16.6582C42.2044 16.3301 41.7783 15.8698 41.4775 15.2773C41.1768 14.6849 41.0264 13.9967 41.0264 13.2129C41.0264 12.4245 41.1768 11.734 41.4775 11.1416C41.7783 10.5446 42.2044 10.082 42.7559 9.75391C43.3118 9.42578 43.9681 9.26172 44.7246 9.26172C45.4811 9.26172 46.1351 9.42578 46.6865 9.75391C47.2425 10.082 47.6709 10.5446 47.9717 11.1416C48.2725 11.734 48.4229 12.4245 48.4229 13.2129C48.4229 13.9967 48.2725 14.6849 47.9717 15.2773C47.6709 15.8698 47.2425 16.3301 46.6865 16.6582C46.1351 16.9863 45.4811 17.1504 44.7246 17.1504ZM44.7246 15.6191C45.112 15.6191 45.4355 15.5143 45.6953 15.3047C45.9551 15.0905 46.1488 14.8011 46.2764 14.4365C46.404 14.0719 46.4678 13.6618 46.4678 13.2061C46.4678 12.7503 46.404 12.3402 46.2764 11.9756C46.1488 11.611 45.9551 11.3239 45.6953 11.1143C45.4355 10.9001 45.112 10.793 44.7246 10.793C44.3372 10.793 44.0137 10.9001 43.7539 11.1143C43.4987 11.3239 43.305 11.611 43.1729 11.9756C43.0452 12.3356 42.9814 12.7458 42.9814 13.2061C42.9814 13.6618 43.0452 14.0719 43.1729 14.4365C43.305 14.8011 43.4987 15.0905 43.7539 15.3047C44.0137 15.5143 44.3372 15.6191 44.7246 15.6191Z" fill="#292A2E"/>
<path d="M35.4756 17.1367C34.5778 17.1367 33.7757 16.9316 33.0693 16.5215C32.363 16.1068 31.8047 15.5098 31.3945 14.7305C30.9844 13.9512 30.7793 13.0124 30.7793 11.9141C30.7793 10.8112 30.9844 9.87012 31.3945 9.09082C31.8092 8.30697 32.3698 7.70996 33.0762 7.2998C33.7871 6.88509 34.5869 6.67773 35.4756 6.67773C36.0452 6.67773 36.5762 6.75749 37.0684 6.91699C37.5651 7.0765 38.0049 7.3112 38.3877 7.62109C38.7705 7.92643 39.085 8.30013 39.3311 8.74219C39.5771 9.18424 39.7389 9.68783 39.8164 10.2529H37.834C37.7839 9.96126 37.6904 9.70378 37.5537 9.48047C37.417 9.25716 37.2461 9.06803 37.041 8.91309C36.8405 8.75358 36.6104 8.63281 36.3506 8.55078C36.0908 8.46875 35.8128 8.42773 35.5166 8.42773C34.9743 8.42773 34.4958 8.56445 34.0811 8.83789C33.6663 9.10677 33.3428 9.50098 33.1104 10.0205C32.8825 10.54 32.7686 11.1712 32.7686 11.9141C32.7686 12.666 32.8848 13.3018 33.1172 13.8213C33.3496 14.3363 33.6709 14.7259 34.0811 14.9902C34.4958 15.2546 34.972 15.3867 35.5098 15.3867C35.806 15.3867 36.0817 15.3457 36.3369 15.2637C36.5967 15.1816 36.8291 15.0632 37.0342 14.9082C37.2438 14.7487 37.417 14.5573 37.5537 14.334C37.6904 14.1061 37.7861 13.8486 37.8408 13.5615H39.8232C39.764 14.04 39.6204 14.4935 39.3926 14.9219C39.1647 15.3503 38.8639 15.7331 38.4902 16.0703C38.1165 16.403 37.6768 16.665 37.1709 16.8564C36.665 17.0433 36.0999 17.1367 35.4756 17.1367Z" fill="#292A2E"/>
</svg>
