<svg width="129" height="24" viewBox="0 0 129 24" fill="none" xmlns="http://www.w3.org/2000/svg">
<path d="M0 6C0 2.68629 2.68629 0 6 0H18C21.3137 0 24 2.68629 24 6V18C24 21.3137 21.3137 24 18 24H6C2.68629 24 0 21.3137 0 18V6Z" fill="#DDDEE1"/>
<path fill-rule="evenodd" clip-rule="evenodd" d="M6.75 19V5H17.25V19H13.3127V15.9375H10.6877V19H6.75ZM9.375 8.0625H11.125V6.75H9.375V8.0625ZM12.875 8.0625H14.625V6.75H12.875V8.0625ZM11.125 11.125H9.375V9.8125H11.125V11.125ZM9.375 14.1875H11.125V12.875H9.375V14.1875ZM14.625 11.125H12.875V9.8125H14.625V11.125ZM12.875 14.1875H14.625V12.875H12.875V14.1875Z" fill="#101214"/>
<path d="M124.529 17.1299C124.105 17.1299 123.748 17.0592 123.456 16.918C123.169 16.7721 122.937 16.5967 122.759 16.3916C122.586 16.182 122.451 15.9792 122.355 15.7832H122.253V17H120.359V6.81445H122.287V10.6357H122.355C122.447 10.4398 122.579 10.237 122.752 10.0273C122.925 9.81315 123.155 9.63314 123.442 9.4873C123.729 9.33691 124.094 9.26172 124.536 9.26172C125.115 9.26172 125.639 9.40983 126.108 9.70605C126.582 10.0023 126.958 10.4421 127.236 11.0254C127.519 11.6087 127.66 12.3311 127.66 13.1924C127.66 14.0355 127.523 14.751 127.25 15.3389C126.977 15.9222 126.603 16.3665 126.129 16.6719C125.66 16.9772 125.126 17.1299 124.529 17.1299ZM123.969 15.5781C124.347 15.5781 124.664 15.4756 124.919 15.2705C125.174 15.0609 125.366 14.776 125.493 14.416C125.625 14.056 125.691 13.6458 125.691 13.1855C125.691 12.7253 125.625 12.3174 125.493 11.9619C125.366 11.6064 125.174 11.3285 124.919 11.1279C124.664 10.9229 124.347 10.8203 123.969 10.8203C123.6 10.8203 123.285 10.9183 123.025 11.1143C122.77 11.3102 122.576 11.5859 122.444 11.9414C122.312 12.2923 122.246 12.707 122.246 13.1855C122.246 13.6595 122.312 14.0765 122.444 14.4365C122.581 14.7965 122.777 15.0768 123.032 15.2773C123.292 15.4779 123.604 15.5781 123.969 15.5781Z" fill="#292A2E"/>
<path d="M114.337 17.0957C113.808 17.0957 113.346 16.9818 112.949 16.7539C112.557 16.526 112.252 16.1979 112.033 15.7695C111.814 15.3366 111.705 14.8193 111.705 14.2178V9.35742H113.633V13.8965C113.633 14.3932 113.76 14.7806 114.016 15.0586C114.271 15.3366 114.622 15.4756 115.068 15.4756C115.374 15.4756 115.643 15.4118 115.875 15.2842C116.107 15.152 116.29 14.9606 116.422 14.71C116.554 14.4593 116.62 14.1585 116.62 13.8076V9.35742H118.548V17H116.723L116.702 15.0996H116.825C116.62 15.7559 116.31 16.2526 115.896 16.5898C115.481 16.9271 114.961 17.0957 114.337 17.0957Z" fill="#292A2E"/>
<path d="M101.328 17V6.81445H103.29V10.9707H107.87V6.81445H109.839V17H107.87V12.6113H103.29V17H101.328Z" fill="#292A2E"/>
<path d="M89.4404 19.7139L89.8848 18.2441L90.1172 18.3057C90.3906 18.3786 90.6322 18.3991 90.8418 18.3672C91.056 18.3353 91.2292 18.2441 91.3613 18.0938C91.498 17.9479 91.5892 17.7406 91.6348 17.4717L91.7168 17.0273L88.8389 9.35742H90.8828L92.2227 13.4111C92.3822 13.9079 92.512 14.4046 92.6123 14.9014C92.7171 15.3981 92.8311 15.9108 92.9541 16.4395H92.4824C92.61 15.9108 92.7331 15.3981 92.8516 14.9014C92.9746 14.4001 93.1182 13.9033 93.2822 13.4111L94.6768 9.35742H96.7002L93.4395 17.9365C93.2845 18.3467 93.0863 18.6999 92.8447 18.9961C92.6077 19.2923 92.3138 19.5179 91.9629 19.6729C91.6165 19.8324 91.1995 19.9121 90.7119 19.9121C90.4476 19.9121 90.2015 19.8916 89.9736 19.8506C89.7503 19.8141 89.5726 19.7686 89.4404 19.7139Z" fill="#292A2E"/>
<path d="M83.0078 12.5498V17H81.0801V9.35742H82.8984L82.9326 11.2578H82.8027C83.0078 10.6107 83.3154 10.1162 83.7256 9.77441C84.1357 9.43262 84.6598 9.26172 85.2979 9.26172C85.8219 9.26172 86.2799 9.37565 86.6719 9.60352C87.0684 9.83138 87.3737 10.1595 87.5879 10.5879C87.8066 11.0163 87.916 11.5335 87.916 12.1396V17H85.9951V12.4609C85.9951 11.9642 85.8675 11.5768 85.6123 11.2988C85.3571 11.0208 85.0062 10.8818 84.5596 10.8818C84.2588 10.8818 83.9899 10.9479 83.7529 11.0801C83.5205 11.2077 83.3382 11.3968 83.2061 11.6475C83.0739 11.8936 83.0078 12.1943 83.0078 12.5498Z" fill="#292A2E"/>
<path d="M75.0918 17.1299C74.5039 17.1299 73.973 16.9772 73.499 16.6719C73.0296 16.3665 72.6559 15.9222 72.3779 15.3389C72.1045 14.751 71.9678 14.0355 71.9678 13.1924C71.9678 12.3311 72.1091 11.6087 72.3916 11.0254C72.6742 10.4421 73.0524 10.0023 73.5264 9.70605C74.0003 9.40983 74.5267 9.26172 75.1055 9.26172C75.543 9.26172 75.9053 9.33691 76.1924 9.4873C76.4795 9.63314 76.7096 9.81315 76.8828 10.0273C77.056 10.237 77.1882 10.4398 77.2793 10.6357H77.3545V9.35742H79.2617V17H77.3613V15.7832H77.2793C77.1882 15.9792 77.0514 16.182 76.8691 16.3916C76.6914 16.6012 76.459 16.7767 76.1719 16.918C75.8848 17.0592 75.5247 17.1299 75.0918 17.1299ZM75.666 15.5781C76.0352 15.5781 76.3473 15.4779 76.6025 15.2773C76.8577 15.0768 77.0514 14.7965 77.1836 14.4365C77.3203 14.0765 77.3887 13.6595 77.3887 13.1855C77.3887 12.707 77.3226 12.2923 77.1904 11.9414C77.0583 11.5859 76.8646 11.3102 76.6094 11.1143C76.3542 10.9183 76.0397 10.8203 75.666 10.8203C75.2878 10.8203 74.9688 10.9206 74.709 11.1211C74.4538 11.3216 74.2601 11.5996 74.1279 11.9551C74.0003 12.3105 73.9365 12.7207 73.9365 13.1855C73.9365 13.6458 74.0026 14.056 74.1348 14.416C74.2669 14.776 74.4606 15.0609 74.7158 15.2705C74.9756 15.4756 75.2923 15.5781 75.666 15.5781Z" fill="#292A2E"/>
<path d="M63.498 19.8574V9.35742H65.3916V10.6357H65.4941C65.5853 10.4398 65.7174 10.237 65.8906 10.0273C66.0638 9.81315 66.2939 9.63314 66.5811 9.4873C66.8682 9.33691 67.2327 9.26172 67.6748 9.26172C68.2536 9.26172 68.7777 9.40983 69.2471 9.70605C69.721 10.0023 70.097 10.4421 70.375 11.0254C70.6576 11.6087 70.7988 12.3311 70.7988 13.1924C70.7988 14.0355 70.6621 14.751 70.3887 15.3389C70.1152 15.9222 69.7415 16.3665 69.2676 16.6719C68.7982 16.9772 68.265 17.1299 67.668 17.1299C67.2441 17.1299 66.8864 17.0592 66.5947 16.918C66.3076 16.7721 66.0752 16.5967 65.8975 16.3916C65.7243 16.182 65.5898 15.9792 65.4941 15.7832H65.4258V19.8574H63.498ZM67.1074 15.5781C67.4857 15.5781 67.8024 15.4756 68.0576 15.2705C68.3128 15.0609 68.5042 14.776 68.6318 14.416C68.764 14.056 68.8301 13.6458 68.8301 13.1855C68.8301 12.7253 68.764 12.3174 68.6318 11.9619C68.5042 11.6064 68.3128 11.3285 68.0576 11.1279C67.8024 10.9229 67.4857 10.8203 67.1074 10.8203C66.7383 10.8203 66.4238 10.9183 66.1641 11.1143C65.9089 11.3102 65.7152 11.5859 65.583 11.9414C65.4508 12.2923 65.3848 12.707 65.3848 13.1855C65.3848 13.6595 65.4508 14.0765 65.583 14.4365C65.7197 14.7965 65.9157 15.0768 66.1709 15.2773C66.4307 15.4779 66.7428 15.5781 67.1074 15.5781Z" fill="#292A2E"/>
<path d="M50.7969 17V9.35742H52.5947L52.6768 11.2305H52.54C52.654 10.7656 52.8249 10.3874 53.0527 10.0957C53.2852 9.80404 53.5563 9.58984 53.8662 9.45312C54.1761 9.31185 54.4997 9.24121 54.8369 9.24121C55.3883 9.24121 55.8327 9.41439 56.1699 9.76074C56.5072 10.1071 56.751 10.6312 56.9014 11.333H56.6758C56.7852 10.859 56.9674 10.4671 57.2227 10.1572C57.4824 9.84733 57.7855 9.61719 58.1318 9.4668C58.4827 9.31641 58.8564 9.24121 59.2529 9.24121C59.7132 9.24121 60.1257 9.34147 60.4902 9.54199C60.8594 9.74251 61.1488 10.0365 61.3584 10.4238C61.5726 10.8112 61.6797 11.2852 61.6797 11.8457V17H59.7588V12.1807C59.7588 11.7295 59.6357 11.3968 59.3896 11.1826C59.1436 10.9684 58.8451 10.8613 58.4941 10.8613C58.2253 10.8613 57.9906 10.9206 57.79 11.0391C57.5941 11.153 57.4414 11.3148 57.332 11.5244C57.2272 11.734 57.1748 11.9779 57.1748 12.2559V17H55.3086V12.1123C55.3086 11.7295 55.1924 11.4264 54.96 11.2031C54.7321 10.9753 54.4359 10.8613 54.0713 10.8613C53.8206 10.8613 53.5928 10.9183 53.3877 11.0322C53.1826 11.1462 53.0208 11.3148 52.9023 11.5381C52.7839 11.7568 52.7246 12.028 52.7246 12.3516V17H50.7969Z" fill="#292A2E"/>
<path d="M45.6152 17.1504C44.8587 17.1504 44.2025 16.9863 43.6465 16.6582C43.0951 16.3301 42.6689 15.8698 42.3682 15.2773C42.0674 14.6849 41.917 13.9967 41.917 13.2129C41.917 12.4245 42.0674 11.734 42.3682 11.1416C42.6689 10.5446 43.0951 10.082 43.6465 9.75391C44.2025 9.42578 44.8587 9.26172 45.6152 9.26172C46.3717 9.26172 47.0257 9.42578 47.5771 9.75391C48.1331 10.082 48.5615 10.5446 48.8623 11.1416C49.1631 11.734 49.3135 12.4245 49.3135 13.2129C49.3135 13.9967 49.1631 14.6849 48.8623 15.2773C48.5615 15.8698 48.1331 16.3301 47.5771 16.6582C47.0257 16.9863 46.3717 17.1504 45.6152 17.1504ZM45.6152 15.6191C46.0026 15.6191 46.3262 15.5143 46.5859 15.3047C46.8457 15.0905 47.0394 14.8011 47.167 14.4365C47.2946 14.0719 47.3584 13.6618 47.3584 13.2061C47.3584 12.7503 47.2946 12.3402 47.167 11.9756C47.0394 11.611 46.8457 11.3239 46.5859 11.1143C46.3262 10.9001 46.0026 10.793 45.6152 10.793C45.2279 10.793 44.9043 10.9001 44.6445 11.1143C44.3893 11.3239 44.1956 11.611 44.0635 11.9756C43.9359 12.3356 43.8721 12.7458 43.8721 13.2061C43.8721 13.6618 43.9359 14.0719 44.0635 14.4365C44.1956 14.8011 44.3893 15.0905 44.6445 15.3047C44.9043 15.5143 45.2279 15.6191 45.6152 15.6191Z" fill="#292A2E"/>
<path d="M36.3662 17.1367C35.4684 17.1367 34.6663 16.9316 33.96 16.5215C33.2536 16.1068 32.6953 15.5098 32.2852 14.7305C31.875 13.9512 31.6699 13.0124 31.6699 11.9141C31.6699 10.8112 31.875 9.87012 32.2852 9.09082C32.6999 8.30697 33.2604 7.70996 33.9668 7.2998C34.6777 6.88509 35.4775 6.67773 36.3662 6.67773C36.9359 6.67773 37.4668 6.75749 37.959 6.91699C38.4557 7.0765 38.8955 7.3112 39.2783 7.62109C39.6611 7.92643 39.9756 8.30013 40.2217 8.74219C40.4678 9.18424 40.6296 9.68783 40.707 10.2529H38.7246C38.6745 9.96126 38.5811 9.70378 38.4443 9.48047C38.3076 9.25716 38.1367 9.06803 37.9316 8.91309C37.7311 8.75358 37.501 8.63281 37.2412 8.55078C36.9814 8.46875 36.7035 8.42773 36.4072 8.42773C35.8649 8.42773 35.3864 8.56445 34.9717 8.83789C34.557 9.10677 34.2334 9.50098 34.001 10.0205C33.7731 10.54 33.6592 11.1712 33.6592 11.9141C33.6592 12.666 33.7754 13.3018 34.0078 13.8213C34.2402 14.3363 34.5615 14.7259 34.9717 14.9902C35.3864 15.2546 35.8626 15.3867 36.4004 15.3867C36.6966 15.3867 36.9723 15.3457 37.2275 15.2637C37.4873 15.1816 37.7197 15.0632 37.9248 14.9082C38.1344 14.7487 38.3076 14.5573 38.4443 14.334C38.5811 14.1061 38.6768 13.8486 38.7314 13.5615H40.7139C40.6546 14.04 40.5111 14.4935 40.2832 14.9219C40.0553 15.3503 39.7546 15.7331 39.3809 16.0703C39.0072 16.403 38.5674 16.665 38.0615 16.8564C37.5557 17.0433 36.9906 17.1367 36.3662 17.1367Z" fill="#292A2E"/>
</svg>
