<svg width="249" height="24" viewBox="0 0 249 24" fill="none" xmlns="http://www.w3.org/2000/svg">
<path d="M0 6C0 2.68629 2.68629 0 6 0H18C21.3137 0 24 2.68629 24 6V18C24 21.3137 21.3137 24 18 24H6C2.68629 24 0 21.3137 0 18V6Z" fill="#FFC716"/>
<path d="M16.4302 17.42C15.2235 18.4075 13.6809 19 12 19H6.4V18.5333L10.2385 14.7515C10.7468 15.0776 11.3513 15.2667 12 15.2667C12.6487 15.2667 13.2533 15.0776 13.7616 14.7515L16.4302 17.42Z" fill="#101214"/>
<path d="M17.4201 16.4301C18.4076 15.2234 19 13.6809 19 12C19 10.3191 18.4076 8.77665 17.4201 7.56995L14.7515 10.2385C15.0776 10.7468 15.2667 11.3513 15.2667 12C15.2667 12.6487 15.0776 13.2532 14.7515 13.7615L17.4201 16.4301Z" fill="#101214"/>
<path d="M16.4302 6.57999L13.7616 9.24855C13.2533 8.92245 12.6487 8.73333 12 8.73333C11.3513 8.73333 10.7468 8.92241 10.2385 9.24847L7.56995 6.57989C8.77665 5.59244 10.3191 5 12 5C13.6809 5 15.2235 5.59248 16.4302 6.57999Z" fill="#101214"/>
<path d="M6.57999 7.56983C5.59248 8.77655 5 10.3191 5 12C5 13.6809 5.59248 15.2235 6.57999 16.4302L9.24855 13.7616C8.92245 13.2533 8.73333 12.6487 8.73333 12C8.73333 11.3513 8.92245 10.7467 9.24855 10.2384L6.57999 7.56983Z" fill="#101214"/>
<path d="M246.918 17.0342C246.029 17.0342 245.389 16.8747 244.997 16.5557C244.605 16.2367 244.409 15.7148 244.409 14.9902V10.9229H243.247V9.50098H244.409V7.68262H246.303V9.50098H247.868V10.9229H246.303V14.5527C246.303 14.9082 246.38 15.168 246.535 15.332C246.69 15.4915 246.941 15.5713 247.287 15.5713C247.41 15.5713 247.513 15.569 247.595 15.5645C247.677 15.5553 247.768 15.5462 247.868 15.5371V16.9521C247.745 16.9704 247.602 16.9886 247.438 17.0068C247.273 17.0251 247.1 17.0342 246.918 17.0342Z" fill="#292A2E"/>
<path d="M235.194 17V9.50098H237.061V10.6494H237.184C237.357 10.2438 237.623 9.9248 237.983 9.69238C238.348 9.45996 238.799 9.34375 239.337 9.34375C240.175 9.34375 240.813 9.58757 241.251 10.0752C241.693 10.5628 241.914 11.2533 241.914 12.1465V17H240.041V12.5771C240.041 12.0212 239.925 11.6042 239.692 11.3262C239.465 11.0436 239.104 10.9023 238.612 10.9023C238.293 10.9023 238.018 10.9753 237.785 11.1211C237.553 11.2624 237.373 11.4629 237.245 11.7227C237.122 11.9824 237.061 12.29 237.061 12.6455V17H235.194Z" fill="#292A2E"/>
<path d="M230.102 17.1572C229.345 17.1572 228.696 17 228.153 16.6855C227.611 16.3665 227.194 15.9176 226.902 15.3389C226.611 14.7555 226.465 14.0651 226.465 13.2676V13.2607C226.465 12.4632 226.611 11.7728 226.902 11.1895C227.194 10.6016 227.606 10.1481 228.14 9.8291C228.673 9.50553 229.299 9.34375 230.02 9.34375C230.74 9.34375 231.362 9.50098 231.886 9.81543C232.414 10.1253 232.82 10.5628 233.103 11.1279C233.385 11.693 233.526 12.3538 233.526 13.1104V13.7051H227.401V12.502H232.624L231.735 13.6299V12.8848C231.735 12.4154 231.665 12.0257 231.523 11.7158C231.382 11.4014 231.184 11.1644 230.929 11.0049C230.674 10.8454 230.38 10.7656 230.047 10.7656C229.714 10.7656 229.418 10.8477 229.158 11.0117C228.898 11.1758 228.693 11.415 228.543 11.7295C228.397 12.0439 228.324 12.429 228.324 12.8848V13.6367C228.324 14.0788 228.397 14.457 228.543 14.7715C228.689 15.0814 228.896 15.3184 229.165 15.4824C229.438 15.6465 229.762 15.7285 230.136 15.7285C230.437 15.7285 230.692 15.6852 230.901 15.5986C231.116 15.512 231.286 15.4095 231.414 15.291C231.546 15.168 231.637 15.0563 231.688 14.9561L231.708 14.9082H233.458L233.444 14.9766C233.385 15.2135 233.276 15.4596 233.116 15.7148C232.961 15.9701 232.749 16.207 232.48 16.4258C232.212 16.64 231.879 16.8154 231.482 16.9521C231.09 17.0889 230.63 17.1572 230.102 17.1572Z" fill="#292A2E"/>
<path d="M213.921 17V9.50098H215.787V10.6699H215.91C216.07 10.2461 216.329 9.92025 216.689 9.69238C217.054 9.45996 217.485 9.34375 217.981 9.34375C218.319 9.34375 218.624 9.39844 218.897 9.50781C219.175 9.61719 219.412 9.77441 219.608 9.97949C219.804 10.1846 219.955 10.4307 220.06 10.7178H220.183C220.301 10.4398 220.47 10.1982 220.688 9.99316C220.912 9.78809 221.174 9.62858 221.475 9.51465C221.775 9.40072 222.099 9.34375 222.445 9.34375C222.947 9.34375 223.377 9.44629 223.737 9.65137C224.102 9.85189 224.382 10.139 224.578 10.5127C224.774 10.8818 224.872 11.3262 224.872 11.8457V17H222.999V12.3105C222.999 11.9961 222.951 11.7363 222.855 11.5312C222.764 11.3216 222.623 11.1644 222.432 11.0596C222.24 10.9548 221.999 10.9023 221.707 10.9023C221.424 10.9023 221.181 10.9661 220.976 11.0938C220.771 11.2214 220.611 11.3945 220.497 11.6133C220.383 11.832 220.326 12.0804 220.326 12.3584V17H218.453V12.2012C218.453 11.9323 218.401 11.6999 218.296 11.5039C218.196 11.3079 218.05 11.1598 217.858 11.0596C217.667 10.9548 217.437 10.9023 217.168 10.9023C216.899 10.9023 216.66 10.9707 216.45 11.1074C216.245 11.2396 216.083 11.4242 215.965 11.6611C215.846 11.8936 215.787 12.1579 215.787 12.4541V17H213.921Z" fill="#292A2E"/>
<path d="M208.828 17.1572C208.072 17.1572 207.422 17 206.88 16.6855C206.338 16.3665 205.921 15.9176 205.629 15.3389C205.337 14.7555 205.191 14.0651 205.191 13.2676V13.2607C205.191 12.4632 205.337 11.7728 205.629 11.1895C205.921 10.6016 206.333 10.1481 206.866 9.8291C207.399 9.50553 208.026 9.34375 208.746 9.34375C209.466 9.34375 210.088 9.50098 210.612 9.81543C211.141 10.1253 211.547 10.5628 211.829 11.1279C212.112 11.693 212.253 12.3538 212.253 13.1104V13.7051H206.128V12.502H211.351L210.462 13.6299V12.8848C210.462 12.4154 210.391 12.0257 210.25 11.7158C210.109 11.4014 209.91 11.1644 209.655 11.0049C209.4 10.8454 209.106 10.7656 208.773 10.7656C208.441 10.7656 208.145 10.8477 207.885 11.0117C207.625 11.1758 207.42 11.415 207.27 11.7295C207.124 12.0439 207.051 12.429 207.051 12.8848V13.6367C207.051 14.0788 207.124 14.457 207.27 14.7715C207.415 15.0814 207.623 15.3184 207.892 15.4824C208.165 15.6465 208.489 15.7285 208.862 15.7285C209.163 15.7285 209.418 15.6852 209.628 15.5986C209.842 15.512 210.013 15.4095 210.141 15.291C210.273 15.168 210.364 15.0563 210.414 14.9561L210.435 14.9082H212.185L212.171 14.9766C212.112 15.2135 212.002 15.4596 211.843 15.7148C211.688 15.9701 211.476 16.207 211.207 16.4258C210.938 16.64 210.605 16.8154 210.209 16.9521C209.817 17.0889 209.357 17.1572 208.828 17.1572Z" fill="#292A2E"/>
<path d="M199.887 19.6387C199.208 19.6387 198.624 19.5498 198.137 19.3721C197.649 19.1943 197.266 18.9437 196.988 18.6201C196.71 18.3011 196.542 17.932 196.482 17.5127L196.489 17.4785H198.342L198.349 17.5059C198.408 17.7292 198.57 17.9115 198.834 18.0527C199.103 18.1986 199.465 18.2715 199.921 18.2715C200.472 18.2715 200.901 18.1462 201.206 17.8955C201.516 17.6494 201.671 17.3008 201.671 16.8496V15.4346H201.548C201.411 15.6989 201.231 15.9245 201.008 16.1113C200.785 16.2936 200.527 16.4326 200.235 16.5283C199.948 16.6195 199.632 16.665 199.285 16.665C198.656 16.665 198.112 16.5146 197.651 16.2139C197.196 15.9085 196.842 15.487 196.592 14.9492C196.346 14.4069 196.223 13.7803 196.223 13.0693V13.0557C196.223 12.3265 196.346 11.6862 196.592 11.1348C196.842 10.5833 197.198 10.1527 197.658 9.84277C198.123 9.53288 198.677 9.37793 199.319 9.37793C199.666 9.37793 199.982 9.43262 200.27 9.54199C200.561 9.64681 200.816 9.79948 201.035 10C201.258 10.2005 201.438 10.4421 201.575 10.7246H201.664V9.50098H203.53V16.7881C203.53 17.3714 203.382 17.875 203.086 18.2988C202.79 18.7272 202.368 19.0576 201.821 19.29C201.274 19.5225 200.63 19.6387 199.887 19.6387ZM199.9 15.209C200.274 15.209 200.593 15.1201 200.857 14.9424C201.126 14.7601 201.331 14.5094 201.473 14.1904C201.618 13.8669 201.691 13.4932 201.691 13.0693V13.0557C201.691 12.6318 201.618 12.2581 201.473 11.9346C201.331 11.611 201.126 11.3581 200.857 11.1758C200.593 10.9935 200.274 10.9023 199.9 10.9023C199.527 10.9023 199.208 10.9935 198.943 11.1758C198.684 11.3581 198.483 11.611 198.342 11.9346C198.205 12.2536 198.137 12.625 198.137 13.0488V13.0625C198.137 13.4863 198.205 13.86 198.342 14.1836C198.483 14.5072 198.684 14.7601 198.943 14.9424C199.208 15.1201 199.527 15.209 199.9 15.209Z" fill="#292A2E"/>
<path d="M190.48 17.123C190.007 17.123 189.583 17.0319 189.209 16.8496C188.84 16.6628 188.55 16.4007 188.341 16.0635C188.131 15.7262 188.026 15.3298 188.026 14.874V14.8604C188.026 14.4092 188.138 14.0241 188.361 13.7051C188.585 13.3815 188.91 13.1286 189.339 12.9463C189.767 12.764 190.289 12.6546 190.904 12.6182L193.693 12.4473V13.623L191.178 13.7871C190.731 13.8145 190.398 13.9102 190.18 14.0742C189.965 14.2383 189.858 14.4639 189.858 14.751V14.7646C189.858 15.0654 189.972 15.3024 190.2 15.4756C190.428 15.6442 190.722 15.7285 191.082 15.7285C191.406 15.7285 191.693 15.6647 191.943 15.5371C192.199 15.4049 192.399 15.2295 192.545 15.0107C192.695 14.7874 192.771 14.5368 192.771 14.2588V11.8799C192.771 11.529 192.657 11.2601 192.429 11.0732C192.205 10.8864 191.877 10.793 191.444 10.793C191.071 10.793 190.765 10.8568 190.528 10.9844C190.296 11.112 190.139 11.2943 190.057 11.5312L190.05 11.5518H188.307L188.313 11.4902C188.368 11.0573 188.535 10.6813 188.812 10.3623C189.09 10.0387 189.462 9.78809 189.927 9.61035C190.392 9.43262 190.929 9.34375 191.54 9.34375C192.196 9.34375 192.752 9.44401 193.208 9.64453C193.668 9.84505 194.017 10.1344 194.254 10.5127C194.495 10.891 194.616 11.3467 194.616 11.8799V17H192.771V15.9883H192.647C192.52 16.2253 192.347 16.4281 192.128 16.5967C191.914 16.7653 191.668 16.8952 191.39 16.9863C191.112 17.0775 190.809 17.123 190.48 17.123Z" fill="#292A2E"/>
<path d="M179.755 17V9.50098H181.621V10.6494H181.744C181.917 10.2438 182.184 9.9248 182.544 9.69238C182.909 9.45996 183.36 9.34375 183.897 9.34375C184.736 9.34375 185.374 9.58757 185.812 10.0752C186.254 10.5628 186.475 11.2533 186.475 12.1465V17H184.602V12.5771C184.602 12.0212 184.485 11.6042 184.253 11.3262C184.025 11.0436 183.665 10.9023 183.173 10.9023C182.854 10.9023 182.578 10.9753 182.346 11.1211C182.113 11.2624 181.933 11.4629 181.806 11.7227C181.683 11.9824 181.621 12.29 181.621 12.6455V17H179.755Z" fill="#292A2E"/>
<path d="M173.623 17.123C173.149 17.123 172.725 17.0319 172.352 16.8496C171.982 16.6628 171.693 16.4007 171.483 16.0635C171.274 15.7262 171.169 15.3298 171.169 14.874V14.8604C171.169 14.4092 171.281 14.0241 171.504 13.7051C171.727 13.3815 172.053 13.1286 172.481 12.9463C172.91 12.764 173.432 12.6546 174.047 12.6182L176.836 12.4473V13.623L174.32 13.7871C173.874 13.8145 173.541 13.9102 173.322 14.0742C173.108 14.2383 173.001 14.4639 173.001 14.751V14.7646C173.001 15.0654 173.115 15.3024 173.343 15.4756C173.571 15.6442 173.865 15.7285 174.225 15.7285C174.548 15.7285 174.835 15.6647 175.086 15.5371C175.341 15.4049 175.542 15.2295 175.688 15.0107C175.838 14.7874 175.913 14.5368 175.913 14.2588V11.8799C175.913 11.529 175.799 11.2601 175.571 11.0732C175.348 10.8864 175.02 10.793 174.587 10.793C174.213 10.793 173.908 10.8568 173.671 10.9844C173.438 11.112 173.281 11.2943 173.199 11.5312L173.192 11.5518H171.449L171.456 11.4902C171.511 11.0573 171.677 10.6813 171.955 10.3623C172.233 10.0387 172.604 9.78809 173.069 9.61035C173.534 9.43262 174.072 9.34375 174.683 9.34375C175.339 9.34375 175.895 9.44401 176.351 9.64453C176.811 9.84505 177.16 10.1344 177.396 10.5127C177.638 10.891 177.759 11.3467 177.759 11.8799V17H175.913V15.9883H175.79C175.662 16.2253 175.489 16.4281 175.271 16.5967C175.056 16.7653 174.81 16.8952 174.532 16.9863C174.254 17.0775 173.951 17.123 173.623 17.123Z" fill="#292A2E"/>
<path d="M159.145 17V7.13574H161.366L164.196 14.5186H164.312L167.143 7.13574H169.357V17H167.621V10.1572H166.671L168.551 7.40918L164.88 17H163.622L159.958 7.40918L161.831 10.1572H160.881V17H159.145Z" fill="#292A2E"/>
<path d="M150.203 17.1572C149.447 17.1572 148.797 17 148.255 16.6855C147.713 16.3665 147.296 15.9176 147.004 15.3389C146.712 14.7555 146.566 14.0651 146.566 13.2676V13.2607C146.566 12.4632 146.712 11.7728 147.004 11.1895C147.296 10.6016 147.708 10.1481 148.241 9.8291C148.774 9.50553 149.401 9.34375 150.121 9.34375C150.841 9.34375 151.463 9.50098 151.987 9.81543C152.516 10.1253 152.922 10.5628 153.204 11.1279C153.487 11.693 153.628 12.3538 153.628 13.1104V13.7051H147.503V12.502H152.726L151.837 13.6299V12.8848C151.837 12.4154 151.766 12.0257 151.625 11.7158C151.484 11.4014 151.285 11.1644 151.03 11.0049C150.775 10.8454 150.481 10.7656 150.148 10.7656C149.816 10.7656 149.52 10.8477 149.26 11.0117C149 11.1758 148.795 11.415 148.645 11.7295C148.499 12.0439 148.426 12.429 148.426 12.8848V13.6367C148.426 14.0788 148.499 14.457 148.645 14.7715C148.79 15.0814 148.998 15.3184 149.267 15.4824C149.54 15.6465 149.864 15.7285 150.237 15.7285C150.538 15.7285 150.793 15.6852 151.003 15.5986C151.217 15.512 151.388 15.4095 151.516 15.291C151.648 15.168 151.739 15.0563 151.789 14.9561L151.81 14.9082H153.56L153.546 14.9766C153.487 15.2135 153.377 15.4596 153.218 15.7148C153.063 15.9701 152.851 16.207 152.582 16.4258C152.313 16.64 151.98 16.8154 151.584 16.9521C151.192 17.0889 150.732 17.1572 150.203 17.1572Z" fill="#292A2E"/>
<path d="M142.048 17.1572C141.278 17.1572 140.621 17.0023 140.079 16.6924C139.537 16.3825 139.122 15.9359 138.835 15.3525C138.548 14.7692 138.404 14.0651 138.404 13.2402V13.2266C138.404 12.4062 138.546 11.709 138.828 11.1348C139.115 10.556 139.53 10.1139 140.072 9.80859C140.615 9.4987 141.271 9.34375 142.041 9.34375C142.697 9.34375 143.26 9.45768 143.729 9.68555C144.203 9.90885 144.577 10.2233 144.851 10.6289C145.129 11.0299 145.297 11.5016 145.356 12.0439V12.0645H143.606L143.6 12.0508C143.531 11.6862 143.365 11.3923 143.101 11.1689C142.841 10.9411 142.49 10.8271 142.048 10.8271C141.679 10.8271 141.364 10.9206 141.104 11.1074C140.845 11.2943 140.646 11.5654 140.51 11.9209C140.373 12.2764 140.305 12.7116 140.305 13.2266V13.2402C140.305 13.7552 140.373 14.195 140.51 14.5596C140.651 14.9196 140.849 15.1953 141.104 15.3867C141.364 15.5781 141.679 15.6738 142.048 15.6738C142.472 15.6738 142.811 15.5758 143.066 15.3799C143.326 15.1839 143.502 14.8923 143.593 14.5049L143.606 14.4844L145.35 14.4775V14.5254C145.272 15.054 145.094 15.5166 144.816 15.9131C144.543 16.305 144.174 16.6104 143.709 16.8291C143.244 17.0479 142.69 17.1572 142.048 17.1572Z" fill="#292A2E"/>
<path d="M134.856 17V9.50098H136.723V17H134.856ZM135.793 8.29785C135.501 8.29785 135.248 8.19531 135.034 7.99023C134.825 7.7806 134.72 7.52995 134.72 7.23828C134.72 6.94206 134.825 6.69141 135.034 6.48633C135.248 6.27669 135.501 6.17188 135.793 6.17188C136.089 6.17188 136.342 6.27669 136.552 6.48633C136.766 6.69141 136.873 6.94206 136.873 7.23828C136.873 7.52995 136.766 7.7806 136.552 7.99023C136.342 8.19531 136.089 8.29785 135.793 8.29785Z" fill="#292A2E"/>
<path d="M128.759 17L126.127 9.50098H128.123L129.757 15.2227H129.88L131.493 9.50098H133.462L130.837 17H128.759Z" fill="#292A2E"/>
<path d="M120.679 17V9.50098H122.545V10.6562H122.668C122.791 10.2507 123.017 9.9362 123.345 9.71289C123.677 9.48958 124.088 9.37793 124.575 9.37793C124.707 9.37793 124.837 9.38704 124.965 9.40527C125.092 9.41895 125.202 9.43945 125.293 9.4668V11.1143C125.152 11.0778 125.006 11.0505 124.855 11.0322C124.71 11.014 124.562 11.0049 124.411 11.0049C124.033 11.0049 123.702 11.0755 123.42 11.2168C123.142 11.3581 122.925 11.5586 122.771 11.8184C122.62 12.0736 122.545 12.3789 122.545 12.7344V17H120.679Z" fill="#292A2E"/>
<path d="M115.586 17.1572C114.829 17.1572 114.18 17 113.638 16.6855C113.095 16.3665 112.678 15.9176 112.387 15.3389C112.095 14.7555 111.949 14.0651 111.949 13.2676V13.2607C111.949 12.4632 112.095 11.7728 112.387 11.1895C112.678 10.6016 113.091 10.1481 113.624 9.8291C114.157 9.50553 114.784 9.34375 115.504 9.34375C116.224 9.34375 116.846 9.50098 117.37 9.81543C117.899 10.1253 118.304 10.5628 118.587 11.1279C118.869 11.693 119.011 12.3538 119.011 13.1104V13.7051H112.886V12.502H118.108L117.22 13.6299V12.8848C117.22 12.4154 117.149 12.0257 117.008 11.7158C116.867 11.4014 116.668 11.1644 116.413 11.0049C116.158 10.8454 115.864 10.7656 115.531 10.7656C115.199 10.7656 114.902 10.8477 114.643 11.0117C114.383 11.1758 114.178 11.415 114.027 11.7295C113.882 12.0439 113.809 12.429 113.809 12.8848V13.6367C113.809 14.0788 113.882 14.457 114.027 14.7715C114.173 15.0814 114.381 15.3184 114.649 15.4824C114.923 15.6465 115.246 15.7285 115.62 15.7285C115.921 15.7285 116.176 15.6852 116.386 15.5986C116.6 15.512 116.771 15.4095 116.898 15.291C117.031 15.168 117.122 15.0563 117.172 14.9561L117.192 14.9082H118.942L118.929 14.9766C118.869 15.2135 118.76 15.4596 118.601 15.7148C118.446 15.9701 118.234 16.207 117.965 16.4258C117.696 16.64 117.363 16.8154 116.967 16.9521C116.575 17.0889 116.115 17.1572 115.586 17.1572Z" fill="#292A2E"/>
<path d="M106.631 17.2529C105.852 17.2529 105.175 17.1344 104.601 16.8975C104.031 16.6605 103.582 16.3278 103.254 15.8994C102.93 15.471 102.746 14.9697 102.7 14.3955L102.693 14.293H104.566L104.573 14.3613C104.605 14.6165 104.71 14.8421 104.888 15.0381C105.07 15.234 105.314 15.3867 105.619 15.4961C105.929 15.6009 106.285 15.6533 106.686 15.6533C107.064 15.6533 107.396 15.5964 107.684 15.4824C107.975 15.3685 108.203 15.209 108.367 15.0039C108.531 14.7988 108.613 14.5664 108.613 14.3066V14.2998C108.613 13.9626 108.479 13.6891 108.21 13.4795C107.941 13.2699 107.497 13.1012 106.877 12.9736L105.824 12.7549C104.808 12.5452 104.067 12.2035 103.603 11.7295C103.138 11.251 102.905 10.6403 102.905 9.89746V9.89062C102.91 9.28906 103.069 8.7627 103.384 8.31152C103.703 7.86035 104.14 7.50944 104.696 7.25879C105.257 7.00814 105.899 6.88281 106.624 6.88281C107.371 6.88281 108.016 7.00814 108.559 7.25879C109.101 7.50488 109.525 7.84212 109.83 8.27051C110.14 8.69434 110.315 9.17741 110.356 9.71973L110.363 9.80176H108.531L108.518 9.71973C108.477 9.47363 108.374 9.25944 108.21 9.07715C108.05 8.8903 107.834 8.74447 107.561 8.63965C107.292 8.53027 106.977 8.47786 106.617 8.48242C106.266 8.48242 105.959 8.53483 105.694 8.63965C105.43 8.73991 105.223 8.88574 105.072 9.07715C104.922 9.264 104.847 9.48958 104.847 9.75391V9.76074C104.847 10.0889 104.977 10.36 105.236 10.5742C105.501 10.7884 105.931 10.9548 106.528 11.0732L107.574 11.2988C108.271 11.4401 108.839 11.6315 109.276 11.873C109.714 12.1146 110.035 12.4176 110.24 12.7822C110.45 13.1423 110.555 13.5752 110.555 14.0811V14.0879C110.555 14.735 110.395 15.2956 110.076 15.7695C109.757 16.2389 109.304 16.6035 108.716 16.8633C108.132 17.123 107.438 17.2529 106.631 17.2529Z" fill="#292A2E"/>
<path d="M93.3213 17V9.50098H95.1875V10.6562H95.3105C95.4336 10.2507 95.6592 9.9362 95.9873 9.71289C96.32 9.48958 96.7301 9.37793 97.2178 9.37793C97.3499 9.37793 97.4798 9.38704 97.6074 9.40527C97.735 9.41895 97.8444 9.43945 97.9355 9.4668V11.1143C97.7943 11.0778 97.6484 11.0505 97.498 11.0322C97.3522 11.014 97.2041 11.0049 97.0537 11.0049C96.6755 11.0049 96.3451 11.0755 96.0625 11.2168C95.7845 11.3581 95.568 11.5586 95.4131 11.8184C95.2627 12.0736 95.1875 12.3789 95.1875 12.7344V17H93.3213Z" fill="#292A2E"/>
<path d="M88.2285 17.1572C87.472 17.1572 86.8226 17 86.2803 16.6855C85.738 16.3665 85.321 15.9176 85.0293 15.3389C84.7376 14.7555 84.5918 14.0651 84.5918 13.2676V13.2607C84.5918 12.4632 84.7376 11.7728 85.0293 11.1895C85.321 10.6016 85.7334 10.1481 86.2666 9.8291C86.7998 9.50553 87.4264 9.34375 88.1465 9.34375C88.8665 9.34375 89.4886 9.50098 90.0127 9.81543C90.5413 10.1253 90.9469 10.5628 91.2295 11.1279C91.512 11.693 91.6533 12.3538 91.6533 13.1104V13.7051H85.5283V12.502H90.751L89.8623 13.6299V12.8848C89.8623 12.4154 89.7917 12.0257 89.6504 11.7158C89.5091 11.4014 89.3109 11.1644 89.0557 11.0049C88.8005 10.8454 88.5065 10.7656 88.1738 10.7656C87.8411 10.7656 87.5449 10.8477 87.2852 11.0117C87.0254 11.1758 86.8203 11.415 86.6699 11.7295C86.5241 12.0439 86.4512 12.429 86.4512 12.8848V13.6367C86.4512 14.0788 86.5241 14.457 86.6699 14.7715C86.8158 15.0814 87.0231 15.3184 87.292 15.4824C87.5654 15.6465 87.889 15.7285 88.2627 15.7285C88.5635 15.7285 88.8187 15.6852 89.0283 15.5986C89.2425 15.512 89.4134 15.4095 89.541 15.291C89.6732 15.168 89.7643 15.0563 89.8145 14.9561L89.835 14.9082H91.585L91.5713 14.9766C91.512 15.2135 91.4027 15.4596 91.2432 15.7148C91.0882 15.9701 90.8763 16.207 90.6074 16.4258C90.3385 16.64 90.0059 16.8154 89.6094 16.9521C89.2174 17.0889 88.7572 17.1572 88.2285 17.1572Z" fill="#292A2E"/>
<path d="M72.0479 17V9.50098H73.9141V10.6699H74.0371C74.1966 10.2461 74.4564 9.92025 74.8164 9.69238C75.181 9.45996 75.6117 9.34375 76.1084 9.34375C76.4456 9.34375 76.751 9.39844 77.0244 9.50781C77.3024 9.61719 77.5394 9.77441 77.7354 9.97949C77.9313 10.1846 78.0817 10.4307 78.1865 10.7178H78.3096C78.4281 10.4398 78.5967 10.1982 78.8154 9.99316C79.0387 9.78809 79.3008 9.62858 79.6016 9.51465C79.9023 9.40072 80.2259 9.34375 80.5723 9.34375C81.0736 9.34375 81.5042 9.44629 81.8643 9.65137C82.2288 9.85189 82.5091 10.139 82.7051 10.5127C82.901 10.8818 82.999 11.3262 82.999 11.8457V17H81.126V12.3105C81.126 11.9961 81.0781 11.7363 80.9824 11.5312C80.8913 11.3216 80.75 11.1644 80.5586 11.0596C80.3672 10.9548 80.1257 10.9023 79.834 10.9023C79.5514 10.9023 79.3076 10.9661 79.1025 11.0938C78.8975 11.2214 78.738 11.3945 78.624 11.6133C78.5101 11.832 78.4531 12.0804 78.4531 12.3584V17H76.5801V12.2012C76.5801 11.9323 76.5277 11.6999 76.4229 11.5039C76.3226 11.3079 76.1768 11.1598 75.9854 11.0596C75.7939 10.9548 75.5638 10.9023 75.2949 10.9023C75.026 10.9023 74.7868 10.9707 74.5771 11.1074C74.3721 11.2396 74.2103 11.4242 74.0918 11.6611C73.9733 11.8936 73.9141 12.1579 73.9141 12.4541V17H72.0479Z" fill="#292A2E"/>
<path d="M66.7227 17.1572C65.9616 17.1572 65.3076 17.0023 64.7607 16.6924C64.2139 16.3779 63.7923 15.929 63.4961 15.3457C63.2044 14.7624 63.0586 14.0651 63.0586 13.2539V13.2402C63.0586 12.4336 63.2067 11.7409 63.5029 11.1621C63.7992 10.5788 64.2207 10.1299 64.7676 9.81543C65.319 9.50098 65.9707 9.34375 66.7227 9.34375C67.4792 9.34375 68.1309 9.50098 68.6777 9.81543C69.2246 10.1253 69.6462 10.5719 69.9424 11.1553C70.2386 11.7386 70.3867 12.4336 70.3867 13.2402V13.2539C70.3867 14.0651 70.2386 14.7624 69.9424 15.3457C69.6507 15.929 69.2314 16.3779 68.6846 16.6924C68.1377 17.0023 67.4837 17.1572 66.7227 17.1572ZM66.7227 15.6738C67.0964 15.6738 67.4108 15.5781 67.666 15.3867C67.9258 15.1908 68.124 14.9128 68.2607 14.5527C68.402 14.1927 68.4727 13.7598 68.4727 13.2539V13.2402C68.4727 12.7344 68.402 12.3037 68.2607 11.9482C68.124 11.5882 67.9258 11.3125 67.666 11.1211C67.4062 10.9251 67.0918 10.8271 66.7227 10.8271C66.3535 10.8271 66.0391 10.9251 65.7793 11.1211C65.5195 11.3125 65.319 11.5882 65.1777 11.9482C65.041 12.3037 64.9727 12.7344 64.9727 13.2402V13.2539C64.9727 13.7643 65.041 14.1995 65.1777 14.5596C65.3145 14.9196 65.5127 15.1953 65.7725 15.3867C66.0368 15.5781 66.3535 15.6738 66.7227 15.6738Z" fill="#292A2E"/>
<path d="M60.8574 17.0342C59.9688 17.0342 59.3285 16.8747 58.9365 16.5557C58.5446 16.2367 58.3486 15.7148 58.3486 14.9902V10.9229H57.1865V9.50098H58.3486V7.68262H60.2422V9.50098H61.8076V10.9229H60.2422V14.5527C60.2422 14.9082 60.3197 15.168 60.4746 15.332C60.6296 15.4915 60.8802 15.5713 61.2266 15.5713C61.3496 15.5713 61.4521 15.569 61.5342 15.5645C61.6162 15.5553 61.7074 15.5462 61.8076 15.5371V16.9521C61.6846 16.9704 61.541 16.9886 61.377 17.0068C61.2129 17.0251 61.0397 17.0342 60.8574 17.0342Z" fill="#292A2E"/>
<path d="M52.9346 17.1572C52.2783 17.1572 51.7132 17.0638 51.2393 16.877C50.7699 16.6901 50.4007 16.4349 50.1318 16.1113C49.863 15.7832 49.7057 15.4049 49.6602 14.9766L49.6533 14.9561H51.499L51.5059 14.9766C51.5924 15.2181 51.7542 15.4186 51.9912 15.5781C52.2327 15.7331 52.5563 15.8105 52.9619 15.8105C53.2308 15.8105 53.4655 15.7741 53.666 15.7012C53.8665 15.6237 54.0238 15.5212 54.1377 15.3936C54.2516 15.2614 54.3086 15.1087 54.3086 14.9355V14.9219C54.3086 14.7122 54.2243 14.5391 54.0557 14.4023C53.887 14.2611 53.6045 14.1471 53.208 14.0605L51.9707 13.7939C51.4967 13.6891 51.1025 13.541 50.7881 13.3496C50.4736 13.1582 50.2389 12.9235 50.084 12.6455C49.929 12.3675 49.8516 12.0439 49.8516 11.6748V11.668C49.8516 11.2031 49.9792 10.7975 50.2344 10.4512C50.4941 10.1003 50.8542 9.8291 51.3145 9.6377C51.7793 9.44173 52.3148 9.34375 52.9209 9.34375C53.5589 9.34375 54.1012 9.43945 54.5479 9.63086C54.999 9.82227 55.3477 10.082 55.5938 10.4102C55.8444 10.7337 55.9857 11.0983 56.0176 11.5039V11.5244H54.2676V11.4971C54.2083 11.2783 54.0648 11.0892 53.8369 10.9297C53.609 10.7656 53.3037 10.6836 52.9209 10.6836C52.6794 10.6836 52.4652 10.7201 52.2783 10.793C52.096 10.8659 51.9502 10.9661 51.8408 11.0938C51.736 11.2214 51.6836 11.374 51.6836 11.5518V11.5654C51.6836 11.7021 51.7178 11.8229 51.7861 11.9277C51.859 12.028 51.9753 12.1169 52.1348 12.1943C52.2943 12.2718 52.5062 12.3424 52.7705 12.4062L54.001 12.6729C54.7438 12.8369 55.293 13.083 55.6484 13.4111C56.0039 13.7347 56.1816 14.1722 56.1816 14.7236V14.7305C56.1816 15.2181 56.0426 15.6442 55.7646 16.0088C55.4867 16.3734 55.1038 16.6559 54.6162 16.8564C54.1286 17.057 53.568 17.1572 52.9346 17.1572Z" fill="#292A2E"/>
<path d="M43.8223 17.1572C43.2617 17.1572 42.79 17.0479 42.4072 16.8291C42.029 16.6104 41.7441 16.2913 41.5527 15.8721C41.3659 15.4528 41.2725 14.9447 41.2725 14.3477V9.50098H43.1387V13.9238C43.1387 14.4753 43.248 14.8923 43.4668 15.1748C43.6855 15.4574 44.041 15.5986 44.5332 15.5986C44.7884 15.5986 45.014 15.5576 45.21 15.4756C45.4105 15.389 45.5791 15.2705 45.7158 15.1201C45.8525 14.9697 45.9528 14.7874 46.0166 14.5732C46.085 14.359 46.1191 14.1175 46.1191 13.8486V9.50098H47.9922V17H46.1191V15.8516H46.0029C45.889 16.1204 45.7295 16.3529 45.5244 16.5488C45.3193 16.7448 45.0732 16.8952 44.7861 17C44.499 17.1048 44.1777 17.1572 43.8223 17.1572Z" fill="#292A2E"/>
<path d="M35.3594 17.2529C34.416 17.2529 33.6003 17.0433 32.9121 16.624C32.2285 16.2048 31.7021 15.6077 31.333 14.833C30.9639 14.0583 30.7793 13.14 30.7793 12.0781V12.0645C30.7793 10.9935 30.9639 10.0729 31.333 9.30273C31.7021 8.52799 32.2285 7.93099 32.9121 7.51172C33.5957 7.09245 34.4115 6.88281 35.3594 6.88281C36.125 6.88281 36.8132 7.03548 37.4238 7.34082C38.0391 7.6416 38.5381 8.05632 38.9209 8.58496C39.3037 9.11361 39.5293 9.71745 39.5977 10.3965V10.4717H37.7109L37.7041 10.4307C37.6266 10.0524 37.4785 9.72201 37.2598 9.43945C37.0456 9.1569 36.7744 8.93587 36.4463 8.77637C36.1227 8.61686 35.7604 8.53711 35.3594 8.53711C34.8262 8.53711 34.3636 8.68066 33.9717 8.96777C33.5843 9.25033 33.2835 9.65592 33.0693 10.1846C32.8597 10.7087 32.7549 11.333 32.7549 12.0576V12.0713C32.7549 12.7959 32.8597 13.4225 33.0693 13.9512C33.2835 14.4753 33.5843 14.8809 33.9717 15.168C34.3636 15.4551 34.8285 15.5986 35.3662 15.5986C35.7718 15.5986 36.1364 15.5257 36.46 15.3799C36.7835 15.234 37.0524 15.029 37.2666 14.7646C37.4808 14.5003 37.6243 14.1904 37.6973 13.835L37.7109 13.7871H39.6045L39.5977 13.8555C39.5202 14.5299 39.2923 15.1224 38.9141 15.6328C38.5404 16.1387 38.0505 16.5352 37.4443 16.8223C36.8382 17.1094 36.1432 17.2529 35.3594 17.2529Z" fill="#292A2E"/>
</svg>
