<svg width="72" height="24" viewBox="0 0 72 24" fill="none" xmlns="http://www.w3.org/2000/svg">
<path d="M0 6C0 2.68629 2.68629 0 6 0H18C21.3137 0 24 2.68629 24 6V18C24 21.3137 21.3137 24 18 24H6C2.68629 24 0 21.3137 0 18V6Z" fill="#FB9700"/>
<path d="M20.705 12.2038C19.0731 10.572 16.4209 10.5894 14.8064 12.2038L13.4477 13.5625C12.6975 14.3127 11.4791 14.3127 10.7289 13.5625L9.60008 12.4337L6.65005 15.3837L7.77889 16.5125C10.158 18.8917 14.0172 18.8917 16.3963 16.5125L20.705 12.2038ZM3.46875 11.7976C5.10059 13.4294 7.71963 13.4453 9.35147 11.8135L10.7275 10.4375C11.4776 9.68733 12.6961 9.68733 13.4463 10.4375L14.5751 11.5663L17.5251 8.6163L16.3963 7.48745C14.0172 5.10835 10.158 5.10835 7.77889 7.48745L3.47019 11.7962L3.46875 11.7976Z" fill="#101214"/>
<path d="M68.085 17.1504C67.4834 17.1504 66.9502 17.0661 66.4854 16.8975C66.0205 16.7243 65.64 16.4736 65.3438 16.1455C65.0521 15.8128 64.8607 15.4141 64.7695 14.9492L66.5674 14.6279C66.6676 14.9925 66.8477 15.266 67.1074 15.4482C67.3672 15.626 67.709 15.7148 68.1328 15.7148C68.543 15.7148 68.8688 15.6351 69.1104 15.4756C69.3519 15.3115 69.4727 15.1087 69.4727 14.8672C69.4727 14.6576 69.3906 14.4867 69.2266 14.3545C69.0625 14.2178 68.8096 14.113 68.4678 14.04L67.1553 13.7666C66.4261 13.6117 65.8815 13.3564 65.5215 13.001C65.1615 12.641 64.9814 12.1761 64.9814 11.6064C64.9814 11.1279 65.1136 10.7132 65.3779 10.3623C65.6423 10.0114 66.0091 9.74023 66.4785 9.54883C66.9525 9.35742 67.5016 9.26172 68.126 9.26172C68.7184 9.26172 69.2288 9.34603 69.6572 9.51465C70.0902 9.67871 70.4388 9.91113 70.7031 10.2119C70.972 10.5081 71.1543 10.8613 71.25 11.2715L69.541 11.5859C69.459 11.3216 69.304 11.1029 69.0762 10.9297C68.8529 10.752 68.5452 10.6631 68.1533 10.6631C67.7979 10.6631 67.4993 10.7406 67.2578 10.8955C67.0208 11.0459 66.9023 11.2441 66.9023 11.4902C66.9023 11.6999 66.9798 11.873 67.1348 12.0098C67.2943 12.1465 67.5609 12.2559 67.9346 12.3379L69.2744 12.6113C70.0036 12.7617 70.5459 13.0078 70.9014 13.3496C71.2614 13.6914 71.4414 14.1335 71.4414 14.6758C71.4414 15.168 71.2979 15.6009 71.0107 15.9746C70.7236 16.3438 70.3271 16.6331 69.8213 16.8428C69.32 17.0479 68.7412 17.1504 68.085 17.1504Z" fill="#292A2E"/>
<path d="M59.0889 17.0957C58.5602 17.0957 58.0977 16.9818 57.7012 16.7539C57.3092 16.526 57.0039 16.1979 56.7852 15.7695C56.5664 15.3366 56.457 14.8193 56.457 14.2178V9.35742H58.3848V13.8965C58.3848 14.3932 58.5124 14.7806 58.7676 15.0586C59.0228 15.3366 59.3737 15.4756 59.8203 15.4756C60.1257 15.4756 60.3945 15.4118 60.627 15.2842C60.8594 15.152 61.0417 14.9606 61.1738 14.71C61.306 14.4593 61.3721 14.1585 61.3721 13.8076V9.35742H63.2998V17H61.4746L61.4541 15.0996H61.5771C61.3721 15.7559 61.0622 16.2526 60.6475 16.5898C60.2327 16.9271 59.7132 17.0957 59.0889 17.0957Z" fill="#292A2E"/>
<path d="M51.624 17.1504C50.8721 17.1504 50.2181 16.9863 49.6621 16.6582C49.1107 16.3301 48.6846 15.8698 48.3838 15.2773C48.083 14.6849 47.9326 13.9967 47.9326 13.2129C47.9326 12.4245 48.083 11.734 48.3838 11.1416C48.6846 10.5446 49.1107 10.082 49.6621 9.75391C50.2181 9.42578 50.8721 9.26172 51.624 9.26172C52.0661 9.26172 52.474 9.31868 52.8477 9.43262C53.2214 9.54655 53.554 9.71061 53.8457 9.9248C54.1374 10.139 54.3789 10.3988 54.5703 10.7041C54.7663 11.0094 54.903 11.3535 54.9805 11.7363L53.1826 12.0918C53.1416 11.8913 53.0755 11.7113 52.9844 11.5518C52.8932 11.3923 52.7816 11.2578 52.6494 11.1484C52.5218 11.0345 52.3737 10.9479 52.2051 10.8887C52.0365 10.8249 51.8496 10.793 51.6445 10.793C51.2572 10.793 50.9336 10.8978 50.6738 11.1074C50.4141 11.3125 50.2181 11.5973 50.0859 11.9619C49.9538 12.3219 49.8877 12.7367 49.8877 13.2061C49.8877 13.6709 49.9538 14.0856 50.0859 14.4502C50.2181 14.8102 50.4141 15.0951 50.6738 15.3047C50.9336 15.5143 51.2572 15.6191 51.6445 15.6191C51.8542 15.6191 52.0433 15.5895 52.2119 15.5303C52.3851 15.4665 52.5378 15.3753 52.6699 15.2568C52.8021 15.1383 52.9137 14.9971 53.0049 14.833C53.096 14.6644 53.1621 14.4775 53.2031 14.2725L54.9941 14.6211C54.9167 15.0176 54.7822 15.3708 54.5908 15.6807C54.3994 15.9906 54.1556 16.2549 53.8594 16.4736C53.5677 16.6924 53.2327 16.861 52.8545 16.9795C52.4808 17.0934 52.0706 17.1504 51.624 17.1504Z" fill="#292A2E"/>
<path d="M43.0723 17.1504C42.3158 17.1504 41.6595 16.9863 41.1035 16.6582C40.5521 16.3301 40.126 15.8698 39.8252 15.2773C39.5244 14.6849 39.374 13.9967 39.374 13.2129C39.374 12.4245 39.5244 11.734 39.8252 11.1416C40.126 10.5446 40.5521 10.082 41.1035 9.75391C41.6595 9.42578 42.3158 9.26172 43.0723 9.26172C43.8288 9.26172 44.4827 9.42578 45.0342 9.75391C45.5902 10.082 46.0186 10.5446 46.3193 11.1416C46.6201 11.734 46.7705 12.4245 46.7705 13.2129C46.7705 13.9967 46.6201 14.6849 46.3193 15.2773C46.0186 15.8698 45.5902 16.3301 45.0342 16.6582C44.4827 16.9863 43.8288 17.1504 43.0723 17.1504ZM43.0723 15.6191C43.4596 15.6191 43.7832 15.5143 44.043 15.3047C44.3027 15.0905 44.4964 14.8011 44.624 14.4365C44.7516 14.0719 44.8154 13.6618 44.8154 13.2061C44.8154 12.7503 44.7516 12.3402 44.624 11.9756C44.4964 11.611 44.3027 11.3239 44.043 11.1143C43.7832 10.9001 43.4596 10.793 43.0723 10.793C42.6849 10.793 42.3613 10.9001 42.1016 11.1143C41.8464 11.3239 41.6527 11.611 41.5205 11.9756C41.3929 12.3356 41.3291 12.7458 41.3291 13.2061C41.3291 13.6618 41.3929 14.0719 41.5205 14.4365C41.6527 14.8011 41.8464 15.0905 42.1016 15.3047C42.3613 15.5143 42.6849 15.6191 43.0723 15.6191Z" fill="#292A2E"/>
<path d="M31.9707 17V6.81445H38.5879V8.45508H33.9326V11.4014H38.1367V13.0146H33.9326V17H31.9707Z" fill="#292A2E"/>
</svg>
