<svg width="70" height="24" viewBox="0 0 70 24" fill="none" xmlns="http://www.w3.org/2000/svg">
<path d="M0 6C0 2.68629 2.68629 0 6 0H18C21.3137 0 24 2.68629 24 6V18C24 21.3137 21.3137 24 18 24H6C2.68629 24 0 21.3137 0 18V6Z" fill="#DDDEE1"/>
<path d="M14.5195 12C14.5195 13.3915 13.3915 14.5195 12 14.5195C10.6085 14.5195 9.48047 13.3915 9.48047 12C9.48047 10.6085 10.6085 9.48047 12 9.48047C13.3915 9.48047 14.5195 10.6085 14.5195 12Z" fill="#101214"/>
<path fill-rule="evenodd" clip-rule="evenodd" d="M12 19.0312C15.8833 19.0312 19.0312 15.8833 19.0312 12C19.0312 8.11675 15.8833 4.96875 12 4.96875C8.11675 4.96875 4.96875 8.11675 4.96875 12C4.96875 15.8833 8.11675 19.0312 12 19.0312ZM16.3945 12C16.3945 14.427 14.427 16.3945 12 16.3945C9.57297 16.3945 7.60547 14.427 7.60547 12C7.60547 9.57297 9.57297 7.60547 12 7.60547C14.427 7.60547 16.3945 9.57297 16.3945 12Z" fill="#101214"/>
<path d="M65.9365 17.1504C65.335 17.1504 64.8018 17.0661 64.3369 16.8975C63.8721 16.7243 63.4915 16.4736 63.1953 16.1455C62.9036 15.8128 62.7122 15.4141 62.6211 14.9492L64.4189 14.6279C64.5192 14.9925 64.6992 15.266 64.959 15.4482C65.2188 15.626 65.5605 15.7148 65.9844 15.7148C66.3945 15.7148 66.7204 15.6351 66.9619 15.4756C67.2034 15.3115 67.3242 15.1087 67.3242 14.8672C67.3242 14.6576 67.2422 14.4867 67.0781 14.3545C66.9141 14.2178 66.6611 14.113 66.3193 14.04L65.0068 13.7666C64.2777 13.6117 63.7331 13.3564 63.373 13.001C63.013 12.641 62.833 12.1761 62.833 11.6064C62.833 11.1279 62.9652 10.7132 63.2295 10.3623C63.4938 10.0114 63.8607 9.74023 64.3301 9.54883C64.804 9.35742 65.3532 9.26172 65.9775 9.26172C66.57 9.26172 67.0804 9.34603 67.5088 9.51465C67.9417 9.67871 68.2904 9.91113 68.5547 10.2119C68.8236 10.5081 69.0059 10.8613 69.1016 11.2715L67.3926 11.5859C67.3105 11.3216 67.1556 11.1029 66.9277 10.9297C66.7044 10.752 66.3968 10.6631 66.0049 10.6631C65.6494 10.6631 65.3509 10.7406 65.1094 10.8955C64.8724 11.0459 64.7539 11.2441 64.7539 11.4902C64.7539 11.6999 64.8314 11.873 64.9863 12.0098C65.1458 12.1465 65.4124 12.2559 65.7861 12.3379L67.126 12.6113C67.8551 12.7617 68.3975 13.0078 68.7529 13.3496C69.113 13.6914 69.293 14.1335 69.293 14.6758C69.293 15.168 69.1494 15.6009 68.8623 15.9746C68.5752 16.3438 68.1787 16.6331 67.6729 16.8428C67.1716 17.0479 66.5928 17.1504 65.9365 17.1504Z" fill="#292A2E"/>
<path d="M60.8984 17.0479C60.151 17.0479 59.5996 16.8815 59.2441 16.5488C58.8887 16.2161 58.7109 15.7194 58.7109 15.0586V6.81445H60.6387V14.7783C60.6387 15.0381 60.6797 15.2272 60.7617 15.3457C60.8483 15.4596 60.9987 15.5166 61.2129 15.5166C61.3268 15.5166 61.4134 15.512 61.4727 15.5029C61.5365 15.4938 61.5911 15.4824 61.6367 15.4688L61.9512 16.8906C61.8418 16.9271 61.6937 16.9635 61.5068 17C61.3245 17.0319 61.1217 17.0479 60.8984 17.0479Z" fill="#292A2E"/>
<path d="M52.7227 17.1299C52.1348 17.1299 51.6038 16.9772 51.1299 16.6719C50.6605 16.3665 50.2868 15.9222 50.0088 15.3389C49.7354 14.751 49.5986 14.0355 49.5986 13.1924C49.5986 12.3311 49.7399 11.6087 50.0225 11.0254C50.305 10.4421 50.6833 10.0023 51.1572 9.70605C51.6312 9.40983 52.1576 9.26172 52.7363 9.26172C53.1738 9.26172 53.5361 9.33691 53.8232 9.4873C54.1104 9.63314 54.3405 9.81315 54.5137 10.0273C54.6868 10.237 54.819 10.4398 54.9102 10.6357H54.9854V9.35742H56.8926V17H54.9922V15.7832H54.9102C54.819 15.9792 54.6823 16.182 54.5 16.3916C54.3223 16.6012 54.0898 16.7767 53.8027 16.918C53.5156 17.0592 53.1556 17.1299 52.7227 17.1299ZM53.2969 15.5781C53.666 15.5781 53.9782 15.4779 54.2334 15.2773C54.4886 15.0768 54.6823 14.7965 54.8145 14.4365C54.9512 14.0765 55.0195 13.6595 55.0195 13.1855C55.0195 12.707 54.9535 12.2923 54.8213 11.9414C54.6891 11.5859 54.4954 11.3102 54.2402 11.1143C53.985 10.9183 53.6706 10.8203 53.2969 10.8203C52.9186 10.8203 52.5996 10.9206 52.3398 11.1211C52.0846 11.3216 51.891 11.5996 51.7588 11.9551C51.6312 12.3105 51.5674 12.7207 51.5674 13.1855C51.5674 13.6458 51.6335 14.056 51.7656 14.416C51.8978 14.776 52.0915 15.0609 52.3467 15.2705C52.6064 15.4756 52.9232 15.5781 53.2969 15.5781Z" fill="#292A2E"/>
<path d="M44.7383 17.1504C43.9818 17.1504 43.3255 16.9863 42.7695 16.6582C42.2181 16.3301 41.792 15.8698 41.4912 15.2773C41.1904 14.6849 41.04 13.9967 41.04 13.2129C41.04 12.4245 41.1904 11.734 41.4912 11.1416C41.792 10.5446 42.2181 10.082 42.7695 9.75391C43.3255 9.42578 43.9818 9.26172 44.7383 9.26172C45.4948 9.26172 46.1488 9.42578 46.7002 9.75391C47.2562 10.082 47.6846 10.5446 47.9854 11.1416C48.2861 11.734 48.4365 12.4245 48.4365 13.2129C48.4365 13.9967 48.2861 14.6849 47.9854 15.2773C47.6846 15.8698 47.2562 16.3301 46.7002 16.6582C46.1488 16.9863 45.4948 17.1504 44.7383 17.1504ZM44.7383 15.6191C45.1257 15.6191 45.4492 15.5143 45.709 15.3047C45.9688 15.0905 46.1624 14.8011 46.29 14.4365C46.4176 14.0719 46.4814 13.6618 46.4814 13.2061C46.4814 12.7503 46.4176 12.3402 46.29 11.9756C46.1624 11.611 45.9688 11.3239 45.709 11.1143C45.4492 10.9001 45.1257 10.793 44.7383 10.793C44.3509 10.793 44.0273 10.9001 43.7676 11.1143C43.5124 11.3239 43.3187 11.611 43.1865 11.9756C43.0589 12.3356 42.9951 12.7458 42.9951 13.2061C42.9951 13.6618 43.0589 14.0719 43.1865 14.4365C43.3187 14.8011 43.5124 15.0905 43.7676 15.3047C44.0273 15.5143 44.3509 15.6191 44.7383 15.6191Z" fill="#292A2E"/>
<path d="M35.2158 17.1367C34.3545 17.1367 33.582 16.9248 32.8984 16.501C32.2148 16.0771 31.6725 15.4756 31.2715 14.6963C30.8704 13.917 30.6699 12.9919 30.6699 11.9209C30.6699 10.8226 30.8773 9.88379 31.292 9.10449C31.7067 8.32064 32.2673 7.72135 32.9736 7.30664C33.6846 6.88737 34.4867 6.67773 35.3799 6.67773C35.945 6.67773 36.4714 6.75977 36.959 6.92383C37.4512 7.08789 37.8887 7.32259 38.2715 7.62793C38.6543 7.93327 38.9665 8.29557 39.208 8.71484C39.4541 9.12956 39.6159 9.58529 39.6934 10.082H37.6904C37.6175 9.82682 37.5104 9.59668 37.3691 9.3916C37.2324 9.18652 37.0661 9.01335 36.8701 8.87207C36.6787 8.72624 36.46 8.61686 36.2139 8.54395C35.9723 8.46647 35.7035 8.42773 35.4072 8.42773C34.8695 8.42773 34.3932 8.56217 33.9785 8.83105C33.5638 9.09993 33.2402 9.49414 33.0078 10.0137C32.7754 10.5286 32.6592 11.1576 32.6592 11.9004C32.6592 12.6432 32.7754 13.2744 33.0078 13.7939C33.2402 14.3135 33.5661 14.71 33.9854 14.9834C34.4092 15.2523 34.9014 15.3867 35.4619 15.3867C35.9678 15.3867 36.4007 15.2887 36.7607 15.0928C37.1253 14.8968 37.4033 14.6188 37.5947 14.2588C37.7907 13.8942 37.8887 13.4635 37.8887 12.9668H38.3057V13.8213C38.3057 14.2588 38.251 14.6781 38.1416 15.0791C38.0322 15.4756 37.8568 15.8288 37.6152 16.1387C37.3783 16.4486 37.0615 16.6924 36.665 16.8701C36.2731 17.0479 35.79 17.1367 35.2158 17.1367ZM38.4561 17L38.1963 14.5664V13.1377H35.5986V11.6201H39.7891V17H38.4561Z" fill="#292A2E"/>
</svg>
