<svg width="123" height="24" viewBox="0 0 123 24" fill="none" xmlns="http://www.w3.org/2000/svg">
<path d="M0 6C0 2.68629 2.68629 0 6 0H18C21.3137 0 24 2.68629 24 6V18C24 21.3137 21.3137 24 18 24H6C2.68629 24 0 21.3137 0 18V6Z" fill="#DDDEE1"/>
<path d="M6.14126 10.983H17.8581C18.1948 10.983 18.3744 10.8035 18.3744 10.4668V6.51626C18.3744 6.17957 18.1948 6 17.8581 6H15.389C15.0523 6 14.8728 6.17957 14.8728 6.51626V8.51396H13.7505V6.51626C13.7505 6.17957 13.5709 6 13.2342 6H10.7651C10.4285 6 10.2489 6.17957 10.2489 6.51626V8.51396H9.12658V6.51626C9.12658 6.17957 8.94701 6 8.61032 6H6.14126C5.80457 6 5.625 6.17957 5.625 6.51626V10.4668C5.625 10.8035 5.80457 10.983 6.14126 10.983ZM6.34327 14.4397C6.09637 13.7439 5.93924 13.0256 5.89435 12.1951C5.87191 11.9033 6.00658 11.7462 6.32083 11.7462H17.6785C17.9928 11.7462 18.1274 11.8809 18.1274 12.1502C18.0826 12.9807 17.9254 13.7439 17.6561 14.4397C17.5214 14.7988 17.3194 14.956 16.9378 14.956H7.06155C6.67996 14.956 6.47795 14.7988 6.34327 14.4397ZM16.7358 16.3027C15.6584 17.627 13.8851 18.48 11.9997 18.48C10.1142 18.48 8.29608 17.627 7.24111 16.3027C6.97176 15.9436 7.10644 15.7191 7.37579 15.7191H16.6236C16.8929 15.7191 17.0276 15.9436 16.7358 16.3027Z" fill="#101214"/>
<path d="M121.027 17.0342C120.139 17.0342 119.498 16.8747 119.106 16.5557C118.715 16.2367 118.519 15.7148 118.519 14.9902V10.9229H117.356V9.50098H118.519V7.68262H120.412V9.50098H121.978V10.9229H120.412V14.5527C120.412 14.9082 120.49 15.168 120.645 15.332C120.799 15.4915 121.05 15.5713 121.396 15.5713C121.52 15.5713 121.622 15.569 121.704 15.5645C121.786 15.5553 121.877 15.5462 121.978 15.5371V16.9521C121.854 16.9704 121.711 16.9886 121.547 17.0068C121.383 17.0251 121.21 17.0342 121.027 17.0342Z" fill="#292A2E"/>
<path d="M113.009 17.1572C112.239 17.1572 111.582 17.0023 111.04 16.6924C110.498 16.3825 110.083 15.9359 109.796 15.3525C109.509 14.7692 109.365 14.0651 109.365 13.2402V13.2266C109.365 12.4062 109.507 11.709 109.789 11.1348C110.076 10.556 110.491 10.1139 111.033 9.80859C111.576 9.4987 112.232 9.34375 113.002 9.34375C113.658 9.34375 114.221 9.45768 114.69 9.68555C115.164 9.90885 115.538 10.2233 115.812 10.6289C116.09 11.0299 116.258 11.5016 116.317 12.0439V12.0645H114.567L114.561 12.0508C114.492 11.6862 114.326 11.3923 114.062 11.1689C113.802 10.9411 113.451 10.8271 113.009 10.8271C112.64 10.8271 112.325 10.9206 112.065 11.1074C111.806 11.2943 111.607 11.5654 111.471 11.9209C111.334 12.2764 111.266 12.7116 111.266 13.2266V13.2402C111.266 13.7552 111.334 14.195 111.471 14.5596C111.612 14.9196 111.81 15.1953 112.065 15.3867C112.325 15.5781 112.64 15.6738 113.009 15.6738C113.433 15.6738 113.772 15.5758 114.027 15.3799C114.287 15.1839 114.463 14.8923 114.554 14.5049L114.567 14.4844L116.311 14.4775V14.5254C116.233 15.054 116.055 15.5166 115.777 15.9131C115.504 16.305 115.135 16.6104 114.67 16.8291C114.205 17.0479 113.651 17.1572 113.009 17.1572Z" fill="#292A2E"/>
<path d="M104.648 17.1572C103.892 17.1572 103.243 17 102.7 16.6855C102.158 16.3665 101.741 15.9176 101.449 15.3389C101.158 14.7555 101.012 14.0651 101.012 13.2676V13.2607C101.012 12.4632 101.158 11.7728 101.449 11.1895C101.741 10.6016 102.153 10.1481 102.687 9.8291C103.22 9.50553 103.846 9.34375 104.566 9.34375C105.286 9.34375 105.909 9.50098 106.433 9.81543C106.961 10.1253 107.367 10.5628 107.649 11.1279C107.932 11.693 108.073 12.3538 108.073 13.1104V13.7051H101.948V12.502H107.171L106.282 13.6299V12.8848C106.282 12.4154 106.212 12.0257 106.07 11.7158C105.929 11.4014 105.731 11.1644 105.476 11.0049C105.22 10.8454 104.926 10.7656 104.594 10.7656C104.261 10.7656 103.965 10.8477 103.705 11.0117C103.445 11.1758 103.24 11.415 103.09 11.7295C102.944 12.0439 102.871 12.429 102.871 12.8848V13.6367C102.871 14.0788 102.944 14.457 103.09 14.7715C103.236 15.0814 103.443 15.3184 103.712 15.4824C103.985 15.6465 104.309 15.7285 104.683 15.7285C104.983 15.7285 105.239 15.6852 105.448 15.5986C105.662 15.512 105.833 15.4095 105.961 15.291C106.093 15.168 106.184 15.0563 106.234 14.9561L106.255 14.9082H108.005L107.991 14.9766C107.932 15.2135 107.823 15.4596 107.663 15.7148C107.508 15.9701 107.296 16.207 107.027 16.4258C106.758 16.64 106.426 16.8154 106.029 16.9521C105.637 17.0889 105.177 17.1572 104.648 17.1572Z" fill="#292A2E"/>
<path d="M98.8105 17.0342C97.9219 17.0342 97.2816 16.8747 96.8896 16.5557C96.4977 16.2367 96.3018 15.7148 96.3018 14.9902V10.9229H95.1396V9.50098H96.3018V7.68262H98.1953V9.50098H99.7607V10.9229H98.1953V14.5527C98.1953 14.9082 98.2728 15.168 98.4277 15.332C98.5827 15.4915 98.8333 15.5713 99.1797 15.5713C99.3027 15.5713 99.4053 15.569 99.4873 15.5645C99.5693 15.5553 99.6605 15.5462 99.7607 15.5371V16.9521C99.6377 16.9704 99.4941 16.9886 99.3301 17.0068C99.166 17.0251 98.9928 17.0342 98.8105 17.0342Z" fill="#292A2E"/>
<path d="M90.6758 17.1572C89.9193 17.1572 89.2699 17 88.7275 16.6855C88.1852 16.3665 87.7682 15.9176 87.4766 15.3389C87.1849 14.7555 87.0391 14.0651 87.0391 13.2676V13.2607C87.0391 12.4632 87.1849 11.7728 87.4766 11.1895C87.7682 10.6016 88.1807 10.1481 88.7139 9.8291C89.2471 9.50553 89.8737 9.34375 90.5938 9.34375C91.3138 9.34375 91.9359 9.50098 92.46 9.81543C92.9886 10.1253 93.3942 10.5628 93.6768 11.1279C93.9593 11.693 94.1006 12.3538 94.1006 13.1104V13.7051H87.9756V12.502H93.1982L92.3096 13.6299V12.8848C92.3096 12.4154 92.2389 12.0257 92.0977 11.7158C91.9564 11.4014 91.7581 11.1644 91.5029 11.0049C91.2477 10.8454 90.9538 10.7656 90.6211 10.7656C90.2884 10.7656 89.9922 10.8477 89.7324 11.0117C89.4727 11.1758 89.2676 11.415 89.1172 11.7295C88.9714 12.0439 88.8984 12.429 88.8984 12.8848V13.6367C88.8984 14.0788 88.9714 14.457 89.1172 14.7715C89.263 15.0814 89.4704 15.3184 89.7393 15.4824C90.0127 15.6465 90.3363 15.7285 90.71 15.7285C91.0107 15.7285 91.2659 15.6852 91.4756 15.5986C91.6898 15.512 91.8607 15.4095 91.9883 15.291C92.1204 15.168 92.2116 15.0563 92.2617 14.9561L92.2822 14.9082H94.0322L94.0186 14.9766C93.9593 15.2135 93.8499 15.4596 93.6904 15.7148C93.5355 15.9701 93.3236 16.207 93.0547 16.4258C92.7858 16.64 92.4531 16.8154 92.0566 16.9521C91.6647 17.0889 91.2044 17.1572 90.6758 17.1572Z" fill="#292A2E"/>
<path d="M77.1816 17V7.13574H80.9893C81.9645 7.13574 82.7962 7.32715 83.4844 7.70996C84.1771 8.09277 84.7057 8.64648 85.0703 9.37109C85.4349 10.0957 85.6172 10.973 85.6172 12.0029V12.0166C85.6172 13.0739 85.4349 13.974 85.0703 14.7168C84.7103 15.4596 84.1862 16.027 83.498 16.4189C82.8099 16.8063 81.9736 17 80.9893 17H77.1816ZM79.1162 15.3936H80.7021C81.3265 15.3936 81.8574 15.266 82.2949 15.0107C82.737 14.751 83.0719 14.3727 83.2998 13.876C83.5322 13.3747 83.6484 12.7663 83.6484 12.0508V12.0371C83.6484 11.3398 83.5299 10.7474 83.293 10.2598C83.0605 9.76758 82.7233 9.3916 82.2812 9.13184C81.8438 8.87207 81.3174 8.74219 80.7021 8.74219H79.1162V15.3936Z" fill="#292A2E"/>
<path d="M66.9824 17.123C66.3581 17.123 65.8158 16.9681 65.3555 16.6582C64.8997 16.3438 64.5466 15.8971 64.2959 15.3184C64.0452 14.7396 63.9199 14.0514 63.9199 13.2539V13.2402C63.9199 12.4427 64.043 11.7546 64.2891 11.1758C64.5352 10.597 64.8861 10.1527 65.3418 9.84277C65.8021 9.53288 66.349 9.37793 66.9824 9.37793C67.3242 9.37793 67.6409 9.43262 67.9326 9.54199C68.2288 9.64681 68.4886 9.7972 68.7119 9.99316C68.9398 10.1891 69.1152 10.4238 69.2383 10.6973H69.3613V6.61621H71.2344V17H69.3613V15.8311H69.2383C69.1061 16.0999 68.9307 16.3324 68.7119 16.5283C68.4932 16.7197 68.238 16.8678 67.9463 16.9727C67.6546 17.0729 67.3333 17.123 66.9824 17.123ZM67.5977 15.5645C67.9668 15.5645 68.2835 15.471 68.5479 15.2842C68.8167 15.0973 69.0218 14.833 69.1631 14.4912C69.3089 14.1449 69.3818 13.7347 69.3818 13.2607V13.2471C69.3818 12.7686 69.3089 12.3584 69.1631 12.0166C69.0173 11.6702 68.8099 11.4036 68.541 11.2168C68.2767 11.0299 67.9622 10.9365 67.5977 10.9365C67.2331 10.9365 66.9163 11.0299 66.6475 11.2168C66.3831 11.3991 66.1781 11.6634 66.0322 12.0098C65.8909 12.3516 65.8203 12.7617 65.8203 13.2402V13.2539C65.8203 13.7324 65.8909 14.1449 66.0322 14.4912C66.1781 14.8376 66.3831 15.1042 66.6475 15.291C66.9163 15.4733 67.2331 15.5645 67.5977 15.5645Z" fill="#292A2E"/>
<path d="M58.499 17V9.50098H60.3652V10.6562H60.4883C60.6113 10.2507 60.8369 9.9362 61.165 9.71289C61.4977 9.48958 61.9079 9.37793 62.3955 9.37793C62.5277 9.37793 62.6576 9.38704 62.7852 9.40527C62.9128 9.41895 63.0221 9.43945 63.1133 9.4668V11.1143C62.972 11.0778 62.8262 11.0505 62.6758 11.0322C62.5299 11.014 62.3818 11.0049 62.2314 11.0049C61.8532 11.0049 61.5228 11.0755 61.2402 11.2168C60.9622 11.3581 60.7458 11.5586 60.5908 11.8184C60.4404 12.0736 60.3652 12.3789 60.3652 12.7344V17H58.499Z" fill="#292A2E"/>
<path d="M52.3672 17.123C51.8932 17.123 51.4694 17.0319 51.0957 16.8496C50.7266 16.6628 50.4372 16.4007 50.2275 16.0635C50.0179 15.7262 49.9131 15.3298 49.9131 14.874V14.8604C49.9131 14.4092 50.0247 14.0241 50.248 13.7051C50.4714 13.3815 50.7972 13.1286 51.2256 12.9463C51.654 12.764 52.1758 12.6546 52.791 12.6182L55.5801 12.4473V13.623L53.0645 13.7871C52.6178 13.8145 52.2852 13.9102 52.0664 14.0742C51.8522 14.2383 51.7451 14.4639 51.7451 14.751V14.7646C51.7451 15.0654 51.859 15.3024 52.0869 15.4756C52.3148 15.6442 52.6087 15.7285 52.9688 15.7285C53.2923 15.7285 53.5794 15.6647 53.8301 15.5371C54.0853 15.4049 54.2858 15.2295 54.4316 15.0107C54.582 14.7874 54.6572 14.5368 54.6572 14.2588V11.8799C54.6572 11.529 54.5433 11.2601 54.3154 11.0732C54.0921 10.8864 53.764 10.793 53.3311 10.793C52.9574 10.793 52.652 10.8568 52.415 10.9844C52.1826 11.112 52.0254 11.2943 51.9434 11.5312L51.9365 11.5518H50.1934L50.2002 11.4902C50.2549 11.0573 50.4212 10.6813 50.6992 10.3623C50.9772 10.0387 51.3486 9.78809 51.8135 9.61035C52.2783 9.43262 52.8161 9.34375 53.4268 9.34375C54.083 9.34375 54.639 9.44401 55.0947 9.64453C55.555 9.84505 55.9036 10.1344 56.1406 10.5127C56.3822 10.891 56.5029 11.3467 56.5029 11.8799V17H54.6572V15.9883H54.5342C54.4066 16.2253 54.2334 16.4281 54.0146 16.5967C53.8005 16.7653 53.5544 16.8952 53.2764 16.9863C52.9984 17.0775 52.6953 17.123 52.3672 17.123Z" fill="#292A2E"/>
<path d="M44.123 17.1572C43.5625 17.1572 43.0908 17.0479 42.708 16.8291C42.3298 16.6104 42.0449 16.2913 41.8535 15.8721C41.6667 15.4528 41.5732 14.9447 41.5732 14.3477V9.50098H43.4395V13.9238C43.4395 14.4753 43.5488 14.8923 43.7676 15.1748C43.9863 15.4574 44.3418 15.5986 44.834 15.5986C45.0892 15.5986 45.3148 15.5576 45.5107 15.4756C45.7113 15.389 45.8799 15.2705 46.0166 15.1201C46.1533 14.9697 46.2536 14.7874 46.3174 14.5732C46.3857 14.359 46.4199 14.1175 46.4199 13.8486V9.50098H48.293V17H46.4199V15.8516H46.3037C46.1898 16.1204 46.0303 16.3529 45.8252 16.5488C45.6201 16.7448 45.374 16.8952 45.0869 17C44.7998 17.1048 44.4785 17.1572 44.123 17.1572Z" fill="#292A2E"/>
<path d="M35.4619 17.2529C34.7373 17.2529 34.0856 17.1344 33.5068 16.8975C32.9326 16.6559 32.4427 16.3096 32.0371 15.8584C31.6315 15.4072 31.3193 14.8626 31.1006 14.2246C30.8864 13.5866 30.7793 12.8688 30.7793 12.0713V12.0576C30.7793 11.0003 30.9684 10.0866 31.3467 9.31641C31.7249 8.54167 32.2627 7.94238 32.96 7.51855C33.6572 7.09473 34.4798 6.88281 35.4277 6.88281C36.1979 6.88281 36.8861 7.02181 37.4922 7.2998C38.1029 7.57324 38.5996 7.95605 38.9824 8.44824C39.3698 8.94043 39.6159 9.51237 39.7207 10.1641L39.7344 10.2324H37.8066L37.793 10.1641C37.6471 9.64909 37.3669 9.25033 36.9521 8.96777C36.5374 8.68066 36.0293 8.53711 35.4277 8.53711C34.8763 8.53711 34.4001 8.68066 33.999 8.96777C33.6025 9.25033 33.2949 9.65365 33.0762 10.1777C32.8574 10.7018 32.748 11.3216 32.748 12.0371V12.0508C32.748 12.5977 32.8118 13.0898 32.9395 13.5273C33.0671 13.9648 33.2493 14.3385 33.4863 14.6484C33.7279 14.9538 34.0173 15.1885 34.3545 15.3525C34.6963 15.5166 35.0768 15.5986 35.4961 15.5986C35.9701 15.5986 36.387 15.5075 36.7471 15.3252C37.1071 15.1429 37.3896 14.8877 37.5947 14.5596C37.7998 14.2314 37.9069 13.8486 37.916 13.4111L37.9229 13.2197H35.6875V11.7773H39.8096V13.0215C39.8096 13.6686 39.7093 14.252 39.5088 14.7715C39.3083 15.291 39.0189 15.7354 38.6406 16.1045C38.2624 16.4736 37.8044 16.7585 37.2666 16.959C36.7288 17.1549 36.1273 17.2529 35.4619 17.2529Z" fill="#292A2E"/>
</svg>
