<svg width="72" height="24" viewBox="0 0 72 24" fill="none" xmlns="http://www.w3.org/2000/svg">
<path d="M0 6C0 2.68629 2.68629 0 6 0H18C21.3137 0 24 2.68629 24 6V18C24 21.3137 21.3137 24 18 24H6C2.68629 24 0 21.3137 0 18V6Z" fill="#DDDEE1"/>
<path d="M6.14126 10.983H17.8581C18.1948 10.983 18.3744 10.8035 18.3744 10.4668V6.51626C18.3744 6.17957 18.1948 6 17.8581 6H15.389C15.0523 6 14.8728 6.17957 14.8728 6.51626V8.51396H13.7505V6.51626C13.7505 6.17957 13.5709 6 13.2342 6H10.7651C10.4285 6 10.2489 6.17957 10.2489 6.51626V8.51396H9.12658V6.51626C9.12658 6.17957 8.94701 6 8.61032 6H6.14126C5.80457 6 5.625 6.17957 5.625 6.51626V10.4668C5.625 10.8035 5.80457 10.983 6.14126 10.983ZM6.34327 14.4397C6.09637 13.7439 5.93924 13.0256 5.89435 12.1951C5.87191 11.9033 6.00658 11.7462 6.32083 11.7462H17.6785C17.9928 11.7462 18.1274 11.8809 18.1274 12.1502C18.0826 12.9807 17.9254 13.7439 17.6561 14.4397C17.5214 14.7988 17.3194 14.956 16.9378 14.956H7.06155C6.67996 14.956 6.47795 14.7988 6.34327 14.4397ZM16.7358 16.3027C15.6584 17.627 13.8851 18.48 11.9997 18.48C10.1142 18.48 8.29608 17.627 7.24112 16.3027C6.97176 15.9436 7.10644 15.7191 7.37579 15.7191H16.6236C16.8929 15.7191 17.0276 15.9436 16.7358 16.3027Z" fill="#101214"/>
<path d="M66.9824 17.123C66.3581 17.123 65.8158 16.9681 65.3555 16.6582C64.8997 16.3438 64.5465 15.8971 64.2959 15.3184C64.0452 14.7396 63.9199 14.0514 63.9199 13.2539V13.2402C63.9199 12.4427 64.043 11.7546 64.2891 11.1758C64.5352 10.597 64.8861 10.1527 65.3418 9.84277C65.8021 9.53288 66.349 9.37793 66.9824 9.37793C67.3242 9.37793 67.641 9.43262 67.9326 9.54199C68.2288 9.64681 68.4886 9.7972 68.7119 9.99316C68.9398 10.1891 69.1152 10.4238 69.2383 10.6973H69.3613V6.61621H71.2344V17H69.3613V15.8311H69.2383C69.1061 16.0999 68.9307 16.3324 68.7119 16.5283C68.4932 16.7197 68.238 16.8678 67.9463 16.9727C67.6546 17.0729 67.3333 17.123 66.9824 17.123ZM67.5977 15.5645C67.9668 15.5645 68.2835 15.471 68.5479 15.2842C68.8167 15.0973 69.0218 14.833 69.1631 14.4912C69.3089 14.1449 69.3818 13.7347 69.3818 13.2607V13.2471C69.3818 12.7686 69.3089 12.3584 69.1631 12.0166C69.0173 11.6702 68.8099 11.4036 68.541 11.2168C68.2767 11.0299 67.9622 10.9365 67.5977 10.9365C67.2331 10.9365 66.9163 11.0299 66.6475 11.2168C66.3831 11.3991 66.1781 11.6634 66.0322 12.0098C65.891 12.3516 65.8203 12.7617 65.8203 13.2402V13.2539C65.8203 13.7324 65.891 14.1449 66.0322 14.4912C66.1781 14.8376 66.3831 15.1042 66.6475 15.291C66.9163 15.4733 67.2331 15.5645 67.5977 15.5645Z" fill="#292A2E"/>
<path d="M58.499 17V9.50098H60.3652V10.6562H60.4883C60.6113 10.2507 60.8369 9.9362 61.165 9.71289C61.4977 9.48958 61.9079 9.37793 62.3955 9.37793C62.5277 9.37793 62.6576 9.38704 62.7852 9.40527C62.9128 9.41895 63.0221 9.43945 63.1133 9.4668V11.1143C62.972 11.0778 62.8262 11.0505 62.6758 11.0322C62.5299 11.014 62.3818 11.0049 62.2314 11.0049C61.8532 11.0049 61.5228 11.0755 61.2402 11.2168C60.9622 11.3581 60.7458 11.5586 60.5908 11.8184C60.4404 12.0736 60.3652 12.3789 60.3652 12.7344V17H58.499Z" fill="#292A2E"/>
<path d="M52.3672 17.123C51.8932 17.123 51.4694 17.0319 51.0957 16.8496C50.7266 16.6628 50.4372 16.4007 50.2275 16.0635C50.0179 15.7262 49.9131 15.3298 49.9131 14.874V14.8604C49.9131 14.4092 50.0247 14.0241 50.248 13.7051C50.4714 13.3815 50.7972 13.1286 51.2256 12.9463C51.654 12.764 52.1758 12.6546 52.791 12.6182L55.5801 12.4473V13.623L53.0645 13.7871C52.6178 13.8145 52.2852 13.9102 52.0664 14.0742C51.8522 14.2383 51.7451 14.4639 51.7451 14.751V14.7646C51.7451 15.0654 51.859 15.3024 52.0869 15.4756C52.3148 15.6442 52.6087 15.7285 52.9688 15.7285C53.2923 15.7285 53.5794 15.6647 53.8301 15.5371C54.0853 15.4049 54.2858 15.2295 54.4316 15.0107C54.582 14.7874 54.6572 14.5368 54.6572 14.2588V11.8799C54.6572 11.529 54.5433 11.2601 54.3154 11.0732C54.0921 10.8864 53.764 10.793 53.3311 10.793C52.9574 10.793 52.652 10.8568 52.415 10.9844C52.1826 11.112 52.0254 11.2943 51.9434 11.5312L51.9365 11.5518H50.1934L50.2002 11.4902C50.2549 11.0573 50.4212 10.6813 50.6992 10.3623C50.9772 10.0387 51.3486 9.78809 51.8135 9.61035C52.2783 9.43262 52.8161 9.34375 53.4268 9.34375C54.083 9.34375 54.639 9.44401 55.0947 9.64453C55.555 9.84505 55.9036 10.1344 56.1406 10.5127C56.3822 10.891 56.5029 11.3467 56.5029 11.8799V17H54.6572V15.9883H54.5342C54.4066 16.2253 54.2334 16.4281 54.0146 16.5967C53.8005 16.7653 53.5544 16.8952 53.2764 16.9863C52.9984 17.0775 52.6953 17.123 52.3672 17.123Z" fill="#292A2E"/>
<path d="M44.123 17.1572C43.5625 17.1572 43.0908 17.0479 42.708 16.8291C42.3298 16.6104 42.0449 16.2913 41.8535 15.8721C41.6667 15.4528 41.5732 14.9447 41.5732 14.3477V9.50098H43.4395V13.9238C43.4395 14.4753 43.5488 14.8923 43.7676 15.1748C43.9863 15.4574 44.3418 15.5986 44.834 15.5986C45.0892 15.5986 45.3148 15.5576 45.5107 15.4756C45.7113 15.389 45.8799 15.2705 46.0166 15.1201C46.1533 14.9697 46.2536 14.7874 46.3174 14.5732C46.3857 14.359 46.4199 14.1175 46.4199 13.8486V9.50098H48.293V17H46.4199V15.8516H46.3037C46.1898 16.1204 46.0303 16.3529 45.8252 16.5488C45.6201 16.7448 45.374 16.8952 45.0869 17C44.7998 17.1048 44.4785 17.1572 44.123 17.1572Z" fill="#292A2E"/>
<path d="M35.4619 17.2529C34.7373 17.2529 34.0856 17.1344 33.5068 16.8975C32.9326 16.6559 32.4427 16.3096 32.0371 15.8584C31.6315 15.4072 31.3193 14.8626 31.1006 14.2246C30.8864 13.5866 30.7793 12.8688 30.7793 12.0713V12.0576C30.7793 11.0003 30.9684 10.0866 31.3467 9.31641C31.7249 8.54167 32.2627 7.94238 32.96 7.51855C33.6572 7.09473 34.4798 6.88281 35.4277 6.88281C36.1979 6.88281 36.8861 7.02181 37.4922 7.2998C38.1029 7.57324 38.5996 7.95605 38.9824 8.44824C39.3698 8.94043 39.6159 9.51237 39.7207 10.1641L39.7344 10.2324H37.8066L37.793 10.1641C37.6471 9.64909 37.3669 9.25033 36.9521 8.96777C36.5374 8.68066 36.0293 8.53711 35.4277 8.53711C34.8763 8.53711 34.4001 8.68066 33.999 8.96777C33.6025 9.25033 33.2949 9.65365 33.0762 10.1777C32.8574 10.7018 32.748 11.3216 32.748 12.0371V12.0508C32.748 12.5977 32.8118 13.0898 32.9395 13.5273C33.0671 13.9648 33.2493 14.3385 33.4863 14.6484C33.7279 14.9538 34.0173 15.1885 34.3545 15.3525C34.6963 15.5166 35.0768 15.5986 35.4961 15.5986C35.9701 15.5986 36.387 15.5075 36.7471 15.3252C37.1071 15.1429 37.3896 14.8877 37.5947 14.5596C37.7998 14.2314 37.9069 13.8486 37.916 13.4111L37.9229 13.2197H35.6875V11.7773H39.8096V13.0215C39.8096 13.6686 39.7093 14.252 39.5088 14.7715C39.3083 15.291 39.0189 15.7354 38.6406 16.1045C38.2624 16.4736 37.8044 16.7585 37.2666 16.959C36.7288 17.1549 36.1273 17.2529 35.4619 17.2529Z" fill="#292A2E"/>
</svg>
