<svg width="72" height="24" viewBox="0 0 72 24" fill="none" xmlns="http://www.w3.org/2000/svg">
<path d="M0 6C0 2.68629 2.68629 0 6 0H18C21.3137 0 24 2.68629 24 6V18C24 21.3137 21.3137 24 18 24H6C2.68629 24 0 21.3137 0 18V6Z" fill="#DDDEE1"/>
<path d="M5.49025 10.87H18.5089C18.8831 10.87 19.0826 10.6705 19.0826 10.2964V5.90696C19.0826 5.53286 18.8831 5.33334 18.5089 5.33334H15.7655C15.3914 5.33334 15.1919 5.53286 15.1919 5.90696V8.12663H13.9449V5.90696C13.9449 5.53286 13.7454 5.33334 13.3713 5.33334H10.6279C10.2538 5.33334 10.0543 5.53286 10.0543 5.90696V8.12663H8.80727V5.90696C8.80727 5.53286 8.60775 5.33334 8.23365 5.33334H5.49025C5.11615 5.33334 4.91663 5.53286 4.91663 5.90696V10.2964C4.91663 10.6705 5.11615 10.87 5.49025 10.87ZM5.71471 14.7108C5.44037 13.9377 5.26579 13.1396 5.21591 12.2168C5.19097 11.8926 5.34061 11.718 5.68977 11.718H18.3094C18.6586 11.718 18.8082 11.8676 18.8082 12.1669C18.7584 13.0897 18.5838 13.9377 18.2845 14.7108C18.1348 15.1098 17.9104 15.2844 17.4864 15.2844H6.51279C6.08881 15.2844 5.86435 15.1098 5.71471 14.7108ZM17.2619 16.7808C16.0648 18.2523 14.0946 19.2 11.9996 19.2C9.90463 19.2 7.88449 18.2523 6.71231 16.7808C6.41303 16.3818 6.56267 16.1324 6.86195 16.1324H17.1372C17.4365 16.1324 17.5862 16.3818 17.2619 16.7808Z" fill="#101214"/>
<path d="M67.0986 17.1299C66.5062 17.1299 65.973 16.9772 65.499 16.6719C65.0251 16.3665 64.6514 15.9222 64.3779 15.3389C64.1045 14.751 63.9678 14.0355 63.9678 13.1924C63.9678 12.3311 64.1068 11.6087 64.3848 11.0254C64.6673 10.4421 65.0456 10.0023 65.5195 9.70605C65.9935 9.40983 66.5176 9.26172 67.0918 9.26172C67.5339 9.26172 67.8984 9.33691 68.1855 9.4873C68.4727 9.63314 68.7028 9.81315 68.876 10.0273C69.0537 10.237 69.1859 10.4398 69.2725 10.6357H69.3408V6.81445H71.2617V17H69.375V15.7832H69.2725C69.1813 15.9792 69.0469 16.182 68.8691 16.3916C68.6914 16.5967 68.459 16.7721 68.1719 16.918C67.8848 17.0592 67.527 17.1299 67.0986 17.1299ZM67.6592 15.5781C68.0283 15.5781 68.3405 15.4779 68.5957 15.2773C68.8509 15.0768 69.0446 14.7965 69.1768 14.4365C69.3135 14.0765 69.3818 13.6595 69.3818 13.1855C69.3818 12.707 69.3158 12.2923 69.1836 11.9414C69.0514 11.5859 68.8555 11.3102 68.5957 11.1143C68.3405 10.9183 68.0283 10.8203 67.6592 10.8203C67.2809 10.8203 66.9642 10.9229 66.709 11.1279C66.4538 11.3285 66.2601 11.6064 66.1279 11.9619C66.0003 12.3174 65.9365 12.7253 65.9365 13.1855C65.9365 13.6458 66.0003 14.056 66.1279 14.416C66.2601 14.776 66.4538 15.0609 66.709 15.2705C66.9688 15.4756 67.2855 15.5781 67.6592 15.5781Z" fill="#292A2E"/>
<path d="M58.9844 17V9.35742H60.8506V10.6631H60.9326C61.0693 10.2074 61.3063 9.85872 61.6436 9.61719C61.9808 9.37565 62.3659 9.25488 62.7988 9.25488C62.8991 9.25488 63.0107 9.26172 63.1338 9.27539C63.2568 9.28451 63.3639 9.29818 63.4551 9.31641V11.0527C63.373 11.0254 63.2454 11.0026 63.0723 10.9844C62.9036 10.9661 62.7419 10.957 62.5869 10.957C62.2679 10.957 61.9808 11.0254 61.7256 11.1621C61.4704 11.2988 61.2699 11.4902 61.124 11.7363C60.9827 11.9779 60.9121 12.2604 60.9121 12.584V17H58.9844Z" fill="#292A2E"/>
<path d="M52.9961 17.1299C52.4082 17.1299 51.8773 16.9772 51.4033 16.6719C50.9339 16.3665 50.5602 15.9222 50.2822 15.3389C50.0088 14.751 49.8721 14.0355 49.8721 13.1924C49.8721 12.3311 50.0133 11.6087 50.2959 11.0254C50.5785 10.4421 50.9567 10.0023 51.4307 9.70605C51.9046 9.40983 52.431 9.26172 53.0098 9.26172C53.4473 9.26172 53.8096 9.33691 54.0967 9.4873C54.3838 9.63314 54.6139 9.81315 54.7871 10.0273C54.9603 10.237 55.0924 10.4398 55.1836 10.6357H55.2588V9.35742H57.166V17H55.2656V15.7832H55.1836C55.0924 15.9792 54.9557 16.182 54.7734 16.3916C54.5957 16.6012 54.3633 16.7767 54.0762 16.918C53.7891 17.0592 53.429 17.1299 52.9961 17.1299ZM53.5703 15.5781C53.9395 15.5781 54.2516 15.4779 54.5068 15.2773C54.762 15.0768 54.9557 14.7965 55.0879 14.4365C55.2246 14.0765 55.293 13.6595 55.293 13.1855C55.293 12.707 55.2269 12.2923 55.0947 11.9414C54.9626 11.5859 54.7689 11.3102 54.5137 11.1143C54.2585 10.9183 53.944 10.8203 53.5703 10.8203C53.1921 10.8203 52.873 10.9206 52.6133 11.1211C52.3581 11.3216 52.1644 11.5996 52.0322 11.9551C51.9046 12.3105 51.8408 12.7207 51.8408 13.1855C51.8408 13.6458 51.9069 14.056 52.0391 14.416C52.1712 14.776 52.3649 15.0609 52.6201 15.2705C52.8799 15.4756 53.1966 15.5781 53.5703 15.5781Z" fill="#292A2E"/>
<path d="M44.1709 17.0957C43.6423 17.0957 43.1797 16.9818 42.7832 16.7539C42.3913 16.526 42.0859 16.1979 41.8672 15.7695C41.6484 15.3366 41.5391 14.8193 41.5391 14.2178V9.35742H43.4668V13.8965C43.4668 14.3932 43.5944 14.7806 43.8496 15.0586C44.1048 15.3366 44.4557 15.4756 44.9023 15.4756C45.2077 15.4756 45.4766 15.4118 45.709 15.2842C45.9414 15.152 46.1237 14.9606 46.2559 14.71C46.388 14.4593 46.4541 14.1585 46.4541 13.8076V9.35742H48.3818V17H46.5566L46.5361 15.0996H46.6592C46.4541 15.7559 46.1442 16.2526 45.7295 16.5898C45.3148 16.9271 44.7952 17.0957 44.1709 17.0957Z" fill="#292A2E"/>
<path d="M35.2158 17.1367C34.3545 17.1367 33.582 16.9248 32.8984 16.501C32.2148 16.0771 31.6725 15.4756 31.2715 14.6963C30.8704 13.917 30.6699 12.9919 30.6699 11.9209C30.6699 10.8226 30.8773 9.88379 31.292 9.10449C31.7067 8.32064 32.2673 7.72135 32.9736 7.30664C33.6846 6.88737 34.4867 6.67773 35.3799 6.67773C35.945 6.67773 36.4714 6.75977 36.959 6.92383C37.4512 7.08789 37.8887 7.32259 38.2715 7.62793C38.6543 7.93327 38.9665 8.29557 39.208 8.71484C39.4541 9.12956 39.6159 9.58529 39.6934 10.082H37.6904C37.6175 9.82682 37.5104 9.59668 37.3691 9.3916C37.2324 9.18652 37.0661 9.01335 36.8701 8.87207C36.6787 8.72624 36.46 8.61686 36.2139 8.54395C35.9723 8.46647 35.7035 8.42773 35.4072 8.42773C34.8695 8.42773 34.3932 8.56217 33.9785 8.83105C33.5638 9.09993 33.2402 9.49414 33.0078 10.0137C32.7754 10.5286 32.6592 11.1576 32.6592 11.9004C32.6592 12.6432 32.7754 13.2744 33.0078 13.7939C33.2402 14.3135 33.5661 14.71 33.9854 14.9834C34.4092 15.2523 34.9014 15.3867 35.4619 15.3867C35.9678 15.3867 36.4007 15.2887 36.7607 15.0928C37.1253 14.8968 37.4033 14.6188 37.5947 14.2588C37.7907 13.8942 37.8887 13.4635 37.8887 12.9668H38.3057V13.8213C38.3057 14.2588 38.251 14.6781 38.1416 15.0791C38.0322 15.4756 37.8568 15.8288 37.6152 16.1387C37.3783 16.4486 37.0615 16.6924 36.665 16.8701C36.2731 17.0479 35.79 17.1367 35.2158 17.1367ZM38.4561 17L38.1963 14.5664V13.1377H35.5986V11.6201H39.7891V17H38.4561Z" fill="#292A2E"/>
</svg>
