<svg width="71" height="24" viewBox="0 0 71 24" fill="none" xmlns="http://www.w3.org/2000/svg">
<path d="M0 6C0 2.68629 2.68629 0 6 0H18C21.3137 0 24 2.68629 24 6V18C24 21.3137 21.3137 24 18 24H6C2.68629 24 0 21.3137 0 18V6Z" fill="#DDDEE1"/>
<path d="M5.49037 10.87H18.5091C18.8832 10.87 19.0827 10.6705 19.0827 10.2964V5.90696C19.0827 5.53286 18.8832 5.33334 18.5091 5.33334H15.7657C15.3916 5.33334 15.192 5.53286 15.192 5.90696V8.12663H13.945V5.90696C13.945 5.53286 13.7455 5.33334 13.3714 5.33334H10.628C10.2539 5.33334 10.0544 5.53286 10.0544 5.90696V8.12663H8.80739V5.90696C8.80739 5.53286 8.60787 5.33334 8.23377 5.33334H5.49037C5.11627 5.33334 4.91675 5.53286 4.91675 5.90696V10.2964C4.91675 10.6705 5.11627 10.87 5.49037 10.87ZM5.71483 14.7108C5.44049 13.9377 5.26591 13.1396 5.21603 12.2168C5.19109 11.8926 5.34073 11.718 5.68989 11.718H18.3096C18.6587 11.718 18.8084 11.8676 18.8084 12.1669C18.7585 13.0897 18.5839 13.9377 18.2846 14.7108C18.135 15.1098 17.9105 15.2844 17.4865 15.2844H6.51291C6.08893 15.2844 5.86447 15.1098 5.71483 14.7108ZM17.2621 16.7808C16.0649 18.2523 14.0947 19.2 11.9997 19.2C9.90476 19.2 7.88461 18.2523 6.71243 16.7808C6.41315 16.3818 6.56279 16.1324 6.86207 16.1324H17.1374C17.4367 16.1324 17.5863 16.3818 17.2621 16.7808Z" fill="#111213"/>
<path fill-rule="evenodd" clip-rule="evenodd" d="M66.2031 17.1885C65.5788 17.1885 65.0365 17.0335 64.5762 16.7236C64.1204 16.4092 63.7673 15.9626 63.5166 15.3838C63.2659 14.805 63.1406 14.1169 63.1406 13.3193V13.3057C63.1406 12.5081 63.2637 11.82 63.5098 11.2412C63.7559 10.6624 64.1068 10.2181 64.5625 9.9082C65.0228 9.59831 65.5697 9.44336 66.2031 9.44336C66.5449 9.44336 66.8617 9.49805 67.1533 9.60742C67.4495 9.71224 67.7093 9.86263 67.9326 10.0586C68.1605 10.2546 68.3359 10.4893 68.459 10.7627H68.582V6.68164H70.4551V17.0654H68.582V15.8965H68.459C68.3268 16.1654 68.1514 16.3978 67.9326 16.5938C67.7139 16.7852 67.4587 16.9333 67.167 17.0381C66.8753 17.1383 66.554 17.1885 66.2031 17.1885ZM66.8184 15.6299C67.1875 15.6299 67.5042 15.5365 67.7686 15.3496C68.0374 15.1628 68.2425 14.8984 68.3838 14.5566C68.5296 14.2103 68.6025 13.8001 68.6025 13.3262V13.3125C68.6025 12.834 68.5296 12.4238 68.3838 12.082C68.238 11.7357 68.0306 11.4691 67.7617 11.2822C67.4974 11.0954 67.1829 11.002 66.8184 11.002C66.4538 11.002 66.137 11.0954 65.8682 11.2822C65.6038 11.4645 65.3988 11.7288 65.2529 12.0752C65.1117 12.417 65.041 12.8271 65.041 13.3057V13.3193C65.041 13.7979 65.1117 14.2103 65.2529 14.5566C65.3988 14.903 65.6038 15.1696 65.8682 15.3564C66.137 15.5387 66.4538 15.6299 66.8184 15.6299Z" fill="#292A2E"/>
<path d="M57.7197 17.0654V9.56641H59.5859V10.7217H59.709C59.832 10.3161 60.0576 10.0016 60.3857 9.77832C60.7184 9.55501 61.1286 9.44336 61.6162 9.44336C61.7484 9.44336 61.8783 9.45247 62.0059 9.4707C62.1335 9.48438 62.2428 9.50488 62.334 9.53223V11.1797C62.1927 11.1432 62.0469 11.1159 61.8965 11.0977C61.7507 11.0794 61.6025 11.0703 61.4521 11.0703C61.0739 11.0703 60.7435 11.141 60.4609 11.2822C60.1829 11.4235 59.9665 11.624 59.8115 11.8838C59.6611 12.139 59.5859 12.4443 59.5859 12.7998V17.0654H57.7197Z" fill="#292A2E"/>
<path fill-rule="evenodd" clip-rule="evenodd" d="M50.3164 16.915C50.6901 17.0973 51.1139 17.1885 51.5879 17.1885C51.916 17.1885 52.2191 17.1429 52.4971 17.0518C52.7751 16.9606 53.0212 16.8307 53.2354 16.6621C53.4541 16.4935 53.6273 16.2907 53.7549 16.0537H53.8779V17.0654H55.7236V11.9453C55.7236 11.4121 55.6029 10.9564 55.3613 10.5781C55.1243 10.1999 54.7757 9.91048 54.3154 9.70996C53.8597 9.50944 53.3037 9.40918 52.6475 9.40918C52.0368 9.40918 51.499 9.49805 51.0342 9.67578C50.5693 9.85352 50.1979 10.1042 49.9199 10.4277C49.6419 10.7467 49.4756 11.1227 49.4209 11.5557L49.4141 11.6172H51.1572L51.1641 11.5967C51.2461 11.3597 51.4033 11.1774 51.6357 11.0498C51.8727 10.9222 52.1781 10.8584 52.5518 10.8584C52.9847 10.8584 53.3128 10.9518 53.5361 11.1387C53.764 11.3255 53.8779 11.5944 53.8779 11.9453V12.5692L52.0117 12.6836C51.3965 12.7201 50.8747 12.8294 50.4463 13.0117C50.0179 13.194 49.6921 13.4469 49.4688 13.7705C49.2454 14.0895 49.1338 14.4746 49.1338 14.9258V14.9395C49.1338 15.3952 49.2386 15.7917 49.4482 16.1289C49.6579 16.4661 49.9473 16.7282 50.3164 16.915ZM52.2852 13.8525L53.8779 13.7487V14.3242C53.8779 14.6022 53.8027 14.8529 53.6523 15.0762C53.5065 15.2949 53.306 15.4704 53.0508 15.6025C52.8001 15.7301 52.513 15.7939 52.1895 15.7939C51.8294 15.7939 51.5355 15.7096 51.3076 15.541C51.0798 15.3678 50.9658 15.1309 50.9658 14.8301V14.8164C50.9658 14.5293 51.0729 14.3037 51.2871 14.1396C51.5059 13.9756 51.8385 13.8799 52.2852 13.8525Z" fill="#292A2E"/>
<path d="M43.3438 17.2227C42.7832 17.2227 42.3115 17.1133 41.9287 16.8945C41.5505 16.6758 41.2656 16.3568 41.0742 15.9375C40.8874 15.5182 40.7939 15.0101 40.7939 14.4131V9.56641H42.6602V13.9893C42.6602 14.5407 42.7695 14.9577 42.9883 15.2402C43.207 15.5228 43.5625 15.6641 44.0547 15.6641C44.3099 15.6641 44.5355 15.623 44.7314 15.541C44.932 15.4544 45.1006 15.3359 45.2373 15.1855C45.374 15.0352 45.4743 14.8529 45.5381 14.6387C45.6064 14.4245 45.6406 14.1829 45.6406 13.9141V9.56641H47.5137V17.0654H45.6406V15.917H45.5244C45.4105 16.1859 45.251 16.4183 45.0459 16.6143C44.8408 16.8102 44.5947 16.9606 44.3076 17.0654C44.0205 17.1702 43.6992 17.2227 43.3438 17.2227Z" fill="#292A2E"/>
<path d="M32.7275 16.9629C33.3063 17.1999 33.958 17.3184 34.6826 17.3184C35.348 17.3184 35.9495 17.2204 36.4873 17.0244C37.0251 16.8239 37.4831 16.5391 37.8613 16.1699C38.2396 15.8008 38.529 15.3564 38.7295 14.8369C38.93 14.3174 39.0303 13.734 39.0303 13.0869V11.8428H34.9082V13.2852H37.1436L37.1367 13.4766C37.1276 13.9141 37.0205 14.2969 36.8154 14.625C36.6104 14.9531 36.3278 15.2083 35.9678 15.3906C35.6077 15.5729 35.1908 15.6641 34.7168 15.6641C34.2975 15.6641 33.917 15.582 33.5752 15.418C33.238 15.2539 32.9486 15.0192 32.707 14.7139C32.4701 14.404 32.2878 14.0303 32.1602 13.5928C32.0326 13.1553 31.9688 12.6631 31.9688 12.1162V12.1025C31.9688 11.387 32.0781 10.7673 32.2969 10.2432C32.5156 9.71908 32.8232 9.31576 33.2197 9.0332C33.6208 8.74609 34.097 8.60254 34.6484 8.60254C35.25 8.60254 35.7581 8.74609 36.1729 9.0332C36.5876 9.31576 36.8678 9.71452 37.0137 10.2295L37.0273 10.2979H38.9551L38.9414 10.2295C38.8366 9.5778 38.5905 9.00586 38.2031 8.51367C37.8203 8.02148 37.3236 7.63867 36.7129 7.36523C36.1068 7.08724 35.4186 6.94824 34.6484 6.94824C33.7005 6.94824 32.8779 7.16016 32.1807 7.58398C31.4834 8.00781 30.9456 8.6071 30.5674 9.38184C30.1891 10.152 30 11.0658 30 12.123V12.1367C30 12.9342 30.1071 13.652 30.3213 14.29C30.54 14.9281 30.8522 15.4727 31.2578 15.9238C31.6634 16.375 32.1533 16.7214 32.7275 16.9629Z" fill="#292A2E"/>
</svg>
