<svg width="71" height="24" viewBox="0 0 71 24" fill="none" xmlns="http://www.w3.org/2000/svg">
<path d="M0 6C0 2.68629 2.68629 0 6 0H18C21.3137 0 24 2.68629 24 6V18C24 21.3137 21.3137 24 18 24H6C2.68629 24 0 21.3137 0 18V6Z" fill="#DDDEE1"/>
<path d="M5.875 10.6875V18.125H10.25V13.75H13.75V18.125H18.125V10.6875L12 5L5.875 10.6875Z" fill="#1E1F21"/>
<path d="M66.0322 17.1504C65.2575 17.1504 64.5898 16.9909 64.0293 16.6719C63.4688 16.3483 63.0381 15.8926 62.7373 15.3047C62.4365 14.7168 62.2861 14.0218 62.2861 13.2197C62.2861 12.4359 62.4342 11.7477 62.7305 11.1553C63.0312 10.5583 63.4528 10.0934 63.9951 9.76074C64.542 9.42806 65.1846 9.26172 65.9229 9.26172C66.4059 9.26172 66.8594 9.33919 67.2832 9.49414C67.7116 9.64909 68.0898 9.88607 68.418 10.2051C68.7461 10.5195 69.0013 10.9206 69.1836 11.4082C69.3704 11.8913 69.4639 12.4655 69.4639 13.1309V13.6982H63.127V12.4473H68.5205L67.6182 12.7959C67.6182 12.3812 67.5544 12.0212 67.4268 11.7158C67.2992 11.4059 67.11 11.1667 66.8594 10.998C66.6133 10.8249 66.3034 10.7383 65.9297 10.7383C65.5605 10.7383 65.2461 10.8249 64.9863 10.998C64.7266 11.1712 64.5283 11.4059 64.3916 11.7021C64.2549 11.9938 64.1865 12.3219 64.1865 12.6865V13.5615C64.1865 14.0218 64.264 14.4115 64.4189 14.7305C64.5784 15.0449 64.7972 15.2819 65.0752 15.4414C65.3577 15.6009 65.6859 15.6807 66.0596 15.6807C66.3057 15.6807 66.5312 15.6442 66.7363 15.5713C66.9414 15.4984 67.1169 15.3936 67.2627 15.2568C67.4085 15.1156 67.5202 14.9424 67.5977 14.7373L69.3477 15.0791C69.2246 15.4938 69.0127 15.8584 68.7119 16.1729C68.4111 16.4827 68.0329 16.7243 67.5771 16.8975C67.126 17.0661 66.611 17.1504 66.0322 17.1504Z" fill="#292A2E"/>
<path d="M49.9062 17V9.35742H51.7041L51.7861 11.2305H51.6494C51.7633 10.7656 51.9342 10.3874 52.1621 10.0957C52.3945 9.80404 52.6657 9.58984 52.9756 9.45312C53.2855 9.31185 53.609 9.24121 53.9463 9.24121C54.4977 9.24121 54.9421 9.41439 55.2793 9.76074C55.6165 10.1071 55.8604 10.6312 56.0107 11.333H55.7852C55.8945 10.859 56.0768 10.4671 56.332 10.1572C56.5918 9.84733 56.8949 9.61719 57.2412 9.4668C57.5921 9.31641 57.9658 9.24121 58.3623 9.24121C58.8226 9.24121 59.235 9.34147 59.5996 9.54199C59.9688 9.74251 60.2581 10.0365 60.4678 10.4238C60.682 10.8112 60.7891 11.2852 60.7891 11.8457V17H58.8682V12.1807C58.8682 11.7295 58.7451 11.3968 58.499 11.1826C58.2529 10.9684 57.9544 10.8613 57.6035 10.8613C57.3346 10.8613 57.0999 10.9206 56.8994 11.0391C56.7035 11.153 56.5508 11.3148 56.4414 11.5244C56.3366 11.734 56.2842 11.9779 56.2842 12.2559V17H54.418V12.1123C54.418 11.7295 54.3018 11.4264 54.0693 11.2031C53.8415 10.9753 53.5452 10.8613 53.1807 10.8613C52.93 10.8613 52.7021 10.9183 52.4971 11.0322C52.292 11.1462 52.1302 11.3148 52.0117 11.5381C51.8932 11.7568 51.834 12.028 51.834 12.3516V17H49.9062Z" fill="#292A2E"/>
<path d="M44.7246 17.1504C43.9681 17.1504 43.3118 16.9863 42.7559 16.6582C42.2044 16.3301 41.7783 15.8698 41.4775 15.2773C41.1768 14.6849 41.0264 13.9967 41.0264 13.2129C41.0264 12.4245 41.1768 11.734 41.4775 11.1416C41.7783 10.5446 42.2044 10.082 42.7559 9.75391C43.3118 9.42578 43.9681 9.26172 44.7246 9.26172C45.4811 9.26172 46.1351 9.42578 46.6865 9.75391C47.2425 10.082 47.6709 10.5446 47.9717 11.1416C48.2725 11.734 48.4229 12.4245 48.4229 13.2129C48.4229 13.9967 48.2725 14.6849 47.9717 15.2773C47.6709 15.8698 47.2425 16.3301 46.6865 16.6582C46.1351 16.9863 45.4811 17.1504 44.7246 17.1504ZM44.7246 15.6191C45.112 15.6191 45.4355 15.5143 45.6953 15.3047C45.9551 15.0905 46.1488 14.8011 46.2764 14.4365C46.404 14.0719 46.4678 13.6618 46.4678 13.2061C46.4678 12.7503 46.404 12.3402 46.2764 11.9756C46.1488 11.611 45.9551 11.3239 45.6953 11.1143C45.4355 10.9001 45.112 10.793 44.7246 10.793C44.3372 10.793 44.0137 10.9001 43.7539 11.1143C43.4987 11.3239 43.305 11.611 43.1729 11.9756C43.0452 12.3356 42.9814 12.7458 42.9814 13.2061C42.9814 13.6618 43.0452 14.0719 43.1729 14.4365C43.305 14.8011 43.4987 15.0905 43.7539 15.3047C44.0137 15.5143 44.3372 15.6191 44.7246 15.6191Z" fill="#292A2E"/>
<path d="M30.9707 17V6.81445H32.9326V10.9707H37.5127V6.81445H39.4814V17H37.5127V12.6113H32.9326V17H30.9707Z" fill="#292A2E"/>
</svg>
