<svg width="56" height="24" viewBox="0 0 56 24" fill="none" xmlns="http://www.w3.org/2000/svg">
<path d="M0 6C0 2.68629 2.68629 0 6 0H18C21.3137 0 24 2.68629 24 6V18C24 21.3137 21.3137 24 18 24H6C2.68629 24 0 21.3137 0 18V6Z" fill="#1868DB"/>
<path d="M9.05131 15.4336H7.73368C5.74643 15.4336 4.3208 14.2163 4.3208 12.434H11.4058C11.773 12.434 12.0106 12.6948 12.0106 13.0643V20.1937C10.2393 20.1937 9.05131 18.7592 9.05131 16.7595V15.4336ZM12.5506 11.8906H11.233C9.24571 11.8906 7.82008 10.6951 7.82008 8.91276H14.905C15.2722 8.91276 15.5315 9.15185 15.5315 9.52137V16.6508C13.7602 16.6508 12.5506 15.2162 12.5506 13.2165V11.8906ZM16.0715 8.36936H14.7538C12.7666 8.36936 11.341 7.15214 11.341 5.36979H18.4259C18.7931 5.36979 19.0307 5.63062 19.0307 5.9784V13.1078C17.2595 13.1078 16.0715 11.6732 16.0715 9.67352V8.36936Z" fill="white"/>
<path d="M50.8906 17.1299C50.3027 17.1299 49.7718 16.9772 49.2979 16.6719C48.8285 16.3665 48.4548 15.9222 48.1768 15.3389C47.9033 14.751 47.7666 14.0355 47.7666 13.1924C47.7666 12.3311 47.9079 11.6087 48.1904 11.0254C48.473 10.4421 48.8512 10.0023 49.3252 9.70605C49.7992 9.40983 50.3255 9.26172 50.9043 9.26172C51.3418 9.26172 51.7041 9.33691 51.9912 9.4873C52.2783 9.63314 52.5085 9.81315 52.6816 10.0273C52.8548 10.237 52.987 10.4398 53.0781 10.6357H53.1533V9.35742H55.0605V17H53.1602V15.7832H53.0781C52.987 15.9792 52.8503 16.182 52.668 16.3916C52.4902 16.6012 52.2578 16.7767 51.9707 16.918C51.6836 17.0592 51.3236 17.1299 50.8906 17.1299ZM51.4648 15.5781C51.834 15.5781 52.1462 15.4779 52.4014 15.2773C52.6566 15.0768 52.8503 14.7965 52.9824 14.4365C53.1191 14.0765 53.1875 13.6595 53.1875 13.1855C53.1875 12.707 53.1214 12.2923 52.9893 11.9414C52.8571 11.5859 52.6634 11.3102 52.4082 11.1143C52.153 10.9183 51.8385 10.8203 51.4648 10.8203C51.0866 10.8203 50.7676 10.9206 50.5078 11.1211C50.2526 11.3216 50.0589 11.5996 49.9268 11.9551C49.7992 12.3105 49.7354 12.7207 49.7354 13.1855C49.7354 13.6458 49.8014 14.056 49.9336 14.416C50.0658 14.776 50.2594 15.0609 50.5146 15.2705C50.7744 15.4756 51.0911 15.5781 51.4648 15.5781Z" fill="#292A2E"/>
<path d="M42.7832 17V9.35742H44.6494V10.6631H44.7314C44.8682 10.2074 45.1051 9.85872 45.4424 9.61719C45.7796 9.37565 46.1647 9.25488 46.5977 9.25488C46.6979 9.25488 46.8096 9.26172 46.9326 9.27539C47.0557 9.28451 47.1628 9.29818 47.2539 9.31641V11.0527C47.1719 11.0254 47.0443 11.0026 46.8711 10.9844C46.7025 10.9661 46.5407 10.957 46.3857 10.957C46.0667 10.957 45.7796 11.0254 45.5244 11.1621C45.2692 11.2988 45.0687 11.4902 44.9229 11.7363C44.7816 11.9779 44.7109 12.2604 44.7109 12.584V17H42.7832Z" fill="#292A2E"/>
<path d="M39.0508 17V9.35742H40.9785V17H39.0508ZM39.0303 8.27051V6.51367H41.0127V8.27051H39.0303Z" fill="#292A2E"/>
<path d="M33.8555 17.1367C32.821 17.1367 32.0029 16.8633 31.4014 16.3164C30.7998 15.765 30.499 14.9811 30.499 13.9648V13.377H32.4609V13.9854C32.4609 14.4958 32.5863 14.8831 32.8369 15.1475C33.0876 15.4072 33.4271 15.5371 33.8555 15.5371C34.2793 15.5371 34.6143 15.4072 34.8604 15.1475C35.111 14.8831 35.2363 14.4958 35.2363 13.9854V6.81445H37.1777V13.958C37.1777 14.9743 36.8792 15.7581 36.2822 16.3096C35.6898 16.861 34.8809 17.1367 33.8555 17.1367Z" fill="#292A2E"/>
</svg>
