<svg width="186" height="24" viewBox="0 0 186 24" fill="none" xmlns="http://www.w3.org/2000/svg">
<path d="M0 6C0 2.68629 2.68629 0 6 0H18C21.3137 0 24 2.68629 24 6V18C24 21.3137 21.3137 24 18 24H6C2.68629 24 0 21.3137 0 18V6Z" fill="#C97CF4"/>
<path d="M13.4666 4.88179C15.268 5.41024 17.0872 5.41024 18.8886 4.88179C19.0475 4.84656 19.1535 4.95225 19.1182 5.11079C18.606 6.96038 18.606 8.66905 19.1182 10.5186C19.1535 10.6596 19.0475 10.7829 18.8886 10.73C17.0872 10.2368 15.268 10.2368 13.4666 10.73C13.3253 10.7829 13.2017 10.6596 13.2547 10.5186C13.7315 8.66905 13.7315 6.96038 13.2547 5.11079C13.2017 4.95225 13.3253 4.84656 13.4666 4.88179ZM14.1907 11.4346V11.7341C14.1907 13.1257 13.2193 14.1474 12.0184 14.1474C10.8174 14.1474 9.8637 13.1785 9.8637 11.9807C9.8637 10.7829 10.8351 9.83165 12.195 9.83165H12.5482V5.62163C12.3716 5.60401 12.195 5.60401 12.0184 5.60401C8.48612 5.60401 5.625 8.45767 5.625 11.9983C5.625 15.539 8.48612 18.375 12.0184 18.375C15.5506 18.375 18.4294 15.5213 18.4294 11.9983V11.4346H14.1907Z" fill="#111213"/>
<path d="M177.608 19.7139L178.053 18.2441L178.285 18.3057C178.559 18.3786 178.8 18.3991 179.01 18.3672C179.224 18.3353 179.397 18.2441 179.529 18.0938C179.666 17.9479 179.757 17.7406 179.803 17.4717L179.885 17.0273L177.007 9.35742H179.051L180.391 13.4111C180.55 13.9079 180.68 14.4046 180.78 14.9014C180.885 15.3981 180.999 15.9108 181.122 16.4395H180.65C180.778 15.9108 180.901 15.3981 181.02 14.9014C181.143 14.4001 181.286 13.9033 181.45 13.4111L182.845 9.35742H184.868L181.607 17.9365C181.452 18.3467 181.254 18.6999 181.013 18.9961C180.776 19.2923 180.482 19.5179 180.131 19.6729C179.785 19.8324 179.368 19.9121 178.88 19.9121C178.616 19.9121 178.369 19.8916 178.142 19.8506C177.918 19.8141 177.741 19.7686 177.608 19.7139Z" fill="#292A2E"/>
<path d="M171.818 17V9.35742H173.685V10.6631H173.767C173.903 10.2074 174.14 9.85872 174.478 9.61719C174.815 9.37565 175.2 9.25488 175.633 9.25488C175.733 9.25488 175.845 9.26172 175.968 9.27539C176.091 9.28451 176.198 9.29818 176.289 9.31641V11.0527C176.207 11.0254 176.079 11.0026 175.906 10.9844C175.738 10.9661 175.576 10.957 175.421 10.957C175.102 10.957 174.815 11.0254 174.56 11.1621C174.304 11.2988 174.104 11.4902 173.958 11.7363C173.817 11.9779 173.746 12.2604 173.746 12.584V17H171.818Z" fill="#292A2E"/>
<path d="M166.931 17.1504C166.156 17.1504 165.488 16.9909 164.928 16.6719C164.367 16.3483 163.937 15.8926 163.636 15.3047C163.335 14.7168 163.185 14.0218 163.185 13.2197C163.185 12.4359 163.333 11.7477 163.629 11.1553C163.93 10.5583 164.351 10.0934 164.894 9.76074C165.44 9.42806 166.083 9.26172 166.821 9.26172C167.304 9.26172 167.758 9.33919 168.182 9.49414C168.61 9.64909 168.988 9.88607 169.316 10.2051C169.645 10.5195 169.9 10.9206 170.082 11.4082C170.269 11.8913 170.362 12.4655 170.362 13.1309V13.6982H164.025V12.4473H169.419L168.517 12.7959C168.517 12.3812 168.453 12.0212 168.325 11.7158C168.198 11.4059 168.008 11.1667 167.758 10.998C167.512 10.8249 167.202 10.7383 166.828 10.7383C166.459 10.7383 166.145 10.8249 165.885 10.998C165.625 11.1712 165.427 11.4059 165.29 11.7021C165.153 11.9938 165.085 12.3219 165.085 12.6865V13.5615C165.085 14.0218 165.162 14.4115 165.317 14.7305C165.477 15.0449 165.696 15.2819 165.974 15.4414C166.256 15.6009 166.584 15.6807 166.958 15.6807C167.204 15.6807 167.43 15.6442 167.635 15.5713C167.84 15.4984 168.015 15.3936 168.161 15.2568C168.307 15.1156 168.419 14.9424 168.496 14.7373L170.246 15.0791C170.123 15.4938 169.911 15.8584 169.61 16.1729C169.31 16.4827 168.931 16.7243 168.476 16.8975C168.024 17.0661 167.509 17.1504 166.931 17.1504Z" fill="#292A2E"/>
<path d="M157.62 17L154.79 9.35742H156.834L158.174 13.4111C158.333 13.9033 158.47 14.4001 158.584 14.9014C158.702 15.3981 158.826 15.9108 158.953 16.4395H158.509C158.632 15.9108 158.75 15.3981 158.864 14.9014C158.978 14.4001 159.115 13.9033 159.274 13.4111L160.601 9.35742H162.624L159.794 17H157.62Z" fill="#292A2E"/>
<path d="M150.531 17.1504C149.775 17.1504 149.118 16.9863 148.562 16.6582C148.011 16.3301 147.585 15.8698 147.284 15.2773C146.983 14.6849 146.833 13.9967 146.833 13.2129C146.833 12.4245 146.983 11.734 147.284 11.1416C147.585 10.5446 148.011 10.082 148.562 9.75391C149.118 9.42578 149.775 9.26172 150.531 9.26172C151.288 9.26172 151.942 9.42578 152.493 9.75391C153.049 10.082 153.478 10.5446 153.778 11.1416C154.079 11.734 154.229 12.4245 154.229 13.2129C154.229 13.9967 154.079 14.6849 153.778 15.2773C153.478 15.8698 153.049 16.3301 152.493 16.6582C151.942 16.9863 151.288 17.1504 150.531 17.1504ZM150.531 15.6191C150.919 15.6191 151.242 15.5143 151.502 15.3047C151.762 15.0905 151.955 14.8011 152.083 14.4365C152.211 14.0719 152.274 13.6618 152.274 13.2061C152.274 12.7503 152.211 12.3402 152.083 11.9756C151.955 11.611 151.762 11.3239 151.502 11.1143C151.242 10.9001 150.919 10.793 150.531 10.793C150.144 10.793 149.82 10.9001 149.561 11.1143C149.305 11.3239 149.112 11.611 148.979 11.9756C148.852 12.3356 148.788 12.7458 148.788 13.2061C148.788 13.6618 148.852 14.0719 148.979 14.4365C149.112 14.8011 149.305 15.0905 149.561 15.3047C149.82 15.5143 150.144 15.6191 150.531 15.6191Z" fill="#292A2E"/>
<path d="M142.321 17.1504C141.569 17.1504 140.915 16.9863 140.359 16.6582C139.808 16.3301 139.382 15.8698 139.081 15.2773C138.78 14.6849 138.63 13.9967 138.63 13.2129C138.63 12.4245 138.78 11.734 139.081 11.1416C139.382 10.5446 139.808 10.082 140.359 9.75391C140.915 9.42578 141.569 9.26172 142.321 9.26172C142.763 9.26172 143.171 9.31868 143.545 9.43262C143.919 9.54655 144.251 9.71061 144.543 9.9248C144.835 10.139 145.076 10.3988 145.268 10.7041C145.464 11.0094 145.6 11.3535 145.678 11.7363L143.88 12.0918C143.839 11.8913 143.773 11.7113 143.682 11.5518C143.59 11.3923 143.479 11.2578 143.347 11.1484C143.219 11.0345 143.071 10.9479 142.902 10.8887C142.734 10.8249 142.547 10.793 142.342 10.793C141.954 10.793 141.631 10.8978 141.371 11.1074C141.111 11.3125 140.915 11.5973 140.783 11.9619C140.651 12.3219 140.585 12.7367 140.585 13.2061C140.585 13.6709 140.651 14.0856 140.783 14.4502C140.915 14.8102 141.111 15.0951 141.371 15.3047C141.631 15.5143 141.954 15.6191 142.342 15.6191C142.551 15.6191 142.741 15.5895 142.909 15.5303C143.082 15.4665 143.235 15.3753 143.367 15.2568C143.499 15.1383 143.611 14.9971 143.702 14.833C143.793 14.6644 143.859 14.4775 143.9 14.2725L145.691 14.6211C145.614 15.0176 145.479 15.3708 145.288 15.6807C145.097 15.9906 144.853 16.2549 144.557 16.4736C144.265 16.6924 143.93 16.861 143.552 16.9795C143.178 17.0934 142.768 17.1504 142.321 17.1504Z" fill="#292A2E"/>
<path d="M134.146 17.1504C133.544 17.1504 133.011 17.0661 132.546 16.8975C132.081 16.7243 131.701 16.4736 131.404 16.1455C131.113 15.8128 130.921 15.4141 130.83 14.9492L132.628 14.6279C132.728 14.9925 132.908 15.266 133.168 15.4482C133.428 15.626 133.77 15.7148 134.193 15.7148C134.604 15.7148 134.929 15.6351 135.171 15.4756C135.412 15.3115 135.533 15.1087 135.533 14.8672C135.533 14.6576 135.451 14.4867 135.287 14.3545C135.123 14.2178 134.87 14.113 134.528 14.04L133.216 13.7666C132.487 13.6117 131.942 13.3564 131.582 13.001C131.222 12.641 131.042 12.1761 131.042 11.6064C131.042 11.1279 131.174 10.7132 131.438 10.3623C131.703 10.0114 132.07 9.74023 132.539 9.54883C133.013 9.35742 133.562 9.26172 134.187 9.26172C134.779 9.26172 135.289 9.34603 135.718 9.51465C136.151 9.67871 136.499 9.91113 136.764 10.2119C137.033 10.5081 137.215 10.8613 137.311 11.2715L135.602 11.5859C135.52 11.3216 135.365 11.1029 135.137 10.9297C134.913 10.752 134.606 10.6631 134.214 10.6631C133.858 10.6631 133.56 10.7406 133.318 10.8955C133.081 11.0459 132.963 11.2441 132.963 11.4902C132.963 11.6999 133.04 11.873 133.195 12.0098C133.355 12.1465 133.621 12.2559 133.995 12.3379L135.335 12.6113C136.064 12.7617 136.606 13.0078 136.962 13.3496C137.322 13.6914 137.502 14.1335 137.502 14.6758C137.502 15.168 137.358 15.6009 137.071 15.9746C136.784 16.3438 136.388 16.6331 135.882 16.8428C135.381 17.0479 134.802 17.1504 134.146 17.1504Z" fill="#292A2E"/>
<path d="M127.439 17V9.35742H129.367V17H127.439ZM127.419 8.27051V6.51367H129.401V8.27051H127.419Z" fill="#292A2E"/>
<path d="M120.904 17H118.3V15.3047H120.815C121.494 15.3047 122.064 15.1816 122.524 14.9355C122.985 14.6895 123.329 14.3158 123.557 13.8145C123.789 13.3086 123.905 12.6706 123.905 11.9004C123.905 11.1302 123.789 10.4967 123.557 10C123.329 9.4987 122.987 9.125 122.531 8.87891C122.076 8.63281 121.513 8.50977 120.843 8.50977H118.245V6.81445H120.959C121.975 6.81445 122.848 7.01725 123.577 7.42285C124.311 7.82845 124.874 8.41178 125.266 9.17285C125.662 9.93392 125.86 10.8431 125.86 11.9004C125.86 12.9577 125.662 13.8691 125.266 14.6348C124.874 15.3958 124.306 15.9814 123.563 16.3916C122.825 16.7972 121.939 17 120.904 17ZM119.353 6.81445V17H117.391V6.81445H119.353Z" fill="#292A2E"/>
<path d="M112.537 9.35742V10.8408H108.094V9.35742H112.537ZM109.16 7.53906H111.081V14.8057C111.081 15.0609 111.138 15.25 111.252 15.373C111.366 15.4961 111.553 15.5576 111.812 15.5576C111.89 15.5576 111.997 15.5485 112.134 15.5303C112.271 15.5075 112.378 15.487 112.455 15.4688L112.742 16.9316C112.533 16.9954 112.321 17.0387 112.106 17.0615C111.892 17.0889 111.685 17.1025 111.484 17.1025C110.732 17.1025 110.156 16.9202 109.755 16.5557C109.358 16.1865 109.16 15.6579 109.16 14.9697V7.53906Z" fill="#292A2E"/>
<path d="M104.026 17.1504C103.274 17.1504 102.62 16.9863 102.064 16.6582C101.513 16.3301 101.087 15.8698 100.786 15.2773C100.485 14.6849 100.335 13.9967 100.335 13.2129C100.335 12.4245 100.485 11.734 100.786 11.1416C101.087 10.5446 101.513 10.082 102.064 9.75391C102.62 9.42578 103.274 9.26172 104.026 9.26172C104.468 9.26172 104.876 9.31868 105.25 9.43262C105.624 9.54655 105.956 9.71061 106.248 9.9248C106.54 10.139 106.781 10.3988 106.973 10.7041C107.169 11.0094 107.305 11.3535 107.383 11.7363L105.585 12.0918C105.544 11.8913 105.478 11.7113 105.387 11.5518C105.296 11.3923 105.184 11.2578 105.052 11.1484C104.924 11.0345 104.776 10.9479 104.607 10.8887C104.439 10.8249 104.252 10.793 104.047 10.793C103.66 10.793 103.336 10.8978 103.076 11.1074C102.816 11.3125 102.62 11.5973 102.488 11.9619C102.356 12.3219 102.29 12.7367 102.29 13.2061C102.29 13.6709 102.356 14.0856 102.488 14.4502C102.62 14.8102 102.816 15.0951 103.076 15.3047C103.336 15.5143 103.66 15.6191 104.047 15.6191C104.257 15.6191 104.446 15.5895 104.614 15.5303C104.787 15.4665 104.94 15.3753 105.072 15.2568C105.204 15.1383 105.316 14.9971 105.407 14.833C105.498 14.6644 105.564 14.4775 105.605 14.2725L107.396 14.6211C107.319 15.0176 107.185 15.3708 106.993 15.6807C106.802 15.9906 106.558 16.2549 106.262 16.4736C105.97 16.6924 105.635 16.861 105.257 16.9795C104.883 17.0934 104.473 17.1504 104.026 17.1504Z" fill="#292A2E"/>
<path d="M94.6338 17.0957C94.1051 17.0957 93.6426 16.9818 93.2461 16.7539C92.8542 16.526 92.5488 16.1979 92.3301 15.7695C92.1113 15.3366 92.002 14.8193 92.002 14.2178V9.35742H93.9297V13.8965C93.9297 14.3932 94.0573 14.7806 94.3125 15.0586C94.5677 15.3366 94.9186 15.4756 95.3652 15.4756C95.6706 15.4756 95.9395 15.4118 96.1719 15.2842C96.4043 15.152 96.5866 14.9606 96.7188 14.71C96.8509 14.4593 96.917 14.1585 96.917 13.8076V9.35742H98.8447V17H97.0195L96.999 15.0996H97.1221C96.917 15.7559 96.6071 16.2526 96.1924 16.5898C95.7777 16.9271 95.2581 17.0957 94.6338 17.0957Z" fill="#292A2E"/>
<path d="M86.0205 17.1299C85.4281 17.1299 84.8949 16.9772 84.4209 16.6719C83.9469 16.3665 83.5732 15.9222 83.2998 15.3389C83.0264 14.751 82.8896 14.0355 82.8896 13.1924C82.8896 12.3311 83.0286 11.6087 83.3066 11.0254C83.5892 10.4421 83.9674 10.0023 84.4414 9.70605C84.9154 9.40983 85.4395 9.26172 86.0137 9.26172C86.4557 9.26172 86.8203 9.33691 87.1074 9.4873C87.3945 9.63314 87.6247 9.81315 87.7979 10.0273C87.9756 10.237 88.1077 10.4398 88.1943 10.6357H88.2627V6.81445H90.1836V17H88.2969V15.7832H88.1943C88.1032 15.9792 87.9688 16.182 87.791 16.3916C87.6133 16.5967 87.3809 16.7721 87.0938 16.918C86.8066 17.0592 86.4489 17.1299 86.0205 17.1299ZM86.5811 15.5781C86.9502 15.5781 87.2624 15.4779 87.5176 15.2773C87.7728 15.0768 87.9665 14.7965 88.0986 14.4365C88.2354 14.0765 88.3037 13.6595 88.3037 13.1855C88.3037 12.707 88.2376 12.2923 88.1055 11.9414C87.9733 11.5859 87.7773 11.3102 87.5176 11.1143C87.2624 10.9183 86.9502 10.8203 86.5811 10.8203C86.2028 10.8203 85.8861 10.9229 85.6309 11.1279C85.3757 11.3285 85.182 11.6064 85.0498 11.9619C84.9222 12.3174 84.8584 12.7253 84.8584 13.1855C84.8584 13.6458 84.9222 14.056 85.0498 14.416C85.182 14.776 85.3757 15.0609 85.6309 15.2705C85.8906 15.4756 86.2074 15.5781 86.5811 15.5781Z" fill="#292A2E"/>
<path d="M78.0293 17.1504C77.2728 17.1504 76.6165 16.9863 76.0605 16.6582C75.5091 16.3301 75.083 15.8698 74.7822 15.2773C74.4814 14.6849 74.3311 13.9967 74.3311 13.2129C74.3311 12.4245 74.4814 11.734 74.7822 11.1416C75.083 10.5446 75.5091 10.082 76.0605 9.75391C76.6165 9.42578 77.2728 9.26172 78.0293 9.26172C78.7858 9.26172 79.4398 9.42578 79.9912 9.75391C80.5472 10.082 80.9756 10.5446 81.2764 11.1416C81.5771 11.734 81.7275 12.4245 81.7275 13.2129C81.7275 13.9967 81.5771 14.6849 81.2764 15.2773C80.9756 15.8698 80.5472 16.3301 79.9912 16.6582C79.4398 16.9863 78.7858 17.1504 78.0293 17.1504ZM78.0293 15.6191C78.4167 15.6191 78.7402 15.5143 79 15.3047C79.2598 15.0905 79.4534 14.8011 79.5811 14.4365C79.7087 14.0719 79.7725 13.6618 79.7725 13.2061C79.7725 12.7503 79.7087 12.3402 79.5811 11.9756C79.4534 11.611 79.2598 11.3239 79 11.1143C78.7402 10.9001 78.4167 10.793 78.0293 10.793C77.6419 10.793 77.3184 10.9001 77.0586 11.1143C76.8034 11.3239 76.6097 11.611 76.4775 11.9756C76.3499 12.3356 76.2861 12.7458 76.2861 13.2061C76.2861 13.6618 76.3499 14.0719 76.4775 14.4365C76.6097 14.8011 76.8034 15.0905 77.0586 15.3047C77.3184 15.5143 77.6419 15.6191 78.0293 15.6191Z" fill="#292A2E"/>
<path d="M69.3477 17V9.35742H71.2139V10.6631H71.2959C71.4326 10.2074 71.6696 9.85872 72.0068 9.61719C72.3441 9.37565 72.7292 9.25488 73.1621 9.25488C73.2624 9.25488 73.374 9.26172 73.4971 9.27539C73.6201 9.28451 73.7272 9.29818 73.8184 9.31641V11.0527C73.7363 11.0254 73.6087 11.0026 73.4355 10.9844C73.2669 10.9661 73.1051 10.957 72.9502 10.957C72.6312 10.957 72.3441 11.0254 72.0889 11.1621C71.8337 11.2988 71.6331 11.4902 71.4873 11.7363C71.346 11.9779 71.2754 12.2604 71.2754 12.584V17H69.3477Z" fill="#292A2E"/>
<path d="M60.3652 17V6.81445H64.2617C65.0365 6.81445 65.6927 6.96257 66.2305 7.25879C66.7682 7.55046 67.1761 7.95378 67.4541 8.46875C67.7367 8.97917 67.8779 9.56478 67.8779 10.2256C67.8779 10.8864 67.7367 11.472 67.4541 11.9824C67.1716 12.4928 66.7568 12.8939 66.21 13.1855C65.6676 13.4727 65.0046 13.6162 64.2207 13.6162H61.6846V12.0166H63.9336C64.3757 12.0166 64.738 11.9414 65.0205 11.791C65.3076 11.6361 65.5195 11.4242 65.6562 11.1553C65.793 10.8818 65.8613 10.5719 65.8613 10.2256C65.8613 9.87012 65.793 9.56022 65.6562 9.2959C65.5195 9.02702 65.3076 8.81738 65.0205 8.66699C64.7334 8.5166 64.3688 8.44141 63.9268 8.44141H62.3271V17H60.3652Z" fill="#292A2E"/>
<path d="M50.8906 17.1299C50.3027 17.1299 49.7718 16.9772 49.2979 16.6719C48.8285 16.3665 48.4548 15.9222 48.1768 15.3389C47.9033 14.751 47.7666 14.0355 47.7666 13.1924C47.7666 12.3311 47.9079 11.6087 48.1904 11.0254C48.473 10.4421 48.8512 10.0023 49.3252 9.70605C49.7992 9.40983 50.3255 9.26172 50.9043 9.26172C51.3418 9.26172 51.7041 9.33691 51.9912 9.4873C52.2783 9.63314 52.5085 9.81315 52.6816 10.0273C52.8548 10.237 52.987 10.4398 53.0781 10.6357H53.1533V9.35742H55.0605V17H53.1602V15.7832H53.0781C52.987 15.9792 52.8503 16.182 52.668 16.3916C52.4902 16.6012 52.2578 16.7767 51.9707 16.918C51.6836 17.0592 51.3236 17.1299 50.8906 17.1299ZM51.4648 15.5781C51.834 15.5781 52.1462 15.4779 52.4014 15.2773C52.6566 15.0768 52.8503 14.7965 52.9824 14.4365C53.1191 14.0765 53.1875 13.6595 53.1875 13.1855C53.1875 12.707 53.1214 12.2923 52.9893 11.9414C52.8571 11.5859 52.6634 11.3102 52.4082 11.1143C52.153 10.9183 51.8385 10.8203 51.4648 10.8203C51.0866 10.8203 50.7676 10.9206 50.5078 11.1211C50.2526 11.3216 50.0589 11.5996 49.9268 11.9551C49.7992 12.3105 49.7354 12.7207 49.7354 13.1855C49.7354 13.6458 49.8014 14.056 49.9336 14.416C50.0658 14.776 50.2594 15.0609 50.5146 15.2705C50.7744 15.4756 51.0911 15.5781 51.4648 15.5781Z" fill="#292A2E"/>
<path d="M42.7832 17V9.35742H44.6494V10.6631H44.7314C44.8682 10.2074 45.1051 9.85872 45.4424 9.61719C45.7796 9.37565 46.1647 9.25488 46.5977 9.25488C46.6979 9.25488 46.8096 9.26172 46.9326 9.27539C47.0557 9.28451 47.1628 9.29818 47.2539 9.31641V11.0527C47.1719 11.0254 47.0443 11.0026 46.8711 10.9844C46.7025 10.9661 46.5407 10.957 46.3857 10.957C46.0667 10.957 45.7796 11.0254 45.5244 11.1621C45.2692 11.2988 45.0687 11.4902 44.9229 11.7363C44.7816 11.9779 44.7109 12.2604 44.7109 12.584V17H42.7832Z" fill="#292A2E"/>
<path d="M39.0508 17V9.35742H40.9785V17H39.0508ZM39.0303 8.27051V6.51367H41.0127V8.27051H39.0303Z" fill="#292A2E"/>
<path d="M33.8555 17.1367C32.821 17.1367 32.0029 16.8633 31.4014 16.3164C30.7998 15.765 30.499 14.9811 30.499 13.9648V13.377H32.4609V13.9854C32.4609 14.4958 32.5863 14.8831 32.8369 15.1475C33.0876 15.4072 33.4271 15.5371 33.8555 15.5371C34.2793 15.5371 34.6143 15.4072 34.8604 15.1475C35.111 14.8831 35.2363 14.4958 35.2363 13.9854V6.81445H37.1777V13.958C37.1777 14.9743 36.8792 15.7581 36.2822 16.3096C35.6898 16.861 34.8809 17.1367 33.8555 17.1367Z" fill="#292A2E"/>
</svg>
