<svg width="182" height="24" viewBox="0 0 182 24" fill="none" xmlns="http://www.w3.org/2000/svg">
<path fill-rule="evenodd" clip-rule="evenodd" d="M6 0C2.68629 0 0 2.68629 0 6V18C0 21.3137 2.68629 24 6 24H18C21.3137 24 24 21.3137 24 18V6C24 2.68629 21.3137 0 18 0H6ZM16.1533 6.91874L13.6515 9.42052C13.175 9.11479 12.6082 8.9375 12 8.9375C11.3919 8.9375 10.8251 9.11476 10.3486 9.42044L7.84682 6.91865C8.97811 5.99291 10.4242 5.4375 12 5.4375C13.5759 5.4375 15.022 5.99295 16.1533 6.91874ZM18.5625 12C18.5625 13.5758 18.0071 15.0219 17.0814 16.1532L14.5796 13.6514C14.8852 13.1749 15.0625 12.6081 15.0625 12C15.0625 11.3919 14.8852 10.8251 14.5796 10.3486L17.0814 7.84683C18.0071 8.97811 18.5625 10.4242 18.5625 12ZM12 18.5625C13.5759 18.5625 15.022 18.0071 16.1533 17.0813L13.6515 14.5795C13.175 14.8852 12.6082 15.0625 12 15.0625C11.3919 15.0625 10.8251 14.8852 10.3486 14.5796L7.84683 17.0814C8.97811 18.0071 10.4242 18.5625 12 18.5625ZM5.4375 12C5.4375 10.4241 5.99295 8.97801 6.91874 7.84671L9.42052 10.3485C9.11479 10.825 8.9375 11.3918 8.9375 12C8.9375 12.6082 9.11479 13.175 9.42052 13.6515L6.91874 16.1533C5.99295 15.022 5.4375 13.5759 5.4375 12Z" fill="#292A2E"/>
<path d="M177.581 17.1504C176.806 17.1504 176.139 16.9909 175.578 16.6719C175.018 16.3483 174.587 15.8926 174.286 15.3047C173.985 14.7168 173.835 14.0218 173.835 13.2197C173.835 12.4359 173.983 11.7477 174.279 11.1553C174.58 10.5583 175.002 10.0934 175.544 9.76074C176.091 9.42806 176.733 9.26172 177.472 9.26172C177.955 9.26172 178.408 9.33919 178.832 9.49414C179.26 9.64909 179.639 9.88607 179.967 10.2051C180.295 10.5195 180.55 10.9206 180.732 11.4082C180.919 11.8913 181.013 12.4655 181.013 13.1309V13.6982H174.676V12.4473H180.069L179.167 12.7959C179.167 12.3812 179.103 12.0212 178.976 11.7158C178.848 11.4059 178.659 11.1667 178.408 10.998C178.162 10.8249 177.852 10.7383 177.479 10.7383C177.109 10.7383 176.795 10.8249 176.535 10.998C176.275 11.1712 176.077 11.4059 175.94 11.7021C175.804 11.9938 175.735 12.3219 175.735 12.6865V13.5615C175.735 14.0218 175.813 14.4115 175.968 14.7305C176.127 15.0449 176.346 15.2819 176.624 15.4414C176.907 15.6009 177.235 15.6807 177.608 15.6807C177.854 15.6807 178.08 15.6442 178.285 15.5713C178.49 15.4984 178.666 15.3936 178.812 15.2568C178.957 15.1156 179.069 14.9424 179.146 14.7373L180.896 15.0791C180.773 15.4938 180.562 15.8584 180.261 16.1729C179.96 16.4827 179.582 16.7243 179.126 16.8975C178.675 17.0661 178.16 17.1504 177.581 17.1504Z" fill="#292A2E"/>
<path d="M169.323 17.1504C168.571 17.1504 167.917 16.9863 167.361 16.6582C166.81 16.3301 166.384 15.8698 166.083 15.2773C165.782 14.6849 165.632 13.9967 165.632 13.2129C165.632 12.4245 165.782 11.734 166.083 11.1416C166.384 10.5446 166.81 10.082 167.361 9.75391C167.917 9.42578 168.571 9.26172 169.323 9.26172C169.765 9.26172 170.173 9.31868 170.547 9.43262C170.921 9.54655 171.253 9.71061 171.545 9.9248C171.837 10.139 172.078 10.3988 172.27 10.7041C172.465 11.0094 172.602 11.3535 172.68 11.7363L170.882 12.0918C170.841 11.8913 170.775 11.7113 170.684 11.5518C170.592 11.3923 170.481 11.2578 170.349 11.1484C170.221 11.0345 170.073 10.9479 169.904 10.8887C169.736 10.8249 169.549 10.793 169.344 10.793C168.956 10.793 168.633 10.8978 168.373 11.1074C168.113 11.3125 167.917 11.5973 167.785 11.9619C167.653 12.3219 167.587 12.7367 167.587 13.2061C167.587 13.6709 167.653 14.0856 167.785 14.4502C167.917 14.8102 168.113 15.0951 168.373 15.3047C168.633 15.5143 168.956 15.6191 169.344 15.6191C169.553 15.6191 169.743 15.5895 169.911 15.5303C170.084 15.4665 170.237 15.3753 170.369 15.2568C170.501 15.1383 170.613 14.9971 170.704 14.833C170.795 14.6644 170.861 14.4775 170.902 14.2725L172.693 14.6211C172.616 15.0176 172.481 15.3708 172.29 15.6807C172.099 15.9906 171.855 16.2549 171.559 16.4736C171.267 16.6924 170.932 16.861 170.554 16.9795C170.18 17.0934 169.77 17.1504 169.323 17.1504Z" fill="#292A2E"/>
<path d="M162.221 17V9.35742H164.148V17H162.221ZM162.2 8.27051V6.51367H164.183V8.27051H162.2Z" fill="#292A2E"/>
<path d="M156.075 17L153.245 9.35742H155.289L156.629 13.4111C156.788 13.9033 156.925 14.4001 157.039 14.9014C157.158 15.3981 157.281 15.9108 157.408 16.4395H156.964C157.087 15.9108 157.205 15.3981 157.319 14.9014C157.433 14.4001 157.57 13.9033 157.729 13.4111L159.056 9.35742H161.079L158.249 17H156.075Z" fill="#292A2E"/>
<path d="M148.057 17V9.35742H149.923V10.6631H150.005C150.142 10.2074 150.379 9.85872 150.716 9.61719C151.053 9.37565 151.438 9.25488 151.871 9.25488C151.971 9.25488 152.083 9.26172 152.206 9.27539C152.329 9.28451 152.436 9.29818 152.527 9.31641V11.0527C152.445 11.0254 152.318 11.0026 152.145 10.9844C151.976 10.9661 151.814 10.957 151.659 10.957C151.34 10.957 151.053 11.0254 150.798 11.1621C150.543 11.2988 150.342 11.4902 150.196 11.7363C150.055 11.9779 149.984 12.2604 149.984 12.584V17H148.057Z" fill="#292A2E"/>
<path d="M143.169 17.1504C142.394 17.1504 141.727 16.9909 141.166 16.6719C140.605 16.3483 140.175 15.8926 139.874 15.3047C139.573 14.7168 139.423 14.0218 139.423 13.2197C139.423 12.4359 139.571 11.7477 139.867 11.1553C140.168 10.5583 140.59 10.0934 141.132 9.76074C141.679 9.42806 142.321 9.26172 143.06 9.26172C143.543 9.26172 143.996 9.33919 144.42 9.49414C144.848 9.64909 145.227 9.88607 145.555 10.2051C145.883 10.5195 146.138 10.9206 146.32 11.4082C146.507 11.8913 146.601 12.4655 146.601 13.1309V13.6982H140.264V12.4473H145.657L144.755 12.7959C144.755 12.3812 144.691 12.0212 144.563 11.7158C144.436 11.4059 144.247 11.1667 143.996 10.998C143.75 10.8249 143.44 10.7383 143.066 10.7383C142.697 10.7383 142.383 10.8249 142.123 10.998C141.863 11.1712 141.665 11.4059 141.528 11.7021C141.392 11.9938 141.323 12.3219 141.323 12.6865V13.5615C141.323 14.0218 141.401 14.4115 141.556 14.7305C141.715 15.0449 141.934 15.2819 142.212 15.4414C142.494 15.6009 142.823 15.6807 143.196 15.6807C143.442 15.6807 143.668 15.6442 143.873 15.5713C144.078 15.4984 144.254 15.3936 144.399 15.2568C144.545 15.1156 144.657 14.9424 144.734 14.7373L146.484 15.0791C146.361 15.4938 146.149 15.8584 145.849 16.1729C145.548 16.4827 145.17 16.7243 144.714 16.8975C144.263 17.0661 143.748 17.1504 143.169 17.1504Z" fill="#292A2E"/>
<path d="M134.323 17.1504C133.521 17.1504 132.824 17.0273 132.231 16.7812C131.639 16.5306 131.176 16.166 130.844 15.6875C130.511 15.2044 130.333 14.6143 130.311 13.917H132.231C132.259 14.2679 132.364 14.5596 132.546 14.792C132.733 15.0244 132.979 15.1999 133.284 15.3184C133.59 15.4323 133.931 15.4893 134.31 15.4893C134.692 15.4893 135.03 15.4323 135.321 15.3184C135.613 15.1999 135.841 15.0381 136.005 14.833C136.169 14.6234 136.251 14.3818 136.251 14.1084C136.251 13.8577 136.178 13.6504 136.032 13.4863C135.886 13.3223 135.679 13.1833 135.41 13.0693C135.146 12.9508 134.827 12.8483 134.453 12.7617L133.318 12.4678C132.462 12.2536 131.792 11.9232 131.309 11.4766C130.826 11.0299 130.584 10.4421 130.584 9.71289C130.584 9.10677 130.748 8.57585 131.076 8.12012C131.404 7.66439 131.853 7.3112 132.423 7.06055C132.993 6.80534 133.64 6.67773 134.364 6.67773C135.103 6.67773 135.747 6.80534 136.299 7.06055C136.855 7.31576 137.288 7.66895 137.598 8.12012C137.912 8.56673 138.074 9.08171 138.083 9.66504H136.183C136.142 9.24121 135.957 8.91536 135.629 8.6875C135.305 8.45508 134.875 8.33887 134.337 8.33887C133.972 8.33887 133.658 8.39355 133.394 8.50293C133.134 8.60775 132.933 8.75586 132.792 8.94727C132.655 9.13411 132.587 9.34831 132.587 9.58984C132.587 9.85872 132.667 10.0798 132.826 10.2529C132.99 10.4261 133.2 10.5651 133.455 10.6699C133.715 10.7747 133.984 10.8613 134.262 10.9297L135.198 11.1621C135.604 11.2578 135.987 11.3854 136.347 11.5449C136.711 11.7044 137.035 11.9027 137.317 12.1396C137.6 12.3721 137.821 12.6523 137.98 12.9805C138.14 13.304 138.22 13.6846 138.22 14.1221C138.22 14.7282 138.065 15.2591 137.755 15.7148C137.45 16.1706 137.005 16.5238 136.422 16.7744C135.843 17.0251 135.144 17.1504 134.323 17.1504Z" fill="#292A2E"/>
<path d="M121.547 17V9.35742H123.413V10.6631H123.495C123.632 10.2074 123.869 9.85872 124.206 9.61719C124.543 9.37565 124.928 9.25488 125.361 9.25488C125.462 9.25488 125.573 9.26172 125.696 9.27539C125.819 9.28451 125.926 9.29818 126.018 9.31641V11.0527C125.936 11.0254 125.808 11.0026 125.635 10.9844C125.466 10.9661 125.304 10.957 125.149 10.957C124.83 10.957 124.543 11.0254 124.288 11.1621C124.033 11.2988 123.832 11.4902 123.687 11.7363C123.545 11.9779 123.475 12.2604 123.475 12.584V17H121.547Z" fill="#292A2E"/>
<path d="M116.659 17.1504C115.884 17.1504 115.217 16.9909 114.656 16.6719C114.096 16.3483 113.665 15.8926 113.364 15.3047C113.063 14.7168 112.913 14.0218 112.913 13.2197C112.913 12.4359 113.061 11.7477 113.357 11.1553C113.658 10.5583 114.08 10.0934 114.622 9.76074C115.169 9.42806 115.812 9.26172 116.55 9.26172C117.033 9.26172 117.486 9.33919 117.91 9.49414C118.339 9.64909 118.717 9.88607 119.045 10.2051C119.373 10.5195 119.628 10.9206 119.811 11.4082C119.997 11.8913 120.091 12.4655 120.091 13.1309V13.6982H113.754V12.4473H119.147L118.245 12.7959C118.245 12.3812 118.181 12.0212 118.054 11.7158C117.926 11.4059 117.737 11.1667 117.486 10.998C117.24 10.8249 116.93 10.7383 116.557 10.7383C116.188 10.7383 115.873 10.8249 115.613 10.998C115.354 11.1712 115.155 11.4059 115.019 11.7021C114.882 11.9938 114.813 12.3219 114.813 12.6865V13.5615C114.813 14.0218 114.891 14.4115 115.046 14.7305C115.205 15.0449 115.424 15.2819 115.702 15.4414C115.985 15.6009 116.313 15.6807 116.687 15.6807C116.933 15.6807 117.158 15.6442 117.363 15.5713C117.568 15.4984 117.744 15.3936 117.89 15.2568C118.035 15.1156 118.147 14.9424 118.225 14.7373L119.975 15.0791C119.852 15.4938 119.64 15.8584 119.339 16.1729C119.038 16.4827 118.66 16.7243 118.204 16.8975C117.753 17.0661 117.238 17.1504 116.659 17.1504Z" fill="#292A2E"/>
<path d="M100.533 17V9.35742H102.331L102.413 11.2305H102.276C102.39 10.7656 102.561 10.3874 102.789 10.0957C103.021 9.80404 103.293 9.58984 103.603 9.45312C103.912 9.31185 104.236 9.24121 104.573 9.24121C105.125 9.24121 105.569 9.41439 105.906 9.76074C106.243 10.1071 106.487 10.6312 106.638 11.333H106.412C106.521 10.859 106.704 10.4671 106.959 10.1572C107.219 9.84733 107.522 9.61719 107.868 9.4668C108.219 9.31641 108.593 9.24121 108.989 9.24121C109.45 9.24121 109.862 9.34147 110.227 9.54199C110.596 9.74251 110.885 10.0365 111.095 10.4238C111.309 10.8112 111.416 11.2852 111.416 11.8457V17H109.495V12.1807C109.495 11.7295 109.372 11.3968 109.126 11.1826C108.88 10.9684 108.581 10.8613 108.23 10.8613C107.962 10.8613 107.727 10.9206 107.526 11.0391C107.33 11.153 107.178 11.3148 107.068 11.5244C106.964 11.734 106.911 11.9779 106.911 12.2559V17H105.045V12.1123C105.045 11.7295 104.929 11.4264 104.696 11.2031C104.468 10.9753 104.172 10.8613 103.808 10.8613C103.557 10.8613 103.329 10.9183 103.124 11.0322C102.919 11.1462 102.757 11.3148 102.639 11.5381C102.52 11.7568 102.461 12.028 102.461 12.3516V17H100.533Z" fill="#292A2E"/>
<path d="M95.3516 17.1504C94.5951 17.1504 93.9388 16.9863 93.3828 16.6582C92.8314 16.3301 92.4053 15.8698 92.1045 15.2773C91.8037 14.6849 91.6533 13.9967 91.6533 13.2129C91.6533 12.4245 91.8037 11.734 92.1045 11.1416C92.4053 10.5446 92.8314 10.082 93.3828 9.75391C93.9388 9.42578 94.5951 9.26172 95.3516 9.26172C96.1081 9.26172 96.762 9.42578 97.3135 9.75391C97.8695 10.082 98.2979 10.5446 98.5986 11.1416C98.8994 11.734 99.0498 12.4245 99.0498 13.2129C99.0498 13.9967 98.8994 14.6849 98.5986 15.2773C98.2979 15.8698 97.8695 16.3301 97.3135 16.6582C96.762 16.9863 96.1081 17.1504 95.3516 17.1504ZM95.3516 15.6191C95.7389 15.6191 96.0625 15.5143 96.3223 15.3047C96.582 15.0905 96.7757 14.8011 96.9033 14.4365C97.0309 14.0719 97.0947 13.6618 97.0947 13.2061C97.0947 12.7503 97.0309 12.3402 96.9033 11.9756C96.7757 11.611 96.582 11.3239 96.3223 11.1143C96.0625 10.9001 95.7389 10.793 95.3516 10.793C94.9642 10.793 94.6406 10.9001 94.3809 11.1143C94.1257 11.3239 93.932 11.611 93.7998 11.9756C93.6722 12.3356 93.6084 12.7458 93.6084 13.2061C93.6084 13.6618 93.6722 14.0719 93.7998 14.4365C93.932 14.8011 94.1257 15.0905 94.3809 15.3047C94.6406 15.5143 94.9642 15.6191 95.3516 15.6191Z" fill="#292A2E"/>
<path d="M90.7441 9.35742V10.8408H86.3008V9.35742H90.7441ZM87.3672 7.53906H89.2881V14.8057C89.2881 15.0609 89.3451 15.25 89.459 15.373C89.5729 15.4961 89.7598 15.5576 90.0195 15.5576C90.097 15.5576 90.2041 15.5485 90.3408 15.5303C90.4775 15.5075 90.5846 15.487 90.6621 15.4688L90.9492 16.9316C90.7396 16.9954 90.5277 17.0387 90.3135 17.0615C90.0993 17.0889 89.8919 17.1025 89.6914 17.1025C88.9395 17.1025 88.363 16.9202 87.9619 16.5557C87.5654 16.1865 87.3672 15.6579 87.3672 14.9697V7.53906Z" fill="#292A2E"/>
<path d="M82.2607 17.1504C81.6592 17.1504 81.126 17.0661 80.6611 16.8975C80.1963 16.7243 79.8158 16.4736 79.5195 16.1455C79.2279 15.8128 79.0365 15.4141 78.9453 14.9492L80.7432 14.6279C80.8434 14.9925 81.0234 15.266 81.2832 15.4482C81.543 15.626 81.8848 15.7148 82.3086 15.7148C82.7188 15.7148 83.0446 15.6351 83.2861 15.4756C83.5277 15.3115 83.6484 15.1087 83.6484 14.8672C83.6484 14.6576 83.5664 14.4867 83.4023 14.3545C83.2383 14.2178 82.9854 14.113 82.6436 14.04L81.3311 13.7666C80.6019 13.6117 80.0573 13.3564 79.6973 13.001C79.3372 12.641 79.1572 12.1761 79.1572 11.6064C79.1572 11.1279 79.2894 10.7132 79.5537 10.3623C79.818 10.0114 80.1849 9.74023 80.6543 9.54883C81.1283 9.35742 81.6774 9.26172 82.3018 9.26172C82.8942 9.26172 83.4046 9.34603 83.833 9.51465C84.266 9.67871 84.6146 9.91113 84.8789 10.2119C85.1478 10.5081 85.3301 10.8613 85.4258 11.2715L83.7168 11.5859C83.6348 11.3216 83.4798 11.1029 83.252 10.9297C83.0286 10.752 82.721 10.6631 82.3291 10.6631C81.9736 10.6631 81.6751 10.7406 81.4336 10.8955C81.1966 11.0459 81.0781 11.2441 81.0781 11.4902C81.0781 11.6999 81.1556 11.873 81.3105 12.0098C81.4701 12.1465 81.7367 12.2559 82.1104 12.3379L83.4502 12.6113C84.1794 12.7617 84.7217 13.0078 85.0771 13.3496C85.4372 13.6914 85.6172 14.1335 85.6172 14.6758C85.6172 15.168 85.4736 15.6009 85.1865 15.9746C84.8994 16.3438 84.5029 16.6331 83.9971 16.8428C83.4958 17.0479 82.917 17.1504 82.2607 17.1504Z" fill="#292A2E"/>
<path d="M73.2646 17.0957C72.736 17.0957 72.2734 16.9818 71.877 16.7539C71.485 16.526 71.1797 16.1979 70.9609 15.7695C70.7422 15.3366 70.6328 14.8193 70.6328 14.2178V9.35742H72.5605V13.8965C72.5605 14.3932 72.6882 14.7806 72.9434 15.0586C73.1986 15.3366 73.5495 15.4756 73.9961 15.4756C74.3014 15.4756 74.5703 15.4118 74.8027 15.2842C75.0352 15.152 75.2174 14.9606 75.3496 14.71C75.4818 14.4593 75.5479 14.1585 75.5479 13.8076V9.35742H77.4756V17H75.6504L75.6299 15.0996H75.7529C75.5479 15.7559 75.238 16.2526 74.8232 16.5898C74.4085 16.9271 73.889 17.0957 73.2646 17.0957Z" fill="#292A2E"/>
<path d="M64.7607 17.1367C63.863 17.1367 63.0609 16.9316 62.3545 16.5215C61.6481 16.1068 61.0898 15.5098 60.6797 14.7305C60.2695 13.9512 60.0645 13.0124 60.0645 11.9141C60.0645 10.8112 60.2695 9.87012 60.6797 9.09082C61.0944 8.30697 61.6549 7.70996 62.3613 7.2998C63.0723 6.88509 63.8721 6.67773 64.7607 6.67773C65.3304 6.67773 65.8613 6.75749 66.3535 6.91699C66.8503 7.0765 67.29 7.3112 67.6729 7.62109C68.0557 7.92643 68.3701 8.30013 68.6162 8.74219C68.8623 9.18424 69.0241 9.68783 69.1016 10.2529H67.1191C67.069 9.96126 66.9756 9.70378 66.8389 9.48047C66.7021 9.25716 66.5312 9.06803 66.3262 8.91309C66.1257 8.75358 65.8955 8.63281 65.6357 8.55078C65.376 8.46875 65.098 8.42773 64.8018 8.42773C64.2594 8.42773 63.7809 8.56445 63.3662 8.83789C62.9515 9.10677 62.6279 9.50098 62.3955 10.0205C62.1676 10.54 62.0537 11.1712 62.0537 11.9141C62.0537 12.666 62.1699 13.3018 62.4023 13.8213C62.6348 14.3363 62.9561 14.7259 63.3662 14.9902C63.7809 15.2546 64.2572 15.3867 64.7949 15.3867C65.0911 15.3867 65.3669 15.3457 65.6221 15.2637C65.8818 15.1816 66.1143 15.0632 66.3193 14.9082C66.529 14.7487 66.7021 14.5573 66.8389 14.334C66.9756 14.1061 67.0713 13.8486 67.126 13.5615H69.1084C69.0492 14.04 68.9056 14.4935 68.6777 14.9219C68.4499 15.3503 68.1491 15.7331 67.7754 16.0703C67.4017 16.403 66.9619 16.665 66.4561 16.8564C65.9502 17.0433 65.3851 17.1367 64.7607 17.1367Z" fill="#292A2E"/>
<path d="M50.8906 17.1299C50.3027 17.1299 49.7718 16.9772 49.2979 16.6719C48.8285 16.3665 48.4548 15.9222 48.1768 15.3389C47.9033 14.751 47.7666 14.0355 47.7666 13.1924C47.7666 12.3311 47.9079 11.6087 48.1904 11.0254C48.473 10.4421 48.8512 10.0023 49.3252 9.70605C49.7992 9.40983 50.3255 9.26172 50.9043 9.26172C51.3418 9.26172 51.7041 9.33691 51.9912 9.4873C52.2783 9.63314 52.5085 9.81315 52.6816 10.0273C52.8548 10.237 52.987 10.4398 53.0781 10.6357H53.1533V9.35742H55.0605V17H53.1602V15.7832H53.0781C52.987 15.9792 52.8503 16.182 52.668 16.3916C52.4902 16.6012 52.2578 16.7767 51.9707 16.918C51.6836 17.0592 51.3236 17.1299 50.8906 17.1299ZM51.4648 15.5781C51.834 15.5781 52.1462 15.4779 52.4014 15.2773C52.6566 15.0768 52.8503 14.7965 52.9824 14.4365C53.1191 14.0765 53.1875 13.6595 53.1875 13.1855C53.1875 12.707 53.1214 12.2923 52.9893 11.9414C52.8571 11.5859 52.6634 11.3102 52.4082 11.1143C52.153 10.9183 51.8385 10.8203 51.4648 10.8203C51.0866 10.8203 50.7676 10.9206 50.5078 11.1211C50.2526 11.3216 50.0589 11.5996 49.9268 11.9551C49.7992 12.3105 49.7354 12.7207 49.7354 13.1855C49.7354 13.6458 49.8014 14.056 49.9336 14.416C50.0658 14.776 50.2594 15.0609 50.5146 15.2705C50.7744 15.4756 51.0911 15.5781 51.4648 15.5781Z" fill="#292A2E"/>
<path d="M42.7832 17V9.35742H44.6494V10.6631H44.7314C44.8682 10.2074 45.1051 9.85872 45.4424 9.61719C45.7796 9.37565 46.1647 9.25488 46.5977 9.25488C46.6979 9.25488 46.8096 9.26172 46.9326 9.27539C47.0557 9.28451 47.1628 9.29818 47.2539 9.31641V11.0527C47.1719 11.0254 47.0443 11.0026 46.8711 10.9844C46.7025 10.9661 46.5407 10.957 46.3857 10.957C46.0667 10.957 45.7796 11.0254 45.5244 11.1621C45.2692 11.2988 45.0687 11.4902 44.9229 11.7363C44.7816 11.9779 44.7109 12.2604 44.7109 12.584V17H42.7832Z" fill="#292A2E"/>
<path d="M39.0508 17V9.35742H40.9785V17H39.0508ZM39.0303 8.27051V6.51367H41.0127V8.27051H39.0303Z" fill="#292A2E"/>
<path d="M33.8555 17.1367C32.821 17.1367 32.0029 16.8633 31.4014 16.3164C30.7998 15.765 30.499 14.9811 30.499 13.9648V13.377H32.4609V13.9854C32.4609 14.4958 32.5863 14.8831 32.8369 15.1475C33.0876 15.4072 33.4271 15.5371 33.8555 15.5371C34.2793 15.5371 34.6143 15.4072 34.8604 15.1475C35.111 14.8831 35.2363 14.4958 35.2363 13.9854V6.81445H37.1777V13.958C37.1777 14.9743 36.8792 15.7581 36.2822 16.3096C35.6898 16.861 34.8809 17.1367 33.8555 17.1367Z" fill="#292A2E"/>
</svg>
