<svg width="186" height="24" viewBox="0 0 186 24" fill="none" xmlns="http://www.w3.org/2000/svg">
<path d="M0 6C0 2.68629 2.68629 0 6 0H18C21.3137 0 24 2.68629 24 6V18C24 21.3137 21.3137 24 18 24H6C2.68629 24 0 21.3137 0 18V6Z" fill="#C97CF4"/>
<path d="M13.4666 4.88179C15.268 5.41024 17.0872 5.41024 18.8886 4.88179C19.0475 4.84656 19.1535 4.95225 19.1182 5.11079C18.606 6.96038 18.606 8.66905 19.1182 10.5186C19.1535 10.6596 19.0475 10.7829 18.8886 10.73C17.0872 10.2368 15.268 10.2368 13.4666 10.73C13.3253 10.7829 13.2017 10.6596 13.2547 10.5186C13.7315 8.66905 13.7315 6.96038 13.2547 5.11079C13.2017 4.95225 13.3253 4.84656 13.4666 4.88179ZM14.1907 11.4346V11.7341C14.1907 13.1257 13.2193 14.1474 12.0184 14.1474C10.8174 14.1474 9.8637 13.1785 9.8637 11.9807C9.8637 10.7829 10.8351 9.83165 12.195 9.83165H12.5482V5.62163C12.3716 5.60401 12.195 5.60401 12.0184 5.60401C8.48612 5.60401 5.625 8.45767 5.625 11.9983C5.625 15.539 8.48612 18.375 12.0184 18.375C15.5506 18.375 18.4294 15.5213 18.4294 11.9983V11.4346H14.1907Z" fill="#101214"/>
<path d="M177.608 17.7139L178.053 16.2441L178.285 16.3057C178.559 16.3786 178.8 16.3991 179.01 16.3672C179.224 16.3353 179.397 16.2441 179.529 16.0938C179.666 15.9479 179.757 15.7406 179.803 15.4717L179.885 15.0273L177.007 7.35742H179.051L180.391 11.4111C180.55 11.9079 180.68 12.4046 180.78 12.9014C180.885 13.3981 180.999 13.9108 181.122 14.4395H180.65C180.778 13.9108 180.901 13.3981 181.02 12.9014C181.143 12.4001 181.286 11.9033 181.45 11.4111L182.845 7.35742H184.868L181.607 15.9365C181.452 16.3467 181.254 16.6999 181.013 16.9961C180.776 17.2923 180.482 17.5179 180.131 17.6729C179.785 17.8324 179.368 17.9121 178.88 17.9121C178.616 17.9121 178.369 17.8916 178.142 17.8506C177.918 17.8141 177.741 17.7686 177.608 17.7139Z" fill="#292A2E"/>
<path d="M171.818 15V7.35742H173.685V8.66309H173.767C173.903 8.20736 174.14 7.85872 174.478 7.61719C174.815 7.37565 175.2 7.25488 175.633 7.25488C175.733 7.25488 175.845 7.26172 175.968 7.27539C176.091 7.28451 176.198 7.29818 176.289 7.31641V9.05273C176.207 9.02539 176.079 9.0026 175.906 8.98438C175.738 8.96615 175.576 8.95703 175.421 8.95703C175.102 8.95703 174.815 9.02539 174.56 9.16211C174.304 9.29883 174.104 9.49023 173.958 9.73633C173.817 9.97786 173.746 10.2604 173.746 10.584V15H171.818Z" fill="#292A2E"/>
<path d="M166.931 15.1504C166.156 15.1504 165.488 14.9909 164.928 14.6719C164.367 14.3483 163.937 13.8926 163.636 13.3047C163.335 12.7168 163.185 12.0218 163.185 11.2197C163.185 10.4359 163.333 9.74772 163.629 9.15527C163.93 8.55827 164.351 8.09342 164.894 7.76074C165.44 7.42806 166.083 7.26172 166.821 7.26172C167.304 7.26172 167.758 7.33919 168.182 7.49414C168.61 7.64909 168.988 7.88607 169.316 8.20508C169.645 8.51953 169.9 8.92057 170.082 9.4082C170.269 9.89128 170.362 10.4655 170.362 11.1309V11.6982H164.025V10.4473H169.419L168.517 10.7959C168.517 10.3812 168.453 10.0212 168.325 9.71582C168.198 9.40592 168.008 9.16667 167.758 8.99805C167.512 8.82487 167.202 8.73828 166.828 8.73828C166.459 8.73828 166.145 8.82487 165.885 8.99805C165.625 9.17122 165.427 9.40592 165.29 9.70215C165.153 9.99382 165.085 10.3219 165.085 10.6865V11.5615C165.085 12.0218 165.162 12.4115 165.317 12.7305C165.477 13.0449 165.696 13.2819 165.974 13.4414C166.256 13.6009 166.584 13.6807 166.958 13.6807C167.204 13.6807 167.43 13.6442 167.635 13.5713C167.84 13.4984 168.015 13.3936 168.161 13.2568C168.307 13.1156 168.419 12.9424 168.496 12.7373L170.246 13.0791C170.123 13.4938 169.911 13.8584 169.61 14.1729C169.31 14.4827 168.931 14.7243 168.476 14.8975C168.024 15.0661 167.509 15.1504 166.931 15.1504Z" fill="#292A2E"/>
<path d="M157.62 15L154.79 7.35742H156.834L158.174 11.4111C158.333 11.9033 158.47 12.4001 158.584 12.9014C158.702 13.3981 158.826 13.9108 158.953 14.4395H158.509C158.632 13.9108 158.75 13.3981 158.864 12.9014C158.978 12.4001 159.115 11.9033 159.274 11.4111L160.601 7.35742H162.624L159.794 15H157.62Z" fill="#292A2E"/>
<path d="M150.531 15.1504C149.775 15.1504 149.118 14.9863 148.562 14.6582C148.011 14.3301 147.585 13.8698 147.284 13.2773C146.983 12.6849 146.833 11.9967 146.833 11.2129C146.833 10.4245 146.983 9.73405 147.284 9.1416C147.585 8.5446 148.011 8.08203 148.562 7.75391C149.118 7.42578 149.775 7.26172 150.531 7.26172C151.288 7.26172 151.942 7.42578 152.493 7.75391C153.049 8.08203 153.478 8.5446 153.778 9.1416C154.079 9.73405 154.229 10.4245 154.229 11.2129C154.229 11.9967 154.079 12.6849 153.778 13.2773C153.478 13.8698 153.049 14.3301 152.493 14.6582C151.942 14.9863 151.288 15.1504 150.531 15.1504ZM150.531 13.6191C150.919 13.6191 151.242 13.5143 151.502 13.3047C151.762 13.0905 151.955 12.8011 152.083 12.4365C152.211 12.0719 152.274 11.6618 152.274 11.2061C152.274 10.7503 152.211 10.3402 152.083 9.97559C151.955 9.611 151.762 9.32389 151.502 9.11426C151.242 8.90007 150.919 8.79297 150.531 8.79297C150.144 8.79297 149.82 8.90007 149.561 9.11426C149.305 9.32389 149.112 9.611 148.979 9.97559C148.852 10.3356 148.788 10.7458 148.788 11.2061C148.788 11.6618 148.852 12.0719 148.979 12.4365C149.112 12.8011 149.305 13.0905 149.561 13.3047C149.82 13.5143 150.144 13.6191 150.531 13.6191Z" fill="#292A2E"/>
<path d="M142.321 15.1504C141.569 15.1504 140.915 14.9863 140.359 14.6582C139.808 14.3301 139.382 13.8698 139.081 13.2773C138.78 12.6849 138.63 11.9967 138.63 11.2129C138.63 10.4245 138.78 9.73405 139.081 9.1416C139.382 8.5446 139.808 8.08203 140.359 7.75391C140.915 7.42578 141.569 7.26172 142.321 7.26172C142.763 7.26172 143.171 7.31868 143.545 7.43262C143.919 7.54655 144.251 7.71061 144.543 7.9248C144.835 8.139 145.076 8.39876 145.268 8.7041C145.464 9.00944 145.6 9.35352 145.678 9.73633L143.88 10.0918C143.839 9.89128 143.773 9.71126 143.682 9.55176C143.59 9.39225 143.479 9.25781 143.347 9.14844C143.219 9.03451 143.071 8.94792 142.902 8.88867C142.734 8.82487 142.547 8.79297 142.342 8.79297C141.954 8.79297 141.631 8.89779 141.371 9.10742C141.111 9.3125 140.915 9.59733 140.783 9.96191C140.651 10.3219 140.585 10.7367 140.585 11.2061C140.585 11.6709 140.651 12.0856 140.783 12.4502C140.915 12.8102 141.111 13.0951 141.371 13.3047C141.631 13.5143 141.954 13.6191 142.342 13.6191C142.551 13.6191 142.741 13.5895 142.909 13.5303C143.082 13.4665 143.235 13.3753 143.367 13.2568C143.499 13.1383 143.611 12.9971 143.702 12.833C143.793 12.6644 143.859 12.4775 143.9 12.2725L145.691 12.6211C145.614 13.0176 145.479 13.3708 145.288 13.6807C145.097 13.9906 144.853 14.2549 144.557 14.4736C144.265 14.6924 143.93 14.861 143.552 14.9795C143.178 15.0934 142.768 15.1504 142.321 15.1504Z" fill="#292A2E"/>
<path d="M134.146 15.1504C133.544 15.1504 133.011 15.0661 132.546 14.8975C132.081 14.7243 131.701 14.4736 131.404 14.1455C131.113 13.8128 130.921 13.4141 130.83 12.9492L132.628 12.6279C132.728 12.9925 132.908 13.266 133.168 13.4482C133.428 13.626 133.77 13.7148 134.193 13.7148C134.604 13.7148 134.929 13.6351 135.171 13.4756C135.412 13.3115 135.533 13.1087 135.533 12.8672C135.533 12.6576 135.451 12.4867 135.287 12.3545C135.123 12.2178 134.87 12.113 134.528 12.04L133.216 11.7666C132.487 11.6117 131.942 11.3564 131.582 11.001C131.222 10.641 131.042 10.1761 131.042 9.60645C131.042 9.12793 131.174 8.71322 131.438 8.3623C131.703 8.01139 132.07 7.74023 132.539 7.54883C133.013 7.35742 133.562 7.26172 134.187 7.26172C134.779 7.26172 135.289 7.34603 135.718 7.51465C136.151 7.67871 136.499 7.91113 136.764 8.21191C137.033 8.50814 137.215 8.86133 137.311 9.27148L135.602 9.58594C135.52 9.32161 135.365 9.10286 135.137 8.92969C134.913 8.75195 134.606 8.66309 134.214 8.66309C133.858 8.66309 133.56 8.74056 133.318 8.89551C133.081 9.0459 132.963 9.24414 132.963 9.49023C132.963 9.69987 133.04 9.87305 133.195 10.0098C133.355 10.1465 133.621 10.2559 133.995 10.3379L135.335 10.6113C136.064 10.7617 136.606 11.0078 136.962 11.3496C137.322 11.6914 137.502 12.1335 137.502 12.6758C137.502 13.168 137.358 13.6009 137.071 13.9746C136.784 14.3438 136.388 14.6331 135.882 14.8428C135.381 15.0479 134.802 15.1504 134.146 15.1504Z" fill="#292A2E"/>
<path d="M127.439 15V7.35742H129.367V15H127.439ZM127.419 6.27051V4.51367H129.401V6.27051H127.419Z" fill="#292A2E"/>
<path d="M120.904 15H118.3V13.3047H120.815C121.494 13.3047 122.064 13.1816 122.524 12.9355C122.985 12.6895 123.329 12.3158 123.557 11.8145C123.789 11.3086 123.905 10.6706 123.905 9.90039C123.905 9.13021 123.789 8.49674 123.557 8C123.329 7.4987 122.987 7.125 122.531 6.87891C122.076 6.63281 121.513 6.50977 120.843 6.50977H118.245V4.81445H120.959C121.975 4.81445 122.848 5.01725 123.577 5.42285C124.311 5.82845 124.874 6.41178 125.266 7.17285C125.662 7.93392 125.86 8.8431 125.86 9.90039C125.86 10.9577 125.662 11.8691 125.266 12.6348C124.874 13.3958 124.306 13.9814 123.563 14.3916C122.825 14.7972 121.939 15 120.904 15ZM119.353 4.81445V15H117.391V4.81445H119.353Z" fill="#292A2E"/>
<path d="M112.537 7.35742V8.84082H108.094V7.35742H112.537ZM109.16 5.53906H111.081V12.8057C111.081 13.0609 111.138 13.25 111.252 13.373C111.366 13.4961 111.553 13.5576 111.812 13.5576C111.89 13.5576 111.997 13.5485 112.134 13.5303C112.271 13.5075 112.378 13.487 112.455 13.4688L112.742 14.9316C112.533 14.9954 112.321 15.0387 112.106 15.0615C111.892 15.0889 111.685 15.1025 111.484 15.1025C110.732 15.1025 110.156 14.9202 109.755 14.5557C109.358 14.1865 109.16 13.6579 109.16 12.9697V5.53906Z" fill="#292A2E"/>
<path d="M104.026 15.1504C103.274 15.1504 102.62 14.9863 102.064 14.6582C101.513 14.3301 101.087 13.8698 100.786 13.2773C100.485 12.6849 100.335 11.9967 100.335 11.2129C100.335 10.4245 100.485 9.73405 100.786 9.1416C101.087 8.5446 101.513 8.08203 102.064 7.75391C102.62 7.42578 103.274 7.26172 104.026 7.26172C104.468 7.26172 104.876 7.31868 105.25 7.43262C105.624 7.54655 105.956 7.71061 106.248 7.9248C106.54 8.139 106.781 8.39876 106.973 8.7041C107.169 9.00944 107.305 9.35352 107.383 9.73633L105.585 10.0918C105.544 9.89128 105.478 9.71126 105.387 9.55176C105.296 9.39225 105.184 9.25781 105.052 9.14844C104.924 9.03451 104.776 8.94792 104.607 8.88867C104.439 8.82487 104.252 8.79297 104.047 8.79297C103.66 8.79297 103.336 8.89779 103.076 9.10742C102.816 9.3125 102.62 9.59733 102.488 9.96191C102.356 10.3219 102.29 10.7367 102.29 11.2061C102.29 11.6709 102.356 12.0856 102.488 12.4502C102.62 12.8102 102.816 13.0951 103.076 13.3047C103.336 13.5143 103.66 13.6191 104.047 13.6191C104.257 13.6191 104.446 13.5895 104.614 13.5303C104.787 13.4665 104.94 13.3753 105.072 13.2568C105.204 13.1383 105.316 12.9971 105.407 12.833C105.498 12.6644 105.564 12.4775 105.605 12.2725L107.396 12.6211C107.319 13.0176 107.185 13.3708 106.993 13.6807C106.802 13.9906 106.558 14.2549 106.262 14.4736C105.97 14.6924 105.635 14.861 105.257 14.9795C104.883 15.0934 104.473 15.1504 104.026 15.1504Z" fill="#292A2E"/>
<path d="M94.6338 15.0957C94.1051 15.0957 93.6426 14.9818 93.2461 14.7539C92.8542 14.526 92.5488 14.1979 92.3301 13.7695C92.1113 13.3366 92.002 12.8193 92.002 12.2178V7.35742H93.9297V11.8965C93.9297 12.3932 94.0573 12.7806 94.3125 13.0586C94.5677 13.3366 94.9186 13.4756 95.3652 13.4756C95.6706 13.4756 95.9395 13.4118 96.1719 13.2842C96.4043 13.152 96.5866 12.9606 96.7188 12.71C96.8509 12.4593 96.917 12.1585 96.917 11.8076V7.35742H98.8447V15H97.0195L96.999 13.0996H97.1221C96.917 13.7559 96.6071 14.2526 96.1924 14.5898C95.7777 14.9271 95.2581 15.0957 94.6338 15.0957Z" fill="#292A2E"/>
<path d="M86.0205 15.1299C85.4281 15.1299 84.8949 14.9772 84.4209 14.6719C83.9469 14.3665 83.5732 13.9222 83.2998 13.3389C83.0264 12.751 82.8896 12.0355 82.8896 11.1924C82.8896 10.3311 83.0286 9.60872 83.3066 9.02539C83.5892 8.44206 83.9674 8.00228 84.4414 7.70605C84.9154 7.40983 85.4395 7.26172 86.0137 7.26172C86.4557 7.26172 86.8203 7.33691 87.1074 7.4873C87.3945 7.63314 87.6247 7.81315 87.7979 8.02734C87.9756 8.23698 88.1077 8.43978 88.1943 8.63574H88.2627V4.81445H90.1836V15H88.2969V13.7832H88.1943C88.1032 13.9792 87.9688 14.182 87.791 14.3916C87.6133 14.5967 87.3809 14.7721 87.0938 14.918C86.8066 15.0592 86.4489 15.1299 86.0205 15.1299ZM86.5811 13.5781C86.9502 13.5781 87.2624 13.4779 87.5176 13.2773C87.7728 13.0768 87.9665 12.7965 88.0986 12.4365C88.2354 12.0765 88.3037 11.6595 88.3037 11.1855C88.3037 10.707 88.2376 10.2923 88.1055 9.94141C87.9733 9.58594 87.7773 9.31022 87.5176 9.11426C87.2624 8.91829 86.9502 8.82031 86.5811 8.82031C86.2028 8.82031 85.8861 8.92285 85.6309 9.12793C85.3757 9.32845 85.182 9.60645 85.0498 9.96191C84.9222 10.3174 84.8584 10.7253 84.8584 11.1855C84.8584 11.6458 84.9222 12.056 85.0498 12.416C85.182 12.776 85.3757 13.0609 85.6309 13.2705C85.8906 13.4756 86.2074 13.5781 86.5811 13.5781Z" fill="#292A2E"/>
<path d="M78.0293 15.1504C77.2728 15.1504 76.6165 14.9863 76.0605 14.6582C75.5091 14.3301 75.083 13.8698 74.7822 13.2773C74.4814 12.6849 74.3311 11.9967 74.3311 11.2129C74.3311 10.4245 74.4814 9.73405 74.7822 9.1416C75.083 8.5446 75.5091 8.08203 76.0605 7.75391C76.6165 7.42578 77.2728 7.26172 78.0293 7.26172C78.7858 7.26172 79.4398 7.42578 79.9912 7.75391C80.5472 8.08203 80.9756 8.5446 81.2764 9.1416C81.5771 9.73405 81.7275 10.4245 81.7275 11.2129C81.7275 11.9967 81.5771 12.6849 81.2764 13.2773C80.9756 13.8698 80.5472 14.3301 79.9912 14.6582C79.4398 14.9863 78.7858 15.1504 78.0293 15.1504ZM78.0293 13.6191C78.4167 13.6191 78.7402 13.5143 79 13.3047C79.2598 13.0905 79.4535 12.8011 79.5811 12.4365C79.7087 12.0719 79.7725 11.6618 79.7725 11.2061C79.7725 10.7503 79.7087 10.3402 79.5811 9.97559C79.4535 9.611 79.2598 9.32389 79 9.11426C78.7402 8.90007 78.4167 8.79297 78.0293 8.79297C77.6419 8.79297 77.3184 8.90007 77.0586 9.11426C76.8034 9.32389 76.6097 9.611 76.4775 9.97559C76.3499 10.3356 76.2861 10.7458 76.2861 11.2061C76.2861 11.6618 76.3499 12.0719 76.4775 12.4365C76.6097 12.8011 76.8034 13.0905 77.0586 13.3047C77.3184 13.5143 77.6419 13.6191 78.0293 13.6191Z" fill="#292A2E"/>
<path d="M69.3477 15V7.35742H71.2139V8.66309H71.2959C71.4326 8.20736 71.6696 7.85872 72.0068 7.61719C72.3441 7.37565 72.7292 7.25488 73.1621 7.25488C73.2624 7.25488 73.374 7.26172 73.4971 7.27539C73.6201 7.28451 73.7272 7.29818 73.8184 7.31641V9.05273C73.7363 9.02539 73.6087 9.0026 73.4355 8.98438C73.2669 8.96615 73.1051 8.95703 72.9502 8.95703C72.6312 8.95703 72.3441 9.02539 72.0889 9.16211C71.8337 9.29883 71.6331 9.49023 71.4873 9.73633C71.346 9.97786 71.2754 10.2604 71.2754 10.584V15H69.3477Z" fill="#292A2E"/>
<path d="M60.3652 15V4.81445H64.2617C65.0365 4.81445 65.6927 4.96257 66.2305 5.25879C66.7682 5.55046 67.1761 5.95378 67.4541 6.46875C67.7367 6.97917 67.8779 7.56478 67.8779 8.22559C67.8779 8.88639 67.7367 9.47201 67.4541 9.98242C67.1715 10.4928 66.7568 10.8939 66.21 11.1855C65.6676 11.4727 65.0046 11.6162 64.2207 11.6162H61.6846V10.0166H63.9336C64.3757 10.0166 64.738 9.94141 65.0205 9.79102C65.3076 9.63607 65.5195 9.42415 65.6562 9.15527C65.793 8.88184 65.8613 8.57194 65.8613 8.22559C65.8613 7.87012 65.793 7.56022 65.6562 7.2959C65.5195 7.02702 65.3076 6.81738 65.0205 6.66699C64.7334 6.5166 64.3688 6.44141 63.9268 6.44141H62.3271V15H60.3652Z" fill="#292A2E"/>
<path d="M50.8906 15.1299C50.3027 15.1299 49.7718 14.9772 49.2979 14.6719C48.8285 14.3665 48.4548 13.9222 48.1768 13.3389C47.9033 12.751 47.7666 12.0355 47.7666 11.1924C47.7666 10.3311 47.9079 9.60872 48.1904 9.02539C48.473 8.44206 48.8512 8.00228 49.3252 7.70605C49.7992 7.40983 50.3255 7.26172 50.9043 7.26172C51.3418 7.26172 51.7041 7.33691 51.9912 7.4873C52.2783 7.63314 52.5085 7.81315 52.6816 8.02734C52.8548 8.23698 52.987 8.43978 53.0781 8.63574H53.1533V7.35742H55.0605V15H53.1602V13.7832H53.0781C52.987 13.9792 52.8503 14.182 52.668 14.3916C52.4902 14.6012 52.2578 14.7767 51.9707 14.918C51.6836 15.0592 51.3236 15.1299 50.8906 15.1299ZM51.4648 13.5781C51.834 13.5781 52.1462 13.4779 52.4014 13.2773C52.6566 13.0768 52.8503 12.7965 52.9824 12.4365C53.1191 12.0765 53.1875 11.6595 53.1875 11.1855C53.1875 10.707 53.1214 10.2923 52.9893 9.94141C52.8571 9.58594 52.6634 9.31022 52.4082 9.11426C52.153 8.91829 51.8385 8.82031 51.4648 8.82031C51.0866 8.82031 50.7676 8.92057 50.5078 9.12109C50.2526 9.32161 50.0589 9.59961 49.9268 9.95508C49.7992 10.3105 49.7354 10.7207 49.7354 11.1855C49.7354 11.6458 49.8014 12.056 49.9336 12.416C50.0658 12.776 50.2594 13.0609 50.5146 13.2705C50.7744 13.4756 51.0911 13.5781 51.4648 13.5781Z" fill="#292A2E"/>
<path d="M42.7832 15V7.35742H44.6494V8.66309H44.7314C44.8682 8.20736 45.1051 7.85872 45.4424 7.61719C45.7796 7.37565 46.1647 7.25488 46.5977 7.25488C46.6979 7.25488 46.8096 7.26172 46.9326 7.27539C47.0557 7.28451 47.1628 7.29818 47.2539 7.31641V9.05273C47.1719 9.02539 47.0443 9.0026 46.8711 8.98438C46.7025 8.96615 46.5407 8.95703 46.3857 8.95703C46.0667 8.95703 45.7796 9.02539 45.5244 9.16211C45.2692 9.29883 45.0687 9.49023 44.9229 9.73633C44.7816 9.97786 44.7109 10.2604 44.7109 10.584V15H42.7832Z" fill="#292A2E"/>
<path d="M39.0508 15V7.35742H40.9785V15H39.0508ZM39.0303 6.27051V4.51367H41.0127V6.27051H39.0303Z" fill="#292A2E"/>
<path d="M33.8555 15.1367C32.821 15.1367 32.0029 14.8633 31.4014 14.3164C30.7998 13.765 30.499 12.9811 30.499 11.9648V11.377H32.4609V11.9854C32.4609 12.4958 32.5863 12.8831 32.8369 13.1475C33.0876 13.4072 33.4271 13.5371 33.8555 13.5371C34.2793 13.5371 34.6143 13.4072 34.8604 13.1475C35.111 12.8831 35.2363 12.4958 35.2363 11.9854V4.81445H37.1777V11.958C37.1777 12.9743 36.8792 13.7581 36.2822 14.3096C35.6898 14.861 34.8809 15.1367 33.8555 15.1367Z" fill="#292A2E"/>
</svg>
