<svg width="68" height="24" viewBox="0 0 68 24" fill="none" xmlns="http://www.w3.org/2000/svg">
<path d="M0 6C0 2.68629 2.68629 0 6 0H18C21.3137 0 24 2.68629 24 6V18C24 21.3137 21.3137 24 18 24H6C2.68629 24 0 21.3137 0 18V6Z" fill="#625DF5"/>
<path d="M19.0834 11.2122H14.9409L18.5285 9.1409L17.7406 7.77588L14.153 9.8472L16.2239 6.25985L14.8588 5.47151L12.788 9.05886V4.91663H11.2122V9.05925L9.14052 5.47151L7.77592 6.25945L9.84718 9.8468L6.25954 7.77588L5.47162 9.14051L9.05926 11.2118H4.91675V12.7877H9.05887L5.47162 14.859L6.25954 16.224L9.84678 14.1531L7.77553 17.7405L9.14052 18.5284L11.2118 14.9407V19.0833H12.7876V14.9411L14.8585 18.5284L16.2234 17.7405L14.1522 14.1527L17.7398 16.224L18.5278 14.859L14.9405 12.7881H19.0826V11.2122H19.0834ZM12.0001 14.1432C10.8119 14.1432 9.84876 13.1801 9.84876 11.9918C9.84876 10.8036 10.8119 9.84046 12.0001 9.84046C13.1883 9.84046 14.1514 10.8036 14.1514 11.9918C14.1514 13.1801 13.1883 14.1432 12.0001 14.1432Z" fill="white"/>
<path d="M55.9355 17V9.35742H57.7334L57.8154 11.2305H57.6787C57.7926 10.7656 57.9635 10.3874 58.1914 10.0957C58.4238 9.80404 58.695 9.58984 59.0049 9.45312C59.3148 9.31185 59.6383 9.24121 59.9756 9.24121C60.527 9.24121 60.9714 9.41439 61.3086 9.76074C61.6458 10.1071 61.8896 10.6312 62.04 11.333H61.8145C61.9238 10.859 62.1061 10.4671 62.3613 10.1572C62.6211 9.84733 62.9242 9.61719 63.2705 9.4668C63.6214 9.31641 63.9951 9.24121 64.3916 9.24121C64.8519 9.24121 65.2643 9.34147 65.6289 9.54199C65.998 9.74251 66.2874 10.0365 66.4971 10.4238C66.7113 10.8112 66.8184 11.2852 66.8184 11.8457V17H64.8975V12.1807C64.8975 11.7295 64.7744 11.3968 64.5283 11.1826C64.2822 10.9684 63.9837 10.8613 63.6328 10.8613C63.3639 10.8613 63.1292 10.9206 62.9287 11.0391C62.7327 11.153 62.5801 11.3148 62.4707 11.5244C62.3659 11.734 62.3135 11.9779 62.3135 12.2559V17H60.4473V12.1123C60.4473 11.7295 60.3311 11.4264 60.0986 11.2031C59.8708 10.9753 59.5745 10.8613 59.21 10.8613C58.9593 10.8613 58.7314 10.9183 58.5264 11.0322C58.3213 11.1462 58.1595 11.3148 58.041 11.5381C57.9225 11.7568 57.8633 12.028 57.8633 12.3516V17H55.9355Z" fill="#292A2E"/>
<path d="M50.7539 17.1504C49.9974 17.1504 49.3411 16.9863 48.7852 16.6582C48.2337 16.3301 47.8076 15.8698 47.5068 15.2773C47.2061 14.6849 47.0557 13.9967 47.0557 13.2129C47.0557 12.4245 47.2061 11.734 47.5068 11.1416C47.8076 10.5446 48.2337 10.082 48.7852 9.75391C49.3411 9.42578 49.9974 9.26172 50.7539 9.26172C51.5104 9.26172 52.1644 9.42578 52.7158 9.75391C53.2718 10.082 53.7002 10.5446 54.001 11.1416C54.3018 11.734 54.4521 12.4245 54.4521 13.2129C54.4521 13.9967 54.3018 14.6849 54.001 15.2773C53.7002 15.8698 53.2718 16.3301 52.7158 16.6582C52.1644 16.9863 51.5104 17.1504 50.7539 17.1504ZM50.7539 15.6191C51.1413 15.6191 51.4648 15.5143 51.7246 15.3047C51.9844 15.0905 52.1781 14.8011 52.3057 14.4365C52.4333 14.0719 52.4971 13.6618 52.4971 13.2061C52.4971 12.7503 52.4333 12.3402 52.3057 11.9756C52.1781 11.611 51.9844 11.3239 51.7246 11.1143C51.4648 10.9001 51.1413 10.793 50.7539 10.793C50.3665 10.793 50.043 10.9001 49.7832 11.1143C49.528 11.3239 49.3343 11.611 49.2021 11.9756C49.0745 12.3356 49.0107 12.7458 49.0107 13.2061C49.0107 13.6618 49.0745 14.0719 49.2021 14.4365C49.3343 14.8011 49.528 15.0905 49.7832 15.3047C50.043 15.5143 50.3665 15.6191 50.7539 15.6191Z" fill="#292A2E"/>
<path d="M42.1953 17.1504C41.4388 17.1504 40.7826 16.9863 40.2266 16.6582C39.6751 16.3301 39.249 15.8698 38.9482 15.2773C38.6475 14.6849 38.4971 13.9967 38.4971 13.2129C38.4971 12.4245 38.6475 11.734 38.9482 11.1416C39.249 10.5446 39.6751 10.082 40.2266 9.75391C40.7826 9.42578 41.4388 9.26172 42.1953 9.26172C42.9518 9.26172 43.6058 9.42578 44.1572 9.75391C44.7132 10.082 45.1416 10.5446 45.4424 11.1416C45.7432 11.734 45.8936 12.4245 45.8936 13.2129C45.8936 13.9967 45.7432 14.6849 45.4424 15.2773C45.1416 15.8698 44.7132 16.3301 44.1572 16.6582C43.6058 16.9863 42.9518 17.1504 42.1953 17.1504ZM42.1953 15.6191C42.5827 15.6191 42.9062 15.5143 43.166 15.3047C43.4258 15.0905 43.6195 14.8011 43.7471 14.4365C43.8747 14.0719 43.9385 13.6618 43.9385 13.2061C43.9385 12.7503 43.8747 12.3402 43.7471 11.9756C43.6195 11.611 43.4258 11.3239 43.166 11.1143C42.9062 10.9001 42.5827 10.793 42.1953 10.793C41.8079 10.793 41.4844 10.9001 41.2246 11.1143C40.9694 11.3239 40.7757 11.611 40.6436 11.9756C40.516 12.3356 40.4521 12.7458 40.4521 13.2061C40.4521 13.6618 40.516 14.0719 40.6436 14.4365C40.7757 14.8011 40.9694 15.0905 41.2246 15.3047C41.4844 15.5143 41.8079 15.6191 42.1953 15.6191Z" fill="#292A2E"/>
<path d="M30.9707 17V6.81445H32.9326V15.3594H37.376V17H30.9707Z" fill="#292A2E"/>
</svg>
