<svg width="96" height="24" viewBox="0 0 96 24" fill="none" xmlns="http://www.w3.org/2000/svg">
<path d="M0 6C0 2.68629 2.68629 0 6 0H18C21.3137 0 24 2.68629 24 6V18C24 21.3137 21.3137 24 18 24H6C2.68629 24 0 21.3137 0 18V6Z" fill="#FFC716"/>
<path d="M12.696 19.4499C12.2053 19.8114 11.9471 19.7856 11.4565 19.424C9.08074 17.7197 6.88578 15.783 5.41386 13.7688C5.25892 13.5622 5.33639 13.2781 5.5688 13.149L8.2544 11.4705C8.48681 11.3156 8.6934 11.3414 8.87416 11.548C9.90708 12.7358 10.9142 13.8979 12.0762 14.7242C13.2383 13.8979 14.2454 12.7358 15.2783 11.548C15.4591 11.3414 15.6656 11.3156 15.8981 11.4705L18.5837 13.149C18.8161 13.2781 18.8935 13.5622 18.7386 13.7688C17.2667 15.783 15.0717 17.7197 12.696 19.4499ZM12.0762 12.0386C14.1937 12.0386 15.9497 10.3085 15.9497 8.19098C15.9497 6.07348 14.1937 4.29169 12.0762 4.29169C9.95873 4.29169 8.20276 6.04766 8.20276 8.19098C8.20276 10.3343 9.90708 12.0386 12.0762 12.0386Z" fill="#101214"/>
<path d="M91.1748 17.1504C90.4001 17.1504 89.7324 16.9909 89.1719 16.6719C88.6113 16.3483 88.1807 15.8926 87.8799 15.3047C87.5791 14.7168 87.4287 14.0218 87.4287 13.2197C87.4287 12.4359 87.5768 11.7477 87.873 11.1553C88.1738 10.5583 88.5954 10.0934 89.1377 9.76074C89.6846 9.42806 90.3271 9.26172 91.0654 9.26172C91.5485 9.26172 92.002 9.33919 92.4258 9.49414C92.8542 9.64909 93.2324 9.88607 93.5605 10.2051C93.8887 10.5195 94.1439 10.9206 94.3262 11.4082C94.513 11.8913 94.6064 12.4655 94.6064 13.1309V13.6982H88.2695V12.4473H93.6631L92.7607 12.7959C92.7607 12.3812 92.6969 12.0212 92.5693 11.7158C92.4417 11.4059 92.2526 11.1667 92.002 10.998C91.7559 10.8249 91.446 10.7383 91.0723 10.7383C90.7031 10.7383 90.3887 10.8249 90.1289 10.998C89.8691 11.1712 89.6709 11.4059 89.5342 11.7021C89.3975 11.9938 89.3291 12.3219 89.3291 12.6865V13.5615C89.3291 14.0218 89.4066 14.4115 89.5615 14.7305C89.721 15.0449 89.9398 15.2819 90.2178 15.4414C90.5003 15.6009 90.8284 15.6807 91.2021 15.6807C91.4482 15.6807 91.6738 15.6442 91.8789 15.5713C92.084 15.4984 92.2594 15.3936 92.4053 15.2568C92.5511 15.1156 92.6628 14.9424 92.7402 14.7373L94.4902 15.0791C94.3672 15.4938 94.1553 15.8584 93.8545 16.1729C93.5537 16.4827 93.1755 16.7243 92.7197 16.8975C92.2686 17.0661 91.7536 17.1504 91.1748 17.1504Z" fill="#292A2E"/>
<path d="M84.0176 17V9.35742H85.9453V17H84.0176ZM83.9971 8.27051V6.51367H85.9795V8.27051H83.9971Z" fill="#292A2E"/>
<path d="M77.291 12.5498V17H75.3633V9.35742H77.1816L77.2158 11.2578H77.0859C77.291 10.6107 77.5986 10.1162 78.0088 9.77441C78.4189 9.43262 78.943 9.26172 79.5811 9.26172C80.1051 9.26172 80.5632 9.37565 80.9551 9.60352C81.3516 9.83138 81.6569 10.1595 81.8711 10.5879C82.0898 11.0163 82.1992 11.5335 82.1992 12.1396V17H80.2783V12.4609C80.2783 11.9642 80.1507 11.5768 79.8955 11.2988C79.6403 11.0208 79.2894 10.8818 78.8428 10.8818C78.542 10.8818 78.2731 10.9479 78.0361 11.0801C77.8037 11.2077 77.6214 11.3968 77.4893 11.6475C77.3571 11.8936 77.291 12.1943 77.291 12.5498Z" fill="#292A2E"/>
<path d="M70.4756 17.1504C69.7008 17.1504 69.0332 16.9909 68.4727 16.6719C67.9121 16.3483 67.4814 15.8926 67.1807 15.3047C66.8799 14.7168 66.7295 14.0218 66.7295 13.2197C66.7295 12.4359 66.8776 11.7477 67.1738 11.1553C67.4746 10.5583 67.8962 10.0934 68.4385 9.76074C68.9854 9.42806 69.6279 9.26172 70.3662 9.26172C70.8493 9.26172 71.3027 9.33919 71.7266 9.49414C72.1549 9.64909 72.5332 9.88607 72.8613 10.2051C73.1895 10.5195 73.4447 10.9206 73.627 11.4082C73.8138 11.8913 73.9072 12.4655 73.9072 13.1309V13.6982H67.5703V12.4473H72.9639L72.0615 12.7959C72.0615 12.3812 71.9977 12.0212 71.8701 11.7158C71.7425 11.4059 71.5534 11.1667 71.3027 10.998C71.0566 10.8249 70.7467 10.7383 70.373 10.7383C70.0039 10.7383 69.6895 10.8249 69.4297 10.998C69.1699 11.1712 68.9717 11.4059 68.835 11.7021C68.6982 11.9938 68.6299 12.3219 68.6299 12.6865V13.5615C68.6299 14.0218 68.7074 14.4115 68.8623 14.7305C69.0218 15.0449 69.2406 15.2819 69.5186 15.4414C69.8011 15.6009 70.1292 15.6807 70.5029 15.6807C70.749 15.6807 70.9746 15.6442 71.1797 15.5713C71.3848 15.4984 71.5602 15.3936 71.7061 15.2568C71.8519 15.1156 71.9635 14.9424 72.041 14.7373L73.791 15.0791C73.668 15.4938 73.4561 15.8584 73.1553 16.1729C72.8545 16.4827 72.4762 16.7243 72.0205 16.8975C71.5693 17.0661 71.0544 17.1504 70.4756 17.1504Z" fill="#292A2E"/>
<path d="M61.5957 20.0215C60.9714 20.0215 60.4268 19.9417 59.9619 19.7822C59.5016 19.6273 59.1234 19.4108 58.8271 19.1328C58.5355 18.8594 58.3304 18.5472 58.2119 18.1963L59.8525 17.6836C59.9255 17.8249 60.0303 17.9661 60.167 18.1074C60.3037 18.2487 60.4883 18.3649 60.7207 18.4561C60.9531 18.5518 61.2425 18.5996 61.5889 18.5996C62.1266 18.5996 62.5527 18.4743 62.8672 18.2236C63.1816 17.9775 63.3389 17.5902 63.3389 17.0615V15.6396H63.1885C63.0973 15.8356 62.9652 16.0293 62.792 16.2207C62.6234 16.4121 62.3978 16.5716 62.1152 16.6992C61.8327 16.8268 61.4772 16.8906 61.0488 16.8906C60.4701 16.8906 59.9437 16.7539 59.4697 16.4805C59.0003 16.207 58.6243 15.7946 58.3418 15.2432C58.0638 14.6917 57.9248 13.999 57.9248 13.165C57.9248 12.3128 58.0661 11.5973 58.3486 11.0186C58.6312 10.4398 59.0094 10.0023 59.4834 9.70605C59.9574 9.40983 60.4837 9.26172 61.0625 9.26172C61.5 9.26172 61.8646 9.33691 62.1562 9.4873C62.4479 9.63314 62.6826 9.81315 62.8604 10.0273C63.0381 10.237 63.1725 10.4398 63.2637 10.6357H63.3525V9.35742H65.2393V16.9795C65.2393 17.6631 65.082 18.2305 64.7676 18.6816C64.4577 19.1328 64.027 19.4678 63.4756 19.6865C62.9287 19.9098 62.3021 20.0215 61.5957 20.0215ZM61.623 15.4004C61.9922 15.4004 62.3044 15.3115 62.5596 15.1338C62.8148 14.9561 63.0085 14.6986 63.1406 14.3613C63.2773 14.0241 63.3457 13.6208 63.3457 13.1514C63.3457 12.682 63.2796 12.2741 63.1475 11.9277C63.0153 11.5768 62.8216 11.3057 62.5664 11.1143C62.3112 10.9183 61.9967 10.8203 61.623 10.8203C61.2448 10.8203 60.9258 10.9206 60.666 11.1211C60.4108 11.3216 60.2171 11.5973 60.085 11.9482C59.9574 12.2992 59.8936 12.7002 59.8936 13.1514C59.8936 13.6071 59.9596 14.0036 60.0918 14.3408C60.224 14.6781 60.4176 14.9401 60.6729 15.127C60.9326 15.3092 61.2493 15.4004 61.623 15.4004Z" fill="#292A2E"/>
<path d="M53.4404 17.1504C52.8389 17.1504 52.3057 17.0661 51.8408 16.8975C51.376 16.7243 50.9954 16.4736 50.6992 16.1455C50.4076 15.8128 50.2161 15.4141 50.125 14.9492L51.9229 14.6279C52.0231 14.9925 52.2031 15.266 52.4629 15.4482C52.7227 15.626 53.0645 15.7148 53.4883 15.7148C53.8984 15.7148 54.2243 15.6351 54.4658 15.4756C54.7074 15.3115 54.8281 15.1087 54.8281 14.8672C54.8281 14.6576 54.7461 14.4867 54.582 14.3545C54.418 14.2178 54.165 14.113 53.8232 14.04L52.5107 13.7666C51.7816 13.6117 51.237 13.3564 50.877 13.001C50.5169 12.641 50.3369 12.1761 50.3369 11.6064C50.3369 11.1279 50.4691 10.7132 50.7334 10.3623C50.9977 10.0114 51.3646 9.74023 51.834 9.54883C52.3079 9.35742 52.8571 9.26172 53.4814 9.26172C54.0739 9.26172 54.5843 9.34603 55.0127 9.51465C55.4456 9.67871 55.7943 9.91113 56.0586 10.2119C56.3275 10.5081 56.5098 10.8613 56.6055 11.2715L54.8965 11.5859C54.8145 11.3216 54.6595 11.1029 54.4316 10.9297C54.2083 10.752 53.9007 10.6631 53.5088 10.6631C53.1533 10.6631 52.8548 10.7406 52.6133 10.8955C52.3763 11.0459 52.2578 11.2441 52.2578 11.4902C52.2578 11.6999 52.3353 11.873 52.4902 12.0098C52.6497 12.1465 52.9163 12.2559 53.29 12.3379L54.6299 12.6113C55.359 12.7617 55.9014 13.0078 56.2568 13.3496C56.6169 13.6914 56.7969 14.1335 56.7969 14.6758C56.7969 15.168 56.6533 15.6009 56.3662 15.9746C56.0791 16.3438 55.6826 16.6331 55.1768 16.8428C54.6755 17.0479 54.0967 17.1504 53.4404 17.1504Z" fill="#292A2E"/>
<path d="M41.6758 19.8574V9.35742H43.5693V10.6357H43.6719C43.763 10.4398 43.8952 10.237 44.0684 10.0273C44.2415 9.81315 44.4717 9.63314 44.7588 9.4873C45.0459 9.33691 45.4105 9.26172 45.8525 9.26172C46.4313 9.26172 46.9554 9.40983 47.4248 9.70605C47.8988 10.0023 48.2747 10.4421 48.5527 11.0254C48.8353 11.6087 48.9766 12.3311 48.9766 13.1924C48.9766 14.0355 48.8398 14.751 48.5664 15.3389C48.293 15.9222 47.9193 16.3665 47.4453 16.6719C46.9759 16.9772 46.4427 17.1299 45.8457 17.1299C45.4219 17.1299 45.0641 17.0592 44.7725 16.918C44.4854 16.7721 44.2529 16.5967 44.0752 16.3916C43.902 16.182 43.7676 15.9792 43.6719 15.7832H43.6035V19.8574H41.6758ZM45.2852 15.5781C45.6634 15.5781 45.9801 15.4756 46.2354 15.2705C46.4906 15.0609 46.682 14.776 46.8096 14.416C46.9417 14.056 47.0078 13.6458 47.0078 13.1855C47.0078 12.7253 46.9417 12.3174 46.8096 11.9619C46.682 11.6064 46.4906 11.3285 46.2354 11.1279C45.9801 10.9229 45.6634 10.8203 45.2852 10.8203C44.916 10.8203 44.6016 10.9183 44.3418 11.1143C44.0866 11.3102 43.8929 11.5859 43.7607 11.9414C43.6286 12.2923 43.5625 12.707 43.5625 13.1855C43.5625 13.6595 43.6286 14.0765 43.7607 14.4365C43.8975 14.7965 44.0934 15.0768 44.3486 15.2773C44.6084 15.4779 44.9206 15.5781 45.2852 15.5781Z" fill="#292A2E"/>
<path d="M35.3936 17.1367C34.4958 17.1367 33.6891 16.9316 32.9736 16.5215C32.2627 16.1068 31.6999 15.5098 31.2852 14.7305C30.875 13.9512 30.6699 13.0124 30.6699 11.9141C30.6699 10.8112 30.875 9.87012 31.2852 9.09082C31.6999 8.30697 32.2627 7.70996 32.9736 7.2998C33.6891 6.88509 34.4958 6.67773 35.3936 6.67773C36.2868 6.67773 37.0889 6.88509 37.7998 7.2998C38.5107 7.70996 39.0713 8.30697 39.4814 9.09082C39.8962 9.87012 40.1035 10.8112 40.1035 11.9141C40.1035 13.0124 39.8962 13.9535 39.4814 14.7373C39.0713 15.5166 38.5107 16.1113 37.7998 16.5215C37.0889 16.9316 36.2868 17.1367 35.3936 17.1367ZM35.3936 15.3867C35.9313 15.3867 36.403 15.2546 36.8086 14.9902C37.2188 14.7214 37.54 14.3294 37.7725 13.8145C38.0049 13.2949 38.1211 12.6615 38.1211 11.9141C38.1211 11.1576 38.0049 10.5218 37.7725 10.0068C37.54 9.4873 37.2188 9.09538 36.8086 8.83105C36.403 8.56217 35.9313 8.42773 35.3936 8.42773C34.8512 8.42773 34.375 8.56217 33.9648 8.83105C33.5547 9.09538 33.2334 9.4873 33.001 10.0068C32.7731 10.5264 32.6592 11.1621 32.6592 11.9141C32.6592 12.6615 32.7731 13.2949 33.001 13.8145C33.2334 14.3294 33.5547 14.7214 33.9648 14.9902C34.375 15.2546 34.8512 15.3867 35.3936 15.3867Z" fill="#292A2E"/>
</svg>
