<svg width="87" height="24" viewBox="0 0 87 24" fill="none" xmlns="http://www.w3.org/2000/svg">
<path d="M0 6C0 2.68629 2.68629 0 6 0H18C21.3137 0 24 2.68629 24 6V18C24 21.3137 21.3137 24 18 24H6C2.68629 24 0 21.3137 0 18V6Z" fill="#DDDEE1"/>
<path fill-rule="evenodd" clip-rule="evenodd" d="M5.1062 14.44L6.96236 12.5839L5.1062 10.7277L6.653 9.1809H10.3653L13.1495 6.39667H17.4806V10.7277L14.6963 13.5119V17.2242L13.1495 18.771L11.2934 16.9149L9.43723 18.771L7.73724 17.071L10.5214 14.2868L9.59337 13.3588L6.80917 16.143L5.1062 14.44ZM15.315 10.109C14.8879 10.5362 14.1954 10.5362 13.7682 10.109C13.3411 9.6819 13.3411 8.98938 13.7682 8.56224C14.1954 8.13511 14.8879 8.13511 15.315 8.56224C15.7422 8.98938 15.7422 9.6819 15.315 10.109Z" fill="#1E1F21"/>
<path d="M81.9736 17.1504C81.3721 17.1504 80.8389 17.0661 80.374 16.8975C79.9092 16.7243 79.5286 16.4736 79.2324 16.1455C78.9408 15.8128 78.7493 15.4141 78.6582 14.9492L80.4561 14.6279C80.5563 14.9925 80.7363 15.266 80.9961 15.4482C81.2559 15.626 81.5977 15.7148 82.0215 15.7148C82.4316 15.7148 82.7575 15.6351 82.999 15.4756C83.2406 15.3115 83.3613 15.1087 83.3613 14.8672C83.3613 14.6576 83.2793 14.4867 83.1152 14.3545C82.9512 14.2178 82.6982 14.113 82.3564 14.04L81.0439 13.7666C80.3148 13.6117 79.7702 13.3564 79.4102 13.001C79.0501 12.641 78.8701 12.1761 78.8701 11.6064C78.8701 11.1279 79.0023 10.7132 79.2666 10.3623C79.5309 10.0114 79.8978 9.74023 80.3672 9.54883C80.8411 9.35742 81.3903 9.26172 82.0146 9.26172C82.6071 9.26172 83.1175 9.34603 83.5459 9.51465C83.9788 9.67871 84.3275 9.91113 84.5918 10.2119C84.8607 10.5081 85.043 10.8613 85.1387 11.2715L83.4297 11.5859C83.3477 11.3216 83.1927 11.1029 82.9648 10.9297C82.7415 10.752 82.4339 10.6631 82.042 10.6631C81.6865 10.6631 81.388 10.7406 81.1465 10.8955C80.9095 11.0459 80.791 11.2441 80.791 11.4902C80.791 11.6999 80.8685 11.873 81.0234 12.0098C81.1829 12.1465 81.4495 12.2559 81.8232 12.3379L83.1631 12.6113C83.8923 12.7617 84.4346 13.0078 84.79 13.3496C85.1501 13.6914 85.3301 14.1335 85.3301 14.6758C85.3301 15.168 85.1865 15.6009 84.8994 15.9746C84.6123 16.3438 84.2158 16.6331 83.71 16.8428C83.2087 17.0479 82.6299 17.1504 81.9736 17.1504Z" fill="#292A2E"/>
<path d="M77.7422 9.35742V10.8408H73.2988V9.35742H77.7422ZM74.3652 7.53906H76.2861V14.8057C76.2861 15.0609 76.3431 15.25 76.457 15.373C76.571 15.4961 76.7578 15.5576 77.0176 15.5576C77.0951 15.5576 77.2021 15.5485 77.3389 15.5303C77.4756 15.5075 77.5827 15.487 77.6602 15.4688L77.9473 16.9316C77.7376 16.9954 77.5257 17.0387 77.3115 17.0615C77.0973 17.0889 76.89 17.1025 76.6895 17.1025C75.9375 17.1025 75.361 16.9202 74.96 16.5557C74.5635 16.1865 74.3652 15.6579 74.3652 14.9697V7.53906Z" fill="#292A2E"/>
<path d="M69.2314 17.1504C68.4795 17.1504 67.8255 16.9863 67.2695 16.6582C66.7181 16.3301 66.292 15.8698 65.9912 15.2773C65.6904 14.6849 65.54 13.9967 65.54 13.2129C65.54 12.4245 65.6904 11.734 65.9912 11.1416C66.292 10.5446 66.7181 10.082 67.2695 9.75391C67.8255 9.42578 68.4795 9.26172 69.2314 9.26172C69.6735 9.26172 70.0814 9.31868 70.4551 9.43262C70.8288 9.54655 71.1615 9.71061 71.4531 9.9248C71.7448 10.139 71.9863 10.3988 72.1777 10.7041C72.3737 11.0094 72.5104 11.3535 72.5879 11.7363L70.79 12.0918C70.749 11.8913 70.6829 11.7113 70.5918 11.5518C70.5007 11.3923 70.389 11.2578 70.2568 11.1484C70.1292 11.0345 69.9811 10.9479 69.8125 10.8887C69.6439 10.8249 69.457 10.793 69.252 10.793C68.8646 10.793 68.541 10.8978 68.2812 11.1074C68.0215 11.3125 67.8255 11.5973 67.6934 11.9619C67.5612 12.3219 67.4951 12.7367 67.4951 13.2061C67.4951 13.6709 67.5612 14.0856 67.6934 14.4502C67.8255 14.8102 68.0215 15.0951 68.2812 15.3047C68.541 15.5143 68.8646 15.6191 69.252 15.6191C69.4616 15.6191 69.6507 15.5895 69.8193 15.5303C69.9925 15.4665 70.1452 15.3753 70.2773 15.2568C70.4095 15.1383 70.5212 14.9971 70.6123 14.833C70.7034 14.6644 70.7695 14.4775 70.8105 14.2725L72.6016 14.6211C72.5241 15.0176 72.3896 15.3708 72.1982 15.6807C72.0068 15.9906 71.763 16.2549 71.4668 16.4736C71.1751 16.6924 70.8402 16.861 70.4619 16.9795C70.0882 17.0934 69.6781 17.1504 69.2314 17.1504Z" fill="#292A2E"/>
<path d="M60.9736 17.1504C60.1989 17.1504 59.5312 16.9909 58.9707 16.6719C58.4102 16.3483 57.9795 15.8926 57.6787 15.3047C57.3779 14.7168 57.2275 14.0218 57.2275 13.2197C57.2275 12.4359 57.3757 11.7477 57.6719 11.1553C57.9727 10.5583 58.3942 10.0934 58.9365 9.76074C59.4834 9.42806 60.126 9.26172 60.8643 9.26172C61.3473 9.26172 61.8008 9.33919 62.2246 9.49414C62.653 9.64909 63.0312 9.88607 63.3594 10.2051C63.6875 10.5195 63.9427 10.9206 64.125 11.4082C64.3118 11.8913 64.4053 12.4655 64.4053 13.1309V13.6982H58.0684V12.4473H63.4619L62.5596 12.7959C62.5596 12.3812 62.4958 12.0212 62.3682 11.7158C62.2406 11.4059 62.0514 11.1667 61.8008 10.998C61.5547 10.8249 61.2448 10.7383 60.8711 10.7383C60.502 10.7383 60.1875 10.8249 59.9277 10.998C59.668 11.1712 59.4697 11.4059 59.333 11.7021C59.1963 11.9938 59.1279 12.3219 59.1279 12.6865V13.5615C59.1279 14.0218 59.2054 14.4115 59.3604 14.7305C59.5199 15.0449 59.7386 15.2819 60.0166 15.4414C60.2992 15.6009 60.6273 15.6807 61.001 15.6807C61.2471 15.6807 61.4727 15.6442 61.6777 15.5713C61.8828 15.4984 62.0583 15.3936 62.2041 15.2568C62.3499 15.1156 62.4616 14.9424 62.5391 14.7373L64.2891 15.0791C64.166 15.4938 63.9541 15.8584 63.6533 16.1729C63.3525 16.4827 62.9743 16.7243 62.5186 16.8975C62.0674 17.0661 61.5524 17.1504 60.9736 17.1504Z" fill="#292A2E"/>
<path d="M53.8164 9.35742H55.7441V17.417C55.7441 17.9867 55.6348 18.4492 55.416 18.8047C55.1973 19.1647 54.8805 19.429 54.4658 19.5977C54.0557 19.7708 53.5635 19.8574 52.9893 19.8574H52.5996V18.3193H52.8662C53.2126 18.3193 53.4564 18.2396 53.5977 18.0801C53.7435 17.9251 53.8164 17.695 53.8164 17.3896V9.35742ZM53.7891 8.27051V6.51367H55.7715V8.27051H53.7891Z" fill="#292A2E"/>
<path d="M48.6348 17.1504C47.8783 17.1504 47.222 16.9863 46.666 16.6582C46.1146 16.3301 45.6885 15.8698 45.3877 15.2773C45.0869 14.6849 44.9365 13.9967 44.9365 13.2129C44.9365 12.4245 45.0869 11.734 45.3877 11.1416C45.6885 10.5446 46.1146 10.082 46.666 9.75391C47.222 9.42578 47.8783 9.26172 48.6348 9.26172C49.3913 9.26172 50.0452 9.42578 50.5967 9.75391C51.1527 10.082 51.5811 10.5446 51.8818 11.1416C52.1826 11.734 52.333 12.4245 52.333 13.2129C52.333 13.9967 52.1826 14.6849 51.8818 15.2773C51.5811 15.8698 51.1527 16.3301 50.5967 16.6582C50.0452 16.9863 49.3913 17.1504 48.6348 17.1504ZM48.6348 15.6191C49.0221 15.6191 49.3457 15.5143 49.6055 15.3047C49.8652 15.0905 50.0589 14.8011 50.1865 14.4365C50.3141 14.0719 50.3779 13.6618 50.3779 13.2061C50.3779 12.7503 50.3141 12.3402 50.1865 11.9756C50.0589 11.611 49.8652 11.3239 49.6055 11.1143C49.3457 10.9001 49.0221 10.793 48.6348 10.793C48.2474 10.793 47.9238 10.9001 47.6641 11.1143C47.4089 11.3239 47.2152 11.611 47.083 11.9756C46.9554 12.3356 46.8916 12.7458 46.8916 13.2061C46.8916 13.6618 46.9554 14.0719 47.083 14.4365C47.2152 14.8011 47.4089 15.0905 47.6641 15.3047C47.9238 15.5143 48.2474 15.6191 48.6348 15.6191Z" fill="#292A2E"/>
<path d="M39.9531 17V9.35742H41.8193V10.6631H41.9014C42.0381 10.2074 42.2751 9.85872 42.6123 9.61719C42.9495 9.37565 43.3346 9.25488 43.7676 9.25488C43.8678 9.25488 43.9795 9.26172 44.1025 9.27539C44.2256 9.28451 44.3327 9.29818 44.4238 9.31641V11.0527C44.3418 11.0254 44.2142 11.0026 44.041 10.9844C43.8724 10.9661 43.7106 10.957 43.5557 10.957C43.2367 10.957 42.9495 11.0254 42.6943 11.1621C42.4391 11.2988 42.2386 11.4902 42.0928 11.7363C41.9515 11.9779 41.8809 12.2604 41.8809 12.584V17H39.9531Z" fill="#292A2E"/>
<path d="M30.9707 17V6.81445H34.8672C35.6419 6.81445 36.2982 6.96257 36.8359 7.25879C37.3737 7.55046 37.7816 7.95378 38.0596 8.46875C38.3421 8.97917 38.4834 9.56478 38.4834 10.2256C38.4834 10.8864 38.3421 11.472 38.0596 11.9824C37.777 12.4928 37.3623 12.8939 36.8154 13.1855C36.2731 13.4727 35.61 13.6162 34.8262 13.6162H32.29V12.0166H34.5391C34.9811 12.0166 35.3434 11.9414 35.626 11.791C35.9131 11.6361 36.125 11.4242 36.2617 11.1553C36.3984 10.8818 36.4668 10.5719 36.4668 10.2256C36.4668 9.87012 36.3984 9.56022 36.2617 9.2959C36.125 9.02702 35.9131 8.81738 35.626 8.66699C35.3389 8.5166 34.9743 8.44141 34.5322 8.44141H32.9326V17H30.9707Z" fill="#292A2E"/>
</svg>
