<svg width="64" height="24" viewBox="0 0 64 24" fill="none" xmlns="http://www.w3.org/2000/svg">
<path d="M0 6C0 2.68629 2.68629 0 6 0H18C21.3137 0 24 2.68629 24 6V18C24 21.3137 21.3137 24 18 24H6C2.68629 24 0 21.3137 0 18V6Z" fill="#1868DB"/>
<path d="M12.8014 4.72668C12.2871 4.42995 11.6542 4.42454 11.1356 4.71047C11.126 4.71792 11.1159 4.7248 11.1051 4.73103L11.1039 4.73172C10.7203 4.95337 10.444 5.31359 10.3237 5.72787C10.2811 5.87732 10.2586 6.03393 10.2586 6.1939V8.43317L13.0638 10.052C13.7528 10.4482 14.1753 11.1806 14.1753 11.9748V17.7556C14.1753 17.9682 14.1448 18.1765 14.0868 18.3753C14.0742 18.4189 14.0603 18.4621 14.0452 18.5048L17.8078 16.3325C18.3333 16.0304 18.656 15.4718 18.656 14.8652V9.08434C18.656 8.48018 18.3318 7.9194 17.8078 7.61712L12.8014 4.72668Z" fill="white"/>
<path d="M6.09786 7.62295L9.86092 5.45036C9.84654 5.49078 9.83332 5.53167 9.82128 5.57298C9.76199 5.77382 9.73071 5.98454 9.73071 6.19953V11.9804C9.73071 12.7745 10.153 13.5068 10.8419 13.903L13.6474 15.522V17.7613C13.6474 17.9236 13.6243 18.0825 13.5804 18.234C13.459 18.6459 13.1831 19.0037 12.8011 19.2241C12.7903 19.2303 12.7801 19.2372 12.7706 19.2447C12.2519 19.5306 11.6191 19.5253 11.1047 19.2285L6.09827 16.3381C5.57432 16.0358 5.25 15.475 5.25 14.8708V9.08997C5.25 8.48342 5.57235 7.92507 6.09786 7.62295Z" fill="white"/>
<path d="M59.627 17.1504C58.8704 17.1504 58.2142 16.9863 57.6582 16.6582C57.1068 16.3301 56.6807 15.8698 56.3799 15.2773C56.0791 14.6849 55.9287 13.9967 55.9287 13.2129C55.9287 12.4245 56.0791 11.734 56.3799 11.1416C56.6807 10.5446 57.1068 10.082 57.6582 9.75391C58.2142 9.42578 58.8704 9.26172 59.627 9.26172C60.3835 9.26172 61.0374 9.42578 61.5889 9.75391C62.1449 10.082 62.5732 10.5446 62.874 11.1416C63.1748 11.734 63.3252 12.4245 63.3252 13.2129C63.3252 13.9967 63.1748 14.6849 62.874 15.2773C62.5732 15.8698 62.1449 16.3301 61.5889 16.6582C61.0374 16.9863 60.3835 17.1504 59.627 17.1504ZM59.627 15.6191C60.0143 15.6191 60.3379 15.5143 60.5977 15.3047C60.8574 15.0905 61.0511 14.8011 61.1787 14.4365C61.3063 14.0719 61.3701 13.6618 61.3701 13.2061C61.3701 12.7503 61.3063 12.3402 61.1787 11.9756C61.0511 11.611 60.8574 11.3239 60.5977 11.1143C60.3379 10.9001 60.0143 10.793 59.627 10.793C59.2396 10.793 58.916 10.9001 58.6562 11.1143C58.401 11.3239 58.2074 11.611 58.0752 11.9756C57.9476 12.3356 57.8838 12.7458 57.8838 13.2061C57.8838 13.6618 57.9476 14.0719 58.0752 14.4365C58.2074 14.8011 58.401 15.0905 58.6562 15.3047C58.916 15.5143 59.2396 15.6191 59.627 15.6191Z" fill="#292A2E"/>
<path d="M50.3643 17L47.5342 9.35742H49.5781L50.918 13.4111C51.0775 13.9033 51.2142 14.4001 51.3281 14.9014C51.4466 15.3981 51.5697 15.9108 51.6973 16.4395H51.2529C51.376 15.9108 51.4945 15.3981 51.6084 14.9014C51.7223 14.4001 51.859 13.9033 52.0186 13.4111L53.3447 9.35742H55.3682L52.5381 17H50.3643Z" fill="#292A2E"/>
<path d="M43.2754 17.1504C42.5189 17.1504 41.8626 16.9863 41.3066 16.6582C40.7552 16.3301 40.3291 15.8698 40.0283 15.2773C39.7275 14.6849 39.5771 13.9967 39.5771 13.2129C39.5771 12.4245 39.7275 11.734 40.0283 11.1416C40.3291 10.5446 40.7552 10.082 41.3066 9.75391C41.8626 9.42578 42.5189 9.26172 43.2754 9.26172C44.0319 9.26172 44.6859 9.42578 45.2373 9.75391C45.7933 10.082 46.2217 10.5446 46.5225 11.1416C46.8232 11.734 46.9736 12.4245 46.9736 13.2129C46.9736 13.9967 46.8232 14.6849 46.5225 15.2773C46.2217 15.8698 45.7933 16.3301 45.2373 16.6582C44.6859 16.9863 44.0319 17.1504 43.2754 17.1504ZM43.2754 15.6191C43.6628 15.6191 43.9863 15.5143 44.2461 15.3047C44.5059 15.0905 44.6995 14.8011 44.8271 14.4365C44.9548 14.0719 45.0186 13.6618 45.0186 13.2061C45.0186 12.7503 44.9548 12.3402 44.8271 11.9756C44.6995 11.611 44.5059 11.3239 44.2461 11.1143C43.9863 10.9001 43.6628 10.793 43.2754 10.793C42.888 10.793 42.5645 10.9001 42.3047 11.1143C42.0495 11.3239 41.8558 11.611 41.7236 11.9756C41.596 12.3356 41.5322 12.7458 41.5322 13.2061C41.5322 13.6618 41.596 14.0719 41.7236 14.4365C41.8558 14.8011 42.0495 15.0905 42.3047 15.3047C42.5645 15.5143 42.888 15.6191 43.2754 15.6191Z" fill="#292A2E"/>
<path d="M30.9707 17V6.81445H34.8672C35.6419 6.81445 36.2982 6.95117 36.8359 7.22461C37.3737 7.49805 37.7816 7.88314 38.0596 8.37988C38.3421 8.87207 38.4834 9.44629 38.4834 10.1025C38.4834 10.7633 38.3421 11.3353 38.0596 11.8184C37.777 12.3014 37.3623 12.6729 36.8154 12.9326C36.2731 13.1878 35.61 13.3154 34.8262 13.3154H32.126V11.709H34.5391C34.9811 11.709 35.3434 11.6475 35.626 11.5244C35.9085 11.4014 36.1182 11.2214 36.2549 10.9844C36.3962 10.7428 36.4668 10.4489 36.4668 10.1025C36.4668 9.74707 36.3962 9.44857 36.2549 9.20703C36.1182 8.96094 35.9062 8.77181 35.6191 8.63965C35.3366 8.50749 34.9743 8.44141 34.5322 8.44141H32.9326V17H30.9707ZM36.665 17L34.1904 12.3721H36.3301L38.8525 17H36.665Z" fill="#292A2E"/>
</svg>
