<svg width="64" height="24" viewBox="0 0 64 24" fill="none" xmlns="http://www.w3.org/2000/svg">
<path d="M0 6C0 2.68629 2.68629 0 6 0H18C21.3137 0 24 2.68629 24 6V18C24 21.3137 21.3137 24 18 24H6C2.68629 24 0 21.3137 0 18V6Z" fill="#1868DB"/>
<path d="M11.0574 5.25717C11.5363 4.99284 12.1208 4.9977 12.5958 5.27174L17.2171 7.9398C17.7007 8.21883 18.0001 8.73651 18.0001 9.2942V14.6304C18.0001 15.1903 17.7026 15.7057 17.2175 15.9846L13.7436 17.9902C13.7512 17.9688 13.7585 17.9473 13.7654 17.9256C13.8299 17.7257 13.8641 17.5144 13.8641 17.2985V11.9623C13.8641 11.2292 13.4741 10.5532 12.8382 10.1875L10.2487 8.69312V6.6261C10.2487 6.4632 10.2738 6.30407 10.3215 6.15344C10.4387 5.78894 10.6878 5.47338 11.0287 5.2764L11.0297 5.2758C11.0395 5.27016 11.0488 5.2639 11.0574 5.25717Z" fill="white"/>
<path d="M9.88146 5.93958L6.40764 7.94517C5.92255 8.22405 5.625 8.73945 5.625 9.29935V14.6355C5.625 15.1932 5.92431 15.7109 6.40796 15.9899L11.0293 18.658C11.5043 18.932 12.0888 18.9369 12.5677 18.6726C12.5763 18.6658 12.5856 18.6596 12.5954 18.654C12.9366 18.4571 13.1862 18.1414 13.3035 17.7766C13.3512 17.6259 13.3764 17.4667 13.3764 17.3036V15.2366L10.7871 13.7423C10.1512 13.3766 9.76104 12.7004 9.76104 11.9674V6.63125C9.76104 6.4156 9.79513 6.20461 9.85944 6.00492C9.86642 5.983 9.87376 5.96122 9.88146 5.93958Z" fill="white"/>
<path d="M59.627 17.1504C58.8704 17.1504 58.2142 16.9863 57.6582 16.6582C57.1068 16.3301 56.6807 15.8698 56.3799 15.2773C56.0791 14.6849 55.9287 13.9967 55.9287 13.2129C55.9287 12.4245 56.0791 11.734 56.3799 11.1416C56.6807 10.5446 57.1068 10.082 57.6582 9.75391C58.2142 9.42578 58.8704 9.26172 59.627 9.26172C60.3835 9.26172 61.0374 9.42578 61.5889 9.75391C62.1449 10.082 62.5732 10.5446 62.874 11.1416C63.1748 11.734 63.3252 12.4245 63.3252 13.2129C63.3252 13.9967 63.1748 14.6849 62.874 15.2773C62.5732 15.8698 62.1449 16.3301 61.5889 16.6582C61.0374 16.9863 60.3835 17.1504 59.627 17.1504ZM59.627 15.6191C60.0143 15.6191 60.3379 15.5143 60.5977 15.3047C60.8574 15.0905 61.0511 14.8011 61.1787 14.4365C61.3063 14.0719 61.3701 13.6618 61.3701 13.2061C61.3701 12.7503 61.3063 12.3402 61.1787 11.9756C61.0511 11.611 60.8574 11.3239 60.5977 11.1143C60.3379 10.9001 60.0143 10.793 59.627 10.793C59.2396 10.793 58.916 10.9001 58.6562 11.1143C58.401 11.3239 58.2074 11.611 58.0752 11.9756C57.9476 12.3356 57.8838 12.7458 57.8838 13.2061C57.8838 13.6618 57.9476 14.0719 58.0752 14.4365C58.2074 14.8011 58.401 15.0905 58.6562 15.3047C58.916 15.5143 59.2396 15.6191 59.627 15.6191Z" fill="#292A2E"/>
<path d="M50.3643 17L47.5342 9.35742H49.5781L50.918 13.4111C51.0775 13.9033 51.2142 14.4001 51.3281 14.9014C51.4466 15.3981 51.5697 15.9108 51.6973 16.4395H51.2529C51.376 15.9108 51.4945 15.3981 51.6084 14.9014C51.7223 14.4001 51.859 13.9033 52.0186 13.4111L53.3447 9.35742H55.3682L52.5381 17H50.3643Z" fill="#292A2E"/>
<path d="M43.2754 17.1504C42.5189 17.1504 41.8626 16.9863 41.3066 16.6582C40.7552 16.3301 40.3291 15.8698 40.0283 15.2773C39.7275 14.6849 39.5771 13.9967 39.5771 13.2129C39.5771 12.4245 39.7275 11.734 40.0283 11.1416C40.3291 10.5446 40.7552 10.082 41.3066 9.75391C41.8626 9.42578 42.5189 9.26172 43.2754 9.26172C44.0319 9.26172 44.6859 9.42578 45.2373 9.75391C45.7933 10.082 46.2217 10.5446 46.5225 11.1416C46.8232 11.734 46.9736 12.4245 46.9736 13.2129C46.9736 13.9967 46.8232 14.6849 46.5225 15.2773C46.2217 15.8698 45.7933 16.3301 45.2373 16.6582C44.6859 16.9863 44.0319 17.1504 43.2754 17.1504ZM43.2754 15.6191C43.6628 15.6191 43.9863 15.5143 44.2461 15.3047C44.5059 15.0905 44.6995 14.8011 44.8271 14.4365C44.9548 14.0719 45.0186 13.6618 45.0186 13.2061C45.0186 12.7503 44.9548 12.3402 44.8271 11.9756C44.6995 11.611 44.5059 11.3239 44.2461 11.1143C43.9863 10.9001 43.6628 10.793 43.2754 10.793C42.888 10.793 42.5645 10.9001 42.3047 11.1143C42.0495 11.3239 41.8558 11.611 41.7236 11.9756C41.596 12.3356 41.5322 12.7458 41.5322 13.2061C41.5322 13.6618 41.596 14.0719 41.7236 14.4365C41.8558 14.8011 42.0495 15.0905 42.3047 15.3047C42.5645 15.5143 42.888 15.6191 43.2754 15.6191Z" fill="#292A2E"/>
<path d="M30.9707 17V6.81445H34.8672C35.6419 6.81445 36.2982 6.95117 36.8359 7.22461C37.3737 7.49805 37.7816 7.88314 38.0596 8.37988C38.3421 8.87207 38.4834 9.44629 38.4834 10.1025C38.4834 10.7633 38.3421 11.3353 38.0596 11.8184C37.777 12.3014 37.3623 12.6729 36.8154 12.9326C36.2731 13.1878 35.61 13.3154 34.8262 13.3154H32.126V11.709H34.5391C34.9811 11.709 35.3434 11.6475 35.626 11.5244C35.9085 11.4014 36.1182 11.2214 36.2549 10.9844C36.3962 10.7428 36.4668 10.4489 36.4668 10.1025C36.4668 9.74707 36.3962 9.44857 36.2549 9.20703C36.1182 8.96094 35.9062 8.77181 35.6191 8.63965C35.3366 8.50749 34.9743 8.44141 34.5322 8.44141H32.9326V17H30.9707ZM36.665 17L34.1904 12.3721H36.3301L38.8525 17H36.665Z" fill="#292A2E"/>
</svg>
