<svg width="79" height="24" viewBox="0 0 79 24" fill="none" xmlns="http://www.w3.org/2000/svg">
<path d="M0 6C0 2.68629 2.68629 0 6 0H18C21.3137 0 24 2.68629 24 6V18C24 21.3137 21.3137 24 18 24H6C2.68629 24 0 21.3137 0 18V6Z" fill="#DDDEE1"/>
<path fill-rule="evenodd" clip-rule="evenodd" d="M5 10.6875C5 13.8286 7.55045 16.375 10.6966 16.375C11.7067 16.375 12.6553 16.1126 13.4779 15.6522L16.831 19L19 16.8345L15.6531 13.4929C16.1242 12.6651 16.3932 11.7077 16.3932 10.6875C16.3932 7.54638 13.8427 5 10.6966 5C7.55045 5 5 7.54638 5 10.6875ZM7.191 10.6875C7.191 12.6205 8.76051 14.1875 10.6966 14.1875C12.6327 14.1875 14.2022 12.6205 14.2022 10.6875C14.2022 8.75451 12.6327 7.1875 10.6966 7.1875C8.76051 7.1875 7.191 8.75451 7.191 10.6875Z" fill="#1E1F21"/>
<path d="M72.5879 12.5498V17H70.6602V6.81445H72.5537V11.2578H72.3828C72.5879 10.6107 72.8955 10.1162 73.3057 9.77441C73.7158 9.43262 74.2399 9.26172 74.8779 9.26172C75.402 9.26172 75.86 9.37565 76.252 9.60352C76.6484 9.83138 76.9561 10.1595 77.1748 10.5879C77.3936 11.0163 77.5029 11.5335 77.5029 12.1396V17H75.5752V12.4609C75.5752 11.9642 75.4476 11.5768 75.1924 11.2988C74.9372 11.0208 74.5863 10.8818 74.1396 10.8818C73.8389 10.8818 73.57 10.9479 73.333 11.0801C73.1006 11.2077 72.9183 11.3968 72.7861 11.6475C72.654 11.8936 72.5879 12.1943 72.5879 12.5498Z" fill="#292A2E"/>
<path d="M65.8271 17.1504C65.0752 17.1504 64.4212 16.9863 63.8652 16.6582C63.3138 16.3301 62.8877 15.8698 62.5869 15.2773C62.2861 14.6849 62.1357 13.9967 62.1357 13.2129C62.1357 12.4245 62.2861 11.734 62.5869 11.1416C62.8877 10.5446 63.3138 10.082 63.8652 9.75391C64.4212 9.42578 65.0752 9.26172 65.8271 9.26172C66.2692 9.26172 66.6771 9.31868 67.0508 9.43262C67.4245 9.54655 67.7572 9.71061 68.0488 9.9248C68.3405 10.139 68.582 10.3988 68.7734 10.7041C68.9694 11.0094 69.1061 11.3535 69.1836 11.7363L67.3857 12.0918C67.3447 11.8913 67.2786 11.7113 67.1875 11.5518C67.0964 11.3923 66.9847 11.2578 66.8525 11.1484C66.7249 11.0345 66.5768 10.9479 66.4082 10.8887C66.2396 10.8249 66.0527 10.793 65.8477 10.793C65.4603 10.793 65.1367 10.8978 64.877 11.1074C64.6172 11.3125 64.4212 11.5973 64.2891 11.9619C64.1569 12.3219 64.0908 12.7367 64.0908 13.2061C64.0908 13.6709 64.1569 14.0856 64.2891 14.4502C64.4212 14.8102 64.6172 15.0951 64.877 15.3047C65.1367 15.5143 65.4603 15.6191 65.8477 15.6191C66.0573 15.6191 66.2464 15.5895 66.415 15.5303C66.5882 15.4665 66.7409 15.3753 66.873 15.2568C67.0052 15.1383 67.1169 14.9971 67.208 14.833C67.2992 14.6644 67.3652 14.4775 67.4062 14.2725L69.1973 14.6211C69.1198 15.0176 68.9854 15.3708 68.7939 15.6807C68.6025 15.9906 68.3587 16.2549 68.0625 16.4736C67.7708 16.6924 67.4359 16.861 67.0576 16.9795C66.6839 17.0934 66.2738 17.1504 65.8271 17.1504Z" fill="#292A2E"/>
<path d="M57.1523 17V9.35742H59.0186V10.6631H59.1006C59.2373 10.2074 59.4743 9.85872 59.8115 9.61719C60.1488 9.37565 60.5339 9.25488 60.9668 9.25488C61.0671 9.25488 61.1787 9.26172 61.3018 9.27539C61.4248 9.28451 61.5319 9.29818 61.623 9.31641V11.0527C61.541 11.0254 61.4134 11.0026 61.2402 10.9844C61.0716 10.9661 60.9098 10.957 60.7549 10.957C60.4359 10.957 60.1488 11.0254 59.8936 11.1621C59.6383 11.2988 59.4378 11.4902 59.292 11.7363C59.1507 11.9779 59.0801 12.2604 59.0801 12.584V17H57.1523Z" fill="#292A2E"/>
<path d="M51.1641 17.1299C50.5762 17.1299 50.0452 16.9772 49.5713 16.6719C49.1019 16.3665 48.7282 15.9222 48.4502 15.3389C48.1768 14.751 48.04 14.0355 48.04 13.1924C48.04 12.3311 48.1813 11.6087 48.4639 11.0254C48.7464 10.4421 49.1247 10.0023 49.5986 9.70605C50.0726 9.40983 50.599 9.26172 51.1777 9.26172C51.6152 9.26172 51.9775 9.33691 52.2646 9.4873C52.5518 9.63314 52.7819 9.81315 52.9551 10.0273C53.1283 10.237 53.2604 10.4398 53.3516 10.6357H53.4268V9.35742H55.334V17H53.4336V15.7832H53.3516C53.2604 15.9792 53.1237 16.182 52.9414 16.3916C52.7637 16.6012 52.5312 16.7767 52.2441 16.918C51.957 17.0592 51.597 17.1299 51.1641 17.1299ZM51.7383 15.5781C52.1074 15.5781 52.4196 15.4779 52.6748 15.2773C52.93 15.0768 53.1237 14.7965 53.2559 14.4365C53.3926 14.0765 53.4609 13.6595 53.4609 13.1855C53.4609 12.707 53.3949 12.2923 53.2627 11.9414C53.1305 11.5859 52.9368 11.3102 52.6816 11.1143C52.4264 10.9183 52.112 10.8203 51.7383 10.8203C51.36 10.8203 51.041 10.9206 50.7812 11.1211C50.526 11.3216 50.3324 11.5996 50.2002 11.9551C50.0726 12.3105 50.0088 12.7207 50.0088 13.1855C50.0088 13.6458 50.0749 14.056 50.207 14.416C50.3392 14.776 50.5329 15.0609 50.7881 15.2705C51.0479 15.4756 51.3646 15.5781 51.7383 15.5781Z" fill="#292A2E"/>
<path d="M43.4736 17.1504C42.6989 17.1504 42.0312 16.9909 41.4707 16.6719C40.9102 16.3483 40.4795 15.8926 40.1787 15.3047C39.8779 14.7168 39.7275 14.0218 39.7275 13.2197C39.7275 12.4359 39.8757 11.7477 40.1719 11.1553C40.4727 10.5583 40.8942 10.0934 41.4365 9.76074C41.9834 9.42806 42.626 9.26172 43.3643 9.26172C43.8473 9.26172 44.3008 9.33919 44.7246 9.49414C45.153 9.64909 45.5312 9.88607 45.8594 10.2051C46.1875 10.5195 46.4427 10.9206 46.625 11.4082C46.8118 11.8913 46.9053 12.4655 46.9053 13.1309V13.6982H40.5684V12.4473H45.9619L45.0596 12.7959C45.0596 12.3812 44.9958 12.0212 44.8682 11.7158C44.7406 11.4059 44.5514 11.1667 44.3008 10.998C44.0547 10.8249 43.7448 10.7383 43.3711 10.7383C43.002 10.7383 42.6875 10.8249 42.4277 10.998C42.168 11.1712 41.9697 11.4059 41.833 11.7021C41.6963 11.9938 41.6279 12.3219 41.6279 12.6865V13.5615C41.6279 14.0218 41.7054 14.4115 41.8604 14.7305C42.0199 15.0449 42.2386 15.2819 42.5166 15.4414C42.7992 15.6009 43.1273 15.6807 43.501 15.6807C43.7471 15.6807 43.9727 15.6442 44.1777 15.5713C44.3828 15.4984 44.5583 15.3936 44.7041 15.2568C44.8499 15.1156 44.9616 14.9424 45.0391 14.7373L46.7891 15.0791C46.666 15.4938 46.4541 15.8584 46.1533 16.1729C45.8525 16.4827 45.4743 16.7243 45.0186 16.8975C44.5674 17.0661 44.0524 17.1504 43.4736 17.1504Z" fill="#292A2E"/>
<path d="M34.6279 17.1504C33.8258 17.1504 33.1286 17.0273 32.5361 16.7812C31.9437 16.5306 31.4811 16.166 31.1484 15.6875C30.8158 15.2044 30.638 14.6143 30.6152 13.917H32.5361C32.5635 14.2679 32.6683 14.5596 32.8506 14.792C33.0374 15.0244 33.2835 15.1999 33.5889 15.3184C33.8942 15.4323 34.236 15.4893 34.6143 15.4893C34.9971 15.4893 35.3343 15.4323 35.626 15.3184C35.9176 15.1999 36.1455 15.0381 36.3096 14.833C36.4736 14.6234 36.5557 14.3818 36.5557 14.1084C36.5557 13.8577 36.4827 13.6504 36.3369 13.4863C36.1911 13.3223 35.9837 13.1833 35.7148 13.0693C35.4505 12.9508 35.1315 12.8483 34.7578 12.7617L33.623 12.4678C32.7663 12.2536 32.0964 11.9232 31.6133 11.4766C31.1302 11.0299 30.8887 10.4421 30.8887 9.71289C30.8887 9.10677 31.0527 8.57585 31.3809 8.12012C31.709 7.66439 32.1579 7.3112 32.7275 7.06055C33.2972 6.80534 33.9443 6.67773 34.6689 6.67773C35.4072 6.67773 36.0521 6.80534 36.6035 7.06055C37.1595 7.31576 37.5924 7.66895 37.9023 8.12012C38.2168 8.56673 38.3786 9.08171 38.3877 9.66504H36.4873C36.4463 9.24121 36.2617 8.91536 35.9336 8.6875C35.61 8.45508 35.1794 8.33887 34.6416 8.33887C34.277 8.33887 33.9626 8.39355 33.6982 8.50293C33.4385 8.60775 33.238 8.75586 33.0967 8.94727C32.96 9.13411 32.8916 9.34831 32.8916 9.58984C32.8916 9.85872 32.9714 10.0798 33.1309 10.2529C33.2949 10.4261 33.5046 10.5651 33.7598 10.6699C34.0195 10.7747 34.2884 10.8613 34.5664 10.9297L35.5029 11.1621C35.9085 11.2578 36.2913 11.3854 36.6514 11.5449C37.016 11.7044 37.3395 11.9027 37.6221 12.1396C37.9046 12.3721 38.1257 12.6523 38.2852 12.9805C38.4447 13.304 38.5244 13.6846 38.5244 14.1221C38.5244 14.7282 38.3695 15.2591 38.0596 15.7148C37.7542 16.1706 37.3099 16.5238 36.7266 16.7744C36.1478 17.0251 35.4482 17.1504 34.6279 17.1504Z" fill="#292A2E"/>
</svg>
