<svg width="110" height="24" viewBox="0 0 110 24" fill="none" xmlns="http://www.w3.org/2000/svg">
<path d="M0 6C0 2.68629 2.68629 0 6 0H18C21.3137 0 24 2.68629 24 6V18C24 21.3137 21.3137 24 18 24H6C2.68629 24 0 21.3137 0 18V6Z" fill="#FFC716"/>
<path d="M12 9.79608C10.0759 9.79608 8.20447 10.628 6.67572 11.9137C6.51757 12.065 6.35943 12.1406 6.20128 12.1406C6.06949 12.1406 5.9377 12.065 5.83227 11.9389L3.90815 9.77087C3.80272 9.64482 3.75 9.51877 3.75 9.41793C3.75 9.26667 3.82907 9.14062 3.98722 8.98936C6.30671 7.02297 9.127 5.91373 12 5.91373C14.873 5.91373 17.6933 7.02297 20.0128 8.98936C20.1709 9.14062 20.25 9.26667 20.25 9.41793C20.25 9.51877 20.1973 9.64482 20.0919 9.77087L18.1677 11.9389C18.0623 12.065 17.9305 12.1406 17.7987 12.1406C17.6406 12.1406 17.4824 12.065 17.3243 11.9137C15.7955 10.628 13.9241 9.79608 12 9.79608ZM12 17.9137C9.86502 17.9137 8.1254 16.2499 8.1254 14.2331C8.1254 12.2162 9.86502 10.5524 12 10.5524C14.135 10.5524 15.8746 12.191 15.8746 14.2331C15.8746 16.2751 14.135 17.9137 12 17.9137Z" fill="#111213"/>
<path d="M105.797 17.1572C105.04 17.1572 104.391 17 103.849 16.6855C103.306 16.3665 102.889 15.9176 102.598 15.3389C102.306 14.7555 102.16 14.0651 102.16 13.2676V13.2607C102.16 12.4632 102.306 11.7728 102.598 11.1895C102.889 10.6016 103.302 10.1481 103.835 9.8291C104.368 9.50553 104.995 9.34375 105.715 9.34375C106.435 9.34375 107.057 9.50098 107.581 9.81543C108.11 10.1253 108.515 10.5628 108.798 11.1279C109.08 11.693 109.222 12.3538 109.222 13.1104V13.7051H103.097V12.502H108.319L107.431 13.6299V12.8848C107.431 12.4154 107.36 12.0257 107.219 11.7158C107.077 11.4014 106.879 11.1644 106.624 11.0049C106.369 10.8454 106.075 10.7656 105.742 10.7656C105.41 10.7656 105.113 10.8477 104.854 11.0117C104.594 11.1758 104.389 11.415 104.238 11.7295C104.092 12.0439 104.02 12.429 104.02 12.8848V13.6367C104.02 14.0788 104.092 14.457 104.238 14.7715C104.384 15.0814 104.591 15.3184 104.86 15.4824C105.134 15.6465 105.457 15.7285 105.831 15.7285C106.132 15.7285 106.387 15.6852 106.597 15.5986C106.811 15.512 106.982 15.4095 107.109 15.291C107.242 15.168 107.333 15.0563 107.383 14.9561L107.403 14.9082H109.153L109.14 14.9766C109.08 15.2135 108.971 15.4596 108.812 15.7148C108.657 15.9701 108.445 16.207 108.176 16.4258C107.907 16.64 107.574 16.8154 107.178 16.9521C106.786 17.0889 106.326 17.1572 105.797 17.1572Z" fill="#292A2E"/>
<path d="M96.8555 19.6387C96.1764 19.6387 95.5931 19.5498 95.1055 19.3721C94.6178 19.1943 94.235 18.9437 93.957 18.6201C93.679 18.3011 93.5104 17.932 93.4512 17.5127L93.458 17.4785H95.3105L95.3174 17.5059C95.3766 17.7292 95.5384 17.9115 95.8027 18.0527C96.0716 18.1986 96.4339 18.2715 96.8896 18.2715C97.4411 18.2715 97.8695 18.1462 98.1748 17.8955C98.4847 17.6494 98.6396 17.3008 98.6396 16.8496V15.4346H98.5166C98.3799 15.6989 98.1999 15.9245 97.9766 16.1113C97.7533 16.2936 97.4958 16.4326 97.2041 16.5283C96.917 16.6195 96.6003 16.665 96.2539 16.665C95.625 16.665 95.0804 16.5146 94.6201 16.2139C94.1644 15.9085 93.8112 15.487 93.5605 14.9492C93.3145 14.4069 93.1914 13.7803 93.1914 13.0693V13.0557C93.1914 12.3265 93.3145 11.6862 93.5605 11.1348C93.8112 10.5833 94.1667 10.1527 94.627 9.84277C95.0918 9.53288 95.6455 9.37793 96.2881 9.37793C96.6344 9.37793 96.9512 9.43262 97.2383 9.54199C97.5299 9.64681 97.7852 9.79948 98.0039 10C98.2272 10.2005 98.4072 10.4421 98.5439 10.7246H98.6328V9.50098H100.499V16.7881C100.499 17.3714 100.351 17.875 100.055 18.2988C99.7585 18.7272 99.3369 19.0576 98.79 19.29C98.2432 19.5225 97.5983 19.6387 96.8555 19.6387ZM96.8691 15.209C97.2428 15.209 97.5619 15.1201 97.8262 14.9424C98.0951 14.7601 98.3001 14.5094 98.4414 14.1904C98.5872 13.8669 98.6602 13.4932 98.6602 13.0693V13.0557C98.6602 12.6318 98.5872 12.2581 98.4414 11.9346C98.3001 11.611 98.0951 11.3581 97.8262 11.1758C97.5619 10.9935 97.2428 10.9023 96.8691 10.9023C96.4954 10.9023 96.1764 10.9935 95.9121 11.1758C95.6523 11.3581 95.4518 11.611 95.3105 11.9346C95.1738 12.2536 95.1055 12.625 95.1055 13.0488V13.0625C95.1055 13.4863 95.1738 13.86 95.3105 14.1836C95.4518 14.5072 95.6523 14.7601 95.9121 14.9424C96.1764 15.1201 96.4954 15.209 96.8691 15.209Z" fill="#292A2E"/>
<path d="M87.4492 17.123C86.9753 17.123 86.5514 17.0319 86.1777 16.8496C85.8086 16.6628 85.5192 16.4007 85.3096 16.0635C85.0999 15.7262 84.9951 15.3298 84.9951 14.874V14.8604C84.9951 14.4092 85.1068 14.0241 85.3301 13.7051C85.5534 13.3815 85.8792 13.1286 86.3076 12.9463C86.736 12.764 87.2578 12.6546 87.873 12.6182L90.6621 12.4473V13.623L88.1465 13.7871C87.6999 13.8145 87.3672 13.9102 87.1484 14.0742C86.9342 14.2383 86.8271 14.4639 86.8271 14.751V14.7646C86.8271 15.0654 86.9411 15.3024 87.1689 15.4756C87.3968 15.6442 87.6908 15.7285 88.0508 15.7285C88.3743 15.7285 88.6615 15.6647 88.9121 15.5371C89.1673 15.4049 89.3678 15.2295 89.5137 15.0107C89.6641 14.7874 89.7393 14.5368 89.7393 14.2588V11.8799C89.7393 11.529 89.6253 11.2601 89.3975 11.0732C89.1742 10.8864 88.846 10.793 88.4131 10.793C88.0394 10.793 87.7341 10.8568 87.4971 10.9844C87.2646 11.112 87.1074 11.2943 87.0254 11.5312L87.0186 11.5518H85.2754L85.2822 11.4902C85.3369 11.0573 85.5033 10.6813 85.7812 10.3623C86.0592 10.0387 86.4307 9.78809 86.8955 9.61035C87.3604 9.43262 87.8981 9.34375 88.5088 9.34375C89.165 9.34375 89.721 9.44401 90.1768 9.64453C90.637 9.84505 90.9857 10.1344 91.2227 10.5127C91.4642 10.891 91.585 11.3467 91.585 11.8799V17H89.7393V15.9883H89.6162C89.4886 16.2253 89.3154 16.4281 89.0967 16.5967C88.8825 16.7653 88.6364 16.8952 88.3584 16.9863C88.0804 17.0775 87.7773 17.123 87.4492 17.123Z" fill="#292A2E"/>
<path d="M76.4229 19.4883V9.50098H78.2891V10.6631H78.4121C78.5443 10.3942 78.7197 10.1641 78.9385 9.97266C79.1572 9.78125 79.4124 9.63542 79.7041 9.53516C79.9958 9.43034 80.3171 9.37793 80.668 9.37793C81.2969 9.37793 81.8392 9.53516 82.2949 9.84961C82.7552 10.1641 83.1084 10.6107 83.3545 11.1895C83.6051 11.7637 83.7305 12.4473 83.7305 13.2402V13.2539C83.7305 14.056 83.6074 14.7464 83.3613 15.3252C83.1152 15.8994 82.762 16.3438 82.3018 16.6582C81.846 16.9681 81.3014 17.123 80.668 17.123C80.3262 17.123 80.0072 17.0706 79.7109 16.9658C79.4193 16.8564 79.1618 16.7038 78.9385 16.5078C78.7152 16.3118 78.5397 16.0771 78.4121 15.8037H78.2891V19.4883H76.4229ZM80.0527 15.5645C80.4219 15.5645 80.7386 15.471 81.0029 15.2842C81.2673 15.0973 81.4701 14.833 81.6113 14.4912C81.7572 14.1449 81.8301 13.7324 81.8301 13.2539V13.2402C81.8301 12.7617 81.7572 12.3516 81.6113 12.0098C81.4701 11.6634 81.2673 11.3991 81.0029 11.2168C80.7386 11.0299 80.4219 10.9365 80.0527 10.9365C79.6882 10.9365 79.3714 11.0299 79.1025 11.2168C78.8337 11.3991 78.6263 11.6634 78.4805 12.0098C78.3392 12.3516 78.2686 12.7617 78.2686 13.2402V13.2539C78.2686 13.7279 78.3415 14.138 78.4873 14.4844C78.6331 14.8307 78.8382 15.0973 79.1025 15.2842C79.3714 15.471 79.6882 15.5645 80.0527 15.5645Z" fill="#292A2E"/>
<path d="M71.501 17.1572C70.8447 17.1572 70.2796 17.0638 69.8057 16.877C69.3363 16.6901 68.9671 16.4349 68.6982 16.1113C68.4294 15.7832 68.2721 15.4049 68.2266 14.9766L68.2197 14.9561H70.0654L70.0723 14.9766C70.1589 15.2181 70.3206 15.4186 70.5576 15.5781C70.7992 15.7331 71.1227 15.8105 71.5283 15.8105C71.7972 15.8105 72.0319 15.7741 72.2324 15.7012C72.4329 15.6237 72.5902 15.5212 72.7041 15.3936C72.818 15.2614 72.875 15.1087 72.875 14.9355V14.9219C72.875 14.7122 72.7907 14.5391 72.6221 14.4023C72.4534 14.2611 72.1709 14.1471 71.7744 14.0605L70.5371 13.7939C70.0632 13.6891 69.6689 13.541 69.3545 13.3496C69.04 13.1582 68.8053 12.9235 68.6504 12.6455C68.4954 12.3675 68.418 12.0439 68.418 11.6748V11.668C68.418 11.2031 68.5456 10.7975 68.8008 10.4512C69.0605 10.1003 69.4206 9.8291 69.8809 9.6377C70.3457 9.44173 70.8812 9.34375 71.4873 9.34375C72.1253 9.34375 72.6676 9.43945 73.1143 9.63086C73.5654 9.82227 73.9141 10.082 74.1602 10.4102C74.4108 10.7337 74.5521 11.0983 74.584 11.5039V11.5244H72.834V11.4971C72.7747 11.2783 72.6312 11.0892 72.4033 10.9297C72.1755 10.7656 71.8701 10.6836 71.4873 10.6836C71.2458 10.6836 71.0316 10.7201 70.8447 10.793C70.6624 10.8659 70.5166 10.9661 70.4072 11.0938C70.3024 11.2214 70.25 11.374 70.25 11.5518V11.5654C70.25 11.7021 70.2842 11.8229 70.3525 11.9277C70.4255 12.028 70.5417 12.1169 70.7012 12.1943C70.8607 12.2718 71.0726 12.3424 71.3369 12.4062L72.5674 12.6729C73.3102 12.8369 73.8594 13.083 74.2148 13.4111C74.5703 13.7347 74.748 14.1722 74.748 14.7236V14.7305C74.748 15.2181 74.6091 15.6442 74.3311 16.0088C74.0531 16.3734 73.6702 16.6559 73.1826 16.8564C72.695 17.057 72.1344 17.1572 71.501 17.1572Z" fill="#292A2E"/>
<path d="M62.3887 17.1572C61.8281 17.1572 61.3564 17.0479 60.9736 16.8291C60.5954 16.6104 60.3105 16.2913 60.1191 15.8721C59.9323 15.4528 59.8389 14.9447 59.8389 14.3477V9.50098H61.7051V13.9238C61.7051 14.4753 61.8145 14.8923 62.0332 15.1748C62.252 15.4574 62.6074 15.5986 63.0996 15.5986C63.3548 15.5986 63.5804 15.5576 63.7764 15.4756C63.9769 15.389 64.1455 15.2705 64.2822 15.1201C64.4189 14.9697 64.5192 14.7874 64.583 14.5732C64.6514 14.359 64.6855 14.1175 64.6855 13.8486V9.50098H66.5586V17H64.6855V15.8516H64.5693C64.4554 16.1204 64.2959 16.3529 64.0908 16.5488C63.8857 16.7448 63.6396 16.8952 63.3525 17C63.0654 17.1048 62.7441 17.1572 62.3887 17.1572Z" fill="#292A2E"/>
<path d="M57.2754 17.0342C56.3867 17.0342 55.7464 16.8747 55.3545 16.5557C54.9626 16.2367 54.7666 15.7148 54.7666 14.9902V10.9229H53.6045V9.50098H54.7666V7.68262H56.6602V9.50098H58.2256V10.9229H56.6602V14.5527C56.6602 14.9082 56.7376 15.168 56.8926 15.332C57.0475 15.4915 57.2982 15.5713 57.6445 15.5713C57.7676 15.5713 57.8701 15.569 57.9521 15.5645C58.0342 15.5553 58.1253 15.5462 58.2256 15.5371V16.9521C58.1025 16.9704 57.959 16.9886 57.7949 17.0068C57.6309 17.0251 57.4577 17.0342 57.2754 17.0342Z" fill="#292A2E"/>
<path d="M48.1016 17.123C47.6276 17.123 47.2038 17.0319 46.8301 16.8496C46.4609 16.6628 46.1715 16.4007 45.9619 16.0635C45.7523 15.7262 45.6475 15.3298 45.6475 14.874V14.8604C45.6475 14.4092 45.7591 14.0241 45.9824 13.7051C46.2057 13.3815 46.5316 13.1286 46.96 12.9463C47.3883 12.764 47.9102 12.6546 48.5254 12.6182L51.3145 12.4473V13.623L48.7988 13.7871C48.3522 13.8145 48.0195 13.9102 47.8008 14.0742C47.5866 14.2383 47.4795 14.4639 47.4795 14.751V14.7646C47.4795 15.0654 47.5934 15.3024 47.8213 15.4756C48.0492 15.6442 48.3431 15.7285 48.7031 15.7285C49.0267 15.7285 49.3138 15.6647 49.5645 15.5371C49.8197 15.4049 50.0202 15.2295 50.166 15.0107C50.3164 14.7874 50.3916 14.5368 50.3916 14.2588V11.8799C50.3916 11.529 50.2777 11.2601 50.0498 11.0732C49.8265 10.8864 49.4984 10.793 49.0654 10.793C48.6917 10.793 48.3864 10.8568 48.1494 10.9844C47.917 11.112 47.7598 11.2943 47.6777 11.5312L47.6709 11.5518H45.9277L45.9346 11.4902C45.9893 11.0573 46.1556 10.6813 46.4336 10.3623C46.7116 10.0387 47.083 9.78809 47.5479 9.61035C48.0127 9.43262 48.5505 9.34375 49.1611 9.34375C49.8174 9.34375 50.3734 9.44401 50.8291 9.64453C51.2894 9.84505 51.638 10.1344 51.875 10.5127C52.1165 10.891 52.2373 11.3467 52.2373 11.8799V17H50.3916V15.9883H50.2686C50.141 16.2253 49.9678 16.4281 49.749 16.5967C49.5348 16.7653 49.2887 16.8952 49.0107 16.9863C48.7327 17.0775 48.4297 17.123 48.1016 17.123Z" fill="#292A2E"/>
<path d="M43.4258 17.0342C42.5371 17.0342 41.8968 16.8747 41.5049 16.5557C41.113 16.2367 40.917 15.7148 40.917 14.9902V10.9229H39.7549V9.50098H40.917V7.68262H42.8105V9.50098H44.376V10.9229H42.8105V14.5527C42.8105 14.9082 42.888 15.168 43.043 15.332C43.1979 15.4915 43.4486 15.5713 43.7949 15.5713C43.918 15.5713 44.0205 15.569 44.1025 15.5645C44.1846 15.5553 44.2757 15.5462 44.376 15.5371V16.9521C44.2529 16.9704 44.1094 16.9886 43.9453 17.0068C43.7812 17.0251 43.6081 17.0342 43.4258 17.0342Z" fill="#292A2E"/>
<path d="M34.6895 17.2529C33.9102 17.2529 33.2334 17.1344 32.6592 16.8975C32.0895 16.6605 31.6406 16.3278 31.3125 15.8994C30.9889 15.471 30.8044 14.9697 30.7588 14.3955L30.752 14.293H32.625L32.6318 14.3613C32.6637 14.6165 32.7686 14.8421 32.9463 15.0381C33.1286 15.234 33.3724 15.3867 33.6777 15.4961C33.9876 15.6009 34.3431 15.6533 34.7441 15.6533C35.1224 15.6533 35.4551 15.5964 35.7422 15.4824C36.0339 15.3685 36.2617 15.209 36.4258 15.0039C36.5898 14.7988 36.6719 14.5664 36.6719 14.3066V14.2998C36.6719 13.9626 36.5374 13.6891 36.2686 13.4795C35.9997 13.2699 35.5553 13.1012 34.9355 12.9736L33.8828 12.7549C32.8665 12.5452 32.126 12.2035 31.6611 11.7295C31.1963 11.251 30.9639 10.6403 30.9639 9.89746V9.89062C30.9684 9.28906 31.1279 8.7627 31.4424 8.31152C31.7614 7.86035 32.1989 7.50944 32.7549 7.25879C33.3154 7.00814 33.958 6.88281 34.6826 6.88281C35.43 6.88281 36.0749 7.00814 36.6172 7.25879C37.1595 7.50488 37.5833 7.84212 37.8887 8.27051C38.1986 8.69434 38.374 9.17741 38.415 9.71973L38.4219 9.80176H36.5898L36.5762 9.71973C36.5352 9.47363 36.4326 9.25944 36.2686 9.07715C36.109 8.8903 35.8926 8.74447 35.6191 8.63965C35.3503 8.53027 35.0358 8.47786 34.6758 8.48242C34.3249 8.48242 34.0173 8.53483 33.7529 8.63965C33.4886 8.73991 33.2812 8.88574 33.1309 9.07715C32.9805 9.264 32.9053 9.48958 32.9053 9.75391V9.76074C32.9053 10.0889 33.0352 10.36 33.2949 10.5742C33.5592 10.7884 33.9899 10.9548 34.5869 11.0732L35.6328 11.2988C36.3301 11.4401 36.8975 11.6315 37.335 11.873C37.7725 12.1146 38.0938 12.4176 38.2988 12.7822C38.5085 13.1423 38.6133 13.5752 38.6133 14.0811V14.0879C38.6133 14.735 38.4538 15.2956 38.1348 15.7695C37.8158 16.2389 37.3623 16.6035 36.7744 16.8633C36.1911 17.123 35.4961 17.2529 34.6895 17.2529Z" fill="#292A2E"/>
</svg>
