<svg width="75" height="24" viewBox="0 0 75 24" fill="none" xmlns="http://www.w3.org/2000/svg">
<path d="M0 6C0 2.68629 2.68629 0 6 0H18C21.3137 0 24 2.68629 24 6V18C24 21.3137 21.3137 24 18 24H6C2.68629 24 0 21.3137 0 18V6Z" fill="#DDDEE1"/>
<path d="M10.594 10.5938V18.5625H18.5627V10.5938H10.594Z" fill="#101214"/>
<path d="M14.8127 7.19531L10.1252 4.5L5.43774 7.19531V12.5859L9.18774 14.7422V9.1875H14.8127V7.19531Z" fill="#101214"/>
<path d="M69.6484 17.1504C68.8919 17.1504 68.2357 16.9863 67.6797 16.6582C67.1283 16.3301 66.7021 15.8698 66.4014 15.2773C66.1006 14.6849 65.9502 13.9967 65.9502 13.2129C65.9502 12.4245 66.1006 11.734 66.4014 11.1416C66.7021 10.5446 67.1283 10.082 67.6797 9.75391C68.2357 9.42578 68.8919 9.26172 69.6484 9.26172C70.4049 9.26172 71.0589 9.42578 71.6104 9.75391C72.1663 10.082 72.5947 10.5446 72.8955 11.1416C73.1963 11.734 73.3467 12.4245 73.3467 13.2129C73.3467 13.9967 73.1963 14.6849 72.8955 15.2773C72.5947 15.8698 72.1663 16.3301 71.6104 16.6582C71.0589 16.9863 70.4049 17.1504 69.6484 17.1504ZM69.6484 15.6191C70.0358 15.6191 70.3594 15.5143 70.6191 15.3047C70.8789 15.0905 71.0726 14.8011 71.2002 14.4365C71.3278 14.0719 71.3916 13.6618 71.3916 13.2061C71.3916 12.7503 71.3278 12.3402 71.2002 11.9756C71.0726 11.611 70.8789 11.3239 70.6191 11.1143C70.3594 10.9001 70.0358 10.793 69.6484 10.793C69.2611 10.793 68.9375 10.9001 68.6777 11.1143C68.4225 11.3239 68.2288 11.611 68.0967 11.9756C67.9691 12.3356 67.9053 12.7458 67.9053 13.2061C67.9053 13.6618 67.9691 14.0719 68.0967 14.4365C68.2288 14.8011 68.4225 15.0905 68.6777 15.3047C68.9375 15.5143 69.2611 15.6191 69.6484 15.6191Z" fill="#292A2E"/>
<path d="M62.5391 17V9.35742H64.4668V17H62.5391ZM62.5186 8.27051V6.51367H64.501V8.27051H62.5186Z" fill="#292A2E"/>
<path d="M56.5576 17.1299C55.9652 17.1299 55.432 16.9772 54.958 16.6719C54.484 16.3665 54.1104 15.9222 53.8369 15.3389C53.5635 14.751 53.4268 14.0355 53.4268 13.1924C53.4268 12.3311 53.5658 11.6087 53.8438 11.0254C54.1263 10.4421 54.5046 10.0023 54.9785 9.70605C55.4525 9.40983 55.9766 9.26172 56.5508 9.26172C56.9928 9.26172 57.3574 9.33691 57.6445 9.4873C57.9316 9.63314 58.1618 9.81315 58.335 10.0273C58.5127 10.237 58.6449 10.4398 58.7314 10.6357H58.7998V6.81445H60.7207V17H58.834V15.7832H58.7314C58.6403 15.9792 58.5059 16.182 58.3281 16.3916C58.1504 16.5967 57.918 16.7721 57.6309 16.918C57.3438 17.0592 56.986 17.1299 56.5576 17.1299ZM57.1182 15.5781C57.4873 15.5781 57.7995 15.4779 58.0547 15.2773C58.3099 15.0768 58.5036 14.7965 58.6357 14.4365C58.7725 14.0765 58.8408 13.6595 58.8408 13.1855C58.8408 12.707 58.7747 12.2923 58.6426 11.9414C58.5104 11.5859 58.3145 11.3102 58.0547 11.1143C57.7995 10.9183 57.4873 10.8203 57.1182 10.8203C56.7399 10.8203 56.4232 10.9229 56.168 11.1279C55.9128 11.3285 55.7191 11.6064 55.5869 11.9619C55.4593 12.3174 55.3955 12.7253 55.3955 13.1855C55.3955 13.6458 55.4593 14.056 55.5869 14.416C55.7191 14.776 55.9128 15.0609 56.168 15.2705C56.4277 15.4756 56.7445 15.5781 57.1182 15.5781Z" fill="#292A2E"/>
<path d="M47.7256 17.0957C47.1969 17.0957 46.7344 16.9818 46.3379 16.7539C45.946 16.526 45.6406 16.1979 45.4219 15.7695C45.2031 15.3366 45.0938 14.8193 45.0938 14.2178V9.35742H47.0215V13.8965C47.0215 14.3932 47.1491 14.7806 47.4043 15.0586C47.6595 15.3366 48.0104 15.4756 48.457 15.4756C48.7624 15.4756 49.0312 15.4118 49.2637 15.2842C49.4961 15.152 49.6784 14.9606 49.8105 14.71C49.9427 14.4593 50.0088 14.1585 50.0088 13.8076V9.35742H51.9365V17H50.1113L50.0908 15.0996H50.2139C50.0088 15.7559 49.6989 16.2526 49.2842 16.5898C48.8695 16.9271 48.3499 17.0957 47.7256 17.0957Z" fill="#292A2E"/>
<path d="M43.7266 9.35742V10.8408H39.2832V9.35742H43.7266ZM40.3496 7.53906H42.2705V14.8057C42.2705 15.0609 42.3275 15.25 42.4414 15.373C42.5553 15.4961 42.7422 15.5576 43.002 15.5576C43.0794 15.5576 43.1865 15.5485 43.3232 15.5303C43.46 15.5075 43.5671 15.487 43.6445 15.4688L43.9316 16.9316C43.722 16.9954 43.5101 17.0387 43.2959 17.0615C43.0817 17.0889 42.8743 17.1025 42.6738 17.1025C41.9219 17.1025 41.3454 16.9202 40.9443 16.5557C40.5479 16.1865 40.3496 15.6579 40.3496 14.9697V7.53906Z" fill="#292A2E"/>
<path d="M34.6279 17.1504C33.8258 17.1504 33.1286 17.0273 32.5361 16.7812C31.9437 16.5306 31.4811 16.166 31.1484 15.6875C30.8158 15.2044 30.638 14.6143 30.6152 13.917H32.5361C32.5635 14.2679 32.6683 14.5596 32.8506 14.792C33.0374 15.0244 33.2835 15.1999 33.5889 15.3184C33.8942 15.4323 34.236 15.4893 34.6143 15.4893C34.9971 15.4893 35.3343 15.4323 35.626 15.3184C35.9176 15.1999 36.1455 15.0381 36.3096 14.833C36.4736 14.6234 36.5557 14.3818 36.5557 14.1084C36.5557 13.8577 36.4827 13.6504 36.3369 13.4863C36.1911 13.3223 35.9837 13.1833 35.7148 13.0693C35.4505 12.9508 35.1315 12.8483 34.7578 12.7617L33.623 12.4678C32.7663 12.2536 32.0964 11.9232 31.6133 11.4766C31.1302 11.0299 30.8887 10.4421 30.8887 9.71289C30.8887 9.10677 31.0527 8.57585 31.3809 8.12012C31.709 7.66439 32.1579 7.3112 32.7275 7.06055C33.2972 6.80534 33.9443 6.67773 34.6689 6.67773C35.4072 6.67773 36.0521 6.80534 36.6035 7.06055C37.1595 7.31576 37.5924 7.66895 37.9023 8.12012C38.2168 8.56673 38.3786 9.08171 38.3877 9.66504H36.4873C36.4463 9.24121 36.2617 8.91536 35.9336 8.6875C35.61 8.45508 35.1794 8.33887 34.6416 8.33887C34.277 8.33887 33.9626 8.39355 33.6982 8.50293C33.4385 8.60775 33.238 8.75586 33.0967 8.94727C32.96 9.13411 32.8916 9.34831 32.8916 9.58984C32.8916 9.85872 32.9714 10.0798 33.1309 10.2529C33.2949 10.4261 33.5046 10.5651 33.7598 10.6699C34.0195 10.7747 34.2884 10.8613 34.5664 10.9297L35.5029 11.1621C35.9085 11.2578 36.2913 11.3854 36.6514 11.5449C37.016 11.7044 37.3395 11.9027 37.6221 12.1396C37.9046 12.3721 38.1257 12.6523 38.2852 12.9805C38.4447 13.304 38.5244 13.6846 38.5244 14.1221C38.5244 14.7282 38.3695 15.2591 38.0596 15.7148C37.7542 16.1706 37.3099 16.5238 36.7266 16.7744C36.1478 17.0251 35.4482 17.1504 34.6279 17.1504Z" fill="#292A2E"/>
</svg>
