<svg width="74" height="24" viewBox="0 0 74 24" fill="none" xmlns="http://www.w3.org/2000/svg">
<path d="M0 6C0 2.68629 2.68629 0 6 0H18C21.3137 0 24 2.68629 24 6V18C24 21.3137 21.3137 24 18 24H6C2.68629 24 0 21.3137 0 18V6Z" fill="#FB9700"/>
<path d="M14.8677 8.34375C14.8677 9.91431 13.5838 11.1875 12 11.1875C10.4163 11.1875 9.1324 9.91431 9.1324 8.34375C9.1324 6.77319 10.4163 5.5 12 5.5C13.5838 5.5 14.8677 6.77319 14.8677 8.34375Z" fill="#101214"/>
<path d="M8.17651 16.401C8.17651 14.307 9.88837 12.6094 12 12.6094C14.1117 12.6094 15.8236 14.307 15.8236 16.401V18.5H8.17651V16.401Z" fill="#101214"/>
<path d="M72.5195 9.35742V10.8408H68.0762V9.35742H72.5195ZM69.1426 7.53906H71.0635V14.8057C71.0635 15.0609 71.1204 15.25 71.2344 15.373C71.3483 15.4961 71.5352 15.5576 71.7949 15.5576C71.8724 15.5576 71.9795 15.5485 72.1162 15.5303C72.2529 15.5075 72.36 15.487 72.4375 15.4688L72.7246 16.9316C72.515 16.9954 72.3031 17.0387 72.0889 17.0615C71.8747 17.0889 71.6673 17.1025 71.4668 17.1025C70.7148 17.1025 70.1383 16.9202 69.7373 16.5557C69.3408 16.1865 69.1426 15.6579 69.1426 14.9697V7.53906Z" fill="#292A2E"/>
<path d="M62.1152 12.5498V17H60.1875V9.35742H62.0059L62.04 11.2578H61.9102C62.1152 10.6107 62.4229 10.1162 62.833 9.77441C63.2432 9.43262 63.7673 9.26172 64.4053 9.26172C64.9294 9.26172 65.3874 9.37565 65.7793 9.60352C66.1758 9.83138 66.4811 10.1595 66.6953 10.5879C66.9141 11.0163 67.0234 11.5335 67.0234 12.1396V17H65.1025V12.4609C65.1025 11.9642 64.9749 11.5768 64.7197 11.2988C64.4645 11.0208 64.1136 10.8818 63.667 10.8818C63.3662 10.8818 63.0973 10.9479 62.8604 11.0801C62.6279 11.2077 62.4456 11.3968 62.3135 11.6475C62.1813 11.8936 62.1152 12.1943 62.1152 12.5498Z" fill="#292A2E"/>
<path d="M55.2998 17.1504C54.5251 17.1504 53.8574 16.9909 53.2969 16.6719C52.7363 16.3483 52.3057 15.8926 52.0049 15.3047C51.7041 14.7168 51.5537 14.0218 51.5537 13.2197C51.5537 12.4359 51.7018 11.7477 51.998 11.1553C52.2988 10.5583 52.7204 10.0934 53.2627 9.76074C53.8096 9.42806 54.4521 9.26172 55.1904 9.26172C55.6735 9.26172 56.127 9.33919 56.5508 9.49414C56.9792 9.64909 57.3574 9.88607 57.6855 10.2051C58.0137 10.5195 58.2689 10.9206 58.4512 11.4082C58.638 11.8913 58.7314 12.4655 58.7314 13.1309V13.6982H52.3945V12.4473H57.7881L56.8857 12.7959C56.8857 12.3812 56.8219 12.0212 56.6943 11.7158C56.5667 11.4059 56.3776 11.1667 56.127 10.998C55.8809 10.8249 55.571 10.7383 55.1973 10.7383C54.8281 10.7383 54.5137 10.8249 54.2539 10.998C53.9941 11.1712 53.7959 11.4059 53.6592 11.7021C53.5225 11.9938 53.4541 12.3219 53.4541 12.6865V13.5615C53.4541 14.0218 53.5316 14.4115 53.6865 14.7305C53.846 15.0449 54.0648 15.2819 54.3428 15.4414C54.6253 15.6009 54.9535 15.6807 55.3271 15.6807C55.5732 15.6807 55.7988 15.6442 56.0039 15.5713C56.209 15.4984 56.3844 15.3936 56.5303 15.2568C56.6761 15.1156 56.7878 14.9424 56.8652 14.7373L58.6152 15.0791C58.4922 15.4938 58.2803 15.8584 57.9795 16.1729C57.6787 16.4827 57.3005 16.7243 56.8447 16.8975C56.3936 17.0661 55.8786 17.1504 55.2998 17.1504Z" fill="#292A2E"/>
<path d="M50.084 17.0479C49.3366 17.0479 48.7852 16.8815 48.4297 16.5488C48.0742 16.2161 47.8965 15.7194 47.8965 15.0586V6.81445H49.8242V14.7783C49.8242 15.0381 49.8652 15.2272 49.9473 15.3457C50.0339 15.4596 50.1842 15.5166 50.3984 15.5166C50.5124 15.5166 50.599 15.512 50.6582 15.5029C50.722 15.4938 50.7767 15.4824 50.8223 15.4688L51.1367 16.8906C51.0273 16.9271 50.8792 16.9635 50.6924 17C50.5101 17.0319 50.3073 17.0479 50.084 17.0479Z" fill="#292A2E"/>
<path d="M41.9082 17.1299C41.3203 17.1299 40.7894 16.9772 40.3154 16.6719C39.846 16.3665 39.4723 15.9222 39.1943 15.3389C38.9209 14.751 38.7842 14.0355 38.7842 13.1924C38.7842 12.3311 38.9255 11.6087 39.208 11.0254C39.4906 10.4421 39.8688 10.0023 40.3428 9.70605C40.8167 9.40983 41.3431 9.26172 41.9219 9.26172C42.3594 9.26172 42.7217 9.33691 43.0088 9.4873C43.2959 9.63314 43.526 9.81315 43.6992 10.0273C43.8724 10.237 44.0046 10.4398 44.0957 10.6357H44.1709V9.35742H46.0781V17H44.1777V15.7832H44.0957C44.0046 15.9792 43.8678 16.182 43.6855 16.3916C43.5078 16.6012 43.2754 16.7767 42.9883 16.918C42.7012 17.0592 42.3411 17.1299 41.9082 17.1299ZM42.4824 15.5781C42.8516 15.5781 43.1637 15.4779 43.4189 15.2773C43.6742 15.0768 43.8678 14.7965 44 14.4365C44.1367 14.0765 44.2051 13.6595 44.2051 13.1855C44.2051 12.707 44.139 12.2923 44.0068 11.9414C43.8747 11.5859 43.681 11.3102 43.4258 11.1143C43.1706 10.9183 42.8561 10.8203 42.4824 10.8203C42.1042 10.8203 41.7852 10.9206 41.5254 11.1211C41.2702 11.3216 41.0765 11.5996 40.9443 11.9551C40.8167 12.3105 40.7529 12.7207 40.7529 13.1855C40.7529 13.6458 40.819 14.056 40.9512 14.416C41.0833 14.776 41.277 15.0609 41.5322 15.2705C41.792 15.4756 42.1087 15.5781 42.4824 15.5781Z" fill="#292A2E"/>
<path d="M30.54 8.45508V6.81445H38.7568V8.45508H35.6328V17H33.6709V8.45508H30.54Z" fill="#292A2E"/>
</svg>
