<svg width="76" height="24" viewBox="0 0 76 24" fill="none" xmlns="http://www.w3.org/2000/svg">
<path d="M0 6C0 2.68629 2.68629 0 6 0H18C21.3137 0 24 2.68629 24 6V18C24 21.3137 21.3137 24 18 24H6C2.68629 24 0 21.3137 0 18V6Z" fill="#DDDEE1"/>
<path d="M8.0625 11.25C9.51225 11.25 10.6875 10.0747 10.6875 8.625C10.6875 7.17525 9.51225 6 8.0625 6C6.61275 6 5.4375 7.17525 5.4375 8.625C5.4375 10.0747 6.61275 11.25 8.0625 11.25Z" fill="#101214"/>
<path d="M15.9375 11.25C17.3872 11.25 18.5625 10.0747 18.5625 8.625C18.5625 7.17525 17.3872 6 15.9375 6C14.4878 6 13.3125 7.17525 13.3125 8.625C13.3125 10.0747 14.4878 11.25 15.9375 11.25Z" fill="#101214"/>
<path d="M16.1057 12.5625C17.7042 12.5625 19 13.8583 19 15.4568V18H11.7812L13.4401 14.3291C13.8931 13.2583 14.943 12.5625 16.1057 12.5625Z" fill="#101214"/>
<path d="M5 15.625L5 18H9.8125L11.125 15.1875C11.125 13.7377 9.94975 12.5625 8.5 12.5625H8.0625C6.37113 12.5625 5 13.9336 5 15.625Z" fill="#101214"/>
<path d="M71.8838 17.1504C71.2822 17.1504 70.749 17.0661 70.2842 16.8975C69.8193 16.7243 69.4388 16.4736 69.1426 16.1455C68.8509 15.8128 68.6595 15.4141 68.5684 14.9492L70.3662 14.6279C70.4665 14.9925 70.6465 15.266 70.9062 15.4482C71.166 15.626 71.5078 15.7148 71.9316 15.7148C72.3418 15.7148 72.6676 15.6351 72.9092 15.4756C73.1507 15.3115 73.2715 15.1087 73.2715 14.8672C73.2715 14.6576 73.1895 14.4867 73.0254 14.3545C72.8613 14.2178 72.6084 14.113 72.2666 14.04L70.9541 13.7666C70.2249 13.6117 69.6803 13.3564 69.3203 13.001C68.9603 12.641 68.7803 12.1761 68.7803 11.6064C68.7803 11.1279 68.9124 10.7132 69.1768 10.3623C69.4411 10.0114 69.8079 9.74023 70.2773 9.54883C70.7513 9.35742 71.3005 9.26172 71.9248 9.26172C72.5173 9.26172 73.0277 9.34603 73.4561 9.51465C73.889 9.67871 74.2376 9.91113 74.502 10.2119C74.7708 10.5081 74.9531 10.8613 75.0488 11.2715L73.3398 11.5859C73.2578 11.3216 73.1029 11.1029 72.875 10.9297C72.6517 10.752 72.3441 10.6631 71.9521 10.6631C71.5967 10.6631 71.2982 10.7406 71.0566 10.8955C70.8197 11.0459 70.7012 11.2441 70.7012 11.4902C70.7012 11.6999 70.7786 11.873 70.9336 12.0098C71.0931 12.1465 71.3597 12.2559 71.7334 12.3379L73.0732 12.6113C73.8024 12.7617 74.3447 13.0078 74.7002 13.3496C75.0602 13.6914 75.2402 14.1335 75.2402 14.6758C75.2402 15.168 75.0967 15.6009 74.8096 15.9746C74.5225 16.3438 74.126 16.6331 73.6201 16.8428C73.1188 17.0479 72.54 17.1504 71.8838 17.1504Z" fill="#292A2E"/>
<path d="M56.209 17V9.35742H58.0068L58.0889 11.2305H57.9521C58.0661 10.7656 58.237 10.3874 58.4648 10.0957C58.6973 9.80404 58.9684 9.58984 59.2783 9.45312C59.5882 9.31185 59.9118 9.24121 60.249 9.24121C60.8005 9.24121 61.2448 9.41439 61.582 9.76074C61.9193 10.1071 62.1631 10.6312 62.3135 11.333H62.0879C62.1973 10.859 62.3796 10.4671 62.6348 10.1572C62.8945 9.84733 63.1976 9.61719 63.5439 9.4668C63.8949 9.31641 64.2686 9.24121 64.665 9.24121C65.1253 9.24121 65.5378 9.34147 65.9023 9.54199C66.2715 9.74251 66.5609 10.0365 66.7705 10.4238C66.9847 10.8112 67.0918 11.2852 67.0918 11.8457V17H65.1709V12.1807C65.1709 11.7295 65.0479 11.3968 64.8018 11.1826C64.5557 10.9684 64.2572 10.8613 63.9062 10.8613C63.6374 10.8613 63.4027 10.9206 63.2021 11.0391C63.0062 11.153 62.8535 11.3148 62.7441 11.5244C62.6393 11.734 62.5869 11.9779 62.5869 12.2559V17H60.7207V12.1123C60.7207 11.7295 60.6045 11.4264 60.3721 11.2031C60.1442 10.9753 59.848 10.8613 59.4834 10.8613C59.2327 10.8613 59.0049 10.9183 58.7998 11.0322C58.5947 11.1462 58.4329 11.3148 58.3145 11.5381C58.196 11.7568 58.1367 12.028 58.1367 12.3516V17H56.209Z" fill="#292A2E"/>
<path d="M50.2207 17.1299C49.6328 17.1299 49.1019 16.9772 48.6279 16.6719C48.1585 16.3665 47.7848 15.9222 47.5068 15.3389C47.2334 14.751 47.0967 14.0355 47.0967 13.1924C47.0967 12.3311 47.238 11.6087 47.5205 11.0254C47.8031 10.4421 48.1813 10.0023 48.6553 9.70605C49.1292 9.40983 49.6556 9.26172 50.2344 9.26172C50.6719 9.26172 51.0342 9.33691 51.3213 9.4873C51.6084 9.63314 51.8385 9.81315 52.0117 10.0273C52.1849 10.237 52.3171 10.4398 52.4082 10.6357H52.4834V9.35742H54.3906V17H52.4902V15.7832H52.4082C52.3171 15.9792 52.1803 16.182 51.998 16.3916C51.8203 16.6012 51.5879 16.7767 51.3008 16.918C51.0137 17.0592 50.6536 17.1299 50.2207 17.1299ZM50.7949 15.5781C51.1641 15.5781 51.4762 15.4779 51.7314 15.2773C51.9867 15.0768 52.1803 14.7965 52.3125 14.4365C52.4492 14.0765 52.5176 13.6595 52.5176 13.1855C52.5176 12.707 52.4515 12.2923 52.3193 11.9414C52.1872 11.5859 51.9935 11.3102 51.7383 11.1143C51.4831 10.9183 51.1686 10.8203 50.7949 10.8203C50.4167 10.8203 50.0977 10.9206 49.8379 11.1211C49.5827 11.3216 49.389 11.5996 49.2568 11.9551C49.1292 12.3105 49.0654 12.7207 49.0654 13.1855C49.0654 13.6458 49.1315 14.056 49.2637 14.416C49.3958 14.776 49.5895 15.0609 49.8447 15.2705C50.1045 15.4756 50.4212 15.5781 50.7949 15.5781Z" fill="#292A2E"/>
<path d="M42.5303 17.1504C41.7555 17.1504 41.0879 16.9909 40.5273 16.6719C39.9668 16.3483 39.5361 15.8926 39.2354 15.3047C38.9346 14.7168 38.7842 14.0218 38.7842 13.2197C38.7842 12.4359 38.9323 11.7477 39.2285 11.1553C39.5293 10.5583 39.9508 10.0934 40.4932 9.76074C41.04 9.42806 41.6826 9.26172 42.4209 9.26172C42.904 9.26172 43.3574 9.33919 43.7812 9.49414C44.2096 9.64909 44.5879 9.88607 44.916 10.2051C45.2441 10.5195 45.4993 10.9206 45.6816 11.4082C45.8685 11.8913 45.9619 12.4655 45.9619 13.1309V13.6982H39.625V12.4473H45.0186L44.1162 12.7959C44.1162 12.3812 44.0524 12.0212 43.9248 11.7158C43.7972 11.4059 43.6081 11.1667 43.3574 10.998C43.1113 10.8249 42.8014 10.7383 42.4277 10.7383C42.0586 10.7383 41.7441 10.8249 41.4844 10.998C41.2246 11.1712 41.0264 11.4059 40.8896 11.7021C40.7529 11.9938 40.6846 12.3219 40.6846 12.6865V13.5615C40.6846 14.0218 40.762 14.4115 40.917 14.7305C41.0765 15.0449 41.2952 15.2819 41.5732 15.4414C41.8558 15.6009 42.1839 15.6807 42.5576 15.6807C42.8037 15.6807 43.0293 15.6442 43.2344 15.5713C43.4395 15.4984 43.6149 15.3936 43.7607 15.2568C43.9066 15.1156 44.0182 14.9424 44.0957 14.7373L45.8457 15.0791C45.7227 15.4938 45.5107 15.8584 45.21 16.1729C44.9092 16.4827 44.5309 16.7243 44.0752 16.8975C43.624 17.0661 43.109 17.1504 42.5303 17.1504Z" fill="#292A2E"/>
<path d="M30.54 8.45508V6.81445H38.7568V8.45508H35.6328V17H33.6709V8.45508H30.54Z" fill="#292A2E"/>
</svg>
