<svg width="69" height="24" viewBox="0 0 69 24" fill="none" xmlns="http://www.w3.org/2000/svg">
<path d="M0 6C0 2.68629 2.68629 0 6 0H18C21.3137 0 24 2.68629 24 6V18C24 21.3137 21.3137 24 18 24H6C2.68629 24 0 21.3137 0 18V6Z" fill="#1558BC"/>
<path d="M9.39055 18.234C9.9138 18.234 10.3384 17.8102 10.3384 17.2862V5.3789C10.3384 4.85566 9.91453 4.43103 9.39055 4.43103H5.37902C4.85578 4.43103 4.43115 4.85492 4.43115 5.3789V17.2862C4.43115 17.8094 4.85505 18.234 5.37902 18.234H9.39055Z" fill="white"/>
<path d="M18.6213 12.7676C19.1445 12.7676 19.5691 12.3437 19.5691 11.8197V5.3789C19.5691 4.85566 19.1452 4.43103 18.6213 4.43103H14.6097C14.0865 4.43103 13.6619 4.85492 13.6619 5.3789V11.8197C13.6619 12.343 14.0858 12.7676 14.6097 12.7676H18.6213Z" fill="white"/>
<path d="M64.6309 17.1504C63.8743 17.1504 63.2181 16.9863 62.6621 16.6582C62.1107 16.3301 61.6846 15.8698 61.3838 15.2773C61.083 14.6849 60.9326 13.9967 60.9326 13.2129C60.9326 12.4245 61.083 11.734 61.3838 11.1416C61.6846 10.5446 62.1107 10.082 62.6621 9.75391C63.2181 9.42578 63.8743 9.26172 64.6309 9.26172C65.3874 9.26172 66.0413 9.42578 66.5928 9.75391C67.1488 10.082 67.5771 10.5446 67.8779 11.1416C68.1787 11.734 68.3291 12.4245 68.3291 13.2129C68.3291 13.9967 68.1787 14.6849 67.8779 15.2773C67.5771 15.8698 67.1488 16.3301 66.5928 16.6582C66.0413 16.9863 65.3874 17.1504 64.6309 17.1504ZM64.6309 15.6191C65.0182 15.6191 65.3418 15.5143 65.6016 15.3047C65.8613 15.0905 66.055 14.8011 66.1826 14.4365C66.3102 14.0719 66.374 13.6618 66.374 13.2061C66.374 12.7503 66.3102 12.3402 66.1826 11.9756C66.055 11.611 65.8613 11.3239 65.6016 11.1143C65.3418 10.9001 65.0182 10.793 64.6309 10.793C64.2435 10.793 63.9199 10.9001 63.6602 11.1143C63.4049 11.3239 63.2113 11.611 63.0791 11.9756C62.9515 12.3356 62.8877 12.7458 62.8877 13.2061C62.8877 13.6618 62.9515 14.0719 63.0791 14.4365C63.2113 14.8011 63.4049 15.0905 63.6602 15.3047C63.9199 15.5143 64.2435 15.6191 64.6309 15.6191Z" fill="#292A2E"/>
<path d="M59.4629 17.0479C58.7155 17.0479 58.1641 16.8815 57.8086 16.5488C57.4531 16.2161 57.2754 15.7194 57.2754 15.0586V6.81445H59.2031V14.7783C59.2031 15.0381 59.2441 15.2272 59.3262 15.3457C59.4128 15.4596 59.5632 15.5166 59.7773 15.5166C59.8913 15.5166 59.9779 15.512 60.0371 15.5029C60.1009 15.4938 60.1556 15.4824 60.2012 15.4688L60.5156 16.8906C60.4062 16.9271 60.2581 16.9635 60.0713 17C59.889 17.0319 59.6862 17.0479 59.4629 17.0479Z" fill="#292A2E"/>
<path d="M55.2109 17.0479C54.4635 17.0479 53.9121 16.8815 53.5566 16.5488C53.2012 16.2161 53.0234 15.7194 53.0234 15.0586V6.81445H54.9512V14.7783C54.9512 15.0381 54.9922 15.2272 55.0742 15.3457C55.1608 15.4596 55.3112 15.5166 55.5254 15.5166C55.6393 15.5166 55.7259 15.512 55.7852 15.5029C55.849 15.4938 55.9036 15.4824 55.9492 15.4688L56.2637 16.8906C56.1543 16.9271 56.0062 16.9635 55.8193 17C55.637 17.0319 55.4342 17.0479 55.2109 17.0479Z" fill="#292A2E"/>
<path d="M48.1357 17.1504C47.361 17.1504 46.6934 16.9909 46.1328 16.6719C45.5723 16.3483 45.1416 15.8926 44.8408 15.3047C44.54 14.7168 44.3896 14.0218 44.3896 13.2197C44.3896 12.4359 44.5378 11.7477 44.834 11.1553C45.1348 10.5583 45.5563 10.0934 46.0986 9.76074C46.6455 9.42806 47.2881 9.26172 48.0264 9.26172C48.5094 9.26172 48.9629 9.33919 49.3867 9.49414C49.8151 9.64909 50.1934 9.88607 50.5215 10.2051C50.8496 10.5195 51.1048 10.9206 51.2871 11.4082C51.474 11.8913 51.5674 12.4655 51.5674 13.1309V13.6982H45.2305V12.4473H50.624L49.7217 12.7959C49.7217 12.3812 49.6579 12.0212 49.5303 11.7158C49.4027 11.4059 49.2135 11.1667 48.9629 10.998C48.7168 10.8249 48.4069 10.7383 48.0332 10.7383C47.6641 10.7383 47.3496 10.8249 47.0898 10.998C46.8301 11.1712 46.6318 11.4059 46.4951 11.7021C46.3584 11.9938 46.29 12.3219 46.29 12.6865V13.5615C46.29 14.0218 46.3675 14.4115 46.5225 14.7305C46.682 15.0449 46.9007 15.2819 47.1787 15.4414C47.4613 15.6009 47.7894 15.6807 48.1631 15.6807C48.4092 15.6807 48.6348 15.6442 48.8398 15.5713C49.0449 15.4984 49.2204 15.3936 49.3662 15.2568C49.512 15.1156 49.6237 14.9424 49.7012 14.7373L51.4512 15.0791C51.3281 15.4938 51.1162 15.8584 50.8154 16.1729C50.5146 16.4827 50.1364 16.7243 49.6807 16.8975C49.2295 17.0661 48.7145 17.1504 48.1357 17.1504Z" fill="#292A2E"/>
<path d="M39.4062 17V9.35742H41.2725V10.6631H41.3545C41.4912 10.2074 41.7282 9.85872 42.0654 9.61719C42.4027 9.37565 42.7878 9.25488 43.2207 9.25488C43.321 9.25488 43.4326 9.26172 43.5557 9.27539C43.6787 9.28451 43.7858 9.29818 43.877 9.31641V11.0527C43.7949 11.0254 43.6673 11.0026 43.4941 10.9844C43.3255 10.9661 43.1637 10.957 43.0088 10.957C42.6898 10.957 42.4027 11.0254 42.1475 11.1621C41.8923 11.2988 41.6917 11.4902 41.5459 11.7363C41.4046 11.9779 41.334 12.2604 41.334 12.584V17H39.4062Z" fill="#292A2E"/>
<path d="M30.54 8.45508V6.81445H38.7568V8.45508H35.6328V17H33.6709V8.45508H30.54Z" fill="#292A2E"/>
</svg>
