<svg xmlns="http://www.w3.org/2000/svg" width="16" height="16" viewBox="0 0 16 16">
  <path fill="#FF5630" fill-rule="evenodd" d="M2,0 L14,0 C15.1045695,-2.02906125e-16 16,0.8954305 16,2 L16,14 C16,15.1045695 15.1045695,16 14,16 L2,16 C0.8954305,16 1.3527075e-16,15.1045695 0,14 L0,2 C-1.3527075e-16,0.8954305 0.8954305,2.02906125e-16 2,0 Z M13,4.19498737 L13,3.44202967 C13,3.17052941 12.7700101,2.97353151 12.4863034,3.00290067 L6.37083953,3.63596971 C6.07874696,3.66620695 5.85714286,3.90956042 5.85714286,4.18145383 L5.85714286,5.27898517 L5.85714286,8.79710822 C5.67608302,8.74322214 5.48427789,8.71428572 5.28571429,8.71428572 L5,8.71428572 C3.8954305,8.71428572 3,9.60971622 3,10.7142857 L3,11 C3,12.1045695 3.8954305,13 5,13 L5.28571429,13 C6.39028378,13 7.28571428,12.1045695 7.28571428,11 L7.28571428,10.7857143 L7.28571428,5.75953492 L11.5714286,5.31588042 L11.5714286,8.0828225 C11.3903687,8.02893643 11.1985636,8 11,8 L10.7142857,8 C9.60971621,8 8.71428571,8.8954305 8.71428571,10 L8.71428571,10.2857143 C8.71428571,11.3902838 9.60971621,12.2857143 10.7142857,12.2857143 L11,12.2857143 C12.1045695,12.2857143 13,11.3902838 13,10.2857143 L13,10.0714286 L13,4.19498737 Z"/>
</svg>
