<svg xmlns="http://www.w3.org/2000/svg" width="24" height="24" viewBox="0 0 24 24">
  <path fill="#FF5630" fill-rule="evenodd" d="M3,0 L21,0 C22.6568542,-3.04359188e-16 24,1.34314575 24,3 L24,21 C24,22.6568542 22.6568542,24 21,24 L3,24 C1.34314575,24 2.02906125e-16,22.6568542 0,21 L0,3 C-2.02906125e-16,1.34314575 1.34314575,3.04359188e-16 3,0 Z M19,6.67298232 L19,5.61884153 C19,5.23874117 18.6780142,4.96294411 18.2808247,5.00406093 L9.71917534,5.89035759 C9.31024575,5.93268972 9,6.27338459 9,6.65403536 L9,8.19057923 L9,13.1159515 C8.74651623,13.040511 8.47798904,13 8.2,13 L7.8,13 C6.2536027,13 5,14.2536027 5,15.8 L5,16.2 C5,17.7463973 6.2536027,19 7.8,19 L8.2,19 C9.7463973,19 11,17.7463973 11,16.2 L11,15.9 L11,8.86334889 L17,8.24223259 L17,12.1159515 C16.7465162,12.040511 16.477989,12 16.2,12 L15.8,12 C14.2536027,12 13,13.2536027 13,14.8 L13,15.2 C13,16.7463973 14.2536027,18 15.8,18 L16.2,18 C17.7463973,18 19,16.7463973 19,15.2 L19,14.9 L19,6.67298232 Z"/>
</svg>
