<svg xmlns="http://www.w3.org/2000/svg" width="48" height="64" viewBox="0 0 48 64">
  <g fill="none" fill-rule="evenodd">
    <path fill="#FFF" stroke="#091E42" stroke-opacity=".08" d="M4,0.5 L32.007097,0.5 C32.9580806,0.5 33.8681235,0.886970896 34.5278649,1.57188773 L46.5207679,14.0224343 C47.1490066,14.6746463 47.5,15.5449725 47.5,16.4505466 L47.5,60 C47.5,61.9329966 45.9329966,63.5 44,63.5 L4,63.5 C2.06700338,63.5 0.5,61.9329966 0.5,60 L0.5,4 C0.5,2.06700338 2.06700338,0.5 4,0.5 Z"/>
    <path fill="#FF5630" d="M32.1666667,25.785146 L32.1666667,35.3833333 L32.1666667,35.7333333 C32.1666667,37.5374635 30.7041302,39 28.9,39 L28.4333333,39 C26.6292031,39 25.1666667,37.5374635 25.1666667,35.7333333 L25.1666667,35.2666667 C25.1666667,33.4625365 26.6292031,32 28.4333333,32 L28.9,32 C29.2243205,32 29.5376022,32.0472628 29.8333333,32.1352768 L29.8333333,27.615938 L22.8333333,28.3405737 L22.8333333,36.55 L22.8333333,36.9 C22.8333333,38.7041302 21.3707968,40.1666667 19.5666667,40.1666667 L19.1,40.1666667 C17.2958698,40.1666667 15.8333333,38.7041302 15.8333333,36.9 L15.8333333,36.4333333 C15.8333333,34.6292032 17.2958698,33.1666667 19.1,33.1666667 L19.5666667,33.1666667 C19.8909872,33.1666667 20.2042689,33.2139295 20.5,33.3019434 L20.5,27.5556758 L20.5,25.7630413 C20.5,25.3189487 20.8619534,24.9214713 21.3390379,24.8720839 L31.3276288,23.8380711 C31.7910166,23.7901015 32.1666667,24.1118647 32.1666667,24.5553151 L32.1666667,25.785146 Z"/>
  </g>
</svg>
