<?xml version="1.0" encoding="UTF-8" standalone="no"?>
<svg width="24px" height="24px" viewBox="0 0 24 24" version="1.1" xmlns="http://www.w3.org/2000/svg" xmlns:xlink="http://www.w3.org/1999/xlink">
    <!-- Generator: Sketch 45.1 (43504) - http://www.bohemiancoding.com/sketch -->
    <title>hipchat/chevron-down</title>
    <desc>Created with Sketch.</desc>
    <defs></defs>
    <g id="HipChat" stroke="none" stroke-width="1" fill="none" fill-rule="evenodd">
        <g id="hipchat/chevron-down" fill-rule="nonzero" fill="#42526E">
            <path d="M6.74410208,8.74427062 L6.74410208,8.74427062 L6.74410208,8.74427062 C6.33302859,9.15528432 6.3326554,9.82161743 6.74326826,10.2330913 L11.2914037,14.790764 L11.2914037,14.790764 C11.6815187,15.1816971 12.3146834,15.1823602 12.7056165,14.7922452 C12.706079,14.7917836 12.7065411,14.7913216 12.7070028,14.7908591 L17.2566316,10.2329149 L17.2566316,10.2329149 C17.6672998,9.82149615 17.6670161,9.1551629 17.2559978,8.74409392 L17.2559978,8.74409392 L17.2559978,8.74409392 C16.845497,8.33354253 16.1799027,8.33350151 15.7693513,8.7440023 C15.7691098,8.74424377 15.7688684,8.74448537 15.7686272,8.74472708 L11.9993555,12.5208878 L8.23147242,8.74510363 L8.23147242,8.74510363 C7.82137659,8.33414785 7.15578275,8.33345072 6.74482696,8.74354655 C6.74458522,8.74378779 6.74434359,8.74402914 6.74410208,8.74427062 Z" id="Path-8"></path>
        </g>
    </g>
</svg>