<?xml version="1.0" encoding="UTF-8" standalone="no"?>
<svg width="24px" height="24px" viewBox="0 0 24 24" version="1.1" xmlns="http://www.w3.org/2000/svg" xmlns:xlink="http://www.w3.org/1999/xlink">
    <!-- Generator: Sketch 45.1 (43504) - http://www.bohemiancoding.com/sketch -->
    <title>hipchat/chevron-double-down</title>
    <desc>Created with Sketch.</desc>
    <defs></defs>
    <g id="HipChat" stroke="none" stroke-width="1" fill="none" fill-rule="evenodd">
        <g id="hipchat/chevron-double-down" fill="#42526E">
            <path d="M14.30175,13.294 L11.99375,15.621 L9.69675,13.304 C9.30975,12.912 8.67975,12.912 8.29175,13.304 C7.90275,13.696 7.90275,14.331 8.29175,14.723 L11.21975,17.678 C11.43375,17.893 11.71175,18 11.99075,18 C12.26975,18 12.55075,17.893 12.76775,17.678 L15.70875,14.713 C16.09575,14.321 16.09575,13.686 15.70875,13.294 C15.51375,13.098 15.25975,13 15.00575,13 C14.75075,13 14.49575,13.098 14.30175,13.294 Z" id="Shape-2"></path>
            <path d="M14.30175,7.294 L11.99375,9.621 L9.69675,7.304 C9.30975,6.912 8.67975,6.912 8.29175,7.304 C7.90275,7.696 7.90275,8.331 8.29175,8.723 L11.21975,11.678 C11.43375,11.893 11.71175,12 11.99075,12 C12.26975,12 12.55075,11.893 12.76775,11.678 L15.70875,8.713 C16.09575,8.321 16.09575,7.686 15.70875,7.294 C15.51375,7.098 15.25975,7 15.00575,7 C14.75075,7 14.49575,7.098 14.30175,7.294 Z" id="Shape"></path>
        </g>
    </g>
</svg>