<?xml version="1.0" encoding="UTF-8" standalone="no"?>
<svg width="24px" height="24px" viewBox="0 0 24 24" version="1.1" xmlns="http://www.w3.org/2000/svg" xmlns:xlink="http://www.w3.org/1999/xlink">
    <!-- Generator: Sketch 45.1 (43504) - http://www.bohemiancoding.com/sketch -->
    <title>hipchat/outgoing-sound</title>
    <desc>Created with Sketch.</desc>
    <defs></defs>
    <g id="HipChat" stroke="none" stroke-width="1" fill="none" fill-rule="evenodd">
        <g id="hipchat/outgoing-sound" fill="#42526E">
            <path d="M17.2286372,7.65188338 C17.2682935,7.70019485 17.3527857,7.8126855 17.4673155,7.98244151 C17.6652117,8.27576308 17.8645632,8.61333601 18.0508782,8.98784585 C19.1891926,11.27596 19.2937767,13.6360903 17.7353049,15.8516582 C17.6189044,16.0171364 17.4932664,16.1814163 17.3581644,16.3444524 C16.9961705,16.7812933 17.0660741,17.4214241 17.5142984,17.7742246 C17.9625227,18.1270251 18.6193344,18.0588968 18.9813282,17.6220559 C19.1505398,17.4178576 19.3087783,17.2109505 19.4561562,17.0014338 C21.5008079,14.094699 21.3629931,10.9846601 19.9282544,8.10070671 C19.5362388,7.31272007 19.1397324,6.72501857 18.8578501,6.38161425 C18.4979343,5.94314534 17.8414532,5.87205548 17.3915585,6.22283061 C16.9416638,6.57360574 16.8687215,7.21341446 17.2286372,7.65188338 Z" id="Stroke-1" fill-rule="nonzero"></path>
            <path d="M14.2135748,9.61891202 C14.293037,9.72024488 14.4387685,9.94947022 14.589962,10.2773064 C15.1978439,11.5953898 15.1978439,12.9973942 14.1859705,14.4180962 C13.8660822,14.8672295 13.9691439,15.4918699 14.4161654,15.8132695 C14.8631869,16.1346691 15.4848901,16.0311205 15.8047785,15.5819871 C17.28115,13.5091152 17.28115,11.355564 16.396085,9.4364585 C16.1740418,8.95499742 15.9465365,8.59714775 15.7771743,8.38117135 C15.4369887,7.94735545 14.8111902,7.87275587 14.3794141,8.21454852 C13.9476381,8.55634117 13.8733893,9.18509613 14.2135748,9.61891202 Z" id="Stroke-3" fill-rule="nonzero"></path>
            <path d="M7,15 L7,9 L11.74,5.10809813 C12.3108571,4.78543676 13,5.22411121 13,5.90750074 L13,18.0924993 C13,18.7758888 12.3108571,19.2145632 11.74,18.8919019 L7,15 Z" id="Fill-11"></path>
            <path d="M4,9 L6,9 L6,15 L4,15 L4,15 C3.44771525,15 3,14.5522847 3,14 L3,10 L3,10 C3,9.44771525 3.44771525,9 4,9 Z" id="Rectangle"></path>
        </g>
    </g>
</svg>