<?xml version="1.0" encoding="UTF-8" standalone="no"?>
<svg width="24px" height="24px" viewBox="0 0 24 24" version="1.1" xmlns="http://www.w3.org/2000/svg" xmlns:xlink="http://www.w3.org/1999/xlink">
    <!-- Generator: Sketch 45.1 (43504) - http://www.bohemiancoding.com/sketch -->
    <title>editor/addon</title>
    <desc>Created with Sketch.</desc>
    <defs></defs>
    <g id="Original" stroke="none" stroke-width="1" fill="none" fill-rule="evenodd">
        <g id="editor/addon" fill="#42526E">
            <path d="M8.69133243,14.9316498 C8.50673463,15.4776334 8.35494747,15.7287505 7.97241075,15.9433503 C7.12093526,16.421173 6.43234552,16.2418911 5.93858184,15.4105136 C5.441194,14.5735161 5.62941161,13.8910806 6.48649029,13.4103985 C6.87368701,13.1931844 7.15878516,13.1939187 7.73718219,13.311935 C7.81459306,13.3277408 7.87569577,13.339717 7.92742838,13.3488208 L6.49281172,10.934967 C6.39708588,10.7739009 6.4528746,10.5656031 6.61628858,10.4739427 L8.63896283,9.33940701 C8.8351552,9.22936098 9.08178306,9.34124928 9.12819349,9.56135755 C9.15204218,9.67446345 9.19406295,9.78123184 9.25642896,9.88606362 C9.69484288,10.6234221 10.2616986,10.7709581 11.024888,10.343005 C11.7823248,9.91817105 11.9305444,9.38083205 11.4954371,8.64903459 C11.4327518,8.54336493 11.3581683,8.45399596 11.2692531,8.37770779 C11.0935084,8.22692092 11.1212734,7.94728901 11.3232379,7.83400532 L13.3459122,6.69946957 C13.5036365,6.6110006 13.7031344,6.66443264 13.7955271,6.81989109 L15.2432173,9.25575246 C15.2617916,9.20599876 15.2825613,9.14620785 15.3086907,9.0687437 C15.4934678,8.5225846 15.6451529,8.27163644 16.0275893,8.05734246 C16.879011,7.57954995 17.567594,7.75875338 18.0614182,8.5899482 C18.5588129,9.42695733 18.3705761,10.1096191 17.5135907,10.5902489 C17.2545334,10.7356726 16.992603,10.7829529 16.6980502,10.7590369 C16.5712224,10.7487393 16.4762067,10.7322911 16.2632797,10.6889887 C16.1859194,10.6731932 16.1248242,10.6612126 16.0730154,10.6520849 L17.5067313,13.0645793 C17.6024476,13.2256399 17.5466641,13.4339251 17.3832626,13.5255881 L15.2735295,14.70908 C15.0554113,14.8314373 14.7852403,14.6789374 14.7772831,14.4289703 C14.7715776,14.2497414 14.7259378,14.084749 14.6269213,13.9185189 C14.188702,13.1811673 13.6216463,13.0334915 12.8586945,13.4614187 C12.1012065,13.8861748 11.9529609,14.4236934 12.3877124,15.1552101 C12.4872744,15.3225205 12.6131344,15.4449335 12.7722627,15.5407698 C12.991302,15.6726881 12.9863767,15.9919329 12.7633721,16.1170312 L10.653639,17.3005231 C10.4959119,17.3890029 10.296403,17.3355712 10.2040086,17.1801048 L8.75672831,14.7448539 C8.73817228,14.7945663 8.71742452,14.854296 8.69133243,14.9316498 Z" id="Shape"></path>
        </g>
    </g>
</svg>