<?xml version="1.0" encoding="UTF-8"?>
<svg width="24px" height="24px" viewBox="0 0 24 24" version="1.1" xmlns="http://www.w3.org/2000/svg" xmlns:xlink="http://www.w3.org/1999/xlink">
    <!-- Generator: Sketch 47.1 (45422) - http://www.bohemiancoding.com/sketch -->
    <title>editor/align-center</title>
    <desc>Created with Sketch.</desc>
    <defs></defs>
    <g id="Desktop" stroke="none" stroke-width="1" fill="none" fill-rule="evenodd">
        <g id="editor/align-center" fill="#42526E">
            <path d="M7,11 L17,11 C17.5522847,11 18,11.4477153 18,12 C18,12.5522847 17.5522847,13 17,13 L7,13 C6.44771525,13 6,12.5522847 6,12 C6,11.4477153 6.44771525,11 7,11 L7,11 Z M9.5,15 L14.5,15 C15.0522847,15 15.5,15.4477153 15.5,16 C15.5,16.5522847 15.0522847,17 14.5,17 L9.5,17 C8.94771525,17 8.5,16.5522847 8.5,16 C8.5,15.4477153 8.94771525,15 9.5,15 L9.5,15 Z M9.5,7 L14.5,7 C15.0522847,7 15.5,7.44771525 15.5,8 L15.5,8 C15.5,8.55228475 15.0522847,9 14.5,9 L9.5,9 C8.94771525,9 8.5,8.55228475 8.5,8 L8.5,8 L8.5,8 C8.5,7.44771525 8.94771525,7 9.5,7 L9.5,7 Z" id="align-centre"></path>
        </g>
    </g>
</svg>