<?xml version="1.0" encoding="UTF-8"?>
<svg width="24px" height="24px" viewBox="0 0 24 24" version="1.1" xmlns="http://www.w3.org/2000/svg" xmlns:xlink="http://www.w3.org/1999/xlink">
    <!-- Generator: Sketch 47.1 (45422) - http://www.bohemiancoding.com/sketch -->
    <title>editor/code</title>
    <desc>Created with Sketch.</desc>
    <defs></defs>
    <g id="Desktop" stroke="none" stroke-width="1" fill="none" fill-rule="evenodd">
        <g id="editor/code" fill="#42526E">
            <path d="M10.2084869,7.30763912 C10.597171,7.71782461 10.597171,8.38083544 10.2084869,8.79102093 L6.69343081,12.5005245 L10.2084869,16.2089791 C10.597171,16.6181155 10.597171,17.2832245 10.2084869,17.6923609 C9.81980284,18.1025464 9.1915462,18.1025464 8.80286211,17.6923609 L4.93689682,13.6125364 C4.35436773,12.9977827 4.35436773,12.0022173 4.93689682,11.3874636 L8.80286211,7.30763912 C9.1915462,6.89745363 9.81980284,6.89745363 10.2084869,7.30763912 Z M13.7915131,7.30763912 C14.1801972,6.89745363 14.8084538,6.89745363 15.1971379,7.30763912 L19.0631032,11.3874636 C19.6456323,12.0022173 19.6456323,12.9977827 19.0631032,13.6125364 L15.1971379,17.6923609 C14.8084538,18.1025464 14.1801972,18.1025464 13.7915131,17.6923609 C13.402829,17.2832245 13.402829,16.6181155 13.7915131,16.2089791 L17.3065692,12.5005245 L13.7915131,8.79102093 C13.402829,8.38083544 13.402829,7.71782461 13.7915131,7.30763912 Z" id="code"></path>
        </g>
    </g>
</svg>