<?xml version="1.0" encoding="UTF-8"?>
<svg width="24px" height="24px" viewBox="0 0 24 24" version="1.1" xmlns="http://www.w3.org/2000/svg" xmlns:xlink="http://www.w3.org/1999/xlink">
    <!-- Generator: Sketch 52.2 (67145) - http://www.bohemiancoding.com/sketch -->
    <title>Collapse</title>
    <desc>Created with Sketch.</desc>
    <g id="Collapse" stroke="none" stroke-width="1" fill="none" fill-rule="evenodd">
        <path d="M8.06191036,11 L6.5,9.91400981 C6.10947571,9.52348552 6.10947571,8.89032054 6.5,8.49979625 C6.89052429,8.10927196 7.52368927,8.10927196 7.91421356,8.49979625 L10.5297969,11.1155704 C10.8094575,11.2833111 11,11.6164369 11,12 C11,12.3835779 10.8094428,12.7167145 10.5297646,12.884449 L7.91421356,15.5 C7.52368927,15.8905243 6.89052429,15.8905243 6.5,15.5 C6.10947571,15.1094757 6.10947571,14.4763107 6.5,14.0857864 L8.06161732,13 L4.38235294,13 C3.89504287,13 3.5,12.5522847 3.5,12 C3.5,11.4477153 3.89504287,11 4.38235294,11 L8.06191036,11 Z M13.4702354,12.884449 C13.1905572,12.7167145 13,12.3835779 13,12 C13,11.6164221 13.1905572,11.2832855 13.4702354,11.115551 L16.0857864,8.5 C16.4763107,8.10947571 17.1094757,8.10947571 17.5,8.5 C17.8905243,8.89052429 17.8905243,9.52368927 17.5,9.91421356 L15.9383064,11 L19.6176471,11 C20.1049571,11 20.5,11.4477153 20.5,12 C20.5,12.5522847 20.1049571,13 19.6176471,13 L15.9383064,13 L17.5,14.0857864 C17.8905243,14.4763107 17.8905243,15.1094757 17.5,15.5 C17.1094757,15.8905243 16.4763107,15.8905243 16.0857864,15.5 L13.4702354,12.884449 Z" id="Combined-Shape" fill="#42526E" fill-rule="nonzero"></path>
    </g>
</svg>