<?xml version="1.0" encoding="UTF-8"?>
<svg width="24px" height="24px" viewBox="0 0 24 24" version="1.1" xmlns="http://www.w3.org/2000/svg" xmlns:xlink="http://www.w3.org/1999/xlink">
    <!-- Generator: Sketch 47.1 (45422) - http://www.bohemiancoding.com/sketch -->
    <title>editor/decision</title>
    <desc>Created with Sketch.</desc>
    <defs></defs>
    <g id="Desktop" stroke="none" stroke-width="1" fill="none" fill-rule="evenodd">
        <g id="editor/decision" fill="#42526E">
            <path d="M9.4141,8 L12.7071,11.293 C12.8941,11.48 13.0001,11.735 13.0001,12 L13.0001,17 C13.0001,17.552 12.5521,18 12.0001,18 C11.4481,18 11.0001,17.552 11.0001,17 L11.0001,12.414 L8.0001,9.414 L8.0001,10.5 C8.0001,11.052 7.5521,11.5 7.0001,11.5 C6.4481,11.5 6.0001,11.052 6.0001,10.5 L6.0001,7 C6.0001,6.448 6.4481,6 7.0001,6 L10.5001,6 C11.0521,6 11.5001,6.448 11.5001,7 C11.5001,7.552 11.0521,8 10.5001,8 L9.4141,8 Z M17.707,6.293 C18.098,6.684 18.098,7.316 17.707,7.707 L15.207,10.207 C15.012,10.402 14.756,10.5 14.5,10.5 C14.244,10.5 13.988,10.402 13.793,10.207 C13.402,9.816 13.402,9.184 13.793,8.793 L16.293,6.293 C16.684,5.902 17.316,5.902 17.707,6.293 Z" id="decision"></path>
        </g>
    </g>
</svg>