<?xml version="1.0" encoding="UTF-8" standalone="no"?>
<svg width="24px" height="24px" viewBox="0 0 24 24" version="1.1" xmlns="http://www.w3.org/2000/svg" xmlns:xlink="http://www.w3.org/1999/xlink">
    <!-- Generator: Sketch 45.1 (43504) - http://www.bohemiancoding.com/sketch -->
    <title>editor/error</title>
    <desc>Created with Sketch.</desc>
    <defs></defs>
    <g id="Original" stroke="none" stroke-width="1" fill="none" fill-rule="evenodd">
        <g id="editor/error" fill="#42526E">
            <path d="M13.4852814,11.9289322 L15.6066017,9.80761184 C15.997126,9.41708755 15.997126,8.78392257 15.6066017,8.39339828 C15.2160774,8.00287399 14.5829124,8.00287399 14.1923882,8.39339828 L12.0710678,10.5147186 L9.94974747,8.39339828 C9.55922318,8.00287399 8.9260582,8.00287399 8.53553391,8.39339828 C8.14500961,8.78392257 8.14500961,9.41708755 8.53553391,9.80761184 L10.6568542,11.9289322 L8.53553391,14.0502525 C8.14500961,14.4407768 8.14500961,15.0739418 8.53553391,15.4644661 C8.9260582,15.8549904 9.55922318,15.8549904 9.94974747,15.4644661 L12.0710678,13.3431458 L14.1923882,15.4644661 C14.5829124,15.8549904 15.2160774,15.8549904 15.6066017,15.4644661 C15.997126,15.0739418 15.997126,14.4407768 15.6066017,14.0502525 L13.4852814,11.9289322 Z M12,20 C7.581722,20 4,16.418278 4,12 C4,7.581722 7.581722,4 12,4 C16.418278,4 20,7.581722 20,12 C20,16.418278 16.418278,20 12,20 Z" id="Combined-Shape"></path>
        </g>
    </g>
</svg>