<?xml version="1.0" encoding="UTF-8"?>
<svg width="24px" height="24px" viewBox="0 0 24 24" version="1.1" xmlns="http://www.w3.org/2000/svg" xmlns:xlink="http://www.w3.org/1999/xlink">
    <!-- Generator: Sketch 52.2 (67145) - http://www.bohemiancoding.com/sketch -->
    <title>Expand</title>
    <desc>Created with Sketch.</desc>
    <g id="Expand" stroke="none" stroke-width="1" fill="none" fill-rule="evenodd">
        <path d="M18.0619104,11 L16.5,9.91400981 C16.1094757,9.52348552 16.1094757,8.89032054 16.5,8.49979625 C16.8905243,8.10927196 17.5236893,8.10927196 17.9142136,8.49979625 L20.5297969,11.1155704 C20.8094575,11.2833111 21,11.6164369 21,12 C21,12.3835779 20.8094428,12.7167145 20.5297646,12.884449 L17.9142136,15.5 C17.5236893,15.8905243 16.8905243,15.8905243 16.5,15.5 C16.1094757,15.1094757 16.1094757,14.4763107 16.5,14.0857864 L18.0616173,13 L14.3823529,13 C13.8950429,13 13.5,12.5522847 13.5,12 C13.5,11.4477153 13.8950429,11 14.3823529,11 L18.0619104,11 Z M3.4702354,12.884449 C3.19055717,12.7167145 3,12.3835779 3,12 C3,11.6164221 3.19055717,11.2832855 3.4702354,11.115551 L6.08578644,8.5 C6.47631073,8.10947571 7.10947571,8.10947571 7.5,8.5 C7.89052429,8.89052429 7.89052429,9.52368927 7.5,9.91421356 L5.93830641,11 L9.61764706,11 C10.1049571,11 10.5,11.4477153 10.5,12 C10.5,12.5522847 10.1049571,13 9.61764706,13 L5.93830641,13 L7.5,14.0857864 C7.89052429,14.4763107 7.89052429,15.1094757 7.5,15.5 C7.10947571,15.8905243 6.47631073,15.8905243 6.08578644,15.5 L3.4702354,12.884449 Z" id="Combined-Shape" fill="#42526E" fill-rule="nonzero"></path>
    </g>
</svg>