<?xml version="1.0" encoding="UTF-8" standalone="no"?>
<svg width="24px" height="24px" viewBox="0 0 24 24" version="1.1" xmlns="http://www.w3.org/2000/svg" xmlns:xlink="http://www.w3.org/1999/xlink">
    <!-- Generator: Sketch 45.1 (43504) - http://www.bohemiancoding.com/sketch -->
    <title>editor/feedback</title>
    <desc>Created with Sketch.</desc>
    <defs></defs>
    <g id="Original" stroke="none" stroke-width="1" fill="none" fill-rule="evenodd">
        <g id="editor/feedback" fill-rule="nonzero" fill="#42526E">
            <path d="M10.922259,14.5171851 L5.8701895,12.6800689 L4.93785381,12.3410378 C4.41778088,12.1519203 4,11.5522847 4,11 C4,10.4438648 4.41989145,9.8473122 4.93785381,9.65896225 L14.0621462,6.34103775 C14.5822191,6.15192032 15,6.44565467 15,6.99539757 L15,15.0046024 C15,15.5443356 14.5801085,15.8473122 14.0621462,15.6589622 L10.922259,14.5171851 Z M6,14.2272727 L8,14.9545455 L8,17.0001925 C8,17.5523709 7.59527016,18.2023649 7.10529494,18.4473525 L6.89470506,18.5526475 C6.4005731,18.7997135 6,18.5490248 6,18.009222 L6,14.2272727 Z M17.2236068,9.4472136 C16.9766175,9.57070822 16.676281,9.47059605 16.5527864,9.2236068 C16.4292918,8.97661755 16.529404,8.67628103 16.7763932,8.5527864 L18.7763932,7.5527864 C19.0233825,7.42929178 19.323719,7.52940395 19.4472136,7.7763932 C19.5707082,8.02338245 19.470596,8.32371897 19.2236068,8.4472136 L17.2236068,9.4472136 Z M16.7763932,13.4472136 C16.529404,13.323719 16.4292918,13.0233825 16.5527864,12.7763932 C16.676281,12.529404 16.9766175,12.4292918 17.2236068,12.5527864 L19.2236068,13.5527864 C19.470596,13.676281 19.5707082,13.9766175 19.4472136,14.2236068 C19.323719,14.470596 19.0233825,14.5707082 18.7763932,14.4472136 L16.7763932,13.4472136 Z M17,11.5 C16.7238576,11.5 16.5,11.2761424 16.5,11 C16.5,10.7238576 16.7238576,10.5 17,10.5 L20,10.5 C20.2761424,10.5 20.5,10.7238576 20.5,11 C20.5,11.2761424 20.2761424,11.5 20,11.5 L17,11.5 Z" id="Shape"></path>
        </g>
    </g>
</svg>