<?xml version="1.0" encoding="UTF-8" standalone="no"?>
<svg width="24px" height="24px" viewBox="0 0 24 24" version="1.1" xmlns="http://www.w3.org/2000/svg" xmlns:xlink="http://www.w3.org/1999/xlink">
    <!-- Generator: Sketch 45.1 (43504) - http://www.bohemiancoding.com/sketch -->
    <title>editor/help</title>
    <desc>Created with Sketch.</desc>
    <defs></defs>
    <g id="Original" stroke="none" stroke-width="1" fill="none" fill-rule="evenodd">
        <g id="editor/help" fill="#42526E">
            <path d="M8,10 L10.5,10 C10.5,8 12,8 12,8 C13.5,8 14.5,9.5 12.5,11 C11,12 11,12.5 11,14 C11,14.144 10.984,14.824 11,15 L13,15 C13,13.432 13,13 14.5,12 C15.9462079,11.0358614 16,10.104 16,9 C16,7 14.5,6 12,6 C10,6 8,7 8,10 Z M12.9999999,18 L13,16 L11,16 L11,18 L12.9999999,18 Z" id="Shape"></path>
        </g>
    </g>
</svg>