<?xml version="1.0" encoding="UTF-8" standalone="no"?>
<svg width="24px" height="24px" viewBox="0 0 24 24" version="1.1" xmlns="http://www.w3.org/2000/svg" xmlns:xlink="http://www.w3.org/1999/xlink">
    <!-- Generator: Sketch 45.1 (43504) - http://www.bohemiancoding.com/sketch -->
    <title>editor/image</title>
    <desc>Created with Sketch.</desc>
    <defs></defs>
    <g id="Original" stroke="none" stroke-width="1" fill="none" fill-rule="evenodd">
        <g id="editor/image" fill="#42526E">
            <path d="M11,15 L10,14 L8,16 L11,16 L16,16 L16,14.1999998 L14,12 L11,15 Z M6,6.50034732 C6,6.22401312 6.22900057,6 6.50034732,6 L17.4996527,6 C17.7759869,6 18,6.22900057 18,6.50034732 L18,17.4996527 C18,17.7759869 17.7709994,18 17.4996527,18 L6.50034732,18 C6.22401312,18 6,17.7709994 6,17.4996527 L6,6.50034732 Z M9.5,11 C10.3284271,11 11,10.3284271 11,9.5 C11,8.67157288 10.3284271,8 9.5,8 C8.67157288,8 8,8.67157288 8,9.5 C8,10.3284271 8.67157288,11 9.5,11 Z" id="Shape"></path>
        </g>
    </g>
</svg>