<?xml version="1.0" encoding="UTF-8"?>
<svg width="24px" height="24px" viewBox="0 0 24 24" version="1.1" xmlns="http://www.w3.org/2000/svg" xmlns:xlink="http://www.w3.org/1999/xlink">
    <!-- Generator: Sketch 51 (57462) - http://www.bohemiancoding.com/sketch -->
    <title>layout-right-sidebar</title>
    <desc>Created with Sketch.</desc>
    <defs></defs>
    <g id="layout-right-sidebar" stroke="none" stroke-width="1" fill="none" fill-rule="evenodd">
        <path d="M18,5 L19,5 C19.5522847,5 20,5.44771525 20,6 L20,18 C20,18.5522847 19.5522847,19 19,19 L18,19 C17.4477153,19 17,18.5522847 17,18 L17,6 C17,5.44771525 17.4477153,5 18,5 Z M5,5 L14,5 C14.5522847,5 15,5.44771525 15,6 L15,18 C15,18.5522847 14.5522847,19 14,19 L5,19 C4.44771525,19 4,18.5522847 4,18 L4,6 C4,5.44771525 4.44771525,5 5,5 Z" id="Icon" fill="#42526E"></path>
    </g>
</svg>