<?xml version="1.0" encoding="UTF-8"?>
<svg width="24px" height="24px" viewBox="0 0 24 24" version="1.1" xmlns="http://www.w3.org/2000/svg" xmlns:xlink="http://www.w3.org/1999/xlink">
    <!-- Generator: Sketch 47.1 (45422) - http://www.bohemiancoding.com/sketch -->
    <title>editor/link</title>
    <desc>Created with Sketch.</desc>
    <defs></defs>
    <g id="Desktop" stroke="none" stroke-width="1" fill="none" fill-rule="evenodd">
        <g id="editor/link" fill-rule="nonzero" fill="#42526E">
            <path d="M12.6544553,8.76435787 C12.3193936,9.09941958 11.7761512,9.09941958 11.4410895,8.76435787 C11.1060278,8.42929615 11.1060278,7.88605378 11.4410895,7.55099207 L12.6551289,6.33695266 C14.1069555,4.88512606 16.4599707,4.8852232 17.9123737,6.33762627 C19.3653996,7.79065211 19.3673158,10.1406026 17.9130473,11.5948711 L16.6990079,12.8089105 L15.8952764,13.612642 C14.4406088,15.0673097 12.0849752,15.0706173 10.6321789,13.6178211 C10.2971172,13.2827594 10.2971172,12.739517 10.6321789,12.4044553 C10.9672406,12.0693936 11.510483,12.0693936 11.8455447,12.4044553 C12.6274536,13.1863641 13.8966048,13.184582 14.6819106,12.3992762 L15.4856421,11.5955447 L16.6996815,10.3815053 C17.4833832,9.59780364 17.4823529,8.33433707 16.6990079,7.55099207 C15.9167059,6.76869 14.6501754,6.76863771 13.8684947,7.55031846 L12.6544553,8.76435787 Z M11.8455447,15.2356421 C12.1806064,14.9005804 12.7238488,14.9005804 13.0589105,15.2356421 C13.3939722,15.5707038 13.3939722,16.1139462 13.0589105,16.4490079 L11.8448711,17.6630473 C10.3930445,19.1148739 8.04002933,19.1147768 6.58762627,17.6623737 C5.13460042,16.2093479 5.13268416,13.8593974 6.58695266,12.4051289 L7.80099207,11.1910895 L8.60472356,10.387358 C10.0593912,8.93269033 12.4150248,8.92938267 13.8678211,10.3821789 C14.2028828,10.7172406 14.2028828,11.260483 13.8678211,11.5955447 C13.5327594,11.9306064 12.989517,11.9306064 12.6544553,11.5955447 C11.8725464,10.8136359 10.6033952,10.815418 9.81808936,11.6007238 L9.01435787,12.4044553 L7.80031846,13.6184947 C7.01661677,14.4021964 7.01764706,15.6656629 7.80099207,16.4490079 C8.58329413,17.23131 9.84982458,17.2313623 10.6315053,16.4496815 L11.8455447,15.2356421 Z" id="Combined-Shape"></path>
        </g>
    </g>
</svg>