<?xml version="1.0" encoding="UTF-8"?>
<svg width="24px" height="24px" viewBox="0 0 24 24" version="1.1" xmlns="http://www.w3.org/2000/svg" xmlns:xlink="http://www.w3.org/1999/xlink">
    <!-- Generator: Sketch 47.1 (45422) - http://www.bohemiancoding.com/sketch -->
    <title>editor/number-list</title>
    <desc>Created with Sketch.</desc>
    <defs></defs>
    <g id="Desktop" stroke="none" stroke-width="1" fill="none" fill-rule="evenodd">
        <g id="editor/number-list" fill="#42526E">
            <path d="M11,7 L17,7 C17.5522847,7 18,7.44771525 18,8 L18,8 C18,8.55228475 17.5522847,9 17,9 L11,9 C10.4477153,9 10,8.55228475 10,8 L10,8 L10,8 C10,7.44771525 10.4477153,7 11,7 Z M11,11 L17,11 C17.5522847,11 18,11.4477153 18,12 C18,12.5522847 17.5522847,13 17,13 L11,13 C10.4477153,13 10,12.5522847 10,12 C10,11.4477153 10.4477153,11 11,11 Z M11,15 L17,15 C17.5522847,15 18,15.4477153 18,16 C18,16.5522847 17.5522847,17 17,17 L11,17 C10.4477153,17 10,16.5522847 10,16 C10,15.4477153 10.4477153,15 11,15 Z M6,15 L9,15 L9,16 L6,16 L6,15 Z M6,17 L9,17 L9,18 L6,18 L6,17 Z M7,8 L6,8 L6,7 L8,7 L8,10 L7,10 L7,8 Z M6,11 L9,11 L9,12.3333333 L8.4,12.3333333 L8.4,13 L7.2,13 L7.2,12.3333333 L6,12.3333333 L6,11 Z M6,13 L9,13 L9,14 L6,14 L6,13 Z M8,16 L10,16 L10,17 L8,17 L8,16 Z" id="number-list"></path>
        </g>
    </g>
</svg>