<?xml version="1.0" encoding="UTF-8"?>
<svg width="24px" height="24px" viewBox="0 0 24 24" version="1.1" xmlns="http://www.w3.org/2000/svg" xmlns:xlink="http://www.w3.org/1999/xlink">
    <!-- Generator: Sketch 47.1 (45422) - http://www.bohemiancoding.com/sketch -->
    <title>editor/panel</title>
    <desc>Created with Sketch.</desc>
    <defs></defs>
    <g id="Desktop" stroke="none" stroke-width="1" fill="none" fill-rule="evenodd">
        <g id="editor/panel" fill="#42526E">
            <path d="M12,19 C8.13400675,19 5,15.8659932 5,12 C5,8.13400675 8.13400675,5 12,5 C15.8659932,5 19,8.13400675 19,12 C19,15.8659932 15.8659932,19 12,19 Z M12,17.5 C15.0375661,17.5 17.5,15.0375661 17.5,12 C17.5,8.96243388 15.0375661,6.5 12,6.5 C8.96243388,6.5 6.5,8.96243388 6.5,12 C6.5,15.0375661 8.96243388,17.5 12,17.5 Z M12,11.5 C12.5522847,11.5 13,11.9477153 13,12.5 L13,14.5 C13,15.0522847 12.5522847,15.5 12,15.5 C11.4477153,15.5 11,15.0522847 11,14.5 L11,12.5 C11,11.9477153 11.4477153,11.5 12,11.5 Z M12,8.5 C12.5522847,8.5 13,8.94771525 13,9.5 C13,10.0522847 12.5522847,10.5 12,10.5 C11.4477153,10.5 11,10.0522847 11,9.5 C11,8.94771525 11.4477153,8.5 12,8.5 Z" id="Icon"></path>
        </g>
    </g>
</svg>