<?xml version="1.0" encoding="UTF-8" standalone="no"?>
<svg width="24px" height="24px" viewBox="0 0 24 24" version="1.1" xmlns="http://www.w3.org/2000/svg" xmlns:xlink="http://www.w3.org/1999/xlink">
    <!-- Generator: Sketch 45.1 (43504) - http://www.bohemiancoding.com/sketch -->
    <title>editor/photo</title>
    <desc>Created with Sketch.</desc>
    <defs></defs>
    <g id="Original" stroke="none" stroke-width="1" fill="none" fill-rule="evenodd">
        <g id="editor/photo" fill="#42526E">
            <path d="M5,8.50964952 C5,8.22817786 5.21990657,8 5.49826741,8 L18.5017326,8 C18.7769181,8 19,8.22765279 19,8.50964952 L19,17.4903505 C19,17.7718221 18.7800934,18 18.5017326,18 L5.49826741,18 C5.22308192,18 5,17.7723472 5,17.4903505 L5,8.50964952 Z M10,7.5 C10,7.22385763 10.2150574,7 10.4904785,7 L13.5095215,7 C13.7804053,7 14,7.23193359 14,7.5 L14,8 L10,8 L10,7.5 Z M12,16.5 C13.9329966,16.5 15.5,14.9329966 15.5,13 C15.5,11.0670034 13.9329966,9.5 12,9.5 C10.0670034,9.5 8.5,11.0670034 8.5,13 C8.5,14.9329966 10.0670034,16.5 12,16.5 Z M12,15 C10.8954305,15 10,14.1045695 10,13 C10,11.8954305 10.8954305,11 12,11 C13.1045695,11 14,11.8954305 14,13 C14,14.1045695 13.1045695,15 12,15 Z" id="Shape"></path>
        </g>
    </g>
</svg>