<?xml version="1.0" encoding="UTF-8" standalone="no"?>
<svg width="24px" height="24px" viewBox="0 0 24 24" version="1.1" xmlns="http://www.w3.org/2000/svg" xmlns:xlink="http://www.w3.org/1999/xlink">
    <!-- Generator: Sketch 45.1 (43504) - http://www.bohemiancoding.com/sketch -->
    <title>editor/recent</title>
    <desc>Created with Sketch.</desc>
    <defs></defs>
    <g id="Original" stroke="none" stroke-width="1" fill="none" fill-rule="evenodd">
        <g id="editor/recent" fill="#42526E">
            <path d="M11.3049175,12.2822257 C11.3415291,12.3725097 11.3964466,12.4571068 11.4696699,12.5303301 L13.4696699,14.5303301 C13.7625631,14.8232233 14.2374369,14.8232233 14.5303301,14.5303301 C14.8232233,14.2374369 14.8232233,13.7625631 14.5303301,13.4696699 L12.75,11.6893398 L12.75,9 C12.75,8.58578644 12.4142136,8.25 12,8.25 C11.5857864,8.25 11.25,8.58578644 11.25,9 L11.25,12 C11.25,12.1035534 11.2709867,12.2022051 11.3089387,12.2919338 Z M12,6 C15.314,6 18,8.686 18,12 C18,15.3133333 15.314,18 12,18 C8.68666667,18 6,15.3133333 6,12 C6,8.686 8.68666667,6 12,6 Z" id="Shape"></path>
        </g>
    </g>
</svg>