<?xml version="1.0" encoding="UTF-8" standalone="no"?>
<svg width="24px" height="24px" viewBox="0 0 24 24" version="1.1" xmlns="http://www.w3.org/2000/svg" xmlns:xlink="http://www.w3.org/1999/xlink">
    <!-- Generator: Sketch 45.1 (43504) - http://www.bohemiancoding.com/sketch -->
    <title>editor/redo</title>
    <desc>Created with Sketch.</desc>
    <defs></defs>
    <g id="Original" stroke="none" stroke-width="1" fill="none" fill-rule="evenodd">
        <g id="editor/redo" fill="#42526E">
            <path d="M6.71999979,15.0001 L8.21999979,15.0001 C8.21999979,12.4871 10.0409998,10.5001 12.2199998,10.5001 C13.5579998,10.5001 14.7599998,11.2491 15.4899998,12.4081 L13.4599998,13.5801 C13.2199998,13.7191 13.2409998,13.9051 13.4889998,13.9901 L16.2189998,14.9201 C16.2199998,14.9461 16.2199998,14.9731 16.2199998,15.0001 L16.2199998,14.9201 L17.5919998,15.3871 C17.8479998,15.4751 18.0999998,15.3221 18.1509998,15.0641 L18.9919998,10.8131 C19.0439998,10.5471 18.8849998,10.4481 18.6509998,10.5831 L16.7889998,11.6591 C15.8009998,10.0551 14.1239998,9.0001 12.2199998,9.0001 C9.18299979,9.0001 6.72799979,11.6871 6.71999979,15.0001 Z" id="Clip-2"></path>
        </g>
    </g>
</svg>