<?xml version="1.0" encoding="UTF-8" standalone="no"?>
<svg width="24px" height="24px" viewBox="0 0 24 24" version="1.1" xmlns="http://www.w3.org/2000/svg" xmlns:xlink="http://www.w3.org/1999/xlink">
    <!-- Generator: Sketch 45.1 (43504) - http://www.bohemiancoding.com/sketch -->
    <title>editor/search</title>
    <desc>Created with Sketch.</desc>
    <defs></defs>
    <g id="Original" stroke="none" stroke-width="1" fill="none" fill-rule="evenodd">
        <g id="editor/search" fill-rule="nonzero" fill="#42526E">
            <path d="M14.8226434,15.8833035 C13.8995685,16.5841006 12.7483535,17 11.5,17 C8.46243388,17 6,14.5375661 6,11.5 C6,8.46243388 8.46243388,6 11.5,6 C14.5375661,6 17,8.46243388 17,11.5 C17,12.7483535 16.5841006,13.8995685 15.8833035,14.8226434 L18.5303301,17.4696699 C18.8232233,17.7625631 19.0606602,18.0606602 18.5303301,18.5303301 C18,19 17.7625631,18.8232233 17.4696699,18.5303301 L14.8226434,15.8833035 Z M11.5,15.5 C13.709139,15.5 15.5,13.709139 15.5,11.5 C15.5,9.290861 13.709139,7.5 11.5,7.5 C9.290861,7.5 7.5,9.290861 7.5,11.5 C7.5,13.709139 9.290861,15.5 11.5,15.5 Z" id="Shape"></path>
        </g>
    </g>
</svg>