<?xml version="1.0" encoding="UTF-8"?>
<svg width="24px" height="24px" viewBox="0 0 24 24" version="1.1" xmlns="http://www.w3.org/2000/svg" xmlns:xlink="http://www.w3.org/1999/xlink">
    <!-- Generator: Sketch 52.2 (67145) - http://www.bohemiancoding.com/sketch -->
    <title>settings</title>
    <desc>Created with Sketch.</desc>
    <g id="settings" stroke="none" stroke-width="1" fill="none" fill-rule="evenodd">
        <path d="M12.0022311,15.5041107 C10.0677997,15.5041107 8.50023111,13.935842 8.50023111,12.0021107 C8.50023111,10.0676793 10.0677997,8.50011069 12.0022311,8.50011069 C13.9366625,8.50011069 15.5042311,10.0676793 15.5042311,12.0021107 C15.5042311,13.935842 13.9366625,15.5041107 12.0022311,15.5041107 M18.7338372,13.5168372 C18.1038532,13.2979577 17.6508762,12.7048907 17.6508762,11.9999698 C17.6508762,11.2950489 18.1038532,10.7019818 18.7330327,10.4831023 C18.9237175,10.4171165 19.0411858,10.2151358 18.9864745,10.0212021 C18.8263636,9.45469028 18.5986683,8.91795256 18.3138479,8.41742653 C18.2189078,8.25004805 18.0105223,8.18808582 17.8327107,8.2605092 C17.5229484,8.38765247 17.1649116,8.42064534 16.7940014,8.32569025 C16.2517164,8.18567171 15.8083943,7.74388909 15.6651795,7.20232314 C15.5670211,6.82974508 15.6000088,6.47004229 15.7263274,6.15862175 C15.7979348,5.98158682 15.7359823,5.77316843 15.5686302,5.67821333 C15.0722061,5.39737155 14.5395759,5.17205437 13.9795901,5.01352764 C13.7848824,4.95880775 13.5837381,5.07548986 13.5177628,5.26620476 C13.2989178,5.89628818 12.7059443,6.34933666 12.0011346,6.34933666 C11.2971295,6.34933666 10.7033515,5.89628818 10.485311,5.26700947 C10.4185311,5.07629457 10.2165822,4.95880775 10.0226791,5.01352764 C9.4530384,5.17446848 8.91316705,5.40380919 8.41030626,5.6910886 C8.24858622,5.78362958 8.18019716,5.98641505 8.25099996,6.15942646 C8.36927282,6.44992469 8.40547879,6.78146283 8.32984853,7.12748565 C8.20513905,7.69560683 7.75538036,8.17118703 7.19298084,8.32166672 C6.82448445,8.42064534 6.47047045,8.38926188 6.16312193,8.26694684 C5.98611493,8.19613286 5.778534,8.25889979 5.68439846,8.42466887 C5.40038268,8.9251949 5.17349189,9.46273732 5.01418559,10.0292491 C4.95947434,10.2215734 5.07452889,10.4211401 5.26199539,10.4895399 C5.88232447,10.7132477 6.32645112,11.3022912 6.32645112,11.9999698 C6.32645112,12.6976483 5.88232447,13.2866918 5.26119081,13.5103996 C5.07372431,13.5779948 4.95947434,13.7775614 5.01338101,13.9698857 C5.15579119,14.4744353 5.35291262,14.9564531 5.59509038,15.4103063 C5.69083508,15.5889506 5.9128984,15.6501081 6.0971466,15.5656142 C6.57587008,15.3459299 7.17769387,15.3531723 7.78997718,15.7571338 C7.88411272,15.819096 7.97100707,15.9060041 8.03295952,15.9993498 C8.45697174,16.6423085 8.44490308,17.2707825 8.19226582,17.7592379 C8.09973943,17.938687 8.15364611,18.1623948 8.3274348,18.2645922 C8.85362833,18.5735986 9.42326904,18.817424 10.0242883,18.9864119 C10.2181914,19.0411318 10.4177266,18.9252544 10.4828973,18.7345395 C10.6993286,18.1020419 11.2947158,17.6457746 12.0011346,17.6457746 C12.7075535,17.6457746 13.3029406,18.1020419 13.5193719,18.7345395 C13.5845427,18.9244497 13.7840779,19.0411318 13.977981,18.9864119 C14.5709544,18.8198381 15.1333539,18.5792315 15.65472,18.275858 C15.8301179,18.1736606 15.88322,17.9475387 15.7890844,17.7680897 C15.5332288,17.2788295 15.5179419,16.6471367 15.9427587,16.0017639 C16.0047111,15.9084182 16.0916055,15.8207054 16.185741,15.7587432 C16.8068747,15.3475394 17.4143305,15.3459299 17.8954677,15.5736612 C18.0797159,15.6605693 18.304193,15.6002165 18.4007422,15.4207674 C18.6453337,14.9669143 18.8424552,14.4840917 18.9864745,13.9779328 C19.0411858,13.783999 18.924522,13.582823 18.7338372,13.5168372" id="Fill-1" fill="#42526E"></path>
    </g>
</svg>