<?xml version="1.0" encoding="UTF-8" standalone="no"?>
<svg width="24px" height="24px" viewBox="0 0 24 24" version="1.1" xmlns="http://www.w3.org/2000/svg" xmlns:xlink="http://www.w3.org/1999/xlink">
    <!-- Generator: Sketch 45.1 (43504) - http://www.bohemiancoding.com/sketch -->
    <title>editor/success</title>
    <desc>Created with Sketch.</desc>
    <defs></defs>
    <g id="Original" stroke="none" stroke-width="1" fill="none" fill-rule="evenodd">
        <g id="editor/success" fill="#42526E">
            <path d="M12,20 C7.581722,20 4,16.418278 4,12 C4,7.581722 7.581722,4 12,4 C16.418278,4 20,7.581722 20,12 C20,16.418278 16.418278,20 12,20 Z M13.3641685,9.03599301 L11.2117297,13.1451943 L9.66896473,11.7567059 C9.25845471,11.3872468 8.62616487,11.4205252 8.25670585,11.8310353 C7.88724683,12.2415453 7.92052525,12.8738351 8.33103527,13.2432941 L10.8310353,15.4932941 C11.3162349,15.9299739 12.082942,15.7922507 12.3858315,15.214007 L15.1358315,9.96400699 C15.3920955,9.47477575 15.2032382,8.87043245 14.714007,8.61416846 C14.2247757,8.35790448 13.6204325,8.54676176 13.3641685,9.03599301 Z" id="Oval"></path>
        </g>
    </g>
</svg>