<?xml version="1.0" encoding="UTF-8"?>
<svg width="24px" height="24px" viewBox="0 0 24 24" version="1.1" xmlns="http://www.w3.org/2000/svg" xmlns:xlink="http://www.w3.org/1999/xlink">
    <!-- Generator: Sketch 47.1 (45422) - http://www.bohemiancoding.com/sketch -->
    <title>editor/table</title>
    <desc>Created with Sketch.</desc>
    <defs></defs>
    <g id="Desktop" stroke="none" stroke-width="1" fill="none" fill-rule="evenodd">
        <g id="editor/table" fill="#42526E">
            <path d="M8,6 L16,6 C17.1045695,6 18,6.8954305 18,8 L18,16 C18,17.1045695 17.1045695,18 16,18 L8,18 C6.8954305,18 6,17.1045695 6,16 L6,8 L6,8 C6,6.8954305 6.8954305,6 8,6 L8,6 Z M8,8 L8,11 L11,11 L11,8 L8,8 Z M13,8 L13,11 L16,11 L16,8 L13,8 Z M8,13 L8,16 L11,16 L11,13 L8,13 Z M13,13 L13,16 L16,16 L16,13 L13,13 Z" id="table"></path>
        </g>
    </g>
</svg>