<?xml version="1.0" encoding="UTF-8" standalone="no"?>
<svg width="24px" height="24px" viewBox="0 0 24 24" version="1.1" xmlns="http://www.w3.org/2000/svg" xmlns:xlink="http://www.w3.org/1999/xlink">
    <!-- Generator: Sketch 45.1 (43504) - http://www.bohemiancoding.com/sketch -->
    <title>editor/undo</title>
    <desc>Created with Sketch.</desc>
    <defs></defs>
    <g id="Original" stroke="none" stroke-width="1" fill="none" fill-rule="evenodd">
        <g id="editor/undo" fill-rule="nonzero" fill="#42526E">
            <path d="M8.9312813,11.6583497 C9.91861954,10.0550361 11.5963687,9 13.5,9 C16.5375661,9 18.9919434,11.6862915 19,15 L18,15 L17.5,15 C17.5,12.4869862 15.678596,10.5 13.5,10.5 C12.1626109,10.5 10.9598276,11.2487847 10.2303752,12.4083819 L12.2592965,13.5797802 C12.5000799,13.7187966 12.4790938,13.9051444 12.2309786,13.9896777 L9.50061758,14.919917 C9.50020645,14.9465505 9.5,14.9732454 9.5,15 L9.5,14.9201274 L8.12847932,15.3874071 C7.87205637,15.4747709 7.61987989,15.3215498 7.56903029,15.064409 L6.72824978,10.8126758 C6.67569757,10.5469251 6.83479508,10.4479429 7.06907246,10.583203 L8.9312813,11.6583497 Z" id="Shape"></path>
        </g>
    </g>
</svg>