<?xml version="1.0" encoding="UTF-8" standalone="no"?>
<svg width="24px" height="24px" viewBox="0 0 24 24" version="1.1" xmlns="http://www.w3.org/2000/svg" xmlns:xlink="http://www.w3.org/1999/xlink">
    <!-- Generator: Sketch 45.1 (43504) - http://www.bohemiancoding.com/sketch -->
    <title>editor/unlink</title>
    <desc>Created with Sketch.</desc>
    <defs></defs>
    <g id="Original" stroke="none" stroke-width="1" fill="none" fill-rule="evenodd">
        <g id="editor/unlink" fill-rule="nonzero" fill="#42526E">
            <path d="M5,10 L5,9 L7,9 L7,10 L5,10 Z M9,5 L10,5 L10,7 L9,7 L9,5 Z M16.6464466,17.3535534 L17.3535534,16.6464466 L19.3535534,18.6464466 L18.6464466,19.3535534 L16.6464466,17.3535534 Z M17,15 L17,14 L19,14 L19,15 L17,15 Z M14,17 L15,17 L15,19 L14,19 L14,17 Z M7.35355339,6.64644661 L6.64644661,7.35355339 L4.64644661,5.35355339 L5.35355339,4.64644661 L7.35355339,6.64644661 Z M10.9209919,15.6825503 L11.9822409,14.6213013 C12.2751342,14.328408 12.7500079,14.328408 13.0429011,14.6213013 C13.3357943,14.9141945 13.3357943,15.3890682 13.0429011,15.6819614 L11.9816521,16.7432104 C10.7125421,18.0123204 8.65566077,18.0122355 7.38604687,16.7426216 C6.11588857,15.4724633 6.11421348,13.4182609 7.38545804,12.1470164 L8.44670704,11.0857674 L9.14928658,10.3831878 C9.94150322,9.75213642 10.9215808,10.732214 10.2099468,11.443848 L9.50736722,12.1464275 L8.44611821,13.2076765 C7.76104767,13.8927471 7.76194829,14.9972027 8.44670704,15.6819614 C9.13055411,16.3658085 10.237688,16.3658542 10.9209919,15.6825503 Z M13.5790081,8.07478669 L12.5177591,9.1360357 C12.2248658,9.42892891 11.7499921,9.42892891 11.4570989,9.1360357 C11.1642057,8.84314248 11.1642057,8.36826874 11.4570989,8.07537552 L12.5183479,7.01412652 C13.7874579,5.74501653 15.8443392,5.74510145 17.1139531,7.01471535 C18.3841114,8.28487366 18.3857865,10.339076 17.114542,11.6103206 L16.053293,12.6715696 L15.3507134,13.3741491 C14.7855259,13.9393367 13.7699143,12.9237251 14.2900532,12.313489 L14.9926328,11.6109094 L16.0538818,10.5496604 C16.7389523,9.86458988 16.7380517,8.76013427 16.053293,8.07537552 C15.3694459,7.39152846 14.262312,7.39148275 13.5790081,8.07478669 Z" id="Shape"></path>
        </g>
    </g>
</svg>