<?xml version="1.0" encoding="UTF-8" standalone="no"?>
<svg width="24px" height="24px" viewBox="0 0 24 24" version="1.1" xmlns="http://www.w3.org/2000/svg" xmlns:xlink="http://www.w3.org/1999/xlink">
    <!-- Generator: Sketch 45.1 (43504) - http://www.bohemiancoding.com/sketch -->
    <title>editor/warning</title>
    <desc>Created with Sketch.</desc>
    <defs></defs>
    <g id="Original" stroke="none" stroke-width="1" fill="none" fill-rule="evenodd">
        <g id="editor/warning" fill="#42526E">
            <path d="M13.3094152,5.34316408 L20.6685704,18.5121786 C20.9379867,18.994292 20.7655617,19.6035272 20.2834483,19.8729435 C20.1343591,19.956258 19.966416,20 19.7956269,20 L4.20437306,20 C3.65208831,20 3.20437306,19.5522847 3.20437306,19 C3.20437306,18.8292109 3.24811502,18.6612679 3.33142958,18.5121786 L10.6905848,5.34316408 C11.0947092,4.61999402 12.008562,4.36135645 12.731732,4.7654809 C12.9740329,4.90088433 13.1740118,5.10086321 13.3094152,5.34316408 Z M12,8.5 C11.9506891,8.5 11.9014349,8.50334277 11.8525761,8.51000533 C11.2554964,8.59142529 10.8374715,9.14145798 10.9188915,9.73853771 L11.4324434,13.5045849 C11.4711459,13.7884033 11.7135549,14 12,14 C12.2864451,14 12.5288541,13.7884033 12.5675566,13.5045849 L13.0811085,9.73853771 C13.0877711,9.68967896 13.0911138,9.64042475 13.0911138,9.59111382 C13.0911138,8.9885083 12.6026055,8.5 12,8.5 Z M12,17.1300049 C12.6213203,17.1300049 13.125,16.6263252 13.125,16.0050049 C13.125,15.3836845 12.6213203,14.8800049 12,14.8800049 C11.3786797,14.8800049 10.875,15.3836845 10.875,16.0050049 C10.875,16.6263252 11.3786797,17.1300049 12,17.1300049 Z" id="Shape"></path>
        </g>
    </g>
</svg>