<svg width="95" height="95" viewBox="0 0 95 95" fill="none" xmlns="http://www.w3.org/2000/svg">
<path d="M77.5095 55.8601C77.9103 53.6147 78.1175 51.2345 78.1175 48.7058C78.1175 46.1771 77.9033 43.7312 77.4957 41.4581C75.0706 27.9371 65.6743 19.6047 52.5021 17.4594C50.2532 17.0967 47.8972 16.9067 45.4479 16.9067C42.9986 16.9067 40.4353 17.1071 38.1001 17.5009C24.921 19.7014 15.5453 28.0165 13.1099 41.4581C12.6988 43.7278 12.4846 46.146 12.4846 48.7058C12.4846 51.2656 12.6953 53.6147 13.0961 55.8601C15.5108 69.288 24.8968 77.6169 38.0966 79.8174C40.4319 80.2078 42.8881 80.4116 45.4444 80.4116C48.0008 80.4116 50.2532 80.2251 52.4986 79.8589C65.6915 77.7171 75.0913 69.364 77.5026 55.8601H77.5095Z" fill="#82B536"/>
<path d="M56.7133 48.4706L81.9729 22.1573L91.314 30.8075L54.6233 62.3026L37.3506 46.3875L46.3324 36.017L56.7099 48.4741L56.7133 48.4706Z" fill="#1868DB"/>
<path d="M77.5027 41.4616C76.7842 37.475 75.4611 33.9307 73.6129 30.8699L56.7167 48.4708L46.3392 36.0138L37.3574 46.3843L54.6301 62.2994L77.6789 42.5152C77.6271 42.1594 77.5718 41.807 77.5096 41.4581L77.5027 41.4616Z" fill="#09326C"/>
</svg>
