<svg xmlns="http://www.w3.org/2000/svg" width="16" height="16" viewBox="0 0 16 16">
  <path fill="#2684FF" fill-rule="evenodd" d="M2,0 L14,0 C15.1045695,-2.02906125e-16 16,0.8954305 16,2 L16,14 C16,15.1045695 15.1045695,16 14,16 L2,16 C0.8954305,16 1.3527075e-16,15.1045695 0,14 L0,2 C-1.3527075e-16,0.8954305 0.8954305,2.02906125e-16 2,0 Z M3,4 C2.44771525,4 2,4.44771525 2,5 L2,11 C2,11.5522847 2.44771525,12 3,12 L13,12 C13.5522847,12 14,11.5522847 14,11 L14,5 C14,4.44771525 13.5522847,4 13,4 L3,4 Z M4,6 L4,10 L12,10 L12,6 L4,6 Z"/>
</svg>
