<svg xmlns="http://www.w3.org/2000/svg" width="24" height="24" viewBox="0 0 24 24">
  <path fill="#2684FF" fill-rule="evenodd" d="M3,0 L21,0 C22.6568542,-3.04359188e-16 24,1.34314575 24,3 L24,21 C24,22.6568542 22.6568542,24 21,24 L3,24 C1.34314575,24 2.02906125e-16,22.6568542 0,21 L0,3 C-2.02906125e-16,1.34314575 1.34314575,3.04359188e-16 3,0 Z M3,8.0085302 L3,15.9914698 C3,17.0980496 3.8932319,18 4.99508929,18 L19.0049107,18 C20.1073772,18 21,17.1007504 21,15.9914698 L21,8.0085302 C21,6.90195036 20.1067681,6 19.0049107,6 L4.99508929,6 C3.8926228,6 3,6.8992496 3,8.0085302 Z M14.2928932,9.29289322 C14.6834175,8.90236893 15.3165825,8.90236893 15.7071068,9.29289322 C16.0976311,9.68341751 16.0976311,10.3165825 15.7071068,10.7071068 L12.2071068,14.2071068 C11.8160769,14.5981367 11.1819134,14.5975562 10.7916,14.2058111 L8.82130601,12.2282902 C8.43149727,11.8370517 8.43265636,11.2038878 8.8238949,10.814079 C9.21513344,10.4242703 9.84829736,10.4254294 10.2381061,10.8166679 L11.5012956,12.0844908 L14.2928932,9.29289322 Z M5,15.9914698 C5,15.9978202 19.0049107,16 19.0049107,16 C18.9994849,16 19,8.0085302 19,8.0085302 C19,8.00217984 4.99508929,8 4.99508929,8 C5.00051505,8 5,15.9914698 5,15.9914698 Z"/>
</svg>
