<svg xmlns="http://www.w3.org/2000/svg" width="16" height="16" viewBox="0 0 16 16">
  <path fill="#6554C0" fill-rule="evenodd" d="M2,0 L14,0 C15.1045695,-2.02906125e-16 16,0.8954305 16,2 L16,14 C16,15.1045695 15.1045695,16 14,16 L2,16 C0.8954305,16 1.3527075e-16,15.1045695 0,14 L0,2 C-1.3527075e-16,0.8954305 0.8954305,2.02906125e-16 2,0 Z M4.91960667,4.71992051 L2.33960667,7.29992051 C1.94760667,7.68992051 1.94860667,8.32392051 2.33960667,8.71392051 L4.91960667,11.2919205 C5.31160667,11.6819205 5.94360667,11.6819205 6.33460667,11.2899205 C6.72460667,10.8999205 6.72460667,10.2669205 6.33360667,9.87592051 L4.46060667,8.00592051 L6.33360667,6.13492051 C6.72460667,5.74392051 6.72460667,5.11092051 6.33360667,4.71992051 C6.13860667,4.52492051 5.88260667,4.42792051 5.62760667,4.42792051 C5.37060667,4.42792051 5.11560667,4.52492051 4.91960667,4.71992051 Z M9.71165797,4.72092051 C9.32065797,5.11192051 9.32165797,5.74392051 9.71265797,6.13492051 L11.585658,8.00492051 L9.71265797,9.87592051 C9.32165797,10.2669205 9.32065797,10.8999205 9.71165797,11.2909205 C10.102658,11.6819205 10.735658,11.6819205 11.126658,11.2909205 L13.706658,8.71192051 C14.097658,8.32092051 14.097658,7.68792051 13.706658,7.29692051 L11.125658,4.71992051 C10.930658,4.52492051 10.674658,4.42792051 10.419658,4.42792051 C10.163658,4.42792051 9.90665797,4.52492051 9.71165797,4.72092051 Z"/>
</svg>
