<svg xmlns="http://www.w3.org/2000/svg" width="24" height="24" viewBox="0 0 24 24">
  <path fill="#6554C0" fill-rule="evenodd" d="M3,0 L21,0 C22.6568542,-3.04359188e-16 24,1.34314575 24,3 L24,21 C24,22.6568542 22.6568542,24 21,24 L3,24 C1.34314575,24 2.02906125e-16,22.6568542 0,21 L0,3 C-2.02906125e-16,1.34314575 1.34314575,3.04359188e-16 3,0 Z M8.58299998,7.00207568 L4.29299998,11.2890757 C3.90199998,11.6800757 3.90199998,12.3140757 4.29299998,12.7040757 L8.58399998,16.9890757 C8.97399998,17.3790757 9.60699998,17.3790757 9.99799998,16.9870757 C10.387,16.5970757 10.387,15.9640757 9.99699998,15.5730757 L6.41499998,11.9970757 L9.99699998,8.41607568 C10.387,8.02607568 10.387,7.39207568 9.99799998,7.00207568 C9.80199998,6.80607568 9.54599998,6.70907568 9.28999998,6.70907568 C9.03399998,6.70907568 8.77799998,6.80607568 8.58299998,7.00207568 Z M13.9935342,6.98947568 C13.6035342,7.37947568 13.6035342,8.01347568 13.9945342,8.40247568 L17.5855342,11.9894757 L13.9945342,15.5774757 C13.6035342,15.9684757 13.6035342,16.6014757 13.9935342,16.9924757 C14.3845342,17.3834757 15.0165342,17.3834757 15.4085342,16.9924757 L19.7065342,12.6964757 C20.0975342,12.3054757 20.0975342,11.6714757 19.7065342,11.2814757 L15.4075342,6.98847568 C15.2125342,6.79247568 14.9565342,6.69547568 14.7005342,6.69547568 C14.4445342,6.69547568 14.1885342,6.79347568 13.9935342,6.98947568 Z"/>
</svg>
