<svg xmlns="http://www.w3.org/2000/svg" width="16" height="16" viewBox="0 0 16 16">
  <path fill="#5E6C84" fill-rule="evenodd" d="M2,0 L14,0 C15.1045695,-2.02906125e-16 16,0.8954305 16,2 L16,14 C16,15.1045695 15.1045695,16 14,16 L2,16 C0.8954305,16 1.3527075e-16,15.1045695 0,14 L0,2 C-1.3527075e-16,0.8954305 0.8954305,2.02906125e-16 2,0 Z M6,3 L6,5 L8,5 L8,3 L6,3 Z M8,5 L8,7 L10,7 L10,5 L8,5 Z M6,7 L6,9 L8,9 L8,7 L6,7 Z M8,9 L8,11 L10,11 L10,9 L8,9 Z M5.69303742,11 L5.69303742,13 L7.69303742,13 L7.69303742,11 L5.69303742,11 Z"/>
</svg>
