<svg xmlns="http://www.w3.org/2000/svg" width="48" height="64" viewBox="0 0 48 64">
  <g fill="none" fill-rule="evenodd">
    <path fill="#FFF" stroke="#091E42" stroke-opacity=".08" d="M4,0.5 L32.007097,0.5 C32.9580806,0.5 33.8681235,0.886970896 34.5278649,1.57188773 L46.5207679,14.0224343 C47.1490066,14.6746463 47.5,15.5449725 47.5,16.4505466 L47.5,60 C47.5,61.9329966 45.9329966,63.5 44,63.5 L4,63.5 C2.06700338,63.5 0.5,61.9329966 0.5,60 L0.5,4 C0.5,2.06700338 2.06700338,0.5 4,0.5 Z"/>
    <path fill="#5E6C84" d="M20.5,21.5 L24,21.5 L24,25 L20.5,25 L20.5,21.5 Z M24,25 L27.5,25 L27.5,28.5 L24,28.5 L24,25 Z M20.5,28.5 L24,28.5 L24,32 L20.5,32 L20.5,28.5 Z M24,32 L27.5,32 L27.5,35.5 L24,35.5 L24,32 Z M20.5,35.5 L24,35.5 L24,39 L20.5,39 L20.5,35.5 Z M24,39 L27.5,39 L27.5,42.5 L24,42.5 L24,39 Z"/>
  </g>
</svg>
