<?xml version="1.0" encoding="UTF-8" standalone="no"?>
<svg width="24px" height="24px" viewBox="0 0 24 24" version="1.1" xmlns="http://www.w3.org/2000/svg" xmlns:xlink="http://www.w3.org/1999/xlink">
    <!-- Generator: Sketch 45.1 (43504) - http://www.bohemiancoding.com/sketch -->
    <title>bitbucket/branches</title>
    <desc>Created with Sketch.</desc>
    <defs></defs>
    <g id="Bitbucket" stroke="none" stroke-width="1" fill="none" fill-rule="evenodd">
        <g id="bitbucket/branches" fill="#42526E">
            <path d="M19,11 C19,12.3 18.2,13.4 17,13.8 L17,15 C17,17.2 15.2,19 13,19 L10.8,19 C10.4,20.2 9.3,21 8,21 C6.3,21 5,19.7 5,18 C5,16.7 5.8,15.6 7,15.2 L7,15 L7,9 L7,8.8 C5.9,8.4 5,7.3 5,6 C5,4.3 6.3,3 8,3 C9.7,3 11,4.3 11,6 C11,7.3 10.2,8.4 8.9,8.8 L8.9,9 L8.9,15 L8.9,15.2 C9.8,15.5 10.5,16.1 10.8,17 L13,17 C14.1,17 15,16.1 15,15 L15,13.8 C13.8,13.4 13,12.3 13,11 C13,9.3 14.3,8 16,8 C17.7,8 19,9.3 19,11 Z M8,5 C7.5,5 7,5.4 7,6 C7,6.6 7.4,7 8,7 C8.6,7 9,6.6 9,6 C9,5.4 8.6,5 8,5 Z M16,12 C16.6,12 17,11.6 17,11 C17,10.4 16.6,10 16,10 C15.4,10 15,10.4 15,11 C15,11.6 15.4,12 16,12 Z M8,19 C8.6,19 9,18.6 9,18 C9,17.4 8.6,17 8,17 C7.4,17 7,17.4 7,18 C7,18.6 7.4,19 8,19 Z" id="Combined-Shape"></path>
        </g>
    </g>
</svg>