<?xml version="1.0" encoding="UTF-8" standalone="no"?>
<svg width="24px" height="24px" viewBox="0 0 24 24" version="1.1" xmlns="http://www.w3.org/2000/svg" xmlns:xlink="http://www.w3.org/1999/xlink">
    <!-- Generator: Sketch 45.1 (43504) - http://www.bohemiancoding.com/sketch -->
    <title>bitbucket/compare</title>
    <desc>Created with Sketch.</desc>
    <defs></defs>
    <g id="Bitbucket" stroke="none" stroke-width="1" fill="none" fill-rule="evenodd">
        <g id="bitbucket/compare" fill-rule="nonzero" fill="#42526E">
            <path d="M10.0665748,16.4411124 C10.400752,17.359124 11.3731217,18.0406017 12.3469838,18.0406017 L18.5142596,18.0406017 C19.0643499,18.0406017 19.5102861,17.5967369 19.5102861,17.0406017 C19.5102861,16.4883169 19.0621895,16.0406017 18.5142596,16.0406017 L12.3469838,16.0406017 C12.2139633,16.0406017 11.991999,15.8847116 11.9458262,15.7567031 L11.1296341,13.4939092 L10.0665747,16.4411126 Z M7.94044182,10.5466925 L7.12424972,8.28389862 C7.07963305,8.16020429 6.85140916,8 6.72232676,8 L3.99751526,8 C3.45643033,8 3,7.55228475 3,7 C3,6.44386482 3.44660279,6 3.99751526,6 L6.72232676,6 C7.69205788,6 8.67076956,6.68558059 9.00350101,7.59948947 L7.94044182,10.5466925 Z" id="Combined-Shape"></path>
            <path d="M19.5102861,7 C19.5102861,6.44771525 19.0621895,6 18.5142596,6 L12.3469838,6 C11.3710708,6 10.3966564,6.68435107 10.064472,7.60529224 L7.12424972,15.7567031 C7.07963305,15.8803974 6.85140916,16.0406017 6.72232676,16.0406017 L3.99751526,16.0406017 C3.44660279,16.0406017 3,16.4844665 3,17.0406017 L3,17.0406017 C3,17.5928864 3.45643033,18.0406017 3.99751526,18.0406017 L6.72232676,18.0406017 C7.6941092,18.0406017 8.67491023,17.3521175 9.00560386,16.4353094 L11.9458262,8.28389862 C11.991999,8.15589005 12.2139633,8 12.3469838,8 L18.5142596,8 C19.0643499,8 19.5102861,7.55613518 19.5102861,7 L19.5102861,7 Z" id="Path-5-Copy"></path>
            <path d="M17.2928932,8.29289322 C16.9023689,8.68341751 16.9023689,9.31658249 17.2928932,9.70710678 C17.6834175,10.0976311 18.3165825,10.0976311 18.7071068,9.70710678 L20.7029531,7.71126044 C21.0957714,7.31844215 21.103674,6.68946043 20.7029531,6.28873956 L18.7071068,4.29289322 C18.3165825,3.90236893 17.6834175,3.90236893 17.2928932,4.29289322 C16.9023689,4.68341751 16.9023689,5.31658249 17.2928932,5.70710678 L18.5857864,7 L17.2928932,8.29289322 Z" id="Path-3"></path>
            <path d="M17.2928932,18.2928932 C16.9023689,18.6834175 16.9023689,19.3165825 17.2928932,19.7071068 C17.6834175,20.0976311 18.3165825,20.0976311 18.7071068,19.7071068 L20.7029531,17.7112604 C21.0957714,17.3184421 21.103674,16.6894604 20.7029531,16.2887396 L18.7071068,14.2928932 C18.3165825,13.9023689 17.6834175,13.9023689 17.2928932,14.2928932 C16.9023689,14.6834175 16.9023689,15.3165825 17.2928932,15.7071068 L18.5857864,17 L17.2928932,18.2928932 Z" id="Path-3"></path>
        </g>
    </g>
</svg>