<?xml version="1.0" encoding="UTF-8" standalone="no"?>
<svg width="24px" height="24px" viewBox="0 0 24 24" version="1.1" xmlns="http://www.w3.org/2000/svg" xmlns:xlink="http://www.w3.org/1999/xlink">
    <!-- Generator: Sketch 45.1 (43504) - http://www.bohemiancoding.com/sketch -->
    <title>bitbucket/pullrequests</title>
    <desc>Created with Sketch.</desc>
    <defs></defs>
    <g id="Bitbucket" stroke="none" stroke-width="1" fill="none" fill-rule="evenodd">
        <g id="bitbucket/pullrequests" fill="#42526E">
            <path d="M18,15.2 L18,11 C18,9.3 16.7,8 15,8 L13.1,8 L13.9,7.2 C14.2,6.9 14.2,6.4 13.9,6.1 C13.6,5.8 13.1,5.8 12.8,6.1 L10.5,8.4 C10.2,8.8 10.2,9.3 10.5,9.6 L12.8,11.9 C13,12.1 13.1,12.1 13.3,12.1 C13.5,12.1 13.7,12 13.9,11.8 C14.2,11.5 14.2,11 13.9,10.7 L13.2,10 L15,10 C15.6,10 16,10.4 16,11 L16,15.2 C14.8,15.6 14,16.7 14,18 C14,19.7 15.3,21 17,21 C18.7,21 20,19.7 20,18 C20,16.7 19.2,15.6 18,15.2 Z M17,19 C16.4,19 16,18.6 16,18 C16,17.4 16.4,17 17,17 C17.6,17 18,17.4 18,18 C18,18.6 17.6,19 17,19 Z" id="Shape"></path>
            <path d="M7,3 C5.4,3 4,4.3 4,6 C4,7.3 4.8,8.4 6,8.8 L6,20 C6,20.6 6.4,21 7,21 C7.6,21 8,20.6 8,20 L8,8.8 C9.2,8.4 10,7.3 10,6 C10,4.3 8.7,3 7,3 Z M7,7 C6.5,7 6,6.6 6,6 C6,5.4 6.4,5 7,5 C7.6,5 8,5.4 8,6 C8,6.6 7.6,7 7,7 Z" id="Shape"></path>
        </g>
    </g>
</svg>