<?xml version="1.0" encoding="UTF-8" standalone="no"?>
<svg width="24px" height="24px" viewBox="0 0 24 24" version="1.1" xmlns="http://www.w3.org/2000/svg" xmlns:xlink="http://www.w3.org/1999/xlink">
    <!-- Generator: Sketch 45.1 (43504) - http://www.bohemiancoding.com/sketch -->
    <title>bitbucket/repos</title>
    <desc>Created with Sketch.</desc>
    <defs></defs>
    <g id="Bitbucket" stroke="none" stroke-width="1" fill="none" fill-rule="evenodd">
        <g id="bitbucket/repos" fill="#42526E">
            <path d="M5,5 L5,19 L19,19 L19,5 L5,5 Z M5,3 L19,3 C20.1045695,3 21,3.8954305 21,5 L21,19 C21,20.1045695 20.1045695,21 19,21 L5,21 C3.8954305,21 3,20.1045695 3,19 L3,5 C3,3.8954305 3.8954305,3 5,3 Z" id="Rectangle-2-Copy" fill-rule="nonzero"></path>
            <path d="M9.2315,8.306 L6.3015,11.26 C5.8995,11.669 5.8995,12.33 6.3015,12.738 L9.2315,15.694 C9.4345,15.897 9.6995,15.999 9.9645,15.999 C10.2295,15.999 10.4945,15.897 10.6965,15.694 C11.1015,15.285 11.1015,14.624 10.6965,14.216 L8.4995,11.999 L10.6965,9.782 C11.1015,9.376 11.1015,8.713 10.6965,8.306 C10.4935,8.101 10.2295,8 9.9645,8 C9.6985,8 9.4345,8.101 9.2315,8.306 Z" id="Clip-2-Copy"></path>
            <path d="M13.3036972,8.3051102 C12.8987676,8.71366531 12.8987676,9.37508571 13.3036972,9.78259592 L15.5002589,11.9998694 L13.3036972,14.2171429 C12.8987676,14.6236082 12.8987676,15.2860735 13.3036972,15.6935837 C13.7075911,16.1021388 14.3631421,16.1021388 14.7680717,15.6935837 L17.6978563,12.7386122 C18.1007146,12.3300571 18.1007146,11.6696816 17.6978563,11.2611265 L14.7680717,8.3051102 C14.5650891,8.1013551 14.2999689,8 14.0348488,8 C13.7707643,8 13.5046085,8.1013551 13.3036972,8.3051102 Z" id="Clip-2-Copy-2"></path>
        </g>
    </g>
</svg>