<?xml version="1.0" encoding="UTF-8" standalone="no"?>
<svg width="24px" height="24px" viewBox="0 0 24 24" version="1.1" xmlns="http://www.w3.org/2000/svg" xmlns:xlink="http://www.w3.org/1999/xlink">
    <!-- Generator: Sketch 45.1 (43504) - http://www.bohemiancoding.com/sketch -->
    <title>bitbucket/source</title>
    <desc>Created with Sketch.</desc>
    <defs></defs>
    <g id="Bitbucket" stroke="none" stroke-width="1" fill="none" fill-rule="evenodd">
        <g id="bitbucket/source" fill="#42526E">
            <path d="M8.85175048,6.743 L4.29375048,11.291 C3.90275048,11.682 3.90175048,12.314 4.29275048,12.706 L4.29375048,12.707 L8.85175048,17.256 C9.26375048,17.668 9.92975048,17.667 10.3407505,17.256 C10.7507505,16.846 10.7507505,16.18 10.3407505,15.77 C10.3407505,15.77 10.3407505,15.769 10.3397505,15.769 L6.56475048,11.999 L10.3397505,8.231 C10.7507505,7.822 10.7507505,7.156 10.3417505,6.745 C10.3407505,6.744 10.3407505,6.744 10.3407505,6.744 C10.1347505,6.538 9.86575048,6.436 9.59675048,6.436 C9.32675048,6.436 9.05775048,6.538 8.85175048,6.743 Z" id="Clip-2"></path>
            <path d="M13.6582504,6.744 C13.2472504,7.155 13.2472504,7.82 13.6582504,8.23 C13.6582504,8.231 13.6582504,8.231 13.6582504,8.231 L17.4352504,12 L13.6592504,15.769 C13.2482504,16.179 13.2472504,16.844 13.6572504,17.255 C13.6572504,17.255 13.6582504,17.255 13.6582504,17.256 C14.0702504,17.667 14.7362504,17.668 15.1472504,17.256 L19.7052504,12.709 C20.0962504,12.319 20.0962504,11.685 19.7062504,11.295 C19.7062504,11.294 19.7062504,11.294 19.7052504,11.293 L15.1472504,6.743 C14.9422504,6.538 14.6722504,6.436 14.4032504,6.436 C14.1342504,6.436 13.8642504,6.538 13.6582504,6.744 Z" id="Clip-2"></path>
        </g>
    </g>
</svg>