<svg preserveAspectRatio="none" width="100%" height="100%" overflow="visible" style="display: block;" viewBox="0 0 15 12" fill="none" xmlns="http://www.w3.org/2000/svg">
<g id="Vector">
<path id="Vector_2" d="M11.7653 6.59076C11.8182 6.29287 11.8462 5.97578 11.8462 5.64123C11.8462 5.30669 11.8182 4.98029 11.7635 4.67891C11.4412 2.88342 10.1938 1.7768 8.44485 1.49229C8.14638 1.444 7.83336 1.41898 7.50813 1.41898C7.18289 1.41898 6.84253 1.44574 6.53242 1.49753C4.78231 1.7896 3.53722 2.89331 3.21431 4.67891C3.15962 4.98087 3.13111 5.30145 3.13111 5.64123C3.13111 5.98102 3.15904 6.29287 3.21256 6.59076C3.53314 8.37404 4.7794 9.47949 6.53242 9.77214C6.84253 9.82393 7.16834 9.85069 7.50813 9.85069C7.84791 9.85069 8.14638 9.82567 8.44485 9.77738C10.1967 9.49229 11.4453 8.38393 11.7653 6.59076Z" fill="var(--fill-0, #FCA700)"/>
<path id="Vector_3" d="M6.07054 10.2731C6.02923 11.4304 6.60814 11.8714 7.50356 11.8714C8.34429 11.8714 8.90923 11.4304 8.90923 10.2731V8.95009H6.07054V10.2731Z" fill="var(--fill-0, #1868DB)"/>
<path id="Vector_4" d="M6.07045 8.95009V9.67271C6.21998 9.71227 6.37416 9.74543 6.53242 9.7722C6.84253 9.82398 7.16835 9.85074 7.50813 9.85074C7.84791 9.85074 8.14638 9.82572 8.44485 9.77743C8.60369 9.75183 8.75845 9.71867 8.90915 9.67969V8.95009H6.07045Z" fill="var(--fill-0, #09326C)"/>
<path id="Vector_5" d="M1.92164 5.9211C1.68833 5.90655 1.45502 5.88793 1.22287 5.86292C1.22287 5.86292 1.14782 5.8507 1.02796 5.83208C0.908692 5.81172 0.744037 5.78262 0.569492 5.73841C0.482219 5.7163 0.392619 5.69012 0.308255 5.65521C0.266946 5.63775 0.226219 5.61797 0.192474 5.59412C0.15931 5.57026 0.13371 5.54175 0.132546 5.51732C0.128474 5.49346 0.145928 5.45913 0.171528 5.43121C0.196546 5.40212 0.226801 5.37652 0.257055 5.35382C0.318146 5.30786 0.379819 5.27121 0.431601 5.24153C0.705055 5.11295 0.999455 5.02859 1.29386 4.9547C1.58942 4.88197 1.88906 4.82553 2.18986 4.77899C2.18986 4.77899 2.37778 4.74582 2.5948 4.71266C2.81182 4.67892 3.05851 4.64575 3.17255 4.62539C3.31393 4.59921 3.40527 4.5771 3.42389 4.56081C3.44309 4.54452 3.38724 4.53579 3.2348 4.53986C3.08236 4.54568 2.83218 4.56372 2.46564 4.61957C2.45633 4.61957 2.42666 4.62132 2.42258 4.61957C2.03567 4.6859 1.65633 4.75106 1.27756 4.8395C1.08847 4.8843 0.899383 4.93433 0.711455 4.99833C0.617783 5.03033 0.523528 5.06524 0.431019 5.10772C0.33851 5.15077 0.246001 5.19673 0.156983 5.26422C0.170946 5.26422 0.151746 5.2875 0.127892 5.30088L0.128474 5.28633C0.0999645 5.31193 0.072619 5.34044 0.0481827 5.37361C0.0249099 5.40968 0.0010554 5.45273 -0.000108236 5.51033C-0.00127187 5.56852 0.027819 5.61797 0.0545826 5.64764C0.0825099 5.67848 0.111601 5.70117 0.139528 5.71862C0.252401 5.78728 0.357128 5.81928 0.461274 5.8507C0.669564 5.90946 0.873201 5.94553 1.11756 5.96299C1.11698 5.96299 1.06055 5.96881 1.05938 5.96881C1.88731 6.08692 2.86476 6.14277 3.85909 6.18233C4.854 6.22015 5.86636 6.23295 6.76469 6.22888L6.75538 6.22713L6.75946 6.22539C6.67567 6.21957 6.43538 6.21201 6.21546 6.20444C5.99553 6.19746 5.79596 6.19048 5.79596 6.19048C6.39407 6.14626 7.07422 6.20386 7.71073 6.19921L7.70607 6.21317C7.43087 6.21375 7.18593 6.21957 7.08818 6.22539C7.58215 6.23644 8.32571 6.23935 9.06346 6.21957C9.8012 6.20095 10.5337 6.15964 11.0056 6.11775C10.98 6.10902 10.6891 6.14975 10.6128 6.12008C10.8549 6.10612 11.0963 6.08575 11.3244 6.06946C11.3261 6.09157 11.1941 6.09332 11.1679 6.09913C11.2668 6.09739 11.844 6.06888 12.6207 5.98452C13.0093 5.94088 13.448 5.88444 13.8995 5.79019C14.0124 5.76633 14.1259 5.73957 14.2399 5.70757C14.3533 5.67557 14.4674 5.63892 14.5797 5.58772C14.6355 5.56153 14.692 5.53244 14.7467 5.48764C14.7734 5.46553 14.8013 5.43819 14.8223 5.39804C14.8444 5.35964 14.8531 5.30146 14.838 5.25375C14.8235 5.20488 14.7955 5.17521 14.7699 5.14786C14.7432 5.12284 14.7158 5.10306 14.6885 5.08502C14.6338 5.05012 14.5779 5.02568 14.5232 5.00241C14.3021 4.91397 14.0822 4.86452 13.8704 4.81913C13.6587 4.7755 13.455 4.74233 13.2636 4.71499C12.8813 4.6603 12.5503 4.62772 12.3053 4.60793C11.8155 4.57012 11.6729 4.57593 12.1494 4.64284L12.1 4.64982C12.5928 4.70335 13.0018 4.75397 13.5062 4.86044C13.5784 4.87092 13.5859 4.87499 13.5877 4.86335C13.6069 4.8651 13.6395 4.86742 13.6319 4.86102C13.6296 4.83193 13.7861 4.87266 13.8559 4.88662C13.8303 4.90408 13.9158 4.93201 14.0595 4.97157C14.2015 5.01404 14.408 5.06117 14.5989 5.15717C14.6448 5.18219 14.692 5.21128 14.7205 5.25026C14.7507 5.28808 14.7496 5.33521 14.717 5.37419C14.6873 5.41375 14.6425 5.44284 14.5995 5.46902C14.5558 5.49462 14.511 5.51557 14.4685 5.53419C14.2957 5.6075 14.1515 5.64532 14.0973 5.65928C14.0712 5.64473 13.9641 5.67092 13.846 5.69826C13.7279 5.72561 13.5981 5.75528 13.5301 5.75819C13.5394 5.75528 13.5964 5.73492 13.604 5.73259C13.5725 5.73142 13.4283 5.75761 13.2363 5.78844C13.0443 5.81986 12.8045 5.85652 12.5852 5.88619C12.1465 5.94495 11.7922 5.97928 12.0732 5.92866C10.8968 5.99906 9.24266 6.08052 7.56236 6.08924C5.88207 6.09797 4.1756 6.0747 2.90782 5.96415L2.92644 5.96997C2.90607 5.96764 2.84382 5.9659 2.82927 5.9595C2.7036 5.96066 2.47611 5.95368 2.28004 5.94379C2.08396 5.93448 1.91989 5.92226 1.91989 5.92226L1.92164 5.9211ZM7.75553 6.14044C7.75553 6.14044 7.75844 6.13812 7.75669 6.13753C7.75669 6.1387 7.77764 6.13928 7.80847 6.13928C7.83931 6.13928 7.88062 6.13928 7.92251 6.13928C8.00571 6.1387 8.09066 6.13753 8.09706 6.13753L8.09473 6.1515C7.76484 6.18233 7.00033 6.08866 7.72469 6.12764C7.74913 6.12415 7.74971 6.13579 7.75436 6.14044H7.75553ZM10.6623 6.05492C10.7187 6.05259 10.7804 6.05026 10.8485 6.04735C10.0985 6.1387 9.078 6.12066 8.25124 6.15033C8.53225 6.08633 9.20542 6.10379 9.56149 6.09332C9.91931 6.06713 10.344 6.06422 10.6617 6.05492H10.6623ZM14.2731 5.00532L14.269 5.01172L14.244 5.00415C14.244 5.00415 14.248 5.00124 14.2539 5.00182C14.2585 5.00182 14.2672 5.00299 14.2731 5.00532ZM2.31786 5.98568C2.37429 5.9787 2.58316 5.99964 2.44236 6.01186C2.40629 6.00604 2.30215 6.00837 2.31786 5.98568ZM11.5129 6.01419C11.5112 5.99208 11.7858 5.96473 11.7893 5.99557C11.695 6.0043 11.6031 6.00953 11.5129 6.01419ZM0.289055 5.69128C0.212837 5.68313 0.243092 5.66626 0.22971 5.64241C0.24251 5.65521 0.301855 5.68255 0.284983 5.68721L0.289055 5.69128ZM0.924983 5.01288C0.939528 4.99601 1.00702 4.96692 1.04018 4.95761C1.12804 4.94132 0.96571 5.01055 0.924983 5.01288ZM3.01836 4.61782C3.02011 4.60444 3.07015 4.59455 3.08527 4.60619C3.08062 4.61608 3.02011 4.63062 3.01022 4.61608C3.01022 4.61608 3.01313 4.61782 3.01836 4.61782ZM12.7923 5.93681C12.7231 5.98568 12.4671 5.98277 12.3327 6.00721C12.3589 5.96532 12.6038 5.96764 12.7062 5.94786C12.7423 5.94379 12.7702 5.93972 12.7923 5.93622V5.93681ZM4.40542 6.16022C4.40775 6.19572 4.1244 6.15906 4.03015 6.16313L4.03189 6.14917C4.17211 6.15033 4.25647 6.14393 4.3996 6.15964H4.40542V6.16022ZM10.2172 6.15557C10.1648 6.17186 10.0741 6.16313 10.02 6.16546C10.02 6.14568 10.2515 6.13172 10.2178 6.15557H10.2172ZM7.85909 6.21259C7.84746 6.19106 7.96324 6.20095 7.9964 6.19862C7.97313 6.20328 7.93066 6.21724 7.90273 6.21724C7.88353 6.21724 7.87887 6.21492 7.85909 6.21317V6.21259ZM4.50898 6.14917C4.6172 6.15208 4.73531 6.15557 4.84818 6.15848L4.84411 6.17244C4.72949 6.16953 4.6172 6.16604 4.50549 6.16313L4.50898 6.14917ZM5.61269 6.19397V6.20793C5.45211 6.21841 5.43407 6.18292 5.60862 6.19397H5.61269ZM3.08295 6.10961C3.09924 6.11077 3.12542 6.11368 3.14113 6.11426C3.3692 6.12415 3.04687 6.15848 3.08295 6.10961ZM1.89022 6.04037C1.86753 6.04037 1.83727 6.04153 1.81226 6.03862C1.65167 6.02175 1.83262 6.00546 1.89022 6.04037Z" fill="var(--fill-0, #101214)"/>
<path id="Vector_6" d="M3.98536 9.5872C3.80383 9.74604 3.61997 9.90197 3.43205 10.0532C3.43205 10.0532 3.36863 10.0992 3.26797 10.1731C3.16616 10.2458 3.02594 10.3459 2.86826 10.4454C2.78914 10.4948 2.70594 10.5449 2.62099 10.5891C2.53605 10.6321 2.44761 10.6729 2.36557 10.6868C2.32485 10.6938 2.28761 10.6897 2.26957 10.674C2.25096 10.6601 2.24165 10.6234 2.24165 10.5868C2.24048 10.5129 2.25852 10.4401 2.27248 10.3808C2.32194 10.2342 2.39059 10.0928 2.4639 9.95433C2.53779 9.81586 2.6175 9.68088 2.7007 9.54764C2.86768 9.28175 3.04746 9.02342 3.23481 8.77149C3.23481 8.77149 3.34885 8.61091 3.48383 8.4288C3.61823 8.24611 3.77416 8.04248 3.84223 7.94473C3.92601 7.82255 3.97663 7.73993 3.97896 7.71491C3.98128 7.6899 3.93474 7.72364 3.8271 7.83884C3.72005 7.95404 3.55248 8.15011 3.32441 8.45731C3.31743 8.46371 3.29706 8.48699 3.29299 8.48873C3.05794 8.81746 2.82521 9.1392 2.60994 9.47666C2.5023 9.64539 2.39816 9.81819 2.30565 10.0009C2.25968 10.0922 2.21605 10.1865 2.17881 10.286C2.16019 10.336 2.14332 10.3872 2.13052 10.4419C2.11888 10.4972 2.10666 10.553 2.1119 10.6223C2.11946 10.6077 2.12761 10.6426 2.13343 10.6793L2.12005 10.6688C2.12237 10.6804 2.12936 10.695 2.13459 10.7078C2.13925 10.7206 2.14797 10.734 2.15845 10.7468C2.16776 10.7596 2.17881 10.7712 2.19219 10.7805C2.20441 10.791 2.21779 10.798 2.23176 10.8038C2.28645 10.8265 2.33241 10.8236 2.37197 10.8201C2.44994 10.809 2.51045 10.7857 2.56863 10.7619C2.68325 10.713 2.78157 10.6583 2.87641 10.6019C3.06492 10.4879 3.23888 10.3645 3.42914 10.1993C3.42914 10.1999 3.3919 10.2447 3.39074 10.2452C4.07845 9.72684 4.83714 9.06124 5.59408 8.3683C6.34986 7.67419 7.09983 6.9475 7.75205 6.28888L7.74448 6.29411L7.74623 6.29004C7.68165 6.34706 7.50012 6.51695 7.3343 6.67171C7.16848 6.82648 7.01837 6.9667 7.01837 6.96728C7.4239 6.50066 7.96092 6.04626 8.42055 5.57673L8.42695 5.58953C8.22739 5.79142 8.05343 5.97411 7.98594 6.04975C8.35365 5.69717 8.89532 5.15433 9.41663 4.59986C9.93852 4.04597 10.4389 3.47928 10.7496 3.10168C10.7251 3.11448 10.5442 3.35709 10.4674 3.392C10.6326 3.20408 10.792 3.01208 10.9451 2.8323C10.9619 2.84684 10.8683 2.94517 10.8537 2.96844C10.9235 2.89397 11.3209 2.45004 11.8155 1.81295C11.9388 1.65295 12.0674 1.48073 12.1954 1.29688C12.3234 1.11244 12.4526 0.918113 12.5666 0.70575C12.623 0.598695 12.6777 0.489313 12.7138 0.363641C12.7219 0.331641 12.7301 0.299059 12.7336 0.262404C12.7376 0.226913 12.7376 0.186768 12.7254 0.14255C12.7144 0.0977496 12.6783 0.0494588 12.6323 0.0256042C12.587 0.00291331 12.5433 -0.000577525 12.5055 4.29337e-06C12.4299 0.00291338 12.367 0.0221133 12.3059 0.0430587C12.2448 0.0640042 12.189 0.0896043 12.1331 0.116368C12.022 0.169895 11.9179 0.229823 11.816 0.292077C11.4117 0.542259 11.0527 0.817459 10.7403 1.06357C10.429 1.31084 10.1678 1.5331 9.9775 1.70008C9.59874 2.03579 9.49925 2.14459 9.89023 1.83971L9.85939 1.88102C10.2521 1.55346 10.582 1.28699 11.0178 0.981532C11.0766 0.934986 11.0847 0.931495 11.0777 0.922186C11.0928 0.908804 11.1173 0.886113 11.1074 0.887277C11.0841 0.869822 11.2243 0.779059 11.2837 0.736004C11.275 0.798841 11.6037 0.548659 11.9894 0.31535C12.086 0.25775 12.1867 0.201895 12.2879 0.157677C12.3385 0.136732 12.3891 0.116368 12.4398 0.105313C12.4892 0.0942587 12.541 0.0884405 12.5823 0.105313C12.6254 0.120441 12.644 0.165241 12.6475 0.205386C12.651 0.246695 12.6446 0.285677 12.6376 0.318841C12.6224 0.386332 12.6032 0.435786 12.5922 0.46255C12.5648 0.475931 12.52 0.578331 12.4619 0.689459C12.4043 0.800004 12.3368 0.919859 12.292 0.973386C12.296 0.964077 12.3205 0.907059 12.324 0.899495C12.3024 0.922768 12.2222 1.05077 12.1099 1.21717C11.9982 1.38357 11.8544 1.58837 11.7195 1.77164C11.4489 2.13877 11.2179 2.42444 11.3838 2.18124C10.5902 3.10168 9.44979 4.37179 8.23495 5.60699C7.02012 6.8416 5.75234 8.06226 4.74405 8.90182L4.76208 8.89251C4.74521 8.90531 4.69866 8.94953 4.68296 8.95535C4.59161 9.04728 4.41939 9.2067 4.2687 9.34168C4.11801 9.47666 3.98885 9.5872 3.98885 9.5872H3.98536ZM8.40775 5.504C8.40775 5.504 8.40834 5.50051 8.40659 5.5011C8.40776 5.5011 8.42288 5.48713 8.44557 5.46444C8.46826 5.44175 8.49794 5.41149 8.52819 5.38066C8.58812 5.31899 8.64921 5.25673 8.65386 5.25149L8.66201 5.26255C8.44441 5.52611 7.82186 6.01891 8.37634 5.5168C8.39146 5.49644 8.40019 5.504 8.40717 5.504H8.40775ZM10.4534 3.3123C10.493 3.26924 10.5355 3.22211 10.5826 3.16975C10.1061 3.78589 9.35379 4.52189 8.7743 5.14793C8.93314 4.89717 9.43408 4.416 9.68426 4.1472C9.92455 3.86619 10.23 3.55259 10.4528 3.31171L10.4534 3.3123ZM11.6566 0.493968L11.659 0.50095L11.6363 0.516077C11.6363 0.516077 11.6363 0.510841 11.6409 0.506768C11.6438 0.503277 11.6508 0.496877 11.6566 0.493968ZM4.32165 9.34633C4.35772 9.30095 4.52645 9.16422 4.43161 9.27477C4.40077 9.2963 4.3263 9.37368 4.32165 9.34633ZM11.0387 2.65659C11.0213 2.64204 11.1999 2.42037 11.2243 2.43957C11.1627 2.5152 11.1004 2.58677 11.0387 2.65659ZM2.63612 10.6281C2.57968 10.6833 2.58666 10.6484 2.55816 10.6455C2.57677 10.6415 2.63845 10.6124 2.6303 10.6287H2.63612V10.6281ZM2.4703 9.85775C2.46914 9.83506 2.49881 9.76524 2.51685 9.7344C2.57037 9.65877 2.49881 9.82633 2.4703 9.85775ZM3.7247 8.05411C3.71656 8.04306 3.74565 7.99942 3.76543 7.9971C3.7695 8.00757 3.73517 8.06226 3.71772 8.05935C3.7183 8.05935 3.72121 8.05819 3.7247 8.0547V8.05411ZM11.8992 1.65411C11.8853 1.74022 11.7003 1.92873 11.6217 2.0451C11.6101 1.9968 11.7875 1.81586 11.8463 1.72568C11.869 1.696 11.8864 1.67215 11.8992 1.65353V1.65411ZM5.97576 7.95753C6.00252 7.9808 5.76921 8.16059 5.70288 8.23157L5.69474 8.22051C5.7983 8.11928 5.8559 8.05411 5.97168 7.9616L5.97634 7.95753H5.97576ZM10.2032 3.70968C10.1771 3.75971 10.1049 3.82022 10.0677 3.86153C10.0537 3.84757 10.2114 3.66779 10.2038 3.7091L10.2032 3.70968ZM8.53401 5.4784C8.51015 5.472 8.6015 5.39404 8.62361 5.36786C8.60965 5.38822 8.5887 5.42895 8.56892 5.44931C8.55495 5.46328 8.54972 5.46502 8.53401 5.4784ZM6.04441 7.87433C6.12586 7.79753 6.21488 7.71433 6.29925 7.63462L6.30623 7.64742C6.22012 7.7283 6.13575 7.808 6.05197 7.88655L6.04499 7.87433H6.04441ZM6.88397 7.104L6.89328 7.1139C6.78332 7.23782 6.7455 7.2256 6.88106 7.10691L6.88397 7.104ZM4.97096 8.8803C4.98376 8.86924 5.00528 8.85237 5.01692 8.84131C5.19146 8.68306 4.9791 8.9408 4.97096 8.8803ZM4.04703 9.69426C4.03074 9.71055 4.00863 9.73382 3.98885 9.74953C3.8591 9.85368 3.98012 9.71113 4.04703 9.69426Z" fill="var(--fill-0, #101214)"/>
<path id="Vector_7" d="M10.4347 9.29332C10.6203 9.4347 10.8071 9.57434 10.9973 9.7099C10.9973 9.7099 11.0578 9.75586 11.1538 9.82975C11.251 9.90248 11.3854 10.002 11.5361 10.1044C11.6874 10.2068 11.8543 10.3127 12.0173 10.3982C12.1796 10.4826 12.339 10.5489 12.4693 10.557C12.5089 10.5617 12.5531 10.5634 12.5967 10.5448C12.6415 10.5268 12.673 10.4791 12.6794 10.436C12.6927 10.3487 12.6689 10.2714 12.6445 10.1975C12.5927 10.0503 12.5194 9.91528 12.4437 9.78263C12.2901 9.51848 12.1162 9.2683 11.9375 9.02219C11.9375 9.02219 11.8229 8.87034 11.6845 8.70044C11.5466 8.53055 11.3848 8.34263 11.3045 8.26117C11.2045 8.15935 11.1335 8.09885 11.1096 8.09245C11.0858 8.08663 11.1096 8.13666 11.1992 8.25826C11.2877 8.37986 11.4413 8.57244 11.6676 8.8587C11.6717 8.86684 11.6879 8.89128 11.6885 8.89535C11.93 9.19557 12.1499 9.5051 12.3378 9.83092C12.3844 9.91237 12.4286 9.99499 12.467 10.0794C12.506 10.1626 12.5397 10.2492 12.5566 10.3301C12.5642 10.3691 12.5647 10.4092 12.5578 10.4238C12.5543 10.4308 12.5537 10.4302 12.5508 10.4325C12.5479 10.4348 12.5368 10.4372 12.5234 10.4383C12.4594 10.4407 12.3663 10.4098 12.2826 10.3743C12.2884 10.386 12.2628 10.3825 12.243 10.3691L12.2546 10.3627C12.0213 10.2667 11.8433 10.1463 11.6728 10.0328C11.5023 9.91703 11.3383 9.80125 11.1358 9.67266C11.1364 9.67266 11.1876 9.69419 11.1887 9.69477C9.86918 8.72081 8.23893 7.19121 6.96649 5.94728L6.97173 5.95485L6.96765 5.9531C7.02234 6.01535 7.18758 6.18815 7.33943 6.34408C7.49245 6.49943 7.63093 6.64023 7.63093 6.64023C7.1678 6.26612 6.72794 5.75063 6.28343 5.30263L6.29623 5.29623C6.48707 5.49114 6.66278 5.6587 6.73551 5.72328C6.39631 5.37012 5.88663 4.8395 5.37987 4.31237C4.87543 3.7835 4.38147 3.2523 4.06263 2.90961C4.07136 2.93521 4.2814 3.13535 4.30583 3.21274C4.14409 3.03528 3.98118 2.85957 3.83223 2.68852C3.84911 2.67397 3.9294 2.77695 3.94976 2.79383C3.891 2.71528 3.51107 2.28765 3.03631 1.68139C2.9182 1.52954 2.79485 1.36605 2.67383 1.1915C2.55456 1.01754 2.43122 0.831936 2.34162 0.635864C2.32009 0.586991 2.30147 0.536955 2.28983 0.489245C2.27762 0.4427 2.27936 0.394409 2.28925 0.382773C2.29216 0.376954 2.30147 0.3723 2.31427 0.3659C2.33056 0.361827 2.35034 0.358336 2.37362 0.358918C2.41958 0.358918 2.47194 0.368809 2.52373 0.382191C2.7326 0.438627 2.93798 0.543355 3.13231 0.649245C3.52213 0.865682 3.87645 1.11237 4.18307 1.33579C4.48911 1.55979 4.74627 1.76401 4.93536 1.9147C5.12445 2.06597 5.24663 2.1643 5.2798 2.18175C5.31238 2.19979 5.25653 2.13637 5.08256 1.97346L5.12678 1.99615C4.75442 1.67441 4.43907 1.41608 4.03471 1.09899C3.9742 1.05826 3.96896 1.05186 3.96256 1.06117C3.94569 1.05128 3.91776 1.03557 3.92183 1.0443C3.91194 1.07165 3.78743 0.970991 3.72809 0.933173C3.78685 0.9227 3.46162 0.689391 3.06831 0.492155C2.87165 0.395573 2.65813 0.305391 2.46962 0.2763C2.37769 0.262918 2.28227 0.266991 2.23165 0.320518C2.20838 0.347282 2.20082 0.378118 2.19965 0.402554C2.19791 0.427573 2.19965 0.447355 2.2014 0.461318C2.19209 0.473536 2.19267 0.508446 2.20373 0.553827C2.21478 0.599209 2.23747 0.6539 2.26482 0.708591C2.31951 0.818555 2.39282 0.928518 2.42133 0.990191C2.41493 0.982627 2.37536 0.936664 2.37071 0.930264C2.3806 0.959936 2.45682 1.08735 2.57027 1.24503C2.68314 1.40386 2.83267 1.59354 2.97231 1.76401C3.25216 2.10379 3.4878 2.36794 3.28533 2.16837C4.00154 3.09928 5.13027 4.30306 6.30787 5.48648C7.48198 6.67455 8.72184 7.82946 9.65914 8.68357L9.64809 8.66728C9.66264 8.68183 9.71093 8.72023 9.71907 8.73477C9.81914 8.80983 9.9966 8.95121 10.1508 9.07165C10.305 9.19208 10.4347 9.29332 10.4347 9.29332ZM6.21303 5.3131C6.21303 5.3131 6.20954 5.31252 6.21013 5.31426C6.21013 5.3131 6.19674 5.29797 6.17522 5.27586C6.15369 5.25375 6.12518 5.22466 6.09609 5.19441C6.03849 5.13506 5.97914 5.07514 5.97507 5.07048L5.98671 5.06234C6.23398 5.27819 6.70176 5.88386 6.22467 5.34335C6.20547 5.32823 6.21303 5.32008 6.21303 5.3131ZM4.22787 3.21623C4.19122 3.17375 4.15107 3.12721 4.10685 3.07601C4.63747 3.6043 5.29143 4.37637 5.87965 4.95121C5.63994 4.79412 5.20009 4.28852 4.96096 4.02786C4.70671 3.77826 4.43267 3.45652 4.22787 3.21623ZM3.37493 0.689391L3.38016 0.684154L3.40285 0.697536C3.40285 0.697536 3.3982 0.699282 3.39296 0.697536C3.38831 0.696373 3.38016 0.692882 3.37551 0.689391H3.37493ZM10.1473 9.01579C10.0973 8.98903 9.94191 8.84997 10.0618 8.92212C10.0868 8.9483 10.1729 9.00648 10.1473 9.01579ZM3.67922 2.57215C3.66176 2.58728 3.47965 2.3819 3.50351 2.36095C3.5646 2.43194 3.6222 2.50292 3.67922 2.57215ZM11.7973 10.2242C11.8718 10.2417 11.8398 10.2539 11.8526 10.2795C11.8386 10.2673 11.7828 10.2306 11.8008 10.2289L11.7973 10.2242ZM12.5758 10.1323C12.5583 10.1195 12.5217 10.0578 12.506 10.0282C12.4751 9.94554 12.5717 10.091 12.5758 10.1323ZM11.3837 8.39266C11.3714 8.39848 11.3359 8.36241 11.3377 8.34321C11.3487 8.34088 11.3935 8.38394 11.3866 8.40023C11.3866 8.39965 11.3866 8.39674 11.3837 8.39266ZM2.91122 1.56212C2.98685 1.59645 3.11602 1.81288 3.20969 1.91005C3.15965 1.91179 3.03165 1.70583 2.96416 1.62903C2.94205 1.6011 2.9246 1.57899 2.91122 1.56212ZM8.63514 7.58917C8.65667 7.56125 8.84518 7.77186 8.91965 7.82888L8.90918 7.83819C8.80387 7.74743 8.73638 7.69797 8.63922 7.59325L8.63514 7.58917ZM4.58511 3.49375C4.63107 3.52285 4.68169 3.5979 4.71834 3.63688C4.70322 3.65026 4.54496 3.48328 4.58453 3.49317L4.58511 3.49375ZM6.19267 5.18917C6.18511 5.21245 6.11238 5.12285 6.08794 5.10132C6.10714 5.1147 6.14671 5.13565 6.16533 5.15543C6.17813 5.16939 6.17987 5.17463 6.19267 5.18917ZM8.5502 7.52925C8.47107 7.45652 8.38554 7.37681 8.30409 7.30001L8.31631 7.29245C8.39951 7.36983 8.48096 7.44605 8.56183 7.5211L8.5502 7.52925ZM7.76823 6.76299L7.77813 6.7531C7.90147 6.85317 7.89042 6.89157 7.77114 6.7659L7.76823 6.76299ZM9.61376 8.4619C9.60213 8.45085 9.58293 8.43281 9.57129 8.42234C9.40023 8.27514 9.67194 8.44503 9.61376 8.4619ZM10.5272 9.21128C10.5458 9.2235 10.5714 9.23921 10.5906 9.25492C10.714 9.35557 10.5551 9.27179 10.5272 9.21128Z" fill="var(--fill-0, #101214)"/>
</g>
</svg>
