<svg xmlns="http://www.w3.org/2000/svg" width="16" height="16" viewBox="0 0 16 16">
  <path fill="#CA5010" fill-rule="evenodd" d="M2,0 L14,0 C15.1045695,-2.02906125e-16 16,0.8954305 16,2 L16,14 C16,15.1045695 15.1045695,16 14,16 L2,16 C0.8954305,16 1.3527075e-16,15.1045695 0,14 L0,2 C-1.3527075e-16,0.8954305 0.8954305,2.02906125e-16 2,0 Z M3.23501729,4.25823992 C3.10019612,4.27737321 3,4.39279273 3,4.52896479 L3,11.4976936 C3,11.634241 3.10073437,11.749858 3.23599559,11.7685555 L10.1891206,12.7297031 C10.2015275,12.7314181 10.2140376,12.7322787 10.2265625,12.7322787 C10.3775779,12.7322787 10.5,12.6098565 10.5,12.4588412 L10.5,3.54220465 C10.5,3.52935007 10.4990935,3.51651149 10.4972874,3.50378444 C10.4760685,3.35426722 10.3376595,3.25026089 10.1881423,3.27147978 L3.23501729,4.25823992 Z M11.125,4.875 L11.125,11.125 L12.6875,11.125 C12.860089,11.125 13,10.985089 13,10.8125 L13,5.1875 C13,5.01491102 12.860089,4.875 12.6875,4.875 L11.125,4.875 Z M5.3126955,6.07246113 L7.07636738,6.07246113 C7.94648457,6.07246113 8.54121113,6.65546894 8.54121113,7.53437519 C8.54121113,8.40449238 7.92304707,8.98750019 7.03242207,8.98750019 L6.19746113,8.98750019 L6.19746113,10.3000002 L5.3126955,10.3000002 L5.3126955,6.07246113 Z M6.19746113,6.79902363 L6.19746113,8.26972675 L6.83906269,8.26972675 C7.34589863,8.26972675 7.64179707,8.01191425 7.64179707,7.53730488 C7.64179707,7.05683613 7.351758,6.79902363 6.84199238,6.79902363 L6.19746113,6.79902363 Z"/>
</svg>
