<svg xmlns="http://www.w3.org/2000/svg" width="48" height="64" viewBox="0 0 48 64">
  <g fill="none" fill-rule="evenodd">
    <path fill="#FFF" stroke="#091E42" stroke-opacity=".08" d="M4,0.5 L32.007097,0.5 C32.9580806,0.5 33.8681235,0.886970896 34.5278649,1.57188773 L46.5207679,14.0224343 C47.1490066,14.6746463 47.5,15.5449725 47.5,16.4505466 L47.5,60 C47.5,61.9329966 45.9329966,63.5 44,63.5 L4,63.5 C2.06700338,63.5 0.5,61.9329966 0.5,60 L0.5,4 C0.5,2.06700338 2.06700338,0.5 4,0.5 Z"/>
    <path fill="#CA5010" d="M15.0426943,25.0242753 L28.1676943,23.1616269 C28.4069219,23.1276767 28.6283762,23.2940868 28.6623265,23.5333143 C28.6652163,23.5536776 28.6666667,23.5742194 28.6666667,23.5947867 L28.6666667,40.4068597 C28.6666667,40.6484843 28.4707912,40.8443597 28.2291667,40.8443597 C28.2091268,40.8443597 28.1891107,40.8429828 28.1692596,40.8402387 L15.0442596,39.0259377 C14.8278417,38.9960217 14.6666667,38.8110345 14.6666667,38.5925587 L14.6666667,25.457435 C14.6666667,25.2395597 14.8269805,25.0548885 15.0426943,25.0242753 Z M29.8333333,26.1666667 L32.8333333,26.1666667 C33.1094757,26.1666667 33.3333333,26.3905243 33.3333333,26.6666667 L33.3333333,37.3333333 C33.3333333,37.6094757 33.1094757,37.8333333 32.8333333,37.8333333 L29.8333333,37.8333333 L29.8333333,26.1666667 Z M19.1635742,27.8631185 L19.1635742,36.0833333 L20.8839518,36.0833333 L20.8839518,33.53125 L22.507487,33.53125 C24.2392578,33.53125 25.4412435,32.3976237 25.4412435,30.7057292 C25.4412435,28.9967448 24.2848307,27.8631185 22.5929362,27.8631185 L19.1635742,27.8631185 Z M20.8839518,29.2758789 L22.137207,29.2758789 C23.128418,29.2758789 23.6923828,29.777181 23.6923828,30.7114258 C23.6923828,31.6342773 23.1170247,32.1355794 22.1315104,32.1355794 L20.8839518,32.1355794 L20.8839518,29.2758789 Z"/>
  </g>
</svg>
