<svg width="24" height="24" viewBox="0 0 24 24" fill="none" xmlns="http://www.w3.org/2000/svg">
<path fill-rule="evenodd" clip-rule="evenodd" d="M19 3H4.85001C4.34599 3.03791 3.87502 3.26524 3.5318 3.63628C3.18859 4.00733 2.99858 4.49456 3.00001 5V9H4.00001V19.45C4.03082 19.8896 4.23416 20.2993 4.56572 20.5896C4.89727 20.88 5.33015 21.0275 5.77001 21H18.23C18.6699 21.0275 19.1027 20.88 19.4343 20.5896C19.7659 20.2993 19.9692 19.8896 20 19.45V9H21V5C21 4.46957 20.7893 3.96086 20.4142 3.58579C20.0391 3.21071 19.5304 3 19 3V3ZM18 19H6.00001V9H18V19ZM19 7H5.00001V5H19V7ZM15 14H9.00001V12H15V14Z" fill="#42526E"/>
</svg>
