<?xml version="1.0" encoding="UTF-8" standalone="no"?>
<svg width="24px" height="24px" viewBox="0 0 24 24" version="1.1" xmlns="http://www.w3.org/2000/svg" xmlns:xlink="http://www.w3.org/1999/xlink">
    <!-- Generator: Sketch 45.1 (43504) - http://www.bohemiancoding.com/sketch -->
    <title>icons/arrow-left-circle</title>
    <desc>Created with Sketch.</desc>
    <defs></defs>
    <g id="Global" stroke="none" stroke-width="1" fill="none" fill-rule="evenodd">
        <g id="icons/arrow-left-circle" fill-rule="nonzero">
            <circle id="Combined-Shape" fill="#42526E" cx="12" cy="12" r="10"></circle>
            <path d="M16,10.9946395 L13.623,10.9946395 L11.712,10.9946395 L10.414,10.9946395 L11.686,9.71596645 C12.076,9.32291522 12.076,8.68759966 11.686,8.29454843 C11.295,7.90149719 10.662,7.90149719 10.271,8.29454843 L7.293,11.2891766 C6.902,11.6822279 6.902,12.3185487 7.293,12.7115999 L10.271,15.7052229 C10.467,15.9012459 10.723,15.99976 10.979,15.99976 C11.234,15.99976 11.49,15.9012459 11.686,15.7052229 C12.076,15.3121716 12.076,14.6768561 11.686,14.2838049 L10.414,13.0051318 L11.712,13.0051318 L13.623,13.0051318 L16,13.0051318 C16.552,13.0051318 17,12.5547815 17,11.9998857 C17,11.4449898 16.552,10.9946395 16,10.9946395" id="Fill-1" fill="#79F2C0"></path>
        </g>
    </g>
</svg>