<?xml version="1.0" encoding="UTF-8" standalone="no"?>
<svg width="24px" height="24px" viewBox="0 0 24 24" version="1.1" xmlns="http://www.w3.org/2000/svg" xmlns:xlink="http://www.w3.org/1999/xlink">
    <!-- Generator: Sketch 45.1 (43504) - http://www.bohemiancoding.com/sketch -->
    <title>icons/arrow-up</title>
    <desc>Created with Sketch.</desc>
    <defs></defs>
    <g id="Global" stroke="none" stroke-width="1" fill="none" fill-rule="evenodd">
        <g id="icons/arrow-up" fill="#42526E">
            <path d="M11.293,5.293 L5.793,10.792 C5.403,11.183 5.403,11.817 5.793,12.207 C6.183,12.598 6.817,12.598 7.207,12.207 L11,8.414 L11,18 C11,18.552 11.448,19 12,19 C12.552,19 13,18.552 13,18 L13,8.414 L16.793,12.207 C17.184,12.598 17.816,12.598 18.207,12.207 C18.598,11.817 18.598,11.183 18.207,10.792 L12.707,5.293 C12.512,5.097 12.256,5 12,5 C11.744,5 11.488,5.097 11.293,5.293 Z" id="Clip-2"></path>
        </g>
    </g>
</svg>