<?xml version="1.0" encoding="UTF-8" standalone="no"?>
<svg width="24px" height="24px" viewBox="0 0 24 24" version="1.1" xmlns="http://www.w3.org/2000/svg" xmlns:xlink="http://www.w3.org/1999/xlink">
    <!-- Generator: Sketch 45.1 (43504) - http://www.bohemiancoding.com/sketch -->
    <title>icons/arrow-down-circle</title>
    <desc>Created with Sketch.</desc>
    <defs></defs>
    <g id="Global" stroke="none" stroke-width="1" fill="none" fill-rule="evenodd">
        <g id="icons/arrow-down-circle">
            <circle id="Combined-Shape" fill="#42526E" fill-rule="nonzero" cx="12" cy="12" r="10"></circle>
            <path d="M10.994,8 L10.994,10.377 L10.994,12.288 L10.994,13.586 L9.715,12.314 C9.323,11.924 8.688,11.924 8.294,12.314 C8.098,12.51 8,12.766 8,13.021 C8,13.277 8.098,13.533 8.294,13.73 L11.288,16.707 C11.484,16.902 11.741,17 11.999,17 C12.256,17 12.514,16.902 12.711,16.707 L15.705,13.73 C16.098,13.338 16.098,12.705 15.705,12.314 C15.312,11.924 14.676,11.924 14.284,12.314 L13.005,13.586 L13.005,12.288 L13.005,10.377 L13.005,8 C13.005,7.448 12.555,7 12,7 C11.445,7 10.994,7.448 10.994,8 Z" id="Clip-2" fill="#79F2C0"></path>
        </g>
    </g>
</svg>