<?xml version="1.0" encoding="UTF-8" standalone="no"?>
<svg width="24px" height="24px" viewBox="0 0 24 24" version="1.1" xmlns="http://www.w3.org/2000/svg" xmlns:xlink="http://www.w3.org/1999/xlink">
    <!-- Generator: Sketch 45.1 (43504) - http://www.bohemiancoding.com/sketch -->
    <title>icons/calendar</title>
    <desc>Created with Sketch.</desc>
    <defs></defs>
    <g id="Global" stroke="none" stroke-width="1" fill="none" fill-rule="evenodd">
        <g id="icons/calendar" fill="#42526E">
            <path d="M4.995,5 L19.005,5 C20.107,5 21,5.895 21,6.994 L21,19.006 C21,20.107 20.108,21 19.005,21 L4.995,21 C3.893,21 3,20.106 3,19.006 L3,6.994 C3,5.893 3.892,5 4.995,5 Z M5,9 L5,18 C5,18.5522847 5.44771525,19 6,19 L18,19 C18.5522847,19 19,18.5522847 19,18 L19,9 L5,9 Z M6,4 C6,3.448 6.448,3 7,3 C7.552,3 8,3.448 8,4 L8,5 L6,5 L6,4 Z M16,4 C16,3.448 16.448,3 17,3 C17.552,3 18,3.448 18,4 L18,5 L16,5 L16,4 Z M7,13 L7,10.999 L9,10.999 L9,13 L7,13 Z M15,13 L15,10.999 L17,10.999 L17,13 L15,13 Z M11,13 L11,10.999 L13.001,10.999 L13.001,13 L11,13 Z M7,17 L7,15 L9,15 L9,17 L7,17 Z M11,17 L11,15 L13.001,15 L13.001,17 L11,17 Z M15,17 L15,15 L17,15 L17,17 L15,17 Z" id="Combined-Shape"></path>
        </g>
    </g>
</svg>