<?xml version="1.0" encoding="UTF-8" standalone="no"?>
<svg width="24px" height="24px" viewBox="0 0 24 24" version="1.1" xmlns="http://www.w3.org/2000/svg" xmlns:xlink="http://www.w3.org/1999/xlink">
    <!-- Generator: Sketch 45.1 (43504) - http://www.bohemiancoding.com/sketch -->
    <title>icons/camera</title>
    <desc>Created with Sketch.</desc>
    <defs></defs>
    <g id="Global" stroke="none" stroke-width="1" fill="none" fill-rule="evenodd">
        <g id="icons/camera" fill="#42526E">
            <path d="M2,6.99406028 C2,5.8927712 2.89821238,5 3.99079514,5 L20.0092049,5 C21.1086907,5 22,5.89451376 22,6.99406028 L22,19.0059397 C22,20.1072288 21.1017876,21 20.0092049,21 L3.99079514,21 C2.89130934,21 2,20.1054862 2,19.0059397 L2,6.99406028 Z M4,7 L4,19 L20,19 L20,7 L4,7 Z" id="Combined-Shape"></path>
            <path d="M12,17 C14.209139,17 16,15.209139 16,13 C16,10.790861 14.209139,9 12,9 C9.790861,9 8,10.790861 8,13 C8,15.209139 9.790861,17 12,17 Z M12,15 C10.8954305,15 10,14.1045695 10,13 C10,11.8954305 10.8954305,11 12,11 C13.1045695,11 14,11.8954305 14,13 C14,14.1045695 13.1045695,15 12,15 Z" id="Oval-8" fill-rule="nonzero"></path>
            <path d="M8,4 C8,3.44771525 8.45303631,3 8.99703014,3 L15.0029699,3 C15.5536144,3 16,3.44386482 16,4 L16,5 L8,5 L8,4 Z" id="Rectangle-12"></path>
            <rect id="Rectangle-15" x="17" y="8" width="2" height="2" rx="1"></rect>
        </g>
    </g>
</svg>