<?xml version="1.0" encoding="UTF-8" standalone="no"?>
<svg width="24px" height="24px" viewBox="0 0 24 24" version="1.1" xmlns="http://www.w3.org/2000/svg" xmlns:xlink="http://www.w3.org/1999/xlink">
    <!-- Generator: Sketch 49.3 (51167) - http://www.bohemiancoding.com/sketch -->
    <title>icons/child-pages</title>
    <desc>Created with Sketch.</desc>
    <defs></defs>
    <g id="icons/child-pages" stroke="none" stroke-width="1" fill="none" fill-rule="evenodd">
        <rect id="Rectangle" fill="#42526E" x="11" y="7" width="2" height="5"></rect>
        <rect id="Rectangle-Copy-3" fill="#42526E" x="16" y="13" width="2" height="3"></rect>
        <rect id="Rectangle-Copy-2" fill="#42526E" x="6" y="13" width="2" height="3"></rect>
        <path d="M7,11 L17,11 C17.5522847,11 18,11.4477153 18,12 L18,13 L6,13 L6,12 C6,11.4477153 6.44771525,11 7,11 Z" id="Rectangle-Copy" fill="#42526E"></path>
        <path d="M5,18 L5,19 L9,19 L9,18 L5,18 Z M5,16 L9,16 C10.1045695,16 11,16.8954305 11,18 L11,19 C11,20.1045695 10.1045695,21 9,21 L5,21 C3.8954305,21 3,20.1045695 3,19 L3,18 C3,16.8954305 3.8954305,16 5,16 Z" id="Rectangle-26-Copy" fill="#42526E" fill-rule="nonzero"></path>
        <path d="M15,18 L15,19 L19,19 L19,18 L15,18 Z M15,16 L19,16 C20.1045695,16 21,16.8954305 21,18 L21,19 C21,20.1045695 20.1045695,21 19,21 L15,21 C13.8954305,21 13,20.1045695 13,19 L13,18 C13,16.8954305 13.8954305,16 15,16 Z" id="Rectangle-26-Copy-2" fill="#42526E" fill-rule="nonzero"></path>
        <path d="M10,5 L10,6 L14,6 L14,5 L10,5 Z M10,3 L14,3 C15.1045695,3 16,3.8954305 16,5 L16,6 C16,7.1045695 15.1045695,8 14,8 L10,8 C8.8954305,8 8,7.1045695 8,6 L8,5 C8,3.8954305 8.8954305,3 10,3 Z" id="Rectangle-26-Copy-3" fill="#42526E" fill-rule="nonzero"></path>
    </g>
</svg>