<?xml version="1.0" encoding="UTF-8" standalone="no"?>
<svg width="24px" height="24px" viewBox="0 0 24 24" version="1.1" xmlns="http://www.w3.org/2000/svg" xmlns:xlink="http://www.w3.org/1999/xlink">
    <!-- Generator: Sketch 45.1 (43504) - http://www.bohemiancoding.com/sketch -->
    <title>icons/comment</title>
    <desc>Created with Sketch.</desc>
    <defs></defs>
    <g id="Global" stroke="none" stroke-width="1" fill="none" fill-rule="evenodd">
        <g id="icons/comment" fill="#42526E">
            <path d="M4.99766939,11.5133308 C4.99766939,8.47515334 8.13900449,6.00275379 12.0004994,6.00275379 C15.8609955,6.00275379 19.0023306,8.47515334 19.0023306,11.5133308 C19.0023306,14.5515083 15.8609955,17.0239079 12.0004994,17.0239079 C8.13900449,17.0239079 4.99766939,14.5515083 4.99766939,11.5133308 L4.99766939,11.5133308 Z M19.8373564,19.2840155 L19.8373564,19.2830141 L19.8373564,19.2820128 C19.8373564,19.2820128 18.2741801,17.0219051 19.0712502,16.1657279 L19.0342933,16.1857554 C20.2608623,14.9019902 21,13.2787583 21,11.5133308 C21,7.37063462 16.9627102,4 12.0004994,4 C7.03728983,4 3,7.37063462 3,11.5133308 C3,15.656027 7.03728983,19.0266617 12.0004994,19.0266617 C13.4208424,19.0266617 14.7602797,18.7422706 15.9568836,18.2505946 C16.9597137,19.2730004 18.2442151,19.8227563 19.1961045,19.9699587 L19.199101,19.9669546 C19.2510405,19.983978 19.3049775,20 19.3629099,20 C19.6475778,20 19.8773098,19.7686819 19.8773098,19.4832895 C19.8773098,19.4121918 19.8633261,19.3450995 19.8373564,19.2840155 Z" id="Fill-1"></path>
            <rect id="Rectangle-3" x="7" y="9" width="10" height="2" rx="1"></rect>
            <rect id="Rectangle-3-Copy" x="7" y="12" width="5" height="2" rx="1"></rect>
        </g>
    </g>
</svg>