<?xml version="1.0" encoding="UTF-8" standalone="no"?>
<svg width="24px" height="24px" viewBox="0 0 24 24" version="1.1" xmlns="http://www.w3.org/2000/svg" xmlns:xlink="http://www.w3.org/1999/xlink">
    <!-- Generator: Sketch 45.1 (43504) - http://www.bohemiancoding.com/sketch -->
    <title>icons/copy</title>
    <desc>Created with Sketch.</desc>
    <defs></defs>
    <g id="Global" stroke="none" stroke-width="1" fill="none" fill-rule="evenodd">
        <g id="icons/copy" fill-rule="nonzero" fill="#42526E">
            <path d="M10,19 L18,19 L18,8 L10,8 L10,19 Z M8,7.99188419 C8,6.89179693 8.90195036,6 10.0085302,6 L17.9914698,6 C19.1007504,6 20,6.89339733 20,7.99188419 L20,19.0081158 C20,20.1082031 19.0980496,21 17.9914698,21 L10.0085302,21 C8.8992496,21 8,20.1066027 8,19.0081158 L8,7.99188419 Z" id="Rectangle-3"></path>
            <path d="M5,16 L5,4.99188419 C5,3.89179693 5.90195036,3 7.0085302,3 L14.9914698,3 C14.9943146,3 14.997158,3.00000588 15,3.00001762 L15,16 L5,16 Z M7,16 L15,16 L15,5 L7,5 L7,16 Z" id="Combined-Shape"></path>
        </g>
    </g>
</svg>