<?xml version="1.0" encoding="UTF-8" standalone="no"?>
<svg width="24px" height="24px" viewBox="0 0 24 24" version="1.1" xmlns="http://www.w3.org/2000/svg" xmlns:xlink="http://www.w3.org/1999/xlink">
    <!-- Generator: Sketch 45.1 (43504) - http://www.bohemiancoding.com/sketch -->
    <title>icons/cross-circle</title>
    <desc>Created with Sketch.</desc>
    <defs></defs>
    <g id="Global" stroke="none" stroke-width="1" fill="none" fill-rule="evenodd">
        <g id="icons/cross-circle">
            <circle id="Combined-Shape" fill="#42526E" cx="12" cy="12" r="10"></circle>
            <path d="M13.4765363,9.11274112 L9.11693012,13.4986167 C8.72758063,13.8903122 8.7294825,14.5234743 9.12117807,14.9128238 C9.51287364,15.3021733 10.1460358,15.3002715 10.5353853,14.9085759 L14.8949914,10.5227004 C15.2843409,10.1310048 15.282439,9.49784266 14.8907434,9.10849317 C14.4990479,8.71914368 13.8658858,8.72104555 13.4765363,9.11274112 Z" id="Path-7" fill="#79F2C0"></path>
            <path d="M9.08428593,10.5013565 L13.4424471,14.8780457 C13.8321421,15.2693975 14.4653057,15.2707406 14.8566575,14.8810455 C15.2480092,14.4913505 15.2493523,13.8581869 14.8596572,13.4668351 L10.5014961,9.09014593 C10.111801,8.69879415 9.47863748,8.69745111 9.0872857,9.08714616 C8.69593392,9.4768412 8.69459088,10.1100048 9.08428593,10.5013565 Z" id="Path-7" fill="#79F2C0"></path>
        </g>
    </g>
</svg>