<svg xmlns="http://www.w3.org/2000/svg" width="24" height="24" viewBox="0 0 24 24">
  <path fill="#42526E" d="M11,5 L11,7 L13,7 L13,5 L11,5 Z M11,11 L11,9 L10,9 C9.44771525,9 9,8.55228475 9,8 L9,4 C9,3.44771525 9.44771525,3 10,3 L14,3 C14.5522847,3 15,3.44771525 15,4 L15,8 C15,8.55228475 14.5522847,9 14,9 L13,9 L13,11 L18,11 C18.5522847,11 19,11.4477153 19,12 L19,15 L20,15 C20.5522847,15 21,15.4477153 21,16 L21,20 C21,20.5522847 20.5522847,21 20,21 L16,21 C15.4477153,21 15,20.5522847 15,20 L15,16 C15,15.4477153 15.4477153,15 16,15 L17,15 L17,13 L7,13 L7,15 L8,15 C8.55228475,15 9,15.4477153 9,16 L9,20 C9,20.5522847 8.55228475,21 8,21 L4,21 C3.44771525,21 3,20.5522847 3,20 L3,16 C3,15.4477153 3.44771525,15 4,15 L5,15 L5,12 C5,11.4477153 5.44771525,11 6,11 L11,11 Z M5,17 L5,19 L7,19 L7,17 L5,17 Z M17,17 L17,19 L19,19 L19,17 L17,17 Z"/>
</svg>
