<?xml version="1.0" encoding="UTF-8" standalone="no"?>
<svg width="24px" height="24px" viewBox="0 0 24 24" version="1.1" xmlns="http://www.w3.org/2000/svg" xmlns:xlink="http://www.w3.org/1999/xlink">
    <!-- Generator: Sketch 45.1 (43504) - http://www.bohemiancoding.com/sketch -->
    <title>icons/detail-view</title>
    <desc>Created with Sketch.</desc>
    <defs></defs>
    <g id="Global" stroke="none" stroke-width="1" fill="none" fill-rule="evenodd">
        <g id="icons/detail-view" fill-rule="nonzero" fill="#42526E">
            <path d="M14,17 L20.000385,17 C20.0026788,17 20,7.00585866 20,7.00585866 C20,7.00073202 14,7 14,7 L14,17 Z M12,5 L20.000385,5 C21.1047419,5 22,5.89706013 22,7.00585866 L22,16.9941413 C22,18.1019465 21.1125667,19 20.000385,19 L12,19 L12,5 Z" id="Rectangle-11-Copy"></path>
            <path d="M2,7 L10,7 L10,5 L2.99703014,5 C2.4463856,5 2,5.44386482 2,6 L2,7 Z" id="Line"></path>
            <polygon id="Line-Copy-2" points="2 11 10 11 10 9 2 9"></polygon>
            <path d="M2,18 C2,18.5522847 2.45303631,19 2.99703014,19 L10,19 L10,17 L2,17 L2,18 Z" id="Line-Copy-3"></path>
            <polygon id="Line-Copy" points="2 15 10 15 10 13 2 13"></polygon>
        </g>
    </g>
</svg>