<?xml version="1.0" encoding="UTF-8" standalone="no"?>
<svg width="24px" height="24px" viewBox="0 0 24 24" version="1.1" xmlns="http://www.w3.org/2000/svg" xmlns:xlink="http://www.w3.org/1999/xlink">
    <!-- Generator: Sketch 45.1 (43504) - http://www.bohemiancoding.com/sketch -->
    <title>icons/discover-filled</title>
    <desc>Created with Sketch.</desc>
    <defs></defs>
    <g id="Global" stroke="none" stroke-width="1" fill="none" fill-rule="evenodd">
        <g id="icons/discover-filled" fill="#42526E">
            <path d="M12,21 C7.02943725,21 3,16.9705627 3,12 C3,7.02943725 7.02943725,3 12,3 C16.9705627,3 21,7.02943725 21,12 C21,16.9705627 16.9705627,21 12,21 Z M10.8985108,10.2207382 C10.6506514,10.3467321 10.3489937,10.6469798 10.2214776,10.8977757 L8.23914965,14.7965753 C7.68869969,15.8810343 8.12072615,16.3108705 9.20408184,15.760417 L13.1018735,13.7790599 C13.349733,13.6530659 13.6513407,13.3528182 13.7787935,13.1020223 L15.7601382,9.20322277 C16.3116846,8.11986024 15.8796582,7.68892757 14.7963025,8.239381 L10.8985108,10.2207382 Z M12,13 C11.4477153,13 11,12.5522847 11,12 C11,11.4477153 11.4477153,11 12,11 C12.5522847,11 13,11.4477153 13,12 C13,12.5522847 12.5522847,13 12,13 Z" id="Combined-Shape"></path>
        </g>
    </g>
</svg>