<?xml version="1.0" encoding="UTF-8" standalone="no"?>
<svg width="24px" height="24px" viewBox="0 0 24 24" version="1.1" xmlns="http://www.w3.org/2000/svg" xmlns:xlink="http://www.w3.org/1999/xlink">
    <!-- Generator: Sketch 45.1 (43504) - http://www.bohemiancoding.com/sketch -->
    <title>icons/download</title>
    <desc>Created with Sketch.</desc>
    <defs></defs>
    <g id="Global" stroke="none" stroke-width="1" fill="none" fill-rule="evenodd">
        <g id="icons/download" fill="#42526E">
            <path d="M10.6870401,17.2917416 C10.3012436,16.9028911 9.67558648,16.9027326 9.28959589,17.2913876 C8.9036053,17.6800426 8.90344798,18.3103354 9.28924451,18.6991859 L11.2536714,20.6791632 C11.6782782,21.1069161 12.3671764,21.1069161 12.7916075,20.6793402 L14.7105798,18.7461497 C15.0964734,18.3573969 15.0964734,17.7271041 14.7105798,17.3383514 C14.3246863,16.9495986 13.6990292,16.9495986 13.3131356,17.3383514 L12.0228853,18.6381615 L10.6870401,17.2917416 Z" id="Stroke-1" fill-rule="nonzero"></path>
            <path d="M13.001,19.9934405 L13,10.0063567 C12.9999443,9.45050521 12.552184,8.99994398 11.9998992,9 C11.4476145,9.00005602 10.9999443,9.45070807 11,10.0065595 L11.001,19.9936433 C11.0010557,20.5494948 11.448816,21.000056 12.0011008,21 C12.5533855,20.999944 13.0010556,20.5492919 13.001,19.9934405 Z" id="Stroke-3" fill-rule="nonzero"></path>
            <path d="M7.938,5.4808 C7.682,5.4388 7.422,5.4178 7.161,5.4178 C4.356,5.4188 2,7.6198 2,10.4988 C2,13.4078 4.385,15.9998 7.1,15.9998 L9.981,15.9998 L9.981,14.0068 L7.1,14.0068 C5.443,14.0068 3.985,12.3438 3.985,10.4988 C3.985,8.7208 5.454,7.4118 7.089,7.4118 L7.101,7.4118 C7.49,7.4118 7.787,7.4628 8.071,7.5618 L8.241,7.6248 C8.846,7.8728 9.116,7.3788 9.116,7.3788 L9.266,7.1118 C9.996,5.7648 11.467,5.0158 12.982,4.9928 C15.064,5.0268 16.779,6.5408 17.051,8.6368 L17.097,8.9768 C17.097,8.9768 17.168,9.5018 17.762,9.5018 C17.775,9.5018 17.774,9.5068 17.785,9.5068 L18.039,9.5068 C19.175,9.5068 20.015,10.4658 20.015,11.6648 C20.015,12.8718 19.028,14.0068 17.945,14.0068 L13.981,14.0068 L13.981,15.9998 L17.945,15.9998 C20.105,15.9998 22,13.9548 22,11.6648 C22,9.6658 20.688,8.0018 18.862,7.5908 C18.155,4.8838 15.809,3.0388 12.976,2.9998 C11.001,3.0208 9.075,3.9008 7.938,5.4808 Z" id="Clip-2"></path>
        </g>
    </g>
</svg>