<?xml version="1.0" encoding="UTF-8" standalone="no"?>
<svg width="24px" height="24px" viewBox="0 0 24 24" version="1.1" xmlns="http://www.w3.org/2000/svg" xmlns:xlink="http://www.w3.org/1999/xlink">
    <!-- Generator: Sketch 45.1 (43504) - http://www.bohemiancoding.com/sketch -->
    <title>icons/dropbox</title>
    <desc>Created with Sketch.</desc>
    <defs></defs>
    <g id="Global" stroke="none" stroke-width="1" fill="none" fill-rule="evenodd">
        <g id="icons/dropbox" fill="#42526E">
            <path d="M16.1890909,2 L11.9736364,5.49363636 L17.7863636,9.10181818 L22,5.77090909 L16.1890909,2 Z M2,5.95818182 L6.16181818,9.17181818 L11.9736364,5.49363636 L7.98181818,2.00181818 L2,5.95818182 Z M16.0090909,18.3127273 L15.9963636,17.3272727 L12.0018182,14.3518182 L8.16909091,17.2863636 L8.13272727,17.3427273 L6.02,16.0654545 L6.02,18.18 L11.9972727,22.0036364 L17.9263636,18.18 L17.9263636,16.1427273 L16.01,17.3136364 L16.0090909,18.3127273 Z M6.15090909,9.17909091 L2.00727273,12.5309091 L5.61090909,14.6972727 L5.61272727,14.6954545 L6.39818182,15.1709091 L7.98272727,16.1227273 L10.6345455,14.1090909 L11.9627273,13.0918182 L11.9672727,13.0963636 L11.9736364,13.0918182 L11.9954545,13.1081818 L12.0090909,13.0918182 L15.1645455,15.44 L16.0863636,16.12 L21.9963636,12.5272727 L17.7863636,9.10454545 L11.9772727,12.7863636 L6.15090909,9.17909091 Z M17.7863636,9.10454545 L17.7872727,9.10181818 L17.7863636,9.10181818 L17.7845455,9.10181818 L17.7863636,9.10454545 Z" id="Page-1"></path>
        </g>
    </g>
</svg>