<?xml version="1.0" encoding="UTF-8" standalone="no"?>
<svg width="24px" height="24px" viewBox="0 0 24 24" version="1.1" xmlns="http://www.w3.org/2000/svg" xmlns:xlink="http://www.w3.org/1999/xlink">
    <!-- Generator: Sketch 45.1 (43504) - http://www.bohemiancoding.com/sketch -->
    <title>icons/edit</title>
    <desc>Created with Sketch.</desc>
    <defs></defs>
    <g id="Global" stroke="none" stroke-width="1" fill="none" fill-rule="evenodd">
        <g id="icons/edit" fill="#42526E">
            <path d="M4.0209,19.2297 C3.8769,19.9327 4.4979,20.5537 5.2009,20.4097 L9.0099,19.6297 L4.8009,15.4207 L4.0209,19.2297 Z" id="Fill-1"></path>
            <path d="M9.9413,16.6103 L7.8203,14.4893 L16.3073,6.0003 L16.3093,6.0003 L16.3093,6.0003 L18.4303,8.1213 L9.9413,16.6103 Z M19.8443,6.7073 L17.7233,4.5853 C17.3323,4.1953 16.8203,4.0003 16.3093,4.0003 C15.7973,4.0003 15.2853,4.1953 14.8943,4.5853 L5.1373,14.3433 L10.0873,19.2933 L19.8443,9.5353 C20.6253,8.7543 20.6253,7.4883 19.8443,6.7073 L19.8443,6.7073 Z" id="Fill-4"></path>
        </g>
    </g>
</svg>