<?xml version="1.0" encoding="UTF-8" standalone="no"?>
<svg width="24px" height="24px" viewBox="0 0 24 24" version="1.1" xmlns="http://www.w3.org/2000/svg" xmlns:xlink="http://www.w3.org/1999/xlink">
    <!-- Generator: Sketch 46.2 (44496) - http://www.bohemiancoding.com/sketch -->
    <title>icons/emoji</title>
    <desc>Created with Sketch.</desc>
    <defs></defs>
    <g id="Global" stroke="none" stroke-width="1" fill="none" fill-rule="evenodd">
        <g id="icons/emoji" fill-rule="nonzero" fill="currentColor">
            <path d="M12,3 C16.9705714,3 21,7.02942857 21,12 C21,16.9705714 16.9705714,21 12,21 C7.02942857,21 3,16.9705714 3,12 C3,7.02942857 7.02942857,3 12,3 Z M12,19.0714286 C15.8995714,19.0714286 19.0714286,15.8995714 19.0714286,12 C19.0714286,8.10042857 15.8995714,4.92857143 12,4.92857143 C8.10042857,4.92857143 4.92857143,8.10042857 4.92857143,12 C4.92857143,15.8995714 8.10042857,19.0714286 12,19.0714286 Z M10.0714286,11.3571429 C9.36171429,11.3571429 8.78571429,10.7811429 8.78571429,10.0714286 C8.78571429,9.36171429 9.36171429,8.78571429 10.0714286,8.78571429 C10.7811429,8.78571429 11.3571429,9.36171429 11.3571429,10.0714286 C11.3571429,10.7811429 10.7811429,11.3571429 10.0714286,11.3571429 Z M13.9285714,11.3571429 C13.2188571,11.3571429 12.6428571,10.7811429 12.6428571,10.0714286 C12.6428571,9.36171429 13.2188571,8.78571429 13.9285714,8.78571429 C14.6382857,8.78571429 15.2142857,9.36171429 15.2142857,10.0714286 C15.2142857,10.7811429 14.6382857,11.3571429 13.9285714,11.3571429 Z M14.2757143,13.3924286 C14.5714286,13.062 15.0792857,13.0337143 15.411,13.3294286 C15.7414286,13.6264286 15.7697143,14.1342857 15.474,14.4647143 C14.5894286,15.4521429 13.3242857,16.0178571 12,16.0178571 C10.6782857,16.0178571 9.41314286,15.4534286 8.53114286,14.4698571 C8.23414286,14.1394286 8.26242857,13.6315714 8.59285714,13.3345714 C8.922,13.0388571 9.42985714,13.0645714 9.72685714,13.3962857 C10.8852857,14.6858571 13.1198571,14.6858571 14.2757143,13.3924286 Z" id="path-1"></path>
        </g>
    </g>
</svg>