<?xml version="1.0" encoding="UTF-8" standalone="no"?>
<svg width="24px" height="24px" viewBox="0 0 24 24" version="1.1" xmlns="http://www.w3.org/2000/svg" xmlns:xlink="http://www.w3.org/1999/xlink">
    <!-- Generator: Sketch 45.1 (43504) - http://www.bohemiancoding.com/sketch -->
    <title>icons/error</title>
    <desc>Created with Sketch.</desc>
    <defs></defs>
    <g id="Global" stroke="none" stroke-width="1" fill="none" fill-rule="evenodd">
        <g id="icons/error">
            <path d="M13.4161506,4.41651608 C12.6340322,3.63436641 11.3671375,3.63319669 10.5838494,4.41651608 L4.41615055,10.5844619 C3.6340322,11.3666116 3.63286252,12.6334846 4.41615055,13.4167144 L10.5838494,19.5839547 C11.3659678,20.3660149 12.6328625,20.3671845 13.4161506,19.5839547 L19.5838494,13.4167144 C20.3659678,12.6346542 20.3671375,11.3677813 19.5838494,10.5844619 L13.4161506,4.41651608 Z" id="Combined-Shape" fill="#42526E"></path>
            <path d="M12,14 L12,14 C11.448,14 11,13.552 11,13 L11,8 C11,7.448 11.448,7 12,7 L12,7 C12.552,7 13,7.448 13,8 L13,13 C13,13.552 12.552,14 12,14" id="Fill-1" fill="#79F2C0"></path>
            <path d="M12,17 L12,17 C11.448,17 11,16.552 11,16 L11,16 C11,15.448 11.448,15 12,15 L12,15 C12.552,15 13,15.448 13,16 L13,16 C13,16.552 12.552,17 12,17" id="Fill-3" fill="#79F2C0"></path>
        </g>
    </g>
</svg>