<?xml version="1.0" encoding="UTF-8" standalone="no"?>
<svg width="24px" height="24px" viewBox="0 0 24 24" version="1.1" xmlns="http://www.w3.org/2000/svg" xmlns:xlink="http://www.w3.org/1999/xlink">
    <!-- Generator: Sketch 45.1 (43504) - http://www.bohemiancoding.com/sketch -->
    <title>icons/feedback</title>
    <desc>Created with Sketch.</desc>
    <defs></defs>
    <g id="Global" stroke="none" stroke-width="1" fill="none" fill-rule="evenodd">
        <g id="icons/feedback" fill="#42526E">
            <path d="M10.881,5.4796 L2.455,12.3086 C2.059,12.6296 1.873,13.2646 2.042,13.7256 L2.141,13.9976 C2.309,14.4596 2.867,14.8266 3.368,14.8176 L4.499,14.7986 L10.561,14.6956 L14.213,14.6326 C14.723,14.6236 15.001,14.2476 14.829,13.7716 L11.906,5.7426 C11.801,5.4536 11.582,5.3006 11.339,5.3006 C11.189,5.3006 11.03,5.3586 10.881,5.4796 Z M4.98,15.9526 L6.734,20.7706 C6.923,21.2906 7.497,21.5576 8.016,21.3686 C8.535,21.1796 8.802,20.6066 8.613,20.0866 L7.074,15.8586 L4.98,15.9526 Z" id="Clip-2"></path>
            <path d="M18.691,6.8416 L15.872,7.8676 C15.353,8.0566 15.085,8.6296 15.274,9.1496 C15.463,9.6686 16.037,9.9356 16.556,9.7466 L19.376,8.7206 C19.894,8.5316 20.162,7.9586 19.973,7.4396 C19.826,7.0336 19.442,6.7816 19.033,6.7816 C18.92,6.7816 18.804,6.8006 18.691,6.8416 Z" id="Clip-5"></path>
            <path d="M16.899,10.6866 C16.576,10.8056 16.32,11.0886 16.255,11.4526 C16.16,11.9966 16.523,12.5156 17.066,12.6116 L20.021,13.1316 C20.564,13.2286 21.084,12.8646 21.18,12.3206 C21.21,12.1506 21.194,11.9836 21.143,11.8306 L21.126,11.7836 C21.004,11.4696 20.725,11.2256 20.368,11.1626 L17.413,10.6416 C17.355,10.6316 17.296,10.6266 17.239,10.6266 C17.121,10.6266 17.007,10.6466 16.899,10.6866 Z" id="Clip-11"></path>
            <path d="M16.351,3.0476 L14.422,5.3456 C14.067,5.7676 14.122,6.3996 14.545,6.7546 C14.968,7.1086 15.599,7.0546 15.954,6.6316 L17.882,4.3336 C18.237,3.9106 18.182,3.2786 17.759,2.9236 C17.572,2.7666 17.343,2.6906 17.117,2.6906 C16.831,2.6906 16.548,2.8116 16.351,3.0476 Z" id="Clip-8"></path>
        </g>
    </g>
</svg>