<?xml version="1.0" encoding="UTF-8"?>
<svg width="24px" height="24px" viewBox="0 0 24 24" version="1.1" xmlns="http://www.w3.org/2000/svg" xmlns:xlink="http://www.w3.org/1999/xlink">
    <!-- Generator: Sketch 46.2 (44496) - http://www.bohemiancoding.com/sketch -->
    <title>icons/flag-filled</title>
    <desc>Created with Sketch.</desc>
    <defs></defs>
    <g id="Global" stroke="none" stroke-width="1" fill="none" fill-rule="evenodd">
        <g id="icons/flag-filled" fill-rule="nonzero" fill="#42526E">
            <path d="M6.0001,12.2347877 L6.0001,18.6807102 C6.0001,19.2180546 6.4501,19.6577 7.0001,19.6577 C7.5501,19.6577 8.0001,19.2180546 8.0001,18.6807102 L8.0001,12.9030653 C9.16955916,12.5620382 10.388722,12.857669 11.768,13.1925873 C12.75,13.4305873 13.804,13.6875873 14.898,13.6875873 C15.73,13.6875873 16.585,13.5385873 17.445,13.1205873 C17.79,12.9525873 18.008,12.6045873 18.008,12.2205873 L18.008,5.46558729 C18.008,5.12158729 17.831,4.80058729 17.539,4.61858729 C17.248,4.43558729 16.882,4.41658729 16.571,4.56658729 C15.226,5.21958729 13.84,4.88258729 12.24,4.49458729 C10.511,4.07458729 8.553,3.59958729 6.562,4.56658729 C6.218,4.73358729 6,5.08358729 6,5.46558729 L6,12.2205873 C6,12.2253256 6.00003339,12.2300591 6.0001,12.2347877 Z" id="Shape"></path>
        </g>
    </g>
</svg>