<?xml version="1.0" encoding="UTF-8" standalone="no"?>
<svg width="24px" height="24px" viewBox="0 0 24 24" version="1.1" xmlns="http://www.w3.org/2000/svg" xmlns:xlink="http://www.w3.org/1999/xlink">
    <!-- Generator: Sketch 45.1 (43504) - http://www.bohemiancoding.com/sketch -->
    <title>icons/folder</title>
    <desc>Created with Sketch.</desc>
    <defs></defs>
    <g id="Global" stroke="none" stroke-width="1" fill="none" fill-rule="evenodd">
        <g id="icons/folder" fill-rule="nonzero" fill="#42526E">
            <path d="M20,19 L20,8 L10.8457131,8 L10.3429341,6.74249999 L9.88841762,5.60570819 C9.77815183,5.33044227 9.29060197,5 9.003,5 L3.997,5 C4.00157141,5 4,19 4,19 L20,19 Z M12.2,6 L20.009,6 C21.109,6 22,6.893 22,7.992 L22,19.008 C22,20.108 21.102,21 20.009,21 L3.991,21 C2.891,21 2,20.107 2,19.008 L2,5.006 C2,3.898 2.896,3 3.997,3 L9.003,3 C10.106,3 11.33,3.826 11.745,4.862 L12.2,6 Z" id="Page-1"></path>
        </g>
    </g>
</svg>