<?xml version="1.0" encoding="UTF-8" standalone="no"?>
<svg width="24px" height="24px" viewBox="0 0 24 24" version="1.1" xmlns="http://www.w3.org/2000/svg" xmlns:xlink="http://www.w3.org/1999/xlink">
    <!-- Generator: Sketch 45.1 (43504) - http://www.bohemiancoding.com/sketch -->
    <title>icons/following</title>
    <desc>Created with Sketch.</desc>
    <defs></defs>
    <g id="Global" stroke="none" stroke-width="1" fill="none" fill-rule="evenodd">
        <g id="icons/following" fill="#42526E">
            <path d="M20.9905437,6.00034984 C20.9920614,6.26197051 20.8890087,6.51342885 20.70415,6.69917826 L19.3709378,7.96888059 L20.6547718,9.26811088 C20.9365992,9.50865537 21.0593591,9.88634607 20.97258,10.2458988 C20.8858009,10.6054515 20.604129,10.8861825 20.2433711,10.9726716 C19.8826132,11.0591608 19.5036565,10.9368109 19.2623057,10.6559251 L17.2871766,8.68739431 C16.9042745,8.30349395 16.9042745,7.68348049 17.2871766,7.29958013 L19.3215596,5.27199347 C19.6096587,4.99816817 20.0345517,4.92352318 20.3992259,5.08266956 C20.7639001,5.24181594 20.9970398,5.60363098 20.9905437,6.00034984 L20.9905437,6.00034984 Z" id="Shape"></path>
            <path d="M5,14.0001103 C5,12.8954799 5.90195036,12 7.0085302,12 L14.9914698,12 C16.1007504,12 17,12.8938878 17,14.006104 L17,18.4460997 C17,21.8513001 5,21.8513001 5,18.4460997 C5,21.8513001 5,14.0001103 5,14.0001103 Z" id="Rectangle-7"></path>
            <circle id="Oval-2" cx="11" cy="7" r="4"></circle>
        </g>
    </g>
</svg>