<?xml version="1.0" encoding="UTF-8" standalone="no"?>
<svg width="24px" height="24px" viewBox="0 0 24 24" version="1.1" xmlns="http://www.w3.org/2000/svg" xmlns:xlink="http://www.w3.org/1999/xlink">
    <!-- Generator: Sketch 45.1 (43504) - http://www.bohemiancoding.com/sketch -->
    <title>icons/graph-bar</title>
    <desc>Created with Sketch.</desc>
    <defs></defs>
    <g id="Global" stroke="none" stroke-width="1" fill="none" fill-rule="evenodd">
        <g id="icons/graph-bar" fill="#42526E">
            <rect id="Rectangle-23" x="17" y="5" width="4" height="11" rx="2"></rect>
            <rect id="Rectangle-23-Copy" x="11" y="8" width="4" height="8" rx="2"></rect>
            <rect id="Rectangle-23-Copy-2" x="5" y="11" width="4" height="5" rx="2"></rect>
            <path d="M21,17 L4.99508929,17 C4.4481604,17 4,16.5484013 4,15.9914698 L4,6 C4,5.44771525 3.55228475,5 3,5 C2.44771525,5 2,5.44771525 2,6 L2,15.9914698 C2,17.6495635 3.34015473,19 4.99508929,19 L21,19 C21.5522847,19 22,18.5522847 22,18 C22,17.4477153 21.5522847,17 21,17 Z" id="Rectangle-7" fill-rule="nonzero"></path>
        </g>
    </g>
</svg>