<?xml version="1.0" encoding="UTF-8" standalone="no"?>
<svg width="24px" height="24px" viewBox="0 0 24 24" version="1.1" xmlns="http://www.w3.org/2000/svg" xmlns:xlink="http://www.w3.org/1999/xlink">
    <!-- Generator: Sketch 45.1 (43504) - http://www.bohemiancoding.com/sketch -->
    <title>icons/graph-line</title>
    <desc>Created with Sketch.</desc>
    <defs></defs>
    <g id="Global" stroke="none" stroke-width="1" fill="none" fill-rule="evenodd">
        <g id="icons/graph-line" fill-rule="nonzero" fill="#42526E">
            <path d="M21,17 L4.99508929,17 C4.4481604,17 4,16.5484013 4,15.9914698 L4,6 C4,5.44771525 3.55228475,5 3,5 C2.44771525,5 2,5.44771525 2,6 L2,15.9914698 C2,17.6495635 3.34015473,19 4.99508929,19 L21,19 C21.5522847,19 22,18.5522847 22,18 C22,17.4477153 21.5522847,17 21,17 Z" id="Rectangle-7"></path>
            <path d="M18,9 L18,12 C18,12.5522847 18.4477153,13 19,13 C19.5522847,13 20,12.5522847 20,12 L20,8 C20,7.44771525 19.5522847,7 19,7 L15,7 C14.4477153,7 14,7.44771525 14,8 C14,8.55228475 14.4477153,9 15,9 L18,9 Z" id="Rectangle-7-Copy"></path>
            <path d="M13.2928932,13.7071068 C13.6834175,14.0976311 14.3165825,14.0976311 14.7071068,13.7071068 L18.7071068,9.70710678 C19.0976311,9.31658249 19.0976311,8.68341751 18.7071068,8.29289322 C18.3165825,7.90236893 17.6834175,7.90236893 17.2928932,8.29289322 L14,11.5857864 L11.7071068,9.29289322 C11.3165825,8.90236893 10.6834175,8.90236893 10.2928932,9.29289322 L6.29289322,13.2928932 C5.90236893,13.6834175 5.90236893,14.3165825 6.29289322,14.7071068 C6.68341751,15.0976311 7.31658249,15.0976311 7.70710678,14.7071068 L11,11.4142136 L13.2928932,13.7071068 Z" id="Path-4"></path>
        </g>
    </g>
</svg>