<?xml version="1.0" encoding="UTF-8" standalone="no"?>
<svg width="24px" height="24px" viewBox="0 0 24 24" version="1.1" xmlns="http://www.w3.org/2000/svg" xmlns:xlink="http://www.w3.org/1999/xlink">
    <!-- Generator: Sketch 46.2 (44496) - http://www.bohemiancoding.com/sketch -->
    <title>icons/gsuite</title>
    <desc>Created with Sketch.</desc>
    <defs></defs>
    <g id="Global" stroke="none" stroke-width="1" fill="none" fill-rule="evenodd">
        <g id="icons/gsuite" fill-rule="nonzero" fill="#42526E">
            <path d="M16.8294679,7.66166439 C16.20191,7.02046385 15.5197817,6.52933151 14.7967258,6.18826739 C14.0736698,5.84720327 13.159618,5.6834925 12.1091405,5.6834925 C11.2633015,5.6834925 10.4583902,5.83356071 9.70804911,6.13369714 C8.95770805,6.43383356 8.30286494,6.85675307 7.74351978,7.40245566 C7.17053206,7.94815825 6.72032742,8.61664393 6.39290587,9.39427012 C6.06548431,10.1718963 5.90177353,11.0313779 5.90177353,11.9863574 C5.90177353,12.941337 6.06548431,13.8008186 6.39290587,14.5784447 C6.72032742,15.3560709 7.17053206,16.0109141 7.74351978,16.5566166 C8.3165075,17.1023192 8.98499318,17.5388813 9.73533424,17.8390177 C10.4856753,18.1391542 11.3042292,18.2892224 12.1637108,18.2892224 C13.0777626,18.2892224 13.8826739,18.1664393 14.5648022,17.9072306 C15.2469304,17.6480218 15.8335607,17.2933151 16.324693,16.8567531 C16.6521146,16.5566166 16.952251,16.1882674 17.2114598,15.7517053 C17.4706685,15.3015007 17.675307,14.8103683 17.8253752,14.2646658 L12.0545703,14.2646658 L12.0545703,10.9904502 L21.46794,10.9904502 C21.5225102,11.2087312 21.5634379,11.46794 21.6043656,11.7953615 C21.6452933,12.1227831 21.6589359,12.4229195 21.6589359,12.7366985 C21.6589359,14.0327422 21.46794,15.2060027 21.0859482,16.2837653 C20.7039563,17.361528 20.1173261,18.3028649 19.3533424,19.1350614 C18.4938608,20.0491132 17.4706685,20.744884 16.2701228,21.2496589 C15.0695771,21.7544338 13.691678,22 12.1500682,22 C10.7585266,22 9.44884038,21.7544338 8.22100955,21.2496589 C6.99317872,20.744884 5.9154161,20.0491132 4.98772169,19.1623465 C4.07366985,18.2755798 3.35061392,17.2251023 2.80491132,16.0109141 C2.25920873,14.7967258 2,13.4461119 2,12 C2,10.5538881 2.2728513,9.21691678 2.80491132,7.98908595 C3.33697135,6.76125512 4.06002729,5.71077763 4.98772169,4.82401091 C5.90177353,3.9372442 6.97953615,3.25511596 8.22100955,2.75034106 C9.46248295,2.24556617 10.7721692,2 12.1500682,2 C13.7326057,2 15.1377899,2.2728513 16.3519782,2.81855389 C17.5661664,3.36425648 18.6166439,4.11459754 19.5034106,5.06957708 L16.8294679,7.66166439 Z" id="XMLID_69_"></path>
        </g>
    </g>
</svg>