<?xml version="1.0" encoding="UTF-8" standalone="no"?>
<svg width="24px" height="24px" viewBox="0 0 24 24" version="1.1" xmlns="http://www.w3.org/2000/svg" xmlns:xlink="http://www.w3.org/1999/xlink">
    <!-- Generator: Sketch 46.2 (44496) - http://www.bohemiancoding.com/sketch -->
    <title>icons/highlights</title>
    <desc>Created with Sketch.</desc>
    <defs></defs>
    <g id="Global" stroke="none" stroke-width="1" fill="none" fill-rule="evenodd">
        <g id="icons/highlights" fill="#42526E">
            <path d="M19,7.00000836 C20.105111,7.00316447 21,7.89901542 21,9.00585866 L21,18.9941413 C21,20.1019465 20.1029399,21 18.9941413,21 L9.00585866,21 C7.90000531,21 7.00316514,20.1060981 7.00000836,19 L17.9991283,19 C18.5553691,19 19,18.5518945 19,17.9991283 L19,7.00000777 Z M3,5.00585866 C3,3.89805351 3.89706013,3 5.00585866,3 L14.9941413,3 C16.1019465,3 17,3.89706013 17,5.00585866 L17,14.9941413 C17,16.1019465 16.1029399,17 14.9941413,17 L5.00585866,17 C3.89805351,17 3,16.1029399 3,14.9941413 L3,5.00585866 Z M5,5 L5,15 L15,15 L15,5 L5,5 Z" id="Combined-Shape" fill-rule="nonzero"></path>
            <path d="M9.57732379,6.77002874 L8.76257812,8.51345469 L6.89636697,8.79994859 C6.79971806,8.81453203 6.71007269,8.86016406 6.64003724,8.92884733 C6.45607747,9.1104346 6.45280915,9.4082189 6.6335006,9.59404007 L7.99779106,10.998754 L7.68076395,12.953875 C7.66348854,13.0573703 7.68169776,13.1641587 7.73212328,13.2563636 C7.85678637,13.4840533 8.14066337,13.5668496 8.3666444,13.4412439 L10.0003379,12.5351893 L11.6330975,13.4412439 C11.7246105,13.4920507 11.8310644,13.510868 11.9337831,13.4939324 C12.1887121,13.4520639 12.3609993,13.2097907 12.3194449,12.953875 L12.0019509,10.998754 L13.3662413,9.59404007 C13.4348761,9.52347507 13.4796988,9.43315187 13.4946397,9.33577217 C13.5333926,9.07891556 13.3578371,8.83899456 13.103375,8.79994859 L11.2371638,8.51345469 L10.4224182,6.77002874 C10.3761948,6.67123774 10.2972882,6.59126407 10.1987716,6.54469117 C10.1348059,6.514113 10.067105,6.5 10.0003379,6.5 C9.82524927,6.5 9.6571642,6.59973187 9.57732379,6.77002874 Z" id="Clip-2"></path>
        </g>
    </g>
</svg>