<?xml version="1.0" encoding="UTF-8"?>
<svg width="24px" height="24px" viewBox="0 0 24 24" version="1.1" xmlns="http://www.w3.org/2000/svg" xmlns:xlink="http://www.w3.org/1999/xlink">
    <!-- Generator: Sketch 53 (72520) - https://sketchapp.com -->
    <title>global/home-filled</title>
    <desc>Created with Sketch.</desc>
    <g id="global/home-filled" stroke="none" stroke-width="1" fill="none" fill-rule="evenodd">
        <path d="M10,19 L10,14.5 C10,13.3954305 10.8954305,12.5 12,12.5 C13.1045695,12.5 14,13.3954305 14,14.5 L14,19 L18,19 C18.5522847,19 19,18.5522847 19,18 L19,10.1689678 L12.7071068,3.87289326 C12.3165825,3.48236897 11.6834175,3.48236897 11.2928932,3.87289326 L5,10.1689685 L5,18 C5,18.5522847 5.44771525,19 6,19 L10,19 Z M21,12.1699789 L21,18 C21,19.6568542 19.6568542,21 18,21 L6,21 C4.34314575,21 3,19.6568542 3,18 L3,12.1699798 L2.96000004,12.21 C2.56947575,12.6005243 1.93052425,12.6005243 1.53999996,12.21 C1.14947567,11.8194757 1.14947567,11.1805243 1.53999996,10.79 L9.87867966,2.4586797 C11.0502525,1.28710682 12.9497475,1.28710682 14.1213203,2.4586797 L22.4599991,10.79 C22.8505234,11.1805243 22.8505234,11.8194757 22.4599991,12.21 C22.0694748,12.6005243 21.4305252,12.6005243 21.0400009,12.21 L21,12.1699789 Z" id="icon" fill="#42526E" fill-rule="nonzero"></path>
    </g>
</svg>