<?xml version="1.0" encoding="UTF-8" standalone="no"?>
<svg width="24px" height="24px" viewBox="0 0 24 24" version="1.1" xmlns="http://www.w3.org/2000/svg" xmlns:xlink="http://www.w3.org/1999/xlink">
    <!-- Generator: Sketch 45.1 (43504) - http://www.bohemiancoding.com/sketch -->
    <title>icons/image-resize</title>
    <desc>Created with Sketch.</desc>
    <defs></defs>
    <g id="Global" stroke="none" stroke-width="1" fill="none" fill-rule="evenodd">
        <g id="icons/image-resize">
            <rect id="Combined-Shape" fill="#42526E" x="3" y="3" width="18" height="18" rx="2"></rect>
            <path d="M5,14 L5,17.89 C5,18.497 5.493,18.99 6.1,18.99 L10,18.99 C10.553,18.99 11,18.542 11,17.99 C11,17.438 10.553,16.99 10,16.99 L7,16.99 L7,14 C7,13.447 6.552,13 6,13 C5.448,13 5,13.447 5,14 Z" id="Clip-2" fill="#79F2C0"></path>
            <path d="M5.70710678,18.1213203 C6.09763107,18.5118446 6.73355875,18.5090819 7.11722475,18.1254159 L18.1254159,7.11722475 C18.5136783,6.72896239 18.5145673,6.10035374 18.1213203,5.70710678 L18.1213203,5.70710678 C17.7307961,5.31658249 17.0948684,5.31934519 16.7112024,5.70301119 L5.70301119,16.7112024 C5.31474883,17.0994647 5.31385983,17.7280734 5.70710678,18.1213203 L5.70710678,18.1213203 Z" id="Line" fill="#79F2C0"></path>
            <path d="M17,7 L17,9.99 C17,10.5422847 17.4477153,10.99 18,10.99 C18.5522847,10.99 19,10.5422847 19,9.99 L19,6.1 C19,5.49271525 18.5072847,5 17.9,5 L14,5 C13.4477153,5 13,5.44771525 13,6 C13,6.55228475 13.4477153,7 14,7 L17,7 Z" id="Stroke-1" fill="#79F2C0"></path>
        </g>
    </g>
</svg>