<?xml version="1.0" encoding="UTF-8" standalone="no"?>
<svg width="24px" height="24px" viewBox="0 0 24 24" version="1.1" xmlns="http://www.w3.org/2000/svg" xmlns:xlink="http://www.w3.org/1999/xlink">
    <!-- Generator: Sketch 45.1 (43504) - http://www.bohemiancoding.com/sketch -->
    <title>icons/issues</title>
    <desc>Created with Sketch.</desc>
    <defs></defs>
    <g id="Global" stroke="none" stroke-width="1" fill="none" fill-rule="evenodd">
        <g id="icons/issues" fill="#42526E">
            <path d="M5,12.9914698 C5,12.9978202 19.0049107,13 19.0049107,13 C18.9994849,13 19,5.0085302 19,5.0085302 C19,5.00217984 4.99508929,5 4.99508929,5 C5.00051505,5 5,12.9914698 5,12.9914698 Z M3,5.0085302 C3,3.8992496 3.8926228,3 4.99508929,3 L19.0049107,3 C20.1067681,3 21,3.90195036 21,5.0085302 L21,12.9914698 C21,14.1007504 20.1073772,15 19.0049107,15 L4.99508929,15 C3.8932319,15 3,14.0980496 3,12.9914698 L3,5.0085302 Z" id="Rectangle-42" fill-rule="nonzero"></path>
            <path d="M18.9999823,19 C18.9953975,20.1053568 18.1000963,21 16.9941413,21 L7.00585866,21 C5.90090142,21 5.00461875,20.1026811 5.00001779,19 L18.9999836,19 Z" id="Combined-Shape" fill-rule="nonzero"></path>
            <path d="M19.9999647,16 C19.9953929,17.1053568 19.1026487,18 18.005922,18 L5.99404259,18 C4.89558466,18 4.0045739,17.1026811 4,16 L19.9999659,16 Z" id="Combined-Shape" fill-rule="nonzero"></path>
            <path d="M10.6741727,11.3311118 C11.0335476,11.6904868 11.6153491,11.6904868 11.974724,11.3301927 L14.7320768,8.56824437 C15.0896135,8.2088694 15.0896135,7.62706797 14.7302385,7.26861211 C14.3727018,6.91107537 13.7890621,6.90923714 13.4306063,7.27045035 L11.3230697,9.38074431 L10.5684741,8.62614878 C10.2100183,8.26769292 9.62821687,8.26769292 9.26884189,8.62614878 C8.91038604,8.98552375 8.91038604,9.56732518 9.26884189,9.92578103 L10.6741727,11.3311118 Z" id="Fill-1"></path>
        </g>
    </g>
</svg>