<?xml version="1.0" encoding="UTF-8" standalone="no"?>
<svg width="24px" height="24px" viewBox="0 0 24 24" version="1.1" xmlns="http://www.w3.org/2000/svg" xmlns:xlink="http://www.w3.org/1999/xlink">
    <!-- Generator: Sketch 49.3 (51167) - http://www.bohemiancoding.com/sketch -->
    <title>icons/label</title>
    <desc>Created with Sketch.</desc>
    <defs></defs>
    <g id="icons/label" stroke="none" stroke-width="1" fill="none" fill-rule="evenodd">
        <path d="M11.4331,5.4277 L7.2261,6.0287 C6.3461,6.1547 5.6541,6.8457 5.5291,7.7257 L4.9281,11.9327 C4.8831,12.2447 4.9881,12.5587 5.2101,12.7817 L12.1051,19.6757 C12.4951,20.0667 13.1281,20.0667 13.5191,19.6757 L19.1761,14.0187 C19.5661,13.6287 19.5661,12.9957 19.1761,12.6047 L12.2821,5.7107 C12.0591,5.4877 11.7451,5.3827 11.4331,5.4277 M10.7861,11.2857 C10.1351,11.9367 9.0791,11.9367 8.4291,11.2857 C7.7781,10.6347 7.7781,9.5797 8.4291,8.9287 C9.0791,8.2777 10.1351,8.2777 10.7861,8.9287 C11.4361,9.5797 11.4361,10.6347 10.7861,11.2857" id="Fill-1" fill="#42526E"></path>
    </g>
</svg>