<?xml version="1.0" encoding="UTF-8" standalone="no"?>
<svg width="24px" height="24px" viewBox="0 0 24 24" version="1.1" xmlns="http://www.w3.org/2000/svg" xmlns:xlink="http://www.w3.org/1999/xlink">
    <!-- Generator: Sketch 45.1 (43504) - http://www.bohemiancoding.com/sketch -->
    <title>icons/link</title>
    <desc>Created with Sketch.</desc>
    <defs></defs>
    <g id="Global" stroke="none" stroke-width="1" fill="none" fill-rule="evenodd">
        <g id="icons/link" fill="#42526E">
            <path d="M12.8559321,5.45656332 L11.9185899,6.37718337 C11.5140636,6.77449291 11.5140636,7.41770758 11.9185899,7.81400098 L11.9185899,7.81400098 C12.3220816,8.21131051 12.9780142,8.21131051 13.3815059,7.81400098 L14.3664395,6.84765477 C15.3327503,5.89858288 16.9084371,5.71262983 17.9678615,6.56008802 C19.1855787,7.53557946 19.2538619,9.30670611 18.1706419,10.3706015 L15.2675709,13.2218817 C14.2474612,14.2248088 12.5921106,14.2248088 11.5720009,13.2218817 L10.462916,12.1325829 L9,13.5704166 L10.1080503,14.6586993 C11.9299704,16.4471002 14.9096014,16.4471002 16.7304869,14.6586993 L19.6345925,11.8074191 C21.5672142,9.90825917 21.4482359,6.72775061 19.2776576,4.98609193 C17.385385,3.47001565 14.5826696,3.76063081 12.8559321,5.45656332" id="Fill-1"></path>
            <path d="M11.144116,19.5434367 L12.0814582,18.6228166 C12.4859845,18.2255071 12.4859845,17.5822924 12.0814582,17.185999 L12.0814582,17.185999 C11.6779665,16.7886895 11.0220339,16.7886895 10.6185422,17.185999 L9.63360863,18.1523452 C8.66729777,19.1014171 7.09161099,19.2873702 6.03218665,18.439912 C4.81446943,17.4644205 4.74618622,15.6932939 5.82940622,14.6293985 L8.73247719,11.7781183 C9.75258695,10.7751912 11.4079375,10.7751912 12.4280472,11.7781183 L13.5371321,12.8674171 L15.0000481,11.4295834 L13.8919979,10.3413007 C12.0700777,8.55289976 9.09044674,8.55289976 7.26956117,10.3413007 L4.3654556,13.1925809 C2.43283386,15.0917408 2.55181218,18.2722494 4.72239055,20.0139081 C6.61466312,21.5299844 9.41737847,21.2393692 11.144116,19.5434367" id="Fill-4"></path>
        </g>
    </g>
</svg>