<?xml version="1.0" encoding="UTF-8" standalone="no"?>
<svg width="24px" height="24px" viewBox="0 0 24 24" version="1.1" xmlns="http://www.w3.org/2000/svg" xmlns:xlink="http://www.w3.org/1999/xlink">
    <!-- Generator: Sketch 45.1 (43504) - http://www.bohemiancoding.com/sketch -->
    <title>icons/list</title>
    <desc>Created with Sketch.</desc>
    <defs></defs>
    <g id="Global" stroke="none" stroke-width="1" fill="none" fill-rule="evenodd">
        <g id="icons/list" fill-rule="nonzero" fill="#42526E">
            <path d="M3,18 C3,18.5522847 3.44494629,19 3.99339768,19 L20.0066023,19 C20.5552407,19 21,18.5561352 21,18 L21,17 L3,17 L3,18 Z" id="Line-Copy-3"></path>
            <polygon id="Line" points="3 11 21 11 21 9 3 9"></polygon>
            <path d="M3,7 L21,7 L21,6 C21,5.44771525 20.5550537,5 20.0066023,5 L3.99339768,5 C3.44475929,5 3,5.44386482 3,6 L3,7 Z" id="Line-Copy-2"></path>
            <polygon id="Line-Copy" points="3 15 21 15 21 13 3 13"></polygon>
        </g>
    </g>
</svg>