<svg xmlns="http://www.w3.org/2000/svg" width="24" height="24" viewBox="0 0 24 24">
  <path fill="#42526E" fill-rule="evenodd" d="M8,10.0000169 L8,8.00236948 C8,5.79192185 9.79535615,4 12,4 C14.209139,4 16,5.79182182 16,8.00236948 L16,10.0000167 C17.1053568,10.0045532 18,10.8902855 18,11.999615 L18,18.000385 C18,19.1047419 17.0980496,20 15.9914698,20 L8.0085302,20 C6.8992496,20 6,19.1125667 6,18.000385 L6,11.999615 C6,10.8980972 6.89731892,10.0046044 8,10.0000177 Z M10,10 L14,10 L14,8.00236948 C14,6.89616855 13.1043465,6 12,6 C10.8982909,6 10,6.89812584 10,8.00236948 L10,10 Z M12,17 C13.1045695,17 14,16.1045695 14,15 C14,13.8954305 13.1045695,13 12,13 C10.8954305,13 10,13.8954305 10,15 C10,16.1045695 10.8954305,17 12,17 Z"/>
</svg>
