<?xml version="1.0" encoding="UTF-8" standalone="no"?>
<svg width="24px" height="24px" viewBox="0 0 24 24" version="1.1" xmlns="http://www.w3.org/2000/svg" xmlns:xlink="http://www.w3.org/1999/xlink">
    <!-- Generator: Sketch 45.1 (43504) - http://www.bohemiancoding.com/sketch -->
    <title>icons/marketplace</title>
    <desc>Created with Sketch.</desc>
    <defs></defs>
    <g id="Global" stroke="none" stroke-width="1" fill="none" fill-rule="evenodd">
        <g id="icons/marketplace" fill="#42526E">
            <rect id="Rectangle-49" x="4" y="11" width="2" height="5"></rect>
            <path d="M4.55613518,3.88772964 C4.80127495,3.3974501 5.44994876,3 6.00684547,3 L17.9931545,3 C18.5492199,3 19.1990795,3.39815903 19.4438648,3.88772964 L21,7 L3,7 L4.55613518,3.88772964 Z M3,7 L21,7 L21,8 L3,8 L3,7 Z" id="Combined-Shape"></path>
            <rect id="Rectangle-49-Copy" x="18" y="11" width="2" height="5"></rect>
            <path d="M3,8 C3.14010904,9.12762911 4.09405082,10 5.25,10 C6.40594918,10 7.35989096,9.12762911 7.5,8 L3,8 Z" id="Combined-Shape"></path>
            <path d="M7.5,8 C7.64010904,9.12762911 8.59405082,10 9.75,10 C10.9059492,10 11.859891,9.12762911 12,8 L7.5,8 Z" id="Combined-Shape-Copy"></path>
            <path d="M12,8 C12.140109,9.12762911 13.0940508,10 14.25,10 C15.4059492,10 16.359891,9.12762911 16.5,8 L12,8 Z" id="Combined-Shape-Copy-2"></path>
            <path d="M16.5,8 C16.640109,9.12762911 17.5940508,10 18.75,10 C19.9059492,10 20.859891,9.12762911 21,8 L16.5,8 Z" id="Combined-Shape-Copy-3"></path>
            <path d="M4,16 L20,16 L20,18.9951185 C20,20.102384 19.1054862,21 18.0059397,21 L5.99406028,21 C4.8927712,21 4,20.1061002 4,18.9951185 L4,16 Z" id="Rectangle-48"></path>
        </g>
    </g>
</svg>