<?xml version="1.0" encoding="UTF-8" standalone="no"?>
<svg width="24px" height="24px" viewBox="0 0 24 24" version="1.1" xmlns="http://www.w3.org/2000/svg" xmlns:xlink="http://www.w3.org/1999/xlink">
    <!-- Generator: Sketch 45.1 (43504) - http://www.bohemiancoding.com/sketch -->
    <title>icons/mention</title>
    <desc>Created with Sketch.</desc>
    <defs></defs>
    <g id="Global" stroke="none" stroke-width="1" fill="none" fill-rule="evenodd">
        <g id="icons/mention" fill="#42526E">
            <path d="M11.9392683,12 L5.0085302,12 C3.90195036,12 3,12.8954799 3,14.0001103 C3,14.0001103 3,21.8513001 3,18.4460997 C3,20.6791582 8.16055118,21.4478241 11.7132927,20.7520974 C10.7266315,19.6122932 10.1296961,18.1258575 10.1296961,16.5 C10.1296961,14.7535079 10.8185001,13.1678945 11.9392683,12 Z" id="Combined-Shape"></path>
            <path d="M21.153,13.123 C21.9483,14.1592 22.1947,15.4385 21.8438,16.7255 C21.5028,17.9795 20.8923,18.8034 20.0288,19.1719 C18.8903,19.6581 17.8299,19.1202 17.7144,19.0575 C17.4713,18.9156 17.2887,18.7506 17.1391,18.5757 C16.6914,18.9035 16.1997,19.096 15.7223,19.096 C15.433,19.096 15.1503,19.03 14.8896,18.8903 C14.4683,18.6648 14.1537,18.2666 14.0074,17.7694 C13.7973,17.0555 13.9271,16.1964 14.3638,15.4121 C15.0821,14.124 16.5319,13.53 17.5945,14.0767 C17.6517,14.1053 17.688,14.1592 17.7408,14.1944 C17.974,14.0349 18.2732,13.9799 18.5493,14.0943 C18.9915,14.2747 19.2027,14.7774 19.0201,15.2174 L18.9475,15.3901 C18.5097,16.4417 18.1797,17.3305 18.5625,17.5582 C18.5625,17.5582 18.5614,17.5571 18.5625,17.5571 C18.5669,17.5571 18.9849,17.7485 19.3567,17.5868 C19.6999,17.4328 19.9837,16.9796 20.1762,16.2745 C20.3874,15.4957 20.2543,14.7862 19.7802,14.168 C19.1048,13.2891 17.8266,12.7215 16.5253,12.7215 C14.432,12.7215 12.7292,14.4155 12.7292,16.5 C12.7292,18.5834 14.432,20.2796 16.5253,20.2796 C17.0027,20.2796 17.3899,20.6646 17.3899,21.1398 C17.3899,21.615 17.0027,22 16.5253,22 C13.4783,22 11,19.5327 11,16.5 C11,13.4673 13.4783,11 16.5253,11 C18.3733,11 20.1465,11.814 21.153,13.123 Z M17.2546,16.8795 C17.6682,16.1425 17.6088,15.4143 17.1138,15.1602 C16.5924,14.8929 15.84,15.2889 15.477,15.9357 C15.0634,16.6727 15.1261,17.4812 15.6178,17.7419 C16.1084,18.0026 16.841,17.6165 17.2546,16.8795 Z" id="Combined-Shape"></path>
            <circle id="Oval-2" cx="9" cy="7" r="4"></circle>
        </g>
    </g>
</svg>