<?xml version="1.0" encoding="UTF-8" standalone="no"?>
<svg width="24px" height="24px" viewBox="0 0 24 24" version="1.1" xmlns="http://www.w3.org/2000/svg" xmlns:xlink="http://www.w3.org/1999/xlink">
    <!-- Generator: Sketch 45.1 (43504) - http://www.bohemiancoding.com/sketch -->
    <title>icons/notification-direct</title>
    <desc>Created with Sketch.</desc>
    <defs></defs>
    <g id="Global" stroke="none" stroke-width="1" fill="none" fill-rule="evenodd">
        <g id="icons/notification-direct" fill="#42526E">
            <path d="M6.58575,17.829 C7.36675,18.61 8.63375,18.61 9.41475,17.829 L6.58575,15 C5.80475,15.781 5.80475,17.048 6.58575,17.829 Z" id="Clip-2-Copy"></path>
            <path d="M11.3839695,5.478 C12.3699695,4.493 13.6619695,4 14.9539695,4 C15.9259695,4 16.8989695,4.28 17.7419695,4.839 C17.7619695,4.813 17.7849695,4.789 17.8079695,4.765 C18.2029695,4.371 18.8419695,4.371 19.2359695,4.765 C19.6299695,5.16 19.6299695,5.799 19.2359695,6.192 C19.2119695,6.216 19.1869695,6.239 19.1619695,6.259 C20.4629695,8.22 20.2499695,10.888 18.5219695,12.615 L17.7971246,13.3401835 C17.0150037,14.1226696 15.9838327,15.5506132 15.4854363,16.546577 L13.9759695,19.563 C13.7269695,20.063 13.2029695,20.147 12.8049695,19.75 L4.24896952,11.195 C3.85196952,10.798 3.94096952,10.271 4.43596952,10.023 L7.45302014,8.51478851 C8.44158188,8.02061046 9.8737602,6.98891469 10.6591246,6.20318349 L11.3839695,5.478 Z M14.1228916,15.1080371 C14.6403984,14.1332985 15.6909292,12.7118135 16.4765649,11.925811 L17.2016602,11.2003772 C18.2313239,10.1713093 18.3834189,8.56227583 17.5888837,7.36467129 C17.3995402,7.07927344 16.8711385,6.599308 16.730174,6.50583327 C16.2299327,6.17411932 15.6447113,6 15.0474643,6 C14.2426582,6 13.4726592,6.3120629 12.89142,6.89247169 L11.9410727,7.84326283 C11.1569741,8.62772767 9.72229082,9.66310171 8.74003589,10.1541268 L7,11.0239635 L13.0692829,17.0925385 L14.1228916,15.1080371 Z" id="Combined-Shape"></path>
        </g>
    </g>
</svg>