<?xml version="1.0" encoding="UTF-8" standalone="no"?>
<svg width="24px" height="24px" viewBox="0 0 24 24" version="1.1" xmlns="http://www.w3.org/2000/svg" xmlns:xlink="http://www.w3.org/1999/xlink">
    <!-- Generator: Sketch 45.1 (43504) - http://www.bohemiancoding.com/sketch -->
    <title>icons/notification</title>
    <desc>Created with Sketch.</desc>
    <defs></defs>
    <g id="Global" stroke="none" stroke-width="1" fill="none" fill-rule="evenodd">
        <g id="icons/notification" fill="#42526E">
            <path d="M6.485,17.6685 C7.266,18.4495 8.533,18.4495 9.314,17.6685 L6.485,14.8395 C5.704,15.6205 5.704,16.8875 6.485,17.6685 Z" id="Clip-2"></path>
            <path d="M11.382,5.4775 L10.6571551,6.20268349 C9.87503422,6.98516964 8.44722172,8.01630658 7.45105062,8.51428851 L4.434,10.0225 C3.939,10.2705 3.85,10.7975 4.247,11.1945 L12.803,19.7495 C13.201,20.1465 13.725,20.0625 13.974,19.5625 L15.4834668,16.546077 C15.9780561,15.5577209 17.0097907,14.1254147 17.7951551,13.3396835 L18.52,12.6145 C20.248,10.8875 20.461,8.2195 19.16,6.2585 C19.185,6.2385 19.21,6.2155 19.234,6.1915 C19.628,5.7985 19.628,5.1595 19.234,4.7645 C18.84,4.3705 18.201,4.3705 17.806,4.7645 C17.783,4.7885 17.76,4.8125 17.74,4.8385 C16.897,4.2795 15.924,3.9995 14.952,3.9995 C13.66,3.9995 12.368,4.4925 11.382,5.4775 Z" id="Clip-5"></path>
        </g>
    </g>
</svg>