<?xml version="1.0" encoding="UTF-8" standalone="no"?>
<svg width="24px" height="24px" viewBox="0 0 24 24" version="1.1" xmlns="http://www.w3.org/2000/svg" xmlns:xlink="http://www.w3.org/1999/xlink">
    <!-- Generator: Sketch 45.1 (43504) - http://www.bohemiancoding.com/sketch -->
    <title>icons/office-building</title>
    <desc>Created with Sketch.</desc>
    <defs></defs>
    <g id="Global" stroke="none" stroke-width="1" fill="none" fill-rule="evenodd">
        <g id="icons/office-building" fill="#42526E">
            <path d="M8,6 L5.0085302,6 C3.90195036,6 3,6.96220019 3,8.14913428 L3,18.8508657 C3,20.0388642 3.8992496,21 5.0085302,21 L10.4957349,21 L8,21 L8,18.8546522 C6.38395203,18.8535856 5,18.8522641 5,18.8508657 C5,18.8508657 5.00457681,8.14285714 5.0085302,8.14285714 C5.0085302,8.14285714 6.38761521,8.14336052 8,8.14418994 L8,6 Z" id="Combined-Shape" fill-rule="nonzero"></path>
            <rect id="Rectangle-53" x="12" y="7" width="2" height="2"></rect>
            <rect id="Rectangle-53-Copy-7" x="6" y="10" width="2" height="2"></rect>
            <rect id="Rectangle-53-Copy-8" x="6" y="13" width="2" height="2"></rect>
            <rect id="Rectangle-53-Copy-2" x="12" y="10" width="2" height="2"></rect>
            <rect id="Rectangle-53-Copy-4" x="12" y="13" width="2" height="2"></rect>
            <rect id="Rectangle-53-Copy-6" x="14" y="16" width="2" height="3"></rect>
            <rect id="Rectangle-53-Copy" x="16" y="7" width="2" height="2"></rect>
            <rect id="Rectangle-53-Copy-3" x="16" y="10" width="2" height="2"></rect>
            <rect id="Rectangle-53-Copy-5" x="16" y="13" width="2" height="2"></rect>
            <path d="M18.9914698,19 C18.9978202,19 19,4.99508929 19,4.99508929 C19,5.00051505 11.0085302,5 11.0085302,5 C11.0021798,5 11,19 11,19 L18.9914698,19 Z M9,4.99508929 C9,3.8932319 9.90195036,3 11.0085302,3 L18.9914698,3 C20.1007504,3 21,3.8926228 21,4.99508929 L21,19.0049107 C21,20.1067681 20.0980496,21 18.9914698,21 L9,21 L9,4.99508929 Z" id="Rectangle-3" fill-rule="nonzero"></path>
        </g>
    </g>
</svg>