<?xml version="1.0" encoding="UTF-8" standalone="no"?>
<svg width="24px" height="24px" viewBox="0 0 24 24" version="1.1" xmlns="http://www.w3.org/2000/svg" xmlns:xlink="http://www.w3.org/1999/xlink">
    <!-- Generator: Sketch 45.1 (43504) - http://www.bohemiancoding.com/sketch -->
    <title>icons/open</title>
    <desc>Created with Sketch.</desc>
    <defs></defs>
    <g id="Global" stroke="none" stroke-width="1" fill="none" fill-rule="evenodd">
        <g id="icons/open" fill="#42526E">
            <path d="M11.0310145,7 C10.4590145,7 9.99701453,7.463 10.0000145,8.036 C10.0020145,8.611 10.4700145,9.079 11.0440145,9.081 L14.1650145,9.095 L14.1790145,12.216 C14.1810145,12.79 14.6490145,13.258 15.2240145,13.26 C15.7980145,13.263 16.2610145,12.799 16.2600145,12.225 L16.2410145,8.064 C16.2380145,7.49 15.7700145,7.022 15.1960145,7.019 L11.0350145,7 L11.0310145,7 Z" id="Clip-2-Copy"></path>
            <path d="M13.3635,8.292 L6.2925,15.363 C5.9025,15.754 5.9025,16.388 6.2925,16.778 C6.6825,17.168 7.3165,17.168 7.7075,16.778 L14.7785,9.707 C15.1685,9.316 15.1685,8.683 14.7785,8.292 C14.5835,8.098 14.3265,8 14.0715,8 C13.8145,8 13.5585,8.098 13.3635,8.292 Z" id="Clip-5-Copy"></path>
        </g>
    </g>
</svg>