<?xml version="1.0" encoding="UTF-8" standalone="no"?>
<svg width="24px" height="24px" viewBox="0 0 24 24" version="1.1" xmlns="http://www.w3.org/2000/svg" xmlns:xlink="http://www.w3.org/1999/xlink">
    <!-- Generator: Sketch 45.1 (43504) - http://www.bohemiancoding.com/sketch -->
    <title>icons/people-group</title>
    <desc>Created with Sketch.</desc>
    <defs></defs>
    <g id="Global" stroke="none" stroke-width="1" fill="none" fill-rule="evenodd">
        <g id="icons/people-group" fill="#42526E">
            <path d="M8.12601749,10 L3.99961498,10 C2.88743329,10 2,10.8953341 2,11.9997846 C2,11.9997846 2,18.7567112 2,15.7298664 C2,17.0402816 3.87429318,17.7833773 6,17.9591536 C6,16.5516936 6,14.9960612 6,14.9960612 C6,13.3413823 7.3486445,12 9.00032973,12 L9.3541756,12 C8.76376971,11.478897 8.32837763,10.7862243 8.12601749,10 Z" id="Combined-Shape"></path>
            <path d="M15.8739825,10 L20.000385,10 C21.1047419,10 22,10.8854554 22,12.000312 L22,15.7298664 C22,17.0402816 20.1257068,17.7833773 18,17.9591536 C18,14.9798617 18,14.9961181 18,14.9961181 C18,13.3432101 16.6567066,12 14.9996703,12 L14.6458244,12 C15.2362303,11.478897 15.6716224,10.7862243 15.8739825,10 Z" id="Combined-Shape"></path>
            <path d="M9.96712664,5.55435462 C9.75186139,4.10884742 8.50542329,3 7,3 C5.34314575,3 4,4.34314575 4,6 C4,7.65685425 5.34314575,9 7,9 C7.35199266,9 7.68982656,8.93937919 8.00363103,8.82800827 C8.0626367,7.43319383 8.83592722,6.22318396 9.96712664,5.55435462 Z" id="Combined-Shape"></path>
            <path d="M15.9965588,8.82807563 C16.3103097,8.93940363 16.6480783,9 17,9 C18.6568542,9 20,7.65685425 20,6 C20,4.34314575 18.6568542,3 17,3 C15.4952033,3 14.2491763,4.10792452 14.0331427,5.55254975 C15.1653286,6.22108204 15.9390444,7.43216774 15.9965588,8.82807563 Z" id="Combined-Shape"></path>
            <path d="M7,14.9997846 C7,13.8953341 7.88743329,13 8.99961498,13 L15.000385,13 C16.1047419,13 17,13.8854554 17,15.000312 L17,18.7298664 C17,21.7567112 7,21.7567112 7,18.7298664 C7,21.7567112 7,14.9997846 7,14.9997846 Z" id="Rectangle-7"></path>
            <circle id="Oval-3" cx="12" cy="9" r="3"></circle>
        </g>
    </g>
</svg>