<?xml version="1.0" encoding="UTF-8"?>
<svg width="24px" height="24px" viewBox="0 0 24 24" version="1.1" xmlns="http://www.w3.org/2000/svg" xmlns:xlink="http://www.w3.org/1999/xlink">
    <!-- Generator: Sketch 56.2 (81672) - https://sketch.com -->
    <title>global/person-cross</title>
    <desc>Created with Sketch.</desc>
    <g id="global/person-cross" stroke="none" stroke-width="1" fill="none" fill-rule="evenodd">
        <path d="M11.9392683,12 C10.8185001,13.1678945 10.1296961,14.7535079 10.1296961,16.5 C10.1296961,18.1258575 10.7266315,19.6122932 11.7132927,20.7520974 C8.16055118,21.4478241 3,20.6791582 3,18.4460997 C3,21.8513001 3,14.0001103 3,14.0001103 C3,12.8954799 3.90195036,12 5.0085302,12 L11.9392683,12 Z M9,11 C6.790861,11 5,9.209139 5,7 C5,4.790861 6.790861,3 9,3 C11.209139,3 13,4.790861 13,7 C13,9.209139 11.209139,11 9,11 Z M17.60916,16.499386 L18.7713911,15.3349615 C19.0775025,15.0282725 19.0760072,14.5325205 18.7680514,14.2276684 C18.4600955,13.9228164 17.9622957,13.9243055 17.6561844,14.2309945 L16.5003064,15.3890539 L15.3436315,14.2308366 C15.0371788,13.9239754 14.5392648,13.9229223 14.2315093,14.2284845 C13.9237538,14.5340467 13.9226977,15.030514 14.2291503,15.3373753 L15.39084,16.500614 L14.2286089,17.6650385 C13.9224975,17.9717275 13.9239928,18.4674795 14.2319486,18.7723316 C14.5399045,19.0771836 15.0377043,19.0756945 15.3438156,18.7690055 L16.4996936,17.6109461 L17.6563685,18.7691634 C17.9628212,19.0760246 18.4607352,19.0770777 18.7684907,18.7715155 C19.0762462,18.4659533 19.0773023,17.969486 18.7708497,17.6626247 L17.60916,16.499386 Z M16.5,22 C13.4624339,22 11,19.5375661 11,16.5 C11,13.4624339 13.4624339,11 16.5,11 C19.5375661,11 22,13.4624339 22,16.5 C22,19.5375661 19.5375661,22 16.5,22 Z" id="Color" fill="#42526E"></path>
    </g>
</svg>