<?xml version="1.0" encoding="UTF-8" standalone="no"?>
<svg width="24px" height="24px" viewBox="0 0 24 24" version="1.1" xmlns="http://www.w3.org/2000/svg" xmlns:xlink="http://www.w3.org/1999/xlink">
    <!-- Generator: Sketch 41.2 (35397) - http://www.bohemiancoding.com/sketch -->
    <title>portfolio</title>
    <desc>Created with Sketch.</desc>
    <defs></defs>
    <g id="Global" stroke="none" stroke-width="1" fill-rule="evenodd">
        <g id="portfolio" fill="currentColor">
            <path d="M8.82929429,17 L15.1707057,17 C15.5825421,15.8348076 16.6937812,15 18,15 C19.6568542,15 21,16.3431458 21,18 C21,19.6568542 19.6568542,21 18,21 C16.6937812,21 15.5825421,20.1651924 15.1707057,19 L8.82929429,19 C8.41745788,20.1651924 7.30621883,21 6,21 C4.34314575,21 3,19.6568542 3,18 C3,16.3431458 4.34314575,15 6,15 C7.30621883,15 8.41745788,15.8348076 8.82929429,17 L8.82929429,17 Z M3,5 C3,3.8954305 3.89451376,3 4.99406028,3 L17.0059397,3 C18.1072288,3 19,3.88772964 19,5 C19,6.1045695 18.1054862,7 17.0059397,7 L4.99406028,7 C3.8927712,7 3,6.11227036 3,5 Z M8,11 C8,9.8954305 8.89354265,9 10.0027601,9 L18.9972399,9 C20.1033337,9 21,9.88772964 21,11 C21,12.1045695 20.1064574,13 18.9972399,13 L10.0027601,13 C8.89666625,13 8,12.1122704 8,11 Z" id="plan"></path>
        </g>
    </g>
</svg>