<?xml version="1.0" encoding="UTF-8" standalone="no"?>
<svg width="24px" height="24px" viewBox="0 0 24 24" version="1.1" xmlns="http://www.w3.org/2000/svg" xmlns:xlink="http://www.w3.org/1999/xlink">
    <!-- Generator: Sketch 45.1 (43504) - http://www.bohemiancoding.com/sketch -->
    <title>icons/presence-busy</title>
    <desc>Created with Sketch.</desc>
    <defs></defs>
    <g id="Global" stroke="none" stroke-width="1" fill="none" fill-rule="evenodd">
        <g id="icons/presence-busy">
            <path d="M12,18 C15.3137085,18 18,15.3137085 18,12 C18,8.6862915 15.3137085,6 12,6 C8.6862915,6 6,8.6862915 6,12 C6,15.3137085 8.6862915,18 12,18 L12,18 Z" id="main-fill" fill="#42526E"></path>
            <path d="M9.36716331,9.36346038 C9.85185516,8.87876853 10.6405569,8.88162948 11.1142944,9.35536701 L14.6409301,12.8820027 C15.1211521,13.3622247 15.1209077,14.1410627 14.6328367,14.6291338 C14.1481448,15.1138256 13.3594431,15.1109647 12.8857056,14.6372271 L9.35906994,11.1105915 C8.87884793,10.6303695 8.87909227,9.85153141 9.36716331,9.36346038 L9.36716331,9.36346038 Z" id="Path" fill="#79F2C0"></path>
        </g>
    </g>
</svg>