<?xml version="1.0" encoding="UTF-8" standalone="no"?>
<svg width="24px" height="24px" viewBox="0 0 24 24" version="1.1" xmlns="http://www.w3.org/2000/svg" xmlns:xlink="http://www.w3.org/1999/xlink">
    <!-- Generator: Sketch 49.3 (51167) - http://www.bohemiancoding.com/sketch -->
    <title>global/questions</title>
    <desc>Created with Sketch.</desc>
    <defs></defs>
    <g id="global/questions" stroke="none" stroke-width="1" fill="none" fill-rule="evenodd">
        <path d="M15,16 L17,16 L19,16 L19,6 L5,6 L5,16 L12.3333333,16 L15,18 L15,16 Z M17,18 L17,20 C17,20.5522847 16.5522847,21 16,21 C15.7836298,21 15.5730962,20.9298221 15.4,20.8 L11.6666667,18 L5,18 C3.8954305,18 3,17.1045695 3,16 L3,6 C3,4.8954305 3.8954305,4 5,4 L19,4 C20.1045695,4 21,4.8954305 21,6 L21,16 C21,17.1045695 20.1045695,18 19,18 L17,18 Z" id="Combined-Shape" fill="#42526E" fill-rule="nonzero"></path>
        <polygon id="Path" fill="#42526E" points="7 10 17 10 17 8 7 8"></polygon>
        <polygon id="Path" fill="#42526E" points="7 14 13 14 13 12 7 12"></polygon>
    </g>
</svg>