<?xml version="1.0" encoding="UTF-8" standalone="no"?>
<svg width="24px" height="24px" viewBox="0 0 24 24" version="1.1" xmlns="http://www.w3.org/2000/svg" xmlns:xlink="http://www.w3.org/1999/xlink">
    <!-- Generator: Sketch 45.1 (43504) - http://www.bohemiancoding.com/sketch -->
    <title>icons/recent</title>
    <desc>Created with Sketch.</desc>
    <defs></defs>
    <g id="Global" stroke="none" stroke-width="1" fill="none" fill-rule="evenodd">
        <g id="icons/recent" fill="#42526E">
            <path d="M11.0000024,8.00219948 C11.0000008,8.00293281 11,8.00366632 11,8.0044 L11,12.0044 C11,12.2834 11.116,12.5344 11.301,12.7164 L13.771,15.1854 C14.16,15.5744 14.796,15.5744 15.185,15.1854 C15.574,14.7964 15.574,14.1604 15.185,13.7714 L13,11.5864 L13,8.0044 C13,8.00366632 12.9999992,8.00293281 12.9999976,8.00219948 C12.9999992,8.00146721 13,8.0007337 13,8 L13,6 C13,5.44771525 12.5522847,5 12,5 C11.4477153,5 11,5.44771525 11,6 L11,8 C11,8.0007337 11.0000008,8.00146721 11.0000024,8.00220054 Z M12,22 C6.4771525,22 2,17.5228475 2,12 C2,6.4771525 6.4771525,2 12,2 C17.5228475,2 22,6.4771525 22,12 C22,17.5228475 17.5228475,22 12,22 Z" id="Combined-Shape"></path>
        </g>
    </g>
</svg>