<?xml version="1.0" encoding="UTF-8" standalone="no"?>
<svg width="24px" height="24px" viewBox="0 0 24 24" version="1.1" xmlns="http://www.w3.org/2000/svg" xmlns:xlink="http://www.w3.org/1999/xlink">
    <!-- Generator: Sketch 45.1 (43504) - http://www.bohemiancoding.com/sketch -->
    <title>icons/redo</title>
    <desc>Created with Sketch.</desc>
    <defs></defs>
    <g id="Global" stroke="none" stroke-width="1" fill="none" fill-rule="evenodd">
        <g id="icons/redo" fill="#42526E">
            <path d="M4.101,13.569 C3.854,14.069 4.075,14.664 4.594,14.902 C5.114,15.139 5.736,14.927 5.982,14.429 C7.011,12.351 9.193,11 11.63,11 C13.896,11 15.949,12.167 17.055,14.021 C17.341,14.5 17.977,14.666 18.476,14.392 C18.975,14.117 19.148,13.506 18.862,13.026 C17.389,10.557 14.65,9 11.63,9 C8.383,9 5.472,10.802 4.101,13.569 Z" id="Clip-2"></path>
            <path d="M17.497,10 L17.497,13 L14.502,13 C13.948,13 13.5,13.448 13.5,14 C13.5,14.552 13.948,15 14.502,15 L18.398,15 C19.006,15 19.5,14.507 19.5,13.9 L19.5,10 C19.5,9.448 19.051,9 18.498,9 C17.945,9 17.497,9.448 17.497,10 Z" id="Clip-5"></path>
        </g>
    </g>
</svg>