<?xml version="1.0" encoding="UTF-8" standalone="no"?>
<svg width="24px" height="24px" viewBox="0 0 24 24" version="1.1" xmlns="http://www.w3.org/2000/svg" xmlns:xlink="http://www.w3.org/1999/xlink">
    <!-- Generator: Sketch 45.1 (43504) - http://www.bohemiancoding.com/sketch -->
    <title>icons/refresh</title>
    <desc>Created with Sketch.</desc>
    <defs></defs>
    <g id="Global" stroke="none" stroke-width="1" fill="none" fill-rule="evenodd">
        <g id="icons/refresh" fill="#42526E">
            <path d="M8,6.0033389 L8,8.99833055 C8,9.55153731 8.44771525,10 9,10 C9.55228475,10 10,9.55153731 10,8.99833055 L10,5.10183639 C10,4.49353781 9.50728475,4 8.9,4 L5,4 C4.44771525,4 4,4.44846269 4,5.00166945 C4,5.55487621 4.44771525,6.0033389 5,6.0033389 L8,6.0033389 Z" id="Stroke-1" fill-rule="nonzero"></path>
            <path d="M9.42819965,18.0178142 C7.35127967,16.9894079 5.9998,14.8070226 5.9998,12.3703101 C5.9998,10.1043817 7.16733065,8.05116764 9.02091523,6.9452221 C9.50012416,6.65930098 9.66603369,6.02294965 9.39148454,5.52389164 C9.11693538,5.02483362 8.50589371,4.85205204 8.02668477,5.13797316 C5.55716372,6.61141862 3.9998,9.35019128 3.9998,12.3703101 C3.9998,15.6184958 5.80186113,18.5284854 8.56940035,19.8988582 C9.06817675,20.145832 9.66476369,19.9249578 9.90191458,19.4055218 C10.1390655,18.8860858 9.92697606,18.264788 9.42819965,18.0178142 Z" id="Stroke-3" fill-rule="nonzero"></path>
            <path d="M14,15.0016694 L14,18.8981636 C14,19.506177 14.493,20 15.1,20 L19,20 C19.553,20 20,19.5512521 20,18.9983306 C20,18.445409 19.553,17.9966611 19,17.9966611 L16,17.9966611 L16,15.0016694 C16,14.4477462 15.552,14 15,14 C14.448,14 14,14.4477462 14,15.0016694 Z" id="Clip-2"></path>
            <path d="M14.097037,4.59565529 C13.860037,5.11529163 14.072037,5.73593944 14.571037,5.98274067 C16.648037,7.0115998 17.999037,9.19323935 17.999037,11.630011 C17.999037,13.8960003 16.832037,15.9495532 14.978037,17.0554726 C14.499037,17.340804 14.333037,17.9770721 14.608037,18.4758813 C14.882037,18.9757319 15.493037,19.1475556 15.972037,18.8622242 C18.442037,17.3887063 19.999037,14.6499416 19.999037,11.630011 C19.999037,8.3820235 18.197037,5.47247653 15.429037,4.10205283 C15.291037,4.03332337 15.145037,4 15.002037,4 C14.628037,4 14.269037,4.22076734 14.097037,4.59565529 Z" id="Clip-5"></path>
        </g>
    </g>
</svg>