<?xml version="1.0" encoding="UTF-8" standalone="no"?>
<svg width="24px" height="24px" viewBox="0 0 24 24" version="1.1" xmlns="http://www.w3.org/2000/svg" xmlns:xlink="http://www.w3.org/1999/xlink">
    <!-- Generator: Sketch 45.1 (43504) - http://www.bohemiancoding.com/sketch -->
    <title>icons/room-menu</title>
    <desc>Created with Sketch.</desc>
    <defs></defs>
    <g id="Global" stroke="none" stroke-width="1" fill="none" fill-rule="evenodd">
        <g id="icons/room-menu" fill="#42526E">
            <path d="M14,17 L18,17 L18,7 L14,7 L14,17 Z M12,6.00684547 C12,5.45078007 12.4530363,5 12.9970301,5 L19.0029699,5 C19.5536144,5 20,5.44994876 20,6.00684547 L20,17.9931545 C20,18.5492199 19.5469637,19 19.0029699,19 L12.9970301,19 C12.4463856,19 12,18.5500512 12,17.9931545 L12,6.00684547 Z" id="Path" fill-rule="nonzero"></path>
            <rect id="Rectangle-3" x="4" y="5" width="6" height="2" rx="1"></rect>
            <rect id="Rectangle-3-Copy" x="4" y="9" width="6" height="2" rx="1"></rect>
            <rect id="Rectangle-3-Copy-2" x="4" y="13" width="6" height="2" rx="1"></rect>
            <rect id="Rectangle-3-Copy-3" x="4" y="17" width="6" height="2" rx="1"></rect>
        </g>
    </g>
</svg>