<?xml version="1.0" encoding="UTF-8" standalone="no"?>
<svg width="24px" height="24px" viewBox="0 0 24 24" version="1.1" xmlns="http://www.w3.org/2000/svg" xmlns:xlink="http://www.w3.org/1999/xlink">
    <!-- Generator: Sketch 45.1 (43504) - http://www.bohemiancoding.com/sketch -->
    <title>icons/schedule</title>
    <desc>Created with Sketch.</desc>
    <defs></defs>
    <g id="Global" stroke="none" stroke-width="1" fill="none" fill-rule="evenodd">
        <g id="icons/schedule" fill="#42526E">
            <path d="M19,10.3414114 L19,7.00585866 C19,5.89706013 18.1072288,5 17.0059397,5 L4.99406028,5 C3.89451376,5 3,5.89805351 3,7.00585866 L3,16.9941413 C3,18.1029399 3.8927712,19 4.99406028,19 L11.8026932,19 C11.4511752,18.3923302 11.2031701,17.7172891 11.0827887,16.9989875 C8.05493472,16.9981583 5,16.9966902 5,16.9941413 C5,16.9941413 5.00085939,7 4.99406028,7 C4.99406028,7 17,7.00080583 17,7.00585866 C17,7.00585866 16.9998868,8.32249922 17.0000676,9.99999999 C17.7013141,10.0000077 18.3744623,10.1203156 19,10.3414114 Z" id="Combined-Shape" fill-rule="nonzero"></path>
            <path d="M5,4 L5,5 L7,5 L7,4 C7,3.448 6.552,3 6,3 C5.448,3 5,3.448 5,4 Z" id="Clip-5"></path>
            <path d="M15,4 L15,5 L17,5 L17,4 C17,3.448 16.552,3 16,3 C15.448,3 15,3.448 15,4 Z" id="Clip-8"></path>
            <rect id="Rectangle-47" x="4" y="7" width="14" height="2"></rect>
            <path d="M18,15 L18,13.990778 C18,13.4509752 17.5522847,13 17,13 C16.4438648,13 16,13.4435864 16,13.990778 L16,15 L14.990778,15 C14.4509752,15 14,15.4477153 14,16 C14,16.5561352 14.4435864,17 14.990778,17 L16,17 L16,18.009222 C16,18.5490248 16.4477153,19 17,19 C17.5561352,19 18,18.5564136 18,18.009222 L18,17 L19.009222,17 C19.5490248,17 20,16.5522847 20,16 C20,15.4438648 19.5564136,15 19.009222,15 L18,15 Z M17,21 C14.2385763,21 12,18.7614237 12,16 C12,13.2385763 14.2385763,11 17,11 C19.7614237,11 22,13.2385763 22,16 C22,18.7614237 19.7614237,21 17,21 Z" id="Combined-Shape"></path>
        </g>
    </g>
</svg>