<?xml version="1.0" encoding="UTF-8" standalone="no"?>
<svg width="24px" height="24px" viewBox="0 0 24 24" version="1.1" xmlns="http://www.w3.org/2000/svg" xmlns:xlink="http://www.w3.org/1999/xlink">
    <!-- Generator: Sketch 45.1 (43504) - http://www.bohemiancoding.com/sketch -->
    <title>icons/send</title>
    <desc>Created with Sketch.</desc>
    <defs></defs>
    <g id="Global" stroke="none" stroke-width="1" fill="none" fill-rule="evenodd">
        <g id="icons/send" fill-rule="nonzero" fill="#42526E">
            <path d="M6.97831833,19.4774708 C6.97831833,20.8482943 8.62313166,21.5185247 9.55457482,20.5261509 L21.5578569,7.72362536 C22.5185943,6.69516442 21.8025956,5 20.4090968,5 L3.49582179,5 C2.17847204,5 1.50470334,6.6070956 2.41807668,7.57210945 L6.97831833,12.3996728 L6.97831833,19.4774708 Z M8.97116327,18.2121134 L8.97116327,11.5845126 L3.85558064,6.16905481 C4.15902606,6.49092212 3.93441549,7.02581275 3.49582179,7.02581275 L19.4591209,7.02581275 L8.97116327,18.2121134 Z" id="Stroke-1"></path>
            <path d="M8.41556294,12.9015508 L12.42553,10.9514915 C12.9223521,10.7098854 13.1349693,10.0991466 12.900424,9.5873683 C12.6658786,9.07558995 12.0729881,8.85657207 11.5761661,9.09817817 L7.56619901,11.0482375 C7.06937694,11.2898436 6.85675967,11.9005824 7.09130504,12.4123607 C7.32585041,12.9241391 7.91874087,13.1431569 8.41556294,12.9015508 Z" id="Stroke-3"></path>
        </g>
    </g>
</svg>