<?xml version="1.0" encoding="UTF-8" standalone="no"?>
<svg width="24px" height="24px" viewBox="0 0 24 24" version="1.1" xmlns="http://www.w3.org/2000/svg" xmlns:xlink="http://www.w3.org/1999/xlink">
    <!-- Generator: Sketch 45.1 (43504) - http://www.bohemiancoding.com/sketch -->
    <title>icons/shortcut</title>
    <desc>Created with Sketch.</desc>
    <defs></defs>
    <g id="Global" stroke="none" stroke-width="1" fill="none" fill-rule="evenodd">
        <g id="icons/shortcut" fill-rule="nonzero" fill="#42526E">
            <path d="M19.0049107,19 C19.001869,19 19,19.0018721 19,19.0020869 L19.0049107,19 Z M5,19.0059397 C5,19.0015578 4.99844237,19 4.99508929,19 L5,19 L5,19.0059397 Z M5,4.99406028 L5,5 C4.99888337,5 5,4.99888585 5,4.99406028 Z M19,19 L19,13 L21,13 L21,19.0020869 C21,20.1055038 20.1073772,21 19.0049107,21 L4.99508929,21 C3.8932319,21 3,20.1054862 3,19.0059397 L3,4.99406028 C3,3.8927712 3.89585781,3 4.9973917,3 L11,3 L11,5 L5,5 L5,19 L19,19 Z M5,4.99406028 L5,5 C4.99888337,5 5,4.99888585 5,4.99406028 Z M5,19.0059397 C5,19.0015578 4.99844237,19 4.99508929,19 L5,19 L5,19.0059397 Z M11,5 L5,5 L5,19 L19,19 L19,13 L21,13 L21,19.0020869 C21,20.1055038 20.1073772,21 19.0049107,21 L4.99508929,21 C3.8932319,21 3,20.1054862 3,19.0059397 L3,4.99406028 C3,3.8927712 3.89585781,3 4.9973917,3 L11,3 L11,5 Z" id="Rectangle-25"></path>
            <path d="M19,5 L19,8 C19,8.55228475 19.4477153,9 20,9 C20.5522847,9 21,8.55228475 21,8 L21,4 C21,3.44771525 20.5522847,3 20,3 L16,3 C15.4477153,3 15,3.44771525 15,4 C15,4.55228475 15.4477153,5 16,5 L19,5 Z" id="Rectangle-7-Copy"></path>
            <path d="M12.7071068,12.7071068 L20.7071068,4.70710678 C21.0976311,4.31658249 21.0976311,3.68341751 20.7071068,3.29289322 C20.3165825,2.90236893 19.6834175,2.90236893 19.2928932,3.29289322 L11.2928932,11.2928932 C10.9023689,11.6834175 10.9023689,12.3165825 11.2928932,12.7071068 C11.6834175,13.0976311 12.3165825,13.0976311 12.7071068,12.7071068 Z" id="Path-4"></path>
        </g>
    </g>
</svg>