<?xml version="1.0" encoding="UTF-8" standalone="no"?>
<svg width="24px" height="24px" viewBox="0 0 24 24" version="1.1" xmlns="http://www.w3.org/2000/svg" xmlns:xlink="http://www.w3.org/1999/xlink">
    <!-- Generator: Sketch 46.2 (44496) - http://www.bohemiancoding.com/sketch -->
    <title>icons/sign-out</title>
    <desc>Created with Sketch.</desc>
    <defs></defs>
    <g id="Global" stroke="none" stroke-width="1" fill="none" fill-rule="evenodd">
        <g id="icons/sign-out" fill="#42526E">
            <path d="M4.977,11 C4.437,11 4,11.448 4,12 C4,12.551 4.437,13 4.977,13 L16.023,13 C16.562,13 17,12.551 17,12 C17,11.448 16.562,11 16.023,11 L4.977,11 Z" id="Clip-5-Copy"></path>
            <path d="M6.2315,8.306 L3.3015,11.262 C2.8995,11.67 2.8995,12.33 3.3015,12.738 L6.2315,15.695 C6.4345,15.898 6.6995,16 6.9645,16 C7.2295,16 7.4945,15.898 7.6965,15.695 C8.1015,15.286 8.1015,14.625 7.6965,14.217 L5.4995,12.001 L7.6965,9.783 C8.1015,9.376 8.1015,8.714 7.6965,8.306 C7.4935,8.103 7.2295,8 6.9645,8 C6.6985,8 6.4345,8.103 6.2315,8.306 Z" id="Clip-2-Copy"></path>
            <path d="M15.503,3 L12,3 L12,5 L19,5 L19,19 L12,19 L12,21 L15.503,21 L19.006,21 C20.106,21 21,20.107 21,19.005 L21,4.995 C21,3.892 20.108,3 19.006,3 L15.503,3 Z" id="Mask-Copy-2"></path>
        </g>
    </g>
</svg>