<?xml version="1.0" encoding="UTF-8" standalone="no"?>
<svg width="24px" height="24px" viewBox="0 0 24 24" version="1.1" xmlns="http://www.w3.org/2000/svg" xmlns:xlink="http://www.w3.org/1999/xlink">
    <!-- Generator: Sketch 49.3 (51167) - http://www.bohemiancoding.com/sketch -->
    <title>global/star-filled</title>
    <desc>Created with Sketch.</desc>
    <defs></defs>
    <g id="global/star-filled" stroke="none" stroke-width="1" fill="none" fill-rule="evenodd">
        <path d="M12.0718295,17.2836403 L8.16653995,19.3367725 C7.67769536,19.5937733 7.07306821,19.4058268 6.8160674,18.9169822 C6.71372833,18.7223218 6.67841366,18.4993537 6.7155905,18.2825961 L7.46143444,13.9339922 L4.30198882,10.8542939 C3.90650524,10.4687927 3.89841294,9.83567943 4.28391415,9.44019585 C4.43742275,9.28271222 4.63856517,9.18022504 4.8562022,9.14860053 L9.22244865,8.51414778 L11.1750934,4.55765732 C11.4195157,4.06240366 12.0191416,3.85906466 12.5143952,4.10348696 C12.7116078,4.20081719 12.8712353,4.36044472 12.9685656,4.55765732 L14.9212104,8.51414778 L19.2874568,9.14860053 C19.8340017,9.22801815 20.2126831,9.735461 20.1332655,10.2820059 C20.101641,10.4996429 19.9991538,10.7007853 19.8416702,10.8542939 L16.6822246,13.9339922 L17.4280685,18.2825961 C17.5214295,18.8269325 17.1558417,19.3438884 16.6115052,19.4372494 C16.3947476,19.4744263 16.1717795,19.4391116 15.9771191,19.3367725 L12.0718295,17.2836403 Z" id="Star-3-Copy-7" fill="#42526E"></path>
    </g>
</svg>