<?xml version="1.0" encoding="UTF-8" standalone="no"?>
<svg width="24px" height="24px" viewBox="0 0 24 24" version="1.1" xmlns="http://www.w3.org/2000/svg" xmlns:xlink="http://www.w3.org/1999/xlink">
    <!-- Generator: Sketch 45.1 (43504) - http://www.bohemiancoding.com/sketch -->
    <title>icons/star</title>
    <desc>Created with Sketch.</desc>
    <defs></defs>
    <g id="Global" stroke="none" stroke-width="1" fill="none" fill-rule="evenodd">
        <g id="icons/star" fill-rule="nonzero" fill="#42526E">
            <path d="M11.9999675,16.3725515 L15.9808442,18.566036 L15.2191336,13.9114182 L18.4960254,10.5636796 L13.9723548,9.87475102 L11.9999675,5.6861284 L10.0275802,9.87475102 L5.50390959,10.5636796 L8.78080132,13.9114182 L8.01909074,18.566036 L11.9999675,16.3725515 Z M11.9999675,18.6560636 L8.98428006,20.3177236 C8.01684969,20.850783 6.80046244,20.4986557 6.2674031,19.5312253 C6.05118733,19.138823 5.97298908,18.6851864 6.04534468,18.2430399 L6.64361105,14.5871877 L4.07465349,11.9626888 C3.30200199,11.1733325 3.31554395,9.90707495 4.1049003,9.13442346 C4.40441154,8.84125066 4.78845582,8.64957842 5.20279326,8.58647725 L8.67239033,8.05807794 L10.1905416,4.83408493 C10.6611122,3.83476662 11.8526926,3.40613193 12.8520109,3.87670254 C13.2727384,4.07481955 13.6112763,4.41335752 13.8093933,4.83408493 L15.3275446,8.05807794 L18.7971417,8.58647725 C19.8891204,8.75277921 20.6395296,9.7728172 20.4732277,10.8647959 C20.4101265,11.2791333 20.2184543,11.6631776 19.9252815,11.9626888 L17.3563239,14.5871877 L17.9545903,18.2430399 C18.1329761,19.3331098 17.3939101,20.3613963 16.3038403,20.5397821 C15.8616938,20.6121377 15.4080572,20.5339394 15.0156549,20.3177236 L11.9999675,18.6560636 Z" id="Star-2"></path>
        </g>
    </g>
</svg>