<?xml version="1.0" encoding="UTF-8" standalone="no"?>
<svg width="24px" height="24px" viewBox="0 0 24 24" version="1.1" xmlns="http://www.w3.org/2000/svg" xmlns:xlink="http://www.w3.org/1999/xlink">
    <!-- Generator: Sketch 49.3 (51167) - http://www.bohemiancoding.com/sketch -->
    <title>global/star-large</title>
    <desc>Created with Sketch.</desc>
    <defs></defs>
    <g id="global/star-large" stroke="none" stroke-width="1" fill="none" fill-rule="evenodd">
        <path d="M15.6727951,14.0421921 L19.3456906,10.4620038 L14.2698738,9.72444449 L11.9998996,5.12497428 L9.72992534,9.72444449 L4.65410861,10.4620038 L8.3270041,14.0421921 L7.45995109,19.0974991 L11.9998996,16.7107069 L16.5398481,19.0974991 L15.6727951,14.0421921 Z M11.9998996,19.040145 L7.4949472,21.4085386 C6.73900079,21.8059632 5.80400889,21.5153238 5.40658434,20.7593774 C5.2483278,20.4583555 5.19371739,20.113559 5.25120745,19.7783663 L6.11157679,14.7620281 L2.46699375,11.2094376 C1.85542026,10.6133008 1.84290636,9.63425814 2.43904318,9.02268465 C2.67642799,8.77915288 2.98747344,8.6206673 3.32402608,8.57176334 L8.36071597,7.83988946 L10.6131922,3.27587419 C10.9911654,2.51001682 11.9184233,2.19557458 12.6842806,2.57354779 C12.989249,2.7240587 13.2360961,2.97090577 13.386607,3.27587419 L15.6390832,7.83988946 L20.6757731,8.57176334 C21.5209469,8.69457428 22.1065377,9.47928094 21.9837267,10.3244547 C21.9348228,10.6610074 21.7763372,10.9720528 21.5328054,11.2094376 L17.8882224,14.7620281 L18.7485917,19.7783663 C18.8929647,20.620125 18.3276218,21.4195426 17.4858631,21.5639155 C17.1506703,21.6214056 16.8058738,21.5667952 16.504852,21.4085386 L11.9998996,19.040145 Z" id="Star-3-Copy-4" fill="#42526E" fill-rule="nonzero"></path>
    </g>
</svg>