<?xml version="1.0" encoding="UTF-8"?>
<svg width="24px" height="24px" viewBox="0 0 24 24" version="1.1" xmlns="http://www.w3.org/2000/svg" xmlns:xlink="http://www.w3.org/1999/xlink">
    <!-- Generator: Sketch 56.3 (81716) - https://sketch.com -->
    <title>global/stopwatch</title>
    <desc>Created with Sketch.</desc>
    <g id="global/stopwatch" stroke="none" stroke-width="1" fill="none" fill-rule="evenodd">
        <path d="M15.5870766,6.9876893 L16.2129141,6.32409962 C16.4155855,6.10903352 16.6943872,6 16.9721601,6 C17.2200982,6 17.469065,6.08602644 17.6665924,6.26208056 C18.0853094,6.63519525 18.1130867,7.26838989 17.7303773,7.67551503 L17.1648883,8.2751159 C18.3046112,9.52029072 19,11.178937 19,13 C19,16.8659932 15.8659932,20 12,20 C8.13400675,20 5,16.8659932 5,13 C5,11.1788543 5.69545193,9.52014017 6.83526692,8.27494637 L6.27051737,7.67551503 C5.88675418,7.26838989 5.91453328,6.63519525 6.33327757,6.26208056 C6.52978902,6.08602644 6.77980097,6 7.02878406,6 C7.30657512,6 7.58539503,6.10903352 7.78807961,6.32409962 L8.4127119,6.98781574 C9.1888393,6.52372641 10.0623439,6.205661 10.9952793,6.07156574 L10.9977212,5 L10.5,5 C10.2238576,5 10,4.77614237 10,4.5 L10,3.5 C10,3.22385763 10.2238576,3 10.5,3 L13.5,3 C13.7761424,3 14,3.22385763 14,3.5 L14,4.5 C14,4.77614237 13.7761424,5 13.5,5 L13.0015818,5 L13.0032764,6.0713583 C13.9366699,6.20532062 14.8106015,6.52342917 15.5870766,6.9876893 Z M12,18 C14.7614237,18 17,15.7614237 17,13 C17,10.2385763 14.7614237,8 12,8 C9.23857625,8 7,10.2385763 7,13 C7,15.7614237 9.23857625,18 12,18 Z M12.3679274,13.7684478 C12.0478363,14.0843623 11.5371009,14.0759685 11.2271679,13.7496996 C10.917235,13.4234308 10.9254699,12.9028383 11.2455611,12.5869238 L13.6320726,10.2315522 C13.9521637,9.91563769 14.4628991,9.92403153 14.7728321,10.2503004 C15.082765,10.5765692 15.0745301,11.0971617 14.7544389,11.4130762 L12.3679274,13.7684478 Z" id="Watch" fill="#42526E"></path>
    </g>
</svg>
