<?xml version="1.0" encoding="UTF-8" standalone="no"?>
<svg width="24px" height="24px" viewBox="0 0 24 24" version="1.1" xmlns="http://www.w3.org/2000/svg" xmlns:xlink="http://www.w3.org/1999/xlink">
    <!-- Generator: Sketch 45.1 (43504) - http://www.bohemiancoding.com/sketch -->
    <title>icons/table</title>
    <desc>Created with Sketch.</desc>
    <defs></defs>
    <g id="Global" stroke="none" stroke-width="1" fill="none" fill-rule="evenodd">
        <g id="icons/table" fill="#42526E">
            <path d="M3.99999118,17.9953393 L19.9915951,17.9953393 C19.9833106,17.9953407 19.983199,8.00466075 19.983199,8.00466075 L3.99159507,8.00466075 C3.99987954,8.00465933 3.99999118,17.9953393 3.99999118,17.9953393 Z M2,5.99406028 C2,4.8927712 2.89821238,4 3.99079514,4 L20.0092049,4 C21.1086907,4 22,4.89451376 22,5.99406028 L22,18.0059397 C22,19.1072288 21.1017876,20 20.0092049,20 L3.99079514,20 C2.89130934,20 2,19.1054862 2,18.0059397 L2,5.99406028 Z" id="Rectangle-8" fill-rule="nonzero"></path>
            <polygon id="Line" fill-rule="nonzero" points="8 6 8 18 10 18 10 6"></polygon>
            <polygon id="Line-Copy" fill-rule="nonzero" points="14 6 14 18 16 18 16 6"></polygon>
            <rect id="Rectangle-18" x="4" y="12" width="17" height="2"></rect>
        </g>
    </g>
</svg>