<svg width="24" height="24" viewBox="0 0 24 24" fill="none" xmlns="http://www.w3.org/2000/svg">
  <path fill-rule="evenodd" clip-rule="evenodd" d="M8.99998 7.2001C8.99998 8.19421 8.19409 9.0001 7.19998 9.0001C6.20586 9.0001 5.39998 8.19421 5.39998 7.2001C5.39998 6.20599 6.20586 5.4001 7.19998 5.4001C8.19409 5.4001 8.99998 6.20599 8.99998 7.2001ZM10.8 7.2001C10.8 9.18832 9.1882 10.8001 7.19998 10.8001C5.21175 10.8001 3.59998 9.18832 3.59998 7.2001C3.59998 5.21187 5.21175 3.6001 7.19998 3.6001C9.1882 3.6001 10.8 5.21187 10.8 7.2001ZM18.6 7.2001C18.6 8.19421 17.7941 9.0001 16.8 9.0001C15.8059 9.0001 15 8.19421 15 7.2001C15 6.20599 15.8059 5.4001 16.8 5.4001C17.7941 5.4001 18.6 6.20599 18.6 7.2001ZM20.4 7.2001C20.4 9.18832 18.7882 10.8001 16.8 10.8001C14.8118 10.8001 13.2 9.18832 13.2 7.2001C13.2 5.21187 14.8118 3.6001 16.8 3.6001C18.7882 3.6001 20.4 5.21187 20.4 7.2001ZM21.6 16.5C21.6 14.0147 19.5847 12.0004 17.1 12H15.7216C15.2376 12 14.4466 12.1267 13.8467 12.4108L14.6173 14.0375C14.7577 13.971 14.9593 13.9085 15.1834 13.8633C15.4066 13.8183 15.6042 13.8 15.7216 13.8H17.1C18.5911 13.8004 19.8 15.0093 19.8 16.5V18C19.8 18.3314 19.5314 18.6 19.2 18.6H15.7216C14.5862 18.6 13.5721 17.8897 13.1841 16.8227L12.5076 14.9622C11.8609 13.1838 10.1708 12 8.27849 12H6.90002C4.41474 12 2.40002 14.0147 2.40002 16.5V18C2.40002 19.3255 3.47454 20.4 4.80002 20.4H9.60002V18.6H4.80002C4.46865 18.6 4.20002 18.3314 4.20002 18V16.5C4.20002 15.0088 5.40886 13.8 6.90002 13.8H8.27849C9.41385 13.8 10.4279 14.5103 10.8159 15.5773L11.4925 17.4379C12.1392 19.2162 13.8293 20.4 15.7216 20.4H19.2C20.5255 20.4 21.6 19.3255 21.6 18V16.5Z" fill="currentColor"/>
</svg>
