<?xml version="1.0" encoding="UTF-8" standalone="no"?>
<svg width="24px" height="24px" viewBox="0 0 24 24" version="1.1" xmlns="http://www.w3.org/2000/svg" xmlns:xlink="http://www.w3.org/1999/xlink">
    <!-- Generator: Sketch 45.1 (43504) - http://www.bohemiancoding.com/sketch -->
    <title>icons/unlock</title>
    <desc>Created with Sketch.</desc>
    <defs></defs>
    <g id="Global" stroke="none" stroke-width="1" fill="none" fill-rule="evenodd">
        <g id="icons/unlock" fill-rule="nonzero" fill="#42526E">
            <path d="M5,11.0085302 C5,9.8992496 5.89706013,9 7.00585866,9 L16.9941413,9 C18.1019465,9 19,9.90195036 19,11.0085302 L19,18.9914698 C19,20.1007504 18.1029399,21 16.9941413,21 L7.00585866,21 C5.89805351,21 5,20.0980496 5,18.9914698 L5,11.0085302 Z M7,11 L7,19 L17,19 L17,11 L7,11 Z" id="Combined-Shape"></path>
            <circle id="Oval-7" cx="12" cy="15" r="2"></circle>
            <path d="M8,6.25118474 L8,6.00236948 C8,3.79192185 9.79535615,2 12,2 C14.209139,2 16,3.79182182 16,6.00236948 L16,6.5 L14,6.5 L14,6.00236948 C14,4.89616855 13.1043465,4 12,4 C10.8982909,4 10,4.89812584 10,6.00236948 L10,6.25118474 L10,6.5 L10,11 L8,11 L8,6.25118474 Z M14,6.5 L16,6.5 C16,7.05228475 15.5522847,7.5 15,7.5 C14.4477153,7.5 14,7.05228475 14,6.5 Z" id="Combined-Shape"></path>
        </g>
    </g>
</svg>