<?xml version="1.0" encoding="UTF-8" standalone="no"?>
<svg width="24px" height="24px" viewBox="0 0 24 24" version="1.1" xmlns="http://www.w3.org/2000/svg" xmlns:xlink="http://www.w3.org/1999/xlink">
    <!-- Generator: Sketch 45.1 (43504) - http://www.bohemiancoding.com/sketch -->
    <title>icons/unlock-circle</title>
    <desc>Created with Sketch.</desc>
    <defs></defs>
    <g id="Global" stroke="none" stroke-width="1" fill="none" fill-rule="evenodd">
        <g id="icons/unlock-circle">
            <circle id="Combined-Shape" fill="#42526E" cx="12" cy="12" r="10"></circle>
            <path d="M11,9.99 L11,11 L10,11 L10,9.98 C10,8.886 10.886,8 11.98,8 L12.02,8 C13.114,8 14,8.886 14,9.98 L14,11 L13,11 L13,9.99 C13,9.443 12.557,9 12.01,9 L11.99,9 C11.443,9 11,9.443 11,9.99 Z M13,10.5 L13,11 L14,11 L14,10.5 L13,10.5 Z" id="Combined-Shape" fill="#79F2C0"></path>
            <rect id="Rectangle-3" fill="#79F2C0" x="10" y="10" width="1" height="2"></rect>
            <path d="M9,15.0010434 C9,15.5527519 9.45097518,16 9.99077797,16 L14.009222,16 C14.5564136,16 15,15.5573397 15,15.0010434 L15,13 C15,12.448 14.552,12 14,12 L13,12 L11,12 L10,12 C9.448,12 9,12.448 9,13 L9,15.0010434 Z" id="Fill-6" fill="#79F2C0"></path>
            <rect id="Rectangle-14" fill="#79F2C0" x="13" y="10" width="1" height="1" rx="0.5"></rect>
        </g>
    </g>
</svg>
