<?xml version="1.0" encoding="UTF-8"?>
<svg width="24px" height="24px" viewBox="0 0 24 24" version="1.1" xmlns="http://www.w3.org/2000/svg" xmlns:xlink="http://www.w3.org/1999/xlink">
    <!-- Generator: Sketch 50.2 (55047) - http://www.bohemiancoding.com/sketch -->
    <title>pause-updated</title>
    <desc>Created with Sketch.</desc>
    <defs></defs>
    <g id="pause-updated" stroke="none" stroke-width="1" fill="none" fill-rule="evenodd">
        <path d="M6,4 L8,4 C8.55228475,4 9,4.44771525 9,5 L9,19 C9,19.5522847 8.55228475,20 8,20 L6,20 C5.44771525,20 5,19.5522847 5,19 L5,5 C5,4.44771525 5.44771525,4 6,4 Z M16,4 L18,4 C18.5522847,4 19,4.44771525 19,5 L19,19 C19,19.5522847 18.5522847,20 18,20 L16,20 C15.4477153,20 15,19.5522847 15,19 L15,5 C15,4.44771525 15.4477153,4 16,4 Z" id="Combined-Shape" fill="#42526E"></path>
    </g>
</svg>