<?xml version="1.0" encoding="UTF-8" standalone="no"?>
<svg width="24px" height="24px" viewBox="0 0 24 24" version="1.1" xmlns="http://www.w3.org/2000/svg" xmlns:xlink="http://www.w3.org/1999/xlink">
    <!-- Generator: Sketch 45.1 (43504) - http://www.bohemiancoding.com/sketch -->
    <title>icons/vid-audio-on</title>
    <desc>Created with Sketch.</desc>
    <defs></defs>
    <g id="Global" stroke="none" stroke-width="1" fill="none" fill-rule="evenodd">
        <g id="icons/vid-audio-on" fill="#42526E">
            <rect id="Rectangle-3" x="9" y="3" width="6" height="12" rx="3"></rect>
            <path d="M13,17.9168469 C15.8331395,17.4405758 18,14.9755699 18,12.0062606 L18,10.5031303 L18,9 C18,8.44771525 17.5522847,8 17,8 C16.4477153,8 16,8.44771525 16,9 L16,12.0062606 C16,14.2088018 14.205539,16 12,16 C9.79487533,16 8,14.2046639 8,12.0062606 L8,9 C8,8.44771525 7.55228475,8 7,8 C6.44771525,8 6,8.44771525 6,9 L6,10.5031303 L6,12.0062606 C6,14.9660226 8.16228666,17.4394632 11,17.9168068 L11,19.9906311 C11,20.5566468 11.4477153,21 12,21 C12.5561352,21 13,20.5480902 13,19.9906311 L13,17.9168469 Z" id="Combined-Shape" fill-rule="nonzero"></path>
        </g>
    </g>
</svg>