<?xml version="1.0" encoding="UTF-8" standalone="no"?>
<svg width="24px" height="24px" viewBox="0 0 24 24" version="1.1" xmlns="http://www.w3.org/2000/svg" xmlns:xlink="http://www.w3.org/1999/xlink">
    <!-- Generator: Sketch 45.1 (43504) - http://www.bohemiancoding.com/sketch -->
    <title>icons/vid-share-screen</title>
    <desc>Created with Sketch.</desc>
    <defs></defs>
    <g id="Global" stroke="none" stroke-width="1" fill="none" fill-rule="evenodd">
        <g id="icons/vid-share-screen" fill="#42526E">
            <path d="M13,4 L4.99508929,4 C3.8926228,4 3,4.8992496 3,6.0085302 L3,13.9914698 C3,15.0980496 3.8932319,16 4.99508929,16 L19.0049107,16 C20.1073772,16 21,15.1007504 21,13.9914698 L21,7.5 L21,11 L19,11 L19,14 L5,14 L5,6 L13,6 L13,4 Z" id="Combined-Shape" fill-rule="nonzero"></path>
            <rect id="Rectangle-11-Copy" x="10" y="17" width="4" height="3"></rect>
            <path d="M9,20 C9,19.4477153 9.45097518,19 9.99077797,19 L14.009222,19 C14.5564136,19 15,19.4438648 15,20 L15,21 L9,21 L9,20 Z" id="Rectangle-11-Copy-2"></path>
            <path d="M19,5 L19,8 C19,8.55228475 19.4477153,9 20,9 C20.5522847,9 21,8.55228475 21,8 L21,4 C21,3.44771525 20.5522847,3 20,3 L16,3 C15.4477153,3 15,3.44771525 15,4 C15,4.55228475 15.4477153,5 16,5 L19,5 Z" id="Rectangle-7-Copy" fill-rule="nonzero"></path>
            <path d="M19,3.58578644 L12.2928932,10.2928932 C11.9023689,10.6834175 11.9023689,11.3165825 12.2928932,11.7071068 C12.6834175,12.0976311 13.3165825,12.0976311 13.7071068,11.7071068 L20.4142136,5 L19,5 L19,3.58578644 Z" id="Combined-Shape" fill-rule="nonzero"></path>
        </g>
    </g>
</svg>