<?xml version="1.0" encoding="UTF-8"?>
<svg width="24px" height="24px" viewBox="0 0 24 24" version="1.1" xmlns="http://www.w3.org/2000/svg" xmlns:xlink="http://www.w3.org/1999/xlink">
    <!-- Generator: Sketch 50.2 (55047) - http://www.bohemiancoding.com/sketch -->
    <title>camera-on-updated</title>
    <desc>Created with Sketch.</desc>
    <defs></defs>
    <g id="camera-on-updated" stroke="none" stroke-width="1" fill="none" fill-rule="evenodd">
        <path d="M19.6779132,8.0887218 C19.8147119,8.02781955 19.9587104,8 20.099109,8 C20.5707043,8 21,8.31578947 21,8.75263158 L21,15.2473684 C21,15.6842105 20.5707043,16 20.099109,16 C19.9587104,16 19.8138119,15.9721805 19.6761132,15.9105263 L17.0646432,14.493985 L17.0646432,9.49924812 L19.6779132,8.0887218 Z M4.85581727,7 L14.1441827,7 C15.1695218,7 16,7.74682911 16,8.66889186 L16,15.3311081 C16,16.2531709 15.1695218,17 14.1441827,17 L4.85581727,17 C3.83047823,17 3,16.2531709 3,15.3311081 L3,8.66889186 C3,7.74682911 3.83047823,7 4.85581727,7 Z" id="Combined-Shape" fill="#42526E"></path>
    </g>
</svg>