<?xml version="1.0" encoding="UTF-8"?>
<svg width="24px" height="24px" viewBox="0 0 24 24" version="1.1" xmlns="http://www.w3.org/2000/svg" xmlns:xlink="http://www.w3.org/1999/xlink">
    <!-- Generator: Sketch 50.2 (55047) - http://www.bohemiancoding.com/sketch -->
    <title>volume-muted-new</title>
    <desc>Created with Sketch.</desc>
    <defs></defs>
    <g id="volume-muted-new" stroke="none" stroke-width="1" fill="none" fill-rule="evenodd">
        <path d="M14,16.0014832 L14,20.0507993 C14,20.3269416 13.7761424,20.5507993 13.5,20.5507993 C13.3893524,20.5507993 13.28183,20.514097 13.1942762,20.4464418 L8.2317515,16.6117636 L6.67760106,16.6117636 C6.6655403,16.6117636 6.65352946,16.6115471 6.64157212,16.6111179 C6.62941104,16.6115471 6.61719019,16.6117636 6.60491305,16.6117636 L3.99897518,16.6117636 C3.44725642,16.6117636 3,16.1587273 3,15.6147334 L3,9.6087937 C3,9.05814916 3.44144016,8.61176356 3.99897518,8.61176356 L6.60491305,8.61176356 C6.60670807,8.61176356 6.60850197,8.61176836 6.61029476,8.61177794 L3.70529824,5.70678141 C3.31577278,5.31725595 3.31385983,4.68762335 3.70710678,4.29437639 C4.09763107,3.9038521 4.72745225,3.9005083 5.1195118,4.29256785 L20.1231289,19.2961849 C20.5126543,19.6857104 20.5145673,20.315343 20.1213203,20.70859 C19.7307961,21.0991142 19.1009749,21.1024581 18.7089153,20.7103985 L14,16.0014832 Z M19.8289988,16.4959133 L18.7171688,15.3844324 C19.2387715,14.5809238 19.4932729,13.6463001 19.4932729,12.567649 C19.4932729,10.491945 18.5513603,8.96661991 16.5755568,7.89586497 C16.203892,7.69444721 16.0542165,7.20669556 16.2412473,6.80644116 C16.4282781,6.40618676 16.8811903,6.24499782 17.2528551,6.44641558 C19.7202923,7.78360349 21,9.85595085 21,12.567649 C21,14.0754458 20.6044859,15.3901762 19.8289988,16.4959133 Z M17.5483684,14.2159992 L16.3957018,13.0636945 C16.4406814,12.9124207 16.4621979,12.7486515 16.4621979,12.5703921 C16.4621979,11.9329536 16.1877202,11.4884669 15.5467867,11.1411232 C15.1751219,10.9397055 15.0254465,10.4519538 15.2124773,10.0516994 C15.399508,9.65144504 15.8524203,9.4902561 16.2240851,9.69167386 C17.3566523,10.3054504 17.968925,11.2969594 17.968925,12.5703921 C17.968925,13.1873558 17.825301,13.7394153 17.5483684,14.2159992 Z M14,10.6687451 L10.2764334,6.94634794 L13.1942762,4.69165121 C13.4127836,4.52280464 13.7267959,4.56306264 13.8956425,4.78156996 C13.9632977,4.86912376 14,4.97664609 14,5.08729371 L14,10.6687451 Z" id="Combined-Shape" fill="#42526E"></path>
    </g>
</svg>