<?xml version="1.0" encoding="UTF-8"?>
<svg width="24px" height="24px" viewBox="0 0 24 24" version="1.1" xmlns="http://www.w3.org/2000/svg" xmlns:xlink="http://www.w3.org/1999/xlink">
    <!-- Generator: Sketch 50.2 (55047) - http://www.bohemiancoding.com/sketch -->
    <title>full-screen-on-updated</title>
    <desc>Created with Sketch.</desc>
    <defs></defs>
    <g id="full-screen-on-updated" stroke="none" stroke-width="1" fill="none" fill-rule="evenodd">
        <path d="M6,18 L9,18 C9.55228475,18 10,18.4477153 10,19 C10,19.5522847 9.55228475,20 9,20 L6,20 C4.8954305,20 4,19.1045695 4,18 L4,15 C4,14.4477153 4.44771525,14 5,14 C5.55228475,14 6,14.4477153 6,15 L6,18 Z M18,20 L15,20 C14.4477153,20 14,19.5522847 14,19 C14,18.4477153 14.4477153,18 15,18 L18,18 L18,15 C18,14.4477153 18.4477153,14 19,14 C19.5522847,14 20,14.4477153 20,15 L20,18 C20,19.1045695 19.1045695,20 18,20 Z M6,4 L9,4 C9.55228475,4 10,4.44771525 10,5 C10,5.55228475 9.55228475,6 9,6 L6,6 L6,9 C6,9.55228475 5.55228475,10 5,10 C4.44771525,10 4,9.55228475 4,9 L4,6 C4,4.8954305 4.8954305,4 6,4 Z M18,6 L15,6 C14.4477153,6 14,5.55228475 14,5 C14,4.44771525 14.4477153,4 15,4 L18,4 C19.1045695,4 20,4.8954305 20,6 L20,9 C20,9.55228475 19.5522847,10 19,10 C18.4477153,10 18,9.55228475 18,9 L18,6 Z" id="Combined-Shape-Copy" fill="#42526E"></path>
    </g>
</svg>