<?xml version="1.0" encoding="UTF-8" standalone="no"?>
<svg width="24px" height="24px" viewBox="0 0 24 24" version="1.1" xmlns="http://www.w3.org/2000/svg" xmlns:xlink="http://www.w3.org/1999/xlink">
    <!-- Generator: Sketch 45.1 (43504) - http://www.bohemiancoding.com/sketch -->
    <title>icons/vid-hang-up</title>
    <desc>Created with Sketch.</desc>
    <defs></defs>
    <g id="Global" stroke="none" stroke-width="1" fill="none" fill-rule="evenodd">
        <g id="icons/vid-hang-up" fill="#42526E">
            <path d="M5.46746887,14.9499594 L8.07819015,14.29376 C8.07819015,14.29376 8.71851889,14.0566424 8.73034703,13.3160833 L8.72090952,12.1039909 C8.72090952,12.1039909 8.75834705,11.6325898 9.35722263,11.546747 C11.1245837,11.2199982 12.7751478,11.2075168 14.5394777,11.546747 C15.2279627,11.6784627 15.1745251,12.1036972 15.1745251,12.1036972 L15.1823689,12.9925062 C15.1945252,13.7335059 15.8342133,13.9701829 15.8342133,13.9701829 L18.4270283,14.9516041 C19.653592,15.3220965 20.2948738,13.4786354 19.8678266,12.378259 C18.8759819,9.82069927 15.8713227,9.3837469 13.5855705,9.08422227 C12.5007726,8.94137613 11.2950058,9.00708712 10.3118017,9.08467748 C8.59259689,9.22075429 5.14171855,9.79710205 4.14746759,12.353443 C3.7201078,13.4542746 4.2401083,15.3197031 5.46746887,14.9499594 L5.46746887,14.9499594 Z" id="Shape"></path>
        </g>
    </g>
</svg>