<?xml version="1.0" encoding="UTF-8"?>
<svg width="24px" height="24px" viewBox="0 0 24 24" version="1.1" xmlns="http://www.w3.org/2000/svg" xmlns:xlink="http://www.w3.org/1999/xlink">
    <!-- Generator: Sketch 50.2 (55047) - http://www.bohemiancoding.com/sketch -->
    <title>camera-off-updated</title>
    <desc>Created with Sketch.</desc>
    <defs></defs>
    <g id="camera-off-updated" stroke="none" stroke-width="1" fill="none" fill-rule="evenodd">
        <path d="M5.58578644,7 L3.70529824,5.1195118 C3.31577278,4.72998634 3.31385983,4.10035374 3.70710678,3.70710678 C4.09763107,3.31658249 4.72745225,3.31323869 5.1195118,3.70529824 L20.1231289,18.7089153 C20.5126543,19.0984408 20.5145673,19.7280734 20.1213203,20.1213203 C19.7307961,20.5118446 19.1009749,20.5151884 18.7089153,20.1231289 L15.2544939,16.6687075 C14.9449244,16.8768039 14.5606256,17 14.1441827,17 L4.85581727,17 C3.83047823,17 3,16.2531709 3,15.3311081 L3,8.66889186 C3,7.74682911 3.83047823,7 4.85581727,7 L5.58578644,7 Z M20.208539,15.9943253 L17.0646432,12.8504295 L17.0646432,9.49924812 L19.6779132,8.0887218 C19.8147119,8.02781955 19.9587104,8 20.099109,8 C20.5707043,8 21,8.31578947 21,8.75263158 L21,15.2473684 C21,15.6501266 20.6350811,15.9499852 20.208539,15.9943253 Z M11.2142138,7 L14.1441827,7 C15.1695218,7 16,7.74682911 16,8.66889186 L16,11.7857862 L11.2142138,7 Z" id="Combined-Shape" fill="#42526E"></path>
    </g>
</svg>