<?xml version="1.0" encoding="UTF-8" standalone="no"?>
<svg width="24px" height="24px" viewBox="0 0 24 24" version="1.1" xmlns="http://www.w3.org/2000/svg" xmlns:xlink="http://www.w3.org/1999/xlink">
    <!-- Generator: Sketch 45.1 (43504) - http://www.bohemiancoding.com/sketch -->
    <title>icons/world</title>
    <desc>Created with Sketch.</desc>
    <defs></defs>
    <g id="Global" stroke="none" stroke-width="1" fill="none" fill-rule="evenodd">
        <g id="icons/world" fill="#42526E">
            <path d="M12,21 C16.9705627,21 21,16.9705627 21,12 C21,7.02943725 16.9705627,3 12,3 C7.02943725,3 3,7.02943725 3,12 C3,16.9705627 7.02943725,21 12,21 Z M11.1,19.137 C7.545,18.696 4.8,15.672 4.8,12 C4.8,11.442 4.872,10.911 4.989,10.389 L9.3,14.7 L9.3,15.6 C9.3,16.59 10.11,17.4 11.1,17.4 L11.1,19.137 L11.1,19.137 Z M17.31,16.851 C17.076,16.122 16.41,15.6 15.6,15.6 L14.7,15.6 L14.7,12.9 C14.7,12.405 14.295,12 13.8,12 L8.4,12 L8.4,10.2 L10.2,10.2 C10.695,10.2 11.1,9.795 11.1,9.3 L11.1,7.5 L12.9,7.5 C13.89,7.5 14.7,6.69 14.7,5.7 L14.7,5.331 C17.337,6.402 19.2,8.985 19.2,12 C19.2,13.872 18.48,15.573 17.31,16.851 L17.31,16.851 Z" id="Shape"></path>
        </g>
    </g>
</svg>