<svg xmlns="http://www.w3.org/2000/svg" width="16" height="16" viewBox="0 0 16 16">
  <path fill="#FF8B00" fill-rule="evenodd" d="M2,0 L14,0 C15.1045695,-2.02906125e-16 16,0.8954305 16,2 L16,14 C16,15.1045695 15.1045695,16 14,16 L2,16 C0.8954305,16 1.3527075e-16,15.1045695 0,14 L0,2 C-1.3527075e-16,0.8954305 0.8954305,2.02906125e-16 2,0 Z M8.01953038,13.3333333 L8.02086371,13.3333333 C8.21353038,13.3326667 8.39553038,13.2493333 8.52219704,13.1046667 L13.1695304,7.77133333 C13.3615304,7.55066667 13.3875304,7.23 13.2328637,6.98133333 L11.576197,4.31466667 C11.454197,4.11933333 11.240197,4 11.0095304,4 L5.11619704,4 C4.89353038,4 4.68553038,4.11133333 4.56153038,4.296 L2.77886371,6.96266667 C2.61153038,7.214 2.63286371,7.54666667 2.83286371,7.77333333 L7.51886371,13.1066667 C7.64486371,13.2506667 7.82753038,13.3333333 8.01953038,13.3333333 Z"/>
</svg>
