<svg xmlns="http://www.w3.org/2000/svg" width="24" height="24" viewBox="0 0 24 24">
  <path fill="#FF8B00" fill-rule="evenodd" d="M3,0 L21,0 C22.6568542,-3.04359188e-16 24,1.34314575 24,3 L24,21 C24,22.6568542 22.6568542,24 21,24 L3,24 C1.34314575,24 2.02906125e-16,22.6568542 0,21 L0,3 C-2.02906125e-16,1.34314575 1.34314575,3.04359188e-16 3,0 Z M12.0292956,20 L12.0312956,20 C12.3202956,19.999 12.5932956,19.874 12.7832956,19.657 L19.7542956,11.657 C20.0422956,11.326 20.0812956,10.845 19.8492956,10.472 L17.3642956,6.472 C17.1812956,6.179 16.8602956,6 16.5142956,6 L7.67429557,6 C7.34029557,6 7.02829557,6.167 6.84229557,6.444 L4.16829557,10.444 C3.91729557,10.821 3.94929557,11.32 4.24929557,11.66 L11.2782956,19.66 C11.4672956,19.876 11.7412956,20 12.0292956,20 Z"/>
</svg>
