<?xml version="1.0" encoding="UTF-8" standalone="no"?>
<svg width="128px" height="128px" viewBox="0 0 128 128" version="1.1" xmlns="http://www.w3.org/2000/svg" xmlns:xlink="http://www.w3.org/1999/xlink" style="background: #FFFFFF;">
    <!-- Generator: Sketch 42 (36781) - http://www.bohemiancoding.com/sketch -->
    <title>project_avatar_alien</title>
    <desc>Created with Sketch.</desc>
    <defs></defs>
    <g id="Page-1" stroke="none" stroke-width="1" fill="none" fill-rule="evenodd">
        <g id="project_avatar_alien">
            <g id="Default">
                <g>
                    <rect id="Rectangle" fill="#00C7E6" x="0" y="0" width="128" height="128"></rect>
                    <path d="M40.282,109.662 L38.163,109.662 C36.411,109.662 34.977,108.228 34.977,106.476 L34.977,93.928 C34.977,92.176 36.411,90.742 38.163,90.742 L40.282,90.742 C42.034,90.742 43.468,92.176 43.468,93.928 L43.468,106.476 C43.468,108.228 42.034,109.662 40.282,109.662 Z" id="Shape" fill="#5243AA" fill-rule="nonzero"></path>
                    <path d="M89.032,109.662 L86.913,109.662 C85.161,109.662 83.727,108.228 83.727,106.476 L83.727,93.928 C83.727,92.176 85.161,90.742 86.913,90.742 L89.032,90.742 C90.784,90.742 92.218,92.176 92.218,93.928 L92.218,106.476 C92.218,108.228 90.784,109.662 89.032,109.662 Z" id="Shape" fill="#5243AA" fill-rule="nonzero"></path>
                    <ellipse id="Oval" fill="#6555C0" fill-rule="nonzero" cx="63.842" cy="74.704" rx="43.622" ry="30.013"></ellipse>
                    <ellipse id="Oval" fill="#8777D9" fill-rule="nonzero" cx="63.964" cy="67.657" rx="50.305" ry="30.013"></ellipse>
                    <path d="M94.762,48.578 C94.801,47.956 94.827,47.325 94.827,46.677 C94.827,29.43 80.846,15.449 63.599,15.449 C46.694,15.449 32.936,28.884 32.397,45.657 L32.371,45.657 L32.371,53.925 L32.393,53.925 C32.659,63.636 37.455,70.366 44.769,74.291 L82.434,74.293 C89.963,70.256 94.827,63.249 94.827,53.076 C94.827,52.428 94.801,51.786 94.762,51.148 L94.762,48.578 L94.762,48.578 Z" id="Shape" fill="#FFFFFF" fill-rule="nonzero"></path>
                    <path d="M32.477,44.258 C32.441,44.722 32.412,45.188 32.397,45.657 L32.371,45.657 L32.371,53.925 L32.393,53.925 C32.849,70.586 46.64,78.472 63.599,78.472 C80.846,78.472 94.827,70.323 94.827,53.077 C94.827,52.429 94.801,51.787 94.762,51.149 L94.762,48.579 C94.801,47.957 94.827,47.326 94.827,46.678 C94.827,45.743 94.778,44.82 94.698,43.907 C86.197,39.986 75.541,37.646 63.964,37.646 C52.042,37.644 41.097,40.123 32.477,44.258 Z" id="Shape" fill="#7F4CBF" fill-rule="nonzero" opacity="0.15"></path>
                    <path d="M63.599,28.253 L63.599,28.253 C53.24,28.253 44.765,36.728 44.765,47.087 L44.765,53.179 L44.765,68.197 L44.765,74.289 C50.001,77.097 56.524,78.471 63.599,78.471 C70.674,78.471 77.197,77.097 82.433,74.289 L82.433,68.197 L82.433,53.179 L82.433,47.087 C82.433,36.728 73.958,28.253 63.599,28.253 Z" id="Shape" fill="#00C7E6" fill-rule="nonzero"></path>
                    <circle id="Oval" fill="#FFFFFF" fill-rule="nonzero" cx="63.86" cy="50.735" r="11.139"></circle>
                    <circle id="Oval" fill="#403294" fill-rule="nonzero" cx="63.472" cy="50.608" r="4.418"></circle>
                </g>
            </g>
        </g>
    </g>
</svg>