<svg width="16" height="16" viewBox="0 0 16 16" fill="none" xmlns="http://www.w3.org/2000/svg">
<path fill-rule="evenodd" clip-rule="evenodd" d="M14 0H2C0.89543 0 0 0.89543 0 2V14C0 15.1046 0.89543 16 2 16H14C15.1046 16 16 15.1046 16 14V2C16 0.89543 15.1046 0 14 0ZM3 4C3 3.44772 3.44772 3 4 3H12C12.5523 3 13 3.44772 13 4C13 4.55228 12.5523 5 12 5H4C3.44772 5 3 4.55228 3 4ZM3 8C3 7.44772 3.44772 7 4 7H7C7.55229 7 8 7.44772 8 8C8 8.55229 7.55229 9 7 9H4C3.44772 9 3 8.55229 3 8ZM3 12C3 11.4477 3.44772 11 4 11H6.5C7.05229 11 7.5 11.4477 7.5 12C7.5 12.5523 7.05229 13 6.5 13H4C3.44772 13 3 12.5523 3 12ZM11.2929 6.20748L8.43938 10.2563C8.22848 10.5711 8.44752 11 8.81915 11H10.8118C10.9609 11 11.0708 11.1432 11.0362 11.2923L10.5928 13.4132C10.4742 13.9242 11.1313 14.2251 11.4212 13.7925L14.2748 9.7437C14.4857 9.42893 14.2667 9 13.895 9H11.9023C11.7533 9 11.6434 8.85682 11.678 8.70773L12.1214 6.58683C12.2399 6.07579 11.5828 5.77489 11.2929 6.20748Z" fill="#CD519D"/>
</svg>
