<svg height="16" viewBox="0 0 16 16" width="16" fill="none" xmlns="http://www.w3.org/2000/svg">
<path clip-rule="evenodd" d="m2 0h12c.5304 0 1.0391.210714 1.4142.585786.3751.375073.5858.883784.5858 1.414214v12c0 .5304-.2107 1.0391-.5858 1.4142s-.8838.5858-1.4142.5858h-12c-.53043 0-1.039141-.2107-1.414214-.5858-.375072-.3751-.585786-.8838-.585786-1.4142v-12c0-.53043.210714-1.039141.585786-1.414214.375073-.375072.883784-.585786 1.414214-.585786zm1.29289 3.29289c-.18753.18754-.29289.44189-.29289.70711s.10536.51957.29289.70711c.18754.18753.44189.29289.70711.29289h8c.2652 0 .5196-.10536.7071-.29289.1875-.18754.2929-.44189.2929-.70711s-.1054-.51957-.2929-.70711c-.1875-.18753-.4419-.29289-.7071-.29289h-8c-.26522 0-.51957.10536-.70711.29289zm0 4c-.18753.18754-.29289.44189-.29289.70711s.10536.51957.29289.70711c.18754.18753.44189.29289.70711.29289h2c.26522 0 .51957-.10536.70711-.29289.18753-.18754.29289-.44189.29289-.70711s-.10536-.51957-.29289-.70711c-.18754-.18753-.44189-.29289-.70711-.29289h-2c-.26522 0-.51957.10536-.70711.29289zm0 4.00001c-.18753.1875-.29289.4419-.29289.7071s.10536.5196.29289.7071c.18754.1875.44189.2929.70711.2929h2c.26522 0 .51957-.1054.70711-.2929.18753-.1875.29289-.4419.29289-.7071s-.10536-.5196-.29289-.7071c-.18754-.1875-.44189-.2929-.70711-.2929h-2c-.26522 0-.51957.1054-.70711.2929zm6.70335-4.16113c-.34781-.19874-.78066-.17075-1.09997.07114s-.46346.65099-.36631 1.03962l.99988 3.99997c.11128.4452.51126.7575.97016.7575.4588 0 .8588-.3123.9701-.7575l.3107-1.2425h1.2193c.4534 0 .8501-.3051.9665-.7434.1164-.43822-.0767-.89992-.4704-1.12488z" fill="#cd519d" fill-rule="evenodd"/>
</svg>
