<svg width="24" height="24" viewBox="0 0 24 24" fill="none" xmlns="http://www.w3.org/2000/svg">
<path clip-rule="evenodd" d="m24 3c0-.79565-.3161-1.55871-.8787-2.12132s-1.3257-.87868-2.1213-.87868h-18c-.79565 0-1.55871.31607-2.12132.87868s-.87868 1.32567-.87868 2.12132v18c0 .7956.31607 1.5587.87868 2.1213s1.32567.8787 2.12132.8787h18c.7956 0 1.5587-.3161 2.1213-.8787s.8787-1.3257.8787-2.1213zm-20 3c0-.55228.44772-1 1-1h14c.5523 0 1 .44772 1 1s-.4477 1-1 1h-14c-.55228 0-1-.44772-1-1zm1 5c-.55228 0-1 .4477-1 1s.44772 1 1 1h4c.55228 0 1-.4477 1-1s-.44772-1-1-1zm-1 7c0-.5523.44772-1 1-1h4c.55228 0 1 .4477 1 1s-.44772 1-1 1h-4c-.55228 0-1-.4477-1-1zm10.5546-6.8321c-.3282-.2187-.7542-.2242-1.0879-.0139-.3336.2102-.5125.597-.4568.9874l1.0001 7c.0619.4331.398.7756.8298.8457.4318.07.859-.1487 1.0546-.5399l1.2235-2.4472h2.882c.4406 0 .8294-.2885.9571-.7102.1277-.4218-.0358-.8774-.4024-1.1219z" fill="#cd519d" fill-rule="evenodd"/>
</svg>