<svg width="24" height="24" viewBox="0 0 24 24" fill="none" xmlns="http://www.w3.org/2000/svg">
<path fill-rule="evenodd" clip-rule="evenodd" d="M24 3C24 1.34315 22.6569 0 21 0H3C1.34315 0 0 1.34315 0 3V21C0 22.6569 1.34315 24 3 24H21C22.6569 24 24 22.6569 24 21V3ZM5.125 4.875H18.875L19.0277 4.88527C19.5768 4.95976 20 5.43046 20 6C20 6.56954 19.5768 7.04024 19.0277 7.11473L18.875 7.125H5.125L4.97234 7.11473C4.42323 7.04024 4 6.56954 4 6C4 5.43046 4.42323 4.95976 4.97234 4.88527L5.125 4.875ZM10.375 10.875H5.125L4.97234 10.8853C4.42323 10.9598 4 11.4305 4 12C4 12.5695 4.42323 13.0402 4.97234 13.1147L5.125 13.125H10.375L10.5277 13.1147C11.0768 13.0402 11.5 12.5695 11.5 12C11.5 11.4305 11.0768 10.9598 10.5277 10.8853L10.375 10.875ZM9.875 16.875H5.125L4.97234 16.8853C4.42323 16.9598 4 17.4305 4 18C4 18.5695 4.42323 19.0402 4.97234 19.1147L5.125 19.125H9.875L10.0277 19.1147C10.5768 19.0402 11 18.5695 11 18C11 17.4305 10.5768 16.9598 10.0277 16.8853L9.875 16.875ZM16.9037 9.31121L12.6234 15.3845C12.307 15.8566 12.6356 16.5 13.1931 16.5H16.1821C16.4056 16.5 16.5705 16.7148 16.5186 16.9384L15.8535 20.1198C15.6757 20.8863 16.6614 21.3377 17.0961 20.6888L21.3765 14.6155C21.6929 14.1434 21.3643 13.5 20.8069 13.5H17.8178C17.5943 13.5 17.4295 13.2852 17.4814 13.0616L18.1464 9.8802C18.3242 9.11369 17.3385 8.66234 16.9037 9.31121Z" fill="#CD519D"/>
</svg>