<svg width="16" height="16" viewBox="0 0 16 16" fill="none" xmlns="http://www.w3.org/2000/svg">
<path fill-rule="evenodd" clip-rule="evenodd" d="M2.16541 0C0.969489 0 0 0.969489 0 2.16541V13.8346C0 15.0305 0.969489 16 2.16541 16H13.8346C15.0305 16 16 15.0305 16 13.8346V2.16541C16 0.969489 15.0305 0 13.8346 0H2.16541ZM8.00168 11.3417C8.00168 12.264 7.25367 13.0125 6.332 13.0125C5.41034 13.0125 4.66232 12.264 4.66232 11.3417C4.66232 10.4194 5.41034 9.67084 6.332 9.67084C5.41034 9.67084 4.66232 8.92231 4.66232 8C4.66232 7.07769 5.41034 6.32916 6.332 6.32916C5.41034 6.32916 4.66233 5.58062 4.66233 4.65831C4.66233 3.73601 5.41035 2.98747 6.33201 2.98747C7.25368 2.98747 9.67136 2.98747 9.67136 2.98747C10.593 2.98747 11.341 3.73601 11.341 4.65831C11.341 5.58062 10.593 6.32916 9.67136 6.32916H8.00169L8.00169 7.99604C8.00383 7.07555 8.75102 6.32916 9.67136 6.32916C10.593 6.32916 11.341 7.07769 11.341 8C11.341 8.92231 10.593 9.67084 9.67136 9.67084C8.75102 9.67084 8.00382 8.92444 8.00169 8.00395L8.00169 9.67282L8.00168 11.3417Z" fill="#5243AA"/>
</svg>
