<svg xmlns="http://www.w3.org/2000/svg" width="16" height="16" viewBox="0 0 16 16">
  <path fill="#36B37E" fill-rule="evenodd" d="M6.41704876,6 L9,6 C9.55228475,6 10,6.44771525 10,7 L10,8 C10,8.55228475 10.4477153,9 11,9 C11.5522847,9 12,8.55228475 12,8 L12,7 C12,5.34314575 10.6568542,4 9,4 L6.4145,4 L6.709,3.7055 C7.101,3.3145 7.101,2.6815 6.71,2.2905 C6.515,2.0955 6.259,1.9975 6.003,1.9975 C5.747,1.9975 5.492,2.0955 5.296,2.2905 L3.293,4.2915 C2.902,4.6825 2.902,5.3165 3.294,5.7065 L5.296,7.7075 C5.687,8.0975 6.32,8.0975 6.71,7.7055 C7.101,7.3155 7.1,6.6825 6.709,6.2915 L6.41704876,6 Z M2,0 L14,0 C15.1045695,-2.02906125e-16 16,0.8954305 16,2 L16,14 C16,15.1045695 15.1045695,16 14,16 L2,16 C0.8954305,16 1.3527075e-16,15.1045695 0,14 L0,2 C-1.3527075e-16,0.8954305 0.8954305,2.02906125e-16 2,0 Z M11,14 C12.1045695,14 13,13.1045695 13,12 C13,10.8954305 12.1045695,10 11,10 C9.8954305,10 9,10.8954305 9,12 C9,13.1045695 9.8954305,14 11,14 Z"/>
</svg>
