<svg xmlns="http://www.w3.org/2000/svg" width="24" height="24" viewBox="0 0 24 24">
  <path fill="#36B37E" fill-rule="evenodd" d="M3,0 L21,0 C22.6568542,-3.04359188e-16 24,1.34314575 24,3 L24,21 C24,22.6568542 22.6568542,24 21,24 L3,24 C1.34314575,24 2.02906125e-16,22.6568542 0,21 L0,3 C-2.02906125e-16,1.34314575 1.34314575,3.04359188e-16 3,0 Z M7,3 C5.4,3 4,4.3 4,6 C4,7.3 4.8,8.4 6,8.8 L6,20 C6,20.6 6.4,21 7,21 C7.6,21 8,20.6 8,20 L8,8.8 C9.2,8.4 10,7.3 10,6 C10,4.3 8.7,3 7,3 Z M14.414,5 L15,5 C16.6568542,5 18,6.34314575 18,8 L18,15.1707057 C19.1651924,15.5825421 20,16.6937812 20,18 C20,19.6568542 18.6568542,21 17,21 C15.3431458,21 14,19.6568542 14,18 C14,16.6937812 14.8348076,15.5825421 16,15.1707057 L16,8 C16,7.44771525 15.5522847,7 15,7 L14.4167742,7 L14.709,7.292 C15.1,7.682 15.101,8.315 14.71,8.706 C14.32,9.097 13.687,9.097 13.296,8.707 L11.294,6.707 C10.902,6.316 10.902,5.683 11.293,5.292 L13.296,3.29 C13.492,3.095 13.747,2.998 14.003,2.998 C14.259,2.998 14.515,3.095 14.71,3.29 C15.101,3.681 15.101,4.315 14.709,4.705 L14.414,5 Z M7,7 C6.5,7 6,6.6 6,6 C6,5.4 6.4,5 7,5 C7.6,5 8,5.4 8,6 C8,6.6 7.6,7 7,7 Z M17,19 C17.5522847,19 18,18.5522847 18,18 C18,17.4477153 17.5522847,17 17,17 C16.4477153,17 16,17.4477153 16,18 C16,18.5522847 16.4477153,19 17,19 Z"/>
</svg>
