<svg width="12" height="12" viewBox="0 0 12 12" fill="none" xmlns="http://www.w3.org/2000/svg">
<path d="M0 3C0 1.34315 1.34315 0 3 0H9C10.6569 0 12 1.34315 12 3V9C12 10.6569 10.6569 12 9 12H3C1.34315 12 0 10.6569 0 9V3Z" fill="#1868DB"/>
<path d="M8.94391 7.2306C6.92458 6.25419 6.33466 6.10829 5.48382 6.10829C4.4855 6.10829 3.63466 6.52355 2.87458 7.69075L2.74979 7.88155C2.64769 8.03867 2.625 8.09478 2.625 8.16212C2.625 8.22946 2.65903 8.28558 2.78382 8.36414L4.06576 9.16098C4.13382 9.20587 4.19055 9.22832 4.24727 9.22832C4.31534 9.22832 4.36071 9.19465 4.42878 9.09364L4.63298 8.7794C4.95063 8.2968 5.23424 8.13968 5.59727 8.13968C5.91492 8.13968 6.28929 8.22946 6.75441 8.45392L8.09307 9.08242C8.2292 9.14976 8.37668 9.11609 8.44475 8.95897L9.08004 7.5673C9.14811 7.41017 9.10273 7.30917 8.94391 7.2306ZM3.05609 4.77274C5.07542 5.74915 5.66534 5.89505 6.51618 5.89505C7.5145 5.89505 8.36534 5.4798 9.12542 4.31259L9.25021 4.1218C9.35231 3.96468 9.375 3.90856 9.375 3.84122C9.375 3.77388 9.34097 3.71777 9.21618 3.6392L7.93424 2.84236C7.86618 2.79747 7.80945 2.77502 7.75273 2.77502C7.68466 2.77502 7.63929 2.80869 7.57122 2.9097L7.36702 3.22395C7.04937 3.70654 6.76576 3.86367 6.40273 3.86367C6.08508 3.86367 5.71071 3.77388 5.24559 3.54942L3.90693 2.92093C3.7708 2.85359 3.62332 2.88726 3.55525 3.04438L2.91996 4.43605C2.85189 4.59317 2.89727 4.69418 3.05609 4.77274Z" fill="white"/>
</svg>
