<svg height="100%" viewBox="0 0 20 20" fill="none" xmlns="http://www.w3.org/2000/svg">
			<path
				fill="#1868DB"
				d="M0 4a4 4 0 0 1 4-4h12a4 4 0 0 1 4 4v12a4 4 0 0 1-4 4H4a4 4 0 0 1-4-4z"
			/>
			<g clipPath="url(#a)">
				<g clipPath="url(#b)">
					<path
						fill="#fff"
						d="M15.19 12.14c-3.498-1.692-4.52-1.945-5.994-1.945-1.729 0-3.202.72-4.519 2.741l-.216.33c-.177.273-.216.37-.216.487s.059.213.275.35l2.22 1.38a.57.57 0 0 0 .315.116c.118 0 .196-.058.314-.233l.354-.544c.55-.836 1.041-1.108 1.67-1.108.55 0 1.198.155 2.004.544l2.319 1.089c.236.116.491.058.609-.214l1.1-2.41c.118-.273.04-.448-.236-.584M4.99 7.881c3.498 1.691 4.52 1.944 5.994 1.944 1.729 0 3.202-.72 4.519-2.741l.216-.33c.177-.273.216-.37.216-.486 0-.117-.059-.214-.275-.35l-2.22-1.38a.57.57 0 0 0-.315-.117c-.118 0-.196.058-.314.233l-.354.544c-.55.836-1.041 1.108-1.67 1.108-.55 0-1.199-.155-2.004-.544L6.465 4.675c-.236-.117-.491-.059-.609.213l-1.1 2.41c-.118.273-.04.448.235.584"
					/>
				</g>
			</g>
			<defs>
				<clipPath id="a">
					<path fill="#fff" d="M1.5 1.5h17v17h-17z" />
				</clipPath>
				<clipPath id="b">
					<path fill="#fff" d="M4.245 4.422h11.69V15.6H4.246z" />
				</clipPath>
			</defs>
		</svg>