<svg width="12" height="12" viewBox="0 0 12 12" fill="none" xmlns="http://www.w3.org/2000/svg">
<path d="M0 3C0 1.34315 1.34315 0 3 0H9C10.6569 0 12 1.34315 12 3V9C12 10.6569 10.6569 12 9 12H3C1.34315 12 0 10.6569 0 9V3Z" fill="#C97CF4"/>
<path d="M6.7333 2.44089C7.63402 2.70512 8.54358 2.70512 9.4443 2.44089C9.52377 2.42328 9.57676 2.47612 9.5591 2.55539C9.30301 3.48019 9.30301 4.33452 9.5591 5.25932C9.57676 5.32978 9.52377 5.39143 9.4443 5.36501C8.54358 5.1184 7.63402 5.1184 6.7333 5.36501C6.66265 5.39143 6.60084 5.32978 6.62733 5.25932C6.86576 4.33452 6.86576 3.48019 6.62733 2.55539C6.60084 2.47612 6.66265 2.42328 6.7333 2.44089ZM7.09535 5.71731V5.86704C7.09535 6.56284 6.60967 7.07368 6.00919 7.07368C5.4087 7.07368 4.93185 6.58927 4.93185 5.99035C4.93185 5.39143 5.41753 4.91582 6.09749 4.91582H6.2741V2.81081C6.1858 2.80201 6.09749 2.80201 6.00919 2.80201C4.24306 2.80201 2.8125 4.22883 2.8125 5.99916C2.8125 7.76948 4.24306 9.1875 6.00919 9.1875C7.77531 9.1875 9.2147 7.76067 9.2147 5.99916V5.71731H7.09535Z" fill="#101214"/>
</svg>
