<svg width="12" height="12" viewBox="0 0 12 12" fill="none" xmlns="http://www.w3.org/2000/svg">
<path d="M0 3C0 1.34315 1.34315 0 3 0H9C10.6569 0 12 1.34315 12 3V9C12 10.6569 10.6569 12 9 12H3C1.34315 12 0 10.6569 0 9V3Z" fill="#1868DB"/>
<path d="M4.44805 7.80716H3.75456C2.70865 7.80716 1.95831 7.16652 1.95831 6.22844H5.68724C5.88051 6.22844 6.00556 6.36572 6.00556 6.5602V10.3125C5.07333 10.3125 4.44805 9.55748 4.44805 8.505V7.80716ZM6.28978 5.94244H5.59629C4.55037 5.94244 3.80004 5.31324 3.80004 4.37516H7.52896C7.72223 4.37516 7.85865 4.501 7.85865 4.69548V8.4478C6.92642 8.4478 6.28978 7.69276 6.28978 6.64028V5.94244ZM8.14287 4.08916H7.44938C6.40346 4.08916 5.65313 3.44852 5.65313 2.51044H9.38206C9.57532 2.51044 9.70038 2.64772 9.70038 2.83076V6.58308C8.76815 6.58308 8.14287 5.82804 8.14287 4.77556V4.08916Z" fill="white"/>
</svg>
