<svg height="100%" viewBox="0 0 20 20" fill="none" xmlns="http://www.w3.org/2000/svg">
			<path
				fill="#1868DB"
				d="M0 4a4 4 0 0 1 4-4h12a4 4 0 0 1 4 4v12a4 4 0 0 1-4 4H4a4 4 0 0 1-4-4z"
			/>
			<g clipPath="url(#a)">
				<g clipPath="url(#b)">
					<path
						fill="#fff"
						d="M7.517 12.891h-1.11c-1.673 0-2.874-1.025-2.874-2.525H9.5c.309 0 .509.22.509.53V16.9c-1.492 0-2.492-1.208-2.492-2.892zm2.947-2.983h-1.11C7.681 9.908 6.48 8.9 6.48 7.4h5.966c.31 0 .528.202.528.513v6.003c-1.492 0-2.51-1.208-2.51-2.892zm2.965-2.965h-1.11c-1.673 0-2.874-1.025-2.874-2.526h5.966c.31 0 .51.22.51.512v6.004c-1.492 0-2.492-1.208-2.492-2.892z"
					/>
				</g>
			</g>
			<defs>
				<clipPath id="a">
					<path fill="#fff" d="M2 2h16v16H2z" />
				</clipPath>
				<clipPath id="b">
					<path fill="#fff" d="M3.533 4.417H15.92V16.9H3.533z" />
				</clipPath>
			</defs>
		</svg>