<svg width="12" height="12" viewBox="0 0 12 12" fill="none" xmlns="http://www.w3.org/2000/svg">
<path d="M0 3C0 1.34315 1.34315 0 3 0H9C10.6569 0 12 1.34315 12 3V9C12 10.6569 10.6569 12 9 12H3C1.34315 12 0 10.6569 0 9V3Z" fill="#FFC716"/>
<path d="M6.87223 5.07804H9.1611C9.50485 5.07804 9.62223 5.40502 9.41262 5.66493L5.83259 10.0834C4.67558 9.16112 4.78457 7.70228 5.63137 6.63749L6.87223 5.07804ZM5.10317 6.83871H2.8143C2.47055 6.83871 2.35317 6.51173 2.56278 6.25182L6.14281 1.83337C7.29982 2.75563 7.17406 4.1977 6.33564 5.27087L5.10317 6.83871Z" fill="#101214"/>
</svg>
