<svg width="12" height="12" viewBox="0 0 12 12" fill="none" xmlns="http://www.w3.org/2000/svg">
<path d="M0 3C0 1.34315 1.34315 0 3 0H9C10.6569 0 12 1.34315 12 3V9C12 10.6569 10.6569 12 9 12H3C1.34315 12 0 10.6569 0 9V3Z" fill="#1868DB"/>
<path d="M9.54165 5.60611H7.47038L9.26419 4.57045L8.87026 3.88794L7.07645 4.9236L8.11187 3.12992L7.42936 2.73576L6.39393 4.52943V2.45831H5.60602V4.52963L4.5702 2.73576L3.8879 3.12973L4.92353 4.9234L3.12971 3.88794L2.73575 4.57025L4.52957 5.60591H2.45831V6.39385H4.52937L2.73575 7.42951L3.12971 8.11202L4.92333 7.07656L3.8877 8.87023L4.5702 9.26419L5.60582 7.47034V9.54165H6.39374V7.47053L7.42917 9.26419L8.11165 8.87023L7.07603 7.07637L8.86985 8.11202L9.26382 7.42951L7.47019 6.39404H9.54123V5.60611H9.54165ZM5.99998 7.07159C5.40587 7.07159 4.92432 6.59005 4.92432 5.99592C4.92432 5.40179 5.40587 4.92023 5.99998 4.92023C6.59409 4.92023 7.07562 5.40179 7.07562 5.99592C7.07562 6.59005 6.59409 7.07159 5.99998 7.07159Z" fill="white"/>
</svg>
