<svg xmlns="http://www.w3.org/2000/svg" width="16" height="16" viewBox="0 0 16 16">
  <path fill="#FF5630" fill-rule="evenodd" d="M5.96803265,11.4461809 L11.4461809,5.96803265 C11.7980706,6.56354591 12,7.25819138 12,8 C12,10.209139 10.209139,12 8,12 C7.25819138,12 6.56354591,11.7980706 5.96803265,11.4461809 Z M5.17157242,10.8284267 C5.17157227,10.8284265 5.17157212,10.8284264 5.17157198,10.8284262 L5.17157242,10.8284267 Z M4.55381909,10.0319673 C4.20192939,9.43645409 4,8.74180862 4,8 C4,5.790861 5.790861,4 8,4 C8.74180862,4 9.43645409,4.20192939 10.0319673,4.55381909 L4.55381909,10.0319673 Z M10.8284276,5.17157333 L10.8284276,5.17157333 C10.8284279,5.17157363 10.8284277,5.17157348 10.8284276,5.17157333 Z M2,0 L14,0 C15.1045695,-2.02906125e-16 16,0.8954305 16,2 L16,14 C16,15.1045695 15.1045695,16 14,16 L2,16 C0.8954305,16 1.3527075e-16,15.1045695 0,14 L0,2 C-1.3527075e-16,0.8954305 0.8954305,2.02906125e-16 2,0 Z M8,14 C11.3137085,14 14,11.3137085 14,8 C14,4.6862915 11.3137085,2 8,2 C4.6862915,2 2,4.6862915 2,8 C2,11.3137085 4.6862915,14 8,14 Z"/>
</svg>
