<svg xmlns="http://www.w3.org/2000/svg" width="24" height="24" viewBox="0 0 24 24">
  <path fill="#FF5630" fill-rule="evenodd" d="M7.65417519,17.4879604 L17.4879604,7.65417519 C18.4346398,8.8480425 19,10.3579978 19,12 C19,15.8659932 15.8659932,19 12,19 C10.3579978,19 8.8480425,18.4346398 7.65417519,17.4879604 Z M6.27903249,16.034676 C5.47334076,14.8943318 5,13.5024433 5,12 C5,8.13400675 8.13400675,5 12,5 C13.5024433,5 14.8943318,5.47334076 16.034676,6.27903249 L6.27903249,16.034676 Z M3,0 L21,0 C22.6568542,-3.04359188e-16 24,1.34314575 24,3 L24,21 C24,22.6568542 22.6568542,24 21,24 L3,24 C1.34314575,24 2.02906125e-16,22.6568542 0,21 L0,3 C-2.02906125e-16,1.34314575 1.34314575,3.04359188e-16 3,0 Z M12,21 C16.9705627,21 21,16.9705627 21,12 C21,7.02943725 16.9705627,3 12,3 C7.02943725,3 3,7.02943725 3,12 C3,16.9705627 7.02943725,21 12,21 Z"/>
</svg>
