<svg xmlns="http://www.w3.org/2000/svg" width="24" height="24" viewBox="0 0 24 24">
  <path fill="#36B37E" fill-rule="evenodd" d="M3,0 L21,0 C22.6568542,-3.04359188e-16 24,1.34314575 24,3 L24,21 C24,22.6568542 22.6568542,24 21,24 L3,24 C1.34314575,24 2.02906125e-16,22.6568542 0,21 L0,3 C-2.02906125e-16,1.34314575 1.34314575,3.04359188e-16 3,0 Z M15.6470004,19.5152539 L16.9369996,17.9868881 L12.0001502,13.8199984 L7.06117589,17.98674 C7.03905703,18.0054091 7,17.9917347 7,18.1534919 L7,6.68807648 C7,6.34797522 7.41227423,6 8,6 L16,6 C16.5865377,6 17,6.34873697 17,6.68807648 L17,18.1534919 C17,17.9913444 16.9591854,18.0056137 16.9369996,17.9868881 L15.6470004,19.5152539 C16.8851842,20.5603283 19,19.8209625 19,18.1534919 L19,6.68807648 C19,5.16156919 17.6228445,4 16,4 L8,4 C6.37572577,4 5,5.16116515 5,6.68807648 L5,18.1534919 C5,19.8207306 7.11270618,20.5604209 8.3509996,19.5152539 L11.9998498,16.4369193 L15.6470004,19.5152539 Z"/>
</svg>
