<svg xmlns="http://www.w3.org/2000/svg" width="16" height="16" viewBox="0 0 16 16">
  <path fill="#2684FF" fill-rule="evenodd" d="M9,7 L9,4 C9,3.44771525 8.55228475,3 8,3 L4,3 C3.44771525,3 3,3.44771525 3,4 L3,8 C3,8.55228475 3.44771525,9 4,9 L7,9 L7,12 C7,12.5522847 7.44771525,13 8,13 L12,13 C12.5522847,13 13,12.5522847 13,12 L13,8 C13,7.44771525 12.5522847,7 12,7 L9,7 Z M0,1.99406028 C0,0.892771196 0.894513756,0 1.99406028,0 L14.0059397,0 C15.1072288,0 16,0.894513756 16,1.99406028 L16,14.0059397 C16,15.1072288 15.1054862,16 14.0059397,16 L1.99406028,16 C0.892771196,16 0,15.1054862 0,14.0059397 L0,1.99406028 Z M9,9 L11,9 L11,11 L9,11 L9,9 Z M5,5 L7,5 L7,7 L5,7 L5,5 Z"/>
</svg>
