<svg xmlns="http://www.w3.org/2000/svg" width="16" height="16" viewBox="0 0 16 16" fill="none">
<path d="M0 4C0 1.79086 1.79086 0 4 0H12C14.2091 0 16 1.79086 16 4V12C16 14.2091 14.2091 16 12 16H4C1.79086 16 0 14.2091 0 12V4Z" fill="#DDDEE1"/>
<path d="M5.37174 7.5C6.33824 7.5 7.12174 6.7165 7.12174 5.75C7.12174 4.7835 6.33824 4 5.37174 4C4.40525 4 3.62174 4.7835 3.62174 5.75C3.62174 6.7165 4.40525 7.5 5.37174 7.5Z" fill="#1E1F21"/>
<path d="M10.6217 7.5C11.5882 7.5 12.3717 6.7165 12.3717 5.75C12.3717 4.7835 11.5882 4 10.6217 4C9.65525 4 8.87174 4.7835 8.87174 5.75C8.87174 6.7165 9.65525 7.5 10.6217 7.5Z" fill="#1E1F21"/>
<path d="M10.7339 8.375C11.7995 8.375 12.6634 9.23889 12.6634 10.3045V12H7.85091L8.95681 9.55272C9.25884 8.83884 9.95873 8.375 10.7339 8.375Z" fill="#1E1F21"/>
<path d="M3.33008 10.4167L3.33008 12H6.53841L7.41341 10.125C7.41341 9.1585 6.62991 8.375 5.66341 8.375H5.37174C4.24416 8.375 3.33008 9.28908 3.33008 10.4167Z" fill="#1E1F21"/>
</svg>