<?xml version="1.0" encoding="UTF-8" standalone="no"?>
<svg width="24px" height="24px" viewBox="0 0 24 24" version="1.1" xmlns="http://www.w3.org/2000/svg" xmlns:xlink="http://www.w3.org/1999/xlink">
    <!-- Generator: Sketch 45.1 (43504) - http://www.bohemiancoding.com/sketch -->
    <title>icons/add-item</title>
    <desc>Created with Sketch.</desc>
    <defs></defs>
    <g id="Global" stroke="none" stroke-width="1" fill="none" fill-rule="evenodd">
        <g id="icons/add-item" fill="#42526E">
            <path d="M16.0024554,3 L4.99508929,3 C3.8926228,3 3,3.8932319 3,4.99508929 L3,19.0049107 C3,20.1073772 3.8932319,21 4.99508929,21 L19.0049107,21 C20.1073772,21 21,20.1067681 21,19.0049107 L21,7.99754465 L21,11 L19,11 L19,19 L5,19 L5,5 L13,5 L13,3 L16.0024554,3 Z" id="Combined-Shape" fill-rule="nonzero"></path>
            <path d="M19,5 L19,3.99077797 C19,3.45097518 18.5522847,3 18,3 C17.4438648,3 17,3.44358641 17,3.99077797 L17,5 L16,5 L16,5 C15.4477153,5 15,5.44771525 15,6 C15,6.55228475 15.4477153,7 16,7 L17,7 L17,8.00922203 C17,8.54902482 17.4477153,9 18,9 C18.5561352,9 19,8.55641359 19,8.00922203 L19,7 L20,7 C20.5522847,7 21,6.55228475 21,6 C21,5.44771525 20.5522847,5 20,5 L19,5 Z" id="Combined-Shape"></path>
        </g>
    </g>
</svg>