<?xml version="1.0" encoding="UTF-8" standalone="no"?>
<svg width="24px" height="24px" viewBox="0 0 24 24" version="1.1" xmlns="http://www.w3.org/2000/svg" xmlns:xlink="http://www.w3.org/1999/xlink">
    <!-- Generator: Sketch 45.1 (43504) - http://www.bohemiancoding.com/sketch -->
    <title>icons/add</title>
    <desc>Created with Sketch.</desc>
    <defs></defs>
    <g id="Global" stroke="none" stroke-width="1" fill="none" fill-rule="evenodd">
        <g id="icons/add" fill="#42526E">
            <path d="M13,11 L13,3.99339768 C13,3.44494629 12.5522847,3 12,3 C11.4438648,3 11,3.44475929 11,3.99339768 L11,11 L3.993,11 C3.445,11 3,11.448 3,12 C3,12.557 3.445,13 3.993,13 L11,13 L11,20.0066023 C11,20.5550537 11.4477153,21 12,21 C12.5561352,21 13,20.5552407 13,20.0066023 L13,13 L20.007,13 C20.555,13 21,12.552 21,12 C21,11.444 20.555,11 20.007,11 L13,11 Z" id="Combined-Shape"></path>
        </g>
    </g>
</svg>