<?xml version="1.0" encoding="UTF-8" standalone="no"?>
<svg width="24px" height="24px" viewBox="0 0 24 24" version="1.1" xmlns="http://www.w3.org/2000/svg" xmlns:xlink="http://www.w3.org/1999/xlink">
    <!-- Generator: Sketch 45.1 (43504) - http://www.bohemiancoding.com/sketch -->
    <title>icons/addon</title>
    <desc>Created with Sketch.</desc>
    <defs></defs>
    <g id="Global" stroke="none" stroke-width="1" fill="none" fill-rule="evenodd">
        <g id="icons/addon" fill="#42526E">
            <path d="M5.37580068,6.45476642 L10.6241993,3.35064792 C11.416038,2.88232201 12.5866527,2.88391338 13.3758007,3.35064792 L18.6241993,6.45476642 C19.416038,6.92309234 20,7.96241242 20,8.8958815 L20,15.1041185 C20,16.0407703 19.4133473,17.078499 18.6241993,17.5452336 L13.3758007,20.6493521 C12.583962,21.117678 11.4133473,21.1160866 10.6241993,20.6493521 L5.37580068,17.5452336 C4.583962,17.0769077 4,16.0375876 4,15.1041185 L4,8.8958815 C4,7.95922967 4.58665268,6.92150096 5.37580068,6.45476642 Z M12.3667448,5.14103917 C12.2011207,5.04308227 11.7998017,5.0425367 11.6332552,5.14103917 L6.38485655,8.24515767 C6.21923245,8.34311457 6.01811174,8.69887657 6.01811174,8.8958815 L6.01811174,15.1041185 C6.01811174,15.3000323 6.21831001,15.6563399 6.38485655,15.7548423 L11.6332552,18.8589608 C11.7988793,18.9569177 12.2001983,18.9574633 12.3667448,18.8589608 L17.6151434,15.7548423 C17.7807676,15.6568854 17.9818883,15.3011234 17.9818883,15.1041185 L17.9818883,8.8958815 C17.9818883,8.69996771 17.78169,8.34366013 17.6151434,8.24515767 L12.3667448,5.14103917 Z" id="Combined-Shape"></path>
            <path d="M12,16 C9.790861,16 8,14.209139 8,12 C8,9.790861 9.790861,8 12,8 C14.209139,8 16,9.790861 16,12 C16,14.209139 14.209139,16 12,16 Z M12,14 C13.1045695,14 14,13.1045695 14,12 C14,10.8954305 13.1045695,10 12,10 C10.8954305,10 10,10.8954305 10,12 C10,13.1045695 10.8954305,14 12,14 Z" id="Combined-Shape"></path>
        </g>
    </g>
</svg>