<?xml version="1.0" encoding="UTF-8" standalone="no"?>
<svg width="24px" height="24px" viewBox="0 0 24 24" version="1.1" xmlns="http://www.w3.org/2000/svg" xmlns:xlink="http://www.w3.org/1999/xlink">
    <!-- Generator: Sketch 46.2 (44496) - http://www.bohemiancoding.com/sketch -->
    <title>icons/app-access</title>
    <desc>Created with Sketch.</desc>
    <defs></defs>
    <g id="Global" stroke="none" stroke-width="1" fill="none" fill-rule="evenodd">
        <g id="icons/app-access">
            <path d="M12.6822049,12 L5.0085302,12 C3.90195036,12 3,12.8954799 3,14.0001103 C3,14.0001103 3,21.8513001 3,18.4460997 C3,20.6078453 7.83620903,21.3972358 11.3682228,20.8142713 C10.5134179,19.77745 10,18.4486826 10,17 C10,14.9130292 11.0655093,13.0749215 12.6822049,12 Z" id="Combined-Shape" fill="#42526E"></path>
            <circle id="Oval-2" fill="#42526E" cx="9" cy="7" r="4"></circle>
            <circle id="Oval-17" fill="#42526E" cx="16" cy="17" r="5"></circle>
            <path d="M14.6741727,19.3311118 C15.0335476,19.6904868 15.6153491,19.6904868 15.974724,19.3301927 L18.7320768,16.5682444 C19.0896135,16.2088694 19.0896135,15.627068 18.7302385,15.2686121 C18.3727018,14.9110754 17.7890621,14.9092371 17.4306063,15.2704503 L15.3230697,17.3807443 L14.5684741,16.6261488 C14.2100183,16.2676929 13.6282169,16.2676929 13.2688419,16.6261488 C12.910386,16.9855238 12.910386,17.5673252 13.2688419,17.925781 L14.6741727,19.3311118 Z" id="Fill-1" fill="#79F2C0"></path>
        </g>
    </g>
</svg>