<svg xmlns="http://www.w3.org/2000/svg" width="24" height="24" viewBox="0 0 24 24">
  <path fill="#42526E" fill-rule="evenodd" d="M4,5.0093689 C4,4.45190985 4.44335318,4 5.0093689,4 L6.9906311,4 C7.54809015,4 8,4.44335318 8,5.0093689 L8,6.9906311 C8,7.54809015 7.55664682,8 6.9906311,8 L5.0093689,8 C4.45190985,8 4,7.55664682 4,6.9906311 L4,5.0093689 Z M4,11.0093689 C4,10.4519098 4.44335318,10 5.0093689,10 L6.9906311,10 C7.54809015,10 8,10.4433532 8,11.0093689 L8,12.9906311 C8,13.5480902 7.55664682,14 6.9906311,14 L5.0093689,14 C4.45190985,14 4,13.5566468 4,12.9906311 L4,11.0093689 Z M10,5.0093689 C10,4.45190985 10.4433532,4 11.0093689,4 L12.9906311,4 C13.5480902,4 14,4.44335318 14,5.0093689 L14,6.9906311 C14,7.54809015 13.5566468,8 12.9906311,8 L11.0093689,8 C10.4519098,8 10,7.55664682 10,6.9906311 L10,5.0093689 Z M10,11.0093689 C10,10.4519098 10.4433532,10 11.0093689,10 L12.9906311,10 C13.5480902,10 14,10.4433532 14,11.0093689 L14,12.9906311 C14,13.5480902 13.5566468,14 12.9906311,14 L11.0093689,14 C10.4519098,14 10,13.5566468 10,12.9906311 L10,11.0093689 Z M16,5.0093689 C16,4.45190985 16.4433532,4 17.0093689,4 L18.9906311,4 C19.5480902,4 20,4.44335318 20,5.0093689 L20,6.9906311 C20,7.54809015 19.5566468,8 18.9906311,8 L17.0093689,8 C16.4519098,8 16,7.55664682 16,6.9906311 L16,5.0093689 Z M16,11.0093689 C16,10.4519098 16.4433532,10 17.0093689,10 L18.9906311,10 C19.5480902,10 20,10.4433532 20,11.0093689 L20,12.9906311 C20,13.5480902 19.5566468,14 18.9906311,14 L17.0093689,14 C16.4519098,14 16,13.5566468 16,12.9906311 L16,11.0093689 Z M4,17.0093689 C4,16.4519098 4.44335318,16 5.0093689,16 L6.9906311,16 C7.54809015,16 8,16.4433532 8,17.0093689 L8,18.9906311 C8,19.5480902 7.55664682,20 6.9906311,20 L5.0093689,20 C4.45190985,20 4,19.5566468 4,18.9906311 L4,17.0093689 Z M10,17.0093689 C10,16.4519098 10.4433532,16 11.0093689,16 L12.9906311,16 C13.5480902,16 14,16.4433532 14,17.0093689 L14,18.9906311 C14,19.5480902 13.5566468,20 12.9906311,20 L11.0093689,20 C10.4519098,20 10,19.5566468 10,18.9906311 L10,17.0093689 Z M16,17.0093689 C16,16.4519098 16.4433532,16 17.0093689,16 L18.9906311,16 C19.5480902,16 20,16.4433532 20,17.0093689 L20,18.9906311 C20,19.5480902 19.5566468,20 18.9906311,20 L17.0093689,20 C16.4519098,20 16,19.5566468 16,18.9906311 L16,17.0093689 Z"/>
</svg>
