<?xml version="1.0" encoding="UTF-8" standalone="no"?>
<svg width="24px" height="24px" viewBox="0 0 24 24" version="1.1" xmlns="http://www.w3.org/2000/svg" xmlns:xlink="http://www.w3.org/1999/xlink">
    <!-- Generator: Sketch 45.1 (43504) - http://www.bohemiancoding.com/sketch -->
    <title>icons/arrow-down</title>
    <desc>Created with Sketch.</desc>
    <defs></defs>
    <g id="Global" stroke="none" stroke-width="1" fill="none" fill-rule="evenodd">
        <g id="icons/arrow-down" fill="#42526E">
            <path d="M11,6 L11,15.586 L7.207,11.793 C6.817,11.402 6.183,11.402 5.793,11.793 C5.403,12.183 5.403,12.817 5.793,13.208 L11.293,18.707 C11.488,18.903 11.744,19 12,19 C12.256,19 12.512,18.903 12.707,18.707 L18.207,13.208 C18.598,12.817 18.598,12.183 18.207,11.793 C17.816,11.402 17.184,11.402 16.793,11.793 L13,15.586 L13,6 C13,5.448 12.552,5 12,5 C11.448,5 11,5.448 11,6 Z" id="Mask"></path>
        </g>
    </g>
</svg>