<?xml version="1.0" encoding="UTF-8" standalone="no"?>
<svg width="24px" height="24px" viewBox="0 0 24 24" version="1.1" xmlns="http://www.w3.org/2000/svg" xmlns:xlink="http://www.w3.org/1999/xlink">
    <!-- Generator: Sketch 45.1 (43504) - http://www.bohemiancoding.com/sketch -->
    <title>icons/arrow-right-circle</title>
    <desc>Created with Sketch.</desc>
    <defs></defs>
    <g id="Global" stroke="none" stroke-width="1" fill="none" fill-rule="evenodd">
        <g id="icons/arrow-right-circle">
            <circle id="Combined-Shape" fill="#42526E" fill-rule="nonzero" cx="12" cy="12" r="10"></circle>
            <path d="M12.314,8.294 C11.924,8.687 11.924,9.323 12.314,9.716 L13.585,10.995 L12.288,10.995 L10.377,10.995 L8,10.995 C7.447,10.995 6.999,11.445 6.999,12 C6.999,12.555 7.447,13.005 8,13.005 L10.377,13.005 L12.288,13.005 L13.585,13.005 L12.314,14.284 C11.924,14.677 11.924,15.312 12.314,15.706 C12.51,15.901 12.766,16 13.02,16 C13.277,16 13.532,15.901 13.729,15.706 L16.707,12.711 C17.097,12.319 17.097,11.683 16.707,11.289 L13.729,8.294 C13.533,8.098 13.277,8 13.021,8 C12.765,8 12.509,8.098 12.314,8.294 Z" id="Clip-2" fill="#79F2C0"></path>
        </g>
    </g>
</svg>