<?xml version="1.0" encoding="UTF-8" standalone="no"?>
<svg width="24px" height="24px" viewBox="0 0 24 24" version="1.1" xmlns="http://www.w3.org/2000/svg" xmlns:xlink="http://www.w3.org/1999/xlink">
    <!-- Generator: Sketch 45.1 (43504) - http://www.bohemiancoding.com/sketch -->
    <title>icons/arrow-right</title>
    <desc>Created with Sketch.</desc>
    <defs></defs>
    <g id="Global" stroke="none" stroke-width="1" fill="none" fill-rule="evenodd">
        <g id="icons/arrow-right" fill="#42526E">
            <path d="M11.793,5.793 C11.402,6.184 11.402,6.816 11.793,7.207 L15.586,11 L6,11 C5.448,11 5,11.448 5,12 C5,12.552 5.448,13 6,13 L15.586,13 L11.793,16.793 C11.402,17.183 11.402,17.817 11.793,18.207 C12.183,18.597 12.817,18.597 13.208,18.207 L18.707,12.707 C18.895,12.519 18.993,12.275 19,12.028 L19,11.971 C18.993,11.725 18.895,11.481 18.707,11.293 L13.208,5.793 C13.012,5.598 12.756,5.501 12.5,5.501 C12.244,5.501 11.988,5.598 11.793,5.793 Z" id="Clip-2"></path>
        </g>
    </g>
</svg>