<?xml version="1.0" encoding="UTF-8" standalone="no"?>
<svg width="24px" height="24px" viewBox="0 0 24 24" version="1.1" xmlns="http://www.w3.org/2000/svg" xmlns:xlink="http://www.w3.org/1999/xlink">
    <!-- Generator: Sketch 45.1 (43504) - http://www.bohemiancoding.com/sketch -->
    <title>icons/attachment</title>
    <desc>Created with Sketch.</desc>
    <defs></defs>
    <g id="Global" stroke="none" stroke-width="1" fill="none" fill-rule="evenodd">
        <g id="icons/attachment" fill="#42526E">
            <path d="M11.6425993,17.9647145 C10.112347,19.4600361 7.62736341,19.4606503 6.10092154,17.9690523 C4.57505176,16.4780133 4.57769296,14.0466694 6.10253018,12.5566394 L13.250494,5.57184115 C14.1476094,4.695204 15.586068,4.69251203 16.4832441,5.56920838 C17.3762599,6.44183942 17.3778447,7.85135261 16.4868708,8.72198843 L9.7836073,15.2722375 C9.53287721,15.5172442 9.12806563,15.5162552 8.86954089,15.2636318 C8.61072863,15.0107274 8.60963451,14.6157985 8.86954089,14.361825 L15.0989344,8.27462888 C15.481201,7.90108825 15.481201,7.29545925 15.0989344,6.92191863 C14.7166679,6.54837801 14.0968913,6.54837801 13.7146247,6.92191863 L7.48523122,13.0091147 C6.45910884,14.0118139 6.46355865,15.6179911 7.48523122,16.616342 C8.50674385,17.6145368 10.1511,17.618554 11.167917,16.6249478 L17.8711804,10.0746987 C19.5273693,8.4563154 19.5244225,5.83554581 17.8675538,4.21649814 C16.2046552,2.59155823 13.5266484,2.59656992 11.8661843,4.2191309 L4.7182205,11.2039291 C2.42950728,13.4403982 2.42555029,17.0829987 4.71661185,19.3217625 C7.00774368,21.560595 10.7322803,21.5596744 13.026909,19.3174248 L19.7133,12.783663 C20.0955667,12.4101224 20.0955667,11.8044934 19.7133,11.4309528 C19.3310335,11.0574122 18.711257,11.0574122 18.3289903,11.4309528 L11.6425993,17.9647145 Z" id="Shape"></path>
        </g>
    </g>
</svg>