<?xml version="1.0" encoding="UTF-8" standalone="no"?>
<svg width="24px" height="24px" viewBox="0 0 24 24" version="1.1" xmlns="http://www.w3.org/2000/svg" xmlns:xlink="http://www.w3.org/1999/xlink">
    <!-- Generator: Sketch 45.1 (43504) - http://www.bohemiancoding.com/sketch -->
    <title>icons/backlog</title>
    <desc>Created with Sketch.</desc>
    <defs></defs>
    <g id="Global" stroke="none" stroke-width="1" fill="none" fill-rule="evenodd">
        <g id="icons/backlog" fill-rule="nonzero" fill="#42526E">
            <path d="M5,19.0018278 C4.99999698,19.0001399 17,19 17,19 L17,16.9981722 C17.000003,16.9998601 5,17 5,17 L5,19.0018278 Z M3,16.9979131 C3,15.8944962 3.89451376,15 4.99406028,15 L17.0059397,15 C18.1072288,15 19,15.8982606 19,16.9979131 L19,19.0020869 C19,20.1055038 18.1054862,21 17.0059397,21 L4.99406028,21 C3.8927712,21 3,20.1017394 3,19.0020869 L3,16.9979131 Z" id="Rectangle-Copy"></path>
            <path d="M5,15 L17,15 L17,13 L5,13 L5,15 Z M3,11 L19,11 L19,17 L3,17 L3,11 Z" id="Rectangle-Copy-2"></path>
            <path d="M7,11.0018278 C6.99999698,11.0001399 19,11 19,11 L19,8.99817224 C19.000003,8.99986007 7,9 7,9 L7,11.0018278 Z M5,8.99791312 C5,7.89449617 5.89451376,7 6.99406028,7 L19.0059397,7 C20.1072288,7 21,7.89826062 21,8.99791312 L21,11.0020869 C21,12.1055038 20.1054862,13 19.0059397,13 L6.99406028,13 C5.8927712,13 5,12.1017394 5,11.0020869 L5,8.99791312 Z" id="Rectangle-Copy-3"></path>
            <path d="M5,5 L5,7 L17,7 L17,5 L5,5 Z M3,4.99791312 C3,3.89449617 3.89451376,3 4.99406028,3 L17.0059397,3 C18.1072288,3 19,3.89826062 19,4.99791312 L19,9 L3,9 L3,4.99791312 Z" id="Rectangle-Copy-4"></path>
        </g>
    </g>
</svg>