<?xml version="1.0" encoding="UTF-8" standalone="no"?>
<svg width="24px" height="24px" viewBox="0 0 24 24" version="1.1" xmlns="http://www.w3.org/2000/svg" xmlns:xlink="http://www.w3.org/1999/xlink">
    <!-- Generator: Sketch 45.1 (43504) - http://www.bohemiancoding.com/sketch -->
    <title>icons/book</title>
    <desc>Created with Sketch.</desc>
    <defs></defs>
    <g id="Global" stroke="none" stroke-width="1" fill="none" fill-rule="evenodd">
        <g id="icons/book" fill="#42526E">
            <path d="M7,6.00247329 L7,15.9975267 C7,16.544239 7.44565467,17 7.99539757,17 L16.0046024,17 C16.5443356,17 17,16.5511774 17,15.9975267 L17,6.00247329 C17,5.45576096 16.5543453,5 16.0046024,5 L7.99539757,5 C7.4556644,5 7,5.44882258 7,6.00247329 Z M5,6.00247329 C5,4.34778288 6.34756565,3 7.99539757,3 L16.0046024,3 C17.6618879,3 19,4.35406674 19,6.00247329 L19,15.9975267 C19,17.6522171 17.6524344,19 16.0046024,19 L7.99539757,19 C6.3381121,19 5,17.6459333 5,15.9975267 L5,6.00247329 Z" id="Rectangle-35" fill-rule="nonzero"></path>
            <rect id="Rectangle-36" x="9" y="7" width="6" height="4"></rect>
            <rect id="Rectangle-36-Copy" x="9" y="13" width="6" height="2"></rect>
            <path d="M10,20.8571429 L10,20 L7,20 L7,20.8571429 L8.5,20 L10,20.8571429 Z" id="Combined-Shape"></path>
            <rect id="Rectangle-3" x="7" y="18" width="3" height="2"></rect>
        </g>
    </g>
</svg>