<?xml version="1.0" encoding="UTF-8" standalone="no"?>
<svg width="24px" height="24px" viewBox="0 0 24 24" version="1.1" xmlns="http://www.w3.org/2000/svg" xmlns:xlink="http://www.w3.org/1999/xlink">
    <!-- Generator: Sketch 45.1 (43504) - http://www.bohemiancoding.com/sketch -->
    <title>icons/calendar-filled</title>
    <desc>Created with Sketch.</desc>
    <defs></defs>
    <g id="Global" stroke="none" stroke-width="1" fill="none" fill-rule="evenodd">
        <g id="icons/calendar-filled">
            <path d="M19,5 L19.005,5 C20.107,5 21,5.895 21,6.994 L21,19.006 C21,20.107 20.108,21 19.005,21 L4.995,21 C3.893,21 3,20.106 3,19.006 L3,6.994 C3,5.893 3.892,5 4.995,5 L5,5 L5,6 C5,7.11227036 5.8954305,8 7,8 C8.11227036,8 9,7.1045695 9,6 L9,5 L15,5 L15,6 C15,7.11227036 15.8954305,8 17,8 C18.1122704,8 19,7.1045695 19,6 L19,5 Z" id="Combined-Shape" fill="#42526E"></path>
            <polygon id="Path" fill="#79F2C0" points="7 13.001 9 13.001 9 11 7 11"></polygon>
            <polygon id="Path-Copy-3" fill="#79F2C0" points="7 17.001 9 17.001 9 15 7 15"></polygon>
            <polygon id="Path-Copy" fill="#79F2C0" points="11 13.001 13 13.001 13 11 11 11"></polygon>
            <polygon id="Path-Copy-4" fill="#79F2C0" points="11 17.001 13 17.001 13 15 11 15"></polygon>
            <polygon id="Path-Copy-2" fill="#79F2C0" points="15 13.001 17 13.001 17 11 15 11"></polygon>
            <polygon id="Path-Copy-5" fill="#79F2C0" points="15 17.001 17 17.001 17 15 15 15"></polygon>
            <path d="M16,6 L16,5 L18,5 L18,6 C18,6.552 17.552,7 17,7 C16.448,7 16,6.552 16,6 Z M16,4 C16,3.448 16.448,3 17,3 C17.552,3 18,3.448 18,4 L18,5 L16,5 L16,4 Z" id="Combined-Shape" fill="#42526E"></path>
            <path d="M6,4 C6,3.448 6.448,3 7,3 C7.552,3 8,3.448 8,4 L8,5 L6,5 L6,4 Z M6,6 L6,5 L8,5 L8,6 C8,6.552 7.552,7 7,7 C6.448,7 6,6.552 6,6 Z" id="Combined-Shape" fill="#42526E"></path>
        </g>
    </g>
</svg>