<?xml version="1.0" encoding="UTF-8" standalone="no"?>
<svg width="24px" height="24px" viewBox="0 0 24 24" version="1.1" xmlns="http://www.w3.org/2000/svg" xmlns:xlink="http://www.w3.org/1999/xlink">
    <!-- Generator: Sketch 45.1 (43504) - http://www.bohemiancoding.com/sketch -->
    <title>icons/camera-rotate</title>
    <desc>Created with Sketch.</desc>
    <defs></defs>
    <g id="Global" stroke="none" stroke-width="1" fill="none" fill-rule="evenodd">
        <g id="icons/camera-rotate">
            <rect id="Combined-Shape" fill="#42526E" x="2" y="5" width="20" height="16" rx="2"></rect>
            <path d="M8,4 C8,3.44771525 8.45303631,3 8.99703014,3 L15.0029699,3 C15.5536144,3 16,3.44386482 16,4 L16,5 L8,5 L8,4 Z" id="Rectangle-12" fill="#42526E"></path>
            <circle id="Oval-11" fill="#79F2C0" cx="12" cy="17" r="1"></circle>
            <path d="M16.8999819,14 C16.9655697,13.6768901 17,13.3424658 17,13 C17,10.2385763 14.7614237,8 12,8 C9.23857625,8 7,10.2385763 7,13 C7,15.7614237 9.23857625,18 12,18 L12,16 C10.3431458,16 9,14.6568542 9,13 C9,11.3431458 10.3431458,10 12,10 C13.6568542,10 15,11.3431458 15,13 C15,13.3506354 14.9398458,13.6872211 14.8292943,14 L16.8999819,14 Z" id="Combined-Shape" fill="#79F2C0" fill-rule="nonzero"></path>
            <path d="M13.292,12.291 C12.903,12.682 12.903,13.316 13.292,13.706 L15.289,15.702 C15.486,15.899 15.742,16 16.001,16 C16.255,16 16.512,15.901 16.712,15.702 L18.707,13.706 C19.098,13.316 19.098,12.682 18.707,12.291 C18.511,12.096 18.255,11.999 17.999,11.999 C17.744,11.999 17.488,12.096 17.293,12.291 L16,13.585 L14.706,12.291 C14.512,12.096 14.256,11.998 14,11.998 C13.744,11.998 13.487,12.096 13.292,12.291 Z" id="Clip-2" fill="#79F2C0"></path>
        </g>
    </g>
</svg>