<?xml version="1.0" encoding="UTF-8" standalone="no"?>
<svg width="24px" height="24px" viewBox="0 0 24 24" version="1.1" xmlns="http://www.w3.org/2000/svg" xmlns:xlink="http://www.w3.org/1999/xlink">
    <!-- Generator: Sketch 45.1 (43504) - http://www.bohemiancoding.com/sketch -->
    <title>icons/check</title>
    <desc>Created with Sketch.</desc>
    <defs></defs>
    <g id="Global" stroke="none" stroke-width="1" fill="none" fill-rule="evenodd">
        <g id="icons/check" fill-rule="nonzero" fill="#42526E">
            <path d="M6.7353341,12.3222952 C6.36104809,11.9161814 5.72840903,11.8903799 5.32229522,12.2646659 C4.91618142,12.6389519 4.89037989,13.271591 5.2646659,13.6777048 L8.87677623,17.5969746 C9.4143065,18.1230589 10.2144556,18.1230589 10.7111378,17.6263766 C10.7723912,17.566234 10.7723912,17.566234 11.0753861,17.2682657 C11.3699327,16.9785487 11.6981303,16.6555565 12.0515697,16.3075021 C13.0614323,15.3130256 14.071311,14.3168927 15.0139717,13.3847656 L15.0542979,13.3448885 C16.729081,11.6886919 18.0003751,10.4236483 18.7119471,9.70223311 C19.0997797,9.3090356 19.0954306,8.67588555 18.7022331,8.28805291 C18.3090356,7.90022027 17.6758856,7.90456937 17.2880529,8.29776689 C16.5842491,9.01130636 15.3168826,10.2724418 13.6479974,11.9228059 L13.6077262,11.9626286 C12.6661541,12.8936793 11.6572118,13.8888885 10.6482536,14.8824744 C10.3578375,15.1684658 10.0844831,15.4375168 9.83287004,15.6850571 L6.7353341,12.3222952 Z" id="Page-1"></path>
        </g>
    </g>
</svg>