<?xml version="1.0" encoding="UTF-8" standalone="no"?>
<svg width="24px" height="24px" viewBox="0 0 24 24" version="1.1" xmlns="http://www.w3.org/2000/svg" xmlns:xlink="http://www.w3.org/1999/xlink">
    <!-- Generator: Sketch 45.1 (43504) - http://www.bohemiancoding.com/sketch -->
    <title>icons/code</title>
    <desc>Created with Sketch.</desc>
    <defs></defs>
    <g id="Global" stroke="none" stroke-width="1" fill="none" fill-rule="evenodd">
        <g id="icons/code" fill="#42526E">
            <path d="M14.1545,4.0546 C13.6325,3.8746 13.0635,4.1526 12.8835,4.6756 L8.0545,18.7206 C7.8745,19.2426 8.1525,19.8116 8.6745,19.9916 C9.1975,20.1716 9.7665,19.8936 9.9455,19.3716 L14.7745,5.3256 C14.9545,4.8036 14.6765,4.2346 14.1545,4.0546" id="Fill-1"></path>
            <path d="M8.0168,12.2647 L5.4368,9.7637 L8.2358,7.0497 C8.6328,6.6647 8.6428,6.0317 8.2578,5.6357 C7.8738,5.2387 7.2408,5.2287 6.8438,5.6137 L3.3038,9.0457 C2.8988,9.4387 2.8988,10.0887 3.3038,10.4817 L6.6248,13.7007 C7.0208,14.0847 7.6538,14.0757 8.0388,13.6787 C8.4228,13.2827 8.4128,12.6487 8.0168,12.2647" id="Fill-4"></path>
            <path d="M20.2361,13.8328 L16.9151,10.6138 C16.5191,10.2288 15.8861,10.2388 15.5011,10.6358 C15.1171,11.0318 15.1271,11.6648 15.5231,12.0498 L18.1031,14.5508 L15.3041,17.2648 C14.9071,17.6488 14.8971,18.2818 15.2821,18.6788 C15.6661,19.0758 16.2991,19.0848 16.6961,18.7008 L20.2361,15.2688 C20.6411,14.8758 20.6411,14.2258 20.2361,13.8328" id="Fill-6"></path>
        </g>
    </g>
</svg>