<?xml version="1.0" encoding="UTF-8" standalone="no"?>
<svg width="24px" height="24px" viewBox="0 0 24 24" version="1.1" xmlns="http://www.w3.org/2000/svg" xmlns:xlink="http://www.w3.org/1999/xlink">
    <!-- Generator: Sketch 45.1 (43504) - http://www.bohemiancoding.com/sketch -->
    <title>icons/component</title>
    <desc>Created with Sketch.</desc>
    <defs></defs>
    <g id="Global" stroke="none" stroke-width="1" fill="none" fill-rule="evenodd">
        <g id="icons/component" fill="#42526E">
            <path d="M5,17.9914698 C5,17.9978202 19.0049107,18 19.0049107,18 C18.9994849,18 19,10.0085302 19,10.0085302 C19,10.0021798 4.99508929,10 4.99508929,10 C5.00051505,10 5,17.9914698 5,17.9914698 Z M3,10.0085302 C3,8.8992496 3.8926228,8 4.99508929,8 L19.0049107,8 C20.1067681,8 21,8.90195036 21,10.0085302 L21,17.9914698 C21,19.1007504 20.1073772,20 19.0049107,20 L4.99508929,20 C3.8932319,20 3,19.0980496 3,17.9914698 L3,10.0085302 Z" id="Rectangle-17"></path>
            <path d="M7,8.3350724 C6.99976882,8.33319162 9.00208688,8.33333333 9.00208688,8.33333333 C8.99982994,8.33352598 9,6.6649276 9,6.6649276 C9.00023118,6.66680838 6.99791312,6.66666667 6.99791312,6.66666667 C7.00017006,6.66647402 7,8.3350724 7,8.3350724 Z M5,6.6649276 C5,5.74541348 5.89826062,5 6.99791312,5 L9.00208688,5 C10.1055038,5 11,5.74855052 11,6.6649276 L11,8.3350724 C11,9.25458653 10.1017394,10 9.00208688,10 L6.99791312,10 C5.89449617,10 5,9.25144948 5,8.3350724 L5,6.6649276 Z" id="Rectangle-17-Copy"></path>
            <path d="M15,8.3350724 C14.9997688,8.33319162 17.0020869,8.33333333 17.0020869,8.33333333 C16.9998299,8.33352598 17,6.6649276 17,6.6649276 C17.0002312,6.66680838 14.9979131,6.66666667 14.9979131,6.66666667 C15.0001701,6.66647402 15,8.3350724 15,8.3350724 Z M13,6.6649276 C13,5.74541348 13.8982606,5 14.9979131,5 L17.0020869,5 C18.1055038,5 19,5.74855052 19,6.6649276 L19,8.3350724 C19,9.25458653 18.1017394,10 17.0020869,10 L14.9979131,10 C13.8944962,10 13,9.25144948 13,8.3350724 L13,6.6649276 Z" id="Rectangle-17-Copy-2"></path>
        </g>
    </g>
</svg>