<?xml version="1.0" encoding="UTF-8" standalone="no"?>
<svg width="24px" height="24px" viewBox="0 0 24 24" version="1.1" xmlns="http://www.w3.org/2000/svg" xmlns:xlink="http://www.w3.org/1999/xlink">
    <!-- Generator: Sketch 45.1 (43504) - http://www.bohemiancoding.com/sketch -->
    <title>icons/creditcard</title>
    <desc>Created with Sketch.</desc>
    <defs></defs>
    <g id="Global" stroke="none" stroke-width="1" fill="none" fill-rule="evenodd">
        <g id="icons/creditcard" fill="#42526E">
            <path d="M5.013,17 L19.013,17 L19.013,11 L5.013,11 L5.013,17 Z M5.013,9 L19.013,9 L19.013,7 L5.013,7 L5.013,9 Z M19,5 L5,5 C3.9,5 3,5.9 3,7 L3,17 C3,18.1 3.9,19 5,19 L19,19 C20.1,19 21,18.1 21,17 L21,7 C21,5.9 20.1,5 19,5 L19,5 Z" id="Fill-1"></path>
            <polygon id="Fill-3" points="7.013 15 9.013 15 9.013 13 7.013 13"></polygon>
        </g>
    </g>
</svg>