<?xml version="1.0" encoding="UTF-8" standalone="no"?>
<svg width="24px" height="24px" viewBox="0 0 24 24" version="1.1" xmlns="http://www.w3.org/2000/svg" xmlns:xlink="http://www.w3.org/1999/xlink">
    <!-- Generator: Sketch 45.1 (43504) - http://www.bohemiancoding.com/sketch -->
    <title>icons/decision</title>
    <desc>Created with Sketch.</desc>
    <defs></defs>
    <g id="Global" stroke="none" stroke-width="1" fill="none" fill-rule="evenodd">
        <g id="icons/decision" fill-rule="nonzero" fill="#42526E">
            <path d="M19.2928932,3.29289322 L14.2928932,8.29289322 C13.9023689,8.68341751 13.9023689,9.31658249 14.2928932,9.70710678 C14.6834175,10.0976311 15.3165825,10.0976311 15.7071068,9.70710678 L20.7071068,4.70710678 C21.0976311,4.31658249 21.0976311,3.68341751 20.7071068,3.29289322 C20.3165825,2.90236893 19.6834175,2.90236893 19.2928932,3.29289322 Z" id="Page-1"></path>
            <path d="M8.03765741,4.92896653 C8.56692866,4.93117271 8.99778029,4.50487035 8.99999146,3.97679356 C9.00220263,3.44871676 8.57493601,3.01883747 8.04566477,3.01663129 L4.0580108,3.00000941 C3.47482916,2.99757851 3.00490552,3.46644164 3,4.04355495 L3.01668993,8.0478185 C3.0189011,8.57589529 3.44975273,9.00219766 3.97902398,8.99999148 C4.50829522,8.9977853 4.93556184,8.56790601 4.93335067,8.03982921 L4.92027041,4.91597222 L8.03765741,4.92896653 Z" id="Page-1"></path>
            <path d="M11,19.9982979 C11,20.5515227 11.4438648,21 12,21 L12,21 C12.5522847,21 13,20.5459329 13,19.9925142 L13,12.5932722 C13,12.0368532 12.6848575,11.270644 12.2946883,10.8804747 L5.20710678,3.79289322 L3.79289322,5.20710678 L11,12.4142136 L11,19.9982979 Z" id="Path-6"></path>
        </g>
    </g>
</svg>