<?xml version="1.0" encoding="UTF-8" standalone="no"?>
<svg width="24px" height="24px" viewBox="0 0 24 24" version="1.1" xmlns="http://www.w3.org/2000/svg" xmlns:xlink="http://www.w3.org/1999/xlink">
    <!-- Generator: Sketch 45.1 (43504) - http://www.bohemiancoding.com/sketch -->
    <title>icons/discover</title>
    <desc>Created with Sketch.</desc>
    <defs></defs>
    <g id="Global" stroke="none" stroke-width="1" fill="none" fill-rule="evenodd">
        <g id="icons/discover" fill="#42526E">
            <path d="M12,19 C15.8659932,19 19,15.8659932 19,12 C19,8.13400675 15.8659932,5 12,5 C8.13400675,5 5,8.13400675 5,12 C5,15.8659932 8.13400675,19 12,19 Z M12,21 C7.02943725,21 3,16.9705627 3,12 C3,7.02943725 7.02943725,3 12,3 C16.9705627,3 21,7.02943725 21,12 C21,16.9705627 16.9705627,21 12,21 Z" id="Oval" fill-rule="nonzero"></path>
            <path d="M10.8593253,10.1859892 L14.7555904,8.23824001 C15.8668097,7.68315784 16.3184883,8.13036979 15.7611933,9.24390508 L13.812557,13.1404111 C13.6872081,13.3910595 13.3873411,13.6894581 13.1395787,13.813315 L9.24331366,15.7610642 C8.13321798,16.31727 7.68153938,15.870058 8.23883437,14.7553991 L10.1864631,10.8588931 C10.3117471,10.6082447 10.611563,10.309846 10.8593253,10.1859892 Z M12,13 C12.5522847,13 13,12.5522847 13,12 C13,11.4477153 12.5522847,11 12,11 C11.4477153,11 11,11.4477153 11,12 C11,12.5522847 11.4477153,13 12,13 Z" id="Combined-Shape"></path>
        </g>
    </g>
</svg>