<?xml version="1.0" encoding="UTF-8" standalone="no"?>
<svg width="24px" height="24px" viewBox="0 0 24 24" version="1.1" xmlns="http://www.w3.org/2000/svg" xmlns:xlink="http://www.w3.org/1999/xlink">
    <!-- Generator: Sketch 46.2 (44496) - http://www.bohemiancoding.com/sketch -->
    <title>icons/email</title>
    <desc>Created with Sketch.</desc>
    <defs></defs>
    <g id="Global" stroke="none" stroke-width="1" fill="none" fill-rule="evenodd">
        <g id="icons/email" fill="#42526E">
            <path d="M5,7 L5,17 L19,17 L19,7 L5,7 Z M19,5 C20.1,5 21,5.9 21,7 L21,17 C21,18.1 20.1,19 19,19 L5,19 C3.9,19 3,18.1 3,17 L3,7 C3,5.9 3.9,5 5,5 L19,5 Z" id="Fill-1" fill-rule="nonzero"></path>
            <path d="M5.49790452,6.5 L3.12394849,6.5 C3.2727183,6.94025881 3.52263879,7.35386722 3.87370996,7.70464391 L9.75614105,13.5861203 C10.9725504,14.8046266 12.9479161,14.8046266 14.1664049,13.5861203 L20.0477963,7.70464391 C20.3985679,7.35386722 20.6482752,6.94025881 20.796918,6.5 L18.4241886,6.5 L12.752014,12.1719288 C12.3145668,12.6093571 11.6065235,12.6093571 11.1690764,12.1719288 L5.49790452,6.5 Z" id="Combined-Shape"></path>
        </g>
    </g>
</svg>