<?xml version="1.0" encoding="UTF-8" standalone="no"?>
<svg width="24px" height="24px" viewBox="0 0 24 24" version="1.1" xmlns="http://www.w3.org/2000/svg" xmlns:xlink="http://www.w3.org/1999/xlink">
    <!-- Generator: Sketch 45.1 (43504) - http://www.bohemiancoding.com/sketch -->
    <title>icons/export</title>
    <desc>Created with Sketch.</desc>
    <defs></defs>
    <g id="Global" stroke="none" stroke-width="1" fill="none" fill-rule="evenodd">
        <g id="icons/export" fill-rule="nonzero" fill="#42526E">
            <path d="M13,6.49111652 L13,16 C13,16.5522847 12.5522847,17 12,17 C11.4477153,17 11,16.5522847 11,16 L11,6.49111652 L9.78361162,7.69669914 C9.37558579,8.10110029 8.71404521,8.10110029 8.30601937,7.69669914 C7.89799354,7.292298 7.89799354,6.63663419 8.30601937,6.23223305 L11.2612039,3.30330086 C11.6692297,2.89889971 12.3307703,2.89889971 12.7387961,3.30330086 L15.6939806,6.23223305 C16.1020065,6.63663419 16.1020065,7.292298 15.6939806,7.69669914 C15.2859548,8.10110029 14.6244142,8.10110029 14.2163884,7.69669914 L13,6.49111652 Z M9,9 L9,11 L7,11 C6.99806845,11 7,18.9914698 7,18.9914698 C7,18.9954232 16.9941413,19 16.9941413,19 C16.9972775,19 17,11.0085302 17,11.0085302 C17,11.0032726 15,11 15,11 L15,9 L17,9 C18.1045695,9 19,9.90195036 19,11.0085302 L19,18.9914698 C19,20.1007504 18.1029399,21 16.9941413,21 L7.00585866,21 C5.89805351,21 5,20.0980496 5,18.9914698 L5,11.0085302 C5,9.8992496 5.88772964,9 7,9 L9,9 Z" id="Combined-Shape"></path>
        </g>
    </g>
</svg>