<?xml version="1.0" encoding="UTF-8" standalone="no"?>
<svg width="24px" height="24px" viewBox="0 0 24 24" version="1.1" xmlns="http://www.w3.org/2000/svg" xmlns:xlink="http://www.w3.org/1999/xlink">
    <!-- Generator: Sketch 45.1 (43504) - http://www.bohemiancoding.com/sketch -->
    <title>icons/followers</title>
    <desc>Created with Sketch.</desc>
    <defs></defs>
    <g id="Global" stroke="none" stroke-width="1" fill="none" fill-rule="evenodd">
        <g id="icons/followers" fill="#42526E">
            <path d="M5,14.0001103 C5,12.8954799 5.90195036,12 7.0085302,12 L14.9914698,12 C16.1007504,12 17,12.8938878 17,14.006104 L17,18.4460997 C17,21.8513001 5,21.8513001 5,18.4460997 C5,21.8513001 5,14.0001103 5,14.0001103 Z" id="Rectangle-7"></path>
            <circle id="Oval-2" cx="11" cy="7" r="4"></circle>
            <path d="M17.2928932,9.29289322 C16.9023689,9.68341751 16.9023689,10.3165825 17.2928932,10.7071068 C17.6834175,11.0976311 18.3165825,11.0976311 18.7071068,10.7071068 L20.7029531,8.71126044 C21.0957714,8.31844215 21.103674,7.68946043 20.7029531,7.28873956 L18.7071068,5.29289322 C18.3165825,4.90236893 17.6834175,4.90236893 17.2928932,5.29289322 C16.9023689,5.68341751 16.9023689,6.31658249 17.2928932,6.70710678 L18.5857864,8 L17.2928932,9.29289322 Z" id="Path-3" fill-rule="nonzero"></path>
        </g>
    </g>
</svg>