<?xml version="1.0" encoding="UTF-8"?>
<svg width="24px" height="24px" viewBox="0 0 24 24" version="1.1" xmlns="http://www.w3.org/2000/svg" xmlns:xlink="http://www.w3.org/1999/xlink">
    <!-- Generator: Sketch 53 (72520) - https://sketchapp.com -->
    <title>global/home-circle</title>
    <desc>Created with Sketch.</desc>
    <g id="global/home-circle" stroke="none" stroke-width="1" fill="none" fill-rule="evenodd">
        <path d="M10.5,16 L9,16 C8.44771525,16 8,15.5522847 8,15 L8,10.0541074 L11.2799429,6.67500175 C11.290367,6.66436856 11.290367,6.66436856 11.3010002,6.65394442 C11.697296,6.26927824 12.3303908,6.27870593 12.715057,6.67500175 L16,10.0592587 L16,15 C16,15.5522847 15.5522847,16 15,16 L13.5,16 L13.5,13.5 C13.5,12.6715729 12.8284271,12 12,12 C11.1715729,12 10.5,12.6715729 10.5,13.5 L10.5,16 Z M18,12.0642764 C18.377111,12.2807242 18.8664432,12.2320161 19.1939997,11.914072 C19.5902955,11.5294058 19.5997232,10.8963111 19.215057,10.5000152 L14.1501711,5.28200229 C12.9961726,4.09311483 11.0968882,4.06483177 9.90800076,5.21883031 C9.87610121,5.25010274 9.87610121,5.25010274 9.84482878,5.28200229 L4.77994289,10.5000152 C4.39527671,10.8963111 4.40470439,11.5294058 4.80100021,11.914072 C5.13000632,12.2334232 5.62222317,12.28115 6,12.0613872 L6,15 C6,16.6568542 7.34314575,18 9,18 L15,18 C16.6568542,18 18,16.6568542 18,15 L18,12.0642764 Z M12,22 C6.47715253,22 2,17.5228475 2,12 C2,6.47715253 6.47715253,2 12,2 C17.5228475,2 22,6.47715253 22,12 C22,17.5228475 17.5228475,22 12,22 Z" id="Combined-Shape" fill="#42526E"></path>
    </g>
</svg>