<?xml version="1.0" encoding="UTF-8" standalone="no"?>
<svg width="24px" height="24px" viewBox="0 0 24 24" version="1.1" xmlns="http://www.w3.org/2000/svg" xmlns:xlink="http://www.w3.org/1999/xlink">
    <!-- Generator: Sketch 45.1 (43504) - http://www.bohemiancoding.com/sketch -->
    <title>icons/image-border</title>
    <desc>Created with Sketch.</desc>
    <defs></defs>
    <g id="Global" stroke="none" stroke-width="1" fill="none" fill-rule="evenodd">
        <g id="icons/image-border" fill="#42526E">
            <path d="M3,17 L3,20.41 C3,20.736 3.262,21 3.59,21 L7,21 L7,19 L5,19 L5,17 L3,17 Z" id="Clip-2"></path>
            <path d="M19,17 L19,19 L17,19 L17,21 L20.41,21 C20.738,21 21,20.736 21,20.41 L21,17 L19,17 Z" id="Mask"></path>
            <path d="M3.59,3 C3.264,3 3,3.262 3,3.59 L3,7 L5,7 L5,5 L7,5 L7,3 L3.59,3 Z" id="Clip-8"></path>
            <path d="M17,3 L17,5 L19,5 L19,7 L21,7 L21,3.59 C21,3.264 20.738,3 20.41,3 L17,3 Z" id="Clip-11"></path>
            <path d="M14,5 L16,5 L16,2.999 L14,2.999 L14,5 Z M8,5 L13,5 L13,2.999 L8,2.999 L8,5 Z M19,10 L21.001,10 L21.001,8 L19,8 L19,10 Z M3,12 L5,12 L5,8 L3,8 L3,12 Z M19,16 L21.001,16 L21.001,11 L19,11 L19,16 Z M3,16 L5,16 L5,13 L3,13 L3,16 Z M12,21 L16,21 L16,19 L12,19 L12,21 Z M8,21 L11,21 L11,19 L8,19 L8,21 Z" id="Fill-13"></path>
        </g>
    </g>
</svg>