<?xml version="1.0" encoding="UTF-8" standalone="no"?>
<svg width="24px" height="24px" viewBox="0 0 24 24" version="1.1" xmlns="http://www.w3.org/2000/svg" xmlns:xlink="http://www.w3.org/1999/xlink">
    <!-- Generator: Sketch 45.1 (43504) - http://www.bohemiancoding.com/sketch -->
    <title>icons/issue</title>
    <desc>Created with Sketch.</desc>
    <defs></defs>
    <g id="Global" stroke="none" stroke-width="1" fill="none" fill-rule="evenodd">
        <g id="icons/issue" fill="#42526E">
            <path d="M5,15.9914698 C5,15.9978202 19.0049107,16 19.0049107,16 C18.9994849,16 19,8.0085302 19,8.0085302 C19,8.00217984 4.99508929,8 4.99508929,8 C5.00051505,8 5,15.9914698 5,15.9914698 Z M3,8.0085302 C3,6.8992496 3.8926228,6 4.99508929,6 L19.0049107,6 C20.1067681,6 21,6.90195036 21,8.0085302 L21,15.9914698 C21,17.1007504 20.1073772,18 19.0049107,18 L4.99508929,18 C3.8932319,18 3,17.0980496 3,15.9914698 L3,8.0085302 Z" id="Rectangle-42" fill-rule="nonzero"></path>
            <path d="M10.6741727,14.3311118 C11.0335476,14.6904868 11.6153491,14.6904868 11.974724,14.3301927 L14.7320768,11.5682444 C15.0896135,11.2088694 15.0896135,10.627068 14.7302385,10.2686121 C14.3727018,9.91107537 13.7890621,9.90923714 13.4306063,10.2704503 L11.3230697,12.3807443 L10.5684741,11.6261488 C10.2100183,11.2676929 9.62821687,11.2676929 9.26884189,11.6261488 C8.91038604,11.9855238 8.91038604,12.5673252 9.26884189,12.925781 L10.6741727,14.3311118 Z" id="Fill-1"></path>
        </g>
    </g>
</svg>