<?xml version="1.0" encoding="UTF-8" standalone="no"?>
<svg width="24px" height="24px" viewBox="0 0 24 24" version="1.1" xmlns="http://www.w3.org/2000/svg" xmlns:xlink="http://www.w3.org/1999/xlink">
    <!-- Generator: Sketch 45.1 (43504) - http://www.bohemiancoding.com/sketch -->
    <title>icons/link-filled</title>
    <desc>Created with Sketch.</desc>
    <defs></defs>
    <g id="Global" stroke="none" stroke-width="1" fill="none" fill-rule="evenodd">
        <g id="icons/link-filled">
            <circle id="Combined-Shape" fill="#42526E" cx="12" cy="12" r="10"></circle>
            <path d="M11.750733,16.1503381 L12.297516,15.6133097 C12.5334896,15.3815458 12.5334896,15.0063372 12.297516,14.7751661 L12.297516,14.7751661 C12.0621458,14.5434022 11.6795184,14.5434022 11.4441483,14.7751661 L10.8696037,15.3388681 C10.3059224,15.8924933 9.38677174,16.0009659 8.76877421,15.5066153 C8.05843916,14.9375786 8.01860729,13.9044214 8.65048562,13.2838158 L10.3439437,11.620569 C10.9390077,11.0355282 11.9046289,11.0355282 12.4996929,11.620569 L13.146659,12.2559933 L14.0000267,11.417257 L13.3536641,10.7824254 C12.2908773,9.73919152 10.5527593,9.73919152 9.49057601,10.7824254 L7.79651443,12.4456722 C6.66915175,13.5535155 6.73855577,15.4088121 8.00472649,16.4247797 C9.10855215,17.3091575 10.7434694,17.139632 11.750733,16.1503381" id="Fill-4" fill="#79F2C0"></path>
            <path d="M12.2492937,7.84966194 L11.7025108,8.3866903 C11.4665371,8.6184542 11.4665371,8.99366275 11.7025108,9.2248339 L11.7025108,9.2248339 C11.9378809,9.4565978 12.3205083,9.4565978 12.5558784,9.2248339 L13.130423,8.66113195 C13.6941044,8.10750668 14.613255,7.99903407 15.2312525,8.49338468 C15.9415876,9.06242135 15.9814194,10.0955786 15.3495411,10.7161842 L13.656083,12.379431 C13.061019,12.9644718 12.0953979,12.9644718 11.5003338,12.379431 L10.8533677,11.7440067 L10,12.582743 L10.6463626,13.2175746 C11.7091494,14.2608085 13.4472675,14.2608085 14.5094507,13.2175746 L16.2035123,11.5543278 C17.330875,10.4464845 17.261471,8.59118786 15.9953002,7.57522029 C14.8914746,6.69084246 13.2565573,6.86036797 12.2492937,7.84966194" id="Fill-1" fill="#79F2C0"></path>
        </g>
    </g>
</svg>