<?xml version="1.0" encoding="UTF-8" standalone="no"?>
<svg width="24px" height="24px" viewBox="0 0 24 24" version="1.1" xmlns="http://www.w3.org/2000/svg" xmlns:xlink="http://www.w3.org/1999/xlink">
    <!-- Generator: Sketch 45.1 (43504) - http://www.bohemiancoding.com/sketch -->
    <title>icons/lock-circle</title>
    <desc>Created with Sketch.</desc>
    <defs></defs>
    <g id="Global" stroke="none" stroke-width="1" fill="none" fill-rule="evenodd">
        <g id="icons/lock-circle">
            <circle id="Combined-Shape" fill="#42526E" cx="12" cy="12" r="10"></circle>
            <path d="M12.02,8 L11.98,8 C10.886,8 10,8.886 10,9.98 L10,11 L11,11 L11,9.99 C11,9.443 11.443,9 11.99,9 L12.01,9 C12.557,9 13,9.443 13,9.99 L13,11 L14,11 L14,9.98 C14,8.886 13.114,8 12.02,8" id="Fill-4" fill="#79F2C0"></path>
            <rect id="Rectangle-3" fill="#79F2C0" x="10" y="11" width="1" height="1"></rect>
            <rect id="Rectangle-3-Copy" fill="#79F2C0" x="13" y="11" width="1" height="1"></rect>
            <path d="M13.0002,12 L11.0002,12 L10.0002,12 C9.4482,12 9.0002,12.448 9.0002,13 L9.0002,15.0010434 C9.0002,15.5527519 9.45117518,16 9.99097797,16 L14.009422,16 C14.5566136,16 15.0002,15.5573397 15.0002,15.0010434 L15.0002,13 C15.0002,12.448 14.5522,12 14.0002,12 L13.0002,12 Z" id="Fill-1" fill="#79F2C0"></path>
        </g>
    </g>
</svg>