<?xml version="1.0" encoding="UTF-8" standalone="no"?>
<svg width="24px" height="24px" viewBox="0 0 24 24" version="1.1" xmlns="http://www.w3.org/2000/svg" xmlns:xlink="http://www.w3.org/1999/xlink">
    <!-- Generator: Sketch 45.1 (43504) - http://www.bohemiancoding.com/sketch -->
    <title>icons/notification-all</title>
    <desc>Created with Sketch.</desc>
    <defs></defs>
    <g id="Global" stroke="none" stroke-width="1" fill="none" fill-rule="evenodd">
        <g id="icons/notification-all" fill="#42526E">
            <path d="M11.3839695,5.478 C12.3699695,4.493 13.6619695,4 14.9539695,4 C15.9259695,4 16.8989695,4.28 17.7419695,4.839 C17.7619695,4.813 17.7849695,4.789 17.8079695,4.765 C18.2029695,4.371 18.8419695,4.371 19.2359695,4.765 C19.6299695,5.16 19.6299695,5.799 19.2359695,6.192 C19.2119695,6.216 19.1869695,6.239 19.1619695,6.259 C20.4629695,8.22 20.2499695,10.888 18.5219695,12.615 L17.7971246,13.3401835 C17.0150037,14.1226696 15.9838327,15.5506132 15.4854363,16.546577 L13.9759695,19.563 C13.7269695,20.063 13.2029695,20.147 12.8049695,19.75 L4.24896952,11.195 C3.85196952,10.798 3.94096952,10.271 4.43596952,10.023 L7.45302014,8.51478851 C8.44158188,8.02061046 9.8737602,6.98891469 10.6591246,6.20318349 L11.3839695,5.478 Z" id="Clip-5" fill-rule="nonzero"></path>
            <path d="M7.92423169,3.61765083 L8.32523169,4.58565083 C8.53623169,5.09565083 8.29423169,5.68065083 7.78423169,5.89165083 L7.78423169,5.89165083 C7.27323169,6.10365083 6.68823169,5.86065083 6.47723169,5.35065083 L6.07623169,4.38265083 C5.86523169,3.87265083 6.10723169,3.28765083 6.61723169,3.07665083 L6.61723169,3.07665083 C7.12823169,2.86465083 7.71323169,3.10765083 7.92423169,3.61765083" id="Fill-10"></path>
            <path d="M4.38323169,6.07623169 L5.35123169,6.47723169 C5.86123169,6.68923169 6.10323169,7.27423169 5.89223169,7.78423169 L5.89223169,7.78423169 C5.68023169,8.29423169 5.09523169,8.53623169 4.58523169,8.32523169 L3.61723169,7.92423169 C3.10723169,7.71223169 2.86523169,7.12723169 3.07623169,6.61723169 L3.07623169,6.61723169 C3.28823169,6.10723169 3.87323169,5.86523169 4.38323169,6.07623169" id="Fill-12"></path>
            <path d="M16.2175275,18.076 C15.7085275,18.288 15.4655275,18.873 15.6755275,19.383 L16.0775275,20.351 C16.2885275,20.861 16.8735275,21.104 17.3845275,20.892 C17.8935275,20.682 18.1365275,20.097 17.9255275,19.585 L17.5245275,18.618 C17.3655275,18.233 16.9925275,18 16.5995275,18 C16.4725275,18 16.3425275,18.025 16.2175275,18.076 Z" id="Clip-5"></path>
            <path d="M18.0766656,16.2190004 C17.8646656,16.7280004 18.1076656,17.3130004 18.6166656,17.5250004 L19.5856656,17.9260004 C20.0946656,18.1370004 20.6806656,17.8950004 20.8926656,17.3840004 C21.1036656,16.8740004 20.8606656,16.2900004 20.3516656,16.0780004 L19.3826656,15.6770004 C19.2576656,15.6250004 19.1286656,15.6000004 19.0006656,15.6000004 C18.6086656,15.6000004 18.2356656,15.8330004 18.0766656,16.2190004 Z" id="Clip-2"></path>
            <path d="M6.485,17.6685 C7.266,18.4495 8.533,18.4495 9.314,17.6685 L6.485,14.8395 C5.704,15.6205 5.704,16.8875 6.485,17.6685 Z" id="Clip-2"></path>
        </g>
    </g>
</svg>