<?xml version="1.0" encoding="UTF-8" standalone="no"?>
<svg width="24px" height="24px" viewBox="0 0 24 24" version="1.1" xmlns="http://www.w3.org/2000/svg" xmlns:xlink="http://www.w3.org/1999/xlink">
    <!-- Generator: Sketch 46.2 (44496) - http://www.bohemiancoding.com/sketch -->
    <title>icons/office-building-filled</title>
    <desc>Created with Sketch.</desc>
    <defs></defs>
    <g id="Global" stroke="none" stroke-width="1" fill="none" fill-rule="evenodd">
        <g id="icons/office-building-filled">
            <path d="M8,6 L5.0085302,6 C3.90195036,6 3,6.96220019 3,8.14913428 L3,18.8508657 C3,20.0388642 3.8992496,21 5.0085302,21 L10.4957349,21 L8,21 L8,6 Z" id="Combined-Shape" fill="#42526E" fill-rule="nonzero"></path>
            <rect id="Rectangle-53-Copy-7" fill="#79F2C0" x="6" y="10" width="2" height="2"></rect>
            <rect id="Rectangle-53-Copy-8" fill="#79F2C0" x="6" y="13" width="2" height="2"></rect>
            <path d="M9,4.99508929 C9,3.8932319 9.90195036,3 11.0085302,3 L18.9914698,3 C20.1007504,3 21,3.8926228 21,4.99508929 L21,19.0049107 C21,20.1067681 20.0980496,21 18.9914698,21 L9,21 L9,4.99508929 Z" id="Combined-Shape" fill="#42526E"></path>
            <rect id="Rectangle-53" fill="#79F2C0" x="12" y="7" width="2" height="2"></rect>
            <rect id="Rectangle-53-Copy-2" fill="#79F2C0" x="12" y="10" width="2" height="2"></rect>
            <rect id="Rectangle-53-Copy-4" fill="#79F2C0" x="12" y="13" width="2" height="2"></rect>
            <rect id="Rectangle-53-Copy-6" fill="#79F2C0" x="14" y="16" width="2" height="3"></rect>
            <rect id="Rectangle-53-Copy" fill="#79F2C0" x="16" y="7" width="2" height="2"></rect>
            <rect id="Rectangle-53-Copy-3" fill="#79F2C0" x="16" y="10" width="2" height="2"></rect>
            <rect id="Rectangle-53-Copy-5" fill="#79F2C0" x="16" y="13" width="2" height="2"></rect>
        </g>
    </g>
</svg>