<?xml version="1.0" encoding="UTF-8" standalone="no"?>
<svg width="24px" height="24px" viewBox="0 0 24 24" version="1.1" xmlns="http://www.w3.org/2000/svg" xmlns:xlink="http://www.w3.org/1999/xlink">
    <!-- Generator: Sketch 45.1 (43504) - http://www.bohemiancoding.com/sketch -->
    <title>icons/overview</title>
    <desc>Created with Sketch.</desc>
    <defs></defs>
    <g id="Global" stroke="none" stroke-width="1" fill="none" fill-rule="evenodd">
        <g id="icons/overview" fill="#42526E">
            <path d="M8.00922203,18 C8.55641359,18 9,17.5561352 9,17 L9,17 C9,16.4477153 8.54902482,16 8.00922203,16 L3.99077797,16 C3.44358641,16 3,16.4438648 3,17 L3,17 C3,17.5522847 3.45097518,18 3.99077797,18 L8.00922203,18 Z M3,7 C3,7.55228475 3.44494629,8 3.99339768,8 L20.0066023,8 C20.5552407,8 21,7.55613518 21,7 L21,7 C21,6.44771525 20.5550537,6 20.0066023,6 L3.99339768,6 C3.44475929,6 3,6.44386482 3,7 L3,7 Z M13.9975267,13 C14.5511774,13 15,12.5561352 15,12 L15,12 C15,11.4477153 14.544239,11 13.9975267,11 L4.00247329,11 C3.44882258,11 3,11.4438648 3,12 L3,12 C3,12.5522847 3.45576096,13 4.00247329,13 L13.9975267,13 Z" id="icon"></path>
        </g>
    </g>
</svg>