<?xml version="1.0" encoding="UTF-8" standalone="no"?>
<svg width="24px" height="24px" viewBox="0 0 24 24" version="1.1" xmlns="http://www.w3.org/2000/svg" xmlns:xlink="http://www.w3.org/1999/xlink">
    <!-- Generator: Sketch 45.1 (43504) - http://www.bohemiancoding.com/sketch -->
    <title>icons/page</title>
    <desc>Created with Sketch.</desc>
    <defs></defs>
    <g id="Global" stroke="none" stroke-width="1" fill="none" fill-rule="evenodd">
        <g id="icons/page" fill="#42526E">
            <rect id="Rectangle-5-Copy-2" x="8" y="6" width="8" height="2" rx="1"></rect>
            <rect id="Rectangle-5-Copy-4" x="8" y="9" width="8" height="2" rx="1"></rect>
            <rect id="Rectangle-5-Copy-5" x="8" y="12" width="4" height="2" rx="1"></rect>
            <path d="M7,4 L7,20 L17,20 L17,4 L7,4 Z M5,3.99079514 C5,2.89130934 5.89706013,2 7.00585866,2 L16.9941413,2 C18.1019465,2 19,2.89821238 19,3.99079514 L19,20.0092049 C19,21.1086907 18.1029399,22 16.9941413,22 L7.00585866,22 C5.89805351,22 5,21.1017876 5,20.0092049 L5,3.99079514 Z" id="Rectangle-5" fill-rule="nonzero"></path>
        </g>
    </g>
</svg>