<?xml version="1.0" encoding="UTF-8" standalone="no"?>
<svg width="24px" height="24px" viewBox="0 0 24 24" version="1.1" xmlns="http://www.w3.org/2000/svg" xmlns:xlink="http://www.w3.org/1999/xlink">
    <!-- Generator: Sketch 46.2 (44496) - http://www.bohemiancoding.com/sketch -->
    <title>icons/people</title>
    <desc>Created with Sketch.</desc>
    <defs></defs>
    <g id="Global" stroke="none" stroke-width="1" fill="none" fill-rule="evenodd">
        <g id="icons/people" fill="#42526E">
            <circle id="Oval-3" cx="16" cy="9" r="3"></circle>
            <circle id="Oval-3-Copy" cx="8" cy="6" r="3"></circle>
            <path d="M11,14.9997846 C11,13.8953341 11.8874333,13 12.999615,13 L19.000385,13 C20.1047419,13 21,13.8854554 21,15.000312 L21,18.7298664 C21,21.7567112 11,21.7567112 11,18.7298664 C11,21.7567112 11,14.9997846 11,14.9997846 Z" id="Rectangle-7"></path>
            <path d="M13,12 C12.9957462,10.8847659 12.1023805,10 11.0000148,10 L5.00001343,10 C3.88701318,10 3.00001298,10.897 3.00001298,12.003 L3.00001298,15.829 C3.00001298,17.7500521 7.05442413,18.3473394 10.0000146,17.8129338 C10.0000146,16.382081 10.0000146,15.0057079 10.0000146,15.0057079 C10.0000146,13.3457013 11.3416377,12 12.9971673,12 L13,12 Z" id="Combined-Shape"></path>
        </g>
    </g>
</svg>