<?xml version="1.0" encoding="UTF-8"?>
<svg width="24px" height="24px" viewBox="0 0 24 24" version="1.1" xmlns="http://www.w3.org/2000/svg" xmlns:xlink="http://www.w3.org/1999/xlink">
    <!-- Generator: Sketch 56.2 (81672) - https://sketch.com -->
    <title>global/person-circle</title>
    <desc>Created with Sketch.</desc>
    <g id="global/person-circle" stroke="none" stroke-width="1" fill="none" fill-rule="evenodd">
        <path d="M11.9392683,12 C10.8185001,13.1678945 10.1296961,14.7535079 10.1296961,16.5 C10.1296961,18.1258575 10.7266315,19.6122932 11.7132927,20.7520974 C8.16055118,21.4478241 3,20.6791582 3,18.4460997 C3,21.8513001 3,14.0001103 3,14.0001103 C3,12.8954799 3.90195036,12 5.0085302,12 L11.9392683,12 Z M9,11 C6.790861,11 5,9.209139 5,7 C5,4.790861 6.790861,3 9,3 C11.209139,3 13,4.790861 13,7 C13,9.209139 11.209139,11 9,11 Z M16.5,22 C13.4624339,22 11,19.5375661 11,16.5 C11,13.4624339 13.4624339,11 16.5,11 C19.5375661,11 22,13.4624339 22,16.5 C22,19.5375661 19.5375661,22 16.5,22 Z M16.5,20 C18.4329966,20 20,18.4329966 20,16.5 C20,14.5670034 18.4329966,13 16.5,13 C14.5670034,13 13,14.5670034 13,16.5 C13,18.4329966 14.5670034,20 16.5,20 Z" id="Color" fill="#42526E"></path>
    </g>
</svg>