<?xml version="1.0" encoding="UTF-8" standalone="no"?>
<svg width="24px" height="24px" viewBox="0 0 24 24" version="1.1" xmlns="http://www.w3.org/2000/svg" xmlns:xlink="http://www.w3.org/1999/xlink">
    <!-- Generator: Sketch 46.2 (44496) - http://www.bohemiancoding.com/sketch -->
    <title>icons/person-circle</title>
    <desc>Created with Sketch.</desc>
    <defs></defs>
    <g id="Global" stroke="none" stroke-width="1" fill="none" fill-rule="evenodd">
        <g id="icons/person-circle" fill="#42526E">
            <path d="M14.4996,13.0089 L9.5006,13.0089 C8.1196,13.0089 7.0006,14.1291603 7.0006,15.5117157 L7.0006,19.4901915 C8.4306,20.4482693 10.1496,21.0089 11.9996,21.0089 C13.8506,21.0089 15.5686,20.4482693 16.9996,19.4901915 L16.9996,15.5117157 C16.9996,14.1291603 15.8796,13.0089 14.4996,13.0089" id="Fill-5"></path>
            <circle id="Oval-2" cx="12" cy="9" r="3"></circle>
            <path d="M12,20 C16.418278,20 20,16.418278 20,12 C20,7.581722 16.418278,4 12,4 C7.581722,4 4,7.581722 4,12 C4,16.418278 7.581722,20 12,20 Z M12,22 C6.4771525,22 2,17.5228475 2,12 C2,6.4771525 6.4771525,2 12,2 C17.5228475,2 22,6.4771525 22,12 C22,17.5228475 17.5228475,22 12,22 Z" id="Oval-10" fill-rule="nonzero"></path>
        </g>
    </g>
</svg>