<?xml version="1.0" encoding="UTF-8" standalone="no"?>
<svg width="24px" height="24px" viewBox="0 0 24 24" version="1.1" xmlns="http://www.w3.org/2000/svg" xmlns:xlink="http://www.w3.org/1999/xlink">
    <!-- Generator: Sketch 45.1 (43504) - http://www.bohemiancoding.com/sketch -->
    <title>icons/preferences</title>
    <desc>Created with Sketch.</desc>
    <defs></defs>
    <g id="Global" stroke="none" stroke-width="1" fill="none" fill-rule="evenodd">
        <g id="icons/preferences" fill="#42526E">
            <rect id="Rectangle-13" x="3" y="7" width="3" height="2"></rect>
            <rect id="Rectangle-13-Copy-2" x="3" y="15" width="11" height="2"></rect>
            <rect id="Rectangle-13-Copy" x="10" y="7" width="11" height="2"></rect>
            <rect id="Rectangle-13-Copy-3" x="18" y="15" width="3" height="2"></rect>
            <path d="M11,8 C11,9.65728475 9.65728475,11 8,11 C6.34271525,11 5,9.65728475 5,8 C5,6.34271525 6.34271525,5 8,5 C9.65728475,5 11,6.34271525 11,8 Z M9,8 C9,7.44728475 8.55271525,7 8,7 C7.44728475,7 7,7.44728475 7,8 C7,8.55271525 7.44728475,9 8,9 C8.55271525,9 9,8.55271525 9,8 Z" id="Combined-Shape"></path>
            <path d="M19,16 C19,17.6572847 17.6572847,19 16,19 C14.3427153,19 13,17.6572847 13,16 C13,14.3427153 14.3427153,13 16,13 C17.6572847,13 19,14.3427153 19,16 Z M17,16 C17,15.4472847 16.5527153,15 16,15 C15.4472847,15 15,15.4472847 15,16 C15,16.5527153 15.4472847,17 16,17 C16.5527153,17 17,16.5527153 17,16 Z" id="Combined-Shape-Copy"></path>
        </g>
    </g>
</svg>