<svg xmlns="http://www.w3.org/2000/svg" width="24" height="24" viewBox="0 0 24 24">
  <path fill="#42526E" fill-rule="evenodd" d="M9.27566169 4.3818075L7.35719132 9.24650023 2.49353672 11.1639325C2.29213886 11.2438687 2.13330446 11.4027031 2.05440633 11.6020247L2.05440633 11.6020247C1.89661006 12.0037823 2.09385539 12.4553703 2.49353672 12.6131666L2.49353672 12.6131666 7.35719132 14.531637 9.27566169 19.3952916C9.35559796 19.5956513 9.51339422 19.7555238 9.71375395 19.8333838L9.71375395 19.8333838C10.1134353 19.9911801 10.5660614 19.796011 10.7248958 19.3952916L10.7248958 19.3952916 12.6433662 14.531637 17.5070208 12.6131666C17.7084186 12.5342685 17.867253 12.3754341 17.9461512 12.1740362L17.9461512 12.1740362C18.1029093 11.7743549 17.905664 11.3217287 17.5070208 11.1639325L17.5070208 11.1639325 12.6433662 9.24650023 10.7248958 4.3818075C10.6459977 4.18144777 10.4871633 4.02261337 10.2857654 3.94371524L10.2857654 3.94371524C10.1923334 3.90634244 10.0947489 3.8897323 10.0002788 3.8897323L10.0002788 3.8897323C9.68987689 3.8897323 9.39608516 4.07555817 9.27566169 4.3818075L9.27566169 4.3818075zM17.5731306 2.35258856L16.8300485 4.23818721 14.9455656 4.98126929C14.8016353 5.03817197 14.6878299 5.15197733 14.6309273 5.2947919L14.6309273 5.2947919C14.5182376 5.58265253 14.6599365 5.90621679 14.9455656 6.01890642L14.9455656 6.01890642 16.8300485 6.76198849 17.5731306 8.64758715C17.631149 8.79040172 17.7438387 8.90532282 17.887769 8.96110977L17.887769 8.96110977C18.1733981 9.07379939 18.4991939 8.93321629 18.6107677 8.64758715L18.6107677 8.64758715 19.3560813 6.76198849 21.2394485 6.01890642C21.3833788 5.96200374 21.4971841 5.84819837 21.5540868 5.7053838L21.5540868 5.7053838C21.6678922 5.41752318 21.5261934 5.09395891 21.2394485 4.98126929L21.2394485 4.98126929 19.3560813 4.23818721 18.6107677 2.35258856C18.5549808 2.20977398 18.4411754 2.09485288 18.2972451 2.03906594L18.2972451 2.03906594C18.2303008 2.01228821 18.161125 2.00001508 18.0941806 2.00001508L18.0941806 2.00001508C17.8710329 2.00001508 17.661274 2.13390374 17.5731306 2.35258856L17.5731306 2.35258856zM16.8692954 15.3547802L16.1251494 17.2380163 14.2419134 17.9821623C14.0968774 18.0379453 13.98308 18.1517428 13.9261813 18.2956631L13.9261813 18.2956631C13.8134995 18.582388 13.9551884 18.9070454 14.2419134 19.0197272L14.2419134 19.0197272 16.1251494 19.7627575 16.8692954 21.6471092C16.9261941 21.7910295 17.0388759 21.9048269 17.1827962 21.9617256L17.1827962 21.9617256C17.4695211 22.0732918 17.7941785 21.9327185 17.9068603 21.6471092L17.9068603 21.6471092 18.6510063 19.7627575 20.5342423 19.0197272C20.6781626 18.9617128 20.79196 18.849031 20.8499744 18.7051107L20.8499744 18.7051107C20.9626562 18.4183858 20.8209672 18.0937284 20.5342423 17.9821623L20.5342423 17.9821623 18.6510063 17.2380163 17.9068603 15.3547802C17.8499616 15.2097443 17.7372798 15.0948312 17.5922438 15.0390481L17.5922438 15.0390481C17.5253042 15.0133879 17.4561332 15 17.3891935 15L17.3891935 15C17.1660613 15 16.956317 15.134995 16.8692954 15.3547802L16.8692954 15.3547802z"/>
</svg>
