<?xml version="1.0" encoding="UTF-8" standalone="no"?>
<svg width="24px" height="24px" viewBox="0 0 24 24" version="1.1" xmlns="http://www.w3.org/2000/svg" xmlns:xlink="http://www.w3.org/1999/xlink">
    <!-- Generator: Sketch 45.1 (43504) - http://www.bohemiancoding.com/sketch -->
    <title>icons/question</title>
    <desc>Created with Sketch.</desc>
    <defs></defs>
    <g id="Global" stroke="none" stroke-width="1" fill="none" fill-rule="evenodd">
        <g id="icons/question" fill="#42526E">
            <path d="M12,18 L12,18 C11.448,18 11,17.552 11,17 L11,17 C11,16.448 11.448,16 12,16 L12,16 C12.552,16 13,16.448 13,17 L13,17 C13,17.552 12.552,18 12,18" id="Fill-3"></path>
            <path d="M10,9 C10,9.552 9.552,10 9,10 C8.448,10 8,9.552 8,9 C8,8.448 8.448,8 9,8 C9.552,8 10,8.448 10,9" id="Fill-5"></path>
            <path d="M15.8899485,8.04813239 C15.5569485,6.60513239 14.3829485,5.43513239 12.9389485,5.10713239 C10.2909485,4.50413239 7.94594849,6.53013239 8.00094849,9.08813239 C8.00394849,9.09113239 8.00594849,9.09313239 8.00994849,9.09613239 L9.88794849,9.11813239 C9.93194849,9.07213239 9.95594849,9.04813239 9.99994849,9.00213239 C9.99894849,7.89813239 10.8959485,7.00013239 11.9999485,7.00013239 C13.1029485,7.00013239 13.9999485,7.89713239 13.9999485,9.00013239 C13.9999485,10.1021324 13.1029485,11.0001324 11.9999485,11.0001324 L12.0079485,11.0001324 C11.4599485,11.0001324 11.0179485,11.4411324 11.0099485,11.9871324 L11.0099485,12.0261324 L11.0099485,12.8611324 L11.0099485,14.0001324 C11.0099485,14.5521324 11.4579485,15.0001324 12.0099485,15.0001324 L12.0099485,15.0001324 C12.5629485,15.0001324 13.0099485,14.5521324 13.0099485,14.0001324 L13.0099485,13.2191324 C13.0099485,13.0021324 13.1549485,12.8201324 13.3589485,12.7471324 C15.1719485,12.0911324 16.3809485,10.1771324 15.8899485,8.04813239" id="Fill-7"></path>
        </g>
    </g>
</svg>