<?xml version="1.0" encoding="UTF-8" standalone="no"?>
<svg width="24px" height="24px" viewBox="0 0 24 24" version="1.1" xmlns="http://www.w3.org/2000/svg" xmlns:xlink="http://www.w3.org/1999/xlink">
    <!-- Generator: Sketch 45.1 (43504) - http://www.bohemiancoding.com/sketch -->
    <title>icons/question-circle</title>
    <desc>Created with Sketch.</desc>
    <defs></defs>
    <g id="Global" stroke="none" stroke-width="1" fill="none" fill-rule="evenodd">
        <g id="icons/question-circle">
            <circle id="Oval-2" fill="#42526E" cx="12" cy="12" r="10"></circle>
            <circle id="Oval-3-Copy" fill="#79F2C0" cx="12" cy="18" r="1"></circle>
            <path d="M15.8895915,9.0491 C15.5560041,7.6061 14.3799335,6.4361 12.9333866,6.1081 C10.3207867,5.5141 8.01672998,7.4461 7.9997,9.9501 C7.9997,9.9591 8.00470882,10.0971 8.00470882,10.0971 C8.05579877,10.6021 8.46852545,11.0011 8.98743908,11.0011 C9.53941092,11.0011 9.98719933,10.5541 9.98920285,10.0031 L9.98920285,10.0031 C9.98820109,8.8991 10.8867832,8.0011 11.9927304,8.0011 C13.0976758,8.0011 13.9962579,8.8981 13.9962579,10.0011 C13.9962579,11.1031 13.0976758,12.0011 11.9927304,12.0011 L12.0007445,12.0011 C11.451778,12.0011 11.0089984,12.4421 11.0009843,12.9881 L11.0009843,13.0271 L11.0009843,13.8621 L11.0009843,15.0011 C11.0009843,15.5531 11.4497744,16.0011 12.002748,16.0011 C12.5567234,16.0011 13.0045118,15.5531 13.0045118,15.0011 L13.0045118,14.2201 C13.0045118,14.0031 13.1497676,13.8211 13.3541274,13.7481 C15.1703251,13.0921 16.3814575,11.1781 15.8895915,9.0491" id="Fill-1" fill="#79F2C0"></path>
        </g>
    </g>
</svg>