<?xml version="1.0" encoding="UTF-8" standalone="no"?>
<svg width="24px" height="24px" viewBox="0 0 24 24" version="1.1" xmlns="http://www.w3.org/2000/svg" xmlns:xlink="http://www.w3.org/1999/xlink">
    <!-- Generator: Sketch 45.1 (43504) - http://www.bohemiancoding.com/sketch -->
    <title>icons/queues</title>
    <desc>Created with Sketch.</desc>
    <defs></defs>
    <g id="Global" stroke="none" stroke-width="1" fill="none" fill-rule="evenodd">
        <g id="icons/queues" fill-rule="nonzero" fill="#42526E">
            <path d="M19,5 L19.0059397,5 C20.1072288,5 21,5.89451376 21,6.99406028 L21,19.0059397 C21,20.1072288 20.1054862,21 19.0059397,21 L6.99406028,21 C5.8927712,21 5,20.1054862 5,19.0059397 L5,19 L17.9991283,19 C18.5553691,19 19,18.5518945 19,17.9991283 L19,5 Z M3,5.00585866 C3,3.89805351 3.89706013,3 5.00585866,3 L14.9941413,3 C16.1019465,3 17,3.89706013 17,5.00585866 L17,14.9941413 C17,16.1019465 16.1029399,17 14.9941413,17 L5.00585866,17 C3.89805351,17 3,16.1029399 3,14.9941413 L3,5.00585866 Z M5,5 L5,15 L15,15 L15,5 L5,5 Z M6,8 C6,7.44771525 6.45303631,7 6.99703014,7 L13.0029699,7 C13.5536144,7 14,7.44386482 14,8 C14,8.55228475 13.5469637,9 13.0029699,9 L6.99703014,9 C6.4463856,9 6,8.55613518 6,8 Z M6,11 C6,10.4477153 6.45303631,10 6.99703014,10 L13.0029699,10 C13.5536144,10 14,10.4438648 14,11 C14,11.5522847 13.5469637,12 13.0029699,12 L6.99703014,12 C6.4463856,12 6,11.5561352 6,11 Z" id="Combined-Shape-Copy"></path>
        </g>
    </g>
</svg>