<?xml version="1.0" encoding="UTF-8" standalone="no"?>
<svg width="24px" height="24px" viewBox="0 0 24 24" version="1.1" xmlns="http://www.w3.org/2000/svg" xmlns:xlink="http://www.w3.org/1999/xlink">
    <!-- Generator: Sketch 45.1 (43504) - http://www.bohemiancoding.com/sketch -->
    <title>icons/quote</title>
    <desc>Created with Sketch.</desc>
    <defs></defs>
    <g id="Global" stroke="none" stroke-width="1" fill="none" fill-rule="evenodd">
        <g id="icons/quote" fill="#42526E">
            <path d="M16.051,6.00014007 C14.48,6.00014007 13.204,7.31214007 13.204,8.93014007 C13.204,10.5471401 14.48,11.8591401 16.051,11.8591401 C18.75,11.8591401 17.186,16.9481401 13.782,17.4781401 C13.45,17.5301401 13.204,17.8131401 13.204,18.1491401 L13.204,18.1491401 C13.204,18.5651401 13.576,18.8941401 13.988,18.8311401 C20.175,17.8931401 22.375,6.00014007 16.051,6.00014007 M7.848,6.00014007 C6.275,6.00014007 5,7.31214007 5,8.93014007 C5,10.5471401 6.275,11.8591401 7.848,11.8591401 C10.546,11.8591401 8.982,16.9481401 5.578,17.4781401 C5.246,17.5301401 5,17.8131401 5,18.1491401 L5,18.1491401 C5,18.5651401 5.372,18.8941401 5.783,18.8311401 C11.972,17.8931401 14.172,6.00014007 7.848,6.00014007" id="Page-1"></path>
        </g>
    </g>
</svg>