<?xml version="1.0" encoding="UTF-8"?>
<svg width="24px" height="24px" viewBox="0 0 24 24" version="1.1" xmlns="http://www.w3.org/2000/svg" xmlns:xlink="http://www.w3.org/1999/xlink">
    <!-- Generator: Sketch 52.2 (67145) - http://www.bohemiancoding.com/sketch -->
    <title>retry</title>
    <desc>Created with Sketch.</desc>
    <g id="retry" stroke="none" stroke-width="1" fill="none" fill-rule="evenodd">
        <path d="M6,10 L8.954,10 C9.50628475,10 9.954,10.4477153 9.954,11 C9.954,11.5522847 9.50628475,12 8.954,12 L5.099,12 C4.48877206,12 4,11.504392 4,10.9 L4,7 C4,6.44771525 4.44771525,6 5,6 C5.55228475,6 6,6.44771525 6,7 L6,10 Z" id="Stroke-1" fill="#42526E" fill-rule="nonzero"></path>
        <path d="M7.38937544,10.0896982 L5.29999899,10.0896982 C6.18808458,6.63924379 9.32028516,4.08969821 13.047964,4.08969821 C17.466242,4.08969821 21.047964,7.67142021 21.047964,12.0896982 C21.047964,16.5079762 17.466242,20.0896982 13.047964,20.0896982 C10.0868346,20.0896982 7.50145927,18.4809037 6.11822159,16.0896982 L7.8396021,16.0896982 L7.8396021,15.0705055 C8.874271,16.8744885 10.8192038,18.0896982 13.047964,18.0896982 C16.3616725,18.0896982 19.047964,15.4034067 19.047964,12.0896982 C19.047964,8.77598971 16.3616725,6.08969821 13.047964,6.08969821 C10.4355264,6.08969821 8.21304825,7.75931347 7.38937544,10.0896982 Z" id="Combined-Shape" fill="#42526E" fill-rule="nonzero"></path>
        <circle id="Oval" fill="#42526E" cx="6.9996021" cy="15.609988" r="1"></circle>
    </g>
</svg>