<?xml version="1.0" encoding="UTF-8" standalone="no"?>
<svg width="24px" height="24px" viewBox="0 0 24 24" version="1.1" xmlns="http://www.w3.org/2000/svg" xmlns:xlink="http://www.w3.org/1999/xlink">
    <!-- Generator: Sketch 49.3 (51167) - http://www.bohemiancoding.com/sketch -->
    <title>icons/roadmap</title>
    <desc>Created with Sketch.</desc>
    <defs></defs>
    <g id="icons/roadmap" stroke="none" stroke-width="1" fill="none" fill-rule="evenodd">
        <path d="M6,2 L16,2 C17.6568542,2 19,3.34314575 19,5 C19,6.65685425 17.6568542,8 16,8 L6,8 C4.34314575,8 3,6.65685425 3,5 C3,3.34314575 4.34314575,2 6,2 Z M6,4 C5.44771525,4 5,4.44771525 5,5 C5,5.55228475 5.44771525,6 6,6 L16,6 C16.5522847,6 17,5.55228475 17,5 C17,4.44771525 16.5522847,4 16,4 L6,4 Z M10,9 L18,9 C19.6568542,9 21,10.3431458 21,12 C21,13.6568542 19.6568542,15 18,15 L10,15 C8.34314575,15 7,13.6568542 7,12 C7,10.3431458 8.34314575,9 10,9 Z M10,11 C9.44771525,11 9,11.4477153 9,12 C9,12.5522847 9.44771525,13 10,13 L18,13 C18.5522847,13 19,12.5522847 19,12 C19,11.4477153 18.5522847,11 18,11 L10,11 Z M6,16 L12,16 C13.6568542,16 15,17.3431458 15,19 C15,20.6568542 13.6568542,22 12,22 L6,22 C4.34314575,22 3,20.6568542 3,19 C3,17.3431458 4.34314575,16 6,16 Z M6,18 C5.44771525,18 5,18.4477153 5,19 C5,19.5522847 5.44771525,20 6,20 L12,20 C12.5522847,20 13,19.5522847 13,19 C13,18.4477153 12.5522847,18 12,18 L6,18 Z" id="Combined-Shape" fill="#42526E"></path>
    </g>
</svg>