<?xml version="1.0" encoding="UTF-8" standalone="no"?>
<svg width="24px" height="24px" viewBox="0 0 24 24" version="1.1" xmlns="http://www.w3.org/2000/svg" xmlns:xlink="http://www.w3.org/1999/xlink">
    <!-- Generator: Sketch 45.1 (43504) - http://www.bohemiancoding.com/sketch -->
    <title>icons/schedule-filled</title>
    <desc>Created with Sketch.</desc>
    <defs></defs>
    <g id="Global" stroke="none" stroke-width="1" fill="none" fill-rule="evenodd">
        <g id="icons/schedule-filled" fill="#42526E">
            <path d="M19,10.3414114 L19,6.74475 C19,5.783125 18.2062222,5 17.2266667,5 L17,5 L17,6 C17,7.1045695 16.1122704,8 15,8 C13.8954305,8 13,7.11227036 13,6 L13,5 L9,5 L9,6 C9,7.1045695 8.11227036,8 7,8 C5.8954305,8 5,7.11227036 5,6 L5,5 L4.77333333,5 C3.79288889,5 3,5.781375 3,6.74475 L3,17.25525 C3,18.21775 3.79377778,19 4.77333333,19 L11.8026932,19 C11.2921829,18.1174799 11,17.0928614 11,16 C11,12.6862915 13.6862915,10 17,10 C17.7012708,10 18.3744421,10.1203084 19,10.3414114 Z" id="Combined-Shape"></path>
            <path d="M14,6 L14,5 L16,5 L16,6 C16,6.552 15.552,7 15,7 C14.448,7 14,6.552 14,6 Z M14,4 C14,3.448 14.448,3 15,3 C15.552,3 16,3.448 16,4 L16,5 L14,5 L14,4 Z" id="Combined-Shape"></path>
            <path d="M6,4 C6,3.448 6.448,3 7,3 C7.552,3 8,3.448 8,4 L8,5 L6,5 L6,4 Z M6,6 L6,5 L8,5 L8,6 C8,6.552 7.552,7 7,7 C6.448,7 6,6.552 6,6 Z" id="Combined-Shape"></path>
            <path d="M18,15 L18,13.990778 C18,13.4509752 17.5522847,13 17,13 C16.4438648,13 16,13.4435864 16,13.990778 L16,15 L14.990778,15 C14.4509752,15 14,15.4477153 14,16 C14,16.5561352 14.4435864,17 14.990778,17 L16,17 L16,18.009222 C16,18.5490248 16.4477153,19 17,19 C17.5561352,19 18,18.5564136 18,18.009222 L18,17 L19.009222,17 C19.5490248,17 20,16.5522847 20,16 C20,15.4438648 19.5564136,15 19.009222,15 L18,15 Z M17,21 C14.2385763,21 12,18.7614237 12,16 C12,13.2385763 14.2385763,11 17,11 C19.7614237,11 22,13.2385763 22,16 C22,18.7614237 19.7614237,21 17,21 Z" id="Combined-Shape"></path>
        </g>
    </g>
</svg>