<?xml version="1.0" encoding="UTF-8" standalone="no"?>
<svg width="24px" height="24px" viewBox="0 0 24 24" version="1.1" xmlns="http://www.w3.org/2000/svg" xmlns:xlink="http://www.w3.org/1999/xlink">
    <!-- Generator: Sketch 45.1 (43504) - http://www.bohemiancoding.com/sketch -->
    <title>icons/screen</title>
    <desc>Created with Sketch.</desc>
    <defs></defs>
    <g id="Global" stroke="none" stroke-width="1" fill="none" fill-rule="evenodd">
        <g id="icons/screen" fill="#42526E">
            <path d="M3,6.0085302 C3,4.8992496 3.8926228,4 4.99508929,4 L19.0049107,4 C20.1067681,4 21,4.90195036 21,6.0085302 L21,13.9914698 C21,15.1007504 20.1073772,16 19.0049107,16 L4.99508929,16 C3.8932319,16 3,15.0980496 3,13.9914698 L3,6.0085302 Z M5,14 L19,14 L19,6 L5,6 L5,14 Z" id="Combined-Shape" fill-rule="nonzero"></path>
            <rect id="Rectangle-11-Copy" x="10" y="17" width="4" height="3"></rect>
            <path d="M9,20.5 C9,20.2238576 9.22788048,20 9.49100518,20 L14.5089948,20 C14.7801695,20 15,20.2319336 15,20.5 L15,21 L9,21 L9,20.5 Z" id="Rectangle-11-Copy-2"></path>
        </g>
    </g>
</svg>