<?xml version="1.0" encoding="UTF-8"?>
<?xml version="1.0" encoding="UTF-8"?>
<svg width="24px" height="24px" viewBox="0 0 24 24" version="1.1" xmlns="http://www.w3.org/2000/svg" xmlns:xlink="http://www.w3.org/1999/xlink">
    <!-- Generator: Sketch 50.2 (55047) - http://www.bohemiancoding.com/sketch -->
    <title>select-clear</title>
    <desc>Created with Sketch.</desc>
    <defs></defs>
    <g id="select-clear" stroke="none" stroke-width="1" fill="none" fill-rule="evenodd">
        <circle id="Bg" fill="currentColor" cx="12" cy="12" r="9"></circle>
        <path d="M16.1553041,14.4934041 C16.6148986,14.9530286 16.6148986,15.695951 16.1553041,16.1555755 C15.9260946,16.3848 15.6251837,16.5 15.3242727,16.5 C15.0233617,16.5 14.7224508,16.3848 14.4932413,16.1555755 L12.0001469,13.6623184 L9.50587717,16.1555755 C9.27666765,16.3848 8.97575669,16.5 8.67484572,16.5 C8.37393476,16.5 8.07419924,16.3848 7.84381428,16.1555755 C7.38539524,15.695951 7.38539524,14.9530286 7.84381428,14.4934041 L10.3369086,12.0001469 L7.84381428,9.5068898 C7.38539524,9.04726531 7.38539524,8.30316735 7.84381428,7.84471837 C8.30340876,7.38509388 9.04745813,7.38509388 9.50587717,7.84471837 L12.0001469,10.3379755 L14.4932413,7.84471837 C14.9528357,7.38509388 15.6957097,7.38509388 16.1553041,7.84471837 C16.6148986,8.30316735 16.6148986,9.04726531 16.1553041,9.5068898 L13.6622098,12.0001469 L16.1553041,14.4934041 Z" id="Clear" fill="inherit"></path>
    </g>
</svg>
