<?xml version="1.0" encoding="UTF-8" standalone="no"?>
<svg width="24px" height="24px" viewBox="0 0 24 24" version="1.1" xmlns="http://www.w3.org/2000/svg" xmlns:xlink="http://www.w3.org/1999/xlink">
    <!-- Generator: Sketch 45.1 (43504) - http://www.bohemiancoding.com/sketch -->
    <title>icons/settings</title>
    <desc>Created with Sketch.</desc>
    <defs></defs>
    <g id="Global" stroke="none" stroke-width="1" fill="none" fill-rule="evenodd">
        <g id="icons/settings" fill="#42526E">
            <path d="M11.7014,16.7007 C8.9384,16.7007 6.6994,14.4607 6.6994,11.6987 C6.6994,8.9357 8.9384,6.6967 11.7014,6.6967 C14.4644,6.6967 16.7034,8.9357 16.7034,11.6987 C16.7034,14.4607 14.4644,16.7007 11.7014,16.7007 M20.0694,13.5837 C19.2864,13.3117 18.7234,12.5747 18.7234,11.6987 C18.7234,10.8227 19.2864,10.0857 20.0684,9.8137 C20.3054,9.7317 20.4514,9.4807 20.3834,9.2397 C20.1844,8.5357 19.9014,7.8687 19.5474,7.2467 C19.4294,7.0387 19.1704,6.9617 18.9494,7.0517 C18.5644,7.2097 18.1194,7.2507 17.6584,7.1327 C16.9844,6.9587 16.4334,6.4097 16.2554,5.7367 C16.1334,5.2737 16.1744,4.8267 16.3314,4.4397 C16.4204,4.2197 16.3434,3.9607 16.1354,3.8427 C15.5184,3.4937 14.8564,3.2137 14.1604,3.0167 C13.9184,2.9487 13.6684,3.0937 13.5864,3.3307 C13.3144,4.1137 12.5774,4.6767 11.7014,4.6767 C10.8264,4.6767 10.0884,4.1137 9.8174,3.3317 C9.7344,3.0947 9.4834,2.9487 9.2424,3.0167 C8.5344,3.2167 7.8634,3.5017 7.2384,3.8587 C7.0374,3.9737 6.9524,4.2257 7.0404,4.4407 C7.1874,4.8017 7.2324,5.2137 7.1384,5.6437 C6.9834,6.3497 6.4244,6.9407 5.7254,7.1277 C5.2674,7.2507 4.8274,7.2117 4.4454,7.0597 C4.2254,6.9717 3.9674,7.0497 3.8504,7.2557 C3.4974,7.8777 3.2154,8.5457 3.0174,9.2497 C2.9494,9.4887 3.0924,9.7367 3.3254,9.8217 C4.0964,10.0997 4.6484,10.8317 4.6484,11.6987 C4.6484,12.5657 4.0964,13.2977 3.3244,13.5757 C3.0914,13.6597 2.9494,13.9077 3.0164,14.1467 C3.1934,14.7737 3.4384,15.3727 3.7394,15.9367 C3.8584,16.1587 4.1344,16.2347 4.3634,16.1297 C4.9584,15.8567 5.7064,15.8657 6.4674,16.3677 C6.5844,16.4447 6.6924,16.5527 6.7694,16.6687 C7.2964,17.4677 7.2814,18.2487 6.9674,18.8557 C6.8524,19.0787 6.9194,19.3567 7.1354,19.4837 C7.7894,19.8677 8.4974,20.1707 9.2444,20.3807 C9.4854,20.4487 9.7334,20.3047 9.8144,20.0677 C10.0834,19.2817 10.8234,18.7147 11.7014,18.7147 C12.5794,18.7147 13.3194,19.2817 13.5884,20.0677 C13.6694,20.3037 13.9174,20.4487 14.1584,20.3807 C14.8954,20.1737 15.5944,19.8747 16.2424,19.4977 C16.4604,19.3707 16.5264,19.0897 16.4094,18.8667 C16.0914,18.2587 16.0724,17.4737 16.6004,16.6717 C16.6774,16.5557 16.7854,16.4467 16.9024,16.3697 C17.6744,15.8587 18.4294,15.8567 19.0274,16.1397 C19.2564,16.2477 19.5354,16.1727 19.6554,15.9497 C19.9594,15.3857 20.2044,14.7857 20.3834,14.1567 C20.4514,13.9157 20.3064,13.6657 20.0694,13.5837" id="Fill-1"></path>
        </g>
    </g>
</svg>