<?xml version="1.0" encoding="UTF-8" standalone="no"?>
<svg width="24px" height="24px" viewBox="0 0 24 24" version="1.1" xmlns="http://www.w3.org/2000/svg" xmlns:xlink="http://www.w3.org/1999/xlink">
    <!-- Generator: Sketch 46.2 (44496) - http://www.bohemiancoding.com/sketch -->
    <title>icons/sign-in</title>
    <desc>Created with Sketch.</desc>
    <defs></defs>
    <g id="Global" stroke="none" stroke-width="1" fill="none" fill-rule="evenodd">
        <g id="icons/sign-in" fill="#42526E">
            <path d="M15.503,3 L12,3 L12,5 L19,5 L19,19 L12,19 L12,21 L15.503,21 L19.006,21 C20.106,21 21,20.107 21,19.005 L21,4.995 C21,3.892 20.108,3 19.006,3 L15.503,3 Z" id="Mask-Copy"></path>
            <path d="M3.977,11 C3.437,11 3,11.449 3,12.001 C3,12.552 3.437,13 3.977,13 L15.024,13 C15.563,13 16,12.552 16,12.001 C16,11.449 15.563,11 15.024,11 L3.977,11 Z" id="Clip-5"></path>
            <path d="M12.303,8.305 C11.899,8.714 11.899,9.375 12.303,9.783 L14.5,12 L12.303,14.217 C11.899,14.624 11.899,15.286 12.303,15.693 C12.707,16.102 13.363,16.102 13.768,15.693 L16.698,12.738 C17.1,12.33 17.1,11.669 16.698,11.261 L13.768,8.305 C13.565,8.102 13.3,8 13.035,8 C12.77,8 12.505,8.102 12.303,8.305 Z" id="Clip-2"></path>
        </g>
    </g>
</svg>