<?xml version="1.0" encoding="UTF-8"?>
<svg width="24px" height="24px" viewBox="0 0 24 24" version="1.1" xmlns="http://www.w3.org/2000/svg" xmlns:xlink="http://www.w3.org/1999/xlink">
    <!-- Generator: Sketch 56.3 (81716) - https://sketch.com -->
    <title>global/sprint</title>
    <desc>Created with Sketch.</desc>
    <g id="global/sprint" stroke="none" stroke-width="1" fill="none">
        <path d="M17.7172116,17.1368204 L16.2811125,15.699221 C15.9011755,15.3060128 15.9071904,14.6800896 16.2941446,14.2929 C16.4896267,14.098302 16.7452572,14 17.0028925,14 C17.2535106,14 17.5041286,14.0932866 17.6986083,14.280863 L20.706025,17.2901092 C21.0979917,17.6823143 21.0979917,18.3172652 20.706025,18.7084672 L17.6986083,21.7187165 C17.3046367,22.0988846 16.6800965,22.0928661 16.2941446,21.7056764 C15.9071904,21.3184867 15.9011755,20.6935666 16.2811125,20.2993554 L17.5818758,18.9983684 L11.5096471,18.995288 C7.32141176,18.7398987 4,15.2681117 4,11.0103664 C4,6.58675934 7.58211765,3 12,3 C16.4178824,3 20,6.58675934 20,11.0103664 C20,12.2477324 19.7110588,13.4153611 19.2112941,14.4614207 L17.7731765,13.0214395 C17.9924706,12.3909766 18.1176471,11.7152786 18.1176471,11.0103664 C18.1176471,7.62716457 15.3788235,4.88479208 12,4.88479208 C8.62117647,4.88479208 5.88235294,7.62716457 5.88235294,11.0103664 C5.88235294,14.2343032 8.37082353,16.8711273 11.5294118,17.1123807 L17.7172116,17.1368204 Z M5.55407378,17.0182235 C6.11544446,17.7769832 7.00959281,18.5074744 8.01149289,18.9992127 L3.93738283,19 C3.41968059,19 3,18.5522847 3,18 C3,17.4477153 3.41968059,17 3.93738283,17 L5.55112853,17.0050702 L5.55407378,17.0182235 Z" fill="#42526E"></path>
    </g>
</svg>
