<?xml version="1.0" encoding="UTF-8"?>
<svg width="24px" height="24px" viewBox="0 0 24 24" version="1.1" xmlns="http://www.w3.org/2000/svg" xmlns:xlink="http://www.w3.org/1999/xlink">
    <!-- Generator: Sketch 52.6 (67491) - http://www.bohemiancoding.com/sketch -->
    <title>status</title>
    <desc>Created with Sketch.</desc>
    <g id="status" stroke="none" stroke-width="1" fill="none" fill-rule="evenodd">
        <path d="M4,5 L20,5 C21.1045695,5 22,6.04466892 22,7.33333333 L22,16.6666667 C22,17.9553311 21.1045695,19 20,19 L4,19 C2.8954305,19 2,17.9553311 2,16.6666667 L2,7.33333333 C2,6.04466892 2.8954305,5 4,5 Z M7.46533203,14.8874512 L8.74267578,14.8874512 L6.78564453,9.25073242 L5.39892578,9.25073242 L3.44189453,14.8874512 L4.62548828,14.8874512 L5.05908203,13.5437012 L7.03955078,13.5437012 L7.46533203,14.8874512 Z M6.02001953,10.4226074 L6.09033203,10.4226074 L6.78955078,12.6335449 L5.31298828,12.6335449 L6.02001953,10.4226074 Z M12.2348633,14.8874512 C13.4379883,14.8874512 14.184082,14.2624512 14.184082,13.2741699 C14.184082,12.5476074 13.6411133,11.9851074 12.8950195,11.9304199 L12.8950195,11.8601074 C13.4731445,11.7741699 13.9145508,11.2546387 13.9145508,10.6569824 C13.9145508,9.78588867 13.262207,9.25073242 12.168457,9.25073242 L9.70361328,9.25073242 L9.70361328,14.8874512 L12.2348633,14.8874512 Z M10.8833008,10.1530762 L11.8676758,10.1530762 C12.4301758,10.1530762 12.7543945,10.4226074 12.7543945,10.8718262 C12.7543945,11.3249512 12.4067383,11.5866699 11.7700195,11.5866699 L10.8833008,11.5866699 L10.8833008,10.1530762 Z M10.8833008,13.9851074 L10.8833008,12.3835449 L11.9067383,12.3835449 C12.6020508,12.3835449 12.980957,12.6569824 12.980957,13.1726074 C12.980957,13.6999512 12.6137695,13.9851074 11.934082,13.9851074 L10.8833008,13.9851074 Z M17.6450195,15.0319824 C19.0043945,15.0319824 19.996582,14.1921387 20.0942383,12.9733887 L18.9458008,12.9733887 C18.8325195,13.5944824 18.324707,13.9929199 17.6489258,13.9929199 C16.7583008,13.9929199 16.2075195,13.2546387 16.2075195,12.0671387 C16.2075195,10.8796387 16.7583008,10.1452637 17.6450195,10.1452637 C18.3168945,10.1452637 18.8286133,10.5710449 18.9418945,11.2194824 L20.090332,11.2194824 C20.0043945,9.99291992 18.980957,9.10620117 17.6450195,9.10620117 C16.0083008,9.10620117 15.0004883,10.2351074 15.0004883,12.0671387 C15.0004883,13.9030762 16.012207,15.0319824 17.6450195,15.0319824 Z" id="Combined-Shape" fill="#42526E" fill-rule="nonzero"></path>
    </g>
</svg>