<svg xmlns="http://www.w3.org/2000/svg" width="24" height="24" viewBox="0 0 24 24">
  <path fill="#42526E" fill-rule="evenodd" d="M17,14 L19,14 L19,9 L5,9 L5,14 L7,14 L7,13 C7,12.4477153 7.44771525,12 8,12 C8.55228475,12 9,12.4477153 9,13 L9,14 L15,14 L15,13 C15,12.4477153 15.4477153,12 16,12 C16.5522847,12 17,12.4477153 17,13 L17,14 Z M17,16 L17,17 C17,17.5522847 16.5522847,18 16,18 C15.4477153,18 15,17.5522847 15,17 L15,16 L9,16 L9,17 C9,17.5522847 8.55228475,18 8,18 C7.44771525,18 7,17.5522847 7,17 L7,16 L5,16 L5,19 L19,19 L19,16 L17,16 Z M9,7 L15,7 L15,6 L9,6 L9,7 Z M7,7 L7,5 C7,4.44771525 7.44771525,4 8,4 L16,4 C16.5522847,4 17,4.44771525 17,5 L17,7 L19,7 C20.1045695,7 21,7.8954305 21,9 L21,19 C21,20.1045695 20.1045695,21 19,21 L5,21 C3.8954305,21 3,20.1045695 3,19 L3,9 C3,7.8954305 3.8954305,7 5,7 L7,7 Z"/>
</svg>
