<?xml version="1.0" encoding="UTF-8"?>
<svg width="24px" height="24px" viewBox="0 0 24 24" version="1.1" xmlns="http://www.w3.org/2000/svg" xmlns:xlink="http://www.w3.org/1999/xlink">
    <!-- Generator: Sketch 48.1 (47250) - http://www.bohemiancoding.com/sketch -->
    <title>icon sym</title>
    <desc>Created with Sketch.</desc>
    <defs></defs>
    <g id="Symbols" stroke="none" stroke-width="1" fill="none" fill-rule="evenodd">
        <g id="icon-sym" fill="#42526E" fill-rule="nonzero">
            <path d="M3.50682184,15 L16.5,15 C16.4932689,15.0000017 16.4931782,5 16.4931782,5 L3.5,5 C3.50673113,4.99999829 3.50682184,15 3.50682184,15 Z M1.5,4.99406028 C1.5,3.8927712 2.26348052,3 3.19217587,3 L16.8078242,3 C17.7423871,3 18.5,3.89451376 18.5,4.99406028 L18.5,15.0059397 C18.5,16.1072288 17.7365195,17 16.8078242,17 L3.19217587,17 C2.25761294,17 1.5,16.1054862 1.5,15.0059397 L1.5,4.99406028 Z M6.5,5 L6.5,15 L8.5,15 L8.5,5 L6.5,5 Z M11.5,5 L11.5,15 L13.5,15 L13.5,5 L11.5,5 Z" id="Rectangle-8"></path>
            <path d="M20.5,5 L20.5059397,5 C21.6072288,5 22.5,5.89451376 22.5,6.99406028 L22.5,19.0059397 C22.5,20.1072288 21.6054862,21 20.5059397,21 L8.49406028,21 C7.3927712,21 6.5,20.1054862 6.5,19.0059397 L6.5,19 L19.4991283,19 C20.0553691,19 20.5,18.5518945 20.5,17.9991283 L20.5,5 Z" id="Combined-Shape"></path>
        </g>
    </g>
</svg>