<?xml version="1.0" encoding="UTF-8" standalone="no"?>
<svg width="24px" height="24px" viewBox="0 0 24 24" version="1.1" xmlns="http://www.w3.org/2000/svg" xmlns:xlink="http://www.w3.org/1999/xlink">
    <!-- Generator: Sketch 45.1 (43504) - http://www.bohemiancoding.com/sketch -->
    <title>icons/task</title>
    <desc>Created with Sketch.</desc>
    <defs></defs>
    <g id="Global" stroke="none" stroke-width="1" fill="none" fill-rule="evenodd">
        <g id="icons/task" fill="#42526E">
            <path d="M3,3.99339768 C3,3.44475929 3.44494629,3 3.99339768,3 L20.0066023,3 C20.5552407,3 21,3.44494629 21,3.99339768 L21,20.0066023 C21,20.5552407 20.5550537,21 20.0066023,21 L3.99339768,21 C3.44475929,21 3,20.5550537 3,20.0066023 L3,3.99339768 Z M5,5 L5,19 L19,19 L19,5 L5,5 Z" id="Combined-Shape"></path>
            <path d="M9.70710678,11.2928932 C9.31658249,10.9023689 8.68341751,10.9023689 8.29289322,11.2928932 C7.90236893,11.6834175 7.90236893,12.3165825 8.29289322,12.7071068 L10.2928932,14.7071068 C10.6834175,15.0976311 11.3165825,15.0976311 11.7071068,14.7071068 L15.7071068,10.7071068 C16.0976311,10.3165825 16.0976311,9.68341751 15.7071068,9.29289322 C15.3165825,8.90236893 14.6834175,8.90236893 14.2928932,9.29289322 L11,12.5857864 L9.70710678,11.2928932 Z" id="Path-3" fill-rule="nonzero"></path>
        </g>
    </g>
</svg>