<?xml version="1.0" encoding="UTF-8" standalone="no"?>
<svg width="24px" height="24px" viewBox="0 0 24 24" version="1.1" xmlns="http://www.w3.org/2000/svg" xmlns:xlink="http://www.w3.org/1999/xlink">
    <!-- Generator: Sketch 45.1 (43504) - http://www.bohemiancoding.com/sketch -->
    <title>icons/undo</title>
    <desc>Created with Sketch.</desc>
    <defs></defs>
    <g id="Global" stroke="none" stroke-width="1" fill="none" fill-rule="evenodd">
        <g id="icons/undo" fill="#42526E">
            <path d="M5.13797522,13.026 C4.85197522,13.506 5.02497522,14.117 5.52397522,14.392 C6.02297522,14.666 6.65897522,14.5 6.94497522,14.021 C8.05097522,12.167 10.1039752,11 12.3699752,11 C14.8069752,11 16.9889752,12.351 18.0179752,14.429 C18.2639752,14.927 18.8859752,15.139 19.4059752,14.902 C19.9249752,14.664 20.1459752,14.069 19.8989752,13.569 C18.5279752,10.802 15.6179752,9 12.3699752,9 C9.34997522,9 6.61097522,10.557 5.13797522,13.026 Z" id="Clip-5-Copy"></path>
            <path d="M4.5,10 L4.5,13.9 C4.5,14.507 4.994,15 5.602,15 L9.498,15 C10.052,15 10.5,14.552 10.5,14 C10.5,13.448 10.052,13 9.498,13 L6.503,13 L6.503,10 C6.503,9.448 6.055,9 5.502,9 C4.949,9 4.5,9.448 4.5,10 Z" id="Clip-2-Copy"></path>
        </g>
    </g>
</svg>