<?xml version="1.0" encoding="UTF-8" standalone="no"?>
<svg width="24px" height="24px" viewBox="0 0 24 24" version="1.1" xmlns="http://www.w3.org/2000/svg" xmlns:xlink="http://www.w3.org/1999/xlink">
    <!-- Generator: Sketch 45.1 (43504) - http://www.bohemiancoding.com/sketch -->
    <title>icons/unlink</title>
    <desc>Created with Sketch.</desc>
    <defs></defs>
    <g id="Global" stroke="none" stroke-width="1" fill="none" fill-rule="evenodd">
        <g id="icons/unlink" fill="#42526E">
            <path d="M13.7213863,14.4306419 C13.3440666,14.0529447 12.7323807,14.0500243 12.351171,14.4257747 L10.2632702,16.4846141 C9.89664767,16.85063 9.41041087,17.0531069 8.89208244,17.0531069 C8.30470839,17.0531069 7.75817823,16.7931967 7.36821632,16.3152344 C6.73416354,15.5384241 6.86253005,14.3819696 7.5714633,13.6723271 L8.89208244,12.3503867 L8.89402739,12.3513601 L9.58156622,11.6650803 C9.9618034,11.2854362 9.96277587,10.6682711 9.5825387,10.2876535 L9.57962128,10.2847331 C9.20035657,9.90508896 8.58478079,9.90508896 8.20454361,10.2847331 L6.13706475,12.3542805 C4.62097842,13.8728571 4.62097842,16.3337299 6.13706475,17.8523065 L6.14581701,17.8610675 C6.90434642,18.6203558 7.89821443,19 8.89208244,19 C9.88595046,19 10.8798185,18.6203558 11.6383479,17.8610675 L13.7213863,15.7759451 C14.0928712,15.4040885 14.0928712,14.8024985 13.7213863,14.4306419 Z" id="Fill-1"></path>
            <path d="M10.2786137,9.56935807 C10.6559334,9.94705532 11.2676193,9.94997566 11.648829,9.5742253 L13.7367298,7.51635931 C14.1033523,7.14936996 14.5895891,6.94689308 15.1079176,6.94689308 C15.6952916,6.94689308 16.2418218,7.20680331 16.6317837,7.68476556 C17.2658365,8.4615759 17.1374699,9.61803039 16.4285367,10.3276729 L15.1079176,11.6496133 L15.1059726,11.6486399 L14.4184338,12.3349197 C14.0381966,12.7145638 14.0372241,13.3317289 14.4174613,13.7123465 L14.4203787,13.7152669 C14.7996434,14.094911 15.4152192,14.094911 15.7954564,13.7152669 L17.8629352,11.6457195 C19.3790216,10.1271429 19.3790216,7.66627008 17.8629352,6.14769347 L17.854183,6.13893245 C17.0956536,5.37964415 16.1017856,5 15.1079176,5 C14.1140495,5 13.1201815,5.37964415 12.3616521,6.13893245 L10.2786137,8.22405495 C9.90712877,8.59591152 9.90712877,9.19750149 10.2786137,9.56935807 Z" id="Fill-3"></path>
            <path d="M8.92423169,4.61765083 L9.32523169,5.58565083 C9.53623169,6.09565083 9.29423169,6.68065083 8.78423169,6.89165083 L8.78423169,6.89165083 C8.27323169,7.10365083 7.68823169,6.86065083 7.47723169,6.35065083 L7.07623169,5.38265083 C6.86523169,4.87265083 7.10723169,4.28765083 7.61723169,4.07665083 L7.61723169,4.07665083 C8.12823169,3.86465083 8.71323169,4.10765083 8.92423169,4.61765083" id="Fill-10"></path>
            <path d="M5.38323169,7.07623169 L6.35123169,7.47723169 C6.86123169,7.68923169 7.10323169,8.27423169 6.89223169,8.78423169 L6.89223169,8.78423169 C6.68023169,9.29423169 6.09523169,9.53623169 5.58523169,9.32523169 L4.61723169,8.92423169 C4.10723169,8.71223169 3.86523169,8.12723169 4.07623169,7.61723169 L4.07623169,7.61723169 C4.28823169,7.10723169 4.87323169,6.86523169 5.38323169,7.07623169" id="Fill-12"></path>
            <path d="M15.315,17.4902 C14.806,17.7022 14.563,18.2872 14.773,18.7972 L15.175,19.7652 C15.386,20.2752 15.971,20.5182 16.482,20.3062 C16.991,20.0962 17.234,19.5112 17.023,18.9992 L16.622,18.0322 C16.463,17.6472 16.09,17.4142 15.697,17.4142 C15.57,17.4142 15.44,17.4392 15.315,17.4902 Z" id="Clip-5"></path>
            <path d="M17.491,15.3162 C17.279,15.8252 17.522,16.4102 18.031,16.6222 L19,17.0232 C19.509,17.2342 20.095,16.9922 20.307,16.4812 C20.518,15.9712 20.275,15.3872 19.766,15.1752 L18.797,14.7742 C18.672,14.7222 18.543,14.6972 18.415,14.6972 C18.023,14.6972 17.65,14.9302 17.491,15.3162 Z" id="Clip-2"></path>
        </g>
    </g>
</svg>