<?xml version="1.0" encoding="UTF-8" standalone="no"?>
<svg width="24px" height="24px" viewBox="0 0 24 24" version="1.1" xmlns="http://www.w3.org/2000/svg" xmlns:xlink="http://www.w3.org/1999/xlink">
    <!-- Generator: Sketch 45.1 (43504) - http://www.bohemiancoding.com/sketch -->
    <title>icons/upload</title>
    <desc>Created with Sketch.</desc>
    <defs></defs>
    <g id="Global" stroke="none" stroke-width="1" fill="none" fill-rule="evenodd">
        <g id="icons/upload" fill="#42526E">
            <path d="M11.208,9.32 L9.29,11.253 C8.903,11.642 8.903,12.273 9.29,12.662 C9.676,13.051 10.301,13.051 10.687,12.662 L11.977,11.361 L13.313,12.708 C13.699,13.097 14.324,13.098 14.71,12.709 C15.096,12.32 15.096,11.69 14.711,11.301 L12.746,9.321 C12.534,9.107 12.255,9 11.977,9 C11.699,9 11.421,9.107 11.208,9.32 Z" id="Clip-2"></path>
            <path d="M11,10.007 L11.001,19.993 C11.001,20.55 11.449,21.001 12.001,21 C12.554,21 13.001,20.55 13.001,19.993 L13,10.006 C13,9.451 12.552,9 12,9 C11.448,9 10.999,9.451 11,10.007 Z" id="Clip-5"></path>
            <path d="M7.938,5.481 C7.682,5.439 7.422,5.418 7.161,5.418 C4.356,5.419 2,7.62 2,10.499 C2,13.408 4.385,16 7.1,16 L9.981,16 L9.981,14.007 L7.1,14.007 C5.443,14.007 3.985,12.344 3.985,10.499 C3.985,8.721 5.454,7.412 7.089,7.412 L7.101,7.412 C7.49,7.412 7.787,7.463 8.071,7.562 L8.241,7.625 C8.846,7.873 9.116,7.379 9.116,7.379 L9.266,7.112 C9.996,5.765 11.467,5.016 12.982,4.993 C15.064,5.027 16.779,6.541 17.051,8.637 L17.097,8.977 C17.097,8.977 17.168,9.502 17.762,9.502 C17.775,9.502 17.774,9.507 17.785,9.507 L18.039,9.507 C19.175,9.507 20.015,10.466 20.015,11.665 C20.015,12.872 19.028,14.007 17.945,14.007 L13.981,14.007 L13.981,16 L17.945,16 C20.105,16 22,13.955 22,11.665 C22,9.666 20.688,8.002 18.862,7.591 C18.155,4.884 15.809,3.039 12.976,3 C11.001,3.021 9.075,3.901 7.938,5.481 Z" id="Clip-8"></path>
        </g>
    </g>
</svg>