<?xml version="1.0" encoding="UTF-8" standalone="no"?>
<svg width="24px" height="24px" viewBox="0 0 24 24" version="1.1" xmlns="http://www.w3.org/2000/svg" xmlns:xlink="http://www.w3.org/1999/xlink">
    <!-- Generator: Sketch 45.1 (43504) - http://www.bohemiancoding.com/sketch -->
    <title>icons/vid-speaking-circle</title>
    <desc>Created with Sketch.</desc>
    <defs></defs>
    <g id="Global" stroke="none" stroke-width="1" fill="none" fill-rule="evenodd">
        <g id="icons/vid-speaking-circle">
            <path d="M2,12 C2,17.5233333 6.47666667,22 12,22 C17.5233333,22 22,17.5233333 22,12 C22,6.47666667 17.5233333,2 12,2 C6.47666667,2 2,6.47666667 2,12 Z" id="Fill-3" fill="#42526E"></path>
            <path d="M12.2286004,7.65184655 C12.2682567,7.70015802 12.3527489,7.81264868 12.4672787,7.98240469 C12.6651749,8.27572625 12.8645263,8.61329919 13.0508413,8.98780903 C14.1891558,11.2759231 14.2937399,13.6360535 12.735268,15.8516214 C12.6188676,16.0170996 12.4932295,16.1813795 12.3581276,16.3444155 C11.9961337,16.7812565 12.0660373,17.4213873 12.5142616,17.7741878 C12.9624859,18.1269883 13.6192975,18.05886 13.9812914,17.6220191 C14.150503,17.4178207 14.3087415,17.2109137 14.4561194,17.001397 C16.500771,14.0946622 16.3629563,10.9846233 14.9282176,8.10066988 C14.5362019,7.31268325 14.1396956,6.72498175 13.8578133,6.38157743 C13.4978975,5.94310851 12.8414164,5.87201866 12.3915217,6.22279379 C11.941627,6.57356892 11.8686846,7.21337764 12.2286004,7.65184655 Z" id="Stroke-1" fill="#79F2C0" fill-rule="nonzero"></path>
            <path d="M9.21349786,9.61887034 C9.29296007,9.7202032 9.43869156,9.94942853 9.58988508,10.2772647 C10.197767,11.5953481 10.197767,12.9973525 9.18589361,14.4180545 C8.86600524,14.8671879 8.96906699,15.4918282 9.41608847,15.8132278 C9.86310994,16.1346274 10.4848132,16.0310788 10.8047016,15.5819455 C12.2810731,13.5090735 12.2810731,11.3555223 11.3960081,9.43641682 C11.1739648,8.95495573 10.9464596,8.59710607 10.7770973,8.38112966 C10.4369118,7.94731377 9.81111328,7.87271419 9.37933721,8.21450684 C8.94756114,8.55629949 8.87331233,9.18505444 9.21349786,9.61887034 Z" id="Stroke-3" fill="#79F2C0" fill-rule="nonzero"></path>
        </g>
    </g>
</svg>