<?xml version="1.0" encoding="UTF-8" standalone="no"?>
<svg width="24px" height="24px" viewBox="0 0 24 24" version="1.1" xmlns="http://www.w3.org/2000/svg" xmlns:xlink="http://www.w3.org/1999/xlink">
    <!-- Generator: Sketch 45.1 (43504) - http://www.bohemiancoding.com/sketch -->
    <title>icons/vid-raised-hand</title>
    <desc>Created with Sketch.</desc>
    <defs></defs>
    <g id="Global" stroke="none" stroke-width="1" fill="none" fill-rule="evenodd">
        <g id="icons/vid-raised-hand" fill="#42526E">
            <path d="M11,3 C8.790861,3 7,4.790861 7,7 C7,9.209139 8.790861,11 11,11 C13.209139,11 15,9.209139 15,7 C15,4.790861 13.209139,3 11,3" id="Fill-3"></path>
            <path d="M14,12 L8,12 C6.34314575,12 5,13.3431458 5,15 L5,18.7 C6.6264701,20.1506041 8.72087797,20.9670682 10.9,21 C13.1627359,20.9952621 15.3406617,20.1383733 17,18.6 L17,15 C17,13.3431458 15.6568542,12 14,12" id="Fill-5"></path>
            <path d="M16.6006702,10.5991063 C16.2689292,11.0414277 16.3550919,11.6663189 16.8,12 L16.8,12 C17.2418278,12.3313708 17.8728302,12.2362264 18.2018955,11.7974726 L20.1981045,9.1358607 C20.5305222,8.69263707 20.8,7.8859119 20.8,7.32828776 L20.8,5.00504557 C20.8,4.44997423 20.3561352,4 19.8,4 L19.8,4 C19.2477153,4 18.8,4.44960531 18.8,5.00193278 L18.8,7.66666667 L16.6006702,10.5991063 Z" id="Path-2" fill-rule="nonzero"></path>
        </g>
    </g>
</svg>