<?xml version="1.0" encoding="UTF-8"?>
<svg width="24px" height="24px" viewBox="0 0 24 24" version="1.1" xmlns="http://www.w3.org/2000/svg" xmlns:xlink="http://www.w3.org/1999/xlink">
    <!-- Generator: Sketch 50.2 (55047) - http://www.bohemiancoding.com/sketch -->
    <title>volume-full-new</title>
    <desc>Created with Sketch.</desc>
    <defs></defs>
    <g id="volume-full-new" stroke="none" stroke-width="1" fill="none" fill-rule="evenodd">
        <path d="M8.12118967,8.02449395 L13.1942762,4.1043816 C13.4127836,3.93553503 13.7267959,3.97579303 13.8956425,4.19430035 C13.9632977,4.28185415 14,4.38937648 14,4.5000241 L14,19.4635297 C14,19.739672 13.7761424,19.9635297 13.5,19.9635297 C13.3893524,19.9635297 13.28183,19.9268274 13.1942762,19.8591722 L8.2317515,16.024494 L6.67760106,16.024494 C6.6655403,16.024494 6.65352946,16.0242775 6.64157212,16.0238482 C6.62941104,16.0242775 6.61719019,16.024494 6.60491305,16.024494 L3.99897518,16.024494 C3.44725642,16.024494 3,15.5714576 3,15.0274638 L3,9.02152409 C3,8.47087955 3.44144016,8.02449395 3.99897518,8.02449395 L6.60491305,8.02449395 C6.61697381,8.02449395 6.62898465,8.02471045 6.64094199,8.02513965 C6.65310307,8.0247104 6.66532392,8.02449395 6.67760106,8.02449395 L8.12118967,8.02449395 Z M16.5755568,7.30859536 C16.203892,7.1071776 16.0542165,6.61942594 16.2412473,6.21917155 C16.4282781,5.81891715 16.8811903,5.65772821 17.2528551,5.85914597 C19.7202923,7.19633388 21,9.26868124 21,11.9803794 C21,14.6893996 19.7232648,16.7751936 17.2599295,18.1453899 C16.8902567,18.3510153 16.435792,18.1949764 16.2448542,17.7968673 C16.0539163,17.3987581 16.1988096,16.9093346 16.5684823,16.7037092 C18.5483878,15.602414 19.4932729,14.0587613 19.4932729,11.9803794 C19.4932729,9.9046754 18.5513603,8.3793503 16.5755568,7.30859536 Z M15.5467867,10.5538536 C15.1751219,10.3524359 15.0254465,9.86468422 15.2124773,9.46442983 C15.399508,9.06417543 15.8524203,8.90298648 16.2240851,9.10440424 C17.3566523,9.71818082 17.968925,10.7096898 17.968925,11.9831225 C17.968925,13.2538773 17.3596248,14.2492871 16.2311595,14.8769804 C15.8614867,15.0826058 15.407022,14.9265668 15.2160841,14.5284577 C15.0251463,14.1303485 15.1700395,13.640925 15.5397123,13.4352996 C16.1847478,13.0765075 16.4621979,12.623239 16.4621979,11.9831225 C16.4621979,11.345684 16.1877202,10.9011972 15.5467867,10.5538536 Z" id="Combined-Shape" fill="#42526E"></path>
    </g>
</svg>