<?xml version="1.0" encoding="UTF-8"?>
<svg width="24px" height="24px" viewBox="0 0 24 24" version="1.1" xmlns="http://www.w3.org/2000/svg" xmlns:xlink="http://www.w3.org/1999/xlink">
    <!-- Generator: Sketch 50.2 (55047) - http://www.bohemiancoding.com/sketch -->
    <title>audio-muted-updated</title>
    <desc>Created with Sketch.</desc>
    <defs></defs>
    <g id="audio-muted-updated" stroke="none" stroke-width="1" fill="none" fill-rule="evenodd">
        <path d="M13.2931282,14.7073418 C12.901303,14.8949366 12.4626686,15 12,15 C10.3431458,15 9,13.6583772 9,12.002848 L9,10.4142136 L8,9.41421356 L8,12.0062606 C8,14.2046639 9.79487533,16 12,16 C12.7410588,16 13.4357088,15.7977822 14.0314746,15.4456881 L13.2931282,14.7073418 Z M15.4759912,16.8902047 C14.7527616,17.4050782 13.9108116,17.7637329 13,17.9168469 L13,19.9906311 C13,20.5480902 12.5561352,21 12,21 C11.4477153,21 11,20.5566468 11,19.9906311 L11,17.9168068 C8.16228666,17.4394632 6,14.9660226 6,12.0062606 L6,9 C6,8.5711909 6.26990055,8.20542045 6.64908837,8.06330193 L3.70529824,5.1195118 C3.31577278,4.72998634 3.31385983,4.10035374 3.70710678,3.70710678 C4.09763107,3.31658249 4.72745225,3.31323869 5.1195118,3.70529824 L20.1231289,18.7089153 C20.5126543,19.0984408 20.5145673,19.7280734 20.1213203,20.1213203 C19.7307961,20.5118446 19.1009749,20.5151884 18.7089153,20.1231289 L15.4759912,16.8902047 Z M9.18566148,4.95783796 C9.60943657,3.8148318 10.711518,3 12,3 C13.6568542,3 15,4.34162278 15,5.99715203 L15,10.7721765 L9.18566148,4.95783796 Z M17.7942616,13.5664381 L16,11.7721765 L16,9 C16,8.44771525 16.4477153,8 17,8 C17.5522847,8 18,8.44771525 18,9 L18,12.0062606 C18,12.5459506 17.9284172,13.0689808 17.7942616,13.5664381 Z" id="Combined-Shape" fill="#42526E" fill-rule="nonzero"></path>
    </g>
</svg>