<?xml version="1.0" encoding="UTF-8" standalone="no"?>
<svg width="24px" height="24px" viewBox="0 0 24 24" version="1.1" xmlns="http://www.w3.org/2000/svg" xmlns:xlink="http://www.w3.org/1999/xlink">
    <!-- Generator: Sketch 45.1 (43504) - http://www.bohemiancoding.com/sketch -->
    <title>icons/vid-hd-circle</title>
    <desc>Created with Sketch.</desc>
    <defs></defs>
    <g id="Global" stroke="none" stroke-width="1" fill="none" fill-rule="evenodd">
        <g id="icons/vid-hd-circle">
            <circle id="Combined-Shape" fill="#42526E" cx="12" cy="12" r="10"></circle>
            <path d="M11.3588255,15 L11.3588255,9.00415512 L9.85933766,9.00415512 L9.85933766,11.3559557 L7.50358484,11.3559557 L7.50358484,9.00415512 L6,9.00415512 L6,15 L7.50358484,15 L7.50358484,12.5817175 L9.85933766,12.5817175 L9.85933766,15 L11.3588255,15 Z M12.7517924,9 L12.7517924,15 L15.234551,15 C17.0126323,15 18,13.9113573 18,11.9418283 C18,10.067867 16.9962445,9 15.234551,9 L12.7517924,9 Z M14.2553773,10.2257618 L14.9641516,10.2257618 C15.9105497,10.2257618 16.4677364,10.8531856 16.4677364,11.9709141 C16.4677364,13.1592798 15.9392284,13.7742382 14.9641516,13.7742382 L14.2553773,13.7742382 L14.2553773,10.2257618 Z" id="HD" fill="#79F2C0"></path>
        </g>
    </g>
</svg>