<?xml version="1.0" encoding="UTF-8" standalone="no"?>
<svg width="24px" height="24px" viewBox="0 0 24 24" version="1.1" xmlns="http://www.w3.org/2000/svg" xmlns:xlink="http://www.w3.org/1999/xlink">
    <!-- Generator: Sketch 45.1 (43504) - http://www.bohemiancoding.com/sketch -->
    <title>icons/vid-full-screen-off</title>
    <desc>Created with Sketch.</desc>
    <defs></defs>
    <g id="Global" stroke="none" stroke-width="1" fill="none" fill-rule="evenodd">
        <g id="icons/vid-full-screen-off" fill="#42526E">
            <path d="M9,15.0033389 L9,17.9983306 C9,18.5515373 9.44771525,19 10,19 C10.5522847,19 11,18.5515373 11,17.9983306 L11,14.1018364 C11,13.4935378 10.5072847,13 9.9,13 L6,13 C5.44771525,13 5,13.4484627 5,14.0016694 C5,14.5548762 5.44771525,15.0033389 6,15.0033389 L9,15.0033389 Z" id="Stroke-1" fill-rule="nonzero"></path>
            <path d="M3.73953885,20.2943305 C4.12926937,20.684061 4.76135961,20.6838488 5.14668591,20.2985225 L10.2985225,15.1466859 C10.6859378,14.7592706 10.6792614,14.1244698 10.2943305,13.7395388 L10.2604612,13.7056695 C9.87073063,13.315939 9.23864039,13.3161512 8.85331409,13.7014775 L3.70147752,18.8533141 C3.31406219,19.2407294 3.32073858,19.8755302 3.70566953,20.2604612 L3.73953885,20.2943305 Z" id="Line" fill-rule="nonzero"></path>
            <path d="M19.0668824,3.32115966 L13.3211304,9.06634908 C12.8883306,9.4990225 12.8961388,10.2071349 13.3255923,10.636463 L13.3624025,10.6732625 C13.7974333,11.1081662 14.5035216,11.1081662 14.932975,10.677723 L20.6798425,4.93364877 C21.1115268,4.50097534 21.1037186,3.7928629 20.6742652,3.36353489 L20.6374549,3.32673535 C20.4188241,3.10928349 20.1332654,3 19.8477068,3 C19.5643791,3 19.2810514,3.10816836 19.0668824,3.32115966 Z" id="Clip-5"></path>
            <path d="M13,6.002 L13,9.898 C13,10.506 13.493,11 14.1,11 L18,11 C18.553,11 19,10.551 19,9.998 C19,9.445 18.553,8.997 18,8.997 L15,8.997 L15,6.002 C15,5.448 14.552,5 14,5 C13.448,5 13,5.448 13,6.002 Z" id="Clip-2"></path>
        </g>
    </g>
</svg>