<?xml version="1.0" encoding="UTF-8" standalone="no"?>
<svg width="24px" height="24px" viewBox="0 0 24 24" version="1.1" xmlns="http://www.w3.org/2000/svg" xmlns:xlink="http://www.w3.org/1999/xlink">
    <!-- Generator: Sketch 45.1 (43504) - http://www.bohemiancoding.com/sketch -->
    <title>icons/warning</title>
    <desc>Created with Sketch.</desc>
    <defs></defs>
    <g id="Global" stroke="none" stroke-width="1" fill="none" fill-rule="evenodd">
        <g id="icons/warning">
            <path d="M12.9376881,4.96728867 C12.4198173,3.98908818 11.5779827,3.99324377 11.0623119,4.96728867 L3.93768812,18.4249113 C3.41981727,19.4031118 3.8926228,20.1961 4.99508929,20.1961 L19.0049107,20.1961 C20.1067681,20.1961 20.5779827,19.3989562 20.0623119,18.4249113 L12.9376881,4.96728867 Z" id="Combined-Shape" fill="#42526E"></path>
            <path d="M12,15 L12,15 C11.448,15 11,14.552 11,14 L11,9 C11,8.448 11.448,8 12,8 L12,8 C12.552,8 13,8.448 13,9 L13,14 C13,14.552 12.552,15 12,15" id="Fill-1" fill="#79F2C0"></path>
            <path d="M12,18 L12,18 C11.448,18 11,17.552 11,17 L11,17 C11,16.448 11.448,16 12,16 L12,16 C12.552,16 13,16.448 13,17 L13,17 C13,17.552 12.552,18 12,18" id="Fill-3" fill="#79F2C0"></path>
        </g>
    </g>
</svg>