<?xml version="1.0" encoding="UTF-8" standalone="no"?>
<svg width="24px" height="24px" viewBox="0 0 24 24" version="1.1" xmlns="http://www.w3.org/2000/svg" xmlns:xlink="http://www.w3.org/1999/xlink">
    <!-- Generator: Sketch 45.1 (43504) - http://www.bohemiancoding.com/sketch -->
    <title>icons/watch</title>
    <desc>Created with Sketch.</desc>
    <defs></defs>
    <g id="Global" stroke="none" stroke-width="1" fill="none" fill-rule="evenodd">
        <g id="icons/watch" fill="#42526E">
            <path d="M12.0006003,18 C7.46365131,18 4.00140085,13.74 4.00140085,12 C4.00140085,9.999 7.45964871,6 12.0006003,6 C16.3774453,6 19.9987992,9.973 19.9987992,12 C19.9987992,13.74 16.5365487,18 12.0006003,18 M12.0006003,4 C6.48001194,4 2.0001,8.841 2.0001,12 C2.0001,15.086 6.57707503,20 12.0006003,20 C17.4241256,20 22.0001,15.086 22.0001,12 C22.0001,8.841 17.5211887,4 12.0006003,4" id="Fill-1"></path>
            <path d="M11.9775,13.9844 C10.8745,13.9844 9.9775,13.0874 9.9775,11.9844 C9.9775,10.8814 10.8745,9.9844 11.9775,9.9844 C13.0805,9.9844 13.9775,10.8814 13.9775,11.9844 C13.9775,13.0874 13.0805,13.9844 11.9775,13.9844 M11.9775,7.9844 C9.7715,7.9844 7.9775,9.7784 7.9775,11.9844 C7.9775,14.1904 9.7715,15.9844 11.9775,15.9844 C14.1835,15.9844 15.9775,14.1904 15.9775,11.9844 C15.9775,9.7784 14.1835,7.9844 11.9775,7.9844" id="Fill-4"></path>
        </g>
    </g>
</svg>