<?xml version="1.0" encoding="UTF-8" standalone="no"?>
<svg width="24px" height="24px" viewBox="0 0 24 24" version="1.1" xmlns="http://www.w3.org/2000/svg" xmlns:xlink="http://www.w3.org/1999/xlink">
    <!-- Generator: Sketch 45.1 (43504) - http://www.bohemiancoding.com/sketch -->
    <title>icons/world-small</title>
    <desc>Created with Sketch.</desc>
    <defs></defs>
    <g id="Global" stroke="none" stroke-width="1" fill="none" fill-rule="evenodd">
        <g id="icons/world-small" fill="#42526E">
            <path d="M12,18 C15.3137085,18 18,15.3137085 18,12 C18,8.6862915 15.3137085,6 12,6 C8.6862915,6 6,8.6862915 6,12 C6,15.3137085 8.6862915,18 12,18 Z M11.5,15.965 C9.525,15.72 8,14.04 8,12 C8,11.69 8.04,11.395 8.105,11.105 L10.5,13.5 L10.5,14 C10.5,14.55 10.95,15 11.5,15 L11.5,15.965 L11.5,15.965 Z M14.95,14.695 C14.82,14.29 14.45,14 14,14 L13.5,14 L13.5,12.5 C13.5,12.225 13.275,12 13,12 L10,12 L10,11 L11,11 C11.275,11 11.5,10.775 11.5,10.5 L11.5,9.5 L12.5,9.5 C13.05,9.5 13.5,9.05 13.5,8.5 L13.5,8.295 C14.965,8.89 16,10.325 16,12 C16,13.04 15.6,13.985 14.95,14.695 L14.95,14.695 Z" id="Shape"></path>
        </g>
    </g>
</svg>