<svg xmlns="http://www.w3.org/2000/svg" width="24" height="24" viewBox="0 0 24 24">
  <path fill="#FFAB00" fill-rule="evenodd" d="M11.0076205,8.12406416 C9.27852796,8.56545096 8,10.1334174 8,12 C8,13.8665826 9.27852796,15.434549 11.0076205,15.8759358 C11.0025905,15.9165848 11,15.9579899 11,16 L11,20 C11,20.5522847 11.4477153,21 12,21 C12.5522847,21 13,20.5522847 13,20 L13,16 C13,15.9579899 12.9974095,15.9165848 12.9923795,15.8759358 C14.721472,15.434549 16,13.8665826 16,12 C16,10.1334174 14.721472,8.56545096 12.9923795,8.12406416 C12.9974095,8.08341517 13,8.0420101 13,8 L13,4 C13,3.44771525 12.5522847,3 12,3 C11.4477153,3 11,3.44771525 11,4 L11,8 C11,8.0420101 11.0025905,8.08341517 11.0076205,8.12406416 Z M3,0 L21,0 C22.6568542,-3.04359188e-16 24,1.34314575 24,3 L24,21 C24,22.6568542 22.6568542,24 21,24 L3,24 C1.34314575,24 2.02906125e-16,22.6568542 0,21 L0,3 C-2.02906125e-16,1.34314575 1.34314575,3.04359188e-16 3,0 Z M12,14 C10.8954305,14 10,13.1045695 10,12 C10,10.8954305 10.8954305,10 12,10 C13.1045695,10 14,10.8954305 14,12 C14,13.1045695 13.1045695,14 12,14 Z"/>
</svg>
