<svg xmlns="http://www.w3.org/2000/svg" width="16" height="16" viewBox="0 0 16 16">
  <path fill="#36B37E" fill-rule="evenodd" d="M9,5.41343351 L11.2936733,7.70710678 C11.6841976,8.09763107 12.3173625,8.09763107 12.7078868,7.70710678 C13.0984111,7.31658249 13.0984111,6.68341751 12.7078868,6.29289322 L8.70788683,2.29289322 C8.31736254,1.90236893 7.68419756,1.90236893 7.29367327,2.29289322 L3.29367327,6.29289322 C2.90314898,6.68341751 2.90314898,7.31658249 3.29367327,7.70710678 C3.68419756,8.09763107 4.31736254,8.09763107 4.70788683,7.70710678 L7,5.41499362 L7,13 C7,13.5522847 7.44771525,14 8,14 C8.55228475,14 9,13.5522847 9,13 L9,5.41343351 Z M2,0 L14,0 C15.1045695,-2.02906125e-16 16,0.8954305 16,2 L16,14 C16,15.1045695 15.1045695,16 14,16 L2,16 C0.8954305,16 1.3527075e-16,15.1045695 0,14 L0,2 C-1.3527075e-16,0.8954305 0.8954305,2.02906125e-16 2,0 Z"/>
</svg>
