<svg xmlns="http://www.w3.org/2000/svg" width="24" height="24" viewBox="0 0 24 24">
  <path fill="#36B37E" fill-rule="evenodd" d="M13,7.42194829 L16.2836227,10.7069575 C16.6740646,11.0975642 17.3072295,11.0976979 17.6978362,10.707256 C18.0884429,10.3168142 18.0885766,9.68364921 17.6981347,9.29304249 L12.7002451,4.29304249 C12.3096867,3.90231917 11.6762915,3.90231917 11.2857331,4.29304249 L6.28784344,9.29304249 C5.89740159,9.68364921 5.89753524,10.3168142 6.28814196,10.707256 C6.67874867,11.0976979 7.31191364,11.0975642 7.70235549,10.7069575 L11,7.40792056 L11,19 C11,19.5522847 11.4477153,20 12,20 C12.5522847,20 13,19.5522847 13,19 L13,7.42194829 Z M3,0 L21,0 C22.6568542,-3.04359188e-16 24,1.34314575 24,3 L24,21 C24,22.6568542 22.6568542,24 21,24 L3,24 C1.34314575,24 2.02906125e-16,22.6568542 0,21 L0,3 C-2.02906125e-16,1.34314575 1.34314575,3.04359188e-16 3,0 Z"/>
</svg>
