<svg width="48" height="64" viewBox="0 0 48 64"><g fill-rule="evenodd"><path fill="#fff" stroke="#091e42" stroke-opacity=".08" d="M4 .5h28.007a3.5 3.5 0 0 1 2.52 1.072l11.994 12.45a3.5 3.5 0 0 1 .979 2.429V60a3.5 3.5 0 0 1-3.5 3.5H4A3.5 3.5 0 0 1 .5 60V4A3.5 3.5 0 0 1 4 .5Z"/><path fill="#8270db" d="M17 34.333c.644 0 1.167.523 1.167 1.167V39a1.167 1.167 0 0 1-2.334 0v-3.5c0-.644.523-1.167 1.167-1.167m9.333-7c.645 0 1.167.523 1.167 1.167V39a1.167 1.167 0 0 1-2.333 0V28.5c0-.644.522-1.167 1.166-1.167M21.667 32c.644 0 1.166.522 1.166 1.167V39a1.167 1.167 0 1 1-2.333 0v-5.833c0-.645.522-1.167 1.167-1.167M31 23.833c.644 0 1.167.523 1.167 1.167v14a1.167 1.167 0 0 1-2.334 0V25c0-.644.523-1.167 1.167-1.167"/></g></svg>