<svg xmlns="http://www.w3.org/2000/svg" width="16" height="16" viewBox="0 0 16 16">
  <path fill="#FF5630" fill-rule="evenodd" d="M2,0 L14,0 C15.1045695,-2.02906125e-16 16,0.8954305 16,2 L16,14 C16,15.1045695 15.1045695,16 14,16 L2,16 C0.8954305,16 1.3527075e-16,15.1045695 0,14 L0,2 C-1.3527075e-16,0.8954305 0.8954305,2.02906125e-16 2,0 Z M13.37,10.9536722 C13.6554286,11.0919557 14,10.9039523 14,10.6110711 L14,5.38892889 C14,5.09604766 13.6554286,4.90804433 13.37,5.04632777 L11,6.19376961 L11,9.80700726 L13.37,10.9536722 Z M2,5.99077797 L2,10.009222 C2,10.5490248 2.44902676,11 3.00292933,11 L7.99707067,11 C8.56211865,11 9,10.5564136 9,10.009222 L9,5.99077797 C9,5.45097518 8.55097324,5 7.99707067,5 L3.00292933,5 C2.43788135,5 2,5.44358641 2,5.99077797 Z"/>
</svg>
