<svg xmlns="http://www.w3.org/2000/svg" width="24" height="24" viewBox="0 0 24 24">
  <path fill="#FF5630" fill-rule="evenodd" d="M3,0 L21,0 C22.6568542,-3.04359188e-16 24,1.34314575 24,3 L24,21 C24,22.6568542 22.6568542,24 21,24 L3,24 C1.34314575,24 2.02906125e-16,22.6568542 0,21 L0,3 C-2.02906125e-16,1.34314575 1.34314575,3.04359188e-16 3,0 Z M4,7.99539757 L4,16.0046024 C4,16.5443356 4.44565467,17 4.99539757,17 L13.0046024,17 C13.5443356,17 14,16.5543453 14,16.0046024 L14,7.99539757 C14,7.4556644 13.5543453,7 13.0046024,7 L4.99539757,7 C4.4556644,7 4,7.44565467 4,7.99539757 Z M19.16,15.9382296 C19.5405714,16.1226076 20,15.8719365 20,15.4814281 L20,8.51857185 C20,8.12806355 19.5405714,7.87739244 19.16,8.06177036 L16,9.59169282 L16,14.409343 L19.16,15.9382296 Z"/>
</svg>
