<svg xmlns="http://www.w3.org/2000/svg" width="48" height="64" viewBox="0 0 48 64">
  <g fill="none" fill-rule="evenodd">
    <path fill="#FFF" stroke="#091E42" stroke-opacity=".08" d="M4,0.5 L32.007097,0.5 C32.9580806,0.5 33.8681235,0.886970896 34.5278649,1.57188773 L46.5207679,14.0224343 C47.1490066,14.6746463 47.5,15.5449725 47.5,16.4505466 L47.5,60 C47.5,61.9329966 45.9329966,63.5 44,63.5 L4,63.5 C2.06700338,63.5 0.5,61.9329966 0.5,60 L0.5,4 C0.5,2.06700338 2.06700338,0.5 4,0.5 Z"/>
    <path fill="#FF5630" d="M14.6666667,27.1613601 C14.6666667,26.6120061 15.1097676,26.1666667 15.6613601,26.1666667 L25.3386399,26.1666667 C25.8879939,26.1666667 26.3333333,26.6097676 26.3333333,27.1613601 L26.3333333,36.8386399 C26.3333333,37.3879939 25.8902324,37.8333333 25.3386399,37.8333333 L15.6613601,37.8333333 C15.1120061,37.8333333 14.6666667,37.3902324 14.6666667,36.8386399 L14.6666667,27.1613601 Z M32.3533333,36.5946012 L28.6666667,34.8109002 L28.6666667,29.1903083 L32.3533333,27.4053988 C32.7973333,27.1902912 33.3333333,27.4827408 33.3333333,27.9383338 L33.3333333,36.0616662 C33.3333333,36.5172592 32.7973333,36.8097088 32.3533333,36.5946012 Z"/>
  </g>
</svg>
