<svg xmlns="http://www.w3.org/2000/svg" width="16" height="16" viewBox="0 0 16 16">
  <path fill="#FF5630" fill-rule="evenodd" d="M6,5 L4,5 C3.44771525,5 3,5.44771525 3,6 L3,12 C3,12.5522847 3.44771525,13 4,13 L12,13 C12.5522847,13 13,12.5522847 13,12 L13,6 C13,5.44771525 12.5522847,5 12,5 L10,5 L6,5 Z M2,0 L14,0 C15.1045695,-2.02906125e-16 16,0.8954305 16,2 L16,14 C16,15.1045695 15.1045695,16 14,16 L2,16 C0.8954305,16 1.3527075e-16,15.1045695 0,14 L0,2 C-1.3527075e-16,0.8954305 0.8954305,2.02906125e-16 2,0 Z M10,4 L10,5 L12,5 L12,4 C12,3.448 11.552,3 11,3 C10.448,3 10,3.448 10,4 Z M4,4 L4,5 L6,5 L6,4 C6,3.448 5.552,3 5,3 C4.448,3 4,3.448 4,4 Z M5,8 L11,8 L11,11 L5,11 L5,8 Z"/>
</svg>
