<svg xmlns="http://www.w3.org/2000/svg" width="24" height="24" viewBox="0 0 24 24">
  <path fill="#FF5630" fill-rule="evenodd" d="M16,6 L8,6 L8,5 C8,4.44771525 7.55228475,4 7,4 C6.44771525,4 6,4.44771525 6,5 L6,6 C4.8954305,6 4,6.8954305 4,8 L4,18 C4,19.1045695 4.8954305,20 6,20 L18,20 C19.1045695,20 20,19.1045695 20,18 L20,8 C20,6.8954305 19.1045695,6 18,6 L18,5 C18,4.44771525 17.5522847,4 17,4 C16.4477153,4 16,4.44771525 16,5 L16,6 Z M3,0 L21,0 C22.6568542,-3.04359188e-16 24,1.34314575 24,3 L24,21 C24,22.6568542 22.6568542,24 21,24 L3,24 C1.34314575,24 2.02906125e-16,22.6568542 0,21 L0,3 C-2.02906125e-16,1.34314575 1.34314575,3.04359188e-16 3,0 Z M6,10 L6,18 L18,18 L18,10 L6,10 Z"/>
</svg>
