<svg width="16" height="16" viewBox="0 0 16 16" fill="none" xmlns="http://www.w3.org/2000/svg">
<path fill-rule="evenodd" clip-rule="evenodd" d="M8 2.5C7.58579 2.5 7.25 2.83579 7.25 3.25C7.25 3.66421 7.58579 4 8 4C8.41421 4 8.75 3.66421 8.75 3.25C8.75 2.83579 8.41421 2.5 8 2.5ZM5.75 3.25C5.75 2.00736 6.75736 1 8 1C9.24264 1 10.25 2.00736 10.25 3.25C10.25 4.49264 9.24264 5.5 8 5.5C6.75736 5.5 5.75 4.49264 5.75 3.25Z" fill="#292A2E"/>
<path fill-rule="evenodd" clip-rule="evenodd" d="M6.76768 8H2V6.5H14V8H9.23232L12.4162 14.1554L11.0838 14.8446L8 8.88248L4.91616 14.8446L3.58384 14.1554L6.76768 8Z" fill="#292A2E"/>
</svg>
