<svg width="16" height="16" viewBox="0 0 16 16" fill="none" xmlns="http://www.w3.org/2000/svg">
<path d="M14.5 3.125C14.5 2.50368 13.9963 2 13.375 2H2.625C2.00368 2 1.5 2.50368 1.5 3.125V13.957L4.05078 12.5H13.375C13.9963 12.5 14.5 11.9963 14.5 11.375V3.125ZM16 11.375C16 12.8247 14.8247 14 13.375 14H4.44922L1.12207 15.9014C0.890044 16.0339 0.605181 16.0325 0.374023 15.8984C0.142787 15.7642 0 15.5174 0 15.25V3.125C1.9328e-07 1.67525 1.17525 0.5 2.625 0.5H13.375C14.8247 0.5 16 1.67525 16 3.125V11.375Z" fill="#292A2E"/>
<path d="M5 6.25C5.55228 6.25 6 6.69772 6 7.25C6 7.80228 5.55228 8.25 5 8.25C4.44772 8.25 4 7.80228 4 7.25C4 6.69772 4.44772 6.25 5 6.25Z" fill="#292A2E"/>
<path d="M8 6.25C8.55228 6.25 9 6.69772 9 7.25C9 7.80228 8.55228 8.25 8 8.25C7.44772 8.25 7 7.80228 7 7.25C7 6.69772 7.44772 6.25 8 6.25Z" fill="#292A2E"/>
<path d="M11 6.25C11.5523 6.25 12 6.69772 12 7.25C12 7.80228 11.5523 8.25 11 8.25C10.4477 8.25 10 7.80228 10 7.25C10 6.69772 10.4477 6.25 11 6.25Z" fill="#292A2E"/>
</svg>
