<svg width="16" height="16" viewBox="0 0 16 16" fill="none" xmlns="http://www.w3.org/2000/svg">
<path d="M4.25 13.25V12.5H4.05083L3.8779 12.5988L4.25 13.25ZM0.75 15.25H0C0 15.5174 0.142319 15.7645 0.373555 15.8987C0.604791 16.0329 0.889977 16.0338 1.1221 15.9012L0.75 15.25ZM2.625 2H13.375V0.5H2.625V2ZM14.5 3.125V11.375H16V3.125H14.5ZM13.375 12.5H4.25V14H13.375V12.5ZM3.8779 12.5988L0.377896 14.5988L1.1221 15.9012L4.6221 13.9012L3.8779 12.5988ZM1.5 15.25V3.125H0V15.25H1.5ZM14.5 11.375C14.5 11.9963 13.9963 12.5 13.375 12.5V14C14.8247 14 16 12.8247 16 11.375H14.5ZM13.375 2C13.9963 2 14.5 2.50368 14.5 3.125H16C16 1.67525 14.8247 0.5 13.375 0.5V2ZM2.625 0.5C1.17525 0.5 0 1.67525 0 3.125H1.5C1.5 2.50368 2.00368 2 2.625 2V0.5Z" fill="#44546F"/>
<path d="M6 7.25C6 7.80228 5.55228 8.25 5 8.25C4.44772 8.25 4 7.80228 4 7.25C4 6.69772 4.44772 6.25 5 6.25C5.55228 6.25 6 6.69772 6 7.25Z" fill="#44546F"/>
<path d="M9 7.25C9 7.80228 8.55228 8.25 8 8.25C7.44772 8.25 7 7.80228 7 7.25C7 6.69772 7.44772 6.25 8 6.25C8.55228 6.25 9 6.69772 9 7.25Z" fill="#44546F"/>
<path d="M12 7.25C12 7.80228 11.5523 8.25 11 8.25C10.4477 8.25 10 7.80228 10 7.25C10 6.69772 10.4477 6.25 11 6.25C11.5523 6.25 12 6.69772 12 7.25Z" fill="#44546F"/>
</svg>
