<svg width="16" height="16" viewBox="0 0 16 16" fill="none" xmlns="http://www.w3.org/2000/svg">
<path d="M6 12.25V11.5H5.77851L5.59256 11.6203L6 12.25ZM1.75 15H1C1 15.2748 1.15024 15.5275 1.39159 15.6588C1.63294 15.7901 1.92676 15.7789 2.15744 15.6297L1.75 15ZM3 2.5H13V1H3V2.5ZM13.5 3V11H15V3H13.5ZM13 11.5H6V13H13V11.5ZM5.59256 11.6203L1.34256 14.3703L2.15744 15.6297L6.40744 12.8797L5.59256 11.6203ZM2.5 15V3H1V15H2.5ZM13.5 11C13.5 11.2761 13.2761 11.5 13 11.5V13C14.1046 13 15 12.1046 15 11H13.5ZM13 2.5C13.2761 2.5 13.5 2.72386 13.5 3H15C15 1.89543 14.1046 1 13 1V2.5ZM3 1C1.89543 1 1 1.89543 1 3H2.5C2.5 2.72386 2.72386 2.5 3 2.5V1Z" fill="#44546F"/>
<path d="M6 7C6 7.55228 5.55228 8 5 8C4.44772 8 4 7.55228 4 7C4 6.44772 4.44772 6 5 6C5.55228 6 6 6.44772 6 7Z" fill="#44546F"/>
<path d="M9 7C9 7.55228 8.55228 8 8 8C7.44772 8 7 7.55228 7 7C7 6.44772 7.44772 6 8 6C8.55228 6 9 6.44772 9 7Z" fill="#44546F"/>
<path d="M12 7C12 7.55228 11.5523 8 11 8C10.4477 8 10 7.55228 10 7C10 6.44772 10.4477 6 11 6C11.5523 6 12 6.44772 12 7Z" fill="#44546F"/>
</svg>
