<svg width="16" height="16" viewBox="0 0 16 16" fill="none" xmlns="http://www.w3.org/2000/svg">
<path fill-rule="evenodd" clip-rule="evenodd" d="M1 1H15V2.5H1V1ZM1 5.1663H15V6.6663H1V5.1663ZM11.7958 9.49428C11.9038 9.19825 12.1853 9.00129 12.5004 9.00129C12.8155 9.00129 13.0975 9.19825 13.2055 9.49428L13.8206 11.1807L15.507 11.7958C15.803 11.9038 16 12.1853 16 12.5004C16 12.8155 15.803 13.0975 15.507 13.2055L13.8206 13.8206L13.2055 15.507C13.0975 15.803 12.816 16 12.5009 16C12.1858 16 11.9038 15.803 11.7958 15.507L11.1807 13.8206L9.49428 13.2055C9.19825 13.0975 9.00129 12.816 9.00129 12.5009C9.00129 12.1858 9.19825 11.9038 9.49428 11.7958L11.1807 11.1807L11.7958 9.49428ZM1 9.3326H8V10.8326H1V9.3326ZM1 13.4989H6V14.9989H1V13.4989Z" fill="#292A2E"/>
</svg>
