<svg width="16" height="16" viewBox="0 0 16 16" fill="none" xmlns="http://www.w3.org/2000/svg">
<path d="M14.5 11.5V13H16V14.5H14.5V16H13V14.5H11.5V13H13V11.5H14.5ZM8 1C8.30931 1 8.58711 1.19024 8.69922 1.47852L10.3291 5.66992L14.5215 7.30078C14.8098 7.41289 15 7.69069 15 8C15 8.30931 14.8098 8.58711 14.5215 8.69922L10.3291 10.3291L8.69922 14.5215C8.58711 14.8098 8.30931 15 8 15C7.69069 15 7.41289 14.8098 7.30078 14.5215L5.66992 10.3291L1.47852 8.69922C1.19024 8.58711 1 8.30931 1 8C1 7.69069 1.19024 7.41289 1.47852 7.30078L5.66992 5.66992L7.30078 1.47852L7.35059 1.375C7.48304 1.14548 7.72932 1 8 1ZM6.94922 6.52148C6.87301 6.71746 6.71746 6.87301 6.52148 6.94922L3.81934 8L6.52148 9.05078C6.71746 9.12699 6.87301 9.28254 6.94922 9.47852L8 12.1797L9.05078 9.47852L9.08301 9.40625C9.16642 9.24438 9.30713 9.11743 9.47852 9.05078L12.1797 8L9.47852 6.94922C9.28254 6.87301 9.12699 6.71746 9.05078 6.52148L8 3.81934L6.94922 6.52148ZM3 0V1.5H4.5V3H3V4.5H1.5V3H0V1.5H1.5V0H3Z" fill="#292A2E"/>
</svg>
