<svg width="16" height="16" viewBox="0 0 16 16" fill="none" xmlns="http://www.w3.org/2000/svg">
<path fill-rule="evenodd" clip-rule="evenodd" d="M8.75 0V3H7.25V0H8.75ZM2.12347 1.06282L4.17157 3.11091L3.11091 4.17157L1.06281 2.12348L2.12347 1.06282ZM14.9372 2.12348L12.8891 4.17157L11.8284 3.11091L13.8765 1.06282L14.9372 2.12348ZM4.19528 5.87543C4.26007 5.09799 4.90997 4.5 5.6901 4.5H10.3099C11.09 4.5 11.7399 5.09799 11.8047 5.87543L12.4401 13.5H14V15H2V13.5H3.5599L4.19528 5.87543ZM5.0651 13.5H10.9349L10.3099 6L5.6901 6L5.0651 13.5Z" fill="#44546F"/>
</svg>
