<svg width="16" height="16" viewBox="0 0 16 16" fill="none" xmlns="http://www.w3.org/2000/svg">
<path fill-rule="evenodd" clip-rule="evenodd" d="M4.31464 14.4454L10.3146 0.945388L11.6854 1.5546L5.68536 15.0546L4.31464 14.4454ZM13.9817 9.99999L11.0565 12.1452L11.9435 13.3548L15.6935 10.6048C15.8862 10.4635 16 10.2389 16 9.99999C16 9.76108 15.8862 9.53647 15.6935 9.39519L11.9435 6.64519L11.0565 7.85479L13.9817 9.99999ZM2.01826 5.99999L4.94352 8.14519L4.05648 9.35479L0.306478 6.60479C0.113822 6.46351 7.70693e-07 6.2389 7.91579e-07 5.99999C8.12465e-07 5.76108 0.113822 5.53647 0.306478 5.39519L4.05648 2.64519L4.94352 3.85479L2.01826 5.99999Z" fill="#44546F"/>
</svg>
