<svg width="16" height="16" viewBox="0 0 16 16" fill="none" xmlns="http://www.w3.org/2000/svg">
<path fill-rule="evenodd" clip-rule="evenodd" d="M11.6533 11.5625V10.2512H12.9765V6.0875H11.6533V4.77625H15.7933V6.0875H14.4702V10.2512H15.7933V11.5625H11.6533Z" fill="#44546F"/>
<path fill-rule="evenodd" clip-rule="evenodd" d="M6.276 11.5625V4.77625H8.61063C9.08681 4.77625 9.50441 4.86593 9.86151 5.04756C10.224 5.22885 10.5039 5.48303 10.699 5.81013C10.9004 6.13761 11 6.52025 11 6.95574C11 7.38554 10.9002 7.76805 10.699 8.1013L10.6987 8.10175C10.4977 8.42835 10.2182 8.68245 9.86172 8.86382C9.50457 9.04553 9.0869 9.13525 8.61063 9.13525H7.76975V11.5625H6.276ZM9.26074 6.36199C9.10465 6.21147 8.89044 6.13312 8.61063 6.13312H7.76975V7.77837H8.61063C8.89106 7.77837 9.10558 7.70269 9.2616 7.55782C9.4238 7.40677 9.50625 7.20815 9.50625 6.95574C9.50625 6.70328 9.42381 6.50824 9.2624 6.36353L9.26074 6.36199Z" fill="#44546F"/>
<path fill-rule="evenodd" clip-rule="evenodd" d="M0.191406 11.5625L1.85543 4.77625H3.6871L5.36972 11.5625H3.84308L3.5237 10.0569H2.03722L1.71784 11.5625H0.191406ZM3.26093 8.83687L2.95624 7.30469C2.91377 7.07414 2.86827 6.84665 2.81974 6.6222L2.81934 6.62032C2.80524 6.54377 2.79217 6.4729 2.78007 6.40771C2.76822 6.47028 2.75541 6.53793 2.74165 6.61068C2.70501 6.8365 2.66229 7.06531 2.61349 7.29712L2.29162 8.83687H3.26093Z" fill="#44546F"/>
</svg>
