<svg width="16" height="16" viewBox="0 0 16 16" fill="none" xmlns="http://www.w3.org/2000/svg">
<path d="M1.75 3C1.75 2.30964 2.30964 1.75 3 1.75H5C5.69036 1.75 6.25 2.30964 6.25 3V5C6.25 5.69036 5.69036 6.25 5 6.25H3C2.30964 6.25 1.75 5.69036 1.75 5V3Z" stroke="#44546F" stroke-width="1.5" stroke-linejoin="round"/>
<path d="M9.75 3C9.75 2.30964 10.3096 1.75 11 1.75H13C13.6904 1.75 14.25 2.30964 14.25 3V5C14.25 5.69036 13.6904 6.25 13 6.25H11C10.3096 6.25 9.75 5.69036 9.75 5V3Z" stroke="#44546F" stroke-width="1.5" stroke-linejoin="round"/>
<path d="M1.75 11C1.75 10.3096 2.30964 9.75 3 9.75H5C5.69036 9.75 6.25 10.3096 6.25 11V13C6.25 13.6904 5.69036 14.25 5 14.25H3C2.30964 14.25 1.75 13.6904 1.75 13V11Z" stroke="#44546F" stroke-width="1.5" stroke-linejoin="round"/>
<path d="M9.75 11C9.75 10.3096 10.3096 9.75 11 9.75H13C13.6904 9.75 14.25 10.3096 14.25 11V13C14.25 13.6904 13.6904 14.25 13 14.25H11C10.3096 14.25 9.75 13.6904 9.75 13V11Z" stroke="#44546F" stroke-width="1.5" stroke-linejoin="round"/>
</svg>
