<svg width="16" height="16" viewBox="0 0 16 16" fill="none" xmlns="http://www.w3.org/2000/svg">
<path d="M11.75 11.75H14.25V14.25H11.75V11.75Z" fill="#44546F"/>
<path d="M1.75 1.75H4.25V4.25H1.75V1.75Z" fill="#44546F"/>
<path d="M1.75 6.75H4.25V9.25H1.75V6.75Z" fill="#44546F"/>
<path d="M1.75 11.75H4.25V14.25H1.75V11.75Z" fill="#44546F"/>
<path d="M6.75 1.75H9.25V4.25H6.75V1.75Z" fill="#44546F"/>
<path d="M6.75 6.75H9.25V9.25H6.75V6.75Z" fill="#44546F"/>
<path d="M6.75 11.75H9.25V14.25H6.75V11.75Z" fill="#44546F"/>
<path d="M11.75 1.75H14.25V4.25H11.75V1.75Z" fill="#44546F"/>
<path d="M11.75 6.75H14.25V9.25H11.75V6.75Z" fill="#44546F"/>
<path d="M11.75 11.75H14.25V14.25H11.75V11.75Z" stroke="#44546F" stroke-width="1.5" stroke-linejoin="round"/>
<path d="M1.75 1.75H4.25V4.25H1.75V1.75Z" stroke="#44546F" stroke-width="1.5" stroke-linejoin="round"/>
<path d="M1.75 6.75H4.25V9.25H1.75V6.75Z" stroke="#44546F" stroke-width="1.5" stroke-linejoin="round"/>
<path d="M1.75 11.75H4.25V14.25H1.75V11.75Z" stroke="#44546F" stroke-width="1.5" stroke-linejoin="round"/>
<path d="M6.75 1.75H9.25V4.25H6.75V1.75Z" stroke="#44546F" stroke-width="1.5" stroke-linejoin="round"/>
<path d="M6.75 6.75H9.25V9.25H6.75V6.75Z" stroke="#44546F" stroke-width="1.5" stroke-linejoin="round"/>
<path d="M6.75 11.75H9.25V14.25H6.75V11.75Z" stroke="#44546F" stroke-width="1.5" stroke-linejoin="round"/>
<path d="M11.75 1.75H14.25V4.25H11.75V1.75Z" stroke="#44546F" stroke-width="1.5" stroke-linejoin="round"/>
<path d="M11.75 6.75H14.25V9.25H11.75V6.75Z" stroke="#44546F" stroke-width="1.5" stroke-linejoin="round"/>
</svg>
