<svg width="16" height="16" viewBox="0 0 16 16" fill="none" xmlns="http://www.w3.org/2000/svg">
<path fill-rule="evenodd" clip-rule="evenodd" d="M1 1.75C1 1.33579 1.33579 1 1.75 1H4.25C4.66421 1 5 1.33579 5 1.75V4.25C5 4.66421 4.66421 5 4.25 5H1.75C1.33579 5 1 4.66421 1 4.25V1.75ZM6 1.75C6 1.33579 6.33579 1 6.75 1H9.25C9.66421 1 10 1.33579 10 1.75V4.25C10 4.66421 9.66421 5 9.25 5H6.75C6.33579 5 6 4.66421 6 4.25V1.75ZM11 1.75C11 1.33579 11.3358 1 11.75 1H14.25C14.6642 1 15 1.33579 15 1.75V4.25C15 4.66421 14.6642 5 14.25 5H11.75C11.3358 5 11 4.66421 11 4.25V1.75ZM1 6.75C1 6.33579 1.33579 6 1.75 6H4.25C4.66421 6 5 6.33579 5 6.75V9.25C5 9.66421 4.66421 10 4.25 10H1.75C1.33579 10 1 9.66421 1 9.25V6.75ZM6 6.75C6 6.33579 6.33579 6 6.75 6H9.25C9.66421 6 10 6.33579 10 6.75V9.25C10 9.66421 9.66421 10 9.25 10H6.75C6.33579 10 6 9.66421 6 9.25V6.75ZM11 6.75C11 6.33579 11.3358 6 11.75 6H14.25C14.6642 6 15 6.33579 15 6.75V9.25C15 9.66421 14.6642 10 14.25 10H11.75C11.3358 10 11 9.66421 11 9.25V6.75ZM1 11.75C1 11.3358 1.33579 11 1.75 11H4.25C4.66421 11 5 11.3358 5 11.75V14.25C5 14.6642 4.66421 15 4.25 15H1.75C1.33579 15 1 14.6642 1 14.25V11.75ZM6 11.75C6 11.3358 6.33579 11 6.75 11H9.25C9.66421 11 10 11.3358 10 11.75V14.25C10 14.6642 9.66421 15 9.25 15H6.75C6.33579 15 6 14.6642 6 14.25V11.75ZM11 11.75C11 11.3358 11.3358 11 11.75 11H14.25C14.6642 11 15 11.3358 15 11.75V14.25C15 14.6642 14.6642 15 14.25 15H11.75C11.3358 15 11 14.6642 11 14.25V11.75Z" fill="#292A2E"/>
</svg>
