<svg width="16" height="16" viewBox="0 0 16 16" fill="none" xmlns="http://www.w3.org/2000/svg">
<path d="M2.35688 4.13587L7.35688 1.13587C7.75273 0.89836 8.24727 0.89836 8.64312 1.13587L13.6431 4.13587C14.0196 4.36178 14.25 4.76866 14.25 5.20774V10.7923C14.25 11.2313 14.0196 11.6382 13.6431 11.8641L8.64312 14.8641C8.24727 15.1016 7.75273 15.1016 7.35688 14.8641L2.35688 11.8641C1.98037 11.6382 1.75 11.2313 1.75 10.7923V5.20774C1.75 4.76866 1.98037 4.36178 2.35688 4.13587Z" stroke="#44546F" stroke-width="1.5" stroke-linejoin="round"/>
<path d="M10.25 8C10.25 9.24264 9.24264 10.25 8 10.25C6.75736 10.25 5.75 9.24264 5.75 8C5.75 6.75736 6.75736 5.75 8 5.75C9.24264 5.75 10.25 6.75736 10.25 8Z" stroke="#44546F" stroke-width="1.5" stroke-linejoin="round"/>
</svg>
