<svg width="16" height="16" viewBox="0 0 16 16" fill="none" xmlns="http://www.w3.org/2000/svg">
<path d="M13.5 5.20811C13.5 5.03248 13.4074 4.86976 13.2568 4.7794L8.25684 1.7794C8.09858 1.68453 7.90142 1.68453 7.74316 1.7794L2.74316 4.7794C2.59256 4.86976 2.5 5.03248 2.5 5.20811V10.7921C2.5 10.9677 2.59256 11.1304 2.74316 11.2208L7.74316 14.2208C7.90142 14.3157 8.09858 14.3157 8.25684 14.2208L13.2568 11.2208C13.4074 11.1304 13.5 10.9677 13.5 10.7921V5.20811ZM15 10.7921C15 11.4945 14.6315 12.1454 14.0293 12.5069L9.0293 15.5069C8.39593 15.887 7.60407 15.887 6.9707 15.5069L1.9707 12.5069C1.36853 12.1454 1 11.4945 1 10.7921V5.20811C1 4.50574 1.36853 3.85476 1.9707 3.49327L6.9707 0.493266C7.60407 0.113247 8.39593 0.113247 9.0293 0.493266L14.0293 3.49327C14.6315 3.85476 15 4.50574 15 5.20811V10.7921Z" fill="#292A2E"/>
<path d="M9.5 8C9.5 7.17157 8.82843 6.5 8 6.5C7.17157 6.5 6.5 7.17157 6.5 8C6.5 8.82843 7.17157 9.5 8 9.5C8.82843 9.5 9.5 8.82843 9.5 8ZM11 8C11 9.65685 9.65685 11 8 11C6.34315 11 5 9.65685 5 8C5 6.34315 6.34315 5 8 5C9.65685 5 11 6.34315 11 8Z" fill="#292A2E"/>
</svg>
