<svg width="16" height="16" viewBox="0 0 16 16" fill="none" xmlns="http://www.w3.org/2000/svg">
<path fill-rule="evenodd" clip-rule="evenodd" d="M8.25725 1.77899C8.09891 1.68399 7.90109 1.68399 7.74275 1.77899L2.74275 4.779C2.59215 4.86936 2.5 5.03211 2.5 5.20774V10.7923C2.5 10.9679 2.59215 11.1306 2.74275 11.221L7.74275 14.221C7.90109 14.316 8.09891 14.316 8.25725 14.221L13.2572 11.221C13.4079 11.1306 13.5 10.9679 13.5 10.7923V5.20774C13.5 5.03211 13.4079 4.86936 13.2572 4.77899L8.25725 1.77899ZM6.97101 0.492755C7.60437 0.112736 8.39563 0.112736 9.02899 0.492755L14.029 3.49275C14.6314 3.8542 15 4.50521 15 5.20774V10.7923C15 11.4948 14.6314 12.1458 14.029 12.5073L9.02899 15.5073C8.39563 15.8873 7.60437 15.8873 6.97101 15.5073L1.97101 12.5073C1.3686 12.1458 1 11.4948 1 10.7923V5.20774C1 4.50522 1.3686 3.8542 1.97101 3.49276L6.97101 0.492755ZM8 6.5C7.17157 6.5 6.5 7.17158 6.5 8C6.5 8.82843 7.17157 9.5 8 9.5C8.82843 9.5 9.5 8.82843 9.5 8C9.5 7.17158 8.82843 6.5 8 6.5ZM5 8C5 6.34315 6.34315 5 8 5C9.65685 5 11 6.34315 11 8C11 9.65686 9.65685 11 8 11C6.34315 11 5 9.65686 5 8Z" fill="#292A2E"/>
</svg>
