<svg width="16" height="16" viewBox="0 0 16 16" fill="none" xmlns="http://www.w3.org/2000/svg">
<path d="M12 9V15M9 12H12H15M3 14.25H5C5.69036 14.25 6.25 13.6904 6.25 13V11C6.25 10.3096 5.69036 9.75 5 9.75H3C2.30964 9.75 1.75 10.3096 1.75 11V13C1.75 13.6904 2.30964 14.25 3 14.25ZM11 6.25H13C13.6904 6.25 14.25 5.69036 14.25 5V3C14.25 2.30964 13.6904 1.75 13 1.75H11C10.3096 1.75 9.75 2.30964 9.75 3V5C9.75 5.69036 10.3096 6.25 11 6.25ZM3 6.25H5C5.69036 6.25 6.25 5.69036 6.25 5V3C6.25 2.30964 5.69036 1.75 5 1.75H3C2.30964 1.75 1.75 2.30964 1.75 3V5C1.75 5.69036 2.30964 6.25 3 6.25Z" stroke="#44546F" stroke-width="1.5" stroke-linejoin="round"/>
</svg>
