<svg width="16" height="16" viewBox="0 0 16 16" fill="none" xmlns="http://www.w3.org/2000/svg">
<path fill-rule="evenodd" clip-rule="evenodd" d="M1 3C1 1.89543 1.89543 1 3 1H5C6.10457 1 7 1.89543 7 3V5C7 6.10457 6.10457 7 5 7H3C1.89543 7 1 6.10457 1 5V3ZM3 2.5C2.72386 2.5 2.5 2.72386 2.5 3V5C2.5 5.27614 2.72386 5.5 3 5.5H5C5.27614 5.5 5.5 5.27614 5.5 5V3C5.5 2.72386 5.27614 2.5 5 2.5H3ZM9 3C9 1.89543 9.89543 1 11 1H13C14.1046 1 15 1.89543 15 3V5C15 6.10457 14.1046 7 13 7H11C9.89543 7 9 6.10457 9 5V3ZM11 2.5C10.7239 2.5 10.5 2.72386 10.5 3V5C10.5 5.27614 10.7239 5.5 11 5.5H13C13.2761 5.5 13.5 5.27614 13.5 5V3C13.5 2.72386 13.2761 2.5 13 2.5H11ZM1 11C1 9.89543 1.89543 9 3 9H5C6.10457 9 7 9.89543 7 11V13C7 14.1046 6.10457 15 5 15H3C1.89543 15 1 14.1046 1 13V11ZM3 10.5C2.72386 10.5 2.5 10.7239 2.5 11V13C2.5 13.2761 2.72386 13.5 3 13.5H5C5.27614 13.5 5.5 13.2761 5.5 13V11C5.5 10.7239 5.27614 10.5 5 10.5H3ZM11.25 11.25V9H12.75V11.25H15V12.75H12.75V15H11.25V12.75H9V11.25H11.25Z" fill="#44546F"/>
</svg>
