<svg width="16" height="16" viewBox="0 0 16 16" fill="none" xmlns="http://www.w3.org/2000/svg">
<path d="M9.59076 6.40901C10.4694 7.28769 10.4694 8.71231 9.59076 9.59099M9.59076 6.40901C8.71208 5.53033 7.28746 5.53033 6.40878 6.40901M9.59076 6.40901L12.1893 3.81066M9.59076 9.59099C8.71208 10.4697 7.28746 10.4697 6.40878 9.59099M9.59076 9.59099L12.1893 12.1893M6.40878 9.59099C5.5301 8.71231 5.5301 7.28769 6.40878 6.40901M6.40878 9.59099L3.81066 12.1893M6.40878 6.40901L3.81066 3.81066M12.1893 3.81066C12.7751 4.39645 13.7249 4.39645 14.3107 3.81066C14.8964 3.22487 14.8964 2.27513 14.3107 1.68934C13.7249 1.10355 12.7751 1.10355 12.1893 1.68934C11.6036 2.27513 11.6036 3.22487 12.1893 3.81066ZM12.1893 12.1893C11.6036 12.7751 11.6036 13.7249 12.1893 14.3107C12.7751 14.8964 13.7249 14.8964 14.3107 14.3107C14.8964 13.7249 14.8964 12.7751 14.3107 12.1893C13.7249 11.6036 12.7751 11.6036 12.1893 12.1893ZM3.81066 3.81066C4.39645 3.22487 4.39645 2.27513 3.81066 1.68934C3.22487 1.10355 2.27513 1.10355 1.68934 1.68934C1.10355 2.27513 1.10355 3.22487 1.68934 3.81066C2.27513 4.39645 3.22487 4.39645 3.81066 3.81066ZM3.81066 12.1893C4.39645 12.7751 4.39645 13.7249 3.81066 14.3107C3.22487 14.8964 2.27513 14.8964 1.68934 14.3107C1.10355 13.7249 1.10355 12.7751 1.68934 12.1893C2.27513 11.6036 3.22487 11.6036 3.81066 12.1893Z" stroke="#44546F" stroke-width="1.5" stroke-linejoin="round"/>
</svg>
