<svg width="16" height="16" viewBox="0 0 16 16" fill="none" xmlns="http://www.w3.org/2000/svg">
<path fill-rule="evenodd" clip-rule="evenodd" d="M4.48744 2.01256C3.80402 1.32915 2.69598 1.32915 2.01256 2.01256C1.32915 2.69598 1.32915 3.80402 2.01256 4.48744C2.35442 4.82929 2.80097 5 3.25 5C3.69903 5 4.14558 4.82929 4.48744 4.48744C4.82929 4.14558 5 3.69903 5 3.25C5 2.80097 4.82929 2.35442 4.48744 2.01256ZM0.951903 0.951903C2.22111 -0.317301 4.27889 -0.3173 5.5481 0.951903C5.99034 1.39414 6.27855 1.93287 6.4126 2.5H9.5V4H6.4126C6.27855 4.56713 5.99034 5.10586 5.5481 5.5481C5.10586 5.99034 4.56713 6.27855 4 6.4126V9.5H2.5V6.4126C1.93287 6.27855 1.39414 5.99034 0.951903 5.5481C-0.3173 4.27889 -0.317301 2.22111 0.951903 0.951903ZM10.5 3.25C10.5 2.00736 11.5074 1 12.75 1C13.9926 1 15 2.00736 15 3.25C15 4.49264 13.9926 5.5 12.75 5.5C11.5074 5.5 10.5 4.49264 10.5 3.25ZM13.5 6.5V9.5H12V6.5H13.5ZM1 12.75C1 11.5074 2.00736 10.5 3.25 10.5C4.49264 10.5 5.5 11.5074 5.5 12.75C5.5 13.9926 4.49264 15 3.25 15C2.00736 15 1 13.9926 1 12.75ZM10.5 12.75C10.5 11.5074 11.5074 10.5 12.75 10.5C13.9926 10.5 15 11.5074 15 12.75C15 13.9926 13.9926 15 12.75 15C11.5074 15 10.5 13.9926 10.5 12.75ZM9.5 13.5H6.5V12H9.5V13.5Z" fill="#292A2E"/>
</svg>
