<svg width="16" height="16" viewBox="0 0 16 16" fill="none" xmlns="http://www.w3.org/2000/svg">
<path d="M8.75 12V15H7.25V12H8.75ZM6.53027 10.5303L2.53027 14.5303L1.46973 13.4697L5.46973 9.46973L6.53027 10.5303ZM14.5303 13.4697L13.4697 14.5303L9.46973 10.5303L10.5303 9.46973L14.5303 13.4697ZM4 7.25V8.75H1V7.25H4ZM15 7.25V8.75H12V7.25H15ZM6.53027 5.46973L5.46973 6.53027L1.46973 2.53027L2.53027 1.46973L6.53027 5.46973ZM14.5303 2.53027L10.5303 6.53027L9.46973 5.46973L13.4697 1.46973L14.5303 2.53027ZM8.75 1V4H7.25V1H8.75Z" fill="#292A2E"/>
</svg>
