<svg width="16" height="16" viewBox="0 0 16 16" fill="none" xmlns="http://www.w3.org/2000/svg">
<path fill-rule="evenodd" clip-rule="evenodd" d="M7.24999 4V1H8.74999V4H7.24999ZM5.46966 6.53033L1.46966 2.53033L2.53032 1.46967L6.53032 5.46967L5.46966 6.53033ZM9.46966 5.46967L13.4697 1.46967L14.5303 2.53033L10.5303 6.53033L9.46966 5.46967ZM0.999992 7.25H3.99999V8.75H0.999992V7.25ZM12 7.25H15V8.75H12V7.25ZM1.46966 13.4697L5.46966 9.46967L6.53032 10.5303L2.53032 14.5303L1.46966 13.4697ZM13.4697 14.5303L9.46966 10.5303L10.5303 9.46967L14.5303 13.4697L13.4697 14.5303ZM7.24999 15V12H8.74999V15H7.24999Z" fill="#292A2E"/>
</svg>
