<svg width="16" height="16" viewBox="0 0 16 16" fill="none" xmlns="http://www.w3.org/2000/svg">
<path fill-rule="evenodd" clip-rule="evenodd" d="M7.71966 1.96966C9.11713 0.572199 11.3829 0.5722 12.7803 1.96967C14.1778 3.36713 14.1778 5.63287 12.7803 7.03033L8.28033 11.5303C7.43515 12.3755 6.06485 12.3755 5.21967 11.5303C4.37449 10.6851 4.37449 9.31484 5.21967 8.46966L9.71967 3.96966L10.7803 5.03032L6.28033 9.53032C6.02094 9.78971 6.02094 10.2103 6.28033 10.4697C6.53972 10.7291 6.96028 10.7291 7.21967 10.4697L11.7197 5.96967C12.5313 5.15799 12.5313 3.842 11.7197 3.03033C10.908 2.21865 9.592 2.21865 8.78032 3.03032L4.28033 7.53032C2.91637 8.89428 2.91637 11.1057 4.28033 12.4697C5.64429 13.8336 7.85571 13.8336 9.21967 12.4697L11.7197 9.96966L12.7803 11.0303L10.2803 13.5303C8.33058 15.4801 5.16942 15.4801 3.21967 13.5303C1.26992 11.5806 1.26992 8.41941 3.21967 6.46966L7.71966 1.96966Z" fill="#44546F"/>
</svg>
