<svg width="16" height="16" viewBox="0 0 16 16" fill="none" xmlns="http://www.w3.org/2000/svg">
<path d="M5.21946 8.46945L9.71967 3.96924L10.7803 5.0299L6.28012 9.53011C6.02083 9.78939 6.02105 10.2098 6.28012 10.4692C6.53951 10.7286 6.96054 10.7293 7.21993 10.4699L11.7201 5.96971C12.5316 5.15802 12.5311 3.84172 11.7195 3.03011C10.9078 2.21872 9.59216 2.21872 8.78054 3.03011L4.28033 7.53032C2.91647 8.89418 2.91669 11.105 4.28033 12.469C5.64429 13.833 7.85576 13.8337 9.21972 12.4697L11.7195 9.96998L12.7801 11.0306L10.2804 13.5304C8.33063 15.4801 5.16942 15.4794 3.21967 13.5297C1.27024 11.5799 1.27003 8.4193 3.21967 6.46966L7.71988 1.96945C9.11729 0.572276 11.3827 0.572276 12.7801 1.96945C14.1775 3.36684 14.178 5.63289 12.7808 7.03037L8.28059 11.5306C7.43541 12.3758 6.06463 12.3751 5.21946 11.5299C4.3746 10.6847 4.37438 9.31452 5.21946 8.46945Z" fill="#292A2E"/>
</svg>
