<svg width="16" height="16" viewBox="0 0 16 16" fill="none" xmlns="http://www.w3.org/2000/svg">
<path fill-rule="evenodd" clip-rule="evenodd" d="M14.7464 1.18774C14.9076 1.33011 15 1.53487 15 1.75V11C15 12.6569 13.6569 14 12 14C10.3431 14 9 12.6569 9 11C9 9.34316 10.3431 8.00001 12 8.00001H13.5V5.84958L7 6.66208V12C7 13.6569 5.65685 15 4 15C2.34315 15 1 13.6569 1 12C1 10.3432 2.34315 9.00001 4 9.00001H5.5V2.75C5.5 2.37175 5.78165 2.0527 6.15697 2.00579L14.157 1.00579C14.3704 0.979105 14.5851 1.04537 14.7464 1.18774ZM5.5 10.5H4C3.17157 10.5 2.5 11.1716 2.5 12C2.5 12.8284 3.17157 13.5 4 13.5C4.82843 13.5 5.5 12.8284 5.5 12V10.5ZM7 5.15041L13.5 4.33791V2.59958L7 3.41208V5.15041ZM13.5 9.50001H12C11.1716 9.50001 10.5 10.1716 10.5 11C10.5 11.8284 11.1716 12.5 12 12.5C12.8284 12.5 13.5 11.8284 13.5 11V9.50001Z" fill="#292A2E"/>
</svg>
