<svg width="16" height="16" viewBox="0 0 16 16" fill="none" xmlns="http://www.w3.org/2000/svg">
<path d="M6 15.25L5.27701 15.0506C5.18646 15.3788 5.32837 15.7268 5.62261 15.8981C5.91685 16.0695 6.28957 16.0211 6.53033 15.7803L6 15.25ZM13.25 8L13.7803 8.53033C13.9948 8.31583 14.059 7.99324 13.9429 7.71299C13.8268 7.43273 13.5533 7.25 13.25 7.25V8ZM10 0.75L10.723 0.949447C10.8135 0.621225 10.6716 0.273193 10.3774 0.101867C10.0832 -0.0694591 9.71043 -0.021087 9.46967 0.21967L10 0.75ZM2.75 8L2.21967 7.46967C2.00517 7.68417 1.941 8.00676 2.05709 8.28701C2.17318 8.56727 2.44665 8.75 2.75 8.75V8ZM6.53033 15.7803L13.7803 8.53033L12.7197 7.46967L5.46967 14.7197L6.53033 15.7803ZM13.25 7.25H8V8.75H13.25V7.25ZM8.72299 8.19945L10.723 0.949447L9.27701 0.550553L7.27701 7.80055L8.72299 8.19945ZM9.46967 0.21967L2.21967 7.46967L3.28033 8.53033L10.5303 1.28033L9.46967 0.21967ZM2.75 8.75H8V7.25H2.75V8.75ZM7.27701 7.80055L5.27701 15.0506L6.72299 15.4494L8.72299 8.19945L7.27701 7.80055Z" fill="#44546F"/>
</svg>
