<svg width="16" height="16" viewBox="0 0 16 16" fill="none" xmlns="http://www.w3.org/2000/svg">
<path fill-rule="evenodd" clip-rule="evenodd" d="M10.3774 0.101865C10.6716 0.273191 10.8135 0.621223 10.723 0.949445L8.98491 7.25H13.25C13.5533 7.25 13.8268 7.43273 13.9429 7.71299C14.059 7.99324 13.9948 8.31583 13.7803 8.53033L6.53033 15.7803C6.28957 16.0211 5.91685 16.0695 5.62261 15.8981C5.32837 15.7268 5.18646 15.3788 5.277 15.0506L7.01509 8.75H2.75C2.44665 8.75 2.17318 8.56727 2.05709 8.28701C1.941 8.00676 2.00517 7.68417 2.21967 7.46967L9.46967 0.219668C9.71043 -0.0210888 10.0832 -0.0694609 10.3774 0.101865ZM7.42888 7.25L8.52154 3.28912L4.56066 7.25H7.42888ZM8.57112 8.75L7.47846 12.7109L11.4393 8.75H8.57112Z" fill="#292A2E"/>
</svg>
