<svg width="16" height="16" viewBox="0 0 16 16" fill="none" xmlns="http://www.w3.org/2000/svg">
<path fill-rule="evenodd" clip-rule="evenodd" d="M10.3774 0.101884C10.6716 0.27321 10.8135 0.621242 10.723 0.949464L8.98491 7.25002H13.25C13.5533 7.25002 13.8268 7.43275 13.9429 7.713C14.059 7.99326 13.9948 8.31585 13.7803 8.53035L6.53033 15.7803C6.28957 16.0211 5.91685 16.0695 5.62261 15.8982C5.32837 15.7268 5.18646 15.3788 5.277 15.0506L7.01509 8.75002H2.75C2.44665 8.75002 2.17318 8.56729 2.05709 8.28703C1.941 8.00677 2.00517 7.68419 2.21967 7.46969L9.46967 0.219687C9.71043 -0.0210697 10.0832 -0.0694418 10.3774 0.101884ZM7.42888 7.25002L8.52154 3.28914L4.56066 7.25002H7.42888ZM8.57112 8.75002L7.47846 12.7109L11.4393 8.75002H8.57112Z" fill="#44546F"/>
</svg>
