<svg width="16" height="16" viewBox="0 0 16 16" fill="none" xmlns="http://www.w3.org/2000/svg">
<path fill-rule="evenodd" clip-rule="evenodd" d="M7.95148 1.49901C8.30141 2.85333 8.29856 4.30081 7.90164 5.69119C8.27229 5.86717 8.6387 6.05935 9 6.26795C9.36129 6.47654 9.71094 6.69777 10.0487 6.93078C11.0543 5.89185 12.3064 5.16564 13.6543 4.79152C13.1024 3.81654 12.2912 2.97195 11.25 2.37083C10.2088 1.76972 9.07178 1.48945 7.95148 1.49901ZM14.2423 6.18796C13.1293 6.46178 12.0907 7.02723 11.2496 7.85024C12.2666 8.71218 13.1491 9.69025 13.8887 10.7528C14.5784 9.28214 14.67 7.66171 14.2423 6.18796ZM13.0103 12.1426C12.2839 10.9876 11.3785 9.93051 10.3061 9.01691C10.2577 9.09325 10.2107 9.17095 10.1651 9.25C9.24335 10.8464 9.07549 12.67 9.5519 14.312C10.8802 13.9853 12.103 13.2429 13.0103 12.1426ZM8.04852 14.501C7.54263 12.543 7.77444 10.3907 8.86602 8.5C8.94374 8.36539 9.02482 8.23384 9.1091 8.1054C8.83163 7.9171 8.54522 7.73743 8.25 7.56699C7.95478 7.39654 7.65598 7.23834 7.35417 7.09219C7.28508 7.2294 7.21169 7.36539 7.13397 7.5C6.04239 9.39068 4.29435 10.6676 2.34572 11.2085C2.89759 12.1835 3.70883 13.028 4.75 13.6292C5.79117 14.2303 6.92822 14.5105 8.04852 14.501ZM1.75765 9.81203C3.41791 9.40359 4.91323 8.34644 5.83494 6.75C5.88057 6.67095 5.92435 6.59137 5.96628 6.51131C4.63888 6.03939 3.27072 5.78379 1.90723 5.73222C1.408 7.06819 1.37646 8.49832 1.75765 9.81203ZM2.67163 4.27661C3.96164 4.38585 5.24994 4.66113 6.50489 5.11087C6.79711 3.97098 6.76748 2.78877 6.44809 1.68794C4.95796 2.05445 3.60045 2.94403 2.67163 4.27661ZM6.83568 0.0848855C8.5577 -0.169473 10.3759 0.134148 12 1.0718C13.6241 2.00945 14.7961 3.43228 15.4368 5.05077C16.3044 7.2423 16.1995 9.79805 14.9282 12C14.8034 12.2161 14.67 12.4244 14.5285 12.6246C13.23 14.4617 11.2665 15.6046 9.16432 15.9151C7.44229 16.1695 5.62405 15.8659 4 14.9282C2.37594 13.9906 1.20388 12.5677 0.563151 10.9492C-0.219023 8.97344 -0.211017 6.70154 0.730763 4.65846C0.83338 4.43585 0.947011 4.21613 1.0718 4C2.34309 1.79805 4.50397 0.429301 6.83568 0.0848855Z" fill="#292A2E"/>
</svg>
