<svg width="16" height="16" viewBox="0 0 16 16" fill="none" xmlns="http://www.w3.org/2000/svg">
<path fill-rule="evenodd" clip-rule="evenodd" d="M7.95148 1.49898C8.30141 2.8533 8.29856 4.30079 7.90164 5.69117C8.27229 5.86715 8.6387 6.05933 9 6.26793C9.36129 6.47652 9.71094 6.69775 10.0487 6.93076C11.0543 5.89183 12.3064 5.16561 13.6543 4.7915C13.1024 3.81652 12.2912 2.97193 11.25 2.37081C10.2088 1.76969 9.07178 1.48943 7.95148 1.49898ZM14.2423 6.18794C13.1293 6.46176 12.0907 7.0272 11.2496 7.85021C12.2666 8.71216 13.1491 9.69023 13.8887 10.7528C14.5784 9.28211 14.67 7.66169 14.2423 6.18794ZM13.0103 12.1426C12.2839 10.9876 11.3785 9.93049 10.3061 9.01688C10.2577 9.09323 10.2107 9.17093 10.1651 9.24998C9.24335 10.8464 9.07549 12.67 9.5519 14.312C10.8802 13.9853 12.103 13.2429 13.0103 12.1426ZM8.04852 14.501C7.54263 12.543 7.77444 10.3907 8.86602 8.49998C8.94374 8.36537 9.02482 8.23382 9.1091 8.10538C8.83163 7.91708 8.54522 7.73741 8.25 7.56696C7.95478 7.39652 7.65598 7.23831 7.35417 7.09217C7.28508 7.22938 7.21169 7.36537 7.13397 7.49998C6.04239 9.39066 4.29435 10.6676 2.34572 11.2085C2.89759 12.1834 3.70883 13.028 4.75 13.6291C5.79117 14.2303 6.92822 14.5105 8.04852 14.501ZM1.75765 9.81201C3.41791 9.40357 4.91323 8.34642 5.83494 6.74998C5.88057 6.67093 5.92435 6.59135 5.96628 6.51129C4.63888 6.03937 3.27072 5.78377 1.90723 5.7322C1.408 7.06816 1.37646 8.4983 1.75765 9.81201ZM2.67163 4.27659C3.96164 4.38582 5.24994 4.66111 6.50489 5.11085C6.79711 3.97096 6.76748 2.78874 6.44809 1.68792C4.95796 2.05443 3.60045 2.94401 2.67163 4.27659ZM6.83568 0.0848626C8.5577 -0.169496 10.3759 0.134125 12 1.07177C13.6241 2.00942 14.7961 3.43226 15.4368 5.05075C16.3044 7.24228 16.1995 9.79803 14.9282 12C14.8034 12.2161 14.67 12.4244 14.5285 12.6246C13.23 14.4617 11.2665 15.6046 9.16432 15.9151C7.44229 16.1694 5.62405 15.8658 4 14.9282C2.37594 13.9905 1.20388 12.5677 0.563151 10.9492C-0.219023 8.97342 -0.211017 6.70152 0.730763 4.65844C0.83338 4.43583 0.947011 4.21611 1.0718 3.99998C2.34309 1.79803 4.50397 0.429278 6.83568 0.0848626Z" fill="#44546F"/>
</svg>
