<svg width="16" height="16" viewBox="0 0 16 16" fill="none" xmlns="http://www.w3.org/2000/svg">
<path fill-rule="evenodd" clip-rule="evenodd" d="M7.95269 1.50021C8.30261 2.85452 8.29976 4.30201 7.90284 5.69239C8.2735 5.86837 8.63991 6.06055 9.0012 6.26915C9.3625 6.47774 9.71214 6.69897 10.0499 6.93198C11.0555 5.89305 12.3076 5.16684 13.6555 4.79272C13.1036 3.81774 12.2924 2.97315 11.2512 2.37203C10.21 1.77091 9.07298 1.49065 7.95269 1.50021ZM14.2436 6.18916C13.1305 6.46298 12.0919 7.02842 11.2508 7.85143C12.2678 8.71338 13.1503 9.69145 13.8899 10.754C14.5796 9.28333 14.6712 7.66291 14.2436 6.18916ZM13.0115 12.1438C12.2851 10.9888 11.3797 9.93171 10.3073 9.0181C10.2589 9.09445 10.2119 9.17215 10.1663 9.2512C9.24456 10.8476 9.0767 12.6712 9.55311 14.3132C10.8814 13.9865 12.1042 13.2441 13.0115 12.1438ZM8.04972 14.5022C7.54384 12.5442 7.77564 10.3919 8.86723 8.5012C8.94495 8.36659 9.02603 8.23504 9.11031 8.1066C8.83283 7.9183 8.54642 7.73863 8.2512 7.56818C7.95599 7.39774 7.65718 7.23953 7.35537 7.09339C7.28628 7.2306 7.2129 7.36659 7.13518 7.5012C6.04359 9.39188 4.29555 10.6688 2.34693 11.2097C2.8988 12.1847 3.71004 13.0292 4.7512 13.6304C5.79237 14.2315 6.92942 14.5117 8.04972 14.5022ZM1.75886 9.81323C3.41911 9.40479 4.91443 8.34764 5.83614 6.7512C5.88178 6.67215 5.92556 6.59257 5.96749 6.51251C4.64008 6.04059 3.27192 5.78499 1.90843 5.73342C1.4092 7.06938 1.37767 8.49952 1.75886 9.81323ZM2.67283 4.27781C3.96284 4.38704 5.25115 4.66233 6.5061 5.11207C6.79831 3.97218 6.76868 2.78996 6.4493 1.68914C4.95917 2.05565 3.60166 2.94523 2.67283 4.27781ZM6.83688 0.0860833C8.55891 -0.168276 10.3771 0.135345 12.0012 1.07299C13.6253 2.01064 14.7973 3.43348 15.438 5.05197C16.3056 7.2435 16.2007 9.79925 14.9294 12.0012C14.8046 12.2173 14.6712 12.4256 14.5297 12.6258C13.2312 14.4629 11.2677 15.6058 9.16552 15.9163C7.4435 16.1707 5.62526 15.867 4.0012 14.9294C2.37715 13.9918 1.20509 12.5689 0.564357 10.9504C-0.217818 8.97464 -0.209812 6.70274 0.731968 4.65966C0.834586 4.43705 0.948216 4.21733 1.073 4.0012C2.3443 1.79925 4.50517 0.430499 6.83688 0.0860833Z" fill="#292A2E"/>
</svg>
