<svg width="16" height="16" viewBox="0 0 16 16" fill="none" xmlns="http://www.w3.org/2000/svg">
<path d="M9.05472 15.1732C8.97334 14.9676 8.9014 14.7585 8.83909 14.5466C8.29892 12.71 8.48273 10.6639 9.51554 8.875C10.5484 7.08612 12.2284 5.90389 14.0891 5.45335C14.3037 5.40138 14.5208 5.35914 14.7395 5.32684M9.05472 15.1732C7.49402 15.4037 5.84739 15.1288 4.375 14.2787C2.90261 13.4286 1.8412 12.14 1.26049 10.6732M9.05472 15.1732C10.9616 14.8915 12.7402 13.8553 13.916 12.1917M1.26049 10.6732C1.47922 10.6409 1.69625 10.5986 1.91089 10.5466C3.77159 10.0961 5.45164 8.91388 6.48445 7.125C7.51726 5.33612 7.70108 3.29004 7.16091 1.45335C7.0986 1.24149 7.02665 1.03241 6.94527 0.826833M1.26049 10.6732C0.550984 8.88093 0.559064 6.82251 1.41188 4.97243M1.41188 4.97243C1.50492 4.7706 1.60801 4.57125 1.72131 4.375C2.87326 2.37977 4.83037 1.13922 6.94527 0.826833M1.41188 4.97243C3.86426 4.97638 6.34873 5.60326 8.625 6.91747C10.9013 8.23167 12.6864 10.0698 13.916 12.1917M6.94527 0.826833C8.50597 0.596303 10.1526 0.871228 11.625 1.72131C13.0974 2.5714 14.1588 3.85996 14.7395 5.32684M14.7395 5.32684C15.5264 7.31459 15.4306 9.62977 14.2787 11.625C14.1654 11.8213 14.0443 12.0102 13.916 12.1917" stroke="#44546F" stroke-width="1.5"/>
</svg>
