<svg width="16" height="16" viewBox="0 0 16 16" fill="none" xmlns="http://www.w3.org/2000/svg">
<path d="M16 2.5C13.3408 2.5 11.8489 3.23173 10.8721 4.22852C9.85231 5.26908 9.3061 6.67469 8.70117 8.2666C8.11861 9.79965 7.47727 11.5191 6.2002 12.8223C4.88017 14.1692 2.9658 15 0 15V13.5C2.65919 13.5 4.15108 12.7683 5.12793 11.7715C6.14769 10.7309 6.6939 9.32531 7.29883 7.7334C7.88139 6.20035 8.52273 4.48088 9.7998 3.17773C11.1198 1.83077 13.0342 1 16 1V2.5Z" fill="#292A2E"/>
<path d="M11.5 13.5C11.9142 13.5 12.25 13.8358 12.25 14.25C12.25 14.6642 11.9142 15 11.5 15C11.0858 15 10.75 14.6642 10.75 14.25C10.75 13.8358 11.0858 13.5 11.5 13.5Z" fill="#292A2E"/>
<path d="M4.5 1C4.91421 1 5.25 1.33579 5.25 1.75C5.25 2.16421 4.91421 2.5 4.5 2.5C4.08579 2.5 3.75 2.16421 3.75 1.75C3.75 1.33579 4.08579 1 4.5 1Z" fill="#292A2E"/>
<path d="M8.5 13.5C8.91421 13.5 9.25 13.8358 9.25 14.25C9.25 14.6642 8.91421 15 8.5 15C8.08579 15 7.75 14.6642 7.75 14.25C7.75 13.8358 8.08579 13.5 8.5 13.5Z" fill="#292A2E"/>
<path d="M7.5 1C7.91421 1 8.25 1.33579 8.25 1.75C8.25 2.16421 7.91421 2.5 7.5 2.5C7.08579 2.5 6.75 2.16421 6.75 1.75C6.75 1.33579 7.08579 1 7.5 1Z" fill="#292A2E"/>
</svg>
