<svg width="16" height="16" viewBox="0 0 16 16" fill="none" xmlns="http://www.w3.org/2000/svg">
<path fill-rule="evenodd" clip-rule="evenodd" d="M2 3.5C1.72386 3.5 1.5 3.72386 1.5 4V10C1.5 10.2761 1.72386 10.5 2 10.5H3.83333V3.5H2ZM5.33333 3.5V10.5H7.66667V3.5H5.33333ZM9.16667 3.5V10.5H11C11.2761 10.5 11.5 10.2761 11.5 10V4C11.5 3.72386 11.2761 3.5 11 3.5H9.16667ZM0 4C0 2.89543 0.89543 2 2 2H11C12.1046 2 13 2.89543 13 4V10C13 11.1046 12.1046 12 11 12H2C0.895429 12 0 11.1046 0 10V4ZM14.5 11.75L14.5 7H16V11.75C16 13.5449 14.5449 15 12.75 15H5V13.5H12.75C13.7165 13.5 14.5 12.7165 14.5 11.75Z" fill="#44546F"/>
</svg>
