<svg width="16" height="16" viewBox="0 0 16 16" fill="none" xmlns="http://www.w3.org/2000/svg">
<path d="M2.75 11.625C2.75 12.7986 3.70139 13.75 4.875 13.75H5.5M2.75 11.625C2.75 10.4514 3.70139 9.5 4.875 9.5H12.5M2.75 11.625V2.875C2.75 1.70139 3.70139 0.75 4.875 0.75H13.25V9.5H12.5M14 13.75H12.5M10.5 13.75H12.5M12.5 9.5V13.75" stroke="#44546F" stroke-width="1.5" stroke-linejoin="round"/>
<path d="M6.5 15.5637V11.5H9.5V15.5637C9.5 15.797 9.20865 15.9032 9.05857 15.7245L8 14.4643L6.94143 15.7245C6.79135 15.9032 6.5 15.797 6.5 15.5637Z" fill="#44546F"/>
</svg>
