<svg width="16" height="16" viewBox="0 0 16 16" fill="none" xmlns="http://www.w3.org/2000/svg">
<path fill-rule="evenodd" clip-rule="evenodd" d="M2 2.875C2 1.28718 3.28718 0 4.875 0H13.25C13.6642 0 14 0.335786 14 0.75V9.5C14 9.91421 13.6642 10.25 13.25 10.25V13H14V14.5H10.5V13H11.75V10.25H4.875C4.11561 10.25 3.5 10.8656 3.5 11.625C3.5 12.3844 4.11561 13 4.875 13H5.5V14.5H4.875C3.28718 14.5 2 13.2128 2 11.625V2.875ZM3.5 9.0995C3.90845 8.87665 4.37694 8.75 4.875 8.75H12.5V1.5H4.875C4.11561 1.5 3.5 2.11561 3.5 2.875V9.0995Z" fill="#292A2E"/>
<path d="M6.5 15.5637V11.5H9.5V15.5637C9.5 15.797 9.20865 15.9032 9.05857 15.7245L8 14.4643L6.94143 15.7245C6.79135 15.9032 6.5 15.797 6.5 15.5637Z" fill="#292A2E"/>
</svg>
