<svg width="16" height="16" viewBox="0 0 16 16" fill="none" xmlns="http://www.w3.org/2000/svg">
<path d="M8.75 8C8.75 8.41421 8.41421 8.75 8 8.75C7.58579 8.75 7.25 8.41421 7.25 8C7.25 7.58579 7.58579 7.25 8 7.25C8.41421 7.25 8.75 7.58579 8.75 8Z" fill="#44546F"/>
<path d="M5.5 8C5.5 8.41421 5.16421 8.75 4.75 8.75C4.33579 8.75 4 8.41421 4 8C4 7.58579 4.33579 7.25 4.75 7.25C5.16421 7.25 5.5 7.58579 5.5 8Z" fill="#44546F"/>
<path d="M12 8C12 8.41421 11.6642 8.75 11.25 8.75C10.8358 8.75 10.5 8.41421 10.5 8C10.5 7.58579 10.8358 7.25 11.25 7.25C11.6642 7.25 12 7.58579 12 8Z" fill="#44546F"/>
<path d="M8.75 11.25C8.75 11.6642 8.41421 12 8 12C7.58579 12 7.25 11.6642 7.25 11.25C7.25 10.8358 7.58579 10.5 8 10.5C8.41421 10.5 8.75 10.8358 8.75 11.25Z" fill="#44546F"/>
<path d="M8.75 4.75C8.75 5.16421 8.41421 5.5 8 5.5C7.58579 5.5 7.25 5.16421 7.25 4.75C7.25 4.33579 7.58579 4 8 4C8.41421 4 8.75 4.33579 8.75 4.75Z" fill="#44546F"/>
<path fill-rule="evenodd" clip-rule="evenodd" d="M1 3C1 1.89543 1.89543 1 3 1H13C14.1046 1 15 1.89543 15 3V13C15 14.1046 14.1046 15 13 15H3C1.89543 15 1 14.1046 1 13V3ZM3 2.5C2.72386 2.5 2.5 2.72386 2.5 3V13C2.5 13.2761 2.72386 13.5 3 13.5H13C13.2761 13.5 13.5 13.2761 13.5 13V3C13.5 2.72386 13.2761 2.5 13 2.5H3Z" fill="#44546F"/>
</svg>
