<svg width="16" height="16" viewBox="0 0 16 16" fill="none" xmlns="http://www.w3.org/2000/svg">
<path d="M13 1.75H3C2.30964 1.75 1.75 2.30964 1.75 3V13C1.75 13.6904 2.30964 14.25 3 14.25H13C13.6904 14.25 14.25 13.6904 14.25 13V3C14.25 2.30964 13.6904 1.75 13 1.75Z" stroke="#44546F" stroke-width="1.5" stroke-linejoin="round"/>
<path d="M8.75 8C8.75 8.41421 8.41421 8.75 8 8.75C7.58579 8.75 7.25 8.41421 7.25 8C7.25 7.58579 7.58579 7.25 8 7.25C8.41421 7.25 8.75 7.58579 8.75 8Z" fill="#44546F"/>
<path d="M5.5 8C5.5 8.41421 5.16421 8.75 4.75 8.75C4.33579 8.75 4 8.41421 4 8C4 7.58579 4.33579 7.25 4.75 7.25C5.16421 7.25 5.5 7.58579 5.5 8Z" fill="#44546F"/>
<path d="M12 8C12 8.41421 11.6642 8.75 11.25 8.75C10.8358 8.75 10.5 8.41421 10.5 8C10.5 7.58579 10.8358 7.25 11.25 7.25C11.6642 7.25 12 7.58579 12 8Z" fill="#44546F"/>
<path d="M8.75 11.25C8.75 11.6642 8.41421 12 8 12C7.58579 12 7.25 11.6642 7.25 11.25C7.25 10.8358 7.58579 10.5 8 10.5C8.41421 10.5 8.75 10.8358 8.75 11.25Z" fill="#44546F"/>
<path d="M8.75 4.75C8.75 5.16421 8.41421 5.5 8 5.5C7.58579 5.5 7.25 5.16421 7.25 4.75C7.25 4.33579 7.58579 4 8 4C8.41421 4 8.75 4.33579 8.75 4.75Z" fill="#44546F"/>
</svg>
