<svg width="16" height="16" viewBox="0 0 16 16" fill="none" xmlns="http://www.w3.org/2000/svg">
<path fill-rule="evenodd" clip-rule="evenodd" d="M4.25 2.5C3.83579 2.5 3.5 2.83579 3.5 3.25C3.5 3.66421 3.83579 4 4.25 4C4.66421 4 5 3.66421 5 3.25C5 2.83579 4.66421 2.5 4.25 2.5ZM2 3.25C2 2.00736 3.00736 1 4.25 1C5.49264 1 6.5 2.00736 6.5 3.25C6.5 4.22966 5.87389 5.06309 5 5.37197V9H3.5V5.37197C2.62611 5.06309 2 4.22966 2 3.25ZM11.75 2.5C11.3358 2.5 11 2.83579 11 3.25C11 3.66421 11.3358 4 11.75 4C12.1642 4 12.5 3.66421 12.5 3.25C12.5 2.83579 12.1642 2.5 11.75 2.5ZM9.5 3.25C9.5 2.00736 10.5074 1 11.75 1C12.9926 1 14 2.00736 14 3.25C14 4.22966 13.3739 5.06309 12.5 5.37197V10.25C12.5 12.0449 11.0449 13.5 9.25 13.5H6.37197C6.06309 14.3739 5.22966 15 4.25 15C3.00736 15 2 13.9926 2 12.75C2 11.5074 3.00736 10.5 4.25 10.5C5.22966 10.5 6.06309 11.1261 6.37197 12H9.25C10.2165 12 11 11.2165 11 10.25V5.37197C10.1261 5.06309 9.5 4.22966 9.5 3.25ZM4.25 12C3.83579 12 3.5 12.3358 3.5 12.75C3.5 13.1642 3.83579 13.5 4.25 13.5C4.66421 13.5 5 13.1642 5 12.75C5 12.3358 4.66421 12 4.25 12Z" fill="#44546F"/>
</svg>
