<svg width="16" height="16" viewBox="0 0 16 16" fill="none" xmlns="http://www.w3.org/2000/svg">
<path d="M4.25 4.75C5.07843 4.75 5.75 4.07843 5.75 3.25C5.75 2.42157 5.07843 1.75 4.25 1.75C3.42157 1.75 2.75 2.42157 2.75 3.25C2.75 4.07843 3.42157 4.75 4.25 4.75ZM4.25 4.75V9M5.75 12.75C5.75 13.5784 5.07843 14.25 4.25 14.25C3.42157 14.25 2.75 13.5784 2.75 12.75C2.75 11.9216 3.42157 11.25 4.25 11.25C5.07843 11.25 5.75 11.9216 5.75 12.75ZM5.75 12.75H9.25C10.6307 12.75 11.75 11.6307 11.75 10.25V4.75M11.75 4.75C12.5784 4.75 13.25 4.07843 13.25 3.25C13.25 2.42157 12.5784 1.75 11.75 1.75C10.9216 1.75 10.25 2.42157 10.25 3.25C10.25 4.07843 10.9216 4.75 11.75 4.75Z" stroke="#44546F" stroke-width="1.5"/>
</svg>
