<svg width="16" height="16" viewBox="0 0 16 16" fill="none" xmlns="http://www.w3.org/2000/svg">
<path d="M3.25 8.25H10.9375C11.9385 8.25 12.75 7.43852 12.75 6.4375V4.75M3.25 8.25V11.25M3.25 8.25V4.75M3.25 4.75C4.07843 4.75 4.75 4.07843 4.75 3.25C4.75 2.42157 4.07843 1.75 3.25 1.75C2.42157 1.75 1.75 2.42157 1.75 3.25C1.75 4.07843 2.42157 4.75 3.25 4.75ZM3.25 11.25C2.42157 11.25 1.75 11.9216 1.75 12.75C1.75 13.5784 2.42157 14.25 3.25 14.25C4.07843 14.25 4.75 13.5784 4.75 12.75C4.75 11.9216 4.07843 11.25 3.25 11.25ZM12.75 4.75C13.5784 4.75 14.25 4.07843 14.25 3.25C14.25 2.42157 13.5784 1.75 12.75 1.75C11.9216 1.75 11.25 2.42157 11.25 3.25C11.25 4.07843 11.9216 4.75 12.75 4.75Z" stroke="#44546F" stroke-width="1.5"/>
</svg>
