<svg width="16" height="16" viewBox="0 0 16 16" fill="none" xmlns="http://www.w3.org/2000/svg">
<path d="M14 10.5547C13.7556 10.6782 13.477 10.8105 13.166 10.9414C11.9118 11.4695 10.1242 12 8 12C5.87576 12 4.08817 11.4695 2.83398 10.9414C2.52303 10.8105 2.24437 10.6782 2 10.5547V13C2 13.2761 2.22386 13.5 2.5 13.5H13.5C13.7761 13.5 14 13.2761 14 13V10.5547ZM14 6C14 5.72386 13.7761 5.5 13.5 5.5H2.5C2.22386 5.5 2 5.72386 2 6V8.83984C2.03755 8.86267 2.07706 8.88926 2.12109 8.91504C2.41726 9.0884 2.85665 9.32307 3.41602 9.55859C4.53682 10.0305 6.12429 10.5 8 10.5C9.87571 10.5 11.4632 10.0305 12.584 9.55859C13.1433 9.32307 13.5827 9.0884 13.8789 8.91504C13.9229 8.88926 13.9624 8.86267 14 8.83984V6ZM10 3C10 2.72386 9.77614 2.5 9.5 2.5H6.5C6.22386 2.5 6 2.72386 6 3V4H10V3ZM11.5 4H13.5C14.6046 4 15.5 4.89543 15.5 6V13C15.5 14.1046 14.6046 15 13.5 15H2.5C1.39543 15 0.5 14.1046 0.5 13V6C0.5 4.89543 1.39543 4 2.5 4H4.5V3C4.5 1.89543 5.39543 1 6.5 1H9.5C10.6046 1 11.5 1.89543 11.5 3V4Z" fill="#292A2E"/>
<path d="M8 8C8.41421 8 8.75 8.33579 8.75 8.75C8.75 9.16421 8.41421 9.5 8 9.5C7.58579 9.5 7.25 9.16421 7.25 8.75C7.25 8.33579 7.58579 8 8 8Z" fill="#292A2E"/>
</svg>
