<svg width="16" height="16" viewBox="0 0 16 16" fill="none" xmlns="http://www.w3.org/2000/svg">
<path fill-rule="evenodd" clip-rule="evenodd" d="M6 2.5C5.72386 2.5 5.5 2.72386 5.5 3V4H10.5V3C10.5 2.72386 10.2761 2.5 10 2.5H6ZM12 4V3C12 1.89543 11.1046 1 10 1H6C4.89543 1 4 1.89543 4 3V4H3C1.89543 4 1 4.89543 1 6V13C1 14.1046 1.89543 15 3 15H13C14.1046 15 15 14.1046 15 13V6C15 4.89543 14.1046 4 13 4H12ZM3 5.5C2.72386 5.5 2.5 5.72386 2.5 6V8H13.5V6C13.5 5.72386 13.2761 5.5 13 5.5H3ZM13.5 9.5H8.75V11H7.25V9.5H2.5V13C2.5 13.2761 2.72386 13.5 3 13.5H13C13.2761 13.5 13.5 13.2761 13.5 13V9.5Z" fill="#292A2E"/>
</svg>
