<svg width="16" height="16" viewBox="0 0 16 16" fill="none" xmlns="http://www.w3.org/2000/svg">
<path d="M1.75 8.75V13C1.75 13.6904 2.30964 14.25 3 14.25H13C13.6904 14.25 14.25 13.6904 14.25 13V8.75M1.75 8.75V6C1.75 5.30964 2.30964 4.75 3 4.75H4.75M1.75 8.75H8M14.25 8.75V6C14.25 5.30964 13.6904 4.75 13 4.75H11.25M14.25 8.75H8M8 8.75V11M4.75 4.75V3C4.75 2.30964 5.30964 1.75 6 1.75H10C10.6904 1.75 11.25 2.30964 11.25 3V4.75M4.75 4.75H11.25" stroke="#44546F" stroke-width="1.5" stroke-linejoin="round"/>
</svg>
