<svg width="16" height="16" viewBox="0 0 16 16" fill="none" xmlns="http://www.w3.org/2000/svg">
<path fill-rule="evenodd" clip-rule="evenodd" d="M8 2.5C7.17157 2.5 6.5 3.17157 6.5 4H9.5C9.5 3.17157 8.82843 2.5 8 2.5ZM11 4.02074V4C11 2.34315 9.65685 1 8 1C6.34315 1 5 2.34315 5 4V4.02074C4.70952 4.06947 4.44734 4.2017 4.239 4.39189L3.35231 3.75855L2.43536 1.6954L1.06464 2.3046L2.00928 4.43004C2.0999 4.63393 2.24344 4.80985 2.425 4.93953L3.75 5.88596V7H0.5V8.5H3.75V9.64872L2.60021 10.6069C2.46773 10.7173 2.35953 10.8539 2.28241 11.0081L1.07918 13.4146L2.42082 14.0854L3.60066 11.7257L4.06124 11.3419C4.69682 12.9183 6.23827 14 8.00146 14H8.25C9.96908 14 11.4349 12.9156 12.0006 11.3934L12.3993 11.7257L13.5792 14.0854L14.9208 13.4146L13.7176 11.0081C13.6405 10.8539 13.5323 10.7173 13.3998 10.6069L12.25 9.64872V8.5H15.5V7H12.25V5.88596L13.575 4.93953C13.7566 4.80985 13.9001 4.63393 13.9907 4.43004L14.9354 2.3046L13.5646 1.6954L12.6477 3.75855L11.761 4.39189C11.5527 4.2017 11.2905 4.06947 11 4.02074ZM10.75 10V5.5H5.25V9.94265L5.28488 10.1694C5.49117 11.5102 6.64486 12.5 8.00146 12.5H8.25C9.63071 12.5 10.75 11.3807 10.75 10Z" fill="#292A2E"/>
</svg>
