<svg width="16" height="16" viewBox="0 0 16 16" fill="none" xmlns="http://www.w3.org/2000/svg">
<path d="M5.75 4.75V4C5.75 2.75736 6.75736 1.75 8 1.75V1.75C9.24264 1.75 10.25 2.75736 10.25 4V4.75M11.5 5.5V5.5C11.5 5.08579 11.1642 4.75 10.75 4.75H8H5.25C4.83579 4.75 4.5 5.08579 4.5 5.5V5.5M11.5 5.5L13.1391 4.32923C13.2117 4.27736 13.2691 4.20699 13.3054 4.12543L14.25 2M11.5 5.5V7.75M4.5 5.5L2.86092 4.32923C2.7883 4.27736 2.73088 4.20699 2.69464 4.12543L1.75 2M4.5 5.5V7.75M11.5 7.75H15.5M11.5 7.75V10M4.5 7.75H0.5M4.5 7.75V10M11.5 10V10C11.5 11.7949 10.0449 13.25 8.25 13.25H8.00146C6.27469 13.25 4.80618 11.9901 4.54361 10.2834L4.5 10M11.5 10L12.9197 11.183C12.9726 11.2272 13.0159 11.2819 13.0468 11.3435L14.25 13.75M4.5 10L3.08035 11.183C3.02736 11.2272 2.98407 11.2819 2.95323 11.3435L1.75 13.75" stroke="#44546F" stroke-width="1.5" stroke-linejoin="round"/>
</svg>
