<svg width="16" height="16" viewBox="0 0 16 16" fill="none" xmlns="http://www.w3.org/2000/svg">
<path d="M2.75 2.75C2.75 3.02614 2.52614 3.25 2.25 3.25C1.97386 3.25 1.75 3.02614 1.75 2.75C1.75 2.47386 1.97386 2.25 2.25 2.25C2.52614 2.25 2.75 2.47386 2.75 2.75Z" fill="#44546F"/>
<path d="M2.75 8C2.75 8.27614 2.52614 8.5 2.25 8.5C1.97386 8.5 1.75 8.27614 1.75 8C1.75 7.72386 1.97386 7.5 2.25 7.5C2.52614 7.5 2.75 7.72386 2.75 8Z" fill="#44546F"/>
<path d="M2.75 13.25C2.75 13.5261 2.52614 13.75 2.25 13.75C1.97386 13.75 1.75 13.5261 1.75 13.25C1.75 12.9739 1.97386 12.75 2.25 12.75C2.52614 12.75 2.75 12.9739 2.75 13.25Z" fill="#44546F"/>
<path d="M5 2.75L15 2.75M5 8L15 8M5 13.25L15 13.25M2.75 8C2.75 8.27614 2.52614 8.5 2.25 8.5C1.97386 8.5 1.75 8.27614 1.75 8C1.75 7.72386 1.97386 7.5 2.25 7.5C2.52614 7.5 2.75 7.72386 2.75 8ZM2.75 13.25C2.75 13.5261 2.52614 13.75 2.25 13.75C1.97386 13.75 1.75 13.5261 1.75 13.25C1.75 12.9739 1.97386 12.75 2.25 12.75C2.52614 12.75 2.75 12.9739 2.75 13.25ZM2.75 2.75C2.75 3.02614 2.52614 3.25 2.25 3.25C1.97386 3.25 1.75 3.02614 1.75 2.75C1.75 2.47386 1.97386 2.25 2.25 2.25C2.52614 2.25 2.75 2.47386 2.75 2.75Z" stroke="#44546F" stroke-width="1.5"/>
</svg>
