<svg width="16" height="16" viewBox="0 0 16 16" fill="none" xmlns="http://www.w3.org/2000/svg">
<path fill-rule="evenodd" clip-rule="evenodd" d="M4.5 2.5V4.5H6V2.5H10V4.5H11.5V2.5H13C13.2761 2.5 13.5 2.72386 13.5 3V6H2.5V3C2.5 2.72386 2.72386 2.5 3 2.5H4.5ZM2.5 7.5V13C2.5 13.2761 2.72386 13.5 3 13.5H13C13.2761 13.5 13.5 13.2761 13.5 13V7.5H2.5ZM11.5 1H13C14.1046 1 15 1.89543 15 3V13C15 14.1046 14.1046 15 13 15H3C1.89543 15 1 14.1046 1 13V3C1 1.89543 1.89543 1 3 1H4.5V0H6V1H10V0H11.5V1Z" fill="#44546F"/>
</svg>
