<svg width="16" height="16" viewBox="0 0 16 16" fill="none" xmlns="http://www.w3.org/2000/svg">
<path fill-rule="evenodd" clip-rule="evenodd" d="M5.4 0.8C5.54164 0.611146 5.76393 0.5 6 0.5H10C10.2361 0.5 10.4584 0.611146 10.6 0.8L11.875 2.5H13.25C14.7688 2.5 16 3.73122 16 5.25V12C16 13.1046 15.1046 14 14 14H2C0.895431 14 0 13.1046 0 12V5.25C0 3.73122 1.23122 2.5 2.75 2.5H4.125L5.4 0.8ZM6.375 2L5.1 3.7C4.95836 3.88885 4.73607 4 4.5 4H2.75C2.05964 4 1.5 4.55964 1.5 5.25V12C1.5 12.2761 1.72386 12.5 2 12.5H14C14.2761 12.5 14.5 12.2761 14.5 12V5.25C14.5 4.55964 13.9404 4 13.25 4H11.5C11.2639 4 11.0416 3.88885 10.9 3.7L9.625 2H6.375ZM8 6.5C7.0335 6.5 6.25 7.2835 6.25 8.25C6.25 9.2165 7.0335 10 8 10C8.9665 10 9.75 9.2165 9.75 8.25C9.75 7.2835 8.9665 6.5 8 6.5ZM4.75 8.25C4.75 6.45507 6.20507 5 8 5C9.79493 5 11.25 6.45507 11.25 8.25C11.25 10.0449 9.79493 11.5 8 11.5C6.20507 11.5 4.75 10.0449 4.75 8.25Z" fill="#292A2E"/>
</svg>
