<svg width="16" height="16" viewBox="0 0 16 16" fill="none" xmlns="http://www.w3.org/2000/svg">
<path d="M14 13.25H2C1.30964 13.25 0.75 12.6904 0.75 12V5.25C0.75 4.14543 1.64543 3.25 2.75 3.25H4.5L6 1.25H10L11.5 3.25H13.25C14.3546 3.25 15.25 4.14543 15.25 5.25V12C15.25 12.6904 14.6904 13.25 14 13.25Z" stroke="#44546F" stroke-width="1.5" stroke-linejoin="round"/>
<path d="M10.5 8.25C10.5 9.63071 9.38071 10.75 8 10.75C6.61929 10.75 5.5 9.63071 5.5 8.25C5.5 6.86929 6.61929 5.75 8 5.75C9.38071 5.75 10.5 6.86929 10.5 8.25Z" stroke="#44546F" stroke-width="1.5" stroke-linejoin="round"/>
</svg>
