<svg width="16" height="16" viewBox="0 0 16 16" fill="none" xmlns="http://www.w3.org/2000/svg">
<path fill-rule="evenodd" clip-rule="evenodd" d="M3 2.5C2.72386 2.5 2.5 2.72386 2.5 3V6H1V3C1 1.89543 1.89543 1 3 1H6V2.5H3ZM13 2.5H10V1H13C14.1046 1 15 1.89543 15 3V6H13.5V3C13.5 2.72386 13.2761 2.5 13 2.5ZM8 6.25C7.0335 6.25 6.25 7.0335 6.25 8C6.25 8.9665 7.0335 9.75 8 9.75C8.9665 9.75 9.75 8.9665 9.75 8C9.75 7.0335 8.9665 6.25 8 6.25ZM4.75 8C4.75 6.20507 6.20507 4.75 8 4.75C9.79493 4.75 11.25 6.20507 11.25 8C11.25 9.79493 9.79493 11.25 8 11.25C6.20507 11.25 4.75 9.79493 4.75 8ZM2.5 10V13C2.5 13.2761 2.72386 13.5 3 13.5H6V15H3C1.89543 15 1 14.1046 1 13V10H2.5ZM13.5 13V10H15V13C15 14.1046 14.1046 15 13 15H10V13.5H13C13.2761 13.5 13.5 13.2761 13.5 13Z" fill="#292A2E"/>
</svg>
