<svg width="16" height="16" viewBox="0 0 16 16" fill="none" xmlns="http://www.w3.org/2000/svg">
<path fill-rule="evenodd" clip-rule="evenodd" d="M1 13C1 14.1046 1.89543 15 3 15H13C14.1046 15 15 14.1046 15 13V3C15 1.89543 14.1046 1 13 1H3C1.89543 1 1 1.89543 1 3V13ZM3 13.5C2.72386 13.5 2.5 13.2761 2.5 13V9H13.5V13C13.5 13.2761 13.2761 13.5 13 13.5H3ZM13.5 7.5H2.5V3C2.5 2.72386 2.72386 2.5 3 2.5H13C13.2761 2.5 13.5 2.72386 13.5 3V7.5ZM4 12H9V10.5H4V12ZM10.5 12H12V10.5H10.5V12Z" fill="#44546F"/>
</svg>
