<svg width="16" height="16" viewBox="0 0 16 16" fill="none" xmlns="http://www.w3.org/2000/svg">
<path d="M0.75 2C0.335786 2 0 2.33579 0 2.75V13.25C5.15408e-07 13.6642 0.335787 14 0.75 14H15.25C15.6642 14 16 13.6642 16 13.25V2.75C16 2.33579 15.6642 2 15.25 2H0.75ZM14.5 12.5H1.5V3.5H14.5V12.5ZM12 9V11.5H13.5V9H12ZM7 8C7.00002 6.98528 7.61221 6.5 8 6.5C8.38779 6.5 8.99998 6.98528 9 8C9 9.01476 8.38779 9.5 8 9.5C7.61221 9.5 7 9.01476 7 8ZM2.5 4.5V7H4V4.5H2.5ZM5.5 8C5.5 9.47052 6.4548 11 8 11C9.5452 11 10.5 9.47052 10.5 8C10.5 6.5295 9.54518 5 8 5C6.45482 5 5.50003 6.5295 5.5 8Z" fill="#292A2E"/>
</svg>
