<svg width="16" height="16" viewBox="0 0 16 16" fill="none" xmlns="http://www.w3.org/2000/svg">
<path fill-rule="evenodd" clip-rule="evenodd" d="M16 2.74994C16 2.33573 15.6642 1.99994 15.25 1.99994H0.75C0.335787 1.99994 0 2.33573 0 2.74994V13.2499C0 13.6642 0.335787 13.9999 0.75 13.9999H15.25C15.6642 13.9999 16 13.6642 16 13.2499V2.74994ZM14.5 3.49994V12.4999H1.5V3.49994H14.5ZM4 7V4.5H2.5V7H4ZM10.5 8C10.5 6.52948 9.5452 5 8 5C6.4548 5 5.5 6.52948 5.5 8C5.5 9.47052 6.4548 11 8 11C9.5452 11 10.5 9.47052 10.5 8ZM8 6.5C8.38779 6.5 9 6.98524 9 8C9 9.01476 8.38779 9.5 8 9.5C7.61221 9.5 7 9.01476 7 8C7 6.98524 7.61221 6.5 8 6.5ZM13.5 11.5V9H12V11.5H13.5Z" fill="#44546F"/>
</svg>
