<svg width="16" height="16" viewBox="0 0 16 16" fill="none" xmlns="http://www.w3.org/2000/svg">
<path d="M8 4.25C8 5.07843 7.32843 5.75 6.5 5.75C5.67157 5.75 5 5.07843 5 4.25C5 3.42157 5.67157 2.75 6.5 2.75C7.32843 2.75 8 3.42157 8 4.25Z" fill="#44546F"/>
<path d="M13.25 8C13.25 8.55228 12.8023 9 12.25 9C11.6977 9 11.25 8.55228 11.25 8C11.25 7.44772 11.6977 7 12.25 7C12.8023 7 13.25 7.44772 13.25 8Z" fill="#44546F"/>
<path d="M7.75 10.25C7.75 10.6642 7.41421 11 7 11C6.58579 11 6.25 10.6642 6.25 10.25C6.25 9.83579 6.58579 9.5 7 9.5C7.41421 9.5 7.75 9.83579 7.75 10.25Z" fill="#44546F"/>
<path d="M1.75 1V13C1.75 13.6904 2.30964 14.25 3 14.25H15M8 4.25C8 5.07843 7.32843 5.75 6.5 5.75C5.67157 5.75 5 5.07843 5 4.25C5 3.42157 5.67157 2.75 6.5 2.75C7.32843 2.75 8 3.42157 8 4.25ZM13.25 8C13.25 8.55228 12.8023 9 12.25 9C11.6977 9 11.25 8.55228 11.25 8C11.25 7.44772 11.6977 7 12.25 7C12.8023 7 13.25 7.44772 13.25 8ZM7.75 10.25C7.75 10.6642 7.41421 11 7 11C6.58579 11 6.25 10.6642 6.25 10.25C6.25 9.83579 6.58579 9.5 7 9.5C7.41421 9.5 7.75 9.83579 7.75 10.25Z" stroke="#44546F" stroke-width="1.5"/>
</svg>
