<svg width="16" height="16" viewBox="0 0 16 16" fill="none" xmlns="http://www.w3.org/2000/svg">
<path fill-rule="evenodd" clip-rule="evenodd" d="M9.33333 1.75C9.33333 1.33579 9.66912 1 10.0833 1H14.25C14.6642 1 15 1.33579 15 1.75V13C15 14.1046 14.1046 15 13 15H3C1.89543 15 1 14.1046 1 13V9.75C1 9.33579 1.33579 9 1.75 9H5.16667V5.75C5.16667 5.33579 5.50245 5 5.91667 5H9.33333V1.75ZM9.33333 6.5H6.66667V13.5H9.33333V6.5ZM10.8333 13.5H13C13.2761 13.5 13.5 13.2761 13.5 13V2.5H10.8333V13.5ZM5.16667 13.5V10.5H2.5V13C2.5 13.2761 2.72386 13.5 3 13.5H5.16667Z" fill="#292A2E"/>
</svg>
