<svg width="16" height="16" viewBox="0 0 16 16" fill="none" xmlns="http://www.w3.org/2000/svg">
<path d="M1 13V1H2.5V13C2.5 13.2761 2.72386 13.5 3 13.5H15V15H3C1.89543 15 1 14.1046 1 13Z" fill="#292A2E"/>
<path d="M15 6H13.5V7.93945L9.78027 4.21973C9.48738 3.92683 9.01262 3.92683 8.71973 4.21973L7.25 5.68945L5.03027 3.46973L3.96973 4.53027L6.71973 7.28027L6.77637 7.33203C7.07095 7.57234 7.50567 7.55488 7.78027 7.28027L9.25 5.81055L12.4395 9H10.5V10.5H14.25C14.6642 10.5 15 10.1642 15 9.75V6Z" fill="#292A2E"/>
</svg>
