<svg width="16" height="16" viewBox="0 0 16 16" fill="none" xmlns="http://www.w3.org/2000/svg">
<path d="M1 13V1H2.5V13C2.5 13.2761 2.72386 13.5 3 13.5H15V15H3C1.89543 15 1 14.1046 1 13Z" fill="#292A2E"/>
<path d="M15 7.5H13.5V5.56055L9.78027 9.28027C9.48738 9.57317 9.01262 9.57317 8.71973 9.28027L7.25 7.81055L5.03027 10.0303L3.96973 8.96973L6.71973 6.21973L6.77637 6.16797C7.07095 5.92766 7.50567 5.94512 7.78027 6.21973L9.25 7.68945L12.4395 4.5H10.5V3H14.25C14.6642 3 15 3.33579 15 3.75V7.5Z" fill="#292A2E"/>
</svg>
