<svg width="16" height="16" viewBox="0 0 16 16" fill="none" xmlns="http://www.w3.org/2000/svg">
<path d="M1 13V1H2.5V13C2.5 13.2761 2.72386 13.5 3 13.5H15V15H3C1.89543 15 1 14.1046 1 13Z" fill="#292A2E"/>
<path d="M11.2656 9.00684C11.959 9.07726 12.5 9.66307 12.5 10.375C12.5 11.1344 11.8844 11.75 11.125 11.75C10.4131 11.75 9.82726 11.209 9.75684 10.5156L9.75 10.375L9.75684 10.2344C9.82726 9.54103 10.4131 9 11.125 9L11.2656 9.00684Z" fill="#292A2E"/>
<path d="M5.75 6.5C6.7165 6.5 7.5 7.2835 7.5 8.25C7.5 9.2165 6.7165 10 5.75 10C4.7835 10 4 9.2165 4 8.25C4 7.2835 4.7835 6.5 5.75 6.5Z" fill="#292A2E"/>
<path d="M10.5 1.5C11.8807 1.5 13 2.61929 13 4C13 5.38071 11.8807 6.5 10.5 6.5C9.11929 6.5 8 5.38071 8 4C8 2.61929 9.11929 1.5 10.5 1.5Z" fill="#292A2E"/>
</svg>
