<svg width="16" height="16" viewBox="0 0 16 16" fill="none" xmlns="http://www.w3.org/2000/svg">
<path d="M1 13V1H2.5V13C2.5 13.2761 2.72386 13.5 3 13.5H15V15H3C1.89543 15 1 14.1046 1 13Z" fill="#292A2E"/>
<path d="M5.25 8.5L5.32715 8.50391C5.70512 8.54253 6 8.86183 6 9.25V11.75C6 12.1642 5.66421 12.5 5.25 12.5H4.25C3.83579 12.5 3.5 12.1642 3.5 11.75V9.25C3.5 8.83579 3.83579 8.5 4.25 8.5H5.25ZM9.25 5C9.66421 5 10 5.33579 10 5.75V11.75C10 12.1642 9.66421 12.5 9.25 12.5H8.25C7.83579 12.5 7.5 12.1642 7.5 11.75V5.75C7.5 5.33579 7.83579 5 8.25 5H9.25ZM13.25 2C13.6642 2 14 2.33579 14 2.75V11.75C14 12.1642 13.6642 12.5 13.25 12.5H12.25C11.8358 12.5 11.5 12.1642 11.5 11.75V2.75C11.5 2.33579 11.8358 2 12.25 2H13.25Z" fill="#292A2E"/>
</svg>
