<svg width="16" height="16" viewBox="0 0 16 16" fill="none" xmlns="http://www.w3.org/2000/svg">
<path d="M8 4.25C8 5.07843 7.32843 5.75 6.5 5.75C5.67157 5.75 5 5.07843 5 4.25C5 3.42157 5.67157 2.75 6.5 2.75C7.32843 2.75 8 3.42157 8 4.25Z" fill="#292A2E"/>
<path d="M13.25 8C13.25 8.55228 12.8023 9 12.25 9C11.6977 9 11.25 8.55228 11.25 8C11.25 7.44772 11.6977 7 12.25 7C12.8023 7 13.25 7.44772 13.25 8Z" fill="#292A2E"/>
<path d="M7.75 10.25C7.75 10.6642 7.41421 11 7 11C6.58579 11 6.25 10.6642 6.25 10.25C6.25 9.83579 6.58579 9.5 7 9.5C7.41421 9.5 7.75 9.83579 7.75 10.25Z" fill="#292A2E"/>
<path fill-rule="evenodd" clip-rule="evenodd" d="M1 13V1H2.5V13C2.5 13.2761 2.72386 13.5 3 13.5H15V15H3C1.89543 15 1 14.1046 1 13ZM6.5 3.5C6.08579 3.5 5.75 3.83579 5.75 4.25C5.75 4.66421 6.08579 5 6.5 5C6.91421 5 7.25 4.66421 7.25 4.25C7.25 3.83579 6.91421 3.5 6.5 3.5ZM4.25 4.25C4.25 3.00736 5.25736 2 6.5 2C7.74264 2 8.75 3.00736 8.75 4.25C8.75 5.49264 7.74264 6.5 6.5 6.5C5.25736 6.5 4.25 5.49264 4.25 4.25ZM12.25 7.75C12.1119 7.75 12 7.86193 12 8C12 8.13807 12.1119 8.25 12.25 8.25C12.3881 8.25 12.5 8.13807 12.5 8C12.5 7.86193 12.3881 7.75 12.25 7.75ZM10.5 8C10.5 7.0335 11.2835 6.25 12.25 6.25C13.2165 6.25 14 7.0335 14 8C14 8.9665 13.2165 9.75 12.25 9.75C11.2835 9.75 10.5 8.9665 10.5 8ZM5.5 10.25C5.5 9.42157 6.17157 8.75 7 8.75C7.82843 8.75 8.5 9.42157 8.5 10.25C8.5 11.0784 7.82843 11.75 7 11.75C6.17157 11.75 5.5 11.0784 5.5 10.25Z" fill="#292A2E"/>
</svg>
