<svg width="16" height="16" viewBox="0 0 16 16" fill="none" xmlns="http://www.w3.org/2000/svg">
<path fill-rule="evenodd" clip-rule="evenodd" d="M2 2C2 0.895431 2.89543 0 4 0H12C13.1046 0 14 0.89543 14 2V9H12.5V5.5H3.5V12C3.5 12.2761 3.72386 12.5 4 12.5H9V14H4C2.89543 14 2 13.1046 2 12V2ZM3.5 4H12.5V2C12.5 1.72386 12.2761 1.5 12 1.5H4C3.72386 1.5 3.5 1.72386 3.5 2V4ZM13.25 12C12.5596 12 12 12.5596 12 13.25C12 13.9404 12.5596 14.5 13.25 14.5C13.9404 14.5 14.5 13.9404 14.5 13.25C14.5 12.5596 13.9404 12 13.25 12ZM10.5 13.25C10.5 11.7312 11.7312 10.5 13.25 10.5C14.7688 10.5 16 11.7312 16 13.25C16 14.7688 14.7688 16 13.25 16C11.7312 16 10.5 14.7688 10.5 13.25Z" fill="#44546F"/>
</svg>
