<svg width="16" height="16" viewBox="0 0 16 16" fill="none" xmlns="http://www.w3.org/2000/svg">
<path d="M2.75 4.75V12C2.75 12.6904 3.30964 13.25 4 13.25H9M2.75 4.75V2C2.75 1.30964 3.30964 0.75 4 0.75H12C12.6904 0.75 13.25 1.30964 13.25 2V4.75M2.75 4.75H13.25M13.25 4.75V9M15.25 13.25C15.25 14.3546 14.3546 15.25 13.25 15.25C12.1454 15.25 11.25 14.3546 11.25 13.25C11.25 12.1454 12.1454 11.25 13.25 11.25C14.3546 11.25 15.25 12.1454 15.25 13.25Z" stroke="#44546F" stroke-width="1.5" stroke-linejoin="round"/>
</svg>
