<svg width="16" height="16" viewBox="0 0 16 16" fill="none" xmlns="http://www.w3.org/2000/svg">
<path d="M14.5 8C14.5 4.41015 11.5899 1.5 8 1.5C4.41015 1.5 1.5 4.41015 1.5 8C1.5 11.5899 4.41015 14.5 8 14.5C11.5899 14.5 14.5 11.5899 14.5 8ZM12.3262 5.48047L7.32617 11.4805C7.18368 11.6513 6.9725 11.75 6.75 11.75C6.5275 11.75 6.31632 11.6513 6.17383 11.4805L3.67383 8.48047L4.82617 7.51953L6.75 9.82812L11.1738 4.51953L12.3262 5.48047ZM16 8C16 12.4183 12.4183 16 8 16C3.58172 16 0 12.4183 0 8C0 3.58172 3.58172 0 8 0C12.4183 0 16 3.58172 16 8Z" fill="#44546F"/>
</svg>
