<svg width="16" height="16" viewBox="0 0 16 16" fill="none" xmlns="http://www.w3.org/2000/svg">
<path d="M8.5 13.5H13.5V11H8.5V13.5ZM8.5 6.5H13.5V4H8.5V6.5ZM15 6.75C15 7.44036 14.4404 8 13.75 8H8.25C7.55964 8 7 7.44036 7 6.75V6H2.5V11C2.5 11.2761 2.72386 11.5 3 11.5H7V10.75C7 10.0596 7.55964 9.5 8.25 9.5H13.75C14.4404 9.5 15 10.0596 15 10.75V13.75C15 14.4404 14.4404 15 13.75 15H8.25C7.55964 15 7 14.4404 7 13.75V13H3C1.89543 13 1 12.1046 1 11V1H2.5V4.5H7V3.75C7 3.05964 7.55964 2.5 8.25 2.5H13.75C14.4404 2.5 15 3.05964 15 3.75V6.75Z" fill="#292A2E"/>
</svg>
