<svg width="16" height="16" viewBox="0 0 16 16" fill="none" xmlns="http://www.w3.org/2000/svg">
<path fill-rule="evenodd" clip-rule="evenodd" d="M2.5 4.5V1H1V11C1 12.1046 1.89543 13 3 13H7V13.75C7 14.4404 7.55964 15 8.25 15H13.75C14.4404 15 15 14.4404 15 13.75V10.75C15 10.0596 14.4404 9.5 13.75 9.5H8.25C7.55964 9.5 7 10.0596 7 10.75V11.5H3C2.72386 11.5 2.5 11.2761 2.5 11V6H7V6.75C7 7.44036 7.55964 8 8.25 8H13.75C14.4404 8 15 7.44036 15 6.75V3.75C15 3.05964 14.4404 2.5 13.75 2.5H8.25C7.55964 2.5 7 3.05964 7 3.75V4.5H2.5ZM8.5 4V6.5H13.5V4H8.5ZM8.5 11V13.5H13.5V11H8.5Z" fill="#44546F"/>
</svg>
