<svg width="16" height="16" viewBox="0 0 16 16" fill="none" xmlns="http://www.w3.org/2000/svg">
<path d="M7.75 12.25V13.75C7.75 14.0261 7.97386 14.25 8.25 14.25H13.75C14.0261 14.25 14.25 14.0261 14.25 13.75V10.75C14.25 10.4739 14.0261 10.25 13.75 10.25H8.25C7.97386 10.25 7.75 10.4739 7.75 10.75V12.25ZM7.75 12.25H3C2.30964 12.25 1.75 11.6904 1.75 11V5.25M1.75 1V5.25M7.75 5.25V6.75C7.75 7.02614 7.97386 7.25 8.25 7.25H13.75C14.0261 7.25 14.25 7.02614 14.25 6.75V3.75C14.25 3.47386 14.0261 3.25 13.75 3.25H8.25C7.97386 3.25 7.75 3.47386 7.75 3.75V5.25ZM7.75 5.25H1.75" stroke="#44546F" stroke-width="1.5" stroke-linejoin="round"/>
</svg>
