<svg width="16" height="16" viewBox="0 0 16 16" fill="none" xmlns="http://www.w3.org/2000/svg">
<path fill-rule="evenodd" clip-rule="evenodd" d="M4.56301 1.5C4.78503 0.637386 5.56808 0 6.5 0H9.5C10.4319 0 11.215 0.637386 11.437 1.5H12.5C13.6046 1.5 14.5 2.39543 14.5 3.5V14C14.5 15.1046 13.6046 16 12.5 16H3.5C2.39543 16 1.5 15.1046 1.5 14V3.5C1.5 2.39543 2.39543 1.5 3.5 1.5H4.56301ZM4.5 3H3.5C3.22386 3 3 3.22386 3 3.5V14C3 14.2761 3.22386 14.5 3.5 14.5H12.5C12.7761 14.5 13 14.2761 13 14V3.5C13 3.22386 12.7761 3 12.5 3H11.5V4.25C11.5 4.66421 11.1642 5 10.75 5H5.25C4.83579 5 4.5 4.66421 4.5 4.25V3ZM6.5 1.5C6.22386 1.5 6 1.72386 6 2V3.5H10V2C10 1.72386 9.77614 1.5 9.5 1.5H6.5Z" fill="#44546F"/>
</svg>
