<svg width="16" height="16" viewBox="0 0 16 16" fill="none" xmlns="http://www.w3.org/2000/svg">
<path fill-rule="evenodd" clip-rule="evenodd" d="M8 3C5.77041 3 3.94117 4.71739 3.76409 6.90093C3.73811 7.22123 3.51098 7.48938 3.19932 7.56769C2.22249 7.81315 1.5 8.69814 1.5 9.75C1.5 10.9926 2.50736 12 3.75 12V13.5C1.67893 13.5 0 11.8211 0 9.75C0 8.18005 0.964193 6.8368 2.33198 6.27762C2.79429 3.56475 5.15568 1.5 8 1.5C10.6826 1.5 12.9349 3.33631 13.5707 5.82041C14.9985 6.43072 16 7.8476 16 9.5C16 11.7091 14.2091 13.5 12 13.5V12C13.3807 12 14.5 10.8807 14.5 9.5C14.5 8.36765 13.7466 7.40932 12.712 7.10266C12.439 7.02173 12.2354 6.79317 12.1864 6.51266C11.8377 4.51699 10.0953 3 8 3ZM8.00019 7C8.19911 7 8.38988 7.07903 8.53053 7.21969L11.5303 10.2197L10.4697 11.2803L8.75018 9.56074V16H7.25018V9.56066L5.53051 11.2803L4.46985 10.2197L7.46985 7.21967C7.61051 7.07901 7.80128 7 8.00019 7Z" fill="#292A2E"/>
</svg>
