<svg width="16" height="16" viewBox="0 0 16 16" fill="none" xmlns="http://www.w3.org/2000/svg">
<path d="M4.42873 3.18056L4.64587 3.89844L5.0038 3.79017L5.13274 3.43917L4.42873 3.18056ZM10.6787 3.99074L9.95567 4.18995L10.1074 4.74074H10.6787V3.99074ZM8.00018 8.75L8.53053 8.21969C8.38988 8.07903 8.19911 8 8.00019 8C7.80128 8 7.61051 8.07901 7.46985 8.21967L8.00018 8.75ZM10.4047 2.99595L11.1277 2.79674L10.4047 2.99595ZM2.50008 6.50003L2.50009 6.01831L1.00009 6.01826L1.00008 6.49997L2.50008 6.50003ZM3.90801 4.12162L4.64587 3.89844L4.2116 2.46268L3.47373 2.68586L3.90801 4.12162ZM5.13274 3.43917L5.28953 3.01234L3.88153 2.49512L3.72473 2.92194L5.13274 3.43917ZM9.6816 3.19517L9.95567 4.18995L11.4018 3.79153L11.1277 2.79674L9.6816 3.19517ZM10.6787 4.74074H11.8705V3.24074H10.6787V4.74074ZM13.5002 6.37037V6.49984H15.0002V6.37037H13.5002ZM5.53051 12.2803L8.53051 9.28033L7.46985 8.21967L4.46985 11.2197L5.53051 12.2803ZM7.46984 9.28031L10.4697 12.2803L11.5303 11.2197L8.53053 8.21969L7.46984 9.28031ZM7.25018 9.25V16H8.75018V9.25H7.25018ZM13.5002 6.49984C13.5002 7.32836 12.8285 8 12 8V9.5C13.6569 9.5 15.0002 8.15678 15.0002 6.49984H13.5002ZM7.45624 1.5C8.49494 1.5 9.40571 2.19378 9.6816 3.19517L11.1277 2.79674C10.6725 1.14462 9.16992 0 7.45624 0V1.5ZM5.28953 3.01234C5.62327 2.10383 6.48836 1.5 7.45624 1.5V0C5.8594 0 4.43214 0.996212 3.88153 2.49512L5.28953 3.01234ZM11.8705 4.74074C12.7706 4.74074 13.5002 5.47035 13.5002 6.37037H15.0002C15.0002 4.64192 13.599 3.24074 11.8705 3.24074V4.74074ZM2.50009 6.01831C2.50012 5.14489 3.07199 4.37448 3.90801 4.12162L3.47373 2.68586C2.0049 3.13013 1.00015 4.4837 1.00009 6.01826L2.50009 6.01831ZM4 8C3.1716 8 2.50005 7.32843 2.50008 6.50003L1.00008 6.49997C1.00002 8.15683 2.34315 9.5 4 9.5V8Z" fill="#44546F"/>
</svg>
