<svg width="16" height="16" viewBox="0 0 16 16" fill="none" xmlns="http://www.w3.org/2000/svg">
<path d="M4 8.75V8.75C2.75737 8.75 1.75003 7.74263 1.75008 6.5L1.75009 6.01828C1.75013 4.81429 2.53845 3.75231 3.69087 3.40374L4.42873 3.18056L4.58553 2.75373C5.02771 1.55002 6.17388 0.75 7.45624 0.75V0.75C8.83243 0.75 10.0391 1.6692 10.4047 2.99595L10.6787 3.99074H11.8705C13.1848 3.99074 14.2502 5.05614 14.2502 6.37037V6.49984C14.2502 7.74257 13.2427 8.75 12 8.75V8.75M8.00018 8.75V16" stroke="#44546F" stroke-width="1.5"/>
<path d="M5.00018 11.75L8.00018 8.75L11 11.75" stroke="#44546F" stroke-width="1.5" stroke-linejoin="round"/>
</svg>
