<svg width="16" height="16" viewBox="0 0 16 16" fill="none" xmlns="http://www.w3.org/2000/svg">
<path d="M0 7.25L16 7.25V8.75H6.55672e-08L0 7.25ZM7.46973 9.96973C7.61038 9.82907 7.80109 9.75 8 9.75C8.19891 9.75 8.38962 9.82907 8.53027 9.96973L11.7803 13.2197L10.7197 14.2803L8.75 12.3105V16H7.25L7.25 12.3105L5.28027 14.2803L4.21973 13.2197L7.46973 9.96973ZM5.28027 1.71973L7.25 3.68945L7.25 6.55673e-08L8.75 0V3.68945L10.7197 1.71973L11.7803 2.78027L8.53027 6.03027C8.23738 6.32317 7.76262 6.32317 7.46973 6.03027L4.21973 2.78027L5.28027 1.71973Z" fill="#292A2E"/>
</svg>
