<svg width="16" height="16" viewBox="0 0 16 16" fill="none" xmlns="http://www.w3.org/2000/svg">
<path fill-rule="evenodd" clip-rule="evenodd" d="M15 7.25L15 8.75L1 8.75L1 7.25L15 7.25ZM7.25 12.5607L6.03033 13.7803L4.96967 12.7197L7.46967 10.2197C7.61032 10.079 7.80109 10 8 10C8.19891 10 8.38968 10.079 8.53033 10.2197L11.0303 12.7197L9.96967 13.7803L8.75 12.5607L8.75 16L7.25 16L7.25 12.5607ZM7.46967 5.78033L4.96967 3.28033L6.03033 2.21967L7.25 3.43934L7.25 -2.73196e-07L8.75 -3.38763e-07L8.75 3.43934L9.96967 2.21967L11.0303 3.28033L8.53033 5.78033C8.23744 6.07322 7.76256 6.07322 7.46967 5.78033Z" fill="#44546F"/>
</svg>
