<svg width="16" height="16" viewBox="0 0 16 16" fill="none" xmlns="http://www.w3.org/2000/svg">
<path fill-rule="evenodd" clip-rule="evenodd" d="M2.625 2C2.00368 2 1.5 2.50368 1.5 3.125V13.9576L4.05083 12.5H13.375C13.9963 12.5 14.5 11.9963 14.5 11.375V3.125C14.5 2.50368 13.9963 2 13.375 2H2.625ZM0 3.125C0 1.67525 1.17525 0.5 2.625 0.5H13.375C14.8247 0.5 16 1.67525 16 3.125V11.375C16 12.8247 14.8247 14 13.375 14H4.44917L1.1221 15.9012C0.889977 16.0338 0.604791 16.0329 0.373555 15.8987C0.142319 15.7645 0 15.5174 0 15.25V3.125ZM7.25003 6.50024V4.25024H8.75003V6.50024H11V8.00024H8.75003V10.2502H7.25003V8.00024H5.00003V6.50024H7.25003Z" fill="#44546F"/>
</svg>
