<svg width="16" height="16" viewBox="0 0 16 16" fill="none" xmlns="http://www.w3.org/2000/svg">
<path fill-rule="evenodd" clip-rule="evenodd" d="M7.25 5.35352C6.09575 5.67998 5.25 6.74122 5.25 8C5.25 9.25878 6.09575 10.32 7.25 10.6465V16H8.75V10.6465C9.90425 10.32 10.75 9.25878 10.75 8C10.75 6.74122 9.90425 5.67998 8.75 5.35352V0H7.25V5.35352ZM8 6.75C7.30964 6.75 6.75 7.30964 6.75 8C6.75 8.69036 7.30964 9.25 8 9.25C8.69036 9.25 9.25 8.69036 9.25 8C9.25 7.30964 8.69036 6.75 8 6.75Z" fill="#292A2E"/>
</svg>
