<svg width="16" height="16" viewBox="0 0 16 16" fill="none" xmlns="http://www.w3.org/2000/svg">
<path d="M6 12.2502V11.5002H5.77851L5.59256 11.6206L6 12.2502ZM1.75 15.0002H1C1 15.275 1.15024 15.5278 1.39159 15.6591C1.63294 15.7904 1.92676 15.7792 2.15744 15.6299L1.75 15.0002ZM13 11.5002H6V13.0002H13V11.5002ZM5.59256 11.6206L1.34256 14.3706L2.15744 15.6299L6.40744 12.8799L5.59256 11.6206ZM2.5 15.0002V3.00024H1V15.0002H2.5ZM10 3.75049L13 3.75049L13 2.25049L10 2.25049L10 3.75049ZM13 3.75049H16V2.25049H13V3.75049ZM12.25 0.000488281V3.00049H13.75V0.000488281H12.25ZM12.25 3.00049V6.00049H13.75V3.00049H12.25ZM3 2.50024H7.5V1.00024H3V2.50024ZM13.5 8.50024V11.0002H15V8.50024H13.5ZM13 13.0002C14.1046 13.0002 15 12.1048 15 11.0002H13.5C13.5 11.2764 13.2761 11.5002 13 11.5002V13.0002ZM2.5 3.00024C2.5 2.7241 2.72386 2.50024 3 2.50024V1.00024C1.89543 1.00024 1 1.89567 1 3.00024H2.5Z" fill="#44546F"/>
</svg>
