<svg width="16" height="16" viewBox="0 0 16 16" fill="none" xmlns="http://www.w3.org/2000/svg">
<path fill-rule="evenodd" clip-rule="evenodd" d="M8 1.5C4.41015 1.5 1.5 4.41015 1.5 8C1.5 11.5899 4.41015 14.5 8 14.5C11.5899 14.5 14.5 11.5899 14.5 8C14.5 4.41015 11.5899 1.5 8 1.5ZM0 8C0 3.58172 3.58172 0 8 0C12.4183 0 16 3.58172 16 8C16 12.4183 12.4183 16 8 16C3.58172 16 0 12.4183 0 8ZM11.7802 4.21943C11.9996 4.43886 12.0613 4.77078 11.9352 5.05436L9.93524 9.55436C9.85983 9.72403 9.72416 9.8597 9.55448 9.93511L5.05448 11.9351C4.7709 12.0612 4.43898 11.9995 4.21955 11.7801C4.00011 11.5606 3.93848 11.2287 4.06452 10.9452L6.06452 6.44515C6.13993 6.27548 6.2756 6.13981 6.44527 6.0644L10.9453 4.0644C11.2289 3.93836 11.5608 3.99999 11.7802 4.21943ZM6.99172 8.05226L7.94737 9.00791L6.22721 9.77243L6.99172 8.05226ZM9.00803 7.94725L8.05238 6.9916L9.77255 6.22708L9.00803 7.94725Z" fill="#292A2E"/>
</svg>
