<svg width="16" height="16" viewBox="0 0 16 16" fill="none" xmlns="http://www.w3.org/2000/svg">
<path fill-rule="evenodd" clip-rule="evenodd" d="M2 2.75C2 2.33579 2.33579 2 2.75 2H6.25C6.66421 2 7 2.33579 7 2.75V4.5H9V2.75C9 2.33579 9.33579 2 9.75 2H13.25C13.6642 2 14 2.33579 14 2.75V4.5C15.1046 4.5 16 5.39543 16 6.5V12C16 13.1046 15.1046 14 14 14H2C0.895431 14 0 13.1046 0 12V6.5C0 5.39543 0.895431 4.5 2 4.5V2.75ZM3.5 4.5H5.5V3.5H3.5V4.5ZM12.5 4.5V3.5H10.5V4.5H12.5ZM2 6C1.72386 6 1.5 6.22386 1.5 6.5V12C1.5 12.2761 1.72386 12.5 2 12.5H14C14.2761 12.5 14.5 12.2761 14.5 12V6.5C14.5 6.22386 14.2761 6 14 6H2Z" fill="#292A2E"/>
</svg>
