<svg width="16" height="16" viewBox="0 0 16 16" fill="none" xmlns="http://www.w3.org/2000/svg">
<path fill-rule="evenodd" clip-rule="evenodd" d="M15 2.5L1 2.5L1 1L15 1L15 2.5ZM10.5 6.5L10.5 9.5L13.5 9.5L13.5 6.5L10.5 6.5ZM10.375 5L13.625 5C14.3844 5 15 5.61561 15 6.375L15 9.625C15 10.3844 14.3844 11 13.625 11L10.375 11C9.61561 11 9 10.3844 9 9.625L9 6.375C9 5.61561 9.61561 5 10.375 5ZM7 6.66667L1 6.66667L1 5.16667L7 5.16667L7 6.66667ZM7 10.8333L1 10.8333L1 9.33334L7 9.33334L7 10.8333ZM15 15L1 15L1 13.5L15 13.5L15 15Z" fill="#292A2E"/>
</svg>
