<svg width="16" height="16" viewBox="0 0 16 16" fill="none" xmlns="http://www.w3.org/2000/svg">
<path fill-rule="evenodd" clip-rule="evenodd" d="M10 1L12.5 1C13.6046 1 14.5 1.89543 14.5 3V7.25L16 7.25V8.75L14.5 8.75V13C14.5 14.1046 13.6046 15 12.5 15H10V13.5H12.5C12.7761 13.5 13 13.2761 13 13L13 3C13 2.72386 12.7761 2.5 12.5 2.5L10 2.5V1ZM1.5 3C1.5 1.89543 2.39543 1 3.5 1H6V2.5H3.5C3.22386 2.5 3 2.72386 3 3V13C3 13.2761 3.22386 13.5 3.5 13.5H6V15H3.5C2.39543 15 1.5 14.1046 1.5 13V8.75H0V7.25H1.5V3Z" fill="#44546F"/>
</svg>
