<svg width="16" height="16" viewBox="0 0 16 16" fill="none" xmlns="http://www.w3.org/2000/svg">
<path fill-rule="evenodd" clip-rule="evenodd" d="M3 2.375C3 1.61561 3.61561 1 4.375 1H6.125C6.88439 1 7.5 1.61561 7.5 2.375V6.625C7.5 7.38439 6.88439 8 6.125 8H4.375C3.61561 8 3 7.38439 3 6.625V5.25H0V3.75H3V2.375ZM4.5 2.5V6.5H6V2.5H4.5ZM16 5.25H8.5V3.75H16V5.25ZM8.5 9.375C8.5 8.61561 9.11561 8 9.875 8H11.625C12.3844 8 13 8.61561 13 9.375V10.75H16V12.25H13V13.625C13 14.3844 12.3844 15 11.625 15H9.875C9.11561 15 8.5 14.3844 8.5 13.625V9.375ZM10 9.5V13.5H11.5V9.5H10ZM0 12.25V10.75H7.5V12.25H0Z" fill="#44546F"/>
</svg>
