<svg width="16" height="16" viewBox="0 0 16 16" fill="none" xmlns="http://www.w3.org/2000/svg">
<path d="M12.25 11.5V9.375C12.25 9.02982 11.9702 8.75 11.625 8.75H9.875C9.52982 8.75 9.25 9.02982 9.25 9.375V11.5V13.625C9.25 13.9702 9.52982 14.25 9.875 14.25H11.625C11.9702 14.25 12.25 13.9702 12.25 13.625V11.5ZM12.25 11.5H16M0 11.5H7.5M3.75 4.5V6.625C3.75 6.97018 4.02982 7.25 4.375 7.25H6.125C6.47018 7.25 6.75 6.97018 6.75 6.625V4.5V2.375C6.75 2.02982 6.47018 1.75 6.125 1.75H4.375C4.02982 1.75 3.75 2.02982 3.75 2.375V4.5ZM3.75 4.5H0M16 4.5H8.5" stroke="#44546F" stroke-width="1.5" stroke-linejoin="round"/>
</svg>
