<svg width="16" height="16" viewBox="0 0 16 16" fill="none" xmlns="http://www.w3.org/2000/svg">
<path d="M7.5 10.5V12H0V10.5H7.5ZM16 4V5.5H8.5V4H16ZM10.5 12.75H11.5V9.75H10.5V12.75ZM13 10.5H16V12H13V12.875C13 13.6344 12.3844 14.25 11.625 14.25H10.375C9.61561 14.25 9 13.6344 9 12.875V9.625C9 8.86561 9.61561 8.25 10.375 8.25H11.625C12.3844 8.25 13 8.86561 13 9.625V10.5ZM5.5 3.25H4.5V6.25H5.5V3.25ZM7 6.375C7 7.13439 6.38439 7.75 5.625 7.75H4.375C3.61561 7.75 3 7.13439 3 6.375V5.5H0V4H3V3.125C3 2.36561 3.61561 1.75 4.375 1.75H5.625C6.38439 1.75 7 2.36561 7 3.125V6.375Z" fill="#292A2E"/>
</svg>
