<svg width="16" height="16" viewBox="0 0 16 16" fill="none" xmlns="http://www.w3.org/2000/svg">
<path d="M3.75 8H7.75M3.75 8C3.75 8.82843 3.07843 9.5 2.25 9.5C1.42157 9.5 0.75 8.82843 0.75 8C0.75 7.17157 1.42157 6.5 2.25 6.5C3.07843 6.5 3.75 7.17157 3.75 8ZM12.25 8H7.75M12.25 8C12.25 8.82843 12.9216 9.5 13.75 9.5C14.5784 9.5 15.25 8.82843 15.25 8C15.25 7.17157 14.5784 6.5 13.75 6.5C12.9216 6.5 12.25 7.17157 12.25 8ZM12.25 13.75H9.5625C8.56148 13.75 7.75 12.9385 7.75 11.9375V8M12.25 13.75C12.25 14.5784 12.9216 15.25 13.75 15.25C14.5784 15.25 15.25 14.5784 15.25 13.75C15.25 12.9216 14.5784 12.25 13.75 12.25C12.9216 12.25 12.25 12.9216 12.25 13.75ZM12.25 2.25H9.5625C8.56148 2.25 7.75 3.06148 7.75 4.0625V8M12.25 2.25C12.25 3.07843 12.9216 3.75 13.75 3.75C14.5784 3.75 15.25 3.07843 15.25 2.25C15.25 1.42157 14.5784 0.75 13.75 0.75C12.9216 0.75 12.25 1.42157 12.25 2.25Z" stroke="#44546F" stroke-width="1.5" stroke-linejoin="round"/>
</svg>
