<svg width="16" height="16" viewBox="0 0 16 16" fill="none" xmlns="http://www.w3.org/2000/svg">
<path fill-rule="evenodd" clip-rule="evenodd" d="M12.8396 10.2038C12.7089 10.0781 12.6408 9.9044 12.6408 9.67494V9.61244H11.147V9.67494C11.147 10.0744 11.2408 10.4269 11.4303 10.7301L11.4306 10.7306C11.6198 11.027 11.8845 11.2566 12.2227 11.4194L12.2239 11.42C12.5683 11.5765 12.973 11.6537 13.436 11.6537C13.8991 11.6537 14.3037 11.5765 14.6481 11.42L14.649 11.4196C14.9933 11.2568 15.2585 11.027 15.4419 10.7298C15.6313 10.4267 15.725 10.0743 15.725 9.67494V9.11831C15.725 8.50658 15.5182 8.01695 15.1013 7.65679C14.8424 7.42983 14.5246 7.27596 14.1498 7.19339L15.4513 6.044V4.77619H11.4664V6.04181H13.8276L12.5888 7.1374V8.40519H13.436C13.6995 8.40519 13.8917 8.47238 14.0224 8.59769L14.0244 8.59948C14.1599 8.71877 14.2313 8.89148 14.2313 9.12744V9.67494C14.2313 9.91169 14.1624 10.0847 14.0325 10.2037C13.9021 10.3233 13.7067 10.3881 13.436 10.3881C13.1727 10.3881 12.9767 10.3239 12.8396 10.2038Z" fill="#44546F"/>
<path fill-rule="evenodd" clip-rule="evenodd" d="M5.83984 11.5624V10.1868L7.9757 8.12458C8.22274 7.88355 8.4042 7.66279 8.5221 7.46237L8.52278 7.46121C8.64443 7.26426 8.70509 7.05056 8.70509 6.81881C8.70509 6.5626 8.63549 6.3736 8.5044 6.24251L8.50346 6.24157C8.37798 6.11063 8.20122 6.04181 7.96459 6.04181C7.70416 6.04181 7.5058 6.11943 7.36174 6.26904C7.22395 6.41236 7.15109 6.617 7.15109 6.89181V6.95431H5.65734V6.89181C5.65734 6.44504 5.75048 6.05664 5.93946 5.72908L5.93964 5.72876C6.13436 5.39585 6.40786 5.13826 6.75873 4.95656C7.10992 4.77469 7.52166 4.68494 7.99197 4.68494C8.43152 4.68494 8.81572 4.76848 9.14251 4.93801C9.47429 5.1009 9.73264 5.33046 9.91554 5.62672C10.1052 5.92401 10.1988 6.27355 10.1988 6.67281C10.1988 7.11549 10.0896 7.53929 9.872 7.94344C9.65473 8.34693 9.30889 8.76595 8.83733 9.20076L7.75017 10.2056H10.2718V11.5624H5.83984Z" fill="#44546F"/>
<path fill-rule="evenodd" clip-rule="evenodd" d="M2.13866 10.2512H0.459656V11.5624H4.96466V10.2512H3.63241V4.77619H2.04454L0.441406 5.90119V7.47226L2.13866 6.21301V10.2512Z" fill="#44546F"/>
</svg>
