<svg width="16" height="16" viewBox="0 0 16 16" fill="none" xmlns="http://www.w3.org/2000/svg">
<path fill-rule="evenodd" clip-rule="evenodd" d="M11.6334 10.6743C11.4443 10.3592 11.3507 9.99499 11.3507 9.58369V6.75494C11.3507 6.33778 11.4442 5.97324 11.6337 5.6638L11.6341 5.66302C11.8292 5.35474 12.0996 5.11604 12.4438 4.94702C12.7885 4.77161 13.1878 4.68494 13.6397 4.68494C14.0975 4.68494 14.4969 4.77151 14.8359 4.94713C15.1799 5.11615 15.4474 5.3549 15.6364 5.66339C15.8321 5.97287 15.9287 6.33757 15.9287 6.75494V6.81744H14.435V6.75494C14.435 6.49929 14.3627 6.31439 14.227 6.18956L14.2261 6.1887C14.0953 6.06339 13.9032 5.99619 13.6397 5.99619C13.3767 5.99619 13.1809 6.06317 13.0437 6.18913C12.914 6.31379 12.8445 6.49886 12.8445 6.75494V9.58369C12.8445 9.83276 12.9135 10.0186 13.0442 10.1499C13.1814 10.2756 13.377 10.3424 13.6397 10.3424C13.9032 10.3424 14.0953 10.2752 14.2261 10.1499C14.363 10.0184 14.435 9.83259 14.435 9.58369V9.52119H15.9287V9.58369C15.9287 9.99531 15.8319 10.3598 15.6365 10.675C15.4476 10.9836 15.1801 11.2254 14.8361 11.4005L14.8357 11.4007C14.4967 11.5702 14.0974 11.6537 13.6397 11.6537C13.1879 11.6537 12.7888 11.5701 12.4442 11.4009L12.4434 11.4005C12.0994 11.2254 11.8291 10.9838 11.6341 10.6756L11.6334 10.6743Z" fill="#44546F"/>
<path fill-rule="evenodd" clip-rule="evenodd" d="M9.79401 5.25442C9.37846 4.93342 8.82529 4.77619 8.1409 4.77619H5.93403V11.5624H8.22303C8.69835 11.5624 9.11228 11.4822 9.46297 11.3194C9.8132 11.1568 10.0844 10.9273 10.274 10.6303C10.4698 10.327 10.5668 9.97436 10.5668 9.57456C10.5668 9.22452 10.4886 8.92596 10.3284 8.68246C10.17 8.44173 9.96038 8.26062 9.70046 8.14011C9.57555 8.0808 9.44395 8.03705 9.3058 8.0087C9.41823 7.97748 9.52645 7.93383 9.63035 7.87769C9.87095 7.75099 10.0617 7.57313 10.2014 7.34471C10.3483 7.11457 10.4208 6.84725 10.4208 6.54506C10.4208 6.00332 10.2116 5.57091 9.79401 5.25442ZM7.38215 8.66069H8.16828C8.45458 8.66069 8.67166 8.73926 8.82752 8.88955L8.82837 8.89036C8.98341 9.03432 9.0639 9.23527 9.0639 9.50156C9.0639 9.76785 8.98341 9.9688 8.82837 10.1128C8.67259 10.2574 8.4552 10.3333 8.16828 10.3333H7.38215V8.66069ZM8.70948 7.26601C8.57205 7.39219 8.37911 7.45894 8.12265 7.45894H7.38215V6.00531H8.12265C8.37941 6.00531 8.5725 6.07222 8.70996 6.19868L8.71099 6.19961C8.84654 6.31889 8.9179 6.49161 8.9179 6.72756C8.9179 6.95647 8.84704 7.13369 8.70948 7.26601Z" fill="#44546F"/>
<path fill-rule="evenodd" clip-rule="evenodd" d="M3.40358 10.0568L3.72296 11.5624H5.24961L3.56699 4.77619H1.73531L0.0712891 11.5624H1.59772L1.9171 10.0568H3.40358ZM2.17151 8.83681H3.14081L2.83612 7.30464C2.79365 7.07409 2.74816 6.84659 2.69963 6.62214L2.69922 6.62026C2.68512 6.54371 2.67205 6.47284 2.65995 6.40766C2.6481 6.47022 2.63529 6.53788 2.62153 6.61062C2.5849 6.83644 2.54218 7.06525 2.49338 7.29706L2.17151 8.83681Z" fill="#44546F"/>
</svg>
