<svg width="16" height="16" viewBox="0 0 16 16" fill="none" xmlns="http://www.w3.org/2000/svg">
<path fill-rule="evenodd" clip-rule="evenodd" d="M11.6334 10.6745C11.4443 10.3594 11.3507 9.99511 11.3507 9.58381V6.75506C11.3507 6.3379 11.4442 5.97336 11.6337 5.66392L11.6341 5.66314C11.8292 5.35486 12.0996 5.11617 12.4438 4.94714C12.7885 4.77174 13.1878 4.68506 13.6397 4.68506C14.0975 4.68506 14.4969 4.77163 14.8359 4.94725C15.1799 5.11627 15.4474 5.35502 15.6364 5.66351C15.8321 5.97299 15.9287 6.33769 15.9287 6.75506V6.81756H14.435V6.75506C14.435 6.49941 14.3627 6.31451 14.227 6.18968L14.2261 6.18882C14.0953 6.06352 13.9032 5.99631 13.6397 5.99631C13.3767 5.99631 13.1809 6.06329 13.0437 6.18925C12.914 6.31391 12.8445 6.49898 12.8445 6.75506V9.58381C12.8445 9.83288 12.9135 10.0188 13.0442 10.1501C13.1814 10.2757 13.377 10.3426 13.6397 10.3426C13.9032 10.3426 14.0953 10.2754 14.2261 10.1501C14.363 10.0186 14.435 9.83272 14.435 9.58381V9.52131H15.9287V9.58381C15.9287 9.99543 15.8319 10.3599 15.6365 10.6751C15.4476 10.9837 15.1801 11.2255 14.8361 11.4006L14.8357 11.4008C14.4967 11.5703 14.0974 11.6538 13.6397 11.6538C13.1879 11.6538 12.7888 11.5702 12.4442 11.401L12.4434 11.4006C12.0994 11.2255 11.8291 10.9839 11.6341 10.6757L11.6334 10.6745Z" fill="#44546F"/>
<path fill-rule="evenodd" clip-rule="evenodd" d="M9.79401 5.25455C9.37846 4.93354 8.82529 4.77631 8.1409 4.77631H5.93403V11.5626H8.22303C8.69835 11.5626 9.11228 11.4823 9.46297 11.3195C9.8132 11.1569 10.0844 10.9274 10.274 10.6304C10.4698 10.3272 10.5668 9.97448 10.5668 9.57468C10.5668 9.22464 10.4886 8.92609 10.3284 8.68258C10.17 8.44185 9.96038 8.26074 9.70046 8.14023C9.57555 8.08093 9.44395 8.03717 9.3058 8.00883C9.41823 7.97761 9.52645 7.93395 9.63035 7.87781C9.87095 7.75111 10.0617 7.57326 10.2014 7.34484C10.3483 7.11469 10.4208 6.84737 10.4208 6.54518C10.4208 6.00344 10.2116 5.57104 9.79401 5.25455ZM7.38215 8.66081H8.16828C8.45458 8.66081 8.67166 8.73938 8.82752 8.88967L8.82837 8.89048C8.98341 9.03445 9.0639 9.2354 9.0639 9.50168C9.0639 9.76797 8.98341 9.96892 8.82837 10.1129C8.67259 10.2575 8.4552 10.3334 8.16828 10.3334H7.38215V8.66081ZM8.70948 7.26613C8.57205 7.39231 8.37911 7.45906 8.12265 7.45906H7.38215V6.00543H8.12265C8.37941 6.00543 8.5725 6.07234 8.70996 6.1988L8.71099 6.19973C8.84654 6.31902 8.9179 6.49173 8.9179 6.72768C8.9179 6.95659 8.84704 7.13381 8.70948 7.26613Z" fill="#44546F"/>
<path fill-rule="evenodd" clip-rule="evenodd" d="M3.40358 10.0569L3.72296 11.5626H5.24961L3.56699 4.77631H1.73531L0.0712891 11.5626H1.59772L1.9171 10.0569H3.40358ZM2.17151 8.83693H3.14081L2.83612 7.30476C2.79365 7.07421 2.74816 6.84671 2.69963 6.62227L2.69922 6.62039C2.68512 6.54384 2.67205 6.47296 2.65995 6.40778C2.6481 6.47034 2.63529 6.538 2.62153 6.61075C2.5849 6.83656 2.54218 7.06538 2.49338 7.29718L2.17151 8.83693Z" fill="#44546F"/>
</svg>
