<svg width="16" height="16" viewBox="0 0 16 16" fill="none" xmlns="http://www.w3.org/2000/svg">
<path fill-rule="evenodd" clip-rule="evenodd" d="M1 3C1 1.89543 1.89543 1 3 1H13C14.1046 1 15 1.89543 15 3V13C15 14.1046 14.1046 15 13 15H3C1.89543 15 1 14.1046 1 13V3ZM3 2.5C2.72386 2.5 2.5 2.72386 2.5 3V6.5H13.5V3C13.5 2.72386 13.2761 2.5 13 2.5H3ZM13.5 8H8.75V10H13.5V8ZM13.5 11.5H8.75V13.5H13C13.2761 13.5 13.5 13.2761 13.5 13V11.5ZM7.25 13.5V11.5H2.5V13C2.5 13.2761 2.72386 13.5 3 13.5H7.25ZM2.5 10H7.25V8H2.5V10Z" fill="#44546F"/>
</svg>
