<svg width="16" height="16" viewBox="0 0 16 16" fill="none" xmlns="http://www.w3.org/2000/svg">
<path fill-rule="evenodd" clip-rule="evenodd" d="M0 6C0 4.89543 0.895431 4 2 4H3C4.10457 4 5 4.89543 5 6V12H3.5V9.5H1.5V12H0V6ZM1.5 8H3.5V6C3.5 5.72386 3.27614 5.5 3 5.5H2C1.72386 5.5 1.5 5.72386 1.5 6V8Z" fill="#292A2E"/>
<path fill-rule="evenodd" clip-rule="evenodd" d="M6 8C6 7.58579 6.33579 7.25 6.75 7.25H9C10.1046 7.25 11 8.14543 11 9.25V10C11 11.1046 10.1046 12 9 12H6.75C6.33579 12 6 11.6642 6 11.25V8ZM7.5 8.75V10.5H9C9.27614 10.5 9.5 10.2761 9.5 10V9.25C9.5 8.97386 9.27614 8.75 9 8.75H7.5Z" fill="#292A2E"/>
<path fill-rule="evenodd" clip-rule="evenodd" d="M6 4.75C6 4.33579 6.33579 4 6.75 4H9C10.1046 4 11 4.89543 11 6V6.75C11 7.85457 10.1046 8.75 9 8.75H6.75C6.33579 8.75 6 8.41421 6 8V4.75ZM7.5 5.5V7.25H9C9.27614 7.25 9.5 7.02614 9.5 6.75V6C9.5 5.72386 9.27614 5.5 9 5.5H7.5Z" fill="#292A2E"/>
<path fill-rule="evenodd" clip-rule="evenodd" d="M12 6C12 4.89543 12.8954 4 14 4H16V5.5H14C13.7239 5.5 13.5 5.72386 13.5 6V10C13.5 10.2761 13.7239 10.5 14 10.5H16V12H14C12.8954 12 12 11.1046 12 10V6Z" fill="#292A2E"/>
</svg>
