<svg width="16" height="16" viewBox="0 0 16 16" fill="none" xmlns="http://www.w3.org/2000/svg">
<path fill-rule="evenodd" clip-rule="evenodd" d="M12.8396 10.2039C12.7089 10.0782 12.6408 9.90453 12.6408 9.67506V9.61256H11.147V9.67506C11.147 10.0745 11.2408 10.427 11.4303 10.7302L11.4306 10.7307C11.6198 11.0271 11.8845 11.2567 12.2227 11.4195L12.2239 11.4201C12.5683 11.5766 12.973 11.6538 13.436 11.6538C13.8991 11.6538 14.3037 11.5766 14.6481 11.4201L14.649 11.4197C14.9933 11.2569 15.2585 11.0271 15.4419 10.7299C15.6313 10.4268 15.725 10.0744 15.725 9.67506V9.11843C15.725 8.5067 15.5182 8.01707 15.1013 7.65691C14.8424 7.42995 14.5246 7.27609 14.1498 7.19352L15.4513 6.04412V4.77631H11.4664V6.04193H13.8276L12.5888 7.13752V8.40531H13.436C13.6995 8.40531 13.8917 8.47251 14.0224 8.59781L14.0244 8.5996C14.1599 8.71889 14.2313 8.8916 14.2313 9.12756V9.67506C14.2313 9.91181 14.1624 10.0848 14.0325 10.2039C13.9021 10.3235 13.7067 10.3882 13.436 10.3882C13.1727 10.3882 12.9767 10.3241 12.8396 10.2039Z" fill="#44546F"/>
<path fill-rule="evenodd" clip-rule="evenodd" d="M5.83984 11.5626V10.1869L7.9757 8.1247C8.22274 7.88367 8.4042 7.66291 8.5221 7.46249L8.52278 7.46133C8.64443 7.26438 8.70509 7.05068 8.70509 6.81893C8.70509 6.56272 8.63549 6.37372 8.5044 6.24263L8.50346 6.24169C8.37798 6.11075 8.20122 6.04193 7.96459 6.04193C7.70416 6.04193 7.5058 6.11956 7.36174 6.26916C7.22395 6.41248 7.15109 6.61712 7.15109 6.89193V6.95443H5.65734V6.89193C5.65734 6.44516 5.75048 6.05676 5.93946 5.7292L5.93964 5.72888C6.13436 5.39597 6.40786 5.13838 6.75873 4.95668C7.10992 4.77482 7.52166 4.68506 7.99197 4.68506C8.43152 4.68506 8.81572 4.76861 9.14251 4.93813C9.47429 5.10103 9.73264 5.33058 9.91554 5.62685C10.1052 5.92414 10.1988 6.27367 10.1988 6.67293C10.1988 7.11561 10.0896 7.53942 9.872 7.94356C9.65473 8.34705 9.30889 8.76607 8.83733 9.20088L7.75017 10.2057H10.2718V11.5626H5.83984Z" fill="#44546F"/>
<path fill-rule="evenodd" clip-rule="evenodd" d="M2.13866 10.2513H0.459656V11.5626H4.96466V10.2513H3.63241V4.77631H2.04454L0.441406 5.90131V7.47238L2.13866 6.21313V10.2513Z" fill="#44546F"/>
</svg>
