<svg width="16" height="16" viewBox="0 0 16 16" fill="none" xmlns="http://www.w3.org/2000/svg">
<path fill-rule="evenodd" clip-rule="evenodd" d="M13.75 1.5C13.3358 1.5 13 1.83579 13 2.25C13 2.66421 13.3358 3 13.75 3C14.1642 3 14.5 2.66421 14.5 2.25C14.5 1.83579 14.1642 1.5 13.75 1.5ZM11.628 1.5C11.9369 0.626106 12.7703 0 13.75 0C14.9926 0 16 1.00736 16 2.25C16 3.49264 14.9926 4.5 13.75 4.5C12.7703 4.5 11.9369 3.87389 11.628 3H9.5625C8.9757 3 8.5 3.4757 8.5 4.0625V7.25H11.628C11.9369 6.37611 12.7703 5.75 13.75 5.75C14.9926 5.75 16 6.75736 16 8C16 9.24264 14.9926 10.25 13.75 10.25C12.7703 10.25 11.9369 9.62389 11.628 8.75H8.5V11.9375C8.5 12.5243 8.9757 13 9.5625 13H11.628C11.9369 12.1261 12.7703 11.5 13.75 11.5C14.9926 11.5 16 12.5074 16 13.75C16 14.9926 14.9926 16 13.75 16C12.7703 16 11.9369 15.3739 11.628 14.5H9.5625C8.14727 14.5 7 13.3527 7 11.9375V8.75H4.37197C4.06309 9.62389 3.22966 10.25 2.25 10.25C1.00736 10.25 0 9.24264 0 8C0 6.75736 1.00736 5.75 2.25 5.75C3.22966 5.75 4.06309 6.37611 4.37197 7.25H7V4.0625C7 2.64727 8.14727 1.5 9.5625 1.5H11.628ZM2.25 7.25C1.83579 7.25 1.5 7.58579 1.5 8C1.5 8.41421 1.83579 8.75 2.25 8.75C2.66421 8.75 3 8.41421 3 8C3 7.58579 2.66421 7.25 2.25 7.25ZM13.75 7.25C13.3358 7.25 13 7.58579 13 8C13 8.41421 13.3358 8.75 13.75 8.75C14.1642 8.75 14.5 8.41421 14.5 8C14.5 7.58579 14.1642 7.25 13.75 7.25ZM13.75 13C13.3358 13 13 13.3358 13 13.75C13 14.1642 13.3358 14.5 13.75 14.5C14.1642 14.5 14.5 14.1642 14.5 13.75C14.5 13.3358 14.1642 13 13.75 13Z" fill="#44546F"/>
</svg>
