<svg width="16" height="16" viewBox="0 0 16 16" fill="none" xmlns="http://www.w3.org/2000/svg">
<path fill-rule="evenodd" clip-rule="evenodd" d="M1 3C1 1.89543 1.89543 1 3 1H13C14.1046 1 15 1.89543 15 3V13C15 14.1046 14.1046 15 13 15H3C1.89543 15 1 14.1046 1 13V3ZM3 2.5C2.72386 2.5 2.5 2.72386 2.5 3V13C2.5 13.2761 2.72386 13.5 3 13.5H13C13.2761 13.5 13.5 13.2761 13.5 13V3C13.5 2.72386 13.2761 2.5 13 2.5H9.51305L8.34638 5.5H10.25C10.4976 5.5 10.7292 5.62219 10.869 5.82655C11.0088 6.0309 11.0387 6.29108 10.949 6.52183L9.199 11.0218L7.801 10.4782L9.15362 7H7.25C7.00241 7 6.77077 6.87781 6.63098 6.67345C6.49119 6.4691 6.46126 6.20892 6.551 5.97817L7.90362 2.5H3Z" fill="#44546F"/>
</svg>
