<svg width="16" height="16" viewBox="0 0 16 16" fill="none" xmlns="http://www.w3.org/2000/svg">
<path d="M13.5 3C13.5 2.72386 13.2761 2.5 13 2.5H9.5127L8.34668 5.5H10.25C10.4975 5.5 10.7293 5.62194 10.8691 5.82617C11.0089 6.03041 11.0388 6.29082 10.9492 6.52148L9.19922 11.0215L7.80078 10.4785L9.15332 7H7.25C7.00249 7 6.77066 6.87806 6.63086 6.67383C6.49114 6.46959 6.46122 6.20918 6.55078 5.97852L7.90332 2.5H3C2.72386 2.5 2.5 2.72386 2.5 3V13C2.5 13.2761 2.72386 13.5 3 13.5H13C13.2761 13.5 13.5 13.2761 13.5 13V3ZM15 13C15 14.1046 14.1046 15 13 15H3C1.89543 15 1 14.1046 1 13V3C1 1.89543 1.89543 1 3 1H13C14.1046 1 15 1.89543 15 3V13Z" fill="#292A2E"/>
</svg>
