<svg width="16" height="16" viewBox="0 0 16 16" fill="none" xmlns="http://www.w3.org/2000/svg">
<path fill-rule="evenodd" clip-rule="evenodd" d="M5 0.75C5 0.335786 5.33579 0 5.75 0H10.25C10.6642 0 11 0.335786 11 0.75V2.5H14.5V4H13.5V14C13.5 15.1046 12.6046 16 11.5 16H4.5C3.39543 16 2.5 15.1046 2.5 14V4H1.5V2.5H5V0.75ZM6.5 2.5H9.5V1.5H6.5V2.5ZM4 4V14C4 14.2761 4.22386 14.5 4.5 14.5H11.5C11.7761 14.5 12 14.2761 12 14V4H4ZM5.75 13V5.5H7.25V13H5.75ZM8.75 13V5.5H10.25V13H8.75Z" fill="#292A2E"/>
</svg>
