<svg width="16" height="16" viewBox="0 0 16 16" fill="none" xmlns="http://www.w3.org/2000/svg">
<path fill-rule="evenodd" clip-rule="evenodd" d="M5.5 0.75C5.5 0.335786 5.83579 0 6.25 0H9.75C10.1642 0 10.5 0.335786 10.5 0.75V4.25C10.5 4.66421 10.1642 5 9.75 5H8.75V7.25H11.875C12.6344 7.25 13.25 7.86561 13.25 8.625V11H14.25C14.6642 11 15 11.3358 15 11.75V15.25C15 15.6642 14.6642 16 14.25 16H10.75C10.3358 16 10 15.6642 10 15.25V11.75C10 11.3358 10.3358 11 10.75 11H11.75V8.75H4.25V11H5.25C5.66421 11 6 11.3358 6 11.75V15.25C6 15.6642 5.66421 16 5.25 16H1.75C1.33579 16 1 15.6642 1 15.25V11.75C1 11.3358 1.33579 11 1.75 11H2.75V8.625C2.75 7.86561 3.36561 7.25 4.125 7.25H7.25V5H6.25C5.83579 5 5.5 4.66421 5.5 4.25V0.75ZM7 1.5V3.5H9V1.5H7ZM2.5 12.5V14.5H4.5V12.5H2.5ZM11.5 12.5V14.5H13.5V12.5H11.5Z" fill="#292A2E"/>
</svg>
