<svg width="16" height="16" viewBox="0 0 16 16" fill="none" xmlns="http://www.w3.org/2000/svg">
<path d="M14.5 8C14.5 7.72386 14.2761 7.5 14 7.5H11.5C11.2239 7.5 11 7.72386 11 8V14C11 14.2761 11.2239 14.5 11.5 14.5H14C14.2761 14.5 14.5 14.2761 14.5 14V8ZM13 3C13 2.72386 12.7761 2.5 12.5 2.5H3.5C3.22386 2.5 3 2.72386 3 3V10H8V11.5H1.5V12C1.5 12.2761 1.72386 12.5 2 12.5H8V14H2C0.895431 14 0 13.1046 0 12V10.75L0.00390625 10.6729C0.0425277 10.2949 0.361834 10 0.75 10H1.5V3C1.5 1.89543 2.39543 1 3.5 1H12.5C13.6046 1 14.5 1.89543 14.5 3V4.5H13V3ZM16 14C16 15.1046 15.1046 16 14 16H11.5C10.3954 16 9.5 15.1046 9.5 14V8C9.5 6.89543 10.3954 6 11.5 6H14C15.1046 6 16 6.89543 16 8V14Z" fill="#292A2E"/>
</svg>
