<svg width="16" height="16" viewBox="0 0 16 16" fill="none" xmlns="http://www.w3.org/2000/svg">
<path d="M8 10.75H2.25M2.25 10.75V3C2.25 2.30964 2.80964 1.75 3.5 1.75H12.5C13.1904 1.75 13.75 2.30964 13.75 3V4.5M2.25 10.75H0.75V12C0.75 12.6904 1.30964 13.25 2 13.25H8M11.5 15.25H14C14.6904 15.25 15.25 14.6904 15.25 14V8C15.25 7.30964 14.6904 6.75 14 6.75H11.5C10.8096 6.75 10.25 7.30964 10.25 8V14C10.25 14.6904 10.8096 15.25 11.5 15.25Z" stroke="#44546F" stroke-width="1.5" stroke-linejoin="round"/>
</svg>
