<svg width="16" height="16" viewBox="0 0 16 16" fill="none" xmlns="http://www.w3.org/2000/svg">
<path fill-rule="evenodd" clip-rule="evenodd" d="M13 1.75H3C2.30964 1.75 1.75 2.30964 1.75 3V13C1.75 13.6904 2.30964 14.25 3 14.25H8.25V10.25C8.25 9.14543 9.14543 8.25 10.25 8.25H14.25V3C14.25 2.30964 13.6904 1.75 13 1.75Z" fill="#44546F"/>
<path d="M14.25 8.25V9H15V8.25H14.25ZM8.25 14.25V15H9V14.25H8.25ZM11.25 11.25V10.5C10.8358 10.5 10.5 10.8358 10.5 11.25H11.25ZM13.25 11.25L13.7803 11.7803L15.0607 10.5H13.25V11.25ZM11.25 13.25H10.5V15.0607L11.7803 13.7803L11.25 13.25ZM14.25 7.5H10.25V9H14.25V7.5ZM7.5 10.25V14.25H9V10.25H7.5ZM3 2.5H13V1H3V2.5ZM13 2.5C13.2761 2.5 13.5 2.72386 13.5 3H15C15 1.89543 14.1046 1 13 1V2.5ZM13.5 3V8.25H15V3H13.5ZM8.25 13.5H3V15H8.25V13.5ZM3 13.5C2.72386 13.5 2.5 13.2761 2.5 13H1C1 14.1046 1.89543 15 3 15V13.5ZM2.5 13V3H1V13H2.5ZM2.5 3C2.5 2.72386 2.72386 2.5 3 2.5V1C1.89543 1 1 1.89543 1 3H2.5ZM11.25 12H13.25V10.5H11.25V12ZM12 13.25V11.25H10.5V13.25H12ZM12.7197 10.7197L10.7197 12.7197L11.7803 13.7803L13.7803 11.7803L12.7197 10.7197ZM1 13C1 14.1046 1.89543 15 3 15V13.5C2.72386 13.5 2.5 13.2761 2.5 13H1ZM10.25 7.5C8.73122 7.5 7.5 8.73122 7.5 10.25H9C9 9.55964 9.55964 9 10.25 9V7.5ZM15 3C15 1.89543 14.1046 1 13 1V2.5C13.2761 2.5 13.5 2.72386 13.5 3H15ZM2.5 3C2.5 2.72386 2.72386 2.5 3 2.5V1C1.89543 1 1 1.89543 1 3H2.5Z" fill="#44546F"/>
<path d="M4 4.75H11M4 8.25H7" stroke="white" stroke-width="1.5" stroke-linejoin="round"/>
</svg>
