<svg width="16" height="16" viewBox="0 0 16 16" fill="none" xmlns="http://www.w3.org/2000/svg">
<path d="M2.75 9C3.7165 9 4.5 9.7835 4.5 10.75C4.5 11.7165 3.7165 12.5 2.75 12.5C1.7835 12.5 1 11.7165 1 10.75C1 9.7835 1.7835 9 2.75 9Z" fill="#292A2E"/>
<path d="M2.75 3.5C3.7165 3.5 4.5 4.2835 4.5 5.25C4.5 6.2165 3.7165 7 2.75 7C1.7835 7 1 6.2165 1 5.25C1 4.2835 1.7835 3.5 2.75 3.5Z" fill="#292A2E"/>
<path d="M8 9C8.9665 9 9.75 9.7835 9.75 10.75C9.75 11.7165 8.9665 12.5 8 12.5C7.0335 12.5 6.25 11.7165 6.25 10.75C6.25 9.7835 7.0335 9 8 9Z" fill="#292A2E"/>
<path d="M8 3.5C8.9665 3.5 9.75 4.2835 9.75 5.25C9.75 6.2165 8.9665 7 8 7C7.0335 7 6.25 6.2165 6.25 5.25C6.25 4.2835 7.0335 3.5 8 3.5Z" fill="#292A2E"/>
<path d="M13.25 9C14.2165 9 15 9.7835 15 10.75C15 11.7165 14.2165 12.5 13.25 12.5C12.2835 12.5 11.5 11.7165 11.5 10.75C11.5 9.7835 12.2835 9 13.25 9Z" fill="#292A2E"/>
<path d="M13.25 3.5C14.2165 3.5 15 4.2835 15 5.25C15 6.2165 14.2165 7 13.25 7C12.2835 7 11.5 6.2165 11.5 5.25C11.5 4.2835 12.2835 3.5 13.25 3.5Z" fill="#292A2E"/>
</svg>
