<svg width="16" height="16" viewBox="0 0 16 16" fill="none" xmlns="http://www.w3.org/2000/svg">
<path fill-rule="evenodd" clip-rule="evenodd" d="M11.5858 0.853555C12.3668 0.0725061 13.6332 0.0725073 14.4142 0.853556L15.1464 1.58579C15.9275 2.36684 15.9275 3.63317 15.1464 4.41422L10.0094 9.5513C9.76903 9.79163 9.47141 9.96675 9.1446 10.0601L5.95604 10.9711C5.69415 11.046 5.41227 10.9729 5.21967 10.7803C5.02707 10.5877 4.95403 10.3059 5.02886 10.044L5.93987 6.85541C6.03325 6.5286 6.20837 6.23097 6.44871 5.99063L11.5858 0.853555ZM13.3536 1.91422C13.1583 1.71895 12.8417 1.71895 12.6464 1.91422L12.0607 2.5L13.5 3.93934L14.0858 3.35356C14.281 3.15829 14.281 2.84171 14.0858 2.64645L13.3536 1.91422ZM12.4393 5L11 3.56066L7.50937 7.05129C7.44928 7.11138 7.4055 7.18578 7.38216 7.26749L6.84202 9.15799L8.73251 8.61784C8.81422 8.5945 8.88862 8.55072 8.94871 8.49063L12.4393 5ZM3 2.5011C2.72386 2.5011 2.5 2.72496 2.5 3.0011V13.0011C2.5 13.2772 2.72386 13.5011 3 13.5011H13C13.2761 13.5011 13.5 13.2772 13.5 13.0011V10H15V13.0011C15 14.1057 14.1046 15.0011 13 15.0011H3C1.89543 15.0011 1 14.1057 1 13.0011V3.0011C1 1.89653 1.89543 1.0011 3 1.0011H6V2.5011H3Z" fill="#292A2E"/>
</svg>
