<svg width="16" height="16" viewBox="0 0 16 16" fill="none" xmlns="http://www.w3.org/2000/svg">
<path fill-rule="evenodd" clip-rule="evenodd" d="M1 1.75C1 1.33579 1.33579 1 1.75 1H4.25C4.66421 1 5 1.33579 5 1.75V4.25C5 4.66421 4.66421 5 4.25 5H1.75C1.33579 5 1 4.66421 1 4.25V1.75ZM2.5 2.5V3.5H3.5V2.5H2.5ZM12.3358 2.60355C13.1168 1.8225 14.3832 1.82251 15.1642 2.60355L15.3964 2.83579C16.1775 3.61684 16.1775 4.88317 15.3964 5.66421L10.5479 10.5127C10.2687 10.7919 9.91315 10.9822 9.52597 11.0597L7.39709 11.4854C7.15119 11.5346 6.89699 11.4576 6.71967 11.2803C6.54235 11.103 6.46539 10.8488 6.51456 10.6029L6.94034 8.47403C7.01778 8.08685 7.20809 7.73125 7.48729 7.45205L12.3358 2.60355ZM14.1036 3.66421C13.9083 3.46895 13.5917 3.46895 13.3964 3.66421L13.0607 4L14 4.93934L14.3358 4.60355C14.531 4.40829 14.531 4.09171 14.3358 3.89645L14.1036 3.66421ZM12.9393 6L12 5.06066L8.54795 8.51271C8.47815 8.58251 8.43057 8.67141 8.41121 8.76821L8.20607 9.79393L9.23179 9.58879C9.32859 9.56943 9.41749 9.52185 9.48729 9.45205L12.9393 6ZM1 6.75C1 6.33579 1.33579 6 1.75 6H4.25C4.66421 6 5 6.33579 5 6.75V9.25C5 9.66421 4.66421 10 4.25 10H1.75C1.33579 10 1 9.66421 1 9.25V6.75ZM2.5 7.5V8.5H3.5V7.5H2.5ZM1 11.75C1 11.3358 1.33579 11 1.75 11H4.25C4.66421 11 5 11.3358 5 11.75V14.25C5 14.6642 4.66421 15 4.25 15H1.75C1.33579 15 1 14.6642 1 14.25V11.75ZM2.5 12.5V13.5H3.5V12.5H2.5Z" fill="#44546F"/>
</svg>
