<svg width="16" height="16" viewBox="0 0 16 16" fill="none" xmlns="http://www.w3.org/2000/svg">
<path fill-rule="evenodd" clip-rule="evenodd" d="M11.5858 0.853608C12.3668 0.0725595 13.6332 0.0725607 14.4142 0.853609L15.1464 1.58584C15.9275 2.36689 15.9275 3.63322 15.1464 4.41427L10.0094 9.55135C9.76903 9.79169 9.47141 9.96681 9.1446 10.0602L5.95604 10.9712C5.69415 11.046 5.41227 10.973 5.21967 10.7804C5.02707 10.5878 4.95403 10.3059 5.02886 10.044L5.93987 6.85546C6.03325 6.52865 6.20837 6.23103 6.44871 5.99069L11.5858 0.853608ZM13.3536 1.91427C13.1583 1.71901 12.8417 1.71901 12.6464 1.91427L12.0607 2.50006L13.5 3.9394L14.0858 3.35361C14.281 3.15835 14.281 2.84176 14.0858 2.6465L13.3536 1.91427ZM12.4393 5.00006L11 3.56072L7.50937 7.05135C7.44928 7.11143 7.4055 7.18584 7.38216 7.26754L6.84202 9.15804L8.73251 8.6179C8.81422 8.59455 8.88862 8.55077 8.94871 8.49069L12.4393 5.00006ZM3 2.50115C2.72386 2.50115 2.5 2.72501 2.5 3.00115V13.0012C2.5 13.2773 2.72386 13.5012 3 13.5012H13C13.2761 13.5012 13.5 13.2773 13.5 13.0012V10.0001H15V13.0012C15 14.1057 14.1046 15.0012 13 15.0012H3C1.89543 15.0012 1 14.1057 1 13.0012V3.00115C1 1.89659 1.89543 1.00115 3 1.00115H6V2.50115H3Z" fill="#292A2E"/>
</svg>
