<svg width="16" height="16" viewBox="0 0 16 16" fill="none" xmlns="http://www.w3.org/2000/svg">
<path d="M6 1.7511H3C2.30964 1.7511 1.75 2.31074 1.75 3.0011V13.0011C1.75 13.6915 2.30964 14.2511 3 14.2511H13C13.6904 14.2511 14.25 13.6915 14.25 13.0011V10M13.5 5L14.6161 3.88388C15.1043 3.39573 15.1043 2.60427 14.6161 2.11612L13.8839 1.38388C13.3957 0.895728 12.6043 0.895728 12.1161 1.38388L11 2.5M13.5 5L9.47904 9.02096C9.32883 9.17117 9.14281 9.28063 8.93856 9.33898L5.75 10.25L6.66102 7.06145C6.71937 6.85719 6.82883 6.67117 6.97904 6.52096L11 2.5M13.5 5L11 2.5" stroke="#44546F" stroke-width="1.5" stroke-linejoin="round"/>
</svg>
