<svg width="16" height="16" viewBox="0 0 16 16" fill="none" xmlns="http://www.w3.org/2000/svg">
<path d="M14 6L14.8661 5.13388C15.3543 4.64573 15.3543 3.85427 14.8661 3.36612L14.6339 3.13388C14.1457 2.64573 13.3543 2.64573 12.8661 3.13388L12 4M14 6L10.0176 9.98238C9.84312 10.1569 9.62087 10.2758 9.37888 10.3242L7.25 10.75L7.67578 8.62112C7.72417 8.37913 7.84312 8.15688 8.01762 7.98238L12 4M14 6L12 4M1.75 1.75H4.25V4.25H1.75V1.75ZM1.75 6.75H4.25V9.25H1.75V6.75ZM1.75 11.75H4.25V14.25H1.75V11.75Z" stroke="#44546F" stroke-width="1.5" stroke-linejoin="round"/>
</svg>
