<svg width="16" height="16" viewBox="0 0 16 16" fill="none" xmlns="http://www.w3.org/2000/svg">
<path d="M11.25 10.25C11.25 10.25 10 12 8 12C6 12 4.75 10.25 4.75 10.25M1.51749 4.75001C1.02644 5.72756 0.75 6.8315 0.75 8.00001C0.75 12.0041 3.99594 15.25 8 15.25C12.0041 15.25 15.25 12.0041 15.25 8.00001C15.25 6.8315 14.9736 5.72756 14.4825 4.75001M1.51749 4.75001C2.7091 2.37786 5.16445 0.750011 8 0.750011C10.8356 0.750011 13.2909 2.37786 14.4825 4.75001M1.51749 4.75001H2.25M14.4825 4.75001H13.75M8.875 4.75001L9.07051 6.57476C9.17259 7.52752 9.97662 8.25001 10.9348 8.25001H11.9895C12.5789 8.25001 13.0882 7.83826 13.2117 7.26192L13.75 4.75001M8.875 4.75001H13.75M8.875 4.75001H7.125M7.125 4.75001L6.92949 6.57476C6.82741 7.52752 6.02338 8.25001 5.06516 8.25001H4.01052C3.4211 8.25001 2.91177 7.83826 2.78827 7.26192L2.25 4.75001M7.125 4.75001H2.25" stroke="#44546F" stroke-width="1.5"/>
</svg>
