<svg width="16" height="16" viewBox="0 0 16 16" fill="none" xmlns="http://www.w3.org/2000/svg">
<path fill-rule="evenodd" clip-rule="evenodd" d="M1.77624 6.11858L2.05491 7.41906C2.25252 8.3412 3.06744 9 4.01052 9H5.06516C6.40666 9 7.53231 7.98852 7.67522 6.65465L7.79894 5.5H8.20107L8.32478 6.65465C8.46769 7.98852 9.59334 9 10.9348 9H11.9895C12.9326 9 13.7475 8.3412 13.9451 7.41906L14.2238 6.11858C14.4034 6.71365 14.5 7.34512 14.5 8C14.5 11.5899 11.5899 14.5 8 14.5C4.41015 14.5 1.5 11.5899 1.5 8C1.5 7.34512 1.59663 6.71365 1.77624 6.11858ZM13.124 4C11.9337 2.47741 10.0805 1.5 8 1.5C5.91945 1.5 4.06629 2.47741 2.87601 4H13.124ZM12.8223 5.5H9.70965L9.81624 6.49485C9.87749 7.06651 10.3599 7.5 10.9348 7.5H11.9895C12.2252 7.5 12.429 7.3353 12.4784 7.10476L12.8223 5.5ZM6.29035 5.5H3.17774L3.52162 7.10476C3.57102 7.3353 3.77475 7.5 4.01052 7.5H5.06516C5.64009 7.5 6.12251 7.06651 6.18376 6.49485L6.29035 5.5ZM0.847297 4.41334C2.16125 1.79763 4.87002 0 8 0C11.13 0 13.8388 1.79763 15.1527 4.41334C15.695 5.49298 16 6.71196 16 8C16 12.4183 12.4183 16 8 16C3.58172 16 0 12.4183 0 8C0 6.71196 0.304962 5.49298 0.847297 4.41334ZM6.08546 10.533C6.57081 10.9105 7.22471 11.25 8 11.25C8.77529 11.25 9.42919 10.9105 9.91454 10.533C10.1543 10.3465 10.3414 10.1594 10.4673 10.0203C10.5299 9.95109 10.5763 9.8949 10.6056 9.85814C10.6202 9.83979 10.6304 9.82638 10.6362 9.81874L10.6414 9.81174L10.6408 9.81258L10.64 9.81364C10.6399 9.81385 10.6397 9.81407 11.25 10.25C11.8603 10.6859 11.8601 10.6862 11.86 10.6864L11.8588 10.6881L11.8568 10.6908L11.8513 10.6983L11.8348 10.7206C11.8213 10.7386 11.8027 10.7628 11.7792 10.7923C11.7323 10.8512 11.6654 10.9317 11.5796 11.0266C11.4086 11.2156 11.1582 11.466 10.8355 11.717C10.1958 12.2145 9.22471 12.75 8 12.75C6.77529 12.75 5.80419 12.2145 5.16454 11.717C4.84181 11.466 4.59141 11.2156 4.42041 11.0266C4.33455 10.9317 4.26771 10.8512 4.2208 10.7923C4.19732 10.7628 4.17875 10.7386 4.16521 10.7206L4.14867 10.6983L4.14323 10.6908L4.14123 10.6881L4.1404 10.6869C4.14023 10.6867 4.1397 10.6859 4.75 10.25C5.3603 9.81407 5.36014 9.81385 5.35999 9.81364L5.35863 9.81174L5.36384 9.81874C5.36959 9.82638 5.37983 9.83979 5.39444 9.85814C5.4237 9.8949 5.47013 9.95109 5.53271 10.0203C5.65859 10.1594 5.84569 10.3465 6.08546 10.533ZM10.6414 9.81174C10.6415 9.81153 10.6414 9.81174 10.6414 9.81174Z" fill="#44546F"/>
</svg>
