<svg width="16" height="16" viewBox="0 0 16 16" fill="none" xmlns="http://www.w3.org/2000/svg">
<path d="M6.25 6.25C6.25 6.52614 6.02614 6.75 5.75 6.75C5.47386 6.75 5.25 6.52614 5.25 6.25C5.25 5.97386 5.47386 5.75 5.75 5.75C6.02614 5.75 6.25 5.97386 6.25 6.25Z" fill="#44546F"/>
<path d="M10.75 6.25C10.75 6.52614 10.5261 6.75 10.25 6.75C9.97386 6.75 9.75 6.52614 9.75 6.25C9.75 5.97386 9.97386 5.75 10.25 5.75C10.5261 5.75 10.75 5.97386 10.75 6.25Z" fill="#44546F"/>
<path d="M4.75 10.25H11.25M15.25 8C15.25 12.0041 12.0041 15.25 8 15.25C3.99594 15.25 0.75 12.0041 0.75 8C0.75 3.99594 3.99594 0.75 8 0.75C12.0041 0.75 15.25 3.99594 15.25 8ZM6.25 6.25C6.25 6.52614 6.02614 6.75 5.75 6.75C5.47386 6.75 5.25 6.52614 5.25 6.25C5.25 5.97386 5.47386 5.75 5.75 5.75C6.02614 5.75 6.25 5.97386 6.25 6.25ZM10.75 6.25C10.75 6.52614 10.5261 6.75 10.25 6.75C9.97386 6.75 9.75 6.52614 9.75 6.25C9.75 5.97386 9.97386 5.75 10.25 5.75C10.5261 5.75 10.75 5.97386 10.75 6.25Z" stroke="#44546F" stroke-width="1.5"/>
</svg>
