<svg width="16" height="16" viewBox="0 0 16 16" fill="none" xmlns="http://www.w3.org/2000/svg">
<path fill-rule="evenodd" clip-rule="evenodd" d="M6.25 6.25L5.75 5.75C5.69695 5.75 5.64584 5.75826 5.59786 5.77357C5.39611 5.83794 5.25 6.0269 5.25 6.25C5.25 6.52614 5.47386 6.75 5.75 6.75C5.98298 6.75 6.17874 6.59065 6.23425 6.375C6.24453 6.33505 6.25 6.29316 6.25 6.25Z" fill="#44546F"/>
<path d="M10.75 6.25C10.75 6.52614 10.5261 6.75 10.25 6.75C9.97386 6.75 9.75 6.52614 9.75 6.25C9.75 5.97386 9.97386 5.75 10.25 5.75C10.5261 5.75 10.75 5.97386 10.75 6.25Z" fill="#44546F"/>
<path d="M4.75 9.75C4.75 9.75 6 11.5 8 11.5C9.08525 11.5 9.94967 10.9847 10.5134 10.5134M6.25 6.25C6.25 6.29316 6.24453 6.33505 6.23425 6.375C6.17874 6.59065 5.98298 6.75 5.75 6.75C5.47386 6.75 5.25 6.52614 5.25 6.25C5.25 6.0269 5.39611 5.83794 5.59786 5.77357C5.64584 5.75826 5.69695 5.75 5.75 5.75M6.25 6.25L5.75 5.75M6.25 6.25L10.5134 10.5134M5.75 5.75L2.87348 2.87348M1 1L2.87348 2.87348M15 15L13.1265 13.1265M5.27822 1.27822C6.11862 0.937597 7.0374 0.75 8 0.75C12.0041 0.75 15.25 3.99594 15.25 8C15.25 8.9626 15.0624 9.88138 14.7218 10.7218M2.87348 2.87348C1.56148 4.18547 0.75 5.99797 0.75 8C0.75 12.0041 3.99594 15.25 8 15.25C10.002 15.25 11.8145 14.4385 13.1265 13.1265M2.87348 2.87348L10.5134 10.5134M13.1265 13.1265L10.5134 10.5134M10.75 6.25C10.75 6.52614 10.5261 6.75 10.25 6.75C9.97386 6.75 9.75 6.52614 9.75 6.25C9.75 5.97386 9.97386 5.75 10.25 5.75C10.5261 5.75 10.75 5.97386 10.75 6.25Z" stroke="#44546F" stroke-width="1.5"/>
</svg>
