<svg width="16" height="16" viewBox="0 0 16 16" fill="none" xmlns="http://www.w3.org/2000/svg">
<path fill-rule="evenodd" clip-rule="evenodd" d="M8 1.5C7.1356 1.5 6.31238 1.66833 5.55995 1.9733L4.9965 0.583149C5.92487 0.206864 6.93921 0 8 0C12.4183 0 16 3.58172 16 8C16 9.06079 15.7931 10.0751 15.4169 11.0035L14.0267 10.44C14.3317 9.68762 14.5 8.8644 14.5 8C14.5 4.41015 11.5899 1.5 8 1.5ZM1.8376 2.89826L0.46967 1.53033L1.53033 0.46967L15.5303 14.4697L14.4697 15.5303L13.1017 14.1624C11.7174 15.3096 9.93877 16 8 16C3.58172 16 0 12.4183 0 8C0 6.06123 0.690427 4.28262 1.8376 2.89826ZM2.90395 3.96461C2.02446 5.07353 1.5 6.475 1.5 8C1.5 11.5899 4.41015 14.5 8 14.5C9.525 14.5 10.9265 13.9755 12.0354 13.096L10.4383 11.4989C9.81879 11.8985 8.99271 12.25 8 12.25C6.77529 12.25 5.80419 11.7145 5.16454 11.217C4.84181 10.966 4.59141 10.7156 4.42041 10.5266C4.33455 10.4317 4.26771 10.3512 4.2208 10.2923C4.19732 10.2628 4.17875 10.2386 4.16521 10.2206L4.14867 10.1983L4.14323 10.1908L4.14123 10.1881L4.1404 10.1869C4.1404 10.1869 4.1397 10.1859 4.75 9.75C5.3603 9.31407 5.35999 9.31364 5.35999 9.31364L5.35863 9.31174L5.36384 9.31874C5.36959 9.32638 5.37983 9.33979 5.39444 9.35814C5.4237 9.3949 5.47013 9.45109 5.53271 9.52025C5.65859 9.65938 5.84569 9.8465 6.08546 10.033C6.57081 10.4105 7.22471 10.75 8 10.75C8.50339 10.75 8.95558 10.6067 9.34291 10.4036L6.30815 7.36881C6.14027 7.45275 5.95077 7.5 5.75 7.5C5.05964 7.5 4.5 6.94036 4.5 6.25C4.5 6.04921 4.54727 5.85972 4.63121 5.69187L2.90395 3.96461ZM9 6.25C9 5.55964 9.55964 5 10.25 5C10.9404 5 11.5 5.55964 11.5 6.25C11.5 6.94036 10.9404 7.5 10.25 7.5C9.55964 7.5 9 6.94036 9 6.25Z" fill="#44546F"/>
</svg>
