<svg width="16" height="16" viewBox="0 0 16 16" fill="none" xmlns="http://www.w3.org/2000/svg">
<path d="M10.7222 13.9042L11.8386 15.0206C10.6991 15.645 9.39102 16 8 16C3.58172 16 0 12.4183 0 8C0 6.60898 0.355018 5.30088 0.97939 4.16137L2.09578 5.27776C1.71335 6.10583 1.5 7.028 1.5 8C1.5 11.5899 4.41015 14.5 8 14.5C8.972 14.5 9.89417 14.2866 10.7222 13.9042Z" fill="#44546F"/>
<path d="M8 0C6.60898 0 5.30088 0.355018 4.16137 0.97939L5.27776 2.09578C6.10583 1.71335 7.028 1.5 8 1.5C11.5899 1.5 14.5 4.41015 14.5 8C14.5 8.972 14.2866 9.89417 13.9042 10.7222L15.0206 11.8386C15.645 10.6991 16 9.39102 16 8C16 3.58172 12.4183 0 8 0Z" fill="#44546F"/>
<path d="M9.05717 5.87519L10.6248 7.44283C11.132 7.28361 11.5 6.80977 11.5 6.25C11.5 5.55964 10.9404 5 10.25 5C9.69023 5 9.21639 5.36795 9.05717 5.87519Z" fill="#44546F"/>
<path d="M6.08546 10.033C6.46829 10.3307 6.95599 10.6049 7.52542 10.7074L8.95709 12.1391C8.65859 12.209 8.33901 12.25 8 12.25C6.77529 12.25 5.80419 11.7145 5.16454 11.217C4.84181 10.966 4.59141 10.7156 4.42041 10.5266C4.33455 10.4317 4.26771 10.3512 4.2208 10.2923C4.19732 10.2628 4.17875 10.2386 4.16521 10.2206L4.14867 10.1983L4.14323 10.1908L4.14123 10.1881L4.1404 10.1869C4.1404 10.1869 4.1397 10.1859 4.75 9.75C5.3603 9.31407 5.35999 9.31364 5.35999 9.31364L5.35863 9.31174L5.36384 9.31874C5.36959 9.32638 5.37983 9.33979 5.39444 9.35814C5.4237 9.3949 5.47013 9.45109 5.53271 9.52025C5.65859 9.65938 5.84569 9.8465 6.08546 10.033Z" fill="#44546F"/>
<path d="M0.469673 1.53039L14.4697 15.5304L15.5303 14.4697L1.53033 0.469727L0.469673 1.53039Z" fill="#44546F"/>
</svg>
