<svg width="16" height="16" viewBox="0 0 16 16" fill="none" xmlns="http://www.w3.org/2000/svg">
<path fill-rule="evenodd" clip-rule="evenodd" d="M1.5 8C1.5 11.5899 4.41015 14.5 8 14.5C11.5899 14.5 14.5 11.5899 14.5 8L16 8C16 12.4183 12.4183 16 8 16C3.58172 16 6.70752e-07 12.4183 6.99381e-07 8C7.28011e-07 3.58172 3.58172 3.13124e-07 8 6.99381e-07L8 1.5C4.41015 1.5 1.5 4.41015 1.5 8ZM6.08546 10.033C6.57081 10.4105 7.22471 10.75 8 10.75C8.77529 10.75 9.42919 10.4105 9.91455 10.033C10.1543 9.84651 10.3414 9.65938 10.4673 9.52025C10.5299 9.45109 10.5763 9.3949 10.6056 9.35814C10.6202 9.33979 10.6304 9.32638 10.6362 9.31874L10.6414 9.31174L10.6408 9.31258L10.64 9.31364C10.64 9.31364 10.6397 9.31407 11.25 9.75C11.8603 10.1859 11.86 10.1864 11.86 10.1864L11.8588 10.1881L11.8568 10.1908L11.8513 10.1983L11.8348 10.2206C11.8213 10.2386 11.8027 10.2628 11.7792 10.2923C11.7323 10.3512 11.6654 10.4317 11.5796 10.5266C11.4086 10.7156 11.1582 10.966 10.8355 11.217C10.1958 11.7145 9.22471 12.25 8 12.25C6.77529 12.25 5.80419 11.7145 5.16455 11.217C4.84181 10.966 4.59141 10.7156 4.42041 10.5266C4.33455 10.4317 4.26771 10.3512 4.2208 10.2923C4.19732 10.2628 4.17875 10.2386 4.16521 10.2206L4.14867 10.1983L4.14323 10.1908L4.14123 10.1881L4.14041 10.1869C4.14041 10.1869 4.1397 10.1859 4.75 9.75C5.3603 9.31407 5.35999 9.31364 5.35999 9.31364L5.35863 9.31174L5.36384 9.31874C5.36959 9.32638 5.37983 9.33979 5.39444 9.35814C5.4237 9.3949 5.47013 9.45109 5.53272 9.52025C5.65859 9.65938 5.84569 9.8465 6.08546 10.033ZM5.75 7.5C5.05965 7.5 4.5 6.94036 4.5 6.25C4.5 5.55965 5.05964 5 5.75 5C6.44036 5 7 5.55964 7 6.25C7 6.94036 6.44036 7.5 5.75 7.5ZM10.25 7.5C9.55964 7.5 9 6.94036 9 6.25C9 5.55964 9.55964 5 10.25 5C10.9404 5 11.5 5.55964 11.5 6.25C11.5 6.94036 10.9404 7.5 10.25 7.5ZM12.5 3.50025L10.5 3.50025L10.5 2.00025L12.5 2.00025L12.5 0.000245233L14 0.000245365L14 2.00025L16 2.00025L16 3.50025L14 3.50025L14 5.50025L12.5 5.50025L12.5 3.50025Z" fill="#292A2E"/>
</svg>
