<svg width="16" height="16" viewBox="0 0 16 16" fill="none" xmlns="http://www.w3.org/2000/svg">
<path d="M6.25 6.25024C6.25 6.52639 6.02614 6.75024 5.75 6.75024C5.47386 6.75024 5.25 6.52639 5.25 6.25025C5.25 5.9741 5.47386 5.75024 5.75 5.75024C6.02614 5.75024 6.25 5.9741 6.25 6.25024Z" fill="#44546F"/>
<path d="M10.75 6.25025C10.75 6.52639 10.5261 6.75024 10.25 6.75024C9.97386 6.75024 9.75 6.52639 9.75 6.25024C9.75 5.9741 9.97386 5.75024 10.25 5.75024C10.5261 5.75024 10.75 5.9741 10.75 6.25025Z" fill="#44546F"/>
<path d="M10.5 2.75049L13.25 2.75049L16 2.75049M13.25 0.000489374L13.25 5.50049M15.25 8.00024C15.25 12.0043 12.0041 15.2502 8 15.2502C3.99594 15.2502 0.750001 12.0043 0.750001 8.00025C0.750001 3.99618 3.99594 0.750245 8 0.750245M11.25 9.75025C11.25 9.75025 10 11.5002 8 11.5002C6 11.5002 4.75 9.75024 4.75 9.75024M6.25 6.25024C6.25 6.52639 6.02614 6.75024 5.75 6.75024C5.47386 6.75024 5.25 6.52639 5.25 6.25025C5.25 5.9741 5.47386 5.75024 5.75 5.75024C6.02614 5.75024 6.25 5.9741 6.25 6.25024ZM10.75 6.25025C10.75 6.52639 10.5261 6.75024 10.25 6.75024C9.97386 6.75024 9.75 6.52639 9.75 6.25024C9.75 5.9741 9.97386 5.75024 10.25 5.75024C10.5261 5.75024 10.75 5.9741 10.75 6.25025Z" stroke="#44546F" stroke-width="1.5"/>
</svg>
