<svg width="16" height="16" viewBox="0 0 16 16" fill="none" xmlns="http://www.w3.org/2000/svg">
<path d="M6 15.25H5.25C5.25 15.5597 5.4403 15.8375 5.72904 15.9493C6.01778 16.0612 6.34559 15.9841 6.55422 15.7553L6 15.25ZM13.75 6.75L14.3042 7.25532C14.4864 7.0555 14.5469 6.77309 14.4626 6.51617C14.3783 6.25925 14.1622 6.06759 13.8971 6.01456L13.75 6.75ZM10 6H9.25V6.61485L9.85291 6.73544L10 6ZM10 0.75H10.75C10.75 0.440347 10.5597 0.162528 10.271 0.0506565C9.98222 -0.0612146 9.65441 0.0158644 9.44578 0.244685L10 0.75ZM2.25 9.25L1.69578 8.74468C1.5136 8.9445 1.45308 9.22691 1.53738 9.48383C1.62169 9.74075 1.83776 9.93241 2.10291 9.98544L2.25 9.25ZM6 10H6.75V9.38515L6.14709 9.26456L6 10ZM6.55422 15.7553L14.3042 7.25532L13.1958 6.24468L5.44578 14.7447L6.55422 15.7553ZM13.8971 6.01456L10.1471 5.26456L9.85291 6.73544L13.6029 7.48544L13.8971 6.01456ZM10.75 6V0.75H9.25V6H10.75ZM9.44578 0.244685L1.69578 8.74468L2.80422 9.75532L10.5542 1.25532L9.44578 0.244685ZM2.10291 9.98544L5.85291 10.7354L6.14709 9.26456L2.39709 8.51456L2.10291 9.98544ZM5.25 10V15.25H6.75V10H5.25Z" fill="#44546F"/>
</svg>
