<svg width="16" height="16" viewBox="0 0 16 16" fill="none" xmlns="http://www.w3.org/2000/svg">
<path fill-rule="evenodd" clip-rule="evenodd" d="M10.271 0.0506865C10.5597 0.162558 10.75 0.440377 10.75 0.75003V5.38518L13.8971 6.01459C14.1622 6.06762 14.3783 6.25928 14.4626 6.5162C14.5469 6.77312 14.4864 7.05553 14.3042 7.25535L6.55422 15.7553C6.34559 15.9842 6.01778 16.0612 5.72904 15.9494C5.4403 15.8375 5.25 15.5597 5.25 15.25V10.6149L2.10291 9.98547C1.83776 9.93244 1.62169 9.74078 1.53738 9.48386C1.45308 9.22694 1.5136 8.94453 1.69578 8.74471L9.44578 0.244715C9.65441 0.0158944 9.98222 -0.0611845 10.271 0.0506865ZM3.69822 8.77482L6.75 9.38518V13.3143L12.3018 7.22524L9.25 6.61488V2.68578L3.69822 8.77482Z" fill="#44546F"/>
</svg>
