<svg width="16" height="16" viewBox="0 0 16 16" fill="none" xmlns="http://www.w3.org/2000/svg">
<path fill-rule="evenodd" clip-rule="evenodd" d="M10.271 0.050656C10.5597 0.162527 10.75 0.440346 10.75 0.75V5.38515L13.8971 6.01456C14.1622 6.06759 14.3783 6.25925 14.4626 6.51617C14.5469 6.77309 14.4864 7.0555 14.3042 7.25531L6.55422 15.7553C6.34559 15.9841 6.01778 16.0612 5.72904 15.9493C5.4403 15.8375 5.25 15.5597 5.25 15.25V10.6149L2.10291 9.98543C1.83776 9.9324 1.62169 9.74075 1.53738 9.48383C1.45308 9.22691 1.5136 8.9445 1.69578 8.74468L9.44578 0.244684C9.65441 0.0158639 9.98222 -0.061215 10.271 0.050656ZM3.69822 8.77479L6.75 9.38515V13.3143L12.3018 7.22521L9.25 6.61485V2.68575L3.69822 8.77479Z" fill="#292A2E"/>
</svg>
