<svg width="16" height="16" viewBox="0 0 16 16" fill="none" xmlns="http://www.w3.org/2000/svg">
<path fill-rule="evenodd" clip-rule="evenodd" d="M6.58579 0.603583C7.36683 -0.177465 8.63317 -0.177468 9.41421 0.603581L15.3964 6.58581C16.1775 7.36686 16.1775 8.63319 15.3964 9.41424L9.41422 15.3965C8.63317 16.1775 7.36684 16.1775 6.58579 15.3965L0.603556 9.41424C-0.177492 8.63319 -0.177495 7.36686 0.603555 6.58581L6.58579 0.603583ZM7.25 8.99997V3.74997H8.75V8.99997H7.25ZM8 12.25C8.55229 12.25 9 11.8023 9 11.25C9 10.6977 8.55229 10.25 8 10.25C7.44772 10.25 7 10.6977 7 11.25C7 11.8023 7.44772 12.25 8 12.25Z" fill="#44546F"/>
</svg>
