<svg width="16" height="16" viewBox="0 0 16 16" fill="none" xmlns="http://www.w3.org/2000/svg">
<path fill-rule="evenodd" clip-rule="evenodd" d="M6.58579 0.603365C7.36683 -0.177683 8.63317 -0.177685 9.41421 0.603364L15.3964 6.5856C16.1775 7.36664 16.1775 8.63297 15.3964 9.41402L9.41422 15.3963C8.63317 16.1773 7.36684 16.1773 6.58579 15.3963L0.603556 9.41402C-0.177492 8.63298 -0.177495 7.36665 0.603555 6.5856L6.58579 0.603365ZM7.25 8.99976V3.74976H8.75V8.99976H7.25ZM8 12.2498C8.55229 12.2498 9 11.802 9 11.2498C9 10.6975 8.55229 10.2498 8 10.2498C7.44772 10.2498 7 10.6975 7 11.2498C7 11.802 7.44772 12.2498 8 12.2498Z" fill="#44546F"/>
</svg>
