<svg width="16" height="16" viewBox="0 0 16 16" fill="none" xmlns="http://www.w3.org/2000/svg">
<path fill-rule="evenodd" clip-rule="evenodd" d="M6.58578 0.603573C7.36683 -0.177474 8.63316 -0.177477 9.41421 0.603572L15.3964 6.5858C16.1775 7.36685 16.1775 8.63318 15.3964 9.41423L9.41421 15.3965C8.63316 16.1775 7.36683 16.1775 6.58578 15.3965L0.603548 9.41423C-0.1775 8.63318 -0.177502 7.36685 0.603547 6.58581L6.58578 0.603573ZM7.24999 8.99996V3.74996H8.74999V8.99996H7.24999ZM7.99999 12.25C8.55228 12.25 8.99999 11.8022 8.99999 11.25C8.99999 10.6977 8.55228 10.25 7.99999 10.25C7.44771 10.25 6.99999 10.6977 6.99999 11.25C6.99999 11.8022 7.44771 12.25 7.99999 12.25Z" fill="#44546F"/>
</svg>
