<svg width="16" height="16" viewBox="0 0 16 16" fill="none" xmlns="http://www.w3.org/2000/svg">
<path fill-rule="evenodd" clip-rule="evenodd" d="M6.58579 0.603609C7.36683 -0.177439 8.63317 -0.177441 9.41421 0.603608L15.3964 6.58584C16.1775 7.36689 16.1775 8.63322 15.3964 9.41427L9.41422 15.3965C8.63317 16.1775 7.36684 16.1776 6.58579 15.3965L0.603556 9.41427C-0.177492 8.63322 -0.177495 7.36689 0.603555 6.58584L6.58579 0.603609ZM7.25 9V3.75H8.75V9H7.25ZM8 12.25C8.55229 12.25 9 11.8023 9 11.25C9 10.6977 8.55229 10.25 8 10.25C7.44772 10.25 7 10.6977 7 11.25C7 11.8023 7.44772 12.25 8 12.25Z" fill="#292A2E"/>
</svg>
