<svg width="16" height="16" viewBox="0 0 16 16" fill="none" xmlns="http://www.w3.org/2000/svg">
<path d="M13.5 3C13.5 2.72386 13.2761 2.5 13 2.5H3C2.72386 2.5 2.5 2.72386 2.5 3V13C2.5 13.2761 2.72386 13.5 3 13.5H13C13.2761 13.5 13.5 13.2761 13.5 13V3ZM8.75 4V9H7.25V4H8.75ZM15 13C15 14.1046 14.1046 15 13 15H3C1.89543 15 1 14.1046 1 13V3C1 1.89543 1.89543 1 3 1H13C14.1046 1 15 1.89543 15 3V13Z" fill="#292A2E"/>
<path d="M9 11.25C9 11.8023 8.55228 12.25 8 12.25C7.44772 12.25 7 11.8023 7 11.25C7 10.6977 7.44772 10.25 8 10.25C8.55228 10.25 9 10.6977 9 11.25Z" fill="#292A2E"/>
</svg>
