<svg width="16" height="16" viewBox="0 0 16 16" fill="none" xmlns="http://www.w3.org/2000/svg">
<path d="M1 1.5L15 1.5V0L1 6.11959e-07L1 1.5ZM1 16H15V14.5L1 14.5L1 16ZM7.46973 14.2803C7.76262 14.5732 8.23738 14.5732 8.53027 14.2803L11.7803 11.0303L10.7197 9.96973L8.75 11.9395L8.75 4.06055L10.7197 6.03027L11.7803 4.96973L8.53027 1.71973C8.23738 1.42683 7.76262 1.42683 7.46973 1.71973L4.21973 4.96973L5.28027 6.03027L7.25 4.06055L7.25 11.9395L5.28027 9.96973L4.21973 11.0303L7.46973 14.2803Z" fill="#292A2E"/>
</svg>
