<svg width="16" height="16" viewBox="0 0 16 16" fill="none" xmlns="http://www.w3.org/2000/svg">
<path fill-rule="evenodd" clip-rule="evenodd" d="M15 -5.52355e-07L1 0L1 1.5L15 1.5L15 -5.52355e-07ZM15 16L15 14.5L1 14.5L1 16L15 16ZM7.46967 3.21967L4.96967 5.71967L6.03033 6.78033L7.25 5.56066L7.25 10.4393L6.03033 9.21967L4.96967 10.2803L7.46967 12.7803C7.76256 13.0732 8.23744 13.0732 8.53033 12.7803L11.0303 10.2803L9.96967 9.21967L8.75 10.4393L8.75 5.56066L9.96967 6.78033L11.0303 5.71967L8.53033 3.21967C8.23744 2.92678 7.76256 2.92678 7.46967 3.21967Z" fill="#44546F"/>
</svg>
