<svg width="16" height="16" viewBox="0 0 16 16" fill="none" xmlns="http://www.w3.org/2000/svg">
<path fill-rule="evenodd" clip-rule="evenodd" d="M7.9999 3.5C5.05727 3.5 2.50931 5.34456 1.57579 7.89564C1.55116 7.96295 1.55116 8.03705 1.57579 8.10436C2.50931 10.6554 5.05727 12.5 7.9999 12.5C10.9426 12.5 13.4907 10.6554 14.4242 8.10436C14.4488 8.03705 14.4488 7.96295 14.4242 7.89564C13.4907 5.34458 10.9426 3.5 7.9999 3.5ZM0.167143 7.38017C1.31899 4.23246 4.43332 2 7.9999 2C11.5665 2 14.681 4.23244 15.8329 7.38017C15.9793 7.78033 15.9793 8.21967 15.8329 8.61983C14.681 11.7676 11.5665 14 7.9999 14C4.43332 14 1.31899 11.7675 0.167143 8.61983C0.0207118 8.21967 0.0207119 7.78033 0.167143 7.38017ZM8 6.5C7.17157 6.5 6.5 7.17157 6.5 8C6.5 8.82843 7.17157 9.5 8 9.5C8.82843 9.5 9.5 8.82843 9.5 8C9.5 7.17157 8.82843 6.5 8 6.5ZM5 8C5 6.34315 6.34315 5 8 5C9.65685 5 11 6.34315 11 8C11 9.65685 9.65685 11 8 11C6.34315 11 5 9.65685 5 8Z" fill="#44546F"/>
</svg>
