<svg width="16" height="16" viewBox="0 0 16 16" fill="none" xmlns="http://www.w3.org/2000/svg">
<path d="M9.5 8C9.5 8.82843 8.82843 9.5 8 9.5C7.17157 9.5 6.5 8.82843 6.5 8C6.5 7.17157 7.17157 6.5 8 6.5C8.82843 6.5 9.5 7.17157 9.5 8Z" fill="#44546F"/>
<path fill-rule="evenodd" clip-rule="evenodd" d="M9.5 8C9.5 8.82843 8.82843 9.5 8 9.5C7.17157 9.5 6.5 8.82843 6.5 8C6.5 7.17157 7.17157 6.5 8 6.5C8.82843 6.5 9.5 7.17157 9.5 8Z" fill="#44546F"/>
<path d="M0.75 8C2.05808 5.33577 4.81304 3.5 8 3.5C11.187 3.5 13.9419 5.33577 15.25 8C13.9419 10.6642 11.187 12.5 8 12.5C4.81304 12.5 2.05808 10.6642 0.75 8ZM9.5 8C9.5 8.82843 8.82843 9.5 8 9.5C7.17157 9.5 6.5 8.82843 6.5 8C6.5 7.17157 7.17157 6.5 8 6.5C8.82843 6.5 9.5 7.17157 9.5 8Z" stroke="#44546F" stroke-width="1.5" stroke-linejoin="round"/>
</svg>
