<svg width="16" height="16" viewBox="0 0 16 16" fill="none" xmlns="http://www.w3.org/2000/svg">
<path d="M7.9999 2.75C4.7453 2.75 1.91415 4.78851 0.871468 7.63791C0.785937 7.87164 0.785937 8.12836 0.871468 8.36209C1.91415 11.2115 4.7453 13.25 7.9999 13.25C11.2545 13.25 14.0858 11.2115 15.1285 8.36209C15.2141 8.12836 15.2141 7.87164 15.1285 7.63791C14.0858 4.78851 11.2545 2.75 7.9999 2.75Z" stroke="#44546F" stroke-width="1.5" stroke-linejoin="round"/>
<path d="M10.25 8C10.25 9.24264 9.24264 10.25 8 10.25C6.75736 10.25 5.75 9.24264 5.75 8C5.75 6.75736 6.75736 5.75 8 5.75C9.24264 5.75 10.25 6.75736 10.25 8Z" stroke="#44546F" stroke-width="1.5" stroke-linejoin="round"/>
</svg>
