<svg width="16" height="16" viewBox="0 0 16 16" fill="none" xmlns="http://www.w3.org/2000/svg">
<path d="M1 1L3.91904 3.91903M15 15L12.0809 12.0809M3.91904 3.91903C2.52364 4.79153 1.43567 6.09603 0.871439 7.63798C0.785912 7.87172 0.785937 8.12836 0.871468 8.36209C1.91415 11.2115 4.7453 13.25 7.9999 13.25C9.49334 13.25 10.8977 12.8208 12.0809 12.0809M3.91904 3.91903L6.40901 6.40901M12.0809 12.0809L9.59099 9.59099M9.59099 9.59099C9.18382 9.99816 8.62132 10.25 8 10.25C6.75736 10.25 5.75 9.24264 5.75 8C5.75 7.37868 6.00184 6.81618 6.40901 6.40901M9.59099 9.59099L6.40901 6.40901M6.4142 2.91419C6.92679 2.80663 7.45746 2.75 7.9999 2.75C11.2545 2.75 14.0858 4.78851 15.1285 7.63791C15.2141 7.87164 15.2141 8.12826 15.1286 8.36199C14.8511 9.12038 14.4469 9.82132 13.9417 10.4417" stroke="#44546F" stroke-width="1.5" stroke-linejoin="round"/>
</svg>
