<svg width="16" height="16" viewBox="0 0 16 16" fill="none" xmlns="http://www.w3.org/2000/svg">
<path d="M5.75 8C5.75 6.75736 6.75736 5.75 8 5.75C9.24264 5.75 10.25 6.75736 10.25 8C10.25 9.24264 9.24264 10.25 8 10.25C6.75736 10.25 5.75 9.24264 5.75 8Z" fill="#44546F"/>
<path fill-rule="evenodd" clip-rule="evenodd" d="M7.99996 2C4.43338 2 1.31905 4.23246 0.167196 7.38017C0.0207653 7.78033 0.0207653 8.21967 0.167196 8.61983C1.31905 11.7675 4.43338 14 7.99996 14C11.5665 14 14.681 11.7676 15.8329 8.61983C15.9793 8.21967 15.9793 7.78033 15.8329 7.38017C14.681 4.23244 11.5665 2 7.99996 2ZM8 4.25C5.92893 4.25 4.25 5.92893 4.25 8C4.25 10.0711 5.92893 11.75 8 11.75C10.0711 11.75 11.75 10.0711 11.75 8C11.75 5.92893 10.0711 4.25 8 4.25Z" fill="#44546F"/>
</svg>
