<svg width="16" height="16" viewBox="0 0 16 16" fill="none" xmlns="http://www.w3.org/2000/svg">
<path d="M0.46967 1.53028L14.4697 15.5303L15.5303 14.4696L1.53033 0.46962L0.46967 1.53028Z" fill="#292A2E"/>
<path d="M9.21239 12.3941L10.4549 13.6366C9.67602 13.8729 8.85085 13.9999 7.99996 13.9999C4.43338 13.9999 1.31905 11.7675 0.167196 8.61978C0.0207653 8.21962 0.0207653 7.78028 0.167196 7.38012C0.509072 6.44586 1.02383 5.59223 1.67198 4.85367L2.73552 5.9172C2.23715 6.50212 1.84125 7.1703 1.57585 7.89559C1.55122 7.9629 1.55122 8.037 1.57585 8.10431C2.50937 10.6554 5.05732 12.4999 7.99996 12.4999C8.413 12.4999 8.81826 12.4636 9.21239 12.3941Z" fill="#292A2E"/>
<path d="M7.99996 1.99995C7.14921 1.99995 6.3242 2.12697 5.54541 2.36314L6.78802 3.60574C7.18198 3.53626 7.58708 3.49995 7.99996 3.49995C10.9426 3.49995 13.4907 5.34453 14.4243 7.89559C14.4489 7.9629 14.4489 8.037 14.4243 8.10431C14.1589 8.8295 13.763 9.4976 13.2647 10.0825L14.3283 11.146C14.9764 10.4075 15.4911 9.55395 15.8329 8.61978C15.9793 8.21962 15.9793 7.78028 15.8329 7.38012C14.681 4.23239 11.5665 1.99995 7.99996 1.99995Z" fill="#292A2E"/>
</svg>
