<svg width="16" height="16" viewBox="0 0 16 16" fill="none" xmlns="http://www.w3.org/2000/svg">
<path d="M0.46967 1.53039L14.4697 15.5304L15.5303 14.4697L1.53033 0.469727L0.46967 1.53039Z" fill="#292A2E"/>
<path d="M9.21239 12.3942L10.4549 13.6367C9.67602 13.873 8.85085 14.0001 7.99996 14.0001C4.43338 14.0001 1.31905 11.7676 0.167196 8.61989C0.0207653 8.21973 0.0207653 7.78039 0.167196 7.38023C0.509072 6.44597 1.02383 5.59234 1.67198 4.85377L2.73552 5.91731C2.23715 6.50223 1.84125 7.17041 1.57585 7.8957C1.55122 7.963 1.55122 8.03711 1.57585 8.10442C2.50937 10.6555 5.05732 12.5001 7.99996 12.5001C8.413 12.5001 8.81826 12.4637 9.21239 12.3942Z" fill="#292A2E"/>
<path d="M7.99996 2.00006C7.14921 2.00006 6.3242 2.12708 5.54541 2.36325L6.78802 3.60585C7.18198 3.53637 7.58708 3.50006 7.99996 3.50006C10.9426 3.50006 13.4907 5.34464 14.4243 7.8957C14.4489 7.963 14.4489 8.03711 14.4243 8.10441C14.1589 8.82961 13.763 9.49771 13.2647 10.0826L14.3283 11.1461C14.9764 10.4076 15.4911 9.55405 15.8329 8.61989C15.9793 8.21973 15.9793 7.78039 15.8329 7.38022C14.681 4.23249 11.5665 2.00006 7.99996 2.00006Z" fill="#292A2E"/>
</svg>
