<svg width="16" height="16" viewBox="0 0 16 16" fill="none" xmlns="http://www.w3.org/2000/svg">
<path fill-rule="evenodd" clip-rule="evenodd" d="M2.75966 3.82038L0.469669 1.53039L1.53033 0.469727L15.5303 14.4697L14.4697 15.5304L11.957 13.0177C10.775 13.6441 9.42401 14.0001 7.9999 14.0001C4.43332 14.0001 1.31899 11.7676 0.167143 8.61989C0.0207305 8.21978 0.0206682 7.78052 0.167111 7.38031C0.683548 5.96897 1.59407 4.74336 2.75966 3.82038ZM3.82901 4.88973C2.80466 5.65938 2.01293 6.70107 1.57577 7.89577C1.55115 7.96303 1.55114 8.03706 1.57579 8.10442C2.50931 10.6555 5.05727 12.5001 7.9999 12.5001C9.007 12.5001 9.96869 12.284 10.8358 11.8965L9.52386 10.5846C9.07728 10.8483 8.55604 11.0001 8 11.0001C6.34315 11.0001 5 9.65691 5 8.00006C5 7.44402 5.15172 6.92277 5.41547 6.47619L3.82901 4.88973ZM6.55069 7.6114C6.5176 7.7353 6.5 7.86555 6.5 8.00006C6.5 8.82848 7.17157 9.50006 8 9.50006C8.13451 9.50006 8.26476 9.48246 8.38865 9.44937L6.55069 7.6114ZM7.9999 3.50006C7.50976 3.50006 7.0307 3.55121 6.56823 3.64826L6.26016 2.18024C6.82288 2.06215 7.40517 2.00006 7.9999 2.00006C11.5665 2.00006 14.681 4.23249 15.8329 7.38022C15.9793 7.78032 15.9793 8.21955 15.8329 8.61977C15.5258 9.45892 15.0793 10.2324 14.5232 10.9153L13.3601 9.96815C13.8144 9.41034 14.1763 8.78194 14.4242 8.10432C14.4488 8.03708 14.4489 7.96307 14.4242 7.8957C13.4907 5.34464 10.9426 3.50006 7.9999 3.50006Z" fill="#44546F"/>
</svg>
