<svg width="16" height="16" viewBox="0 0 16 16" fill="none" xmlns="http://www.w3.org/2000/svg">
<path fill-rule="evenodd" clip-rule="evenodd" d="M8 3.5C4.81304 3.5 2.05808 5.33577 0.75 8C2.05808 10.6642 4.81304 12.5 8 12.5C11.187 12.5 13.9419 10.6642 15.25 8C13.9419 5.33577 11.187 3.5 8 3.5ZM8 12.25C10.3472 12.25 12.25 10.3472 12.25 8C12.25 5.65279 10.3472 3.75 8 3.75C5.65279 3.75 3.75 5.65279 3.75 8C3.75 10.3472 5.65279 12.25 8 12.25Z" fill="#44546F"/>
<path d="M9.25 8C9.25 8.69036 8.69036 9.25 8 9.25C7.30964 9.25 6.75 8.69036 6.75 8C6.75 7.30964 7.30964 6.75 8 6.75C8.69036 6.75 9.25 7.30964 9.25 8Z" fill="#44546F"/>
<path fill-rule="evenodd" clip-rule="evenodd" d="M8 3.5C4.81304 3.5 2.05808 5.33577 0.75 8C2.05808 10.6642 4.81304 12.5 8 12.5C11.187 12.5 13.9419 10.6642 15.25 8C13.9419 5.33577 11.187 3.5 8 3.5ZM8 12.25C10.3472 12.25 12.25 10.3472 12.25 8C12.25 5.65279 10.3472 3.75 8 3.75C5.65279 3.75 3.75 5.65279 3.75 8C3.75 10.3472 5.65279 12.25 8 12.25Z" stroke="#44546F" stroke-width="1.5" stroke-linejoin="round"/>
<path d="M9.25 8C9.25 8.69036 8.69036 9.25 8 9.25C7.30964 9.25 6.75 8.69036 6.75 8C6.75 7.30964 7.30964 6.75 8 6.75C8.69036 6.75 9.25 7.30964 9.25 8Z" stroke="#44546F" stroke-width="1.5" stroke-linejoin="round"/>
</svg>
