<svg width="16" height="16" viewBox="0 0 16 16" fill="none" xmlns="http://www.w3.org/2000/svg">
<path fill-rule="evenodd" clip-rule="evenodd" d="M7 2.5C6.72386 2.5 6.5 2.72386 6.5 3V12.25C6.5 12.7001 6.39186 13.125 6.20015 13.5H12.25C12.9404 13.5 13.5 12.9404 13.5 12.25V3C13.5 2.72386 13.2761 2.5 13 2.5H7ZM3.75 13.5C4.44036 13.5 5 12.9404 5 12.25V7H3C2.72386 7 2.5 7.22386 2.5 7.5V12.25C2.5 12.9404 3.05964 13.5 3.75 13.5ZM5 5.5V3C5 1.89543 5.89543 1 7 1H13C14.1046 1 15 1.89543 15 3V12.25C15 13.7688 13.7688 15 12.25 15H3.75C2.23122 15 1 13.7688 1 12.25V7.5C1 6.39543 1.89543 5.5 3 5.5H5ZM12 5.5H8V4H12V5.5ZM11 8.5H8V7H11V8.5Z" fill="#44546F"/>
</svg>
