<svg width="16" height="16" viewBox="0 0 16 16" fill="none" xmlns="http://www.w3.org/2000/svg">
<path fill-rule="evenodd" clip-rule="evenodd" d="M1 3C1 1.89543 1.89543 1 3 1H13C14.1046 1 15 1.89543 15 3V11C15 12.1046 14.1046 13 13 13H6.22149L2.15744 15.6297C1.92676 15.7789 1.63294 15.7901 1.39159 15.6588C1.15024 15.5275 1 15.2748 1 15V9.5H2.5V13.6214L5.59256 11.6203C5.71394 11.5418 5.85543 11.5 6 11.5H13C13.2761 11.5 13.5 11.2761 13.5 11V3C13.5 2.72386 13.2761 2.5 13 2.5H3C2.72386 2.5 2.5 2.72386 2.5 3V5.75C2.5 6.02614 2.72386 6.25 3 6.25H8.43934L7.21967 5.03033L8.28033 3.96967L10.7803 6.46967C11.0732 6.76256 11.0732 7.23744 10.7803 7.53033L8.28033 10.0303L7.21967 8.96967L8.43934 7.75H3C1.89543 7.75 1 6.85457 1 5.75V3Z" fill="#292A2E"/>
</svg>
