<svg width="16" height="16" viewBox="0 0 16 16" fill="none" xmlns="http://www.w3.org/2000/svg">
<path d="M8 4.5H15M8 11.5H15Mnan nanLnan nanL1.25 11.5C1.25 12.6046 2.14543 13.5 3.25 13.5Lnan nanLnan nanL3.25 13.5C4.35457 13.5 5.25 12.6046 5.25 11.5Lnan nanLnan nanL5.25 11.5C5.25 10.3954 4.35457 9.5 3.25 9.5Lnan nanLnan nanL3.25 9.5C2.14543 9.5 1.25 10.3954 1.25 11.5Lnan nanZM3.25 6.5V6.5C4.35457 6.5 5.25 5.60457 5.25 4.5V4.5C5.25 3.39543 4.35457 2.5 3.25 2.5V2.5C2.14543 2.5 1.25 3.39543 1.25 4.5V4.5C1.25 5.60457 2.14543 6.5 3.25 6.5Z" stroke="#44546F" stroke-width="1.5" stroke-linejoin="round"/>
</svg>
