<svg width="16" height="16" viewBox="0 0 16 16" fill="none" xmlns="http://www.w3.org/2000/svg">
<path d="M4.5 10.75H2C1.30964 10.75 0.75 10.1904 0.75 9.5V6.5C0.75 5.80964 1.30964 5.25 2 5.25H4.5M11.5 10.75H14C14.6904 10.75 15.25 10.1904 15.25 9.5V6.5C15.25 5.80964 14.6904 5.25 14 5.25H11.5M8 3L8 9.5" stroke="#44546F" stroke-width="1.5" stroke-linejoin="round"/>
<path fill-rule="evenodd" clip-rule="evenodd" d="M8 13C8.55229 13 9 12.5523 9 12C9 11.4477 8.55229 11 8 11C7.44772 11 7 11.4477 7 12C7 12.5523 7.44772 13 8 13Z" fill="#44546F"/>
</svg>
