<svg width="16" height="16" viewBox="0 0 16 16" fill="none" xmlns="http://www.w3.org/2000/svg">
<path fill-rule="evenodd" clip-rule="evenodd" d="M14 3.5H0V2H14C15.1046 2 16 2.89543 16 4V12C16 13.1046 15.1046 14 14 14H0V12.5H14C14.2761 12.5 14.5 12.2761 14.5 12V4C14.5 3.72386 14.2761 3.5 14 3.5ZM9.00002 8.18934L7.03033 6.21967L5.96967 7.28033L8.4697 9.78033C8.61035 9.92098 8.80112 10 9.00003 10C9.19894 10 9.38971 9.92098 9.53036 9.78033L12.0303 7.28033L10.9697 6.21967L9.00002 8.18934Z" fill="#44546F"/>
</svg>
