<svg width="16" height="16" viewBox="0 0 16 16" fill="none" xmlns="http://www.w3.org/2000/svg">
<path fill-rule="evenodd" clip-rule="evenodd" d="M1 2.75C1 2.33579 1.33579 2 1.75 2H5.25C5.66421 2 6 2.33579 6 2.75V6.25C6 6.66421 5.66421 7 5.25 7H1.75C1.33579 7 1 6.66421 1 6.25V2.75ZM2.5 3.5V5.5H4.5V3.5H2.5ZM15 5.25H8V3.75H15V5.25ZM1 9.75C1 9.33579 1.33579 9 1.75 9H5.25C5.66421 9 6 9.33579 6 9.75V13.25C6 13.6642 5.66421 14 5.25 14H1.75C1.33579 14 1 13.6642 1 13.25V9.75ZM2.5 10.5V12.5H4.5V10.5H2.5ZM15 12.25H8V10.75H15V12.25Z" fill="#44546F"/>
</svg>
