<svg width="16" height="16" viewBox="0 0 16 16" fill="none" xmlns="http://www.w3.org/2000/svg">
<path fill-rule="evenodd" clip-rule="evenodd" d="M0.5 4.5C0.5 2.98122 1.73122 1.75 3.25 1.75C4.76878 1.75 6 2.98122 6 4.5C6 6.01878 4.76878 7.25 3.25 7.25C1.73122 7.25 0.5 6.01878 0.5 4.5ZM3.25 3.25C2.55964 3.25 2 3.80964 2 4.5C2 5.19036 2.55964 5.75 3.25 5.75C3.94036 5.75 4.5 5.19036 4.5 4.5C4.5 3.80964 3.94036 3.25 3.25 3.25ZM15 5.25H8V3.75H15V5.25ZM0.5 11.5C0.5 9.98122 1.73122 8.75 3.25 8.75C4.76878 8.75 6 9.98122 6 11.5C6 13.0188 4.76878 14.25 3.25 14.25C1.73122 14.25 0.5 13.0188 0.5 11.5ZM3.25 10.25C2.55964 10.25 2 10.8096 2 11.5C2 12.1904 2.55964 12.75 3.25 12.75C3.94036 12.75 4.5 12.1904 4.5 11.5C4.5 10.8096 3.94036 10.25 3.25 10.25ZM15 12.25H8V10.75H15V12.25Z" fill="#44546F"/>
</svg>
