<svg width="16" height="16" viewBox="0 0 16 16" fill="none" xmlns="http://www.w3.org/2000/svg">
<path fill-rule="evenodd" clip-rule="evenodd" d="M6.58594 0.603269C7.36696 -0.177651 8.63304 -0.177653 9.41406 0.603269L15.3965 6.58569C16.1774 7.36672 16.1774 8.63279 15.3965 9.41382L9.41406 15.3962C8.63304 16.1772 7.36696 16.1772 6.58594 15.3962L0.603514 9.41382C-0.177407 8.63279 -0.177409 7.36672 0.603514 6.58569L6.58594 0.603269ZM8.35351 1.66382C8.15828 1.46868 7.84172 1.46868 7.64648 1.66382L1.66406 7.64624C1.46893 7.84148 1.46892 8.15803 1.66406 8.35327L7.64648 14.3357C7.84172 14.5308 8.15827 14.5308 8.35351 14.3357L14.3359 8.35327C14.5311 8.15803 14.5311 7.84148 14.3359 7.64624L8.35351 1.66382Z" fill="#292A2E"/>
</svg>
