<svg width="16" height="16" viewBox="0 0 16 16" fill="none" xmlns="http://www.w3.org/2000/svg">
<path d="M6.58594 0.603516C7.3669 -0.177082 8.6331 -0.177085 9.41406 0.603516L15.3965 6.58594C16.1773 7.36688 16.1772 8.63302 15.3965 9.41406L9.41406 15.3965C8.63304 16.1774 7.36696 16.1774 6.58594 15.3965L2.19043 11.001H4.31152L7.64648 14.3359C7.84172 14.5311 8.15828 14.5311 8.35352 14.3359L14.3359 8.35352C14.5308 8.15826 14.531 7.84164 14.3359 7.64648L8.35352 1.66406C8.15834 1.46925 7.84166 1.46925 7.64648 1.66406L4.30957 5.00098H2.18848L6.58594 0.603516Z" fill="#292A2E"/>
<path fill-rule="evenodd" clip-rule="evenodd" d="M8 5.50098C9.38071 5.50098 10.5 6.62026 10.5 8.00098C10.4999 9.38158 9.38063 10.501 8 10.501C6.88075 10.501 5.93394 9.76502 5.61523 8.75098H0V7.25098H5.61426C5.93274 6.23656 6.88049 5.50098 8 5.50098ZM8 7.00098C7.44772 7.00098 7 7.44869 7 8.00098C7.00013 8.55315 7.4478 9.00098 8 9.00098C8.5522 9.00098 8.99987 8.55315 9 8.00098C9 7.44869 8.55228 7.00098 8 7.00098Z" fill="#292A2E"/>
</svg>
