<svg width="16" height="16" viewBox="0 0 16 16" fill="none" xmlns="http://www.w3.org/2000/svg">
<path d="M9.25 2.75C9.25 2.05964 8.69036 1.5 8 1.5C7.30964 1.5 6.75 2.05964 6.75 2.75C6.75 3.44036 7.30964 4 8 4C8.69036 4 9.25 3.44036 9.25 2.75ZM10.75 2.75C10.75 4.26878 9.51878 5.5 8 5.5C6.48122 5.5 5.25 4.26878 5.25 2.75C5.25 1.23122 6.48122 0 8 0C9.51878 0 10.75 1.23122 10.75 2.75Z" fill="#292A2E"/>
<path d="M14.9629 4.5567C15.1943 4.46095 15.4588 4.48784 15.667 4.62701C15.875 4.76622 16 4.99977 16 5.25006V12.2501C16 12.5534 15.8174 12.8274 15.5371 12.9434L8.28711 15.9434C8.0557 16.0392 7.79122 16.0123 7.58301 15.8731C7.37502 15.7339 7.25 15.5004 7.25 15.2501V8.25006C7.25 7.94668 7.4326 7.67277 7.71289 7.5567L14.9629 4.5567ZM8.75 8.75104V14.127L14.5 11.7481V6.37213L8.75 8.75104Z" fill="#292A2E"/>
<path d="M1.03711 4.5567C0.805699 4.46095 0.541215 4.48784 0.333008 4.62701C0.125017 4.76622 0 4.99977 0 5.25006V12.2501C0 12.5534 0.1826 12.8274 0.462891 12.9434L7.71289 15.9434C7.9443 16.0392 8.20878 16.0123 8.41699 15.8731C8.62498 15.7339 8.75 15.5004 8.75 15.2501V8.25006C8.75 7.94668 8.5674 7.67277 8.28711 7.5567L1.03711 4.5567ZM7.25 8.75104V14.127L1.5 11.7481V6.37213L7.25 8.75104Z" fill="#292A2E"/>
</svg>
