<svg width="16" height="16" viewBox="0 0 16 16" fill="none" xmlns="http://www.w3.org/2000/svg">
<path d="M7.32912 0.242495C7.71877 -0.0756229 8.28127 -0.075624 8.67092 0.242495L8.75099 0.314761L11.0596 2.62335C11.4742 3.03822 11.4742 3.71044 11.0596 4.12531L8.75099 6.4339C8.33613 6.84848 7.66391 6.84848 7.24904 6.4339L4.94045 4.12531C4.52587 3.71044 4.52587 3.03822 4.94045 2.62335L7.24904 0.314761L7.32912 0.242495Z" fill="#292A2E"/>
<path d="M7.32912 9.4925C7.71877 9.17438 8.28127 9.17438 8.67092 9.4925L8.75099 9.56476L11.0596 11.8734C11.4742 12.2882 11.4742 12.9604 11.0596 13.3753L8.75099 15.6839C8.33613 16.0985 7.66391 16.0985 7.24904 15.6839L4.94045 13.3753C4.52587 12.9604 4.52587 12.2882 4.94045 11.8734L7.24904 9.56476L7.32912 9.4925Z" fill="#292A2E"/>
<path d="M11.9541 4.8675C12.3438 4.54938 12.9063 4.54938 13.2959 4.8675L13.376 4.93976L15.6846 7.24835C16.0992 7.66322 16.0992 8.33544 15.6846 8.75031L13.376 11.0589C12.9611 11.4735 12.2889 11.4735 11.874 11.0589L9.56545 8.75031C9.15087 8.33544 9.15087 7.66322 9.56545 7.24835L11.874 4.93976L11.9541 4.8675Z" fill="#292A2E"/>
<path d="M2.70412 4.8675C3.09377 4.54938 3.65627 4.54938 4.04592 4.8675L4.12599 4.93976L6.43459 7.24835C6.84916 7.66322 6.84916 8.33544 6.43459 8.75031L4.12599 11.0589C3.71113 11.4735 3.03891 11.4735 2.62404 11.0589L0.315448 8.75031C-0.0991262 8.33544 -0.099128 7.66322 0.315448 7.24835L2.62404 4.93976L2.70412 4.8675Z" fill="#292A2E"/>
</svg>
