<svg width="16" height="16" viewBox="0 0 16 16" fill="none" xmlns="http://www.w3.org/2000/svg">
<path fill-rule="evenodd" clip-rule="evenodd" d="M10.4165 0C12.165 0.000147905 13.5824 1.41754 13.5825 3.16602C13.5825 4.9146 12.165 6.33188 10.4165 6.33203H5.5835C3.83493 6.3319 2.41748 4.91461 2.41748 3.16602C2.41761 1.41753 3.83501 0.000126648 5.5835 0H10.4165ZM5.5835 1.5C4.66344 1.50013 3.91761 2.24596 3.91748 3.16602C3.91748 4.08618 4.66336 4.8319 5.5835 4.83203H7.24951V1.5H5.5835ZM8.74951 4.83203H10.4165C11.3366 4.83188 12.0825 4.08617 12.0825 3.16602C12.0824 2.24597 11.3365 1.50015 10.4165 1.5H8.74951V4.83203Z" fill="#292A2E"/>
<path fill-rule="evenodd" clip-rule="evenodd" d="M7.99951 4.83203C8.41373 4.83203 8.74951 5.16782 8.74951 5.58203V10.4141C8.74951 10.8283 8.41373 11.1641 7.99951 11.1641H5.5835C3.83493 11.1639 2.41748 9.74664 2.41748 7.99805C2.41761 6.24956 3.83501 4.83216 5.5835 4.83203H7.99951ZM5.5835 6.33203C4.66344 6.33216 3.91761 7.07799 3.91748 7.99805C3.91748 8.91821 4.66336 9.66394 5.5835 9.66406H7.24951V6.33203H5.5835Z" fill="#292A2E"/>
<path fill-rule="evenodd" clip-rule="evenodd" d="M10.4165 4.83203C12.1651 4.83203 13.5819 6.24948 13.582 7.99805C13.582 9.74672 12.1647 11.1641 10.416 11.1641C8.66745 11.1639 7.25 9.74664 7.25 7.99805C7.25013 6.24956 8.66802 4.83216 10.4165 4.83203ZM10.4165 6.33203C9.49645 6.33216 8.75013 7.07799 8.75 7.99805C8.75 8.91821 9.49588 9.66394 10.416 9.66406C11.3363 9.66406 12.082 8.91829 12.082 7.99805C12.0819 7.07791 11.3367 6.33203 10.4165 6.33203Z" fill="#292A2E"/>
<path fill-rule="evenodd" clip-rule="evenodd" d="M7.99951 9.66406C8.41373 9.66406 8.74951 9.99985 8.74951 10.4141V12.8301C8.74951 14.5787 7.33217 15.9961 5.5835 15.9961C3.83493 15.996 2.41748 14.5787 2.41748 12.8301C2.41761 11.0816 3.83501 9.66419 5.5835 9.66406H7.99951ZM5.5835 11.1641C4.66344 11.1642 3.91761 11.91 3.91748 12.8301C3.91748 13.7502 4.66336 14.496 5.5835 14.4961C6.50374 14.4961 7.24951 13.7503 7.24951 12.8301V11.1641H5.5835Z" fill="#292A2E"/>
</svg>
