<svg width="16" height="16" viewBox="0 0 16 16" fill="none" xmlns="http://www.w3.org/2000/svg">
<path fill-rule="evenodd" clip-rule="evenodd" d="M2 14C2 15.1046 2.89543 16 4 16H12C13.1046 16 14 15.1046 14 14V5.25C14 4.73094 13.7938 4.23314 13.4268 3.86612L10.1339 0.573223C9.76685 0.206194 9.26906 0 8.75 0H4C2.89543 0 2 0.895431 2 2V14ZM4 14.5C3.72386 14.5 3.5 14.2761 3.5 14V2C3.5 1.72386 3.72386 1.5 4 1.5H8V5.25C8 5.66421 8.33579 6 8.75 6H12.5V14C12.5 14.2761 12.2761 14.5 12 14.5H4ZM11.9393 4.5H9.5V2.06066L11.9393 4.5Z" fill="#292A2E"/>
</svg>
