<svg width="16" height="16" viewBox="0 0 16 16" fill="none" xmlns="http://www.w3.org/2000/svg">
<path fill-rule="evenodd" clip-rule="evenodd" d="M1.99992 11C1.99992 12.1046 2.89535 13 3.99992 13H9.99992C11.1045 13 11.9999 12.1046 11.9999 11V4.25002C11.9999 3.72963 11.7916 3.2309 11.4215 2.86511L9.07163 0.542915C8.71966 0.195086 8.24476 2.28882e-05 7.74992 2.28882e-05H3.99992C2.89535 2.28882e-05 1.99992 0.895453 1.99992 2.00002V11ZM3.99992 11.5C3.72378 11.5 3.49992 11.2762 3.49992 11V2.00002C3.49992 1.72388 3.72378 1.50002 3.99992 1.50002H6.99992V4.25002C6.99992 4.66424 7.33571 5.00002 7.74992 5.00002H10.4999V11C10.4999 11.2762 10.2761 11.5 9.99992 11.5H3.99992ZM9.92996 3.50002H8.49992V2.08681L9.92996 3.50002Z" fill="#292A2E"/>
<path fill-rule="evenodd" clip-rule="evenodd" d="M6.99992 16H11.7499C13.5448 16 14.9999 14.5449 14.9999 12.75V5.00002H13.4999V12.75C13.4999 13.7165 12.7164 14.5 11.7499 14.5H6.99992V16Z" fill="#292A2E"/>
</svg>
