<svg width="16" height="16" viewBox="0 0 16 16" fill="none" xmlns="http://www.w3.org/2000/svg">
<path d="M11.25 4.25V11C11.25 11.6904 10.6903 12.25 9.99999 12.25H3.99999C3.30964 12.25 2.74999 11.6904 2.74999 11V2C2.74999 1.30964 3.30964 0.75 3.99999 0.75H7.74999M11.25 4.25H7.74999V0.75M11.25 4.25V4.25C11.25 3.93006 11.1219 3.62343 10.8944 3.39854L8.54451 1.07635C8.33293 0.867259 8.04746 0.75 7.74999 0.75V0.75" stroke="#44546F" stroke-width="1.5" stroke-linejoin="round"/>
<path d="M14.25 5L14.25 12.75C14.25 14.1307 13.1307 15.25 11.75 15.25L7 15.25" stroke="#44546F" stroke-width="1.5"/>
</svg>
