<svg width="16" height="16" viewBox="0 0 16 16" fill="none" xmlns="http://www.w3.org/2000/svg">
<path fill-rule="evenodd" clip-rule="evenodd" d="M2.21967 1.21967C2.36032 1.07902 2.55109 1 2.75 1H14C14.2841 1 14.5438 1.1605 14.6708 1.41459C14.7979 1.66868 14.7704 1.97274 14.6 2.2L11.9375 5.75L14.6 9.3C14.7704 9.52726 14.7979 9.83132 14.6708 10.0854C14.5438 10.3395 14.2841 10.5 14 10.5H3.5V15H2V1.75C2 1.55109 2.07902 1.36032 2.21967 1.21967ZM3.5 9H12.5L10.4 6.2C10.2 5.93333 10.2 5.56667 10.4 5.3L12.5 2.5H3.5V9Z" fill="#292A2E"/>
</svg>
