<svg width="16" height="16" viewBox="0 0 16 16" fill="none" xmlns="http://www.w3.org/2000/svg">
<path fill-rule="evenodd" clip-rule="evenodd" d="M4.75 0H11.25V1.5H10.5V4.85884L13.7835 13.2729C14.2953 14.5843 13.3281 16 11.9204 16H4.07961C2.67189 16 1.70469 14.5843 2.21646 13.2729L5.5 4.85884V1.5H4.75V0ZM7 1.5V5C7 5.09329 6.9826 5.18575 6.94868 5.27266L5.68923 8.5H10.3108L9.05132 5.27266C9.0174 5.18575 9 5.09329 9 5V1.5H7ZM10.8961 10H5.10387L3.61383 13.8182C3.48588 14.1461 3.72768 14.5 4.07961 14.5H11.9204C12.2723 14.5 12.5141 14.1461 12.3862 13.8182L10.8961 10Z" fill="#44546F"/>
</svg>
