<svg width="16" height="16" viewBox="0 0 16 16" fill="none" xmlns="http://www.w3.org/2000/svg">
<path d="M11.2499 1V2.5H10.4999V3.85938L13.7832 12.2725C14.2949 13.5839 13.3276 15 11.9199 15H4.08003C2.6723 15 1.70498 13.5839 2.21675 12.2725L5.49995 3.85938V2.5H4.74995V1H11.2499ZM3.61421 12.8184C3.48626 13.1462 3.72809 13.5 4.08003 13.5H11.9199C12.2718 13.5 12.5136 13.1462 12.3857 12.8184L10.8964 9H5.10346L3.61421 12.8184ZM6.99995 4C6.99995 4.09328 6.9821 4.18556 6.94819 4.27246L5.6894 7.5H10.3105L9.05171 4.27246C9.0178 4.18556 8.99995 4.09328 8.99995 4V2.5H6.99995V4Z" fill="#292A2E"/>
</svg>
