<svg width="16" height="16" viewBox="0 0 16 16" fill="none" xmlns="http://www.w3.org/2000/svg">
<path fill-rule="evenodd" clip-rule="evenodd" d="M3 2.5C2.72386 2.5 2.5 2.72386 2.5 3V6H13.5V4.75C13.5 4.47386 13.2761 4.25 13 4.25H7.68934L5.93934 2.5H3ZM13.5 7.5H2.5V13C2.5 13.2761 2.72386 13.5 3 13.5H13C13.2761 13.5 13.5 13.2761 13.5 13V7.5ZM1 3C1 1.89543 1.89543 1 3 1H6.56066L8.31066 2.75H13C14.1046 2.75 15 3.64543 15 4.75V13C15 14.1046 14.1046 15 13 15H3C1.89543 15 1 14.1046 1 13V3Z" fill="#44546F"/>
</svg>
