<svg width="17" height="16" viewBox="0 0 17 16" fill="none" xmlns="http://www.w3.org/2000/svg">
<path d="M1.75 14.25V14.25C1.19772 14.25 0.75 13.8023 0.75 13.25V6.80952V3C0.75 2.30964 1.30964 1.75 2 1.75H5.25L7 3.5H12C12.6904 3.5 13.25 4.05964 13.25 4.75L13.25 6.75M1.75 14.25L3.86638 7.19541C3.94569 6.93104 4.18901 6.75 4.46502 6.75H13.25M1.75 14.25H12.32C12.872 14.25 13.3586 13.8879 13.5172 13.3592L15.2586 7.55459C15.3789 7.15358 15.0786 6.75 14.66 6.75H13.25" stroke="#44546F" stroke-width="1.5"/>
</svg>
