<svg width="17" height="16" viewBox="0 0 17 16" fill="none" xmlns="http://www.w3.org/2000/svg">
<path fill-rule="evenodd" clip-rule="evenodd" d="M2 2.5C1.72386 2.5 1.5 2.72386 1.5 3V12.4733L3.14801 6.9799C3.32249 6.39829 3.85781 6 4.46502 6H12.5L12.5 4.75C12.5 4.47386 12.2761 4.25 12 4.25H6.68934L4.93934 2.5H2ZM14 6H14.66C15.581 6 16.2417 6.88789 15.977 7.7701L14.2356 13.5747C13.9818 14.4207 13.2032 15 12.32 15H1.75C0.783502 15 0 14.2165 0 13.25V3C0 1.89543 0.89543 1 2 1H5.56066L7.31066 2.75H12C13.1046 2.75 14 3.64543 14 4.75L14 6ZM2.75802 13.5H12.32C12.5408 13.5 12.7354 13.3552 12.7989 13.1437L14.492 7.5H4.55802L2.75802 13.5Z" fill="#44546F"/>
</svg>
