<svg width="16" height="16" viewBox="0 0 16 16" fill="none" xmlns="http://www.w3.org/2000/svg">
<path d="M2.5 14.5H13.5V13H2.5V14.5ZM7 9V10.5H1V9H7ZM2.5 5.5H13.5V4H2.5V5.5ZM7 0V1.5H1V0H7ZM15 14.625C15 15.3844 14.3844 16 13.625 16H2.375C1.61561 16 1 15.3844 1 14.625V12.875C1 12.1156 1.61561 11.5 2.375 11.5H13.625C14.3844 11.5 15 12.1156 15 12.875V14.625ZM15 5.625C15 6.38439 14.3844 7 13.625 7H2.375C1.61561 7 1 6.38439 1 5.625V3.875C1 3.11561 1.61561 2.5 2.375 2.5H13.625C14.3844 2.5 15 3.11561 15 3.875V5.625Z" fill="#292A2E"/>
</svg>
