<svg width="16" height="16" viewBox="0 0 16 16" fill="none" xmlns="http://www.w3.org/2000/svg">
<path d="M1 9.75H7M1 0.75H7M2.375 6.25H13.625C13.9702 6.25 14.25 5.97018 14.25 5.625V3.875C14.25 3.52982 13.9702 3.25 13.625 3.25H2.375C2.02982 3.25 1.75 3.52982 1.75 3.875V5.625C1.75 5.97018 2.02982 6.25 2.375 6.25ZM2.375 15.25H13.625C13.9702 15.25 14.25 14.9702 14.25 14.625V12.875C14.25 12.5298 13.9702 12.25 13.625 12.25H2.375C2.02982 12.25 1.75 12.5298 1.75 12.875V14.625C1.75 14.9702 2.02982 15.25 2.375 15.25Z" stroke="#44546F" stroke-width="1.5" stroke-linejoin="round"/>
</svg>
