<svg width="16" height="16" viewBox="0 0 16 16" fill="none" xmlns="http://www.w3.org/2000/svg">
<path fill-rule="evenodd" clip-rule="evenodd" d="M12.9999 2.50006L9.99994 2.50006V1.00006L12.9999 1.00006C14.1045 1.00006 14.9999 1.89549 14.9999 3.00006V6.00006H13.4999V3.00006C13.4999 2.72392 13.2761 2.50006 12.9999 2.50006ZM3 2.50006C2.72386 2.50006 2.5 2.72392 2.5 3.00006L2.5 6.00006H1L1 3.00006C1 1.89549 1.89543 1.00006 3 1.00006L6 1.00006V2.50006L3 2.50006ZM2.50012 10.0001L2.50012 13.0001C2.50012 13.2762 2.72398 13.5001 3.00012 13.5001H6.00012V15.0001H3.00012C1.89555 15.0001 1.00012 14.1046 1.00012 13.0001L1.00012 10.0001H2.50012ZM13.5 13.0001V10.0001H15V13.0001C15 14.1046 14.1046 15.0001 13 15.0001H10V13.5001H13C13.2761 13.5001 13.5 13.2762 13.5 13.0001Z" fill="#292A2E"/>
</svg>
