<svg width="16" height="16" viewBox="0 0 16 16" fill="none" xmlns="http://www.w3.org/2000/svg">
<path fill-rule="evenodd" clip-rule="evenodd" d="M12.9999 2.5L9.99994 2.5V1L12.9999 1C14.1045 1 14.9999 1.89543 14.9999 3V6H13.4999V3C13.4999 2.72386 13.2761 2.5 12.9999 2.5ZM3 2.5C2.72386 2.5 2.5 2.72386 2.5 3L2.5 6H1L1 3C1 1.89543 1.89543 1 3 1L6 1V2.5L3 2.5ZM2.50012 10L2.50012 13C2.50012 13.2761 2.72398 13.5 3.00012 13.5H6.00012V15H3.00012C1.89555 15 1.00012 14.1046 1.00012 13L1.00012 10H2.50012ZM13.5 13V10H15V13C15 14.1046 14.1046 15 13 15H10V13.5H13C13.2761 13.5 13.5 13.2761 13.5 13Z" fill="#44546F"/>
</svg>
