<svg width="16" height="16" viewBox="0 0 16 16" fill="none" xmlns="http://www.w3.org/2000/svg">
<path fill-rule="evenodd" clip-rule="evenodd" d="M11.5 12L11.5 15L10 15L10 12C10 10.8954 10.8954 10 12 10L15 10L15 11.5L12 11.5C11.7239 11.5 11.5 11.7239 11.5 12ZM4.5 15L4.5 12C4.5 11.7239 4.27614 11.5 4 11.5L1 11.5L1 10L4 10C5.10457 10 6 10.8954 6 12L6 15L4.5 15ZM12 4.5L15 4.5L15 6L12 6C10.8954 6 10 5.10457 10 4L10 1L11.5 1L11.5 4C11.5 4.27614 11.7239 4.5 12 4.5ZM4 4.5C4.27614 4.5 4.5 4.27614 4.5 4L4.5 0.999999L6 0.999999L6 4C6 5.10457 5.10457 6 4 6L1 6L1 4.5L4 4.5Z" fill="#292A2E"/>
</svg>
