<svg width="16" height="16" viewBox="0 0 16 16" fill="none" xmlns="http://www.w3.org/2000/svg">
<path d="M0.75 10.5C0.75 12.0188 1.98122 13.25 3.5 13.25C5.01878 13.25 6.25 12.0188 6.25 10.5C6.25 10.2333 6.21205 9.97555 6.14125 9.73173M0.75 10.5C0.75 8.98122 1.98122 7.75 3.5 7.75C4.75213 7.75 5.8088 8.58683 6.14125 9.73173M0.75 10.5L1.61275 4.0294C1.69814 3.38898 2.10723 2.83763 2.69541 2.57028L4.5 1.75M15.25 10.5C15.25 12.0188 14.0188 13.25 12.5 13.25C10.9812 13.25 9.75 12.0188 9.75 10.5C9.75 10.2333 9.78795 9.97555 9.85875 9.73173M15.25 10.5C15.25 8.98122 14.0188 7.75 12.5 7.75C11.2479 7.75 10.1912 8.58683 9.85875 9.73173M15.25 10.5L14.3873 4.0294C14.3019 3.38898 13.8928 2.83763 13.3046 2.57028L11.5 1.75M6.14125 9.73173C6.54646 9.139 7.2278 8.75 8 8.75C8.7722 8.75 9.45354 9.139 9.85875 9.73173" stroke="#44546F" stroke-width="1.5" stroke-linejoin="round"/>
</svg>
