<svg width="16" height="16" viewBox="0 0 16 16" fill="none" xmlns="http://www.w3.org/2000/svg">
<path fill-rule="evenodd" clip-rule="evenodd" d="M4.81035 2.43278L3.00577 3.25305C2.65286 3.41347 2.4074 3.74427 2.35617 4.12853L1.92339 7.37437C2.39719 7.1349 2.93284 7 3.5 7C4.68382 7 5.72938 7.5874 6.36261 8.486C6.83319 8.17893 7.39566 8 8 8C8.60434 8 9.16681 8.17893 9.63739 8.486C10.2706 7.5874 11.3162 7 12.5 7C13.0672 7 13.6028 7.1349 14.0766 7.37437L13.6438 4.12853C13.5926 3.74427 13.3471 3.41347 12.9942 3.25305L11.1896 2.43278L11.8104 1.06723L13.6149 1.88751C14.4384 2.26181 15.0111 3.03369 15.1307 3.93028L15.8902 9.62691C15.9619 9.906 16 10.1986 16 10.5C16 12.433 14.433 14 12.5 14C10.567 14 9 12.433 9 10.5C9 10.3048 9.01605 10.1129 9.047 9.92576C8.77612 9.66157 8.40686 9.5 8 9.5C7.59314 9.5 7.22388 9.66157 6.953 9.92576C6.98395 10.1129 7 10.3048 7 10.5C7 12.433 5.433 14 3.5 14C1.567 14 0 12.433 0 10.5C0 10.1986 0.0381103 9.906 0.109776 9.62691L0.869327 3.93028C0.988873 3.03369 1.56161 2.26181 2.38506 1.88751L4.18964 1.06723L4.81035 2.43278ZM1.50052 10.5459C1.52492 11.6293 2.41077 12.5 3.5 12.5C4.60457 12.5 5.5 11.6046 5.5 10.5C5.5 10.3048 5.47226 10.1174 5.421 9.94088C5.17908 9.10776 4.40954 8.5 3.5 8.5C2.59401 8.5 1.82871 9.10242 1.58283 9.92854L1.50052 10.5459ZM14.4172 9.92854L14.4995 10.5459C14.4751 11.6293 13.5892 12.5 12.5 12.5C11.3954 12.5 10.5 11.6046 10.5 10.5C10.5 10.3048 10.5277 10.1174 10.579 9.94088C10.8209 9.10776 11.5905 8.5 12.5 8.5C13.406 8.5 14.1713 9.10242 14.4172 9.92854Z" fill="#292A2E"/>
</svg>
