<svg width="16" height="16" viewBox="0 0 16 16" fill="none" xmlns="http://www.w3.org/2000/svg">
<path fill-rule="evenodd" clip-rule="evenodd" d="M4.81035 2.43269L3.00577 3.25296C2.65286 3.41338 2.4074 3.74418 2.35617 4.12844L1.92339 7.37428C2.39719 7.13481 2.93284 6.99991 3.5 6.99991C4.68382 6.99991 5.72938 7.58731 6.36261 8.48591C6.83319 8.17884 7.39566 7.99991 8 7.99991C8.60434 7.99991 9.16681 8.17884 9.63739 8.48591C10.2706 7.58731 11.3162 6.99991 12.5 6.99991C13.0672 6.99991 13.6028 7.13481 14.0766 7.37428L13.6438 4.12844C13.5926 3.74418 13.3471 3.41338 12.9942 3.25296L11.1896 2.43269L11.8104 1.06714L13.6149 1.88741C14.4384 2.26171 15.0111 3.0336 15.1307 3.93019L15.8902 9.62681C15.9619 9.90591 16 10.1985 16 10.4999C16 12.4329 14.433 13.9999 12.5 13.9999C10.567 13.9999 9 12.4329 9 10.4999C9 10.3047 9.01605 10.1128 9.047 9.92566C8.77612 9.66148 8.40686 9.49991 8 9.49991C7.59314 9.49991 7.22388 9.66148 6.953 9.92566C6.98395 10.1128 7 10.3047 7 10.4999C7 12.4329 5.433 13.9999 3.5 13.9999C1.567 13.9999 0 12.4329 0 10.4999C0 10.1985 0.0381103 9.90591 0.109776 9.62682L0.869327 3.93019C0.988873 3.0336 1.56161 2.26171 2.38506 1.88741L4.18964 1.06714L4.81035 2.43269ZM1.50052 10.5458C1.52492 11.6292 2.41077 12.4999 3.5 12.4999C4.60457 12.4999 5.5 11.6045 5.5 10.4999C5.5 10.3047 5.47226 10.1173 5.421 9.94078C5.17908 9.10767 4.40954 8.49991 3.5 8.49991C2.59401 8.49991 1.82871 9.10233 1.58283 9.92845L1.50052 10.5458ZM14.4172 9.92845L14.4995 10.5458C14.4751 11.6292 13.5892 12.4999 12.5 12.4999C11.3954 12.4999 10.5 11.6045 10.5 10.4999C10.5 10.3047 10.5277 10.1173 10.579 9.94078C10.8209 9.10767 11.5905 8.49991 12.5 8.49991C13.406 8.49991 14.1713 9.10233 14.4172 9.92845Z" fill="#292A2E"/>
</svg>
