<svg width="16" height="16" viewBox="0 0 16 16" fill="none" xmlns="http://www.w3.org/2000/svg">
<path fill-rule="evenodd" clip-rule="evenodd" d="M1.5428 7.25H4.26521C4.33797 5.46565 4.6684 3.83677 5.18567 2.58671C5.26662 2.39107 5.35328 2.20197 5.44572 2.02109C3.34499 2.91972 1.81358 4.89312 1.5428 7.25ZM8 0C3.58172 0 0 3.58172 0 8C0 12.4183 3.58172 16 8 16C12.4183 16 16 12.4183 16 8C16 3.58172 12.4183 0 8 0ZM8 1.5C7.84896 1.5 7.63587 1.57081 7.36838 1.84423C7.09845 2.12013 6.82083 2.55816 6.57169 3.16024C6.14028 4.20281 5.83856 5.62985 5.76656 7.25H10.2334C10.1614 5.62985 9.85972 4.20281 9.42831 3.16024C9.17917 2.55816 8.90155 2.12013 8.63162 1.84423C8.36413 1.57081 8.15104 1.5 8 1.5ZM11.7348 7.25C11.662 5.46565 11.3316 3.83677 10.8143 2.58671C10.7334 2.39107 10.6467 2.20197 10.5543 2.02109C12.655 2.91971 14.1864 4.89312 14.4572 7.25H11.7348ZM10.2334 8.75H5.76656C5.83856 10.3701 6.14028 11.7972 6.57169 12.8398C6.82083 13.4418 7.09845 13.8799 7.36838 14.1558C7.63587 14.4292 7.84896 14.5 8 14.5C8.15104 14.5 8.36413 14.4292 8.63162 14.1558C8.90155 13.8799 9.17917 13.4418 9.42831 12.8398C9.85972 11.7972 10.1614 10.3701 10.2334 8.75ZM10.5543 13.9789C10.6467 13.798 10.7334 13.6089 10.8143 13.4133C11.3316 12.1632 11.662 10.5344 11.7348 8.75H14.4572C14.1864 11.1069 12.655 13.0803 10.5543 13.9789ZM5.44572 13.9789C5.35328 13.798 5.26662 13.6089 5.18567 13.4133C4.6684 12.1632 4.33797 10.5344 4.26521 8.75H1.5428C1.81358 11.1069 3.34499 13.0803 5.44572 13.9789Z" fill="#292A2E"/>
</svg>
