<svg width="16" height="16" viewBox="0 0 16 16" fill="none" xmlns="http://www.w3.org/2000/svg">
<path fill-rule="evenodd" clip-rule="evenodd" d="M8 1.5C4.96243 1.5 2.5 3.96243 2.5 7V7.20802C2.80623 7.07422 3.14445 7 3.5 7C4.88071 7 6 8.11929 6 9.5V13.2206C6 14.2033 5.20333 15 4.22059 15C2.44191 15 1 13.5581 1 11.7794V7C1 3.13401 4.13401 0 8 0C11.866 0 15 3.13401 15 7V11.7794C15 13.5581 13.5581 15 11.7794 15C10.7967 15 10 14.2033 10 13.2206V9.5C10 8.11929 11.1193 7 12.5 7C12.8556 7 13.1938 7.07422 13.5 7.20802V7C13.5 3.96243 11.0376 1.5 8 1.5ZM13.5 9.5C13.5 8.94771 13.0523 8.5 12.5 8.5C11.9477 8.5 11.5 8.94771 11.5 9.5V13.2206C11.5 13.3749 11.6251 13.5 11.7794 13.5C12.7297 13.5 13.5 12.7297 13.5 11.7794V9.5ZM2.5 9.5V11.7794C2.5 12.7297 3.27033 13.5 4.22059 13.5C4.3749 13.5 4.5 13.3749 4.5 13.2206V9.5C4.5 8.94771 4.05228 8.5 3.5 8.5C2.94772 8.5 2.5 8.94771 2.5 9.5Z" fill="#44546F"/>
</svg>
