<svg width="16" height="16" viewBox="0 0 16 16" fill="none" xmlns="http://www.w3.org/2000/svg">
<path d="M1.75 9.5C1.75 8.5335 2.5335 7.75 3.5 7.75C4.4665 7.75 5.25 8.5335 5.25 9.5V13.2206C5.25 13.7891 4.78912 14.25 4.22059 14.25V14.25C2.85612 14.25 1.75 13.1439 1.75 11.7794V9.5ZM1.75 9.5V7C1.75 3.54822 4.54822 0.75 8 0.75C11.4518 0.75 14.25 3.54822 14.25 7V9.5M14.25 9.5C14.25 8.5335 13.4665 7.75 12.5 7.75C11.5335 7.75 10.75 8.5335 10.75 9.5V13.2206C10.75 13.7891 11.2109 14.25 11.7794 14.25V14.25C13.1439 14.25 14.25 13.1439 14.25 11.7794V9.5Z" stroke="#44546F" stroke-width="1.5" stroke-linejoin="round"/>
</svg>
