<svg width="16" height="16" viewBox="0 0 16 16" fill="none" xmlns="http://www.w3.org/2000/svg">
<path d="M13.5 7C13.5 3.96243 11.0376 1.5 8 1.5C4.96243 1.5 2.5 3.96243 2.5 7V12H1V7C1 3.13401 4.13401 8.0532e-08 8 0C11.866 0 15 3.13401 15 7V12H13.5V7Z" fill="#292A2E"/>
<path d="M4.5 10C4.5 9.44772 4.05228 9 3.5 9C2.94772 9 2.5 9.44772 2.5 10V11.917C2.50018 12.7912 3.20882 13.4998 4.08301 13.5C4.31313 13.5 4.5 13.3131 4.5 13.083V10ZM6 13.083C6 14.1416 5.14155 15 4.08301 15C2.38039 14.9998 1.00018 13.6196 1 11.917V10C1 8.61929 2.11929 7.5 3.5 7.5C4.88071 7.5 6 8.61929 6 10V13.083Z" fill="#292A2E"/>
<path d="M13.5 11.917V10C13.5 9.44772 13.0523 9 12.5 9C11.9477 9 11.5 9.44772 11.5 10V13.083C11.5 13.3131 11.6869 13.5 11.917 13.5C12.7912 13.4998 13.4998 12.7912 13.5 11.917ZM15 11.917C14.9998 13.6196 13.6196 14.9998 11.917 15C10.8584 15 10 14.1416 10 13.083V10C10 8.61929 11.1193 7.5 12.5 7.5C13.8807 7.5 15 8.61929 15 10V11.917Z" fill="#292A2E"/>
</svg>
