<svg width="16" height="16" viewBox="0 0 16 16" fill="none" xmlns="http://www.w3.org/2000/svg">
<path d="M8 14.5C7.93202 14.5 7.85045 14.4796 7.75529 14.4387C7.66465 14.4024 7.58308 14.3616 7.51057 14.3162C6.23263 13.4992 5.12462 12.6436 4.18656 11.7495C3.24849 10.8508 2.52341 9.92938 2.01133 8.98529C1.50378 8.03667 1.25 7.07898 1.25 6.1122C1.25 5.50853 1.34517 4.95706 1.5355 4.45779C1.73036 3.95398 2 3.51825 2.34441 3.1506C2.68882 2.78295 3.08988 2.49927 3.54758 2.29956C4.00529 2.09985 4.50151 2 5.03625 2C5.70242 2 6.28701 2.17021 6.79003 2.51062C7.29305 2.85103 7.69637 3.30038 8 3.85866C8.30816 3.29584 8.71375 2.8465 9.21677 2.51062C9.71979 2.17021 10.3021 2 10.9637 2C11.4985 2 11.9947 2.09985 12.4524 2.29956C12.9147 2.49927 13.3157 2.78295 13.6556 3.1506C14 3.51825 14.2674 3.95398 14.4577 4.45779C14.6526 4.95706 14.75 5.50853 14.75 6.1122C14.75 7.07898 14.494 8.03667 13.9819 8.98529C13.4743 9.92938 12.7515 10.8508 11.8134 11.7495C10.8799 12.6436 9.77417 13.4992 8.49622 14.3162C8.42372 14.3616 8.33988 14.4024 8.24471 14.4387C8.15408 14.4796 8.07251 14.5 8 14.5Z" stroke="#44546F" stroke-width="1.5"/>
</svg>
