<svg width="16" height="16" viewBox="0 0 16 16" fill="none" xmlns="http://www.w3.org/2000/svg">
<path fill-rule="evenodd" clip-rule="evenodd" d="M5.03625 2.75C4.59732 2.75 4.20405 2.83141 3.84752 2.98698C3.48415 3.14553 3.16706 3.36947 2.89176 3.66335C2.61814 3.95543 2.39828 4.30677 2.23566 4.72662C2.08221 5.12984 2 5.58881 2 6.1122C2 6.94149 2.2163 7.77797 2.67162 8.6296C3.13973 9.49206 3.81236 10.3522 4.70474 11.2073C5.6016 12.062 6.66878 12.8876 7.91091 13.6819C7.93409 13.6963 7.96371 13.7121 8.0011 13.7286C8.04451 13.7108 8.07525 13.6947 8.09603 13.6819C9.33808 12.8875 10.4027 12.0622 11.2946 11.2079C12.1876 10.3524 12.8578 9.49219 13.3213 8.63015L13.3219 8.62902C13.7818 7.77704 14 6.9408 14 6.1122C14 5.59011 13.916 5.13255 13.759 4.73048L13.7561 4.72286L13.7561 4.72284C13.5981 4.30448 13.381 3.95448 13.1082 3.66335L13.1049 3.65973L13.1049 3.65972C12.8364 3.36932 12.5218 3.14653 12.155 2.98805L12.1525 2.98698C11.7959 2.83141 11.4027 2.75 10.9637 2.75C10.438 2.75 10.0049 2.88284 9.63711 3.13176L9.63325 3.13437L9.63325 3.13436C9.23685 3.39903 8.91159 3.75541 8.65785 4.21885L7.99779 5.42438L7.34114 4.21699C7.09211 3.75909 6.76868 3.40177 6.36968 3.13176C6.00273 2.88343 5.56771 2.75 5.03625 2.75ZM3.24764 1.61215C3.80652 1.3683 4.4057 1.25 5.03625 1.25C5.83712 1.25 6.57129 1.45699 7.21038 1.88949C7.50269 2.08731 7.76629 2.3154 8.00105 2.57228C8.23791 2.31379 8.50366 2.08517 8.79835 1.88818C9.43612 1.45715 10.1671 1.25 10.9637 1.25C11.5939 1.25 12.1926 1.36813 12.7512 1.61164C13.3076 1.85223 13.794 2.196 14.2046 2.63966C14.619 3.08247 14.9356 3.60204 15.1579 4.18894C15.3897 4.78434 15.5 5.42843 15.5 6.1122C15.5 7.217 15.2062 8.29601 14.6421 9.34114C14.0904 10.367 13.3152 11.3493 12.3323 12.291L12.3322 12.2911C11.358 13.2242 10.2124 14.1092 8.9002 14.9481L8.89419 14.9519L8.89417 14.9519C8.77934 15.0238 8.65707 15.0829 8.53152 15.1319C8.38183 15.197 8.20081 15.25 8 15.25C7.7955 15.25 7.61148 15.1923 7.46819 15.1316C7.34474 15.0817 7.2253 15.0224 7.11263 14.9519L7.10658 14.9481L7.1066 14.9481C5.79472 14.1094 4.64733 13.2248 3.66909 12.2923L3.66771 12.291C2.68494 11.3495 1.90796 10.3677 1.35207 9.34289L1.35002 9.33912L1.35003 9.33912C0.790931 8.29415 0.5 7.21585 0.5 6.1122C0.5 5.42898 0.607898 4.78556 0.834695 4.19063L0.835989 4.18723L0.835998 4.18724C1.06304 3.60023 1.38223 3.08067 1.79707 2.63785C2.21058 2.19644 2.69561 1.85302 3.24764 1.61215Z" fill="#292A2E"/>
</svg>
