<svg width="16" height="16" viewBox="0 0 16 16" fill="none" xmlns="http://www.w3.org/2000/svg">
<path fill-rule="evenodd" clip-rule="evenodd" d="M10.5163 0.309803C11.0628 -0.0717452 11.8043 -0.00634792 12.2756 0.464973L13.535 1.72437C14.0063 2.19569 14.0717 2.93718 13.6902 3.48372L9.36497 9.67932C9.27577 9.80709 9.149 9.9039 9.00225 9.95631L5.50225 11.2063C5.2293 11.3038 4.92461 11.2353 4.71967 11.0303L4.625 10.9357L4.03033 11.5303C3.73744 11.8232 3.26256 11.8232 2.96967 11.5303L2.46967 11.0303C2.17678 10.7374 2.17678 10.2626 2.46967 9.96967L3.06434 9.375L2.96967 9.28033C2.76473 9.07539 2.69621 8.7707 2.79369 8.49775L4.04369 4.99775C4.0961 4.851 4.19292 4.72423 4.32068 4.63503L10.5163 0.309803ZM11.289 1.59969L5.91326 5.3526L8.6474 8.08674L12.4003 2.71097L11.289 1.59969ZM7.38164 8.9423L5.0577 6.61836L4.36594 8.55528L5.44472 9.63406L7.38164 8.9423Z" fill="#292A2E"/>
</svg>
