<svg width="16" height="16" viewBox="0 0 16 16" fill="none" xmlns="http://www.w3.org/2000/svg">
<path fill-rule="evenodd" clip-rule="evenodd" d="M10.5163 0.309833C11.0628 -0.0717147 11.8043 -0.00631741 12.2756 0.465004L13.535 1.7244C14.0063 2.19572 14.0717 2.93721 13.6902 3.48375L9.36497 9.67935C9.27577 9.80712 9.149 9.90393 9.00225 9.95634L5.50225 11.2063C5.2293 11.3038 4.92461 11.2353 4.71967 11.0304L4.625 10.9357L4.03033 11.5304C3.73744 11.8233 3.26256 11.8233 2.96967 11.5304L2.46967 11.0304C2.17678 10.7375 2.17678 10.2626 2.46967 9.9697L3.06434 9.37503L2.96967 9.28036C2.76473 9.07542 2.69621 8.77073 2.79369 8.49778L4.04369 4.99778C4.0961 4.85103 4.19292 4.72426 4.32068 4.63506L10.5163 0.309833ZM11.289 1.59972L5.91326 5.35263L8.6474 8.08677L12.4003 2.711L11.289 1.59972ZM7.38164 8.94233L5.0577 6.61839L4.36594 8.55531L5.44472 9.63409L7.38164 8.94233Z" fill="#44546F"/>
</svg>
