<svg width="16" height="16" viewBox="0 0 16 16" fill="none" xmlns="http://www.w3.org/2000/svg">
<path fill-rule="evenodd" clip-rule="evenodd" d="M6.64589 0.726624C7.4113 0.0224397 8.5887 0.022441 9.35411 0.726625L14.3541 5.32662C14.7658 5.70534 15 6.23913 15 6.79849V13C15 14.1045 14.1046 15 13 15H9.75C9.33579 15 9 14.6642 9 14.25V9.49996H7V14.25C7 14.6642 6.66421 15 6.25 15H3C1.89543 15 1 14.1045 1 13V6.79849C1 6.23913 1.23424 5.70534 1.64589 5.32662L6.64589 0.726624ZM8.33853 1.83052C8.14717 1.65447 7.85283 1.65447 7.66147 1.83052L2.66147 6.43052C2.55856 6.5252 2.5 6.65865 2.5 6.79849V13C2.5 13.2761 2.72386 13.5 3 13.5H5.5V8.74996C5.5 8.33574 5.83579 7.99996 6.25 7.99996H9.75C10.1642 7.99996 10.5 8.33574 10.5 8.74996V13.5H13C13.2761 13.5 13.5 13.2761 13.5 13V6.79849C13.5 6.65865 13.4414 6.5252 13.3385 6.43052L8.33853 1.83052Z" fill="#44546F"/>
</svg>
