<svg width="16" height="16" viewBox="0 0 16 16" fill="none" xmlns="http://www.w3.org/2000/svg">
<path fill-rule="evenodd" clip-rule="evenodd" d="M6.64589 0.72667C7.4113 0.0224855 8.5887 0.0224867 9.35411 0.72667L14.3541 5.32667C14.7658 5.70538 15 6.23918 15 6.79853V13C15 14.1046 14.1046 15 13 15H9.75C9.33579 15 9 14.6642 9 14.25V9.5H7V14.25C7 14.6642 6.66421 15 6.25 15H3C1.89543 15 1 14.1046 1 13V6.79853C1 6.23918 1.23424 5.70538 1.64589 5.32667L6.64589 0.72667ZM8.33853 1.83057C8.14717 1.65452 7.85283 1.65452 7.66147 1.83057L2.66147 6.43057C2.55856 6.52525 2.5 6.65869 2.5 6.79853V13C2.5 13.2761 2.72386 13.5 3 13.5H5.5V8.75C5.5 8.33579 5.83579 8 6.25 8H9.75C10.1642 8 10.5 8.33579 10.5 8.75V13.5H13C13.2761 13.5 13.5 13.2761 13.5 13V6.79853C13.5 6.65869 13.4414 6.52525 13.3385 6.43057L8.33853 1.83057Z" fill="#292A2E"/>
</svg>
