<svg width="16" height="16" viewBox="0 0 16 16" fill="none" xmlns="http://www.w3.org/2000/svg">
<path d="M15.25 11V14.625C15.25 14.9702 14.9702 15.25 14.625 15.25H11M0.75 5V1.375C0.75 1.02982 1.02982 0.75 1.375 0.75H5M6 12.25H11C11.6904 12.25 12.25 11.6904 12.25 11V9.875M6 12.25H5C4.30964 12.25 3.75 11.6904 3.75 11V5C3.75 4.30964 4.30964 3.75 5 3.75H11C11.6904 3.75 12.25 4.30964 12.25 5V9.875M6 12.25L9.1175 8.24179C9.32894 7.96993 9.72047 7.92036 9.993 8.13095L12.25 9.875" stroke="#44546F" stroke-width="1.5" stroke-linejoin="round"/>
<circle cx="6.5" cy="6.5" r="1" fill="#44546F"/>
</svg>
