<svg width="16" height="16" viewBox="0 0 16 16" fill="none" xmlns="http://www.w3.org/2000/svg">
<path d="M5.75 4C6.7165 4 7.5 4.7835 7.5 5.75C7.5 6.7165 6.7165 7.5 5.75 7.5C4.7835 7.5 4 6.7165 4 5.75C4 4.7835 4.7835 4 5.75 4Z" fill="#292A2E"/>
<path fill-rule="evenodd" clip-rule="evenodd" d="M13 1C14.1046 1 15 1.89543 15 3V13C15 14.1046 14.1046 15 13 15H3C1.89543 15 1 14.1046 1 13V3C1 1.89543 1.89543 1 3 1H13ZM3 2.5C2.72386 2.5 2.5 2.72386 2.5 3V13C2.5 13.2761 2.72386 13.5 3 13.5H3.64355L9.91797 5.77734L9.9707 5.71875C10.101 5.58887 10.2754 5.51065 10.4609 5.50098C10.673 5.49004 10.8801 5.56958 11.0303 5.71973L13.5 8.18945V3C13.5 2.72386 13.2761 2.5 13 2.5H3ZM5.5752 13.5H13C13.2761 13.5 13.5 13.2761 13.5 13V10.3105L10.5566 7.36719L5.5752 13.5Z" fill="#292A2E"/>
</svg>
