<svg width="16" height="16" viewBox="0 0 16 16" fill="none" xmlns="http://www.w3.org/2000/svg">
<path fill-rule="evenodd" clip-rule="evenodd" d="M3 2.5C2.72386 2.5 2.5 2.72386 2.5 3V6H1V3C1 1.89543 1.89543 1 3 1H6V2.5H3ZM13 2.5H10V1H13C14.1046 1 15 1.89543 15 3V6H13.5V3C13.5 2.72386 13.2761 2.5 13 2.5ZM1 9.375C1 8.61561 1.61561 8 2.375 8H6.625C7.38439 8 8 8.61561 8 9.375V13.625C8 14.3844 7.38439 15 6.625 15H2.375C1.61561 15 1 14.3844 1 13.625V9.375ZM2.5 9.5V13.5H6.5V9.5H2.5ZM15 10V13C15 14.1046 14.1046 15 13 15H10V13.5H13C13.2761 13.5 13.5 13.2761 13.5 13V10H15Z" fill="#44546F"/>
</svg>
