<svg width="16" height="16" viewBox="0 0 16 16" fill="none" xmlns="http://www.w3.org/2000/svg">
<path fill-rule="evenodd" clip-rule="evenodd" d="M1 3C1 1.89543 1.89543 1 3 1H13C14.1046 1 15 1.89543 15 3V13C15 14.1046 14.1046 15 13 15H3C1.89543 15 1 14.1046 1 13V3ZM3 2.5C2.72386 2.5 2.5 2.72386 2.5 3V13C2.5 13.2761 2.72386 13.5 3 13.5H3.64716L9.4222 6.52182C9.55432 6.36219 9.74659 6.26433 9.9534 6.25145C10.1602 6.23857 10.3631 6.31183 10.514 6.45385L13.5 9.26418V3C13.5 2.72386 13.2761 2.5 13 2.5H3ZM13.5 11.3241L10.0681 8.09404L5.59422 13.5H13C13.2761 13.5 13.5 13.2761 13.5 13V11.3241ZM4 5.75C4 4.7835 4.7835 4 5.75 4C6.7165 4 7.5 4.7835 7.5 5.75C7.5 6.7165 6.7165 7.5 5.75 7.5C4.7835 7.5 4 6.7165 4 5.75Z" fill="#44546F"/>
</svg>
