<svg width="16" height="16" viewBox="0 0 16 16" fill="none" xmlns="http://www.w3.org/2000/svg">
<path fill-rule="evenodd" clip-rule="evenodd" d="M1.5 1.5H5V0H1.375C0.615609 0 0 0.615608 0 1.375V5H1.5V1.5ZM3 5C3 3.89543 3.89543 3 5 3H11C12.1046 3 13 3.89543 13 5V11C13 12.1046 12.1046 13 11 13H5C3.89543 13 3 12.1046 3 11V5ZM5 4.5C4.72386 4.5 4.5 4.72386 4.5 5V11C4.5 11.2761 4.72386 11.5 5 11.5H5.63319L8.52548 7.78134C8.99066 7.18324 9.85203 7.07419 10.4516 7.53749L11.5 8.34763V5C11.5 4.72386 11.2761 4.5 11 4.5H5ZM11.5 10.2433L9.63301 8.80061L7.53348 11.5H11C11.2761 11.5 11.5 11.2761 11.5 11V10.2433ZM16 11V14.625C16 15.3844 15.3844 16 14.625 16H11V14.5H14.5V11H16Z" fill="#44546F"/>
<path d="M7.5 6.5C7.5 7.05228 7.05228 7.5 6.5 7.5C5.94772 7.5 5.5 7.05228 5.5 6.5C5.5 5.94772 5.94772 5.5 6.5 5.5C7.05228 5.5 7.5 5.94772 7.5 6.5Z" fill="#44546F"/>
</svg>
