<svg width="16" height="16" viewBox="0 0 16 16" fill="none" xmlns="http://www.w3.org/2000/svg">
<path d="M1.75 6V3C1.75 2.30964 2.30964 1.75 3 1.75H6M10 1.75H13C13.6904 1.75 14.25 2.30964 14.25 3V6M14.25 10V13C14.25 13.6904 13.6904 14.25 13 14.25H10M2.375 14.25H6.625C6.97018 14.25 7.25 13.9702 7.25 13.625V9.375C7.25 9.02982 6.97018 8.75 6.625 8.75H2.375C2.02982 8.75 1.75 9.02982 1.75 9.375V13.625C1.75 13.9702 2.02982 14.25 2.375 14.25Z" stroke="#44546F" stroke-width="1.5" stroke-linejoin="round"/>
</svg>
