<svg width="16" height="16" viewBox="0 0 16 16" fill="none" xmlns="http://www.w3.org/2000/svg">
<path d="M6.75 5.75C6.75 6.30228 6.30228 6.75 5.75 6.75C5.19772 6.75 4.75 6.30228 4.75 5.75C4.75 5.19772 5.19772 4.75 5.75 4.75C6.30228 4.75 6.75 5.19772 6.75 5.75Z" fill="#44546F"/>
<path fill-rule="evenodd" clip-rule="evenodd" d="M5.75 6.75C6.30228 6.75 6.75 6.30228 6.75 5.75C6.75 5.19772 6.30228 4.75 5.75 4.75C5.19772 4.75 4.75 5.19772 4.75 5.75C4.75 6.30228 5.19772 6.75 5.75 6.75Z" fill="#44546F"/>
<path d="M4 14.25H13C13.6904 14.25 14.25 13.6904 14.25 13V11M4 14.25H3C2.30964 14.25 1.75 13.6904 1.75 13V3C1.75 2.30964 2.30964 1.75 3 1.75H13C13.6904 1.75 14.25 2.30964 14.25 3V11M4 14.25L10 7L14.25 11M6.75 5.75C6.75 6.30228 6.30228 6.75 5.75 6.75C5.19772 6.75 4.75 6.30228 4.75 5.75C4.75 5.19772 5.19772 4.75 5.75 4.75C6.30228 4.75 6.75 5.19772 6.75 5.75Z" stroke="#44546F" stroke-width="1.5" stroke-linejoin="round"/>
</svg>
