<svg width="16" height="16" viewBox="0 0 16 16" fill="none" xmlns="http://www.w3.org/2000/svg">
<path fill-rule="evenodd" clip-rule="evenodd" d="M1 3C1 1.89543 1.89543 1 3 1H13C14.1046 1 15 1.89543 15 3V13C15 14.1046 14.1046 15 13 15H3C1.89543 15 1 14.1046 1 13V3ZM3 2.5C2.72386 2.5 2.5 2.72386 2.5 3V8H5.5C5.91421 8 6.25 8.33579 6.25 8.75C6.25 9.7165 7.0335 10.5 8 10.5C8.9665 10.5 9.75 9.7165 9.75 8.75C9.75 8.33579 10.0858 8 10.5 8H13.5V3C13.5 2.72386 13.2761 2.5 13 2.5H3ZM13.5 9.5H11.163C10.8245 10.9334 9.53679 12 8 12C6.46321 12 5.17555 10.9334 4.83697 9.5H2.5V13C2.5 13.2761 2.72386 13.5 3 13.5H13C13.2761 13.5 13.5 13.2761 13.5 13V9.5ZM12 6H4V4.5H12V6Z" fill="#44546F"/>
</svg>
