<svg width="16" height="16" viewBox="0 0 16 16" fill="none" xmlns="http://www.w3.org/2000/svg">
<path fill-rule="evenodd" clip-rule="evenodd" d="M2 3.5C1.72386 3.5 1.5 3.72386 1.5 4V10C1.5 10.2761 1.72386 10.5 2 10.5H11C11.2761 10.5 11.5 10.2761 11.5 10V4C11.5 3.72386 11.2761 3.5 11 3.5H2ZM0 4C0 2.89543 0.89543 2 2 2H11C12.1046 2 13 2.89543 13 4V10C13 11.1046 12.1046 12 11 12H2C0.89543 12 0 11.1046 0 10V4ZM8.30198 4.64111L9.44802 5.60889L6.28136 9.35889C6.13885 9.52764 5.92921 9.625 5.70833 9.625C5.48746 9.625 5.27781 9.52764 5.13531 9.35889L3.55198 7.48389L4.69802 6.51611L5.70833 7.71253L8.30198 4.64111Z" fill="#44546F"/>
<path fill-rule="evenodd" clip-rule="evenodd" d="M16 7V11.75C16 13.5449 14.5449 15 12.75 15H5V13.5H12.75C13.7165 13.5 14.5 12.7165 14.5 11.75V7H16Z" fill="#44546F"/>
</svg>
