<svg width="16" height="16" viewBox="0 0 16 16" fill="none" xmlns="http://www.w3.org/2000/svg">
<path fill-rule="evenodd" clip-rule="evenodd" d="M9.43484 0.00119045C9.6358 -0.0101399 9.83287 0.059776 9.98176 0.195217L13.0047 2.94522L11.9953 4.05478L9.5583 1.83782C8.4066 3.36617 7.67316 5.22629 7.52694 7.25011L10.6897 7.25016L11.9698 5.96977C12.1105 5.82907 12.3013 5.75003 12.5002 5.75003L15.2502 5.75004C15.5101 5.75004 15.7515 5.88462 15.8882 6.10573C16.0248 6.32684 16.0373 6.60294 15.921 6.83543L15.3387 8.00014L15.921 9.16455C16.0372 9.39704 16.0248 9.67315 15.8882 9.89427C15.7515 10.1154 15.5101 10.25 15.2502 10.25L12.5002 10.25C12.3013 10.25 12.1105 10.171 11.9699 10.0303L10.6898 8.75016L7.52758 8.75011C7.67681 10.7704 8.42309 12.6301 9.57899 14.1602L11.9932 11.9471L13.0068 13.0529L10.0068 15.8029C9.85806 15.9392 9.66067 16.0099 9.4592 15.9989C9.25773 15.9879 9.06919 15.8962 8.93614 15.7445C7.27941 13.8556 6.1959 11.4255 6.02399 8.75009L2.75552 8.75003L4.11713 9.93405L3.13287 11.066L0.257866 8.56596C0.0940564 8.42351 0 8.21708 0 8C0 7.78292 0.0940564 7.57649 0.257866 7.43405L3.13287 4.93405L4.11713 6.06596L2.75544 7.25003L6.02352 7.25009C6.19193 4.57809 7.25395 2.14731 8.91321 0.255465C9.04592 0.104146 9.23389 0.0125207 9.43484 0.00119045ZM12.061 8.00011L12.8109 8.74998H14.0366L13.8294 8.3356C13.7238 8.12446 13.7238 7.87593 13.8294 7.66478L14.0367 7.25004L12.8109 7.25003L12.061 8.00011Z" fill="#292A2E"/>
</svg>
