<svg width="16" height="16" viewBox="0 0 16 16" fill="none" xmlns="http://www.w3.org/2000/svg">
<path fill-rule="evenodd" clip-rule="evenodd" d="M0 2.375C0 1.61561 0.615608 1 1.375 1H2.875C3.63439 1 4.25 1.61561 4.25 2.375V13.625C4.25 14.3844 3.63439 15 2.875 15H1.375C0.615609 15 0 14.3844 0 13.625V2.375ZM1.5 2.5V13.5H2.75V2.5H1.5ZM5.75 2.375C5.75 1.61561 6.36561 1 7.125 1H8.875C9.63439 1 10.25 1.61561 10.25 2.375V13.625C10.25 14.3844 9.63439 15 8.875 15H7.125C6.36561 15 5.75 14.3844 5.75 13.625V2.375ZM7.25 2.5V13.5H8.75V2.5H7.25ZM11.75 2.375C11.75 1.61561 12.3656 1 13.125 1H14.625C15.3844 1 16 1.61561 16 2.375V13.625C16 14.3844 15.3844 15 14.625 15H13.125C12.3656 15 11.75 14.3844 11.75 13.625V2.375ZM13.25 2.5V13.5H14.5V2.5H13.25Z" fill="#44546F"/>
</svg>
