<svg width="16" height="16" viewBox="0 0 16 16" fill="none" xmlns="http://www.w3.org/2000/svg">
<path fill-rule="evenodd" clip-rule="evenodd" d="M16 2.375C16 1.61561 15.3844 1 14.625 1H6.875C6.11561 1 5.5 1.61561 5.5 2.375V13.625C5.5 14.3844 6.11561 15 6.875 15H14.625C15.3844 15 16 14.3844 16 13.625V2.375ZM14.5 2.5V13.5H7V2.5H14.5ZM4 2.375C4 1.61561 3.38439 1 2.625 1H1.375C0.615608 1 0 1.61561 0 2.375V13.625C0 14.3844 0.615608 15 1.375 15H2.625C3.38439 15 4 14.3844 4 13.625V2.375ZM2.5 2.5V13.5H1.5V2.5H2.5Z" fill="#292A2E"/>
</svg>
