<svg width="16" height="16" viewBox="0 0 16 16" fill="none" xmlns="http://www.w3.org/2000/svg">
<path fill-rule="evenodd" clip-rule="evenodd" d="M0 2.375C0 1.61561 0.615608 1 1.375 1H9.125C9.88439 1 10.5 1.61561 10.5 2.375V13.625C10.5 14.3844 9.88439 15 9.125 15H1.375C0.615608 15 0 14.3844 0 13.625V2.375ZM1.5 2.5V13.5H9V2.5H1.5ZM12 2.375C12 1.61561 12.6156 1 13.375 1H14.625C15.3844 1 16 1.61561 16 2.375V13.625C16 14.3844 15.3844 15 14.625 15H13.375C12.6156 15 12 14.3844 12 13.625V2.375ZM13.5 2.5V13.5H14.5V2.5H13.5Z" fill="#44546F"/>
</svg>
