<svg width="16" height="16" viewBox="0 0 16 16" fill="none" xmlns="http://www.w3.org/2000/svg">
<path d="M0.75 2.375C0.75 2.02982 1.02982 1.75 1.375 1.75H5.875C6.22018 1.75 6.5 2.02982 6.5 2.375V13.625C6.5 13.9702 6.22018 14.25 5.875 14.25H1.375C1.02982 14.25 0.75 13.9702 0.75 13.625V2.375Z" stroke="#44546F" stroke-width="1.5" stroke-linejoin="round"/>
<path d="M9.5 2.375C9.5 2.02982 9.77982 1.75 10.125 1.75H14.625C14.9702 1.75 15.25 2.02982 15.25 2.375V13.625C15.25 13.9702 14.9702 14.25 14.625 14.25H10.125C9.77982 14.25 9.5 13.9702 9.5 13.625V2.375Z" stroke="#44546F" stroke-width="1.5" stroke-linejoin="round"/>
</svg>
