<svg width="16" height="16" viewBox="0 0 16 16" fill="none" xmlns="http://www.w3.org/2000/svg">
<path fill-rule="evenodd" clip-rule="evenodd" d="M0 2.375C0 1.61561 0.615608 1 1.375 1H5.875C6.63439 1 7.25 1.61561 7.25 2.375V13.625C7.25 14.3844 6.63439 15 5.875 15H1.375C0.615608 15 0 14.3844 0 13.625V2.375ZM1.5 2.5V13.5H5.75V2.5H1.5ZM8.75 2.375C8.75 1.61561 9.36561 1 10.125 1H14.625C15.3844 1 16 1.61561 16 2.375V13.625C16 14.3844 15.3844 15 14.625 15H10.125C9.36561 15 8.75 14.3844 8.75 13.625V2.375ZM10.25 2.5V13.5H14.5V2.5H10.25Z" fill="#292A2E"/>
</svg>
