<svg width="16" height="16" viewBox="0 0 16 16" fill="none" xmlns="http://www.w3.org/2000/svg">
<path d="M15.25 2.375C15.25 2.02982 14.9702 1.75 14.625 1.75H6.875C6.52982 1.75 6.25 2.02982 6.25 2.375V13.625C6.25 13.9702 6.52982 14.25 6.875 14.25H14.625C14.9702 14.25 15.25 13.9702 15.25 13.625V2.375Z" stroke="#44546F" stroke-width="1.5" stroke-linejoin="round"/>
<path d="M3.25 2.375C3.25 2.02982 2.97018 1.75 2.625 1.75H1.375C1.02982 1.75 0.75 2.02982 0.75 2.375V13.625C0.75 13.9702 1.02982 14.25 1.375 14.25H2.625C2.97018 14.25 3.25 13.9702 3.25 13.625V2.375Z" stroke="#44546F" stroke-width="1.5" stroke-linejoin="round"/>
</svg>
