<svg width="16" height="16" viewBox="0 0 16 16" fill="none" xmlns="http://www.w3.org/2000/svg">
<path d="M0.75 2.375C0.75 2.02982 1.02982 1.75 1.375 1.75H2.125C2.47018 1.75 2.75 2.02982 2.75 2.375V13.625C2.75 13.9702 2.47018 14.25 2.125 14.25H1.375C1.02982 14.25 0.75 13.9702 0.75 13.625V2.375Z" stroke="#44546F" stroke-width="1.5" stroke-linejoin="round"/>
<path d="M13.25 2.375C13.25 2.02982 13.5298 1.75 13.875 1.75H14.625C14.9702 1.75 15.25 2.02982 15.25 2.375V13.625C15.25 13.9702 14.9702 14.25 14.625 14.25H13.875C13.5298 14.25 13.25 13.9702 13.25 13.625V2.375Z" stroke="#44546F" stroke-width="1.5" stroke-linejoin="round"/>
<path d="M5.75 2.375C5.75 2.02982 6.02982 1.75 6.375 1.75H9.625C9.97018 1.75 10.25 2.02982 10.25 2.375V13.625C10.25 13.9702 9.97018 14.25 9.625 14.25H6.375C6.02982 14.25 5.75 13.9702 5.75 13.625V2.375Z" stroke="#44546F" stroke-width="1.5" stroke-linejoin="round"/>
</svg>
