<svg width="16" height="16" viewBox="0 0 16 16" fill="none" xmlns="http://www.w3.org/2000/svg">
<path fill-rule="evenodd" clip-rule="evenodd" d="M8 1.5C5.51472 1.5 3.5 3.51472 3.5 6C3.5 7.55255 4.28559 8.92187 5.48441 9.73183C6.02899 10.0998 6.48633 10.726 6.4997 11.5H9.5003C9.51367 10.726 9.97101 10.0998 10.5156 9.73183C11.7144 8.92187 12.5 7.55255 12.5 6C12.5 3.51472 10.4853 1.5 8 1.5ZM9.5 13H6.5V14C6.5 14.2761 6.72386 14.5 7 14.5H9C9.27614 14.5 9.5 14.2761 9.5 14V13ZM2 6C2 2.68629 4.68629 0 8 0C11.3137 0 14 2.68629 14 6C14 8.0717 12.9494 9.89775 11.3553 10.9747C11.1084 11.1416 11 11.3597 11 11.5348V14C11 15.1046 10.1046 16 9 16H7C5.89543 16 5 15.1046 5 14V11.5348C5 11.3597 4.89163 11.1416 4.64466 10.9747C3.05062 9.89775 2 8.0717 2 6Z" fill="#44546F"/>
</svg>
