<svg width="16" height="16" viewBox="0 0 16 16" fill="none" xmlns="http://www.w3.org/2000/svg">
<path d="M9.99996 12.5H5.99996V14C5.99997 14.2761 6.22382 14.5 6.49996 14.5H9.49996C9.77611 14.5 9.99996 14.2761 9.99996 14V12.5ZM7.99996 1.5C4.97806 1.5 3.06536 4.74309 4.52731 7.3877L5.53512 9.20996C5.83813 9.75796 5.99795 10.3739 5.99996 11H9.99996C10.002 10.3739 10.1618 9.75795 10.4648 9.20996L11.4726 7.3877C12.9346 4.74309 11.0219 1.5 7.99996 1.5ZM11.5 14C11.5 15.1046 10.6045 16 9.49996 16H6.49996C5.3954 16 4.49997 15.1046 4.49996 14V11.0117C4.49992 10.6356 4.40455 10.2657 4.22262 9.93652L3.21481 8.11426C1.19968 4.46984 3.83553 0 7.99996 0C12.1644 0 14.8003 4.46984 12.7851 8.11426L11.7773 9.93652C11.5954 10.2657 11.5 10.6356 11.5 11.0117V14Z" fill="#44546F"/>
</svg>
