<svg width="16" height="16" viewBox="0 0 16 16" fill="none" xmlns="http://www.w3.org/2000/svg">
<path d="M5.75 12.25V14C5.75 14.6904 6.30964 15.25 7 15.25H9C9.69036 15.25 10.25 14.6904 10.25 14V12.25M5.75 12.25V11.5348C5.75 11.0523 5.46438 10.6234 5.06454 10.3533C3.6681 9.40981 2.75 7.81212 2.75 6C2.75 3.10051 5.10051 0.75 8 0.75C10.8995 0.75 13.25 3.10051 13.25 6C13.25 7.81212 12.3319 9.40981 10.9355 10.3533C10.5356 10.6234 10.25 11.0523 10.25 11.5348V12.25M5.75 12.25H10.25" stroke="#44546F" stroke-width="1.5" stroke-linejoin="round"/>
</svg>
