<svg width="16" height="16" viewBox="0 0 16 16" fill="none" xmlns="http://www.w3.org/2000/svg">
<path fill-rule="evenodd" clip-rule="evenodd" d="M6 1V4H4.5V1H6ZM8.21967 2.21967C9.7552 0.684137 12.2448 0.684135 13.7803 2.21967C15.3159 3.7552 15.3159 6.2448 13.7803 7.78033L13.0303 8.53033L11.9697 7.46967L12.7197 6.71967C13.6694 5.76992 13.6694 4.23008 12.7197 3.28033C11.7699 2.33058 10.2301 2.33058 9.28033 3.28033L8.53033 4.03033L7.46967 2.96967L8.21967 2.21967ZM1 4.5H4V6H1V4.5ZM2.21967 8.21967L2.96967 7.46967L4.03033 8.53033L3.28033 9.28033C2.33058 10.2301 2.33058 11.7699 3.28033 12.7197C4.23008 13.6694 5.76992 13.6694 6.71967 12.7197L7.46967 11.9697L8.53033 13.0303L7.78033 13.7803C6.2448 15.3159 3.7552 15.3159 2.21967 13.7803C0.684135 12.2448 0.684138 9.7552 2.21967 8.21967ZM15 11.5H12V10H15V11.5ZM10 15V12H11.5V15H10Z" fill="#44546F"/>
</svg>
