<svg width="16" height="16" viewBox="0 0 16 16" fill="none" xmlns="http://www.w3.org/2000/svg">
<path fill-rule="evenodd" clip-rule="evenodd" d="M8.21967 2.21967C9.7552 0.684133 12.2448 0.684132 13.7803 2.21967C15.3159 3.7552 15.3159 6.24479 13.7803 7.78033L11.5303 10.0303L10.4697 8.96967L12.7197 6.71967C13.6694 5.76992 13.6694 4.23007 12.7197 3.28033C11.7699 2.33058 10.2301 2.33058 9.28033 3.28033L7.03033 5.53033L5.96967 4.46967L8.21967 2.21967ZM11.2803 5.78033L5.78033 11.2803L4.71967 10.2197L10.2197 4.71967L11.2803 5.78033ZM2.21967 8.21967L4.46967 5.96967L5.53033 7.03033L3.28033 9.28033C2.33058 10.2301 2.33058 11.7699 3.28033 12.7197C4.23007 13.6694 5.76992 13.6694 6.71967 12.7197L8.96967 10.4697L10.0303 11.5303L7.78033 13.7803C6.24479 15.3159 3.7552 15.3159 2.21967 13.7803C0.684133 12.2448 0.684132 9.7552 2.21967 8.21967Z" fill="#292A2E"/>
</svg>
