<svg width="16" height="16" viewBox="0 0 16 16" fill="none" xmlns="http://www.w3.org/2000/svg">
<path fill-rule="evenodd" clip-rule="evenodd" d="M8.21967 2.21977C9.7552 0.684232 12.2448 0.684231 13.7803 2.21977C15.3159 3.7553 15.3159 6.24489 13.7803 7.78043L11.5303 10.0304L10.4697 8.96977L12.7197 6.71977C13.6694 5.77002 13.6694 4.23017 12.7197 3.28043C11.7699 2.33068 10.2301 2.33068 9.28033 3.28043L7.03033 5.53043L5.96967 4.46977L8.21967 2.21977ZM11.2803 5.78043L5.78033 11.2804L4.71967 10.2198L10.2197 4.71977L11.2803 5.78043ZM2.21967 8.21977L4.46967 5.96977L5.53033 7.03043L3.28033 9.28043C2.33058 10.2302 2.33058 11.77 3.28033 12.7198C4.23008 13.6695 5.76992 13.6695 6.71967 12.7198L8.96967 10.4698L10.0303 11.5304L7.78033 13.7804C6.2448 15.316 3.7552 15.316 2.21967 13.7804C0.684135 12.2449 0.684134 9.7553 2.21967 8.21977Z" fill="#292A2E"/>
</svg>
