<svg width="16" height="16" viewBox="0 0 16 16" fill="none" xmlns="http://www.w3.org/2000/svg">
<path fill-rule="evenodd" clip-rule="evenodd" d="M6.04024 1.5202L3.15135 4.5202C2.9926 4.68506 2.76725 4.76841 2.53942 4.74653C2.3116 4.72466 2.10623 4.59995 1.98175 4.40789L0.870636 2.6936L2.12937 1.87776L2.72644 2.79896L4.95976 0.479737L6.04024 1.5202ZM15 3.49997L7 3.49997L7 1.99997L15 1.99997L15 3.49997ZM6.04024 6.7702L3.15135 9.7702C2.9926 9.93506 2.76725 10.0184 2.53942 9.99653C2.3116 9.97466 2.10623 9.84995 1.98175 9.65789L0.870636 7.9436L2.12936 7.12776L2.72644 8.04896L4.95976 5.72974L6.04024 6.7702ZM15 8.74997L7 8.74997L7 7.24997L15 7.24997L15 8.74997ZM6.04024 12.0202L3.15135 15.0202C2.9926 15.1851 2.76725 15.2684 2.53942 15.2465C2.3116 15.2247 2.10623 15.0999 1.98175 14.9079L0.870636 13.1936L2.12937 12.3778L2.72644 13.299L4.95976 10.9797L6.04024 12.0202ZM15 14L7 14L7 12.5L15 12.5L15 14Z" fill="#44546F"/>
</svg>
