<svg width="16" height="16" viewBox="0 0 16 16" fill="none" xmlns="http://www.w3.org/2000/svg">
<path d="M5.58594 9.96875L2.58594 13.7188C2.43533 13.907 2.20269 14.0111 1.96191 13.999C1.75141 13.9883 1.55693 13.8895 1.42383 13.7295L1.37012 13.6572L-0.00488472 11.5322L1.25488 10.7178L2.06347 11.9678L4.41406 9.03125L5.58594 9.96875ZM5.58594 2.46875L2.58594 6.21875C2.43533 6.407 2.20269 6.51112 1.96191 6.49902C1.75141 6.48832 1.55693 6.38946 1.42383 6.22949L1.37012 6.15723L-0.00488439 4.03223L1.25488 3.21777L2.06347 4.46777L4.41406 1.53125L5.58594 2.46875Z" fill="#292A2E"/>
<path d="M16 11V12.5L7 12.5V11L16 11ZM16 3.5V5L7 5V3.5L16 3.5Z" fill="#292A2E"/>
</svg>
