<svg width="16" height="16" viewBox="0 0 16 16" fill="none" xmlns="http://www.w3.org/2000/svg">
<path fill-rule="evenodd" clip-rule="evenodd" d="M15 3.49995L4.99996 3.49995V1.99995L15 1.99995V3.49995ZM15 8.74995L4.99996 8.74995V7.24995L15 7.24995V8.74995ZM15 13.9999L4.99996 13.9999L4.99996 12.4999L15 12.4999V13.9999Z" fill="#44546F"/>
<path d="M2.02137 8.21559L0.753594 9.43964V10.4149H3.56159V9.37619H2.31147L2.69481 9.02189C2.97254 8.76578 3.18216 8.5137 3.31612 8.26492C3.45103 8.01437 3.51959 7.7496 3.51959 7.47269C3.51959 7.22245 3.46071 6.99674 3.33685 6.80222C3.21823 6.61044 3.05118 6.46286 2.84094 6.35938C2.63137 6.25096 2.38954 6.19994 2.12084 6.19994C1.83381 6.19994 1.57576 6.25478 1.35197 6.37067C1.12904 6.48611 0.952876 6.65204 0.828173 6.86524C0.706072 7.07688 0.648594 7.32352 0.648594 7.59869V7.76369H1.76609V7.59869C1.76609 7.46345 1.80146 7.38161 1.85128 7.3298C1.90505 7.27402 1.98282 7.23869 2.10509 7.23869C2.21483 7.23869 2.27955 7.26965 2.32194 7.31388L2.32442 7.31636C2.36907 7.36101 2.40209 7.43292 2.40209 7.55669C2.40209 7.66609 2.37385 7.76557 2.31646 7.85849L2.31553 7.86L2.31462 7.86153C2.25462 7.96354 2.15849 8.08178 2.02137 8.21559Z" fill="#44546F"/>
<path d="M1.77209 2.21457V4.15244H0.806094V5.16494H3.65609V4.15244H2.88959V1.00244H1.80623L0.795594 1.71166V2.93907L1.77209 2.21457Z" fill="#44546F"/>
<path d="M1.35101 15.5699L1.35266 15.5706L1.35432 15.5714C1.57278 15.6707 1.82457 15.7174 2.10509 15.7174C2.38562 15.7174 2.63741 15.6707 2.85588 15.5714L2.85811 15.5704C3.07625 15.4672 3.24879 15.3192 3.36872 15.1251C3.49204 14.9276 3.55109 14.7006 3.55109 14.4499V14.1297C3.55109 13.7456 3.41962 13.4264 3.14791 13.1915C3.03806 13.0952 2.91309 13.0205 2.77442 12.9659L3.39359 12.4191V11.5024H0.842844V12.4887H1.9897L1.48859 12.9318V13.8484H2.10509C2.23541 13.8484 2.30944 13.8814 2.35318 13.9233L2.35571 13.9257L2.35834 13.9281C2.4022 13.9667 2.43359 14.027 2.43359 14.1349V14.4499C2.43359 14.56 2.40258 14.621 2.3611 14.6591C2.3181 14.6985 2.24183 14.7312 2.10509 14.7312C1.97587 14.7312 1.89763 14.7004 1.84923 14.6591C1.80559 14.616 1.77659 14.5528 1.77659 14.4499V14.2849H0.659094V14.4499C0.659094 14.7007 0.71821 14.9279 0.841668 15.1254L0.842512 15.1267C0.96525 15.319 1.13654 15.4666 1.35101 15.5699Z" fill="#44546F"/>
</svg>
