<svg width="16" height="16" viewBox="0 0 16 16" fill="none" xmlns="http://www.w3.org/2000/svg">
<path fill-rule="evenodd" clip-rule="evenodd" d="M16 5L6 5V3.5L16 3.5V5ZM16 12.5L6 12.5V11L16 11V12.5Z" fill="#44546F"/>
<path fill-rule="evenodd" clip-rule="evenodd" d="M0.5 1H2.25C2.66421 1 3 1.33579 3 1.75V7H1.5V2.5H0.5V1Z" fill="#44546F"/>
<path fill-rule="evenodd" clip-rule="evenodd" d="M0 8.5H2.625C3.38439 8.5 4 9.11561 4 9.875V11.125C4 11.8844 3.38439 12.5 2.625 12.5H1.5V13.5H4V15H0.75C0.335786 15 0 14.6642 0 14.25V12.375C0 11.6156 0.615608 11 1.375 11H2.5V10H0V8.5Z" fill="#44546F"/>
</svg>
