<svg width="16" height="16" viewBox="0 0 16 16" fill="none" xmlns="http://www.w3.org/2000/svg">
<path d="M5 2.75L15 2.75M5 8L15 8M5 13.25L15 13.25" stroke="#44546F" stroke-width="1.5"/>
<path d="M2.02173 8.21527L2.02141 8.21559L0.753632 9.43964V10.4149H3.56163V9.37619H2.3115L2.69484 9.02189C2.97258 8.76578 3.1822 8.5137 3.31616 8.26492C3.45107 8.01437 3.51963 7.7496 3.51963 7.47269C3.51963 7.22245 3.46074 6.99674 3.33689 6.80222C3.21827 6.61044 3.05121 6.46286 2.84098 6.35938C2.63141 6.25096 2.38958 6.19994 2.12088 6.19994C1.83384 6.19994 1.5758 6.25478 1.35201 6.37067C1.12908 6.48611 0.953406 6.65118 0.828704 6.86438L0.828211 6.86524C0.70611 7.07688 0.648632 7.32352 0.648632 7.59869V7.76369H1.76613V7.59869C1.76613 7.46345 1.8015 7.38161 1.85132 7.3298C1.90508 7.27402 1.98286 7.23869 2.10513 7.23869C2.21487 7.23869 2.27959 7.26965 2.32198 7.31388L2.32446 7.31636C2.36911 7.36101 2.40213 7.43292 2.40213 7.55669C2.40213 7.66609 2.37389 7.76557 2.3165 7.85849L2.31557 7.86L2.31466 7.86153C2.25466 7.96354 2.15885 8.08146 2.02173 8.21527Z" fill="#44546F"/>
<path d="M1.77213 2.21457V4.15244H0.806132V5.16494H3.65613V4.15244H2.88963V1.00244H1.80626L0.795632 1.71166V2.93907L1.77213 2.21457Z" fill="#44546F"/>
<path d="M1.35105 15.5699L1.3527 15.5706L1.35435 15.5714C1.57282 15.6707 1.82461 15.7174 2.10513 15.7174C2.38565 15.7174 2.63745 15.6707 2.85592 15.5714L2.85815 15.5704C3.07629 15.4672 3.24883 15.3192 3.36876 15.1251C3.49208 14.9276 3.55113 14.7006 3.55113 14.4499V14.1297C3.55113 13.7456 3.41966 13.4264 3.14795 13.1915C3.0381 13.0952 2.91313 13.0205 2.77445 12.9659L3.39363 12.4191V11.5024H0.842882V12.4887H1.98973L1.48863 12.9318V13.8484H2.10513C2.23545 13.8484 2.30948 13.8814 2.35322 13.9233L2.35575 13.9257L2.35838 13.9281C2.40224 13.9667 2.43363 14.027 2.43363 14.1349V14.4499C2.43363 14.56 2.40262 14.621 2.36114 14.6591C2.31814 14.6985 2.24187 14.7312 2.10513 14.7312C1.97591 14.7312 1.89767 14.7004 1.84927 14.6591C1.80563 14.616 1.77663 14.5528 1.77663 14.4499V14.2849H0.659132V14.4499C0.659132 14.7007 0.718249 14.9279 0.841706 15.1254L0.84255 15.1267C0.965288 15.319 1.13658 15.4666 1.35105 15.5699Z" fill="#44546F"/>
</svg>
