<svg width="16" height="16" viewBox="0 0 16 16" fill="none" xmlns="http://www.w3.org/2000/svg">
<path fill-rule="evenodd" clip-rule="evenodd" d="M5.58569 2.46854L2.58569 6.21854C2.43509 6.40679 2.20317 6.51117 1.96239 6.49907C1.72161 6.48697 1.50133 6.35986 1.37036 6.15745L-0.00463864 4.03245L1.25472 3.21758L2.06443 4.46895L4.41439 1.53149L5.58569 2.46854ZM5.58569 9.96854L2.58569 13.7185C2.43509 13.9068 2.20317 14.0112 1.96239 13.9991C1.72161 13.987 1.50133 13.8599 1.37036 13.6575L-0.00463867 11.5325L1.25472 10.7176L2.06443 11.9689L4.41439 9.03149L5.58569 9.96854Z" fill="#44546F"/>
<path fill-rule="evenodd" clip-rule="evenodd" d="M16 5L7 5V3.5L16 3.5V5ZM16 12.5L7 12.5L7 11L16 11V12.5Z" fill="#44546F"/>
</svg>
