<svg width="16" height="16" viewBox="0 0 16 16" fill="none" xmlns="http://www.w3.org/2000/svg">
<path d="M5 2.75L15 2.75M5 8L15 8M5 13.25L15 13.25" stroke="#44546F" stroke-width="1.5"/>
<path d="M2.02174 8.21532L2.02141 8.21563L0.753636 9.43969V10.415H3.56164V9.37624H2.31151L2.69485 9.02194C2.97258 8.76583 3.1822 8.51374 3.31616 8.26496C3.45108 8.01441 3.51964 7.74965 3.51964 7.47274C3.51964 7.22249 3.46075 6.99679 3.33689 6.80226C3.21827 6.61048 3.05122 6.46291 2.84098 6.35942C2.63141 6.25101 2.38958 6.19999 2.12089 6.19999C1.83385 6.19999 1.5758 6.25483 1.35201 6.37072C1.12909 6.48616 0.95341 6.65123 0.828707 6.86443L0.828215 6.86528C0.706114 7.07692 0.648636 7.32357 0.648636 7.59874V7.76374H1.76614V7.59874C1.76614 7.4635 1.80151 7.38166 1.85132 7.32985C1.90509 7.27407 1.98286 7.23874 2.10514 7.23874C2.21487 7.23874 2.27959 7.26969 2.32198 7.31393L2.32446 7.31641C2.36911 7.36106 2.40214 7.43297 2.40214 7.55674C2.40214 7.66614 2.37389 7.76561 2.3165 7.85853L2.31557 7.86004L2.31467 7.86158C2.25466 7.96358 2.15886 8.0815 2.02174 8.21532Z" fill="#44546F"/>
<path d="M1.77214 2.21461V4.15249H0.806136V5.16499H3.65614V4.15249H2.88964V1.00249H1.80627L0.795636 1.7117V2.93911L1.77214 2.21461Z" fill="#44546F"/>
<path d="M1.35106 15.5699L1.3527 15.5707L1.35436 15.5714C1.57282 15.6707 1.82461 15.7175 2.10514 15.7175C2.38566 15.7175 2.63746 15.6708 2.85592 15.5715L2.85815 15.5704C3.07629 15.4673 3.24883 15.3193 3.36876 15.1251C3.49208 14.9276 3.55114 14.7006 3.55114 14.45V14.1297C3.55114 13.7456 3.41967 13.4264 3.14795 13.1915C3.0381 13.0953 2.91313 13.0206 2.77446 12.966L3.39364 12.4192V11.5025H0.842886V12.4887H1.98974L1.48864 12.9319V13.8485H2.10514C2.23545 13.8485 2.30948 13.8814 2.35322 13.9234L2.35575 13.9258L2.35838 13.9281C2.40224 13.9667 2.43364 14.027 2.43364 14.135V14.45C2.43364 14.5601 2.40263 14.6211 2.36114 14.6591C2.31814 14.6985 2.24187 14.7312 2.10514 14.7312C1.97591 14.7312 1.89768 14.7004 1.84927 14.6592C1.80563 14.616 1.77664 14.5529 1.77664 14.45V14.285H0.659136V14.45C0.659136 14.7008 0.718252 14.9279 0.84171 15.1254L0.842554 15.1268C0.965292 15.3191 1.13658 15.4666 1.35106 15.5699Z" fill="#44546F"/>
</svg>
