<svg width="16" height="16" viewBox="0 0 16 16" fill="none" xmlns="http://www.w3.org/2000/svg">
<path fill-rule="evenodd" clip-rule="evenodd" d="M1 2.75C1 2.05964 1.55965 1.5 2.25 1.5C2.94036 1.5 3.5 2.05964 3.5 2.75C3.5 3.44036 2.94036 4 2.25 4C1.55965 4 1 3.44036 1 2.75ZM15 3.5L5 3.5L5 2L15 2L15 3.5ZM1 8C1 7.30964 1.55965 6.75 2.25 6.75C2.94036 6.75 3.5 7.30965 3.5 8C3.5 8.69036 2.94036 9.25 2.25 9.25C1.55965 9.25 1 8.69036 1 8ZM15 8.75L5 8.75L5 7.25L15 7.25L15 8.75ZM1 13.25C1 12.5596 1.55965 12 2.25 12C2.94036 12 3.5 12.5596 3.5 13.25C3.5 13.9404 2.94036 14.5 2.25 14.5C1.55965 14.5 1 13.9404 1 13.25ZM15 14L5 14L5 12.5L15 12.5L15 14Z" fill="#44546F"/>
</svg>
