<svg width="16" height="16" viewBox="0 0 16 16" fill="none" xmlns="http://www.w3.org/2000/svg">
<path fill-rule="evenodd" clip-rule="evenodd" d="M6 1H10V2.5H8.75V4.25H9.66983C12.0902 4.25 14.1235 6.0699 14.3908 8.47545L14.7454 11.6672C14.769 11.8792 14.7011 12.0912 14.5588 12.2502C14.4166 12.4092 14.2133 12.5 14 12.5H2C1.78667 12.5 1.58343 12.4092 1.44115 12.2502C1.29888 12.0912 1.23103 11.8792 1.25459 11.6672L1.60922 8.47545C1.87651 6.06989 3.90981 4.25 6.33017 4.25H7.25V2.5H6V1ZM6.33017 5.75C4.67414 5.75 3.28293 6.99519 3.10005 8.6411L2.83795 11H13.1621L12.9 8.6411C12.7171 6.99519 11.3259 5.75 9.66983 5.75H6.33017ZM15 13.5V15H1V13.5H15Z" fill="#44546F"/>
</svg>
