<svg width="16" height="16" viewBox="0 0 16 16" fill="none" xmlns="http://www.w3.org/2000/svg">
<path fill-rule="evenodd" clip-rule="evenodd" d="M8.00001 1.5C4.37292 1.5 2.23553 5.57046 4.29475 8.55633L8.00001 13.929L11.7053 8.55633C13.7645 5.57046 11.6271 1.5 8.00001 1.5ZM3.05993 9.40793C0.314457 5.42699 3.16416 0 8.00001 0C12.8359 0 15.6856 5.42699 12.9401 9.40793L8.61742 15.6758C8.47743 15.8788 8.2466 16 8.00001 16C7.75343 16 7.5226 15.8788 7.3826 15.6758L3.05993 9.40793ZM8 5C7.44772 5 7 5.44772 7 6C7 6.55228 7.44772 7 8 7C8.55229 7 9 6.55228 9 6C9 5.44772 8.55229 5 8 5ZM5.5 6C5.5 4.61929 6.61929 3.5 8 3.5C9.38071 3.5 10.5 4.61929 10.5 6C10.5 7.38071 9.38071 8.5 8 8.5C6.61929 8.5 5.5 7.38071 5.5 6Z" fill="#44546F"/>
</svg>
