<svg width="16" height="16" viewBox="0 0 16 16" fill="none" xmlns="http://www.w3.org/2000/svg">
<path fill-rule="evenodd" clip-rule="evenodd" d="M8 1.5C6.61929 1.5 5.5 2.61929 5.5 4V7H10.5V4C10.5 2.61929 9.38071 1.5 8 1.5ZM12 7V4C12 1.79086 10.2091 0 8 0C5.79086 0 4 1.79086 4 4V7C2.89543 7 2 7.89543 2 9V14C2 15.1046 2.89543 16 4 16H12C13.1046 16 14 15.1046 14 14V9C14 7.89543 13.1046 7 12 7ZM4 8.5C3.72386 8.5 3.5 8.72386 3.5 9V14C3.5 14.2761 3.72386 14.5 4 14.5H12C12.2761 14.5 12.5 14.2761 12.5 14V9C12.5 8.72386 12.2761 8.5 12 8.5H4ZM7.25 13V10H8.75V13H7.25Z" fill="#44546F"/>
</svg>
