<svg width="16" height="16" viewBox="0 0 16 16" fill="none" xmlns="http://www.w3.org/2000/svg">
<path fill-rule="evenodd" clip-rule="evenodd" d="M3 2.5H8V1H3C1.89543 1 1 1.89543 1 3V13C1 14.1046 1.89543 15 3 15H8V13.5H3C2.72386 13.5 2.5 13.2761 2.5 13V3C2.5 2.72386 2.72386 2.5 3 2.5ZM14.7803 7.46957L11.2803 3.96966L10.2197 5.03034L12.4393 7.24991H6V8.74991H12.4393L10.2197 10.9696L11.2803 12.0302L14.7803 8.53024C14.921 8.38959 15 8.19882 15 7.99991C15 7.80099 14.921 7.61023 14.7803 7.46957Z" fill="#44546F"/>
</svg>
