<svg width="16" height="16" viewBox="0 0 16 16" fill="none" xmlns="http://www.w3.org/2000/svg">
<path fill-rule="evenodd" clip-rule="evenodd" d="M10 2V0H11.5V2H10ZM7.9216 3.48223L6.50739 2.06802L7.56805 1.00736L8.98226 2.42157L7.9216 3.48223ZM14.9927 2.06802L13.5785 3.48223L12.5178 2.42157L13.932 1.00736L14.9927 2.06802ZM8.77773 4.16161C9.3147 3.62464 10.1853 3.62464 10.7223 4.16161L11.8384 5.27773C12.3754 5.8147 12.3754 6.6853 11.8384 7.22227L3.72227 15.3384C3.1853 15.8754 2.3147 15.8754 1.77773 15.3384L0.661612 14.2223C0.124641 13.6853 0.124642 12.8147 0.661613 12.2777L8.77773 4.16161ZM9.75 5.31066L8.31066 6.75L9.25 7.68934L10.6893 6.25L9.75 5.31066ZM8.18934 8.75L7.25 7.81066L1.81066 13.25L2.75 14.1893L8.18934 8.75ZM16 6H14V4.5H16V6ZM13.932 9.49264L12.5178 8.07843L13.5785 7.01777L14.9927 8.43198L13.932 9.49264Z" fill="#44546F"/>
</svg>
