<svg width="16" height="16" viewBox="0 0 16 16" fill="none" xmlns="http://www.w3.org/2000/svg">
<path d="M9.02731 3.91113C9.53081 3.40768 10.3281 3.37668 10.8681 3.81738L10.9726 3.91113L12.0888 5.02734C12.6257 5.5643 12.6257 6.4357 12.0888 6.97266L3.47263 15.5889C2.93567 16.1258 2.06427 16.1258 1.52731 15.5889L0.411104 14.4727C-0.125805 13.9357 -0.125804 13.0643 0.411104 12.5273L9.02731 3.91113ZM1.56052 13.499L2.49997 14.4385L7.93845 8.99902L6.99997 8.06055L1.56052 13.499ZM14.9922 9.43164L13.9316 10.4922L12.5175 9.07812L13.5781 8.01758L14.9922 9.43164ZM8.06052 7L8.99899 7.93848L10.9384 6L9.99899 5.06055L8.06052 7ZM16 5V6.5H14V5H16ZM7.98239 2.42188L6.92185 3.48242L5.50778 2.06836L6.56833 1.00781L7.98239 2.42188ZM14.9922 2.06836L13.5781 3.48242L12.5175 2.42188L13.9316 1.00781L14.9922 2.06836ZM11 0V2H9.49997V0H11Z" fill="#292A2E"/>
</svg>
