<svg width="16" height="16" viewBox="0 0 16 16" fill="none" xmlns="http://www.w3.org/2000/svg">
<path d="M9.25 8.75L3.19194 14.8081C2.94786 15.0521 2.55214 15.0521 2.30806 14.8081L1.19194 13.6919C0.947864 13.4479 0.947864 13.0521 1.19194 12.8081L7.25 6.75M9.25 8.75L11.3081 6.69194C11.5521 6.44786 11.5521 6.05214 11.3081 5.80806L10.1919 4.69194C9.94786 4.44786 9.55214 4.44786 9.30806 4.69194L7.25 6.75M9.25 8.75L7.25 6.75M10.75 0V2M13.0481 2.9519L14.4623 1.53769M14 5.25H16M7.03772 1.53769L8.45193 2.9519M13.0481 7.5481L14.4623 8.96231" stroke="#44546F" stroke-width="1.5" stroke-linejoin="round"/>
</svg>
