<svg width="17" height="16" viewBox="0 0 17 16" fill="none" xmlns="http://www.w3.org/2000/svg">
<path fill-rule="evenodd" clip-rule="evenodd" d="M0 3.75C0 3.33579 0.335786 3 0.75 3H1.25C1.52446 3 1.777 3.14992 1.90842 3.39086L4.25 7.68375L6.59158 3.39086C6.723 3.14992 6.97554 3 7.25 3H7.75C8.16421 3 8.5 3.33579 8.5 3.75V13H7V5.77458L4.90842 9.60914C4.777 9.85008 4.52446 10 4.25 10C3.97554 10 3.723 9.85008 3.59158 9.60914L1.5 5.77458V13H0V3.75ZM12 3H13.5V10.3212L14.9471 8.74321L16.0529 9.75679L13.3029 12.7568C13.1608 12.9118 12.9602 13 12.75 13C12.5398 13 12.3392 12.9118 12.1971 12.7568L9.44713 9.75679L10.5529 8.74321L12 10.3219V3Z" fill="#292A2E"/>
</svg>
