<svg width="16" height="16" viewBox="0 0 16 16" fill="none" xmlns="http://www.w3.org/2000/svg">
<path d="M6.16667 1.75H2.5L1.24931 5.5M6.16667 1.75H9.83333M6.16667 1.75L5.66625 6.25M9.83333 1.75H13.5L14.751 5.5M9.83333 1.75L10.3338 6.25M10.3338 6.25C10.3338 7.53889 9.2889 8.58375 8 8.58375C6.71111 8.58375 5.66625 7.53889 5.66625 6.25M10.3338 6.25C10.3338 7.53889 11.3786 8.58375 12.6675 8.58375C12.8686 8.58375 13.0638 8.55831 13.25 8.51047M5.66625 6.25H5.66667C5.66667 7.53889 4.62181 8.58375 3.33292 8.58375C3.13165 8.58375 2.93632 8.55827 2.75 8.51036M13.25 8.51047C14.257 8.25172 15.0013 7.33777 15.0013 6.25L14.751 5.5M13.25 8.51047V13C13.25 13.6904 12.6904 14.25 12 14.25H4C3.30965 14.25 2.75 13.6904 2.75 13V8.51036M2.75 8.51036C1.74318 8.25147 0.999168 7.33762 0.999168 6.25L1.24931 5.5M1.24931 5.5H14.751" stroke="#44546F" stroke-width="1.5" stroke-linejoin="round"/>
</svg>
