<svg width="16" height="16" viewBox="0 0 16 16" fill="none" xmlns="http://www.w3.org/2000/svg">
<path fill-rule="evenodd" clip-rule="evenodd" d="M1.78853 1.51271C1.89065 1.20651 2.17723 1 2.5 1H13.5C13.8228 1 14.1093 1.20649 14.2115 1.51265L15.7127 6.01265C15.7382 6.08918 15.7513 6.16933 15.7513 6.25C15.7513 7.47651 15.0357 8.53452 14 9.03154V13C14 14.1046 13.1046 15 12 15H4C2.89543 15 2 14.1046 2 13V9.03134C0.964514 8.53423 0.249168 7.47634 0.249168 6.25C0.249168 6.16935 0.262178 6.08922 0.287695 6.01271L1.78853 1.51271ZM3.5 9.3293V13C3.5 13.2761 3.72386 13.5 4 13.5H12C12.2761 13.5 12.5 13.2761 12.5 13V9.32928C11.6353 9.28299 10.8651 8.88045 10.3338 8.26579C9.76829 8.91987 8.93248 9.33375 8 9.33375C7.06764 9.33375 6.23192 8.91997 5.66646 8.26604C5.13499 8.88066 4.36479 9.28313 3.5 9.3293ZM4.91625 6.25C4.91625 6.25995 4.9163 6.26989 4.91639 6.27982C4.9005 7.14074 4.19764 7.83375 3.33292 7.83375C3.19518 7.83375 3.06259 7.81634 2.93678 7.78399C2.28776 7.61711 1.80039 7.04848 1.75296 6.3604L1.78978 6.25H4.91625ZM6.41669 6.28763L6.42088 6.25H9.57913L9.58331 6.28763C9.56332 7.14493 8.8621 7.83375 8 7.83375C7.1379 7.83375 6.43668 7.14493 6.41669 6.28763ZM9.41232 4.75H6.58768L6.83789 2.5H9.16212L9.41232 4.75ZM11.0838 6.25C11.0838 7.12468 11.7928 7.83375 12.6675 7.83375C12.8051 7.83375 12.9376 7.81637 13.0634 7.78406C13.7125 7.61727 14.2 7.0486 14.2475 6.36043L14.2106 6.25H11.0838ZM13.7102 4.75H10.9216L10.6714 2.5H12.9596L13.7102 4.75ZM5.32864 2.5L5.07843 4.75H2.29006L3.04048 2.5H5.32864Z" fill="#292A2E"/>
</svg>
