<svg width="16" height="16" viewBox="0 0 16 16" fill="none" xmlns="http://www.w3.org/2000/svg">
<path fill-rule="evenodd" clip-rule="evenodd" d="M15 3C15 1.89543 14.1046 1 13 1H3C1.89543 1 1 1.89543 1 3V13C1 14.1046 1.89543 15 3 15H13C14.1046 15 15 14.1046 15 13V3ZM13 2.5C13.2761 2.5 13.5 2.72386 13.5 3V13C13.5 13.2761 13.2761 13.5 13 13.5H3C2.72386 13.5 2.5 13.2761 2.5 13V3C2.5 2.72386 2.72386 2.5 3 2.5H13ZM8 4H4.75C4.33579 4 4 4.33579 4 4.75L4 8H5.5L5.5 5.5H8V4ZM10.5002 10.4999V7.99988H12.0002L12.0002 11.2499C12.0002 11.4488 11.9212 11.6396 11.7805 11.7802C11.6399 11.9209 11.4491 11.9999 11.2502 11.9999H8.00018V10.4999H10.5002Z" fill="#44546F"/>
</svg>
