<svg width="16" height="16" viewBox="0 0 16 16" fill="none" xmlns="http://www.w3.org/2000/svg">
<path fill-rule="evenodd" clip-rule="evenodd" d="M13.5 3.09629C13.5 2.74256 13.1427 2.50068 12.8143 2.63206L7.5 4.75778V9.49223L12.8143 11.618C13.1427 11.7493 13.5 11.5074 13.5 11.1537V3.09629ZM7.5 11.1078L12.2572 13.0107C13.5709 13.5362 15 12.5686 15 11.1537V3.09629C15 1.68136 13.5709 0.71385 12.2572 1.23934L6.60556 3.5H3C1.89543 3.5 1 4.39543 1 5.5V8.75C1 9.85457 1.89543 10.75 3 10.75H3.5V13C3.5 14.1046 4.39543 15 5.5 15H6.75C7.16421 15 7.5 14.6642 7.5 14.25V11.1078ZM6 9.25H3C2.72386 9.25 2.5 9.02614 2.5 8.75V5.5C2.5 5.22386 2.72386 5 3 5H6V9.25ZM6 10.75V13.5H5.5C5.22386 13.5 5 13.2761 5 13V10.75H6Z" fill="#292A2E"/>
</svg>
