<svg width="16" height="16" viewBox="0 0 16 16" fill="none" xmlns="http://www.w3.org/2000/svg">
<path d="M13.5 3.09615C13.5 2.74249 13.1428 2.50011 12.8145 2.6313L7.5 4.7563V9.49166L12.8145 11.6176C13.1428 11.7488 13.5 11.5064 13.5 11.1528V3.09615ZM5 12.9995C5 13.2756 5.22386 13.4995 5.5 13.4995H6V10.7495H5V12.9995ZM2.5 8.74947C2.5 9.02561 2.72386 9.24947 3 9.24947H6V4.99947H3C2.72386 4.99947 2.5 5.22333 2.5 5.49947V8.74947ZM15 11.1528C15 12.5677 13.5706 13.5357 12.2568 13.0102L7.5 11.1069V14.2495C7.5 14.6637 7.16421 14.9995 6.75 14.9995H5.5C4.39543 14.9995 3.5 14.104 3.5 12.9995V10.7495H3C1.89543 10.7495 1 9.85404 1 8.74947V5.49947C1 4.3949 1.89543 3.49947 3 3.49947H6.60547L12.2568 1.23873C13.5706 0.713234 15 1.68122 15 3.09615V11.1528Z" fill="#292A2E"/>
</svg>
