<svg width="16" height="16" viewBox="0 0 16 16" fill="none" xmlns="http://www.w3.org/2000/svg">
<path fill-rule="evenodd" clip-rule="evenodd" d="M13.5 3.09621C13.5 2.74248 13.1427 2.5006 12.8143 2.63197L7.5 4.75769V9.49214L12.8143 11.6179C13.1427 11.7492 13.5 11.5074 13.5 11.1536V3.09621ZM7.5 11.1077L12.2572 13.0106C13.5709 13.5361 15 12.5686 15 11.1536V3.09621C15 1.68128 13.5709 0.713766 12.2572 1.23926L6.60556 3.49992H3C1.89543 3.49992 1 4.39535 1 5.49992V8.74992C1 9.85449 1.89543 10.7499 3 10.7499H3.5V12.9999C3.5 14.1045 4.39543 14.9999 5.5 14.9999H6.75C7.16421 14.9999 7.5 14.6641 7.5 14.2499V11.1077ZM6 9.24992H3C2.72386 9.24992 2.5 9.02606 2.5 8.74992V5.49992C2.5 5.22378 2.72386 4.99992 3 4.99992H6V9.24992ZM6 10.7499V13.4999H5.5C5.22386 13.4999 5 13.2761 5 12.9999V10.7499H6Z" fill="#292A2E"/>
</svg>
