<svg width="16" height="16" viewBox="0 0 16 16" fill="none" xmlns="http://www.w3.org/2000/svg">
<path d="M11.625 14.2801C10.5586 14.8969 9.32054 15.25 8 15.25C3.99594 15.25 0.75 12.0041 0.75 8C0.75 3.99594 3.99594 0.75 8 0.75C12.0041 0.75 15.25 3.99594 15.25 8C15.25 9.38095 14.3179 11.1071 12.6607 11.1071C11.0036 11.1071 10.8776 9.13095 10.8776 7.75L10.8826 7.625M10.8826 7.625C10.9047 6.6065 10.4631 5.66932 9.625 5.18542C8.3097 4.42603 6.51589 5.07056 5.61843 6.62501C4.72097 8.17946 5.0597 10.0552 6.375 10.8146C7.69031 11.574 9.48411 10.9295 10.3816 9.37501C10.7072 8.81108 10.87 8.20486 10.8826 7.625Z" stroke="#44546F" stroke-width="1.5" stroke-linecap="square"/>
</svg>
