<svg width="16" height="16" viewBox="0 0 16 16" fill="none" xmlns="http://www.w3.org/2000/svg">
<path fill-rule="evenodd" clip-rule="evenodd" d="M8 1.5C4.41015 1.5 1.5 4.41015 1.5 8C1.5 11.5899 4.41015 14.5 8 14.5C9.18518 14.5 10.2942 14.1835 11.2495 13.6309L12.0005 14.9293C10.8231 15.6104 9.4559 16 8 16C3.58172 16 0 12.4183 0 8C0 3.58172 3.58172 0 8 0C12.4183 0 16 3.58172 16 8C16 8.84201 15.7208 9.77492 15.183 10.5131C14.6358 11.2641 13.7816 11.8571 12.6607 11.8571C12.0844 11.8571 11.5903 11.6803 11.199 11.3497C10.8956 11.0934 10.686 10.772 10.5389 10.4423C9.38723 11.7758 7.52817 12.3464 6 11.4641C4.2285 10.4413 3.92551 8.05724 4.96891 6.25001C6.01232 4.44278 8.2285 3.51313 10 4.53591C11.1202 5.18265 11.6593 6.40524 11.6325 7.64127C11.6315 7.68433 11.6299 7.72747 11.6276 7.77067C11.6283 8.45796 11.6658 9.16833 11.8539 9.69367C11.9453 9.94905 12.0551 10.1093 12.167 10.2039C12.2654 10.287 12.4085 10.3571 12.6607 10.3571C13.197 10.3571 13.6375 10.087 13.9706 9.62978C14.3132 9.1596 14.5 8.53895 14.5 8C14.5 4.41015 11.5899 1.5 8 1.5ZM10.1329 7.60223C10.1483 6.80424 9.80456 6.15512 9.25 5.83494C8.39089 5.33894 7.01947 5.69834 6.26795 7.00001C5.51643 8.30168 5.89089 9.66907 6.75 10.1651C7.60911 10.6611 8.98053 10.3017 9.73205 9.00001C9.97552 8.5783 10.1028 8.1339 10.1285 7.71253L10.1329 7.60223Z" fill="#44546F"/>
</svg>
