<svg width="16" height="16" viewBox="0 0 16 16" fill="none" xmlns="http://www.w3.org/2000/svg">
<path fill-rule="evenodd" clip-rule="evenodd" d="M6.17383 0.769775L7.32617 1.73005L3.99283 5.73005C3.85034 5.90105 3.63925 5.99991 3.41667 5.99991C3.19408 5.99991 2.983 5.90105 2.8405 5.73005L1.17383 3.73005L2.32617 2.76978L3.41667 4.07838L6.17383 0.769775ZM8.5 2.49991H9.75C11.2688 2.49991 12.5 3.73113 12.5 5.24992L12.5 10.6279C13.3739 10.9368 14 11.7703 14 12.7499C14 13.9926 12.9926 14.9999 11.75 14.9999C10.5074 14.9999 9.5 13.9926 9.5 12.7499C9.5 11.7703 10.1261 10.9368 11 10.6279L11 5.24991C11 4.55956 10.4404 3.99991 9.75 3.99991H8.5V2.49991ZM3.5 10.6279L3.5 7.49991L5 7.49991L5 10.6279C5.87389 10.9368 6.5 11.7703 6.5 12.7499C6.5 13.9926 5.49264 14.9999 4.25 14.9999C3.00736 14.9999 2 13.9926 2 12.7499C2 11.7703 2.62611 10.9368 3.5 10.6279ZM4.25 11.9999C3.83579 11.9999 3.5 12.3357 3.5 12.7499C3.5 13.1641 3.83579 13.4999 4.25 13.4999C4.66421 13.4999 5 13.1641 5 12.7499C5 12.3357 4.66421 11.9999 4.25 11.9999ZM11.75 11.9999C11.3358 11.9999 11 12.3357 11 12.7499C11 13.1641 11.3358 13.4999 11.75 13.4999C12.1642 13.4999 12.5 13.1641 12.5 12.7499C12.5 12.3357 12.1642 11.9999 11.75 11.9999Z" fill="#292A2E"/>
</svg>
