<svg width="16" height="16" viewBox="0 0 16 16" fill="none" xmlns="http://www.w3.org/2000/svg">
<path d="M8.5 3.25H9.75C10.8546 3.25 11.75 4.14543 11.75 5.25L11.75 11.25M4.25 7.5L4.25 11.25M4.25 11.25C3.42157 11.25 2.75 11.9216 2.75 12.75C2.75 13.5784 3.42157 14.25 4.25 14.25C5.07843 14.25 5.75 13.5784 5.75 12.75C5.75 11.9216 5.07843 11.25 4.25 11.25ZM11.75 11.25C10.9216 11.25 10.25 11.9216 10.25 12.75C10.25 13.5784 10.9216 14.25 11.75 14.25C12.5784 14.25 13.25 13.5784 13.25 12.75C13.25 11.9216 12.5784 11.25 11.75 11.25ZM2 1L4.25 3.25M4.25 3.25L6.5 5.5M4.25 3.25L6.5 1M4.25 3.25L2 5.5" stroke="#44546F" stroke-width="1.5" stroke-linejoin="round"/>
</svg>
