<svg width="16" height="16" viewBox="0 0 16 16" fill="none" xmlns="http://www.w3.org/2000/svg">
<path fill-rule="evenodd" clip-rule="evenodd" d="M3.18934 3.25006L1.46967 1.53039L2.53033 0.469727L4.25 2.1894L5.96967 0.469727L7.03033 1.53039L5.31066 3.25006L7.03033 4.96973L5.96967 6.03039L4.25 4.31072L2.53033 6.03039L1.46967 4.96973L3.18934 3.25006ZM8.5 2.50006H9.75C11.2688 2.50006 12.5 3.73127 12.5 5.25006L12.5 10.6281C13.3739 10.937 14 11.7704 14 12.7501C14 13.9927 12.9926 15.0001 11.75 15.0001C10.5074 15.0001 9.5 13.9927 9.5 12.7501C9.5 11.7704 10.1261 10.937 11 10.6281L11 5.25006C11 4.5597 10.4404 4.00006 9.75 4.00006H8.5V2.50006ZM3.5 10.6281L3.5 7.50006L5 7.50006L5 10.6281C5.87389 10.937 6.5 11.7704 6.5 12.7501C6.5 13.9927 5.49264 15.0001 4.25 15.0001C3.00736 15.0001 2 13.9927 2 12.7501C2 11.7704 2.62611 10.937 3.5 10.6281ZM4.25 12.0001C3.83579 12.0001 3.5 12.3358 3.5 12.7501C3.5 13.1643 3.83579 13.5001 4.25 13.5001C4.66421 13.5001 5 13.1643 5 12.7501C5 12.3358 4.66421 12.0001 4.25 12.0001ZM11.75 12.0001C11.3358 12.0001 11 12.3358 11 12.7501C11 13.1643 11.3358 13.5001 11.75 13.5001C12.1642 13.5001 12.5 13.1643 12.5 12.7501C12.5 12.3358 12.1642 12.0001 11.75 12.0001Z" fill="#44546F"/>
</svg>
