<svg width="16" height="16" viewBox="0 0 16 16" fill="none" xmlns="http://www.w3.org/2000/svg">
<path fill-rule="evenodd" clip-rule="evenodd" d="M8 1.5C7.17157 1.5 6.5 2.17157 6.5 3V7C6.5 7.82843 7.17157 8.5 8 8.5C8.82843 8.5 9.5 7.82843 9.5 7V3C9.5 2.17157 8.82843 1.5 8 1.5ZM5 3C5 1.34315 6.34315 0 8 0C9.65685 0 11 1.34315 11 3V7C11 8.65685 9.65685 10 8 10C6.34315 10 5 8.65685 5 7V3ZM3.5 7C3.5 9.48528 5.51472 11.5 8 11.5C10.4853 11.5 12.5 9.48528 12.5 7H14C14 10.0597 11.7097 12.5845 8.75 12.9536V14.5H12V16H4V14.5H7.25V12.9536C4.29027 12.5845 2 10.0597 2 7H3.5Z" fill="#292A2E"/>
</svg>
