<svg width="16" height="16" viewBox="0 0 16 16" fill="none" xmlns="http://www.w3.org/2000/svg">
<path fill-rule="evenodd" clip-rule="evenodd" d="M1 3C1 1.89543 1.89543 1 3 1H13C14.1046 1 15 1.89543 15 3V9.75C15 10.2691 14.7938 10.7669 14.4268 11.1339L11.1339 14.4268C10.7669 14.7938 10.2691 15 9.75 15H3C1.89543 15 1 14.1046 1 13V3ZM3 2.5C2.72386 2.5 2.5 2.72386 2.5 3V13C2.5 13.2761 2.72386 13.5 3 13.5H9V9.75C9 9.33579 9.33579 9 9.75 9H13.5V3C13.5 2.72386 13.2761 2.5 13 2.5H3ZM12.9393 10.5H10.5V12.9393L12.9393 10.5ZM11 6H4V4.5H11V6ZM7 9.5H4V8H7V9.5Z" fill="#44546F"/>
</svg>
