<svg width="16" height="16" viewBox="0 0 16 16" fill="none" xmlns="http://www.w3.org/2000/svg">
<path d="M13 9.81802L11.5 8.31802V5C11.5 3.067 9.933 1.5 8 1.5C7.07979 1.5 6.24253 1.85512 5.61778 2.4358L4.55662 1.37464C5.45324 0.522751 6.66558 0 8 0C10.7614 0 13 2.23858 13 5V9.81802Z" fill="#44546F"/>
<path fill-rule="evenodd" clip-rule="evenodd" d="M3 6.18198L4.5 7.68198V8.63578C4.5 8.85099 4.43952 9.06186 4.32546 9.24436L2.60319 12H8.81802L10.9448 14.1268C10.4265 15.2335 9.30278 16 8 16C6.46321 16 5.17555 14.9334 4.83697 13.5H2.37766C1.29768 13.5 0.639273 12.3121 1.21166 11.3963L3 8.5349V6.18198ZM6.41841 13.5C6.69928 14.0912 7.3019 14.5 8 14.5C8.6981 14.5 9.30073 14.0912 9.58159 13.5H6.41841Z" fill="#44546F"/>
<path d="M0.469673 1.53039L14.4697 15.5304L15.5303 14.4697L1.53033 0.469727L0.469673 1.53039Z" fill="#44546F"/>
</svg>
