<svg width="16" height="16" viewBox="0 0 16 16" fill="none" xmlns="http://www.w3.org/2000/svg">
<path d="M10.5 12.75C10.5 14.1307 9.38071 15.25 8 15.25C6.61929 15.25 5.5 14.1307 5.5 12.75M12.25 8.63578V5C12.25 2.65279 10.3472 0.75 8 0.75V0.75C5.65279 0.75 3.75 2.65279 3.75 5V8.63578C3.75 8.71042 3.72902 8.78356 3.68946 8.84686L1.84766 11.7938C1.58748 12.21 1.88676 12.75 2.37766 12.75H13.6223C14.1132 12.75 14.4125 12.21 14.1523 11.7938L12.3105 8.84686C12.271 8.78356 12.25 8.71042 12.25 8.63578Z" stroke="#44546F" stroke-width="1.5" stroke-linejoin="round"/>
</svg>
