<svg width="16" height="16" viewBox="0 0 16 16" fill="none" xmlns="http://www.w3.org/2000/svg">
<path d="M3.67494 9.10634L1.4456 12.2646C1.15335 12.6786 1.44944 13.25 1.9562 13.25H14.0438C14.5506 13.25 14.8466 12.6786 14.5544 12.2646L12.3251 9.10634C12.2762 9.03715 12.25 8.95453 12.25 8.86984V5C12.25 2.65279 10.3472 0.75 8 0.75C5.65279 0.75 3.75 2.65279 3.75 5V8.86984C3.75 8.95453 3.72378 9.03715 3.67494 9.10634Z" stroke="#44546F" stroke-width="1.5" stroke-linejoin="round"/>
<path d="M10 13.25H6C6 14.3546 6.89543 15.25 8 15.25C9.10457 15.25 10 14.3546 10 13.25Z" fill="#44546F" stroke="#44546F" stroke-width="1.5" stroke-linejoin="round"/>
</svg>
