<svg width="16" height="16" viewBox="0 0 16 16" fill="none" xmlns="http://www.w3.org/2000/svg">
<path fill-rule="evenodd" clip-rule="evenodd" d="M3 5C3 2.23858 5.23858 0 8 0C10.7614 0 13 2.23858 13 5V8.5349L14.7883 11.3963C15.3607 12.3121 14.7023 13.5 13.6223 13.5H11.163C10.8245 14.9333 9.53679 16 8 16C6.46321 16 5.17555 14.9333 4.83697 13.5H2.37766C1.29768 13.5 0.639273 12.3121 1.21166 11.3963L3 8.5349V5ZM6.41841 13.5C6.69928 14.0912 7.3019 14.5 8 14.5C8.6981 14.5 9.30073 14.0912 9.58159 13.5H6.41841ZM8 1.5C6.06701 1.5 4.5 3.067 4.5 5V8.63578C4.5 8.85099 4.43952 9.06186 4.32546 9.24436L2.60319 12H13.3968L11.6745 9.24436C11.5605 9.06186 11.5 8.85099 11.5 8.63578V5C11.5 3.067 9.933 1.5 8 1.5Z" fill="#44546F"/>
</svg>
