<svg width="16" height="16" viewBox="0 0 16 16" fill="none" xmlns="http://www.w3.org/2000/svg">
<path d="M12.2499 8.5V5C12.2499 2.65279 10.3471 0.75 7.99989 0.75C7.01743 0.75 6.11283 1.08336 5.39304 1.64314M12.7499 12.75H10.4999M12.7499 12.75L3.89495 3.89505M12.7499 12.75L14.9999 15M10.4999 12.75H5.49989M10.4999 12.75C10.4999 14.1307 9.38061 15.25 7.99989 15.25C6.61918 15.25 5.49989 14.1307 5.49989 12.75M5.49989 12.75H2.37755C1.88665 12.75 1.58737 12.21 1.84755 11.7938L3.68936 8.84686C3.72892 8.78356 3.74989 8.71042 3.74989 8.63578V5C3.74989 4.6178 3.80034 4.24739 3.89495 3.89505M0.999893 1L3.89495 3.89505" stroke="#44546F" stroke-width="1.5" stroke-linejoin="round"/>
</svg>
