<svg width="16" height="16" viewBox="0 0 16 16" fill="none" xmlns="http://www.w3.org/2000/svg">
<path d="M6.42089 13.5C6.70195 14.0907 7.30227 14.5 7.99999 14.5C8.69771 14.5 9.29803 14.0907 9.57909 13.5H6.42089ZM4.49999 8.63574C4.49999 8.85094 4.43923 9.06165 4.32518 9.24414L2.60253 12H13.3975L11.6748 9.24414C11.5607 9.06165 11.5 8.85094 11.5 8.63574V5C11.5 3.067 9.93299 1.5 7.99999 1.5C6.06699 1.5 4.49999 3.067 4.49999 5V8.63574ZM13 8.53516L14.7881 11.3965C15.3604 12.3123 14.702 13.5 13.6221 13.5H11.1621C10.8234 14.9332 9.53671 16 7.99999 16C6.46327 16 5.17654 14.9332 4.83788 13.5H2.37792C1.29797 13.5 0.639575 12.3123 1.2119 11.3965L2.99999 8.53516V5C2.99999 2.23858 5.23857 0 7.99999 0C10.7614 0 13 2.23858 13 5V8.53516Z" fill="#292A2E"/>
</svg>
