<svg width="16" height="16" viewBox="0 0 16 16" fill="none" xmlns="http://www.w3.org/2000/svg">
<path fill-rule="evenodd" clip-rule="evenodd" d="M4.93261 1.05111C5.77939 0.392573 6.84485 0 7.99989 0C10.7613 0 12.9999 2.23858 12.9999 5V8.5H11.4999V5C11.4999 3.067 9.93289 1.5 7.99989 1.5C7.19001 1.5 6.44628 1.77415 5.85346 2.23518L4.93261 1.05111ZM3.07452 4.13529L0.469563 1.53033L1.53022 0.46967L15.5302 14.4697L14.4696 15.5303L12.4392 13.5H11.1629C10.8243 14.9333 9.53668 16 7.99989 16C6.4631 16 5.17544 14.9333 4.83686 13.5H2.37755C1.29757 13.5 0.639164 12.3121 1.21155 11.3963L2.99989 8.5349V5C2.99989 4.70555 3.02543 4.41657 3.07452 4.13529ZM4.49989 5.56066V8.63578C4.49989 8.85099 4.43941 9.06186 4.32535 9.24436L2.60308 12H10.9392L4.49989 5.56066ZM6.4183 13.5C6.69917 14.0912 7.30179 14.5 7.99989 14.5C8.69799 14.5 9.30062 14.0912 9.58148 13.5H6.4183Z" fill="#44546F"/>
</svg>
