<svg width="16" height="16" viewBox="0 0 16 16" fill="none" xmlns="http://www.w3.org/2000/svg">
<path fill-rule="evenodd" clip-rule="evenodd" d="M13.4223 0.0200782C13.6753 0.0797986 13.8793 0.26625 13.9615 0.512844L14.3429 1.65709L15.4872 2.0385C15.7338 2.1207 15.9202 2.32472 15.9799 2.5777C16.0397 2.83068 15.9641 3.09654 15.7803 3.28035L13.7803 5.28034C13.6397 5.421 13.4489 5.50001 13.25 5.50001H11.5607L8.03033 9.03034L6.96967 7.96968L10.5 4.43935V2.75002C10.5 2.5511 10.579 2.36034 10.7197 2.21968L12.7197 0.219685C12.9035 0.0358843 13.1693 -0.0396423 13.4223 0.0200782ZM12 4.00001H12.9393L13.8616 3.07778L13.5128 2.96153C13.2889 2.88688 13.1131 2.71114 13.0385 2.48719L12.9222 2.13844L12 3.06067V4.00001ZM8 1.50001C4.41015 1.50001 1.5 4.41016 1.5 8.00002C1.5 11.5899 4.41015 14.5 8 14.5C11.5899 14.5 14.5 11.5899 14.5 8.00002H16C16 12.4183 12.4183 16 8 16C3.58172 16 0 12.4183 0 8.00002C0 3.58174 3.58172 1.49224e-05 8 1.49224e-05V1.50001ZM8 5.00001C6.34315 5.00001 5 6.34316 5 8.00002C5 9.65687 6.34315 11 8 11C9.65685 11 11 9.65687 11 8.00002H12.5C12.5 10.4853 10.4853 12.5 8 12.5C5.51472 12.5 3.5 10.4853 3.5 8.00002C3.5 5.51473 5.51472 3.50002 8 3.50002V5.00001Z" fill="#44546F"/>
</svg>
