<svg width="16" height="16" viewBox="0 0 16 16" fill="none" xmlns="http://www.w3.org/2000/svg">
<path fill-rule="evenodd" clip-rule="evenodd" d="M2 2C2 0.895431 2.89543 0 4 0H12C13.1046 0 14 0.89543 14 2V14.5H15V16H1V14.5H2V2ZM3.5 14.5H5.5V10.75C5.5 10.3358 5.83579 10 6.25 10H9.75C10.1642 10 10.5 10.3358 10.5 10.75V14.5H12.5V2C12.5 1.72386 12.2761 1.5 12 1.5H4C3.72386 1.5 3.5 1.72386 3.5 2V14.5ZM9 14.5V11.5H7V14.5H9ZM7 4.5H5V3H7V4.5ZM11 4.5H9V3H11V4.5ZM5 6H7V7.5H5V6ZM9 6H11V7.5H9V6Z" fill="#44546F"/>
</svg>
