<svg width="16" height="16" viewBox="0 0 16 16" fill="none" xmlns="http://www.w3.org/2000/svg">
<path d="M4.25 2L4.37305 2.00977C4.65508 2.05653 4.89014 2.26216 4.9707 2.54395L5.79199 5.41797C5.98228 6.08402 5.76164 6.7997 5.22949 7.24316L3.29102 8.85742C4.26611 10.4087 5.59043 11.7327 7.1416 12.708L8.75684 10.7705C9.2003 10.2384 9.91598 10.0177 10.582 10.208L13.4561 11.0293C13.778 11.1213 14 11.4152 14 11.75V15.25C14 15.6642 13.6642 16 13.25 16C10.984 16 8.82812 15.3907 6.94141 14.3359C4.73814 13.1042 2.8958 11.2619 1.66406 9.05859C0.609314 7.17188 0 5.01601 0 2.75C0 2.33579 0.335786 2 0.75 2H4.25ZM10.1699 11.6504C10.0748 11.6232 9.97253 11.6545 9.90918 11.7305L8.48438 13.4385C9.73427 14.0166 11.0895 14.3793 12.5 14.4746V12.3154L10.1699 11.6504ZM1.52539 3.5C1.62063 4.91009 1.98273 6.26508 2.56055 7.51465L4.26953 6.09082C4.34555 6.02747 4.37678 5.92522 4.34961 5.83008L3.68457 3.5H1.52539Z" fill="#292A2E"/>
<path d="M10 5C10.5523 5 11 5.44772 11 6C11 6.55228 10.5523 7 10 7C9.44772 7 9 6.55228 9 6C9 5.44772 9.44772 5 10 5Z" fill="#292A2E"/>
<path d="M12.5 2.5C13.0523 2.5 13.5 2.94772 13.5 3.5C13.5 4.05228 13.0523 4.5 12.5 4.5C11.9477 4.5 11.5 4.05228 11.5 3.5C11.5 2.94772 11.9477 2.5 12.5 2.5Z" fill="#292A2E"/>
<path d="M15 0C15.5523 0 16 0.447715 16 1C16 1.55228 15.5523 2 15 2C14.4477 2 14 1.55228 14 1C14 0.447715 14.4477 0 15 0Z" fill="#292A2E"/>
</svg>
