<svg width="16" height="16" viewBox="0 0 16 16" fill="none" xmlns="http://www.w3.org/2000/svg">
<path fill-rule="evenodd" clip-rule="evenodd" d="M0 2.75C0 2.33579 0.335786 2 0.75 2H4.25C4.58486 2 4.87915 2.22198 4.97114 2.54396L5.79226 5.41787C5.98256 6.08393 5.76207 6.79955 5.22992 7.24302L3.28978 8.8598C4.2648 10.4106 5.58942 11.7352 7.1402 12.7102L8.75698 10.7701C9.20045 10.2379 9.91607 10.0174 10.5821 10.2077L13.456 11.0289C13.778 11.1209 14 11.4151 14 11.75V15.25C14 15.6642 13.6642 16 13.25 16C10.984 16 8.82808 15.3906 6.94134 14.3359C4.73808 13.1041 2.89588 11.2619 1.66414 9.05865C0.609367 7.17192 0 5.01604 0 2.75ZM8.48445 13.4402C9.73414 14.0181 11.0897 14.3794 12.5 14.4747V12.3157L10.17 11.65C10.0749 11.6228 9.97267 11.6543 9.90931 11.7304L8.48445 13.4402ZM2.5598 7.51555L4.26964 6.09069C4.34566 6.02733 4.37716 5.9251 4.34997 5.82995L3.68427 3.5H1.5253C1.62056 4.91026 1.98186 6.26586 2.5598 7.51555Z" fill="#292A2E"/>
<path d="M16 1C16 1.55228 15.5523 2 15 2C14.4477 2 14 1.55228 14 1C14 0.447715 14.4477 0 15 0C15.5523 0 16 0.447715 16 1Z" fill="#292A2E"/>
<path d="M13.5 3.5C13.5 4.05228 13.0523 4.5 12.5 4.5C11.9477 4.5 11.5 4.05228 11.5 3.5C11.5 2.94772 11.9477 2.5 12.5 2.5C13.0523 2.5 13.5 2.94772 13.5 3.5Z" fill="#292A2E"/>
<path d="M11 6C11 6.55228 10.5523 7 10 7C9.44772 7 9 6.55228 9 6C9 5.44772 9.44772 5 10 5C10.5523 5 11 5.44772 11 6Z" fill="#292A2E"/>
</svg>
