<svg width="16" height="16" viewBox="0 0 16 16" fill="none" xmlns="http://www.w3.org/2000/svg">
<path d="M2.31879 8.69268L4.74978 6.66685C5.05387 6.41344 5.17986 6.00452 5.07112 5.62391L4.25 2.75H0.75C0.75 4.88026 1.3227 6.91092 2.31879 8.69268ZM2.31879 8.69268C3.48284 10.7749 5.22512 12.5172 7.30732 13.6812M7.30732 13.6812C9.08908 14.6773 11.1197 15.25 13.25 15.25V11.75L10.3761 10.9289C9.99548 10.8201 9.58656 10.9461 9.33315 11.2502L7.30732 13.6812Z" stroke="#44546F" stroke-width="1.5" stroke-linejoin="round"/>
<path d="M16 1C16 1.55228 15.5523 2 15 2C14.4477 2 14 1.55228 14 1C14 0.447715 14.4477 0 15 0C15.5523 0 16 0.447715 16 1Z" fill="#44546F"/>
<path d="M13.5 3.5C13.5 4.05228 13.0523 4.5 12.5 4.5C11.9477 4.5 11.5 4.05228 11.5 3.5C11.5 2.94772 11.9477 2.5 12.5 2.5C13.0523 2.5 13.5 2.94772 13.5 3.5Z" fill="#44546F"/>
<path d="M11 6C11 6.55228 10.5523 7 10 7C9.44772 7 9 6.55228 9 6C9 5.44772 9.44772 5 10 5C10.5523 5 11 5.44772 11 6Z" fill="#44546F"/>
</svg>
