<svg width="16" height="16" viewBox="0 0 16 16" fill="none" xmlns="http://www.w3.org/2000/svg">
<path fill-rule="evenodd" clip-rule="evenodd" d="M12.0356 2.90374C9.48405 0.878072 5.76285 1.04476 3.40381 3.40381C0.865398 5.94221 0.865398 10.0578 3.40381 12.5962C4.67316 13.8655 6.33534 14.5 8 14.5V16C5.95378 16 3.9051 15.2188 2.34315 13.6569C-0.781049 10.5327 -0.781049 5.46734 2.34315 2.34315C5.46734 -0.781049 10.5327 -0.781049 13.6569 2.34315L14.1872 2.87348L8.28033 8.78033L7.21967 7.71967L9.52416 5.41518C8.37373 4.73573 6.86713 4.89023 5.87868 5.87868C4.70711 7.05025 4.70711 8.94975 5.87868 10.1213C6.46461 10.7073 7.23107 11 8 11V12.5C6.84951 12.5 5.69655 12.0605 4.81802 11.182C3.06066 9.42462 3.06066 6.57538 4.81802 4.81802C6.39469 3.24135 8.85025 3.07924 10.6077 4.33168L12.0356 2.90374Z" fill="#292A2E"/>
<path fill-rule="evenodd" clip-rule="evenodd" d="M14.5802 4.86173C14.9704 4.72267 15.3994 4.92623 15.5385 5.31641L15.5471 5.34086C15.6849 5.73148 15.48 6.15984 15.0893 6.29763C14.6987 6.43542 14.2703 6.23045 14.1326 5.83983L14.1255 5.81999C13.9865 5.42982 14.19 5.00079 14.5802 4.86173ZM11.7823 7.43497C12.1961 7.45533 12.5149 7.80722 12.4946 8.22093L12.4938 8.23554L12.493 8.25015C12.47 8.66373 12.1161 8.98035 11.7026 8.95735C11.289 8.93435 10.9724 8.58044 10.9954 8.16687L10.9959 8.15704L10.9964 8.14721C11.0167 7.7335 11.3686 7.41462 11.7823 7.43497ZM15.2787 7.61862C15.6924 7.63963 16.0107 7.99203 15.9897 8.40571L15.989 8.41872L15.9883 8.43173C15.966 8.84534 15.6126 9.16253 15.199 9.14019C14.7854 9.11785 14.4682 8.76444 14.4905 8.35083L14.4911 8.34021L14.4916 8.32959C14.5127 7.91591 14.8651 7.5976 15.2787 7.61862ZM11.074 10.275C11.3522 10.5819 11.3288 11.0562 11.0219 11.3344C11.0147 11.3409 11.0075 11.3474 11.0002 11.3539C10.6915 11.6301 10.2174 11.6037 9.94121 11.295C9.66504 10.9863 9.69143 10.5121 10.0001 10.236L10.0146 10.2229C10.3216 9.94477 10.7959 9.9681 11.074 10.275ZM14.8725 10.4341C15.2466 10.612 15.4057 11.0594 15.2278 11.4335L15.2167 11.4569C15.0376 11.8304 14.5896 11.988 14.2161 11.809C13.8426 11.6299 13.685 11.1819 13.8641 10.8084L13.8732 10.7894C14.051 10.4153 14.4985 10.2563 14.8725 10.4341ZM13.4165 12.8772C13.6941 13.1846 13.6701 13.6588 13.3627 13.9365L13.3434 13.9539C13.0351 14.2305 12.561 14.2049 12.2843 13.8966C12.0076 13.5884 12.0332 13.1142 12.3415 12.8375L12.3572 12.8234C12.6646 12.5457 13.1388 12.5698 13.4165 12.8772ZM11.1383 14.5802C11.2774 14.9704 11.0738 15.3994 10.6836 15.5385L10.6592 15.5472C10.2686 15.685 9.84019 15.48 9.7024 15.0894C9.56462 14.6987 9.76958 14.2704 10.1602 14.1326L10.18 14.1256C10.5702 13.9865 10.9992 14.1901 11.1383 14.5802Z" fill="#292A2E"/>
</svg>
