<svg width="16" height="16" viewBox="0 0 16 16" fill="none" xmlns="http://www.w3.org/2000/svg">
<path d="M10.6517 5.34835C9.18718 3.88388 6.81282 3.88388 5.34835 5.34835C3.88388 6.81282 3.88388 9.18718 5.34835 10.6517C6.08058 11.3839 7.04029 11.75 8 11.75M7.75 8.25L13.1265 2.87348C10.2952 0.0421748 5.70478 0.0421748 2.87348 2.87348C0.0421748 5.70478 0.0421748 10.2952 2.87348 13.1265C4.28913 14.5422 6.14456 15.25 8 15.25" stroke="#44546F" stroke-width="1.5"/>
<path fill-rule="evenodd" clip-rule="evenodd" d="M14.5802 4.8617C14.9704 4.72264 15.3994 4.9262 15.5385 5.31638L15.5471 5.34083C15.6849 5.73145 15.48 6.15981 15.0893 6.2976C14.6987 6.43539 14.2703 6.23042 14.1326 5.8398L14.1255 5.81996C13.9865 5.42979 14.19 5.00076 14.5802 4.8617ZM11.7823 7.43494C12.1961 7.4553 12.5149 7.80718 12.4946 8.2209L12.4938 8.23551L12.493 8.25012C12.47 8.6637 12.1161 8.98032 11.7026 8.95732C11.289 8.93432 10.9724 8.58041 10.9954 8.16684L10.9959 8.15701L10.9964 8.14718C11.0167 7.73347 11.3686 7.41459 11.7823 7.43494ZM15.2787 7.61859C15.6924 7.6396 16.0107 7.992 15.9897 8.40568L15.989 8.41869L15.9883 8.4317C15.966 8.84531 15.6126 9.1625 15.199 9.14016C14.7854 9.11782 14.4682 8.76441 14.4905 8.3508L14.4911 8.34018L14.4916 8.32956C14.5127 7.91588 14.8651 7.59757 15.2787 7.61859ZM11.074 10.275C11.3522 10.5819 11.3288 11.0562 11.0219 11.3344C11.0147 11.3409 11.0075 11.3474 11.0002 11.3539C10.6915 11.6301 10.2174 11.6037 9.94121 11.295C9.66504 10.9863 9.69142 10.5121 10.0001 10.2359L10.0146 10.2229C10.3216 9.94474 10.7959 9.96807 11.074 10.275ZM14.8725 10.4341C15.2466 10.612 15.4057 11.0594 15.2278 11.4335L15.2167 11.4569C15.0376 11.8304 14.5896 11.988 14.2161 11.8089C13.8426 11.6298 13.685 11.1819 13.8641 10.8084L13.8732 10.7894C14.051 10.4153 14.4985 10.2562 14.8725 10.4341ZM13.4165 12.8772C13.6941 13.1845 13.6701 13.6588 13.3627 13.9365L13.3434 13.9538C13.0351 14.2305 12.5609 14.2049 12.2843 13.8966C12.0076 13.5883 12.0332 13.1142 12.3415 12.8375L12.3572 12.8234C12.6646 12.5457 13.1388 12.5698 13.4165 12.8772ZM11.1383 14.5802C11.2774 14.9704 11.0738 15.3994 10.6836 15.5385L10.6592 15.5471C10.2685 15.6849 9.84019 15.48 9.7024 15.0893C9.56461 14.6987 9.76958 14.2703 10.1602 14.1326L10.18 14.1255C10.5702 13.9865 10.9992 14.19 11.1383 14.5802Z" fill="#44546F"/>
</svg>
