<svg width="16" height="16" viewBox="0 0 16 16" fill="none" xmlns="http://www.w3.org/2000/svg">
<path d="M10.6517 5.34835C9.18718 3.88388 6.81282 3.88388 5.34835 5.34835C3.88388 6.81282 3.88388 9.18718 5.34835 10.6517C6.08058 11.3839 7.04029 11.75 8 11.75M7.75 8.25L13.1265 2.87348C10.2952 0.0421748 5.70478 0.0421748 2.87348 2.87348C0.0421748 5.70478 0.0421748 10.2952 2.87348 13.1265C4.28913 14.5422 6.14456 15.25 8 15.25" stroke="#44546F" stroke-width="1.5"/>
<path fill-rule="evenodd" clip-rule="evenodd" d="M14.5802 4.8616C14.9704 4.72254 15.3994 4.92611 15.5385 5.31628L15.5471 5.34073C15.6849 5.73136 15.48 6.15972 15.0893 6.29751C14.6987 6.4353 14.2703 6.23033 14.1326 5.83971L14.1255 5.81987C13.9865 5.42969 14.19 5.00066 14.5802 4.8616ZM11.7823 7.43485C12.1961 7.45521 12.5149 7.80709 12.4946 8.22081L12.4938 8.23542L12.493 8.25003C12.47 8.66361 12.1161 8.98023 11.7026 8.95723C11.289 8.93423 10.9724 8.58032 10.9954 8.16674L10.9959 8.15692L10.9964 8.14709C11.0167 7.73338 11.3686 7.4145 11.7823 7.43485ZM15.2787 7.61849C15.6924 7.63951 16.0107 7.9919 15.9897 8.40558L15.989 8.4186L15.9883 8.43161C15.966 8.84522 15.6126 9.16241 15.199 9.14007C14.7854 9.11773 14.4682 8.76432 14.4905 8.35071L14.4911 8.34009L14.4916 8.32947C14.5127 7.91579 14.8651 7.59748 15.2787 7.61849ZM11.074 10.2749C11.3522 10.5818 11.3288 11.0561 11.0219 11.3343C11.0147 11.3408 11.0075 11.3473 11.0002 11.3538C10.6915 11.63 10.2174 11.6036 9.94121 11.2949C9.66504 10.9862 9.69143 10.512 10.0001 10.2359L10.0146 10.2228C10.3216 9.94465 10.7959 9.96798 11.074 10.2749ZM14.8725 10.434C15.2466 10.6119 15.4057 11.0593 15.2278 11.4334L15.2167 11.4568C15.0376 11.8303 14.5896 11.9879 14.2161 11.8088C13.8426 11.6298 13.685 11.1818 13.8641 10.8083L13.8732 10.7893C14.051 10.4152 14.4985 10.2562 14.8725 10.434ZM13.4165 12.8771C13.6941 13.1845 13.6701 13.6587 13.3627 13.9364L13.3434 13.9537C13.0351 14.2304 12.561 14.2048 12.2843 13.8965C12.0076 13.5883 12.0332 13.1141 12.3415 12.8374L12.3572 12.8233C12.6646 12.5456 13.1388 12.5697 13.4165 12.8771ZM11.1383 14.5801C11.2774 14.9703 11.0738 15.3993 10.6836 15.5384L10.6592 15.547C10.2686 15.6848 9.84019 15.4799 9.7024 15.0892C9.56462 14.6986 9.76958 14.2703 10.1602 14.1325L10.18 14.1254C10.5702 13.9864 10.9992 14.1899 11.1383 14.5801Z" fill="#44546F"/>
</svg>
