<svg width="16" height="16" viewBox="0 0 16 16" fill="none" xmlns="http://www.w3.org/2000/svg">
<path d="M10.6517 5.34835C9.18718 3.88388 6.81282 3.88388 5.34835 5.34835C3.88388 6.81282 3.88388 9.18718 5.34835 10.6517C6.08058 11.3839 7.04029 11.75 8 11.75M7.75 8.25L13.1265 2.87348C10.2952 0.0421748 5.70478 0.0421748 2.87348 2.87348C0.0421748 5.70478 0.0421748 10.2952 2.87348 13.1265C4.28913 14.5422 6.14456 15.25 8 15.25" stroke="#44546F" stroke-width="1.5"/>
<path fill-rule="evenodd" clip-rule="evenodd" d="M14.5802 4.86209C14.9704 4.72303 15.3994 4.9266 15.5385 5.31677L15.5471 5.34122C15.6849 5.73185 15.48 6.16021 15.0893 6.298C14.6987 6.43578 14.2703 6.23082 14.1326 5.84019L14.1255 5.82035C13.9865 5.43018 14.19 5.00115 14.5802 4.86209ZM11.7823 7.43534C12.1961 7.4557 12.5149 7.80758 12.4946 8.22129L12.4938 8.23591L12.493 8.25052C12.47 8.6641 12.1161 8.98072 11.7026 8.95772C11.289 8.93472 10.9724 8.58081 10.9954 8.16723L10.9959 8.15741L10.9964 8.14758C11.0167 7.73386 11.3686 7.41498 11.7823 7.43534ZM15.2787 7.61898C15.6924 7.64 16.0107 7.99239 15.9897 8.40607L15.989 8.41908L15.9883 8.4321C15.966 8.84571 15.6126 9.1629 15.199 9.14056C14.7854 9.11822 14.4682 8.76481 14.4905 8.3512L14.4911 8.34058L14.4916 8.32996C14.5127 7.91628 14.8651 7.59797 15.2787 7.61898ZM11.074 10.2754C11.3522 10.5823 11.3288 11.0566 11.0219 11.3348C11.0147 11.3413 11.0075 11.3478 11.0002 11.3543C10.6915 11.6305 10.2174 11.6041 9.94121 11.2954C9.66504 10.9867 9.69142 10.5125 10.0001 10.2363L10.0146 10.2233C10.3216 9.94514 10.7959 9.96846 11.074 10.2754ZM14.8725 10.4345C15.2466 10.6124 15.4057 11.0598 15.2278 11.4339L15.2167 11.4573C15.0376 11.8308 14.5896 11.9884 14.2161 11.8093C13.8426 11.6302 13.685 11.1823 13.8641 10.8088L13.8732 10.7898C14.051 10.4157 14.4985 10.2566 14.8725 10.4345ZM13.4165 12.8776C13.6941 13.1849 13.6701 13.6592 13.3627 13.9369L13.3434 13.9542C13.0351 14.2309 12.5609 14.2053 12.2843 13.897C12.0076 13.5887 12.0332 13.1146 12.3415 12.8379L12.3572 12.8238C12.6646 12.5461 13.1388 12.5702 13.4165 12.8776ZM11.1383 14.5806C11.2774 14.9708 11.0738 15.3998 10.6836 15.5389L10.6592 15.5475C10.2685 15.6853 9.84019 15.4804 9.7024 15.0897C9.56461 14.6991 9.76958 14.2707 10.1602 14.133L10.18 14.1259C10.5702 13.9869 10.9992 14.1904 11.1383 14.5806Z" fill="#44546F"/>
</svg>
