<svg width="16" height="16" viewBox="0 0 16 16" fill="none" xmlns="http://www.w3.org/2000/svg">
<path fill-rule="evenodd" clip-rule="evenodd" d="M1 3C1 1.89543 1.89543 1 3 1H11C12.1046 1 13 1.89543 13 3V11C13 12.1046 12.1046 13 11 13H3C1.89543 13 1 12.1046 1 11V3ZM3 2.5C2.72386 2.5 2.5 2.72386 2.5 3V11C2.5 11.2761 2.72386 11.5 3 11.5H11C11.2761 11.5 11.5 11.2761 11.5 11V3C11.5 2.72386 11.2761 2.5 11 2.5H3ZM4 4H10V5.5H4V4ZM14.5 12.75L14.5 6H16L16 12.75C16 14.5449 14.5449 16 12.75 16H6V14.5H12.75C13.7165 14.5 14.5 13.7165 14.5 12.75ZM4 7H8.5V8.5H4V7Z" fill="#44546F"/>
</svg>
