<svg width="16" height="16" viewBox="0 0 16 16" fill="none" xmlns="http://www.w3.org/2000/svg">
<path d="M5.49907 1.9375L6.77739 0.660156C7.28089 0.156707 8.07816 0.125705 8.61821 0.566406L8.7227 0.660156L14.3389 6.27637C14.8758 6.81333 14.8758 7.68472 14.3389 8.22168L8.60649 13.9531C7.58136 14.9783 5.91873 14.9783 4.8936 13.9531L1.04594 10.1055C0.0208179 9.08034 0.0208182 7.4177 1.04594 6.39258L4.4395 2.99902L2.59477 1.1543L3.65532 0.09375L5.49907 1.9375ZM1.80571 8.49902C1.85109 8.69885 1.95089 8.88932 2.10649 9.04492L5.95415 12.8926C6.39349 13.3319 7.10661 13.3319 7.54594 12.8926L11.9385 8.49902H1.80571ZM6.56059 2.99902L7.78032 4.21875L6.71977 5.2793L5.50005 4.05957L2.56059 6.99902H12.9385L7.74907 1.80957L6.56059 2.99902Z" fill="#292A2E"/>
<path d="M14.25 11.25C14.5182 11.25 14.7665 11.3935 14.9004 11.626L14.9033 11.6318C14.9055 11.6356 14.9091 11.6415 14.9131 11.6484C14.921 11.6623 14.9321 11.6827 14.9463 11.708C14.9749 11.7588 15.016 11.8315 15.0645 11.9199C15.1611 12.0964 15.2905 12.339 15.4209 12.6006C15.5504 12.8603 15.6868 13.1502 15.792 13.418C15.8829 13.6492 16 13.9815 16 14.2754C15.9998 15.2457 15.1984 16 14.25 16C13.3016 16 12.5002 15.2457 12.5 14.2754C12.5 13.9815 12.6171 13.6492 12.708 13.418C12.8132 13.1502 12.9496 12.8603 13.0791 12.6006C13.2095 12.339 13.3389 12.0964 13.4355 11.9199C13.484 11.8315 13.5251 11.7588 13.5537 11.708C13.5679 11.6827 13.579 11.6623 13.5869 11.6484C13.5909 11.6415 13.5945 11.6356 13.5967 11.6318L13.5996 11.626C13.7335 11.3935 13.9818 11.25 14.25 11.25Z" fill="#292A2E"/>
</svg>
