<svg width="16" height="16" viewBox="0 0 16 16" fill="none" xmlns="http://www.w3.org/2000/svg">
<path d="M5.92981 0.272509C10.1974 -0.870785 14.5842 1.66213 15.7277 5.92974C16.8709 10.1973 14.338 14.5841 10.0704 15.7276C10.0384 15.7362 10.0057 15.7429 9.97278 15.7471C9.06461 15.8648 8.25238 15.802 7.68371 15.3086C7.10998 14.8109 7.01103 14.0691 7.0011 13.459C6.99005 12.7871 6.69219 12.3076 6.28039 12.0333C5.8617 11.7544 5.26456 11.649 4.59875 11.8643C3.59344 12.1896 2.66828 12.3221 1.88196 12.0215C1.04531 11.7015 0.573658 10.9797 0.285276 10.1133C0.280578 10.0992 0.276431 10.0847 0.272581 10.0704C-0.870904 5.80266 1.6621 1.41604 5.92981 0.272509ZM14.2784 6.31743C13.3493 2.84999 9.78499 0.792619 6.3175 1.72173C2.85802 2.64882 0.802559 6.19829 1.71594 9.65825C1.93443 10.3048 2.1804 10.5296 2.41711 10.6202C2.70644 10.7308 3.21295 10.7365 4.13684 10.4375C5.19843 10.0941 6.27792 10.2293 7.11145 10.7842C7.95174 11.3438 8.48237 12.2913 8.5011 13.4346C8.50998 13.9803 8.6131 14.129 8.66711 14.1758C8.7255 14.2263 8.95849 14.3571 9.73059 14.2637C13.1687 13.3144 15.2032 9.7687 14.2784 6.31743Z" fill="#292A2E"/>
<path d="M10.8719 5.67732C11.472 5.51664 12.089 5.87313 12.2498 6.47322C12.4105 7.07331 12.054 7.69035 11.4539 7.85115C10.8538 8.01181 10.2368 7.65533 10.076 7.05525C9.91535 6.45517 10.2718 5.83811 10.8719 5.67732Z" fill="#292A2E"/>
<path d="M4.38166 5.60505C4.98169 5.44427 5.59863 5.80004 5.75959 6.39997C5.9204 7.00012 5.56384 7.61709 4.96369 7.7779C4.36378 7.93846 3.74768 7.58278 3.58674 6.98298C3.42594 6.38289 3.78161 5.76593 4.38166 5.60505Z" fill="#292A2E"/>
<path d="M7.68049 3.42732C8.28061 3.26652 8.89757 3.62215 9.05842 4.22224C9.21923 4.82239 8.86267 5.43936 8.26252 5.60017C7.66246 5.7608 7.04537 5.40433 6.88459 4.80427C6.72412 4.20432 7.08057 3.58813 7.68049 3.42732Z" fill="#292A2E"/>
</svg>
