<svg width="16" height="16" viewBox="0 0 16 16" fill="none" xmlns="http://www.w3.org/2000/svg">
<path d="M5.93176 0.274463C10.1994 -0.868832 14.5861 1.66408 15.7296 5.93169C16.8729 10.1993 14.34 14.586 10.0724 15.7295C10.0403 15.7381 10.0076 15.7448 9.97473 15.7491C9.06656 15.8668 8.25433 15.8039 7.68567 15.3106C7.11194 14.8128 7.01298 14.0711 7.00305 13.461C6.992 12.7891 6.69414 12.3095 6.28235 12.0352C5.86365 11.7564 5.26652 11.6509 4.60071 11.8663C3.5954 12.1915 2.67023 12.324 1.88391 12.0235C1.04727 11.7035 0.575612 10.9817 0.287229 10.1153C0.282531 10.1012 0.278384 10.0867 0.274534 10.0723C-0.868951 5.80461 1.66406 1.41799 5.93176 0.274463ZM14.2804 6.31938C13.3512 2.85194 9.78694 0.794572 6.31946 1.72368C2.85997 2.65077 0.804513 6.20024 1.71789 9.6602C1.93639 10.3067 2.18235 10.5315 2.41907 10.6221C2.70839 10.7328 3.2149 10.7384 4.13879 10.4395C5.20038 10.0961 6.27987 10.2312 7.1134 10.7862C7.9537 11.3457 8.48433 12.2933 8.50305 13.4366C8.51193 13.9823 8.61506 14.1309 8.66907 14.1778C8.72746 14.2282 8.96044 14.3591 9.73254 14.2657C13.1706 13.3164 15.2052 9.77065 14.2804 6.31938Z" fill="#292A2E"/>
<path d="M10.8738 5.67927C11.4739 5.5186 12.091 5.87509 12.2518 6.47517C12.4125 7.07527 12.056 7.69231 11.4559 7.8531C10.8558 8.01377 10.2387 7.65728 10.0779 7.0572C9.9173 6.45713 10.2738 5.84006 10.8738 5.67927Z" fill="#292A2E"/>
<path d="M4.38361 5.60701C4.98364 5.44623 5.60059 5.80199 5.76154 6.40193C5.92235 7.00208 5.56579 7.61905 4.96564 7.77986C4.36573 7.94041 3.74963 7.58474 3.58869 6.98494C3.4279 6.38484 3.78356 5.76789 4.38361 5.60701Z" fill="#292A2E"/>
<path d="M7.68244 3.42927C8.28256 3.26847 8.89952 3.6241 9.06037 4.22419C9.22118 4.82434 8.86462 5.44131 8.26447 5.60212C7.66441 5.76275 7.04733 5.40628 6.88654 4.80622C6.72608 4.20627 7.08252 3.59008 7.68244 3.42927Z" fill="#292A2E"/>
</svg>
