<svg width="16" height="16" viewBox="0 0 16 16" fill="none" xmlns="http://www.w3.org/2000/svg">
<path d="M6.1235 0.997044C2.25587 2.03337 -0.0393494 6.00881 0.996979 9.87644C1.50548 11.4043 2.43805 11.7754 4.36747 11.1511C6.09518 10.5921 7.72131 11.6316 7.75087 13.4473C7.76968 14.6031 8.15533 15.226 9.87638 15.003C13.744 13.9666 16.0392 9.9912 15.0029 6.12357C13.9666 2.25594 9.99113 -0.0392845 6.1235 0.997044Z" stroke="#44546F" stroke-width="1.5" stroke-linejoin="round"/>
<path d="M8.26288 5.60019C7.66273 5.761 7.04585 5.40484 6.88504 4.8047C6.72423 4.20455 7.08039 3.58767 7.68054 3.42686C8.28069 3.26605 8.89756 3.6222 9.05837 4.22235C9.21918 4.8225 8.86303 5.43938 8.26288 5.60019Z" fill="#44546F"/>
<path d="M11.4542 7.85092C10.854 8.01173 10.2371 7.65557 10.0763 7.05543C9.9155 6.45528 10.2717 5.8384 10.8718 5.67759C11.472 5.51678 12.0888 5.87293 12.2496 6.47308C12.4105 7.07323 12.0543 7.69011 11.4542 7.85092Z" fill="#44546F"/>
<path d="M4.96418 7.77817C4.36403 7.93898 3.74715 7.58282 3.58634 6.98267C3.42553 6.38252 3.78169 5.76565 4.38184 5.60484C4.98199 5.44403 5.59887 5.80018 5.75968 6.40033C5.92048 7.00048 5.56433 7.61736 4.96418 7.77817Z" fill="#44546F"/>
</svg>
