<svg width="16" height="16" viewBox="0 0 16 16" fill="none" xmlns="http://www.w3.org/2000/svg">
<path d="M6.1235 0.997044C2.25587 2.03337 -0.0393494 6.00881 0.996979 9.87644C1.50548 11.4043 2.43805 11.7754 4.36747 11.1511C6.09518 10.5921 7.72131 11.6316 7.75087 13.4473C7.76968 14.6031 8.15533 15.226 9.87638 15.003C13.744 13.9666 16.0392 9.9912 15.0029 6.12357C13.9666 2.25594 9.99113 -0.0392845 6.1235 0.997044Z" stroke="#44546F" stroke-width="1.5" stroke-linejoin="round"/>
<path d="M8.26288 5.60013C7.66273 5.76094 7.04585 5.40478 6.88504 4.80463C6.72423 4.20448 7.08039 3.58761 7.68054 3.4268C8.28069 3.26599 8.89756 3.62214 9.05837 4.22229C9.21918 4.82244 8.86303 5.43932 8.26288 5.60013Z" fill="#44546F"/>
<path d="M11.4542 7.85086C10.854 8.01167 10.2371 7.65551 10.0763 7.05536C9.9155 6.45521 10.2717 5.83834 10.8718 5.67753C11.472 5.51672 12.0888 5.87287 12.2496 6.47302C12.4105 7.07317 12.0543 7.69005 11.4542 7.85086Z" fill="#44546F"/>
<path d="M4.96418 7.77811C4.36403 7.93892 3.74715 7.58276 3.58634 6.98261C3.42553 6.38246 3.78169 5.76558 4.38184 5.60477C4.98199 5.44397 5.59887 5.80012 5.75968 6.40027C5.92048 7.00042 5.56433 7.6173 4.96418 7.77811Z" fill="#44546F"/>
</svg>
