<svg width="16" height="16" viewBox="0 0 16 16" fill="none" xmlns="http://www.w3.org/2000/svg">
<path fill-rule="evenodd" clip-rule="evenodd" d="M5.65533 0.0946732L13.7803 8.21967C14.0732 8.51257 14.0732 8.98744 13.7803 9.28033L8.16422 14.8964C7.38317 15.6775 6.11684 15.6775 5.33579 14.8964L0.603555 10.1642C-0.177494 9.38317 -0.177493 8.11684 0.603556 7.33579L5.68934 2.25L4.59467 1.15533L5.65533 0.0946732ZM6.75 3.31066L2.06066 8H11.4393L6.75 3.31066ZM11.4393 9.5H2.06066L6.39645 13.8358C6.59171 14.0311 6.90829 14.0311 7.10355 13.8358L11.4393 9.5Z" fill="#292A2E"/>
<path d="M14.5 12C14.2288 12 13.9788 12.1464 13.846 12.3828L13.8451 12.3845L13.8431 12.3881L13.836 12.4008L13.8104 12.4471C13.7887 12.4867 13.7579 12.5432 13.7212 12.612C13.648 12.7491 13.5496 12.9378 13.4505 13.1418C13.3524 13.3436 13.2482 13.5712 13.1669 13.7834C13.0991 13.9602 13 14.241 13 14.5C13 15.3284 13.6716 16 14.5 16C15.3284 16 16 15.3284 16 14.5C16 14.241 15.9009 13.9602 15.8332 13.7834C15.7518 13.5712 15.6476 13.3436 15.5495 13.1418C15.4504 12.9378 15.352 12.7491 15.2788 12.612C15.2421 12.5432 15.2113 12.4867 15.1896 12.4471L15.164 12.4008L15.1569 12.3881L15.1549 12.3845L15.154 12.3828C15.0212 12.1464 14.7712 12 14.5 12Z" fill="#292A2E"/>
</svg>
