<svg width="16" height="16" viewBox="0 0 16 16" fill="none" xmlns="http://www.w3.org/2000/svg">
<path fill-rule="evenodd" clip-rule="evenodd" d="M5.65533 0.0947266L13.7803 8.21973C14.0732 8.51262 14.0732 8.98749 13.7803 9.28039L8.16421 14.8965C7.38316 15.6776 6.11683 15.6776 5.33579 14.8965L0.603553 10.1643C-0.177496 9.38322 -0.177494 8.11689 0.603554 7.33584L5.68934 2.25006L4.59467 1.15539L5.65533 0.0947266ZM6.75 3.31072L2.06066 8.00006H11.4393L6.75 3.31072ZM11.4393 9.50006H2.06066L6.39645 13.8358C6.59171 14.0311 6.90829 14.0311 7.10355 13.8358L11.4393 9.50006Z" fill="#292A2E"/>
<path d="M14.5 12.0001C14.2288 12.0001 13.9788 12.1464 13.846 12.3829L13.8451 12.3845L13.8431 12.3881L13.836 12.4008L13.8104 12.4472C13.7887 12.4868 13.7579 12.5432 13.7212 12.612C13.648 12.7491 13.5496 12.9379 13.4505 13.1418C13.3524 13.3436 13.2482 13.5712 13.1669 13.7835C13.0991 13.9603 13 14.241 13 14.5001C13 15.3285 13.6716 16.0001 14.5 16.0001C15.3284 16.0001 16 15.3285 16 14.5001C16 14.241 15.9009 13.9603 15.8331 13.7835C15.7518 13.5712 15.6476 13.3436 15.5495 13.1418C15.4504 12.9379 15.352 12.7491 15.2788 12.612C15.2421 12.5432 15.2113 12.4868 15.1896 12.4472L15.164 12.4008L15.1569 12.3881L15.1549 12.3845L15.154 12.3829C15.0212 12.1464 14.7712 12.0001 14.5 12.0001Z" fill="#292A2E"/>
</svg>
