<svg width="16" height="16" viewBox="0 0 16 16" fill="none" xmlns="http://www.w3.org/2000/svg">
<path fill-rule="evenodd" clip-rule="evenodd" d="M14.2785 6.31771C13.3493 2.85018 9.78514 0.792393 6.31761 1.72151C2.85736 2.64869 0.800939 6.19987 1.7156 9.66052C1.93401 10.3058 2.18075 10.5299 2.4173 10.6203C2.70663 10.731 3.21268 10.7365 4.13657 10.4376C5.19831 10.094 6.27806 10.2294 7.11166 10.7845C7.95204 11.3441 8.48215 12.2917 8.50076 13.4351C8.50964 13.9808 8.61275 14.1289 8.66676 14.1757C8.72465 14.2259 8.95729 14.359 9.73058 14.2654C13.1689 13.3163 15.2032 9.7691 14.2785 6.31771ZM5.92938 0.272626C10.1971 -0.870909 14.5838 1.66175 15.7273 5.92948C16.8709 10.1972 14.3382 14.5839 10.0705 15.7274C10.0384 15.736 10.0057 15.7425 9.97277 15.7468C9.06457 15.8645 8.25248 15.8021 7.68379 15.3088C7.11001 14.811 7.01089 14.0697 7.00096 13.4595C6.99002 12.7873 6.69228 12.3073 6.28028 12.033C5.8615 11.7541 5.26433 11.6492 4.59836 11.8647C3.59282 12.1901 2.66788 12.3221 1.88145 12.0214C1.04477 11.7013 0.57373 10.9798 0.285352 10.1133C0.280654 10.0992 0.276377 10.085 0.272527 10.0706C-0.871008 5.80286 1.66165 1.41616 5.92938 0.272626Z" fill="#44546F"/>
<path d="M8.26287 5.60022C7.66272 5.76103 7.04584 5.40487 6.88503 4.80472C6.72422 4.20457 7.08038 3.58769 7.68053 3.42688C8.28068 3.26607 8.89756 3.62223 9.05837 4.22238C9.21918 4.82253 8.86302 5.43941 8.26287 5.60022Z" fill="#44546F"/>
<path d="M11.4541 7.85095C10.854 8.01176 10.2371 7.6556 10.0763 7.05545C9.9155 6.4553 10.2717 5.83842 10.8718 5.67761C11.4719 5.5168 12.0888 5.87296 12.2496 6.47311C12.4104 7.07326 12.0543 7.69014 11.4541 7.85095Z" fill="#44546F"/>
<path d="M4.96417 7.7782C4.36402 7.939 3.74714 7.58285 3.58633 6.9827C3.42553 6.38255 3.78168 5.76567 4.38183 5.60486C4.98198 5.44405 5.59886 5.80021 5.75967 6.40036C5.92048 7.00051 5.56432 7.61739 4.96417 7.7782Z" fill="#44546F"/>
</svg>
