<svg width="16" height="16" viewBox="0 0 16 16" fill="none" xmlns="http://www.w3.org/2000/svg">
<path fill-rule="evenodd" clip-rule="evenodd" d="M0.719772 0.71965C0.910485 0.528936 1.18921 0.454775 1.44926 0.52629L10.6172 3.04777C11.4179 3.26795 11.9994 3.96041 12.0782 4.78703L12.3721 7.87004C13.0667 7.6408 13.8616 7.80096 14.4141 8.35344L15.7803 9.71965C16.0732 10.0125 16.0732 10.4873 15.7803 10.7802L10.7803 15.7802C10.4874 16.0731 10.0127 16.0731 9.71977 15.7802L8.35356 14.414C7.80108 13.8614 7.64092 13.0666 7.87016 12.372L4.78715 12.078C3.96053 11.9993 3.26807 11.4178 3.0479 10.6171L0.526412 1.44914C0.454897 1.18909 0.529058 0.910363 0.719772 0.71965ZM13.3536 9.41399C13.1583 9.21885 12.8418 9.21885 12.6465 9.41399L9.41411 12.6464C9.21897 12.8416 9.21897 13.1582 9.41411 13.3534L10.25 14.1894L14.1895 10.2499L13.3536 9.41399ZM6.63579 5.57512C6.79021 5.52641 6.95453 5.49992 7.12505 5.49992C8.02251 5.49992 8.75004 6.22746 8.75004 7.12492C8.75004 8.02239 8.02251 8.74992 7.12505 8.74992C6.22758 8.74992 5.50005 8.02239 5.50005 7.12492C5.50005 7.01284 5.51164 6.90347 5.53325 6.79777C5.54454 6.74268 5.55853 6.68859 5.57524 6.63567L2.72465 3.78508L4.49419 10.2196C4.54923 10.4198 4.72308 10.5652 4.92973 10.5849L8.96977 10.9687L10.9688 8.96965L10.585 4.92961C10.5653 4.72295 10.4199 4.54911 10.2198 4.49406L3.7852 2.72453L6.63579 5.57512Z" fill="#292A2E"/>
</svg>
