<svg width="16" height="16" viewBox="0 0 16 16" fill="none" xmlns="http://www.w3.org/2000/svg">
<path d="M0.75 0.75L6.61612 6.61612M0.75 0.75L10.7107 3.29809C11.1905 3.42082 11.5525 3.81516 11.6339 4.3036L12.5 9.5M0.75 0.75L3.29809 10.7107C3.42082 11.1905 3.81516 11.5525 4.3036 11.6339L9.5 12.5M12.5 9.5L9.5 12.5M12.5 9.5L13.25 8.75L15.25 10.75L10.75 15.25L8.75 13.25L9.5 12.5M8.75 7.5C8.75 8.19036 8.19036 8.75 7.5 8.75C6.80964 8.75 6.25 8.19036 6.25 7.5C6.25 6.80964 6.80964 6.25 7.5 6.25C8.19036 6.25 8.75 6.80964 8.75 7.5Z" stroke="#44546F" stroke-width="1.5" stroke-linejoin="round"/>
</svg>
