<svg width="16" height="16" viewBox="0 0 16 16" fill="none" xmlns="http://www.w3.org/2000/svg">
<path fill-rule="evenodd" clip-rule="evenodd" d="M0.219669 0.219686C0.406988 0.0323675 0.67923 -0.0422389 0.935874 0.0234143L10.8966 2.57151C11.6642 2.76786 12.2435 3.39881 12.3737 4.18032L13.0165 8.03711C13.2765 7.9522 13.5737 8.01306 13.7803 8.21969L15.7803 10.2197C16.0732 10.5126 16.0732 10.9875 15.7803 11.2803L11.2803 15.7803C10.9874 16.0732 10.5126 16.0732 10.2197 15.7803L8.21967 13.7803C8.01304 13.5737 7.95218 13.2765 8.0371 13.0165L4.1803 12.3737C3.39879 12.2435 2.76785 11.6642 2.57149 10.8966L0.0233971 0.935891C-0.042256 0.679247 0.0323504 0.407005 0.219669 0.219686ZM9.81066 13.25L10.75 14.1894L14.1893 10.75L13.25 9.81068L9.81066 13.25ZM11.6968 9.2426L9.24259 11.6968L4.4269 10.8942C4.23152 10.8616 4.07378 10.7168 4.0247 10.5249L2.15487 3.21554L5.65826 6.71894C5.55637 6.95891 5.5 7.22288 5.5 7.50002C5.5 8.60459 6.39543 9.50002 7.5 9.50002C8.60457 9.50002 9.5 8.60459 9.5 7.50002C9.5 6.39545 8.60457 5.50002 7.5 5.50002C7.22286 5.50002 6.95889 5.55638 6.71892 5.65828L3.21553 2.15488L10.5249 4.02471C10.7167 4.0738 10.8616 4.23154 10.8941 4.42691L11.6968 9.2426ZM8 7.50002C8 7.22387 7.77614 7.00002 7.5 7.00002C7.22386 7.00002 7 7.22387 7 7.50002C7 7.77616 7.22386 8.00002 7.5 8.00002C7.77614 8.00002 8 7.77616 8 7.50002Z" fill="#44546F"/>
</svg>
