<svg width="16" height="16" viewBox="0 0 16 16" fill="none" xmlns="http://www.w3.org/2000/svg">
<path d="M0.219758 0.219636C0.407004 0.0323896 0.679021 -0.0421725 0.935578 0.0233465L10.8965 2.5712L11.0381 2.61319C11.7348 2.84712 12.2519 3.44785 12.3741 4.18057L13.0166 8.03897C13.2767 7.95381 13.5735 8.01287 13.7803 8.21964L15.7803 10.2196C16.0732 10.5125 16.0732 10.9873 15.7803 11.2802L11.2803 15.7802C10.9874 16.0731 10.5127 16.0731 10.2198 15.7802L8.21976 13.7802C8.01299 13.5734 7.95393 13.2766 8.03909 13.0165L4.1807 12.3739C3.44797 12.2518 2.84724 11.7347 2.61331 11.038L2.57132 10.8964L0.0234686 0.935456C-0.0420504 0.678899 0.0325116 0.406882 0.219758 0.219636ZM9.81058 13.2499L10.75 14.1894L14.1895 10.7499L13.25 9.81046L9.81058 13.2499ZM8.00003 7.49991C8.00003 7.22377 7.77617 6.99991 7.50003 6.99991C7.22389 6.99991 7.00003 7.22377 7.00003 7.49991C7.00003 7.77605 7.22389 7.99991 7.50003 7.99991C7.77617 7.99991 8.00003 7.77605 8.00003 7.49991ZM9.50003 7.49991C9.50003 8.60448 8.6046 9.49991 7.50003 9.49991C6.39546 9.49991 5.50003 8.60448 5.50003 7.49991C5.50003 7.22272 5.5563 6.95866 5.65823 6.71866L2.15433 3.21475L4.02445 10.5243L4.04788 10.5946C4.11365 10.7513 4.25592 10.8659 4.42679 10.8944L9.24222 11.6962L11.6963 9.2421L10.8946 4.42667C10.8661 4.25579 10.7514 4.11352 10.5948 4.04776L10.5244 4.02432L3.21487 2.15421L6.71878 5.65811C6.95878 5.55618 7.22285 5.49991 7.50003 5.49991C8.6046 5.49991 9.50003 6.39534 9.50003 7.49991Z" fill="#44546F"/>
</svg>
