<svg width="16" height="16" viewBox="0 0 16 16" fill="none" xmlns="http://www.w3.org/2000/svg">
<path d="M5 9.75H2.62509C1.58952 9.75 0.750041 10.5896 0.750078 11.6251L0.750112 13M15.25 14V12.5C15.25 10.9812 14.0188 9.75 12.5 9.75H9.5C7.98122 9.75 6.75 10.9812 6.75 12.5V14M13.75 4.5C13.75 6.01878 12.5188 7.25 11 7.25C9.48122 7.25 8.25 6.01878 8.25 4.5C8.25 2.98122 9.48122 1.75 11 1.75C12.5188 1.75 13.75 2.98122 13.75 4.5ZM5.75 5.5C5.75 6.4665 4.9665 7.25 4 7.25C3.0335 7.25 2.25 6.4665 2.25 5.5C2.25 4.5335 3.0335 3.75 4 3.75C4.9665 3.75 5.75 4.5335 5.75 5.5Z" stroke="#44546F" stroke-width="1.5" stroke-linejoin="round"/>
</svg>
