<svg width="16" height="16" viewBox="0 0 16 16" fill="none" xmlns="http://www.w3.org/2000/svg">
<path fill-rule="evenodd" clip-rule="evenodd" d="M9.00016 4.5C9.00016 3.39543 9.89559 2.5 11.0002 2.5C12.1047 2.5 13.0002 3.39543 13.0002 4.5C13.0002 5.60457 12.1047 6.5 11.0002 6.5C9.89559 6.5 9.00016 5.60457 9.00016 4.5ZM11.0002 1C9.06716 1 7.50016 2.567 7.50016 4.5C7.50016 6.433 9.06716 8 11.0002 8C12.9332 8 14.5002 6.433 14.5002 4.5C14.5002 2.567 12.9332 1 11.0002 1ZM3.00016 5.5C3.00016 4.94772 3.44788 4.5 4.00016 4.5C4.55245 4.5 5.00016 4.94772 5.00016 5.5C5.00016 6.05228 4.55245 6.5 4.00016 6.5C3.44788 6.5 3.00016 6.05228 3.00016 5.5ZM4.00016 3C2.61945 3 1.50017 4.11929 1.50017 5.5C1.50017 6.88071 2.61945 8 4.00016 8C5.38088 8 6.50016 6.88071 6.50016 5.5C6.50016 4.11929 5.38088 3 4.00016 3ZM2.62525 9C1.17543 9 0.000192406 10.1754 0.000244142 11.6252L0.000278117 13H1.50028L1.50024 11.6251C1.50022 11.0037 2.00395 10.5 2.62525 10.5H5.00016V9H2.62525ZM6.00016 12.5C6.00016 10.567 7.56717 9 9.50016 9H12.5002C14.4332 9 16.0002 10.567 16.0002 12.5V14H14.5002V12.5C14.5002 11.3954 13.6047 10.5 12.5002 10.5H9.50016C8.39559 10.5 7.50016 11.3954 7.50016 12.5V14H6.00016V12.5Z" fill="#292A2E"/>
</svg>
