<svg width="16" height="16" viewBox="0 0 16 16" fill="none" xmlns="http://www.w3.org/2000/svg">
<path fill-rule="evenodd" clip-rule="evenodd" d="M8 1.5C6.61929 1.5 5.5 2.61929 5.5 4C5.5 5.38071 6.61929 6.5 8 6.5C9.38071 6.5 10.5 5.38071 10.5 4C10.5 2.61929 9.38071 1.5 8 1.5ZM4 4C4 1.79086 5.79086 0 8 0C10.2091 0 12 1.79086 12 4C12 6.20914 10.2091 8 8 8C5.79086 8 4 6.20914 4 4ZM2 13C2 10.9289 3.67893 9.25 5.75 9.25H10.25C12.3211 9.25 14 10.9289 14 13V15H12.5V13C12.5 11.7574 11.4926 10.75 10.25 10.75H5.75C4.50736 10.75 3.5 11.7574 3.5 13V15H2V13Z" fill="#292A2E"/>
</svg>
