<svg width="16" height="16" viewBox="0 0 16 16" fill="none" xmlns="http://www.w3.org/2000/svg">
<path fill-rule="evenodd" clip-rule="evenodd" d="M5 1.5C3.61929 1.5 2.5 2.61929 2.5 4C2.5 5.38071 3.61929 6.5 5 6.5C6.38071 6.5 7.5 5.38071 7.5 4C7.5 2.61929 6.38071 1.5 5 1.5ZM1 4C1 1.79086 2.79086 0 5 0C7.20914 0 9 1.79086 9 4C9 6.20914 7.20914 8 5 8C2.79086 8 1 6.20914 1 4ZM15.8765 6.03033L11.8765 10.0303C11.5875 10.3193 11.1204 10.3237 10.826 10.0402L8.97981 8.26246L10.0203 7.18198L11.3363 8.44925L14.8158 4.96967L15.8765 6.03033ZM3.75 10.5C2.50736 10.5 1.5 11.5074 1.5 12.75V15H0V12.75C0 10.6789 1.67893 9 3.75 9H6.27027C8.34134 9 10.0203 10.6789 10.0203 12.75V15H8.52027V12.75C8.52027 11.5074 7.51291 10.5 6.27027 10.5H3.75Z" fill="#44546F"/>
</svg>
