<svg width="16" height="16" viewBox="0 0 16 16" fill="none" xmlns="http://www.w3.org/2000/svg">
<path fill-rule="evenodd" clip-rule="evenodd" d="M8 1.5C4.41015 1.5 1.5 4.41015 1.5 8C1.5 10.0124 2.4143 11.8119 3.85214 13.0049C4.177 11.8481 5.23945 11 6.5 11H9.5C10.7605 11 11.823 11.8481 12.1479 13.0049C13.5857 11.8119 14.5 10.0124 14.5 8C14.5 4.41015 11.5899 1.5 8 1.5ZM10.75 13.8915V13.75C10.75 13.0596 10.1904 12.5 9.5 12.5H6.5C5.80964 12.5 5.25 13.0596 5.25 13.75V13.8915C5.27017 13.9009 5.2904 13.9103 5.31068 13.9195C6.12929 14.2921 7.03935 14.5 8 14.5C8.96065 14.5 9.87071 14.2921 10.6893 13.9195C10.7096 13.9103 10.7298 13.9009 10.75 13.8915ZM0 8C0 3.58172 3.58172 0 8 0C12.4183 0 16 3.58172 16 8C16 11.0187 14.3277 13.6458 11.8626 15.0073C11.6828 15.1066 11.4987 15.1992 11.3107 15.2848C10.3009 15.7444 9.17926 16 8 16C6.82074 16 5.69914 15.7444 4.68932 15.2848C4.50132 15.1992 4.31723 15.1066 4.13741 15.0073C1.67228 13.6458 0 11.0187 0 8ZM8 4.5C6.89543 4.5 6 5.39543 6 6.5C6 7.60457 6.89543 8.5 8 8.5C9.10457 8.5 10 7.60457 10 6.5C10 5.39543 9.10457 4.5 8 4.5ZM4.5 6.5C4.5 4.567 6.067 3 8 3C9.933 3 11.5 4.567 11.5 6.5C11.5 8.433 9.933 10 8 10C6.067 10 4.5 8.433 4.5 6.5Z" fill="#292A2E"/>
</svg>
