<svg width="16" height="16" viewBox="0 0 16 16" fill="none" xmlns="http://www.w3.org/2000/svg">
<path fill-rule="evenodd" clip-rule="evenodd" d="M5 1.5C3.61929 1.5 2.5 2.61929 2.5 4C2.5 5.38071 3.61929 6.5 5 6.5C6.38071 6.5 7.5 5.38071 7.5 4C7.5 2.61929 6.38071 1.5 5 1.5ZM1 4C1 1.79086 2.79086 0 5 0C7.20914 0 9 1.79086 9 4C9 6.20914 7.20914 8 5 8C2.79086 8 1 6.20914 1 4ZM12.2803 3.96967L15.7803 7.46967C16.0732 7.76256 16.0732 8.23744 15.7803 8.53033L12.2803 12.0303L11.2197 10.9697L13.4393 8.75H9V7.25H13.4393L11.2197 5.03033L12.2803 3.96967ZM3.75 10.5C2.50736 10.5 1.5 11.5074 1.5 12.75V15H0V12.75C0 10.6789 1.67893 9 3.75 9H6.25C8.32107 9 10 10.6789 10 12.75V15H8.5V12.75C8.5 11.5074 7.49264 10.5 6.25 10.5H3.75Z" fill="#292A2E"/>
</svg>
