<svg width="16" height="16" viewBox="0 0 16 16" fill="none" xmlns="http://www.w3.org/2000/svg">
<path fill-rule="evenodd" clip-rule="evenodd" d="M6 1.5C4.61929 1.5 3.5 2.61929 3.5 4C3.5 5.38071 4.61929 6.5 6 6.5C7.38071 6.5 8.5 5.38071 8.5 4C8.5 2.61929 7.38071 1.5 6 1.5ZM2 4C2 1.79086 3.79086 0 6 0C8.20914 0 10 1.79086 10 4C10 6.20914 8.20914 8 6 8C3.79086 8 2 6.20914 2 4ZM13.5 8.5V3.5H15V8.5H13.5ZM4.75 10.5C3.50736 10.5 2.5 11.5074 2.5 12.75V15H1V12.75C1 10.6789 2.67893 9 4.75 9H7.25C9.32107 9 11 10.6789 11 12.75V15H9.5V12.75C9.5 11.5074 8.49264 10.5 7.25 10.5H4.75Z" fill="#44546F"/>
<path d="M15.25 11C15.25 11.5523 14.8023 12 14.25 12C13.6977 12 13.25 11.5523 13.25 11C13.25 10.4477 13.6977 10 14.25 10C14.8023 10 15.25 10.4477 15.25 11Z" fill="#44546F"/>
</svg>
