<svg width="16" height="16" viewBox="0 0 16 16" fill="none" xmlns="http://www.w3.org/2000/svg">
<path d="M8 0.75C3.99594 0.75 0.75 3.99594 0.75 8C0.75 12.0041 3.99593 15.25 8 15.25C12.0041 15.25 15.25 12.0041 15.25 8C15.25 3.99594 12.0041 0.75 8 0.75Z" stroke="#44546F" stroke-width="1.5" stroke-linejoin="round"/>
<path d="M4.5 14.3507V13.75C4.5 12.6454 5.39543 11.75 6.5 11.75H9.5C10.6046 11.75 11.5 12.6454 11.5 13.75L11.5 14.3507M10.75 6.5C10.75 8.01878 9.51878 9.25 8 9.25C6.48122 9.25 5.25 8.01878 5.25 6.5C5.25 4.98122 6.48122 3.75 8 3.75C9.51878 3.75 10.75 4.98122 10.75 6.5Z" stroke="#44546F" stroke-width="1.5" stroke-linejoin="round"/>
</svg>
