<svg width="16" height="16" viewBox="0 0 16 16" fill="none" xmlns="http://www.w3.org/2000/svg">
<path fill-rule="evenodd" clip-rule="evenodd" d="M1 1.75C1 1.33579 1.33579 1 1.75 1H5.25C5.58486 1 5.87915 1.22198 5.97114 1.54396L6.79226 4.41787C6.98256 5.08393 6.76207 5.79955 6.22992 6.24302L4.28978 7.8598C5.2648 9.41058 6.58942 10.7352 8.1402 11.7102L9.75698 9.77008C10.2004 9.23793 10.9161 9.01744 11.5821 9.20774L14.456 10.0289C14.778 10.1209 15 10.4151 15 10.75V14.25C15 14.6642 14.6642 15 14.25 15C11.984 15 9.82808 14.3906 7.94134 13.3359C5.73808 12.1041 3.89588 10.2619 2.66414 8.05866C1.60937 6.17193 1 4.01604 1 1.75ZM9.48445 12.4402C10.7341 13.0181 12.0897 13.3794 13.5 13.4747V11.3157L11.17 10.65C11.0749 10.6228 10.9727 10.6543 10.9093 10.7304L9.48445 12.4402ZM3.5598 6.51555L5.26964 5.09069C5.34566 5.02733 5.37716 4.9251 5.34997 4.82995L4.68427 2.5H2.5253C2.62056 3.91026 2.98186 5.26586 3.5598 6.51555Z" fill="#44546F"/>
</svg>
