<svg width="16" height="16" viewBox="0 0 16 16" fill="none" xmlns="http://www.w3.org/2000/svg">
<path d="M3.49998 9.5C2.95427 10.4095 2.75 11 2.75 11.75H8H13.25C13.25 11 13.1662 10.6093 12.5 9.5C11.7508 8.25258 10.5 8.25 10.5 7.75V3.01804C10.5 2.75 10.8528 2.45103 11.2523 1.99742C11.6904 1.5 11.502 0.75 11.2523 0.75H4.74999C4.49999 0.75 4.32283 1.56732 4.74999 1.99742L4.76061 2.00811C5.13204 2.38207 5.49999 2.75253 5.49999 3.01804V7.75C5.49999 8.25 4.25 8.25 3.49998 9.5Z" fill="#44546F"/>
<path d="M8 11.75H13.25C13.25 11 13.1662 10.6093 12.5 9.5C11.7508 8.25258 10.5 8.25 10.5 7.75V3.01804C10.5 2.75 10.8528 2.45103 11.2523 1.99742C11.6904 1.5 11.502 0.75 11.2523 0.75H4.74999C4.49999 0.75 4.32283 1.56732 4.74999 1.99742C5.12499 2.375 5.49999 2.75 5.49999 3.01804V7.75C5.49999 8.25 4.25 8.25 3.49998 9.5C2.95427 10.4095 2.75 11 2.75 11.75H8ZM8 11.75V16" stroke="#44546F" stroke-width="1.5" stroke-linejoin="round"/>
</svg>
