<svg width="16" height="16" viewBox="0 0 16 16" fill="none" xmlns="http://www.w3.org/2000/svg">
<path fill-rule="evenodd" clip-rule="evenodd" d="M11.8252 2.08243C12.3751 1.16596 11.7149 0 10.6461 0H5.35387C4.28509 0 3.62493 1.16596 4.17482 2.08243L5 3.45774V6.93279C4.67463 7.04854 4.24749 7.23894 3.81649 7.54423C2.89811 8.19475 2 9.34702 2 11.25C2 11.6642 2.33579 12 2.75 12H7.25V16H8.75V12H13.25C13.6642 12 14 11.6642 14 11.25C14 9.34702 13.1019 8.19475 12.1835 7.54423C11.7525 7.23894 11.3254 7.04854 11 6.93279V3.45774L11.8252 2.08243Z" fill="#44546F"/>
</svg>
