<svg width="16" height="16" viewBox="0 0 16 16" fill="none" xmlns="http://www.w3.org/2000/svg">
<path fill-rule="evenodd" clip-rule="evenodd" d="M3.9248 0.527543C4.00402 0.381132 4.2555 0 4.74999 0H11.2523C11.7142 0 11.9704 0.33271 12.0657 0.494683C12.1802 0.689259 12.2375 0.910864 12.2569 1.11674C12.2961 1.53186 12.1957 2.06102 11.8151 2.49315C11.716 2.60571 11.6197 2.70919 11.5371 2.79799C11.5298 2.80585 11.5226 2.81361 11.5155 2.82124C11.4243 2.91934 11.3559 2.99366 11.3013 3.05885C11.2788 3.08574 11.2621 3.10699 11.25 3.12331V7.51226C11.2813 7.52931 11.3178 7.54844 11.362 7.57159C11.4186 7.60125 11.4878 7.63753 11.575 7.68454C12.0246 7.92692 12.6653 8.31855 13.1429 9.11387C13.4836 9.68105 13.7084 10.1172 13.84 10.5339C13.9776 10.9698 14 11.3426 14 11.75C14 12.1642 13.6642 12.5 13.25 12.5H8.75V16H7.25V12.5H2.75C2.33579 12.5 2 12.1642 2 11.75C2 10.8136 2.27276 10.0876 2.85686 9.11412C3.33489 8.31744 3.97563 7.92572 4.42567 7.6834C4.51359 7.63606 4.58317 7.59964 4.63996 7.56992C4.68326 7.54727 4.71912 7.5285 4.74999 7.51176V3.11138C4.73598 3.09019 4.71498 3.06096 4.68456 3.02305C4.57613 2.88788 4.42243 2.73191 4.22848 2.53664L4.21786 2.52595C3.80055 2.10577 3.71461 1.54671 3.7488 1.1483C3.76633 0.943935 3.8192 0.722728 3.9248 0.527543Z" fill="#44546F"/>
</svg>
