<svg width="16" height="16" viewBox="0 0 16 16" fill="none" xmlns="http://www.w3.org/2000/svg">
<path d="M5.35352 0C4.35164 0.000240883 3.70911 1.02501 4.08594 1.9082L4.1748 2.08203L5 3.45801V6.93262C4.67465 7.04836 4.24741 7.23867 3.81641 7.54395C2.89803 8.19446 2 9.34702 2 11.25C2 11.6642 2.33579 12 2.75 12H7.25V16H8.75V12H13.25C13.6642 12 14 11.6642 14 11.25C14 9.34702 13.102 8.19446 12.1836 7.54395C11.7526 7.23867 11.3254 7.04836 11 6.93262V3.45801L11.8252 2.08203C12.3747 1.16571 11.7149 0.000256892 10.6465 0H5.35352ZM9.60645 2.86426C9.53662 2.98075 9.5 3.11418 9.5 3.25V7.5C9.5 7.86663 9.76531 8.17996 10.127 8.24023L10.1279 8.23926C10.1298 8.23962 10.132 8.24066 10.1348 8.24121C10.1477 8.24384 10.1703 8.24931 10.2012 8.25684C10.2632 8.27197 10.3573 8.29783 10.4727 8.33789C10.7057 8.41883 11.0132 8.55377 11.3164 8.76855C11.7792 9.09635 12.2537 9.62087 12.4287 10.5H3.57129C3.74633 9.62087 4.22085 9.09635 4.68359 8.76855C4.98681 8.55377 5.29426 8.41883 5.52734 8.33789C5.64273 8.29783 5.73683 8.27197 5.79883 8.25684C5.82967 8.24931 5.85229 8.24384 5.86523 8.24121L5.87305 8.23926C6.23469 8.17898 6.5 7.86663 6.5 7.5V3.25C6.5 3.11418 6.46338 2.98075 6.39355 2.86426L5.57422 1.5H10.4258L9.60645 2.86426Z" fill="#292A2E"/>
</svg>
