<svg width="16" height="16" viewBox="0 0 16 16" fill="none" xmlns="http://www.w3.org/2000/svg">
<path fill-rule="evenodd" clip-rule="evenodd" d="M5.31302 1.5C5.48539 1.67348 5.68897 1.87895 5.84953 2.07812C5.9361 2.18552 6.02796 2.31243 6.10072 2.45213C6.17057 2.58625 6.24999 2.78323 6.24999 3.01804V7.75C6.24999 8.25285 5.91066 8.54227 5.72181 8.67389C5.58419 8.76981 5.39595 8.86817 5.24861 8.94517C5.2075 8.96665 5.16957 8.98647 5.13682 9.0041C4.77435 9.19928 4.41509 9.43256 4.14309 9.88588C3.86693 10.3461 3.70087 10.6907 3.60687 11H12.4141C12.4126 10.9952 12.4111 10.9904 12.4096 10.9856C12.3327 10.7421 12.1826 10.4283 11.857 9.88613C11.5855 9.43403 11.2263 9.20065 10.8631 9.00489C10.8304 8.98726 10.7926 8.96748 10.7517 8.94605C10.6041 8.86882 10.4157 8.7702 10.2778 8.67391C10.0892 8.54221 9.74999 8.25266 9.74999 7.75V3.01804C9.74999 2.58397 10.02 2.25257 10.1513 2.09579C10.2349 1.99602 10.3296 1.8938 10.4169 1.79989C10.4236 1.79267 10.4303 1.78546 10.437 1.77826C10.5214 1.68754 10.6044 1.59829 10.6895 1.5017C10.69 1.50113 10.6905 1.50057 10.691 1.5H5.31302ZM3.9248 0.527543C4.00402 0.381132 4.2555 0 4.74999 0H11.2523C11.7142 0 11.9704 0.332711 12.0657 0.494683C12.1802 0.689259 12.2375 0.910864 12.2569 1.11674C12.2961 1.53186 12.1957 2.06102 11.8151 2.49315C11.716 2.60571 11.6197 2.70919 11.5371 2.79798C11.5298 2.80585 11.5226 2.81361 11.5155 2.82124C11.4243 2.91934 11.3559 2.99366 11.3013 3.05885C11.2788 3.08574 11.2621 3.10699 11.25 3.12331V7.51226C11.2813 7.52931 11.3178 7.54844 11.362 7.57159C11.4186 7.60125 11.4878 7.63753 11.575 7.68454C12.0246 7.92692 12.6653 8.31855 13.1429 9.11387C13.4836 9.68105 13.7084 10.1172 13.84 10.5339C13.9776 10.9698 14 11.3426 14 11.75C14 12.1642 13.6642 12.5 13.25 12.5H8.75V16H7.25V12.5H2.75C2.33579 12.5 2 12.1642 2 11.75C2 10.8136 2.27276 10.0876 2.85686 9.11412C3.33489 8.31744 3.97563 7.92572 4.42567 7.6834C4.51359 7.63606 4.58317 7.59964 4.63996 7.56992C4.68326 7.54727 4.71912 7.5285 4.74999 7.51176V3.11138C4.73549 3.08946 4.7136 3.05907 4.6817 3.0195C4.57071 2.8818 4.41435 2.72379 4.21784 2.52593C3.80054 2.10575 3.71461 1.54671 3.7488 1.1483C3.76633 0.943935 3.8192 0.722728 3.9248 0.527543ZM11.2213 3.16562C11.2212 3.16578 11.2214 3.16548 11.2213 3.16562Z" fill="#44546F"/>
</svg>
