<svg width="16" height="16" viewBox="0 0 16 16" fill="none" xmlns="http://www.w3.org/2000/svg">
<path fill-rule="evenodd" clip-rule="evenodd" d="M11.8252 2.08243C12.3751 1.16596 11.7149 0 10.6461 0H5.35387C4.28509 0 3.62493 1.16596 4.17482 2.08243L5 3.45774V6.93279C4.67463 7.04854 4.24749 7.23894 3.81649 7.54423C2.89811 8.19475 2 9.34702 2 11.25C2 11.6642 2.33579 12 2.75 12H7.25V16H8.75V12H13.25C13.6642 12 14 11.6642 14 11.25C14 9.34702 13.1019 8.19475 12.1835 7.54423C11.7525 7.23894 11.3254 7.04854 11 6.93279V3.45774L11.8252 2.08243ZM10.1228 8.23913L10.1346 8.24145C10.1476 8.24407 10.1702 8.24891 10.2011 8.25645C10.2631 8.27158 10.3573 8.29731 10.4727 8.33741C10.7058 8.41835 11.0132 8.55346 11.3165 8.76827C11.7793 9.09609 12.2549 9.62068 12.43 10.5H3.57004C3.74505 9.62068 4.2207 9.09609 4.68351 8.76827C4.98676 8.55346 5.29417 8.41835 5.52726 8.33741C5.64275 8.29731 5.73692 8.27158 5.79891 8.25645C5.82981 8.24891 5.85243 8.24407 5.86536 8.24145L5.87722 8.23913L5.87469 8.23956C6.23596 8.17899 6.5 7.86638 6.5 7.5V3.25C6.5 3.11407 6.46306 2.98069 6.39312 2.86413L5.57464 1.5H10.4254L9.60688 2.86413C9.53694 2.98069 9.5 3.11407 9.5 3.25V7.5C9.5 7.86528 9.76319 8.17723 10.1228 8.23913Z" fill="#44546F"/>
</svg>
