<svg width="16" height="16" viewBox="0 0 16 16" fill="none" xmlns="http://www.w3.org/2000/svg">
<path fill-rule="evenodd" clip-rule="evenodd" d="M5 4H2.75C2.33579 4 2 4.33579 2 4.75V8.65025C2 9.56124 2.38235 10.4304 3.0539 11.046L5 12.8299V14C5 15.1046 5.89543 16 7 16H9C10.1046 16 11 15.1046 11 14V12.8299L12.9461 11.046C13.6176 10.4304 14 9.56124 14 8.65025V4.75C14 4.33579 13.6642 4 13.25 4H11V0H9.5V4H6.5V0H5V4ZM3.5 5.5V8.65025C3.5 9.14078 3.70588 9.6088 4.06748 9.94027L6.25679 11.9471C6.41177 12.0892 6.5 12.2898 6.5 12.5V14C6.5 14.2761 6.72386 14.5 7 14.5H9C9.27614 14.5 9.5 14.2761 9.5 14V12.5C9.5 12.2898 9.58823 12.0892 9.74321 11.9471L11.9325 9.94027C12.2941 9.6088 12.5 9.14078 12.5 8.65025V5.5H3.5Z" fill="#292A2E"/>
</svg>
