<svg width="16" height="16" viewBox="0 0 16 16" fill="none" xmlns="http://www.w3.org/2000/svg">
<path fill-rule="evenodd" clip-rule="evenodd" d="M1.5 3V4.5H3V3H4.5V1.5H3V0H1.5V1.5H0V3H1.5ZM8 1C8.30931 1 8.58689 1.18989 8.699 1.47817L10.3294 5.6706L14.5218 7.301C14.8101 7.41311 15 7.69069 15 8C15 8.30931 14.8101 8.58689 14.5218 8.699L10.3294 10.3294L8.699 14.5218C8.58689 14.8101 8.30931 15 8 15C7.69069 15 7.41311 14.8101 7.301 14.5218L5.6706 10.3294L1.47817 8.699C1.18989 8.58689 1 8.30931 1 8C1 7.69069 1.18989 7.41311 1.47817 7.301L5.6706 5.6706L7.301 1.47817C7.41311 1.18989 7.69069 1 8 1ZM8 3.81927L6.949 6.52183C6.87279 6.71781 6.71781 6.87279 6.52183 6.949L3.81927 8L6.52183 9.051C6.71781 9.12721 6.87279 9.28219 6.949 9.47817L8 12.1807L9.051 9.47817C9.12721 9.28219 9.28219 9.12721 9.47817 9.051L12.1807 8L9.47817 6.949C9.28219 6.87279 9.12721 6.71781 9.051 6.52183L8 3.81927ZM13 14.5V16H14.5V14.5H16V13H14.5V11.5H13V13H11.5V14.5H13Z" fill="#292A2E"/>
</svg>
