<svg width="16" height="16" viewBox="0 0 16 16" fill="none" xmlns="http://www.w3.org/2000/svg">
<path fill-rule="evenodd" clip-rule="evenodd" d="M4.90856 2.49977C3.57823 2.49977 2.49979 3.57822 2.49979 4.90855C2.49979 5.85984 3.05116 6.68378 3.85514 7.07556L3.19805 8.42398C1.8981 7.79051 0.999786 6.45515 0.999786 4.90855C0.999786 2.74979 2.7498 0.999771 4.90856 0.999771C6.45516 0.999771 7.79052 1.89809 8.424 3.19804L7.07558 3.85513C6.68379 3.05115 5.85985 2.49977 4.90856 2.49977ZM4.71967 4.71967C4.92529 4.51405 5.23123 4.44582 5.50473 4.54458L14.5047 7.79458C14.7982 7.90057 14.9954 8.17721 14.9999 8.48923C15.0044 8.80124 14.8152 9.08343 14.5249 9.19781L10.7033 10.7033L9.19781 14.5249C9.08343 14.8152 8.80124 15.0044 8.48923 14.9999C8.17721 14.9954 7.90057 14.7982 7.79458 14.5047L4.54458 5.50473C4.44582 5.23123 4.51405 4.92529 4.71967 4.71967ZM6.49811 6.49811L8.53051 12.1263L9.42719 9.85011C9.50343 9.65659 9.65659 9.50343 9.85011 9.42719L12.1263 8.53051L6.49811 6.49811Z" fill="#292A2E"/>
</svg>
