<svg width="16" height="16" viewBox="0 0 16 16" fill="none" xmlns="http://www.w3.org/2000/svg">
<path fill-rule="evenodd" clip-rule="evenodd" d="M4.90856 2.5C3.57823 2.5 2.49979 3.57844 2.49979 4.90877C2.49979 5.86007 3.05116 6.68401 3.85514 7.07579L3.19805 8.42421C1.8981 7.79074 0.999786 6.45538 0.999786 4.90877C0.999786 2.75002 2.7498 1 4.90856 1C6.45516 1 7.79052 1.89832 8.424 3.19827L7.07558 3.85536C6.68379 3.05138 5.85985 2.5 4.90856 2.5ZM4.71967 4.7199C4.92529 4.51428 5.23123 4.44605 5.50473 4.54481L14.5047 7.79481C14.7982 7.9008 14.9954 8.17744 14.9999 8.48945C15.0044 8.80147 14.8152 9.08366 14.5249 9.19804L10.7033 10.7035L9.19781 14.5251C9.08343 14.8155 8.80124 15.0046 8.48923 15.0002C8.17721 14.9957 7.90057 14.7985 7.79458 14.505L4.54458 5.50496C4.44582 5.23146 4.51405 4.92552 4.71967 4.7199ZM6.49811 6.49834L8.53051 12.1265L9.42719 9.85034C9.50343 9.65682 9.65659 9.50365 9.85011 9.42742L12.1263 8.53074L6.49811 6.49834Z" fill="#292A2E"/>
</svg>
