<svg width="16" height="16" viewBox="0 0 16 16" fill="none" xmlns="http://www.w3.org/2000/svg">
<path fill-rule="evenodd" clip-rule="evenodd" d="M3 0.75C3 0.335786 3.33579 0 3.75 0H12.25C12.6642 0 13 0.335786 13 0.75V4H14C15.1046 4 16 4.89543 16 6V11C16 12.1046 15.1046 13 14 13H13V15.25C13 15.6642 12.6642 16 12.25 16H3.75C3.33579 16 3 15.6642 3 15.25V13H2C0.895431 13 0 12.1046 0 11V6C0 4.89543 0.89543 4 2 4H3V0.75ZM4.5 4H11.5V1.5H4.5V4ZM3 11.5V10.25C3 9.83579 3.33579 9.5 3.75 9.5H12.25C12.6642 9.5 13 9.83579 13 10.25V11.5H14C14.2761 11.5 14.5 11.2761 14.5 11V6C14.5 5.72386 14.2761 5.5 14 5.5H2C1.72386 5.5 1.5 5.72386 1.5 6V11C1.5 11.2761 1.72386 11.5 2 11.5H3ZM11 7H13V8.5H11V7ZM4.5 11V14.5H11.5V11H4.5Z" fill="#44546F"/>
</svg>
