<svg width="16" height="16" viewBox="0 0 16 16" fill="none" xmlns="http://www.w3.org/2000/svg">
<path d="M12.8369 14.8361C13.0673 14.9879 13.3626 15.0011 13.6055 14.8703C13.8484 14.7395 14 14.486 14 14.2101V5.21012C14 4.95809 13.8734 4.72294 13.6631 4.58414L8.41309 1.1232C8.16268 0.95816 7.83732 0.95816 7.58691 1.1232L2.33691 4.58414C2.12658 4.72294 2 4.95809 2 5.21012V14.2101L2.00684 14.3127C2.03923 14.5477 2.18208 14.7559 2.39453 14.8703C2.63742 15.0011 2.93275 14.9879 3.16309 14.8361L8 11.6486L12.8369 14.8361ZM8.41309 10.1232C8.16268 9.95816 7.83732 9.95816 7.58691 10.1232L3.5 12.8175V5.61441L8 2.64859L12.5 5.61441V12.8175L8.41309 10.1232Z" fill="#292A2E"/>
</svg>
