<svg width="16" height="16" viewBox="0 0 16 16" fill="none" xmlns="http://www.w3.org/2000/svg">
<path fill-rule="evenodd" clip-rule="evenodd" d="M7.58727 10.1235L2.08727 13.7485L2.91274 15.001L8 11.648L13.0873 15.001L13.9127 13.7485L8.41273 10.1235C8.16233 9.9585 7.83767 9.9585 7.58727 10.1235ZM7.58727 5.62354L2.08727 9.24854L2.91274 10.501L8 7.14801L13.0873 10.501L13.9127 9.24854L8.41273 5.62354C8.16233 5.4585 7.83767 5.4585 7.58727 5.62354ZM7.58727 1.12354L2.08727 4.74854L2.91274 6.00098L8 2.64801L13.0873 6.00098L13.9127 4.74854L8.41273 1.12354C8.16233 0.958497 7.83767 0.958497 7.58727 1.12354Z" fill="#44546F"/>
</svg>
