<svg width="16" height="16" viewBox="0 0 16 16" fill="none" xmlns="http://www.w3.org/2000/svg">
<path d="M12.8369 14.8362C13.0673 14.988 13.3626 15.0012 13.6055 14.8704C13.8484 14.7395 14 14.4861 14 14.2102V5.21021C14 4.95819 13.8734 4.72303 13.6631 4.58423L8.41309 1.12329C8.16268 0.958251 7.83732 0.958251 7.58691 1.12329L2.33691 4.58423C2.12658 4.72303 2 4.95819 2 5.21021V14.2102L2.00684 14.3127C2.03923 14.5478 2.18208 14.7559 2.39453 14.8704C2.63742 15.0012 2.93275 14.988 3.16309 14.8362L8 11.6487L12.8369 14.8362ZM8.41309 10.1233C8.16268 9.95825 7.83732 9.95825 7.58691 10.1233L3.5 12.8176V5.6145L8 2.64868L12.5 5.6145V12.8176L8.41309 10.1233Z" fill="#44546F"/>
</svg>
