<svg width="16" height="16" viewBox="0 0 16 16" fill="none" xmlns="http://www.w3.org/2000/svg">
<path d="M13.9131 4.74951L8.41309 1.12451C8.16268 0.959464 7.83732 0.959464 7.58691 1.12451L2.08691 4.74951L2.91309 6.00146L8 2.64892L13.0869 6.00146L13.9131 4.74951ZM13.9131 9.24951L8.41309 5.62451C8.16268 5.45946 7.83732 5.45946 7.58691 5.62451L2.08691 9.24951L2.91309 10.5015L8 7.14892L13.0869 10.5015L13.9131 9.24951ZM13.9131 13.7495L8.41309 10.1245C8.16268 9.95946 7.83732 9.95946 7.58691 10.1245L2.08691 13.7495L2.91309 15.0015L8 11.6489L13.0869 15.0015L13.9131 13.7495Z" fill="#292A2E"/>
</svg>
