<svg width="16" height="16" viewBox="0 0 16 16" fill="none" xmlns="http://www.w3.org/2000/svg">
<path fill-rule="evenodd" clip-rule="evenodd" d="M2.39437 14.8708C2.63727 15.0016 2.93238 14.9885 3.16273 14.8367L8 11.6485L12.8373 14.8367C13.0676 14.9885 13.3627 15.0016 13.6056 14.8708C13.8485 14.74 14 14.4863 14 14.2104V5.21045C14 4.95828 13.8733 4.723 13.6627 4.58423L8.41273 1.124C8.16233 0.958961 7.83767 0.958961 7.58727 1.124L2.33727 4.58423C2.12672 4.723 2 4.95828 2 5.21045V14.2104C2 14.4863 2.15147 14.74 2.39437 14.8708ZM3.5 12.8179V5.61438L8 2.64847L12.5 5.61438V12.8179L8.41273 10.124C8.16233 9.95896 7.83767 9.95896 7.58727 10.124L3.5 12.8179Z" fill="#44546F"/>
</svg>
