<svg width="16" height="16" viewBox="0 0 16 16" fill="none" xmlns="http://www.w3.org/2000/svg">
<path d="M13.9131 11.251L8.41309 14.876C8.16268 15.041 7.83732 15.041 7.58691 14.876L2.08691 11.251L2.91309 9.99902L8 13.3516L13.0869 9.99902L13.9131 11.251ZM13.9131 6.75098L8.41309 10.376C8.16268 10.541 7.83732 10.541 7.58691 10.376L2.08691 6.75098L2.91309 5.49902L8 8.85156L13.0869 5.49902L13.9131 6.75098ZM13.9131 2.25098L8.41309 5.87598C8.16268 6.04102 7.83732 6.04102 7.58691 5.87598L2.08691 2.25098L2.91309 0.999023L8 4.35156L13.0869 0.999023L13.9131 2.25098Z" fill="#44546F"/>
</svg>
