<svg width="16" height="16" viewBox="0 0 16 16" fill="none" xmlns="http://www.w3.org/2000/svg">
<path fill-rule="evenodd" clip-rule="evenodd" d="M3.9644 2.90374L13.0963 12.0356C15.1219 9.48405 14.9552 5.76285 12.5962 3.40381C10.2371 1.04476 6.51595 0.878072 3.9644 2.90374ZM12.0356 13.0963L2.90374 3.9644C0.878072 6.51595 1.04476 10.2371 3.40381 12.5962C5.76285 14.9552 9.48405 15.1219 12.0356 13.0963ZM2.34315 2.34315C5.46734 -0.781049 10.5327 -0.781049 13.6569 2.34315C16.781 5.46734 16.781 10.5327 13.6569 13.6569C10.5327 16.781 5.46734 16.781 2.34315 13.6569C-0.781049 10.5327 -0.781049 5.46734 2.34315 2.34315Z" fill="#44546F"/>
</svg>
