<svg width="16" height="16" viewBox="0 0 16 16" fill="none" xmlns="http://www.w3.org/2000/svg">
<path d="M2.34315 2.34315C5.46734 -0.781049 10.5334 -0.781049 13.6576 2.34315C16.7818 5.46734 16.7818 10.5334 13.6576 13.6576C10.5334 16.7818 5.46734 16.7818 2.34315 13.6576C-0.781049 10.5334 -0.781049 5.46734 2.34315 2.34315ZM2.90467 3.96522C0.879 6.51676 1.04465 10.238 3.40369 12.5971C5.7627 14.9561 9.48301 15.1207 12.0346 13.0951L2.90467 3.96522ZM12.5971 3.40369C10.238 1.04465 6.51676 0.879 3.96522 2.90467L13.0951 12.0346C15.1207 9.48301 14.9561 5.7627 12.5971 3.40369Z" fill="#292A2E"/>
</svg>
