<svg width="16" height="16" viewBox="0 0 16 16" fill="none" xmlns="http://www.w3.org/2000/svg">
<path d="M2.34277 2.34266C5.46697 -0.781537 10.533 -0.781537 13.6572 2.34266C16.7814 5.46685 16.7814 10.5329 13.6572 13.6571C10.533 16.7813 5.46697 16.7813 2.34277 13.6571C-0.781422 10.5329 -0.781422 5.46685 2.34277 2.34266ZM2.9043 3.96473C0.878626 6.51627 1.04427 10.2375 3.40332 12.5966C5.76233 14.9556 9.48264 15.1202 12.0342 13.0946L2.9043 3.96473ZM12.5967 3.4032C10.2376 1.04416 6.51639 0.878512 3.96484 2.90418L13.0947 12.0341C15.1203 9.48252 14.9557 5.76221 12.5967 3.4032Z" fill="#44546F"/>
</svg>
