<svg width="16" height="16" viewBox="0 0 16 16" fill="none" xmlns="http://www.w3.org/2000/svg">
<path fill-rule="evenodd" clip-rule="evenodd" d="M3.5 2.625C3.5 1.17525 4.67525 0 6.125 0H9.875C11.3247 0 12.5 1.17525 12.5 2.625V11.375C12.5 12.8247 11.3247 14 9.875 14H8.75V16H7.25L7.25 14H6.125C4.67525 14 3.5 12.8247 3.5 11.375V2.625ZM6.125 1.5C5.50368 1.5 5 2.00368 5 2.625V11.375C5 11.9963 5.50368 12.5 6.125 12.5H9.875C10.4963 12.5 11 11.9963 11 11.375V2.625C11 2.00368 10.4963 1.5 9.875 1.5H6.125ZM6.5 4.75C6.5 3.92157 7.17157 3.25 8 3.25C8.82843 3.25 9.5 3.92157 9.5 4.75C9.5 5.57843 8.82843 6.25 8 6.25C7.17157 6.25 6.5 5.57843 6.5 4.75ZM6.5 9.25C6.5 8.42157 7.17157 7.75 8 7.75C8.82843 7.75 9.5 8.42157 9.5 9.25C9.5 10.0784 8.82843 10.75 8 10.75C7.17157 10.75 6.5 10.0784 6.5 9.25Z" fill="#292A2E"/>
</svg>
