<svg width="16" height="16" viewBox="0 0 16 16" fill="none" xmlns="http://www.w3.org/2000/svg">
<path fill-rule="evenodd" clip-rule="evenodd" d="M13.5 3.00002C13.5 2.72388 13.2761 2.50002 13 2.50002L10.5178 2.50002C10.3852 2.50001 10.258 2.55269 10.1642 2.64646L7.78033 5.03035C7.63968 5.171 7.44891 5.25002 7.25 5.25002L3.01777 5.25002C2.88516 5.25002 2.75798 5.3027 2.66421 5.39647L2.31066 5.75002L4.03033 7.46969C4.32322 7.76259 4.32322 8.23746 4.03033 8.53035L1.78033 10.7804L0.719669 9.71969L2.43934 8.00002L0.71967 6.28035C0.426777 5.98746 0.426777 5.51259 0.71967 5.21969L1.60355 4.33581C1.97863 3.96074 2.48733 3.75002 3.01777 3.75002L6.93934 3.75002L9.10355 1.5858C9.47863 1.21073 9.98734 1.00001 10.5178 1.00002L13 1.00002C14.1046 1.00002 15 1.89545 15 3.00002L15 5.48227C15 6.0127 14.7893 6.52141 14.4142 6.89648L12.25 9.06069L12.25 12.9823C12.25 13.5127 12.0393 14.0214 11.6642 14.3965L10.7803 15.2804C10.6397 15.421 10.4489 15.5 10.25 15.5C10.0511 15.5 9.86032 15.421 9.71967 15.2804L8 13.5607L6.28033 15.2804L5.21967 14.2197L7.46967 11.9697C7.61032 11.829 7.80109 11.75 8 11.75C8.19891 11.75 8.38968 11.829 8.53033 11.9697L10.25 13.6894L10.6036 13.3358C10.6973 13.2421 10.75 13.1149 10.75 12.9823L10.75 8.75003C10.75 8.55112 10.829 8.36035 10.9697 8.2197L13.3536 5.83582C13.4473 5.74205 13.5 5.61487 13.5 5.48227L13.5 3.00002ZM6.78033 10.2804L1.78033 15.2804L0.71967 14.2197L5.71967 9.21969L6.78033 10.2804Z" fill="#292A2E"/>
<path d="M12.5 4.62502C12.5 5.24634 11.9963 5.75002 11.375 5.75002C10.7537 5.75002 10.25 5.24634 10.25 4.62502C10.25 4.0037 10.7537 3.50002 11.375 3.50002C11.9963 3.50002 12.5 4.0037 12.5 4.62502Z" fill="#292A2E"/>
</svg>
