<svg width="16" height="16" viewBox="0 0 16 16" fill="none" xmlns="http://www.w3.org/2000/svg">
<path d="M1.25 10.25L3.5 8L1.25 5.75L2.13388 4.86612C2.3683 4.6317 2.68625 4.5 3.01777 4.5L7.25 4.5L9.63388 2.11611C9.86831 1.88169 10.1862 1.74999 10.5178 1.74999L13 1.75C13.6904 1.75 14.25 2.30964 14.25 3L14.25 5.48224C14.25 5.81376 14.1183 6.1317 13.8839 6.36612L11.5 8.75001L11.5 12.9822C11.5 13.3138 11.3683 13.6317 11.1339 13.8661L10.25 14.75L8 12.5L5.75 14.75M1.25 14.75L6.25 9.75" stroke="#44546F" stroke-width="1.5" stroke-linejoin="round"/>
<circle cx="11.375" cy="4.625" r="1.125" fill="#44546F"/>
</svg>
