<svg width="16" height="16" viewBox="0 0 16 16" fill="none" xmlns="http://www.w3.org/2000/svg">
<path fill-rule="evenodd" clip-rule="evenodd" d="M13.5 3.00001C13.5 2.72386 13.2761 2.50001 13 2.50001L10.5178 2.5C10.3852 2.5 10.258 2.55268 10.1642 2.64645L7.78034 5.03034C7.63968 5.17099 7.44892 5.25001 7.25001 5.25001L3.01777 5.25001C2.88516 5.25001 2.75799 5.30269 2.66422 5.39646L2.31066 5.75001L4.03033 7.46968C4.32323 7.76257 4.32323 8.23745 4.03033 8.53034L1.78033 10.7803L0.719673 9.71968L2.43934 8.00001L0.719674 6.28034C0.42678 5.98745 0.426781 5.51257 0.719674 5.21968L1.60356 4.3358C1.97863 3.96072 2.48734 3.75001 3.01777 3.75001L6.93934 3.75001L9.10356 1.58579C9.47863 1.21071 9.98734 0.999999 10.5178 1L13 1.00001C14.1046 1.00001 15 1.89544 15 3L15 5.48225C15 6.01268 14.7893 6.52139 14.4142 6.89646L12.25 9.06068L12.25 12.9823C12.25 13.5127 12.0393 14.0214 11.6642 14.3965L10.7803 15.2803C10.6397 15.421 10.4489 15.5 10.25 15.5C10.0511 15.5 9.86033 15.421 9.71967 15.2803L8 13.5607L6.28033 15.2803L5.21967 14.2197L7.46967 11.9697C7.61033 11.829 7.80109 11.75 8 11.75C8.19892 11.75 8.38968 11.829 8.53033 11.9697L10.25 13.6894L10.6036 13.3358C10.6973 13.242 10.75 13.1149 10.75 12.9823L10.75 8.75002C10.75 8.5511 10.829 8.36034 10.9697 8.21969L13.3536 5.8358C13.4473 5.74204 13.5 5.61486 13.5 5.48225L13.5 3.00001ZM6.78033 10.2803L1.78033 15.2803L0.719674 14.2197L5.71967 9.21968L6.78033 10.2803Z" fill="#292A2E"/>
<path d="M12.5 4.62501C12.5 5.24633 11.9963 5.75001 11.375 5.75001C10.7537 5.75001 10.25 5.24633 10.25 4.62501C10.25 4.00369 10.7537 3.50001 11.375 3.50001C11.9963 3.50001 12.5 4.00369 12.5 4.62501Z" fill="#292A2E"/>
</svg>
