<svg width="16" height="16" viewBox="0 0 16 16" fill="none" xmlns="http://www.w3.org/2000/svg">
<path d="M8 13.25L8 16M8.75 4.75C8.75 5.16421 8.41421 5.5 8 5.5C7.58579 5.5 7.25 5.16421 7.25 4.75C7.25 4.33579 7.58579 4 8 4C8.41421 4 8.75 4.33579 8.75 4.75ZM8.75 9.25C8.75 9.66421 8.41421 10 8 10C7.58579 10 7.25 9.66421 7.25 9.25C7.25 8.83579 7.58579 8.5 8 8.5C8.41421 8.5 8.75 8.83579 8.75 9.25ZM6.125 13.25H9.875C10.9105 13.25 11.75 12.4105 11.75 11.375V2.625C11.75 1.58947 10.9105 0.75 9.875 0.75H6.125C5.08947 0.75 4.25 1.58947 4.25 2.625V11.375C4.25 12.4105 5.08947 13.25 6.125 13.25Z" stroke="#44546F" stroke-width="1.5" stroke-linejoin="round"/>
</svg>
