<svg width="16" height="16" viewBox="0 0 16 16" fill="none" xmlns="http://www.w3.org/2000/svg">
<path fill-rule="evenodd" clip-rule="evenodd" d="M4.25 2.5C3.83579 2.5 3.5 2.83579 3.5 3.25C3.5 3.66421 3.83579 4 4.25 4C4.66422 4 5 3.66421 5 3.25C5 2.83579 4.66422 2.5 4.25 2.5ZM2 3.25C2 2.00736 3.00736 1 4.25 1C5.49264 1 6.5 2.00736 6.5 3.25C6.5 4.22966 5.8739 5.06309 5 5.37197L5 10.628C5.87389 10.9369 6.5 11.7703 6.5 12.75C6.5 13.9926 5.49264 15 4.25 15C3.00736 15 2 13.9926 2 12.75C2 11.7703 2.62611 10.9369 3.5 10.628L3.5 5.37197C2.62611 5.06309 2 4.22966 2 3.25ZM8 2.5H9.75C11.2688 2.5 12.5 3.73122 12.5 5.25L12.5 10.628C13.3739 10.9369 14 11.7703 14 12.75C14 13.9926 12.9926 15 11.75 15C10.5074 15 9.5 13.9926 9.5 12.75C9.5 11.7703 10.1261 10.9369 11 10.628L11 5.25C11 4.55964 10.4404 4 9.75 4H8V2.5ZM4.25 12C3.83579 12 3.5 12.3358 3.5 12.75C3.5 13.1642 3.83579 13.5 4.25 13.5C4.66421 13.5 5 13.1642 5 12.75C5 12.3358 4.66421 12 4.25 12ZM11.75 12C11.3358 12 11 12.3358 11 12.75C11 13.1642 11.3358 13.5 11.75 13.5C12.1642 13.5 12.5 13.1642 12.5 12.75C12.5 12.3358 12.1642 12 11.75 12Z" fill="#292A2E"/>
</svg>
