<svg width="16" height="16" viewBox="0 0 16 16" fill="none" xmlns="http://www.w3.org/2000/svg">
<path d="M6.25 6C6.25 5 7 4.25 8 4.25C9 4.25 9.75 5 9.75 6C9.75 7.5 8 7.5 8 8.75V9.5M15.25 8C15.25 12.0041 12.0041 15.25 8 15.25C3.99594 15.25 0.75 12.0041 0.75 8C0.75 3.99594 3.99594 0.75 8 0.75C12.0041 0.75 15.25 3.99594 15.25 8Z" stroke="#44546F" stroke-width="1.5" stroke-linejoin="round"/>
<path d="M9 11.5C9 12.0523 8.55228 12.5 8 12.5C7.44772 12.5 7 12.0523 7 11.5C7 10.9477 7.44772 10.5 8 10.5C8.55228 10.5 9 10.9477 9 11.5Z" fill="#44546F"/>
</svg>
