<svg width="16" height="16" viewBox="0 0 16 16" fill="none" xmlns="http://www.w3.org/2000/svg">
<path fill-rule="evenodd" clip-rule="evenodd" d="M8 1.5C4.41015 1.5 1.5 4.41015 1.5 8C1.5 11.5899 4.41015 14.5 8 14.5C11.5899 14.5 14.5 11.5899 14.5 8C14.5 4.41015 11.5899 1.5 8 1.5ZM0 8C0 3.58172 3.58172 0 8 0C12.4183 0 16 3.58172 16 8C16 12.4183 12.4183 16 8 16C3.58172 16 0 12.4183 0 8ZM8 5C7.41421 5 7 5.41421 7 6H5.5C5.5 4.58579 6.58579 3.5 8 3.5C9.41421 3.5 10.5 4.58579 10.5 6C10.5 7.13259 9.78738 7.7057 9.33837 8.05849C8.82691 8.46035 8.75 8.55198 8.75 8.75V9.5H7.25V8.75C7.25 7.77259 7.93895 7.24287 8.32821 6.94359C8.35791 6.92075 8.38586 6.89926 8.41163 6.87901C8.83763 6.5443 9 6.36741 9 6C9 5.41421 8.58579 5 8 5Z" fill="#44546F"/>
<path d="M9 11.5C9 12.0523 8.55228 12.5 8 12.5C7.44772 12.5 7 12.0523 7 11.5C7 10.9477 7.44772 10.5 8 10.5C8.55228 10.5 9 10.9477 9 11.5Z" fill="#44546F"/>
</svg>
