<svg width="16" height="16" viewBox="0 0 16 16" fill="none" xmlns="http://www.w3.org/2000/svg">
<path fill-rule="evenodd" clip-rule="evenodd" d="M0 4C0 2.89543 0.895431 2 2 2H5C6.10457 2 7 2.89543 7 4V10C7 12.2091 5.20914 14 3 14V12.5C4.38071 12.5 5.5 11.3807 5.5 10V9H2C0.89543 9 0 8.10457 0 7V4ZM5.5 7.5V4C5.5 3.72386 5.27614 3.5 5 3.5H2C1.72386 3.5 1.5 3.72386 1.5 4V7C1.5 7.27614 1.72386 7.5 2 7.5H5.5ZM9 4C9 2.89543 9.89543 2 11 2H14C15.1046 2 16 2.89543 16 4V10C16 12.2091 14.2091 14 12 14V12.5C13.3807 12.5 14.5 11.3807 14.5 10V9H11C9.89543 9 9 8.10457 9 7V4ZM14.5 7.5V4C14.5 3.72386 14.2761 3.5 14 3.5H11C10.7239 3.5 10.5 3.72386 10.5 4V7C10.5 7.27614 10.7239 7.5 11 7.5H14.5Z" fill="#44546F"/>
</svg>
