<svg width="16" height="16" viewBox="0 0 16 16" fill="none" xmlns="http://www.w3.org/2000/svg">
<path d="M3 13.25V13.25C4.79493 13.25 6.25 11.7949 6.25 10V8.25M6.25 8.25V4C6.25 3.30964 5.69036 2.75 5 2.75H2C1.30964 2.75 0.75 3.30964 0.75 4V7C0.75 7.69036 1.30964 8.25 2 8.25H6.25ZM15.25 8.25V4C15.25 3.30964 14.6904 2.75 14 2.75H11C10.3096 2.75 9.75 3.30964 9.75 4V7C9.75 7.69036 10.3096 8.25 11 8.25H15.25ZM15.25 8.25V10C15.25 11.7949 13.7949 13.25 12 13.25" stroke="#44546F" stroke-width="1.5"/>
</svg>
