<svg width="16" height="16" viewBox="0 0 16 16" fill="none" xmlns="http://www.w3.org/2000/svg">
<path fill-rule="evenodd" clip-rule="evenodd" d="M2.5 3.66967V1H1V6C1 6.41421 1.33579 6.75 1.75 6.75H6.5V5.25H3.23557C4.18687 3.60552 5.96502 2.5 8 2.5C11.0376 2.5 13.5 4.96243 13.5 8C13.5 11.0376 11.0376 13.5 8 13.5C5.26268 13.5 2.99116 11.4996 2.57006 8.88092L1.08908 9.11908C1.62526 12.4533 4.51451 15 8 15C11.866 15 15 11.866 15 8C15 4.13401 11.866 1 8 1C5.7683 1 3.78149 2.0441 2.5 3.66967Z" fill="#292A2E"/>
</svg>
