<svg width="16" height="16" viewBox="0 0 16 16" fill="none" xmlns="http://www.w3.org/2000/svg">
<path fill-rule="evenodd" clip-rule="evenodd" d="M4 2H7V4H9C9.26675 4 9.51343 4.14168 9.64783 4.3721L11.1808 7H15.25C15.5193 7 15.7679 7.14439 15.9014 7.37829C16.0349 7.61219 16.0327 7.8997 15.8957 8.13155L13.0086 13.0175C12.6487 13.6264 11.994 14 11.2867 14H2C0.89543 14 0 13.1046 0 12V7.75C0 7.33579 0.335786 7 0.75 7H2V4.75C2 4.33579 2.33579 4 2.75 4H4V2ZM3.5 7H9.44422L8.56922 5.5H3.5V7ZM1.5 8.5V12C1.5 12.2761 1.72386 12.5 2 12.5H11.2867C11.4635 12.5 11.6272 12.4066 11.7172 12.2544L13.9357 8.5H1.5Z" fill="#292A2E"/>
</svg>
