<svg width="16" height="16" viewBox="0 0 16 16" fill="none" xmlns="http://www.w3.org/2000/svg">
<path d="M0.75 7.75V7C0.335786 7 0 7.33579 0 7.75H0.75ZM15.25 7.75L15.8957 8.13155C16.0327 7.8997 16.0349 7.61219 15.9014 7.37829C15.7679 7.14439 15.5193 7 15.25 7V7.75ZM2.75 4.75V4C2.33579 4 2 4.33579 2 4.75H2.75ZM9 4.75L9.64783 4.3721C9.51343 4.14168 9.26675 4 9 4V4.75ZM4.75 2.75V2H4V2.75H4.75ZM6.25 2.75H7V2H6.25V2.75ZM12.3629 12.6359L13.0086 13.0175L12.3629 12.6359ZM14.6043 7.36845L11.7172 12.2544L13.0086 13.0175L15.8957 8.13155L14.6043 7.36845ZM11.2867 12.5H2V14H11.2867V12.5ZM1.5 12V7.75H0V12H1.5ZM0.75 8.5H2.75V7H0.75V8.5ZM3.5 7.75V4.75H2V7.75H3.5ZM2.75 8.5H10.75V7H2.75V8.5ZM10.75 8.5H15.25V7H10.75V8.5ZM8.35217 5.1279L10.1022 8.1279L11.3978 7.3721L9.64783 4.3721L8.35217 5.1279ZM2.75 5.5H4.75V4H2.75V5.5ZM5.5 4.75V2.75H4V4.75H5.5ZM4.75 3.5H6.25V2H4.75V3.5ZM4.75 5.5H6.25V4H4.75V5.5ZM6.25 5.5H9V4H6.25V5.5ZM5.5 2.75V4.75H7V2.75H5.5ZM2 12.5C1.72386 12.5 1.5 12.2761 1.5 12H0C0 13.1046 0.89543 14 2 14V12.5ZM11.7172 12.2544C11.6272 12.4066 11.4635 12.5 11.2867 12.5V14C11.994 14 12.6487 13.6264 13.0086 13.0175L11.7172 12.2544Z" fill="#44546F"/>
</svg>
