<svg width="16" height="16" viewBox="0 0 16 16" fill="none" xmlns="http://www.w3.org/2000/svg">
<path fill-rule="evenodd" clip-rule="evenodd" d="M1 8C1 4.13401 4.13401 1 8 1C10.2317 1 12.2185 2.0441 13.5 3.66966V1H15V6C15 6.41421 14.6642 6.75 14.25 6.75H9.5V5.25H12.7644C11.8131 3.60552 10.035 2.5 8 2.5C4.96243 2.5 2.5 4.96243 2.5 8C2.5 11.0376 4.96243 13.5 8 13.5C10.7373 13.5 13.0088 11.4996 13.4299 8.88092L14.9109 9.11908C14.3747 12.4533 11.4855 15 8 15C4.13401 15 1 11.866 1 8Z" fill="#44546F"/>
</svg>
