<svg width="16" height="16" viewBox="0 0 16 16" fill="none" xmlns="http://www.w3.org/2000/svg">
<path fill-rule="evenodd" clip-rule="evenodd" d="M6.75 2.75C3.85051 2.75 1.5 5.10051 1.5 8C1.5 10.8995 3.85051 13.25 6.75 13.25V14.75C3.02208 14.75 3.8147e-06 11.7279 3.8147e-06 8C3.8147e-06 4.27208 3.02208 1.25 6.75 1.25C10.4779 1.25 13.5 4.27208 13.5 8V9.18934L14.8447 7.84467L15.9053 8.90533L13.2803 11.5303C12.9874 11.8232 12.5126 11.8232 12.2197 11.5303L9.59467 8.90533L10.6553 7.84467L12 9.18934V8C12 5.10051 9.6495 2.75 6.75 2.75Z" fill="#44546F"/>
</svg>
