<svg width="16" height="16" viewBox="0 0 16 16" fill="none" xmlns="http://www.w3.org/2000/svg">
<path d="M0.75 4C0.75 3.30964 1.30964 2.75 2 2.75H11C11.6904 2.75 12.25 3.30964 12.25 4V5C12.25 5.69036 11.6904 6.25 11 6.25H2C1.30964 6.25 0.75 5.69036 0.75 5V4Z" stroke="#44546F" stroke-width="1.5"/>
<path d="M3.75 11C3.75 10.3096 4.30964 9.75 5 9.75H14C14.6904 9.75 15.25 10.3096 15.25 11V12C15.25 12.6904 14.6904 13.25 14 13.25H5C4.30964 13.25 3.75 12.6904 3.75 12V11Z" stroke="#44546F" stroke-width="1.5"/>
</svg>
