<svg width="16" height="16" viewBox="0 0 16 16" fill="none" xmlns="http://www.w3.org/2000/svg">
<path fill-rule="evenodd" clip-rule="evenodd" d="M0 4C0 2.89543 0.895431 2 2 2H11C12.1046 2 13 2.89543 13 4V5C13 6.10457 12.1046 7 11 7H2C0.89543 7 0 6.10457 0 5V4ZM2 3.5C1.72386 3.5 1.5 3.72386 1.5 4V5C1.5 5.27614 1.72386 5.5 2 5.5H11C11.2761 5.5 11.5 5.27614 11.5 5V4C11.5 3.72386 11.2761 3.5 11 3.5H2ZM3 11C3 9.89543 3.89543 9 5 9H14C15.1046 9 16 9.89543 16 11V12C16 13.1046 15.1046 14 14 14H5C3.89543 14 3 13.1046 3 12V11ZM5 10.5C4.72386 10.5 4.5 10.7239 4.5 11V12C4.5 12.2761 4.72386 12.5 5 12.5H14C14.2761 12.5 14.5 12.2761 14.5 12V11C14.5 10.7239 14.2761 10.5 14 10.5H5Z" fill="#292A2E"/>
</svg>
