<svg width="16" height="16" viewBox="0 0 16 16" fill="none" xmlns="http://www.w3.org/2000/svg">
<path d="M0 3.125C1.9328e-07 1.67525 1.17525 0.5 2.625 0.5H8V2H2.625C2.00368 2 1.5 2.50368 1.5 3.125V13.957L4.05078 12.5H13.375C13.9963 12.5 14.5 11.9963 14.5 11.375V8.5H16V11.375C16 12.8247 14.8247 14 13.375 14H4.44922L1.12207 15.9014C0.890044 16.0339 0.605181 16.0325 0.374023 15.8984C0.142787 15.7642 0 15.5174 0 15.25V3.125Z" fill="#292A2E"/>
<path d="M12.6162 0.508789C12.8828 0.550425 13.1106 0.73402 13.2051 0.993164L13.8193 2.67969L15.5068 3.29492C15.8029 3.4029 16 3.68489 16 4L15.9912 4.11621C15.9496 4.38282 15.766 4.61055 15.5068 4.70508L13.8193 5.31934L13.2051 7.00684C13.1106 7.26598 12.8828 7.44958 12.6162 7.49121L12.5 7.5C12.1849 7.5 11.9029 7.30286 11.7949 7.00684L11.1797 5.31934L9.49316 4.70508C9.23402 4.61055 9.05042 4.38282 9.00879 4.11621L9 4C9 3.68489 9.19714 3.4029 9.49316 3.29492L11.1797 2.67969L11.7949 0.993164C11.8894 0.73402 12.1172 0.550425 12.3838 0.508789L12.5 0.5L12.6162 0.508789Z" fill="#292A2E"/>
</svg>
