<svg width="16" height="16" viewBox="0 0 16 16" fill="none" xmlns="http://www.w3.org/2000/svg">
<path fill-rule="evenodd" clip-rule="evenodd" d="M7.25 3.40599L3.57822 4.26994C3.35743 4.32189 3.17201 4.47097 3.07386 4.67545L0.0738577 10.9255C0.0252407 11.0267 0 11.1377 0 11.25C0 13.3211 1.67893 15 3.75 15C5.82107 15 7.5 13.3211 7.5 11.25C7.5 11.1377 7.47478 11.0268 7.4262 10.9256L4.83081 5.51617L10.8985 4.08849L8.57401 8.92513C8.5253 9.0265 8.5 9.13753 8.5 9.25C8.5 11.3211 10.1789 13 12.25 13C14.3211 13 16 11.3211 16 9.25C16 9.13765 15.9748 9.02674 15.9261 8.92545L12.9261 2.67545C12.7738 2.35798 12.421 2.18928 12.0782 2.26994L8.75 3.05305V1H7.25V3.40599ZM12.2514 4.73616L10.4426 8.5H14.0581L12.2514 4.73616ZM14.372 10H10.128C10.4369 10.8739 11.2703 11.5 12.25 11.5C13.2297 11.5 14.0631 10.8739 14.372 10ZM3.7505 6.73213L1.94193 10.5H5.5583L3.7505 6.73213ZM5.87197 12H1.62803C1.93691 12.8739 2.77034 13.5 3.75 13.5C4.72966 13.5 5.56309 12.8739 5.87197 12Z" fill="#44546F"/>
</svg>
