<svg width="16" height="16" viewBox="0 0 16 16" fill="none" xmlns="http://www.w3.org/2000/svg">
<path fill-rule="evenodd" clip-rule="evenodd" d="M8 1.5C4.41015 1.5 1.5 4.41015 1.5 8C1.5 11.5899 4.41015 14.5 8 14.5V16C3.58172 16 0 12.4183 0 8C0 3.58172 3.58172 0 8 0C12.4183 0 16 3.58172 16 8H14.5C14.5 4.41015 11.5899 1.5 8 1.5ZM12.3262 5.48014L7.32617 11.4801C7.18367 11.6511 6.97258 11.75 6.75 11.75C6.52742 11.75 6.31633 11.6511 6.17383 11.4801L3.67383 8.48014L4.82617 7.51986L6.75 9.82846L11.1738 4.51986L12.3262 5.48014ZM10.4373 14.0278C12.0665 13.3683 13.3683 12.0665 14.0278 10.4373L15.4182 11.0002C14.6063 13.0058 13.0058 14.6063 11.0002 15.4182L10.4373 14.0278Z" fill="#44546F"/>
</svg>
