<svg width="16" height="16" viewBox="0 0 16 16" fill="none" xmlns="http://www.w3.org/2000/svg">
<path fill-rule="evenodd" clip-rule="evenodd" d="M1 3C1 1.89543 1.89543 1 3 1H13C14.1046 1 15 1.89543 15 3V10C15 11.1046 14.1046 12 13 12H8.75V13.5H12V15H4V13.5H7.25V12H3C1.89543 12 1 11.1046 1 10V3ZM3 2.5C2.72386 2.5 2.5 2.72386 2.5 3V10C2.5 10.2761 2.72386 10.5 3 10.5H13C13.2761 10.5 13.5 10.2761 13.5 10V3C13.5 2.72386 13.2761 2.5 13 2.5H3ZM7.25 5.75V3.5H8.75V5.75H11V7.25H8.75V9.5H7.25V7.25H5V5.75L7.25 5.75Z" fill="#44546F"/>
</svg>
