<svg width="16" height="16" viewBox="0 0 16 16" fill="none" xmlns="http://www.w3.org/2000/svg">
<path fill-rule="evenodd" clip-rule="evenodd" d="M14.7803 1.21969C14.9875 1.42688 15.0551 1.73574 14.9533 2.01051L9.95331 15.5105C9.8512 15.7862 9.59742 15.9768 9.30419 15.9981C9.01096 16.0193 8.73236 15.8673 8.59158 15.6092L5.69721 10.3028L0.390862 7.40844C0.132761 7.26766 -0.0192823 6.98906 0.00196137 6.69583C0.023205 6.4026 0.213818 6.14882 0.489515 6.04671L13.9895 1.04671C14.2643 0.944945 14.5731 1.01251 14.7803 1.21969ZM7.17714 9.88354L9.11915 13.4439L12.3558 4.70485L7.17714 9.88354ZM11.2952 3.64419L2.55614 6.88087L6.11648 8.82288L11.2952 3.64419Z" fill="#292A2E"/>
</svg>
