<svg width="16" height="16" viewBox="0 0 16 16" fill="none" xmlns="http://www.w3.org/2000/svg">
<path fill-rule="evenodd" clip-rule="evenodd" d="M14.7803 1.21967C14.9875 1.42685 15.0551 1.73572 14.9533 2.01048L9.95332 15.5105C9.85121 15.7862 9.59743 15.9768 9.3042 15.998C9.01097 16.0193 8.73237 15.8672 8.59159 15.6091L5.69722 10.3028L0.390869 7.40842C0.132769 7.26764 -0.0192747 6.98904 0.001969 6.69581C0.0232126 6.40257 0.213825 6.1488 0.489523 6.04669L13.9895 1.04669C14.2643 0.944923 14.5732 1.01248 14.7803 1.21967ZM7.17715 9.88352L9.11916 13.4439L12.3558 4.70483L7.17715 9.88352ZM11.2952 3.64417L2.55614 6.88085L6.11649 8.82286L11.2952 3.64417Z" fill="#292A2E"/>
</svg>
