<svg width="16" height="16" viewBox="0 0 16 16" fill="none" xmlns="http://www.w3.org/2000/svg">
<path fill-rule="evenodd" clip-rule="evenodd" d="M14.7803 1.21967C14.9875 1.42685 15.0551 1.73572 14.9533 2.01048L9.95331 15.5105C9.8512 15.7862 9.59742 15.9768 9.30419 15.998C9.01096 16.0193 8.73236 15.8672 8.59158 15.6091L5.69721 10.3028L0.390862 7.40842C0.132761 7.26764 -0.0192823 6.98904 0.00196137 6.69581C0.023205 6.40257 0.213818 6.1488 0.489515 6.04669L13.9895 1.04669C14.2643 0.944923 14.5731 1.01248 14.7803 1.21967ZM7.17714 9.88352L9.11915 13.4439L12.3558 4.70483L7.17714 9.88352ZM11.2952 3.64417L2.55614 6.88085L6.11648 8.82286L11.2952 3.64417Z" fill="#292A2E"/>
</svg>
