<svg width="16" height="16" viewBox="0 0 16 16" fill="none" xmlns="http://www.w3.org/2000/svg">
<path fill-rule="evenodd" clip-rule="evenodd" d="M6.05769 0.461539C6.17414 0.182053 6.44722 0 6.75 0H9.25C9.55278 0 9.82586 0.182053 9.94231 0.461538L10.9684 2.9242L13.546 2.55026C13.8498 2.5062 14.1497 2.65167 14.3032 2.91749L15.5532 5.08256C15.7033 5.34248 15.6839 5.66683 15.504 5.90708L13.9369 8.00001L15.504 10.093C15.6839 10.3332 15.7033 10.6576 15.5532 10.9175L14.3032 13.0826C14.1497 13.3484 13.8498 13.4939 13.546 13.4498L10.9684 13.0758L9.94231 15.5385C9.82586 15.8179 9.55278 16 9.25 16H6.75C6.44722 16 6.17414 15.8179 6.05769 15.5385L5.03159 13.0758L2.454 13.4498C2.15024 13.4939 1.85027 13.3484 1.6968 13.0826L0.446798 10.9175C0.296734 10.6576 0.316072 10.3332 0.495956 10.093L2.06306 8L0.495957 5.90708C0.316069 5.66683 0.29673 5.34248 0.446795 5.08256L1.69679 2.91749C1.85027 2.65167 2.15023 2.50619 2.45399 2.55026L5.03159 2.9242L6.05769 0.461539ZM7.25 1.5L6.37889 3.59068C6.13735 4.17037 5.53374 4.51275 4.91225 4.42259L2.74168 4.1077L1.99321 5.40408L3.31987 7.17588C3.68566 7.66441 3.68567 8.33559 3.31988 8.82412L1.99322 10.596L2.74168 11.8923L4.91223 11.5774C5.53373 11.4873 6.13735 11.8296 6.37889 12.4093L7.25 14.5H8.75L9.62111 12.4093C9.86265 11.8296 10.4663 11.4873 11.0878 11.5774L13.2583 11.8923L14.0068 10.596L12.6801 8.82412C12.3143 8.33559 12.3143 7.66441 12.6801 7.17588L14.0068 5.40408L13.2583 4.1077L11.0878 4.42259C10.4663 4.51275 9.86265 4.17037 9.62112 3.59068L8.75 1.5H7.25ZM8 6.5C7.17157 6.5 6.5 7.17157 6.5 8C6.5 8.82843 7.17157 9.5 8 9.5C8.82843 9.5 9.5 8.82843 9.5 8C9.5 7.17157 8.82843 6.5 8 6.5ZM5 8C5 6.34315 6.34315 5 8 5C9.65685 5 11 6.34315 11 8C11 9.65685 9.65685 11 8 11C6.34315 11 5 9.65685 5 8Z" fill="#44546F"/>
</svg>
