<svg width="16" height="16" viewBox="0 0 16 16" fill="none" xmlns="http://www.w3.org/2000/svg">
<path d="M6.75 0.75L5.68658 3.30221C5.57679 3.56571 5.30242 3.72134 5.01992 3.68036L2.34631 3.29249L1.09631 5.45756L2.71951 7.6254C2.88578 7.84746 2.88578 8.15254 2.71952 8.3746L1.09632 10.5425L2.34632 12.7076L5.01992 12.3197C5.30242 12.2787 5.57679 12.4343 5.68658 12.6978L6.75 15.25H9.25L10.3134 12.6978C10.4232 12.4343 10.6976 12.2787 10.9801 12.3197L13.6537 12.7076L14.9037 10.5425L13.2805 8.3746C13.1142 8.15254 13.1142 7.84746 13.2805 7.6254L14.9037 5.45756L13.6537 3.29249L10.9801 3.68036C10.6976 3.72134 10.4232 3.56571 10.3134 3.30221L9.25 0.75H6.75Z" stroke="#44546F" stroke-width="1.5" stroke-linejoin="round"/>
<path d="M10.25 8C10.25 9.24264 9.24264 10.25 8 10.25C6.75736 10.25 5.75 9.24264 5.75 8C5.75 6.75736 6.75736 5.75 8 5.75C9.24264 5.75 10.25 6.75736 10.25 8Z" stroke="#44546F" stroke-width="1.5" stroke-linejoin="round"/>
</svg>
