<svg width="16" height="16" viewBox="0 0 16 16" fill="none" xmlns="http://www.w3.org/2000/svg">
<path fill-rule="evenodd" clip-rule="evenodd" d="M6 2.25C3.92893 2.25 2.25 3.92893 2.25 6C2.25 7.81422 3.53832 9.32753 5.25 9.67499V7.25C5.25 6.14543 6.14543 5.25 7.25 5.25H9.67499C9.32753 3.53832 7.81422 2.25 6 2.25ZM11.1968 5.25C10.8329 2.70578 8.64485 0.75 6 0.75C3.1005 0.75 0.75 3.1005 0.75 6C0.75 8.64485 2.70578 10.8329 5.25 11.1968V13C5.25 14.1046 6.14543 15 7.25 15H13C14.1046 15 15 14.1046 15 13V7.25C15 6.14543 14.1046 5.25 13 5.25H11.1968ZM7.25 6.75C6.97386 6.75 6.75 6.97386 6.75 7.25V13C6.75 13.2761 6.97386 13.5 7.25 13.5H13C13.2761 13.5 13.5 13.2761 13.5 13V7.25C13.5 6.97386 13.2761 6.75 13 6.75H7.25Z" fill="#44546F"/>
</svg>
