<svg width="16" height="16" viewBox="0 0 16 16" fill="none" xmlns="http://www.w3.org/2000/svg">
<path fill-rule="evenodd" clip-rule="evenodd" d="M15 2.37502C15 1.61562 14.3844 1.00002 13.625 1.00002H10.375C9.61561 1.00002 9 1.61562 9 2.37502V5.62502C9 6.38441 9.61561 7.00002 10.375 7.00002H13.625C14.3844 7.00002 15 6.38441 15 5.62502V2.37502ZM13.5 2.50002V5.50002H10.5V2.50002H13.5Z" fill="#292A2E"/>
<path fill-rule="evenodd" clip-rule="evenodd" d="M3.13176 1.25777C3.51565 0.585953 4.48435 0.585952 4.86825 1.25777L7.43745 5.75388C7.8184 6.42053 7.33703 7.25002 6.56921 7.25002H1.4308C0.662974 7.25002 0.18161 6.42053 0.562556 5.75388L3.13176 1.25777ZM4 2.76169L2.29239 5.75002H5.70762L4 2.76169Z" fill="#292A2E"/>
<path fill-rule="evenodd" clip-rule="evenodd" d="M0.750004 12C0.750004 10.2051 2.20508 8.75002 4 8.75002C5.79493 8.75002 7.25 10.2051 7.25 12C7.25 13.7949 5.79493 15.25 4 15.25C2.20508 15.25 0.750004 13.7949 0.750004 12ZM4 10.25C3.03351 10.25 2.25 11.0335 2.25 12C2.25 12.9665 3.03351 13.75 4 13.75C4.9665 13.75 5.75 12.9665 5.75 12C5.75 11.0335 4.9665 10.25 4 10.25Z" fill="#292A2E"/>
<path fill-rule="evenodd" clip-rule="evenodd" d="M10 9.00002H14.25C14.6642 9.00002 15 9.3358 15 9.75002V14H13.5V11.5607L9.78033 15.2803L8.71967 14.2197L12.4393 10.5H10V9.00002Z" fill="#292A2E"/>
</svg>
