<svg width="16" height="16" viewBox="0 0 16 16" fill="none" xmlns="http://www.w3.org/2000/svg">
<path fill-rule="evenodd" clip-rule="evenodd" d="M15 2.37498C15 1.61559 14.3844 0.999985 13.625 0.999985H10.375C9.6156 0.999985 9 1.61559 9 2.37498V5.62498C9 6.38438 9.6156 6.99998 10.375 6.99998H13.625C14.3844 6.99998 15 6.38438 15 5.62498V2.37498ZM13.5 2.49998V5.49998H10.5V2.49998H13.5Z" fill="#292A2E"/>
<path fill-rule="evenodd" clip-rule="evenodd" d="M3.13175 1.25774C3.51565 0.585922 4.48434 0.585922 4.86824 1.25774L7.43744 5.75385C7.81839 6.4205 7.33702 7.24998 6.5692 7.24998H1.43079C0.662966 7.24998 0.181602 6.4205 0.562548 5.75385L3.13175 1.25774ZM4 2.76166L2.29238 5.74998H5.70761L4 2.76166Z" fill="#292A2E"/>
<path fill-rule="evenodd" clip-rule="evenodd" d="M0.749996 12C0.749996 10.2051 2.20507 8.74998 4 8.74998C5.79492 8.74998 7.25 10.2051 7.25 12C7.25 13.7949 5.79492 15.25 4 15.25C2.20507 15.25 0.749996 13.7949 0.749996 12ZM4 10.25C3.0335 10.25 2.25 11.0335 2.25 12C2.25 12.9665 3.0335 13.75 4 13.75C4.96649 13.75 5.75 12.9665 5.75 12C5.75 11.0335 4.96649 10.25 4 10.25Z" fill="#292A2E"/>
<path fill-rule="evenodd" clip-rule="evenodd" d="M10 8.99998H14.25C14.6642 8.99998 15 9.33577 15 9.74998V14H13.5V11.5606L9.78033 15.2803L8.71967 14.2197L12.4393 10.5H10V8.99998Z" fill="#292A2E"/>
</svg>
