<svg width="16" height="16" viewBox="0 0 16 16" fill="none" xmlns="http://www.w3.org/2000/svg">
<path fill-rule="evenodd" clip-rule="evenodd" d="M12 2.5C11.4477 2.5 11 2.94772 11 3.5C11 3.66214 11.038 3.81324 11.105 3.94686C11.2701 4.27641 11.6096 4.5 12 4.5C12.5523 4.5 13 4.05228 13 3.5C13 2.94772 12.5523 2.5 12 2.5ZM9.5 3.5C9.5 2.11929 10.6193 1 12 1C13.3807 1 14.5 2.11929 14.5 3.5C14.5 4.88071 13.3807 6 12 6C11.3076 6 10.6816 5.71845 10.2294 5.26479L6.2126 7.56748C6.23719 7.70819 6.25 7.85274 6.25 8C6.25 8.14726 6.23719 8.29181 6.2126 8.43252L10.2294 10.7352C10.6816 10.2816 11.3076 10 12 10C13.3807 10 14.5 11.1193 14.5 12.5C14.5 13.8807 13.3807 15 12 15C10.6193 15 9.5 13.8807 9.5 12.5C9.5 12.3527 9.51281 12.2082 9.5374 12.0675L5.52057 9.76479C5.06839 10.2184 4.44241 10.5 3.75 10.5C2.36929 10.5 1.25 9.38071 1.25 8C1.25 6.61929 2.36929 5.5 3.75 5.5C4.44241 5.5 5.06839 5.78155 5.52057 6.23521L9.5374 3.93252C9.51281 3.79181 9.5 3.64726 9.5 3.5ZM3.75 7C3.19772 7 2.75 7.44772 2.75 8C2.75 8.55228 3.19772 9 3.75 9C4.1404 9 4.47994 8.77641 4.64503 8.44686C4.71197 8.31324 4.75 8.16214 4.75 8C4.75 7.83786 4.71197 7.68676 4.64503 7.55314C4.47994 7.22359 4.1404 7 3.75 7ZM12 11.5C11.6096 11.5 11.2701 11.7236 11.105 12.0531C11.038 12.1868 11 12.3379 11 12.5C11 13.0523 11.4477 13.5 12 13.5C12.5523 13.5 13 13.0523 13 12.5C13 11.9477 12.5523 11.5 12 11.5Z" fill="#292A2E"/>
</svg>
