<svg width="16" height="16" viewBox="0 0 16 16" fill="none" xmlns="http://www.w3.org/2000/svg">
<path d="M10.4344 11.7172C10.3164 11.9527 10.25 12.2186 10.25 12.5C10.25 13.4665 11.0335 14.25 12 14.25C12.9665 14.25 13.75 13.4665 13.75 12.5C13.75 11.5335 12.9665 10.75 12 10.75C11.3149 10.75 10.7217 11.1437 10.4344 11.7172ZM10.4344 11.7172L5.31559 8.78279M5.31559 8.78279C5.43359 8.54725 5.5 8.28138 5.5 8C5.5 7.71862 5.43359 7.45275 5.31559 7.21721M5.31559 8.78279C5.02828 9.3563 4.43512 9.75 3.75 9.75C2.7835 9.75 2 8.9665 2 8C2 7.0335 2.7835 6.25 3.75 6.25C4.43512 6.25 5.02828 6.6437 5.31559 7.21721M5.31559 7.21721L10.4344 4.28279M10.4344 4.28279C10.7217 4.8563 11.3149 5.25 12 5.25C12.9665 5.25 13.75 4.4665 13.75 3.5C13.75 2.5335 12.9665 1.75 12 1.75C11.0335 1.75 10.25 2.5335 10.25 3.5C10.25 3.78138 10.3164 4.04725 10.4344 4.28279Z" stroke="#44546F" stroke-width="1.5"/>
</svg>
