<svg width="16" height="16" viewBox="0 0 16 16" fill="none" xmlns="http://www.w3.org/2000/svg">
<path fill-rule="evenodd" clip-rule="evenodd" d="M7.46967 0.21967C7.76256 -0.0732233 8.23744 -0.0732233 8.53033 0.21967C9.82834 1.51768 11.3136 2.41144 12.4847 2.98201C13.0682 3.26626 13.5681 3.46759 13.9194 3.59702C14.0949 3.66169 14.2329 3.70824 14.3252 3.73811C14.3713 3.75303 14.406 3.76378 14.4281 3.77051L14.4519 3.77763L14.456 3.77886C14.7778 3.87096 15 4.16525 15 4.5C15 6.83818 14.5199 8.74809 13.8056 10.2907L12.4444 9.66036C13.0118 8.43519 13.4241 6.91394 13.4906 5.03724C13.4617 5.02681 13.4317 5.01591 13.4009 5.00454C13.01 4.86054 12.4631 4.63999 11.8278 4.33049C10.7135 3.78766 9.31017 2.96277 8 1.78332C7.3941 2.32877 6.76899 2.79774 6.16304 3.19755L5.33695 1.94552C6.05279 1.47321 6.7876 0.901742 7.46967 0.21967ZM2.41012 3.47078L0.469669 1.53033L1.53033 0.46967L15.5303 14.4697L14.4697 15.5303L12.0011 13.0617C11.1968 13.9743 10.3662 14.6223 9.69645 15.059C9.2913 15.3232 8.94312 15.5114 8.69209 15.6351C8.56649 15.697 8.46493 15.7429 8.39241 15.7742C8.35613 15.7899 8.32709 15.8019 8.30589 15.8105L8.28005 15.8208L8.27167 15.8241L8.26865 15.8252L8.26743 15.8257C8.26719 15.8258 8.26641 15.8261 8 15.125C7.73359 15.8261 7.73317 15.8259 7.73272 15.8258L7.73172 15.8254L7.72927 15.8244L7.72267 15.8219L7.70275 15.814C7.68654 15.8075 7.6645 15.7985 7.63704 15.7868C7.58212 15.7635 7.50542 15.7297 7.41005 15.6845C7.21941 15.5941 6.95353 15.4577 6.63757 15.2681C6.00641 14.8894 5.17004 14.2952 4.33437 13.4261C2.6512 11.6756 0.999999 8.83769 0.999999 4.5C0.999999 4.16539 1.22165 3.87129 1.54323 3.77906C1.54347 3.779 1.54299 3.77913 1.54323 3.77906L1.75 4.5C1.54396 3.77886 1.54331 3.77904 1.54323 3.77906L1.54741 3.77784L1.56837 3.77157C1.58804 3.76562 1.61893 3.75608 1.66018 3.74282C1.74269 3.7163 1.86651 3.67491 2.0247 3.61746C2.13688 3.57672 2.26617 3.52796 2.41012 3.47078ZM3.55589 4.61655C3.15136 4.79506 2.80345 4.9305 2.53674 5.02736C2.52754 5.0307 2.51844 5.03399 2.50944 5.03724C2.63719 8.64067 4.04094 10.9567 5.41562 12.3864C6.14246 13.1423 6.86859 13.6574 7.40931 13.9819C7.64937 14.1259 7.85181 14.2317 8 14.3038C8.00946 14.2992 8.01914 14.2945 8.02904 14.2896C8.23285 14.1891 8.52805 14.0302 8.87713 13.8026C9.47288 13.4141 10.22 12.8292 10.938 11.9986L3.55589 4.61655ZM8 15.125L7.73272 15.8258C7.90435 15.891 8.09479 15.8913 8.26641 15.8261L8 15.125Z" fill="#44546F"/>
</svg>
