<svg width="16" height="16" viewBox="0 0 16 16" fill="none" xmlns="http://www.w3.org/2000/svg">
<path d="M9.87386 13.0559L10.9374 14.1195C10.3583 14.6243 9.80892 15.0002 9.36233 15.2681C9.04636 15.4577 8.78048 15.5941 8.58985 15.6845C8.49448 15.7297 8.41777 15.7635 8.36285 15.7868C8.33539 15.7985 8.31335 15.8075 8.29714 15.814L8.27722 15.8219L8.27062 15.8244L8.26818 15.8254L8.26717 15.8258L7.99989 15.125L7.73262 15.8258L7.73161 15.8254L7.72917 15.8244L7.72257 15.8219L7.70265 15.814C7.68643 15.8075 7.6644 15.7985 7.63693 15.7868C7.58201 15.7635 7.50531 15.7297 7.40994 15.6845C7.21931 15.5941 6.95342 15.4577 6.63746 15.2681C6.0063 14.8894 5.16994 14.2952 4.33427 13.4261C2.6511 11.6756 0.999893 8.83769 0.999893 4.5C0.999893 4.40616 1.01733 4.3155 1.04951 4.2316L1.92317 5.10525C1.95646 5.22099 1.95683 5.22089 1.95683 5.22089L1.95804 5.22054L1.96143 5.21956L1.972 5.21647L2.00798 5.20568L2.01994 5.20203L2.55083 5.73292C2.82195 8.94205 4.13141 11.0509 5.41552 12.3864C6.14235 13.1423 6.86848 13.6574 7.4092 13.9819C7.64926 14.1259 7.8517 14.2317 7.99989 14.3038C8.14808 14.2317 8.35053 14.1259 8.59058 13.9819C8.95345 13.7642 9.39982 13.4606 9.87386 13.0559Z" fill="#292A2E"/>
<path d="M7.73262 15.8258C7.73262 15.8258 7.73348 15.8261 7.99989 15.125C8.26631 15.8261 8.26717 15.8258 8.26717 15.8258C8.09555 15.891 7.90424 15.891 7.73262 15.8258Z" fill="#292A2E"/>
<path d="M7.46956 0.21967C6.74566 0.943576 5.96352 1.54175 5.21011 2.02824L6.29284 3.11096C6.85889 2.72982 7.43797 2.28918 7.99989 1.78332C9.31006 2.96277 10.7134 3.78766 11.8277 4.33049C12.4629 4.63999 13.0099 4.86054 13.4008 5.00454C13.4316 5.01591 13.4615 5.02681 13.4905 5.03724C13.4291 6.76903 13.0729 8.20348 12.567 9.3851L13.6981 10.5162C14.467 8.94442 14.9999 6.96423 14.9999 4.5C14.9999 4.16525 14.7777 3.87096 14.4559 3.77886L14.4517 3.77763L14.428 3.77051C14.4059 3.76378 14.3712 3.75303 14.3251 3.73811C14.2328 3.70824 14.0948 3.66169 13.9193 3.59702C13.568 3.46759 13.0681 3.26626 12.4846 2.98201C11.3135 2.41144 9.82824 1.51768 8.53022 0.21967C8.23733 -0.0732233 7.76246 -0.0732233 7.46956 0.21967Z" fill="#292A2E"/>
<path d="M0.46962 1.53039L14.4696 15.5304L15.5303 14.4697L1.53028 0.469727L0.46962 1.53039Z" fill="#292A2E"/>
</svg>
