<svg width="16" height="16" viewBox="0 0 16 16" fill="none" xmlns="http://www.w3.org/2000/svg">
<path d="M9.87385 13.0559L10.9374 14.1195C10.3583 14.6243 9.80891 15.0002 9.36232 15.2681C9.04636 15.4577 8.78047 15.5941 8.58984 15.6845C8.49447 15.7297 8.41776 15.7635 8.36285 15.7868C8.33538 15.7985 8.31335 15.8075 8.29713 15.814L8.27721 15.8219L8.27061 15.8244L8.26817 15.8254L8.26716 15.8258L7.99989 15.125L7.73261 15.8258L7.7316 15.8254L7.72916 15.8244L7.72256 15.8219L7.70264 15.814C7.68642 15.8075 7.66439 15.7985 7.63692 15.7868C7.58201 15.7635 7.5053 15.7297 7.40993 15.6845C7.2193 15.5941 6.95342 15.4577 6.63745 15.2681C6.00629 14.8894 5.16993 14.2952 4.33426 13.4261C2.65109 11.6756 0.999886 8.83769 0.999886 4.5C0.999886 4.40616 1.01732 4.3155 1.0495 4.2316L1.92316 5.10525C1.95645 5.22099 1.95682 5.22089 1.95682 5.22089L1.95803 5.22054L1.96142 5.21956L1.97199 5.21647L2.00797 5.20568L2.01994 5.20203L2.55082 5.73292C2.82195 8.94205 4.13141 11.0509 5.41551 12.3864C6.14234 13.1423 6.86848 13.6574 7.40919 13.9819C7.64925 14.1259 7.85169 14.2317 7.99989 14.3038C8.14808 14.2317 8.35052 14.1259 8.59058 13.9819C8.95344 13.7642 9.39981 13.4606 9.87385 13.0559Z" fill="#44546F"/>
<path d="M7.73261 15.8258C7.73261 15.8258 7.73347 15.8261 7.99989 15.125C8.2663 15.8261 8.26716 15.8258 8.26716 15.8258C8.09554 15.891 7.90423 15.891 7.73261 15.8258Z" fill="#44546F"/>
<path d="M7.46956 0.21967C6.74565 0.943576 5.96352 1.54175 5.21011 2.02824L6.29283 3.11096C6.85888 2.72982 7.43796 2.28918 7.99989 1.78332C9.31005 2.96277 10.7134 3.78766 11.8277 4.33049C12.4629 4.63999 13.0099 4.86054 13.4008 5.00454C13.4316 5.01591 13.4615 5.02681 13.4904 5.03724C13.4291 6.76903 13.0729 8.20348 12.567 9.3851L13.6981 10.5162C14.467 8.94442 14.9999 6.96423 14.9999 4.5C14.9999 4.16525 14.7777 3.87096 14.4559 3.77886L14.4517 3.77763L14.428 3.77051C14.4059 3.76378 14.3712 3.75303 14.3251 3.73811C14.2328 3.70824 14.0948 3.66169 13.9193 3.59702C13.568 3.46759 13.0681 3.26626 12.4846 2.98201C11.3134 2.41144 9.82823 1.51768 8.53022 0.21967C8.23732 -0.0732233 7.76245 -0.0732233 7.46956 0.21967Z" fill="#44546F"/>
<path d="M0.469612 1.53039L14.4696 15.5304L15.5303 14.4697L1.53027 0.469727L0.469612 1.53039Z" fill="#44546F"/>
</svg>
