<svg width="16" height="16" viewBox="0 0 16 16" fill="none" xmlns="http://www.w3.org/2000/svg">
<path fill-rule="evenodd" clip-rule="evenodd" d="M8.53033 0.21967C8.23744 -0.0732233 7.76256 -0.0732233 7.46967 0.21967C6.17166 1.51768 4.68644 2.41144 3.51527 2.98201C2.9318 3.26626 2.43189 3.46759 2.08056 3.59702C1.90505 3.66169 1.76707 3.70824 1.6748 3.73811C1.62869 3.75303 1.59403 3.76378 1.57187 3.77051L1.54815 3.77763L1.54322 3.77907C1.22164 3.8713 1 4.1654 1 4.5C1 8.83769 2.6512 11.6756 4.33438 13.4261C5.17004 14.2952 6.00641 14.8894 6.63757 15.2681C6.95353 15.4577 7.21941 15.5941 7.41005 15.6845C7.50542 15.7297 7.58212 15.7635 7.63704 15.7868C7.6645 15.7985 7.68654 15.8075 7.70275 15.814L7.72267 15.8219L7.72927 15.8244L7.73172 15.8254L7.73272 15.8258C7.90435 15.891 8.09565 15.891 8.26728 15.8258L8.26828 15.8254L8.27073 15.8244L8.27733 15.8219L8.29725 15.814C8.31346 15.8075 8.3355 15.7985 8.36296 15.7868C8.41788 15.7635 8.49458 15.7297 8.58995 15.6845C8.78059 15.5941 9.04647 15.4577 9.36243 15.2681C9.99359 14.8894 10.83 14.2952 11.6656 13.4261C13.3488 11.6756 15 8.83769 15 4.5C15 4.16525 14.7778 3.87096 14.456 3.77886L14.4519 3.77763L14.4281 3.77051C14.406 3.76378 14.3713 3.75303 14.3252 3.73811C14.2329 3.70824 14.0949 3.66169 13.9194 3.59702C13.5681 3.46759 13.0682 3.26626 12.4847 2.98201C11.3136 2.41144 9.82834 1.51768 8.53033 0.21967ZM8 1.78332C6.68984 2.96277 5.28647 3.78766 4.17223 4.33049C3.53695 4.63999 2.98999 4.86054 2.59912 5.00454C2.56825 5.01591 2.53835 5.02681 2.50944 5.03724C2.63719 8.64067 4.04094 10.9567 5.41562 12.3864C6.14246 13.1423 6.86859 13.6574 7.40931 13.9819C7.64937 14.1259 7.85181 14.2317 8 14.3038C8.14819 14.2317 8.35063 14.1259 8.59069 13.9819C9.13141 13.6574 9.85754 13.1423 10.5844 12.3864C11.9591 10.9567 13.3628 8.64067 13.4906 5.03724C13.4617 5.02681 13.4317 5.01591 13.4009 5.00454C13.01 4.86054 12.4631 4.63999 11.8278 4.33049C10.7135 3.78766 9.31017 2.96277 8 1.78332Z" fill="#292A2E"/>
</svg>
