<svg width="16" height="16" viewBox="0 0 16 16" fill="none" xmlns="http://www.w3.org/2000/svg">
<path fill-rule="evenodd" clip-rule="evenodd" d="M12.25 2.25023L12.25 0.000228882H13.75L13.75 2.25023H16V3.75023H13.75L13.75 6.00023H12.25L12.25 3.75023H10V2.25023H12.25ZM3 2.50023C2.72386 2.50023 2.5 2.72409 2.5 3.00023V13.0002C2.5 13.2764 2.72386 13.5002 3 13.5002H13C13.2761 13.5002 13.5 13.2764 13.5 13.0002V8.5H15V13.0002C15 14.1048 14.1046 15.0002 13 15.0002H3C1.89543 15.0002 1 14.1048 1 13.0002V3.00023C1 1.89566 1.89543 1.00023 3 1.00023H7.5V2.50023H3Z" fill="#292A2E"/>
</svg>
