<svg width="16" height="16" viewBox="0 0 16 16" fill="none" xmlns="http://www.w3.org/2000/svg">
<path d="M2.25 8C2.25 8.41421 1.91421 8.75 1.5 8.75C1.08579 8.75 0.75 8.41421 0.75 8C0.75 7.58579 1.08579 7.25 1.5 7.25C1.91421 7.25 2.25 7.58579 2.25 8Z" fill="#44546F"/>
<path d="M8.75 8C8.75 8.41421 8.41421 8.75 8 8.75C7.58579 8.75 7.25 8.41421 7.25 8C7.25 7.58579 7.58579 7.25 8 7.25C8.41421 7.25 8.75 7.58579 8.75 8Z" fill="#44546F"/>
<path d="M15.25 8C15.25 8.41421 14.9142 8.75 14.5 8.75C14.0858 8.75 13.75 8.41421 13.75 8C13.75 7.58579 14.0858 7.25 14.5 7.25C14.9142 7.25 15.25 7.58579 15.25 8Z" fill="#44546F"/>
<path d="M2.25 8C2.25 8.41421 1.91421 8.75 1.5 8.75C1.08579 8.75 0.75 8.41421 0.75 8C0.75 7.58579 1.08579 7.25 1.5 7.25C1.91421 7.25 2.25 7.58579 2.25 8Z" stroke="#44546F" stroke-width="1.5"/>
<path d="M8.75 8C8.75 8.41421 8.41421 8.75 8 8.75C7.58579 8.75 7.25 8.41421 7.25 8C7.25 7.58579 7.58579 7.25 8 7.25C8.41421 7.25 8.75 7.58579 8.75 8Z" stroke="#44546F" stroke-width="1.5"/>
<path d="M15.25 8C15.25 8.41421 14.9142 8.75 14.5 8.75C14.0858 8.75 13.75 8.41421 13.75 8C13.75 7.58579 14.0858 7.25 14.5 7.25C14.9142 7.25 15.25 7.58579 15.25 8Z" stroke="#44546F" stroke-width="1.5"/>
</svg>
