<svg width="16" height="16" viewBox="0 0 16 16" fill="none" xmlns="http://www.w3.org/2000/svg">
<path d="M8.75 1.5C8.75 1.91421 8.41421 2.25 8 2.25C7.58579 2.25 7.25 1.91421 7.25 1.5C7.25 1.08579 7.58579 0.75 8 0.75C8.41421 0.75 8.75 1.08579 8.75 1.5Z" fill="#44546F"/>
<path d="M8.75 8C8.75 8.41421 8.41421 8.75 8 8.75C7.58579 8.75 7.25 8.41421 7.25 8C7.25 7.58579 7.58579 7.25 8 7.25C8.41421 7.25 8.75 7.58579 8.75 8Z" fill="#44546F"/>
<path d="M8.75 14.5C8.75 14.9142 8.41421 15.25 8 15.25C7.58579 15.25 7.25 14.9142 7.25 14.5C7.25 14.0858 7.58579 13.75 8 13.75C8.41421 13.75 8.75 14.0858 8.75 14.5Z" fill="#44546F"/>
<path d="M8.75 1.5C8.75 1.91421 8.41421 2.25 8 2.25C7.58579 2.25 7.25 1.91421 7.25 1.5C7.25 1.08579 7.58579 0.75 8 0.75C8.41421 0.75 8.75 1.08579 8.75 1.5Z" stroke="#44546F" stroke-width="1.5"/>
<path d="M8.75 8C8.75 8.41421 8.41421 8.75 8 8.75C7.58579 8.75 7.25 8.41421 7.25 8C7.25 7.58579 7.58579 7.25 8 7.25C8.41421 7.25 8.75 7.58579 8.75 8Z" stroke="#44546F" stroke-width="1.5"/>
<path d="M8.75 14.5C8.75 14.9142 8.41421 15.25 8 15.25C7.58579 15.25 7.25 14.9142 7.25 14.5C7.25 14.0858 7.58579 13.75 8 13.75C8.41421 13.75 8.75 14.0858 8.75 14.5Z" stroke="#44546F" stroke-width="1.5"/>
</svg>
