<svg width="16" height="16" viewBox="0 0 16 16" fill="none" xmlns="http://www.w3.org/2000/svg">
<path fill-rule="evenodd" clip-rule="evenodd" d="M8.75 9.75001L8.75 16H7.25L7.25 9.75001H8.75ZM7.25 6.25001L7.25 7.69496e-06L8.75 7.62939e-06L8.75 6.25001H7.25Z" fill="#292A2E"/>
<path fill-rule="evenodd" clip-rule="evenodd" d="M8 10.8107L5.03033 13.7803L3.96967 12.7197L7.46967 9.21968C7.76256 8.92678 8.23743 8.92678 8.53033 9.21968L12.0303 12.7197L10.9697 13.7803L8 10.8107ZM7.46967 6.78034L3.96967 3.28034L5.03033 2.21968L8 5.18935L10.9697 2.21968L12.0303 3.28034L8.53033 6.78034C8.23743 7.07323 7.76256 7.07323 7.46967 6.78034Z" fill="#292A2E"/>
</svg>
