<svg width="16" height="16" viewBox="0 0 16 16" fill="none" xmlns="http://www.w3.org/2000/svg">
<path fill-rule="evenodd" clip-rule="evenodd" d="M8.74999 9.75L8.74999 16H7.24999L7.24999 9.75H8.74999ZM7.24999 6.25L7.24999 6.55673e-08L8.74999 0L8.74999 6.25H7.24999Z" fill="#292A2E"/>
<path fill-rule="evenodd" clip-rule="evenodd" d="M7.99999 10.8107L5.03032 13.7803L3.96966 12.7197L7.46966 9.21967C7.76256 8.92678 8.23743 8.92678 8.53032 9.21967L12.0303 12.7197L10.9697 13.7803L7.99999 10.8107ZM7.46966 6.78033L3.96966 3.28033L5.03032 2.21967L7.99999 5.18934L10.9697 2.21967L12.0303 3.28033L8.53032 6.78033C8.23743 7.07322 7.76256 7.07322 7.46966 6.78033Z" fill="#292A2E"/>
</svg>
