<svg width="16" height="16" viewBox="0 0 16 16" fill="none" xmlns="http://www.w3.org/2000/svg">
<path fill-rule="evenodd" clip-rule="evenodd" d="M2 2.5C1.72386 2.5 1.5 2.72386 1.5 3V13C1.5 13.2761 1.72386 13.5 2 13.5H4V2.5H2ZM5.5 2.5V13.5H14C14.2761 13.5 14.5 13.2761 14.5 13V3C14.5 2.72386 14.2761 2.5 14 2.5H5.5ZM0 3C0 1.89543 0.89543 1 2 1H14C15.1046 1 16 1.89543 16 3V13C16 14.1046 15.1046 15 14 15H2C0.895431 15 0 14.1046 0 13V3ZM7.96967 7.46967L10.4697 4.96967L11.5303 6.03033L9.56066 8L11.5303 9.96967L10.4697 11.0303L7.96967 8.53033C7.67678 8.23744 7.67678 7.76256 7.96967 7.46967Z" fill="#44546F"/>
</svg>
