<svg width="16" height="16" viewBox="0 0 16 16" fill="none" xmlns="http://www.w3.org/2000/svg">
<path fill-rule="evenodd" clip-rule="evenodd" d="M14 2.5C14.2761 2.5 14.5 2.72386 14.5 3V13C14.5 13.2761 14.2761 13.5 14 13.5H12V2.5H14ZM10.5 2.5V13.5H2C1.72386 13.5 1.5 13.2761 1.5 13V3C1.5 2.72386 1.72386 2.5 2 2.5H10.5ZM16 3C16 1.89543 15.1046 1 14 1H2C0.895431 1 0 1.89543 0 3V13C0 14.1046 0.895431 15 2 15H14C15.1046 15 16 14.1046 16 13V3ZM8.03033 7.46967L5.53033 4.96967L4.46967 6.03033L6.43934 8L4.46967 9.96967L5.53033 11.0303L8.03033 8.53033C8.32322 8.23744 8.32322 7.76256 8.03033 7.46967Z" fill="#44546F"/>
</svg>
