<svg width="16" height="16" viewBox="0 0 16 16" fill="none" xmlns="http://www.w3.org/2000/svg">
<path d="M4.99985 6.50034L2.74985 8.75034C1.50721 9.99298 1.50721 12.0077 2.74985 13.2503C3.88716 14.3877 5.67121 14.4841 6.91816 13.5395M10.9999 9.50034L13.2499 7.25034C14.4925 6.0077 14.4925 3.99298 13.2499 2.75034C12.1125 1.61303 10.3285 1.51663 9.08154 2.46113M9.08154 2.46113C8.8086 2.17711 8.42487 2.00034 7.99985 2.00034C7.17143 2.00034 6.49985 2.67191 6.49985 3.50034C6.49985 4.32877 7.17143 5.00034 7.99985 5.00034C8.82828 5.00034 9.49985 4.32877 9.49985 3.50034C9.49985 3.09693 9.3406 2.73072 9.08154 2.46113ZM6.91816 13.5395C7.1911 13.8236 7.57483 14.0003 7.99985 14.0003C8.82828 14.0003 9.49985 13.3288 9.49985 12.5003C9.49985 11.6719 8.82828 11.0003 7.99985 11.0003C7.17143 11.0003 6.49985 11.6719 6.49985 12.5003C6.49985 12.9037 6.6591 13.27 6.91816 13.5395Z" stroke="#44546F" stroke-width="1.5"/>
</svg>
