<svg width="16" height="16" viewBox="0 0 16 16" fill="none" xmlns="http://www.w3.org/2000/svg">
<path fill-rule="evenodd" clip-rule="evenodd" d="M1 3C1 1.89543 1.89543 1 3 1H13C14.1046 1 15 1.89543 15 3V13C15 14.1046 14.1046 15 13 15H3C1.89543 15 1 14.1046 1 13V3ZM3 2.5C2.72386 2.5 2.5 2.72386 2.5 3V7H13.5V3C13.5 2.72386 13.2761 2.5 13 2.5H3ZM13.5 8.5H2.5V13C2.5 13.2761 2.72386 13.5 3 13.5H13C13.2761 13.5 13.5 13.2761 13.5 13V8.5ZM5.5 5.5H4V4H5.5V5.5ZM12 5.5H7V4H12V5.5Z" fill="#44546F"/>
</svg>
