<svg width="16" height="16" viewBox="0 0 16 16" fill="none" xmlns="http://www.w3.org/2000/svg">
<path d="M4.99985 6.49997L2.74985 8.74997C1.50721 9.99262 1.50721 12.0073 2.74985 13.25C3.88716 14.3873 5.67121 14.4837 6.91816 13.5392M10.9999 9.49997L13.2499 7.24997C14.4925 6.00733 14.4925 3.99261 13.2499 2.74997C12.1125 1.61266 10.3285 1.51626 9.08154 2.46077M9.08154 2.46077C8.8086 2.17674 8.42487 1.99997 7.99985 1.99997C7.17143 1.99997 6.49985 2.67155 6.49985 3.49997C6.49985 4.3284 7.17143 4.99997 7.99985 4.99997C8.82828 4.99997 9.49985 4.3284 9.49985 3.49997C9.49985 3.09657 9.3406 2.73035 9.08154 2.46077ZM6.91816 13.5392C7.1911 13.8232 7.57483 14 7.99985 14C8.82828 14 9.49985 13.3284 9.49985 12.5C9.49985 11.6715 8.82828 11 7.99985 11C7.17143 11 6.49985 11.6715 6.49985 12.5C6.49985 12.9034 6.6591 13.2696 6.91816 13.5392Z" stroke="#44546F" stroke-width="1.5"/>
</svg>
