<svg width="16" height="16" viewBox="0 0 16 16" fill="none" xmlns="http://www.w3.org/2000/svg">
<path fill-rule="evenodd" clip-rule="evenodd" d="M2 4.5C1.72386 4.5 1.5 4.72386 1.5 5V11C1.5 11.2761 1.72386 11.5 2 11.5H10V4.5H2ZM11.5 4.5V11.5H14C14.2761 11.5 14.5 11.2761 14.5 11V5C14.5 4.72386 14.2761 4.5 14 4.5H11.5ZM0 5C0 3.89543 0.89543 3 2 3H14C15.1046 3 16 3.89543 16 5V11C16 12.1046 15.1046 13 14 13H2C0.89543 13 0 12.1046 0 11V5ZM8.5 7.5H3V6H8.5V7.5ZM6 10H3V8.5H6V10Z" fill="#292A2E"/>
</svg>
