<svg width="16" height="16" viewBox="0 0 16 16" fill="none" xmlns="http://www.w3.org/2000/svg">
<path fill-rule="evenodd" clip-rule="evenodd" d="M9.11745 1.54723C10.6097 0.733029 12.5172 0.956964 13.7802 2.21997C15.3157 3.75551 15.3157 6.2451 13.7802 7.78063L11.5302 10.0306L10.4695 8.96997L12.7195 6.71997C13.6693 5.77022 13.6693 4.23038 12.7195 3.28063C12.0158 2.57693 10.9873 2.39444 10.1157 2.73386C10.2025 2.97317 10.2499 3.23136 10.2499 3.5003C10.2499 4.74294 9.24249 5.7503 7.99985 5.7503C6.75721 5.7503 5.74985 4.74294 5.74985 3.5003C5.74985 2.25766 6.75721 1.2503 7.99985 1.2503C8.40642 1.2503 8.78822 1.35854 9.11745 1.54723ZM7.99985 2.7503C7.58564 2.7503 7.24985 3.08609 7.24985 3.5003C7.24985 3.91452 7.58564 4.2503 7.99985 4.2503C8.41407 4.2503 8.74985 3.91452 8.74985 3.5003C8.74985 3.29829 8.67098 3.11627 8.54076 2.98077C8.40337 2.83779 8.21247 2.7503 7.99985 2.7503ZM2.21952 8.21997L4.46952 5.96997L5.53018 7.03063L3.28018 9.28063C2.33043 10.2304 2.33043 11.7702 3.28018 12.72C3.98388 13.4237 5.01237 13.6062 5.88397 13.2667C5.79723 13.0274 5.74985 12.7692 5.74985 12.5003C5.74985 11.2577 6.75721 10.2503 7.99985 10.2503C9.24249 10.2503 10.2499 11.2577 10.2499 12.5003C10.2499 13.7429 9.24249 14.7503 7.99985 14.7503C7.59329 14.7503 7.21148 14.6421 6.88226 14.4534C5.38997 15.2676 3.48253 15.0436 2.21952 13.7806C0.683988 12.2451 0.683987 9.75551 2.21952 8.21997ZM7.99985 11.7503C7.58564 11.7503 7.24985 12.0861 7.24985 12.5003C7.24985 12.7023 7.32873 12.8843 7.45894 13.0198C7.59633 13.1628 7.78724 13.2503 7.99985 13.2503C8.41407 13.2503 8.74985 12.9145 8.74985 12.5003C8.74985 12.0861 8.41407 11.7503 7.99985 11.7503Z" fill="#44546F"/>
</svg>
