<svg width="16" height="16" viewBox="0 0 16 16" fill="none" xmlns="http://www.w3.org/2000/svg">
<path fill-rule="evenodd" clip-rule="evenodd" d="M9.11745 1.54727C10.6097 0.733067 12.5172 0.957002 13.7802 2.22001C15.3157 3.75554 15.3157 6.24514 13.7802 7.78067L11.5302 10.0307L10.4695 8.97001L12.7195 6.72001C13.6693 5.77026 13.6693 4.23042 12.7195 3.28067C12.0158 2.57697 10.9873 2.39448 10.1157 2.7339C10.2025 2.97321 10.2499 3.2314 10.2499 3.50034C10.2499 4.74298 9.24249 5.75034 7.99985 5.75034C6.75721 5.75034 5.74985 4.74298 5.74985 3.50034C5.74985 2.2577 6.75721 1.25034 7.99985 1.25034C8.40642 1.25034 8.78822 1.35857 9.11745 1.54727ZM7.99985 2.75034C7.58564 2.75034 7.24985 3.08613 7.24985 3.50034C7.24985 3.91455 7.58564 4.25034 7.99985 4.25034C8.41407 4.25034 8.74985 3.91455 8.74985 3.50034C8.74985 3.29833 8.67098 3.11631 8.54076 2.9808C8.40337 2.83783 8.21247 2.75034 7.99985 2.75034ZM2.21952 8.22001L4.46952 5.97001L5.53018 7.03067L3.28018 9.28067C2.33043 10.2304 2.33043 11.7703 3.28018 12.72C3.98388 13.4237 5.01237 13.6062 5.88397 13.2668C5.79723 13.0275 5.74985 12.7693 5.74985 12.5003C5.74985 11.2577 6.75721 10.2503 7.99985 10.2503C9.24249 10.2503 10.2499 11.2577 10.2499 12.5003C10.2499 13.743 9.24249 14.7503 7.99985 14.7503C7.59329 14.7503 7.21148 14.6421 6.88226 14.4534C5.38997 15.2676 3.48253 15.0437 2.21952 13.7807C0.683988 12.2451 0.683987 9.75555 2.21952 8.22001ZM7.99985 11.7503C7.58564 11.7503 7.24985 12.0861 7.24985 12.5003C7.24985 12.7023 7.32873 12.8844 7.45894 13.0199C7.59633 13.1628 7.78724 13.2503 7.99985 13.2503C8.41407 13.2503 8.74985 12.9146 8.74985 12.5003C8.74985 12.0861 8.41407 11.7503 7.99985 11.7503Z" fill="#292A2E"/>
</svg>
