<svg width="16" height="16" viewBox="0 0 16 16" fill="none" xmlns="http://www.w3.org/2000/svg">
<path fill-rule="evenodd" clip-rule="evenodd" d="M13.75 14.6648C12.5589 15.3525 11.037 14.9485 10.3429 13.7634L8.00002 10.0461L5.65714 13.7634C4.96305 14.9485 3.44118 15.3525 2.25002 14.6648C1.05429 13.9744 0.644601 12.4454 1.33496 11.2497C2.02531 10.054 3.55429 9.64428 4.75002 10.3346C5.08733 10.5294 5.36209 10.7909 5.56725 11.0928L7.11349 8.63947L7.11294 8.6386L7.99947 7.232L8.00002 7.23286L11.8655 1.09972L13.1345 1.89952L8.88656 8.63947L10.4328 11.0928C10.638 10.7909 10.9127 10.5294 11.25 10.3346C12.4458 9.64428 13.9747 10.054 14.6651 11.2497C15.3554 12.4454 14.9458 13.9744 13.75 14.6648ZM13 13.3657C12.5217 13.6419 11.9101 13.478 11.634 12.9997C11.3579 12.5214 11.5217 11.9098 12 11.6337C12.4783 11.3575 13.0899 11.5214 13.366 11.9997C13.6422 12.478 13.4783 13.0896 13 13.3657ZM4.36605 12.9997C4.0899 13.478 3.47831 13.6419 3.00002 13.3657C2.52173 13.0896 2.35785 12.478 2.634 11.9997C2.91014 11.5214 3.52173 11.3575 4.00002 11.6337C4.47831 11.9098 4.64219 12.5214 4.36605 12.9997Z" fill="#292A2E"/>
<path d="M7.11294 5.82539L6.2264 7.232L2.86553 1.89952L4.13451 1.09972L7.11294 5.82539Z" fill="#292A2E"/>
</svg>
