<svg width="16" height="16" viewBox="0 0 16 16" fill="none" xmlns="http://www.w3.org/2000/svg">
<path fill-rule="evenodd" clip-rule="evenodd" d="M13.75 14.6647C12.5589 15.3524 11.037 14.9484 10.3429 13.7633L8.00002 10.046L5.65714 13.7633C4.96305 14.9484 3.44118 15.3524 2.25002 14.6647C1.05429 13.9743 0.644601 12.4453 1.33496 11.2496C2.02531 10.0539 3.55429 9.64417 4.75002 10.3345C5.08733 10.5293 5.36209 10.7908 5.56725 11.0927L7.11349 8.63935L7.11294 8.63849L7.99947 7.23188L8.00002 7.23275L11.8655 1.09961L13.1345 1.89941L8.88656 8.63935L10.4328 11.0927C10.638 10.7908 10.9127 10.5293 11.25 10.3345C12.4458 9.64417 13.9747 10.0539 14.6651 11.2496C15.3554 12.4453 14.9458 13.9743 13.75 14.6647ZM13 13.3656C12.5217 13.6418 11.9101 13.4779 11.634 12.9996C11.3579 12.5213 11.5217 11.9097 12 11.6336C12.4783 11.3574 13.0899 11.5213 13.366 11.9996C13.6422 12.4779 13.4783 13.0895 13 13.3656ZM4.36605 12.9996C4.0899 13.4779 3.47831 13.6418 3.00002 13.3656C2.52173 13.0895 2.35785 12.4779 2.634 11.9996C2.91014 11.5213 3.52173 11.3574 4.00002 11.6336C4.47831 11.9097 4.64219 12.5213 4.36605 12.9996Z" fill="#292A2E"/>
<path d="M7.11294 5.82528L6.2264 7.23188L2.86553 1.89941L4.13451 1.09961L7.11294 5.82528Z" fill="#292A2E"/>
</svg>
