<svg width="16" height="16" viewBox="0 0 16 16" fill="none" xmlns="http://www.w3.org/2000/svg">
<path fill-rule="evenodd" clip-rule="evenodd" d="M13.75 14.6648C12.5588 15.3525 11.037 14.9486 10.3429 13.7634L8.00001 10.0461L5.65712 13.7634C4.96303 14.9486 3.44117 15.3525 2.25001 14.6648C1.05427 13.9744 0.644586 12.4454 1.33494 11.2497C2.0253 10.054 3.55427 9.64429 4.75001 10.3346C5.08732 10.5294 5.36207 10.7909 5.56723 11.0928L7.11347 8.63947L7.11281 8.63843L7.99935 7.23182L8.00001 7.23287L11.8655 1.09973L13.1345 1.89953L8.88654 8.63947L10.4328 11.0928C10.6379 10.7909 10.9127 10.5294 11.25 10.3346C12.4457 9.64429 13.9747 10.054 14.6651 11.2497C15.3554 12.4454 14.9457 13.9744 13.75 14.6648ZM7.11281 5.82522L6.22628 7.23182L2.86551 1.89953L4.1345 1.09973L7.11281 5.82522ZM13 13.3657C12.5217 13.6419 11.9101 13.478 11.634 12.9997C11.3578 12.5214 11.5217 11.9098 12 11.6337C12.4783 11.3575 13.0899 11.5214 13.366 11.9997C13.6422 12.478 13.4783 13.0896 13 13.3657ZM4.36603 12.9997C4.08989 13.478 3.4783 13.6419 3.00001 13.3657C2.52171 13.0896 2.35784 12.478 2.63398 11.9997C2.91012 11.5214 3.52171 11.3575 4.00001 11.6337C4.4783 11.9098 4.64217 12.5214 4.36603 12.9997Z" fill="#44546F"/>
</svg>
