<svg width="16" height="16" viewBox="0 0 16 16" fill="none" xmlns="http://www.w3.org/2000/svg">
<path fill-rule="evenodd" clip-rule="evenodd" d="M13.75 14.6648C12.5588 15.3525 11.037 14.9485 10.3429 13.7634L7.99999 10.0461L5.6571 13.7634C4.96302 14.9486 3.44115 15.3525 2.24999 14.6648C1.05426 13.9744 0.64457 12.4454 1.33493 11.2497C2.02528 10.054 3.55426 9.64429 4.74999 10.3346C5.0873 10.5294 5.36206 10.7909 5.56722 11.0928L7.11345 8.63947L7.11295 8.63867L7.99949 7.23207L7.99999 7.23286L11.8655 1.09973L13.1345 1.89952L8.88653 8.63947L10.4328 11.0928C10.6379 10.7909 10.9127 10.5294 11.25 10.3346C12.4457 9.64429 13.9747 10.054 14.6651 11.2497C15.3554 12.4454 14.9457 13.9744 13.75 14.6648ZM7.11295 5.82546L6.22642 7.23207L2.8655 1.89952L4.13448 1.09973L7.11295 5.82546ZM13 13.3657C12.5217 13.6419 11.9101 13.478 11.634 12.9997C11.3578 12.5214 11.5217 11.9098 12 11.6337C12.4783 11.3575 13.0899 11.5214 13.366 11.9997C13.6422 12.478 13.4783 13.0896 13 13.3657ZM4.36602 12.9997C4.08987 13.478 3.47828 13.6419 2.99999 13.3657C2.5217 13.0896 2.35782 12.478 2.63396 11.9997C2.91011 11.5214 3.5217 11.3575 3.99999 11.6337C4.47828 11.9098 4.64216 12.5214 4.36602 12.9997Z" fill="#44546F"/>
</svg>
