<svg width="16" height="16" viewBox="0 0 16 16" fill="none" xmlns="http://www.w3.org/2000/svg">
<path fill-rule="evenodd" clip-rule="evenodd" d="M13.75 14.6646C12.5588 15.3524 11.037 14.9484 10.3429 13.7632L8 10.046L5.65712 13.7633C4.96303 14.9484 3.44117 15.3524 2.25 14.6646C1.05427 13.9743 0.644582 12.4453 1.33494 11.2496C2.02529 10.0539 3.55427 9.64416 4.75 10.3345C5.08731 10.5293 5.36207 10.7907 5.56723 11.0927L7.11347 8.63935L7.11296 8.63855L7.9995 7.23194L8 7.23274L11.8655 1.0996L13.1345 1.8994L8.88654 8.63935L10.4328 11.0927C10.6379 10.7907 10.9127 10.5293 11.25 10.3345C12.4457 9.64416 13.9747 10.0539 14.6651 11.2496C15.3554 12.4453 14.9457 13.9743 13.75 14.6646ZM7.11296 5.82534L6.22643 7.23194L2.86551 1.8994L4.13449 1.0996L7.11296 5.82534ZM13 13.3656C12.5217 13.6418 11.9101 13.4779 11.634 12.9996C11.3578 12.5213 11.5217 11.9097 12 11.6336C12.4783 11.3574 13.0899 11.5213 13.366 11.9996C13.6422 12.4779 13.4783 13.0895 13 13.3656ZM4.36603 12.9996C4.08988 13.4779 3.47829 13.6418 3 13.3656C2.52171 13.0895 2.35783 12.4779 2.63398 11.9996C2.91012 11.5213 3.52171 11.3574 4 11.6336C4.47829 11.9097 4.64217 12.5213 4.36603 12.9996Z" fill="#44546F"/>
</svg>
