<svg width="16" height="16" viewBox="0 0 16 16" fill="none" xmlns="http://www.w3.org/2000/svg">
<path fill-rule="evenodd" clip-rule="evenodd" d="M8 1.5C5.37665 1.5 3.25 3.62665 3.25 6.25C3.25 8.87335 5.37665 11 8 11H13.4393L11.2197 8.78033L12.2803 7.71967L15.7803 11.2197C16.0732 11.5126 16.0732 11.9874 15.7803 12.2803L12.2803 15.7803L11.2197 14.7197L13.4393 12.5H0V11H3.9378C2.59867 9.8537 1.75 8.15096 1.75 6.25C1.75 2.79822 4.54822 0 8 0C11.4518 0 14.25 2.79822 14.25 6.25H12.75C12.75 3.62665 10.6234 1.5 8 1.5Z" fill="#292A2E"/>
</svg>
