<svg width="16" height="16" viewBox="0 0 16 16" fill="none" xmlns="http://www.w3.org/2000/svg">
<path d="M8 11.25L8.42415 10.6315L8 10.3406L7.57586 10.6315L8 11.25ZM3.625 14.25L2.90062 14.0557C2.81926 14.3589 2.93542 14.6808 3.19172 14.8622C3.44802 15.0436 3.79019 15.0461 4.04915 14.8685L3.625 14.25ZM5 9.125L5.72439 9.31935L5.84871 8.85597L5.48014 8.54883L5 9.125ZM1.25 6L1.19248 5.25221C0.888137 5.27562 0.628343 5.48114 0.535521 5.77193C0.4427 6.06272 0.535371 6.38075 0.769866 6.57617L1.25 6ZM6.125 5.625L6.18253 6.37279L6.65493 6.33645L6.82501 5.89423L6.125 5.625ZM8 0.75L8.70001 0.480766C8.58861 0.191122 8.31033 0 8 0C7.68968 0 7.4114 0.191122 7.29999 0.480766L8 0.75ZM9.875 5.625L9.17499 5.89423L9.34508 6.33645L9.81748 6.37279L9.875 5.625ZM14.75 6L15.2301 6.57617C15.4646 6.38075 15.5573 6.06272 15.4645 5.77193C15.3717 5.48114 15.1119 5.27562 14.8075 5.25221L14.75 6ZM11 9.125L10.5199 8.54883L10.1513 8.85597L10.2756 9.31935L11 9.125ZM12.375 14.25L11.9509 14.8685C12.2098 15.0461 12.552 15.0436 12.8083 14.8622C13.0646 14.6808 13.1808 14.3589 13.0994 14.0557L12.375 14.25ZM7.57586 10.6315L3.20086 13.6315L4.04915 14.8685L8.42415 11.8685L7.57586 10.6315ZM4.34939 14.4443L5.72439 9.31935L4.27562 8.93065L2.90062 14.0557L4.34939 14.4443ZM5.48014 8.54883L1.73014 5.42383L0.769866 6.57617L4.51987 9.70117L5.48014 8.54883ZM1.30753 6.74779L6.18253 6.37279L6.06748 4.87721L1.19248 5.25221L1.30753 6.74779ZM6.82501 5.89423L8.70001 1.01923L7.29999 0.480766L5.42499 5.35577L6.82501 5.89423ZM7.29999 1.01923L9.17499 5.89423L10.575 5.35577L8.70001 0.480766L7.29999 1.01923ZM9.81748 6.37279L14.6925 6.74779L14.8075 5.25221L9.93253 4.87721L9.81748 6.37279ZM14.2699 5.42383L10.5199 8.54883L11.4801 9.70117L15.2301 6.57617L14.2699 5.42383ZM10.2756 9.31935L11.6506 14.4443L13.0994 14.0557L11.7244 8.93065L10.2756 9.31935ZM12.7992 13.6315L8.42415 10.6315L7.57586 11.8685L11.9509 14.8685L12.7992 13.6315Z" fill="#44546F"/>
</svg>
