<svg width="16" height="16" viewBox="0 0 16 16" fill="none" xmlns="http://www.w3.org/2000/svg">
<path d="M8 11.25L8.42415 10.6315L8 10.3406L7.57585 10.6315L8 11.25ZM3.625 14.25L2.90062 14.0557C2.81925 14.3589 2.93542 14.6808 3.19172 14.8622C3.44801 15.0436 3.79018 15.0461 4.04915 14.8686L3.625 14.25ZM5 9.125L5.72438 9.31935L5.8487 8.85597L5.48014 8.54884L5 9.125ZM1.25 6L1.19248 5.25221C0.888133 5.27562 0.628339 5.48115 0.535518 5.77194C0.442696 6.06272 0.535367 6.38076 0.769862 6.57617L1.25 6ZM6.125 5.625L6.18252 6.37279L6.65493 6.33646L6.82501 5.89424L6.125 5.625ZM8 0.750004L8.70001 0.48077C8.58861 0.191125 8.31033 3.8147e-06 8 3.8147e-06C7.68967 3.8147e-06 7.41139 0.191125 7.29999 0.48077L8 0.750004ZM9.875 5.625L9.17499 5.89424L9.34507 6.33646L9.81748 6.37279L9.875 5.625ZM14.75 6L15.2301 6.57617C15.4646 6.38076 15.5573 6.06272 15.4645 5.77194C15.3717 5.48115 15.1119 5.27562 14.8075 5.25221L14.75 6ZM11 9.125L10.5199 8.54884L10.1513 8.85597L10.2756 9.31935L11 9.125ZM12.375 14.25L11.9509 14.8686C12.2098 15.0461 12.552 15.0436 12.8083 14.8622C13.0646 14.6808 13.1807 14.3589 13.0994 14.0557L12.375 14.25ZM7.57585 10.6315L3.20085 13.6315L4.04915 14.8686L8.42415 11.8686L7.57585 10.6315ZM4.34938 14.4444L5.72438 9.31935L4.27562 8.93066L2.90062 14.0557L4.34938 14.4444ZM5.48014 8.54884L1.73014 5.42384L0.769862 6.57617L4.51986 9.70117L5.48014 8.54884ZM1.30752 6.74779L6.18252 6.37279L6.06748 4.87721L1.19248 5.25221L1.30752 6.74779ZM6.82501 5.89424L8.70001 1.01924L7.29999 0.48077L5.42499 5.35577L6.82501 5.89424ZM7.29999 1.01924L9.17499 5.89424L10.575 5.35577L8.70001 0.48077L7.29999 1.01924ZM9.81748 6.37279L14.6925 6.74779L14.8075 5.25221L9.93252 4.87721L9.81748 6.37279ZM14.2699 5.42384L10.5199 8.54884L11.4801 9.70117L15.2301 6.57617L14.2699 5.42384ZM10.2756 9.31935L11.6506 14.4444L13.0994 14.0557L11.7244 8.93066L10.2756 9.31935ZM12.7991 13.6315L8.42415 10.6315L7.57585 11.8686L11.9509 14.8686L12.7991 13.6315Z" fill="#44546F"/>
</svg>
