<svg width="16" height="16" viewBox="0 0 16 16" fill="none" xmlns="http://www.w3.org/2000/svg">
<path fill-rule="evenodd" clip-rule="evenodd" d="M8 0C8.31033 0 8.58861 0.191122 8.70001 0.480766L10.4049 4.91355L14.8075 5.25221C15.1119 5.27562 15.3717 5.48114 15.4645 5.77193C15.5573 6.06272 15.4646 6.38075 15.2301 6.57617L11.8487 9.39403L13.0994 14.0557C13.1807 14.3589 13.0646 14.6808 12.8083 14.8622C12.552 15.0436 12.2098 15.0461 11.9509 14.8685L8 12.1594L4.04915 14.8685C3.79018 15.0461 3.44802 15.0436 3.19172 14.8622C2.93542 14.6808 2.81925 14.3589 2.90062 14.0557L4.1513 9.39403L0.769862 6.57617C0.535368 6.38075 0.442697 6.06272 0.535518 5.77193C0.62834 5.48114 0.888134 5.27562 1.19248 5.25221L5.59508 4.91355L7.29999 0.480766C7.41139 0.191122 7.68967 0 8 0ZM8 2.83926L6.65493 6.33645L3.14891 6.60615L5.8487 8.85597L4.87558 12.4831L8 10.3406L11.1244 12.4831L10.1513 8.85597L12.8511 6.60615L9.34508 6.33645L8 2.83926Z" fill="#44546F"/>
<path d="M6.65493 6.33645L8 2.83926L9.34508 6.33645L12.8511 6.60615L10.1513 8.85597L11.1244 12.4831L8 10.3406L4.87558 12.4831L5.8487 8.85597L3.14891 6.60615L6.65493 6.33645Z" fill="#44546F"/>
</svg>
