<svg width="16" height="16" viewBox="0 0 16 16" fill="none" xmlns="http://www.w3.org/2000/svg">
<path fill-rule="evenodd" clip-rule="evenodd" d="M8.00001 0C8.31034 0 8.58862 0.191122 8.70002 0.480766L10.4049 4.91355L14.8075 5.25221C15.1119 5.27562 15.3717 5.48114 15.4645 5.77193C15.5573 6.06272 15.4646 6.38075 15.2301 6.57617L11.8487 9.39403L13.0994 14.0557C13.1808 14.3589 13.0646 14.6808 12.8083 14.8622C12.552 15.0436 12.2098 15.0461 11.9509 14.8685L8.00001 12.1594L4.04915 14.8685C3.79019 15.0461 3.44802 15.0436 3.19173 14.8622C2.93543 14.6808 2.81926 14.3589 2.90063 14.0557L4.15131 9.39403L0.76987 6.57617C0.535375 6.38075 0.442704 6.06272 0.535526 5.77193C0.628347 5.48114 0.888141 5.27562 1.19249 5.25221L5.59508 4.91355L7.3 0.480766C7.4114 0.191122 7.68968 0 8.00001 0ZM8.00001 2.83926L6.65493 6.33645L3.14892 6.60615L5.84871 8.85597L4.87559 12.4831L8.00001 10.3406L11.1244 12.4831L10.1513 8.85597L12.8511 6.60615L9.34508 6.33645L8.00001 2.83926Z" fill="#44546F"/>
</svg>
