<svg width="16" height="16" viewBox="0 0 16 16" fill="none" xmlns="http://www.w3.org/2000/svg">
<path fill-rule="evenodd" clip-rule="evenodd" d="M6.84929 0.444209C7.5021 -0.148069 8.49824 -0.14807 9.15105 0.444209L10.2995 1.4862C10.3406 1.52334 10.3945 1.54293 10.4499 1.54089L11.9997 1.48132C12.8803 1.44723 13.6428 2.08673 13.7624 2.95983L13.9723 4.49694C13.9799 4.55195 14.0095 4.60159 14.0534 4.63561L15.279 5.58581C15.9754 6.12589 16.1483 7.10675 15.6784 7.85241L14.8512 9.16394C14.8216 9.21093 14.8122 9.26784 14.8239 9.32214L15.152 10.8378C15.3385 11.6993 14.84 12.5617 14.0007 12.8309L12.5241 13.3046C12.4713 13.3216 12.4269 13.359 12.401 13.4081L11.6784 14.7801C11.2675 15.5596 10.3321 15.9003 9.51628 15.5673L8.08073 14.9803C8.02923 14.9593 7.9711 14.9593 7.9196 14.9803L6.48406 15.5673C5.66823 15.9003 4.73287 15.5596 4.32195 14.7801L3.59929 13.4081C3.57336 13.3589 3.52824 13.3216 3.47527 13.3046L1.9987 12.8309C1.15963 12.5616 0.661821 11.6991 0.848313 10.8378L1.17644 9.32214C1.18812 9.26785 1.1787 9.21093 1.14909 9.16394L0.321945 7.85241C-0.147942 7.10673 0.0248457 6.12588 0.721359 5.58581L1.94695 4.63561C1.99084 4.60159 2.02041 4.55196 2.028 4.49694L2.23796 2.95983C2.35753 2.08673 3.12002 1.44723 4.00066 1.48132L5.55046 1.54089C5.60579 1.54291 5.65979 1.52335 5.70085 1.4862L6.84929 0.444209ZM6.74968 9.828L4.82585 7.5194L3.67351 8.48034L6.17351 11.4803C6.31591 11.6511 6.52734 11.7497 6.74968 11.7499C6.97206 11.7499 7.18336 11.6511 7.32585 11.4803L12.3259 5.48034L11.1735 4.5194L6.74968 9.828Z" fill="#292A2E"/>
</svg>
