<svg width="16" height="16" viewBox="0 0 16 16" fill="none" xmlns="http://www.w3.org/2000/svg">
<path fill-rule="evenodd" clip-rule="evenodd" d="M9.15069 0.444209C8.49788 -0.14807 7.50211 -0.148069 6.8493 0.444209L5.70087 1.48616C5.65967 1.52354 5.60545 1.54327 5.54986 1.54112L4.00035 1.48114C3.11956 1.44705 2.35676 2.08712 2.23739 2.96044L2.02739 4.49683C2.01986 4.55194 1.99101 4.60191 1.94704 4.63599L0.721494 5.58605C0.0248548 6.12609 -0.148058 7.10674 0.321863 7.85247L1.14856 9.1644C1.17822 9.21146 1.18824 9.26828 1.17647 9.32265L0.848328 10.8382C0.661804 11.6997 1.15969 12.5621 1.99902 12.8313L3.4756 13.3049C3.52857 13.3219 3.57277 13.3589 3.5987 13.4082L4.32151 14.7801C4.73237 15.5599 5.66809 15.9005 6.4841 15.5672L7.91965 14.9809C7.97115 14.9598 8.02885 14.9598 8.08035 14.9809L9.51589 15.5672C10.3319 15.9005 11.2676 15.5599 11.6785 14.7801L12.4013 13.4082C12.4272 13.3589 12.4714 13.3219 12.5244 13.3049L14.001 12.8313C14.8403 12.5621 15.3382 11.6997 15.1517 10.8382L14.8235 9.32265C14.8118 9.26828 14.8218 9.21146 14.8514 9.1644L15.6781 7.85247C16.1481 7.10674 15.9751 6.12609 15.2785 5.58605L14.053 4.63599C14.009 4.60191 13.9801 4.55194 13.9726 4.49683L13.7626 2.96044C13.6432 2.08712 12.8804 1.44705 11.9996 1.48114L10.4501 1.54112C10.3945 1.54327 10.3403 1.52354 10.2991 1.48616L9.15069 0.444209ZM12.3262 5.48014L11.1738 4.51986L6.75 9.82846L4.82617 7.51986L3.67383 8.48014L6.17383 11.4801C6.31633 11.6511 6.52742 11.75 6.75 11.75C6.97258 11.75 7.18367 11.6511 7.32617 11.4801L12.3262 5.48014Z" fill="#44546F"/>
</svg>
