<svg width="16" height="16" viewBox="0 0 16 16" fill="none" xmlns="http://www.w3.org/2000/svg">
<path fill-rule="evenodd" clip-rule="evenodd" d="M9.1507 0.444209C8.49789 -0.14807 7.50212 -0.148069 6.84931 0.444209L5.70087 1.48616C5.65967 1.52354 5.60546 1.54327 5.54987 1.54112L4.00036 1.48114C3.11957 1.44705 2.35677 2.08712 2.2374 2.96044L2.0274 4.49683C2.01986 4.55194 1.99102 4.60191 1.94705 4.63599L0.721502 5.58605C0.0248625 6.12609 -0.148051 7.10674 0.321871 7.85247L1.14857 9.1644C1.17823 9.21146 1.18825 9.26828 1.17647 9.32265L0.848335 10.8382C0.661811 11.6997 1.1597 12.5621 1.99903 12.8313L3.4756 13.3049C3.52858 13.3219 3.57277 13.3589 3.5987 13.4082L4.32151 14.7801C4.73238 15.5599 5.6681 15.9005 6.48411 15.5672L7.91966 14.9809C7.97116 14.9598 8.02885 14.9598 8.08035 14.9809L9.5159 15.5672C10.3319 15.9005 11.2676 15.5599 11.6785 14.7801L12.4013 13.4082C12.4272 13.3589 12.4714 13.3219 12.5244 13.3049L14.001 12.8313C14.8403 12.5621 15.3382 11.6997 15.1517 10.8382L14.8235 9.32265C14.8118 9.26828 14.8218 9.21146 14.8514 9.1644L15.6781 7.85247C16.1481 7.10674 15.9751 6.12609 15.2785 5.58605L14.053 4.63599C14.009 4.60191 13.9801 4.55194 13.9726 4.49683L13.7626 2.96044C13.6432 2.08712 12.8804 1.44705 11.9996 1.48114L10.4501 1.54112C10.3946 1.54327 10.3403 1.52354 10.2991 1.48616L9.1507 0.444209ZM12.3262 5.48014L11.1738 4.51986L6.75001 9.82846L4.82617 7.51986L3.67384 8.48014L6.17384 11.4801C6.31634 11.6511 6.52742 11.75 6.75001 11.75C6.97259 11.75 7.18368 11.6511 7.32617 11.4801L12.3262 5.48014Z" fill="#44546F"/>
</svg>
