<svg width="16" height="17" viewBox="0 0 16 17" fill="none" xmlns="http://www.w3.org/2000/svg">
<path fill-rule="evenodd" clip-rule="evenodd" d="M9.15069 1.40632C8.49788 0.814039 7.50211 0.814039 6.8493 1.40632L5.70087 2.44827C5.65967 2.48565 5.60545 2.50538 5.54986 2.50323L4.00035 2.44325C3.11956 2.40916 2.35676 3.04923 2.23739 3.92255L2.02739 5.45894C2.01986 5.51405 1.99101 5.56402 1.94704 5.5981L0.721494 6.54816C0.0248548 7.0882 -0.148058 8.06884 0.321863 8.81458L1.14856 10.1265C1.17822 10.1736 1.18824 10.2304 1.17647 10.2848L0.848328 11.8003C0.661804 12.6618 1.15969 13.5242 1.99902 13.7934L3.4756 14.267C3.52857 14.284 3.57277 14.321 3.5987 14.3703L4.32151 15.7422C4.73238 16.522 5.66809 16.8626 6.4841 16.5293L7.91965 15.943C7.97115 15.9219 8.02885 15.9219 8.08035 15.943L9.51589 16.5293C10.3319 16.8626 11.2676 16.522 11.6785 15.7422L12.4013 14.3703C12.4272 14.321 12.4714 14.284 12.5244 14.267L14.001 13.7934C14.8403 13.5242 15.3382 12.6618 15.1517 11.8003L14.8235 10.2848C14.8118 10.2304 14.8218 10.1736 14.8514 10.1265L15.6781 8.81458C16.1481 8.06884 15.9751 7.0882 15.2785 6.54816L14.053 5.5981C14.009 5.56402 13.9801 5.51405 13.9726 5.45893L13.7626 3.92255C13.6432 3.04922 12.8804 2.40916 11.9996 2.44325L10.4501 2.50323C10.3945 2.50538 10.3403 2.48565 10.2991 2.44827L9.15069 1.40632ZM12.3262 6.48033L11.1738 5.52006L6.75 10.8287L4.82617 8.52006L3.67383 9.48033L6.17383 12.4803C6.31633 12.6513 6.52742 12.7502 6.75 12.7502C6.97258 12.7502 7.18367 12.6513 7.32617 12.4803L12.3262 6.48033Z" fill="#44546F"/>
</svg>
