<svg width="16" height="16" viewBox="0 0 16 16" fill="none" xmlns="http://www.w3.org/2000/svg">
<path fill-rule="evenodd" clip-rule="evenodd" d="M6.58593 0.603317C7.36699 -0.177636 8.63304 -0.177701 9.41405 0.603317L15.3965 6.58574C16.1772 7.36678 16.1773 8.6329 15.3965 9.41386L9.41405 15.3963C8.63309 16.1771 7.36697 16.177 6.58593 15.3963L0.603508 9.41386C-0.177508 8.63285 -0.177447 7.3668 0.603508 6.58574L6.58593 0.603317ZM7.99999 10.2498C7.44771 10.2498 6.99999 10.6975 6.99999 11.2498C7.00012 11.802 7.44779 12.2498 7.99999 12.2498C8.55211 12.2497 8.99986 11.8019 8.99999 11.2498C8.99999 10.6976 8.55219 10.2499 7.99999 10.2498ZM7.24999 3.7498V8.9998H8.74999V3.7498H7.24999Z" fill="#292A2E"/>
</svg>
