<svg width="16" height="16" viewBox="0 0 16 16" fill="none" xmlns="http://www.w3.org/2000/svg">
<path d="M8 3.75V0.75M8 3.75C9.49796 3.75 10.8621 4.32281 11.8854 5.26134M8 3.75C6.50204 3.75 5.13786 4.32281 4.11456 5.26134M8 0.75H11M8 0.75H5M13.5 3.5L11.8854 5.26134M2.5 3.5L4.11456 5.26134M11.8854 5.26134C13.0315 6.31246 13.75 7.82233 13.75 9.5C13.75 12.6756 11.1756 15.25 8 15.25C4.82436 15.25 2.25 12.6756 2.25 9.5C2.25 7.82233 2.96849 6.31246 4.11456 5.26134M7.75 9.75L10.2917 7" stroke="#44546F" stroke-width="1.5" stroke-linejoin="round"/>
</svg>
