<svg width="16" height="16" viewBox="0 0 16 16" fill="none" xmlns="http://www.w3.org/2000/svg">
<path fill-rule="evenodd" clip-rule="evenodd" d="M5 0H11V1.5H8.75V3.04285C9.8845 3.17332 10.9307 3.59608 11.8103 4.23341L12.9471 2.99321L14.0529 4.00679L12.9158 5.24724C13.9022 6.38665 14.5 7.87391 14.5 9.5C14.5 13.0899 11.5899 16 8 16C4.41015 16 1.5 13.0899 1.5 9.5C1.5 7.87391 2.09781 6.38665 3.08421 5.24724L1.94713 4.00679L3.05287 2.99321L4.18972 4.23341C5.06934 3.59608 6.1155 3.17332 7.25 3.04285V1.5H5V0ZM8 4.5C6.697 4.5 5.5119 4.99743 4.6215 5.81407C3.62381 6.72912 3 8.04116 3 9.5C3 12.2614 5.23858 14.5 8 14.5C10.7614 14.5 13 12.2614 13 9.5C13 8.04116 12.3762 6.72912 11.3785 5.81407C10.4881 4.99743 9.303 4.5 8 4.5ZM10.8424 7.50906L8.30078 10.2591L7.19922 9.24094L9.74088 6.49094L10.8424 7.50906Z" fill="#44546F"/>
</svg>
