<svg width="16" height="16" viewBox="0 0 16 16" fill="none" xmlns="http://www.w3.org/2000/svg">
<path d="M11.5179 3C11.5179 2.72392 11.2939 2.5001 11.0179 2.5H4.98273C4.70659 2.5 4.48273 2.72386 4.48273 3V12.8057L8.00031 10.333L8.43098 10.6367L11.5179 12.8057V3ZM13.0179 14.2021C13.0177 14.7903 12.3965 15.1497 11.8958 14.8955L11.7972 14.8359L7.99934 12.166L4.20344 14.8359C3.68999 15.1969 2.98295 14.8296 2.98273 14.2021V3C2.98273 1.89543 3.87817 1 4.98273 1H11.0179C12.1224 1.0001 13.0179 1.89549 13.0179 3V14.2021Z" fill="#44546F"/>
</svg>
