<svg width="16" height="16" viewBox="0 0 16 16" fill="none" xmlns="http://www.w3.org/2000/svg">
<path fill-rule="evenodd" clip-rule="evenodd" d="M1 3C1 1.89543 1.89543 1 3 1H6.75C7.85457 1 8.75 1.89543 8.75 3V7.25H13C14.1046 7.25 15 8.14543 15 9.25V13C15 14.1046 14.1046 15 13 15H9.25C8.14543 15 7.25 14.1046 7.25 13V8.75H3C1.89543 8.75 1 7.85457 1 6.75V3ZM7.25 7.25V3C7.25 2.72386 7.02614 2.5 6.75 2.5H3C2.72386 2.5 2.5 2.72386 2.5 3V6.75C2.5 7.02614 2.72386 7.25 3 7.25H7.25ZM8.75 8.75V13C8.75 13.2761 8.97386 13.5 9.25 13.5H13C13.2761 13.5 13.5 13.2761 13.5 13V9.25C13.5 8.97386 13.2761 8.75 13 8.75H8.75Z" fill="#44546F"/>
</svg>
