<svg width="16" height="16" viewBox="0 0 16 16" fill="none" xmlns="http://www.w3.org/2000/svg">
<path fill-rule="evenodd" clip-rule="evenodd" d="M7.5 3.5C7.5 2.94772 7.94772 2.5 8.5 2.5V1C7.11929 1 6 2.11929 6 3.5V6.125C6 6.88439 6.61561 7.5 7.375 7.5H8.625C9.38439 7.5 10 6.88439 10 6.125V4.875C10 4.11561 9.38439 3.5 8.625 3.5H7.5ZM7.5 5H8.5V6H7.5V5ZM2.5 3.5C2.5 2.94772 2.94771 2.5 3.5 2.5V1C2.11929 1 1 2.11929 1 3.5V6.125C1 6.88439 1.61561 7.5 2.375 7.5H3.625C4.38439 7.5 5 6.88439 5 6.125V4.875C5 4.11561 4.38439 3.5 3.625 3.5H2.5ZM2.5 5H3.5V6H2.5V5ZM15 2H11.5V3.5H15V2ZM15 5.5H11.5V7H15V5.5ZM15 9H1V10.5H15V9ZM15 12.5H1V14H15V12.5Z" fill="#44546F"/>
<path d="M8.5 5H7.5V6H8.5V5Z" fill="#44546F"/>
<path d="M3.5 5H2.5V6H3.5V5Z" fill="#44546F"/>
</svg>
