<svg width="16" height="16" viewBox="0 0 16 16" fill="none" xmlns="http://www.w3.org/2000/svg">
<path d="M3.625 6.75H2.375C2.02982 6.75 1.75 6.47018 1.75 6.125V4.25H3.625C3.97018 4.25 4.25 4.52982 4.25 4.875V6.125C4.25 6.47018 3.97018 6.75 3.625 6.75Z" fill="#44546F"/>
<path d="M8.625 6.75H7.375C7.02982 6.75 6.75 6.47018 6.75 6.125V4.25H8.625C8.97018 4.25 9.25 4.52982 9.25 4.875V6.125C9.25 6.47018 8.97018 6.75 8.625 6.75Z" fill="#44546F"/>
<path d="M3.5 1.75V1.75C2.5335 1.75 1.75 2.5335 1.75 3.5V4.25M1.75 4.25V6.125C1.75 6.47018 2.02982 6.75 2.375 6.75H3.625C3.97018 6.75 4.25 6.47018 4.25 6.125V4.875C4.25 4.52982 3.97018 4.25 3.625 4.25H1.75ZM8.5 1.75V1.75C7.5335 1.75 6.75 2.5335 6.75 3.5V4.25M6.75 4.25V6.125C6.75 6.47018 7.02982 6.75 7.375 6.75H8.625C8.97018 6.75 9.25 6.47018 9.25 6.125V4.875C9.25 4.52982 8.97018 4.25 8.625 4.25H6.75ZM1 13.25H15M1 9.75H15M11.5 6.25H15M11.5 2.75H15" stroke="#44546F" stroke-width="1.5"/>
</svg>
