<svg width="16" height="16" viewBox="0 0 16 16" fill="none" xmlns="http://www.w3.org/2000/svg">
<path d="M13.1265 2.87348C15.9578 5.70478 15.9578 10.2952 13.1265 13.1265M13.1265 2.87348C10.2952 0.0421748 5.70478 0.0421748 2.87348 2.87348M13.1265 2.87348L10.2981 5.7019M13.1265 13.1265C10.2952 15.9578 5.70478 15.9578 2.87348 13.1265M13.1265 13.1265L10.2981 10.2981M2.87348 13.1265C0.0421748 10.2952 0.0421748 5.70478 2.87348 2.87348M2.87348 13.1265L5.7019 10.2981M2.87348 2.87348L5.7019 5.7019M10.2981 5.7019C11.5673 6.97111 11.5673 9.02889 10.2981 10.2981M10.2981 5.7019C9.02889 4.4327 6.97111 4.4327 5.7019 5.7019M10.2981 10.2981C9.02889 11.5673 6.97111 11.5673 5.7019 10.2981M5.7019 10.2981C4.4327 9.02889 4.4327 6.97111 5.7019 5.7019" stroke="#44546F" stroke-width="1.5" stroke-linejoin="round"/>
</svg>
