<svg width="16" height="16" viewBox="0 0 16 16" fill="none" xmlns="http://www.w3.org/2000/svg">
<path fill-rule="evenodd" clip-rule="evenodd" d="M3.9644 2.90374L5.75154 4.69088C7.10401 3.76971 8.89599 3.76971 10.2485 4.69088L12.0356 2.90374C9.67805 1.03209 6.32195 1.03209 3.9644 2.90374ZM13.0963 3.9644L11.3091 5.75154C12.2303 7.10401 12.2303 8.89599 11.3091 10.2485L13.0963 12.0356C14.9679 9.67805 14.9679 6.32195 13.0963 3.9644ZM12.0356 13.0963L10.2485 11.3091C8.89599 12.2303 7.10401 12.2303 5.75154 11.3091L3.9644 13.0963C6.32195 14.9679 9.67805 14.9679 12.0356 13.0963ZM2.90374 12.0356L4.69088 10.2485C3.76971 8.89599 3.76971 7.10401 4.69088 5.75154L2.90374 3.9644C1.03209 6.32195 1.03209 9.67805 2.90374 12.0356ZM2.34315 2.34315C5.46734 -0.781049 10.5327 -0.781049 13.6569 2.34315C16.781 5.46734 16.781 10.5327 13.6569 13.6569C10.5327 16.781 5.46734 16.781 2.34315 13.6569C-0.781049 10.5327 -0.781049 5.46734 2.34315 2.34315ZM9.76777 6.23223C8.79146 5.25592 7.20854 5.25592 6.23223 6.23223C5.25592 7.20854 5.25592 8.79146 6.23223 9.76777C7.20854 10.7441 8.79146 10.7441 9.76777 9.76777C10.7441 8.79146 10.7441 7.20854 9.76777 6.23223Z" fill="#292A2E"/>
</svg>
