<svg width="16" height="16" viewBox="0 0 16 16" fill="none" xmlns="http://www.w3.org/2000/svg">
<path d="M1.75 11.75L1.75 8.875C1.75 8.52982 2.02982 8.25 2.375 8.25L8 8.25L13.625 8.25C13.9702 8.25 14.25 8.52982 14.25 8.875L14.25 11.75M1.75 11.75L14.25 11.75M1.75 11.75L1.75 14.625C1.75 14.9702 2.02982 15.25 2.375 15.25L8 15.25L13.625 15.25C13.9702 15.25 14.25 14.9702 14.25 14.625L14.25 11.75M8 6L8 3M8 2.73196e-07L8 3M8 3L11 3M8 3L5 3" stroke="#44546F" stroke-width="1.5" stroke-linejoin="round"/>
</svg>
