<svg width="16" height="16" viewBox="0 0 16 16" fill="none" xmlns="http://www.w3.org/2000/svg">
<path fill-rule="evenodd" clip-rule="evenodd" d="M5 3.5H1.49012e-08V2H5C6.10457 2 7 2.89543 7 4V12C7 13.1046 6.10457 14 5 14H1.49012e-08V12.5H5C5.27614 12.5 5.5 12.2761 5.5 12V4C5.5 3.72386 5.27614 3.5 5 3.5ZM11 3.5C10.7239 3.5 10.5 3.72386 10.5 4V12C10.5 12.2761 10.7239 12.5 11 12.5H16V14H11C9.89543 14 9 13.1046 9 12V4C9 2.89543 9.89543 2 11 2H16V3.5H11ZM0.21967 7.46967L2.46967 5.21967L3.53033 6.28033L1.81066 8L3.53033 9.71967L2.46967 10.7803L0.21967 8.53033C-0.0732233 8.23744 -0.0732233 7.76256 0.21967 7.46967ZM14.1893 8L12.4697 6.28033L13.5303 5.21967L15.7803 7.46967C16.0732 7.76256 16.0732 8.23744 15.7803 8.53033L13.5303 10.7803L12.4697 9.71967L14.1893 8Z" fill="#44546F"/>
</svg>
