<svg width="16" height="16" viewBox="0 0 16 16" fill="none" xmlns="http://www.w3.org/2000/svg">
<path fill-rule="evenodd" clip-rule="evenodd" d="M2 3.5C1.72386 3.5 1.5 3.72386 1.5 4V12C1.5 12.2761 1.72386 12.5 2 12.5H7V14H2C0.89543 14 0 13.1046 0 12V4C0 2.89543 0.89543 2 2 2H7V3.5H2ZM14 3.5H9V2H14C15.1046 2 16 2.89543 16 4V12C16 13.1046 15.1046 14 14 14H9V12.5H14C14.2761 12.5 14.5 12.2761 14.5 12V4C14.5 3.72386 14.2761 3.5 14 3.5ZM5.18934 8L3.46967 6.28033L4.53033 5.21967L6.78033 7.46967C7.07322 7.76256 7.07322 8.23744 6.78033 8.53033L4.53033 10.7803L3.46967 9.71967L5.18934 8ZM9.21967 7.46967L11.4697 5.21967L12.5303 6.28033L10.8107 8L12.5303 9.71967L11.4697 10.7803L9.21967 8.53033C8.92678 8.23744 8.92678 7.76256 9.21967 7.46967Z" fill="#44546F"/>
</svg>
