<svg width="16" height="16" viewBox="0 0 16 16" fill="none" xmlns="http://www.w3.org/2000/svg">
<path fill-rule="evenodd" clip-rule="evenodd" d="M2.375 -6.01032e-08C1.61561 -2.69091e-08 1 0.615608 1 1.375L1 7.125C1 7.88439 1.61561 8.5 2.375 8.5L13.625 8.5C14.3844 8.5 15 7.88439 15 7.125L15 1.375C15 0.615608 14.3844 -5.8505e-07 13.625 -5.51856e-07L2.375 -6.01032e-08ZM2.5 1.5L13.5 1.5L13.5 3.5L2.5 3.5L2.5 1.5ZM2.5 5L13.5 5L13.5 7L2.5 7L2.5 5ZM11 12.25L5 12.25L5 13.75L11 13.75L11 12.25Z" fill="#292A2E"/>
</svg>
