<svg width="16" height="16" viewBox="0 0 16 16" fill="none" xmlns="http://www.w3.org/2000/svg">
<path fill-rule="evenodd" clip-rule="evenodd" d="M2.375 -6.01032e-08C1.61561 -2.69091e-08 1 0.615608 1 1.375L1 7.125C1 7.88439 1.61561 8.5 2.375 8.5L13.625 8.5C14.3844 8.5 15 7.88439 15 7.125L15 1.375C15 0.615608 14.3844 -5.8505e-07 13.625 -5.51856e-07L2.375 -6.01032e-08ZM2.5 1.5L13.5 1.5L13.5 3.5L2.5 3.5L2.5 1.5ZM2.5 5L13.5 5L13.5 7L2.5 7L2.5 5ZM4.46967 12.7803L7.46967 15.7803C7.61032 15.921 7.80109 16 8 16C8.19891 16 8.38968 15.921 8.53033 15.7803L11.5303 12.7803L10.4697 11.7197L8.75 13.4393L8.75 10L7.25 10L7.25 13.4393L5.53033 11.7197L4.46967 12.7803Z" fill="#292A2E"/>
</svg>
