<svg width="16" height="16" viewBox="0 0 16 16" fill="none" xmlns="http://www.w3.org/2000/svg">
<path fill-rule="evenodd" clip-rule="evenodd" d="M2.375 16C1.61561 16 1 15.3844 1 14.625L1 8.875C1 8.11561 1.61561 7.5 2.375 7.5L13.625 7.5C14.3844 7.5 15 8.11561 15 8.875L15 14.625C15 15.3844 14.3844 16 13.625 16L2.375 16ZM2.5 14.5L13.5 14.5L13.5 12.5L2.5 12.5L2.5 14.5ZM2.5 11L13.5 11L13.5 9L2.5 9L2.5 11ZM8.75 3.75L11 3.75L11 2.25L8.75 2.25L8.75 3.38763e-07L7.25 2.73196e-07L7.25 2.25L5 2.25L5 3.75L7.25 3.75L7.25 6L8.75 6L8.75 3.75Z" fill="#292A2E"/>
</svg>
