<svg width="16" height="16" viewBox="0 0 16 16" fill="none" xmlns="http://www.w3.org/2000/svg">
<path fill-rule="evenodd" clip-rule="evenodd" d="M0 2.375C0 1.61561 0.615608 1 1.375 1H7.125C7.88439 1 8.5 1.61561 8.5 2.375V13.625C8.5 14.3844 7.88439 15 7.125 15H1.375C0.615608 15 0 14.3844 0 13.625V2.375ZM1.5 2.5V13.5H3.5V2.5H1.5ZM5 2.5V13.5H7V2.5H5ZM12.7803 4.46967L15.7803 7.46967C16.0732 7.76256 16.0732 8.23744 15.7803 8.53033L12.7803 11.5303L11.7197 10.4697L13.4393 8.75H10V7.25H13.4393L11.7197 5.53033L12.7803 4.46967Z" fill="#292A2E"/>
</svg>
