<svg width="16" height="16" viewBox="0 0 16 16" fill="none" xmlns="http://www.w3.org/2000/svg">
<path fill-rule="evenodd" clip-rule="evenodd" d="M16 2.375C16 1.61561 15.3844 1 14.625 1H8.875C8.11561 1 7.5 1.61561 7.5 2.375V13.625C7.5 14.3844 8.11561 15 8.875 15H14.625C15.3844 15 16 14.3844 16 13.625V2.375ZM14.5 2.5V13.5H12.5V2.5H14.5ZM11 2.5V13.5H9V2.5H11ZM3.21967 4.46967L0.21967 7.46967C-0.0732231 7.76256 -0.0732231 8.23744 0.21967 8.53033L3.21967 11.5303L4.28033 10.4697L2.56066 8.75H6V7.25H2.56066L4.28033 5.53033L3.21967 4.46967Z" fill="#44546F"/>
</svg>
