<svg width="16" height="16" viewBox="0 0 16 16" fill="none" xmlns="http://www.w3.org/2000/svg">
<path fill-rule="evenodd" clip-rule="evenodd" d="M2 3.5C1.72386 3.5 1.5 3.72386 1.5 4V12C1.5 12.2761 1.72386 12.5 2 12.5H14C14.2761 12.5 14.5 12.2761 14.5 12V4C14.5 3.72386 14.2761 3.5 14 3.5H2ZM0 4C0 2.89543 0.89543 2 2 2H14C15.1046 2 16 2.89543 16 4V12C16 13.1046 15.1046 14 14 14H2C0.895431 14 0 13.1046 0 12V4ZM6.93934 8L5.21967 6.28033L6.28033 5.21967L8 6.93934L9.71967 5.21967L10.7803 6.28033L9.06066 8L10.7803 9.71967L9.71967 10.7803L8 9.06066L6.28033 10.7803L5.21967 9.71967L6.93934 8Z" fill="#44546F"/>
</svg>
