<svg width="16" height="16" viewBox="0 0 16 16" fill="none" xmlns="http://www.w3.org/2000/svg">
<path d="M11 4C10.4477 4 10 4.44772 10 5C10 5.55228 10.4477 6 11 6C11.5523 6 12 5.55228 12 5C12 4.44772 11.5523 4 11 4Z" fill="#44546F"/>
<path fill-rule="evenodd" clip-rule="evenodd" d="M9.28553 1C8.42358 1 7.59693 1.34241 6.98744 1.9519L1.60355 7.33579C0.822502 8.11684 0.822504 9.38317 1.60355 10.1642L5.83578 14.3964C6.61683 15.1775 7.88316 15.1775 8.66421 14.3964L14.0481 9.01256C14.6576 8.40307 15 7.57642 15 6.71447V3C15 1.89543 14.1046 1 13 1H9.28553ZM8.0481 3.01256C8.37628 2.68437 8.8214 2.5 9.28553 2.5H13C13.2761 2.5 13.5 2.72386 13.5 3V6.71447C13.5 7.1786 13.3156 7.62371 12.9874 7.9519L7.60355 13.3358C7.40829 13.531 7.09171 13.531 6.89644 13.3358L2.66421 9.10355C2.46895 8.90829 2.46895 8.59171 2.66421 8.39645L8.0481 3.01256Z" fill="#44546F"/>
</svg>
