<svg width="16" height="16" viewBox="0 0 16 16" fill="none" xmlns="http://www.w3.org/2000/svg">
<path fill-rule="evenodd" clip-rule="evenodd" d="M7.35356 1.58579C7.72863 1.21071 8.23734 1 8.76777 1H13C14.1046 1 15 1.89543 15 3V7.23223C15 7.76267 14.7893 8.27137 14.4142 8.64645L8.66422 14.3964C7.88317 15.1775 6.61684 15.1775 5.83579 14.3964L1.60356 10.1642C0.822508 9.38317 0.822505 8.11684 1.60355 7.33579L7.35356 1.58579ZM8.76777 2.5C8.63516 2.5 8.50798 2.55268 8.41422 2.64645L2.66421 8.39645C2.46895 8.59171 2.46895 8.90829 2.66422 9.10355L6.89645 13.3358C7.09171 13.531 7.40829 13.531 7.60356 13.3358L13.3536 7.58579C13.4473 7.49202 13.5 7.36484 13.5 7.23223V3C13.5 2.72386 13.2761 2.5 13 2.5H8.76777Z" fill="#44546F"/>
<path d="M10 5C10 4.44772 10.4477 4 11 4C11.5523 4 12 4.44772 12 5C12 5.55228 11.5523 6 11 6C10.4477 6 10 5.55228 10 5Z" fill="#44546F"/>
</svg>
