<svg width="16" height="16" viewBox="0 0 16 16" fill="none" xmlns="http://www.w3.org/2000/svg">
<path d="M15.25 11.75V10.25C15.25 8.86929 14.1307 7.75 12.75 7.75H8.25C6.86929 7.75 5.75 8.86929 5.75 10.25V11.75M15.25 11.75V14C15.25 14.6904 14.6904 15.25 14 15.25H7C6.30964 15.25 5.75 14.6904 5.75 14V11.75M15.25 11.75H5.75M8 15.25H2.88661C2.24216 15.25 1.70334 14.7601 1.64224 14.1185L0.75 4.75H4.5M4.5 4.75H8.25L8 7.75M4.5 4.75L5.75 0.75H10" stroke="#44546F" stroke-width="1.5" stroke-linejoin="round"/>
</svg>
