<svg width="16" height="16" viewBox="0 0 16 16" fill="none" xmlns="http://www.w3.org/2000/svg">
<path fill-rule="evenodd" clip-rule="evenodd" d="M5.03414 0.526294C5.13199 0.213187 5.42196 0 5.75 0H10V1.5H6.3014L5.52015 4H8.25C8.45974 4 8.6599 4.08782 8.80191 4.24217C8.94393 4.39651 9.01483 4.60327 8.99741 4.81228L8.8151 7H12.75C14.5449 7 16 8.45507 16 10.25V14C16 15.1046 15.1046 16 14 16H2.88661C1.8555 16 0.99338 15.2161 0.895621 14.1896L0.00338134 4.82111C-0.01665 4.61078 0.0529625 4.40176 0.195102 4.24544C0.337242 4.08912 0.538722 4 0.750003 4H3.94861L5.03414 0.526294ZM7 14.5H14C14.2761 14.5 14.5 14.2761 14.5 14V12.5H6.5V14C6.5 14.2761 6.72386 14.5 7 14.5ZM6.5 11H14.5V10.25C14.5 9.2835 13.7165 8.5 12.75 8.5H8.25C7.2835 8.5 6.5 9.2835 6.5 10.25V11ZM5.06301 14.5H2.88661C2.62883 14.5 2.4133 14.304 2.38886 14.0474L1.57483 5.5H7.4349L7.2981 7.14163C5.96763 7.54857 5 8.78628 5 10.25V14C5 14.1726 5.02188 14.3402 5.06301 14.5Z" fill="#292A2E"/>
</svg>
