<svg width="16" height="16" viewBox="0 0 16 16" fill="none" xmlns="http://www.w3.org/2000/svg">
<path fill-rule="evenodd" clip-rule="evenodd" d="M1.5428 7.25H4V8.75H1.5428C1.88638 11.7405 4.2595 14.1136 7.25 14.4572V12.0001H8.75V14.4572C11.7405 14.1136 14.1136 11.7405 14.4572 8.75H12V7.25H14.4572C14.1136 4.2595 11.7405 1.88638 8.75 1.5428V4.00008H7.25V1.5428C4.2595 1.88638 1.88638 4.2595 1.5428 7.25ZM0 8C-3.57628e-07 3.58172 3.58172 -1.78814e-07 8 0C12.4183 -1.78814e-07 16 3.58172 16 8C16 12.4183 12.4183 16 8 16C3.58172 16 1.78814e-07 12.4183 0 8Z" fill="#44546F"/>
</svg>
