<svg width="16" height="16" viewBox="0 0 16 16" fill="none" xmlns="http://www.w3.org/2000/svg">
<path fill-rule="evenodd" clip-rule="evenodd" d="M1.5428 7.24986H4V8.74986H1.5428C1.88638 11.7404 4.2595 14.1135 7.25 14.4571V11.9999H8.75V14.4571C11.7405 14.1135 14.1136 11.7404 14.4572 8.74986H12V7.24986H14.4572C14.1136 4.25937 11.7405 1.88624 8.75 1.54266V3.99995H7.25V1.54266C4.2595 1.88624 1.88638 4.25937 1.5428 7.24986ZM0 7.99986C-3.57628e-07 3.58158 3.58172 -0.000137508 8 -0.000137329C12.4183 -0.000137508 16 3.58158 16 7.99986C16 12.4181 12.4183 15.9999 8 15.9999C3.58172 15.9999 1.78814e-07 12.4181 0 7.99986Z" fill="#292A2E"/>
</svg>
