<svg width="16" height="16" viewBox="0 0 16 16" fill="none" xmlns="http://www.w3.org/2000/svg">
<path fill-rule="evenodd" clip-rule="evenodd" d="M1 3C1 1.89543 1.89543 1 3 1H13C14.1046 1 15 1.89543 15 3V13C15 14.1046 14.1046 15 13 15H3C1.89543 15 1 14.1046 1 13V3ZM3 2.5C2.72386 2.5 2.5 2.72386 2.5 3V13C2.5 13.2761 2.72386 13.5 3 13.5H13C13.2761 13.5 13.5 13.2761 13.5 13V3C13.5 2.72386 13.2761 2.5 13 2.5H3ZM12.3262 5.48014L7.32617 11.4801C7.18367 11.6511 6.97258 11.75 6.75 11.75C6.52742 11.75 6.31633 11.6511 6.17383 11.4801L3.67383 8.48014L4.82617 7.51986L6.75 9.82846L11.1738 4.51986L12.3262 5.48014Z" fill="#44546F"/>
</svg>
