<svg width="16" height="16" viewBox="0 0 16 16" fill="none" xmlns="http://www.w3.org/2000/svg">
<path fill-rule="evenodd" clip-rule="evenodd" d="M1.54281 7.24991H9.18931L6.96968 5.03034L8.03032 3.96966L11.5303 7.46957C11.671 7.61023 11.75 7.80099 11.75 7.99991C11.75 8.19882 11.671 8.38959 11.5303 8.53024L8.03033 12.0302L6.96967 10.9696L9.18934 8.74991H1.54279C1.9146 11.9865 4.66377 14.5 8 14.5C11.5899 14.5 14.5 11.5899 14.5 8C14.5 4.41015 11.5899 1.5 8 1.5C4.66384 1.5 1.9147 4.01338 1.54281 7.24991ZM0 8C0 3.58172 3.58172 0 8 0C12.4183 0 16 3.58172 16 8C16 12.4183 12.4183 16 8 16C3.58172 16 0 12.4183 0 8Z" fill="#292A2E"/>
</svg>
