<svg width="16" height="16" viewBox="0 0 16 16" fill="none" xmlns="http://www.w3.org/2000/svg">
<path d="M8 15.25C6.24201 15.25 4.63015 14.6243 3.375 13.5834M8 0.75C8.01043 0.75 8.02085 0.750022 8.03127 0.750066C9.80494 0.757557 11.4283 1.40195 12.6844 2.46637M14.2948 4.40049C14.9025 5.46109 15.25 6.68997 15.25 8C15.25 8.43964 15.2109 8.87015 15.1359 9.28821M14.2641 11.6526C13.4114 13.1117 12.0635 14.2461 10.451 14.8252M1.73375 11.6488C1.10833 10.5771 0.75 9.33038 0.75 8C0.75 7.58016 0.785686 7.16866 0.85419 6.76836M1.70428 4.40217C2.54476 2.93462 3.88359 1.78907 5.49006 1.19623" stroke="#44546F" stroke-width="1.5"/>
</svg>
