<svg width="16" height="16" viewBox="0 0 16 16" fill="none" xmlns="http://www.w3.org/2000/svg">
<path fill-rule="evenodd" clip-rule="evenodd" d="M8.02811 1.50006L8 1.5V0L8.03444 7.27177e-05C9.99109 0.00833613 11.7835 0.719932 13.1693 1.89418L12.1995 3.03856C11.073 2.08397 9.61879 1.50678 8.02811 1.50006ZM5.74972 1.89985C4.31031 2.43104 3.10907 3.4584 2.35511 4.7749L1.05346 4.02944C1.98044 2.41084 3.45687 1.1471 5.2304 0.492612L5.74972 1.89985ZM14.5 8C14.5 6.82423 14.1885 5.72349 13.644 4.77339L14.9455 4.02758C15.6166 5.19868 16 6.5557 16 8C16 8.48423 15.9569 8.95904 15.8741 9.4206L14.3977 9.15583C14.4648 8.78125 14.5 8.39505 14.5 8ZM1.59344 6.89487C1.53206 7.25356 1.5 7.62274 1.5 8C1.5 9.19399 1.82124 10.3107 2.38152 11.2708L1.08598 12.0268C0.395427 10.8435 0 9.46677 0 8C0 7.53759 0.0393113 7.08377 0.114937 6.64185L1.59344 6.89487ZM10.1975 14.1194C11.6422 13.6005 12.8516 12.5832 13.6165 11.2742L14.9116 12.031C13.9712 13.6402 12.4848 14.8917 10.7045 15.5311L10.1975 14.1194ZM3.85375 13.0061C4.97932 13.9395 6.42321 14.5 8 14.5V16C6.0608 16 4.28099 15.3091 2.89625 14.1607L3.85375 13.0061Z" fill="#292A2E"/>
</svg>
