<svg width="16" height="16" viewBox="0 0 16 16" fill="none" xmlns="http://www.w3.org/2000/svg">
<path d="M6 14.25H2C1.30964 14.25 0.75 13.6904 0.75 13V11.75C0.75 10.0931 2.09315 8.75 3.75 8.75H4.89872C6.16024 8.75 7.28698 9.5392 7.7181 10.7248L8.2819 12.2752C8.71302 13.4608 9.83976 14.25 11.1013 14.25H14C14.6904 14.25 15.25 13.6904 15.25 13V11.75C15.25 10.0931 13.9069 8.75 12.25 8.75H12C10.375 8.75 9.875 9 9.875 9M6.25 4C6.25 5.24264 5.24264 6.25 4 6.25C2.75736 6.25 1.75 5.24264 1.75 4C1.75 2.75736 2.75736 1.75 4 1.75C5.24264 1.75 6.25 2.75736 6.25 4ZM14.25 4C14.25 5.24264 13.2426 6.25 12 6.25C10.7574 6.25 9.75 5.24264 9.75 4C9.75 2.75736 10.7574 1.75 12 1.75C13.2426 1.75 14.25 2.75736 14.25 4Z" stroke="#44546F" stroke-width="1.5"/>
</svg>
