<svg width="16" height="16" viewBox="0 0 16 16" fill="none" xmlns="http://www.w3.org/2000/svg">
<path fill-rule="evenodd" clip-rule="evenodd" d="M4 2.5C3.17157 2.5 2.5 3.17157 2.5 4C2.5 4.82843 3.17157 5.5 4 5.5C4.82843 5.5 5.5 4.82843 5.5 4C5.5 3.17157 4.82843 2.5 4 2.5ZM1 4C1 2.34315 2.34315 1 4 1C5.65685 1 7 2.34315 7 4C7 5.65685 5.65685 7 4 7C2.34315 7 1 5.65685 1 4ZM12 2.5C11.1716 2.5 10.5 3.17157 10.5 4C10.5 4.82843 11.1716 5.5 12 5.5C12.8284 5.5 13.5 4.82843 13.5 4C13.5 3.17157 12.8284 2.5 12 2.5ZM9 4C9 2.34315 10.3431 1 12 1C13.6569 1 15 2.34315 15 4C15 5.65685 13.6569 7 12 7C10.3431 7 9 5.65685 9 4ZM3.75 9.5C2.50736 9.5 1.5 10.5074 1.5 11.75V13C1.5 13.2761 1.72386 13.5 2 13.5H6V15H2C0.89543 15 0 14.1046 0 13V11.75C0 9.67893 1.67893 8 3.75 8H4.89872C6.47562 8 7.88405 8.9865 8.42294 10.4685L8.98675 12.0189C9.31008 12.9081 10.1551 13.5 11.1013 13.5H14C14.2761 13.5 14.5 13.2761 14.5 13V11.75C14.5 10.5074 13.4926 9.5 12.25 9.5H12C11.2249 9.5 10.7417 9.55971 10.4685 9.61175C10.3322 9.6377 10.2496 9.66149 10.2099 9.67435C10.1901 9.68077 10.1811 9.68443 10.1817 9.68422L10.1894 9.68085L10.1983 9.67672L10.204 9.674L10.2071 9.67247L10.2087 9.67166L10.2096 9.67124C10.21 9.67103 10.2104 9.67082 9.875 9C9.53959 8.32918 9.54002 8.32897 9.54045 8.32875L9.54132 8.32832L9.54308 8.32744L9.54676 8.32564L9.55464 8.32185L9.5726 8.31354C9.58556 8.30769 9.60053 8.30124 9.61765 8.2943C9.65186 8.28041 9.69467 8.26454 9.74714 8.24752C9.85199 8.21351 9.99591 8.17479 10.1878 8.13825C10.5708 8.06529 11.1501 8 12 8H12.25C14.3211 8 16 9.67893 16 11.75V13C16 14.1046 15.1046 15 14 15H11.1013C9.52438 15 8.11595 14.0135 7.57706 12.5315L7.01325 10.9811C6.68992 10.0919 5.84486 9.5 4.89872 9.5H3.75Z" fill="#292A2E"/>
</svg>
