<svg width="16" height="16" viewBox="0 0 16 16" fill="none" xmlns="http://www.w3.org/2000/svg">
<path d="M7.46557 2.5C6.78602 2.5 6.1478 2.82633 5.74993 3.37723C5.21348 4.12 5.23919 5.05463 5.6777 5.75H4.03156C3.6857 4.70309 3.81151 3.49924 4.53391 2.49899C5.21379 1.55762 6.30436 1 7.46557 1H8.39922C9.63884 1 10.8113 1.56349 11.5856 2.53148L10.4143 3.46852C9.92462 2.85636 9.18317 2.5 8.39922 2.5H7.46557Z" fill="#44546F"/>
<path d="M10.9749 10.25H12.5559C12.7714 11.0993 12.6981 12.0308 12.2684 12.8903C11.6219 14.1833 10.3004 15 8.85478 15H8.18702C6.40867 15 4.79713 13.9527 4.07487 12.3276L4.06464 12.3046L5.43536 11.6954L5.44559 11.7184C5.92709 12.8018 7.00146 13.5 8.18702 13.5H8.85478C9.73221 13.5 10.5343 13.0043 10.9267 12.2195C11.2512 11.5705 11.2408 10.854 10.9749 10.25Z" fill="#44546F"/>
<path d="M15 7.25H1V8.75H15V7.25Z" fill="#44546F"/>
</svg>
