<svg width="16" height="16" viewBox="0 0 16 16" fill="none" xmlns="http://www.w3.org/2000/svg">
<path fill-rule="evenodd" clip-rule="evenodd" d="M13.375 5L-6.62458e-08 5L0 3.5L13.375 3.5C14.8247 3.5 16 4.67526 16 6.125L16 8.875C16 10.3247 14.8247 11.5 13.375 11.5L9.56066 11.5L11.2803 13.2197L10.2197 14.2803L7.21967 11.2803C6.92678 10.9874 6.92678 10.5126 7.21967 10.2197L10.2197 7.21967L11.2803 8.28033L9.56066 10L13.375 10C13.9963 10 14.5 9.49632 14.5 8.875L14.5 6.125C14.5 5.50368 13.9963 5 13.375 5ZM5 11.5L-3.5331e-07 11.5L-2.87065e-07 10L5 10L5 11.5Z" fill="#292A2E"/>
</svg>
