<svg width="16" height="16" viewBox="0 0 16 16" fill="none" xmlns="http://www.w3.org/2000/svg">
<path fill-rule="evenodd" clip-rule="evenodd" d="M3 2.125C3 1.50368 3.50368 1 4.125 1H8.75C11.0036 1 13 2.62564 13 5.0625C13 6.04209 12.6774 6.8906 12.1451 7.5551C13.2476 8.25121 14 9.44148 14 10.9375C14 13.3744 12.0036 15 9.75 15H4.125C3.50368 15 3 14.4963 3 13.875V2.125ZM8.75 6.875C9.94818 6.875 10.75 6.07742 10.75 5.0625C10.75 4.04758 9.94818 3.25 8.75 3.25H5.25V6.875H8.75ZM5.25 9.125H9.75C10.9482 9.125 11.75 9.92258 11.75 10.9375C11.75 11.9524 10.9482 12.75 9.75 12.75H5.25V9.125Z" fill="#292A2E"/>
</svg>
