<svg width="16" height="16" viewBox="0 0 16 16" fill="none" xmlns="http://www.w3.org/2000/svg">
<path fill-rule="evenodd" clip-rule="evenodd" d="M4.6699 0.494401C4.77747 0.197641 5.05934 0 5.375 0H6.125C6.44066 0 6.72253 0.197641 6.8301 0.494401L10.4551 10.4944C10.4848 10.5763 10.5 10.6628 10.5 10.75V11H9.06035L9.0449 11.0056L9.04287 11H9V10.8817L7.95537 8H3.54463L2.5 10.8817V11H2.45713L2.4551 11.0056L2.43966 11H1V10.75C1 10.6628 1.01519 10.5763 1.0449 10.4944L4.6699 0.494401ZM4.08838 6.5H7.41162L5.75 1.91623L4.08838 6.5Z" fill="#292A2E"/>
<path fill-rule="evenodd" clip-rule="evenodd" d="M13.9281 9.26477L15.0719 10.2352L10.4052 15.7352C10.2627 15.9032 10.0536 16 9.83333 16C9.61308 16 9.40395 15.9032 9.26145 15.7352L6.92812 12.9852L8.07188 12.0148L9.83333 14.0908L13.9281 9.26477Z" fill="#292A2E"/>
</svg>
