<svg width="16" height="16" viewBox="0 0 16 16" fill="none" xmlns="http://www.w3.org/2000/svg">
<path fill-rule="evenodd" clip-rule="evenodd" d="M15 2.5L1 2.5L1 1L15 1L15 2.5ZM2.03033 4.71967L4.78033 7.46967C4.92098 7.61032 5 7.80109 5 8C5 8.19891 4.92098 8.38968 4.78033 8.53033L2.03033 11.2803L0.969669 10.2197L3.18934 8L0.969669 5.78033L2.03033 4.71967ZM15 6.66667L8 6.66667L8 5.16667L15 5.16667L15 6.66667ZM15 10.8333L8 10.8333L8 9.33334L15 9.33334L15 10.8333ZM15 13.5L15 15L1 15L1 13.5L15 13.5Z" fill="#44546F"/>
</svg>
