<svg width="16" height="16" viewBox="0 0 16 16" fill="none" xmlns="http://www.w3.org/2000/svg">
<path fill-rule="evenodd" clip-rule="evenodd" d="M3.63416 2.75009L0 12.9926H1.91645L2.77042 10.345H6.5634L7.41738 12.9926H9.33383L5.69257 2.75009H3.63416ZM4.72725 4.65237H4.60658L3.22603 8.93248H6.1078L4.72725 4.65237Z" fill="#44546F"/>
<path fill-rule="evenodd" clip-rule="evenodd" d="M10.5488 12.8364C10.9368 13.0256 11.3745 13.1203 11.8619 13.1203C12.2073 13.1203 12.5244 13.073 12.813 12.9783C13.1017 12.8837 13.3572 12.7464 13.5796 12.5666C13.8067 12.3868 13.9913 12.1739 14.1332 11.9278H14.2539V12.9925H16V7.69028C16 7.14609 15.8793 6.67999 15.638 6.29196C15.3967 5.89921 15.0441 5.60109 14.5804 5.39761C14.1167 5.1894 13.5488 5.0853 12.8769 5.0853C12.2665 5.0853 11.727 5.17521 11.2586 5.35502C10.7901 5.53484 10.4139 5.788 10.13 6.11451C9.84606 6.44102 9.67571 6.82195 9.61893 7.2573L9.61183 7.32118H11.2799L11.287 7.29279C11.3769 7.03726 11.5496 6.84088 11.8051 6.70365C12.0606 6.56169 12.3895 6.49071 12.7917 6.49071C13.2744 6.49071 13.6387 6.59481 13.8848 6.80302C14.1309 7.0065 14.2539 7.30225 14.2539 7.69028V8.35473L12.2594 8.47816C11.63 8.51128 11.0953 8.62249 10.6552 8.81177C10.2152 9.00105 9.88155 9.26368 9.65442 9.59965C9.42728 9.93089 9.31372 10.326 9.31372 10.785V10.7992C9.31372 11.2724 9.42255 11.6841 9.64022 12.0343C9.86263 12.3797 10.1655 12.6471 10.5488 12.8364ZM14.2539 9.52157V10.1462C14.2539 10.4538 14.1735 10.7306 14.0126 10.9767C13.8517 11.218 13.6316 11.4096 13.3525 11.5516C13.0733 11.6936 12.7562 11.7646 12.4013 11.7646C12.0086 11.7646 11.6844 11.6723 11.4289 11.4877C11.1781 11.3032 11.0527 11.0453 11.0527 10.714V10.6998C11.0527 10.3781 11.171 10.1273 11.4076 9.94745C11.6442 9.76764 12.0109 9.66353 12.5078 9.63514L14.2539 9.52157Z" fill="#44546F"/>
</svg>
