<svg width="16" height="16" viewBox="0 0 16 16" fill="none" xmlns="http://www.w3.org/2000/svg">
<path d="M8 12.25C10.3472 12.25 12.25 10.3472 12.25 8C12.25 5.65279 10.3472 3.75 8 3.75V12.25Z" fill="#44546F"/>
<path fill-rule="evenodd" clip-rule="evenodd" d="M12.25 8C12.25 10.3472 10.3472 12.25 8 12.25V3.75C10.3472 3.75 12.25 5.65279 12.25 8Z" fill="#44546F"/>
<path d="M15.25 8C15.25 12.0041 12.0041 15.25 8 15.25C3.99594 15.25 0.75 12.0041 0.75 8C0.75 3.99594 3.99594 0.75 8 0.75C12.0041 0.75 15.25 3.99594 15.25 8ZM12.25 8C12.25 10.3472 10.3472 12.25 8 12.25V3.75C10.3472 3.75 12.25 5.65279 12.25 8Z" stroke="#44546F" stroke-width="1.5"/>
</svg>
