<svg width="16" height="16" viewBox="0 0 16 16" fill="none" xmlns="http://www.w3.org/2000/svg">
<path fill-rule="evenodd" clip-rule="evenodd" d="M7.29212 13.4055C7.53661 13.6151 7.91256 13.5423 8.06112 13.2566L10.4999 8.56665V2.5H4.12837C3.63631 2.5 3.20135 2.81978 3.05458 3.28944L1.72646 7.53944C1.50007 8.26386 2.04127 9 2.80024 9H6.24989C6.6641 9 6.99989 9.33579 6.99989 9.75V12.9251C6.99989 13.071 7.06367 13.2097 7.17449 13.3047L7.29212 13.4055ZM11.9999 2.5V8H13.9999C14.276 8 14.4999 7.77614 14.4999 7.5V3C14.4999 2.72386 14.276 2.5 13.9999 2.5H11.9999ZM11.7052 9.5L9.39195 13.9486C8.7977 15.0914 7.29391 15.3827 6.31593 14.5444L6.1983 14.4436C5.75501 14.0636 5.49989 13.5089 5.49989 12.9251V10.5H2.80024C1.02931 10.5 -0.23349 8.78235 0.294734 7.09203L1.62286 2.84203C1.96532 1.74615 2.98023 1 4.12837 1H13.9999C15.1045 1 15.9999 1.89543 15.9999 3V7.5C15.9999 8.60457 15.1045 9.5 13.9999 9.5H11.7052Z" fill="#292A2E"/>
</svg>
