<svg width="16" height="16" viewBox="0 0 16 16" fill="none" xmlns="http://www.w3.org/2000/svg">
<path d="M10.2432 9.24092C8.65663 9.9309 7.06731 11.3582 7.06731 13.4736C7.06731 14.5311 2.86538 15.0598 4.98077 9.7718C3.92308 10.2471 0.75 11.5192 0.75 8.87496C0.75 5.70189 0.75 2.52881 4.98077 2.52881C7.43384 2.52881 8.0415 2.52881 10.0166 3.79554M10.0166 3.79554C10.1142 3.20243 10.6293 2.74997 11.25 2.74997H13C13.6904 2.74997 14.25 3.30961 14.25 3.99997V8.49997C14.25 9.19033 13.6904 9.74997 13 9.74997H11.25C10.5596 9.74997 10 9.19033 10 8.49997V3.99997C10 3.93035 10.0057 3.86206 10.0166 3.79554Z" stroke="#44546F" stroke-width="1.5" stroke-linejoin="round"/>
</svg>
