<svg width="16" height="16" viewBox="0 0 16 16" fill="none" xmlns="http://www.w3.org/2000/svg">
<path d="M5.75683 6.76C7.34337 6.07002 8.93269 4.64273 8.93269 2.52734C8.93269 1.46977 13.1346 0.941128 11.0192 6.22911C12.0769 5.75381 15.25 4.48172 15.25 7.12596C15.25 10.299 15.25 13.4721 11.0192 13.4721C8.56616 13.4721 7.9585 13.4721 5.98337 12.2054M5.98337 12.2054C5.88579 12.7985 5.37074 13.2509 4.75 13.2509H3C2.30964 13.2509 1.75 12.6913 1.75 12.0009V7.50095C1.75 6.81059 2.30964 6.25095 3 6.25095H4.75C5.44036 6.25095 6 6.81059 6 7.50095V12.0009C6 12.0706 5.99431 12.1389 5.98337 12.2054Z" stroke="#44546F" stroke-width="1.5" stroke-linejoin="round"/>
</svg>
