<svg width="16" height="16" viewBox="0 0 16 16" fill="none" xmlns="http://www.w3.org/2000/svg">
<path d="M5.75683 6.75988C7.34337 6.0699 8.93269 4.64261 8.93269 2.52722C8.93269 1.46965 13.1346 0.941006 11.0192 6.22899C12.0769 5.75369 15.25 4.4816 15.25 7.12583C15.25 10.2989 15.25 13.472 11.0192 13.472C8.56616 13.472 7.9585 13.472 5.98337 12.2053M5.98337 12.2053C5.88579 12.7984 5.37074 13.2508 4.75 13.2508H3C2.30964 13.2508 1.75 12.6912 1.75 12.0008V7.50083C1.75 6.81047 2.30964 6.25083 3 6.25083H4.75C5.44036 6.25083 6 6.81047 6 7.50083V12.0008C6 12.0704 5.99431 12.1387 5.98337 12.2053Z" stroke="#44546F" stroke-width="1.5" stroke-linejoin="round"/>
</svg>
