<svg width="16" height="16" viewBox="0 0 16 16" fill="none" xmlns="http://www.w3.org/2000/svg">
<path fill-rule="evenodd" clip-rule="evenodd" d="M8.70777 2.59437C8.46327 2.3848 8.08733 2.45762 7.93876 2.74332L5.5 7.43325V13.4999H11.8715C12.3636 13.4999 12.7985 13.1801 12.9453 12.7105L14.2734 8.46046C14.4998 7.73604 13.9586 6.9999 13.1996 6.9999H9.75C9.33579 6.9999 9 6.66412 9 6.2499V3.07482C9 2.92886 8.93622 2.79018 8.8254 2.69519L8.70777 2.59437ZM4 13.4999V7.9999H2C1.72386 7.9999 1.5 8.22376 1.5 8.4999V12.9999C1.5 13.276 1.72386 13.4999 2 13.4999H4ZM4.29466 6.4999L6.60794 2.05129C7.20219 0.908499 8.70598 0.61722 9.68395 1.45548L9.80158 1.55631C10.2449 1.93627 10.5 2.49097 10.5 3.07482V5.4999H13.1996C14.9706 5.4999 16.2334 7.21756 15.7052 8.90787L14.377 13.1579C14.0346 14.2537 13.0197 14.9999 11.8715 14.9999H2C0.895431 14.9999 0 14.1045 0 12.9999V8.4999C0 7.39533 0.895431 6.4999 2 6.4999H4.29466Z" fill="#292A2E"/>
</svg>
