<svg width="16" height="16" viewBox="0 0 16 16" fill="none" xmlns="http://www.w3.org/2000/svg">
<path d="M5.00683 6.76003C6.59337 6.07005 8.18269 4.64276 8.18269 2.52737C8.18269 1.4698 12.3846 0.941159 10.2692 6.22914C11.3269 5.75384 15.25 4.48176 15.25 7.12599C15.25 10.2991 15 13.4721 10.7692 13.4721C8.31616 13.4721 7.2085 13.4721 5.23337 12.2054M5.23337 12.2054C5.13579 12.7985 4.62074 13.251 4 13.251H2C1.30964 13.251 0.75 12.6913 0.75 12.001V7.50098C0.75 6.81062 1.30964 6.25098 2 6.25098H4C4.69036 6.25098 5.25 6.81062 5.25 7.50098V12.001C5.25 12.0706 5.24431 12.1389 5.23337 12.2054Z" stroke="#44546F" stroke-width="1.5" stroke-linejoin="round"/>
</svg>
