<svg width="16" height="16" viewBox="0 0 16 16" fill="none" xmlns="http://www.w3.org/2000/svg">
<path fill-rule="evenodd" clip-rule="evenodd" d="M7.29212 13.4058C7.53661 13.6154 7.91256 13.5426 8.06113 13.2569L10.4999 8.56694V2.50029H4.12837C3.63631 2.50029 3.20135 2.82007 3.05458 3.28973L1.72646 7.53973C1.50007 8.26415 2.04128 9.00029 2.80025 9.00029H6.24989C6.6641 9.00029 6.99989 9.33608 6.99989 9.75029V12.9254C6.99989 13.0713 7.06367 13.21 7.17449 13.305L7.29212 13.4058ZM11.9999 2.50029V8.00029H13.9999C14.276 8.00029 14.4999 7.77643 14.4999 7.50029V3.00029C14.4999 2.72415 14.276 2.50029 13.9999 2.50029H11.9999ZM11.7052 9.50029L9.39195 13.9489C8.7977 15.0917 7.29391 15.383 6.31593 14.5447L6.19831 14.4439C5.75501 14.0639 5.49989 13.5092 5.49989 12.9254V10.5003H2.80025C1.02932 10.5003 -0.233488 8.78264 0.294736 7.09232L1.62286 2.84232C1.96532 1.74644 2.98024 1.00029 4.12837 1.00029H13.9999C15.1045 1.00029 15.9999 1.89572 15.9999 3.00029V7.50029C15.9999 8.60486 15.1045 9.50029 13.9999 9.50029H11.7052Z" fill="#292A2E"/>
</svg>
