<svg width="16" height="16" viewBox="0 0 16 16" fill="none" xmlns="http://www.w3.org/2000/svg">
<path d="M10.9933 9.24092C9.40674 9.9309 7.81741 11.3582 7.81741 13.4736C7.81741 14.5311 3.61549 15.0598 5.73088 9.7718C4.67318 10.2471 0.750107 11.5192 0.750107 8.87496C0.750107 5.70189 0.500107 2.52881 4.73088 2.52881C7.18395 2.52881 8.79161 2.52881 10.7667 3.79554M10.7667 3.79554C10.8643 3.20243 11.3794 2.74997 12.0001 2.74997H14.0001C14.6905 2.74997 15.2501 3.30961 15.2501 3.99997V8.49997C15.2501 9.19033 14.6905 9.74997 14.0001 9.74997H12.0001C11.3098 9.74997 10.7501 9.19033 10.7501 8.49997V3.99997C10.7501 3.93035 10.7558 3.86206 10.7667 3.79554Z" stroke="#44546F" stroke-width="1.5" stroke-linejoin="round"/>
</svg>
