<svg width="16" height="16" viewBox="0 0 16 16" fill="none" xmlns="http://www.w3.org/2000/svg">
<path d="M4.24997 4.23224V2L1.74997 0.75L0.749972 1.75L1.99997 4.23224H4.24997ZM4.24997 4.23224L6.88388 6.86615M8.00888 10.2411L12.5089 14.7411C13.1302 15.3624 14.1375 15.3624 14.7589 14.7411V14.7411C15.3802 14.1198 15.3802 13.1124 14.7589 12.4911L11.4898 9.22208M8.00888 10.2411L3.50891 14.7411C2.88759 15.3624 1.88023 15.3624 1.25891 14.7411V14.7411C0.63759 14.1198 0.63759 13.1124 1.25891 12.4911L6.88388 6.86615M8.00888 10.2411L9.25003 9L9.3375 8.91252C9.84816 9.12979 10.4101 9.25 11 9.25C11.1657 9.25 11.3291 9.24052 11.4898 9.22208M11.4898 9.22208C13.6063 8.97922 15.25 7.18156 15.25 5C15.25 4.41001 15.1298 3.84811 14.9125 3.33744L12.25 6L9.99997 3.75L12.6625 1.08746C12.1519 0.870206 11.59 0.75 11 0.75C8.65282 0.75 6.75003 2.65279 6.75003 5C6.75003 5.58997 6.87024 6.15186 7.0875 6.66252L7.00003 6.75L6.88388 6.86615" stroke="#44546F" stroke-width="1.5" stroke-linejoin="round"/>
</svg>
