<svg width="16" height="16" viewBox="0 0 16 16" fill="none" xmlns="http://www.w3.org/2000/svg">
<path fill-rule="evenodd" clip-rule="evenodd" d="M1.21964 0.219691C1.44791 -0.00857963 1.79664 -0.0651705 2.08538 0.0792003L4.58538 1.3292C4.83947 1.45624 4.99997 1.71594 4.99997 2.00002V3.9216L6.00062 4.92225C6.04218 2.19669 8.26457 2.06726e-05 11 2.06726e-05C11.6927 2.06726e-05 12.3543 0.141307 12.9561 0.397346C13.1855 0.494913 13.3513 0.70002 13.3988 0.944679C13.4462 1.18934 13.3691 1.44159 13.1928 1.61781L11.0606 3.75002L12.25 4.93936L14.3822 2.80713C14.5584 2.63091 14.8107 2.55373 15.0553 2.60118C15.3 2.64863 15.5051 2.81451 15.6027 3.04383C15.8587 3.64566 16 4.3073 16 5.00002C16 7.07427 14.7374 8.85291 12.9385 9.61017L15.2892 11.9608C16.2034 12.875 16.2034 14.3573 15.2892 15.2715C14.375 16.1857 12.8927 16.1857 11.9785 15.2715L8.00888 11.3018L4.03924 15.2715C3.12503 16.1857 1.64279 16.1857 0.728579 15.2715C-0.185634 14.3573 -0.185633 12.875 0.72858 11.9608L5.82322 6.86617L3.93931 4.98226H1.99997C1.71666 4.98226 1.45753 4.82262 1.33011 4.56959L0.0801119 2.08735C-0.0654384 1.79831 -0.00918734 1.44852 0.219641 1.21969L1.21964 0.219691ZM3.49997 3.48226V2.46355L1.89806 1.66259L1.66369 1.89696L2.46202 3.48226H3.49997ZM9.06954 10.2412L13.0392 14.2108C13.3676 14.5392 13.9001 14.5392 14.2285 14.2108C14.557 13.8824 14.557 13.3499 14.2285 13.0215L11.203 9.99596C11.1357 9.99866 11.068 10 11 10C10.4894 10 9.9957 9.92325 9.53037 9.78033L9.06954 10.2412ZM11 1.50002C9.06703 1.50002 7.50003 3.06702 7.50003 5.00002C7.50003 5.48726 7.59916 5.94942 7.77764 6.36892C7.89742 6.65045 7.83418 6.97653 7.61783 7.19287L7.53036 7.28035L1.78924 13.0215C1.46081 13.3499 1.46081 13.8824 1.78924 14.2108C2.11767 14.5392 2.65015 14.5392 2.97858 14.2108L8.80717 8.38221C9.02352 8.16587 9.34959 8.10263 9.63113 8.22241C10.0506 8.40089 10.5128 8.50002 11 8.50002C11.137 8.50002 11.2719 8.49218 11.4043 8.47699C13.1465 8.27708 14.5 6.79608 14.5 5.00002C14.5 4.93806 14.4984 4.87651 14.4953 4.81539L12.7803 6.53035C12.4874 6.82324 12.0125 6.82324 11.7196 6.53035L9.46964 4.28035C9.17675 3.98746 9.17675 3.51258 9.46964 3.21969L11.1845 1.50478C11.1235 1.50162 11.062 1.50002 11 1.50002Z" fill="#44546F"/>
</svg>
