<svg width="16" height="16" viewBox="0 0 16 16" fill="none" xmlns="http://www.w3.org/2000/svg">
<path d="M14.5001 5C14.5001 4.93804 14.4974 4.87654 14.4942 4.81543L12.7803 6.53027C12.5058 6.80485 12.071 6.82226 11.7764 6.58203L11.7198 6.53027L9.46979 4.28027C9.1769 3.98738 9.1769 3.51262 9.46979 3.21973L11.1837 1.50488C11.1229 1.50175 11.0617 1.5 11.0001 1.5C9.06707 1.5 7.50007 3.067 7.50007 5C7.50007 5.48724 7.59893 5.94964 7.77741 6.36914C7.89703 6.65044 7.83417 6.97607 7.61823 7.19238L1.78913 13.0215C1.46075 13.3499 1.46072 13.8825 1.78913 14.2109L1.85261 14.2686C2.18291 14.5382 2.6706 14.5189 2.97858 14.2109L8.71979 8.46973L8.80671 8.38184L8.89264 8.30859C9.10388 8.15293 9.38442 8.11779 9.63093 8.22266C10.0504 8.40114 10.5128 8.5 11.0001 8.5C11.1371 8.5 11.272 8.49175 11.4044 8.47656L11.5665 8.4541C13.2297 8.18374 14.5001 6.73989 14.5001 5ZM9.0694 10.2412L13.0391 14.2109C13.3676 14.5393 13.9002 14.5393 14.2286 14.2109C14.557 13.8825 14.5569 13.3499 14.2286 13.0215L11.2012 9.99414C11.1345 9.99679 11.0674 10 11.0001 10C10.4894 10 9.99575 9.92226 9.53034 9.7793L9.0694 10.2412ZM1.66315 1.89648L2.46198 3.48242H3.50007V2.46387L1.89753 1.66211L1.66315 1.89648ZM16.0001 5C16.0001 7.07444 14.7367 8.85224 12.9376 9.60938L15.2891 11.9609C16.2033 12.8752 16.2033 14.3573 15.2891 15.2715C14.3749 16.1857 12.8928 16.1856 11.9786 15.2715L8.00886 11.3018L4.03913 15.2715C3.18212 16.1284 1.82578 16.1823 0.906316 15.4326L0.728582 15.2715C-0.185615 14.3573 -0.185584 12.8752 0.728582 11.9609L5.82331 6.86621L3.93952 4.98242H2.00007C1.71676 4.98242 1.45757 4.82237 1.33014 4.56934L0.0801445 2.08691C-0.0652198 1.79794 -0.00895773 1.44848 0.219793 1.21973L1.21979 0.219727L1.31061 0.142578C1.53416 -0.0192132 1.8324 -0.0470879 2.08503 0.0791016L4.58503 1.3291L4.67585 1.38281C4.87689 1.5215 5.00007 1.75136 5.00007 2V3.92188L6.00202 4.92383C6.04275 2.19754 8.26409 0 11.0001 0C11.6927 1.29675e-05 12.3543 0.141434 12.9561 0.397461L13.0391 0.438477C13.2251 0.546379 13.3569 0.730393 13.3985 0.944336C13.446 1.189 13.3687 1.44194 13.1924 1.61816L11.0606 3.75L12.2491 4.93848L14.3819 2.80664L14.4512 2.74609C14.621 2.61367 14.8415 2.56001 15.0557 2.60156C15.3002 2.64914 15.5051 2.81479 15.6026 3.04395C15.8586 3.64574 16.0001 4.30733 16.0001 5Z" fill="#44546F"/>
</svg>
