<svg width="16" height="16" viewBox="0 0 16 16" fill="none" xmlns="http://www.w3.org/2000/svg">
<path fill-rule="evenodd" clip-rule="evenodd" d="M12.75 2.5C12.3358 2.5 12 2.83579 12 3.25C12 3.66421 12.3358 4 12.75 4C13.1642 4 13.5 3.66421 13.5 3.25C13.5 2.83579 13.1642 2.5 12.75 2.5ZM10.628 2.5C10.9369 1.62611 11.7703 1 12.75 1C13.9926 1 15 2.00736 15 3.25C15 4.49264 13.9926 5.5 12.75 5.5C11.7703 5.5 10.9369 4.87389 10.628 4H9.8125C9.2257 4 8.75 4.4757 8.75 5.0625V10.9375C8.75 12.3527 7.60273 13.5 6.1875 13.5H5.37197C5.06309 14.3739 4.22966 15 3.25 15C2.00736 15 1 13.9926 1 12.75C1 11.5074 2.00736 10.5 3.25 10.5C4.22966 10.5 5.06309 11.1261 5.37197 12H6.1875C6.7743 12 7.25 11.5243 7.25 10.9375V5.0625C7.25 3.64727 8.39727 2.5 9.8125 2.5H10.628ZM3.25 12C2.83579 12 2.5 12.3358 2.5 12.75C2.5 13.1642 2.83579 13.5 3.25 13.5C3.66421 13.5 4 13.1642 4 12.75C4 12.3358 3.66421 12 3.25 12Z" fill="#292A2E"/>
</svg>
