<svg width="16" height="16" viewBox="0 0 16 16" fill="none" xmlns="http://www.w3.org/2000/svg">
<path d="M15.25 15V14.625L14.1944 12.25M7.75 15V14.625L8.80556 12.25M8.80556 12.25L11.25 6.75H11.75L14.1944 12.25M8.80556 12.25H14.1944M0 3.75H4.75M4.75 3.75V1M4.75 3.75H6.25M6.25 3.75H9.5M6.25 3.75C6.00734 5.93398 5.47024 7.76464 4.68159 9.29914M4.68159 9.29914C3.84525 10.9264 2.72601 12.2207 1.375 13.25M4.68159 9.29914C3.86761 8.31208 3.18352 7.15604 2.75 6M4.68159 9.29914C5.27583 10.0197 5.93928 10.6503 6.625 11.125" stroke="#44546F" stroke-width="1.5" stroke-linejoin="round"/>
</svg>
