<svg width="16" height="16" viewBox="0 0 16 16" fill="none" xmlns="http://www.w3.org/2000/svg">
<path fill-rule="evenodd" clip-rule="evenodd" d="M5.39465 4.5H0V3H4V1H5.5V3H9.5V4.5H6.91097C6.6587 6.27117 6.20745 7.82481 5.57281 9.18451C6.04415 9.70709 6.54626 10.1583 7.05191 10.5084L6.19809 11.7416C5.71927 11.4102 5.25634 11.0138 4.82062 10.5726C4.00665 11.876 2.99878 12.9557 1.82953 13.8466L0.920468 12.6534C2.06691 11.7799 3.03284 10.7056 3.78707 9.37721C3.0633 8.42452 2.45477 7.34871 2.04775 6.26334L3.45225 5.73666C3.71713 6.44301 4.08539 7.15478 4.52477 7.82374C4.90984 6.84152 5.20419 5.73904 5.39465 4.5ZM10.5646 6.4454C10.685 6.17455 10.9536 6 11.25 6H11.75C12.0464 6 12.315 6.17455 12.4354 6.4454L15.9354 14.3204C15.978 14.4163 16 14.5201 16 14.625V15H14.5V14.7842L13.707 13H9.29296L8.5 14.7842V15H7V14.625C7 14.5201 7.02202 14.4163 7.06464 14.3204L10.5646 6.4454ZM9.95963 11.5H13.0404L11.5 8.03416L9.95963 11.5Z" fill="#44546F"/>
</svg>
