<svg width="16" height="16" viewBox="0 0 16 16" fill="none" xmlns="http://www.w3.org/2000/svg">
<path d="M4.75 12.75C4.75 13.5784 4.07843 14.25 3.25 14.25C2.42157 14.25 1.75 13.5784 1.75 12.75C1.75 11.9216 2.42157 11.25 3.25 11.25C4.07843 11.25 4.75 11.9216 4.75 12.75ZM4.75 12.75H6.1875C7.18852 12.75 8 11.9385 8 10.9375V5.0625C8 4.06148 8.81148 3.25 9.8125 3.25H11.25M11.25 3.25C11.25 4.07843 11.9216 4.75 12.75 4.75C13.5784 4.75 14.25 4.07843 14.25 3.25C14.25 2.42157 13.5784 1.75 12.75 1.75C11.9216 1.75 11.25 2.42157 11.25 3.25Z" stroke="#44546F" stroke-width="1.5" stroke-linejoin="round"/>
</svg>
