<svg width="16" height="16" viewBox="0 0 16 16" fill="none" xmlns="http://www.w3.org/2000/svg">
<path fill-rule="evenodd" clip-rule="evenodd" d="M8 0C8.24859 0 8.48102 0.123173 8.62061 0.328874L13.3706 7.32887C13.5265 7.55866 13.5427 7.8558 13.4127 8.10118C13.2827 8.34656 13.0277 8.5 12.75 8.5H12.2835L14.842 11.7895C15.0179 12.0157 15.0496 12.3222 14.9237 12.5795C14.7979 12.8368 14.5365 13 14.25 13H10.5V14.625C10.5 15.3844 9.88439 16 9.125 16H6.875C6.11561 16 5.5 15.3844 5.5 14.625V13H1.75C1.46355 13 1.20212 12.8368 1.07626 12.5795C0.950411 12.3222 0.982122 12.0157 1.15799 11.7895L3.71652 8.5H3.25C2.9723 8.5 2.71733 8.34656 2.5873 8.10118C2.45727 7.8558 2.47346 7.55866 2.62939 7.32887L7.37939 0.328874C7.51898 0.123173 7.75141 0 8 0ZM4.6653 7H5.25C5.53645 7 5.79788 7.16316 5.92374 7.42049C6.04959 7.67781 6.01788 7.98434 5.84201 8.21045L3.28348 11.5H6.25C6.66421 11.5 7 11.8358 7 12.25V14.5H9V12.25C9 11.8358 9.33579 11.5 9.75 11.5H12.7165L10.158 8.21045C9.98212 7.98434 9.95041 7.67781 10.0763 7.42049C10.2021 7.16316 10.4635 7 10.75 7H11.3347L8 2.0857L4.6653 7Z" fill="#292A2E"/>
</svg>
