<svg width="16" height="16" viewBox="0 0 16 16" fill="none" xmlns="http://www.w3.org/2000/svg">
<path d="M3 9.75H6M10 9.75H13M15.625 5L13.7222 6M0.375 5L2.27778 6M2.5375 6.5L3.01846 3.29363C3.15154 2.40638 3.91372 1.75 4.8109 1.75H11.1891C12.0863 1.75 12.8485 2.40638 12.9815 3.29363L13.4625 6.5M15.25 11.75V9.25C15.25 7.86929 14.1307 6.75 12.75 6.75H3.25C1.86929 6.75 0.75 7.86929 0.75 9.25V12.25V13.625C0.75 13.9702 1.02982 14.25 1.375 14.25H3.625C3.97018 14.25 4.25 13.9702 4.25 13.625V13.375C4.25 13.0298 4.52982 12.75 4.875 12.75H11.125C11.4702 12.75 11.75 13.0298 11.75 13.375V13.625C11.75 13.9702 12.0298 14.25 12.375 14.25H14.625C14.9702 14.25 15.25 13.9702 15.25 13.625V11.75Z" stroke="#44546F" stroke-width="1.5" stroke-linejoin="round"/>
</svg>
