<svg width="16" height="16" viewBox="0 0 16 16" fill="none" xmlns="http://www.w3.org/2000/svg">
<path fill-rule="evenodd" clip-rule="evenodd" d="M2.27675 3.18238C2.46491 1.92798 3.54247 1 4.8109 1H11.1891C12.4575 1 13.5351 1.92798 13.7232 3.18238L13.9971 5.00826L15.2761 4.3361L15.9739 5.6639L14.437 6.4716C15.3741 7.04183 16 8.07283 16 9.25V13.625C16 14.3844 15.3844 15 14.625 15H12.375C11.6156 15 11 14.3844 11 13.625V13.5H5V13.625C5 14.3844 4.38439 15 3.625 15H1.375C0.615609 15 0 14.3844 0 13.625V9.25C0 8.07283 0.625852 7.04183 1.56297 6.4716L0.0260897 5.6639L0.72391 4.3361L2.00287 5.00826L2.27675 3.18238ZM3.37089 6L3.76016 3.40489C3.83817 2.88477 4.28497 2.5 4.8109 2.5H11.1891C11.715 2.5 12.1618 2.88477 12.2398 3.40489L12.6291 6H3.37089ZM3.25 7.5C2.2835 7.5 1.5 8.2835 1.5 9.25V13.5H3.5V13.375C3.5 12.6156 4.11561 12 4.875 12H11.125C11.8844 12 12.5 12.6156 12.5 13.375V13.5H14.5V9.25C14.5 8.2835 13.7165 7.5 12.75 7.5H3.25ZM6 10.5H3V9H6V10.5ZM13 10.5H10V9H13V10.5Z" fill="#292A2E"/>
</svg>
