<svg width="16" height="16" viewBox="0 0 16 16" fill="none" xmlns="http://www.w3.org/2000/svg">
<path d="M1.26622 13.6149V14.6689H5.15811V13.6149H3.97433V8.75H2.63649L1.25 9.72297V10.9797L2.75811 9.86081V13.6149H1.26622Z" fill="#44546F"/>
<path d="M6.47264 14.3122C6.81858 14.6041 7.28615 14.75 7.87534 14.75C8.48615 14.75 8.96453 14.5959 9.31048 14.2878C9.65642 13.9743 9.82939 13.5473 9.82939 13.0068V12.4311C9.82939 11.9122 9.69426 11.5095 9.42399 11.223C9.15912 10.9311 8.78615 10.7851 8.30507 10.7851C7.97534 10.7851 7.71318 10.8581 7.51858 11.0041C7.38426 11.1038 7.28186 11.2444 7.24291 11.3987C7.24291 11.2732 7.25011 10.6414 7.25508 10.2049C7.25685 10.0495 7.25834 9.9188 7.25912 9.84459H9.61048V8.75H6.07534V11.9932H7.25102C7.31047 11.9122 7.39156 11.8527 7.49426 11.8149C7.60237 11.7716 7.72939 11.75 7.87534 11.75C8.11858 11.75 8.30237 11.8095 8.42669 11.9284C8.55102 12.0419 8.61318 12.2095 8.61318 12.4311V13.0068C8.61318 13.223 8.54831 13.3932 8.41858 13.5176C8.29426 13.6365 8.11318 13.6959 7.87534 13.6959C7.65372 13.6959 7.48075 13.6473 7.35642 13.55C7.2321 13.4473 7.16453 13.3068 7.15372 13.1284H5.9375C5.94831 13.6257 6.12669 14.0203 6.47264 14.3122Z" fill="#44546F"/>
<path fill-rule="evenodd" clip-rule="evenodd" d="M1.14122 14.7939V13.4899H2.63311V10.1092L1.125 11.2281V9.65798L2.597 8.625H4.09933V13.4899H5.28311V14.7939H1.14122ZM3.97433 13.6149V8.75H2.63649L1.25 9.72297V10.9797L2.75811 9.86081V13.6149H1.26622V14.6689H5.15811V13.6149H3.97433ZM9.39441 14.3805L9.39361 14.3812C9.01829 14.7155 8.50685 14.875 7.87534 14.875C7.26569 14.875 6.76659 14.7237 6.39203 14.4077C6.01575 14.0902 5.82404 13.6603 5.81253 13.1311L5.80975 13.0034H7.27137L7.27849 13.1208C7.28742 13.2681 7.34097 13.3745 7.43475 13.4526C7.52973 13.5263 7.67152 13.5709 7.87534 13.5709C8.09339 13.5709 8.2387 13.5166 8.3321 13.4273C8.43231 13.3313 8.48818 13.1964 8.48818 13.0068V12.4311C8.48818 12.2329 8.43326 12.1036 8.34241 12.0207L8.34027 12.0187C8.24735 11.9299 8.09977 11.875 7.87534 11.875C7.74141 11.875 7.63081 11.8949 7.54068 11.9309L7.53749 11.9322C7.45569 11.9623 7.39547 12.0076 7.35182 12.0672L7.31436 12.1182H5.95034V8.625H9.73548V9.96959H7.38273L7.38007 10.2063C7.37742 10.439 7.37415 10.7265 7.37166 10.9634C7.39474 10.9423 7.41885 10.9224 7.44381 10.9039C7.66654 10.7369 7.95791 10.6601 8.30507 10.6601C8.81253 10.6601 9.22213 10.815 9.51575 11.1381C9.81356 11.4543 9.95439 11.8912 9.95439 12.4311V13.0068C9.95439 13.5765 9.77073 14.0394 9.39441 14.3805ZM9.42399 11.223C9.69426 11.5095 9.82939 11.9122 9.82939 12.4311V13.0068C9.82939 13.5473 9.65642 13.9743 9.31048 14.2878C8.96453 14.5959 8.48615 14.75 7.87534 14.75C7.28615 14.75 6.81858 14.6041 6.47264 14.3122C6.1562 14.0452 5.97996 13.6922 5.94392 13.2534C5.94056 13.2125 5.93842 13.1708 5.9375 13.1284H7.15372C7.16453 13.3068 7.2321 13.4473 7.35642 13.55C7.48075 13.6473 7.65372 13.6959 7.87534 13.6959C8.11318 13.6959 8.29426 13.6365 8.41858 13.5176C8.54831 13.3932 8.61318 13.223 8.61318 13.0068V12.4311C8.61318 12.2095 8.55102 12.0419 8.42669 11.9284C8.30237 11.8095 8.11858 11.75 7.87534 11.75C7.72939 11.75 7.60237 11.7716 7.49426 11.8149C7.39156 11.8527 7.31047 11.9122 7.25102 11.9932H6.07534V8.75H9.61048V9.84459H7.25912L7.25508 10.2049C7.25187 10.4866 7.24773 10.8498 7.2452 11.1056C7.24381 11.2461 7.24291 11.3542 7.24291 11.3987C7.26566 11.3086 7.31005 11.2232 7.36979 11.1478" fill="#44546F"/>
<path fill-rule="evenodd" clip-rule="evenodd" d="M3.47695 2.97703C6.11299 0.34099 10.3869 0.340991 13.0229 2.97703C15.6589 5.61307 15.6589 9.88693 13.0229 12.523L11.9622 11.4623C14.0125 9.41206 14.0125 6.08794 11.9622 4.03769C9.91198 1.98744 6.58786 1.98744 4.53761 4.03769L3.5753 5H5.5002V6.5H1.75C1.33579 6.5 1 6.16421 1 5.75V2H2.5V3.95398L3.47695 2.97703Z" fill="#44546F"/>
</svg>
