<svg width="16" height="16" viewBox="0 0 16 16" fill="none" xmlns="http://www.w3.org/2000/svg">
<path d="M2.75 3C2.75 2.30964 3.30964 1.75 4 1.75H5C5.69036 1.75 6.25 2.30964 6.25 3V13C6.25 13.6904 5.69036 14.25 5 14.25H4C3.30964 14.25 2.75 13.6904 2.75 13V3Z" stroke="#44546F" stroke-width="1.5"/>
<path d="M9.75 3C9.75 2.30964 10.3096 1.75 11 1.75H12C12.6904 1.75 13.25 2.30964 13.25 3V13C13.25 13.6904 12.6904 14.25 12 14.25H11C10.3096 14.25 9.75 13.6904 9.75 13V3Z" stroke="#44546F" stroke-width="1.5"/>
</svg>
