<svg width="16" height="16" viewBox="0 0 16 16" fill="none" xmlns="http://www.w3.org/2000/svg">
<path fill-rule="evenodd" clip-rule="evenodd" d="M2 3.5C1.72386 3.5 1.5 3.72386 1.5 4V12C1.5 12.2761 1.72386 12.5 2 12.5H10C10.2761 12.5 10.5 12.2761 10.5 12V4C10.5 3.72386 10.2761 3.5 10 3.5H2ZM0 4C0 2.89543 0.89543 2 2 2H10C11.1046 2 12 2.89543 12 4V4.78647L14.191 3.69098C15.0221 3.27542 16 3.87979 16 4.80902V11.191C16 12.1202 15.0221 12.7246 14.191 12.309L12 11.2135V12C12 13.1046 11.1046 14 10 14H2C0.895431 14 0 13.1046 0 12V4ZM12 9.53647L14.5 10.7865V5.21353L12 6.46353V9.53647Z" fill="#44546F"/>
</svg>
