<svg width="16" height="16" viewBox="0 0 16 16" fill="none" xmlns="http://www.w3.org/2000/svg">
<path fill-rule="evenodd" clip-rule="evenodd" d="M2 4C1.72386 4 1.5 4.22386 1.5 4.5V11.5C1.5 11.7761 1.72386 12 2 12H10C10.2761 12 10.5 11.7761 10.5 11.5V4.5C10.5 4.22386 10.2761 4 10 4H2ZM0 4.5C0 3.39543 0.895431 2.5 2 2.5H10C11.1046 2.5 12 3.39543 12 4.5V4.71761L14.1372 3.51545C14.9704 3.04675 16 3.64889 16 4.60492V11.3951C16 12.3511 14.9704 12.9533 14.1372 12.4845L12 11.2824V11.5C12 12.6046 11.1046 13.5 10 13.5H2C0.895431 13.5 0 12.6046 0 11.5V4.5ZM12 9.56136L14.5 10.9676V5.03239L12 6.43864V9.56136Z" fill="#292A2E"/>
</svg>
