<svg width="16" height="16" viewBox="0 0 16 16" fill="none" xmlns="http://www.w3.org/2000/svg">
<path d="M6.26622 13.6149V14.6689H10.1581V13.6149H8.97433V8.75H7.63649L6.25 9.72297V10.9797L7.75811 9.86081V13.6149H6.26622Z" fill="#44546F"/>
<path d="M11.4726 14.3122C11.8186 14.6041 12.2862 14.75 12.8753 14.75C13.4862 14.75 13.9645 14.5959 14.3105 14.2878C14.6564 13.9743 14.8294 13.5473 14.8294 13.0068V12.4311C14.8294 11.9122 14.6943 11.5095 14.424 11.223C14.1591 10.9311 13.7862 10.7851 13.3051 10.7851C12.9753 10.7851 12.7132 10.8581 12.5186 11.0041C12.3843 11.1038 12.2819 11.2444 12.2429 11.3987C12.2429 11.2732 12.2501 10.6414 12.2551 10.2049C12.2569 10.0495 12.2583 9.9188 12.2591 9.84459H14.6105V8.75H11.0753V11.9932H12.251C12.3105 11.9122 12.3916 11.8527 12.4943 11.8149C12.6024 11.7716 12.7294 11.75 12.8753 11.75C13.1186 11.75 13.3024 11.8095 13.4267 11.9284C13.551 12.0419 13.6132 12.2095 13.6132 12.4311V13.0068C13.6132 13.223 13.5483 13.3932 13.4186 13.5176C13.2943 13.6365 13.1132 13.6959 12.8753 13.6959C12.6537 13.6959 12.4807 13.6473 12.3564 13.55C12.2321 13.4473 12.1645 13.3068 12.1537 13.1284H10.9375C10.9483 13.6257 11.1267 14.0203 11.4726 14.3122Z" fill="#44546F"/>
<path fill-rule="evenodd" clip-rule="evenodd" d="M6.14122 14.7939V13.4899H7.63311V10.1092L6.125 11.2281V9.65798L7.597 8.625H9.09933V13.4899H10.2831V14.7939H6.14122ZM8.97433 13.6149V8.75H7.63649L6.25 9.72297V10.9797L7.75811 9.86081V13.6149H6.26622V14.6689H10.1581V13.6149H8.97433ZM14.3944 14.3805L14.3936 14.3812C14.0183 14.7155 13.5069 14.875 12.8753 14.875C12.2657 14.875 11.7666 14.7237 11.392 14.4077C11.0158 14.0902 10.824 13.6603 10.8125 13.1311L10.8098 13.0034H12.2714L12.2785 13.1208C12.2874 13.2681 12.341 13.3745 12.4348 13.4526C12.5297 13.5263 12.6715 13.5709 12.8753 13.5709C13.0934 13.5709 13.2387 13.5166 13.3321 13.4273C13.4323 13.3313 13.4882 13.1964 13.4882 13.0068V12.4311C13.4882 12.2329 13.4333 12.1036 13.3424 12.0207L13.3403 12.0187C13.2473 11.9299 13.0998 11.875 12.8753 11.875C12.7414 11.875 12.6308 11.8949 12.5407 11.9309L12.5375 11.9322C12.4557 11.9623 12.3955 12.0076 12.3518 12.0672L12.3144 12.1182H10.9503V8.625H14.7355V9.96959H12.3827L12.3801 10.2063C12.3774 10.439 12.3741 10.7265 12.3717 10.9634C12.3947 10.9423 12.4189 10.9224 12.4438 10.9039C12.6665 10.7369 12.9579 10.6601 13.3051 10.6601C13.8125 10.6601 14.2221 10.815 14.5157 11.1381C14.8136 11.4543 14.9544 11.8912 14.9544 12.4311V13.0068C14.9544 13.5765 14.7707 14.0394 14.3944 14.3805ZM14.424 11.223C14.6943 11.5095 14.8294 11.9122 14.8294 12.4311V13.0068C14.8294 13.5473 14.6564 13.9743 14.3105 14.2878C13.9645 14.5959 13.4862 14.75 12.8753 14.75C12.2862 14.75 11.8186 14.6041 11.4726 14.3122C11.1562 14.0452 10.98 13.6922 10.9439 13.2534C10.9406 13.2125 10.9384 13.1708 10.9375 13.1284H12.1537C12.1645 13.3068 12.2321 13.4473 12.3564 13.55C12.4807 13.6473 12.6537 13.6959 12.8753 13.6959C13.1132 13.6959 13.2943 13.6365 13.4186 13.5176C13.5483 13.3932 13.6132 13.223 13.6132 13.0068V12.4311C13.6132 12.2095 13.551 12.0419 13.4267 11.9284C13.3024 11.8095 13.1186 11.75 12.8753 11.75C12.7294 11.75 12.6024 11.7716 12.4943 11.8149C12.3916 11.8527 12.3105 11.9122 12.251 11.9932H11.0753V8.75H14.6105V9.84459H12.2591L12.2551 10.2049C12.2519 10.4866 12.2477 10.8498 12.2452 11.1056C12.2438 11.2461 12.2429 11.3542 12.2429 11.3987C12.2657 11.3086 12.31 11.2232 12.3698 11.1478" fill="#44546F"/>
<path fill-rule="evenodd" clip-rule="evenodd" d="M11.4623 4.03769C9.41206 1.98744 6.08794 1.98744 4.03769 4.03769C1.98744 6.08794 1.98744 9.41206 4.03769 11.4623L2.97703 12.523C0.34099 9.88693 0.34099 5.61307 2.97703 2.97703C5.61307 0.340991 9.88693 0.34099 12.523 2.97703L13.5002 3.95426V2H15.0002V5.75C15.0002 6.16421 14.6644 6.5 14.2502 6.5H10.5V5H12.4246L11.4623 4.03769Z" fill="#44546F"/>
</svg>
