<svg width="16" height="16" viewBox="0 0 16 16" fill="none" xmlns="http://www.w3.org/2000/svg">
<path fill-rule="evenodd" clip-rule="evenodd" d="M1.14122 14.7939V13.4899H2.63311V10.1092L1.125 11.2281V9.65798L2.597 8.625H4.09933V13.4899H5.28311V14.7939H1.14122Z" fill="#44546F"/>
<path d="M9.39361 14.3812L9.39441 14.3805C9.77073 14.0394 9.95439 13.5765 9.95439 13.0068V12.4311C9.95439 11.8912 9.81356 11.4543 9.51575 11.1381C9.22213 10.815 8.81253 10.6601 8.30507 10.6601C7.95791 10.6601 7.66654 10.7369 7.44381 10.9039C7.41885 10.9224 7.39474 10.9423 7.37166 10.9634C7.37415 10.7265 7.37742 10.439 7.38007 10.2063L7.3801 10.2045L7.38276 9.96959H9.73548V8.625H5.95034V12.1182H7.31436L7.35182 12.0672C7.39547 12.0076 7.45569 11.9623 7.53749 11.9322L7.54068 11.9309C7.63081 11.8949 7.74141 11.875 7.87534 11.875C8.09977 11.875 8.24735 11.9299 8.34027 12.0187L8.34241 12.0207C8.43326 12.1036 8.48818 12.2329 8.48818 12.4311V13.0068C8.48818 13.1964 8.43231 13.3313 8.3321 13.4273C8.2387 13.5166 8.09339 13.5709 7.87534 13.5709C7.67152 13.5709 7.52973 13.5263 7.43476 13.4526C7.34097 13.3745 7.28742 13.2681 7.27849 13.1208L7.27137 13.0034H5.80975L5.81253 13.1311C5.82404 13.6603 6.01575 14.0902 6.39203 14.4077C6.76659 14.7237 7.26569 14.875 7.87534 14.875C8.50685 14.875 9.01829 14.7155 9.39361 14.3812Z" fill="#44546F"/>
<path d="M12.4926 3.50736L11.9622 4.03769L11.9622 4.03769L12.4926 3.50736ZM4.00728 3.50736L4.53761 4.03769L4.00728 3.50736ZM1.75 5.75H1C1 6.16421 1.33579 6.5 1.75 6.5L1.75 5.75ZM13.0229 12.523C15.6589 9.88693 15.6589 5.61307 13.0229 2.97703L11.9622 4.03769C14.0125 6.08794 14.0125 9.41206 11.9622 11.4623L13.0229 12.523ZM13.0229 2.97703C10.3869 0.34099 6.11299 0.34099 3.47695 2.97703L4.53761 4.03769C6.58786 1.98744 9.91198 1.98744 11.9622 4.03769L13.0229 2.97703ZM3.47695 2.97703L1.46952 4.98446L2.53018 6.04512L4.53761 4.03769L3.47695 2.97703ZM1.75 6.5H5.5002V5H1.75V6.5ZM2.5 5.75V2H1V5.75H2.5Z" fill="#44546F"/>
</svg>
