<svg width="16" height="16" viewBox="0 0 16 16" fill="none" xmlns="http://www.w3.org/2000/svg">
<path fill-rule="evenodd" clip-rule="evenodd" d="M3 1L3 15H4.5V8.70811C4.64688 9.04431 4.90382 9.34111 5.27082 9.53949L11.4178 12.8622C12.5838 13.4925 14 12.6481 14 11.3227V4.67728C14 3.35186 12.5838 2.50754 11.4178 3.1378L5.27082 6.46051C4.90382 6.65889 4.64688 6.95569 4.5 7.29188V1H3ZM12.1311 4.45736C12.2977 4.36732 12.5 4.48794 12.5 4.67728V11.3227C12.5 11.5121 12.2977 11.6327 12.1311 11.5426L5.9841 8.21993C5.80927 8.12542 5.80927 7.87457 5.98409 7.78007L12.1311 4.45736Z" fill="#292A2E"/>
</svg>
