<svg width="16" height="16" viewBox="0 0 16 16" fill="none" xmlns="http://www.w3.org/2000/svg">
<path fill-rule="evenodd" clip-rule="evenodd" d="M12.7803 0.219727L15.7803 3.21973C16.0732 3.51262 16.0732 3.98749 15.7803 4.28039L12.7803 7.28039L11.7197 6.21973L14.1893 3.75006L11.7197 1.28039L12.7803 0.219727Z" fill="#44546F"/>
<path fill-rule="evenodd" clip-rule="evenodd" d="M9.28033 0.219727L12.2803 3.21973C12.5732 3.51262 12.5732 3.98749 12.2803 4.28039L9.28033 7.28039L8.21967 6.21973L9.93934 4.50006H4.25C3.2835 4.50006 2.5 5.28356 2.5 6.25006V9.75006C2.5 10.7166 3.2835 11.5001 4.25 11.5001H5V13.0001H4.25C2.45507 13.0001 1 11.545 1 9.75006V6.25006C1 4.45513 2.45507 3.00006 4.25 3.00006H9.93934L8.21967 1.28039L9.28033 0.219727Z" fill="#44546F"/>
<path fill-rule="evenodd" clip-rule="evenodd" d="M7 9.5H8.75C9.16421 9.5 9.5 9.83579 9.5 10.25V16H8V11H7V9.5Z" fill="#44546F"/>
<path fill-rule="evenodd" clip-rule="evenodd" d="M15 10.875C15 10.1156 14.3844 9.5 13.625 9.5H11.875C11.1156 9.5 10.5 10.1156 10.5 10.875V14.625C10.5 15.3844 11.1156 16 11.875 16H13.625C14.3844 16 15 15.3844 15 14.625V10.875ZM13.5 11V14.5H12V11H13.5Z" fill="#44546F"/>
</svg>
