<svg width="16" height="16" viewBox="0 0 16 16" fill="none" xmlns="http://www.w3.org/2000/svg">
<path fill-rule="evenodd" clip-rule="evenodd" d="M1.81066 3.75006L4.28033 1.28039L3.21967 0.219727L0.21967 3.21973C-0.0732233 3.51262 -0.0732233 3.98749 0.21967 4.28039L3.21967 7.28039L4.28033 6.21973L1.81066 3.75006Z" fill="#292A2E"/>
<path fill-rule="evenodd" clip-rule="evenodd" d="M6.06066 4.50006L7.78033 6.21973L6.71967 7.28039L3.71967 4.28039C3.42678 3.98749 3.42678 3.51262 3.71967 3.21973L6.71967 0.219727L7.78033 1.28039L6.06066 3.00006H11.75C13.5449 3.00006 15 4.45513 15 6.25006V9.75006C15 11.545 13.5449 13.0001 11.75 13.0001H11V11.5001H11.75C12.7165 11.5001 13.5 10.7166 13.5 9.75006V6.25006C13.5 5.28356 12.7165 4.50006 11.75 4.50006H6.06066Z" fill="#292A2E"/>
<path fill-rule="evenodd" clip-rule="evenodd" d="M1 9.5H2.75C3.16421 9.5 3.5 9.83579 3.5 10.25V16H2V11H1V9.5Z" fill="#292A2E"/>
<path fill-rule="evenodd" clip-rule="evenodd" d="M9 10.875C9 10.1156 8.38439 9.5 7.625 9.5H5.875C5.11561 9.5 4.5 10.1156 4.5 10.875V14.625C4.5 15.3844 5.11561 16 5.875 16H7.625C8.38439 16 9 15.3844 9 14.625V10.875ZM7.5 11V14.5H6V11H7.5Z" fill="#292A2E"/>
</svg>
