<svg width="16" height="16" viewBox="0 0 16 16" fill="none" xmlns="http://www.w3.org/2000/svg">
<mask id="path-1-outside-1_28002_2764" maskUnits="userSpaceOnUse" x="0.250008" y="7.75" width="10" height="8" fill="black">
<rect fill="white" x="0.250008" y="7.75" width="10" height="8"/>
<path d="M7.87622 14.75C7.48944 14.75 7.15493 14.678 6.87268 14.534C6.59044 14.3847 6.37091 14.1793 6.21411 13.918C6.06254 13.6513 5.98675 13.342 5.98675 12.99V10.51C5.98675 10.158 6.06254 9.85133 6.21411 9.59C6.37091 9.32333 6.59044 9.118 6.87268 8.974C7.15493 8.82467 7.48683 8.75 7.86838 8.75C8.25516 8.75 8.58706 8.82467 8.86407 8.974C9.14632 9.118 9.36323 9.32333 9.5148 9.59C9.67161 9.85133 9.75001 10.158 9.75001 10.51V12.99C9.75001 13.342 9.67161 13.6513 9.5148 13.918C9.36323 14.1793 9.14632 14.3847 8.86407 14.534C8.58706 14.678 8.25777 14.75 7.87622 14.75ZM7.86838 13.71C8.11404 13.71 8.30481 13.646 8.44071 13.518C8.58183 13.39 8.65239 13.214 8.65239 12.99V10.51C8.65239 10.286 8.58183 10.11 8.44071 9.982C8.30481 9.854 8.11404 9.79 7.86838 9.79C7.62272 9.79 7.42933 9.854 7.28821 9.982C7.15231 10.11 7.08437 10.286 7.08437 10.51V12.99C7.08437 13.214 7.15493 13.39 7.29605 13.518C7.43717 13.646 7.62795 13.71 7.86838 13.71Z"/>
<path d="M1.26569 14.6701V13.5901H2.70827V10.0461L1.25001 11.1181V9.79008L2.59067 8.83008H3.88429V13.5901H5.02895V14.6701H1.26569Z"/>
</mask>
<path d="M7.87622 14.75C7.48944 14.75 7.15493 14.678 6.87268 14.534C6.59044 14.3847 6.37091 14.1793 6.21411 13.918C6.06254 13.6513 5.98675 13.342 5.98675 12.99V10.51C5.98675 10.158 6.06254 9.85133 6.21411 9.59C6.37091 9.32333 6.59044 9.118 6.87268 8.974C7.15493 8.82467 7.48683 8.75 7.86838 8.75C8.25516 8.75 8.58706 8.82467 8.86407 8.974C9.14632 9.118 9.36323 9.32333 9.5148 9.59C9.67161 9.85133 9.75001 10.158 9.75001 10.51V12.99C9.75001 13.342 9.67161 13.6513 9.5148 13.918C9.36323 14.1793 9.14632 14.3847 8.86407 14.534C8.58706 14.678 8.25777 14.75 7.87622 14.75ZM7.86838 13.71C8.11404 13.71 8.30481 13.646 8.44071 13.518C8.58183 13.39 8.65239 13.214 8.65239 12.99V10.51C8.65239 10.286 8.58183 10.11 8.44071 9.982C8.30481 9.854 8.11404 9.79 7.86838 9.79C7.62272 9.79 7.42933 9.854 7.28821 9.982C7.15231 10.11 7.08437 10.286 7.08437 10.51V12.99C7.08437 13.214 7.15493 13.39 7.29605 13.518C7.43717 13.646 7.62795 13.71 7.86838 13.71Z" fill="#44546F"/>
<path d="M1.26569 14.6701V13.5901H2.70827V10.0461L1.25001 11.1181V9.79008L2.59067 8.83008H3.88429V13.5901H5.02895V14.6701H1.26569Z" fill="#44546F"/>
<path d="M7.87622 14.75C7.48944 14.75 7.15493 14.678 6.87268 14.534C6.59044 14.3847 6.37091 14.1793 6.21411 13.918C6.06254 13.6513 5.98675 13.342 5.98675 12.99V10.51C5.98675 10.158 6.06254 9.85133 6.21411 9.59C6.37091 9.32333 6.59044 9.118 6.87268 8.974C7.15493 8.82467 7.48683 8.75 7.86838 8.75C8.25516 8.75 8.58706 8.82467 8.86407 8.974C9.14632 9.118 9.36323 9.32333 9.5148 9.59C9.67161 9.85133 9.75001 10.158 9.75001 10.51V12.99C9.75001 13.342 9.67161 13.6513 9.5148 13.918C9.36323 14.1793 9.14632 14.3847 8.86407 14.534C8.58706 14.678 8.25777 14.75 7.87622 14.75ZM7.86838 13.71C8.11404 13.71 8.30481 13.646 8.44071 13.518C8.58183 13.39 8.65239 13.214 8.65239 12.99V10.51C8.65239 10.286 8.58183 10.11 8.44071 9.982C8.30481 9.854 8.11404 9.79 7.86838 9.79C7.62272 9.79 7.42933 9.854 7.28821 9.982C7.15231 10.11 7.08437 10.286 7.08437 10.51V12.99C7.08437 13.214 7.15493 13.39 7.29605 13.518C7.43717 13.646 7.62795 13.71 7.86838 13.71Z" stroke="#44546F" stroke-width="0.25" mask="url(#path-1-outside-1_28002_2764)"/>
<path d="M1.26569 14.6701V13.5901H2.70827V10.0461L1.25001 11.1181V9.79008L2.59067 8.83008H3.88429V13.5901H5.02895V14.6701H1.26569Z" stroke="#44546F" stroke-width="0.25" mask="url(#path-1-outside-1_28002_2764)"/>
<path d="M4.00694 3.50736L3.47661 2.97703L3.47661 2.97703L4.00694 3.50736ZM1.7498 5.75H0.999802C0.999802 6.16421 1.33559 6.5 1.7498 6.5L1.7498 5.75ZM13.0226 12.523C15.6586 9.88693 15.6586 5.61307 13.0226 2.97703L11.9619 4.03769C14.0121 6.08794 14.0121 9.41206 11.9619 11.4623L13.0226 12.523ZM13.0226 2.97703C10.3865 0.34099 6.11265 0.34099 3.47661 2.97703L4.53727 4.03769C6.58752 1.98744 9.91164 1.98744 11.9619 4.03769L13.0226 2.97703ZM3.47661 2.97703L1.46918 4.98446L2.52984 6.04512L4.53727 4.03769L3.47661 2.97703ZM1.7498 6.5H5.5V5H1.7498V6.5ZM2.4998 5.75V2H0.999802V5.75H2.4998Z" fill="#44546F"/>
</svg>
