<svg width="16" height="16" viewBox="0 0 16 16" fill="none" xmlns="http://www.w3.org/2000/svg">
<path fill-rule="evenodd" clip-rule="evenodd" d="M11.8142 14.6445C11.5128 14.485 11.276 14.2641 11.1069 13.9823L11.1054 13.9798C10.9416 13.6917 10.8617 13.3604 10.8617 12.99V10.51C10.8617 10.1396 10.9416 9.81062 11.106 9.52728L11.1063 9.52664C11.2754 9.2392 11.5125 9.0176 11.815 8.86308C12.1183 8.70282 12.4708 8.625 12.8684 8.625C13.2706 8.625 13.6234 8.70259 13.9221 8.8633C14.2243 9.01775 14.4589 9.23933 14.6227 9.52694C14.7924 9.81026 14.875 10.1395 14.875 10.51V12.99C14.875 13.361 14.7922 13.6927 14.6227 13.9811C14.4587 14.2637 14.2241 14.4849 13.9225 14.6445L13.9217 14.6449C13.6234 14.8 13.2734 14.875 12.8762 14.875C12.474 14.875 12.1192 14.8001 11.8159 14.6453L11.8142 14.6445ZM13.3567 13.4254C13.4671 13.3253 13.5274 13.1855 13.5274 12.99V10.51C13.5274 10.3145 13.4671 10.1747 13.3567 10.0746L13.355 10.073C13.2488 9.97304 13.0925 9.915 12.8684 9.915C12.6451 9.915 12.4851 9.97262 12.3731 10.0738C12.2677 10.1735 12.2094 10.3135 12.2094 10.51V12.99C12.2094 13.1855 12.2697 13.3253 12.38 13.4254C12.4926 13.5275 12.6505 13.585 12.8684 13.585C13.0925 13.585 13.2489 13.527 13.355 13.427L13.3567 13.4254ZM6.14068 14.7951V13.4651H7.58326V10.2931L6.125 11.3651V9.72584L7.55052 8.70508H9.00928V13.4651H10.1539V14.7951H6.14068Z" fill="#44546F"/>
<path d="M14.2502 5.75V6.5C14.6644 6.5 15.0002 6.16421 15.0002 5.75H14.2502ZM3.50729 3.50736L2.97696 2.97703L2.97696 2.97703L3.50729 3.50736ZM11.9926 3.50736L12.5229 2.97703L12.5229 2.97703L11.9926 3.50736ZM14.2502 5H10.5V6.5H14.2502V5ZM15.0002 5.75V2H13.5002V5.75H15.0002ZM4.03762 11.4623C1.98737 9.41206 1.98737 6.08794 4.03762 4.03769L2.97696 2.97703C0.340922 5.61307 0.340922 9.88693 2.97696 12.523L4.03762 11.4623ZM4.03762 4.03769C6.08787 1.98744 9.41199 1.98744 11.4622 4.03769L12.5229 2.97703C9.88686 0.34099 5.613 0.34099 2.97696 2.97703L4.03762 4.03769ZM11.4622 4.03769L13.4697 6.04512L14.5303 4.98446L12.5229 2.97703L11.4622 4.03769Z" fill="#44546F"/>
</svg>
