<svg width="16" height="16" viewBox="0 0 16 16" fill="none" xmlns="http://www.w3.org/2000/svg">
<path fill-rule="evenodd" clip-rule="evenodd" d="M2 3C2 1.89543 2.89543 1 4 1H5C6.10457 1 7 1.89543 7 3V13C7 14.1046 6.10457 15 5 15H4C2.89543 15 2 14.1046 2 13V3ZM4 2.5C3.72386 2.5 3.5 2.72386 3.5 3V13C3.5 13.2761 3.72386 13.5 4 13.5H5C5.27614 13.5 5.5 13.2761 5.5 13V3C5.5 2.72386 5.27614 2.5 5 2.5H4ZM9 3C9 1.89543 9.89543 1 11 1H12C13.1046 1 14 1.89543 14 3V13C14 14.1046 13.1046 15 12 15H11C9.89543 15 9 14.1046 9 13V3ZM11 2.5C10.7239 2.5 10.5 2.72386 10.5 3V13C10.5 13.2761 10.7239 13.5 11 13.5H12C12.2761 13.5 12.5 13.2761 12.5 13V3C12.5 2.72386 12.2761 2.5 12 2.5H11Z" fill="#292A2E"/>
</svg>
