<svg width="16" height="16" viewBox="0 0 16 16" fill="none" xmlns="http://www.w3.org/2000/svg">
<path d="M12.8762 14.75C12.4894 14.75 12.1549 14.678 11.8727 14.534C11.5904 14.3847 11.3709 14.1793 11.2141 13.918C11.0625 13.6513 10.9867 13.342 10.9867 12.99V10.51C10.9867 10.158 11.0625 9.85133 11.2141 9.59C11.3709 9.32333 11.5904 9.118 11.8727 8.974C12.1549 8.82467 12.4868 8.75 12.8684 8.75C13.2551 8.75 13.587 8.82467 13.8641 8.974C14.1463 9.118 14.3632 9.32333 14.5148 9.59C14.6716 9.85133 14.75 10.158 14.75 10.51V12.99C14.75 13.342 14.6716 13.6513 14.5148 13.918C14.3632 14.1793 14.1463 14.3847 13.8641 14.534C13.587 14.678 13.2578 14.75 12.8762 14.75ZM12.8684 13.71C13.114 13.71 13.3048 13.646 13.4407 13.518C13.5818 13.39 13.6524 13.214 13.6524 12.99V10.51C13.6524 10.286 13.5818 10.11 13.4407 9.982C13.3048 9.854 13.114 9.79 12.8684 9.79C12.6227 9.79 12.4293 9.854 12.2882 9.982C12.1523 10.11 12.0843 10.286 12.0843 10.51V12.99C12.0843 13.214 12.1549 13.39 12.296 13.518C12.4372 13.646 12.6279 13.71 12.8684 13.71Z" fill="#44546F"/>
<path d="M6.26567 14.6701V13.5901H7.70825V10.0461L6.24999 11.1181V9.79008L7.59065 8.83008H8.88427V13.5901H10.0289V14.6701H6.26567Z" fill="#44546F"/>
<path fill-rule="evenodd" clip-rule="evenodd" d="M11.8142 14.6445C11.5128 14.485 11.276 14.2641 11.1069 13.9823L11.1054 13.9798C10.9416 13.6917 10.8617 13.3604 10.8617 12.99V10.51C10.8617 10.1396 10.9416 9.81062 11.106 9.52728C11.275 9.23984 11.5125 9.0176 11.815 8.86308C12.1183 8.70282 12.4707 8.625 12.8684 8.625C13.2706 8.625 13.6234 8.70259 13.9221 8.8633C14.2243 9.01775 14.4589 9.23933 14.6227 9.52694C14.7924 9.81026 14.875 10.1395 14.875 10.51V12.99C14.875 13.361 14.7922 13.6927 14.6227 13.9811C14.4587 14.2637 14.2241 14.4849 13.9225 14.6445C13.6242 14.7996 13.2734 14.875 12.8762 14.875C12.474 14.875 12.1192 14.8001 11.8159 14.6453L11.8142 14.6445ZM14.5148 9.59C14.3632 9.32333 14.1463 9.118 13.8641 8.974C13.587 8.82467 13.2551 8.75 12.8684 8.75C12.4868 8.75 12.1549 8.82467 11.8727 8.974C11.5904 9.118 11.3709 9.32333 11.2141 9.59C11.0625 9.85133 10.9867 10.158 10.9867 10.51V12.99C10.9867 13.342 11.0625 13.6513 11.2141 13.918C11.3709 14.1793 11.5904 14.3847 11.8727 14.534C12.1549 14.678 12.4894 14.75 12.8762 14.75C13.2578 14.75 13.587 14.678 13.8641 14.534C14.1463 14.3847 14.3632 14.1793 14.5148 13.918C14.6716 13.6513 14.75 13.342 14.75 12.99V10.51C14.75 10.158 14.6716 9.85133 14.5148 9.59ZM13.3567 13.4254C13.4671 13.3253 13.5274 13.1855 13.5274 12.99V10.51C13.5274 10.3145 13.4671 10.1747 13.3567 10.0746L13.355 10.073C13.2488 9.97304 13.0925 9.915 12.8684 9.915C12.6451 9.915 12.4851 9.97262 12.3731 10.0738C12.2677 10.1735 12.2093 10.3135 12.2093 10.51V12.99C12.2093 13.1855 12.2696 13.3253 12.38 13.4254C12.4926 13.5275 12.6505 13.585 12.8684 13.585C13.0925 13.585 13.2489 13.527 13.355 13.427L13.3567 13.4254ZM12.2882 9.982C12.4293 9.854 12.6227 9.79 12.8684 9.79C13.114 9.79 13.3048 9.854 13.4407 9.982C13.5818 10.11 13.6524 10.286 13.6524 10.51V12.99C13.6524 13.214 13.5818 13.39 13.4407 13.518C13.3048 13.646 13.114 13.71 12.8684 13.71C12.6279 13.71 12.4372 13.646 12.296 13.518C12.1549 13.39 12.0843 13.214 12.0843 12.99V10.51C12.0843 10.286 12.1523 10.11 12.2882 9.982ZM6.14067 14.7951V13.4651H7.58325V10.2931L6.12499 11.3651V9.72584L7.55051 8.70508H9.00927V13.4651H10.1539V14.7951H6.14067ZM8.88427 13.5901V8.83008H7.59065L6.24999 9.79008V11.1181L7.70825 10.0461V13.5901H6.26567V14.6701H10.0289V13.5901H8.88427Z" fill="#44546F"/>
<path fill-rule="evenodd" clip-rule="evenodd" d="M11.4622 4.03769C9.41198 1.98744 6.08787 1.98744 4.03761 4.03769C1.98736 6.08794 1.98736 9.41206 4.03761 11.4623L2.97695 12.523C0.340914 9.88693 0.340914 5.61307 2.97695 2.97703C5.61299 0.34099 9.88686 0.34099 12.5229 2.97703L13.5002 3.95433V2H15.0002V5.75C15.0002 6.16421 14.6644 6.5 14.2502 6.5H10.5V5H12.4245L11.4622 4.03769Z" fill="#44546F"/>
</svg>
