<svg width="16" height="16" viewBox="0 0 16 16" fill="none" xmlns="http://www.w3.org/2000/svg">
<path fill-rule="evenodd" clip-rule="evenodd" d="M12.7803 0.219727L15.7803 3.21973C16.0732 3.51262 16.0732 3.98749 15.7803 4.28039L12.7803 7.28039L11.7197 6.21973L14.1893 3.75006L11.7197 1.28039L12.7803 0.219727Z" fill="#44546F"/>
<path fill-rule="evenodd" clip-rule="evenodd" d="M9.28033 0.219727L12.2803 3.21973C12.5732 3.51262 12.5732 3.98749 12.2803 4.28039L9.28033 7.28039L8.21967 6.21973L9.93934 4.50006H4.25C3.2835 4.50006 2.5 5.28356 2.5 6.25006V9.75006C2.5 10.7166 3.2835 11.5001 4.25 11.5001H5V13.0001H4.25C2.45507 13.0001 1 11.545 1 9.75006V6.25006C1 4.45513 2.45507 3.00006 4.25 3.00006H9.93934L8.21967 1.28039L9.28033 0.219727Z" fill="#44546F"/>
<path fill-rule="evenodd" clip-rule="evenodd" d="M7 9.5H8.75C9.16421 9.5 9.5 9.83579 9.5 10.25V16H8V11H7V9.5Z" fill="#44546F"/>
<path fill-rule="evenodd" clip-rule="evenodd" d="M15 9.5H11.75C11.3358 9.5 11 9.83579 11 10.25V12.75C11 13.1642 11.3358 13.5 11.75 13.5H13.5V14.5H11V16H13.625C14.3844 16 15 15.3844 15 14.625V13.375C15 12.6156 14.3844 12 13.625 12H12.5V11H15V9.5Z" fill="#44546F"/>
</svg>
