<svg width="16" height="16" viewBox="0 0 16 16" fill="none" xmlns="http://www.w3.org/2000/svg">
<path d="M7.87621 14.75C7.48944 14.75 7.15492 14.678 6.87268 14.534C6.59043 14.3847 6.37091 14.1793 6.21411 13.918C6.06253 13.6513 5.98674 13.342 5.98674 12.99V10.51C5.98674 10.158 6.06253 9.85133 6.21411 9.59C6.37091 9.32333 6.59043 9.118 6.87268 8.974C7.15492 8.82467 7.48682 8.75 7.86837 8.75C8.25515 8.75 8.58705 8.82467 8.86407 8.974C9.14631 9.118 9.36322 9.32333 9.5148 9.59C9.6716 9.85133 9.75 10.158 9.75 10.51V12.99C9.75 13.342 9.6716 13.6513 9.5148 13.918C9.36322 14.1793 9.14631 14.3847 8.86407 14.534C8.58705 14.678 8.25777 14.75 7.87621 14.75ZM7.86837 13.71C8.11403 13.71 8.30481 13.646 8.4407 13.518C8.58183 13.39 8.65239 13.214 8.65239 12.99V10.51C8.65239 10.286 8.58183 10.11 8.4407 9.982C8.30481 9.854 8.11403 9.79 7.86837 9.79C7.62272 9.79 7.42933 9.854 7.2882 9.982C7.15231 10.11 7.08436 10.286 7.08436 10.51V12.99C7.08436 13.214 7.15492 13.39 7.29604 13.518C7.43717 13.646 7.62794 13.71 7.86837 13.71Z" fill="#44546F"/>
<path d="M1.26568 14.6701V13.5901H2.70827V10.0461L1.25 11.1181V9.79008L2.59066 8.83008H3.88429V13.5901H5.02894V14.6701H1.26568Z" fill="#44546F"/>
<path fill-rule="evenodd" clip-rule="evenodd" d="M6.81422 14.6445C6.51283 14.485 6.27602 14.2641 6.10692 13.9823L6.10541 13.9798C5.94163 13.6917 5.86174 13.3604 5.86174 12.99V10.51C5.86174 10.1396 5.94164 9.81062 6.10598 9.52728C6.275 9.23984 6.51253 9.0176 6.81504 8.86308C7.11831 8.70282 7.47076 8.625 7.86837 8.625C8.27061 8.625 8.62344 8.70259 8.92213 8.8633C9.22432 9.01775 9.45893 9.23933 9.62274 9.52694C9.7924 9.81026 9.875 10.1395 9.875 10.51V12.99C9.875 13.361 9.79219 13.6927 9.62273 13.9811C9.45873 14.2637 9.22412 14.4849 8.92253 14.6445C8.62417 14.7996 8.27344 14.875 7.87621 14.875C7.47398 14.875 7.11917 14.8001 6.81587 14.6453L6.81422 14.6445ZM9.5148 9.59C9.36322 9.32333 9.14631 9.118 8.86407 8.974C8.58705 8.82467 8.25515 8.75 7.86837 8.75C7.48682 8.75 7.15492 8.82467 6.87268 8.974C6.59043 9.118 6.37091 9.32333 6.21411 9.59C6.06253 9.85133 5.98674 10.158 5.98674 10.51V12.99C5.98674 13.342 6.06253 13.6513 6.21411 13.918C6.37091 14.1793 6.59043 14.3847 6.87268 14.534C7.15492 14.678 7.48944 14.75 7.87621 14.75C8.25777 14.75 8.58705 14.678 8.86407 14.534C9.14631 14.3847 9.36322 14.1793 9.5148 13.918C9.6716 13.6513 9.75 13.342 9.75 12.99V10.51C9.75 10.158 9.6716 9.85133 9.5148 9.59ZM8.35672 13.4254C8.46709 13.3253 8.52739 13.1855 8.52739 12.99V10.51C8.52739 10.3145 8.46709 10.1747 8.35672 10.0746L8.35498 10.073C8.24885 9.97304 8.09252 9.915 7.86837 9.915C7.64509 9.915 7.48511 9.97262 7.37306 10.0738C7.26772 10.1735 7.20936 10.3135 7.20936 10.51V12.99C7.20936 13.1855 7.26966 13.3253 7.38002 13.4254C7.49258 13.5275 7.65055 13.585 7.86837 13.585C8.09252 13.585 8.24887 13.527 8.355 13.427L8.35672 13.4254ZM7.2882 9.982C7.42933 9.854 7.62272 9.79 7.86837 9.79C8.11403 9.79 8.30481 9.854 8.4407 9.982C8.58183 10.11 8.65239 10.286 8.65239 10.51V12.99C8.65239 13.214 8.58183 13.39 8.4407 13.518C8.30481 13.646 8.11403 13.71 7.86837 13.71C7.62794 13.71 7.43717 13.646 7.29604 13.518C7.15492 13.39 7.08436 13.214 7.08436 12.99V10.51C7.08436 10.286 7.15231 10.11 7.2882 9.982ZM1.14068 14.7951V13.4651H2.58327V10.2931L1.125 11.3651V9.72584L2.55053 8.70508H4.00929V13.4651H5.15394V14.7951H1.14068ZM3.88429 13.5901V8.83008H2.59066L1.25 9.79008V11.1181L2.70827 10.0461V13.5901H1.26568V14.6701H5.02894V13.5901H3.88429Z" fill="#44546F"/>
<path fill-rule="evenodd" clip-rule="evenodd" d="M3.47661 2.97703C6.11265 0.34099 10.3865 0.34099 13.0226 2.97703C15.6586 5.61307 15.6586 9.88693 13.0226 12.523L11.9619 11.4623C14.0121 9.41206 14.0121 6.08794 11.9619 4.03769C9.91164 1.98744 6.58752 1.98744 4.53727 4.03769L3.57496 5H5.5V6.5H1.7498C1.33559 6.5 0.999802 6.16421 0.999802 5.75V2H2.4998V3.95384L3.47661 2.97703Z" fill="#44546F"/>
</svg>
