<svg width="16" height="16" viewBox="0 0 16 16" fill="none" xmlns="http://www.w3.org/2000/svg">
<path fill-rule="evenodd" clip-rule="evenodd" d="M6.14122 14.7939V13.4899H7.63311V10.1092L6.125 11.2281V9.65798L7.597 8.625H9.09933V13.4899H10.2831V14.7939H6.14122Z" fill="#44546F"/>
<path d="M14.3936 14.3812L14.3944 14.3805C14.7707 14.0394 14.9544 13.5765 14.9544 13.0068V12.4311C14.9544 11.8912 14.8136 11.4543 14.5157 11.1381C14.2221 10.815 13.8125 10.6601 13.3051 10.6601C12.9579 10.6601 12.6665 10.7369 12.4438 10.9039C12.4189 10.9224 12.3947 10.9423 12.3717 10.9634C12.3741 10.7265 12.3774 10.439 12.3801 10.2063L12.3801 10.2045L12.3828 9.96959H14.7355V8.625H10.9503V12.1182H12.3144L12.3518 12.0672C12.3955 12.0076 12.4557 11.9623 12.5375 11.9322L12.5407 11.9309C12.6308 11.8949 12.7414 11.875 12.8753 11.875C13.0998 11.875 13.2473 11.9299 13.3403 12.0187L13.3424 12.0207C13.4333 12.1036 13.4882 12.2329 13.4882 12.4311V13.0068C13.4882 13.1964 13.4323 13.3313 13.3321 13.4273C13.2387 13.5166 13.0934 13.5709 12.8753 13.5709C12.6715 13.5709 12.5297 13.5263 12.4348 13.4526C12.341 13.3745 12.2874 13.2681 12.2785 13.1208L12.2714 13.0034H10.8098L10.8125 13.1311C10.824 13.6603 11.0158 14.0902 11.392 14.4077C11.7666 14.7237 12.2657 14.875 12.8753 14.875C13.5069 14.875 14.0183 14.7155 14.3936 14.3812Z" fill="#44546F"/>
<path d="M3.50736 3.50736L4.03769 4.03769L4.03769 4.03769L3.50736 3.50736ZM14.2502 5.75V6.5C14.6644 6.5 15.0002 6.16421 15.0002 5.75H14.2502ZM4.03769 11.4623C1.98744 9.41206 1.98744 6.08794 4.03769 4.03769L2.97703 2.97703C0.34099 5.61307 0.34099 9.88693 2.97703 12.523L4.03769 11.4623ZM4.03769 4.03769C6.08794 1.98744 9.41206 1.98744 11.4623 4.03769L12.523 2.97703C9.88693 0.34099 5.61307 0.34099 2.97703 2.97703L4.03769 4.03769ZM11.4623 4.03769L13.4697 6.04512L14.5304 4.98446L12.523 2.97703L11.4623 4.03769ZM14.2502 5H10.5V6.5H14.2502V5ZM15.0002 5.75V2H13.5002V5.75H15.0002Z" fill="#44546F"/>
</svg>
