<svg width="16" height="16" viewBox="0 0 16 16" fill="none" xmlns="http://www.w3.org/2000/svg">
<path fill-rule="evenodd" clip-rule="evenodd" d="M6.81422 14.6445C6.51284 14.485 6.27603 14.2641 6.10693 13.9823L6.10541 13.9798C5.94164 13.6917 5.86175 13.3604 5.86175 12.99V10.51C5.86175 10.1396 5.94165 9.81062 6.10598 9.52728L6.10636 9.52664C6.27538 9.2392 6.51254 9.0176 6.81505 8.86308C7.11832 8.70282 7.47076 8.625 7.86838 8.625C8.27062 8.625 8.62344 8.70259 8.92214 8.8633C9.22433 9.01775 9.45894 9.23933 9.62274 9.52694C9.7924 9.81026 9.87501 10.1395 9.87501 10.51V12.99C9.87501 13.361 9.7922 13.6927 9.62273 13.9811C9.45873 14.2637 9.22412 14.4849 8.92253 14.6445L8.92173 14.6449C8.62337 14.8 8.27344 14.875 7.87622 14.875C7.47399 14.875 7.11917 14.8001 6.81587 14.6453L6.81422 14.6445ZM8.35673 13.4254C8.46709 13.3253 8.52739 13.1855 8.52739 12.99V10.51C8.52739 10.3145 8.46709 10.1747 8.35673 10.0746L8.35499 10.073C8.24885 9.97304 8.09253 9.915 7.86838 9.915C7.6451 9.915 7.48511 9.97262 7.37307 10.0738C7.26773 10.1735 7.20937 10.3135 7.20937 10.51V12.99C7.20937 13.1855 7.26966 13.3253 7.38003 13.4254C7.49259 13.5275 7.65056 13.585 7.86838 13.585C8.09253 13.585 8.24887 13.527 8.355 13.427L8.35673 13.4254ZM1.14069 14.7951V13.4651H2.58327V10.2931L1.12501 11.3651V9.72584L2.55053 8.70508H4.00929V13.4651H5.15395V14.7951H1.14069Z" fill="#44546F"/>
<path d="M4.00694 3.50736L3.47661 2.97703L3.47661 2.97703L4.00694 3.50736ZM1.7498 5.75H0.999802C0.999802 6.16421 1.33559 6.5 1.7498 6.5L1.7498 5.75ZM13.0226 12.523C15.6586 9.88693 15.6586 5.61307 13.0226 2.97703L11.9619 4.03769C14.0121 6.08794 14.0121 9.41206 11.9619 11.4623L13.0226 12.523ZM13.0226 2.97703C10.3865 0.34099 6.11265 0.34099 3.47661 2.97703L4.53727 4.03769C6.58752 1.98744 9.91164 1.98744 11.9619 4.03769L13.0226 2.97703ZM3.47661 2.97703L1.46918 4.98446L2.52984 6.04512L4.53727 4.03769L3.47661 2.97703ZM1.7498 6.5H5.5V5H1.7498V6.5ZM2.4998 5.75V2H0.999802V5.75H2.4998Z" fill="#44546F"/>
</svg>
