<svg width="16" height="16" viewBox="0 0 16 16" fill="none" xmlns="http://www.w3.org/2000/svg">
<mask id="path-1-outside-1_28002_2753" maskUnits="userSpaceOnUse" x="0.25" y="7.75" width="10" height="8" fill="black">
<rect fill="white" x="0.25" y="7.75" width="10" height="8"/>
<path d="M1.26622 13.6149V14.6689H5.15811V13.6149H3.97433V8.75H2.63649L1.25 9.72297V10.9797L2.75811 9.86081V13.6149H1.26622Z"/>
<path d="M6.47264 14.3122C6.81858 14.6041 7.28615 14.75 7.87534 14.75C8.48615 14.75 8.96453 14.5959 9.31048 14.2878C9.65642 13.9743 9.82939 13.5473 9.82939 13.0068V12.4311C9.82939 11.9122 9.69426 11.5095 9.42399 11.223C9.15912 10.9311 8.78615 10.7851 8.30507 10.7851C7.97534 10.7851 7.71318 10.8581 7.51858 11.0041C7.38426 11.1038 7.28186 11.2444 7.24291 11.3987C7.24291 11.2732 7.25011 10.6414 7.25508 10.2049C7.25685 10.0495 7.25834 9.9188 7.25912 9.84459H9.61048V8.75H6.07534V11.9932H7.25102C7.31047 11.9122 7.39156 11.8527 7.49426 11.8149C7.60237 11.7716 7.72939 11.75 7.87534 11.75C8.11858 11.75 8.30237 11.8095 8.42669 11.9284C8.55102 12.0419 8.61318 12.2095 8.61318 12.4311V13.0068C8.61318 13.223 8.54831 13.3932 8.41858 13.5176C8.29426 13.6365 8.11318 13.6959 7.87534 13.6959C7.65372 13.6959 7.48075 13.6473 7.35642 13.55C7.2321 13.4473 7.16453 13.3068 7.15372 13.1284H5.9375C5.94831 13.6257 6.12669 14.0203 6.47264 14.3122Z"/>
</mask>
<path d="M1.26622 13.6149V14.6689H5.15811V13.6149H3.97433V8.75H2.63649L1.25 9.72297V10.9797L2.75811 9.86081V13.6149H1.26622Z" fill="#44546F"/>
<path d="M6.47264 14.3122C6.81858 14.6041 7.28615 14.75 7.87534 14.75C8.48615 14.75 8.96453 14.5959 9.31048 14.2878C9.65642 13.9743 9.82939 13.5473 9.82939 13.0068V12.4311C9.82939 11.9122 9.69426 11.5095 9.42399 11.223C9.15912 10.9311 8.78615 10.7851 8.30507 10.7851C7.97534 10.7851 7.71318 10.8581 7.51858 11.0041C7.38426 11.1038 7.28186 11.2444 7.24291 11.3987C7.24291 11.2732 7.25011 10.6414 7.25508 10.2049C7.25685 10.0495 7.25834 9.9188 7.25912 9.84459H9.61048V8.75H6.07534V11.9932H7.25102C7.31047 11.9122 7.39156 11.8527 7.49426 11.8149C7.60237 11.7716 7.72939 11.75 7.87534 11.75C8.11858 11.75 8.30237 11.8095 8.42669 11.9284C8.55102 12.0419 8.61318 12.2095 8.61318 12.4311V13.0068C8.61318 13.223 8.54831 13.3932 8.41858 13.5176C8.29426 13.6365 8.11318 13.6959 7.87534 13.6959C7.65372 13.6959 7.48075 13.6473 7.35642 13.55C7.2321 13.4473 7.16453 13.3068 7.15372 13.1284H5.9375C5.94831 13.6257 6.12669 14.0203 6.47264 14.3122Z" fill="#44546F"/>
<path d="M1.26622 13.6149V14.6689H5.15811V13.6149H3.97433V8.75H2.63649L1.25 9.72297V10.9797L2.75811 9.86081V13.6149H1.26622Z" stroke="#44546F" stroke-width="0.25" mask="url(#path-1-outside-1_28002_2753)"/>
<path d="M6.47264 14.3122C6.81858 14.6041 7.28615 14.75 7.87534 14.75C8.48615 14.75 8.96453 14.5959 9.31048 14.2878C9.65642 13.9743 9.82939 13.5473 9.82939 13.0068V12.4311C9.82939 11.9122 9.69426 11.5095 9.42399 11.223C9.15912 10.9311 8.78615 10.7851 8.30507 10.7851C7.97534 10.7851 7.71318 10.8581 7.51858 11.0041C7.38426 11.1038 7.28186 11.2444 7.24291 11.3987C7.24291 11.2732 7.25011 10.6414 7.25508 10.2049C7.25685 10.0495 7.25834 9.9188 7.25912 9.84459H9.61048V8.75H6.07534V11.9932H7.25102C7.31047 11.9122 7.39156 11.8527 7.49426 11.8149C7.60237 11.7716 7.72939 11.75 7.87534 11.75C8.11858 11.75 8.30237 11.8095 8.42669 11.9284C8.55102 12.0419 8.61318 12.2095 8.61318 12.4311V13.0068C8.61318 13.223 8.54831 13.3932 8.41858 13.5176C8.29426 13.6365 8.11318 13.6959 7.87534 13.6959C7.65372 13.6959 7.48075 13.6473 7.35642 13.55C7.2321 13.4473 7.16453 13.3068 7.15372 13.1284H5.9375C5.94831 13.6257 6.12669 14.0203 6.47264 14.3122Z" stroke="#44546F" stroke-width="0.25" mask="url(#path-1-outside-1_28002_2753)"/>
<path d="M12.4926 3.50736L11.9622 4.03769L11.9622 4.03769L12.4926 3.50736ZM4.00728 3.50736L4.53761 4.03769L4.00728 3.50736ZM1.75 5.75H1C1 6.16421 1.33579 6.5 1.75 6.5L1.75 5.75ZM13.0229 12.523C15.6589 9.88693 15.6589 5.61307 13.0229 2.97703L11.9622 4.03769C14.0125 6.08794 14.0125 9.41206 11.9622 11.4623L13.0229 12.523ZM13.0229 2.97703C10.3869 0.34099 6.11299 0.34099 3.47695 2.97703L4.53761 4.03769C6.58786 1.98744 9.91198 1.98744 11.9622 4.03769L13.0229 2.97703ZM3.47695 2.97703L1.46952 4.98446L2.53018 6.04512L4.53761 4.03769L3.47695 2.97703ZM1.75 6.5H5.5002V5H1.75V6.5ZM2.5 5.75V2H1V5.75H2.5Z" fill="#44546F"/>
</svg>
