<svg width="16" height="16" viewBox="0 0 16 16" fill="none" xmlns="http://www.w3.org/2000/svg">
<path d="M2 9.25C2 12.5637 4.68629 15.25 8 15.25C11.3137 15.25 14 12.5637 14 9.25C14 5.93629 11.3137 3.25 8 3.25C7.41434 3.25 2 3.25 2 3.25M4.375 0.625L1.75 3.25L4.375 5.875" stroke="#44546F" stroke-width="1.5" stroke-linejoin="round"/>
<mask id="path-2-outside-1_26427_16644" maskUnits="userSpaceOnUse" x="3.75" y="6" width="8" height="6" fill="black">
<rect fill="white" x="3.75" y="6" width="8" height="6"/>
<path d="M9.821 11.5C9.525 11.5 9.269 11.446 9.053 11.338C8.837 11.226 8.669 11.072 8.549 10.876C8.433 10.676 8.375 10.444 8.375 10.18V8.32C8.375 8.056 8.433 7.826 8.549 7.63C8.669 7.43 8.837 7.276 9.053 7.168C9.269 7.056 9.523 7 9.815 7C10.111 7 10.365 7.056 10.577 7.168C10.793 7.276 10.959 7.43 11.075 7.63C11.195 7.826 11.255 8.056 11.255 8.32V10.18C11.255 10.444 11.195 10.676 11.075 10.876C10.959 11.072 10.793 11.226 10.577 11.338C10.365 11.446 10.113 11.5 9.821 11.5ZM9.815 10.72C10.003 10.72 10.149 10.672 10.253 10.576C10.361 10.48 10.415 10.348 10.415 10.18V8.32C10.415 8.152 10.361 8.02 10.253 7.924C10.149 7.828 10.003 7.78 9.815 7.78C9.627 7.78 9.479 7.828 9.371 7.924C9.267 8.02 9.215 8.152 9.215 8.32V10.18C9.215 10.348 9.269 10.48 9.377 10.576C9.485 10.672 9.631 10.72 9.815 10.72Z"/>
<path d="M4.762 11.4401V10.6301H5.866V7.97206L4.75 8.77606V7.78006L5.776 7.06006H6.766V10.6301H7.642V11.4401H4.762Z"/>
</mask>
<path d="M9.821 11.5C9.525 11.5 9.269 11.446 9.053 11.338C8.837 11.226 8.669 11.072 8.549 10.876C8.433 10.676 8.375 10.444 8.375 10.18V8.32C8.375 8.056 8.433 7.826 8.549 7.63C8.669 7.43 8.837 7.276 9.053 7.168C9.269 7.056 9.523 7 9.815 7C10.111 7 10.365 7.056 10.577 7.168C10.793 7.276 10.959 7.43 11.075 7.63C11.195 7.826 11.255 8.056 11.255 8.32V10.18C11.255 10.444 11.195 10.676 11.075 10.876C10.959 11.072 10.793 11.226 10.577 11.338C10.365 11.446 10.113 11.5 9.821 11.5ZM9.815 10.72C10.003 10.72 10.149 10.672 10.253 10.576C10.361 10.48 10.415 10.348 10.415 10.18V8.32C10.415 8.152 10.361 8.02 10.253 7.924C10.149 7.828 10.003 7.78 9.815 7.78C9.627 7.78 9.479 7.828 9.371 7.924C9.267 8.02 9.215 8.152 9.215 8.32V10.18C9.215 10.348 9.269 10.48 9.377 10.576C9.485 10.672 9.631 10.72 9.815 10.72Z" fill="#44546F"/>
<path d="M4.762 11.4401V10.6301H5.866V7.97206L4.75 8.77606V7.78006L5.776 7.06006H6.766V10.6301H7.642V11.4401H4.762Z" fill="#44546F"/>
<path d="M9.821 11.5C9.525 11.5 9.269 11.446 9.053 11.338C8.837 11.226 8.669 11.072 8.549 10.876C8.433 10.676 8.375 10.444 8.375 10.18V8.32C8.375 8.056 8.433 7.826 8.549 7.63C8.669 7.43 8.837 7.276 9.053 7.168C9.269 7.056 9.523 7 9.815 7C10.111 7 10.365 7.056 10.577 7.168C10.793 7.276 10.959 7.43 11.075 7.63C11.195 7.826 11.255 8.056 11.255 8.32V10.18C11.255 10.444 11.195 10.676 11.075 10.876C10.959 11.072 10.793 11.226 10.577 11.338C10.365 11.446 10.113 11.5 9.821 11.5ZM9.815 10.72C10.003 10.72 10.149 10.672 10.253 10.576C10.361 10.48 10.415 10.348 10.415 10.18V8.32C10.415 8.152 10.361 8.02 10.253 7.924C10.149 7.828 10.003 7.78 9.815 7.78C9.627 7.78 9.479 7.828 9.371 7.924C9.267 8.02 9.215 8.152 9.215 8.32V10.18C9.215 10.348 9.269 10.48 9.377 10.576C9.485 10.672 9.631 10.72 9.815 10.72Z" stroke="#44546F" stroke-width="0.25" mask="url(#path-2-outside-1_26427_16644)"/>
<path d="M4.762 11.4401V10.6301H5.866V7.97206L4.75 8.77606V7.78006L5.776 7.06006H6.766V10.6301H7.642V11.4401H4.762Z" stroke="#44546F" stroke-width="0.25" mask="url(#path-2-outside-1_26427_16644)"/>
</svg>
