<svg width="16" height="16" viewBox="0 0 16 16" fill="none" xmlns="http://www.w3.org/2000/svg">
<mask id="path-1-outside-1_28002_2786" maskUnits="userSpaceOnUse" x="5.25" y="7.75" width="10" height="8" fill="black">
<rect fill="white" x="5.25" y="7.75" width="10" height="8"/>
<path d="M12.8762 14.75C12.4894 14.75 12.1549 14.678 11.8727 14.534C11.5904 14.3847 11.3709 14.1793 11.2141 13.918C11.0625 13.6513 10.9867 13.342 10.9867 12.99V10.51C10.9867 10.158 11.0625 9.85133 11.2141 9.59C11.3709 9.32333 11.5904 9.118 11.8727 8.974C12.1549 8.82467 12.4868 8.75 12.8684 8.75C13.2551 8.75 13.587 8.82467 13.8641 8.974C14.1463 9.118 14.3632 9.32333 14.5148 9.59C14.6716 9.85133 14.75 10.158 14.75 10.51V12.99C14.75 13.342 14.6716 13.6513 14.5148 13.918C14.3632 14.1793 14.1463 14.3847 13.8641 14.534C13.587 14.678 13.2578 14.75 12.8762 14.75ZM12.8684 13.71C13.114 13.71 13.3048 13.646 13.4407 13.518C13.5818 13.39 13.6524 13.214 13.6524 12.99V10.51C13.6524 10.286 13.5818 10.11 13.4407 9.982C13.3048 9.854 13.114 9.79 12.8684 9.79C12.6227 9.79 12.4293 9.854 12.2882 9.982C12.1523 10.11 12.0844 10.286 12.0844 10.51V12.99C12.0844 13.214 12.1549 13.39 12.296 13.518C12.4372 13.646 12.6279 13.71 12.8684 13.71Z"/>
<path d="M6.26568 14.6701V13.5901H7.70826V10.0461L6.25 11.1181V9.79008L7.59066 8.83008H8.88428V13.5901H10.0289V14.6701H6.26568Z"/>
</mask>
<path d="M12.8762 14.75C12.4894 14.75 12.1549 14.678 11.8727 14.534C11.5904 14.3847 11.3709 14.1793 11.2141 13.918C11.0625 13.6513 10.9867 13.342 10.9867 12.99V10.51C10.9867 10.158 11.0625 9.85133 11.2141 9.59C11.3709 9.32333 11.5904 9.118 11.8727 8.974C12.1549 8.82467 12.4868 8.75 12.8684 8.75C13.2551 8.75 13.587 8.82467 13.8641 8.974C14.1463 9.118 14.3632 9.32333 14.5148 9.59C14.6716 9.85133 14.75 10.158 14.75 10.51V12.99C14.75 13.342 14.6716 13.6513 14.5148 13.918C14.3632 14.1793 14.1463 14.3847 13.8641 14.534C13.587 14.678 13.2578 14.75 12.8762 14.75ZM12.8684 13.71C13.114 13.71 13.3048 13.646 13.4407 13.518C13.5818 13.39 13.6524 13.214 13.6524 12.99V10.51C13.6524 10.286 13.5818 10.11 13.4407 9.982C13.3048 9.854 13.114 9.79 12.8684 9.79C12.6227 9.79 12.4293 9.854 12.2882 9.982C12.1523 10.11 12.0844 10.286 12.0844 10.51V12.99C12.0844 13.214 12.1549 13.39 12.296 13.518C12.4372 13.646 12.6279 13.71 12.8684 13.71Z" fill="#44546F"/>
<path d="M6.26568 14.6701V13.5901H7.70826V10.0461L6.25 11.1181V9.79008L7.59066 8.83008H8.88428V13.5901H10.0289V14.6701H6.26568Z" fill="#44546F"/>
<path d="M12.8762 14.75C12.4894 14.75 12.1549 14.678 11.8727 14.534C11.5904 14.3847 11.3709 14.1793 11.2141 13.918C11.0625 13.6513 10.9867 13.342 10.9867 12.99V10.51C10.9867 10.158 11.0625 9.85133 11.2141 9.59C11.3709 9.32333 11.5904 9.118 11.8727 8.974C12.1549 8.82467 12.4868 8.75 12.8684 8.75C13.2551 8.75 13.587 8.82467 13.8641 8.974C14.1463 9.118 14.3632 9.32333 14.5148 9.59C14.6716 9.85133 14.75 10.158 14.75 10.51V12.99C14.75 13.342 14.6716 13.6513 14.5148 13.918C14.3632 14.1793 14.1463 14.3847 13.8641 14.534C13.587 14.678 13.2578 14.75 12.8762 14.75ZM12.8684 13.71C13.114 13.71 13.3048 13.646 13.4407 13.518C13.5818 13.39 13.6524 13.214 13.6524 12.99V10.51C13.6524 10.286 13.5818 10.11 13.4407 9.982C13.3048 9.854 13.114 9.79 12.8684 9.79C12.6227 9.79 12.4293 9.854 12.2882 9.982C12.1523 10.11 12.0844 10.286 12.0844 10.51V12.99C12.0844 13.214 12.1549 13.39 12.296 13.518C12.4372 13.646 12.6279 13.71 12.8684 13.71Z" stroke="#44546F" stroke-width="0.25" mask="url(#path-1-outside-1_28002_2786)"/>
<path d="M6.26568 14.6701V13.5901H7.70826V10.0461L6.25 11.1181V9.79008L7.59066 8.83008H8.88428V13.5901H10.0289V14.6701H6.26568Z" stroke="#44546F" stroke-width="0.25" mask="url(#path-1-outside-1_28002_2786)"/>
<path d="M14.2502 5.75V6.5C14.6644 6.5 15.0002 6.16421 15.0002 5.75H14.2502ZM3.50729 3.50736L2.97696 2.97703L2.97696 2.97703L3.50729 3.50736ZM11.9926 3.50736L12.5229 2.97703L12.5229 2.97703L11.9926 3.50736ZM14.2502 5H10.5V6.5H14.2502V5ZM15.0002 5.75V2H13.5002V5.75H15.0002ZM4.03762 11.4623C1.98737 9.41206 1.98737 6.08794 4.03762 4.03769L2.97696 2.97703C0.340922 5.61307 0.340922 9.88693 2.97696 12.523L4.03762 11.4623ZM4.03762 4.03769C6.08787 1.98744 9.41199 1.98744 11.4622 4.03769L12.5229 2.97703C9.88686 0.34099 5.613 0.34099 2.97696 2.97703L4.03762 4.03769ZM11.4622 4.03769L13.4697 6.04512L14.5303 4.98446L12.5229 2.97703L11.4622 4.03769Z" fill="#44546F"/>
</svg>
