<svg width="16" height="16" viewBox="0 0 16 16" fill="none" xmlns="http://www.w3.org/2000/svg">
<path fill-rule="evenodd" clip-rule="evenodd" d="M13 1L13 15H11.5V8.70811C11.3531 9.04431 11.0962 9.34111 10.7292 9.53949L4.58215 12.8622C3.41617 13.4925 2 12.6481 2 11.3227V4.67728C2 3.35186 3.41617 2.50754 4.58216 3.1378L10.7292 6.46051C11.0962 6.65889 11.3531 6.95569 11.5 7.29188V1H13ZM3.86888 4.45736C3.70231 4.36732 3.5 4.48794 3.5 4.67728V11.3227C3.5 11.5121 3.70231 11.6327 3.86888 11.5426L10.0159 8.21993C10.1907 8.12542 10.1907 7.87457 10.0159 7.78007L3.86888 4.45736Z" fill="#44546F"/>
</svg>
