<svg width="16" height="16" viewBox="0 0 16 16" fill="none" xmlns="http://www.w3.org/2000/svg">
<mask id="path-1-outside-1_28002_2775" maskUnits="userSpaceOnUse" x="5.25" y="7.75" width="10" height="8" fill="black">
<rect fill="white" x="5.25" y="7.75" width="10" height="8"/>
<path d="M6.26622 13.6149V14.6689H10.1581V13.6149H8.97433V8.75H7.63649L6.25 9.72297V10.9797L7.75811 9.86081V13.6149H6.26622Z"/>
<path d="M11.4726 14.3122C11.8186 14.6041 12.2862 14.75 12.8753 14.75C13.4862 14.75 13.9645 14.5959 14.3105 14.2878C14.6564 13.9743 14.8294 13.5473 14.8294 13.0068V12.4311C14.8294 11.9122 14.6943 11.5095 14.424 11.223C14.1591 10.9311 13.7862 10.7851 13.3051 10.7851C12.9753 10.7851 12.7132 10.8581 12.5186 11.0041C12.3843 11.1038 12.2819 11.2444 12.2429 11.3987C12.2429 11.2732 12.2501 10.6414 12.2551 10.2049C12.2569 10.0495 12.2583 9.9188 12.2591 9.84459H14.6105V8.75H11.0753V11.9932H12.251C12.3105 11.9122 12.3916 11.8527 12.4943 11.8149C12.6024 11.7716 12.7294 11.75 12.8753 11.75C13.1186 11.75 13.3024 11.8095 13.4267 11.9284C13.551 12.0419 13.6132 12.2095 13.6132 12.4311V13.0068C13.6132 13.223 13.5483 13.3932 13.4186 13.5176C13.2943 13.6365 13.1132 13.6959 12.8753 13.6959C12.6537 13.6959 12.4807 13.6473 12.3564 13.55C12.2321 13.4473 12.1645 13.3068 12.1537 13.1284H10.9375C10.9483 13.6257 11.1267 14.0203 11.4726 14.3122Z"/>
</mask>
<path d="M6.26622 13.6149V14.6689H10.1581V13.6149H8.97433V8.75H7.63649L6.25 9.72297V10.9797L7.75811 9.86081V13.6149H6.26622Z" fill="#44546F"/>
<path d="M11.4726 14.3122C11.8186 14.6041 12.2862 14.75 12.8753 14.75C13.4862 14.75 13.9645 14.5959 14.3105 14.2878C14.6564 13.9743 14.8294 13.5473 14.8294 13.0068V12.4311C14.8294 11.9122 14.6943 11.5095 14.424 11.223C14.1591 10.9311 13.7862 10.7851 13.3051 10.7851C12.9753 10.7851 12.7132 10.8581 12.5186 11.0041C12.3843 11.1038 12.2819 11.2444 12.2429 11.3987C12.2429 11.2732 12.2501 10.6414 12.2551 10.2049C12.2569 10.0495 12.2583 9.9188 12.2591 9.84459H14.6105V8.75H11.0753V11.9932H12.251C12.3105 11.9122 12.3916 11.8527 12.4943 11.8149C12.6024 11.7716 12.7294 11.75 12.8753 11.75C13.1186 11.75 13.3024 11.8095 13.4267 11.9284C13.551 12.0419 13.6132 12.2095 13.6132 12.4311V13.0068C13.6132 13.223 13.5483 13.3932 13.4186 13.5176C13.2943 13.6365 13.1132 13.6959 12.8753 13.6959C12.6537 13.6959 12.4807 13.6473 12.3564 13.55C12.2321 13.4473 12.1645 13.3068 12.1537 13.1284H10.9375C10.9483 13.6257 11.1267 14.0203 11.4726 14.3122Z" fill="#44546F"/>
<path d="M6.26622 13.6149V14.6689H10.1581V13.6149H8.97433V8.75H7.63649L6.25 9.72297V10.9797L7.75811 9.86081V13.6149H6.26622Z" stroke="#44546F" stroke-width="0.25" mask="url(#path-1-outside-1_28002_2775)"/>
<path d="M11.4726 14.3122C11.8186 14.6041 12.2862 14.75 12.8753 14.75C13.4862 14.75 13.9645 14.5959 14.3105 14.2878C14.6564 13.9743 14.8294 13.5473 14.8294 13.0068V12.4311C14.8294 11.9122 14.6943 11.5095 14.424 11.223C14.1591 10.9311 13.7862 10.7851 13.3051 10.7851C12.9753 10.7851 12.7132 10.8581 12.5186 11.0041C12.3843 11.1038 12.2819 11.2444 12.2429 11.3987C12.2429 11.2732 12.2501 10.6414 12.2551 10.2049C12.2569 10.0495 12.2583 9.9188 12.2591 9.84459H14.6105V8.75H11.0753V11.9932H12.251C12.3105 11.9122 12.3916 11.8527 12.4943 11.8149C12.6024 11.7716 12.7294 11.75 12.8753 11.75C13.1186 11.75 13.3024 11.8095 13.4267 11.9284C13.551 12.0419 13.6132 12.2095 13.6132 12.4311V13.0068C13.6132 13.223 13.5483 13.3932 13.4186 13.5176C13.2943 13.6365 13.1132 13.6959 12.8753 13.6959C12.6537 13.6959 12.4807 13.6473 12.3564 13.55C12.2321 13.4473 12.1645 13.3068 12.1537 13.1284H10.9375C10.9483 13.6257 11.1267 14.0203 11.4726 14.3122Z" stroke="#44546F" stroke-width="0.25" mask="url(#path-1-outside-1_28002_2775)"/>
<path d="M3.50736 3.50736L4.03769 4.03769L4.03769 4.03769L3.50736 3.50736ZM14.2502 5.75V6.5C14.6644 6.5 15.0002 6.16421 15.0002 5.75H14.2502ZM4.03769 11.4623C1.98744 9.41206 1.98744 6.08794 4.03769 4.03769L2.97703 2.97703C0.34099 5.61307 0.34099 9.88693 2.97703 12.523L4.03769 11.4623ZM4.03769 4.03769C6.08794 1.98744 9.41206 1.98744 11.4623 4.03769L12.523 2.97703C9.88693 0.34099 5.61307 0.34099 2.97703 2.97703L4.03769 4.03769ZM11.4623 4.03769L13.4697 6.04512L14.5304 4.98446L12.523 2.97703L11.4623 4.03769ZM14.2502 5H10.5V6.5H14.2502V5ZM15.0002 5.75V2H13.5002V5.75H15.0002Z" fill="#44546F"/>
</svg>
