<svg width="16" height="16" viewBox="0 0 16 16" fill="none" xmlns="http://www.w3.org/2000/svg">
<path fill-rule="evenodd" clip-rule="evenodd" d="M7.2327 1.43356C8.12529 0.67223 9.5 1.30654 9.5 2.4797V13.5206C9.5 14.6938 8.12528 15.3281 7.2327 14.5667L4.36379 12.1197C4.2733 12.0425 4.15826 12.0001 4.03932 12.0001H2C0.89543 12.0001 0 11.1047 0 10.0001V6.00015C0 4.89558 0.89543 4.00015 2 4.00015H4.03932C4.15826 4.00015 4.2733 3.95775 4.36379 3.88057L7.2327 1.43356ZM8 2.75062L5.33721 5.02182C4.97524 5.33055 4.51507 5.50015 4.03932 5.50015H2C1.72386 5.50015 1.5 5.72401 1.5 6.00015V10.0001C1.5 10.2763 1.72386 10.5001 2 10.5001H4.03932C4.51507 10.5001 4.97524 10.6697 5.33721 10.9785L8 13.2497V2.75062ZM12.9697 11.4698C14.8859 9.55357 14.8859 6.44672 12.9697 4.53048L14.0303 3.46982C16.5324 5.97185 16.5324 10.0284 14.0303 12.5305L12.9697 11.4698ZM10.9697 9.46982C11.7813 8.65814 11.7813 7.34215 10.9697 6.53048L12.0303 5.46982C13.4278 6.86728 13.4278 9.13302 12.0303 10.5305L10.9697 9.46982Z" fill="#292A2E"/>
</svg>
