<svg width="16" height="16" viewBox="0 0 16 16" fill="none" xmlns="http://www.w3.org/2000/svg">
<path fill-rule="evenodd" clip-rule="evenodd" d="M9.1619 2.17736C8.44826 2.45924 7.88265 2.99361 7.71338 3.51524L6.28662 3.05226C6.63773 1.97023 7.63325 1.1684 8.61083 0.782249C9.55407 0.409669 10.8589 0.29283 11.7004 1.15718C12.0468 1.51299 12.2371 1.93446 12.2491 2.39338C12.2605 2.82952 12.1087 3.22031 11.9256 3.53728C11.6983 3.93075 11.369 4.29804 11.0501 4.61139C12.5164 4.47455 13.7669 4.84983 14.4714 5.74473C15.2979 6.79477 15.115 8.20917 14.2146 9.44229L13.0032 8.55771C13.6639 7.6529 13.559 7.01084 13.2927 6.67251C12.9884 6.28591 12.1976 5.91628 10.7692 6.16079C10.2477 6.25007 9.83387 6.29943 9.5325 6.29146C9.39247 6.28776 9.18901 6.27118 8.99618 6.18177C8.89059 6.13281 8.75812 6.04821 8.65145 5.90342C8.53838 5.74993 8.48832 5.57466 8.48693 5.40793C8.48456 5.12293 8.62322 4.90892 8.68351 4.82179C8.76091 4.70991 8.85536 4.60683 8.9397 4.52122C9.08003 4.37879 9.26252 4.21567 9.43883 4.05807C9.47296 4.02757 9.50685 3.99727 9.54016 3.96737C9.99306 3.56088 10.4103 3.16164 10.6268 2.78687C10.7295 2.60914 10.7512 2.49538 10.7496 2.4325C10.7485 2.39238 10.7393 2.32034 10.6256 2.20354C10.4264 1.99887 9.90989 1.8819 9.1619 2.17736ZM9.52959 4.7891C9.52966 4.78906 9.53137 4.78924 9.53455 4.7898C9.53112 4.78942 9.52953 4.78915 9.52959 4.7891ZM3.75 5.5C2.50736 5.5 1.5 6.50736 1.5 7.75C1.5 8.99264 2.50736 10 3.75 10C4.99264 10 6 8.99264 6 7.75C6 6.50736 4.99264 5.5 3.75 5.5ZM0 7.75C0 5.67893 1.67893 4 3.75 4C5.82107 4 7.5 5.67893 7.5 7.75C7.5 9.82107 5.82107 11.5 3.75 11.5C1.67893 11.5 0 9.82107 0 7.75ZM10.25 8.5C10.5134 8.5 10.7576 8.63823 10.8931 8.86413L13.8931 13.8641C14.0321 14.0958 14.0358 14.3844 13.9026 14.6195C13.7695 14.8547 13.5202 15 13.25 15H7.25C6.9798 15 6.73048 14.8547 6.59735 14.6195C6.46422 14.3844 6.46786 14.0958 6.60688 13.8641L9.60688 8.86413C9.74242 8.63823 9.98655 8.5 10.25 8.5ZM8.57464 13.5H11.9254L10.25 10.7077L8.57464 13.5Z" fill="#292A2E"/>
</svg>
