<svg width="16" height="16" viewBox="0 0 16 16" fill="none" xmlns="http://www.w3.org/2000/svg">
<path fill-rule="evenodd" clip-rule="evenodd" d="M9.1619 2.17762C8.44826 2.45951 7.88265 2.99387 7.71338 3.5155L6.28662 3.05253C6.63773 1.9705 7.63325 1.16866 8.61083 0.782516C9.55407 0.409937 10.8589 0.293097 11.7004 1.15745C12.0468 1.51326 12.2371 1.93473 12.2491 2.39364C12.2605 2.82979 12.1087 3.22057 11.9256 3.53755C11.6983 3.93102 11.369 4.29831 11.0501 4.61165C12.5164 4.47482 13.7669 4.8501 14.4714 5.745C15.2979 6.79503 15.115 8.20944 14.2146 9.44256L13.0032 8.55798C13.6639 7.65317 13.559 7.0111 13.2927 6.67277C12.9884 6.28617 12.1976 5.91655 10.7692 6.16106C10.2477 6.25034 9.83387 6.2997 9.5325 6.29173C9.39247 6.28802 9.18901 6.27144 8.99618 6.18204C8.89059 6.13308 8.75812 6.04847 8.65145 5.90368C8.53838 5.7502 8.48832 5.57492 8.48693 5.4082C8.48456 5.1232 8.62322 4.90919 8.68351 4.82206C8.76091 4.71018 8.85536 4.6071 8.9397 4.52149C9.08003 4.37905 9.26252 4.21594 9.43883 4.05834C9.47296 4.02784 9.50685 3.99754 9.54016 3.96764C9.99306 3.56115 10.4103 3.16191 10.6268 2.78714C10.7295 2.60941 10.7512 2.49565 10.7496 2.43276C10.7485 2.39265 10.7393 2.32061 10.6256 2.20381C10.4264 1.99914 9.90989 1.88217 9.1619 2.17762ZM9.52959 4.78937C9.52966 4.78932 9.53137 4.78951 9.53455 4.79007C9.53112 4.78969 9.52953 4.78941 9.52959 4.78937ZM3.75 5.50027C2.50736 5.50027 1.5 6.50763 1.5 7.75027C1.5 8.99291 2.50736 10.0003 3.75 10.0003C4.99264 10.0003 6 8.99291 6 7.75027C6 6.50763 4.99264 5.50027 3.75 5.50027ZM0 7.75027C0 5.6792 1.67893 4.00027 3.75 4.00027C5.82107 4.00027 7.5 5.6792 7.5 7.75027C7.5 9.82134 5.82107 11.5003 3.75 11.5003C1.67893 11.5003 0 9.82134 0 7.75027ZM10.25 8.50027C10.5134 8.50027 10.7576 8.63849 10.8931 8.8644L13.8931 13.8644C14.0321 14.0961 14.0358 14.3847 13.9026 14.6198C13.7695 14.8549 13.5202 15.0003 13.25 15.0003H7.25C6.9798 15.0003 6.73048 14.8549 6.59735 14.6198C6.46422 14.3847 6.46786 14.0961 6.60688 13.8644L9.60688 8.8644C9.74242 8.63849 9.98655 8.50027 10.25 8.50027ZM8.57464 13.5003H11.9254L10.25 10.708L8.57464 13.5003Z" fill="#292A2E"/>
</svg>
