<svg width="16" height="16" viewBox="0 0 16 16" fill="none" xmlns="http://www.w3.org/2000/svg">
<path d="M11.5 4C11.5 3.72386 11.2761 3.5 11 3.5H2C1.72386 3.5 1.5 3.72386 1.5 4V10C1.5 10.2761 1.72386 10.5 2 10.5H11C11.2761 10.5 11.5 10.2761 11.5 10V4ZM9.44824 5.6084L6.28125 9.3584C6.13875 9.52715 5.92888 9.625 5.70801 9.625C5.51481 9.62492 5.32995 9.55063 5.19141 9.41895L5.13574 9.3584L3.55176 7.4834L4.69824 6.5166L5.70801 7.71289L8.30176 4.6416L9.44824 5.6084ZM13 10C13 11.1046 12.1046 12 11 12H2C0.89543 12 2.81862e-08 11.1046 0 10V4C9.66399e-08 2.89543 0.89543 2 2 2H11C12.1046 2 13 2.89543 13 4V10Z" fill="#292A2E"/>
<path d="M14.5 11.75V7H16V11.75C16 13.5449 14.5449 15 12.75 15H5V13.5H12.75C13.7165 13.5 14.5 12.7165 14.5 11.75Z" fill="#292A2E"/>
</svg>
