<svg xmlns="http://www.w3.org/2000/svg" width="24" height="24" viewBox="0 0 24 24">
  <path fill="#CA5010" fill-rule="evenodd" d="M3,0 L21,0 C22.6568542,-3.04359188e-16 24,1.34314575 24,3 L24,21 C24,22.6568542 22.6568542,24 21,24 L3,24 C1.34314575,24 2.02906125e-16,22.6568542 0,21 L0,3 C-2.02906125e-16,1.34314575 1.34314575,3.04359188e-16 3,0 Z M4.37602767,6.01318388 C4.16031379,6.04379714 4,6.22846836 4,6.44634367 L4,17.5963098 C4,17.8147857 4.16117499,17.9997729 4.37759295,18.0296888 L15.5025929,19.5675249 C15.522444,19.570269 15.5424602,19.5716459 15.5625,19.5716459 C15.8041246,19.5716459 16,19.3757705 16,19.1341459 L16,4.86752744 C16,4.84696011 15.9985497,4.82641839 15.9956598,4.8060551 C15.9617096,4.56682756 15.7402552,4.40041742 15.5010277,4.43436765 L4.37602767,6.01318388 Z M17,7 L17,17 L19.5,17 C19.7761424,17 20,16.7761424 20,16.5 L20,7.5 C20,7.22385763 19.7761424,7 19.5,7 L17,7 Z M7.85449219,8.45410156 L10.7939453,8.45410156 C12.2441406,8.45410156 13.2353516,9.42578125 13.2353516,10.890625 C13.2353516,12.3408203 12.2050781,13.3125 10.7207031,13.3125 L9.32910156,13.3125 L9.32910156,15.5 L7.85449219,15.5 L7.85449219,8.45410156 Z M9.32910156,9.66503906 L9.32910156,12.1162109 L10.3984375,12.1162109 C11.2431641,12.1162109 11.7363281,11.6865234 11.7363281,10.8955078 C11.7363281,10.0947266 11.2529297,9.66503906 10.4033203,9.66503906 L9.32910156,9.66503906 Z"/>
</svg>
