<svg xmlns="http://www.w3.org/2000/svg" width="16" height="16" viewBox="0 0 16 16">
  <path fill="#2684FF" fill-rule="evenodd" d="M2,0 L14,0 C15.1045695,-2.02906125e-16 16,0.8954305 16,2 L16,14 C16,15.1045695 15.1045695,16 14,16 L2,16 C0.8954305,16 1.3527075e-16,15.1045695 0,14 L0,2 C-1.3527075e-16,0.8954305 0.8954305,2.02906125e-16 2,0 Z M4,3 C3.44771525,3 3,3.44771525 3,4 C3,4.55228475 3.44771525,5 4,5 L12,5 C12.5522847,5 13,4.55228475 13,4 C13,3.44771525 12.5522847,3 12,3 L4,3 Z M4,7 C3.44771525,7 3,7.44771525 3,8 C3,8.55228475 3.44771525,9 4,9 L12,9 C12.5522847,9 13,8.55228475 13,8 C13,7.44771525 12.5522847,7 12,7 L4,7 Z M4,11 C3.44771525,11 3,11.4477153 3,12 C3,12.5522847 3.44771525,13 4,13 L8,13 C8.55228475,13 9,12.5522847 9,12 C9,11.4477153 8.55228475,11 8,11 L4,11 Z"/>
</svg>
