<svg xmlns="http://www.w3.org/2000/svg" width="24" height="24" viewBox="0 0 24 24">
  <path fill="#2684FF" fill-rule="evenodd" d="M3,0 L21,0 C22.6568542,-3.04359188e-16 24,1.34314575 24,3 L24,21 C24,22.6568542 22.6568542,24 21,24 L3,24 C1.34314575,24 2.02906125e-16,22.6568542 0,21 L0,3 C-2.02906125e-16,1.34314575 1.34314575,3.04359188e-16 3,0 Z M4,18 C4,18.5561352 4.44565467,19 4.99539757,19 L13.0046024,19 C13.5443356,19 14,18.5522847 14,18 C14,17.4438648 13.5543453,17 13.0046024,17 L4.99539757,17 C4.4556644,17 4,17.4477153 4,18 Z M4,14 C4,14.5561352 4.4481055,15 5.00087166,15 L18.9991283,15 C19.5553691,15 20,14.5522847 20,14 C20,13.4438648 19.5518945,13 18.9991283,13 L5.00087166,13 C4.44463086,13 4,13.4477153 4,14 Z M4,10 C4,10.5561352 4.4481055,11 5.00087166,11 L18.9991283,11 C19.5553691,11 20,10.5522847 20,10 C20,9.44386482 19.5518945,9 18.9991283,9 L5.00087166,9 C4.44463086,9 4,9.44771525 4,10 Z M4,6 C4,6.55613518 4.4481055,7 5.00087166,7 L18.9991283,7 C19.5553691,7 20,6.55228475 20,6 C20,5.44386482 19.5518945,5 18.9991283,5 L5.00087166,5 C4.44463086,5 4,5.44771525 4,6 Z"/>
</svg>
