<svg xmlns="http://www.w3.org/2000/svg" width="48" height="64" viewBox="0 0 48 64">
  <g fill="none" fill-rule="evenodd">
    <path fill="#FFF" stroke="#091E42" stroke-opacity=".08" d="M4,0.5 L32.007097,0.5 C32.9580806,0.5 33.8681235,0.886970896 34.5278649,1.57188773 L46.5207679,14.0224343 C47.1490066,14.6746463 47.5,15.5449725 47.5,16.4505466 L47.5,60 C47.5,61.9329966 45.9329966,63.5 44,63.5 L4,63.5 C2.06700338,63.5 0.5,61.9329966 0.5,60 L0.5,4 C0.5,2.06700338 2.06700338,0.5 4,0.5 Z"/>
    <path fill="#2684FF" d="M14.6666667,39 C14.6666667,38.3556678 15.1982751,37.8333333 15.8279638,37.8333333 L25.1720362,37.8333333 C25.8134029,37.8333333 26.3333333,38.3511756 26.3333333,39 C26.3333333,39.6443322 25.8017249,40.1666667 25.1720362,40.1666667 L15.8279638,40.1666667 C15.1865971,40.1666667 14.6666667,39.6488244 14.6666667,39 Z M14.6666667,34.3333333 C14.6666667,33.6890011 15.1854027,33.1666667 15.8343503,33.1666667 L32.1656497,33.1666667 C32.8105436,33.1666667 33.3333333,33.684509 33.3333333,34.3333333 C33.3333333,34.9776655 32.8145973,35.5 32.1656497,35.5 L15.8343503,35.5 C15.1894564,35.5 14.6666667,34.9821577 14.6666667,34.3333333 Z M14.6666667,29.6666667 C14.6666667,29.0223345 15.1854027,28.5 15.8343503,28.5 L32.1656497,28.5 C32.8105436,28.5 33.3333333,29.0178423 33.3333333,29.6666667 C33.3333333,30.3109989 32.8145973,30.8333333 32.1656497,30.8333333 L15.8343503,30.8333333 C15.1894564,30.8333333 14.6666667,30.315491 14.6666667,29.6666667 Z M14.6666667,25 C14.6666667,24.3556678 15.1854027,23.8333333 15.8343503,23.8333333 L32.1656497,23.8333333 C32.8105436,23.8333333 33.3333333,24.3511756 33.3333333,25 C33.3333333,25.6443322 32.8145973,26.1666667 32.1656497,26.1666667 L15.8343503,26.1666667 C15.1894564,26.1666667 14.6666667,25.6488244 14.6666667,25 Z"/>
  </g>
</svg>
