<svg width="16" height="16" viewBox="0 0 16 16" fill="none" xmlns="http://www.w3.org/2000/svg">
<path d="M13 5.5C13 5.22386 12.7761 5 12.5 5H3.5C3.22386 5 3 5.22386 3 5.5V13C3 13.2761 3.22386 13.5 3.5 13.5H12.5C12.7761 13.5 13 13.2761 13 13V5.5ZM6.5 7.5V10.5H5V7.5H6.5ZM11 7.5V10.5H9.5V7.5H11ZM14.5 8.5H16V10H14.5V13C14.5 14.1046 13.6046 15 12.5 15H3.5C2.39543 15 1.5 14.1046 1.5 13V10H0V8.5H1.5V5.5C1.5 4.39543 2.39543 3.5 3.5 3.5H7.25V1.5H4V0H8C8.41421 0 8.75 0.335786 8.75 0.75V3.5H12.5C13.6046 3.5 14.5 4.39543 14.5 5.5V8.5Z" fill="#292A2E"/>
</svg>
