<svg width="16" height="16" viewBox="0 0 16 16" fill="none" xmlns="http://www.w3.org/2000/svg">
<path d="M7.25 7.06934V3.18945C7.24981 2.54638 6.71383 2 6.02148 2C5.32917 2.00004 4.79316 2.5464 4.79297 3.18945C4.79297 3.28075 4.80368 3.36909 4.82324 3.45312C4.88209 3.70562 4.80641 3.97104 4.62305 4.1543C4.43939 4.33757 4.17346 4.41294 3.9209 4.35352C3.39995 4.23106 2.87207 4.54464 2.73242 5.06543C2.59993 5.55989 2.86436 6.06819 3.33008 6.25C3.62725 6.36609 3.81844 6.65773 3.80664 6.97656C3.79483 7.29545 3.58237 7.57226 3.27734 7.66602C2.53694 7.89368 2.00003 8.58324 2 9.39648C2 10.3403 2.72281 11.116 3.64453 11.1992C4.03104 11.234 4.32706 11.5582 4.32715 11.9463V12.5391C4.32729 13.3459 4.98215 14 5.78906 14C6.59585 13.9999 7.24985 13.3459 7.25 12.5391V9.3623C6.65002 9.7097 5.93019 9.91404 5.20703 9.91406V8.41406C5.74868 8.41403 6.29348 8.22961 6.68848 7.94434C7.08872 7.6551 7.24985 7.33307 7.25 7.06934ZM8.75 4.5H10V3.76758C10.0001 3.23721 10.2109 2.72854 10.5859 2.35352L11.7197 1.21973L12.7803 2.28027L11.6465 3.41406C11.5528 3.50779 11.5 3.63504 11.5 3.76758V4.5H14.5V6H8.75V8H12V9.5H8.75V11.5H10.4551C10.7655 11.5 11.0719 11.5721 11.3496 11.7109L13.085 12.5791L12.415 13.9209L10.6787 13.0527C10.6093 13.018 10.5326 13 10.4551 13H8.70996C8.48819 14.416 7.26726 15.4999 5.78906 15.5C4.15926 15.5 2.83623 14.1833 2.82715 12.5557C1.47915 12.1365 0.5 10.8822 0.5 9.39648C0.500021 8.3646 0.971784 7.44372 1.71094 6.83691C1.25834 6.2433 1.07514 5.45473 1.2832 4.67773C1.54748 3.69144 2.36703 3.00246 3.31543 2.85645C3.48258 1.51785 4.64123 0.500033 6.02148 0.5C7.51423 0.5 8.74981 1.6902 8.75 3.18945V4.5Z" fill="#292A2E"/>
<path d="M14.25 4C14.9404 4 15.5 4.55964 15.5 5.25C15.5 5.94036 14.9404 6.5 14.25 6.5C13.5596 6.5 13 5.94036 13 5.25C13 4.55964 13.5596 4 14.25 4Z" fill="#292A2E"/>
<path d="M12.75 12C13.4404 12 14 12.5596 14 13.25C14 13.9404 13.4404 14.5 12.75 14.5C12.0596 14.5 11.5 13.9404 11.5 13.25C11.5 12.5596 12.0596 12 12.75 12Z" fill="#292A2E"/>
<path d="M11.75 7.5C12.4404 7.5 13 8.05964 13 8.75C13 9.44036 12.4404 10 11.75 10C11.0596 10 10.5 9.44036 10.5 8.75C10.5 8.05964 11.0596 7.5 11.75 7.5Z" fill="#292A2E"/>
<path d="M12.25 0.5C12.9404 0.5 13.5 1.05964 13.5 1.75C13.5 2.44036 12.9404 3 12.25 3C11.5596 3 11 2.44036 11 1.75C11 1.05964 11.5596 0.5 12.25 0.5Z" fill="#292A2E"/>
</svg>
