<svg width="16" height="16" viewBox="0 0 16 16" fill="none" xmlns="http://www.w3.org/2000/svg">
<path fill-rule="evenodd" clip-rule="evenodd" d="M4.76145 2.5H0V1H11V2.5H6.26145V15H4.76145V2.5ZM11.7954 9.49428C11.9034 9.19825 12.1849 9.00129 12.5 9.00129C12.8151 9.00129 13.0971 9.19825 13.2051 9.49428L13.8202 11.1807L15.5066 11.7958C15.8026 11.9038 15.9996 12.1853 15.9996 12.5004C15.9996 12.8155 15.8026 13.0975 15.5066 13.2055L13.8202 13.8206L13.2051 15.507C13.0971 15.803 12.8156 16 12.5005 16C12.1854 16 11.9034 15.803 11.7954 15.507L11.1803 13.8206L9.49387 13.2055C9.19784 13.0975 9.00088 12.816 9.00088 12.5009C9.00088 12.1858 9.19784 11.9038 9.49387 11.7958L11.1803 11.1807L11.7954 9.49428Z" fill="#292A2E"/>
</svg>
