<svg width="16" height="16" viewBox="0 0 16 16" fill="none" xmlns="http://www.w3.org/2000/svg">
<path d="M12.6173 9.011C12.8835 9.05286 13.1107 9.23559 13.2052 9.4944L13.8204 11.1809L15.5069 11.7962C15.8027 11.9041 15.9999 12.1854 16.0001 12.5003C15.9999 12.8152 15.8028 13.0974 15.5069 13.2053L13.8204 13.8206L13.2052 15.5071C13.0972 15.8029 12.8159 16.0001 12.5011 16.0003C12.1861 16.0002 11.904 15.8029 11.796 15.5071L11.1798 13.8206L9.49422 13.2053C9.19828 13.0974 9.00119 12.8162 9.00105 12.5012C9.00123 12.1863 9.19832 11.9041 9.49422 11.7962L11.1798 11.1809L11.796 9.4944L11.8438 9.38795C11.9744 9.15212 12.2245 9.00129 12.5001 9.00123L12.6173 9.011Z" fill="#292A2E"/>
<path fill-rule="evenodd" clip-rule="evenodd" d="M9.33699 0.603772C10.118 -0.177158 11.3841 -0.17718 12.1651 0.603772L13.3975 1.83619C14.1784 2.61724 14.1785 3.88333 13.3975 4.66432L5.29793 12.763C5.01879 13.042 4.66346 13.2324 4.27644 13.3098L0.897539 13.9856C0.651716 14.0348 0.397112 13.9577 0.219804 13.7805C0.0425403 13.6033 -0.0343712 13.3486 0.0147262 13.1028L0.690507 9.72389C0.767987 9.33693 0.958356 8.98148 1.23738 8.7024L9.33699 0.603772ZM2.29793 9.76295C2.2282 9.83273 2.18056 9.92208 2.16121 10.0188L1.70516 12.2942L3.9825 11.8391C4.07905 11.8198 4.16769 11.772 4.23738 11.7024L10.3145 5.62428L8.37508 3.68483L2.29793 9.76295ZM11.1046 1.66432C10.9093 1.4691 10.5928 1.46916 10.3975 1.66432L9.4366 2.62526L11.3761 4.56471L12.337 3.60377C12.5321 3.40857 12.532 3.092 12.337 2.89674L11.1046 1.66432Z" fill="#292A2E"/>
</svg>
