<svg width="16" height="16" viewBox="0 0 16 16" fill="none" xmlns="http://www.w3.org/2000/svg">
<path fill-rule="evenodd" clip-rule="evenodd" d="M9.33674 0.603408C10.1178 -0.177557 11.384 -0.177555 12.165 0.603409L13.3975 1.83572C14.1786 2.61678 14.1786 3.88321 13.3975 4.66427L5.29826 12.7628C5.01906 13.0419 4.66347 13.2322 4.27631 13.3096L0.897075 13.9854C0.651179 14.0346 0.396976 13.9576 0.219662 13.7803C0.042347 13.603 -0.0346155 13.3488 0.0145677 13.1029L0.6904 9.72403C0.767847 9.33683 0.958178 8.98123 1.2374 8.70202L9.33674 0.603408ZM11.1044 1.66412C10.9092 1.46887 10.5926 1.46887 10.3974 1.66412L9.43639 2.625L11.3759 4.56438L12.3368 3.60357C12.5321 3.4083 12.5321 3.09169 12.3368 2.89643L11.1044 1.66412ZM10.3152 5.625L8.37568 3.68561L2.29802 9.76273C2.22821 9.83253 2.18063 9.92143 2.16127 10.0182L1.70608 12.2939L3.98216 11.8388C4.07895 11.8194 4.16784 11.7718 4.23764 11.7021L10.3152 5.625ZM11.7956 9.49426C11.9036 9.19824 12.1851 9.00128 12.5002 9.00128C12.8153 9.00128 13.0972 9.19824 13.2052 9.49426L13.8204 11.1807L15.507 11.7958C15.803 11.9038 16 12.1853 16 12.5004C16 12.8155 15.803 13.0975 15.507 13.2055L13.8204 13.8206L13.2052 15.507C13.0972 15.803 12.8157 16 12.5006 16C12.1855 16 11.9036 15.803 11.7956 15.507L11.1804 13.8206L9.49381 13.2055C9.19777 13.0975 9.0008 12.816 9.0008 12.5009C9.0008 12.1858 9.19777 11.9038 9.49381 11.7958L11.1804 11.1807L11.7956 9.49426Z" fill="#292A2E"/>
</svg>
