<svg width="16" height="16" viewBox="0 0 16 16" fill="none" xmlns="http://www.w3.org/2000/svg">
<path fill-rule="evenodd" clip-rule="evenodd" d="M1.5 2.5V12.5H7.24951V14H1.375C0.61561 14 1.90735e-06 13.3844 1.90735e-06 12.625V2.375C1.90735e-06 1.61751 0.612508 1 1.37379 1L4.8749 1.00001C6.15756 1.00001 7.29466 1.6232 7.99994 2.58333C8.70528 1.62319 9.84247 1.00001 11.1251 1.00001L14.6253 1C15.3874 1 16 1.61967 16 2.37638V8.25H14.5V2.50082L11.1251 2.50001C9.81338 2.50001 8.74993 3.56337 8.7499 4.87496V10H7.2499V4.87498C7.24987 3.56332 6.18656 2.50001 4.8749 2.50001L1.5 2.5ZM13.2495 6H10.4995V4.5H13.2495V6ZM2.75049 4.50001H5.50049V6.00001H2.75049V4.50001ZM2.75049 7.00001H5.50049V8.50001H2.75049V7.00001ZM11.7945 9.49428C11.9025 9.19825 12.184 9.00129 12.4991 9.00129C12.8142 9.00129 13.0962 9.19825 13.2042 9.49428L13.8193 11.1807L15.5057 11.7958C15.8017 11.9038 15.9987 12.1853 15.9987 12.5004C15.9987 12.8155 15.8017 13.0975 15.5057 13.2055L13.8193 13.8206L13.2042 15.507C13.0962 15.803 12.8147 16 12.4996 16C12.1845 16 11.9025 15.803 11.7945 15.507L11.1794 13.8206L9.49299 13.2055C9.19696 13.0975 9 12.816 9 12.5009C9 12.1858 9.19696 11.9038 9.49299 11.7958L11.1794 11.1807L11.7945 9.49428Z" fill="#44546F"/>
</svg>
