<svg width="16" height="16" viewBox="0 0 16 16" fill="none" xmlns="http://www.w3.org/2000/svg">
<path fill-rule="evenodd" clip-rule="evenodd" d="M8 0C8.96456 0 9.8836 0.194976 10.7197 0.547852L10.4795 0.635742C9.96107 0.824842 9.5447 1.19191 9.28711 1.65234C8.87416 1.55331 8.44331 1.5 8 1.5C4.96243 1.5 2.5 3.96243 2.5 7V7.70898C2.80632 7.57509 3.14431 7.5 3.5 7.5C4.88071 7.5 6 8.61929 6 10V13.083C6 14.1416 5.14155 15 4.08301 15C2.40815 14.9998 1.04612 13.6642 1.00195 12H1V7C1 3.13401 4.13401 8.0532e-08 8 0ZM3.5 9C2.94772 9 2.5 9.44772 2.5 10V11.917C2.50018 12.7912 3.20882 13.4998 4.08301 13.5C4.31313 13.5 4.5 13.3131 4.5 13.083V10C4.5 9.44772 4.05228 9 3.5 9Z" fill="#292A2E"/>
<path fill-rule="evenodd" clip-rule="evenodd" d="M14.9551 6.21582C14.9838 6.47331 15 6.73485 15 7V12H14.998C14.9539 13.6642 13.5918 14.9998 11.917 15C10.8584 15 10 14.1416 10 13.083V10C10 8.61929 11.1193 7.5 12.5 7.5C12.8557 7.5 13.1937 7.57509 13.5 7.70898V7C13.5 6.99479 13.499 6.98958 13.499 6.98438C14.0707 6.92085 14.5885 6.6419 14.9551 6.21582ZM12.5 9C11.9477 9 11.5 9.44772 11.5 10V13.083C11.5 13.3131 11.6869 13.5 11.917 13.5C12.7912 13.4998 13.4998 12.7912 13.5 11.917V10C13.5 9.44772 13.0523 9 12.5 9Z" fill="#292A2E"/>
<path d="M13.3652 0.00878906C13.5941 0.0442822 13.7941 0.184147 13.9062 0.386719L13.9551 0.493164L14.29 1.41211C14.3406 1.55042 14.4496 1.65938 14.5879 1.70996L15.5068 2.04492C15.8031 2.153 16 2.43497 16 2.75C16 3.06521 15.803 3.34706 15.5068 3.45508L14.5879 3.79004C14.4496 3.84062 14.3406 3.94958 14.29 4.08789L13.9551 5.00684C13.8471 5.30286 13.5653 5.5 13.25 5.5C12.9348 5.5 12.6529 5.30296 12.5449 5.00684L12.21 4.08789C12.1594 3.94958 12.0504 3.84062 11.9121 3.79004L10.9932 3.45508C10.7339 3.3605 10.5505 3.13271 10.5088 2.86621L10.5 2.75L10.5088 2.63379C10.5505 2.36717 10.734 2.13946 10.9932 2.04492L11.9121 1.70996C12.0504 1.65938 12.1594 1.55042 12.21 1.41211L12.5449 0.493164C12.6528 0.19747 12.9341 0.000409271 13.249 0L13.3652 0.00878906Z" fill="#292A2E"/>
</svg>
