<svg width="16" height="16" viewBox="0 0 16 16" fill="none" xmlns="http://www.w3.org/2000/svg">
<path d="M1 10V3.5H0V2H8V3.5H2.5V10C2.5 10.2761 2.72386 10.5 3 10.5H13C13.2761 10.5 13.5 10.2761 13.5 10V7.5H15V10C15 11.1046 14.1046 12 13 12H11.624L13.4463 14.1387L12.3037 15.1113L9.65332 12H8.75V15H7.25V12H6.34668L3.69629 15.1113L2.55371 14.1387L4.37598 12H3C1.89543 12 1 11.1046 1 10Z" fill="#292A2E"/>
<path d="M13.1152 0.00878906C13.3441 0.0442812 13.5441 0.18415 13.6562 0.386719L13.7051 0.493164L14.1064 1.59473C14.157 1.73334 14.2667 1.84299 14.4053 1.89355L15.5068 2.29492C15.8031 2.403 16 2.68496 16 3C16 3.31522 15.803 3.59706 15.5068 3.70508L14.4053 4.10645C14.2667 4.15701 14.157 4.26666 14.1064 4.40527L13.7051 5.50684C13.5971 5.80287 13.3153 6 13 6C12.6848 6 12.4029 5.80297 12.2949 5.50684L11.8936 4.40527C11.843 4.26666 11.7333 4.15701 11.5947 4.10645L10.4932 3.70508C10.2339 3.61049 10.0505 3.38272 10.0088 3.11621L10 3L10.0088 2.88379C10.0505 2.61716 10.234 2.38946 10.4932 2.29492L11.5947 1.89355C11.7333 1.84299 11.843 1.73334 11.8936 1.59473L12.2949 0.493164L12.3438 0.386719C12.4742 0.151135 12.7236 0.000357823 12.999 0L13.1152 0.00878906Z" fill="#292A2E"/>
</svg>
