<svg width="16" height="16" viewBox="0 0 16 16" fill="none" xmlns="http://www.w3.org/2000/svg">
<path fill-rule="evenodd" clip-rule="evenodd" d="M3.1149 1.66371C4.55078 0.554071 6.27647 0 8 0V1.5C6.59722 1.5 5.1966 1.9507 4.03212 2.8506L3.1149 1.66371ZM1.5 8.00005C1.50029 9.66432 2.13475 11.326 3.40381 12.5951C4.67316 13.8644 6.33534 14.4989 8 14.4989V15.9989C5.95378 15.9989 3.9051 15.2177 2.34315 13.6557C1.56896 12.8816 0.986581 11.9878 0.596068 11.034C0.198766 10.0634 8.34465e-06 9.03151 0 8.00006M11.7952 9.49428C11.9032 9.19825 12.1847 9.00129 12.4998 9.00129C12.8149 9.00129 13.0968 9.19825 13.2048 9.49428L13.82 11.1807L15.5064 11.7958C15.8024 11.9038 15.9994 12.1853 15.9994 12.5004C15.9994 12.8155 15.8024 13.0975 15.5064 13.2055L13.82 13.8206L13.2048 15.507C13.0968 15.803 12.8153 16 12.5002 16C12.1851 16 11.9032 15.803 11.7952 15.507L11.18 13.8206L9.49364 13.2055C9.19761 13.0975 9.00064 12.816 9.00064 12.5009C9.00064 12.1858 9.19761 11.9038 9.49364 11.7958L11.18 11.1807L11.7952 9.49428Z" fill="#44546F"/>
<path d="M2.91928 3.9448L1.74821 3.00746C0.582369 4.46402 1.42894e-05 6.23258 0 7.99883V8.00006C8.34465e-06 9.03151 0.198766 10.0634 0.596068 11.034C0.986581 11.9878 1.56896 12.8816 2.34315 13.6557C3.9051 15.2177 5.95378 15.9989 8 15.9989V14.4989C6.33534 14.4989 4.67316 13.8644 3.40381 12.5951C2.13475 11.326 1.50029 9.66432 1.5 8.00005V7.99884C1.50025 6.56128 1.97382 5.12602 2.91928 3.9448Z" fill="#44546F"/>
<path d="M13.3732 2.15358C13.6806 2.43124 13.7046 2.9055 13.427 3.21287C13.1493 3.52025 12.6751 3.54434 12.3677 3.26668L12.352 3.25255C12.0437 2.97588 12.0181 2.5017 12.2948 2.19344C12.5714 1.88517 13.0456 1.85955 13.3539 2.13622L13.3732 2.15358Z" fill="#44546F"/>
<path d="M10.6941 0.551585C11.0843 0.690646 11.2879 1.11967 11.1488 1.50985C11.0097 1.90002 10.5807 2.10359 10.1905 1.96453L10.1707 1.95749C9.78008 1.81971 9.57511 1.39134 9.7129 1.00072C9.85069 0.610095 10.279 0.405129 10.6697 0.542916L10.6941 0.551585Z" fill="#44546F"/>
<path d="M15.2805 4.81499C15.1414 4.42482 14.7124 4.22125 14.3222 4.36031C13.932 4.49937 13.7285 4.9284 13.8675 5.31858L13.8746 5.33841C14.0123 5.72904 14.4407 5.934 14.8313 5.79622C15.222 5.65843 15.4269 5.23007 15.2891 4.83944L15.2805 4.81499Z" fill="#44546F"/>
<path d="M16.0001 8.06343C16.0211 7.64974 15.7028 7.29735 15.2891 7.27634C14.8755 7.25532 14.5231 7.57363 14.502 7.98731L14.5015 7.99793L14.5009 8.00855C14.4786 8.42216 14.7958 8.77557 15.2094 8.79791C15.623 8.82025 15.9764 8.50306 15.9987 8.08945L15.9994 8.07644L16.0001 8.06343Z" fill="#44546F"/>
</svg>
