<svg width="16" height="16" viewBox="0 0 16 16" fill="none" xmlns="http://www.w3.org/2000/svg">
<path fill-rule="evenodd" clip-rule="evenodd" d="M12.4999 0.000854883C12.8154 0.00053421 13.0974 0.197643 13.2055 0.494065L13.7409 1.96161C13.7914 2.10023 13.9006 2.20943 14.0392 2.26L15.5068 2.79531C15.8028 2.90328 16 3.18481 16 3.50021C16 3.81546 15.8029 4.09709 15.5068 4.20512L14.0392 4.74042C13.9006 4.79099 13.7914 4.90019 13.7409 5.03881L13.2055 6.50636C13.0976 6.80241 12.816 6.99957 12.5006 6.99957C12.1854 6.99957 11.9038 6.80252 11.7957 6.50636L11.2604 5.03881C11.2099 4.90019 11.1007 4.79099 10.962 4.74042L9.4945 4.20512C9.19849 4.09714 9.00129 3.81561 9.00129 3.50021C9.00129 3.18496 9.19834 2.90333 9.4945 2.79531L10.962 2.26C11.1007 2.20943 11.2099 2.10023 11.2604 1.96161L11.7957 0.494065C11.9036 0.198268 12.1848 0.00117508 12.4999 0.000854883ZM5.40013 6.19333C6.16729 5.4272 7.4052 5.41185 8.19112 6.15872L10.3221 8.18377C11.1355 8.95683 11.1539 10.2478 10.3627 11.0436L7.19863 14.2263L7.18484 14.2398L5.92219 15.4461C5.55008 15.8016 5.05525 16 4.54061 16H3.63032C3.15177 16 2.68908 15.8284 2.32624 15.5164L2.20164 15.4092C2.1874 15.397 2.17363 15.3842 2.16034 15.3709L0.603553 13.8141C-0.177496 13.0331 -0.177494 11.7667 0.603554 10.9857L2.27924 9.31L5.40013 6.19333ZM7.15782 7.24605C6.96134 7.05933 6.65186 7.06317 6.46007 7.2547L3.87059 9.84069L6.66519 12.6353L9.29892 9.98606C9.49671 9.7871 9.49213 9.46437 9.28876 9.2711L7.15782 7.24605ZM5.59385 13.6853L2.80957 10.901L1.66421 12.0463C1.46895 12.2416 1.46895 12.5582 1.66421 12.7535L3.20107 14.2903L3.3043 14.3791C3.39501 14.4571 3.51068 14.5 3.63032 14.5H4.54061C4.66927 14.5 4.79298 14.4504 4.88601 14.3615L5.59385 13.6853ZM16 16H9V14.5H16V16Z" fill="#44546F"/>
</svg>
