<svg width="16" height="16" viewBox="0 0 16 16" fill="none" xmlns="http://www.w3.org/2000/svg">
<path d="M15.7803 11.2197C15.9209 11.3604 16 11.5511 16 11.75C16 11.9489 15.9209 12.1396 15.7803 12.2803L13.2803 14.7803L12.2197 13.7197L13.4395 12.5H10.5947C9.99256 12.4999 9.4227 12.2281 9.04297 11.7607L7.91895 10.3779L8.88574 9.18945L10.207 10.8154C10.3019 10.9321 10.4443 10.9999 10.5947 11H13.4395L12.2197 9.78027L13.2803 8.71973L15.7803 11.2197Z" fill="#292A2E"/>
<path d="M15.7803 3.71973C16.0732 4.01262 16.0732 4.48738 15.7803 4.78027L13.2803 7.28027L12.2197 6.21973L13.4395 5H10.5947C10.4443 5.00007 10.3019 5.06786 10.207 5.18457L4.45703 12.2607C4.0773 12.7281 3.50744 12.9999 2.90527 13H0V11.5H2.90527C3.05569 11.4999 3.19807 11.4321 3.29297 11.3154L9.04297 4.23926C9.4227 3.7719 9.99256 3.50007 10.5947 3.5H13.4395L12.2197 2.28027L13.2803 1.21973L15.7803 3.71973Z" fill="#292A2E"/>
<path d="M6 4.25C6 4.56522 5.80297 4.84706 5.50684 4.95508L4.40527 5.35645C4.26666 5.40701 4.15701 5.51666 4.10645 5.65527L3.70508 6.75684C3.5971 7.05287 3.31533 7.25 3 7.25C2.68478 7.25 2.40294 7.05297 2.29492 6.75684L1.89355 5.65527C1.84299 5.51666 1.73334 5.40701 1.59473 5.35645L0.493164 4.95508C0.233858 4.86049 0.0504828 4.63272 0.00878906 4.36621L0 4.25L0.00878906 4.13379C0.0504963 3.86716 0.233986 3.63946 0.493164 3.54492L1.59473 3.14355C1.73334 3.09299 1.84299 2.98334 1.89355 2.84473L2.29492 1.74316L2.34375 1.63672C2.47417 1.40113 2.7236 1.25036 2.99902 1.25L3.11523 1.25879C3.34406 1.29428 3.54411 1.43415 3.65625 1.63672L3.70508 1.74316L4.10645 2.84473C4.15701 2.98334 4.26666 3.09299 4.40527 3.14355L5.50684 3.54492C5.80314 3.653 6 3.93496 6 4.25Z" fill="#292A2E"/>
</svg>
