<svg width="16" height="16" viewBox="0 0 16 16" fill="none" xmlns="http://www.w3.org/2000/svg">
<path d="M14.2246 0.442383L12.2197 8H13.8037C15.1488 8 16.1105 9.30108 15.7158 10.5869L14.4883 14.5869C14.2305 15.4267 13.4547 16 12.5762 16H4.75C4.39049 16 4.08168 15.7446 4.01367 15.3916C3.9458 15.0387 4.13797 14.6872 4.47168 14.5537L4.46973 14.5547H4.46777L4.46191 14.5576C4.46066 14.5581 4.45936 14.5584 4.45898 14.5586C4.4601 14.5581 4.46518 14.556 4.47363 14.5518C4.49205 14.5425 4.52678 14.5243 4.57324 14.4951C4.6663 14.4366 4.80701 14.3342 4.96484 14.1738C5.27555 13.8581 5.67421 13.2941 5.8916 12.334L5.91797 12.2422L6.99023 9.3125C7.27879 8.52419 8.02968 8 8.86914 8H10.668L12.7754 0.0576172L14.2246 0.442383ZM8.86914 9.5C8.65929 9.5 8.47156 9.63107 8.39941 9.82812L7.3418 12.7168C7.16822 13.4574 6.9017 14.0421 6.6084 14.5H12.5762C12.7958 14.5 12.9893 14.3564 13.0537 14.1465L14.2822 10.1465C14.3807 9.82512 14.1399 9.5 13.8037 9.5H8.86914Z" fill="#44546F"/>
<path d="M4.61652 1.00964C4.84519 1.04531 5.0455 1.18505 5.15753 1.38757L5.20538 1.49402L5.74054 2.96179L5.78937 3.05945C5.84791 3.15105 5.93537 3.22171 6.03937 3.25964L7.50714 3.79578L7.61261 3.84363C7.84873 3.97407 8.00018 4.22392 8.00031 4.49988C8.00031 4.7759 7.84899 5.02659 7.61261 5.1571L7.50714 5.20496L6.03937 5.74011C5.90075 5.79068 5.7911 5.90032 5.74054 6.03894L5.20538 7.50671C5.09729 7.80256 4.81553 7.99988 4.50031 7.99988C4.22447 7.99976 3.97454 7.8484 3.84406 7.61218L3.7962 7.50671L3.26007 6.03894C3.22214 5.93495 3.15148 5.84748 3.05988 5.78894L2.96222 5.74011L1.49445 5.20496C1.23561 5.1105 1.05197 4.88352 1.01007 4.61707L1.00128 4.49988L1.01007 4.38367C1.05187 4.11722 1.23545 3.89033 1.49445 3.79578L2.96222 3.25964L3.05988 3.21179C3.15147 3.1533 3.22209 3.06572 3.26007 2.96179L3.7962 1.49402L3.84406 1.38757C3.97451 1.15186 4.22473 1.00113 4.50031 1.00085L4.61652 1.00964Z" fill="#44546F"/>
</svg>
