<svg width="16" height="16" viewBox="0 0 16 16" fill="none" xmlns="http://www.w3.org/2000/svg">
<path d="M8.75 3.18945C8.75019 2.54638 9.28617 2 9.97852 2C10.6708 2.00004 11.2068 2.5464 11.207 3.18945C11.207 3.28075 11.1963 3.36909 11.1768 3.45312C11.1179 3.70562 11.1936 3.97104 11.377 4.1543C11.5606 4.33757 11.8265 4.41294 12.0791 4.35352C12.6 4.23106 13.1279 4.54464 13.2676 5.06543C13.4001 5.55989 13.1356 6.06819 12.6699 6.25C12.3728 6.36609 12.1816 6.65773 12.1934 6.97656C12.2052 7.29545 12.4176 7.57226 12.7227 7.66602C13.4631 7.89368 14 8.58324 14 9.39648C14 10.3403 13.2772 11.116 12.3555 11.1992C11.969 11.234 11.6729 11.5582 11.6729 11.9463V12.5391C11.6727 13.3459 11.0179 14 10.2109 14C9.40415 13.9999 8.75015 13.3459 8.75 12.5391V9.3623C9.34998 9.7097 10.0698 9.91404 10.793 9.91406V8.41406C10.2513 8.41403 9.70652 8.22961 9.31152 7.94434C8.91128 7.6551 8.75015 7.33307 8.75 7.06934V3.18945ZM7.25 12.5391C7.25015 14.1743 8.57572 15.4999 10.2109 15.5C11.8407 15.5 13.1638 14.1833 13.1729 12.5557C14.5208 12.1365 15.5 10.8822 15.5 9.39648C15.5 8.3646 15.0282 7.44372 14.2891 6.83691C14.7417 6.2433 14.9249 5.45473 14.7168 4.67773C14.4525 3.69144 13.633 3.00246 12.6846 2.85645C12.5174 1.51785 11.3588 0.500033 9.97852 0.5C8.48577 0.5 7.25019 1.6902 7.25 3.18945V12.5391Z" fill="#292A2E"/>
<path d="M7.25 3.18945C7.24981 2.54638 6.71383 2 6.02148 2C5.32917 2.00004 4.79316 2.5464 4.79297 3.18945C4.79297 3.28075 4.80368 3.36909 4.82324 3.45312C4.88209 3.70562 4.80641 3.97104 4.62305 4.1543C4.43939 4.33757 4.17346 4.41294 3.9209 4.35352C3.39995 4.23106 2.87207 4.54464 2.73242 5.06543C2.59993 5.55989 2.86436 6.06819 3.33008 6.25C3.62725 6.36609 3.81844 6.65773 3.80664 6.97656C3.79483 7.29545 3.58237 7.57226 3.27734 7.66602C2.53694 7.89368 2.00003 8.58324 2 9.39648C2 10.3403 2.72281 11.116 3.64453 11.1992C4.03104 11.234 4.32706 11.5582 4.32715 11.9463V12.5391C4.32729 13.3459 4.98215 14 5.78906 14C6.59585 13.9999 7.24985 13.3459 7.25 12.5391V9.3623C6.65002 9.7097 5.93019 9.91404 5.20703 9.91406V8.41406C5.74868 8.41403 6.29348 8.22961 6.68848 7.94434C7.08872 7.6551 7.24985 7.33307 7.25 7.06934V3.18945ZM8.75 12.5391C8.74985 14.1743 7.42428 15.4999 5.78906 15.5C4.15926 15.5 2.83623 14.1833 2.82715 12.5557C1.47915 12.1365 0.5 10.8822 0.5 9.39648C0.500021 8.3646 0.971784 7.44372 1.71094 6.83691C1.25834 6.2433 1.07514 5.45473 1.2832 4.67773C1.54748 3.69144 2.36703 3.00246 3.31543 2.85645C3.48258 1.51785 4.64123 0.500033 6.02148 0.5C7.51423 0.5 8.74981 1.6902 8.75 3.18945V12.5391Z" fill="#292A2E"/>
</svg>
