<svg width="16" height="16" viewBox="0 0 16 16" fill="none" xmlns="http://www.w3.org/2000/svg">
<path d="M6 2.6123C3.9961 3.0671 2.5 4.85847 2.5 7C2.5 9.48528 4.51472 11.5 7 11.5C8.24285 11.5 9.36648 10.9968 10.1816 10.1816C10.7712 9.59206 11.1959 8.84071 11.3867 8H12.917C12.7489 8.99772 12.3336 9.9117 11.7383 10.6777L15.0303 13.9697L13.9697 15.0303L10.6777 11.7383C9.66205 12.5276 8.38615 13 7 13C3.68629 13 1 10.3137 1 7C1 4.02706 3.16237 1.56013 6 1.08398V2.6123Z" fill="#292A2E"/>
<path d="M14 3.25C14 3.56523 13.803 3.84705 13.5068 3.95508L12.2217 4.42383C12.0833 4.4744 11.9744 4.58332 11.9238 4.72168L11.4551 6.00684C11.3471 6.30288 11.0653 6.5 10.75 6.5C10.4348 6.5 10.1529 6.30298 10.0449 6.00684L9.57617 4.72168C9.5256 4.58332 9.41668 4.4744 9.27832 4.42383L7.99316 3.95508C7.73385 3.86049 7.55048 3.63274 7.50879 3.36621L7.5 3.25L7.50879 3.13379C7.5505 2.86715 7.73397 2.63947 7.99316 2.54492L9.27832 2.07617C9.41668 2.0256 9.5256 1.91668 9.57617 1.77832L10.0449 0.493164L10.0938 0.386719C10.2242 0.151139 10.4736 0.000357887 10.749 0L10.8652 0.00878906C11.0941 0.0442801 11.2941 0.184153 11.4062 0.386719L11.4551 0.493164L11.9238 1.77832C11.9744 1.91668 12.0833 2.0256 12.2217 2.07617L13.5068 2.54492C13.8031 2.65301 14 2.93494 14 3.25Z" fill="#292A2E"/>
</svg>
