<svg width="16" height="16" viewBox="0 0 16 16" fill="none" xmlns="http://www.w3.org/2000/svg">
<path d="M7 1.75C7 2.16421 6.66421 2.5 6.25 2.5C5.83579 2.5 5.5 2.16421 5.5 1.75C5.5 1.33579 5.83579 1 6.25 1C6.66421 1 7 1.33579 7 1.75Z" fill="#292A2E"/>
<path d="M3.5 1.75C3.5 2.16421 3.16421 2.5 2.75 2.5C2.33579 2.5 2 2.16421 2 1.75C2 1.33579 2.33579 1 2.75 1C3.16421 1 3.5 1.33579 3.5 1.75Z" fill="#292A2E"/>
<path d="M10.5 1.75C10.5 2.16421 10.1642 2.5 9.75 2.5C9.33579 2.5 9 2.16421 9 1.75C9 1.33579 9.33579 1 9.75 1C10.1642 1 10.5 1.33579 10.5 1.75Z" fill="#292A2E"/>
<path d="M14 1.75C14 2.16421 13.6642 2.5 13.25 2.5C12.8358 2.5 12.5 2.16421 12.5 1.75C12.5 1.33579 12.8358 1 13.25 1C13.6642 1 14 1.33579 14 1.75Z" fill="#292A2E"/>
<path d="M7 14.25C7 14.6642 6.66421 15 6.25 15C5.83579 15 5.5 14.6642 5.5 14.25C5.5 13.8358 5.83579 13.5 6.25 13.5C6.66421 13.5 7 13.8358 7 14.25Z" fill="#292A2E"/>
<path d="M3.5 14.25C3.5 14.6642 3.16421 15 2.75 15C2.33579 15 2 14.6642 2 14.25C2 13.8358 2.33579 13.5 2.75 13.5C3.16421 13.5 3.5 13.8358 3.5 14.25Z" fill="#292A2E"/>
<path d="M10.5 14.25C10.5 14.6642 10.1642 15 9.75 15C9.33579 15 9 14.6642 9 14.25C9 13.8358 9.33579 13.5 9.75 13.5C10.1642 13.5 10.5 13.8358 10.5 14.25Z" fill="#292A2E"/>
<path d="M14 14.25C14 14.6642 13.6642 15 13.25 15C12.8358 15 12.5 14.6642 12.5 14.25C12.5 13.8358 12.8358 13.5 13.25 13.5C13.6642 13.5 14 13.8358 14 14.25Z" fill="#292A2E"/>
<path fill-rule="evenodd" clip-rule="evenodd" d="M0 7.25H16V8.75H0V7.25Z" fill="#292A2E"/>
</svg>
