<svg width="16" height="16" viewBox="0 0 16 16" fill="none" xmlns="http://www.w3.org/2000/svg">
<path fill-rule="evenodd" clip-rule="evenodd" d="M14.5 0V16H16V0H14.5Z" fill="#292A2E"/>
<path fill-rule="evenodd" clip-rule="evenodd" d="M13 4.375C13 3.61561 12.3844 3 11.625 3H2.375C1.61561 3 1 3.61561 1 4.375V5.875C1 6.63439 1.61561 7.25 2.375 7.25H11.625C12.3844 7.25 13 6.63439 13 5.875V4.375ZM11.5 4.5V5.75H2.5V4.5H11.5Z" fill="#292A2E"/>
<path fill-rule="evenodd" clip-rule="evenodd" d="M13 10.125C13 9.36561 12.3844 8.75 11.625 8.75H7.375C6.61561 8.75 6 9.36561 6 10.125V11.625C6 12.3844 6.61561 13 7.375 13H11.625C12.3844 13 13 12.3844 13 11.625V10.125ZM11.5 10.25V11.5H7.5V10.25H11.5Z" fill="#292A2E"/>
</svg>
