<svg width="16" height="16" viewBox="0 0 16 16" fill="none" xmlns="http://www.w3.org/2000/svg">
<path fill-rule="evenodd" clip-rule="evenodd" d="M8.75 0V3.75H7.25V0H8.75ZM8.75 6.75V9.25H7.25V6.75H8.75ZM8.75 12.25V16H7.25V12.25H8.75Z" fill="#44546F"/>
<path fill-rule="evenodd" clip-rule="evenodd" d="M1 4.375C1 3.61561 1.61561 3 2.375 3H13.625C14.3844 3 15 3.61561 15 4.375V5.875C15 6.63439 14.3844 7.25 13.625 7.25H2.375C1.61561 7.25 1 6.63439 1 5.875V4.375ZM2.5 4.5V5.75H13.5V4.5H2.5Z" fill="#44546F"/>
<path fill-rule="evenodd" clip-rule="evenodd" d="M3 10.125C3 9.36561 3.61561 8.75 4.375 8.75H11.625C12.3844 8.75 13 9.36561 13 10.125V11.625C13 12.3844 12.3844 13 11.625 13H4.375C3.61561 13 3 12.3844 3 11.625V10.125ZM4.5 10.25V11.5H11.5V10.25H4.5Z" fill="#44546F"/>
</svg>
