<svg width="16" height="16" viewBox="0 0 16 16" fill="none" xmlns="http://www.w3.org/2000/svg">
<path fill-rule="evenodd" clip-rule="evenodd" d="M0 1.5L16 1.5V6.99382e-07L6.55671e-08 0L0 1.5Z" fill="#292A2E"/>
<path fill-rule="evenodd" clip-rule="evenodd" d="M4.375 3C3.61561 3 3 3.61561 3 4.375L3 13.625C3 14.3844 3.61561 15 4.375 15H5.875C6.63439 15 7.25 14.3844 7.25 13.625L7.25 4.375C7.25 3.61561 6.63439 3 5.875 3L4.375 3ZM4.5 4.5H5.75L5.75 13.5H4.5L4.5 4.5Z" fill="#292A2E"/>
<path fill-rule="evenodd" clip-rule="evenodd" d="M10.125 3C9.36561 3 8.75 3.61561 8.75 4.375V8.625C8.75 9.38439 9.36561 10 10.125 10H11.625C12.3844 10 13 9.38439 13 8.625V4.375C13 3.61561 12.3844 3 11.625 3L10.125 3ZM10.25 4.5H11.5V8.5H10.25V4.5Z" fill="#292A2E"/>
</svg>
