<svg width="16" height="16" viewBox="0 0 16 16" fill="none" xmlns="http://www.w3.org/2000/svg">
<path fill-rule="evenodd" clip-rule="evenodd" d="M0 1H16V2.5H0V1Z" fill="#292A2E"/>
<path d="M7 8C7 8.41421 6.66421 8.75 6.25 8.75C5.83579 8.75 5.5 8.41421 5.5 8C5.5 7.58579 5.83579 7.25 6.25 7.25C6.66421 7.25 7 7.58579 7 8Z" fill="#292A2E"/>
<path d="M3.5 8C3.5 8.41421 3.16421 8.75 2.75 8.75C2.33579 8.75 2 8.41421 2 8C2 7.58579 2.33579 7.25 2.75 7.25C3.16421 7.25 3.5 7.58579 3.5 8Z" fill="#292A2E"/>
<path d="M10.5 8C10.5 8.41421 10.1642 8.75 9.75 8.75C9.33579 8.75 9 8.41421 9 8C9 7.58579 9.33579 7.25 9.75 7.25C10.1642 7.25 10.5 7.58579 10.5 8Z" fill="#292A2E"/>
<path d="M14 8C14 8.41421 13.6642 8.75 13.25 8.75C12.8358 8.75 12.5 8.41421 12.5 8C12.5 7.58579 12.8358 7.25 13.25 7.25C13.6642 7.25 14 7.58579 14 8Z" fill="#292A2E"/>
<path d="M7 14.25C7 14.6642 6.66421 15 6.25 15C5.83579 15 5.5 14.6642 5.5 14.25C5.5 13.8358 5.83579 13.5 6.25 13.5C6.66421 13.5 7 13.8358 7 14.25Z" fill="#292A2E"/>
<path d="M3.5 14.25C3.5 14.6642 3.16421 15 2.75 15C2.33579 15 2 14.6642 2 14.25C2 13.8358 2.33579 13.5 2.75 13.5C3.16421 13.5 3.5 13.8358 3.5 14.25Z" fill="#292A2E"/>
<path d="M10.5 14.25C10.5 14.6642 10.1642 15 9.75 15C9.33579 15 9 14.6642 9 14.25C9 13.8358 9.33579 13.5 9.75 13.5C10.1642 13.5 10.5 13.8358 10.5 14.25Z" fill="#292A2E"/>
<path d="M14 14.25C14 14.6642 13.6642 15 13.25 15C12.8358 15 12.5 14.6642 12.5 14.25C12.5 13.8358 12.8358 13.5 13.25 13.5C13.6642 13.5 14 13.8358 14 14.25Z" fill="#292A2E"/>
</svg>
