<svg width="16" height="16" viewBox="0 0 16 16" fill="none" xmlns="http://www.w3.org/2000/svg">
<path fill-rule="evenodd" clip-rule="evenodd" d="M1.5 0V16H0V0H1.5Z" fill="#292A2E"/>
<path fill-rule="evenodd" clip-rule="evenodd" d="M3 4.375C3 3.61561 3.61561 3 4.375 3H13.625C14.3844 3 15 3.61561 15 4.375V5.875C15 6.63439 14.3844 7.25 13.625 7.25H4.375C3.61561 7.25 3 6.63439 3 5.875V4.375ZM4.5 4.5V5.75H13.5V4.5H4.5Z" fill="#292A2E"/>
<path fill-rule="evenodd" clip-rule="evenodd" d="M3 10.125C3 9.36561 3.61561 8.75 4.375 8.75H8.625C9.38439 8.75 10 9.36561 10 10.125V11.625C10 12.3844 9.38439 13 8.625 13H4.375C3.61561 13 3 12.3844 3 11.625V10.125ZM4.5 10.25V11.5H8.5V10.25H4.5Z" fill="#292A2E"/>
</svg>
