<svg width="16" height="16" viewBox="0 0 16 16" fill="none" xmlns="http://www.w3.org/2000/svg">
<path fill-rule="evenodd" clip-rule="evenodd" d="M16 8.75H12.25V7.25H16V8.75ZM9.25 8.75H6.75V7.25H9.25V8.75ZM3.75 8.75L0 8.75L6.55671e-08 7.25L3.75 7.25V8.75Z" fill="#44546F"/>
<path fill-rule="evenodd" clip-rule="evenodd" d="M11.625 1C12.3844 1 13 1.61561 13 2.375L13 13.625C13 14.3844 12.3844 15 11.625 15H10.125C9.36561 15 8.75 14.3844 8.75 13.625L8.75 2.375C8.75 1.61561 9.36561 1 10.125 1L11.625 1ZM11.5 2.5L10.25 2.5L10.25 13.5H11.5L11.5 2.5Z" fill="#44546F"/>
<path fill-rule="evenodd" clip-rule="evenodd" d="M5.875 3C6.63439 3 7.25 3.61561 7.25 4.375L7.25 11.625C7.25 12.3844 6.63439 13 5.875 13H4.375C3.61561 13 3 12.3844 3 11.625L3 4.375C3 3.61561 3.61561 3 4.375 3H5.875ZM5.75 4.5H4.5L4.5 11.5H5.75L5.75 4.5Z" fill="#44546F"/>
</svg>
