<svg width="16" height="16" viewBox="0 0 16 16" fill="none" xmlns="http://www.w3.org/2000/svg">
<path d="M7 8C7 8.41421 6.66421 8.75 6.25 8.75C5.83579 8.75 5.5 8.41421 5.5 8C5.5 7.58579 5.83579 7.25 6.25 7.25C6.66421 7.25 7 7.58579 7 8Z" fill="#44546F"/>
<path d="M3.5 8C3.5 8.41421 3.16421 8.75 2.75 8.75C2.33579 8.75 2 8.41421 2 8C2 7.58579 2.33579 7.25 2.75 7.25C3.16421 7.25 3.5 7.58579 3.5 8Z" fill="#44546F"/>
<path d="M10.5 8C10.5 8.41421 10.1642 8.75 9.75 8.75C9.33579 8.75 9 8.41421 9 8C9 7.58579 9.33579 7.25 9.75 7.25C10.1642 7.25 10.5 7.58579 10.5 8Z" fill="#44546F"/>
<path d="M7 1.75C7 2.16421 6.66421 2.5 6.25 2.5C5.83579 2.5 5.5 2.16421 5.5 1.75C5.5 1.33579 5.83579 1 6.25 1C6.66421 1 7 1.33579 7 1.75Z" fill="#44546F"/>
<path d="M3.5 1.75C3.5 2.16421 3.16421 2.5 2.75 2.5C2.33579 2.5 2 2.16421 2 1.75C2 1.33579 2.33579 1 2.75 1C3.16421 1 3.5 1.33579 3.5 1.75Z" fill="#44546F"/>
<path d="M10.5 1.75C10.5 2.16421 10.1642 2.5 9.75 2.5C9.33579 2.5 9 2.16421 9 1.75C9 1.33579 9.33579 1 9.75 1C10.1642 1 10.5 1.33579 10.5 1.75Z" fill="#44546F"/>
<path d="M14 8C14 8.41421 13.6642 8.75 13.25 8.75C12.8358 8.75 12.5 8.41421 12.5 8C12.5 7.58579 12.8358 7.25 13.25 7.25C13.6642 7.25 14 7.58579 14 8Z" fill="#44546F"/>
<path d="M14 1.75C14 2.16421 13.6642 2.5 13.25 2.5C12.8358 2.5 12.5 2.16421 12.5 1.75C12.5 1.33579 12.8358 1 13.25 1C13.6642 1 14 1.33579 14 1.75Z" fill="#44546F"/>
<path d="M0 14.25H16" stroke="#44546F" stroke-width="1.5" stroke-linejoin="round"/>
</svg>
