<svg width="16" height="16" viewBox="0 0 16 16" fill="none" xmlns="http://www.w3.org/2000/svg">
<path d="M1.5 8C1.5 11.5899 4.41015 14.5 8 14.5C11.5899 14.5 14.5 11.5899 14.5 8C14.5 4.41015 11.5899 1.5 8 1.5C5.45887 1.5 3.25676 2.95832 2.1875 5.08691L0.847656 4.41309C2.16167 1.79756 4.87016 0 8 0C12.4183 0 16 3.58172 16 8C16 12.4183 12.4183 16 8 16C3.58172 16 0 12.4183 0 8H1.5Z" fill="#292A2E"/>
<path d="M12.0781 5.72754L7.32812 11.4775C7.18608 11.6495 6.97497 11.7494 6.75195 11.75C6.52889 11.7505 6.31668 11.6518 6.17383 11.4805L3.67383 8.48047L4.82617 7.51953L6.74707 9.8252L10.9219 4.77246L12.0781 5.72754Z" fill="#292A2E"/>
<path d="M1.26952 0.999761C1.64966 1.00966 1.96241 1.30273 1.99706 1.6814L2.19042 3.80835L4.31835 4.00269C4.69702 4.03734 4.99009 4.35009 4.99999 4.73023C5.00973 5.11052 4.73295 5.43795 4.35644 5.49195L0.856436 5.99195C0.62274 6.02533 0.386642 5.94696 0.219717 5.78003C0.0527918 5.61311 -0.0255821 5.37701 0.00780303 5.14332L0.507803 1.64332L0.54003 1.50757C0.643923 1.2023 0.936607 0.99123 1.26952 0.999761Z" fill="#292A2E"/>
</svg>
