<svg width="16" height="16" viewBox="0 0 16 16" fill="none" xmlns="http://www.w3.org/2000/svg">
<path d="M14.5 8C14.5 4.41015 11.5899 1.5 8 1.5C4.41015 1.5 1.5 4.41015 1.5 8C1.5 11.5899 4.41015 14.5 8 14.5C11.5899 14.5 14.5 11.5899 14.5 8ZM16 8C16 12.4183 12.4183 16 8 16C3.58172 16 0 12.4183 0 8C0 3.58172 3.58172 0 8 0C12.4183 0 16 3.58172 16 8Z" fill="#292A2E"/>
<path d="M7.52637 4.16808C7.82094 3.92778 8.25567 3.94524 8.53027 4.21983L12.0303 7.71983L10.9697 8.78038L8.75 6.56065V12.5001H7.25V6.56065L5.03027 8.78038L3.96973 7.71983L7.46973 4.21983L7.52637 4.16808Z" fill="#292A2E"/>
</svg>
