<svg width="16" height="16" viewBox="0 0 16 16" fill="none" xmlns="http://www.w3.org/2000/svg">
<path d="M10.8379 1C11.218 1 11.5934 1.08281 11.9385 1.24219L14.3848 2.37109L14.5059 1.40723L15.9941 1.59277L15.3008 7.1377C15.22 7.7827 14.8576 8.2776 14.3779 8.56738L14.4053 8.59473C15.3195 9.50894 15.3195 10.9911 14.4053 11.9053C13.8185 12.492 12.9985 12.6996 12.2441 12.5332C12.1982 12.5993 12.1478 12.6637 12.0889 12.7227L11.6064 13.2041C10.8871 13.9234 9.85468 14.1359 8.94824 13.8457C8.91417 13.8892 8.87891 13.9326 8.83887 13.9727L8.57227 14.2383C7.56565 15.2446 5.94017 15.2655 4.9082 14.2852L2.22168 11.7324C1.45576 11.0048 0.96966 10.031 0.849609 8.98145L0.00488281 1.58496L1.49512 1.41504L1.61523 2.46777L7.19922 2.03027L7.40039 1.81934C7.89612 1.29607 8.58584 1 9.30664 1H10.8379ZM1.78613 3.95996L2.34082 8.81055C2.42079 9.51031 2.7443 10.1594 3.25488 10.6445L5.94141 13.1973C6.38363 13.6174 7.0803 13.6089 7.51172 13.1777L7.68848 13L6.21973 11.5303L7.28027 10.4697L8.83887 12.0273C8.84164 12.0301 8.84394 12.0333 8.84668 12.0361L8.9541 12.1436C9.39344 12.5829 10.1066 12.5829 10.5459 12.1436L10.9385 11.75L8.71973 9.53027L9.78027 8.46973L12.0889 10.7773C12.0916 10.7801 12.0939 10.7833 12.0967 10.7861L12.1553 10.8447C12.4837 11.1732 13.0163 11.1732 13.3447 10.8447C13.6732 10.5163 13.6732 9.9837 13.3447 9.65527L10.2666 6.57715C10.0854 6.39624 9.79641 6.38148 9.59766 6.54297L7.52832 8.22461C6.63017 8.95402 5.326 8.88654 4.50781 8.06836C3.64271 7.20324 3.62342 5.80614 4.46484 4.91797L5.65918 3.65625L1.78613 3.95996ZM9.30664 2.5C8.99776 2.5 8.70269 2.62735 8.49023 2.85156L5.55371 5.9502C5.27146 6.24844 5.27797 6.71741 5.56836 7.00781C5.8431 7.28256 6.28142 7.3055 6.58301 7.06055L8.65234 5.37891C9.44767 4.7328 10.6025 4.7922 11.3271 5.5166L13.0303 7.21973L13.083 7.26562C13.3574 7.47006 13.7679 7.30763 13.8125 6.95117L14.1895 3.93359L11.3096 2.60352C11.1617 2.53524 11.0007 2.5 10.8379 2.5H9.30664Z" fill="#292A2E"/>
</svg>
