<svg width="16" height="16" viewBox="0 0 16 16" fill="none" xmlns="http://www.w3.org/2000/svg">
<path d="M12.75 11C11.7835 11 11 11.7835 11 12.75C11 13.7165 11.7835 14.5 12.75 14.5C13.7165 14.5 14.5 13.7165 14.5 12.75C14.5 11.7835 13.7165 11 12.75 11ZM12.75 3C11.7835 3 11 3.7835 11 4.75C11 5.7165 11.7835 6.5 12.75 6.5C13.7165 6.5 14.5 5.7165 14.5 4.75C14.5 3.7835 13.7165 3 12.75 3ZM3 13.5C1.89543 13.5 1 12.6046 1 11.5L1 6.55673e-08L2.5 0L2.5 4L8 4L8 5.5L2.5 5.5L2.5 11.5C2.5 11.7761 2.72386 12 3 12H8V13.5H3ZM12.75 9.5C14.5449 9.5 16 10.9551 16 12.75C16 14.5449 14.5449 16 12.75 16C10.9551 16 9.5 14.5449 9.5 12.75C9.5 10.9551 10.9551 9.5 12.75 9.5ZM12.75 1.5C14.5449 1.5 16 2.95507 16 4.75C16 6.54492 14.5449 8 12.75 8C10.9551 8 9.5 6.54493 9.5 4.75C9.5 2.95507 10.9551 1.5 12.75 1.5Z" fill="#292A2E"/>
</svg>
