<svg width="16" height="16" viewBox="0 0 16 16" fill="none" xmlns="http://www.w3.org/2000/svg">
<path d="M4.75 3.25C4.75 4.07843 4.07843 4.75 3.25 4.75C2.42157 4.75 1.75 4.07843 1.75 3.25C1.75 2.42157 2.42157 1.75 3.25 1.75C4.07843 1.75 4.75 2.42157 4.75 3.25ZM4.75 3.25H6.5C7.19036 3.25 7.75 3.80964 7.75 4.5V11.5C7.75 12.1904 7.19036 12.75 6.5 12.75H4.75M11.25 8C11.25 8.82843 11.9216 9.5 12.75 9.5C13.5784 9.5 14.25 8.82843 14.25 8C14.25 7.17157 13.5784 6.5 12.75 6.5C11.9216 6.5 11.25 7.17157 11.25 8ZM11.25 8H7.75M4.75 12.75C4.75 13.5784 4.07843 14.25 3.25 14.25C2.42157 14.25 1.75 13.5784 1.75 12.75C1.75 11.9216 2.42157 11.25 3.25 11.25C4.07843 11.25 4.75 11.9216 4.75 12.75Z" stroke="#44546F" stroke-width="1.5"/>
</svg>
