<svg width="16" height="16" viewBox="0 0 16 16" fill="none" xmlns="http://www.w3.org/2000/svg">
<path d="M12.7803 4.28027L10.9473 6.1123C11.6832 7.25894 11.6829 8.73995 10.9473 9.88672L12.7803 11.7197L11.7197 12.7803L9.88672 10.9473C8.73995 11.6829 7.25894 11.6832 6.1123 10.9473L4.28027 12.7803L3.21973 11.7197L5.05176 9.88672C4.31647 8.74016 4.31617 7.25873 5.05176 6.1123L3.21973 4.28027L4.28027 3.21973L6.1123 5.05176C7.25873 4.31617 8.74016 4.31647 9.88672 5.05176L11.7197 3.21973L12.7803 4.28027ZM9.41406 6.58594C8.63301 5.80489 7.36699 5.80489 6.58594 6.58594C5.80489 7.36699 5.80489 8.63301 6.58594 9.41406C7.36699 10.1951 8.63301 10.1951 9.41406 9.41406C10.1951 8.63301 10.1951 7.36699 9.41406 6.58594Z" fill="#292A2E"/>
<path d="M11.7324 0.732477C12.7087 -0.243833 14.2913 -0.243833 15.2676 0.732477C16.2439 1.70879 16.2439 3.29132 15.2676 4.26763C14.2913 5.24394 12.7087 5.24394 11.7324 4.26763C10.7561 3.29132 10.7561 1.70879 11.7324 0.732477ZM14.207 1.79302C13.8165 1.4025 13.1835 1.4025 12.793 1.79302C12.4024 2.18355 12.4024 2.81656 12.793 3.20709C13.1835 3.59761 13.8165 3.59761 14.207 3.20709C14.5975 2.81656 14.5975 2.18355 14.207 1.79302Z" fill="#292A2E"/>
<path d="M11.7324 11.7325C12.7087 10.7562 14.2913 10.7562 15.2676 11.7325C16.2439 12.7088 16.2439 14.2913 15.2676 15.2676C14.2913 16.2439 12.7087 16.2439 11.7324 15.2676C10.7561 14.2913 10.7561 12.7088 11.7324 11.7325ZM14.207 12.793C13.8165 12.4025 13.1835 12.4025 12.793 12.793C12.4024 13.1835 12.4024 13.8166 12.793 14.2071C13.1835 14.5976 13.8165 14.5976 14.207 14.2071C14.5975 13.8166 14.5975 13.1835 14.207 12.793Z" fill="#292A2E"/>
<path d="M0.732416 0.732477C1.70873 -0.243833 3.29126 -0.243833 4.26757 0.732477C5.24388 1.70879 5.24388 3.29132 4.26757 4.26763C3.29126 5.24394 1.70873 5.24394 0.732416 4.26763C-0.243895 3.29132 -0.243895 1.70879 0.732416 0.732477ZM3.20703 1.79302C2.8165 1.4025 2.18349 1.4025 1.79296 1.79302C1.40244 2.18355 1.40244 2.81656 1.79296 3.20709C2.18349 3.59761 2.8165 3.59761 3.20703 3.20709C3.59755 2.81656 3.59755 2.18355 3.20703 1.79302Z" fill="#292A2E"/>
<path d="M0.732416 11.7325C1.70873 10.7562 3.29126 10.7562 4.26757 11.7325C5.24388 12.7088 5.24388 14.2913 4.26757 15.2676C3.29126 16.2439 1.70873 16.2439 0.732416 15.2676C-0.243895 14.2913 -0.243895 12.7088 0.732416 11.7325ZM3.20703 12.793C2.8165 12.4025 2.18349 12.4025 1.79296 12.793C1.40244 13.1835 1.40244 13.8166 1.79296 14.2071C2.18349 14.5976 2.8165 14.5976 3.20703 14.2071C3.59755 13.8166 3.59755 13.1835 3.20703 12.793Z" fill="#292A2E"/>
</svg>
