<svg width="16" height="16" viewBox="0 0 16 16" fill="none" xmlns="http://www.w3.org/2000/svg">
<path d="M7.25 12V4C7.25 3.72386 7.02614 3.5 6.75 3.5H4.75V2H6.75C7.85457 2 8.75 2.89543 8.75 4V7.25H11.25V8.75H8.75V12C8.75 13.1046 7.85457 14 6.75 14H4.75V12.5H6.75C7.02614 12.5 7.25 12.2761 7.25 12Z" fill="#292A2E"/>
<path d="M13.25 6.75C12.5596 6.75 12 7.30964 12 8C12 8.69036 12.5596 9.25 13.25 9.25C13.9404 9.25 14.5 8.69036 14.5 8C14.5 7.30964 13.9404 6.75 13.25 6.75ZM13.25 5.25C14.7688 5.25 16 6.48122 16 8C16 9.51878 14.7688 10.75 13.25 10.75C11.7312 10.75 10.5 9.51878 10.5 8C10.5 6.48122 11.7312 5.25 13.25 5.25Z" fill="#292A2E"/>
<path d="M2.75 1.5C2.05964 1.5 1.5 2.05964 1.5 2.75C1.5 3.44036 2.05964 4 2.75 4C3.44036 4 4 3.44036 4 2.75C4 2.05964 3.44036 1.5 2.75 1.5ZM2.75 0C4.26878 0 5.5 1.23122 5.5 2.75C5.5 4.26878 4.26878 5.5 2.75 5.5C1.23122 5.5 0 4.26878 0 2.75C4.67087e-08 1.23122 1.23122 3.3824e-08 2.75 0Z" fill="#292A2E"/>
<path d="M2.75 12C2.05964 12 1.5 12.5596 1.5 13.25C1.5 13.9404 2.05964 14.5 2.75 14.5C3.44036 14.5 4 13.9404 4 13.25C4 12.5596 3.44036 12 2.75 12ZM2.75 10.5C4.26878 10.5 5.5 11.7312 5.5 13.25C5.5 14.7688 4.26878 16 2.75 16C1.23122 16 0 14.7688 0 13.25C4.67087e-08 11.7312 1.23122 10.5 2.75 10.5Z" fill="#292A2E"/>
</svg>
