<svg width="16" height="16" viewBox="0 0 16 16" fill="none" xmlns="http://www.w3.org/2000/svg">
<path d="M10.25 7.25C10.25 8.07843 10.9216 8.75 11.75 8.75C12.5784 8.75 13.25 8.07843 13.25 7.25C13.25 6.42157 12.5784 5.75 11.75 5.75C10.9216 5.75 10.25 6.42157 10.25 7.25ZM10.25 7.25H4.25M4.25 4.625V11.625C4.25 12.3154 4.80964 12.875 5.5 12.875H10.25M5.75 3.25C5.75 4.07843 5.07843 4.75 4.25 4.75C3.42157 4.75 2.75 4.07843 2.75 3.25C2.75 2.42157 3.42157 1.75 4.25 1.75C5.07843 1.75 5.75 2.42157 5.75 3.25ZM13.25 12.75C13.25 13.5784 12.5784 14.25 11.75 14.25C10.9216 14.25 10.25 13.5784 10.25 12.75C10.25 11.9216 10.9216 11.25 11.75 11.25C12.5784 11.25 13.25 11.9216 13.25 12.75Z" stroke="#44546F" stroke-width="1.5"/>
</svg>
