<svg width="16" height="16" viewBox="0 0 16 16" fill="none" xmlns="http://www.w3.org/2000/svg">
<path fill-rule="evenodd" clip-rule="evenodd" d="M4.25 2.5C3.83579 2.5 3.5 2.83579 3.5 3.25C3.5 3.66421 3.83579 4 4.25 4C4.66421 4 5 3.66421 5 3.25C5 2.83579 4.66421 2.5 4.25 2.5ZM2 3.25C2 2.00736 3.00736 1 4.25 1C5.49264 1 6.5 2.00736 6.5 3.25C6.5 4.22966 5.87389 5.06309 5 5.37197V6.5H9.62803C9.93691 5.62611 10.7703 5 11.75 5C12.9926 5 14 6.00736 14 7.25C14 8.49264 12.9926 9.5 11.75 9.5C10.7703 9.5 9.93691 8.87389 9.62803 8H5V11.625C5 11.9011 5.22386 12.125 5.5 12.125H9.58794C9.85878 11.1864 10.7242 10.5 11.75 10.5C12.9926 10.5 14 11.5074 14 12.75C14 13.9926 12.9926 15 11.75 15C10.8177 15 10.0179 14.433 9.67648 13.625H5.5C4.39543 13.625 3.5 12.7296 3.5 11.625V5.37197C2.62611 5.06309 2 4.22966 2 3.25ZM11.75 6.5C11.3358 6.5 11 6.83579 11 7.25C11 7.66421 11.3358 8 11.75 8C12.1642 8 12.5 7.66421 12.5 7.25C12.5 6.83579 12.1642 6.5 11.75 6.5ZM11.75 12C11.3358 12 11 12.3358 11 12.75C11 13.1642 11.3358 13.5 11.75 13.5C12.1642 13.5 12.5 13.1642 12.5 12.75C12.5 12.3358 12.1642 12 11.75 12Z" fill="#292A2E"/>
</svg>
