<svg width="16" height="16" viewBox="0 0 16 16" fill="none" xmlns="http://www.w3.org/2000/svg">
<path fill-rule="evenodd" clip-rule="evenodd" d="M3.28033 2.21967C2.98744 1.92678 2.51256 1.92678 2.21967 2.21967C1.92678 2.51256 1.92678 2.98744 2.21967 3.28033C2.51256 3.57322 2.98744 3.57322 3.28033 3.28033C3.57322 2.98744 3.57322 2.51256 3.28033 2.21967ZM1.15901 1.15901C2.03769 0.28033 3.46231 0.28033 4.34099 1.15901C5.03372 1.85174 5.18032 2.88381 4.78078 3.72016L6.47564 5.41517C7.41294 4.8616 8.58666 4.86161 9.52396 5.4152L11.2192 3.7201C10.8197 2.88376 10.9663 1.85173 11.659 1.15901C12.5377 0.28033 13.9623 0.28033 14.841 1.15901C15.7197 2.03769 15.7197 3.46231 14.841 4.34099C14.1483 5.03372 13.1162 5.18032 12.2798 4.78078L10.5846 6.47587C11.1382 7.41315 11.1382 8.58685 10.5846 9.52413L12.2798 11.2192C13.1162 10.8197 14.1483 10.9663 14.841 11.659C15.7197 12.5377 15.7197 13.9623 14.841 14.841C13.9623 15.7197 12.5377 15.7197 11.659 14.841C10.9663 14.1483 10.8197 13.1162 11.2192 12.2799L9.52396 10.5848C8.58666 11.1384 7.41294 11.1384 6.47564 10.5848L4.78078 12.2798C5.18032 13.1162 5.03372 14.1483 4.34099 14.841C3.46231 15.7197 2.03769 15.7197 1.15901 14.841C0.28033 13.9623 0.28033 12.5377 1.15901 11.659C1.85173 10.9663 2.88376 10.8197 3.7201 11.2192L5.41497 9.52419C4.86137 8.58687 4.86137 7.41313 5.41497 6.47581L3.7201 4.7808C2.88376 5.18031 1.85173 5.03371 1.15901 4.34099C0.28033 3.46231 0.28033 2.03769 1.15901 1.15901ZM13.7803 2.21967C13.4874 1.92678 13.0126 1.92678 12.7197 2.21967C12.4268 2.51256 12.4268 2.98744 12.7197 3.28033C13.0126 3.57322 13.4874 3.57322 13.7803 3.28033C14.0732 2.98744 14.0732 2.51256 13.7803 2.21967ZM9.06043 6.93934C8.47465 6.35355 7.5249 6.35355 6.93911 6.93934C6.35333 7.52513 6.35333 8.47487 6.93911 9.06066C7.5249 9.64645 8.47465 9.64645 9.06043 9.06066C9.64622 8.47487 9.64622 7.52513 9.06043 6.93934ZM3.28033 12.7197C2.98744 12.4268 2.51256 12.4268 2.21967 12.7197C1.92678 13.0126 1.92678 13.4874 2.21967 13.7803C2.51256 14.0732 2.98744 14.0732 3.28033 13.7803C3.57322 13.4874 3.57322 13.0126 3.28033 12.7197ZM13.7803 12.7197C13.4874 12.4268 13.0126 12.4268 12.7197 12.7197C12.4268 13.0126 12.4268 13.4874 12.7197 13.7803C13.0126 14.0732 13.4874 14.0732 13.7803 13.7803C14.0732 13.4874 14.0732 13.0126 13.7803 12.7197Z" fill="#44546F"/>
</svg>
