<svg width="16" height="16" viewBox="0 0 16 16" fill="none" xmlns="http://www.w3.org/2000/svg">
<path d="M11 14.5H14.5V11H11V14.5ZM5.5 3.5C5.5 2.39543 4.60457 1.5 3.5 1.5C2.39543 1.5 1.5 2.39543 1.5 3.5C1.5 4.60457 2.39543 5.5 3.5 5.5C4.60457 5.5 5.5 4.60457 5.5 3.5ZM16 14.625C16 15.3844 15.3844 16 14.625 16H10.875C10.1156 16 9.5 15.3844 9.5 14.625V10.875C9.5 10.1156 10.1156 9.5 10.875 9.5H14.625C15.3844 9.5 16 10.1156 16 10.875V14.625ZM7 3.5C7 5.17545 5.82244 6.57452 4.25 6.91797V11.5C4.25 11.7761 4.47386 12 4.75 12H8V13.5H4.75C3.64543 13.5 2.75 12.6046 2.75 11.5V6.91797C1.17756 6.57452 0 5.17545 0 3.5C0 1.567 1.567 0 3.5 0C5.433 0 7 1.567 7 3.5Z" fill="#292A2E"/>
</svg>
