<svg width="16" height="16" viewBox="0 0 16 16" fill="none" xmlns="http://www.w3.org/2000/svg">
<path fill-rule="evenodd" clip-rule="evenodd" d="M3.25 2.5C2.83579 2.5 2.5 2.83579 2.5 3.25C2.5 3.66421 2.83579 4 3.25 4C3.66421 4 4 3.66421 4 3.25C4 2.83579 3.66421 2.5 3.25 2.5ZM1 3.25C1 2.00736 2.00736 1 3.25 1C4.22966 1 5.06309 1.62611 5.37197 2.5H6.5C7.60457 2.5 8.5 3.39543 8.5 4.5V7.25H10.628C10.9369 6.37611 11.7703 5.75 12.75 5.75C13.9926 5.75 15 6.75736 15 8C15 9.24264 13.9926 10.25 12.75 10.25C11.7703 10.25 10.9369 9.62389 10.628 8.75H8.5V11.5C8.5 12.6046 7.60457 13.5 6.5 13.5H5.37197C5.06309 14.3739 4.22966 15 3.25 15C2.00736 15 1 13.9926 1 12.75C1 11.5074 2.00736 10.5 3.25 10.5C4.22966 10.5 5.06309 11.1261 5.37197 12H6.5C6.77614 12 7 11.7761 7 11.5V4.5C7 4.22386 6.77614 4 6.5 4H5.37197C5.06309 4.87389 4.22966 5.5 3.25 5.5C2.00736 5.5 1 4.49264 1 3.25ZM12.75 7.25C12.3358 7.25 12 7.58579 12 8C12 8.41421 12.3358 8.75 12.75 8.75C13.1642 8.75 13.5 8.41421 13.5 8C13.5 7.58579 13.1642 7.25 12.75 7.25ZM3.25 12C2.83579 12 2.5 12.3358 2.5 12.75C2.5 13.1642 2.83579 13.5 3.25 13.5C3.66421 13.5 4 13.1642 4 12.75C4 12.3358 3.66421 12 3.25 12Z" fill="#292A2E"/>
</svg>
