<svg width="16" height="16" viewBox="0 0 16 16" fill="none" xmlns="http://www.w3.org/2000/svg">
<path d="M4.83494 7.50107C5.09955 7.48693 5.352 7.61358 5.499 7.83408C5.88021 8.40589 6.37012 9.40779 6.67576 10.5724C6.98076 11.7346 7.12297 13.1374 6.71775 14.4688C6.62156 14.7845 6.32998 15.0001 5.99998 15.0001H1.74998C1.48784 15.0001 1.24434 14.8629 1.10838 14.6388C0.972649 14.4147 0.963921 14.1358 1.08494 13.9034L4.20994 7.90342L4.26072 7.81943C4.39185 7.63235 4.60323 7.51358 4.83494 7.50107ZM2.9863 13.5001H5.40427C5.53936 12.6728 5.44273 11.7845 5.22459 10.9532C5.12364 10.5686 4.9995 10.2073 4.86912 9.88388L2.9863 13.5001Z" fill="#292A2E"/>
<path d="M8.11503 1.00007C8.40518 0.996202 8.67125 1.16025 8.79863 1.42097L14.8982 13.921C15.0117 14.1534 14.9972 14.4282 14.8602 14.6475C14.7231 14.8667 14.483 15.0001 14.2244 15.0001H10.0701C9.79509 14.9999 9.54201 14.8493 9.41093 14.6075C7.75366 11.5504 6.73874 9.35565 6.40996 7.37311C6.07172 5.33292 6.46788 3.58301 7.44218 1.43952L7.49394 1.34479C7.62859 1.13503 7.86108 1.00354 8.11503 1.00007ZM8.19609 3.60749C7.78922 4.86011 7.69256 5.93912 7.88945 7.12702C8.15988 8.7582 8.99238 10.6524 10.5203 13.5001H13.0242L8.19609 3.60749Z" fill="#292A2E"/>
</svg>
