<svg width="16" height="16" viewBox="0 0 16 16" fill="none" xmlns="http://www.w3.org/2000/svg">
<path d="M9.87015 1.41996C11.4364 0.853469 13.1282 0.753155 14.1875 1.81254C15.2469 2.87193 15.1466 4.56366 14.5801 6.12992C14.3611 6.73548 14.0588 7.36474 13.6827 8.00004C14.0587 8.63532 14.3611 9.26461 14.5801 9.87015C15.1466 11.4364 15.2469 13.1282 14.1875 14.1875C13.1282 15.2469 11.4364 15.1466 9.87015 14.5801C9.26461 14.3611 8.63532 14.0587 8.00004 13.6827C7.36473 14.0588 6.73548 14.3611 6.12992 14.5801C4.56366 15.1466 2.87193 15.2469 1.81254 14.1875C0.753154 13.1282 0.853468 11.4364 1.41996 9.87015C1.63894 9.26473 1.94047 8.63518 2.31644 8.00004C1.94045 7.36487 1.63895 6.73536 1.41996 6.12992C0.853446 4.56363 0.75314 2.87193 1.81254 1.81254C2.87193 0.753139 4.56363 0.853446 6.12992 1.41996C6.73536 1.63895 7.36487 1.94045 8.00004 2.31644C8.63518 1.94047 9.26473 1.63894 9.87015 1.41996ZM3.2598 9.39652C3.08855 9.73424 2.94462 10.0633 2.83011 10.3799C2.30898 11.8207 2.46803 12.7219 2.87308 13.127C3.27815 13.532 4.17943 13.6911 5.62015 13.17C5.9366 13.0555 6.265 12.9105 6.60258 12.7393C5.99597 12.2797 5.39545 11.7587 4.8184 11.1817C4.24101 10.6043 3.71964 10.0035 3.2598 9.39652ZM12.7393 9.39652C12.2795 10.0033 11.7589 10.6044 11.1817 11.1817C10.6044 11.7589 10.0033 12.2795 9.39652 12.7393C9.73437 12.9106 10.0632 13.0554 10.3799 13.17C11.8207 13.6911 12.7219 13.532 13.127 13.127C13.532 12.7219 13.6911 11.8207 13.17 10.3799C13.0554 10.0632 12.9106 9.73437 12.7393 9.39652ZM8.00004 4.09867C7.29147 4.58913 6.5725 5.18539 5.87894 5.87894C5.18539 6.5725 4.58912 7.29147 4.09867 8.00004C4.58912 8.70859 5.18541 9.42759 5.87894 10.1211C6.57235 10.8145 7.29162 11.41 8.00004 11.9004C8.70845 11.41 9.42773 10.8145 10.1211 10.1211C10.8145 9.42773 11.41 8.70845 11.9004 8.00004C11.41 7.29162 10.8145 6.57235 10.1211 5.87894C9.42759 5.18541 8.70859 4.58912 8.00004 4.09867ZM5.62015 2.83011C4.17938 2.30898 3.27813 2.46803 2.87308 2.87308C2.46803 3.27813 2.30898 4.17938 2.83011 5.62015C2.94454 5.93648 3.08873 6.26513 3.2598 6.60258C3.71953 5.99581 4.24119 5.3956 4.8184 4.8184C5.3956 4.24119 5.99581 3.71953 6.60258 3.2598C6.26513 3.08873 5.93648 2.94454 5.62015 2.83011ZM13.127 2.87308C12.7219 2.46803 11.8207 2.30898 10.3799 2.83011C10.0633 2.94462 9.73424 3.08856 9.39652 3.2598C10.0035 3.71964 10.6043 4.24101 11.1817 4.8184C11.7587 5.39545 12.2797 5.99597 12.7393 6.60258C12.9105 6.265 13.0555 5.9366 13.17 5.62015C13.6911 4.17943 13.532 3.27815 13.127 2.87308Z" fill="#292A2E"/>
<path d="M9.00004 8.00004C9.00004 8.55232 8.55232 9.00004 8.00004 9.00004C7.44775 9.00004 7.00004 8.55232 7.00004 8.00004C7.00004 7.44775 7.44775 7.00004 8.00004 7.00004C8.55232 7.00004 9.00004 7.44775 9.00004 8.00004Z" fill="#292A2E"/>
</svg>
