<svg width="16" height="16" viewBox="0 0 16 16" fill="none" xmlns="http://www.w3.org/2000/svg">
<path d="M9.87016 1.41994C11.4364 0.853454 13.1282 0.75314 14.1875 1.81252C15.2469 2.87192 15.1466 4.56364 14.5801 6.1299C14.3611 6.73547 14.0588 7.36472 13.6827 8.00002C14.0587 8.6353 14.3611 9.26459 14.5801 9.87014C15.1466 11.4364 15.2469 13.1281 14.1875 14.1875C13.1282 15.2469 11.4364 15.1466 9.87016 14.5801C9.26461 14.3611 8.63532 14.0587 8.00004 13.6826C7.36474 14.0587 6.73549 14.3611 6.12992 14.5801C4.56366 15.1466 2.87193 15.2469 1.81254 14.1875C0.753158 13.1281 0.853471 11.4364 1.41996 9.87014C1.63894 9.26472 1.94047 8.63517 2.31645 8.00002C1.94045 7.36485 1.63895 6.73534 1.41996 6.1299C0.853449 4.56362 0.753144 2.87192 1.81254 1.81252C2.87194 0.753124 4.56363 0.853431 6.12992 1.41994C6.73536 1.63893 7.36487 1.94044 8.00004 2.31643C8.63519 1.94045 9.26474 1.63893 9.87016 1.41994ZM3.25981 9.39651C3.08856 9.73422 2.94463 10.0633 2.83012 10.3799C2.30899 11.8207 2.46804 12.7219 2.87309 13.127C3.27816 13.532 4.17943 13.6911 5.62016 13.1699C5.93661 13.0555 6.265 12.9104 6.60258 12.7393C5.99598 12.2796 5.39546 11.7587 4.8184 11.1817C4.24101 10.6043 3.71964 10.0035 3.25981 9.39651ZM12.7393 9.39651C12.2795 10.0033 11.7589 10.6044 11.1817 11.1817C10.6044 11.7589 10.0033 12.2795 9.39652 12.7393C9.73438 12.9106 10.0632 13.0554 10.3799 13.1699C11.8207 13.6911 12.7219 13.532 13.127 13.127C13.532 12.7219 13.6911 11.8207 13.17 10.3799C13.0554 10.0632 12.9106 9.73436 12.7393 9.39651ZM8.00004 4.09865C7.29147 4.58911 6.5725 5.18537 5.87895 5.87893C5.18539 6.57248 4.58913 7.29145 4.09867 8.00002C4.58912 8.70857 5.18541 9.42758 5.87895 10.1211C6.57235 10.8145 7.29162 11.41 8.00004 11.9004C8.70846 11.41 9.42774 10.8145 10.1211 10.1211C10.8145 9.42772 11.41 8.70844 11.9004 8.00002C11.41 7.2916 10.8145 6.57233 10.1211 5.87893C9.4276 5.18539 8.70859 4.5891 8.00004 4.09865ZM5.62016 2.8301C4.17938 2.30897 3.27814 2.46802 2.87309 2.87307C2.46804 3.27812 2.30899 4.17936 2.83012 5.62014C2.94454 5.93647 3.08873 6.26512 3.25981 6.60256C3.71954 5.9958 4.24119 5.39559 4.8184 4.81838C5.3956 4.24118 5.99581 3.71952 6.60258 3.25979C6.26514 3.08871 5.93649 2.94452 5.62016 2.8301ZM13.127 2.87307C12.7219 2.46802 11.8207 2.30897 10.3799 2.8301C10.0634 2.94461 9.73424 3.08854 9.39652 3.25979C10.0035 3.71962 10.6043 4.24099 11.1817 4.81838C11.7587 5.39544 12.2797 5.99596 12.7393 6.60256C12.9105 6.26498 13.0555 5.93659 13.17 5.62014C13.6911 4.17941 13.532 3.27814 13.127 2.87307Z" fill="#292A2E"/>
<path d="M9.00004 8.00002C9.00004 8.55231 8.55232 9.00002 8.00004 9.00002C7.44776 9.00002 7.00004 8.55231 7.00004 8.00002C7.00004 7.44774 7.44776 7.00002 8.00004 7.00002C8.55232 7.00002 9.00004 7.44774 9.00004 8.00002Z" fill="#292A2E"/>
</svg>
