<svg width="16" height="16" viewBox="0 0 16 16" fill="none" xmlns="http://www.w3.org/2000/svg">
<path fill-rule="evenodd" clip-rule="evenodd" d="M15 15H1V13.5H15V15Z" fill="#292A2E"/>
<path fill-rule="evenodd" clip-rule="evenodd" d="M3.65582 4.12588L5.36993 5.11553C6.40791 3.61101 7.70269 2.69073 8.78016 2.13949C8.82377 2.11718 8.86704 2.09546 8.90995 2.07432C6.94831 1.74564 4.91054 2.50623 3.65582 4.12588ZM10.5977 3.00082C10.2908 3.10114 9.89789 3.25256 9.46336 3.47487C8.57762 3.92802 7.52924 4.66986 6.67405 5.86846L10.076 7.83259C10.6865 6.49268 10.8047 5.21384 10.7543 4.22019C10.7296 3.73272 10.6642 3.31675 10.5977 3.00082ZM11.3802 8.58553L13.0943 9.57517C13.8696 7.67873 13.5094 5.53367 12.2439 3.99918C12.2471 4.04691 12.2499 4.09524 12.2524 4.14417C12.3137 5.3529 12.1641 6.93436 11.3802 8.58553ZM1.93787 4.00005C3.87086 0.651999 8.152 -0.495127 11.5 1.43787C14.8481 3.37087 15.9952 7.652 14.0622 11C13.8551 11.3588 13.3964 11.4817 13.0377 11.2746L8.27456 8.52457L4.52456 15.0198L3.22552 14.2698L6.97552 7.77457L2.21239 5.02457C1.85367 4.81746 1.73076 4.35877 1.93787 4.00005Z" fill="#292A2E"/>
</svg>
