<svg width="16" height="16" viewBox="0 0 16 16" fill="none" xmlns="http://www.w3.org/2000/svg">
<path d="M14.5 8C14.5 7.72386 14.2761 7.5 14 7.5H2C1.72386 7.5 1.5 7.72386 1.5 8V11.5H14.5V8ZM16 14H14.5V13H1.5V14H0V8C6.44266e-08 6.89543 0.895431 6 2 6H14C15.1046 6 16 6.89543 16 8V14Z" fill="#292A2E"/>
<path d="M13 4C13 3.72386 12.7761 3.5 12.5 3.5H8.75V6H13V4ZM3 6H7.25V3.5H3.5C3.22386 3.5 3 3.72386 3 4V6ZM14.5 6.75C14.5 7.16421 14.1642 7.5 13.75 7.5H2.25C1.83579 7.5 1.5 7.16421 1.5 6.75V4C1.5 2.89543 2.39543 2 3.5 2H12.5C13.6046 2 14.5 2.89543 14.5 4V6.75Z" fill="#292A2E"/>
</svg>
