<svg width="16" height="16" viewBox="0 0 16 16" fill="none" xmlns="http://www.w3.org/2000/svg">
<path d="M13 5.35938C13 4.05639 11.9436 3 10.6406 3C9.86175 3.00004 9.13306 3.38447 8.69336 4.02734L3.58398 11.5H8.75C11.0972 11.5 13 9.59721 13 7.25V5.35938ZM14.5 7.25C14.5 10.4256 11.9256 13 8.75 13H2.55859L1.24414 14.9229L0.00585938 14.0771L7.45508 3.18164C8.1743 2.12964 9.36627 1.50004 10.6406 1.5C12.772 1.5 14.5 3.22796 14.5 5.35938V7.25Z" fill="#292A2E"/>
<path d="M7.5 12.4023V15H6V12.4023H7.5ZM10.5 12.25V15H9V12.25H10.5Z" fill="#292A2E"/>
<path d="M13.3115 4.6414C13.5071 4.50045 13.7586 4.46165 13.9873 4.53789L15.4873 5.03789C15.7936 5.13997 16 5.42698 16 5.7498C16 6.07262 15.7936 6.35963 15.4873 6.46171L13.9873 6.96171C13.7586 7.03795 13.5071 6.99915 13.3115 6.8582C13.1159 6.71723 13 6.49088 13 6.2498V5.2498C13 5.00872 13.1159 4.78236 13.3115 4.6414Z" fill="#292A2E"/>
<path d="M10.75 4.5C11.1642 4.5 11.5 4.83579 11.5 5.25C11.5 5.66421 11.1642 6 10.75 6C10.3358 6 10 5.66421 10 5.25C10 4.83579 10.3358 4.5 10.75 4.5Z" fill="#292A2E"/>
<path d="M6.73242 5.79199L7.76758 4.70703L7.77148 4.71094C7.77324 4.71263 7.77585 4.71439 7.77832 4.7168C7.78326 4.72161 7.78925 4.72871 7.79688 4.73633C7.81216 4.7516 7.83248 4.7726 7.85742 4.79883C7.90758 4.85156 7.97612 4.92626 8.05664 5.02148C8.21731 5.21151 8.42938 5.48598 8.64062 5.83301C9.06026 6.52246 9.5 7.53306 9.5 8.75C9.5 11.359 7.09962 13 4.75 13H2.625V11.5H4.75C6.54251 11.5 8 10.2831 8 8.75C8 7.89588 7.68974 7.15606 7.35938 6.61328C7.19585 6.34462 7.03261 6.13279 6.91211 5.99023C6.8521 5.91925 6.80333 5.86551 6.77148 5.83203C6.75561 5.81534 6.74395 5.80352 6.7373 5.79688C6.73514 5.79472 6.73242 5.79199 6.73242 5.79199Z" fill="#292A2E"/>
</svg>
