<svg width="16" height="16" viewBox="0 0 16 16" fill="none" xmlns="http://www.w3.org/2000/svg">
<path d="M9.56055 15.8477C9.05525 15.9476 8.53332 16 8 16C7.46668 16 6.94475 15.9476 6.43945 15.8477L6.73047 14.376C7.14041 14.4571 7.56493 14.5 8 14.5C8.43507 14.5 8.85959 14.4571 9.26953 14.376L9.56055 15.8477ZM2.59473 11.6113C3.06937 12.3202 3.67982 12.9306 4.38867 13.4053L3.55469 14.6523C2.6826 14.0685 1.9315 13.3174 1.34766 12.4453L2.59473 11.6113ZM14.6523 12.4453C14.0685 13.3174 13.3174 14.0685 12.4453 14.6523L11.6113 13.4053C12.3202 12.9306 12.9306 12.3202 13.4053 11.6113L14.6523 12.4453ZM0 8C0 7.46668 0.05238 6.94475 0.152344 6.43945L1.62402 6.73047C1.54292 7.14041 1.5 7.56493 1.5 8C1.5 8.43507 1.54292 8.85959 1.62402 9.26953L0.152344 9.56055C0.0523801 9.05525 0 8.53332 0 8ZM14.5 8C14.5 7.56493 14.4571 7.14041 14.376 6.73047L15.8477 6.43945C15.9476 6.94475 16 7.46668 16 8C16 8.53332 15.9476 9.05525 15.8477 9.56055L14.376 9.26953C14.4571 8.85959 14.5 8.43507 14.5 8ZM4.38867 2.59473C3.67982 3.06937 3.06937 3.67982 2.59473 4.38867L1.34766 3.55469C1.9315 2.6826 2.6826 1.9315 3.55469 1.34766L4.38867 2.59473ZM12.4453 1.34766C13.3174 1.9315 14.0685 2.6826 14.6523 3.55469L13.4053 4.38867C12.9306 3.67982 12.3202 3.06937 11.6113 2.59473L12.4453 1.34766ZM8 0C8.53332 0 9.05525 0.05238 9.56055 0.152344L9.26953 1.62402C8.85959 1.54292 8.43507 1.5 8 1.5C7.56493 1.5 7.14041 1.54292 6.73047 1.62402L6.43945 0.152344C6.94475 0.0523801 7.46668 0 8 0Z" fill="#292A2E"/>
<path d="M8 6C9.10457 6 10 6.89543 10 8C10 9.10457 9.10457 10 8 10C6.89543 10 6 9.10457 6 8C6 6.89543 6.89543 6 8 6Z" fill="#292A2E"/>
</svg>
