<svg width="16" height="16" viewBox="0 0 16 16" fill="none" xmlns="http://www.w3.org/2000/svg">
<path d="M13.5 3C13.5 2.72386 13.2761 2.5 13 2.5H3C2.72386 2.5 2.5 2.72386 2.5 3V13C2.5 13.2761 2.72386 13.5 3 13.5H6V15H3C1.89543 15 1 14.1046 1 13V3C1 1.89543 1.89543 1 3 1H13C14.1046 1 15 1.89543 15 3V5H13.5V3Z" fill="#292A2E"/>
<path d="M14.9009 8.70971C16.3654 10.1742 16.3654 12.549 14.9009 14.0134L14.8755 14.0388L15.315 14.1853C15.6449 14.2953 15.856 14.6182 15.8247 14.9646C15.7934 15.3109 15.5284 15.5902 15.1841 15.6394L12.7095 15.9929C12.4758 16.0263 12.2397 15.9479 12.0728 15.781C11.9059 15.6141 11.8275 15.378 11.8609 15.1443L12.2144 12.6697L12.2427 12.5447C12.3338 12.2627 12.5861 12.0565 12.8892 12.029C13.2356 11.9978 13.5585 12.2088 13.6685 12.5388L13.815 12.9783L13.8404 12.9529C14.719 12.0742 14.719 10.6489 13.8404 9.77025L13.1333 9.06322L14.1939 8.00268L14.9009 8.70971ZM11.0825 6.73022C11.3162 6.69683 11.5523 6.7752 11.7193 6.94213C11.8862 7.10905 11.9646 7.34516 11.9312 7.57885L11.5777 10.0535C11.5284 10.3977 11.2492 10.6628 10.9029 10.6941C10.5564 10.7253 10.2336 10.5143 10.1236 10.1843L9.97707 9.74486L9.95168 9.77025C9.073 10.6489 9.073 12.0742 9.95168 12.9529L10.6587 13.6599L9.59817 14.7204L8.89114 14.0134C7.42667 12.549 7.42667 10.1742 8.89114 8.70971L8.91653 8.68432L8.47707 8.53783C8.14709 8.42784 7.93607 8.10496 7.96731 7.75854C7.99858 7.41218 8.26368 7.13296 8.60793 7.08373L11.0825 6.73022Z" fill="#292A2E"/>
</svg>
