<svg width="16" height="16" viewBox="0 0 16 16" fill="none" xmlns="http://www.w3.org/2000/svg">
<path fill-rule="evenodd" clip-rule="evenodd" d="M7.69007 0.317037C7.95805 0.195435 8.27239 0.241793 8.49386 0.43558L12.4939 3.93558C12.6566 4.078 12.75 4.28374 12.75 4.50001C12.75 4.71628 12.6566 4.92203 12.4939 5.06444L9.13893 8.00001L12.4939 10.9356C12.6566 11.078 12.75 11.2837 12.75 11.5C12.75 11.7163 12.6566 11.922 12.4939 12.0644L8.49386 15.5644C8.27239 15.7582 7.95805 15.8046 7.69007 15.683C7.42209 15.5614 7.24998 15.2943 7.24998 15V9.65284L4.49386 12.0644L3.5061 10.9356L6.86104 8.00001L3.5061 5.06444L4.49386 3.93558L7.24998 6.34719V1.00001C7.24998 0.705729 7.42209 0.43864 7.69007 0.317037ZM8.74998 9.65284L10.861 11.5L8.74998 13.3472V9.65284ZM8.74998 6.34719V2.65284L10.861 4.50001L8.74998 6.34719Z" fill="#44546F"/>
</svg>
