<svg width="16" height="16" viewBox="0 0 16 16" fill="none" xmlns="http://www.w3.org/2000/svg">
<path d="M6.6665 2C6.6665 2.55228 6.21879 3 5.6665 3C5.11422 3 4.6665 2.55228 4.6665 2C4.6665 1.44772 5.11422 1 5.6665 1C6.21879 1 6.6665 1.44772 6.6665 2Z" fill="#292A2E"/>
<path d="M5.6665 4C4.70001 4 3.9165 4.7835 3.9165 5.75C3.9165 6.7165 4.70001 7.5 5.6665 7.5C6.633 7.5 7.4165 6.7165 7.4165 5.75C7.4165 4.7835 6.633 4 5.6665 4Z" fill="#292A2E"/>
<path d="M5.6665 8.5C4.70001 8.5 3.9165 9.2835 3.9165 10.25C3.9165 11.2165 4.70001 12 5.6665 12C6.633 12 7.4165 11.2165 7.4165 10.25C7.4165 9.2835 6.633 8.5 5.6665 8.5Z" fill="#292A2E"/>
<path d="M10.1665 4C9.20001 4 8.4165 4.7835 8.4165 5.75C8.4165 6.7165 9.20001 7.5 10.1665 7.5C11.133 7.5 11.9165 6.7165 11.9165 5.75C11.9165 4.7835 11.133 4 10.1665 4Z" fill="#292A2E"/>
<path d="M10.1665 8.5C9.20001 8.5 8.4165 9.2835 8.4165 10.25C8.4165 11.2165 9.20001 12 10.1665 12C11.133 12 11.9165 11.2165 11.9165 10.25C11.9165 9.2835 11.133 8.5 10.1665 8.5Z" fill="#292A2E"/>
<path d="M5.6665 15C6.21879 15 6.6665 14.5523 6.6665 14C6.6665 13.4477 6.21879 13 5.6665 13C5.11422 13 4.6665 13.4477 4.6665 14C4.6665 14.5523 5.11422 15 5.6665 15Z" fill="#292A2E"/>
<path d="M3 5.75C3 6.30228 2.55228 6.75 2 6.75C1.44772 6.75 1 6.30228 1 5.75C1 5.19772 1.44772 4.75 2 4.75C2.55228 4.75 3 5.19772 3 5.75Z" fill="#292A2E"/>
<path d="M14 6.75C14.5523 6.75 15 6.30228 15 5.75C15 5.19772 14.5523 4.75 14 4.75C13.4477 4.75 13 5.19772 13 5.75C13 6.30228 13.4477 6.75 14 6.75Z" fill="#292A2E"/>
<path d="M3 10.25C3 10.8023 2.55228 11.25 2 11.25C1.44772 11.25 1 10.8023 1 10.25C1 9.69771 1.44772 9.25 2 9.25C2.55228 9.25 3 9.69771 3 10.25Z" fill="#292A2E"/>
<path d="M14 11.25C14.5523 11.25 15 10.8023 15 10.25C15 9.69771 14.5523 9.25 14 9.25C13.4477 9.25 13 9.69771 13 10.25C13 10.8023 13.4477 11.25 14 11.25Z" fill="#292A2E"/>
<path d="M11.1665 2C11.1665 2.55228 10.7188 3 10.1665 3C9.61422 3 9.1665 2.55228 9.1665 2C9.1665 1.44772 9.61422 1 10.1665 1C10.7188 1 11.1665 1.44772 11.1665 2Z" fill="#292A2E"/>
<path d="M10.1665 15C10.7188 15 11.1665 14.5523 11.1665 14C11.1665 13.4477 10.7188 13 10.1665 13C9.61422 13 9.1665 13.4477 9.1665 14C9.1665 14.5523 9.61422 15 10.1665 15Z" fill="#292A2E"/>
</svg>
