<svg width="16" height="16" viewBox="0 0 16 16" fill="none" xmlns="http://www.w3.org/2000/svg">
<path d="M7.99996 13.25H8.00049M8 15.5L8.00049 13.25M8.00059 4.87497L8.00049 13.25M8.00059 4.87497C8.00061 3.14909 9.39971 1.75001 11.1256 1.75001C11.4703 1.75001 13.5609 1.75 14.6267 1.75C14.9719 1.75 15.2505 2.02982 15.2505 2.375V12.625C15.2505 12.9702 14.9707 13.25 14.6255 13.25H8.00049M8.00059 4.87497C8.00057 3.14909 6.60126 1.75001 4.87539 1.75001C4.58607 1.75001 2.6273 1.75 1.37515 1.75C1.02997 1.75 0.75049 2.02982 0.75049 2.375C0.75049 5.79167 0.75049 9.20834 0.75049 12.625C0.75049 12.9702 1.03031 13.25 1.37549 13.25H8.00049M10.5 5.25001H13.25M10.5 7.75001H13.25" stroke="#44546F" stroke-width="1.5" stroke-linejoin="round"/>
</svg>
