<svg width="16" height="16" viewBox="0 0 16 16" fill="none" xmlns="http://www.w3.org/2000/svg">
<path fill-rule="evenodd" clip-rule="evenodd" d="M14.5 2.24991V12.2499H8.75001L8.7501 4.62489C8.7501 4.62488 8.7501 4.62489 8.7501 4.62489C8.75013 3.31323 9.81344 2.24991 11.1251 2.24991L14.5 2.24991ZM8.00007 2.33324C8.70534 1.37311 9.84244 0.749914 11.1251 0.749914L14.6262 0.749908C15.3875 0.749907 16 1.36741 16 2.12491V12.3749C16 13.1343 15.3844 13.7499 14.625 13.7499H8.74984L8.74951 15.2501L7.24951 15.2498L7.24984 13.7499H1.375C0.61561 13.7499 1.90735e-06 13.1343 1.90735e-06 12.3749V2.12491C1.90735e-06 1.36606 0.614728 0.749908 1.37466 0.749909L4.8749 0.749914C6.15753 0.749914 7.29472 1.3731 8.00007 2.33324ZM7.25001 12.2499L7.2501 4.62487C7.25009 3.31327 6.18663 2.24991 4.8749 2.24991L1.5 2.24991V12.2499H7.25001ZM13.2495 4.24991H10.4995V5.74991H13.2495V4.24991ZM13.2495 6.74991H10.4995V8.24991H13.2495V6.74991Z" fill="#44546F"/>
</svg>
