<svg width="16" height="16" viewBox="0 0 16 16" fill="none" xmlns="http://www.w3.org/2000/svg">
<path fill-rule="evenodd" clip-rule="evenodd" d="M14.5 2.24994V12.2499H8.75001L8.7501 4.62492C8.7501 4.62491 8.7501 4.62492 8.7501 4.62492C8.75013 3.31326 9.81344 2.24994 11.1251 2.24994L14.5 2.24994ZM8.00007 2.33327C8.70534 1.37314 9.84244 0.749944 11.1251 0.749944L14.6262 0.749939C15.3875 0.749938 16 1.36744 16 2.12494V12.3749C16 13.1343 15.3844 13.7499 14.625 13.7499H8.74984L8.74951 15.2501L7.24951 15.2498L7.24984 13.7499H1.375C0.61561 13.7499 1.90735e-06 13.1343 1.90735e-06 12.3749V2.12494C1.90735e-06 1.36609 0.614728 0.749939 1.37466 0.74994L4.8749 0.749944C6.15753 0.749944 7.29472 1.37313 8.00007 2.33327ZM7.25001 12.2499L7.2501 4.6249C7.25009 3.3133 6.18663 2.24994 4.8749 2.24994L1.5 2.24994V12.2499H7.25001ZM13.2495 4.24994H10.4995V5.74994H13.2495V4.24994ZM13.2495 6.74994H10.4995V8.24994H13.2495V6.74994Z" fill="#44546F"/>
</svg>
