<svg width="16" height="16" viewBox="0 0 16 16" fill="none" xmlns="http://www.w3.org/2000/svg">
<path d="M14.5 8C14.5 5.79086 12.7091 4 10.5 4H5.5C3.29086 4 1.5 5.79086 1.5 8C1.5 10.2091 3.29086 12 5.5 12H10.5C12.7091 12 14.5 10.2091 14.5 8ZM16 8C16 11.0376 13.5376 13.5 10.5 13.5H5.5C2.46243 13.5 0 11.0376 0 8C0 4.96243 2.46243 2.5 5.5 2.5H10.5C13.5376 2.5 16 4.96243 16 8Z" fill="#292A2E"/>
<path d="M5.5 5.25C7.01878 5.25 8.25 6.48122 8.25 8C8.25 9.51878 7.01878 10.75 5.5 10.75C3.98122 10.75 2.75 9.51878 2.75 8C2.75 6.48122 3.98122 5.25 5.5 5.25Z" fill="#292A2E"/>
</svg>
