<svg width="16" height="16" viewBox="0 0 16 16" fill="none" xmlns="http://www.w3.org/2000/svg">
<path fill-rule="evenodd" clip-rule="evenodd" d="M9.25 2V2.5H11.5C12.6046 2.5 13.5 3.39543 13.5 4.5V6.75H14C15.1046 6.75 16 7.64543 16 8.75C16 9.85457 15.1046 10.75 14 10.75H13.5V13C13.5 14.1046 12.6046 15 11.5 15H3C1.89543 15 1 14.1046 1 13V10.75C1 10.3358 1.33579 10 1.75 10H2.25C2.94036 10 3.5 9.44036 3.5 8.75C3.5 8.05964 2.94036 7.5 2.25 7.5H1.75C1.33579 7.5 1 7.16421 1 6.75V4.5C1 3.39543 1.89543 2.5 3 2.5H5.25V2C5.25 0.895431 6.14543 0 7.25 0C8.35457 0 9.25 0.895431 9.25 2ZM2.5 4.5C2.5 4.22386 2.72386 4 3 4H11.5C11.7761 4 12 4.22386 12 4.5V13C12 13.2761 11.7761 13.5 11.5 13.5H3C2.72386 13.5 2.5 13.2761 2.5 13V11.4888C3.90162 11.3625 5 10.1845 5 8.75C5 7.31549 3.90163 6.13752 2.5 6.01121V4.5Z" fill="#292A2E"/>
</svg>
