<svg width="16" height="16" viewBox="0 0 16 16" fill="none" xmlns="http://www.w3.org/2000/svg">
<path d="M12.75 11.6668L14.9168 9.5L16 10.5832L13.8332 12.75L16 14.9168L14.9168 16L12.75 13.8332L10.5832 16L9.5 14.9168L11.6668 12.75L9.5 10.5832L10.5832 9.5L12.75 11.6668Z" fill="#292A2E"/>
<path d="M13.5 3C13.5 2.72386 13.2761 2.5 13 2.5H3C2.72386 2.5 2.5 2.72386 2.5 3V13C2.5 13.2761 2.72386 13.5 3 13.5H7.55371V15H3C1.89543 15 1 14.1046 1 13V3C1 1.89543 1.89543 1 3 1H13C14.1046 1 15 1.89543 15 3V7.5H13.5V3Z" fill="#292A2E"/>
<path d="M6 4.5H4.5L4.5 0L6 6.55673e-08V4.5Z" fill="#292A2E"/>
<path d="M11.5 4.5H10V0L11.5 6.55673e-08V4.5Z" fill="#292A2E"/>
<path d="M2.5 7.5V6H13.5V7.5H2.5Z" fill="#292A2E"/>
</svg>
