<svg width="16" height="16" viewBox="0 0 16 16" fill="none" xmlns="http://www.w3.org/2000/svg">
<path d="M7.32909 0.242984C7.71874 -0.0751346 8.28124 -0.0751357 8.67089 0.242984L8.75096 0.315249L11.0596 2.62384C11.4741 3.03871 11.4741 3.71093 11.0596 4.1258L8.75096 6.43439C8.3361 6.84896 7.66388 6.84897 7.24901 6.43439L4.94042 4.1258C4.52584 3.71093 4.52584 3.03871 4.94042 2.62384L7.24901 0.315249L7.32909 0.242984ZM6.31053 3.37482L7.99999 5.06427L9.68944 3.37482L7.99999 1.68537L6.31053 3.37482Z" fill="#292A2E"/>
<path d="M7.32909 9.49298C7.71874 9.17487 8.28124 9.17486 8.67089 9.49298L8.75096 9.56525L11.0596 11.8738C11.4741 12.2887 11.4741 12.9609 11.0596 13.3758L8.75096 15.6844C8.3361 16.099 7.66388 16.099 7.24901 15.6844L4.94042 13.3758C4.52584 12.9609 4.52584 12.2887 4.94042 11.8738L7.24901 9.56525L7.32909 9.49298ZM6.31053 12.6248L7.99999 14.3143L9.68944 12.6248L7.99999 10.9354L6.31053 12.6248Z" fill="#292A2E"/>
<path d="M11.9541 4.86798C12.3437 4.54987 12.9062 4.54986 13.2959 4.86798L13.376 4.94025L15.6846 7.24884C16.0991 7.66371 16.0991 8.33593 15.6846 8.7508L13.376 11.0594C12.9611 11.474 12.2889 11.474 11.874 11.0594L9.56542 8.7508C9.15084 8.33593 9.15084 7.66371 9.56542 7.24884L11.874 4.94025L11.9541 4.86798ZM10.9355 7.99982L12.625 9.68927L14.3144 7.99982L12.625 6.31037L10.9355 7.99982Z" fill="#292A2E"/>
<path d="M2.70409 4.86798C3.09374 4.54987 3.65624 4.54986 4.04589 4.86798L4.12596 4.94025L6.43456 7.24884C6.84913 7.66371 6.84913 8.33593 6.43456 8.7508L4.12596 11.0594C3.7111 11.474 3.03888 11.474 2.62401 11.0594L0.315417 8.7508C-0.0991567 8.33593 -0.0991586 7.66371 0.315417 7.24884L2.62401 4.94025L2.70409 4.86798ZM1.68553 7.99982L3.37499 9.68927L5.06444 7.99982L3.37499 6.31037L1.68553 7.99982Z" fill="#292A2E"/>
</svg>
