<svg width="16" height="16" viewBox="0 0 16 16" fill="none" xmlns="http://www.w3.org/2000/svg">
<path d="M11.25 3C11.25 2.72386 11.0261 2.5 10.75 2.5H5.25C4.97386 2.5 4.75 2.72386 4.75 3V13C4.75 13.2761 4.97386 13.5 5.25 13.5H10.75C11.0261 13.5 11.25 13.2761 11.25 13V3ZM12.75 13C12.75 14.1046 11.8546 15 10.75 15H5.25C4.14543 15 3.25 14.1046 3.25 13V3C3.25 1.89543 4.14543 1 5.25 1H10.75C11.8546 1 12.75 1.89543 12.75 3V13Z" fill="#292A2E"/>
<path d="M14.5 2.75H16V13.25H14.5V2.75Z" fill="#292A2E"/>
<path d="M0 2.75H1.5V13.25H0V2.75Z" fill="#292A2E"/>
<path d="M9.44336 6.50108C9.69402 6.4876 9.9349 6.60063 10.085 6.80186L12.6016 10.1769L11.3984 11.0733L9.55566 8.60167L6.14551 14.381L4.85449 13.6192L8.83789 6.86925C8.96546 6.65311 9.19276 6.51464 9.44336 6.50108Z" fill="#292A2E"/>
<path d="M7 4C7.69036 4 8.25 4.55964 8.25 5.25C8.25 5.94036 7.69036 6.5 7 6.5C6.30964 6.5 5.75 5.94036 5.75 5.25C5.75 4.55964 6.30964 4 7 4Z" fill="#292A2E"/>
</svg>
