<svg width="16" height="16" viewBox="0 0 16 16" fill="none" xmlns="http://www.w3.org/2000/svg">
<path d="M2.15234 0.5C2.84151 0.5 3.41699 1.00815 3.51367 1.67676L3.52637 1.8125L3.55762 2.5H14.25C14.4705 2.5 14.6798 2.59741 14.8223 2.76562C14.9646 2.93373 15.0263 3.15579 14.9902 3.37305L14.251 7.80664C14.04 9.07219 12.9451 9.99977 11.6621 10H3.89844L3.94531 11.0225C3.95745 11.2895 4.17708 11.4999 4.44434 11.5H13V13H4.44434C3.37514 12.9999 2.49484 12.1589 2.44629 11.0908L2.03418 2H0V0.5H2.15234ZM3.83105 8.5H11.6621C12.2118 8.49977 12.6811 8.10188 12.7715 7.55957L13.3643 4H3.62598L3.83105 8.5Z" fill="#292A2E"/>
<path d="M3.5 14C4.05228 14 4.5 14.4477 4.5 15C4.5 15.5523 4.05228 16 3.5 16C2.94772 16 2.5 15.5523 2.5 15C2.5 14.4477 2.94772 14 3.5 14Z" fill="#292A2E"/>
<path d="M11 14C11.5523 14 12 14.4477 12 15C12 15.5523 11.5523 16 11 16C10.4477 16 10 15.5523 10 15C10 14.4477 10.4477 14 11 14Z" fill="#292A2E"/>
</svg>
