<svg width="16" height="16" viewBox="0 0 16 16" fill="none" xmlns="http://www.w3.org/2000/svg">
<path d="M1 13V1H2.5V13C2.5 13.2761 2.72386 13.5 3 13.5H15V15H3C1.89543 15 1 14.1046 1 13Z" fill="#292A2E"/>
<path d="M9.03027 8.03027L5.03027 12.0303L3.96973 10.9697L7.96973 6.96973L9.03027 8.03027Z" fill="#292A2E"/>
<path d="M10.25 5C10.6642 5 11 5.33579 11 5.75C11 6.16421 10.6642 6.5 10.25 6.5C9.83579 6.5 9.5 6.16421 9.5 5.75C9.5 5.33579 9.83579 5 10.25 5Z" fill="#292A2E"/>
<path d="M12.25 3C12.6642 3 13 3.33579 13 3.75C13 4.16421 12.6642 4.5 12.25 4.5C11.8358 4.5 11.5 4.16421 11.5 3.75C11.5 3.33579 11.8358 3 12.25 3Z" fill="#292A2E"/>
<path d="M14.25 1C14.6642 1 15 1.33579 15 1.75C15 2.16421 14.6642 2.5 14.25 2.5C13.8358 2.5 13.5 2.16421 13.5 1.75C13.5 1.33579 13.8358 1 14.25 1Z" fill="#292A2E"/>
</svg>
