<svg width="16" height="16" viewBox="0 0 16 16" fill="none" xmlns="http://www.w3.org/2000/svg">
<path d="M1 13V1H2.5V13C2.5 13.2761 2.72386 13.5 3 13.5H15V15H3C1.89543 15 1 14.1046 1 13Z" fill="#292A2E"/>
<path d="M7 2V4.5H7.75C8.16421 4.5 8.5 4.83579 8.5 5.25V9.25C8.5 9.66421 8.16421 10 7.75 10H7V12H5.5V10H4.75C4.33579 10 4 9.66421 4 9.25V5.25C4 4.83579 4.33579 4.5 4.75 4.5H5.5V2H7ZM5.5 8.5H7V6H5.5V8.5Z" fill="#292A2E"/>
<path d="M13 1V3H13.75L13.8271 3.00391C14.2051 3.04253 14.5 3.36183 14.5 3.75V8.25C14.5 8.66421 14.1642 9 13.75 9H13V12H11.5V9H10.75C10.3358 9 10 8.66421 10 8.25V3.75C10 3.33579 10.3358 3 10.75 3H11.5V1H13ZM11.5 7.5H13V4.5H11.5V7.5Z" fill="#292A2E"/>
</svg>
