<svg width="16" height="16" viewBox="0 0 16 16" fill="none" xmlns="http://www.w3.org/2000/svg">
<path d="M1 13V1H2.5V13C2.5 13.2761 2.72386 13.5 3 13.5H15V15H3C1.89543 15 1 14.1046 1 13Z" fill="#292A2E"/>
<path d="M14 3V4.5H11L7.2002 7.34961C7.07037 7.44698 6.91228 7.5 6.75 7.5H3.5V6H6.5L10.2998 3.15039C10.4296 3.05302 10.5877 3 10.75 3H14Z" fill="#292A2E"/>
<path d="M13.25 7C13.6642 7 14 7.33579 14 7.75V11.75C14 12.1642 13.6642 12.5 13.25 12.5H4.25C3.83579 12.5 3.5 12.1642 3.5 11.75V10.25C3.5 9.83579 3.83579 9.5 4.25 9.5H7.03516L10.8525 7.11426L10.9453 7.06445C11.0409 7.02199 11.1447 7 11.25 7H13.25Z" fill="#292A2E"/>
</svg>
