<svg width="16" height="16" viewBox="0 0 16 16" fill="none" xmlns="http://www.w3.org/2000/svg">
<path d="M1 13V1H2.5V13C2.5 13.2761 2.72386 13.5 3 13.5H15V15H3C1.89543 15 1 14.1046 1 13Z" fill="#292A2E"/>
<path d="M14 2V3.5H11.0322L7.24414 6.81445C7.10742 6.93408 6.93167 7 6.75 7H3.5V5.5H6.46777L10.2559 2.18555L10.3652 2.10645C10.4809 2.03732 10.6136 2 10.75 2H14Z" fill="#292A2E"/>
<path d="M5.25 10L5.32715 10.0039C5.70512 10.0425 6 10.3618 6 10.75V11.75C6 12.1642 5.66421 12.5 5.25 12.5H4.25C3.83579 12.5 3.5 12.1642 3.5 11.75V10.75C3.5 10.3358 3.83579 10 4.25 10H5.25ZM9.25 8L9.32715 8.00391C9.70512 8.04253 10 8.36183 10 8.75V11.75C10 12.1642 9.66421 12.5 9.25 12.5H8.25C7.83579 12.5 7.5 12.1642 7.5 11.75V8.75C7.5 8.33579 7.83579 8 8.25 8H9.25ZM13.25 6C13.6642 6 14 6.33579 14 6.75V11.75C14 12.1642 13.6642 12.5 13.25 12.5H12.25C11.8358 12.5 11.5 12.1642 11.5 11.75V6.75C11.5 6.33579 11.8358 6 12.25 6H13.25Z" fill="#292A2E"/>
</svg>
