<svg width="16" height="16" viewBox="0 0 16 16" fill="none" xmlns="http://www.w3.org/2000/svg">
<path d="M1 13V1H2.5V13C2.5 13.2761 2.72386 13.5 3 13.5H15V15H3C1.89543 15 1 14.1046 1 13Z" fill="#292A2E"/>
<path d="M13.25 2.5C13.6642 2.5 14 2.83579 14 3.25V3.9668C13.9999 4.36314 13.8286 4.73997 13.5303 5.00098L10 8.08984V12H8.5V8.08984L4.96973 5.00098C4.67144 4.73997 4.50012 4.36314 4.5 3.9668V3.25C4.5 2.83579 4.83579 2.5 5.25 2.5H13.25ZM9.25 6.75293L12.3965 4H6.10352L9.25 6.75293Z" fill="#292A2E"/>
</svg>
