<svg width="16" height="16" viewBox="0 0 16 16" fill="none" xmlns="http://www.w3.org/2000/svg">
<path d="M13 8.5C13 5.73858 10.7614 3.5 8 3.5C5.23858 3.5 3 5.73858 3 8.5C3 11.2614 5.23858 13.5 8 13.5C10.7614 13.5 13 11.2614 13 8.5ZM14.5 8.5C14.5 12.0899 11.5899 15 8 15C4.41015 15 1.5 12.0899 1.5 8.5C1.5 4.91015 4.41015 2 8 2C11.5899 2 14.5 4.91015 14.5 8.5Z" fill="#292A2E"/>
<path d="M8.5 5V8.26172L10.3047 9.06445L9.69531 10.4355L7.44531 9.43555C7.17447 9.31517 7 9.04639 7 8.75V5H8.5Z" fill="#292A2E"/>
<path d="M15.2441 2.68555L14.2559 3.81445L11.2559 1.18945L12.2441 0.0605469L15.2441 2.68555Z" fill="#292A2E"/>
<path d="M0.755859 2.68555L1.74414 3.81445L4.74414 1.18945L3.75586 0.0605469L0.755859 2.68555Z" fill="#292A2E"/>
<path d="M14.8145 14.0059L13.6855 14.9941L11.9355 12.9941L13.0645 12.0059L14.8145 14.0059Z" fill="#292A2E"/>
<path d="M1.18555 14.0059L2.31445 14.9941L4.06445 12.9941L2.93555 12.0059L1.18555 14.0059Z" fill="#292A2E"/>
</svg>
