<svg width="16" height="16" viewBox="0 0 16 16" fill="none" xmlns="http://www.w3.org/2000/svg">
<path d="M8 1.50008C9.25132 1.50008 10.409 1.89964 11.3527 2.57813L10.3272 3.69331C9.65855 3.255 8.85892 3.00008 8 3.00008C5.77041 3.00008 3.94117 4.71746 3.76409 6.90101C3.73811 7.2213 3.51098 7.48946 3.19932 7.56777C2.22249 7.81323 1.5 8.69822 1.5 9.75008C1.5 10.9927 2.50736 12.0001 3.75 12.0001H12C13.3807 12.0001 14.5 10.8808 14.5 9.50008C14.5 8.54445 13.9634 7.71276 13.1741 7.29211L14.1995 6.15877C15.2839 6.87395 16 8.10281 16 9.50008C16 11.7092 14.2091 13.5001 12 13.5001H3.75C1.67893 13.5001 0 11.8211 0 9.75008C0 8.18012 0.964193 6.83688 2.33198 6.2777C2.79429 3.56483 5.15568 1.50008 8 1.50008Z" fill="#292A2E"/>
<path d="M8.98165 9.99328L13.565 4.74328L12.435 3.75679L8.41873 8.35726L6.81676 6.50884L5.68323 7.49123L7.84989 9.99123C7.99204 10.1552 8.19827 10.2496 8.41531 10.25C8.63235 10.2504 8.83891 10.1568 8.98165 9.99328Z" fill="#292A2E"/>
</svg>
