<svg width="16" height="16" viewBox="0 0 16 16" fill="none" xmlns="http://www.w3.org/2000/svg">
<path fill-rule="evenodd" clip-rule="evenodd" d="M8 7C9.24264 7 10.25 8.00736 10.25 9.25V12C10.25 12.4142 9.91421 12.75 9.5 12.75H6.5C6.08579 12.75 5.75 12.4142 5.75 12V9.25C5.75 8.00736 6.75736 7 8 7ZM8 8.5C7.58579 8.5 7.25 8.83579 7.25 9.25V11.25H8.75V9.25C8.75 8.83579 8.41421 8.5 8 8.5Z" fill="#292A2E"/>
<path d="M13.5 1.5H12.5V2.75C12.5 3.16421 12.1642 3.5 11.75 3.5H9.25003C8.83582 3.5 8.50003 3.16421 8.50003 2.75V1.5H7.50003V2.75C7.50003 3.16421 7.16424 3.5 6.75003 3.5H4.25003C3.83582 3.5 3.50003 3.16421 3.50003 2.75V1.5H2.50003V5.23242C2.50008 5.36496 2.55279 5.49221 2.64651 5.58594L3.41409 6.35352C3.78912 6.72854 3.99998 7.23721 4.00003 7.76758V12.25C4.00003 12.3032 3.99464 12.3562 3.98343 12.4082L3.53128 14.5H12.4659L12.0166 12.4072C12.0056 12.3556 12 12.3028 12 12.25V7.76758C12.0001 7.23721 12.2109 6.72854 12.586 6.35352L13.3535 5.58594C13.4473 5.49221 13.5 5.36496 13.5 5.23242V1.5ZM15 5.23242C15 5.76279 14.7891 6.27146 14.4141 6.64648L13.6465 7.41406C13.5528 7.50779 13.5001 7.63504 13.5 7.76758V12.1699L13.9649 14.3369C14.1483 15.1928 13.4955 16 12.6201 16H3.37601C2.49982 15.9999 1.84741 15.1914 2.03226 14.335L2.50003 12.168V7.76758C2.49998 7.63504 2.44727 7.50779 2.35355 7.41406L1.58597 6.64648C1.21094 6.27146 1.00008 5.76279 1.00003 5.23242V0.75C1.00003 0.335786 1.33582 0 1.75003 0H4.25003C4.66424 0 5.00003 0.335786 5.00003 0.75V2H6.00003V0.75C6.00003 0.335786 6.33582 0 6.75003 0H9.25003C9.66424 0 10 0.335786 10 0.75V2H11V0.75C11 0.335786 11.3358 0 11.75 0H14.25C14.6642 0 15 0.335786 15 0.75V5.23242Z" fill="#292A2E"/>
</svg>
