<svg width="16" height="16" viewBox="0 0 16 16" fill="none" xmlns="http://www.w3.org/2000/svg">
<mask id="mask0_34979_10844" style="mask-type:alpha" maskUnits="userSpaceOnUse" x="0" y="0" width="16" height="16">
<path fill-rule="evenodd" clip-rule="evenodd" d="M16 0H0V16H16V14.9328L2.5975 1.53033L3.65816 0.469666L16 12.8115V0Z" fill="#44546F"/>
</mask>
<g mask="url(#mask0_34979_10844)">
<path d="M3.01654 6.84031L3.19932 7.5677C3.51098 7.48938 3.73811 7.22123 3.76409 6.90093L3.01654 6.84031ZM12.9252 6.38359L12.1864 6.51266C12.2354 6.79317 12.439 7.02173 12.7121 7.10266L12.9252 6.38359ZM12 12H3.75V13.5H12V12ZM3.75 12C2.50736 12 1.5 10.9926 1.5 9.75H0C0 11.8211 1.67893 13.5 3.75 13.5V12ZM1.5 9.75C1.5 8.69814 2.22249 7.81315 3.19932 7.5677L2.83377 6.11292C1.20599 6.52195 0 7.9942 0 9.75H1.5ZM3.76409 6.90093C3.94117 4.71739 5.77041 3 8 3V1.5C4.98263 1.5 2.50873 3.82365 2.269 6.77968L3.76409 6.90093ZM8 3C10.0953 3 11.8378 4.51699 12.1864 6.51266L13.664 6.25452C13.1921 3.55326 10.8366 1.5 8 1.5V3ZM12.7121 7.10266C13.7466 7.40933 14.5 8.36765 14.5 9.5H16C16 7.68537 14.7922 6.15478 13.1384 5.66452L12.7121 7.10266ZM14.5 9.5C14.5 10.8807 13.3807 12 12 12V13.5C14.2091 13.5 16 11.7091 16 9.5H14.5Z" fill="#44546F"/>
<path d="M1 1L15 15" stroke="#44546F" stroke-width="1.5" stroke-linejoin="round"/>
</g>
</svg>
