<svg width="16" height="16" viewBox="0 0 16 16" fill="none" xmlns="http://www.w3.org/2000/svg">
<path d="M8 1.50012C9.25132 1.50012 10.409 1.89968 11.3527 2.57817L10.3272 3.69335C9.65855 3.25504 8.85892 3.00012 8 3.00012C5.77041 3.00012 3.94117 4.71751 3.76409 6.90105C3.73811 7.22135 3.51098 7.4895 3.19932 7.56782C2.22249 7.81327 1.5 8.69826 1.5 9.75012C1.5 10.9928 2.50736 12.0001 3.75 12.0001H12C13.3807 12.0001 14.5 10.8808 14.5 9.50012C14.5 8.54449 13.9634 7.71281 13.1741 7.29216L14.1995 6.15882C15.2839 6.874 16 8.10285 16 9.50012C16 11.7093 14.2091 13.5001 12 13.5001H3.75C1.67893 13.5001 0 11.8212 0 9.75012C0 8.18017 0.964193 6.83692 2.33198 6.27774C2.79429 3.56487 5.15568 1.50012 8 1.50012Z" fill="#44546F"/>
<path d="M8.98165 9.99332L13.565 4.74332L12.435 3.75684L8.41873 8.3573L6.81676 6.50888L5.68323 7.49128L7.84989 9.99128C7.99204 10.1553 8.19827 10.2497 8.41531 10.2501C8.63235 10.2505 8.83891 10.1568 8.98165 9.99332Z" fill="#44546F"/>
</svg>
