<svg width="16" height="16" viewBox="0 0 16 16" fill="none" xmlns="http://www.w3.org/2000/svg">
<path d="M0.469666 1.53026L14.4697 15.5303L15.5303 14.4696L1.53033 0.469604L0.469666 1.53026Z" fill="#292A2E"/>
<path d="M8.81826 11.9999L10.3183 13.4999H3.75C1.67893 13.4999 0 11.8209 0 9.74988C0 8.17993 0.964193 6.83668 2.33197 6.2775C2.36801 6.06605 2.41558 5.85854 2.47402 5.65563L3.7597 6.94132C3.71867 7.24353 3.49775 7.49259 3.19932 7.56757C2.22249 7.81303 1.5 8.69802 1.5 9.74988C1.5 10.9925 2.50736 11.9999 3.75 11.9999H8.81826Z" fill="#292A2E"/>
<path d="M8 1.49988C7.03839 1.49988 6.13197 1.73588 5.33548 2.15313L6.46711 3.28476C6.94267 3.10078 7.45957 2.99988 8 2.99988C10.0953 2.99988 11.8378 4.51687 12.1864 6.51254C12.2354 6.79305 12.439 7.02161 12.7121 7.10254C13.7466 7.4092 14.5 8.36753 14.5 9.49988C14.5 10.0158 14.3437 10.4953 14.0758 10.8935L15.149 11.9667C15.6821 11.2871 16 10.4306 16 9.49988C16 7.84747 14.9985 6.4306 13.5707 5.82029C12.9349 3.33619 10.6826 1.49988 8 1.49988Z" fill="#292A2E"/>
</svg>
