<svg width="16" height="16" viewBox="0 0 16 16" fill="none" xmlns="http://www.w3.org/2000/svg">
<path d="M8 1.50006C9.25132 1.50006 10.409 1.89962 11.3527 2.57811L10.3272 3.69329C9.65855 3.25498 8.85892 3.00006 8 3.00006C5.77041 3.00006 3.94117 4.71745 3.76409 6.90099C3.73811 7.22129 3.51098 7.48944 3.19932 7.56775C2.22249 7.81321 1.5 8.6982 1.5 9.75006C1.5 10.9927 2.50736 12.0001 3.75 12.0001H12C13.3807 12.0001 14.5 10.8808 14.5 9.50006C14.5 8.54443 13.9634 7.71275 13.1741 7.2921L14.1995 6.15876C15.2839 6.87394 16 8.10279 16 9.50006C16 11.7092 14.2091 13.5001 12 13.5001H3.75C1.67893 13.5001 0 11.8211 0 9.75006C0 8.18011 0.964193 6.83686 2.33198 6.27768C2.79429 3.56481 5.15568 1.50006 8 1.50006Z" fill="#44546F"/>
<path d="M8.98165 9.99326L13.565 4.74326L12.435 3.75677L8.41873 8.35724L6.81676 6.50882L5.68323 7.49122L7.84989 9.99122C7.99204 10.1552 8.19827 10.2496 8.41531 10.25C8.63235 10.2504 8.83891 10.1568 8.98165 9.99326Z" fill="#44546F"/>
</svg>
