<svg width="16" height="16" viewBox="0 0 16 16" fill="none" xmlns="http://www.w3.org/2000/svg">
<path fill-rule="evenodd" clip-rule="evenodd" d="M0.46967 1.53026L3.1304 4.19099C2.73719 4.81573 2.46082 5.52147 2.33197 6.27756C0.964193 6.83673 0 8.17998 0 9.74993C0 11.821 1.67893 13.4999 3.75 13.4999H12C12.1411 13.4999 12.2805 13.4926 12.4178 13.4784L14.4697 15.5303L15.5303 14.4696L14.0161 12.9554L14.0202 12.953L12.9002 11.833L12.8955 11.8348L5.15412 4.09339L5.15753 4.09032L4.09578 3.02858L4.09242 3.03169L1.53033 0.469604L0.46967 1.53026ZM3.76409 6.90087C3.81094 6.32321 3.97341 5.77818 4.22834 5.28894L10.9393 11.9999H3.75C2.50736 11.9999 1.5 10.9926 1.5 9.74993C1.5 8.69807 2.22249 7.81309 3.19932 7.56763C3.51098 7.48932 3.73811 7.22116 3.76409 6.90087Z" fill="#44546F"/>
<path d="M5.33958 2.15105L6.47161 3.28308C6.94593 3.1002 7.46128 2.99993 8 2.99993C10.0953 2.99993 11.8378 4.51692 12.1864 6.51259C12.2354 6.79311 12.439 7.02167 12.7121 7.1026C13.7466 7.40926 14.5 8.36759 14.5 9.49993C14.5 10.0143 14.3447 10.4924 14.0783 10.8898L15.1518 11.9632C15.6832 11.2842 16 10.4291 16 9.49993C16 7.84753 14.9985 6.43066 13.5707 5.82035C12.9349 3.33625 10.6826 1.49993 8 1.49993C7.04004 1.49993 6.13508 1.73513 5.33958 2.15105Z" fill="#44546F"/>
</svg>
