<svg width="16" height="16" viewBox="0 0 16 16" fill="none" xmlns="http://www.w3.org/2000/svg">
<path d="M14.5 10C14.5 8.86737 13.7456 7.90877 12.71 7.60254C12.4369 7.52166 12.2326 7.29326 12.1836 7.0127C11.8347 5.01673 10.0946 3.5 8 3.5C5.76997 3.5 3.94177 5.21856 3.76562 7.40332C3.7397 7.72369 3.51195 7.99202 3.2002 8.07031C2.22226 8.31595 1.5 9.19908 1.5 10.25C1.5 11.4926 2.50736 12.5 3.75 12.5H12C13.3807 12.5 14.5 11.3807 14.5 10ZM16 10C16 12.2091 14.2091 14 12 14H3.75C1.67893 14 0 12.3211 0 10.25C0 8.67939 0.966002 7.34083 2.33301 6.78223C2.79336 4.06738 5.15392 2 8 2C10.6838 2 12.9336 3.83838 13.5684 6.32324C14.9966 6.9331 16 8.34694 16 10Z" fill="#292A2E"/>
</svg>
