<svg width="16" height="16" viewBox="0 0 16 16" fill="none" xmlns="http://www.w3.org/2000/svg">
<path d="M0.469666 1.53028L14.4697 15.5303L15.5303 14.4696L1.53033 0.46962L0.469666 1.53028Z" fill="#292A2E"/>
<path d="M8.81826 11.9999L10.3183 13.4999H3.75C1.67893 13.4999 0 11.821 0 9.74989C0 8.17994 0.964193 6.83669 2.33197 6.27751C2.36801 6.06606 2.41558 5.85855 2.47402 5.65565L3.7597 6.94133C3.71867 7.24355 3.49775 7.4926 3.19932 7.56759C2.22249 7.81305 1.5 8.69803 1.5 9.74989C1.5 10.9925 2.50736 11.9999 3.75 11.9999H8.81826Z" fill="#292A2E"/>
<path d="M8 1.49989C7.03839 1.49989 6.13197 1.73589 5.33548 2.15315L6.46711 3.28478C6.94267 3.10079 7.45957 2.99989 8 2.99989C10.0953 2.99989 11.8378 4.51688 12.1864 6.51255C12.2354 6.79306 12.439 7.02163 12.7121 7.10256C13.7466 7.40922 14.5 8.36755 14.5 9.49989C14.5 10.0159 14.3437 10.4953 14.0758 10.8935L15.149 11.9667C15.6821 11.2871 16 10.4306 16 9.49989C16 7.84749 14.9985 6.43061 13.5707 5.82031C12.9349 3.33621 10.6826 1.49989 8 1.49989Z" fill="#292A2E"/>
</svg>
