<svg width="16" height="16" viewBox="0 0 16 16" fill="none" xmlns="http://www.w3.org/2000/svg">
<path fill-rule="evenodd" clip-rule="evenodd" d="M10 2.5C8.82887 2.5 7.79193 3.07447 7.15539 3.96029L5.93727 3.08497C6.8435 1.82383 8.32555 1 10 1C12.7614 1 15 3.23858 15 6C15 7.67445 14.1762 9.1565 12.915 10.0627L12.0397 8.84462C12.9255 8.20808 13.5 7.17113 13.5 6C13.5 4.067 11.933 2.5 10 2.5ZM6 6.5C4.067 6.5 2.5 8.067 2.5 10C2.5 11.933 4.067 13.5 6 13.5C7.933 13.5 9.5 11.933 9.5 10C9.5 8.067 7.933 6.5 6 6.5ZM1 10C1 7.23858 3.23858 5 6 5C8.76142 5 11 7.23858 11 10C11 12.7614 8.76142 15 6 15C3.23858 15 1 12.7614 1 10Z" fill="#292A2E"/>
</svg>
