<svg width="16" height="16" viewBox="0 0 16 16" fill="none" xmlns="http://www.w3.org/2000/svg">
<path fill-rule="evenodd" clip-rule="evenodd" d="M12.781 13.8418L14.4697 15.5304L15.5303 14.4697L13.8417 12.7811C13.8424 12.7796 13.843 12.7781 13.8436 12.7766L12.5 11.4329V11.4394L4.5606 3.5H4.56709L3.22344 2.15635C3.22192 2.157 3.2204 2.15764 3.21888 2.15828L1.53033 0.469727L0.469666 1.53039L2.15825 3.21897C2.05636 3.45892 2 3.72288 2 4V12C2 13.1046 2.89543 14 4 14H12C12.2771 14 12.5411 13.9436 12.781 13.8418ZM11.4393 12.5L3.5 4.56072V12C3.5 12.2761 3.72386 12.5 4 12.5H11.4393ZM14 4V10.8116L12.5 9.31159V4C12.5 3.72386 12.2761 3.5 12 3.5H6.68841L5.18841 2H12C13.1046 2 14 2.89543 14 4Z" fill="#44546F"/>
</svg>
