<svg width="16" height="16" viewBox="0 0 16 16" fill="none" xmlns="http://www.w3.org/2000/svg">
<path fill-rule="evenodd" clip-rule="evenodd" d="M12.781 13.8416L14.4697 15.5303L15.5303 14.4696L13.8417 12.781L13.8437 12.7764L12.5 11.4328V11.4393L4.56061 3.49988H4.56709L3.22345 2.15623L3.21889 2.15816L1.53033 0.469604L0.469673 1.53026L2.15825 3.21885C2.05637 3.4588 2.00001 3.72276 2.00001 3.99988V11.9999C2.00001 13.1044 2.89544 13.9999 4.00001 13.9999H12C12.2771 13.9999 12.5411 13.9435 12.781 13.8416ZM11.4393 12.4999L3.50001 4.5606V11.9999C3.50001 12.276 3.72387 12.4999 4.00001 12.4999H11.4393Z" fill="#44546F"/>
<path d="M14 3.99988V10.8115L12.5 9.31147V3.99988C12.5 3.72374 12.2761 3.49988 12 3.49988H6.68841L5.18841 1.99988H12C13.1046 1.99988 14 2.89531 14 3.99988Z" fill="#44546F"/>
</svg>
