<svg width="16" height="16" viewBox="0 0 16 16" fill="none" xmlns="http://www.w3.org/2000/svg">
<path d="M12.5 12.75C12.5 12.3358 12.1642 12 11.75 12C11.3358 12 11 12.3358 11 12.75C11 13.1642 11.3358 13.5 11.75 13.5C12.1642 13.5 12.5 13.1642 12.5 12.75ZM5 4.25C5 3.83579 4.66421 3.5 4.25 3.5C3.83579 3.5 3.5 3.83579 3.5 4.25C3.5 4.66421 3.83579 5 4.25 5C4.66421 5 5 4.66421 5 4.25ZM14 12.75C14 13.9926 12.9926 15 11.75 15C10.5074 15 9.5 13.9926 9.5 12.75C9.5 11.7707 10.1266 10.94 11 10.6309V5.25C11 4.55964 10.4404 4 9.75 4H8V2.5H9.75C11.2688 2.5 12.5 3.73122 12.5 5.25V10.6309C13.3734 10.94 14 11.7707 14 12.75ZM6.5 4.25C6.5 5.22922 5.87327 6.05895 5 6.36816V11.75C5 12.4404 5.55964 13 6.25 13H8V14.5H6.25C4.82618 14.5 3.65553 13.4179 3.51465 12.0312L3.5 11.75V6.36816C2.62673 6.05895 2 5.22922 2 4.25C2 3.00736 3.00736 2 4.25 2C5.49264 2 6.5 3.00736 6.5 4.25Z" fill="#44546F"/>
</svg>
