<svg width="16" height="16" viewBox="0 0 16 16" fill="none" xmlns="http://www.w3.org/2000/svg">
<path d="M9.25024 4.25C9.25024 3.55974 8.69047 3.00015 8.00024 3C7.30989 3 6.75024 3.55964 6.75024 4.25C6.75024 4.74235 7.0344 5.1699 7.45142 5.37402L7.57935 5.42773C7.71013 5.47445 7.85175 5.5 8.00024 5.5C8.19826 5.49996 8.38357 5.4545 8.5481 5.37402L8.69849 5.28711C9.03224 5.06183 9.25024 4.68074 9.25024 4.25ZM8.48657 6.95605C8.32844 6.98435 8.16598 6.99998 8.00024 7C7.83427 7 7.67129 6.98442 7.51294 6.95605L6.17212 9.7002C6.74671 9.89279 7.36101 10 8.00024 10C8.63902 9.99997 9.25218 9.89158 9.82642 9.69922L8.48657 6.95605ZM10.7502 4.25C10.7502 5.06443 10.3954 5.79485 9.83423 6.29785L11.175 9.04199C12.0522 8.45971 12.7621 7.64505 13.2122 6.68262L14.5706 7.31738C13.9757 8.58962 13.0212 9.66049 11.8381 10.4004L13.9241 14.6709L12.5764 15.3291L10.4905 11.0596C9.71389 11.3437 8.87546 11.5 8.00024 11.5C7.12479 11.5 6.2858 11.3438 5.50903 11.0596L3.42407 15.3291L2.07642 14.6709L4.16138 10.4004C2.97847 9.6605 2.02379 8.58952 1.42896 7.31738L2.78833 6.68262C3.23842 7.64501 3.94733 8.46073 4.82446 9.04297L6.16431 6.29785C5.60355 5.79487 5.25024 5.06406 5.25024 4.25C5.25024 2.99131 6.09612 1.93202 7.25024 1.60547V0H8.75024V1.60645C9.90397 1.93325 10.7502 2.9916 10.7502 4.25Z" fill="#292A2E"/>
</svg>
