<svg width="16" height="16" viewBox="0 0 16 16" fill="none" xmlns="http://www.w3.org/2000/svg">
<path fill-rule="evenodd" clip-rule="evenodd" d="M5.10311 1L10.8968 1L15 5.10313V10.8969L10.8968 15H5.10311L0.999977 10.8969L0.999977 5.10313L5.10311 1ZM5.72443 2.5L4.64253 3.5819L7.99998 6.93934L11.3574 3.5819L10.2755 2.5L5.72443 2.5ZM12.4181 4.64256L9.06064 8L12.4181 11.3574L13.5 10.2755V5.72445L12.4181 4.64256ZM11.3574 12.4181L7.99998 9.06066L4.64253 12.4181L5.72443 13.5H10.2755L11.3574 12.4181ZM3.58187 11.3574L6.93932 8L3.58187 4.64256L2.49998 5.72445L2.49998 10.2755L3.58187 11.3574Z" fill="#44546F"/>
</svg>
