<svg width="16" height="16" viewBox="0 0 16 16" fill="none" xmlns="http://www.w3.org/2000/svg">
<path fill-rule="evenodd" clip-rule="evenodd" d="M0.5 4.875C0.5 2.7349 2.2349 1 4.375 1H11.625C13.7651 1 15.5 2.7349 15.5 4.875C15.5 6.15764 14.8768 7.29472 13.9167 8C14.8768 8.70528 15.5 9.84236 15.5 11.125C15.5 13.2651 13.7651 15 11.625 15H4.375C2.2349 15 0.5 13.2651 0.5 11.125C0.5 9.84236 1.12318 8.70528 2.08328 8C1.12318 7.29472 0.5 6.15764 0.5 4.875ZM4.375 8.75C3.06332 8.75 2 9.81332 2 11.125C2 12.4367 3.06332 13.5 4.375 13.5H11.625C12.9367 13.5 14 12.4367 14 11.125C14 9.81332 12.9367 8.75 11.625 8.75H4.375ZM11.625 7.25C12.9367 7.25 14 6.18668 14 4.875C14 3.56332 12.9367 2.5 11.625 2.5H4.375C3.06332 2.5 2 3.56332 2 4.875C2 6.18668 3.06332 7.25 4.375 7.25H11.625ZM5.5 5.625H4V4.125H5.5V5.625ZM12 5.625H8V4.125H12V5.625ZM5.5 11.875H4V10.375H5.5V11.875ZM12 11.875H8V10.375H12V11.875Z" fill="#44546F"/>
</svg>
