<svg width="16" height="16" viewBox="0 0 16 16" fill="none" xmlns="http://www.w3.org/2000/svg">
<path d="M13.5 4C13.5 3.99326 13.4981 3.8874 13.2725 3.69531C13.0498 3.50583 12.6832 3.30078 12.165 3.11426C11.1349 2.7435 9.66242 2.5 8 2.5C6.33758 2.5 4.86507 2.7435 3.83496 3.11426C3.31684 3.30078 2.95023 3.50583 2.72754 3.69531C2.50186 3.8874 2.5 3.99326 2.5 4C2.5 4.00674 2.50186 4.1126 2.72754 4.30469C2.95023 4.49417 3.31684 4.69922 3.83496 4.88574C4.86507 5.2565 6.33758 5.5 8 5.5C9.66242 5.5 11.1349 5.2565 12.165 4.88574C12.6832 4.69922 13.0498 4.49417 13.2725 4.30469C13.4981 4.1126 13.5 4.00674 13.5 4ZM15 7.5H13.5V5.9375C13.2445 6.0712 12.9667 6.19142 12.6738 6.29688C11.4419 6.74037 9.78913 7 8 7C6.21087 7 4.5581 6.74037 3.32617 6.29688C3.03326 6.19142 2.75549 6.0712 2.5 5.9375V8C2.5 8.00674 2.50186 8.1126 2.72754 8.30469C2.95023 8.49417 3.31684 8.69922 3.83496 8.88574C4.86507 9.2565 6.33758 9.5 8 9.5V11C6.21087 11 4.5581 10.7404 3.32617 10.2969C3.03326 10.1914 2.75549 10.0712 2.5 9.9375V11.25C2.5 11.6778 2.85169 12.2354 3.89941 12.7275C4.90584 13.2003 6.35315 13.5 8 13.5V15C6.19509 15 4.51735 14.6747 3.26172 14.085C2.04741 13.5146 1 12.5722 1 11.25V4C1 3.38542 1.34803 2.89902 1.75488 2.55273C2.16468 2.20396 2.71353 1.9237 3.32617 1.70312C4.5581 1.25963 6.21087 1 8 1C9.78913 1 11.4419 1.25963 12.6738 1.70312C13.2865 1.9237 13.8353 2.20396 14.2451 2.55273C14.652 2.89902 15 3.38542 15 4V7.5Z" fill="#292A2E"/>
<path fill-rule="evenodd" clip-rule="evenodd" d="M12.4453 8.81461C12.6711 8.71423 12.9352 8.7308 13.1484 8.86441L15.6484 10.4328C15.8671 10.5699 15.9999 10.8104 16 11.0685V13.6818C16 13.9399 15.8671 14.1803 15.6484 14.3175L13.1484 15.8859C12.9049 16.0386 12.5951 16.0386 12.3516 15.8859L9.85156 14.3175C9.63292 14.1803 9.5 13.9399 9.5 13.6818V11.0685L9.50586 10.9728C9.53424 10.752 9.66018 10.5528 9.85156 10.4328L12.3516 8.86441L12.4453 8.81461ZM11 11.4826V13.2668L12.75 14.3644L14.5 13.2668V11.4826L12.75 10.3849L11 11.4826Z" fill="#292A2E"/>
</svg>
