<svg width="16" height="16" viewBox="0 0 16 16" fill="none" xmlns="http://www.w3.org/2000/svg">
<path d="M9 0C10.3807 0 11.5 1.11929 11.5 2.5H10C10 1.94772 9.55228 1.5 9 1.5H8.87988C8.3205 1.5 7.84709 1.91271 7.77051 2.4668L7.35254 5.5H10V7H7.14551L6.21582 13.7383C6.03684 15.0345 4.92871 16 3.62012 16C2.17307 16 1 14.8269 1 13.3799V13H2.5V13.3799C2.5 13.9985 3.00149 14.5 3.62012 14.5C4.1795 14.5 4.65292 14.0873 4.72949 13.5332L5.63086 7H4V5.5H5.83789L6.28418 2.26172C6.46316 0.965466 7.57129 0 8.87988 0H9Z" fill="#292A2E"/>
<path d="M15.0518 9.00781L12.6602 11.6064L14.6084 14.3115L13.3916 15.1885L11.624 12.7334L9.30176 15.2578L8.19824 14.2422L10.7285 11.4902L8.8916 8.93848L10.1084 8.06152L11.7656 10.3633L13.9482 7.99219L15.0518 9.00781Z" fill="#292A2E"/>
</svg>
