<svg width="16" height="16" viewBox="0 0 16 16" fill="none" xmlns="http://www.w3.org/2000/svg">
<path d="M11.5 10H14V12C14 12.2761 13.7761 12.5 13.5 12.5H12C11.7239 12.5 11.5 12.2761 11.5 12V10ZM14 8.5H11.5V6H14V8.5ZM10 4.5H7.5V2H10V4.5ZM3.5 2.5C3.5 2.22386 3.72386 2 4 2H6V4.5H4C3.72386 4.5 3.5 4.27614 3.5 4V2.5ZM14 4.5H11.5V2H13.5C13.7761 2 14 2.22386 14 2.5V4.5ZM2 4C2 5.10457 2.89543 6 4 6H10V12C10 13.1046 10.8954 14 12 14H13.5C14.6046 14 15.5 13.1046 15.5 12V2.5C15.5 1.39543 14.6046 0.5 13.5 0.5H4C2.89543 0.5 2 1.39543 2 2.5V4Z" fill="#292A2E"/>
<path d="M3.5 13H5.28711L5.0791 12.585C4.92381 12.2739 5.00259 11.8966 5.26953 11.6738C5.53657 11.4511 5.92201 11.4418 6.2002 11.6504L8.2002 13.1504L8.26758 13.207C8.41514 13.3477 8.5 13.5436 8.5 13.75C8.5 13.9859 8.38886 14.208 8.2002 14.3496L6.2002 15.8496C5.92201 16.0582 5.53657 16.0489 5.26953 15.8262C5.00259 15.6034 4.92381 15.2261 5.0791 14.915L5.28711 14.5H3.5C2.39543 14.5 1.5 13.6046 1.5 12.5L1.5 8H3L3 12.5C3 12.7761 3.22386 13 3.5 13Z" fill="#292A2E"/>
</svg>
