<svg width="16" height="16" viewBox="0 0 16 16" fill="none" xmlns="http://www.w3.org/2000/svg">
<path d="M4.375 8H11.625M4.375 8C2.64911 8 1.25 6.60089 1.25 4.875C1.25 3.14911 2.64911 1.75 4.375 1.75H11.625C13.3509 1.75 14.75 3.14911 14.75 4.875C14.75 6.60089 13.3509 8 11.625 8M4.375 8C2.64911 8 1.25 9.39911 1.25 11.125C1.25 12.8509 2.64911 14.25 4.375 14.25H11.625C13.3509 14.25 14.75 12.8509 14.75 11.125C14.75 9.39911 13.3509 8 11.625 8M4 4.875H5.5M8 4.875H12M4 11.125H5.5M8 11.125H12" stroke="#44546F" stroke-width="1.5" stroke-linejoin="round"/>
</svg>
