<svg width="16" height="16" viewBox="0 0 16 16" fill="none" xmlns="http://www.w3.org/2000/svg">
<path fill-rule="evenodd" clip-rule="evenodd" d="M0.5 4.875C0.5 2.7349 2.2349 1 4.375 1H11.625C13.7651 1 15.5 2.7349 15.5 4.875V5.625H14V4.875C14 3.56332 12.9367 2.5 11.625 2.5H4.375C3.06332 2.5 2 3.56332 2 4.875C2 6.18668 3.06332 7.25 4.375 7.25H8V8.75H4.375C3.06332 8.75 2 9.81332 2 11.125C2 12.4367 3.06332 13.5 4.375 13.5H8V15H4.375C2.2349 15 0.5 13.2651 0.5 11.125C0.5 9.84236 1.12318 8.70528 2.08328 8C1.12318 7.29472 0.5 6.15764 0.5 4.875ZM5.5 5.625H4V4.125H5.5V5.625ZM12 5.625H8V4.125H12V5.625ZM5.5 11.875H4V10.375H5.5V11.875Z" fill="#44546F"/>
<path fill-rule="evenodd" clip-rule="evenodd" d="M9.5 8C9.5 7.58579 9.83579 7.25 10.25 7.25H15.25C15.6642 7.25 16 7.58579 16 8V8.92195C16 9.50869 15.7424 10.0658 15.2953 10.4458L13.908 11.625L15.2953 12.8042C15.7424 13.1842 16 13.7413 16 14.3281V15.25C16 15.6642 15.6642 16 15.25 16H10.25C9.83579 16 9.5 15.6642 9.5 15.25V14.3281C9.5 13.7413 9.75765 13.1842 10.2047 12.8042L11.592 11.625L10.2047 10.4458C9.75765 10.0658 9.5 9.50869 9.5 8.92195V8ZM12.75 10.6407L14.3238 9.30292C14.4356 9.20792 14.5 9.06863 14.5 8.92195V8.75H11V8.92195C11 9.06863 11.0644 9.20792 11.1762 9.30292L12.75 10.6407ZM12.75 12.6093L11.1762 13.9471C11.0644 14.0421 11 14.1814 11 14.3281V14.5H14.5V14.3281C14.5 14.1814 14.4356 14.0421 14.3238 13.9471L12.75 12.6093Z" fill="#44546F"/>
</svg>
