<svg width="16" height="16" viewBox="0 0 16 16" fill="none" xmlns="http://www.w3.org/2000/svg">
<path d="M14.5 3C14.5 2.75829 14.3286 2.55629 14.1006 2.50977L14 2.5H2C1.72386 2.5 1.5 2.72386 1.5 3V13C1.5 13.2761 1.72386 13.5 2 13.5H14C14.2761 13.5 14.5 13.2761 14.5 13V3ZM16 13C16 14.1046 15.1046 15 14 15H2C0.895431 15 1.00665e-08 14.1046 0 13V3C1.61066e-07 1.89543 0.89543 1 2 1H14L14.2041 1.01074C15.2128 1.113 16 1.96435 16 3V13Z" fill="#292A2E"/>
<path d="M5 6H6V7.5H5V6ZM7.5 5.875C7.5 5.11561 6.88439 4.5 6.125 4.5H4.875C4.11561 4.5 3.5 5.11561 3.5 5.875V7.625C3.5 8.38439 4.11561 9 4.875 9H6V10H4V11.5H6.125C6.88439 11.5 7.5 10.8844 7.5 10.125V5.875Z" fill="#292A2E"/>
<path d="M11.0003 6.5C11.2227 6.50009 11.434 6.59873 11.5765 6.76953L12.8265 8.26953C13.0126 8.49305 13.0523 8.80491 12.929 9.06836C12.8055 9.33158 12.541 9.49988 12.2503 9.5H9.7503C9.45947 9.5 9.19512 9.33161 9.07159 9.06836C8.94815 8.80482 8.98783 8.49309 9.17413 8.26953L10.4241 6.76953L10.4808 6.70898C10.6196 6.57569 10.8057 6.5 11.0003 6.5Z" fill="#292A2E"/>
</svg>
