<svg width="16" height="16" viewBox="0 0 16 16" fill="none" xmlns="http://www.w3.org/2000/svg">
<path d="M4.5 10H2V12C2 12.2761 2.22386 12.5 2.5 12.5H4C4.27614 12.5 4.5 12.2761 4.5 12V10ZM2 8.5H4.5V6H2V8.5ZM6 4.5H8.5V2H6V4.5ZM12.5 2.5C12.5 2.22386 12.2761 2 12 2H10V4.5H12C12.2761 4.5 12.5 4.27614 12.5 4V2.5ZM2 4.5H4.5V2H2.5C2.22386 2 2 2.22386 2 2.5V4.5ZM14 4C14 5.10457 13.1046 6 12 6H6V12C6 13.1046 5.10457 14 4 14H2.5C1.39543 14 0.5 13.1046 0.5 12V2.5C0.5 1.39543 1.39543 0.5 2.5 0.5H12C13.1046 0.5 14 1.39543 14 2.5V4Z" fill="#292A2E"/>
<path d="M9.7998 11.6504C10.078 11.4418 10.4634 11.4511 10.7305 11.6738C10.9974 11.8966 11.0762 12.2739 10.9209 12.585L10.7139 13H12.5C12.7761 13 13 12.7761 13 12.5V10.7129L12.585 10.9209C12.2739 11.0762 11.8966 10.9974 11.6738 10.7305C11.4511 10.4634 11.4418 10.078 11.6504 9.7998L13.1504 7.7998L13.207 7.73242C13.3477 7.58486 13.5436 7.5 13.75 7.5C13.9859 7.5 14.208 7.61114 14.3496 7.7998L15.8496 9.7998C16.0582 10.078 16.0489 10.4634 15.8262 10.7305C15.6034 10.9974 15.2261 11.0762 14.915 10.9209L14.5 10.7129V12.5C14.5 13.6046 13.6046 14.5 12.5 14.5H10.7139L10.9209 14.915C11.0762 15.2261 10.9974 15.6034 10.7305 15.8262C10.4634 16.0489 10.078 16.0582 9.7998 15.8496L7.7998 14.3496C7.61114 14.208 7.5 13.9859 7.5 13.75C7.5 13.5141 7.61114 13.292 7.7998 13.1504L9.7998 11.6504Z" fill="#292A2E"/>
</svg>
