<svg width="16" height="16" viewBox="0 0 16 16" fill="none" xmlns="http://www.w3.org/2000/svg">
<path fill-rule="evenodd" clip-rule="evenodd" d="M13 1C14.1046 1 15 1.89543 15 3V13C15 14.1046 14.1046 15 13 15H3C1.96435 15 1.113 14.2128 1.01074 13.2041L1 13V3C1 1.89543 1.89543 1 3 1H13ZM2.5 13L2.50977 13.1006C2.55629 13.3286 2.75829 13.5 3 13.5H7.25V8.75H2.5V13ZM8.75 13.5H13C13.2761 13.5 13.5 13.2761 13.5 13V8.75H8.75V13.5ZM3 2.5C2.72386 2.5 2.5 2.72386 2.5 3V7.25H7.25V2.5H3Z" fill="#292A2E"/>
<path d="M5.875 5.875H3.875V3.875H5.875V5.875Z" fill="#292A2E"/>
<path d="M12.125 12.125H10.125V10.125H12.125V12.125Z" fill="#292A2E"/>
</svg>
