<svg width="16" height="16" viewBox="0 0 16 16" fill="none" xmlns="http://www.w3.org/2000/svg">
<path d="M10.0951 1.16992L8.71619 6.22363L12.3763 2.56348L13.4369 3.62402L9.77673 7.28418L14.8304 5.90625L15.0277 6.62988L15.226 7.35352L9.11169 9.01953C9.45974 10.136 9.19529 11.4016 8.31091 12.2861C7.22402 13.373 5.55906 13.5286 4.30603 12.7539L2.12341 14.9385L1.06287 13.877L3.24548 11.6934C2.47207 10.4406 2.62804 8.77684 3.71423 7.69043C4.59835 6.80631 5.86375 6.54043 6.97986 6.8877L8.64783 0.775391L10.0951 1.16992ZM7.02966 8.56445C6.34644 8.0746 5.38862 8.13714 4.77478 8.75098C4.09168 9.43434 4.09167 10.5422 4.77478 11.2256C5.4582 11.909 6.56695 11.909 7.25037 11.2256C7.86399 10.6117 7.92672 9.65384 7.43689 8.9707C7.38197 8.89412 7.31988 8.82052 7.25037 8.75098C7.18075 8.68136 7.10634 8.61944 7.02966 8.56445Z" fill="#292A2E"/>
</svg>
