<svg width="16" height="16" viewBox="0 0 16 16" fill="none" xmlns="http://www.w3.org/2000/svg">
<path d="M11.3174 2C11.9979 2 12.632 2.3465 13 2.91895L15.7891 7.25684L15.8838 7.43164C16.0477 7.79255 16.0477 8.20745 15.8838 8.56836L15.7891 8.74316L13 13.0811C12.632 13.6535 11.9979 14 11.3174 14H4.68262C4.04474 14 3.44763 13.696 3.07226 13.1865L3 13.0811L0.210936 8.74316C-0.0798334 8.29045 -0.0798336 7.70955 0.210936 7.25684L3 2.91895L3.07226 2.81348C3.44763 2.30395 4.04474 2 4.68262 2H11.3174ZM4.68262 3.5C4.53384 3.5 4.39409 3.5664 4.2998 3.67871L4.26172 3.72949L1.5166 8L4.26172 12.2705L4.2998 12.3213C4.39409 12.4336 4.53384 12.5 4.68262 12.5H11.3174C11.4875 12.5 11.6463 12.4136 11.7383 12.2705L14.4824 8L11.7383 3.72949C11.6463 3.5864 11.4875 3.5 11.3174 3.5H4.68262Z" fill="#44546F"/>
</svg>
