<svg width="16" height="16" viewBox="0 0 16 16" fill="none" xmlns="http://www.w3.org/2000/svg">
<path d="M7.13181 0.317349C7.63597 -0.0940644 8.36398 -0.0940643 8.86814 0.317349L8.97263 0.411099L15.5888 7.02731L15.6826 7.1318C16.094 7.63596 16.094 8.36397 15.6826 8.86813L15.5888 8.97262L8.97263 15.5888C8.46913 16.0923 7.67186 16.1233 7.13181 15.6826L7.02731 15.5888L0.411104 8.97262C-0.125804 8.43566 -0.125804 7.56427 0.411104 7.02731L7.02731 0.411099L7.13181 0.317349ZM7.99997 14.4384L13.6884 8.74997H2.31149L7.99997 14.4384ZM2.31149 7.24997H13.6884L7.99997 1.56149L2.31149 7.24997Z" fill="#292A2E"/>
</svg>
