<svg width="16" height="16" viewBox="0 0 16 16" fill="none" xmlns="http://www.w3.org/2000/svg">
<path d="M14.5 4C14.5 3.75829 14.3286 3.55629 14.1006 3.50977L14 3.5H2C1.72386 3.5 1.5 3.72386 1.5 4V10.5469L4.7627 12.2646L4.91504 12.3311C5.2772 12.458 5.68459 12.392 5.99023 12.1475L9.07324 9.68066C9.88821 9.0289 11.0121 8.92217 11.9355 9.4082L14.5 10.7578V4ZM16 11.5859C16 12.3384 15.2001 12.8212 14.5342 12.4707L11.2373 10.7354C10.8415 10.527 10.359 10.5731 10.0098 10.8525L6.92676 13.3193C6.16276 13.9303 5.12755 14.062 4.24023 13.6758L4.06445 13.5918L0.53418 11.7344C0.205628 11.5615 0 11.2199 0 10.8486V4C0 2.89543 0.895431 2 2 2H14L14.2041 2.01074C15.2128 2.113 16 2.96435 16 4V11.5859Z" fill="#292A2E"/>
</svg>
