<svg width="16" height="16" viewBox="0 0 16 16" fill="none" xmlns="http://www.w3.org/2000/svg">
<path d="M10 14.5H14.5V11.5H10V14.5ZM16 14.625C16 15.3844 15.3844 16 14.625 16H9.875C9.11561 16 8.5 15.3844 8.5 14.625V11.375C8.5 10.6156 9.11561 10 9.875 10H14.625C15.3844 10 16 10.6156 16 11.375V14.625Z" fill="#292A2E"/>
<path d="M1 13V11H2.5V13C2.5 13.2761 2.72386 13.5 3 13.5H7V15H3C1.89543 15 1 14.1046 1 13ZM13.5 5C13.5 4.72386 13.2761 4.5 13 4.5H10V3H13C14.1046 3 15 3.89543 15 5V8.5H13.5V5Z" fill="#292A2E"/>
<path d="M7 6.7793C6.25457 7.09977 5.28325 7.28027 4.25 7.28027C3.21675 7.28027 2.24543 7.09977 1.5 6.7793V7.20996C1.5 7.43408 1.64334 7.73735 2.14648 8.02441C2.64233 8.30722 3.3826 8.5 4.25 8.5C5.1174 8.5 5.85767 8.30722 6.35352 8.02441C6.85666 7.73735 7 7.43408 7 7.20996V6.7793ZM7 4.05859C6.25454 4.37914 5.28337 4.55957 4.25 4.55957C3.21663 4.55957 2.24546 4.37914 1.5 4.05859V4.99023C1.50535 5.00234 1.52195 5.03029 1.56445 5.07422C1.65237 5.16497 1.8155 5.28097 2.0752 5.39453C2.5933 5.62102 3.36185 5.78027 4.25 5.78027C5.13815 5.78027 5.9067 5.62102 6.4248 5.39453C6.6845 5.28097 6.84763 5.16497 6.93555 5.07422C6.97805 5.03029 6.99465 5.00234 7 4.99023V4.05859ZM4.25 1.5C3.36185 1.5 2.5933 1.65925 2.0752 1.88574C1.81542 1.99935 1.65233 2.11529 1.56445 2.20605C1.53103 2.2406 1.5142 2.26545 1.50586 2.28027C1.51428 2.29514 1.53134 2.32027 1.56445 2.35449C1.65242 2.44523 1.81558 2.56129 2.0752 2.6748C2.5933 2.90129 3.36185 3.05957 4.25 3.05957C5.13815 3.05957 5.9067 2.90129 6.4248 2.6748C6.68442 2.56129 6.84758 2.44523 6.93555 2.35449C6.96835 2.32059 6.98466 2.29518 6.99316 2.28027C6.98474 2.2654 6.96865 2.24027 6.93555 2.20605C6.84767 2.11529 6.68458 1.99935 6.4248 1.88574C5.9067 1.65925 5.13815 1.5 4.25 1.5ZM8.5 7.20996C8.5 8.17579 7.86003 8.89274 7.09668 9.32812C6.32577 9.76782 5.3156 10 4.25 10C3.1844 10 2.17423 9.76782 1.40332 9.32812C0.639969 8.89274 0 8.17579 0 7.20996V2.28027C0 1.82066 0.216519 1.44194 0.486328 1.16309C0.752645 0.887864 1.10145 0.67387 1.47461 0.510742C2.22325 0.183478 3.20515 1.74613e-09 4.25 0C5.29485 0 6.27675 0.183478 7.02539 0.510742C7.39855 0.67387 7.74735 0.887864 8.01367 1.16309C8.28348 1.44194 8.5 1.82066 8.5 2.28027V7.20996Z" fill="#292A2E"/>
</svg>
