<svg width="17" height="16" viewBox="0 0 17 16" fill="none" xmlns="http://www.w3.org/2000/svg">
<path d="M13 6.37647C13 5.96225 12.6642 5.62647 12.25 5.62647H5.8584L6.52637 4.49561L6.94336 3.7876C7.18838 3.3725 7.00604 2.83687 6.55859 2.65772C6.29406 2.5519 5.99293 2.59759 5.77148 2.77686L2.6123 5.3335C1.90869 5.90309 1.5 6.76026 1.5 7.66553V10.1265C1.5 11.7833 2.84315 13.1265 4.5 13.1265H11.75C12.1642 13.1265 12.5 12.7907 12.5 12.3765C12.5 11.9623 12.1642 11.6265 11.75 11.6265H8.5V10.1265H13.25C13.6642 10.1265 14 9.79068 14 9.37647C14 8.96225 13.6642 8.62647 13.25 8.62647H8.5V7.12647H12.25C12.6642 7.12647 13 6.79068 13 6.37647ZM14.5 6.37647C14.5 6.73388 14.4139 7.07049 14.2656 7.37061C14.9975 7.7419 15.5 8.49965 15.5 9.37647C15.5 10.415 14.7954 11.2853 13.8389 11.5444C13.9416 11.802 14 12.0823 14 12.3765C14 13.6191 12.9926 14.6265 11.75 14.6265H4.5C2.01472 14.6265 -1.13646e-08 12.6117 0 10.1265V7.66553C7.41957e-09 6.30762 0.613518 5.02188 1.66895 4.16748L4.82715 1.61084C5.47086 1.08974 6.34627 0.957589 7.11523 1.26514C8.2686 1.72648 8.81505 3.00189 8.42871 4.12647H12.25C13.4926 4.12647 14.5 5.13383 14.5 6.37647Z" fill="#292A2E"/>
</svg>
