<svg width="16" height="16" viewBox="0 0 16 16" fill="none" xmlns="http://www.w3.org/2000/svg">
<path d="M7 2C10.0596 2 12.582 4.29041 12.9512 7.25H16V8.75H12.9512C12.582 11.7096 10.0596 14 7 14V12.5C9.48528 12.5 11.5 10.4853 11.5 8C11.5 5.51472 9.48528 3.5 7 3.5V2ZM9 8C9 6.89543 8.10457 6 7 6C5.89543 6 5 6.89543 5 8C5 9.10457 5.89543 10 7 10C8.10457 10 9 9.10457 9 8ZM10.5 8C10.5 9.933 8.933 11.5 7 11.5C5.32455 11.5 3.92548 10.3224 3.58203 8.75H0V7.25H3.58203C3.92548 5.67756 5.32455 4.5 7 4.5C8.933 4.5 10.5 6.067 10.5 8Z" fill="#292A2E"/>
</svg>
