<svg width="16" height="16" viewBox="0 0 16 16" fill="none" xmlns="http://www.w3.org/2000/svg">
<path d="M10 1C10.4142 1 10.75 1.33579 10.75 1.75V5.25H14.25C14.6642 5.25 15 5.58579 15 6V10C15 10.4142 14.6642 10.75 14.25 10.75H10.75V14.25C10.75 14.6642 10.4142 15 10 15H6.00003C5.58582 15 5.25003 14.6642 5.25003 14.25V10.75H1.75003C1.33582 10.75 1.00003 10.4142 1.00003 10V6C1.00003 5.58579 1.33582 5.25 1.75003 5.25H5.25003V1.75C5.25003 1.33579 5.58582 1 6.00003 1H10ZM6.75003 6.75H2.50003V9.25H6.75003V13.5H9.25003V9.25H13.5V6.75H9.25003V2.5H6.75003V6.75Z" fill="#292A2E"/>
</svg>
