<svg width="16" height="16" viewBox="0 0 16 16" fill="none" xmlns="http://www.w3.org/2000/svg">
<path d="M14.1869 2.87305L12.5961 4.46387L14.1869 6.05469L13.1263 7.11621L11.5355 5.52441L10.4125 6.64746C11.1866 7.90039 11.0313 9.56469 9.9447 10.6514C8.85783 11.7382 7.19284 11.8937 5.93982 11.1191L2.87341 14.1865L1.81287 13.126L4.87927 10.0586C4.10566 8.80573 4.26156 7.14115 5.34802 6.05469C6.43449 4.96825 8.09908 4.81232 9.35193 5.58594L10.474 4.46387L8.88416 2.87305L9.9447 1.8125L11.5355 3.40332L13.1263 1.8125L14.1869 2.87305ZM8.88416 7.11621C8.20074 6.43279 7.09199 6.43279 6.40857 7.11621C5.72564 7.79963 5.72542 8.90754 6.40857 9.59082C7.09199 10.2742 8.20074 10.2742 8.88416 9.59082C9.56741 8.90752 9.56719 7.79965 8.88416 7.11621Z" fill="#292A2E"/>
</svg>
