<svg width="16" height="16" viewBox="0 0 16 16" fill="none" xmlns="http://www.w3.org/2000/svg">
<path d="M14.5 8C14.5 6.69428 14.1087 5.52525 13.5674 4.69922C13.0005 3.83425 12.3857 3.5 12 3.5H4.6963C4.52316 3.50001 4.36264 3.59008 4.2715 3.7373L1.63185 8L4.2715 12.2627C4.36264 12.4099 4.52316 12.5 4.6963 12.5H12C12.3857 12.5 13.0005 12.1657 13.5674 11.3008C14.1087 10.4747 14.5 9.30572 14.5 8ZM16 8C16 9.59336 15.526 11.049 14.8223 12.123C14.1439 13.1582 13.1331 14 12 14H4.6963C4.00374 14 3.36069 13.6416 2.99611 13.0527L0.31642 8.72363C0.041906 8.28019 0.0419064 7.71981 0.31642 7.27637L2.99611 2.94727L3.0674 2.83984C3.44099 2.31513 4.04691 2.00001 4.6963 2H12C13.1331 2 14.1439 2.84179 14.8223 3.87695C15.526 4.95098 16 6.40664 16 8Z" fill="#44546F"/>
</svg>
