<svg width="16" height="16" viewBox="0 0 16 16" fill="none" xmlns="http://www.w3.org/2000/svg">
<path d="M7.5 4.75C9.03672 4.75 10.3235 5.81675 10.6621 7.25H12.25V5H13.75V7.25H16V8.75H13.75V11H12.25V8.75H10.6621C10.3235 10.1832 9.03672 11.25 7.5 11.25C5.96328 11.25 4.67655 10.1832 4.33789 8.75H0V7.25H4.33789C4.67655 5.81675 5.96328 4.75 7.5 4.75ZM7.5 6.25C6.5335 6.25 5.75 7.0335 5.75 8C5.75 8.9665 6.5335 9.75 7.5 9.75C8.4665 9.75 9.25 8.9665 9.25 8C9.25 7.0335 8.4665 6.25 7.5 6.25Z" fill="#292A2E"/>
</svg>
