<svg width="16" height="16" viewBox="0 0 16 16" fill="none" xmlns="http://www.w3.org/2000/svg">
<path d="M13.6807 1.26199C13.9119 0.992321 14.3011 0.921605 14.6123 1.09304C14.9234 1.26456 15.0713 1.6314 14.9668 1.97097L11.9668 11.721C11.9019 11.9316 11.7476 12.103 11.5449 12.1897C11.3424 12.2764 11.1121 12.2696 10.915 12.1712L6.43847 9.93289L2.31933 14.7386C2.08805 15.0082 1.69886 15.0789 1.38769 14.9075C1.07656 14.736 0.928709 14.3691 1.03319 14.0296L4.03319 4.27957L4.06151 4.20242C4.13726 4.02731 4.27776 3.88669 4.45507 3.81082C4.6576 3.72418 4.88787 3.73098 5.08495 3.82937L9.56151 6.06765L13.6807 1.26199ZM10.3193 7.48855C10.0954 7.74961 9.72271 7.82479 9.41503 7.67117L5.20605 5.56668L3.52733 11.0237L5.68066 8.51199L5.77148 8.42312C5.99702 8.23596 6.31575 8.19497 6.58495 8.32937L10.793 10.4329L12.4726 4.97586L10.3193 7.48855Z" fill="#292A2E"/>
</svg>
