<svg width="16" height="16" viewBox="0 0 16 16" fill="none" xmlns="http://www.w3.org/2000/svg">
<path d="M11.3168 2C11.9981 2.0001 12.6327 2.34723 13.0004 2.9209L15.7806 7.25781C16.0704 7.71 16.0704 8.29 15.7806 8.74219L13.0004 13.0791C12.6327 13.6528 11.9981 13.9999 11.3168 14H4.68395C4.00203 14 3.36697 13.6525 2.99938 13.0781L0.223987 8.74121C-0.0651812 8.28938 -0.0651821 7.71062 0.223987 7.25879L2.99938 2.92188C3.36697 2.34751 4.00203 2.00005 4.68395 2H11.3168ZM4.68395 3.5C4.51353 3.50005 4.35493 3.58694 4.26305 3.73047L1.53063 8L4.26305 12.2695C4.35493 12.4131 4.51353 12.5 4.68395 12.5H11.3168C11.487 12.4999 11.6458 12.4129 11.7377 12.2695L14.473 8L11.7377 3.73047C11.6458 3.58711 11.487 3.5001 11.3168 3.5H4.68395Z" fill="#292A2E"/>
</svg>
