<svg width="16" height="16" viewBox="0 0 16 16" fill="none" xmlns="http://www.w3.org/2000/svg">
<path d="M14.5 8C14.5 6.69428 14.1087 5.52525 13.5674 4.69922C13.0005 3.83425 12.3857 3.5 12 3.5H4.68947C4.51783 3.5 4.3582 3.58824 4.26662 3.7334L1.57326 8L4.26662 12.2666C4.3582 12.4118 4.51783 12.5 4.68947 12.5H12C12.3857 12.5 13.0005 12.1657 13.5674 11.3008C14.1087 10.4747 14.5 9.30572 14.5 8ZM16 8C16 9.59336 15.526 11.049 14.8223 12.123C14.1439 13.1582 13.1331 14 12 14H4.68947C4.003 14 3.36443 13.6479 2.99806 13.0674L0.263687 8.7334C-0.0189666 8.28524 -0.0189667 7.71476 0.263687 7.2666L2.99806 2.93262C3.36443 2.3521 4.003 2 4.68947 2H12C13.1331 2 14.1439 2.84179 14.8223 3.87695C15.526 4.95098 16 6.40664 16 8Z" fill="#292A2E"/>
</svg>
