<svg width="16" height="16" viewBox="0 0 16 16" fill="none" xmlns="http://www.w3.org/2000/svg">
<path d="M1.5 7.06152V12.5H14.5V7.06152L10.9385 3.5H5.06152L1.5 7.06152ZM16 12.625C16 13.3844 15.3844 14 14.625 14H1.375C0.615609 14 6.0399e-09 13.3844 0 12.625V7.00879C2.50252e-05 6.64415 0.144503 6.29397 0.402344 6.03613L4.03613 2.40234L4.1377 2.31152C4.38234 2.1111 4.68977 2.00002 5.00879 2H10.9912C11.3102 2.00002 11.6177 2.1111 11.8623 2.31152L11.9639 2.40234L15.5977 6.03613L15.6885 6.1377C15.8889 6.38234 16 6.68977 16 7.00879V12.625Z" fill="#44546F"/>
</svg>
