<svg width="16" height="16" viewBox="0 0 16 16" fill="none" xmlns="http://www.w3.org/2000/svg">
<path d="M14.5 12.5C14.5 12.7417 14.3286 12.9437 14.1006 12.9902L14 13H2C1.72386 13 1.5 12.7761 1.5 12.5V3.5C1.5 3.22386 1.72386 3 2 3H10V6.75C10 7.16421 10.3358 7.5 10.75 7.5H14.5V12.5ZM11.5 3.56055L13.9395 6H11.5V3.56055ZM16 6.75C16 6.23096 15.7938 5.73324 15.4268 5.36621L12.1338 2.07324C11.7668 1.70624 11.269 1.5 10.75 1.5H2C0.89543 1.5 2.41596e-08 2.39543 0 3.5V12.5C0 13.6046 0.895431 14.5 2 14.5H14L14.2041 14.4893C15.2128 14.387 16 13.5357 16 12.5V6.75Z" fill="#292A2E"/>
</svg>
