<svg width="16" height="16" viewBox="0 0 16 16" fill="none" xmlns="http://www.w3.org/2000/svg">
<path d="M14.5 10.667H8.5V13H14C14.2761 13 14.5 12.7761 14.5 12.5V10.667ZM5 13H7V10.667H5V13ZM8.5 9.16699H14.5V6.83301H8.5V9.16699ZM5 9.16699H7V6.83301H5V9.16699ZM5 5.33301H7V3H5V5.33301ZM14.5 3.5C14.5 3.22386 14.2761 3 14 3H8.5V5.33301H14.5V3.5ZM1.5 12.5C1.5 12.7761 1.72386 13 2 13H3.5V3H2C1.72386 3 1.5 3.22386 1.5 3.5V12.5ZM16 12.5C16 13.6046 15.1046 14.5 14 14.5H2C0.895431 14.5 2.41596e-08 13.6046 0 12.5V3.5C0 2.39543 0.895431 1.5 2 1.5H14C15.1046 1.5 16 2.39543 16 3.5V12.5Z" fill="#292A2E"/>
</svg>
