<svg width="16" height="16" viewBox="0 0 16 16" fill="none" xmlns="http://www.w3.org/2000/svg">
<path d="M9.45703 2.05953C9.73417 1.94197 10.055 2.00166 10.2715 2.21089L15.7715 7.5273C15.9187 7.66965 16.0012 7.86646 16 8.07124C15.9987 8.2762 15.9138 8.47267 15.7646 8.61324L10.2646 13.7959C10.0469 14.001 9.72784 14.0569 9.45312 13.9384C9.17835 13.8198 9.00002 13.5492 9 13.25V10.75H0.75C0.335801 10.75 2.41907e-05 10.4141 0 9.99996V5.99996C5.15408e-07 5.58574 0.335787 5.24996 0.75 5.24996H9V2.74996C9 2.44896 9.17996 2.1771 9.45703 2.05953Z" fill="#292A2E"/>
</svg>
