<svg width="17" height="16" viewBox="0 0 17 16" fill="none" xmlns="http://www.w3.org/2000/svg">
<path d="M14.0088 1C15.1078 1.00024 16.0003 1.88729 16.0078 2.98633L16.0332 6.74512V6.75293L16.0058 13.0088C16.0009 14.1098 15.1068 14.9998 14.0058 15H2.00585C0.897837 15 0.000977168 14.0992 0.00584861 12.9912L0.0331924 6.75488L0.0087783 3.01367C0.00134418 1.90389 0.898972 1 2.00878 1H14.0088ZM1.50585 12.998C1.50476 13.2749 1.72893 13.5 2.00585 13.5H14.0058C14.281 13.4998 14.5046 13.2771 14.5058 13.002L14.5303 7.5H1.53026L1.50585 12.998ZM2.00878 2.5C1.73147 2.5 1.50715 2.72568 1.50878 3.00293L1.52831 6H14.5283L14.5088 2.99707C14.5069 2.72239 14.2834 2.50024 14.0088 2.5H2.00878Z" fill="#292A2E"/>
<path d="M3.25 3.5C3.66421 3.5 4 3.83579 4 4.25C4 4.66421 3.66421 5 3.25 5C2.83579 5 2.5 4.66421 2.5 4.25C2.5 3.83579 2.83579 3.5 3.25 3.5Z" fill="#292A2E"/>
<path d="M5.75 3.5C6.16421 3.5 6.5 3.83579 6.5 4.25C6.5 4.66421 6.16421 5 5.75 5C5.33579 5 5 4.66421 5 4.25C5 3.83579 5.33579 3.5 5.75 3.5Z" fill="#292A2E"/>
<path d="M8.25 3.5C8.66421 3.5 9 3.83579 9 4.25C9 4.66421 8.66421 5 8.25 5C7.83579 5 7.5 4.66421 7.5 4.25C7.5 3.83579 7.83579 3.5 8.25 3.5Z" fill="#292A2E"/>
</svg>
