<svg width="16" height="16" viewBox="0 0 16 16" fill="none" xmlns="http://www.w3.org/2000/svg">
<path d="M14.5 3.5C14.5 3.25829 14.3286 3.05629 14.1006 3.00977L14 3H2C1.72386 3 1.5 3.22386 1.5 3.5V12.5C1.5 12.7761 1.72386 13 2 13H14C14.2761 13 14.5 12.7761 14.5 12.5V3.5ZM7.03027 6.03027L5.06055 8L7.03027 9.96973L5.96973 11.0303L3.46973 8.53027C3.17684 8.23738 3.17685 7.76262 3.46973 7.46973L5.96973 4.96973L7.03027 6.03027ZM12.5303 7.46973C12.8231 7.7626 12.8231 8.23738 12.5303 8.53027L10.0303 11.0303L8.96973 9.96973L10.9395 8L8.96973 6.03027L10.0303 4.96973L12.5303 7.46973ZM16 12.5C16 13.6046 15.1046 14.5 14 14.5H2C0.895431 14.5 2.41596e-08 13.6046 0 12.5V3.5C0 2.39543 0.895431 1.5 2 1.5H14L14.2041 1.51074C15.2128 1.613 16 2.46435 16 3.5V12.5Z" fill="#292A2E"/>
</svg>
