<svg width="16" height="16" viewBox="0 0 16 16" fill="none" xmlns="http://www.w3.org/2000/svg">
<path d="M1.5 13H11.5V6H1.5V13ZM13 5.56055V11.7217L14.5 9.97168V4.06055L13 5.56055ZM2.88867 4.5H11.9395L13.4395 3H4.76367L2.88867 4.5ZM16 10.25C16 10.429 15.9358 10.6023 15.8193 10.7383L12.8193 14.2383C12.6769 14.4044 12.4689 14.5 12.25 14.5H0.75C0.551088 14.5 0.360379 14.4209 0.219727 14.2803C0.0790743 14.1396 0 13.9489 0 13.75V5.25C1.62762e-08 5.02216 0.103339 4.80639 0.28125 4.66406L4.03125 1.66406L4.13672 1.59375C4.2473 1.53254 4.37224 1.5 4.5 1.5H15.25C15.4489 1.5 15.6396 1.57907 15.7803 1.71973C15.9209 1.86038 16 2.05109 16 2.25V10.25Z" fill="#292A2E"/>
</svg>
