<svg width="16" height="16" viewBox="0 0 16 16" fill="none" xmlns="http://www.w3.org/2000/svg">
<path d="M14.5 6C14.5 5.72386 14.2761 5.5 14 5.5H1.5V13L1.50977 13.1006C1.55629 13.3286 1.75829 13.5 2 13.5H14C14.2761 13.5 14.5 13.2761 14.5 13V6ZM6.5 3C6.5 2.72386 6.27614 2.5 6 2.5H2C1.72386 2.5 1.5 2.72386 1.5 3V4H6.5V3ZM8 4H14C15.1046 4 16 4.89543 16 6V13C16 14.1046 15.1046 15 14 15H2C0.96435 15 0.113005 14.2128 0.0107422 13.2041L0 13V3C3.22133e-08 1.89543 0.895431 1 2 1H6C7.10457 1 8 1.89543 8 3V4Z" fill="#292A2E"/>
</svg>
