<svg width="16" height="16" viewBox="0 0 16 16" fill="none" xmlns="http://www.w3.org/2000/svg">
<path d="M14.5 4C14.5 3.75829 14.3286 3.55629 14.1006 3.50977L14 3.5H2C1.72386 3.5 1.5 3.72386 1.5 4V11C1.5 11.2761 1.72386 11.5 2 11.5H4.5C4.78408 11.5 5.04385 11.661 5.1709 11.915L5.96387 13.5H10.0361L10.8291 11.915L10.8828 11.8242C11.0215 11.6231 11.2513 11.5 11.5 11.5H14C14.2761 11.5 14.5 11.2761 14.5 11V4ZM4.5 5V8H3V5H4.5ZM7.33301 5V8H5.83301V5H7.33301ZM10.167 5V8H8.66699V5H10.167ZM13 5V8H11.5V5H13ZM16 11C16 12.1046 15.1046 13 14 13H11.9639L11.1709 14.585C11.0439 14.839 10.7841 15 10.5 15H5.5C5.21592 15 4.95615 14.839 4.8291 14.585L4.03613 13H2C0.89543 13 2.41596e-08 12.1046 0 11V4C0 2.89543 0.895431 2 2 2H14L14.2041 2.01074C15.2128 2.113 16 2.96435 16 4V11Z" fill="#292A2E"/>
</svg>
