<svg width="16" height="16" viewBox="0 0 16 16" fill="none" xmlns="http://www.w3.org/2000/svg">
<path d="M8.82324 13.2168L8.88379 13.9639C8.59342 13.9876 8.29854 14 8 14C7.70146 14 7.40658 13.9876 7.11621 13.9639L7.17676 13.2168L7.23828 12.4688C7.488 12.4892 7.74215 12.5 8 12.5C8.25785 12.5 8.512 12.4892 8.76172 12.4688L8.82324 13.2168ZM4.33301 11.707C4.76649 11.9144 5.23919 12.0871 5.74316 12.2178L5.36719 13.6699C4.77346 13.5159 4.20919 13.311 3.68555 13.0605L4.00879 12.3838L4.33301 11.707ZM11.9912 12.3838L12.3145 13.0605C11.7908 13.311 11.2265 13.5159 10.6328 13.6699L10.2568 12.2178C10.7608 12.0871 11.2335 11.9144 11.667 11.707L11.9912 12.3838ZM2.1123 9.89551C2.36361 10.2649 2.69018 10.6135 3.08398 10.9297L2.14453 12.0996C1.64678 11.6999 1.21525 11.2437 0.87207 10.7393L2.1123 9.89551ZM15.1279 10.7393C14.7847 11.2437 14.3532 11.6999 13.8555 12.0996L12.916 10.9297C13.3098 10.6135 13.6364 10.2649 13.8877 9.89551L15.1279 10.7393ZM0 8C0 7.668 0.0359292 7.34202 0.104492 7.02441L1.57031 7.34082C1.52388 7.55591 1.5 7.77593 1.5 8C1.5 8.22407 1.52388 8.44409 1.57031 8.65918L0.104492 8.97559C0.0359293 8.65798 0 8.332 0 8ZM14.5 8C14.5 7.77593 14.4761 7.55591 14.4297 7.34082L15.8955 7.02441C15.9641 7.34202 16 7.668 16 8C16 8.332 15.9641 8.65798 15.8955 8.97559L14.4297 8.65918C14.4761 8.44409 14.5 8.22407 14.5 8ZM3.08398 5.07031C2.69018 5.38655 2.36361 5.7351 2.1123 6.10449L0.87207 5.26074C1.21525 4.75631 1.64678 4.30009 2.14453 3.90039L3.08398 5.07031ZM13.8555 3.90039C14.3532 4.30009 14.7847 4.75631 15.1279 5.26074L13.8877 6.10449C13.6364 5.7351 13.3098 5.38655 12.916 5.07031L13.8555 3.90039ZM5.74316 3.78223C5.23919 3.91295 4.76649 4.08562 4.33301 4.29297L4.00879 3.61621L3.68555 2.93945C4.20919 2.68898 4.77346 2.48406 5.36719 2.33008L5.74316 3.78223ZM10.6328 2.33008C11.2265 2.48406 11.7908 2.68898 12.3145 2.93945L11.9912 3.61621L11.667 4.29297C11.2335 4.08562 10.7608 3.91295 10.2568 3.78223L10.6328 2.33008ZM8 2C8.29854 2 8.59342 2.01238 8.88379 2.03613L8.82324 2.7832L8.76172 3.53125C8.512 3.51082 8.25785 3.5 8 3.5C7.74215 3.5 7.488 3.51082 7.23828 3.53125L7.17676 2.7832L7.11621 2.03613C7.40658 2.01238 7.70146 2 8 2Z" fill="#292A2E"/>
<path d="M8.75 7.25V8.75H7.25V7.25H8.75Z" fill="#292A2E"/>
<path d="M12 7.25V8.75H10.5V7.25H12Z" fill="#292A2E"/>
<path d="M5.5 7.25V8.75H4L4 7.25H5.5Z" fill="#292A2E"/>
</svg>
