<svg width="16" height="16" viewBox="0 0 16 16" fill="none" xmlns="http://www.w3.org/2000/svg">
<path d="M13.5 5.9375C13.2445 6.0712 12.9667 6.19142 12.6738 6.29688C11.4419 6.74037 9.78913 7 8 7C6.21087 7 4.5581 6.74037 3.32617 6.29688C3.03326 6.19142 2.75549 6.0712 2.5 5.9375V11.25C2.5 11.6778 2.85169 12.2354 3.89941 12.7275C4.90584 13.2003 6.35315 13.5 8 13.5C9.64685 13.5 11.0942 13.2003 12.1006 12.7275C13.1483 12.2354 13.5 11.6778 13.5 11.25V5.9375ZM13.5 4C13.5 3.99326 13.4981 3.8874 13.2725 3.69531C13.0498 3.50583 12.6832 3.30078 12.165 3.11426C11.1349 2.7435 9.66242 2.5 8 2.5C6.33758 2.5 4.86507 2.7435 3.83496 3.11426C3.31684 3.30078 2.95023 3.50583 2.72754 3.69531C2.50186 3.8874 2.5 3.99326 2.5 4C2.5 4.00674 2.50186 4.1126 2.72754 4.30469C2.95023 4.49417 3.31684 4.69922 3.83496 4.88574C4.86507 5.2565 6.33758 5.5 8 5.5C9.66242 5.5 11.1349 5.2565 12.165 4.88574C12.6832 4.69922 13.0498 4.49417 13.2725 4.30469C13.4981 4.1126 13.5 4.00674 13.5 4ZM15 11.25C15 12.5722 13.9526 13.5146 12.7383 14.085C11.4826 14.6747 9.80491 15 8 15C6.19509 15 4.51735 14.6747 3.26172 14.085C2.04741 13.5146 1 12.5722 1 11.25V4C1 3.38542 1.34803 2.89902 1.75488 2.55273C2.16468 2.20396 2.71353 1.9237 3.32617 1.70312C4.5581 1.25963 6.21087 1 8 1C9.78913 1 11.4419 1.25963 12.6738 1.70312C13.2865 1.9237 13.8353 2.20396 14.2451 2.55273C14.652 2.89902 15 3.38542 15 4V11.25Z" fill="#292A2E"/>
</svg>
