<svg width="16" height="16" viewBox="0 0 16 16" fill="none" xmlns="http://www.w3.org/2000/svg">
<path d="M4.49395 1.00005C4.6928 0.999901 4.88348 1.07932 5.02423 1.21978L7.99884 4.1895L10.9695 1.21978L11.0262 1.16802C11.3207 0.927753 11.7555 0.945315 12.0301 1.21978L14.7801 3.96978C15.073 4.26267 15.073 4.73743 14.7801 5.03032L11.8104 8.00005L14.7801 10.9698C15.073 11.2627 15.073 11.7374 14.7801 12.0303L12.0301 14.7803C11.7372 15.0732 11.2624 15.0732 10.9695 14.7803L7.99981 11.8106L5.03009 14.7803C4.88944 14.921 4.69871 15 4.49981 15.0001C4.30097 15 4.11015 14.9209 3.96954 14.7803L1.21954 12.0303C0.926804 11.7374 0.926726 11.2626 1.21954 10.9698L4.18927 8.00005L1.21954 5.03032C0.927003 4.73763 0.926231 4.26271 1.21856 3.96978L3.96368 1.21978L4.07794 1.12603C4.20009 1.04448 4.34492 1.00021 4.49395 1.00005Z" fill="#292A2E"/>
</svg>
