<svg width="16" height="16" viewBox="0 0 16 16" fill="none" xmlns="http://www.w3.org/2000/svg">
<path d="M14.5 3.5C14.5 3.25829 14.3286 3.05629 14.1006 3.00977L14 3H2C1.72386 3 1.5 3.22386 1.5 3.5V12.5C1.5 12.7761 1.72386 13 2 13H14C14.2761 13 14.5 12.7761 14.5 12.5V3.5ZM12.25 4.5C12.6642 4.5 13 4.83579 13 5.25V8.75C13 9.16421 12.6642 9.5 12.25 9.5H6.5V8H8V6H6.5V4.5H12.25ZM9.5 8H11.5V6H9.5V8ZM16 12.5C16 13.6046 15.1046 14.5 14 14.5H2C0.895431 14.5 2.41596e-08 13.6046 0 12.5V3.5C0 2.39543 0.895431 1.5 2 1.5H14L14.2041 1.51074C15.2128 1.613 16 2.46435 16 3.5V12.5Z" fill="#292A2E"/>
</svg>
