<svg width="16" height="16" viewBox="0 0 16 16" fill="none" xmlns="http://www.w3.org/2000/svg">
<path d="M12.5 14C12.5 14.2761 12.2761 14.5 12 14.5H4C3.72386 14.5 3.5 14.2761 3.5 14V2C3.5 1.72386 3.72386 1.5 4 1.5H8V5.25C8 5.66421 8.33579 6 8.75 6H12.5V14ZM9.5 2.06055L11.9395 4.5H9.5V2.06055ZM11 9.5V8H5V9.5H11ZM9 12.5V11H5V12.5H9ZM14 5.25C14 4.73096 13.7938 4.23324 13.4268 3.86621L10.1338 0.573242C9.76676 0.206237 9.26904 0 8.75 0H4C2.89543 0 2 0.895431 2 2V14C2 15.1046 2.89543 16 4 16H12C13.1046 16 14 15.1046 14 14V5.25Z" fill="#292A2E"/>
</svg>
