<svg width="16" height="16" viewBox="0 0 16 16" fill="none" xmlns="http://www.w3.org/2000/svg">
<path d="M8.91663 2.48803C10.1858 1.21884 12.2431 1.21883 13.5123 2.48803C14.7815 3.75723 14.7815 5.81453 13.5123 7.08374C12.4255 8.17053 10.7614 8.32592 9.50842 7.55151L2.72913 14.3318L1.66858 13.2712L8.44788 6.49096C7.67426 5.2381 7.83016 3.5745 8.91663 2.48803ZM12.4518 3.54858C11.7684 2.86516 10.6606 2.86517 9.97717 3.54858C9.29376 4.232 9.29376 5.33977 9.97717 6.02319C10.6606 6.7066 11.7684 6.7066 12.4518 6.02319C13.1352 5.33977 13.1352 4.232 12.4518 3.54858Z" fill="#292A2E"/>
</svg>
