<svg width="16" height="16" viewBox="0 0 16 16" fill="none" xmlns="http://www.w3.org/2000/svg">
<path d="M8 12.375V10.4375C8 9.61139 7.611 8.83364 6.9502 8.33789L6.5 8L6.9502 7.66211C7.611 7.16636 8 6.38861 8 5.5625V3.625C8 3.00368 8.50368 2.5 9.125 2.5H10V1H9.125C7.67525 1 6.5 2.17525 6.5 3.625V5.5625C6.5 5.9166 6.33309 6.25043 6.0498 6.46289L4.7998 7.40039L4.73242 7.45703C4.58486 7.59767 4.5 7.79362 4.5 8C4.5 8.20638 4.58486 8.40233 4.73242 8.54297L4.7998 8.59961L6.0498 9.53711C6.33309 9.74957 6.5 10.0834 6.5 10.4375V12.375C6.5 13.8247 7.67525 15 9.125 15H10V13.5H9.125C8.50368 13.5 8 12.9963 8 12.375Z" fill="#292A2E"/>
</svg>
