<svg width="16" height="16" viewBox="0 0 16 16" fill="none" xmlns="http://www.w3.org/2000/svg">
<path d="M13.6806 1.26189C13.9118 0.992364 14.3011 0.921651 14.6122 1.09294C14.9233 1.26442 15.0711 1.63136 14.9667 1.97087L11.9667 11.7209C11.9018 11.9315 11.7475 12.1029 11.5448 12.1896C11.3423 12.2763 11.112 12.2695 10.9149 12.1711L6.43839 9.93279L2.31924 14.7384C2.08797 15.0081 1.69878 15.0788 1.3876 14.9074C1.0766 14.7358 0.928647 14.369 1.03311 14.0295L4.03311 4.27946L4.06143 4.20232C4.1372 4.0273 4.27775 3.88655 4.45499 3.81071C4.65745 3.72412 4.88784 3.73096 5.08487 3.82927L9.56143 6.06755L13.6806 1.26189Z" fill="#292A2E"/>
</svg>
