<svg width="16" height="16" viewBox="0 0 16 16" fill="none" xmlns="http://www.w3.org/2000/svg">
<path d="M14.5 4C14.5 3.72386 14.2761 3.5 14 3.5H2C1.72386 3.5 1.5 3.72386 1.5 4V8.53418C1.50013 8.71142 1.5942 8.87514 1.74707 8.96484L7.74707 12.4824C7.90322 12.574 8.09678 12.574 8.25293 12.4824L14.2529 8.96484C14.4058 8.87514 14.4999 8.71142 14.5 8.53418V4ZM16 8.53418C15.9999 9.24369 15.6237 9.89984 15.0117 10.2588L9.01172 13.7764C8.38713 14.1425 7.61287 14.1425 6.98828 13.7764L0.988281 10.2588C0.37627 9.89984 0.000128502 9.24369 0 8.53418V4C6.44266e-08 2.89543 0.89543 2 2 2H14C15.1046 2 16 2.89543 16 4V8.53418Z" fill="#292A2E"/>
</svg>
