<svg width="16" height="16" viewBox="0 0 16 16" fill="none" xmlns="http://www.w3.org/2000/svg">
<path d="M11.0264 1.16809C11.3209 0.927776 11.7557 0.94524 12.0303 1.21984L14.7803 3.96984C15.0732 4.26274 15.0732 4.7375 14.7803 5.03039L11.8105 8.00012L14.7803 10.9698C15.0732 11.2627 15.0732 11.7375 14.7803 12.0304L12.0303 14.7804C11.7374 15.0733 11.2626 15.0733 10.9697 14.7804L7.99999 11.8107L5.03027 14.7804C4.88962 14.921 4.6989 15.0001 4.49999 15.0001C4.30108 15.0001 4.11037 14.921 3.96972 14.7804L1.21972 12.0304C0.926827 11.7375 0.926827 11.2627 1.21972 10.9698L4.18945 8.00012L1.21972 5.03039C0.927026 4.7377 0.926332 4.26282 1.21874 3.96984L3.96386 1.21984L4.07812 1.12609C4.20032 1.04452 4.34504 1.00024 4.49413 1.00012C4.69305 0.999967 4.88365 1.07929 5.02441 1.21984L7.99902 4.18957L10.9697 1.21984L11.0264 1.16809ZM7.99999 6.31066L4.49511 2.81066L2.80956 4.49914L6.31054 8.00012L2.81054 11.5001L4.49999 13.1896L7.99999 9.68957L11.5 13.1896L13.1894 11.5001L9.68945 8.00012L13.1894 4.50012L11.5 2.81066L7.99999 6.31066Z" fill="#292A2E"/>
</svg>
