<svg width="16" height="16" viewBox="0 0 16 16" fill="none" xmlns="http://www.w3.org/2000/svg">
<path d="M15.3721 4.65039L10.8242 7.24902H16V8.74902H10.8242L15.3721 11.3477L14.6279 12.6504L9.12598 9.50586C8.58251 10.5412 7.50077 11.249 6.25 11.249C4.71328 11.249 3.42655 10.1823 3.08789 8.74902H0V7.24902H3.08789C3.42655 5.81578 4.71328 4.74902 6.25 4.74902C7.50046 4.74902 8.58238 5.45628 9.12598 6.49121L14.6279 3.34766L15.3721 4.65039ZM6.25 6.24902C5.2835 6.24902 4.5 7.03253 4.5 7.99902C4.5 8.96552 5.2835 9.74902 6.25 9.74902C7.11814 9.74902 7.83988 9.11568 7.97656 8.28613C7.99186 8.19317 8 8.09732 8 7.99902C8 7.90073 7.99186 7.80487 7.97656 7.71191C7.83988 6.88237 7.11814 6.24902 6.25 6.24902Z" fill="#292A2E"/>
</svg>
