<svg width="16" height="16" viewBox="0 0 16 16" fill="none" xmlns="http://www.w3.org/2000/svg">
<path d="M6.81446 1.18959C7.51931 0.671086 8.47963 0.671271 9.18458 1.18959L14.4697 5.07826C15.162 5.58751 15.452 6.48164 15.1895 7.29994L13.1641 13.6105C12.8984 14.4379 12.1288 14.9992 11.2598 14.9992H4.74024C3.8712 14.9992 3.10159 14.4379 2.83594 13.6105L0.810554 7.29994C0.547947 6.48162 0.837992 5.58654 1.53028 5.07728L6.81446 1.18959ZM8.29591 2.39857C8.11966 2.26892 7.87938 2.26892 7.70313 2.39857L2.41895 6.28627C2.24598 6.41353 2.17376 6.63646 2.23927 6.84096L4.26368 13.1515C4.33007 13.3584 4.52296 13.4992 4.74024 13.4992H11.2598C11.4771 13.4992 11.6699 13.3584 11.7363 13.1515L13.7607 6.84193C13.8264 6.63735 13.7541 6.41358 13.5811 6.28627L8.29591 2.39857Z" fill="#292A2E"/>
</svg>
