<svg width="16" height="16" viewBox="0 0 16 16" fill="none" xmlns="http://www.w3.org/2000/svg">
<path d="M8.5 4.75C10.0367 4.75 11.3235 5.81675 11.6621 7.25H16V8.75H11.6621C11.3235 10.1832 10.0367 11.25 8.5 11.25C6.96328 11.25 5.67655 10.1832 5.33789 8.75H3.75V11H2.25V8.75H0V7.25H2.25V5H3.75V7.25H5.33789C5.67655 5.81675 6.96328 4.75 8.5 4.75ZM8.5 6.25C7.5335 6.25 6.75 7.0335 6.75 8C6.75 8.9665 7.5335 9.75 8.5 9.75C9.4665 9.75 10.25 8.9665 10.25 8C10.25 7.0335 9.4665 6.25 8.5 6.25Z" fill="#292A2E"/>
</svg>
