<svg width="16" height="16" viewBox="0 0 16 16" fill="none" xmlns="http://www.w3.org/2000/svg">
<path d="M12 13.5H14.5V11.5H12V13.5ZM1.5 9H4V7H1.5V9ZM12 4.5H14.5V2.5H12V4.5ZM16 4.625C16 5.38439 15.3844 6 14.625 6H11.875C11.1156 6 10.5 5.38439 10.5 4.625V4.25H9.5C9.22386 4.25 9 4.47386 9 4.75V11.25C9 11.5261 9.22386 11.75 9.5 11.75H10.5V11.375C10.5 10.6156 11.1156 10 11.875 10H14.625C15.3844 10 16 10.6156 16 11.375V13.625C16 14.3844 15.3844 15 14.625 15H11.875C11.1156 15 10.5 14.3844 10.5 13.625V13.25H9.5C8.39543 13.25 7.5 12.3546 7.5 11.25V8.75H5.5V9.125C5.5 9.88439 4.88439 10.5 4.125 10.5H1.375C0.615608 10.5 8.05319e-09 9.88439 0 9.125V6.875C0 6.11561 0.615609 5.5 1.375 5.5H4.125C4.88439 5.5 5.5 6.11561 5.5 6.875V7.25H7.5V4.75C7.5 3.64543 8.39543 2.75 9.5 2.75H10.5V2.375C10.5 1.61561 11.1156 1 11.875 1H14.625L14.7656 1.00684C15.459 1.07726 16 1.66307 16 2.375V4.625Z" fill="#44546F"/>
</svg>
