<svg width="16" height="16" viewBox="0 0 16 16" fill="none" xmlns="http://www.w3.org/2000/svg">
<path d="M8.2666 15.8263C8.09498 15.8915 7.90502 15.8915 7.7334 15.8263L8 15.1251L8.2666 15.8263ZM7.52637 0.168086C7.82095 -0.0722232 8.25567 -0.0547602 8.53027 0.219844C9.82824 1.51781 11.3132 2.41197 12.4844 2.98254C13.0678 3.26679 13.5686 3.46736 13.9199 3.5968C14.0953 3.6614 14.233 3.70855 14.3252 3.7384C14.371 3.75324 14.4056 3.76389 14.4277 3.77062C14.4388 3.77399 14.4475 3.77608 14.4521 3.77746C14.4541 3.77804 14.4553 3.77919 14.4561 3.77941L14.5723 3.82238C14.8303 3.94497 15 4.2072 15 4.50012C15 8.83751 13.3491 11.6754 11.666 13.4259C10.8303 14.295 9.99346 14.89 9.3623 15.2687C9.04647 15.4582 8.78042 15.5943 8.58984 15.6847C8.49463 15.7298 8.41816 15.764 8.36328 15.7872C8.33582 15.7989 8.31309 15.8081 8.29688 15.8146C8.28898 15.8177 8.2824 15.8204 8.27734 15.8224C8.27482 15.8234 8.2723 15.8236 8.27051 15.8243L8.2666 15.8263L8 15.1251L7.7334 15.8263L7.72949 15.8243C7.7277 15.8236 7.72518 15.8234 7.72266 15.8224C7.7176 15.8204 7.71102 15.8177 7.70312 15.8146C7.68691 15.8081 7.66418 15.7989 7.63672 15.7872C7.58184 15.764 7.50537 15.7298 7.41016 15.6847C7.21958 15.5943 6.95353 15.4582 6.6377 15.2687C6.00654 14.89 5.16965 14.295 4.33398 13.4259C2.65093 11.6754 1 8.83751 1 4.50012L1.00977 4.37707C1.05653 4.09503 1.26216 3.85998 1.54395 3.77941L1.54785 3.77746C1.55255 3.77608 1.56119 3.77399 1.57227 3.77062C1.59443 3.76389 1.62896 3.75324 1.6748 3.7384C1.76701 3.70855 1.90472 3.6614 2.08008 3.5968C2.4314 3.46736 2.93215 3.26679 3.51562 2.98254C4.68677 2.41197 6.17176 1.51781 7.46973 0.219844L7.52637 0.168086ZM8 1.78234C6.68968 2.96205 5.28627 3.78729 4.17188 4.33019C3.53682 4.63958 2.99043 4.861 2.59961 5.005C2.56908 5.01625 2.53838 5.02495 2.50977 5.03527C2.63706 8.63988 4.04106 10.9569 5.41602 12.3868C6.14261 13.1424 6.86858 13.6572 7.40918 13.9816C7.6488 14.1253 7.85188 14.2298 8 14.3019C8.14812 14.2298 8.3512 14.1253 8.59082 13.9816C9.13142 13.6572 9.85739 13.1424 10.584 12.3868C11.9589 10.9569 13.362 8.63986 13.4893 5.03527C13.4609 5.02504 13.4306 5.01613 13.4004 5.005C13.0096 4.861 12.4632 4.63958 11.8281 4.33019C10.7137 3.78729 9.31032 2.96205 8 1.78234ZM11.0762 6.60559L7.74316 10.6056C7.60074 10.7765 7.38944 10.875 7.16699 10.8751C6.94456 10.8751 6.73331 10.7764 6.59082 10.6056L4.92383 8.60559L6.07617 7.64465L7.16602 8.95324L9.92383 5.64465L11.0762 6.60559Z" fill="#292A2E"/>
</svg>
