<svg width="16" height="16" viewBox="0 0 16 16" fill="none" xmlns="http://www.w3.org/2000/svg">
<path d="M0 12V10H1.5V12C1.5 12.2761 1.72386 12.5 2 12.5H4V14H2C0.89543 14 1.20798e-08 13.1046 0 12ZM9.5 12.5V14H6.5V12.5H9.5ZM14.5 12V10H16V12C16 13.1046 15.1046 14 14 14H12V12.5H14C14.2761 12.5 14.5 12.2761 14.5 12ZM0 4C1.208e-08 2.89543 0.89543 2 2 2H4V3.5H2C1.72386 3.5 1.5 3.72386 1.5 4V6H0V4ZM14.5 4C14.5 3.72386 14.2761 3.5 14 3.5H12V2H14C15.1046 2 16 2.89543 16 4V6H14.5V4ZM9.5 2V3.5H6.5V2H9.5Z" fill="#292A2E"/>
</svg>
