<svg width="16" height="16" viewBox="0 0 16 16" fill="none" xmlns="http://www.w3.org/2000/svg">
<path d="M13.1365 2.02188C13.3673 1.99184 13.5989 2.0712 13.7635 2.23574C13.9281 2.40031 14.0073 2.63192 13.9774 2.8627L12.9168 10.9945C12.8799 11.2779 12.6844 11.5158 12.4139 11.6078C12.1435 11.6996 11.8444 11.6301 11.6424 11.4281L8.63654 8.42227L2.98029 14.0795L1.91974 13.0189L7.57599 7.36172L4.57111 4.35684C4.36927 4.15485 4.29956 3.85571 4.39142 3.58535C4.48342 3.31485 4.72138 3.12036 5.0047 3.0834L13.1365 2.02188ZM6.7088 4.37344L11.6258 9.29043L12.3631 3.63613L6.7088 4.37344Z" fill="#292A2E"/>
</svg>
