<svg width="16" height="16" viewBox="0 0 16 16" fill="none" xmlns="http://www.w3.org/2000/svg">
<path d="M12.5 4C12.5 3.72386 12.2761 3.5 12 3.5H4C3.72387 3.50002 3.5 3.72387 3.5 4V12C3.5 12.2761 3.72387 12.5 4 12.5H12C12.2761 12.5 12.5 12.2761 12.5 12V4ZM9.75 5.5C10.1642 5.5 10.5 5.83579 10.5 6.25V9.75C10.5 10.1642 10.1642 10.5 9.75 10.5H6.25C5.83579 10.5 5.5 10.1642 5.5 9.75V6.25C5.5 5.83579 5.83579 5.5 6.25 5.5H9.75ZM7 9H9V7H7V9ZM14 4.5H15.5V6H14V7.25H15.5V8.75H14V10H15.5V11.5H14V12C14 13.1046 13.1046 14 12 14H11.5V15.5H10V14H8.75V15.5H7.25V14H6V15.5H4.5V14H4C2.89545 14 2 13.1046 2 12V11.5H0.5V10H2V8.75H0.5V7.25H2V6H0.5V4.5H2V4C2 2.89544 2.89545 2.00002 4 2H4.5V0.5H6V2H7.25V0.5H8.75V2H10V0.5H11.5V2H12C13.1046 2 14 2.89543 14 4V4.5Z" fill="#292A2E"/>
</svg>
