<svg width="16" height="16" viewBox="0 0 16 16" fill="none" xmlns="http://www.w3.org/2000/svg">
<path d="M8 12.375V10.4375C8 9.61139 8.389 8.83364 9.0498 8.33789L9.5 8L9.0498 7.66211C8.389 7.16636 8 6.38861 8 5.5625V3.625C8 3.00368 7.49632 2.5 6.875 2.5H6V1H6.875C8.32475 1 9.5 2.17525 9.5 3.625V5.5625C9.5 5.9166 9.66691 6.25043 9.9502 6.46289L11.2002 7.40039L11.2676 7.45703C11.4151 7.59767 11.5 7.79362 11.5 8C11.5 8.20638 11.4151 8.40233 11.2676 8.54297L11.2002 8.59961L9.9502 9.53711C9.66691 9.74957 9.5 10.0834 9.5 10.4375V12.375C9.5 13.8247 8.32475 15 6.875 15H6V13.5H6.875C7.49632 13.5 8 12.9963 8 12.375Z" fill="#44546F"/>
</svg>
