<svg width="16" height="16" viewBox="0 0 16 16" fill="none" xmlns="http://www.w3.org/2000/svg">
<path d="M2.37988 6.17993C3.12616 5.70673 4.07498 5.36867 5.17285 5.51489C6.26869 5.66099 7.40119 6.27471 8.54492 7.4856C9.52589 8.52423 10.3626 8.9109 11.0244 8.99927C11.6841 9.08721 12.2825 8.89409 12.8174 8.55493C13.3591 8.21137 13.8059 7.73582 14.124 7.32837C14.2808 7.12756 14.4006 6.94964 14.4805 6.82446C14.5201 6.76237 14.5497 6.71373 14.5684 6.68189C14.5777 6.66596 14.585 6.65357 14.5889 6.64673L14.5918 6.64087C14.5918 6.64087 14.5918 6.64119 15.25 7.00025C15.9084 7.35939 15.9082 7.3606 15.9082 7.3606L15.9072 7.36157L15.9062 7.36353C15.9062 7.36353 15.9044 7.36648 15.9033 7.36841C15.901 7.3726 15.8983 7.37838 15.8945 7.38501C15.8868 7.39862 15.8758 7.41763 15.8623 7.44068C15.835 7.4871 15.7955 7.55209 15.7451 7.63111C15.6443 7.78911 15.4965 8.00674 15.3057 8.25122C14.9285 8.73433 14.3595 9.35267 13.6201 9.82153C12.8739 10.2947 11.925 10.6328 10.8271 10.4866C9.73133 10.3405 8.59878 9.72671 7.45508 8.51587C6.47412 7.47725 5.63741 7.09057 4.97559 7.0022C4.31594 6.91426 3.71745 7.10738 3.18262 7.44653C2.6409 7.7901 2.19407 8.26567 1.87598 8.6731C1.71923 8.87387 1.59938 9.05184 1.51953 9.177C1.47992 9.23911 1.45033 9.28776 1.43164 9.31958C1.42234 9.33541 1.41501 9.34691 1.41113 9.35376C1.40936 9.35689 1.4082 9.3606 1.4082 9.3606L0.75 9.00025C0.10057 8.646 0.0917969 8.64087 0.0917969 8.64087L0.0927734 8.63989L0.09375 8.63794C0.09375 8.63794 0.0956061 8.63499 0.0966797 8.63306C0.0990613 8.62877 0.101594 8.62233 0.105469 8.61548C0.113209 8.60179 0.124092 8.58298 0.137695 8.55982C0.164992 8.51334 0.204442 8.44845 0.254883 8.36939C0.355681 8.2114 0.503575 7.99459 0.694336 7.75025C1.07153 7.26713 1.64047 6.64882 2.37988 6.17993Z" fill="#292A2E"/>
</svg>
