<svg width="16" height="16" viewBox="0 0 16 16" fill="none" xmlns="http://www.w3.org/2000/svg">
<path d="M9.45703 2.05953C9.73417 1.94197 10.055 2.00166 10.2715 2.21089L15.7715 7.5273C15.9187 7.66965 16.0012 7.86645 16 8.07124C15.9987 8.27621 15.9138 8.47266 15.7646 8.61324L10.2646 13.7959C10.0469 14.0011 9.72785 14.0569 9.45312 13.9384C9.17834 13.8198 9 13.5493 9 13.25V10.75H0.75C0.335786 10.75 0 10.4142 0 9.99996V5.99996C5.15408e-07 5.58574 0.335787 5.24996 0.75 5.24996H9V2.74996C9 2.44895 9.17995 2.1771 9.45703 2.05953ZM10.5 5.99996C10.5 6.41417 10.1642 6.74996 9.75 6.74996H1.5V9.24996H9.75C10.1642 9.24996 10.5 9.58574 10.5 9.99996V11.5117L14.1631 8.05953L10.5 4.51753V5.99996Z" fill="#292A2E"/>
</svg>
