<svg width="16" height="16" viewBox="0 0 16 16" fill="none" xmlns="http://www.w3.org/2000/svg">
<path d="M14.5 8C14.5 6.85079 13.858 5.74384 12.6865 4.89551C11.5159 4.04782 9.86146 3.5 8 3.5C6.13854 3.5 4.4841 4.04782 3.31348 4.89551C2.14202 5.74384 1.5 6.85079 1.5 8C1.5 9.14921 2.14202 10.2562 3.31348 11.1045C4.4841 11.9522 6.13854 12.5 8 12.5C9.86146 12.5 11.5159 11.9522 12.6865 11.1045C13.858 10.2562 14.5 9.14921 14.5 8ZM16 8C16 9.75017 15.0188 11.2676 13.5664 12.3193C12.113 13.3718 10.1426 14 8 14C5.8574 14 3.88696 13.3718 2.43359 12.3193C0.981238 11.2676 0 9.75017 0 8C0 6.24983 0.981238 4.73245 2.43359 3.68066C3.88696 2.62823 5.8574 2 8 2C10.1426 2 12.113 2.62823 13.5664 3.68066C15.0188 4.73245 16 6.24983 16 8Z" fill="#292A2E"/>
</svg>
