<svg width="16" height="16" viewBox="0 0 16 16" fill="none" xmlns="http://www.w3.org/2000/svg">
<path d="M0 5.25C4.02666e-08 3.45507 1.45507 2 3.25 2H14V3.5H3.25C2.2835 3.5 1.5 4.2835 1.5 5.25V11H0V5.25ZM14.5 7C14.5 6.72386 14.2761 6.5 14 6.5H5C4.72386 6.5 4.5 6.72386 4.5 7V12.0498L7.15137 13.4639C7.32262 13.5551 7.53128 13.5393 7.68652 13.4229L10.4141 11.377L10.5322 11.2949C11.1384 10.9051 11.9122 10.8702 12.5547 11.2129L14.5 12.25V7ZM16 13.083C16 13.7909 15.2926 14.2598 14.6553 14.0225L14.5293 13.9658L11.8486 12.5361C11.6988 12.4563 11.5203 12.4582 11.374 12.5381L11.3135 12.5771L8.58594 14.623C7.96475 15.0887 7.13033 15.1525 6.44531 14.7871L3.5293 13.2324C3.20347 13.0586 3 12.7189 3 12.3496V7C3 5.89543 3.89543 5 5 5H14C15.1046 5 16 5.89543 16 7V13.083Z" fill="#44546F"/>
</svg>
