<svg width="16" height="16" viewBox="0 0 16 16" fill="none" xmlns="http://www.w3.org/2000/svg">
<path d="M6.54298 2.05953C6.26584 1.94197 5.94497 2.00166 5.72853 2.21089L0.228528 7.5273C0.0812741 7.66965 -0.00116241 7.86645 1.23865e-05 8.07124C0.00131867 8.27621 0.0861916 8.47266 0.235364 8.61324L5.73536 13.7959C5.95311 14.0011 6.27216 14.0569 6.54689 13.9384C6.82168 13.8198 7.00001 13.5493 7.00001 13.25V10.75H15.25C15.6642 10.75 16 10.4142 16 9.99996V5.99996C16 5.58574 15.6642 5.24996 15.25 5.24996H7.00001V2.74996C7.00001 2.44895 6.82006 2.1771 6.54298 2.05953ZM5.50001 5.99996C5.50001 6.41417 5.8358 6.74996 6.25001 6.74996H14.5V9.24996H6.25001C5.8358 9.24996 5.50001 9.58574 5.50001 9.99996V11.5117L1.83693 8.05953L5.50001 4.51753V5.99996Z" fill="#292A2E"/>
</svg>
