<svg width="16" height="16" viewBox="0 0 16 16" fill="none" xmlns="http://www.w3.org/2000/svg">
<path d="M11.75 8C11.75 6.45412 12.0762 5.01706 12.6406 3.93945C12.7195 3.78896 12.8066 3.6422 12.8994 3.5H4C3.60268 3.5 2.98949 3.82371 2.43066 4.66504C1.8938 5.47337 1.5 6.64 1.5 8C1.5 9.36 1.8938 10.5266 2.43066 11.335C2.98949 12.1763 3.60268 12.5 4 12.5H12.8994C12.8066 12.3578 12.7194 12.211 12.6406 12.0605C12.0762 10.9829 11.75 9.54588 11.75 8ZM13.25 8C13.25 9.35349 13.5389 10.5418 13.9697 11.3643C14.4192 12.2223 14.9095 12.5 15.25 12.5L15.3271 12.5039C15.7051 12.5425 16 12.8619 16 13.25C16 13.6382 15.7051 13.9575 15.3271 13.9961L15.25 14H4C2.87858 14 1.86712 13.1986 1.18066 12.165C0.47222 11.0984 0 9.64 0 8C0 6.36 0.47222 4.90163 1.18066 3.83496C1.86712 2.80142 2.87858 2 4 2H15.25L15.3271 2.00391C15.7051 2.04252 16 2.36187 16 2.75C16 3.16421 15.6642 3.5 15.25 3.5C14.9095 3.5 14.4192 3.77772 13.9697 4.63574C13.5389 5.45822 13.25 6.64647 13.25 8Z" fill="#292A2E"/>
</svg>
