<svg width="16" height="16" viewBox="0 0 16 16" fill="none" xmlns="http://www.w3.org/2000/svg">
<path d="M14.5 4.5C14.5 4.22386 14.2761 4 14 4H2.42676L5.5586 7.5C5.81335 7.78473 5.81335 8.21527 5.5586 8.5L2.42676 12H14C14.2761 12 14.5 11.7761 14.5 11.5V4.5ZM16 11.5C16 12.6046 15.1046 13.5 14 13.5H0.750002C0.454216 13.5 0.186163 13.3257 0.0654321 13.0557C-0.0551026 12.7857 -0.00573628 12.4703 0.191409 12.25L3.99317 8L0.191409 3.75C-0.00573628 3.52966 -0.0551026 3.21429 0.0654321 2.94434C0.186163 2.67431 0.454216 2.5 0.750002 2.5H14C15.1046 2.5 16 3.39543 16 4.5V11.5Z" fill="#292A2E"/>
</svg>
