<svg width="16" height="16" viewBox="0 0 16 16" fill="none" xmlns="http://www.w3.org/2000/svg">
<path d="M13.5 3C13.5 2.72386 13.2761 2.5 13 2.5H3C2.72386 2.5 2.5 2.72386 2.5 3V8.6582C2.5 8.80785 2.56698 8.94995 2.68262 9.04492L8 13.4043L13.3174 9.04492L13.3945 8.96582C13.4623 8.87882 13.5 8.77056 13.5 8.6582V3ZM15 8.6582C15 9.18233 14.7943 9.68242 14.4326 10.0537L14.2686 10.2051L8.87207 14.6299C8.39682 15.0196 7.72532 15.0441 7.22559 14.7031L7.12793 14.6299L1.73145 10.2051C1.2683 9.8252 1 9.25722 1 8.6582V3C1 1.89543 1.89543 1 3 1H13C14.1046 1 15 1.89543 15 3V8.6582Z" fill="#44546F"/>
</svg>
