<svg width="16" height="16" viewBox="0 0 16 16" fill="none" xmlns="http://www.w3.org/2000/svg">
<path d="M6.87305 6.49121C7.41657 5.45606 8.49937 4.74902 9.75 4.74902C11.2867 4.74902 12.5735 5.81578 12.9121 7.24902H16V8.74902H12.9121C12.5735 10.1823 11.2867 11.249 9.75 11.249C8.49907 11.249 7.41644 10.5414 6.87305 9.50586L1.37207 12.6504L0.62793 11.3477L5.17578 8.74902H0V7.24902H5.17578L0.62793 4.65039L1.37207 3.34766L6.87305 6.49121ZM9.75 6.24902C8.88186 6.24902 8.16012 6.88237 8.02344 7.71191C8.00814 7.80487 8 7.90072 8 7.99902C8 8.09732 8.00814 8.19317 8.02344 8.28613C8.16012 9.11568 8.88186 9.74902 9.75 9.74902C10.7165 9.74902 11.5 8.96552 11.5 7.99902C11.5 7.03253 10.7165 6.24902 9.75 6.24902Z" fill="#292A2E"/>
</svg>
