<svg width="16" height="16" viewBox="0 0 16 16" fill="none" xmlns="http://www.w3.org/2000/svg">
<path d="M5.72853 2.21089C5.94497 2.00166 6.26584 1.94197 6.54298 2.05953C6.82006 2.1771 7.00001 2.44895 7.00001 2.74996V5.24996H15.25C15.6642 5.24996 16 5.58574 16 5.99996V9.99996C16 10.4141 15.6642 10.75 15.25 10.75H7.00001V13.25C6.99999 13.5492 6.82166 13.8198 6.54689 13.9384C6.27217 14.0569 5.9531 14.001 5.73536 13.7959L0.235364 8.61324C0.0862024 8.47267 0.00133071 8.2762 1.23823e-05 8.07124C-0.00116234 7.86646 0.0812922 7.66965 0.228528 7.5273L5.72853 2.21089Z" fill="#292A2E"/>
</svg>
