<svg width="16" height="16" viewBox="0 0 16 16" fill="none" xmlns="http://www.w3.org/2000/svg">
<path d="M10.0625 13.5C9.9288 13.2445 9.80858 12.9667 9.70312 12.6738C9.25963 11.4419 9 9.78913 9 8C9 6.21087 9.25963 4.5581 9.70312 3.32617C9.80858 3.03326 9.9288 2.75549 10.0625 2.5L4.75 2.5C4.32224 2.5 3.76458 2.85169 3.27246 3.89941C2.79975 4.90584 2.5 6.35315 2.5 8C2.5 9.64685 2.79975 11.0942 3.27246 12.1006C3.76458 13.1483 4.32224 13.5 4.75 13.5H10.0625ZM12 13.5C12.0067 13.5 12.1126 13.4981 12.3047 13.2725C12.4942 13.0498 12.6992 12.6832 12.8857 12.165C13.2565 11.1349 13.5 9.66242 13.5 8C13.5 6.33758 13.2565 4.86507 12.8857 3.83496C12.6992 3.31684 12.4942 2.95023 12.3047 2.72754C12.1126 2.50186 12.0067 2.5 12 2.5C11.9933 2.5 11.8874 2.50186 11.6953 2.72754C11.5058 2.95023 11.3008 3.31684 11.1143 3.83496C10.7435 4.86507 10.5 6.33758 10.5 8C10.5 9.66242 10.7435 11.1349 11.1143 12.165C11.3008 12.6832 11.5058 13.0498 11.6953 13.2725C11.8874 13.4981 11.9933 13.5 12 13.5ZM4.75 15C3.42778 15 2.48542 13.9526 1.91504 12.7383C1.32526 11.4826 1 9.80491 1 8C1 6.19509 1.32526 4.51735 1.91504 3.26172C2.48542 2.04741 3.42778 1 4.75 1L12 1C12.6146 1 13.101 1.34803 13.4473 1.75488C13.796 2.16468 14.0763 2.71353 14.2969 3.32617C14.7404 4.5581 15 6.21087 15 8C15 9.78913 14.7404 11.4419 14.2969 12.6738C14.0763 13.2865 13.796 13.8353 13.4473 14.2451C13.101 14.652 12.6146 15 12 15H4.75Z" fill="#292A2E"/>
</svg>
