<svg width="16" height="16" viewBox="0 0 16 16" fill="none" xmlns="http://www.w3.org/2000/svg">
<path d="M2.5 3C2.5 2.72386 2.72386 2.5 3 2.5H13C13.2761 2.5 13.5 2.72386 13.5 3V13C13.5 13.2761 13.2761 13.5 13 13.5H3C2.72386 13.5 2.5 13.2761 2.5 13V3ZM4.24121 7.44922C4.08753 7.59119 4 7.79077 4 8C4 8.20923 4.08753 8.40881 4.24121 8.55078L7.49121 11.5508L8.50879 10.4492L6.66797 8.75H12V7.25H6.66797L8.50879 5.55078L7.49121 4.44922L4.24121 7.44922ZM1 13C1 14.1046 1.89543 15 3 15H13C14.1046 15 15 14.1046 15 13V3C15 1.89543 14.1046 1 13 1H3C1.89543 1 1 1.89543 1 3V13Z" fill="#292A2E"/>
</svg>
