<svg width="16" height="16" viewBox="0 0 16 16" fill="none" xmlns="http://www.w3.org/2000/svg">
<path d="M8 1C11.866 1 15 4.13401 15 8C15 11.866 11.866 15 8 15C4.13401 15 1 11.866 1 8C1 4.13401 4.13401 1 8 1ZM2.55273 8.75C2.88519 11.1873 4.81268 13.1148 7.25 13.4473V8.75H2.55273ZM8.75 13.4473C11.1873 13.1148 13.1148 11.1873 13.4473 8.75H8.75V13.4473ZM8.75 7.25H13.4473C13.1148 4.81264 11.1874 2.88416 8.75 2.55176V7.25ZM7.25 2.55176C4.81262 2.88416 2.88519 4.81264 2.55273 7.25H7.25V2.55176Z" fill="#44546F"/>
</svg>
