<svg width="16" height="16" viewBox="0 0 16 16" fill="none" xmlns="http://www.w3.org/2000/svg">
<path d="M13.5 8C13.5 6.75144 13.0828 5.60089 12.3818 4.67773L9.06055 8L12.3818 11.3213C13.0826 10.3982 13.5 9.24828 13.5 8ZM4.67773 12.3818C5.60089 13.0828 6.75144 13.5 8 13.5C9.24828 13.5 10.3982 13.0826 11.3213 12.3818L8 9.06055L4.67773 12.3818ZM8 2.5C6.75165 2.5 5.60081 2.91639 4.67773 3.61719L8 6.93945L11.3213 3.61719C10.3983 2.91668 9.24807 2.5 8 2.5ZM2.5 8C2.5 9.24807 2.91668 10.3983 3.61719 11.3213L6.93945 8L3.61719 4.67773C2.91639 5.60081 2.5 6.75165 2.5 8ZM15 8C15 11.866 11.866 15 8 15C4.13401 15 1 11.866 1 8C1 4.13401 4.13401 1 8 1C11.866 1 15 4.13401 15 8Z" fill="#292A2E"/>
</svg>
