<svg width="16" height="16" viewBox="0 0 16 16" fill="none" xmlns="http://www.w3.org/2000/svg">
<path d="M13 8.5H10.667V14.5H12.5C12.7761 14.5 13 14.2761 13 14V8.5ZM6.83301 14.5H9.16699V8.5H6.83301V14.5ZM10.667 7H13V5H10.667V7ZM6.83301 7H9.16699V5H6.83301V7ZM3 7H5.33301V5H3V7ZM3 14C3 14.2761 3.22386 14.5 3.5 14.5H5.33301V8.5H3V14ZM13 2C13 1.72386 12.7761 1.5 12.5 1.5H3.5C3.22386 1.5 3 1.72386 3 2V3.5H13V2ZM14.5 14C14.5 15.1046 13.6046 16 12.5 16H3.5C2.39543 16 1.5 15.1046 1.5 14V2C1.5 0.895431 2.39543 2.41596e-08 3.5 0H12.5C13.6046 0 14.5 0.895431 14.5 2V14Z" fill="#292A2E"/>
</svg>
