<svg width="16" height="16" viewBox="0 0 16 16" fill="none" xmlns="http://www.w3.org/2000/svg">
<path d="M9.5 3C9.5 2.17157 8.82843 1.5 8 1.5C7.17157 1.5 6.5 2.17157 6.5 3C6.5 3.82839 7.17157 4.49997 8 4.5C8.82843 4.5 9.5 3.82843 9.5 3ZM11 3C11 4.39752 10.0434 5.56799 8.75 5.90137V7H13V8.5H8.75V10.5029L12.1035 15.0547L10.8965 15.9453L8 12.0137L5.10352 15.9453L3.89648 15.0547L7.25 10.5029V8.5H3V7H7.25V5.90137C5.95661 5.56798 5 4.39752 5 3C5 1.34315 6.34315 0 8 0C9.65685 0 11 1.34315 11 3Z" fill="#292A2E"/>
</svg>
