<svg width="16" height="16" viewBox="0 0 16 16" fill="none" xmlns="http://www.w3.org/2000/svg">
<path d="M13 3C13 2.72386 12.7761 2.5 12.5 2.5H3.5C3.22386 2.5 3 2.72386 3 3V13C3 13.2761 3.22386 13.5 3.5 13.5H12.5C12.7761 13.5 13 13.2761 13 13V3ZM14.5 13C14.5 14.1046 13.6046 15 12.5 15H3.5C2.39543 15 1.5 14.1046 1.5 13V11.5H0V10H1.5V6H0V4.5H1.5V3C1.5 1.89543 2.39543 1 3.5 1H12.5C13.6046 1 14.5 1.89543 14.5 3V13Z" fill="#292A2E"/>
<path d="M8.75 9C9.85457 9 10.75 9.89543 10.75 11V11.25C10.75 11.6642 10.4142 12 10 12H6C5.58579 12 5.25 11.6642 5.25 11.25V11C5.25 9.89543 6.14543 9 7.25 9H8.75Z" fill="#292A2E"/>
<path d="M8 4.5C8.9665 4.5 9.75 5.2835 9.75 6.25C9.75 7.2165 8.9665 8 8 8C7.0335 8 6.25 7.2165 6.25 6.25C6.25 5.2835 7.0335 4.5 8 4.5Z" fill="#292A2E"/>
</svg>
