<svg width="16" height="16" viewBox="0 0 16 16" fill="none" xmlns="http://www.w3.org/2000/svg">
<path fill-rule="evenodd" clip-rule="evenodd" d="M14 15L14 12.5C14 11.3954 13.1046 10.5 12 10.5H4C2.89543 10.5 2 11.3954 2 12.5L2 15H3.5L3.5 12.5C3.5 12.2239 3.72386 12 4 12H12C12.2761 12 12.5 12.2239 12.5 12.5L12.5 15L14 15ZM16 7.25H0V8.75H16V7.25ZM2 3.50054C2 4.60554 2.89585 5.5 4 5.5H12C13.1046 5.5 14 4.60457 14 3.50001L14 1L12.5 1L12.5 3.5C12.5 3.77614 12.2761 4 12 4H4C3.72343 4 3.5 3.77626 3.5 3.50054V1H2V3.50054Z" fill="#292A2E"/>
</svg>
