<svg width="16" height="16" viewBox="0 0 16 16" fill="none" xmlns="http://www.w3.org/2000/svg">
<path d="M11.25 7C11.6642 7 12 7.33579 12 7.75V11.25C12 11.6642 11.6642 12 11.25 12H7.75C7.33579 12 7 11.6642 7 11.25V7.75C7 7.33579 7.33579 7 7.75 7H11.25Z" fill="#292A2E"/>
<path fill-rule="evenodd" clip-rule="evenodd" d="M13 1C14.1046 1 15 1.89543 15 3V13C15 14.1046 14.1046 15 13 15H3C1.89543 15 1 14.1046 1 13V3C1 1.89543 1.89543 1 3 1H13ZM3 2.5C2.72386 2.5 2.5 2.72386 2.5 3V13C2.5 13.2761 2.72386 13.5 3 13.5H13C13.2761 13.5 13.5 13.2761 13.5 13V3C13.5 2.72386 13.2761 2.5 13 2.5H3Z" fill="#292A2E"/>
</svg>
