<svg width="16" height="16" viewBox="0 0 16 16" fill="none" xmlns="http://www.w3.org/2000/svg">
<path fill-rule="evenodd" clip-rule="evenodd" d="M11.8357 0.853609C12.6168 0.0725611 13.8831 0.0725592 14.6642 0.853608L15.1464 1.33584C15.9274 2.11689 15.9274 3.38322 15.1464 4.16427L12.9985 6.31221C13.5859 7.33941 13.9861 8.46193 14.0977 9.54135C14.2287 10.808 13.9649 12.0957 13.0303 13.0304C12.0116 14.0491 10.731 14.0551 9.6632 13.6356C8.62455 13.2276 7.69752 12.3985 7.1259 11.5411L8.37398 10.709C8.80236 11.3516 9.50033 11.96 10.2117 12.2395C10.8939 12.5075 11.4883 12.451 11.9696 11.9697C12.4853 11.4541 12.7069 10.6749 12.6057 9.69566C12.5309 8.97321 12.2818 8.18564 11.8918 7.41882L10.1683 9.14233C9.97056 9.3401 9.71719 9.47285 9.44202 9.52288L6.8841 9.98796C6.64196 10.032 6.39363 9.95441 6.21961 9.78039C6.04558 9.60636 5.96801 9.35803 6.01204 9.11589L6.47711 6.55798C6.52714 6.28281 6.6599 6.02944 6.85766 5.83167L8.6226 4.06674C7.08776 3.31115 5.26936 3.14765 3.85508 4.32622C2.81423 5.19359 2.35761 7.24594 3.12983 9.45576C3.87689 11.5936 5.74533 13.7091 9.05383 14.5217L8.69605 15.9784C4.87955 15.041 2.62299 12.5523 1.7138 9.95059C0.829771 7.42082 1.18565 4.59818 2.8948 3.17389C5.10875 1.32893 7.83167 1.88429 9.73056 2.95878L11.8357 0.853609ZM13.6035 1.91427C13.4082 1.71901 13.0916 1.71901 12.8964 1.91427L7.94593 6.86472L7.68164 8.31836L9.13527 8.05406L14.0857 3.10361C14.281 2.90835 14.281 2.59176 14.0857 2.3965L13.6035 1.91427Z" fill="#44546F"/>
</svg>
