<svg width="16" height="16" viewBox="0 0 16 16" fill="none" xmlns="http://www.w3.org/2000/svg">
<path d="M0.75 4C0.75 3.30964 1.30964 2.75 2 2.75H11C11.6904 2.75 12.25 3.30964 12.25 4V10C12.25 10.6904 11.6904 11.25 11 11.25H2C1.30964 11.25 0.75 10.6904 0.75 10V4Z" stroke="#44546F" stroke-width="1.5" stroke-linejoin="round"/>
<path d="M4 14.25C4 14.6642 3.66421 15 3.25 15C2.83579 15 2.5 14.6642 2.5 14.25C2.5 13.8358 2.83579 13.5 3.25 13.5C3.66421 13.5 4 13.8358 4 14.25Z" fill="#44546F"/>
<path d="M7 14.25C7 14.6642 6.66421 15 6.25 15C5.83579 15 5.5 14.6642 5.5 14.25C5.5 13.8358 5.83579 13.5 6.25 13.5C6.66421 13.5 7 13.8358 7 14.25Z" fill="#44546F"/>
<path d="M10 14.25C10 14.6642 9.66421 15 9.25 15C8.83579 15 8.5 14.6642 8.5 14.25C8.5 13.8358 8.83579 13.5 9.25 13.5C9.66421 13.5 10 13.8358 10 14.25Z" fill="#44546F"/>
<path d="M13 14.25C13 14.6642 12.6642 15 12.25 15C11.8358 15 11.5 14.6642 11.5 14.25C11.5 13.8358 11.8358 13.5 12.25 13.5C12.6642 13.5 13 13.8358 13 14.25Z" fill="#44546F"/>
<path d="M16 14.25C16 14.6642 15.6642 15 15.25 15C14.8358 15 14.5 14.6642 14.5 14.25C14.5 13.8358 14.8358 13.5 15.25 13.5C15.6642 13.5 16 13.8358 16 14.25Z" fill="#44546F"/>
<path d="M16 11.25C16 11.6642 15.6642 12 15.25 12C14.8358 12 14.5 11.6642 14.5 11.25C14.5 10.8358 14.8358 10.5 15.25 10.5C15.6642 10.5 16 10.8358 16 11.25Z" fill="#44546F"/>
<path d="M16 8.25C16 8.66421 15.6642 9 15.25 9C14.8358 9 14.5 8.66421 14.5 8.25C14.5 7.83579 14.8358 7.5 15.25 7.5C15.6642 7.5 16 7.83579 16 8.25Z" fill="#44546F"/>
<path d="M16 5.25C16 5.66421 15.6642 6 15.25 6C14.8358 6 14.5 5.66421 14.5 5.25C14.5 4.83579 14.8358 4.5 15.25 4.5C15.6642 4.5 16 4.83579 16 5.25Z" fill="#44546F"/>
</svg>
