<svg width="16" height="16" viewBox="0 0 16 16" fill="none" xmlns="http://www.w3.org/2000/svg">
<path fill-rule="evenodd" clip-rule="evenodd" d="M0 4C0 2.89543 0.89543 2 2 2H11C12.1046 2 13 2.89543 13 4V10C13 11.1046 12.1046 12 11 12H2C0.89543 12 0 11.1046 0 10V4ZM2 3.5C1.72386 3.5 1.5 3.72386 1.5 4V10C1.5 10.2761 1.72386 10.5 2 10.5H11C11.2761 10.5 11.5 10.2761 11.5 10V4C11.5 3.72386 11.2761 3.5 11 3.5H2Z" fill="#292A2E"/>
<path d="M4 14.25C4 14.6642 3.66421 15 3.25 15C2.83579 15 2.5 14.6642 2.5 14.25C2.5 13.8358 2.83579 13.5 3.25 13.5C3.66421 13.5 4 13.8358 4 14.25Z" fill="#292A2E"/>
<path d="M7 14.25C7 14.6642 6.66421 15 6.25 15C5.83579 15 5.5 14.6642 5.5 14.25C5.5 13.8358 5.83579 13.5 6.25 13.5C6.66421 13.5 7 13.8358 7 14.25Z" fill="#292A2E"/>
<path d="M10 14.25C10 14.6642 9.66421 15 9.25 15C8.83579 15 8.5 14.6642 8.5 14.25C8.5 13.8358 8.83579 13.5 9.25 13.5C9.66421 13.5 10 13.8358 10 14.25Z" fill="#292A2E"/>
<path d="M13 14.25C13 14.6642 12.6642 15 12.25 15C11.8358 15 11.5 14.6642 11.5 14.25C11.5 13.8358 11.8358 13.5 12.25 13.5C12.6642 13.5 13 13.8358 13 14.25Z" fill="#292A2E"/>
<path d="M16 14.25C16 14.6642 15.6642 15 15.25 15C14.8358 15 14.5 14.6642 14.5 14.25C14.5 13.8358 14.8358 13.5 15.25 13.5C15.6642 13.5 16 13.8358 16 14.25Z" fill="#292A2E"/>
<path d="M16 11.25C16 11.6642 15.6642 12 15.25 12C14.8358 12 14.5 11.6642 14.5 11.25C14.5 10.8358 14.8358 10.5 15.25 10.5C15.6642 10.5 16 10.8358 16 11.25Z" fill="#292A2E"/>
<path d="M16 8.25C16 8.66421 15.6642 9 15.25 9C14.8358 9 14.5 8.66421 14.5 8.25C14.5 7.83579 14.8358 7.5 15.25 7.5C15.6642 7.5 16 7.83579 16 8.25Z" fill="#292A2E"/>
<path d="M16 5.25C16 5.66421 15.6642 6 15.25 6C14.8358 6 14.5 5.66421 14.5 5.25C14.5 4.83579 14.8358 4.5 15.25 4.5C15.6642 4.5 16 4.83579 16 5.25Z" fill="#292A2E"/>
</svg>
