<svg width="16" height="16" viewBox="0 0 16 16" fill="none" xmlns="http://www.w3.org/2000/svg">
<path d="M12.75 1L12.8457 1.00586C13.0669 1.03428 13.2658 1.16063 13.3857 1.35254L15.8857 5.35254C16.0591 5.62996 16.0326 5.9874 15.8203 6.23633L8.57032 14.7363C8.42782 14.9034 8.21959 15 8.00001 15C7.78043 15 7.57219 14.9034 7.42969 14.7363L0.179695 6.23633C-0.0325736 5.9874 -0.0591229 5.62996 0.114265 5.35254L2.61426 1.35254L2.66993 1.27441C2.81128 1.10196 3.0237 1 3.25001 1H12.75ZM8.00001 11.8125L9.71876 6.5H6.28126L8.00001 11.8125ZM6.12696 10.8994L4.70411 6.5H2.37501L6.12696 10.8994ZM9.87208 10.8994L13.625 6.5H11.2959L9.87208 10.8994ZM11.3018 5H13.8975L12.335 2.5H10.5205L11.3018 5ZM6.27051 5H9.7295L8.94825 2.5H7.05176L6.27051 5ZM2.10255 5H4.69825L5.4795 2.5H3.66505L2.10255 5Z" fill="#292A2E"/>
</svg>
