<svg width="16" height="16" viewBox="0 0 16 16" fill="none" xmlns="http://www.w3.org/2000/svg">
<path fill-rule="evenodd" clip-rule="evenodd" d="M2.614 1.3525C2.75105 1.13321 2.99141 1 3.25 1H12.75C13.0086 1 13.2489 1.13321 13.386 1.3525L15.886 5.3525C16.0594 5.62995 16.0329 5.98778 15.8206 6.23671L8.57062 14.7367C8.42813 14.9038 8.21958 15 8 15C7.78042 15 7.57187 14.9038 7.42937 14.7367L0.179372 6.23671C-0.0329483 5.98778 -0.0594047 5.62995 0.113999 5.3525L2.614 1.3525ZM3.66568 2.5L2.10318 5H4.6986L5.47985 2.5H3.66568ZM7.05139 2.5L6.27014 5H9.72985L8.9486 2.5H7.05139ZM10.5201 2.5L11.3014 5H13.8968L12.3343 2.5H10.5201ZM13.6245 6.5H11.2956L9.87241 10.899L13.6245 6.5ZM8 11.8135L9.71908 6.5H6.28092L8 11.8135ZM4.70437 6.5L6.12759 10.899L2.37546 6.5H4.70437Z" fill="#292A2E"/>
</svg>
