<svg width="16" height="16" viewBox="0 0 16 16" fill="none" xmlns="http://www.w3.org/2000/svg">
<path d="M14.5 8C14.5 4.41015 11.5899 1.5 8 1.5C4.41015 1.5 1.5 4.41015 1.5 8C1.5 11.5899 4.41015 14.5 8 14.5C11.5899 14.5 14.5 11.5899 14.5 8ZM5.35938 11.9355L4.13965 11.0635L4.14355 11.0596C4.14502 11.0575 4.14636 11.0546 4.14844 11.0518C4.15269 11.046 4.15827 11.0383 4.16504 11.0293C4.17854 11.0113 4.1973 10.9874 4.2207 10.958C4.26761 10.8991 4.33504 10.8185 4.4209 10.7236C4.59183 10.5347 4.84158 10.2841 5.16406 10.0332C5.80371 9.5357 6.77529 9 8 9C9.22471 9 10.1963 9.5357 10.8359 10.0332C11.1584 10.2841 11.4082 10.5347 11.5791 10.7236C11.665 10.8185 11.7324 10.8991 11.7793 10.958C11.8027 10.9874 11.8215 11.0113 11.835 11.0293C11.8417 11.0383 11.8473 11.046 11.8516 11.0518C11.8536 11.0546 11.855 11.0575 11.8564 11.0596L11.8584 11.0615L11.8594 11.0635L10.6396 11.9355C10.6396 11.9355 10.6371 11.9334 10.6357 11.9316C10.63 11.924 10.6201 11.91 10.6055 11.8916C10.5762 11.8549 10.5302 11.7985 10.4678 11.7295C10.3419 11.5904 10.1538 11.4033 9.91406 11.2168C9.42875 10.8394 8.77508 10.5 8 10.5C7.22492 10.5 6.57125 10.8394 6.08594 11.2168C5.84618 11.4033 5.6581 11.5904 5.53223 11.7295C5.46981 11.7985 5.42379 11.8549 5.39453 11.8916C5.37993 11.91 5.37001 11.924 5.36426 11.9316C5.36273 11.9337 5.35938 11.9355 5.35938 11.9355ZM16 8C16 12.4183 12.4183 16 8 16C3.58172 16 0 12.4183 0 8C0 3.58172 3.58172 0 8 0C12.4183 0 16 3.58172 16 8ZM7 6.25C7 6.94036 6.44036 7.5 5.75 7.5C5.05964 7.5 4.5 6.94036 4.5 6.25C4.5 5.55964 5.05964 5 5.75 5C6.44036 5 7 5.55964 7 6.25ZM11.5 6.25C11.5 6.94036 10.9404 7.5 10.25 7.5C9.55964 7.5 9 6.94036 9 6.25C9 5.55964 9.55964 5 10.25 5C10.9404 5 11.5 5.55964 11.5 6.25Z" fill="#292A2E"/>
</svg>
