<svg width="16" height="16" viewBox="0 0 16 16" fill="none" xmlns="http://www.w3.org/2000/svg">
<path fill-rule="evenodd" clip-rule="evenodd" d="M10.3447 1.84463C11.397 0.792348 13.103 0.792349 14.1553 1.84463C15.2076 2.89692 15.2076 4.60301 14.1553 5.65529L11.6857 8.12496L13.0303 9.46963L11.9697 10.5303L10.625 9.18562L5.452 14.3586C5.04136 14.7693 4.4844 15 3.90366 15H1.75C1.33579 15 1 14.6642 1 14.25V12.0963C1 11.5156 1.2307 10.9586 1.64134 10.548L6.81434 5.37496L5.46967 4.03029L6.53033 2.96963L7.875 4.3143L10.3447 1.84463ZM7.875 6.43562L2.70201 11.6086C2.57266 11.738 2.5 11.9134 2.5 12.0963V13.5H3.90366C4.08658 13.5 4.262 13.4273 4.39134 13.298L9.56434 8.12496L7.875 6.43562ZM10.625 7.0643L8.93566 5.37496L11.4053 2.90529C11.8718 2.4388 12.6282 2.4388 13.0947 2.90529C13.5612 3.37179 13.5612 4.12813 13.0947 4.59463L10.625 7.0643Z" fill="#44546F"/>
</svg>
