<svg width="16" height="16" viewBox="0 0 16 16" fill="none" xmlns="http://www.w3.org/2000/svg">
<path fill-rule="evenodd" clip-rule="evenodd" d="M9.75 2.5H8V1H13V2.5H11.25V4.5H14C15.1046 4.5 16 5.39543 16 6.5V9.5C16 10.6046 15.1046 11.5 14 11.5H11.25V13.5H13V15H8V13.5H9.75V2.5ZM11.25 10H14C14.2761 10 14.5 9.77614 14.5 9.5V6.5C14.5 6.22386 14.2761 6 14 6H11.25V10ZM2 6C1.72386 6 1.5 6.22386 1.5 6.5V9.5C1.5 9.77614 1.72386 10 2 10H8V11.5H2C0.89543 11.5 0 10.6046 0 9.5V6.5C0 5.39543 0.89543 4.5 2 4.5H8V6H2Z" fill="#292A2E"/>
</svg>
