<svg width="16" height="16" viewBox="0 0 16 16" fill="none" xmlns="http://www.w3.org/2000/svg">
<path d="M10.5 5.5C10.5 3.29086 8.70914 1.5 6.5 1.5C4.29086 1.5 2.5 3.29086 2.5 5.5C2.5 7.70914 4.29086 9.5 6.5 9.5C8.70914 9.5 10.5 7.70914 10.5 5.5ZM12 5.5C12 8.53757 9.53757 11 6.5 11C3.46243 11 1 8.53757 1 5.5C1 2.46243 3.46243 0 6.5 0C9.53757 0 12 2.46243 12 5.5Z" fill="#292A2E"/>
<path d="M14.0437 0.59082C14.9645 2.00309 15.4998 3.69006 15.4998 5.5H13.9998C13.9998 3.98964 13.5546 2.58521 12.7878 1.40918L14.0437 0.59082Z" fill="#292A2E"/>
<path fill-rule="evenodd" clip-rule="evenodd" d="M14.25 7.5C15.2165 7.5 16 8.2835 16 9.25C16 10.2165 15.2165 11 14.25 11C13.2835 11 12.5 10.2165 12.5 9.25C12.5 8.2835 13.2835 7.5 14.25 7.5ZM14.25 9C14.1119 9 14 9.11193 14 9.25C14 9.38807 14.1119 9.5 14.25 9.5C14.3881 9.5 14.5 9.38807 14.5 9.25C14.5 9.11193 14.3881 9 14.25 9Z" fill="#292A2E"/>
<path d="M14.4131 10.4766C14.0671 11.1297 13.7122 11.7872 13.0762 12.2871C12.43 12.7949 11.5774 13.081 10.3477 13.2432L10.1523 11.7568C11.2631 11.6103 11.8076 11.3761 12.1494 11.1074C12.501 10.8309 12.7258 10.4551 13.0869 9.77344L14.4131 10.4766Z" fill="#292A2E"/>
<path d="M9.5 11.5C9.5 11.2239 9.27614 11 9 11H4C3.72386 11 3.5 11.2239 3.5 11.5V14C3.5 14.2761 3.72386 14.5 4 14.5H9C9.27614 14.5 9.5 14.2761 9.5 14V11.5ZM11 14C11 15.1046 10.1046 16 9 16H4C2.89543 16 2 15.1046 2 14V11.5C2 10.3954 2.89543 9.5 4 9.5H9C10.1046 9.5 11 10.3954 11 11.5V14Z" fill="#292A2E"/>
<path d="M6.5 4.5C7.05228 4.5 7.5 4.94772 7.5 5.5C7.5 6.05228 7.05228 6.5 6.5 6.5C5.94772 6.5 5.5 6.05228 5.5 5.5C5.5 4.94772 5.94772 4.5 6.5 4.5Z" fill="#292A2E"/>
</svg>
