<svg width="16" height="16" viewBox="0 0 16 16" fill="none" xmlns="http://www.w3.org/2000/svg">
<path d="M2.85938 8.21593C3.18852 8.19546 3.49263 8.39249 3.6084 8.70128C3.85399 9.35687 4.49046 9.82531 5.2373 9.82531C5.73751 9.8252 6.08192 9.654 6.30566 9.41124C6.53606 9.16116 6.69727 8.76949 6.69727 8.23742C6.6972 7.76444 6.4538 7.24794 6.08301 6.49034C5.75172 5.81346 5.31543 4.93341 5.31543 3.97472C5.31556 3.00227 5.78977 2.04703 6.18652 1.40245C6.39374 1.06583 6.60043 0.781805 6.75488 0.582141C6.83234 0.48202 6.89751 0.401902 6.94434 0.345813C6.96756 0.317998 6.98645 0.296109 7 0.280384C7.0068 0.2725 7.01254 0.26549 7.0166 0.260852L7.02441 0.25304C7.0274 0.255499 7.06093 0.284453 7.44043 0.621204L7.02441 0.25304C7.21282 0.0407802 7.50511 -0.0478195 7.7793 0.0255007C8.05351 0.0988333 8.26303 0.320737 8.32031 0.598743V0.600696C8.32113 0.604475 8.32305 0.611727 8.3252 0.621204C8.32949 0.640171 8.33681 0.670413 8.34668 0.710071C8.36649 0.789654 8.39707 0.908304 8.44141 1.0548C8.53058 1.34936 8.67155 1.75233 8.87402 2.18566C9.28982 3.07549 9.9166 3.98176 10.8008 4.43175C13.3517 5.73002 14 8.2446 14 9.75011C14 13.3316 11.3644 16.0001 8 16.0001C4.68736 16.0001 2 13.3829 2 10.2999C2.00002 9.78142 2.06138 9.27615 2.17676 8.79113L2.21387 8.67492C2.32259 8.41495 2.57125 8.23395 2.85938 8.21593ZM6.81543 3.97472C6.81543 4.52842 7.07118 5.09668 7.43066 5.83116C7.75058 6.48481 8.1972 7.34366 8.19727 8.23742C8.19727 9.07208 7.94047 9.84997 7.40918 10.4269C6.87118 11.0109 6.10997 11.3252 5.2373 11.3253C4.61545 11.3253 4.03431 11.1498 3.54102 10.8468C3.83247 12.8176 5.669 14.5001 8 14.5001C10.4924 14.5001 12.5 12.5475 12.5 9.75011C12.5 8.57675 11.9902 6.72041 10.1201 5.76866C8.79389 5.09365 7.98371 3.82428 7.51465 2.82042C7.44864 2.67914 7.38886 2.5407 7.33398 2.40734C7.03487 2.93675 6.81555 3.50113 6.81543 3.97472Z" fill="#292A2E"/>
</svg>
