<svg width="16" height="16" viewBox="0 0 16 16" fill="none" xmlns="http://www.w3.org/2000/svg">
<path d="M7.25 10.6445C7.0463 10.587 6.84873 10.5048 6.66016 10.3994L5.53027 11.5303L4.46973 10.4697L5.59961 9.33887C5.49449 9.15064 5.41292 8.95328 5.35547 8.75H4.875C3.56332 8.75 2.5 9.81332 2.5 11.125C2.5 12.4367 3.56332 13.5 4.875 13.5C6.18668 13.5 7.25 12.4367 7.25 11.125V10.6445ZM8.88379 7.11621C8.39563 6.62806 7.60437 6.62806 7.11621 7.11621C6.62806 7.60437 6.62806 8.39563 7.11621 8.88379C7.60437 9.37194 8.39563 9.37194 8.88379 8.88379C9.37194 8.39563 9.37194 7.60437 8.88379 7.11621ZM8.75 11.125C8.75 12.4367 9.81332 13.5 11.125 13.5C12.4367 13.5 13.5 12.4367 13.5 11.125C13.5 9.81332 12.4367 8.75 11.125 8.75H10.6445C10.587 8.95343 10.5046 9.15051 10.3994 9.33887L11.5303 10.4697L10.4697 11.5303L9.33887 10.3994C9.15051 10.5046 8.95343 10.587 8.75 10.6445V11.125ZM7.25 4.875C7.25 3.56332 6.18668 2.5 4.875 2.5C3.56332 2.5 2.5 3.56332 2.5 4.875C2.5 6.18668 3.56332 7.25 4.875 7.25H5.35547C5.41299 7.04645 5.49429 6.84861 5.59961 6.66016L4.46973 5.53027L5.53027 4.46973L6.66016 5.59961C6.84869 5.49425 7.04636 5.41202 7.25 5.35449V4.875ZM8.75 5.35449C8.95337 5.41195 9.15056 5.49445 9.33887 5.59961L10.4697 4.46973L11.5303 5.53027L10.3994 6.66016C10.5048 6.84873 10.587 7.0463 10.6445 7.25H11.125C12.4367 7.25 13.5 6.18668 13.5 4.875C13.5 3.56332 12.4367 2.5 11.125 2.5C9.81332 2.5 8.75 3.56332 8.75 4.875V5.35449ZM15 4.875C15 6.15812 14.3758 7.29478 13.415 8C14.3758 8.70522 15 9.84188 15 11.125C15 13.2651 13.2651 15 11.125 15C9.84188 15 8.70522 14.3758 8 13.415C7.29478 14.3758 6.15812 15 4.875 15C2.7349 15 1 13.2651 1 11.125C1 9.84216 1.62363 8.70525 2.58398 8C1.62363 7.29475 1 6.15784 1 4.875C1 2.7349 2.7349 1 4.875 1C6.15784 1 7.29475 1.62363 8 2.58398C8.70525 1.62363 9.84216 1 11.125 1C13.2651 1 15 2.7349 15 4.875Z" fill="#292A2E"/>
</svg>
