<svg width="16" height="16" viewBox="0 0 16 16" fill="none" xmlns="http://www.w3.org/2000/svg">
<path fill-rule="evenodd" clip-rule="evenodd" d="M1.5 2C1.5 1.72386 1.72386 1.5 2 1.5H4.93934L6.68934 3.25H12C12.2761 3.25 12.5 3.47386 12.5 3.75V5H1.5V2ZM1.5 12V6.5H14V3.75C14 2.64543 13.1046 1.75 12 1.75H7.31066L5.56066 0H2C0.895431 0 0 0.89543 0 2V12C0 13.1046 0.895431 14 2 14H6.5V12.5H2C1.72386 12.5 1.5 12.2761 1.5 12ZM10.75 13C9.23122 13 8 14.2312 8 15.75V16H9.5V15.75C9.5 15.0596 10.0596 14.5 10.75 14.5H13.25C13.9404 14.5 14.5 15.0596 14.5 15.75V16H16V15.75C16 14.2312 14.7688 13 13.25 13H10.75Z" fill="#292A2E"/>
<path fill-rule="evenodd" clip-rule="evenodd" d="M12.0002 8C10.8957 8 10.0002 8.89543 10.0002 10C10.0002 11.1046 10.8957 12 12.0002 12C13.1048 12 14.0002 11.1046 14.0002 10C14.0002 8.89543 13.1048 8 12.0002 8ZM12.0002 9.5C11.7241 9.5 11.5002 9.72386 11.5002 10C11.5002 10.2761 11.7241 10.5 12.0002 10.5C12.2764 10.5 12.5002 10.2761 12.5002 10C12.5002 9.72386 12.2764 9.5 12.0002 9.5Z" fill="#292A2E"/>
<path d="M11.5002 10C11.5002 9.72386 11.7241 9.5 12.0002 9.5C12.2764 9.5 12.5002 9.72386 12.5002 10C12.5002 10.2761 12.2764 10.5 12.0002 10.5C11.7241 10.5 11.5002 10.2761 11.5002 10Z" fill="#292A2E"/>
</svg>
