<svg width="16" height="16" viewBox="0 0 16 16" fill="none" xmlns="http://www.w3.org/2000/svg">
<path fill-rule="evenodd" clip-rule="evenodd" d="M1.49976 2C1.49976 1.72386 1.72361 1.5 1.99976 1.5H4.9391L6.6891 3.25H11.9998C12.2759 3.25 12.4998 3.47386 12.4998 3.75V5H1.49976V2ZM1.49976 12V6.5H13.9998V3.75C13.9998 2.64543 13.1043 1.75 11.9998 1.75H7.31042L5.56042 0H1.99976C0.895186 0 -0.000244141 0.89543 -0.000244141 2V12C-0.000244141 13.1046 0.895186 14 1.99976 14H6.49976V12.5H1.99976C1.72361 12.5 1.49976 12.2761 1.49976 12ZM10.7498 13C9.23097 13 7.99976 14.2312 7.99976 15.75V16H9.49976V15.75C9.49976 15.0596 10.0594 14.5 10.7498 14.5H13.2498C13.9401 14.5 14.4998 15.0596 14.4998 15.75V16H15.9998V15.75C15.9998 14.2312 14.7685 13 13.2498 13H10.7498Z" fill="#44546F"/>
<path fill-rule="evenodd" clip-rule="evenodd" d="M12 8C10.8954 8 10 8.89543 10 10C10 11.1046 10.8954 12 12 12C13.1046 12 14 11.1046 14 10C14 8.89543 13.1046 8 12 8ZM12 9.5C11.7239 9.5 11.5 9.72386 11.5 10C11.5 10.2761 11.7239 10.5 12 10.5C12.2761 10.5 12.5 10.2761 12.5 10C12.5 9.72386 12.2761 9.5 12 9.5Z" fill="#44546F"/>
<path d="M11.5 10C11.5 9.72386 11.7239 9.5 12 9.5C12.2761 9.5 12.5 9.72386 12.5 10C12.5 10.2761 12.2761 10.5 12 10.5C11.7239 10.5 11.5 10.2761 11.5 10Z" fill="#44546F"/>
</svg>
