<svg width="16" height="16" viewBox="0 0 16 16" fill="none" xmlns="http://www.w3.org/2000/svg">
<path d="M0.999756 13V3C0.999756 1.89543 1.89519 1 2.99976 1H6.5603L8.3103 2.75H12.9998C14.1043 2.75 14.9998 3.64543 14.9998 4.75V7.5H2.49976V13C2.49976 13.2761 2.72361 13.5 2.99976 13.5H7.49976V15H2.99976C1.89519 15 0.999756 14.1046 0.999756 13ZM2.49976 6H13.4998V4.75C13.4998 4.47386 13.2759 4.25 12.9998 4.25H7.68921L5.93921 2.5H2.99976C2.72361 2.5 2.49976 2.72386 2.49976 3V6Z" fill="#292A2E"/>
<path d="M13.75 10V12.25H16V13.75H13.75V16H12.25V13.75H10V12.25H12.25V10H13.75Z" fill="#292A2E"/>
</svg>
