<svg width="16" height="16" viewBox="0 0 16 16" fill="none" xmlns="http://www.w3.org/2000/svg">
<path d="M13.5 3C13.5 2.72386 13.2761 2.5 13 2.5H11.5V4.5H10V2.5H6V4.5H4.5V2.5H3C2.72386 2.5 2.5 2.72386 2.5 3V6H13.5V3ZM15 7.5H2.5V13C2.5 13.2761 2.72386 13.5 3 13.5H7.5V15H3C1.89543 15 1 14.1046 1 13V3C1 1.89543 1.89543 1 3 1H4.5V0H6V1H10V0H11.5V1H13L13.2041 1.01074C14.2128 1.113 15 1.96435 15 3V7.5Z" fill="#292A2E"/>
<path d="M12.6162 9.00879C12.8828 9.05042 13.1106 9.23402 13.2051 9.49316L13.8193 11.1797L15.5068 11.7949C15.8029 11.9029 16 12.1849 16 12.5L15.9912 12.6162C15.9496 12.8828 15.766 13.1106 15.5068 13.2051L13.8193 13.8193L13.2051 15.5068C13.1106 15.766 12.8828 15.9496 12.6162 15.9912L12.5 16C12.1849 16 11.9029 15.8029 11.7949 15.5068L11.1797 13.8193L9.49316 13.2051C9.23402 13.1106 9.05042 12.8828 9.00879 12.6162L9 12.5C9 12.1849 9.19714 11.9029 9.49316 11.7949L11.1797 11.1797L11.7949 9.49316L11.8438 9.38672C11.9557 9.1844 12.1553 9.04447 12.3838 9.00879L12.5 9L12.6162 9.00879Z" fill="#292A2E"/>
</svg>
