<svg width="16" height="16" viewBox="0 0 16 16" fill="none" xmlns="http://www.w3.org/2000/svg">
<path d="M2.75 8.25H1.75V4.75H8M2.75 8.25V13C2.75 13.6904 3.30964 14.25 4 14.25H8M2.75 8.25H8M13.25 8.25H14.25V4.75H8M13.25 8.25V13C13.25 13.6904 12.6904 14.25 12 14.25H8M13.25 8.25H8M8 14.25V8.25M8 4.75V4M8 4.75H5.5C4.39543 4.75 3.5 3.85457 3.5 2.75C3.5 1.64543 4.39543 0.75 5.5 0.75C6.60457 0.75 8 1.75 8 4M8 4.75H10.5C11.6046 4.75 12.5 3.85457 12.5 2.75C12.5 1.64543 11.6046 0.75 10.5 0.75C9.39543 0.75 8 1.75 8 4M8 4.75V8.25" stroke="#44546F" stroke-width="1.5" stroke-linejoin="round"/>
</svg>
