<svg width="16" height="16" viewBox="0 0 16 16" fill="none" xmlns="http://www.w3.org/2000/svg">
<path fill-rule="evenodd" clip-rule="evenodd" d="M5.5 1.5C4.80964 1.5 4.25 2.05964 4.25 2.75C4.25 3.44036 4.80964 4 5.5 4H7.25C7.25 2.10137 6.13019 1.5 5.5 1.5ZM8 1.37855C7.36624 0.472329 6.41757 0 5.5 0C3.98122 0 2.75 1.23122 2.75 2.75C2.75 3.20011 2.85814 3.62497 3.04985 4H1.75C1.33579 4 1 4.33579 1 4.75V8.25C1 8.66421 1.33579 9 1.75 9H2V13C2 14.1046 2.89543 15 4 15H12C13.1046 15 14 14.1046 14 13V9H14.25C14.6642 9 15 8.66421 15 8.25V4.75C15 4.33579 14.6642 4 14.25 4H12.9501C13.1419 3.62497 13.25 3.20011 13.25 2.75C13.25 1.23122 12.0188 0 10.5 0C9.58243 0 8.63376 0.472329 8 1.37855ZM7.25 5.5H2.5V7.5H7.25V5.5ZM8.75 7.5V5.5H13.5V7.5H8.75ZM7.25 9H3.5V13C3.5 13.2761 3.72386 13.5 4 13.5H7.25V9ZM8.75 13.5V9H12.5V13C12.5 13.2761 12.2761 13.5 12 13.5H8.75ZM8.75 4H10.5C11.1904 4 11.75 3.44036 11.75 2.75C11.75 2.05964 11.1904 1.5 10.5 1.5C9.86981 1.5 8.75 2.10137 8.75 4Z" fill="#292A2E"/>
</svg>
