<svg width="16" height="16" viewBox="0 0 16 16" fill="none" xmlns="http://www.w3.org/2000/svg">
<path fill-rule="evenodd" clip-rule="evenodd" d="M16 8C16 9.39102 15.645 10.6991 15.0206 11.8386L13.9042 10.7222C14.1868 10.1103 14.3771 9.4469 14.4572 8.75H11.932L10.2228 7.04083C10.1351 5.50711 9.84105 4.15771 9.42831 3.16024C9.17917 2.55816 8.90155 2.12013 8.63162 1.84423C8.36413 1.57081 8.15104 1.5 8 1.5C7.84896 1.5 7.63587 1.57081 7.36838 1.84423C7.09845 2.12013 6.82083 2.55816 6.57169 3.16024C6.5495 3.21388 6.52765 3.26853 6.50615 3.32417L5.36537 2.18338C5.39165 2.1286 5.41843 2.07449 5.44572 2.02109C5.38932 2.04522 5.33333 2.07012 5.27776 2.09578L4.16137 0.97939C5.30088 0.355018 6.60898 0 8 0C12.4183 0 16 3.58172 16 8ZM11.7348 7.25C11.662 5.46565 11.3316 3.83677 10.8143 2.58671C10.7334 2.39107 10.6467 2.20197 10.5543 2.02109C12.655 2.91971 14.1864 4.89312 14.4572 7.25H11.7348Z" fill="#44546F"/>
<path fill-rule="evenodd" clip-rule="evenodd" d="M9.49385 12.6758L10.6346 13.8166C10.6083 13.8714 10.5816 13.9255 10.5543 13.9789C10.6107 13.9548 10.6667 13.9299 10.7222 13.9042L11.8386 15.0206C10.6991 15.645 9.39102 16 8 16C3.58172 16 0 12.4183 0 8C0 6.60898 0.355018 5.30088 0.97939 4.16137L2.09578 5.27776C1.81315 5.88973 1.62287 6.5531 1.5428 7.25H4.06802L5.77718 8.95916C5.86491 10.4929 6.15895 11.8423 6.57169 12.8398C6.82083 13.4418 7.09845 13.8799 7.36838 14.1558C7.63587 14.4292 7.84896 14.5 8 14.5C8.15104 14.5 8.36413 14.4292 8.63162 14.1558C8.90155 13.8799 9.17917 13.4418 9.42831 12.8398C9.4505 12.7861 9.47235 12.7315 9.49385 12.6758ZM5.44572 13.9789C5.35328 13.798 5.26662 13.6089 5.18567 13.4133C4.6684 12.1632 4.33797 10.5344 4.26521 8.75H1.5428C1.81358 11.1069 3.34499 13.0803 5.44572 13.9789Z" fill="#44546F"/>
<path d="M0.469727 1.53039L14.4697 15.5304L15.5304 14.4697L1.53039 0.469727L0.469727 1.53039Z" fill="#44546F"/>
</svg>
