<svg width="16" height="16" viewBox="0 0 16 16" fill="none" xmlns="http://www.w3.org/2000/svg">
<path fill-rule="evenodd" clip-rule="evenodd" d="M15 3C15 1.89543 14.1046 1 13 1H8.5C7.39543 1 6.5 1.89543 6.5 3V7.5C6.5 8.60457 7.39543 9.5 8.5 9.5H13C14.1046 9.5 15 8.60457 15 7.5V3ZM13 2.5C13.2761 2.5 13.5 2.72386 13.5 3V7.5C13.5 7.77614 13.2761 8 13 8H8.5C8.22386 8 8 7.77614 8 7.5V3C8 2.72386 8.22386 2.5 8.5 2.5H13Z" fill="#292A2E"/>
<path fill-rule="evenodd" clip-rule="evenodd" d="M3 8H5V6.5H3C1.89543 6.5 1 7.39543 1 8.5V13C1 14.1046 1.89543 15 3 15H7.5C8.60457 15 9.5 14.1046 9.5 13V11H8V13C8 13.2761 7.77614 13.5 7.5 13.5H3C2.72386 13.5 2.5 13.2761 2.5 13V8.5C2.5 8.22386 2.72386 8 3 8Z" fill="#292A2E"/>
<path fill-rule="evenodd" clip-rule="evenodd" d="M5 0V3H3.5V0H5ZM0 3.5H3V5H0V3.5ZM16 12.5H13V11H16V12.5ZM11 16V13H12.5V16H11Z" fill="#292A2E"/>
</svg>
