<svg width="16" height="16" viewBox="0 0 16 16" fill="none" xmlns="http://www.w3.org/2000/svg">
<path d="M7.16406 1.18301C7.69454 0.938997 8.30546 0.938997 8.83594 1.18301L14.5635 3.81777C14.8296 3.94017 15 4.20653 15 4.49941C15 4.7923 14.8296 5.05866 14.5635 5.18106L8.83594 7.81582C8.30546 8.05983 7.69454 8.05983 7.16406 7.81582L1.43652 5.18106C1.17044 5.05866 1 4.7923 1 4.49941C1 4.20653 1.17044 3.94017 1.43652 3.81777L7.16406 1.18301ZM8.20898 2.54629C8.07636 2.48528 7.92364 2.48528 7.79102 2.54629L3.54492 4.49941L7.79102 6.45254C7.92364 6.51355 8.07636 6.51355 8.20898 6.45254L12.4541 4.49941L8.20898 2.54629Z" fill="#292A2E"/>
<path d="M14.9453 8.42773L8.85352 11.3008C8.31324 11.5556 7.68676 11.5556 7.14648 11.3008L1.05469 8.42773L1.69531 7.07031L7.78711 9.94434C7.92195 10.0078 8.07805 10.0078 8.21289 9.94434L14.3047 7.07031L14.9453 8.42773Z" fill="#292A2E"/>
<path d="M14.9453 11.9277L8.85352 14.8008C8.31324 15.0556 7.68676 15.0556 7.14648 14.8008L1.05469 11.9277L1.69531 10.5703L7.78711 13.4443C7.92195 13.5078 8.07805 13.5078 8.21289 13.4443L14.3047 10.5703L14.9453 11.9277Z" fill="#292A2E"/>
</svg>
