<svg width="16" height="16" viewBox="0 0 16 16" fill="none" xmlns="http://www.w3.org/2000/svg">
<path fill-rule="evenodd" clip-rule="evenodd" d="M15 3C15 1.89543 14.1046 1 13 1H6C4.89543 1 4 1.89543 4 3V10C4 11.1046 4.89543 12 6 12H13C14.1046 12 15 11.1046 15 10V3ZM13 2.5C13.2761 2.5 13.5 2.72386 13.5 3V10C13.5 10.2761 13.2761 10.5 13 10.5H6C5.72386 10.5 5.5 10.2761 5.5 10V3C5.5 2.72386 5.72386 2.5 6 2.5H13Z" fill="#292A2E"/>
<path d="M7 4.5H8.5V6H7V4.5Z" fill="#292A2E"/>
<path d="M10 4.5H11.5V6H10V4.5Z" fill="#292A2E"/>
<path d="M10 7.5H11.5V9H10V7.5Z" fill="#292A2E"/>
<path fill-rule="evenodd" clip-rule="evenodd" d="M3 5.5H4.46429V4H3C1.89543 4 1 4.89543 1 6V13C1 14.1046 1.89543 15 3 15H10C11.1046 15 12 14.1046 12 13V11.5357H10.5V13C10.5 13.2761 10.2761 13.5 10 13.5H3C2.72386 13.5 2.5 13.2761 2.5 13V6C2.5 5.72386 2.72386 5.5 3 5.5Z" fill="#292A2E"/>
</svg>
