<svg width="16" height="16" viewBox="0 0 16 16" fill="none" xmlns="http://www.w3.org/2000/svg">
<path d="M6.24994 5C5.83573 5 5.49994 5.33579 5.49994 5.75L5.49994 9.46387L4.30365 8.86523C3.83758 8.6322 3.28395 8.87983 3.13471 9.36231L3.11029 9.46191C3.06929 9.68773 3.12263 9.92067 3.25873 10.1055L5.22943 12.7793C5.79481 13.5466 6.69139 13.9999 7.64447 14H9.99994C11.6568 14 12.9999 12.6569 12.9999 11V6C12.9999 5.58579 12.6642 5.25 12.2499 5.25C11.8618 5.25 11.5425 5.54488 11.5038 5.92285L11.4999 6V7H9.99994V5C9.99994 4.58579 9.66415 4.25 9.24994 4.25C8.83573 4.25 8.49994 4.58579 8.49994 5V7H6.99994V5.75C6.99994 5.33579 6.66415 5 6.24994 5ZM6.24994 3.5C6.65133 3.5 7.02719 3.60683 7.35346 3.79102C7.75308 3.16544 8.45256 2.75 9.24994 2.75C10.1266 2.75 10.8835 3.25274 11.2548 3.98437C11.5551 3.83583 11.8922 3.75 12.2499 3.75C13.4926 3.75 14.4999 4.75736 14.4999 6V11C14.4999 13.4853 12.4852 15.5 9.99994 15.5H7.64447C6.21478 15.4999 4.8705 14.8199 4.0224 13.6689L2.0517 10.9951L1.91986 10.7949C1.63707 10.3148 1.53409 9.74676 1.63471 9.19336L1.664 9.05176C1.93351 7.95026 2.93896 7.24619 3.99994 7.27734L3.99994 5.75C3.99994 4.50736 5.0073 3.5 6.24994 3.5Z" fill="#44546F"/>
</svg>
