<svg width="16" height="16" viewBox="0 0 16 16" fill="none" xmlns="http://www.w3.org/2000/svg">
<path d="M9.75014 2.5C10.1644 2.5 10.5001 2.83579 10.5001 3.25V8.39844L9.26967 9.42383L10.2306 10.5762L11.7306 9.32617L12.4865 8.73926L12.5529 8.69336C12.8701 8.50302 13.2856 8.6158 13.463 8.94043L13.4972 9.0127C13.5744 9.20557 13.5554 9.42199 13.4494 9.59668L13.3986 9.66895L10.7931 12.8877C10.2235 13.5913 9.36635 14 8.46107 14H6.00014C4.34328 14 3.00014 12.6569 3.00014 11L3.00014 3.75C3.00014 3.33579 3.33592 3 3.75014 3C4.1383 3 4.45761 3.29488 4.49623 3.67285L4.50014 3.75V7H6.00014L6.00014 2.25C6.00014 1.83579 6.33592 1.5 6.75014 1.5C7.16435 1.5 7.50014 1.83579 7.50014 2.25L7.50014 7H9.00014L9.00014 3.25C9.00014 2.83579 9.33592 2.5 9.75014 2.5ZM9.75014 1C9.39272 1 9.05611 1.08607 8.756 1.23438C8.3847 0.502522 7.62695 3.83268e-08 6.75014 0C5.71163 -4.53947e-08 4.84135 0.704638 4.58217 1.66113C4.32458 1.55844 4.04435 1.5 3.75014 1.5C2.5075 1.5 1.50014 2.50736 1.50014 3.75L1.50014 11C1.50014 13.4853 3.51486 15.5 6.00014 15.5H8.46107C9.81898 15.5 11.1047 14.8865 11.9591 13.8311L14.5646 10.6133L14.6525 10.4961C15.0696 9.9028 15.1616 9.13552 14.8898 8.45605L14.8371 8.33398C14.3278 7.25322 13.0471 6.81463 12.0001 7.29102V3.25C12.0001 2.00736 10.9928 1 9.75014 1Z" fill="#292A2E"/>
</svg>
