<svg width="16" height="16" viewBox="0 0 16 16" fill="none" xmlns="http://www.w3.org/2000/svg">
<path d="M7.16991 15.9922C5.81148 15.9097 4.55706 15.2146 3.76659 14.0947L1.32811 10.6406L1.20018 10.4336C0.631034 9.38089 1.11508 8.03418 2.27342 7.60938L3.99999 6.97656L3.99999 6.71289L4.00389 6.5625C4.0908 5.01562 5.50658 3.86568 7.05663 4.12402L7.16893 4.14355C7.50586 3.32574 8.3106 2.75 9.24999 2.75C10.1892 2.75 10.9931 3.32592 11.3301 4.14355L11.4433 4.12402C13.0432 3.85738 14.4997 5.09103 14.5 6.71289V11.5C14.5 13.9077 12.6092 15.8737 10.2314 15.9941L9.99999 16H7.44335L7.16991 15.9922ZM9.99999 14.5L10.1543 14.4961C11.7394 14.4158 13 13.1051 13 11.5V6.71289C12.9997 6.01807 12.3758 5.48952 11.6904 5.60352L11.5 5.63574V8H9.99999V5C9.99999 4.58579 9.6642 4.25 9.24999 4.25C8.86181 4.25 8.54251 4.54488 8.50389 4.92285L8.49999 5V8H6.99999V5.63574L6.80956 5.60352C6.16687 5.49662 5.57793 5.95463 5.50682 6.58496L5.49999 6.71289V9.32812H3.99999V8.57422L2.79003 9.01758C2.51984 9.11665 2.39589 9.41646 2.49608 9.66992L2.5537 9.77539L4.99217 13.2305C5.55432 14.0267 6.46869 14.5 7.44335 14.5H9.99999Z" fill="#44546F"/>
</svg>
