<svg width="16" height="16" viewBox="0 0 16 16" fill="none" xmlns="http://www.w3.org/2000/svg">
<path fill-rule="evenodd" clip-rule="evenodd" d="M1.20686 10.8817C0.68782 10.2473 0.608397 9.36046 1.00646 8.64395L1.12038 8.4389C1.69799 7.3992 3.03943 7.09946 3.99996 7.76067L3.99996 4.125C3.99996 2.67525 5.17521 1.5 6.62496 1.5H7.12799C7.43686 0.626105 8.27029 4.28224e-08 9.24996 0C10.4081 -5.06238e-08 11.3619 0.87501 11.4862 2H11.875C13.3247 2 14.5 3.17525 14.5 4.625V11.5C14.5 13.9853 12.4852 16 9.99996 16H7.52701C6.17731 16 4.89888 15.3942 4.0442 14.3496L1.20686 10.8817ZM11.5 3.5V8H9.99996V2.25C9.99996 1.83579 9.66417 1.5 9.24996 1.5C8.83574 1.5 8.49996 1.83579 8.49996 2.25L8.49996 7.5H6.99996L6.99996 3H6.62496C6.00364 3 5.49996 3.50368 5.49996 4.125L5.49996 8.97115L6.9729 10.1679L6.02702 11.3321L3.18399 9.02213C2.94261 8.82601 2.58265 8.89549 2.43161 9.16736L2.3177 9.37242C2.21818 9.55154 2.23804 9.77326 2.3678 9.93186L5.20513 13.3997C5.77492 14.0961 6.6272 14.5 7.527 14.5H9.99996C11.6568 14.5 13 13.1569 13 11.5V4.625C13 4.00368 12.4963 3.5 11.875 3.5H11.5Z" fill="#44546F"/>
</svg>
