<svg width="16" height="16" viewBox="0 0 16 16" fill="none" xmlns="http://www.w3.org/2000/svg">
<path d="M6.24998 2.5C5.83577 2.5 5.49998 2.83579 5.49998 3.25L5.49998 9.6416L4.36913 8.97363L3.66112 8.55664C3.27171 8.32679 2.77611 8.47292 2.56834 8.86133L2.53123 8.94141C2.42542 9.20594 2.47111 9.50707 2.65038 9.72852L5.20702 12.8877C5.77661 13.5913 6.63377 14 7.53905 14H9.99998C11.6568 14 13 12.6569 13 11V3.75C13 3.33579 12.6642 3 12.25 3C11.8618 3 11.5425 3.29488 11.5039 3.67285L11.5 3.75V7H9.99998V2.25C9.99998 1.83579 9.6642 1.5 9.24998 1.5C8.83577 1.5 8.49998 1.83579 8.49998 2.25L8.49998 7H6.99998L6.99998 3.25C6.99998 2.83579 6.6642 2.5 6.24998 2.5ZM6.24998 1C6.6074 1 6.94401 1.08607 7.24412 1.23438C7.61542 0.502522 8.37317 3.83268e-08 9.24998 0C10.2885 -4.53947e-08 11.1588 0.704638 11.418 1.66113C11.6755 1.55844 11.9558 1.5 12.25 1.5C13.4926 1.5 14.5 2.50736 14.5 3.75V11C14.5 13.4853 12.4853 15.5 9.99998 15.5H7.53905C6.18114 15.5 4.89539 14.8865 4.041 13.8311L1.48436 10.6729L1.39061 10.5488C0.948088 9.91952 0.850395 9.10551 1.13866 8.38477L1.24803 8.14941C1.7793 7.15845 2.95482 6.71223 3.99998 7.07129L3.99998 3.25C3.99998 2.00736 5.00734 1 6.24998 1Z" fill="#292A2E"/>
</svg>
