<svg width="16" height="16" viewBox="0 0 16 16" fill="none" xmlns="http://www.w3.org/2000/svg">
<path d="M7.75 2.25L6.625 2.25C5.58947 2.25 4.75 3.08947 4.75 4.125L4.75 9.32812M7.75 2.25V2.25C7.75 1.42157 8.42157 0.750001 9.25 0.750001V0.750001C10.0784 0.750001 10.75 1.42157 10.75 2.25L10.75 2.75M7.75 2.25L7.75 7.5M10.75 2.75L11.875 2.75C12.9105 2.75 13.75 3.58947 13.75 4.625L13.75 11.5C13.75 13.5711 12.0711 15.25 10 15.25L7.52705 15.25C6.4023 15.25 5.33694 14.7452 4.62471 13.8746L1.78737 10.4068C1.46297 10.0103 1.41333 9.456 1.66212 9.00818L1.77604 8.80313C2.15364 8.12345 3.05353 7.94974 3.65698 8.44004L4.75 9.32812M10.75 2.75L10.75 8M6.5 10.75L4.75 9.32812" stroke="#44546F" stroke-width="1.5" stroke-linejoin="round"/>
</svg>
