<svg width="16" height="16" viewBox="0 0 16 16" fill="none" xmlns="http://www.w3.org/2000/svg">
<path d="M1 10V3C1 1.89543 1.89543 1 3 1H6V2.5H3C2.72386 2.5 2.5 2.72386 2.5 3V10C2.5 10.2761 2.72386 10.5 3 10.5H13C13.2761 10.5 13.5 10.2761 13.5 10V9H15V10C15 11.1046 14.1046 12 13 12H8.75V13.5H12V15H4V13.5H7.25V12H3C1.89543 12 1 11.1046 1 10Z" fill="#292A2E"/>
<path d="M14.5001 4.25C14.5001 3.14547 13.6046 2.25006 12.5001 2.25C11.7718 2.25 11.134 2.64013 10.7843 3.22266L11.3458 3.41016C11.6845 3.52305 11.8963 3.85858 11.8527 4.21289C11.809 4.5672 11.5221 4.84176 11.1661 4.86914L8.86829 5.0459C8.64999 5.06269 8.43522 4.98294 8.2804 4.82812C8.12566 4.67332 8.04584 4.45848 8.06263 4.24023L8.23938 1.94238L8.26087 1.8125C8.33657 1.51852 8.5857 1.2941 8.89563 1.25586C9.24994 1.21224 9.58646 1.42403 9.69935 1.7627L9.79114 2.03809C10.4328 1.25297 11.4066 0.75 12.5001 0.75C14.4331 0.750061 16.0001 2.31704 16.0001 4.25C16.0001 6.18296 14.4331 7.74994 12.5001 7.75C11.7969 7.75 11.1395 7.5419 10.59 7.18359L11.0001 6.55566L11.4093 5.92676C11.7226 6.131 12.0966 6.25 12.5001 6.25C13.6046 6.24994 14.5001 5.35453 14.5001 4.25Z" fill="#292A2E"/>
</svg>
