<svg width="16" height="16" viewBox="0 0 16 16" fill="none" xmlns="http://www.w3.org/2000/svg">
<path d="M13.5 3C13.5 2.72386 13.2761 2.5 13 2.5H9.74512L8.8877 4.5H10.25C10.502 4.5 10.7372 4.62658 10.876 4.83691C11.0148 5.04738 11.0388 5.31418 10.9395 5.5459L9.43945 9.0459L8.06055 8.4541L9.1123 6H7.75C7.49798 6 7.26282 5.87342 7.12402 5.66309C6.98524 5.45262 6.96124 5.18582 7.06055 4.9541L8.1123 2.5H3C2.72386 2.5 2.5 2.72386 2.5 3V10C2.5 10.2761 2.72386 10.5 3 10.5H13C13.2761 10.5 13.5 10.2761 13.5 10V3ZM15 10C15 11.1046 14.1046 12 13 12H8.75V13.5H12V15H4V13.5H7.25V12H3C1.89543 12 1 11.1046 1 10V3C1 1.89543 1.89543 1 3 1H13C14.1046 1 15 1.89543 15 3V10Z" fill="#292A2E"/>
</svg>
