<svg width="16" height="16" viewBox="0 0 16 16" fill="none" xmlns="http://www.w3.org/2000/svg">
<path d="M1 10V3C1 1.89543 1.89543 1 3 1H7V2.5H3C2.72386 2.5 2.5 2.72386 2.5 3V10C2.5 10.2761 2.72386 10.5 3 10.5H13C13.2761 10.5 13.5 10.2761 13.5 10V8H15V10C15 11.1046 14.1046 12 13 12H8.75V13.5H12V15H4V13.5H7.25V12H3C1.89543 12 1 11.1046 1 10Z" fill="#292A2E"/>
<path d="M14.7802 0.721417C14.9349 0.876149 15.0144 1.09089 14.9977 1.30906L14.7484 4.5594C14.721 4.91532 14.446 5.20285 14.0917 5.24649C13.7374 5.2901 13.4015 5.07761 13.2886 4.73894L12.9226 3.63961L9.78001 6.78223L8.71935 5.72157L11.862 2.57895L10.7626 2.21297C10.4242 2.10001 10.2123 1.76467 10.2558 1.41057C10.2994 1.05626 10.5869 0.781252 10.9429 0.753872L14.1925 0.503899L14.274 0.502518C14.4634 0.508576 14.6447 0.58604 14.7802 0.721417Z" fill="#292A2E"/>
</svg>
