<svg width="16" height="16" viewBox="0 0 16 16" fill="none" xmlns="http://www.w3.org/2000/svg">
<path d="M1 10.0003V3.00029C1 1.89572 1.89543 1.00029 3 1.00029H6V2.50029H3C2.72386 2.50029 2.5 2.72415 2.5 3.00029V10.0003C2.5 10.2764 2.72386 10.5003 3 10.5003H13C13.2761 10.5003 13.5 10.2764 13.5 10.0003V9.00029H15V10.0003C15 11.1049 14.1046 12.0003 13 12.0003H8.75V13.5003H12V15.0003H4V13.5003H7.25V12.0003H3C1.89543 12.0003 1 11.1049 1 10.0003Z" fill="#292A2E"/>
<path d="M7 6.25037C7 6.0315 7.09558 5.82352 7.26172 5.68103L9.01172 4.18103C9.30767 3.92736 9.74874 3.94262 10.0264 4.21619C10.304 4.48997 10.3258 4.93131 10.0762 5.23084L9.85156 5.50037L14 5.50037V7.00037H9.85156L10.0762 7.2699C10.3258 7.56943 10.304 8.01077 10.0264 8.28455C9.74874 8.55811 9.30767 8.57338 9.01172 8.3197L7.26172 6.8197L7.20312 6.76306C7.0735 6.62481 7 6.4419 7 6.25037Z" fill="#292A2E"/>
<path d="M16 2.25037C16 2.0315 15.9044 1.82352 15.7383 1.68103L13.9883 0.181032C13.6923 -0.0726434 13.2513 -0.0573784 12.9736 0.216188C12.696 0.489969 12.6742 0.931306 12.9238 1.23084L13.1484 1.50037L9 1.50037V3.00037L13.1484 3.00037L12.9238 3.2699C12.6742 3.56943 12.696 4.01077 12.9736 4.28455C13.2513 4.55811 13.6923 4.57338 13.9883 4.3197L15.7383 2.8197L15.7969 2.76306C15.9265 2.62481 16 2.4419 16 2.25037Z" fill="#292A2E"/>
</svg>
