<svg width="16" height="16" viewBox="0 0 16 16" fill="none" xmlns="http://www.w3.org/2000/svg">
<path d="M1 10V3C1 1.89543 1.89543 1 3 1H7V2.5H3C2.72386 2.5 2.5 2.72386 2.5 3V10C2.5 10.2761 2.72386 10.5 3 10.5H13C13.2761 10.5 13.5 10.2761 13.5 10V8H15V10C15 11.1046 14.1046 12 13 12H8.75V13.5H12V15H4V13.5H7.25V12H3C1.89543 12 1 11.1046 1 10Z" fill="#292A2E"/>
<path d="M15.4463 1.98828L11.6123 6.48828C11.4699 6.6554 11.2616 6.75186 11.042 6.75195C10.8222 6.75195 10.6132 6.65556 10.4707 6.48828L8.55371 4.23828L9.69629 3.26562L11.041 4.84473L14.3037 1.01562L15.4463 1.98828Z" fill="#292A2E"/>
</svg>
