<svg width="16" height="16" viewBox="0 0 16 16" fill="none" xmlns="http://www.w3.org/2000/svg">
<path d="M1 10V3C1 1.89543 1.89543 1 3 1H8V2.5H3C2.72386 2.5 2.5 2.72386 2.5 3V10C2.5 10.2761 2.72386 10.5 3 10.5H13C13.2761 10.5 13.5 10.2761 13.5 10V8H15V10C15 11.1046 14.1046 12 13 12H8.75V13.5H12V15H4V13.5H7.25V12H3C1.89543 12 1 11.1046 1 10Z" fill="#292A2E"/>
<path d="M15.7803 1.2793L14.0605 2.99902L15.7803 4.71875L14.7197 5.7793L13 4.05957L11.2803 5.7793L10.2197 4.71875L11.9395 2.99902L10.2197 1.2793L11.2803 0.21875L13 1.93848L14.7197 0.21875L15.7803 1.2793Z" fill="#292A2E"/>
</svg>
