<svg width="16" height="16" viewBox="0 0 16 16" fill="none" xmlns="http://www.w3.org/2000/svg">
<path d="M1 10V3C1 1.89543 1.89543 1 3 1H7V2.5H3C2.72386 2.5 2.5 2.72386 2.5 3V10C2.5 10.2761 2.72386 10.5 3 10.5H13C13.2761 10.5 13.5 10.2761 13.5 10V8H15V10C15 11.1046 14.1046 12 13 12H8.75V13.5H12V15H4V13.5H7.25V12H3C1.89543 12 1 11.1046 1 10Z" fill="#292A2E"/>
<path d="M13.0002 3.5C13.0002 2.94777 12.5524 2.50009 12.0002 2.5C11.4479 2.5 11.0002 2.94772 11.0002 3.5C11.0002 4.05228 11.4479 4.5 12.0002 4.5C12.5524 4.49991 13.0002 4.05223 13.0002 3.5ZM14.5002 3.5C14.5002 3.6863 14.4773 3.86732 14.4386 4.04199L15.4064 4.60059L14.6564 5.89941L13.6877 5.33984C13.4212 5.58438 13.1036 5.77368 12.7502 5.88477V7H11.2502V5.88477C10.8964 5.77364 10.5783 5.5846 10.3117 5.33984L9.3439 5.89941L8.5939 4.60059L9.5607 4.04199C9.52207 3.86736 9.50015 3.68625 9.50015 3.5C9.50015 3.31342 9.52194 3.13195 9.5607 2.95703L8.5939 2.39941L9.3439 1.10059L10.3117 1.65918C10.5782 1.41457 10.8965 1.2253 11.2502 1.11426V0H12.7502V1.11426C13.1035 1.22526 13.4212 1.4148 13.6877 1.65918L14.6564 1.10059L15.4064 2.39941L14.4386 2.95703C14.4774 3.13199 14.5002 3.31337 14.5002 3.5Z" fill="#292A2E"/>
</svg>
