<svg width="16" height="16" viewBox="0 0 16 16" fill="none" xmlns="http://www.w3.org/2000/svg">
<path d="M1 10V3C1 1.89543 1.89543 1 3 1H8V2.5H3C2.72386 2.5 2.5 2.72386 2.5 3V10C2.5 10.2761 2.72386 10.5 3 10.5H13C13.2761 10.5 13.5 10.2761 13.5 10V8H15V10C15 11.1046 14.1046 12 13 12H8.75V13.5H12V15H4V13.5H7.25V12H3C1.89543 12 1 11.1046 1 10Z" fill="#292A2E"/>
<path d="M15.9854 2.39844L15.8096 3.27734C15.7321 3.66435 15.5418 4.01973 15.2627 4.29883L14.8838 4.67773C14.5168 5.04474 14.019 5.25098 13.5 5.25098C13.0442 5.25098 12.6047 5.09199 12.2559 4.80469L10.0303 7.03125L8.96973 5.9707L11.1953 3.74414C10.9086 3.39544 10.75 2.95634 10.75 2.50098C10.75 1.98194 10.9562 1.48421 11.3232 1.11719L11.7021 0.738281C11.9812 0.459199 12.3366 0.26889 12.7236 0.191406L13.6025 0.015625L13.8975 1.48633L13.0186 1.66211C12.9218 1.68146 12.8325 1.72905 12.7627 1.79883L12.3838 2.17773C12.2981 2.26345 12.25 2.37976 12.25 2.50098C12.25 2.62219 12.2981 2.7385 12.3838 2.82422L13.1768 3.61719C13.2625 3.70289 13.3788 3.75098 13.5 3.75098C13.6212 3.75098 13.7375 3.70289 13.8232 3.61719L14.2021 3.23828C14.2719 3.16849 14.3195 3.0792 14.3389 2.98242L14.5146 2.10352L15.9854 2.39844Z" fill="#292A2E"/>
</svg>
