<svg width="16" height="16" viewBox="0 0 16 16" fill="none" xmlns="http://www.w3.org/2000/svg">
<path d="M1 10V3C1 1.89543 1.89543 1 3 1H8V2.5H3C2.72386 2.5 2.5 2.72386 2.5 3V10C2.5 10.2761 2.72386 10.5 3 10.5H13C13.2761 10.5 13.5 10.2761 13.5 10V9H15V10C15 11.1046 14.1046 12 13 12H8.75V13.5H12V15H4V13.5H7.25V12H3C1.89543 12 1 11.1046 1 10Z" fill="#292A2E"/>
<path d="M14 1L12 1V2.5L14 2.5C14.2761 2.5 14.5 2.72386 14.5 3V4.5C14.5 4.77614 14.2761 5 14 5L11.4629 5L11.6709 4.58496C11.8302 4.26588 11.7429 3.87884 11.4619 3.65918C11.1805 3.43949 10.7828 3.44834 10.5117 3.68066L8.76172 5.18066L8.70312 5.2373C8.5735 5.37556 8.5 5.55846 8.5 5.75C8.5 5.96887 8.59558 6.17685 8.76172 6.31934L10.5117 7.81934C10.7828 8.05166 11.1805 8.06051 11.4619 7.84082C11.7429 7.62116 11.8302 7.23412 11.6709 6.91504L11.4629 6.5L14 6.5C15.1046 6.5 16 5.60457 16 4.5V3C16 1.89543 15.1046 1 14 1Z" fill="#292A2E"/>
</svg>
