<svg width="16" height="16" viewBox="0 0 16 16" fill="none" xmlns="http://www.w3.org/2000/svg">
<path d="M1 10V3C1 1.89543 1.89543 1 3 1H7V2.5H3C2.72386 2.5 2.5 2.72386 2.5 3V10C2.5 10.2761 2.72386 10.5 3 10.5H13C13.2761 10.5 13.5 10.2761 13.5 10V9H15V10C15 11.1046 14.1046 12 13 12H8.75V13.5H12V15H4V13.5H7.25V12H3C1.89543 12 1 11.1046 1 10Z" fill="#292A2E"/>
<path d="M14 6.125C14 6.88439 13.3844 7.5 12.625 7.5H12.25V8.5H10.75V7.5H9.5V6H12.5V5H10.375C9.61561 5 9 4.38439 9 3.625V2.375C9 1.61561 9.61561 1 10.375 1H11V0H12.5V1H13.5V2.5H10.5V3.5H12.625C13.3844 3.5 14 4.11561 14 4.875V6.125Z" fill="#292A2E"/>
</svg>
