<svg width="16" height="16" viewBox="0 0 16 16" fill="none" xmlns="http://www.w3.org/2000/svg">
<path fill-rule="evenodd" clip-rule="evenodd" d="M2 2.70844V0.999922H0.5V5.28546H4.78553V3.78546H3.05127C4.24432 2.38587 6.01884 1.5 8 1.5C11.5899 1.5 14.5 4.41015 14.5 8C14.5 11.5899 11.5899 14.5 8 14.5C4.41015 14.5 1.5 11.5899 1.5 8C1.5 7.77241 1.51167 7.54779 1.53439 7.32668L0.0422526 7.17332C0.0143002 7.4453 0 7.7211 0 8C0 12.4183 3.58172 16 8 16C12.4183 16 16 12.4183 16 8C16 3.58172 12.4183 0 8 0C5.60999 0 3.46512 1.04851 2 2.70844ZM8.75 8.13953V3.75H7.25V8.86047L10.0315 11.0857L10.9685 9.91435L8.75 8.13953Z" fill="#292A2E"/>
</svg>
