<svg width="16" height="16" viewBox="0 0 16 16" fill="none" xmlns="http://www.w3.org/2000/svg">
<path d="M1.5 8C1.5 11.5899 4.41015 14.5 8 14.5C11.5899 14.5 14.5 11.5899 14.5 8C14.5 4.41015 11.5899 1.5 8 1.5C6.1584 1.5 4.52302 2.26626 3.34863 3.50488L4.64746 3.76465C5.01451 3.83826 5.27148 4.17122 5.24902 4.54492C5.22645 4.91883 4.93109 5.21928 4.55762 5.24805L1.30762 5.49805C1.09932 5.51407 0.893515 5.44175 0.740234 5.2998C0.587159 5.1579 0.500022 4.95874 0.5 4.75V1.5L0.512695 1.36328C0.569993 1.053 0.818722 0.805253 1.14062 0.757812C1.50879 0.703779 1.86178 0.927792 1.96875 1.28418L2.30957 2.42188C3.74815 0.931371 5.74736 0 8 0C12.4183 0 16 3.58172 16 8C16 12.4183 12.4183 16 8 16C3.58172 16 0 12.4183 0 8H1.5ZM8.75 3.75V8.13867L10.9688 9.91406L10.0312 11.0859L7.53125 9.08594C7.35334 8.94361 7.25 8.72784 7.25 8.5V3.75H8.75Z" fill="#292A2E"/>
</svg>
