<svg width="16" height="16" viewBox="0 0 16 16" fill="none" xmlns="http://www.w3.org/2000/svg">
<path d="M11 12.3916C11 11.9474 10.8314 11.5222 10.5322 11.2002L10.3965 11.0693L8 8.99121L5.60352 11.0693C5.22017 11.4017 5 11.8842 5 12.3916V13.5H11V12.3916ZM11 2.5H5V3.6084C5 4.11579 5.22017 4.59828 5.60352 4.93066L8 7.00781L10.3965 4.93066L10.5322 4.7998C10.8314 4.47781 11 4.05257 11 3.6084V2.5ZM12.5 3.6084C12.5 4.49194 12.1405 5.33478 11.5088 5.94531L11.3789 6.06445L9.14453 8L11.3789 9.93555L11.5088 10.0547C12.1405 10.6652 12.5 11.5081 12.5 12.3916V13.5H14V15H2V13.5H3.5V12.3916C3.5 11.4491 3.90894 10.5528 4.62109 9.93555L6.85449 8L4.62109 6.06445C3.90894 5.44715 3.5 4.55086 3.5 3.6084V2.5H2V1H14V2.5H12.5V3.6084Z" fill="#44546F"/>
</svg>
