<svg width="16" height="16" viewBox="0 0 16 16" fill="none" xmlns="http://www.w3.org/2000/svg">
<path fill-rule="evenodd" clip-rule="evenodd" d="M12.2803 1.21973L14.7803 3.71973C15.0732 4.01262 15.0732 4.48749 14.7803 4.78039L12.2803 7.28039L11.2197 6.21973L12.4393 5.00006L8.75 5.00006L8.75 10.5001C8.75 10.7762 8.97386 11.0001 9.25 11.0001H12.4393L11.2197 9.78039L12.2803 8.71973L14.7803 11.2197C15.0732 11.5126 15.0732 11.9875 14.7803 12.2804L12.2803 14.7804L11.2197 13.7197L12.4393 12.5001H9.25C8.14543 12.5001 7.25 11.6046 7.25 10.5001L7.25 5.00006L5.37197 5.00006C5.06309 5.87395 4.22966 6.50006 3.25 6.50006C2.00736 6.50006 1 5.4927 1 4.25006C1 3.00742 2.00736 2.00006 3.25 2.00006C4.22966 2.00006 5.06309 2.62616 5.37197 3.50006L12.4393 3.50006L11.2197 2.28039L12.2803 1.21973ZM3.25 3.50006C2.83579 3.50006 2.5 3.83584 2.5 4.25006C2.5 4.66427 2.83579 5.00006 3.25 5.00006C3.66421 5.00006 4 4.66427 4 4.25006C4 3.83584 3.66421 3.50006 3.25 3.50006Z" fill="#292A2E"/>
</svg>
