<svg width="16" height="16" viewBox="0 0 16 16" fill="none" xmlns="http://www.w3.org/2000/svg">
<path d="M1.5 12.5H6V8H1.5V12.5ZM7.5 12.625C7.5 13.3844 6.88439 14 6.125 14H1.375C0.615609 14 0 13.3844 0 12.625V7.875C6.4426e-08 7.11561 0.615608 6.5 1.375 6.5H6.125C6.88439 6.5 7.5 7.11561 7.5 7.875V12.625Z" fill="#292A2E"/>
<path d="M16 12.625C16 13.3844 15.3844 14 14.625 14H9V12.5H14.5V3.5H1.5V5H0V3.375C0 2.61561 0.615608 2 1.375 2H14.625C15.3844 2 16 2.61561 16 3.375V12.625Z" fill="#292A2E"/>
</svg>
