<svg width="16" height="16" viewBox="0 0 16 16" fill="none" xmlns="http://www.w3.org/2000/svg">
<path d="M15.5303 14.4697L14.4697 15.5303L0.469727 1.53027L1.53027 0.469727L15.5303 14.4697Z" fill="#292A2E"/>
<path d="M2.5 5.68164V13C2.5 13.2761 2.72386 13.5 3 13.5H3.64355L6.63477 9.81641L7.7002 10.8818L5.5752 13.5H10.3184L11.8184 15H3C1.89543 15 1 14.1046 1 13V4.18164L2.5 5.68164Z" fill="#292A2E"/>
<path d="M13 1C14.1046 1 15 1.89543 15 3V11.8184L13.5 10.3184V10.3105L10.5566 7.36719L10.5527 7.37109L9.4873 6.30566L9.91797 5.77734L9.9707 5.71875C10.101 5.58887 10.2754 5.51065 10.4609 5.50098C10.673 5.49004 10.8801 5.56958 11.0303 5.71973L13.5 8.18945V3C13.5 2.72386 13.2761 2.5 13 2.5H5.68164L4.18164 1H13Z" fill="#292A2E"/>
</svg>
