<svg width="16" height="16" viewBox="0 0 16 16" fill="none" xmlns="http://www.w3.org/2000/svg">
<path fill-rule="evenodd" clip-rule="evenodd" d="M16 8H12.5V6.5H16V8ZM16 11.5H12.5V10H16V11.5ZM16 15H5V13.5H16V15Z" fill="#292A2E"/>
<path fill-rule="evenodd" clip-rule="evenodd" d="M0 3C0 1.89543 0.895431 1 2 1H9C10.1046 1 11 1.89543 11 3V10C11 11.1046 10.1046 12 9 12H2C0.89543 12 0 11.1046 0 10V3ZM2 2.5C1.72386 2.5 1.5 2.72386 1.5 3V10C1.5 10.2761 1.72386 10.5 2 10.5H9C9.27614 10.5 9.5 10.2761 9.5 10V3C9.5 2.72386 9.27614 2.5 9 2.5H2Z" fill="#292A2E"/>
<path fill-rule="evenodd" clip-rule="evenodd" d="M7.20634 5.00127C7.40876 4.98947 7.60733 5.06012 7.75679 5.19713L10.7568 7.94713L9.74321 9.05287L7.31268 6.82488L3.06762 11.7402L1.93238 10.7598L6.68238 5.25979C6.81491 5.10633 7.00392 5.01307 7.20634 5.00127Z" fill="#292A2E"/>
<path d="M5 4.875C5 5.49632 4.49632 6 3.875 6C3.25368 6 2.75 5.49632 2.75 4.875C2.75 4.25368 3.25368 3.75 3.875 3.75C4.49632 3.75 5 4.25368 5 4.875Z" fill="#292A2E"/>
</svg>
