<svg width="16" height="16" viewBox="0 0 16 16" fill="none" xmlns="http://www.w3.org/2000/svg">
<path fill-rule="evenodd" clip-rule="evenodd" d="M10.5811 1.08169C11.6678 0.810027 12.7656 1.48365 13.0157 2.57547L13.9397 6.60994C14.5651 6.72944 15.2194 6.86539 15.9111 7.01757L15.5888 8.48254C12.4863 7.79998 10.2341 7.4688 7.99998 7.4688C5.76586 7.4688 3.51367 7.79998 0.411129 8.48254L0.0888367 7.01757C0.780585 6.86539 1.43492 6.72944 2.06024 6.60994L2.98426 2.57547C3.23432 1.48365 4.33221 0.810028 5.41885 1.08169L7.87872 1.69665C7.95833 1.71656 8.04163 1.71656 8.12125 1.69665L10.5811 1.08169ZM3.66303 6.33071C5.20836 6.09079 6.60108 5.9688 7.99998 5.9688C9.39889 5.9688 10.7916 6.09079 12.3369 6.33071L11.5536 2.91035C11.491 2.63739 11.2166 2.46899 10.9449 2.5369L8.48505 3.15187C8.16657 3.23149 7.83339 3.23149 7.51491 3.15187L5.05505 2.5369C4.78339 2.46899 4.50892 2.63739 4.4464 2.91035L3.66303 6.33071Z" fill="#292A2E"/>
<path fill-rule="evenodd" clip-rule="evenodd" d="M11.5 10.5001C10.6716 10.5001 9.99998 11.1716 9.99998 12.0001C9.99998 12.8285 10.6716 13.5001 11.5 13.5001C12.3284 13.5001 13 12.8285 13 12.0001C13 11.1716 12.3284 10.5001 11.5 10.5001ZM8.49998 12.0001C8.49998 10.3432 9.84313 9.00005 11.5 9.00005C13.1568 9.00005 14.5 10.3432 14.5 12.0001C14.5 13.6569 13.1568 15.0001 11.5 15.0001C9.84313 15.0001 8.49998 13.6569 8.49998 12.0001Z" fill="#292A2E"/>
<path fill-rule="evenodd" clip-rule="evenodd" d="M7.99998 11.5001C7.57085 11.5001 7.17533 11.6344 6.85026 11.8633L5.98662 10.6368C6.55622 10.2357 7.2517 10.0001 7.99998 10.0001C8.74826 10.0001 9.44373 10.2357 10.0133 10.6368L9.1497 11.8633C8.82463 11.6344 8.42911 11.5001 7.99998 11.5001Z" fill="#292A2E"/>
<path fill-rule="evenodd" clip-rule="evenodd" d="M4.49998 10.5001C3.67156 10.5001 2.99998 11.1716 2.99998 12.0001C2.99998 12.8285 3.67156 13.5001 4.49998 13.5001C5.32841 13.5001 5.99998 12.8285 5.99998 12.0001C5.99998 11.1716 5.32841 10.5001 4.49998 10.5001ZM1.49998 12.0001C1.49998 10.3432 2.84313 9.00005 4.49998 9.00005C6.15684 9.00005 7.49998 10.3432 7.49998 12.0001C7.49998 13.6569 6.15684 15.0001 4.49998 15.0001C2.84313 15.0001 1.49998 13.6569 1.49998 12.0001Z" fill="#292A2E"/>
</svg>
