<svg width="16" height="16" viewBox="0 0 16 16" fill="none" xmlns="http://www.w3.org/2000/svg">
<path fill-rule="evenodd" clip-rule="evenodd" d="M10.5811 1.0817C11.6678 0.810042 12.7656 1.48367 13.0157 2.57549L13.9397 6.60995C14.5651 6.72945 15.2194 6.8654 15.9111 7.01759L15.5888 8.48255C12.4863 7.79999 10.2341 7.46882 7.99999 7.46882C5.76586 7.46882 3.51367 7.79999 0.411133 8.48255L0.0888405 7.01759C0.780589 6.8654 1.43492 6.72945 2.06025 6.60995L2.98426 2.57549C3.23432 1.48367 4.33221 0.810043 5.41886 1.0817L7.87872 1.69667C7.95834 1.71657 8.04164 1.71657 8.12125 1.69667L10.5811 1.0817ZM3.66304 6.33073C5.20836 6.09081 6.60108 5.96882 7.99999 5.96882C9.39889 5.96882 10.7916 6.09081 12.3369 6.33073L11.5536 2.91036C11.4911 2.63741 11.2166 2.469 10.9449 2.53692L8.48506 3.15188C8.16658 3.2315 7.8334 3.2315 7.51492 3.15188L5.05505 2.53692C4.78339 2.469 4.50892 2.63741 4.44641 2.91036L3.66304 6.33073Z" fill="#44546F"/>
<path fill-rule="evenodd" clip-rule="evenodd" d="M11.5 10.5001C10.6716 10.5001 9.99999 11.1716 9.99999 12.0001C9.99999 12.8285 10.6716 13.5001 11.5 13.5001C12.3284 13.5001 13 12.8285 13 12.0001C13 11.1716 12.3284 10.5001 11.5 10.5001ZM8.49999 12.0001C8.49999 10.3432 9.84313 9.00007 11.5 9.00007C13.1568 9.00007 14.5 10.3432 14.5 12.0001C14.5 13.6569 13.1568 15.0001 11.5 15.0001C9.84313 15.0001 8.49999 13.6569 8.49999 12.0001Z" fill="#44546F"/>
<path fill-rule="evenodd" clip-rule="evenodd" d="M7.99998 11.5001C7.57085 11.5001 7.17533 11.6344 6.85027 11.8633L5.98662 10.6369C6.55623 10.2357 7.2517 10.0001 7.99998 10.0001C8.74826 10.0001 9.44374 10.2357 10.0133 10.6369L9.1497 11.8633C8.82463 11.6344 8.42911 11.5001 7.99998 11.5001Z" fill="#44546F"/>
<path fill-rule="evenodd" clip-rule="evenodd" d="M4.49999 10.5001C3.67156 10.5001 2.99999 11.1716 2.99999 12.0001C2.99999 12.8285 3.67156 13.5001 4.49999 13.5001C5.32841 13.5001 5.99999 12.8285 5.99999 12.0001C5.99999 11.1716 5.32841 10.5001 4.49999 10.5001ZM1.49999 12.0001C1.49999 10.3432 2.84313 9.00007 4.49999 9.00007C6.15684 9.00007 7.49999 10.3432 7.49999 12.0001C7.49999 13.6569 6.15684 15.0001 4.49999 15.0001C2.84313 15.0001 1.49999 13.6569 1.49999 12.0001Z" fill="#44546F"/>
</svg>
