<svg width="16" height="16" viewBox="0 0 16 16" fill="none" xmlns="http://www.w3.org/2000/svg">
<path fill-rule="evenodd" clip-rule="evenodd" d="M10.5811 1.08158C11.6678 0.80992 12.7656 1.48355 13.0157 2.57537L13.9397 6.60983C14.5651 6.72933 15.2194 6.86528 15.9111 7.01746L15.5888 8.48243C12.4863 7.79987 10.2341 7.4687 7.99999 7.4687C5.76586 7.4687 3.51367 7.79987 0.411133 8.48243L0.0888405 7.01746C0.780589 6.86528 1.43492 6.72933 2.06025 6.60983L2.98426 2.57537C3.23432 1.48354 4.33221 0.809921 5.41886 1.08158L7.87872 1.69655C7.95834 1.71645 8.04164 1.71645 8.12125 1.69655L10.5811 1.08158ZM3.66304 6.33061C5.20836 6.09068 6.60108 5.9687 7.99999 5.9687C9.39889 5.9687 10.7916 6.09068 12.3369 6.33061L11.5536 2.91024C11.4911 2.63729 11.2166 2.46888 10.9449 2.5368L8.48506 3.15176C8.16658 3.23138 7.8334 3.23138 7.51492 3.15176L5.05505 2.5368C4.78339 2.46888 4.50892 2.63729 4.44641 2.91024L3.66304 6.33061Z" fill="#44546F"/>
<path fill-rule="evenodd" clip-rule="evenodd" d="M11.5 10.4999C10.6716 10.4999 9.99999 11.1715 9.99999 11.9999C9.99999 12.8284 10.6716 13.4999 11.5 13.4999C12.3284 13.4999 13 12.8284 13 11.9999C13 11.1715 12.3284 10.4999 11.5 10.4999ZM8.49999 11.9999C8.49999 10.3431 9.84313 8.99995 11.5 8.99995C13.1568 8.99995 14.5 10.3431 14.5 11.9999C14.5 13.6568 13.1568 14.9999 11.5 14.9999C9.84313 14.9999 8.49999 13.6568 8.49999 11.9999Z" fill="#44546F"/>
<path fill-rule="evenodd" clip-rule="evenodd" d="M7.99998 11.4999C7.57085 11.4999 7.17533 11.6342 6.85027 11.8632L5.98662 10.6367C6.55623 10.2356 7.2517 9.99995 7.99998 9.99995C8.74826 9.99995 9.44374 10.2356 10.0133 10.6367L9.1497 11.8632C8.82463 11.6342 8.42911 11.4999 7.99998 11.4999Z" fill="#44546F"/>
<path fill-rule="evenodd" clip-rule="evenodd" d="M4.49999 10.4999C3.67156 10.4999 2.99999 11.1715 2.99999 11.9999C2.99999 12.8284 3.67156 13.4999 4.49999 13.4999C5.32841 13.4999 5.99999 12.8284 5.99999 11.9999C5.99999 11.1715 5.32841 10.4999 4.49999 10.4999ZM1.49999 11.9999C1.49999 10.3431 2.84313 8.99995 4.49999 8.99995C6.15684 8.99995 7.49999 10.3431 7.49999 11.9999C7.49999 13.6568 6.15684 14.9999 4.49999 14.9999C2.84313 14.9999 1.49999 13.6568 1.49999 11.9999Z" fill="#44546F"/>
</svg>
