<svg width="16" height="16" viewBox="0 0 16 16" fill="none" xmlns="http://www.w3.org/2000/svg">
<path fill-rule="evenodd" clip-rule="evenodd" d="M8 1.5C4.96243 1.5 2.5 3.96243 2.5 7C2.5 8.85922 3.42198 10.5035 4.8368 11.5H11.1632C12.578 10.5035 13.5 8.85922 13.5 7C13.5 3.96243 11.0376 1.5 8 1.5ZM12.795 12.0997C14.1516 10.8236 15 9.01104 15 7C15 3.13401 11.866 0 8 0C4.13401 0 1 3.13401 1 7C1 9.01104 1.84843 10.8236 3.20496 12.0997C3.01137 12.3022 2.85998 12.5484 2.76733 12.8263L2.03849 15.0128C1.96225 15.2415 2.0006 15.493 2.14157 15.6885C2.28253 15.8841 2.50892 16 2.75 16H13.25C13.4911 16 13.7175 15.8841 13.8584 15.6885C13.9994 15.493 14.0377 15.2415 13.9615 15.0128L13.2327 12.8263C13.14 12.5484 12.9886 12.3022 12.795 12.0997ZM8 4.5C6.61929 4.5 5.5 5.61929 5.5 7H4C4 4.79086 5.79086 3 8 3V4.5ZM4.60746 13C4.41822 13 4.2502 13.1211 4.19036 13.3006L3.79057 14.5H12.2094L11.8096 13.3006C11.7498 13.1211 11.5818 13 11.3925 13H4.60746Z" fill="#44546F"/>
</svg>
