<svg width="16" height="16" viewBox="0 0 16 16" fill="none" xmlns="http://www.w3.org/2000/svg">
<path d="M13.5 7C13.5 3.96243 11.0376 1.5 8 1.5C4.96243 1.5 2.5 3.96243 2.5 7C2.5 8.86068 3.42509 10.5037 4.8418 11.5H11.1582C12.5749 10.5037 13.5 8.86068 13.5 7ZM4.60742 13C4.41819 13 4.25027 13.1213 4.19043 13.3008L3.79102 14.5H12.209L11.8096 13.3008C11.7497 13.1213 11.5818 13 11.3926 13H4.60742ZM8 4.5C6.61929 4.5 5.5 5.61929 5.5 7H4C4 4.79086 5.79086 3 8 3V4.5ZM15 7C15 9.01156 14.1501 10.8235 12.793 12.0996C12.987 12.3023 13.1396 12.5478 13.2324 12.8262L13.9619 15.0127C14.0381 15.2414 13.9993 15.4929 13.8584 15.6885C13.7174 15.8841 13.4911 16 13.25 16H2.75C2.50892 16 2.28257 15.8841 2.1416 15.6885C2.00065 15.4929 1.96185 15.2414 2.03809 15.0127L2.76758 12.8262L2.82227 12.6807C2.91528 12.4616 3.04673 12.2661 3.20605 12.0996C1.84921 10.8235 1 9.0113 1 7C1 3.13401 4.13401 0 8 0C11.866 0 15 3.13401 15 7Z" fill="#44546F"/>
</svg>
