<svg width="16" height="16" viewBox="0 0 16 16" fill="none" xmlns="http://www.w3.org/2000/svg">
<path d="M4.60746 12.25C2.88786 11.1365 1.75 9.20114 1.75 7C1.75 3.54822 4.54822 0.75 8 0.75C11.4518 0.75 14.25 3.54822 14.25 7C14.25 9.20114 13.1121 11.1365 11.3925 12.25M4.60746 12.25V12.25C4.09539 12.25 3.64078 12.5777 3.47885 13.0635L2.75 15.25H13.25L12.5212 13.0635C12.3592 12.5777 11.9046 12.25 11.3925 12.25V12.25M4.60746 12.25H11.3925M4.75 7C4.75 5.20507 6.20507 3.75 8 3.75" stroke="#44546F" stroke-width="1.5" stroke-linejoin="round"/>
</svg>
