<svg width="16" height="16" viewBox="0 0 16 16" fill="none" xmlns="http://www.w3.org/2000/svg">
<path d="M11.25 4.75V6.375C11.25 7.41053 12.0895 8.25 13.125 8.25H14.75V1.25H7.75V2.875C7.75 3.91053 8.58947 4.75 9.625 4.75H11.25ZM11.25 4.75H4.25V6.375C4.25 7.41053 5.08947 8.25 6.125 8.25H7.75M11.25 4.75V11.75H9.625C8.58947 11.75 7.75 10.9105 7.75 9.875V8.25M7.75 8.25H0.75V9.875C0.75 10.9105 1.58947 11.75 2.625 11.75H4.25V13.375C4.25 14.4105 5.08947 15.25 6.125 15.25H7.75V8.25Z" stroke="#44546F" stroke-width="1.5" stroke-linejoin="round"/>
</svg>
