<svg width="16" height="16" viewBox="0 0 16 16" fill="none" xmlns="http://www.w3.org/2000/svg">
<path fill-rule="evenodd" clip-rule="evenodd" d="M7 1.25C7 0.835786 7.33579 0.5 7.75 0.5H14.75C15.1642 0.5 15.5 0.835786 15.5 1.25V8.25C15.5 8.66421 15.1642 9 14.75 9H13.125C12.7224 9 12.341 8.90937 12 8.74739V11.75C12 12.1642 11.6642 12.5 11.25 12.5H9.625C9.2224 12.5 8.84097 12.4094 8.5 12.2474V15.25C8.5 15.6642 8.16421 16 7.75 16H6.125C4.67525 16 3.5 14.8247 3.5 13.375V12.5H2.625C1.17525 12.5 0 11.3247 0 9.875V8.25C0 7.83579 0.335786 7.5 0.75 7.5H3.75261C3.59063 7.15903 3.5 6.7776 3.5 6.375V4.75C3.5 4.33579 3.83579 4 4.25 4H7.25261C7.09063 3.65903 7 3.2776 7 2.875V1.25ZM9.625 4H11.25C11.6642 4 12 4.33579 12 4.75V6.375C12 6.99632 12.5037 7.5 13.125 7.5H14V2H8.5V2.875C8.5 3.49632 9.00368 4 9.625 4ZM10.5 5.5H5V6.375C5 6.99632 5.50368 7.5 6.125 7.5H7.75C8.16421 7.5 8.5 7.83579 8.5 8.25V9.875C8.5 10.4963 9.00368 11 9.625 11H10.5V5.5ZM7 9H1.5V9.875C1.5 10.4963 2.00368 11 2.625 11H4.25C4.66421 11 5 11.3358 5 11.75V13.375C5 13.9963 5.50368 14.5 6.125 14.5H7V9Z" fill="#292A2E"/>
</svg>
