<svg width="16" height="16" viewBox="0 0 16 16" fill="none" xmlns="http://www.w3.org/2000/svg">
<path fill-rule="evenodd" clip-rule="evenodd" d="M6 0.75C6 0.335786 6.33579 0 6.75 0H12.75C13.1642 0 13.5 0.335786 13.5 0.75V6.75C13.5 7.16421 13.1642 7.5 12.75 7.5H11.3571C11.0548 7.5 10.7657 7.44306 10.5 7.33931V9.75C10.5 10.1642 10.1642 10.5 9.75 10.5H8.35714C8.05475 10.5 7.76566 10.4431 7.5 10.3393V12.75C7.5 13.1642 7.16421 13.5 6.75 13.5H5.35714C4.05533 13.5 3 12.4447 3 11.1429V10.5H2.35714C1.05533 10.5 0 9.44467 0 8.14286V6.75C0 6.33579 0.335786 6 0.75 6H3.16069C3.05694 5.73434 3 5.44525 3 5.14286V3.75C3 3.33579 3.33579 3 3.75 3H6.16069C6.05694 2.73434 6 2.44525 6 2.14286V0.75ZM8.35714 3H9.75C10.1642 3 10.5 3.33579 10.5 3.75V5.14286C10.5 5.61624 10.8838 6 11.3571 6H12V1.5H7.5V2.14286C7.5 2.61624 7.88376 3 8.35714 3ZM9 4.5H4.5V5.14286C4.5 5.61624 4.88376 6 5.35714 6H6.75C7.16421 6 7.5 6.33579 7.5 6.75V8.14286C7.5 8.61624 7.88376 9 8.35714 9H9V4.5ZM6 7.5H1.5V8.14286C1.5 8.61624 1.88376 9 2.35714 9H3.75C4.16421 9 4.5 9.33579 4.5 9.75V11.1429C4.5 11.6162 4.88376 12 5.35714 12H6V7.5ZM12.4697 10.2197C12.7626 9.92678 13.2374 9.92678 13.5303 10.2197L15.9053 12.5947L14.8447 13.6553L13.75 12.5607V16H12.25V12.5607L11.1553 13.6553L10.0947 12.5947L12.4697 10.2197Z" fill="#292A2E"/>
</svg>
