<svg width="16" height="16" viewBox="0 0 16 16" fill="none" xmlns="http://www.w3.org/2000/svg">
<path d="M11.2227 9.7168C11.4821 9.46019 11.8885 9.42766 12.1855 9.63965L15.6855 12.1396C15.8826 12.2804 16 12.5078 16 12.75C16 12.9922 15.8826 13.2196 15.6855 13.3604L12.1855 15.8604C11.8885 16.0723 11.4821 16.0398 11.2227 15.7832C10.9632 15.5262 10.9264 15.1195 11.1357 14.8203L12.0596 13.5H5.125C3.39911 13.5 2 12.1009 2 10.375C2 8.64911 3.39911 7.25 5.125 7.25H8.875C9.77246 7.25 10.5 6.52246 10.5 5.625C10.5 4.72754 9.77246 4 8.875 4H4.25V2.5H8.875C10.6009 2.5 12 3.89911 12 5.625C12 7.35089 10.6009 8.75 8.875 8.75H5.125C4.22754 8.75 3.5 9.47754 3.5 10.375C3.5 11.2725 4.22754 12 5.125 12H12.0596L11.1357 10.6797C10.9264 10.3805 10.9632 9.9738 11.2227 9.7168Z" fill="#292A2E"/>
<path d="M3 3.25C3 2.83579 2.66421 2.5 2.25 2.5C1.83579 2.5 1.5 2.83579 1.5 3.25C1.5 3.66421 1.83579 4 2.25 4C2.66421 4 3 3.66421 3 3.25ZM4.5 3.25C4.5 4.49264 3.49264 5.5 2.25 5.5C1.00736 5.5 0 4.49264 0 3.25C0 2.00736 1.00736 1 2.25 1C3.49264 1 4.5 2.00736 4.5 3.25Z" fill="#292A2E"/>
</svg>
