<svg width="16" height="16" viewBox="0 0 16 16" fill="none" xmlns="http://www.w3.org/2000/svg">
<path d="M13.25 13.5H14.5V2.5H13.25V13.5ZM1.5 11.5H2.75V2.5H1.5V11.5ZM7.25 9.5H8.75V2.5H7.25V9.5ZM4.25 11.625C4.25 12.3844 3.63439 13 2.875 13H1.375C0.615609 13 1.00665e-09 12.3844 0 11.625V2.375C6.4426e-08 1.61561 0.615608 1 1.375 1H2.875C3.63439 1 4.25 1.61561 4.25 2.375V11.625ZM10.25 9.625C10.25 10.3844 9.63439 11 8.875 11H7.125C6.36561 11 5.75 10.3844 5.75 9.625V2.375C5.75 1.61561 6.36561 1 7.125 1H8.875C9.63439 1 10.25 1.61561 10.25 2.375V9.625ZM16 13.625C16 14.3844 15.3844 15 14.625 15H13.125C12.3656 15 11.75 14.3844 11.75 13.625V2.375C11.75 1.61561 12.3656 1 13.125 1H14.625C15.3844 1 16 1.61561 16 2.375V13.625Z" fill="#44546F"/>
</svg>
