<svg width="16" height="16" viewBox="0 0 16 16" fill="none" xmlns="http://www.w3.org/2000/svg">
<path d="M14.5 5.5C14.5 3.29086 12.7091 1.5 10.5 1.5C8.29086 1.5 6.5 3.29086 6.5 5.5C6.5 6.00274 6.59268 6.4826 6.76074 6.92383C6.86566 7.19986 6.79868 7.51187 6.58984 7.7207L1.5 12.8105V14.5H3.75V13.25C3.75 12.8358 4.08579 12.5 4.5 12.5H5.75V11.5C5.75 11.2601 5.86468 11.0347 6.05859 10.8936L8.26172 9.29199L8.34277 9.24023C8.53942 9.13266 8.77574 9.118 8.98633 9.2041C9.4522 9.39469 9.96296 9.5 10.5 9.5C12.7091 9.5 14.5 7.70914 14.5 5.5ZM16 5.5C16 8.53757 13.5376 11 10.5 11C9.916 11 9.35278 10.9067 8.82324 10.7373L7.25 11.8818V13.25C7.25 13.6642 6.91421 14 6.5 14H5.25V14.9375C5.24995 15.5243 4.77427 16 4.1875 16H1.0625C0.475728 16 4.94918e-05 15.5243 0 14.9375V12.6289C0.0001143 12.3525 0.107073 12.0826 0.30957 11.8799L5.20312 6.98535C5.07069 6.51222 5 6.01388 5 5.5C5 2.46243 7.46243 0 10.5 0C13.5376 0 16 2.46243 16 5.5Z" fill="#292A2E"/>
<path d="M11.125 3.75C11.7463 3.75 12.25 4.25368 12.25 4.875C12.25 5.49632 11.7463 6 11.125 6C10.5037 6 10 5.49632 10 4.875C10 4.25368 10.5037 3.75 11.125 3.75Z" fill="#292A2E"/>
</svg>
