<svg width="16" height="16" viewBox="0 0 16 16" fill="none" xmlns="http://www.w3.org/2000/svg">
<path d="M14.5 4C14.5 3.72386 14.2761 3.5 14 3.5H2C1.72386 3.5 1.5 3.72386 1.5 4V12C1.5 12.2761 1.72386 12.5 2 12.5H14C14.2761 12.5 14.5 12.2761 14.5 12V4ZM16 12C16 13.1046 15.1046 14 14 14H2C0.895431 14 0 13.1046 0 12V4C1.28853e-07 2.89543 0.89543 2 2 2H14C15.1046 2 16 2.89543 16 4V12Z" fill="#292A2E"/>
<path d="M11.5 10V11.5H4.5V10H11.5Z" fill="#292A2E"/>
<path d="M4.5 4.5V6H3V4.5H4.5Z" fill="#292A2E"/>
<path d="M7.25 4.5V6H5.75V4.5H7.25Z" fill="#292A2E"/>
<path d="M6 7V8.5H4.5V7H6Z" fill="#292A2E"/>
<path d="M8.75 7V8.5H7.25V7H8.75Z" fill="#292A2E"/>
<path d="M11.5 7V8.5H10V7H11.5Z" fill="#292A2E"/>
<path d="M10.25 4.5V6H8.75V4.5H10.25Z" fill="#292A2E"/>
<path d="M13 4.5V6H11.5V4.5H13Z" fill="#292A2E"/>
</svg>
