<svg width="16" height="16" viewBox="0 0 16 16" fill="none" xmlns="http://www.w3.org/2000/svg">
<path d="M13.4791 7.47872C13.6855 5.11965 11.5456 2.79237 8.39227 2.51649C5.23892 2.24061 2.72739 4.16093 2.521 6.52001C2.44392 7.40101 2.68419 8.26244 3.18251 9.02077C3.50026 8.84899 3.86349 8.74952 4.25025 8.74952C5.49272 8.74962 6.50011 9.75664 6.50025 10.9991C6.50025 11.0957 6.49303 11.1911 6.48115 11.2847C6.84136 11.38 7.21782 11.4481 7.60787 11.4822C10.7612 11.7581 13.2727 9.83779 13.4791 7.47872ZM4.25039 10.2494C4.00839 10.2494 3.79251 10.3632 3.65415 10.5433C3.5571 10.6697 3.50053 10.8269 3.50053 10.9994C3.50054 11.4136 3.83632 11.7492 4.25053 11.7492C4.52313 11.7491 4.7622 11.6038 4.89427 11.3831C4.96104 11.2714 5.00039 11.1409 5.00039 10.9992C5.00032 10.5852 4.66441 10.2496 4.25039 10.2494ZM14.9734 7.60945C14.6744 11.0273 11.2011 13.3023 7.47713 12.9765C6.88772 12.925 6.31999 12.8113 5.78181 12.6449C5.70683 12.7147 5.62735 12.7795 5.54331 12.8387C5.64943 13.3472 5.93759 13.7366 6.2567 14.0294C6.4581 14.2143 6.66234 14.3504 6.81581 14.4401C6.89182 14.4845 6.95363 14.5164 6.99367 14.536C7.01355 14.5458 7.02816 14.5519 7.03609 14.5554L7.04078 14.5578C7.04051 14.5577 7.03887 14.5572 6.74994 15.2489L6.45999 15.9412L6.45813 15.94C6.45727 15.9396 6.45633 15.9392 6.4553 15.9388C6.45277 15.9377 6.44933 15.9365 6.44583 15.935C6.43884 15.932 6.43011 15.9277 6.41944 15.9229C6.39807 15.9133 6.36941 15.9001 6.33469 15.8831C6.26542 15.8493 6.17074 15.8006 6.0594 15.7355C5.83787 15.6061 5.541 15.4087 5.24244 15.1347C4.78379 14.7138 4.29783 14.0876 4.09645 13.2415C2.92556 13.1624 1.99973 12.1904 1.9997 10.9994C1.9997 10.707 2.0566 10.4272 2.15851 10.1703C1.34667 9.09369 0.904979 7.78059 1.0267 6.38927C1.32573 2.97143 4.79906 0.696394 8.523 1.0222C12.2469 1.348 15.2725 4.19161 14.9734 7.60945Z" fill="#292A2E"/>
</svg>
