<svg width="16" height="16" viewBox="0 0 16 16" fill="none" xmlns="http://www.w3.org/2000/svg">
<path fill-rule="evenodd" clip-rule="evenodd" d="M0 2.375C0 1.61561 0.615608 1 1.375 1H4.625C5.38439 1 6 1.61561 6 2.375V13.625C6 14.3844 5.38439 15 4.625 15H1.375C0.615609 15 0 14.3844 0 13.625V2.375ZM1.5 2.5V13.5H4.5V2.5H1.5ZM7.5 2.375C7.5 1.61561 8.11561 1 8.875 1H9.625C10.3844 1 11 1.61561 11 2.375V13.625C11 14.3844 10.3844 15 9.625 15H8.875C8.11561 15 7.5 14.3844 7.5 13.625V2.375ZM9 2.5V13.5H9.5V2.5H9ZM12.5 2.375C12.5 1.61561 13.1156 1 13.875 1H14.625C15.3844 1 16 1.61561 16 2.375V13.625C16 14.3844 15.3844 15 14.625 15H13.875C13.1156 15 12.5 14.3844 12.5 13.625V2.375ZM14 2.5V13.5H14.5V2.5H14Z" fill="#44546F"/>
</svg>
