<svg width="16" height="16" viewBox="0 0 16 16" fill="none" xmlns="http://www.w3.org/2000/svg">
<path fill-rule="evenodd" clip-rule="evenodd" d="M0 2.375C0 1.61561 0.615608 1 1.375 1H2.125C2.88439 1 3.5 1.61561 3.5 2.375V13.625C3.5 14.3844 2.88439 15 2.125 15H1.375C0.615608 15 0 14.3844 0 13.625V2.375ZM1.5 2.5V13.5H2V2.5H1.5ZM5 2.375C5 1.61561 5.61561 1 6.375 1H7.125C7.88439 1 8.5 1.61561 8.5 2.375V13.625C8.5 14.3844 7.88439 15 7.125 15H6.375C5.61561 15 5 14.3844 5 13.625V2.375ZM6.5 2.5V13.5H7V2.5H6.5ZM10 2.375C10 1.61561 10.6156 1 11.375 1H14.625C15.3844 1 16 1.61561 16 2.375V13.625C16 14.3844 15.3844 15 14.625 15H11.375C10.6156 15 10 14.3844 10 13.625V2.375ZM11.5 2.5V13.5H14.5V2.5H11.5Z" fill="#44546F"/>
</svg>
