<svg width="16" height="16" viewBox="0 0 16 16" fill="none" xmlns="http://www.w3.org/2000/svg">
<path fill-rule="evenodd" clip-rule="evenodd" d="M0 1.75C0 1.33579 0.335786 1 0.75 1H1.25C1.66421 1 2 1.33579 2 1.75V14.25C2 14.6642 1.66421 15 1.25 15H0.75C0.335786 15 0 14.6642 0 14.25V1.75ZM3.5 1.75C3.5 1.33579 3.83579 1 4.25 1H4.75C5.16421 1 5.5 1.33579 5.5 1.75V14.25C5.5 14.6642 5.16421 15 4.75 15H4.25C3.83579 15 3.5 14.6642 3.5 14.25V1.75ZM7 1.75C7 1.33579 7.33579 1 7.75 1H8.25C8.66421 1 9 1.33579 9 1.75V14.25C9 14.6642 8.66421 15 8.25 15H7.75C7.33579 15 7 14.6642 7 14.25V1.75ZM10.5 1.75C10.5 1.33579 10.8358 1 11.25 1H11.75C12.1642 1 12.5 1.33579 12.5 1.75V14.25C12.5 14.6642 12.1642 15 11.75 15H11.25C10.8358 15 10.5 14.6642 10.5 14.25V1.75ZM14 1.75C14 1.33579 14.3358 1 14.75 1H15.25C15.6642 1 16 1.33579 16 1.75V14.25C16 14.6642 15.6642 15 15.25 15H14.75C14.3358 15 14 14.6642 14 14.25V1.75Z" fill="#44546F"/>
</svg>
