<svg width="16" height="16" viewBox="0 0 16 16" fill="none" xmlns="http://www.w3.org/2000/svg">
<path fill-rule="evenodd" clip-rule="evenodd" d="M0 1.75C0 1.33579 0.335786 1 0.75 1H2.125C2.53921 1 2.875 1.33579 2.875 1.75V14.25C2.875 14.6642 2.53921 15 2.125 15H0.75C0.335786 15 0 14.6642 0 14.25V1.75ZM4.375 1.75C4.375 1.33579 4.71079 1 5.125 1H6.5C6.91421 1 7.25 1.33579 7.25 1.75V14.25C7.25 14.6642 6.91421 15 6.5 15H5.125C4.71079 15 4.375 14.6642 4.375 14.25V1.75ZM8.75 1.75C8.75 1.33579 9.08579 1 9.5 1H10.875C11.2892 1 11.625 1.33579 11.625 1.75V14.25C11.625 14.6642 11.2892 15 10.875 15H9.5C9.08579 15 8.75 14.6642 8.75 14.25V1.75ZM13.125 1.75C13.125 1.33579 13.4608 1 13.875 1H15.25C15.6642 1 16 1.33579 16 1.75V14.25C16 14.6642 15.6642 15 15.25 15H13.875C13.4608 15 13.125 14.6642 13.125 14.25V1.75Z" fill="#44546F"/>
</svg>
