<svg width="16" height="16" viewBox="0 0 16 16" fill="none" xmlns="http://www.w3.org/2000/svg">
<path d="M0.469666 1.53039L14.4697 15.5304L15.5303 14.4697L1.53033 0.469727L0.469666 1.53039Z" fill="#292A2E"/>
<path d="M12.3714 9.18937L11.3107 8.12871L12.7196 6.71977C13.6694 5.77002 13.6694 4.23017 12.7196 3.28043C11.7699 2.33068 10.2301 2.33068 9.2803 3.28043L7.87136 4.68937L6.81069 3.62871L8.21964 2.21977C9.75518 0.684232 12.2448 0.684231 13.7803 2.21977C15.3158 3.7553 15.3158 6.24489 13.7803 7.78043L12.3714 9.18937Z" fill="#292A2E"/>
<path d="M11.2803 5.78043L10.1214 6.93938L9.0607 5.87872L10.2196 4.71977L11.2803 5.78043Z" fill="#292A2E"/>
<path d="M4.68937 7.87136L3.62871 6.81069L2.21964 8.21977C0.68411 9.7553 0.684109 12.2449 2.21964 13.7804C3.75518 15.316 6.24477 15.316 7.7803 13.7804L9.18937 12.3714L8.12871 11.3107L6.71964 12.7198C5.7699 13.6695 4.23005 13.6695 3.2803 12.7198C2.33056 11.77 2.33056 10.2302 3.2803 9.28043L4.68937 7.87136Z" fill="#292A2E"/>
<path d="M5.78031 11.2804L6.93938 10.1214L5.87872 9.0607L4.71965 10.2198L5.78031 11.2804Z" fill="#292A2E"/>
</svg>
