<svg width="16" height="16" viewBox="0 0 16 16" fill="none" xmlns="http://www.w3.org/2000/svg">
<path d="M8.75098 5.19824L11.3516 0.695312L12.6504 1.44531L10.0469 5.95215L14.5537 3.35156L15.3037 4.65039L10.7988 7.25H16V8.75H10.7969L15.3027 11.3516L14.5527 12.6504L10.0488 10.0498L12.6484 14.5518L11.3496 15.3018L8.75098 10.7998V16H7.25098V10.7949L4.65039 15.3018L3.35156 14.5518L5.94922 10.0498L1.44727 12.6504L0.697266 11.3516L5.20215 8.75H0V7.25H5.2002L0.696289 4.65039L1.44629 3.35156L5.95117 5.95215L3.34961 1.44531L4.64844 0.695312L7.25098 5.20312V0H8.75098V5.19824ZM8 5.75C7.83798 5.75002 7.68049 5.76959 7.52832 5.80273C7.15569 5.88225 6.81733 6.05233 6.53809 6.29102C6.24156 6.54492 6.01345 6.87466 5.88086 7.25C5.79775 7.48484 5.75 7.73669 5.75 8C5.75 8.17222 5.77218 8.33914 5.80957 8.5C5.89147 8.86067 6.05803 9.18832 6.29004 9.45996L6.29102 9.45898C6.61913 9.84245 7.07316 10.1127 7.58984 10.208L7.58789 10.209C7.72151 10.2346 7.85898 10.25 8 10.25C8.20238 10.25 8.39771 10.2199 8.58398 10.1689C9.00291 10.0567 9.37167 9.82719 9.65625 9.5166C9.87639 9.27618 10.0442 8.98896 10.1436 8.66992C10.2102 8.45803 10.25 8.23387 10.25 8C10.25 7.85967 10.2352 7.72283 10.21 7.58984C10.1147 7.07322 9.84433 6.61913 9.46094 6.29102L9.46191 6.29004C9.25422 6.1122 9.014 5.97196 8.75098 5.87891V5.88086C8.51597 5.79757 8.26355 5.75003 8 5.75Z" fill="#292A2E"/>
</svg>
