<svg width="16" height="16" viewBox="0 0 16 16" fill="none" xmlns="http://www.w3.org/2000/svg">
<path d="M5 12.75C5 12.3358 4.66421 12 4.25 12C3.83579 12 3.5 12.3358 3.5 12.75C3.5 13.1642 3.83579 13.5 4.25 13.5C4.66421 13.5 5 13.1642 5 12.75ZM6.5 12.75C6.5 13.9926 5.49264 15 4.25 15C3.00736 15 2 13.9926 2 12.75C2 11.7707 2.62657 10.94 3.5 10.6309V6H5V10.6309C5.87343 10.94 6.5 11.7707 6.5 12.75Z" fill="#292A2E"/>
<path d="M13.5 9.75C13.5 9.33579 13.1642 9 12.75 9C12.3358 9 12 9.33579 12 9.75C12 10.1642 12.3358 10.5 12.75 10.5C13.1642 10.5 13.5 10.1642 13.5 9.75ZM15 9.75C15 10.9926 13.9926 12 12.75 12C11.5074 12 10.5 10.9926 10.5 9.75C10.5 8.50736 11.5074 7.5 12.75 7.5C13.9926 7.5 15 8.50736 15 9.75Z" fill="#292A2E"/>
<path d="M9.25 5.75C9.80228 5.75 10.25 6.19772 10.25 6.75C10.25 7.30228 9.80228 7.75 9.25 7.75C8.69772 7.75 8.25 7.30228 8.25 6.75C8.25 6.19772 8.69772 5.75 9.25 5.75Z" fill="#292A2E"/>
<path d="M4.25 1.75C4.80228 1.75 5.25 2.19772 5.25 2.75C5.25 3.30228 4.80228 3.75 4.25 3.75C3.69772 3.75 3.25 3.30228 3.25 2.75C3.25 2.19772 3.69772 1.75 4.25 1.75Z" fill="#292A2E"/>
<path d="M6.75 3.75C7.30228 3.75 7.75 4.19772 7.75 4.75C7.75 5.30228 7.30228 5.75 6.75 5.75C6.19772 5.75 5.75 5.30228 5.75 4.75C5.75 4.19772 6.19772 3.75 6.75 3.75Z" fill="#292A2E"/>
</svg>
