<svg width="16" height="16" viewBox="0 0 16 16" fill="none" xmlns="http://www.w3.org/2000/svg">
<path d="M8.30755 11.4896L9.60171 12.7838C9.32526 12.8602 9.04081 12.9173 8.74989 12.9536V14.5H11.3179L11.9999 15.182V16H3.99989V14.5H7.24989V12.9536C4.29015 12.5845 1.99989 10.0597 1.99989 7H3.49989C3.49989 9.48528 5.5146 11.5 7.99989 11.5C8.10329 11.5 8.20589 11.4965 8.30755 11.4896Z" fill="#44546F"/>
<path d="M12.4999 7C12.4999 7.67852 12.3497 8.32197 12.0808 8.89892L13.1916 10.0097C13.7056 9.12499 13.9999 8.09687 13.9999 7H12.4999Z" fill="#44546F"/>
<path d="M9.49989 6.31802L10.9107 7.72886C10.969 7.49553 10.9999 7.25137 10.9999 7V3C10.9999 1.34315 9.65674 0 7.99989 0C6.69678 0 5.58772 0.830836 5.17355 1.99168L6.49989 3.31802V3C6.49989 2.17157 7.17146 1.5 7.99989 1.5C8.82831 1.5 9.49989 2.17157 9.49989 3V6.31802Z" fill="#44546F"/>
<path d="M6.26735 9.44945L5.55044 8.73253C5.74712 9.01009 5.98979 9.25277 6.26735 9.44945Z" fill="#44546F"/>
<path d="M0.0946121 1.15539L14.8446 15.9054L15.9053 14.8447L1.15527 0.0947266L0.0946121 1.15539Z" fill="#44546F"/>
</svg>
