<svg width="16" height="16" viewBox="0 0 16 16" fill="none" xmlns="http://www.w3.org/2000/svg">
<path d="M6.73682 2.46623C7.52225 1.82562 8.68133 1.87201 9.41358 2.60393L11.7495 4.93987L8.00049 8.68987L6.03077 6.72014L4.97022 7.78069L7.47022 10.2807L7.52686 10.3324C7.82143 10.5723 8.25632 10.5551 8.53077 10.2807L12.8101 6.00041L13.396 6.58635L13.5337 6.73772C14.1742 7.52323 14.1281 8.68228 13.396 9.41448L9.41358 13.3969C8.63257 14.1774 7.36636 14.1776 6.58546 13.3969L2.60303 9.41448C1.82248 8.63356 1.82257 7.36733 2.60303 6.58635L6.58546 2.60393L6.73682 2.46623ZM14.9058 3.90569L12.8101 6.00041L11.7495 4.93987L13.8452 2.84514L14.9058 3.90569Z" fill="#292A2E"/>
</svg>
