<svg width="16" height="16" viewBox="0 0 16 16" fill="none" xmlns="http://www.w3.org/2000/svg">
<path d="M6.73683 2.46602C7.52226 1.8254 8.68133 1.8718 9.41358 2.60372L11.7495 4.93965L8.0005 8.68965L6.03077 6.71993L4.97023 7.78047L7.47022 10.2805L7.52687 10.3322C7.82144 10.5721 8.25633 10.5549 8.53077 10.2805L12.8101 6.0002L13.396 6.58614L13.5337 6.7375C14.1743 7.52302 14.1281 8.68207 13.396 9.41426L9.41358 13.3967C8.63257 14.1772 7.36637 14.1773 6.58546 13.3967L2.60304 9.41426C1.82248 8.63334 1.82257 7.36711 2.60304 6.58614L6.58546 2.60372L6.73683 2.46602ZM14.9058 3.90547L12.8101 6.0002L11.7495 4.93965L13.8452 2.84493L14.9058 3.90547Z" fill="#292A2E"/>
</svg>
