<svg width="16" height="16" viewBox="0 0 16 16" fill="none" xmlns="http://www.w3.org/2000/svg">
<path d="M4.58545 2.60346C5.24516 1.94383 6.24987 1.84406 7.01709 2.29877L5.68213 3.63373C5.67022 3.64361 5.65716 3.65285 5.646 3.664L1.66358 7.64642C1.46875 7.84159 1.46878 8.15827 1.66358 8.35346L5.646 12.3359C5.65398 12.3439 5.66399 12.35 5.67237 12.3574L7.01612 13.7011C6.24898 14.1554 5.24497 14.0559 4.58545 13.3964L0.603031 9.414C-0.177549 8.63303 -0.177586 7.36683 0.603031 6.58588L4.58545 2.60346Z" fill="#292A2E"/>
<path d="M8.58594 2.60351C9.36696 1.82259 10.633 1.82259 11.4141 2.60351L15.3965 6.58594C16.1774 7.36696 16.1774 8.63304 15.3965 9.41406L11.4141 13.3965C10.633 14.1774 9.36696 14.1774 8.58594 13.3965L4.60352 9.41406C3.82259 8.63304 3.82259 7.36696 4.60352 6.58594L8.58594 2.60351ZM10.3535 3.66406C10.1583 3.46892 9.84172 3.46892 9.64649 3.66406L5.66406 7.64648C5.46893 7.84172 5.46893 8.15828 5.66406 8.35351L9.64649 12.3359C9.84172 12.5311 10.1583 12.5311 10.3535 12.3359L14.3359 8.35351C14.5311 8.15828 14.5311 7.84172 14.3359 7.64648L10.3535 3.66406Z" fill="#292A2E"/>
</svg>
