<svg width="16" height="16" viewBox="0 0 16 16" fill="none" xmlns="http://www.w3.org/2000/svg">
<path d="M6.73682 2.46599C7.52225 1.82537 8.68133 1.87177 9.41358 2.60369L11.7495 4.93962L8.00049 8.68962L6.03077 6.7199L4.97022 7.78044L7.47022 10.2804L7.52686 10.3322C7.82143 10.5721 8.25632 10.5549 8.53077 10.2804L12.8101 6.00017L13.396 6.58611L13.5337 6.73747C14.1742 7.52299 14.1281 8.68204 13.396 9.41423L9.41358 13.3967C8.63257 14.1772 7.36636 14.1773 6.58546 13.3967L2.60303 9.41423C1.82248 8.63331 1.82257 7.36708 2.60303 6.58611L6.58546 2.60369L6.73682 2.46599ZM14.9058 3.90544L12.8101 6.00017L11.7495 4.93962L13.8452 2.8449L14.9058 3.90544Z" fill="#44546F"/>
</svg>
