<svg width="16" height="16" viewBox="0 0 16 16" fill="none" xmlns="http://www.w3.org/2000/svg">
<path fill-rule="evenodd" clip-rule="evenodd" d="M6.58545 2.60303C7.36632 1.82227 8.63251 1.82259 9.41358 2.60303L13.396 6.58545C14.1281 7.31767 14.1743 8.47669 13.5337 9.26221L13.396 9.41357L9.41358 13.396C8.63255 14.1769 7.36648 14.1769 6.58545 13.396L2.60303 9.41357C1.82259 8.63251 1.82227 7.36631 2.60303 6.58545L6.58545 2.60303ZM8.00049 9.99951C7.44829 9.99951 7.00062 10.4473 7.00049 10.9995C7.00049 11.5518 7.44821 11.9995 8.00049 11.9995C8.55255 11.9992 9.00049 11.5516 9.00049 10.9995C9.00036 10.4475 8.55247 9.99978 8.00049 9.99951ZM7.25049 3.99951V8.99951H8.75049V3.99951H7.25049Z" fill="#44546F"/>
</svg>
