<svg width="16" height="16" viewBox="0 0 16 16" fill="none" xmlns="http://www.w3.org/2000/svg">
<path d="M6.58594 2.60351C7.36696 1.82259 8.63304 1.82259 9.41406 2.60351L13.3965 6.58594C14.1774 7.36696 14.1774 8.63304 13.3965 9.41406L9.41406 13.3965C8.63304 14.1774 7.36696 14.1774 6.58594 13.3965L2.60351 9.41406C1.82259 8.63304 1.82259 7.36696 2.60351 6.58594L6.58594 2.60351ZM8.35351 3.66406C8.15828 3.46892 7.84172 3.46892 7.64648 3.66406L3.66406 7.64648C3.46892 7.84172 3.46892 8.15828 3.66406 8.35351L7.64648 12.3359C7.84172 12.5311 8.15828 12.5311 8.35351 12.3359L12.3359 8.35351C12.5311 8.15828 12.5311 7.84172 12.3359 7.64648L8.35351 3.66406Z" fill="#292A2E"/>
</svg>
