<svg width="16" height="16" viewBox="0 0 16 16" fill="none" xmlns="http://www.w3.org/2000/svg">
<path d="M4.90137 8.92879C6.91838 8.35447 9.08163 8.35447 11.0986 8.92879C12.8262 9.42072 14.451 10.3355 15.7822 11.6759C16.0726 11.9683 16.0725 12.44 15.7822 12.7325L13.752 14.7764C13.5148 15.0153 13.1473 15.0667 12.8535 14.9024L10.7109 13.7042C10.1672 13.4001 9.85546 12.8038 9.91114 12.1856L10.0879 10.2218C8.71564 9.92415 7.28337 9.92402 5.91114 10.2218L6.08887 12.1856C6.14456 12.8038 5.83279 13.4001 5.28907 13.7042L3.14649 14.9024C2.85272 15.0667 2.48526 15.0153 2.24805 14.7764L0.217781 12.7325C-0.0724625 12.44 -0.0725622 11.9683 0.217781 11.6759C1.54906 10.3355 3.1738 9.42072 4.90137 8.92879ZM4.44434 10.6641C3.50348 11.0327 2.61774 11.5541 1.82911 12.2266L2.91016 13.3155L4.55665 12.3946C4.58043 12.3813 4.59761 12.3531 4.59473 12.3204L4.44434 10.6641ZM11.4053 12.3204C11.4024 12.3531 11.4196 12.3813 11.4434 12.3946L13.0889 13.3155L14.1699 12.2266C13.3812 11.5541 12.4957 11.0326 11.5547 10.6641L11.4053 12.3204Z" fill="#292A2E"/>
<path d="M14 5.5H12.5V3.06055L8.97266 6.58887C8.4357 7.12577 7.5643 7.12578 7.02734 6.58887L3.46973 3.03027L4.53027 1.96973L7.99902 5.43848L11.4395 2H9V0.5H13.25C13.6642 0.5 14 0.835786 14 1.25V5.5Z" fill="#292A2E"/>
</svg>
