<svg width="16" height="16" viewBox="0 0 16 16" fill="none" xmlns="http://www.w3.org/2000/svg">
<path fill-rule="evenodd" clip-rule="evenodd" d="M12.75 3.5C12.3358 3.5 12 3.83579 12 4.25C12 4.66421 12.3358 5 12.75 5C13.1642 5 13.5 4.66421 13.5 4.25C13.5 3.83579 13.1642 3.5 12.75 3.5ZM10.5 4.25C10.5 3.00736 11.5074 2 12.75 2C13.9926 2 15 3.00736 15 4.25C15 5.49264 13.9926 6.5 12.75 6.5C11.5074 6.5 10.5 5.49264 10.5 4.25Z" fill="#292A2E"/>
<path fill-rule="evenodd" clip-rule="evenodd" d="M12.75 11C12.3358 11 12 11.3358 12 11.75C12 12.1642 12.3358 12.5 12.75 12.5C13.1642 12.5 13.5 12.1642 13.5 11.75C13.5 11.3358 13.1642 11 12.75 11ZM10.5 11.75C10.5 10.5074 11.5074 9.5 12.75 9.5C13.9926 9.5 15 10.5074 15 11.75C15 12.9926 13.9926 14 12.75 14C11.5074 14 10.5 12.9926 10.5 11.75Z" fill="#292A2E"/>
<path fill-rule="evenodd" clip-rule="evenodd" d="M1 11L12 11V12.5L1 12.5L1 11Z" fill="#292A2E"/>
<path fill-rule="evenodd" clip-rule="evenodd" d="M7.25 5C6.97386 5 6.75 5.22386 6.75 5.5V11.75H5.25V5.5C5.25 4.39543 6.14543 3.5 7.25 3.5H12V5H7.25Z" fill="#292A2E"/>
</svg>
