<svg width="16" height="16" viewBox="0 0 16 16" fill="none" xmlns="http://www.w3.org/2000/svg">
<path fill-rule="evenodd" clip-rule="evenodd" d="M3.25 3.5C2.83579 3.5 2.5 3.83579 2.5 4.25C2.5 4.66421 2.83579 5 3.25 5C3.66421 5 4 4.66421 4 4.25C4 3.83579 3.66421 3.5 3.25 3.5ZM1 4.25C1 3.00736 2.00736 2 3.25 2C4.49264 2 5.5 3.00736 5.5 4.25C5.5 5.49264 4.49264 6.5 3.25 6.5C2.00736 6.5 1 5.49264 1 4.25Z" fill="#292A2E"/>
<path fill-rule="evenodd" clip-rule="evenodd" d="M3.25 11C2.83579 11 2.5 11.3358 2.5 11.75C2.5 12.1642 2.83579 12.5 3.25 12.5C3.66421 12.5 4 12.1642 4 11.75C4 11.3358 3.66421 11 3.25 11ZM1 11.75C1 10.5074 2.00736 9.5 3.25 9.5C4.49264 9.5 5.5 10.5074 5.5 11.75C5.5 12.9926 4.49264 14 3.25 14C2.00736 14 1 12.9926 1 11.75Z" fill="#292A2E"/>
<path fill-rule="evenodd" clip-rule="evenodd" d="M4 3.5L15 3.5V5L4 5L4 3.5Z" fill="#292A2E"/>
<path fill-rule="evenodd" clip-rule="evenodd" d="M10.75 4.25V10.5C10.75 11.6046 9.85457 12.5 8.75 12.5H4V11H8.75C9.02614 11 9.25 10.7761 9.25 10.5V4.25H10.75Z" fill="#292A2E"/>
</svg>
