<svg width="16" height="16" viewBox="0 0 16 16" fill="none" xmlns="http://www.w3.org/2000/svg">
<path fill-rule="evenodd" clip-rule="evenodd" d="M3.25 7.25C2.83579 7.25 2.5 7.58579 2.5 8C2.5 8.41421 2.83579 8.75 3.25 8.75C3.66421 8.75 4 8.41421 4 8C4 7.58579 3.66421 7.25 3.25 7.25ZM1 8C1 6.75736 2.00736 5.75 3.25 5.75C4.49264 5.75 5.5 6.75736 5.5 8C5.5 9.24264 4.49264 10.25 3.25 10.25C2.00736 10.25 1 9.24264 1 8Z" fill="#44546F"/>
<path fill-rule="evenodd" clip-rule="evenodd" d="M4 7.25L14 7.25V8.75L4 8.75L4 7.25Z" fill="#44546F"/>
</svg>
