<svg width="16" height="16" viewBox="0 0 16 16" fill="none" xmlns="http://www.w3.org/2000/svg">
<path fill-rule="evenodd" clip-rule="evenodd" d="M12.75 7.25C12.3358 7.25 12 7.58579 12 8C12 8.41421 12.3358 8.75 12.75 8.75C13.1642 8.75 13.5 8.41421 13.5 8C13.5 7.58579 13.1642 7.25 12.75 7.25ZM10.5 8C10.5 6.75736 11.5074 5.75 12.75 5.75C13.9926 5.75 15 6.75736 15 8C15 9.24264 13.9926 10.25 12.75 10.25C11.5074 10.25 10.5 9.24264 10.5 8Z" fill="#44546F"/>
<path fill-rule="evenodd" clip-rule="evenodd" d="M2 7.25L12 7.25V8.75L2 8.75L2 7.25Z" fill="#44546F"/>
</svg>
