<svg width="16" height="16" viewBox="0 0 16 16" fill="none" xmlns="http://www.w3.org/2000/svg">
<path fill-rule="evenodd" clip-rule="evenodd" d="M4 1V0H5.5V1H7.25V0H8.75V1H10.5V0H12V1H13C14.1046 1 15 1.89543 15 3V10.75C15 11.2691 14.7938 11.7669 14.4268 12.1339L11.1339 15.4268C10.7669 15.7938 10.2691 16 9.75 16H3C1.89543 16 1 15.1046 1 14V3C1 1.89543 1.89543 1 3 1H4ZM4 2.5H3C2.72386 2.5 2.5 2.72386 2.5 3V14C2.5 14.2761 2.72386 14.5 3 14.5H9V10.75C9 10.3358 9.33579 10 9.75 10H13.5V3C13.5 2.72386 13.2761 2.5 13 2.5H12V4.5H10.5V2.5H8.75V4.5H7.25V2.5H5.5V4.5H4V2.5ZM12.9393 11.5H10.5V13.9393L12.9393 11.5ZM12 8H4V6.5H12V8ZM7 10V11.5H4V10H7Z" fill="#44546F"/>
</svg>
