<svg width="16" height="16" viewBox="0 0 16 16" fill="none" xmlns="http://www.w3.org/2000/svg">
<path fill-rule="evenodd" clip-rule="evenodd" d="M15 3.5H1V2H15V3.5ZM6 8.5H1V7H6V8.5ZM6 14H1V12.5H6V14Z" fill="#292A2E"/>
<path fill-rule="evenodd" clip-rule="evenodd" d="M8.7197 7.21964C8.92766 7.01168 9.23799 6.94446 9.51337 7.04773L15.5133 9.29775C15.8208 9.41303 16.0175 9.71486 15.9988 10.0426C15.9801 10.3704 15.7504 10.648 15.4319 10.7276L12.8685 11.3685L12.2276 13.9319C12.148 14.2504 11.8704 14.4801 11.5426 14.4988C11.2149 14.5175 10.913 14.3208 10.7978 14.0133L8.54778 8.01331C8.44451 7.73793 8.51173 7.42761 8.7197 7.21964Z" fill="#292A2E"/>
</svg>
