<svg width="16" height="16" viewBox="0 0 16 16" fill="none" xmlns="http://www.w3.org/2000/svg">
<path fill-rule="evenodd" clip-rule="evenodd" d="M13.5 3C13.5 2.72386 13.2761 2.5 13 2.5L3 2.5C2.72386 2.5 2.5 2.72386 2.5 3L2.5 13C2.5 13.2761 2.72386 13.5 3 13.5H7.50023V15H3C1.89543 15 1 14.1046 1 13L1 3C1 1.89543 1.89543 1 3 1L13 1C14.1046 1 15 1.89543 15 3V7.5H13.5V3ZM12 6H4L4 4.5H12V6ZM9 9.5H4V8H9V9.5Z" fill="#44546F"/>
<path d="M8.58917 12.2068L11.6826 7.71866C11.9968 7.26276 12.7091 7.57988 12.5806 8.11845L12.1 10.1326C12.0625 10.2897 12.1816 10.4406 12.3432 10.4406H14.5033C14.9062 10.4406 15.1436 10.8927 14.915 11.2244L11.8216 15.7125C11.5074 16.1683 10.7951 15.8512 10.9236 15.3127L11.4042 13.2985C11.4417 13.1414 11.3225 12.9905 11.161 12.9905H9.00086C8.598 12.9905 8.36055 12.5385 8.58917 12.2068Z" fill="#44546F"/>
</svg>
