<svg width="16" height="16" viewBox="0 0 16 16" fill="none" xmlns="http://www.w3.org/2000/svg">
<path d="M7.50024 14.2499L3.00001 14.2499C2.30966 14.2499 1.75001 13.6903 1.75001 12.9999L1.75002 2.99994C1.75002 2.30958 2.30966 1.74994 3.00002 1.74994L13 1.74994C13.6904 1.74994 14.25 2.30958 14.25 2.99994L14.25 7.49994M4.00001 5.24994L12 5.24994M4.00001 8.74994L9.00001 8.74994" stroke="#44546F" stroke-width="1.5"/>
<path d="M8.58917 12.2068L11.6826 7.71866C11.9968 7.26276 12.7091 7.57988 12.5806 8.11845L12.1 10.1326C12.0625 10.2897 12.1816 10.4406 12.3432 10.4406H14.5033C14.9062 10.4406 15.1436 10.8927 14.915 11.2244L11.8216 15.7125C11.5074 16.1683 10.7951 15.8512 10.9236 15.3127L11.4042 13.2985C11.4417 13.1414 11.3225 12.9905 11.161 12.9905L9.00086 12.9905C8.598 12.9905 8.36055 12.5385 8.58917 12.2068Z" fill="#44546F"/>
</svg>
