<svg width="16" height="16" viewBox="0 0 16 16" fill="none" xmlns="http://www.w3.org/2000/svg">
<path fill-rule="evenodd" clip-rule="evenodd" d="M2.5 0.75C2.5 0.335786 2.83579 0 3.25 0H12.75C13.1642 0 13.5 0.335786 13.5 0.75V9C13.5 10.1046 12.6046 11 11.5 11H10V14C10 15.1046 9.10457 16 8 16C6.89543 16 6 15.1046 6 14V11H4.5C3.39543 11 2.5 10.1046 2.5 9V0.75ZM7.5 11V14C7.5 14.2761 7.72386 14.5 8 14.5C8.27614 14.5 8.5 14.2761 8.5 14V11H7.5ZM4 1.5V6.5H12V1.5H10.5V4H9V1.5H7V3H5.5V1.5H4ZM12 8H4V9C4 9.27614 4.22386 9.5 4.5 9.5H11.5C11.7761 9.5 12 9.27614 12 9V8Z" fill="#44546F"/>
</svg>
