<svg width="16" height="16" viewBox="0 0 16 16" fill="none" xmlns="http://www.w3.org/2000/svg">
<path fill-rule="evenodd" clip-rule="evenodd" d="M1 0.75C1 0.335786 1.33579 0 1.75 0H11.75C12.1642 0 12.5 0.335786 12.5 0.75V1.75H13.625C14.3844 1.75 15 2.36561 15 3.125V5.5C15 6.60457 14.1046 7.5 13 7.5H7.75V9H8.25C8.66421 9 9 9.33579 9 9.75V14C9 15.1046 8.10457 16 7 16C5.89543 16 5 15.1046 5 14V9.75C5 9.33579 5.33579 9 5.75 9H6.25V7.3875C6.25 6.6212 6.8712 6 7.6375 6H13C13.2761 6 13.5 5.77614 13.5 5.5V3.25H12.5V4.25C12.5 4.66421 12.1642 5 11.75 5H1.75C1.33579 5 1 4.66421 1 4.25V0.75ZM6.5 10.5V14C6.5 14.2761 6.72386 14.5 7 14.5C7.27614 14.5 7.5 14.2761 7.5 14V10.5H6.5ZM2.5 1.5V3.5H11V1.5H2.5Z" fill="#292A2E"/>
</svg>
