<svg width="16" height="16" viewBox="0 0 16 16" fill="none" xmlns="http://www.w3.org/2000/svg">
<path d="M8 2L8.23223 2.23223C9.20854 3.20854 9.20854 4.79146 8.23223 5.76777L6.75 7.25M15.25 6.75L15.0178 6.51777C14.0415 5.54146 12.4585 5.54146 11.4822 6.51777L10.5 7.5M11.5 1.75L13 1.75M13.5 9.25H15M4 1.75L5.5 1.75M2.9375 7.68748L0.84292 13.9712C0.59862 14.7041 1.29588 15.4014 2.02877 15.1571L8.31251 13.0625M2.9375 7.68748L3.68021 5.45937C3.82713 5.0186 4.38654 4.88654 4.71508 5.21508L10.7849 11.2849C11.1134 11.6134 10.9814 12.1729 10.5406 12.3198L8.31251 13.0625M2.9375 7.68748L8.31251 13.0625" stroke="#44546F" stroke-width="1.5"/>
</svg>
