<svg width="16" height="16" viewBox="0 0 16 16" fill="none" xmlns="http://www.w3.org/2000/svg">
<path fill-rule="evenodd" clip-rule="evenodd" d="M1.79159 14.4456C1.64501 14.4944 1.50556 14.355 1.55442 14.2084L3.26525 9.07593L6.92407 12.7348L1.79159 14.4456ZM8.51506 12.2044L3.79558 7.48494L4.32775 5.88845L10.1116 11.6723L8.51506 12.2044ZM0.131393 13.7341C-0.308347 15.0533 0.946713 16.3083 2.26593 15.8686L10.7778 13.0313C11.7475 12.7081 12.038 11.4774 11.3152 10.7546L7.81064 7.25003L8.76255 6.29813C10.0318 5.02893 10.0318 2.97114 8.76255 1.70194L8.53031 1.4697L7.46965 2.53036L7.70189 2.7626C8.3853 3.44601 8.3853 4.55405 7.70189 5.23747L6.74998 6.18937L5.24539 4.68478C4.52262 3.96201 3.29191 4.25254 2.96868 5.22224L0.131393 13.7341ZM5.49998 1.00003L3.99999 1.00003L3.99999 2.50003L5.49999 2.50003L5.49998 1.00003ZM11.0303 8.03036L12.0125 7.04813C12.696 6.36471 13.804 6.36471 14.4874 7.04813L14.7197 7.28036L15.7803 6.2197L15.5481 5.98747C14.2789 4.71827 12.2211 4.71827 10.9519 5.98747L9.96965 6.9697L11.0303 8.03036ZM15 8.50003H13.5V10H15V8.50003ZM13 1.00003L11.5 1.00003L11.5 2.50003L13 2.50003L13 1.00003Z" fill="#292A2E"/>
</svg>
