<svg width="16" height="16" viewBox="0 0 16 16" fill="none" xmlns="http://www.w3.org/2000/svg">
<path fill-rule="evenodd" clip-rule="evenodd" d="M1.79159 14.4456C1.64501 14.4944 1.50556 14.355 1.55442 14.2084L3.26525 9.0759L6.92407 12.7347L1.79159 14.4456ZM8.51506 12.2044L3.79558 7.48491L4.32775 5.88842L10.1116 11.6722L8.51506 12.2044ZM0.131395 13.734C-0.308345 15.0533 0.946715 16.3083 2.26593 15.8686L10.7778 13.0313C11.7475 12.7081 12.038 11.4774 11.3152 10.7546L7.81065 7.25L8.76255 6.2981C10.0318 5.0289 10.0318 2.97111 8.76255 1.70191L8.53032 1.46967L7.46966 2.53033L7.70189 2.76257C8.38531 3.44598 8.38531 4.55402 7.70189 5.23744L6.74999 6.18934L5.24539 4.68475C4.52262 3.96198 3.29192 4.25251 2.96868 5.22221L0.131395 13.734ZM5.49999 1L3.99999 1L3.99999 2.5L5.49999 2.5L5.49999 1ZM11.0303 8.03033L12.0125 7.0481C12.696 6.36468 13.804 6.36468 14.4874 7.0481L14.7197 7.28033L15.7803 6.21967L15.5481 5.98744C14.2789 4.71824 12.2211 4.71824 10.9519 5.98744L9.96966 6.96967L11.0303 8.03033ZM15 8.5H13.5V10H15V8.5ZM13 1L11.5 1L11.5 2.5L13 2.5L13 1Z" fill="#44546F"/>
</svg>
