<svg width="16" height="16" viewBox="0 0 16 16" fill="none" xmlns="http://www.w3.org/2000/svg">
<path fill-rule="evenodd" clip-rule="evenodd" d="M9.3358 1.60361C10.1168 0.82256 11.3832 0.82256 12.1642 1.60361L13.3965 2.83584C14.1775 3.61689 14.1775 4.88322 13.3965 5.66427L5.29796 13.7628C5.01876 14.042 4.66316 14.2323 4.27598 14.3097L0.897099 14.9855C0.651204 15.0347 0.397 14.9577 0.219682 14.7804C0.0423645 14.6031 -0.0346024 14.3489 0.0145767 14.103L0.690353 10.7241C0.767789 10.3369 0.958099 9.98131 1.2373 9.70211L9.3358 1.60361ZM11.1036 2.66427C10.9083 2.46901 10.5917 2.46901 10.3965 2.66427L9.43567 3.62506L11.375 5.5644L12.3358 4.60361C12.5311 4.40835 12.5311 4.09176 12.3358 3.8965L11.1036 2.66427ZM10.3144 6.62506L8.37501 4.68572L2.29796 10.7628C2.22816 10.8326 2.18058 10.9215 2.16122 11.0183L1.70608 13.294L3.98181 12.8388C4.0786 12.8195 4.1675 12.7719 4.2373 12.7021L10.3144 6.62506ZM16 14.9998H8.00004V13.4998H16V14.9998Z" fill="#292A2E"/>
</svg>
