<svg width="16" height="16" viewBox="0 0 16 16" fill="none" xmlns="http://www.w3.org/2000/svg">
<path d="M1 12.75C1 10.6789 2.67893 9 4.75 9H9V10.5H4.75C3.50736 10.5 2.5 11.5074 2.5 12.75V15H1V12.75ZM9.5 4C9.5 2.61929 8.38071 1.5 7 1.5C5.61929 1.5 4.5 2.61929 4.5 4C4.5 5.38071 5.61929 6.5 7 6.5C8.38071 6.5 9.5 5.38071 9.5 4ZM11 4C11 6.20914 9.20914 8 7 8C4.79086 8 3 6.20914 3 4C3 1.79086 4.79086 0 7 0C9.20914 0 11 1.79086 11 4Z" fill="#292A2E"/>
<path d="M11.5 14.5H14.5V13.25H11.5V14.5ZM13.5 10C13.5 9.72386 13.2761 9.5 13 9.5C12.7239 9.5 12.5 9.72386 12.5 10V11.75H14.9375C15.5243 11.75 16 12.2257 16 12.8125V14.9375C16 15.5243 15.5243 16 14.9375 16H11.0625C10.4757 16 10 15.5243 10 14.9375V12.8125C10 12.2467 10.4423 11.7853 11 11.7529V10C11 8.89543 11.8954 8 13 8C14.1046 8 15 8.89543 15 10V10.5H13.5V10Z" fill="#292A2E"/>
</svg>
