<svg width="16" height="16" viewBox="0 0 16 16" fill="none" xmlns="http://www.w3.org/2000/svg">
<path d="M1 12.75C1 10.6789 2.67893 9 4.75 9H9V10.5H4.75C3.50736 10.5 2.5 11.5074 2.5 12.75V15H1V12.75ZM9.5 4C9.5 2.61929 8.38071 1.5 7 1.5C5.61929 1.5 4.5 2.61929 4.5 4C4.5 5.38071 5.61929 6.5 7 6.5C8.38071 6.5 9.5 5.38071 9.5 4ZM11 4C11 6.20914 9.20914 8 7 8C4.79086 8 3 6.20914 3 4C3 1.79086 4.79086 0 7 0C9.20914 0 11 1.79086 11 4Z" fill="#292A2E"/>
<path fill-rule="evenodd" clip-rule="evenodd" d="M13 8.5C14.1046 8.5 15 9.39543 15 10.5V11.7529C15.5577 11.7853 16 12.2467 16 12.8125V14.9375C16 15.5243 15.5243 16 14.9375 16H11.0625C10.4757 16 10 15.5243 10 14.9375V12.8125C10 12.2467 10.4423 11.7853 11 11.7529V10.5C11 9.39543 11.8954 8.5 13 8.5ZM13 10C12.7239 10 12.5 10.2239 12.5 10.5V11.75H13.5V10.5C13.5 10.2239 13.2761 10 13 10Z" fill="#292A2E"/>
</svg>
