<svg width="16" height="16" viewBox="0 0 16 16" fill="none" xmlns="http://www.w3.org/2000/svg">
<path fill-rule="evenodd" clip-rule="evenodd" d="M5 1.5C3.61929 1.5 2.5 2.61929 2.5 4C2.5 5.38071 3.61929 6.5 5 6.5C6.38071 6.5 7.5 5.38071 7.5 4C7.5 2.61929 6.38071 1.5 5 1.5ZM1 4C1 1.79086 2.79086 0 5 0C7.20914 0 9 1.79086 9 4C9 6.20914 7.20914 8 5 8C2.79086 8 1 6.20914 1 4ZM12.0947 10.9697C14.0109 9.05342 14.0109 5.94658 12.0947 4.03033L13.1553 2.96967C15.6574 5.4717 15.6574 9.5283 13.1553 12.0303L12.0947 10.9697ZM10.0947 8.96967C10.9063 8.15799 10.9063 6.84201 10.0947 6.03033L11.1553 4.96967C12.5528 6.36713 12.5528 8.63287 11.1553 10.0303L10.0947 8.96967ZM3.75 10.5C2.50736 10.5 1.5 11.5074 1.5 12.75V15H0V12.75C0 10.6789 1.67893 9 3.75 9H6.25C8.32107 9 10 10.6789 10 12.75V15H8.5V12.75C8.5 11.5074 7.49264 10.5 6.25 10.5H3.75Z" fill="#44546F"/>
</svg>
