<svg width="17" height="16" viewBox="0 0 17 16" fill="none" xmlns="http://www.w3.org/2000/svg">
<path d="M0 6.25C0 4.45032 0.597704 3.11573 1.53809 2.23438C2.46529 1.36551 3.65872 1 4.75 1C6.87755 1 8.07433 2.09312 8.69922 3.19141C9.00209 3.72374 9.16846 4.24922 9.25977 4.63672C9.30574 4.83187 9.33296 4.99662 9.34961 5.11523C9.35792 5.17448 9.36358 5.2226 9.36719 5.25781C9.36887 5.27431 9.37017 5.28815 9.37109 5.29883L9.78516 9.3584C9.94302 10.9055 8.72895 12.25 7.17383 12.25H6.75V15H5.25V11.5C5.25 11.0858 5.58579 10.75 6 10.75H7.17383C7.84031 10.75 8.36063 10.1738 8.29297 9.51074L7.87891 5.45117C7.87818 5.44403 7.87748 5.43685 7.87695 5.42969V5.42773C7.8767 5.42482 7.87586 5.4186 7.875 5.41016C7.87317 5.39228 7.86978 5.36257 7.86426 5.32324C7.85308 5.24366 7.83286 5.12488 7.79883 4.98047C7.72997 4.68832 7.60721 4.30739 7.39453 3.93359C6.98816 3.2194 6.24742 2.5 4.75 2.5C3.97732 2.5 3.17029 2.75949 2.56348 3.32812C1.96999 3.88427 1.5 4.79984 1.5 6.25C1.5 7.1493 1.88493 8.32777 2.2627 9.24805C2.63602 10.1574 2.80022 11.19 2.58984 12.2119L1.98438 15.1514L0.515625 14.8486L1.12012 11.9092C1.25866 11.236 1.15892 10.51 0.875 9.81836C0.489913 8.88032 0 7.46601 0 6.25ZM14.1553 4.02832C16.6937 6.56673 16.6937 10.6833 14.1553 13.2217L13.0947 12.1602C15.0471 10.2076 15.0471 7.04241 13.0947 5.08984L14.1553 4.02832ZM12.1074 6.32715C13.3763 7.5963 13.3763 9.6537 12.1074 10.9229L11.0469 9.8623C11.73 9.17894 11.73 8.07106 11.0469 7.3877L12.1074 6.32715Z" fill="#292A2E"/>
</svg>
