<svg width="16" height="16" viewBox="0 0 16 16" fill="none" xmlns="http://www.w3.org/2000/svg">
<path d="M1 12.75C1 10.6789 2.67893 9 4.75 9H9V10.5H4.75C3.50736 10.5 2.5 11.5074 2.5 12.75V15H1V12.75ZM9.5 4C9.5 2.61929 8.38071 1.5 7 1.5C5.61929 1.5 4.5 2.61929 4.5 4C4.5 5.38071 5.61929 6.5 7 6.5C8.38071 6.5 9.5 5.38071 9.5 4ZM11 4C11 6.20914 9.20914 8 7 8C4.79086 8 3 6.20914 3 4C3 1.79086 4.79086 0 7 0C9.20914 0 11 1.79086 11 4Z" fill="#292A2E"/>
<path d="M9.71973 12.2188C9.42683 12.5116 9.42683 12.9864 9.71973 13.2793L12.3447 15.9043L13.4053 14.8438L12.0605 13.499H16V11.999H12.0605L13.4053 10.6543L12.3447 9.59375L9.71973 12.2188Z" fill="#292A2E"/>
</svg>
