<svg width="16" height="16" viewBox="0 0 16 16" fill="none" xmlns="http://www.w3.org/2000/svg">
<path d="M12.1834 7.54423C13.0271 8.14184 13.8537 9.1629 13.9825 10.8004L9.49989 6.31778V3.25C9.49989 3.11407 9.53683 2.98069 9.60677 2.86413L10.4252 1.5H5.57453L6.39301 2.86413C6.46294 2.98069 6.49989 3.11407 6.49989 3.25V3.31778L4.06825 0.886141C4.26056 0.384853 4.73972 0 5.35375 0H10.646C11.7148 0 12.375 1.16596 11.8251 2.08243L10.9999 3.45774V6.93279C11.3253 7.04854 11.7524 7.23894 12.1834 7.54423Z" fill="#44546F"/>
<path d="M4.14803 7.32988L5.2606 8.44245C5.08097 8.52184 4.8813 8.62809 4.6834 8.76827C4.22059 9.09609 3.74494 9.62068 3.56993 10.5H7.31815L8.81815 12H8.74989V16H7.24989V12H2.74989C2.33567 12 1.99989 11.6642 1.99989 11.25C1.99989 9.34702 2.89799 8.19475 3.81637 7.54423C3.92775 7.46534 4.03886 7.39412 4.14803 7.32988Z" fill="#44546F"/>
<path d="M0.469612 1.53039L14.4696 15.5304L15.5303 14.4697L1.53027 0.469727L0.469612 1.53039Z" fill="#44546F"/>
</svg>
