<svg width="16" height="16" viewBox="0 0 16 16" fill="none" xmlns="http://www.w3.org/2000/svg">
<path d="M14.5 8.00026C14.5 6.61955 13.3807 5.50026 12 5.50026C11.2373 5.50026 10.6663 5.79804 10.1484 6.303C9.6025 6.83533 9.1503 7.56242 8.63867 8.39382C8.1504 9.18726 7.60233 10.0854 6.89844 10.7717C6.16636 11.4855 5.23722 12.0003 4 12.0003C1.79086 12.0003 0 10.2094 0 8.00026C0 5.81853 1.7467 4.04492 3.91797 4.00124L3.54785 3.01393C3.42933 2.69788 3.53631 2.341 3.80957 2.14284C4.08283 1.9447 4.45518 1.95347 4.71875 2.16432L7.21875 4.16432C7.39666 4.30665 7.5 4.52242 7.5 4.75026C7.5 4.9781 7.39666 5.19387 7.21875 5.3362L4.71875 7.3362C4.45518 7.54705 4.08283 7.55582 3.80957 7.35768C3.53631 7.15952 3.42933 6.80264 3.54785 6.48659L3.91602 5.50417C2.57422 5.5485 1.5 6.64768 1.5 8.00026C1.5 9.38097 2.61929 10.5003 4 10.5003C4.76271 10.5003 5.33366 10.2025 5.85156 9.69753C6.3975 9.1652 6.8497 8.43811 7.36133 7.60671C7.8496 6.81326 8.39767 5.91508 9.10156 5.22878C9.83364 4.51504 10.7628 4.00026 12 4.00026C14.2091 4.00026 16 5.79112 16 8.00026C16 10.2094 14.2091 12.0003 12 12.0003C10.6871 12.0003 9.72485 11.4207 8.97656 10.6458L10.0557 9.60475C10.6005 10.169 11.1956 10.5003 12 10.5003C13.3807 10.5003 14.5 9.38097 14.5 8.00026Z" fill="#292A2E"/>
</svg>
