<svg width="16" height="16" viewBox="0 0 16 16" fill="none" xmlns="http://www.w3.org/2000/svg">
<path d="M14.5 12.75C14.5 12.0596 13.9404 11.5 13.25 11.5C12.5596 11.5 12 12.0596 12 12.75C12 13.4404 12.5596 14 13.25 14C13.9404 14 14.5 13.4404 14.5 12.75ZM16 12.75C16 14.2688 14.7688 15.5 13.25 15.5C11.9915 15.5 10.9332 14.6539 10.6064 13.5H5.625C3.89911 13.5 2.5 12.1009 2.5 10.375C2.5 8.64911 3.89911 7.25 5.625 7.25H10.375C11.2725 7.25 12 6.52246 12 5.625C12 4.72754 11.2725 4 10.375 4H5.39355C5.06684 5.15386 4.0085 6 2.75 6C1.23122 6 0 4.76878 0 3.25C0 1.73122 1.23122 0.5 2.75 0.5C4.0085 0.5 5.06684 1.34614 5.39355 2.5H10.375C12.1009 2.5 13.5 3.89911 13.5 5.625C13.5 7.35089 12.1009 8.75 10.375 8.75H5.625C4.72754 8.75 4 9.47754 4 10.375C4 11.2725 4.72754 12 5.625 12H10.6064C10.9332 10.8461 11.9915 10 13.25 10C14.7688 10 16 11.2312 16 12.75ZM1.5 3.25C1.5 3.94036 2.05964 4.5 2.75 4.5C3.44036 4.5 4 3.94036 4 3.25C4 2.55964 3.44036 2 2.75 2C2.05964 2 1.5 2.55964 1.5 3.25Z" fill="#292A2E"/>
</svg>
