<svg width="16" height="16" viewBox="0 0 16 16" fill="none" xmlns="http://www.w3.org/2000/svg">
<path d="M8.12402 7.35143C8.35518 7.2174 8.64004 7.21597 8.87207 7.3485L12.3721 9.3485C12.6057 9.48204 12.75 9.73075 12.75 9.99987C12.75 10.269 12.6057 10.5177 12.3721 10.6512L8.87207 12.6512C8.64007 12.7837 8.35515 12.7823 8.12402 12.6483C7.89282 12.5141 7.75005 12.2672 7.75 11.9999V7.99987C7.75 7.73254 7.89282 7.48563 8.12402 7.35143Z" fill="#292A2E"/>
<path d="M3.9997 6.62428C3.99988 5.17479 5.17521 3.99945 6.6247 3.99928H10.6774L10.3366 2.39967C10.2074 1.79195 9.61035 1.40432 9.00263 1.53346L2.40009 2.93678C1.79235 3.06596 1.4047 3.66302 1.53388 4.27076L2.9372 10.8733C3.04702 11.3897 3.49467 11.7455 3.9997 11.762V6.62428ZM5.4997 13.3743C5.4997 13.9955 6.00352 14.4991 6.6247 14.4993H13.3747C13.996 14.4993 14.4997 13.9956 14.4997 13.3743V6.62428C14.4995 6.00311 13.9959 5.49928 13.3747 5.49928H6.6247C6.00363 5.49945 5.49988 6.00322 5.4997 6.62428V13.3743ZM15.9997 13.3743C15.9997 14.824 14.8244 15.9993 13.3747 15.9993H6.6247C5.17509 15.9991 3.9997 14.8239 3.9997 13.3743V13.262C2.8008 13.2459 1.72921 12.407 1.46942 11.1848L0.0661039 4.58229C-0.235092 3.16434 0.670615 1.7704 2.08856 1.46901L8.69013 0.0656866C10.1082 -0.235733 11.503 0.670081 11.8044 2.08815L12.2106 3.99928H13.3747C14.8243 3.99928 15.9995 5.17469 15.9997 6.62428V13.3743Z" fill="#292A2E"/>
</svg>
