<svg width="16" height="16" viewBox="0 0 16 16" fill="none" xmlns="http://www.w3.org/2000/svg">
<path d="M10.75 7V9.25H13V10.75H10.75V13H9.25V10.75H7V9.25H9.25V7H10.75Z" fill="#292A2E"/>
<path d="M3.99872 6.62428C3.9989 5.17479 5.17423 3.99945 6.62372 3.99928H10.6765L10.3356 2.39967C10.2065 1.79195 9.60937 1.40432 9.00165 1.53346L2.39911 2.93678C1.79137 3.06596 1.40372 3.66302 1.5329 4.27076L2.93622 10.8733C3.04604 11.3897 3.4937 11.7455 3.99872 11.762V6.62428ZM5.49872 13.3743C5.49872 13.9955 6.00254 14.4991 6.62372 14.4993H13.3737C13.995 14.4993 14.4987 13.9956 14.4987 13.3743V6.62428C14.4985 6.00311 13.9949 5.49928 13.3737 5.49928H6.62372C6.00266 5.49945 5.4989 6.00322 5.49872 6.62428V13.3743ZM15.9987 13.3743C15.9987 14.824 14.8235 15.9993 13.3737 15.9993H6.62372C5.17412 15.9991 3.99872 14.8239 3.99872 13.3743V13.262C2.79983 13.2459 1.72824 12.407 1.46845 11.1848L0.0651274 4.58229C-0.236069 3.16434 0.669638 1.7704 2.08759 1.46901L8.68915 0.0656866C10.1072 -0.235733 11.502 0.670081 11.8034 2.08815L12.2097 3.99928H13.3737C14.8234 3.99928 15.9985 5.17469 15.9987 6.62428V13.3743Z" fill="#292A2E"/>
</svg>
