<svg width="16" height="16" viewBox="0 0 16 16" fill="none" xmlns="http://www.w3.org/2000/svg">
<path d="M8.68974 0.0578627C10.1086 -0.243714 11.5044 0.663472 11.8059 2.08228L12.2122 3.99439H13.3772C14.8276 3.99445 16.003 5.17005 16.0032 6.62036V13.3743C16.003 14.8245 14.8276 16.0002 13.3772 16.0002H6.62333C5.17316 16 3.99758 14.8244 3.99735 13.3743V13.262C2.79781 13.2459 1.72506 12.4057 1.46513 11.1829L0.0618069 4.57739C-0.239552 3.15871 0.66653 1.76371 2.08524 1.46216L8.68974 0.0578627ZM9.15653 11.0706L7.97001 9.54419L6.78642 10.467L8.53739 12.718C8.67573 12.8955 8.88665 13.0017 9.11161 13.0071C9.33658 13.0123 9.55197 12.9161 9.69853 12.7454L13.4505 8.36841L12.3118 7.39087L9.15653 11.0706ZM10.3372 2.3938C10.208 1.78576 9.61028 1.39741 9.00224 1.52661L2.39677 2.93091C1.7887 3.06016 1.40033 3.65781 1.52958 4.26587L2.93388 10.8713C3.04376 11.388 3.49206 11.7445 3.99735 11.761V6.62036C3.99754 5.17017 5.17313 3.99464 6.62333 3.99439H10.678L10.3372 2.3938Z" fill="#292A2E"/>
</svg>
