<svg width="16" height="16" viewBox="0 0 16 16" fill="none" xmlns="http://www.w3.org/2000/svg">
<path fill-rule="evenodd" clip-rule="evenodd" d="M7.99976 1.5C4.4099 1.5 1.49976 4.41015 1.49976 8C1.49976 11.5899 4.4099 14.5 7.99976 14.5C11.5896 14.5 14.4998 11.5899 14.4998 8C14.4998 4.41015 11.5896 1.5 7.99976 1.5ZM-0.000244141 8C-0.000244141 3.58172 3.58148 0 7.99976 0C12.418 0 15.9998 3.58172 15.9998 8C15.9998 12.4183 12.418 16 7.99976 16C3.58148 16 -0.000244141 12.4183 -0.000244141 8ZM7.25 8.68164V11.9316H8.75V8.68164H12V7.18164H8.75V3.93164H7.25V7.18164H4V8.68164H7.25Z" fill="#44546F"/>
</svg>
