<svg width="16" height="16" viewBox="0 0 16 16" fill="none" xmlns="http://www.w3.org/2000/svg">
<path fill-rule="evenodd" clip-rule="evenodd" d="M8.74976 0L8.74976 8H7.24976L7.24976 0H8.74976ZM5.1419 3.2128C3.55711 4.18487 2.49976 5.93915 2.49976 7.94293C2.49976 11.0072 4.96954 13.5 7.99976 13.5C11.03 13.5 13.4998 11.0072 13.4998 7.94293C13.4998 5.93915 12.4424 4.18487 10.8576 3.2128L11.6419 1.93417C13.6551 3.16899 14.9998 5.39864 14.9998 7.94293C14.9998 11.8208 11.8731 15 7.99976 15C4.12641 15 0.999756 11.8208 0.999756 7.94293C0.999756 5.39864 2.34444 3.16899 4.35762 1.93417L5.1419 3.2128Z" fill="#44546F"/>
</svg>
