<svg width="16" height="16" viewBox="0 0 16 16" fill="none" xmlns="http://www.w3.org/2000/svg">
<path d="M4.5 3H1.5V4.5C1.5 4.77614 1.72386 5 2 5H4C4.27614 5 4.5 4.77614 4.5 4.5V3ZM6 4.5C6 5.60457 5.10457 6.5 4 6.5H2C0.895431 6.5 1.61064e-08 5.60457 0 4.5V2.25C0 1.83579 0.335786 1.5 0.75 1.5H1V0H2.5V1.5H3.5V0H5V1.5H5.25L5.32715 1.50391C5.70512 1.54253 6 1.86183 6 2.25V4.5Z" fill="#292A2E"/>
<path d="M14.5 13H11.5V11.5C11.5 11.2239 11.7239 11 12 11H14C14.2761 11 14.5 11.2239 14.5 11.5V13ZM16 11.5C16 10.3954 15.1046 9.5 14 9.5H12C10.8954 9.5 10 10.3954 10 11.5V13.75C10 14.1642 10.3358 14.5 10.75 14.5H11V16H12.5V14.5H13.5V16H15V14.5H15.25L15.3271 14.4961C15.7051 14.4575 16 14.1382 16 13.75V11.5Z" fill="#292A2E"/>
<path d="M12.25 6.25C12.25 5.2835 11.4665 4.5 10.5 4.5C9.5335 4.5 8.75 5.2835 8.75 6.25V9.75C8.75 11.5449 7.29493 13 5.5 13C3.70507 13 2.25 11.5449 2.25 9.75V5.75H3.75V9.75C3.75 10.7165 4.5335 11.5 5.5 11.5C6.4665 11.5 7.25 10.7165 7.25 9.75V6.25C7.25 4.45507 8.70507 3 10.5 3C12.2949 3 13.75 4.45507 13.75 6.25V10.25H12.25V6.25Z" fill="#292A2E"/>
</svg>
