<svg width="16" height="16" viewBox="0 0 16 16" fill="none" xmlns="http://www.w3.org/2000/svg">
<path d="M10 10H12V12H10V10Z" fill="#292A2E"/>
<path fill-rule="evenodd" clip-rule="evenodd" d="M3 2.5C2.72386 2.5 2.5 2.72386 2.5 3V5.25H1V3C1 1.89543 1.89543 1 3 1H5.25V2.5H3ZM10.75 1H13C14.1046 1 15 1.89543 15 3V5.25H13.5V3C13.5 2.72386 13.2761 2.5 13 2.5H10.75V1ZM4 4H9V9H4V4ZM5.5 5.5V7.5H7.5V5.5H5.5ZM10.5 8V4H12V8H10.5ZM8 12H4V10.5H8V12ZM1 13V10.75H2.5V13C2.5 13.2761 2.72386 13.5 3 13.5H5.25V15H3C1.89543 15 1 14.1046 1 13ZM13.5 13V10.75H15V13C15 14.1046 14.1046 15 13 15H10.75V13.5H13C13.2761 13.5 13.5 13.2761 13.5 13Z" fill="#292A2E"/>
</svg>
