<svg width="16" height="16" viewBox="0 0 16 16" fill="none" xmlns="http://www.w3.org/2000/svg">
<path d="M6 3.25L3 3.25C2.30964 3.25 1.75 3.80964 1.75 4.5L1.75 13C1.75 13.6904 2.30964 14.25 3 14.25L11.5 14.25C12.1904 14.25 12.75 13.6904 12.75 13L12.75 10.25" stroke="#44546F" stroke-width="1.5" stroke-linejoin="round"/>
<path d="M5.25 6.5L5.25 10.75L9.5 10.75M8.75 7.25L5.5 10.5" stroke="#44546F" stroke-width="1.5" stroke-linejoin="round"/>
<path d="M14 7.25C14.6904 7.25 15.25 6.69036 15.25 6L15.25 2C15.25 1.30964 14.6904 0.75 14 0.75L10 0.75C9.30964 0.75 8.75 1.30964 8.75 2L8.75 6C8.75 6.69036 9.30964 7.25 10 7.25L14 7.25Z" stroke="#44546F" stroke-width="1.5" stroke-linejoin="round"/>
</svg>
