<svg width="16" height="16" viewBox="0 0 16 16" fill="none" xmlns="http://www.w3.org/2000/svg">
<path fill-rule="evenodd" clip-rule="evenodd" d="M3 2.5C1.89543 2.5 0.999999 3.39543 0.999998 4.5L0.999998 13C0.999998 14.1046 1.89543 15 3 15H11.5C12.6046 15 13.5 14.1046 13.5 13V8H12V13C12 13.2761 11.7761 13.5 11.5 13.5H3C2.72386 13.5 2.5 13.2761 2.5 13L2.5 4.5C2.5 4.22386 2.72386 4 3 4L8 4V2.5L3 2.5Z" fill="#292A2E"/>
<path fill-rule="evenodd" clip-rule="evenodd" d="M15 6V1.75C15 1.33579 14.6642 1 14.25 1L10 1V2.5L12.4393 2.5L8.96967 5.96967L10.0303 7.03033L13.5 3.56066V6H15ZM7.5 9L7.5 14.25H9V9C9 7.89543 8.10457 7 7 7H1.75L1.75 8.5H7C7.27614 8.5 7.5 8.72386 7.5 9Z" fill="#292A2E"/>
</svg>
