<svg width="16" height="16" viewBox="0 0 16 16" fill="none" xmlns="http://www.w3.org/2000/svg">
<path fill-rule="evenodd" clip-rule="evenodd" d="M3 2.5C1.89543 2.5 1 3.39543 1 4.5L1 13C1 14.1046 1.89543 15 3 15L11.5 15C12.6046 15 13.5 14.1046 13.5 13V10.25H12V13C12 13.2761 11.7761 13.5 11.5 13.5L3 13.5C2.72386 13.5 2.5 13.2761 2.5 13L2.5 4.5C2.5 4.22386 2.72386 4 3 4H6V2.5H3Z" fill="#292A2E"/>
<path fill-rule="evenodd" clip-rule="evenodd" d="M6 8.93934L6 6.5H4.5V10.75C4.5 10.9489 4.57902 11.1397 4.71967 11.2803C4.86032 11.421 5.05109 11.5 5.25 11.5H9.5V10H7.06066L9.28033 7.78033L8.21967 6.71967L6 8.93934Z" fill="#292A2E"/>
<path fill-rule="evenodd" clip-rule="evenodd" d="M14 8C15.1046 8 16 7.10457 16 6V2C16 0.89543 15.1046 -4.82823e-08 14 0L10 1.74846e-07C8.89543 2.23128e-07 8 0.895431 8 2L8 6C8 7.10457 8.89543 8 10 8H14ZM14.5 6C14.5 6.27614 14.2761 6.5 14 6.5H10C9.72386 6.5 9.5 6.27614 9.5 6V2C9.5 1.72386 9.72386 1.5 10 1.5L14 1.5C14.2761 1.5 14.5 1.72386 14.5 2V6Z" fill="#292A2E"/>
</svg>
