<svg width="16" height="16" viewBox="0 0 16 16" fill="none" xmlns="http://www.w3.org/2000/svg">
<path d="M15.7803 11.2197C16.0549 11.4943 16.0723 11.9291 15.832 12.2236L15.7803 12.2803L13.2803 14.7803L12.2197 13.7197L13.4395 12.5H10.5947C9.99256 12.4999 9.4227 12.2281 9.04297 11.7607L7.91895 10.3779L8.88574 9.18945L10.207 10.8154C10.3019 10.9321 10.4443 10.9999 10.5947 11H13.4395L12.2197 9.78027L13.2803 8.71973L15.7803 11.2197Z" fill="#44546F"/>
<path d="M15.7803 3.71973L15.832 3.77637C16.0723 4.07095 16.0549 4.50567 15.7803 4.78027L13.2803 7.28027L12.2197 6.21973L13.4395 5H10.5947C10.4443 5.00007 10.3019 5.06786 10.207 5.18457L4.45703 12.2607C4.0773 12.7281 3.50744 12.9999 2.90527 13H0V11.5H2.90527C3.05569 11.4999 3.19807 11.4321 3.29297 11.3154L9.04297 4.23926C9.4227 3.7719 9.99256 3.50007 10.5947 3.5H13.4395L12.2197 2.28027L13.2803 1.21973L15.7803 3.71973Z" fill="#44546F"/>
<path d="M2.90527 3C3.50744 3.00007 4.0773 3.2719 4.45703 3.73926L5.98633 5.62109L5.01953 6.80957L3.29297 4.68457C3.19807 4.56786 3.05569 4.50007 2.90527 4.5H0V3H2.90527Z" fill="#44546F"/>
</svg>
