<svg width="16" height="16" viewBox="0 0 16 16" fill="none" xmlns="http://www.w3.org/2000/svg">
<path d="M8.75 13.75C8.75 13.5956 8.7037 13.4543 8.625 13.3359C8.48936 13.132 8.26009 13 8 13C7.73991 13 7.51064 13.132 7.375 13.3359C7.2963 13.4543 7.25 13.5956 7.25 13.75C7.25 14.1642 7.58579 14.5 8 14.5C8.41421 14.5 8.75 14.1642 8.75 13.75ZM3.5 9.25C3.5 8.97131 3.34801 8.72674 3.11914 8.59668C3.01085 8.53523 2.88565 8.5 2.75 8.5C2.33579 8.5 2 8.83579 2 9.25C2 9.66421 2.33579 10 2.75 10C2.94775 10 3.12621 9.92403 3.26074 9.79883C3.40881 9.66091 3.5 9.46677 3.5 9.25ZM5 9.25C5 9.59915 4.91742 9.92866 4.77539 10.2236L6.71777 11.9014C7.08131 11.6488 7.52317 11.5 8 11.5C8.47655 11.5 8.91784 11.6491 9.28125 11.9014L11.2236 10.2236C11.0817 9.92876 11 9.599 11 9.25C11 8.71809 11.1843 8.22937 11.4922 7.84473L8.83301 4.33887C8.5751 4.44182 8.29426 4.5 8 4.5C7.70542 4.5 7.42416 4.44203 7.16602 4.33887L4.50684 7.84473C4.81494 8.22944 5 8.71787 5 9.25ZM12.5 9.25C12.5 9.46677 12.5912 9.66091 12.7393 9.79883C12.8738 9.92403 13.0522 10 13.25 10C13.6642 10 14 9.66421 14 9.25C14 8.83579 13.6642 8.5 13.25 8.5C13.1143 8.5 12.9892 8.53523 12.8809 8.59668C12.652 8.72674 12.5 8.97131 12.5 9.25ZM8.75 2.25C8.75 1.83579 8.41421 1.5 8 1.5C7.58579 1.5 7.25 1.83579 7.25 2.25C7.25 2.46671 7.34126 2.66092 7.48926 2.79883C7.62382 2.92416 7.80214 3 8 3C8.19786 3 8.37618 2.92416 8.51074 2.79883C8.65874 2.66092 8.75 2.46671 8.75 2.25ZM10.25 2.25C10.25 2.64838 10.1446 3.02206 9.96289 3.34668L12.7734 7.05176C12.9274 7.01849 13.0867 7 13.25 7C14.4926 7 15.5 8.00736 15.5 9.25C15.5 10.4926 14.4926 11.5 13.25 11.5C12.9072 11.5 12.5831 11.4205 12.292 11.2832L10.1602 13.124C10.2178 13.3231 10.25 13.533 10.25 13.75C10.25 14.9926 9.24264 16 8 16C6.75736 16 5.75 14.9926 5.75 13.75C5.75 13.5331 5.78127 13.3231 5.83887 13.124L3.70703 11.2832C3.41617 11.4203 3.09245 11.5 2.75 11.5C1.50736 11.5 0.5 10.4926 0.5 9.25C0.5 8.00736 1.50736 7 2.75 7C2.91295 7 3.07195 7.01862 3.22559 7.05176L6.03613 3.34668C5.8546 3.02216 5.75 2.64821 5.75 2.25C5.75 1.00736 6.75736 0 8 0C9.24264 0 10.25 1.00736 10.25 2.25Z" fill="#292A2E"/>
</svg>
