<svg width="16" height="16" viewBox="0 0 16 16" fill="none" xmlns="http://www.w3.org/2000/svg">
<path fill-rule="evenodd" clip-rule="evenodd" d="M8.78033 3.71973L5.78033 0.719727L4.71967 1.78039L6.43934 3.50006L4.5 3.50006C2.01472 3.50006 0 5.51478 0 8.00006C0 10.4853 2.01472 12.5001 4.5 12.5001H5.5V11.0001H4.5C2.84315 11.0001 1.5 9.65691 1.5 8.00006C1.5 6.3432 2.84315 5.00006 4.5 5.00006L6.43934 5.00006L4.71967 6.71973L5.78033 7.78039L8.78033 4.78039C8.92098 4.63974 9 4.44897 9 4.25006C9 4.05114 8.92098 3.86038 8.78033 3.71973Z" fill="#292A2E"/>
<path fill-rule="evenodd" clip-rule="evenodd" d="M11.5 5C13.1569 5 14.5 6.34315 14.5 8C14.5 9.65685 13.1569 11 11.5 11H9.56066L11.2803 9.28033L10.2197 8.21967L7.21967 11.2197C6.92678 11.5126 6.92678 11.9874 7.21967 12.2803L10.2197 15.2803L11.2803 14.2197L9.56066 12.5H11.5C13.9853 12.5 16 10.4853 16 8C16 5.51472 13.9853 3.5 11.5 3.5H10.5V5H11.5Z" fill="#292A2E"/>
</svg>
