<svg width="16" height="16" viewBox="0 0 16 16" fill="none" xmlns="http://www.w3.org/2000/svg">
<path d="M14.5 5.51758C14.5 5.38504 14.4472 5.25779 14.3535 5.16406L10.8359 1.64648C10.7422 1.55276 10.615 1.50005 10.4824 1.5H5.51758C5.38504 1.50005 5.25779 1.55276 5.16406 1.64648L1.64648 5.16406C1.55276 5.25779 1.50005 5.38504 1.5 5.51758V10.4824C1.50005 10.615 1.55276 10.7422 1.64648 10.8359L5.16406 14.3535C5.25779 14.4472 5.38504 14.5 5.51758 14.5H10.4824C10.615 14.5 10.7422 14.4472 10.8359 14.3535L14.3535 10.8359C14.4472 10.7422 14.5 10.615 14.5 10.4824V5.51758ZM16 10.4824C15.9999 11.0128 15.7891 11.5215 15.4141 11.8965L11.8965 15.4141C11.5215 15.7891 11.0128 15.9999 10.4824 16H5.51758C4.98721 15.9999 4.47854 15.7891 4.10352 15.4141L0.585938 11.8965C0.210909 11.5215 5.00014e-05 11.0128 0 10.4824V5.51758C5.00013e-05 4.98721 0.210909 4.47854 0.585938 4.10352L4.10352 0.585938C4.47854 0.210909 4.98721 5.00013e-05 5.51758 0H10.4824C11.0128 5.00013e-05 11.5215 0.210909 11.8965 0.585938L15.4141 4.10352C15.7891 4.47854 15.9999 4.98721 16 5.51758V10.4824Z" fill="#292A2E"/>
<path d="M8.75 3.5V9H7.25V3.5H8.75Z" fill="#292A2E"/>
<path d="M8 10.5C8.55228 10.5 9 10.9477 9 11.5C9 12.0523 8.55228 12.5 8 12.5C7.44772 12.5 7 12.0523 7 11.5C7 10.9477 7.44772 10.5 8 10.5Z" fill="#292A2E"/>
</svg>
