<svg width="16" height="16" viewBox="0 0 16 16" fill="none" xmlns="http://www.w3.org/2000/svg">
<path fill-rule="evenodd" clip-rule="evenodd" d="M13.5 2.5C12.9477 2.5 12.5 2.94772 12.5 3.5C12.5 4.05228 12.9477 4.5 13.5 4.5C14.0523 4.5 14.5 4.05228 14.5 3.5C14.5 2.94772 14.0523 2.5 13.5 2.5ZM11.1145 2.75C11.433 1.73572 12.3806 1 13.5 1C14.8807 1 16 2.11929 16 3.5C16 4.88071 14.8807 6 13.5 6C12.3806 6 11.433 5.26428 11.1145 4.25H8.70104C8.52686 4.25 8.36523 4.34065 8.2744 4.48927L6.12896 8L8.2744 11.5107C8.36523 11.6594 8.52686 11.75 8.70104 11.75H11.1145C11.433 10.7357 12.3806 10 13.5 10C14.8807 10 16 11.1193 16 12.5C16 13.8807 14.8807 15 13.5 15C12.3806 15 11.433 14.2643 11.1145 13.25H8.70104C8.00431 13.25 7.35779 12.8874 6.99448 12.2929L4.82937 8.75H0V7.25H4.82937L6.99448 3.7071C7.35779 3.11259 8.00431 2.75 8.70104 2.75H11.1145ZM13.5 11.5C12.9477 11.5 12.5 11.9477 12.5 12.5C12.5 13.0523 12.9477 13.5 13.5 13.5C14.0523 13.5 14.5 13.0523 14.5 12.5C14.5 11.9477 14.0523 11.5 13.5 11.5Z" fill="#44546F"/>
</svg>
