<svg width="16" height="16" viewBox="0 0 16 16" fill="none" xmlns="http://www.w3.org/2000/svg">
<path fill-rule="evenodd" clip-rule="evenodd" d="M3.5 2.5C2.94772 2.5 2.5 2.94772 2.5 3.5C2.5 4.05228 2.94772 4.5 3.5 4.5C4.05228 4.5 4.5 4.05228 4.5 3.5C4.5 2.94772 4.05228 2.5 3.5 2.5ZM1 3.5C1 2.11929 2.11929 1 3.5 1C4.61941 1 5.56698 1.73572 5.88555 2.75H10.75C12.4069 2.75 13.75 4.09315 13.75 5.75C13.75 7.40685 12.4069 8.75 10.75 8.75H5.25C4.42157 8.75 3.75 9.42157 3.75 10.25C3.75 11.0784 4.42157 11.75 5.25 11.75H10.1145C10.433 10.7357 11.3806 10 12.5 10C13.8807 10 15 11.1193 15 12.5C15 13.8807 13.8807 15 12.5 15C11.3806 15 10.433 14.2643 10.1145 13.25H5.25C3.59315 13.25 2.25 11.9069 2.25 10.25C2.25 8.59315 3.59315 7.25 5.25 7.25H10.75C11.5784 7.25 12.25 6.57843 12.25 5.75C12.25 4.92157 11.5784 4.25 10.75 4.25H5.88555C5.56698 5.26428 4.61941 6 3.5 6C2.11929 6 1 4.88071 1 3.5ZM12.5 11.5C11.9477 11.5 11.5 11.9477 11.5 12.5C11.5 13.0523 11.9477 13.5 12.5 13.5C13.0523 13.5 13.5 13.0523 13.5 12.5C13.5 11.9477 13.0523 11.5 12.5 11.5Z" fill="#292A2E"/>
</svg>
