<svg width="16" height="16" viewBox="0 0 16 16" fill="none" xmlns="http://www.w3.org/2000/svg">
<path d="M10.75 3.5C10.75 4.4665 11.5335 5.25 12.5 5.25C13.4665 5.25 14.25 4.4665 14.25 3.5C14.25 2.5335 13.4665 1.75 12.5 1.75C11.5335 1.75 10.75 2.5335 10.75 3.5ZM10.75 3.5H8.45104C8.01559 3.5 7.61151 3.72662 7.38444 4.09819L5 8M10.75 12.5C10.75 13.4665 11.5335 14.25 12.5 14.25C13.4665 14.25 14.25 13.4665 14.25 12.5C14.25 11.5335 13.4665 10.75 12.5 10.75C11.5335 10.75 10.75 11.5335 10.75 12.5ZM10.75 12.5H8.45104C8.01559 12.5 7.61151 12.2734 7.38444 11.9018L5 8M1 8H5" stroke="#44546F" stroke-width="1.5" stroke-linejoin="round"/>
</svg>
