<svg width="16" height="16" viewBox="0 0 16 16" fill="none" xmlns="http://www.w3.org/2000/svg">
<path d="M5.25 3.5H8.95238H10.75C11.9926 3.5 13 4.50736 13 5.75V5.75C13 6.99264 11.9926 8 10.75 8H5.25C4.00736 8 3 9.00736 3 10.25V10.25C3 11.4926 4.00736 12.5 5.25 12.5H10.75M5.25 3.5C5.25 4.4665 4.4665 5.25 3.5 5.25C2.5335 5.25 1.75 4.4665 1.75 3.5C1.75 2.5335 2.5335 1.75 3.5 1.75C4.4665 1.75 5.25 2.5335 5.25 3.5ZM10.75 12.5C10.75 13.4665 11.5335 14.25 12.5 14.25C13.4665 14.25 14.25 13.4665 14.25 12.5C14.25 11.5335 13.4665 10.75 12.5 10.75C11.5335 10.75 10.75 11.5335 10.75 12.5Z" stroke="#44546F" stroke-width="1.5" stroke-linejoin="round"/>
</svg>
