<svg width="16" height="16" viewBox="0 0 16 16" fill="none" xmlns="http://www.w3.org/2000/svg">
<path d="M1.5 10.75V13.957L3.87793 12.5986L4.62207 13.9014L1.12207 15.9014C0.890044 16.0339 0.605181 16.0325 0.374023 15.8984C0.142787 15.7642 0 15.5174 0 15.25V10.75H1.5ZM9.75 12.5V14H6.25V12.5H9.75ZM14.5 11.375V10.75H16V11.375C16 12.8247 14.8247 14 13.375 14H12.25V12.5H13.375C13.9963 12.5 14.5 11.9963 14.5 11.375ZM1.5 6.25V9H0V6.25H1.5ZM16 6.25V9H14.5V6.25H16ZM0 3.125C0 1.67525 1.17525 0.5 2.625 0.5H4V2H2.625C2.00368 2 1.5 2.50368 1.5 3.125V4.25H0V3.125ZM14.5 3.125C14.5 2.50368 13.9963 2 13.375 2H12V0.5H13.375C14.8247 0.5 16 1.67525 16 3.125V4.25H14.5V3.125ZM9.75 0.5V2H6.25V0.5H9.75Z" fill="#292A2E"/>
</svg>
