<svg width="16" height="16" viewBox="0 0 16 16" fill="none" xmlns="http://www.w3.org/2000/svg">
<path fill-rule="evenodd" clip-rule="evenodd" d="M6.68713 0.640649C7.4992 0.171802 8.50002 0.171932 9.31213 0.640649L13.7164 3.18362C14.5284 3.65257 15.0289 4.51936 15.0289 5.45706V10.541C15.0289 11.4787 14.5284 12.3455 13.7164 12.8145L9.31213 15.3574C8.50002 15.8262 7.4992 15.8263 6.68713 15.3574L2.28381 12.8145C1.47173 12.3455 0.971313 11.4788 0.971313 10.541V5.45706C0.971313 4.51929 1.47173 3.65255 2.28381 3.18362L6.68713 0.640649ZM3.03381 4.48245C2.68577 4.68342 2.47131 5.05516 2.47131 5.45706V10.541C2.47131 10.9429 2.68577 11.3147 3.03381 11.5156L7.43713 14.0586C7.78507 14.2595 8.21413 14.2593 8.56213 14.0586L9.24963 13.6612V11.6641L5.89612 9.56838C5.49422 9.3171 5.24963 8.87637 5.24963 8.40237V3.20315L3.03381 4.48245ZM8.56213 1.93948C8.21413 1.73876 7.78507 1.7386 7.43713 1.93948L6.74963 2.33694V4.33303L10.1041 6.42971C10.5059 6.68102 10.7496 7.12179 10.7496 7.59573V12.7949L12.9664 11.5156C13.3144 11.3147 13.5289 10.9429 13.5289 10.541V5.45706C13.5289 5.05523 13.3144 4.68344 12.9664 4.48245L8.56213 1.93948ZM6.74963 8.33303L9.24963 9.89553V7.66311L6.74963 6.10159V8.33303Z" fill="#292A2E"/>
</svg>
