<svg width="16" height="16" viewBox="0 0 16 16" fill="none" xmlns="http://www.w3.org/2000/svg">
<path fill-rule="evenodd" clip-rule="evenodd" d="M3 2.5C2.72386 2.5 2.5 2.72386 2.5 3V13C2.5 13.2761 2.72386 13.5 3 13.5H13C13.2761 13.5 13.5 13.2761 13.5 13V4.01777C13.5 3.88516 13.4473 3.75798 13.3536 3.66421L12.3358 2.64645C12.2462 2.55687 12.1262 2.5048 12 2.50032V6.25C12 6.66421 11.6642 7 11.25 7H4.75C4.33579 7 4 6.66421 4 6.25V2.5H3ZM5.5 2.5V5.5H10.5V2.5H5.5ZM1 3C1 1.89543 1.89543 1 3 1H11.9822C12.5127 1 13.0214 1.21071 13.3964 1.58579L14.4142 2.60355C14.7893 2.97863 15 3.48733 15 4.01777V13C15 14.1046 14.1046 15 13 15H3C1.89543 15 1 14.1046 1 13V3Z" fill="#292A2E"/>
</svg>
