<svg width="16" height="16" viewBox="0 0 16 16" fill="none" xmlns="http://www.w3.org/2000/svg">
<path fill-rule="evenodd" clip-rule="evenodd" d="M0 3C0 1.89543 0.895431 1 2 1H12C13.1046 1 14 1.89543 14 3V4.5H12.5V3C12.5 2.72386 12.2761 2.5 12 2.5H2C1.72386 2.5 1.5 2.72386 1.5 3V10C1.5 10.2761 1.72386 10.5 2 10.5H8.5V12H7.75V13.5H11V15H3V13.5H6.25V12H2C0.89543 12 0 11.1046 0 10V3ZM10 9C10 7.34315 11.3431 6 13 6C14.6569 6 16 7.34315 16 9C16 10.6569 14.6569 12 13 12C11.3431 12 10 10.6569 10 9ZM13 7.5C12.1716 7.5 11.5 8.17157 11.5 9C11.5 9.82843 12.1716 10.5 13 10.5C13.8284 10.5 14.5 9.82843 14.5 9C14.5 8.17157 13.8284 7.5 13 7.5Z" fill="#292A2E"/>
<path d="M11.5 9C11.5 8.17157 12.1716 7.5 13 7.5C13.8284 7.5 14.5 8.17157 14.5 9C14.5 9.82843 13.8284 10.5 13 10.5C12.1716 10.5 11.5 9.82843 11.5 9Z" fill="#292A2E"/>
</svg>
