<svg width="16" height="16" viewBox="0 0 16 16" fill="none" xmlns="http://www.w3.org/2000/svg">
<path d="M14.5 12.75C14.5 12.0596 13.9404 11.5 13.25 11.5C12.5596 11.5 12 12.0596 12 12.75C12 13.4404 12.5596 14 13.25 14C13.9404 14 14.5 13.4404 14.5 12.75ZM14.5 3.25C14.5 2.55964 13.9404 2 13.25 2C12.5596 2 12 2.55964 12 3.25C12 3.94036 12.5596 4.5 13.25 4.5C13.9404 4.5 14.5 3.94036 14.5 3.25ZM16 3.25C16 4.76878 14.7688 6 13.25 6C11.9915 6 10.9332 5.15386 10.6064 4H8.73926C8.36804 4 8.02027 4.18298 7.81055 4.48926L5.4082 8L7.81055 11.5107C8.02027 11.817 8.36804 12 8.73926 12H10.6064C10.9332 10.8461 11.9915 10 13.25 10C14.7688 10 16 11.2312 16 12.75C16 14.2688 14.7688 15.5 13.25 15.5C11.9915 15.5 10.9332 14.6539 10.6064 13.5H8.73926C7.87278 13.5 7.06155 13.0725 6.57227 12.3574L4.10449 8.75H0V7.25H4.10449L6.57227 3.64258C7.06155 2.92747 7.87278 2.5 8.73926 2.5H10.6064C10.9332 1.34614 11.9915 0.5 13.25 0.5C14.7688 0.5 16 1.73122 16 3.25Z" fill="#292A2E"/>
</svg>
