<svg width="16" height="16" viewBox="0 0 16 16" fill="none" xmlns="http://www.w3.org/2000/svg">
<path d="M14.5 6C14.5 5.72386 14.2761 5.5 14 5.5H4.5C4.22386 5.5 4 5.72386 4 6V11.8154L6.09863 13.1377L6.22168 13.209C6.84817 13.5363 7.61686 13.4553 8.16309 12.9922L9.94824 11.4775L10.1611 11.3125C11.2519 10.5322 12.7234 10.4985 13.8545 11.2529L14.5 11.6826V6ZM16 12.6182C16 13.367 15.2176 13.8324 14.5723 13.5225L14.4453 13.4502L13.0215 12.501C12.4126 12.0949 11.6204 12.1123 11.0332 12.5322L10.9189 12.6221L9.13379 14.1357C8.11954 14.9959 6.69178 15.1465 5.52832 14.5391L5.29883 14.4072L2.9668 12.9385C2.67616 12.7554 2.5 12.4353 2.5 12.0918V6C2.5 4.89543 3.39543 4 4.5 4H12.5V3.5C12.5 3.22386 12.2761 3 12 3H2C1.72386 3 1.5 3.22386 1.5 3.5V10.5H0V3.5C8.05332e-08 2.39543 0.89543 1.5 2 1.5H12C13.1046 1.5 14 2.39543 14 3.5V4C15.1046 4 16 4.89543 16 6V12.6182Z" fill="#44546F"/>
</svg>
