<svg width="16" height="16" viewBox="0 0 16 16" fill="none" xmlns="http://www.w3.org/2000/svg">
<path d="M13.5 4.5C13.5 4.22386 13.2762 4 13 4H5.08107C4.69866 4 4.34188 4.19418 4.13478 4.51562L2.2842 7.39062C2.04547 7.76148 2.04546 8.23852 2.2842 8.60938L4.13478 11.4844C4.34188 11.8058 4.69866 12 5.08107 12H13C13.2762 12 13.5 11.7761 13.5 11.5V4.5ZM15 11.5C15 12.6046 14.1046 13.5 13 13.5H5.08107C4.18845 13.5 3.35621 13.0465 2.87306 12.2959L1.02248 9.4209C0.46549 8.55559 0.465489 7.44441 1.02248 6.5791L2.87306 3.7041L2.96779 3.56738C3.46049 2.89888 4.24408 2.5 5.08107 2.5H13C14.1046 2.5 15 3.39543 15 4.5V11.5Z" fill="#44546F"/>
</svg>
