<svg width="16" height="16" viewBox="0 0 16 16" fill="none" xmlns="http://www.w3.org/2000/svg">
<path d="M12.832 13.5C12.5312 13.0744 12.2857 12.5668 12.0937 12.0205C11.7073 10.921 11.4882 9.53975 11.4882 8C11.4882 6.48349 11.7008 5.12115 12.0761 4.03027C12.2715 3.46249 12.5236 2.93762 12.833 2.5L3.83491 2.5L3.75287 2.50977C3.65854 2.53223 3.52862 2.59851 3.36518 2.76562C3.14486 2.99092 2.91176 3.35561 2.70014 3.86719C2.27829 4.88698 1.99994 6.34779 1.99994 8C1.99994 9.65221 2.27829 11.113 2.70014 12.1328C2.91176 12.6444 3.14486 13.0091 3.36518 13.2344C3.58278 13.4569 3.74115 13.4999 3.83491 13.5H12.832ZM3.83491 15C3.21488 14.9999 2.69353 14.6928 2.29291 14.2832C1.89464 13.876 1.57062 13.3254 1.3144 12.7061C0.800526 11.4638 0.499945 9.79957 0.499945 8C0.499945 6.20043 0.800526 4.53621 1.3144 3.29395C1.57062 2.67455 1.89464 2.12403 2.29291 1.7168C2.64353 1.35831 3.08656 1.07804 3.60737 1.01367L3.83491 1L14.0839 1C14.3446 1.00011 14.5946 1.10503 14.7773 1.29102L14.8662 1.39551C15.0518 1.64598 15.0861 1.94393 15.0361 2.18652C14.9872 2.42336 14.8528 2.65122 14.6435 2.80957L14.5498 2.87305L14.4218 2.96191C14.1185 3.20615 13.7751 3.7046 13.4951 4.51856C13.1841 5.42238 12.9882 6.61458 12.9882 8C12.9882 9.40713 13.1895 10.615 13.5087 11.5234C13.8382 12.4607 14.2503 12.9635 14.5781 13.1436L14.6669 13.1982C14.8721 13.3385 15.0567 13.5687 15.0947 13.8857C15.1326 14.2038 15.0067 14.4723 14.8388 14.6572L14.7646 14.7305L14.6738 14.8047C14.5785 14.8739 14.4701 14.9276 14.3476 14.9609C14.2063 14.9993 14.079 15 14.0214 15H3.83491Z" fill="#44546F"/>
</svg>
