<svg width="16" height="16" viewBox="0 0 16 16" fill="none" xmlns="http://www.w3.org/2000/svg">
<path d="M8.00004 12.75V10.8027C8.00002 10.0505 7.62402 9.34795 6.99809 8.93066L5.60258 8L6.99809 7.06934C7.62402 6.65205 8.00002 5.94954 8.00004 5.19727V3.25C8.00004 2.83579 8.33582 2.5 8.75004 2.5H10.5V1H8.75004C7.5074 1 6.50004 2.00736 6.50004 3.25V5.19727C6.50002 5.44801 6.37469 5.6822 6.16605 5.82129L4.77055 6.75195C3.87995 7.34569 3.87995 8.65431 4.77055 9.24805L6.16605 10.1787C6.37469 10.3178 6.50002 10.552 6.50004 10.8027V12.75C6.50004 13.9926 7.5074 15 8.75004 15H10.5V13.5H8.75004C8.33582 13.5 8.00004 13.1642 8.00004 12.75Z" fill="#44546F"/>
</svg>
