<svg width="16" height="16" viewBox="0 0 16 16" fill="none" xmlns="http://www.w3.org/2000/svg">
<path d="M15.25 8C15.25 9.78395 15.0106 11.4302 14.6025 12.6563C14.3998 13.2653 14.1421 13.8125 13.8193 14.2227C13.5033 14.6243 13.0359 15 12.4199 15L3.58008 15C2.96407 15 2.49666 14.6243 2.18066 14.2227C1.85795 13.8125 1.60016 13.2653 1.39746 12.6562C0.989422 11.4302 0.75 9.78395 0.75 8C0.75 6.21605 0.989422 4.56985 1.39746 3.34375C1.60016 2.73469 1.85795 2.18753 2.18066 1.77734C2.49666 1.37573 2.96407 1 3.58008 1L12.4199 1C13.0359 1 13.5033 1.37573 13.8193 1.77734C14.1421 2.18753 14.3998 2.73469 14.6025 3.34375C15.0106 4.56985 15.25 6.21605 15.25 8ZM10.5781 13.5C10.4507 13.2395 10.3369 12.9555 10.2373 12.6562C9.82928 11.4302 9.58984 9.78393 9.58984 8C9.58984 6.21607 9.82928 4.56984 10.2373 3.34375C10.3369 3.04446 10.4507 2.76045 10.5781 2.5L3.58887 2.5C3.57549 2.50347 3.49578 2.53171 3.35938 2.70508C3.18452 2.92742 2.99489 3.29579 2.82129 3.81738C2.47652 4.85334 2.25 6.33219 2.25 8C2.25 9.66781 2.47652 11.1467 2.82129 12.1826C2.99489 12.7042 3.18452 13.0726 3.35937 13.2949C3.49578 13.4683 3.57549 13.4965 3.58887 13.5H10.5781ZM13.75 8C13.75 6.33219 13.5235 4.85334 13.1787 3.81738C13.0051 3.29579 12.8155 2.92742 12.6406 2.70508C12.5229 2.55543 12.4469 2.51476 12.4199 2.50391C12.3929 2.51484 12.3177 2.55577 12.2002 2.70508C12.0253 2.9274 11.8348 3.29553 11.6611 3.81738C11.3164 4.85334 11.0898 6.33219 11.0898 8C11.0898 9.66781 11.3164 11.1467 11.6611 12.1826C11.8348 12.7045 12.0253 13.0726 12.2002 13.2949C12.3177 13.4442 12.3929 13.4852 12.4199 13.4961C12.4469 13.4852 12.5229 13.4446 12.6406 13.2949C12.8155 13.0726 13.0051 12.7042 13.1787 12.1826C13.5235 11.1467 13.75 9.66781 13.75 8Z" fill="#44546F"/>
</svg>
