<svg width="16" height="16" viewBox="0 0 16 16" fill="none" xmlns="http://www.w3.org/2000/svg">
<path d="M8 0C12.4183 0 16 3.58172 16 8C16 12.4183 12.4183 16 8 16C3.58172 16 0 12.4183 0 8C0 3.58172 3.58172 0 8 0ZM1.54395 8.75C1.88757 11.7404 4.25966 14.1114 7.25 14.4551V8.75H1.54395ZM8.75 14.4551C11.7403 14.1114 14.1124 11.7404 14.4561 8.75H8.75V14.4551ZM8.75 7.25H14.4561C14.1124 4.25961 11.7404 1.88757 8.75 1.54395V7.25ZM7.25 1.54395C4.25961 1.88757 1.88757 4.25961 1.54395 7.25H7.25V1.54395Z" fill="#44546F"/>
</svg>
