<svg width="16" height="16" viewBox="0 0 16 16" fill="none" xmlns="http://www.w3.org/2000/svg">
<path d="M14.5 6.5H4.5V12.5H14C14.2761 12.5 14.5 12.2761 14.5 12V6.5ZM1.5 12C1.5 12.2761 1.72386 12.5 2 12.5H3V6.5H1.5V12ZM14.5 4C14.5 3.75829 14.3286 3.55629 14.1006 3.50977L14 3.5H4.5V5H14.5V4ZM1.5 5H3V3.5H2C1.72386 3.5 1.5 3.72386 1.5 4V5ZM16 12C16 13.1046 15.1046 14 14 14H2C0.895431 14 2.0133e-09 13.1046 0 12V4C1.28853e-07 2.89543 0.89543 2 2 2H14L14.2041 2.01074C15.2128 2.113 16 2.96435 16 4V12Z" fill="#44546F"/>
</svg>
