<svg width="16" height="16" viewBox="0 0 16 16" fill="none" xmlns="http://www.w3.org/2000/svg">
<path d="M13.46 2.25C14.6507 2.25 15.5587 3.27708 15.4522 4.42969L15.417 4.66113L13.7891 12.4111C13.5945 13.337 12.7771 14 11.8311 14H4.16896C3.28214 14 2.50848 13.4176 2.2549 12.582L2.21096 12.4111L0.583026 4.66113C0.321914 3.41827 1.27005 2.25 2.54006 2.25H13.46ZM2.54006 3.75C2.22263 3.75 1.98568 4.04191 2.0508 4.35254L3.67873 12.1025L3.70412 12.1865C3.77902 12.3733 3.96203 12.5 4.16896 12.5H11.8311C12.0676 12.5 12.2727 12.334 12.3213 12.1025L13.9492 4.35254L13.96 4.2373C13.9538 3.97341 13.7377 3.75 13.46 3.75H2.54006Z" fill="#44546F"/>
</svg>
