<svg width="16" height="16" viewBox="0 0 16 16" fill="none" xmlns="http://www.w3.org/2000/svg">
<path d="M14.5 4.01763C14.5 3.74241 14.2803 3.52686 14.0186 3.51763L13.9043 3.52642L1.9043 5.86822C1.66958 5.91401 1.50011 6.11933 1.5 6.35845V12.0001C1.5 12.2762 1.72386 12.5001 2 12.5001H14C14.2761 12.5001 14.5 12.2762 14.5 12.0001V4.01763ZM16 12.0001C16 13.1046 15.1046 14.0001 14 14.0001H2C0.895431 14.0001 1.46003e-08 13.1046 0 12.0001V6.35845C0.000114394 5.40164 0.678065 4.57878 1.61719 4.39556L13.6172 2.05474L13.8477 2.02349C14.9912 1.93366 16 2.83813 16 4.01763V12.0001Z" fill="#44546F"/>
</svg>
