<svg width="16" height="16" viewBox="0 0 16 16" fill="none" xmlns="http://www.w3.org/2000/svg">
<path d="M8 1C9.71486 1 11.2986 1.23044 12.4795 1.62402C13.0661 1.81955 13.5956 2.06951 13.9932 2.38281C14.3821 2.68945 14.75 3.14579 14.75 3.75V12.25C14.75 12.8542 14.3821 13.3105 13.9932 13.6172C13.5956 13.9305 13.0661 14.1805 12.4795 14.376C11.2986 14.7696 9.71486 15 8 15C6.28514 15 4.70145 14.7696 3.52051 14.376C2.93394 14.1805 2.40439 13.9305 2.00684 13.6172C1.61791 13.3105 1.25 12.8542 1.25 12.25V3.75C1.25 3.14579 1.61791 2.68945 2.00684 2.38281C2.40439 2.06951 2.93394 1.81955 3.52051 1.62402C4.70145 1.23044 6.28514 1 8 1ZM13.25 5.56738C13.0104 5.68206 12.7512 5.7854 12.4795 5.87598C11.2986 6.26956 9.71486 6.5 8 6.5C6.28514 6.5 4.70145 6.26956 3.52051 5.87598C3.24879 5.7854 2.98962 5.68206 2.75 5.56738V12.2373C2.75631 12.2548 2.78947 12.3243 2.93555 12.4395C3.1452 12.6047 3.49504 12.7867 3.99414 12.9531C4.98474 13.2833 6.40132 13.5 8 13.5C9.59868 13.5 11.0153 13.2833 12.0059 12.9531C12.505 12.7867 12.8548 12.6047 13.0645 12.4395C13.2105 12.3243 13.2437 12.2548 13.25 12.2373V5.56738ZM8 2.5C6.40132 2.5 4.98474 2.71668 3.99414 3.04688C3.49504 3.21326 3.1452 3.39532 2.93555 3.56055C2.81296 3.65717 2.76941 3.72148 2.75488 3.75C2.76941 3.77852 2.81296 3.84283 2.93555 3.93945C3.1452 4.10468 3.49504 4.28674 3.99414 4.45312C4.98474 4.78332 6.40132 5 8 5C9.59868 5 11.0153 4.78332 12.0059 4.45312C12.505 4.28674 12.8548 4.10468 13.0645 3.93945C13.1865 3.84327 13.2294 3.77872 13.2441 3.75C13.2294 3.72128 13.1865 3.65673 13.0645 3.56055C12.8548 3.39532 12.505 3.21326 12.0059 3.04688C11.0153 2.71668 9.59868 2.5 8 2.5Z" fill="#44546F"/>
</svg>
