<svg width="16" height="16" viewBox="0 0 16 16" fill="none" xmlns="http://www.w3.org/2000/svg">
<path d="M10.9053 1C11.6181 1.00011 12.277 1.37959 12.6347 1.99609L15.5351 6.99609L15.5986 7.11426C15.8742 7.67218 15.8742 8.32782 15.5986 8.88574L15.5351 9.00391L12.6347 14.0039C12.277 14.6204 11.6181 14.9999 10.9053 15H5.09471C4.38189 14.9999 3.72301 14.6204 3.36521 14.0039L0.464823 9.00391C0.104906 8.38336 0.104906 7.61664 0.464823 6.99609L3.36521 1.99609L3.43553 1.88379C3.8053 1.33385 4.42626 1.0001 5.09471 1H10.9053ZM5.09471 2.5C4.93873 2.5001 4.79303 2.57279 4.6992 2.69434L4.66209 2.74902L1.76267 7.74902C1.6727 7.90416 1.6727 8.09584 1.76267 8.25098L4.66209 13.251C4.75148 13.4051 4.91655 13.4999 5.09471 13.5H10.9053C11.0834 13.4999 11.2485 13.4051 11.3379 13.251L14.2373 8.25098L14.2666 8.19141C14.3174 8.06887 14.3174 7.93113 14.2666 7.80859L14.2373 7.74902L11.3379 2.74902C11.2485 2.5949 11.0834 2.50011 10.9053 2.5H5.09471Z" fill="#44546F"/>
</svg>
