<svg width="16" height="16" viewBox="0 0 16 16" fill="none" xmlns="http://www.w3.org/2000/svg">
<path d="M13.5 3C13.5 2.72386 13.2761 2.5 13 2.5H3C2.72386 2.5 2.5 2.72386 2.5 3V10.3096C2.50006 10.4914 2.59873 10.659 2.75781 10.7471L7.75781 13.5098L7.81641 13.5371C7.95412 13.5915 8.11066 13.5824 8.24219 13.5098L13.2422 10.7471L13.2988 10.71C13.4242 10.6164 13.4999 10.4686 13.5 10.3096V3ZM15 10.3096C14.9999 10.992 14.6524 11.6238 14.084 11.9902L13.9668 12.0596L8.9668 14.8223C8.40263 15.1339 7.72576 15.1535 7.14746 14.8809L7.0332 14.8223L2.0332 12.0596C1.39603 11.7075 1.00006 11.0375 1 10.3096V3C1 1.89543 1.89543 1 3 1H13C14.1046 1 15 1.89543 15 3V10.3096Z" fill="#44546F"/>
</svg>
