<svg width="16" height="16" viewBox="0 0 16 16" fill="none" xmlns="http://www.w3.org/2000/svg">
<path d="M8 13V10.8027C8.00001 10.0505 8.37602 9.34795 9.00195 8.93066L10.3975 8L9.00195 7.06934C8.37602 6.65205 8.00001 5.94954 8 5.19727V3C8 2.72386 7.77614 2.5 7.5 2.5H5.5V1H7.5C8.60457 1 9.5 1.89543 9.5 3V5.19727C9.50001 5.44801 9.62535 5.6822 9.83398 5.82129L11.2295 6.75195C12.1201 7.34569 12.1201 8.65431 11.2295 9.24805L9.83398 10.1787C9.62535 10.3178 9.50001 10.552 9.5 10.8027V13C9.5 14.1046 8.60457 15 7.5 15H5.5V13.5H7.5C7.77614 13.5 8 13.2761 8 13Z" fill="#44546F"/>
</svg>
