<svg width="16" height="16" viewBox="0 0 16 16" fill="none" xmlns="http://www.w3.org/2000/svg">
<path d="M14.5 4C14.5 3.75829 14.3286 3.55629 14.1006 3.50977L14 3.5H2C1.72386 3.5 1.5 3.72386 1.5 4V10.7744L4.58203 12.3818L4.69238 12.4346C5.2488 12.6771 5.89488 12.6147 6.39648 12.2627L9.45801 10.1143C10.4745 9.40087 11.8083 9.32953 12.8955 9.92969L14.5 10.8154V4ZM16 11.6621C15.9999 12.3756 15.2823 12.8438 14.6436 12.5967L14.5166 12.5371L12.1709 11.2422C11.5855 10.9191 10.8666 10.9577 10.3193 11.3418L7.25879 13.4902C6.32711 14.1441 5.12623 14.2603 4.09277 13.8096L3.88867 13.7119L0.538086 11.9648C0.207637 11.7926 0 11.4508 0 11.0781V4C3.54311e-07 2.89543 0.89543 2 2 2H14L14.2041 2.01074C15.2128 2.113 16 2.96435 16 4V11.6621Z" fill="#44546F"/>
</svg>
