<svg width="16" height="16" viewBox="0 0 16 16" fill="none" xmlns="http://www.w3.org/2000/svg">
<path d="M14.5 12.75C14.5 12.4739 14.2761 12.25 14 12.25H12C11.7239 12.25 11.5 12.4739 11.5 12.75V13.25C11.5 13.5261 11.7239 13.75 12 13.75H14C14.2761 13.75 14.5 13.5261 14.5 13.25V12.75ZM14.5 2.75C14.5 2.47386 14.2761 2.25 14 2.25H12C11.7239 2.25 11.5 2.47386 11.5 2.75V3.25C11.5 3.52614 11.7239 3.75 12 3.75H14C14.2761 3.75 14.5 3.52614 14.5 3.25V2.75ZM1.5 8.25C1.5 8.52614 1.72386 8.75 2 8.75H4C4.27614 8.75 4.5 8.52614 4.5 8.25V7.75C4.5 7.47386 4.27614 7.25 4 7.25H2C1.72386 7.25 1.5 7.47386 1.5 7.75V8.25ZM16 3.25C16 4.35457 15.1046 5.25 14 5.25H12C11.0683 5.25 10.2877 4.61232 10.0654 3.75H9.25C8.97386 3.75 8.75 3.97386 8.75 4.25V11.75C8.75 12.0261 8.97386 12.25 9.25 12.25H10.0654C10.2877 11.3877 11.0683 10.75 12 10.75H14C15.1046 10.75 16 11.6454 16 12.75V13.25C16 14.3546 15.1046 15.25 14 15.25H12C11.0683 15.25 10.2877 14.6123 10.0654 13.75H9.25C8.14543 13.75 7.25 12.8546 7.25 11.75V8.75H5.93457C5.71235 9.61232 4.93171 10.25 4 10.25H2C0.895431 10.25 0 9.35457 0 8.25V7.75C0 6.64543 0.895431 5.75 2 5.75H4C4.93171 5.75 5.71235 6.38768 5.93457 7.25H7.25V4.25C7.25 3.14543 8.14543 2.25 9.25 2.25H10.0654C10.2877 1.38768 11.0683 0.75 12 0.75H14C15.1046 0.75 16 1.64543 16 2.75V3.25Z" fill="#44546F"/>
</svg>
