<svg width="16" height="16" viewBox="0 0 16 16" fill="none" xmlns="http://www.w3.org/2000/svg">
<path d="M14.5 8C14.5 6.47514 13.973 5.07446 13.0938 3.96582L9.06055 8L13.0938 12.0332C13.9727 10.9247 14.5 9.52459 14.5 8ZM3.96582 13.0938C5.07446 13.973 6.47514 14.5 8 14.5C9.52459 14.5 10.9247 13.9727 12.0332 13.0938L8 9.06055L3.96582 13.0938ZM8 1.5C6.47535 1.5 5.07439 2.02629 3.96582 2.90527L8 6.93945L12.0332 2.90527C10.9247 2.02657 9.52437 1.5 8 1.5ZM1.5 8C1.5 9.52437 2.02657 10.9247 2.90527 12.0332L6.93945 8L2.90527 3.96582C2.02629 5.07439 1.5 6.47535 1.5 8ZM16 8C16 12.4183 12.4183 16 8 16C3.58172 16 0 12.4183 0 8C0 3.58172 3.58172 0 8 0C12.4183 0 16 3.58172 16 8Z" fill="#44546F"/>
</svg>
