<svg width="16" height="16" viewBox="0 0 16 16" fill="none" xmlns="http://www.w3.org/2000/svg">
<path d="M3 4.5C2.72386 4.5 2.5 4.72386 2.5 5L2.5 8C2.5 8.27614 2.72386 8.5 3 8.5H11.792C11.9103 8.5 12.025 8.45823 12.1152 8.38184L14.3379 6.5L12.1152 4.61816C12.025 4.54177 11.9103 4.5 11.792 4.5L3 4.5ZM7 3V6.55673e-08L8.5 0V3L11.792 3C12.265 3 12.7229 3.16806 13.084 3.47363L15.4209 5.45019C16.0698 5.99942 16.0698 7.00057 15.4209 7.5498L13.084 9.52637C12.7229 9.83193 12.265 10 11.792 10H8.5L8.5 16H7L7 10H3C1.89543 10 1 9.10457 1 8L1 5C1 3.89543 1.89543 3 3 3L7 3Z" fill="#292A2E"/>
</svg>
