<svg width="16" height="16" viewBox="0 0 16 16" fill="none" xmlns="http://www.w3.org/2000/svg">
<path fill-rule="evenodd" clip-rule="evenodd" d="M16 14H0V12.5H16V14Z" fill="#44546F"/>
<path fill-rule="evenodd" clip-rule="evenodd" d="M2.82696 2.26862C3.44996 1.86272 4.22301 1.79994 5.0683 2.02536C5.64428 2.17897 6.09671 2.50552 6.39 2.96983C6.67444 3.42015 6.7753 3.94502 6.76553 4.45806C6.74623 5.47206 6.29549 6.60175 5.61034 7.56096C5.28355 8.01846 4.86887 8.49174 4.43163 8.94398C4.44925 8.96308 4.46695 8.98176 4.48471 9.00001C4.80622 9.33027 5.10542 9.47471 5.36057 9.49644C5.59725 9.5166 5.92731 9.4426 6.35373 9.05603C6.79166 8.65901 7.29469 7.96072 7.81897 6.82383C7.97825 6.47842 8.37087 6.30695 8.7325 6.42484C9.09362 6.54256 9.30964 6.91161 9.23567 7.28399L9.23545 7.28514L9.23516 7.28669L9.23193 7.30434C9.22889 7.32136 9.22426 7.34853 9.21881 7.38437C9.20788 7.45629 9.19385 7.56176 9.18276 7.6892C9.16014 7.94918 9.1519 8.27681 9.19586 8.58956C9.24117 8.91186 9.3319 9.14583 9.44817 9.28704C9.53729 9.39528 9.67896 9.50004 10 9.50004C10.8287 9.50004 11.3447 8.93857 11.5289 8.294C11.6289 7.94411 11.9656 7.71646 12.3275 7.75405C12.6843 7.79111 12.9642 8.07541 12.9969 8.43122C12.9973 8.43563 12.9977 8.44005 12.998 8.44449L12.9978 8.44253L12.9976 8.43902L12.9971 8.43367L12.9966 8.42928L12.9969 8.43122L12.9971 8.43367C12.9974 8.43599 12.9982 8.43945 12.9989 8.44339C13.0022 8.4623 13.0097 8.49766 13.0246 8.54397C13.0545 8.63712 13.112 8.7672 13.2202 8.89898C13.4136 9.1344 13.8721 9.50004 15 9.50004V11C13.6513 11 12.7738 10.5866 12.229 10.037C12.5929 9.63998 12.8398 9.16584 12.9712 8.70608L12.25 8.50004L12.9981 8.4466L12.9981 8.44554C12.9981 8.44554 12.9941 8.44689 12.25 8.50004C11.5019 8.55347 11.502 8.55459 11.502 8.55459L11.5021 8.55574L11.5023 8.55819L11.5027 8.56359L11.5039 8.57645C11.5048 8.58592 11.506 8.59717 11.5076 8.6101C11.5107 8.63593 11.5153 8.66858 11.5222 8.70708C11.5359 8.78387 11.5587 8.88523 11.5966 9.00298C11.6721 9.23796 11.81 9.54538 12.0611 9.85109C12.1132 9.91446 12.1691 9.97655 12.229 10.037C11.7179 10.5946 10.9762 11 10 11C9.25862 11 8.68154 10.7158 8.29019 10.2405C8.1223 10.0366 7.99962 9.81106 7.90986 9.58253C8.35247 9.0373 8.77612 8.3302 9.18111 7.45198L8.50004 7.1379C7.76472 6.99023 7.76462 6.99074 7.76462 6.99074L7.76423 6.9927L7.76352 6.99632L7.76147 7.00697L7.75515 7.04137C7.75007 7.06993 7.74335 7.10963 7.73586 7.15888C7.72091 7.25716 7.70271 7.39483 7.68841 7.55915C7.66025 7.88269 7.64506 8.3331 7.71047 8.79838C7.745 9.04402 7.80492 9.31533 7.90986 9.58253C7.73011 9.80396 7.54723 9.99868 7.3612 10.1673C6.70558 10.7617 5.98096 11.0547 5.23327 10.991C4.50405 10.9289 3.88918 10.5386 3.40992 10.0463C3.391 10.0269 3.37222 10.0072 3.35358 9.98737C3.24319 10.0883 3.13482 10.1858 3.02956 10.2793C2.59816 10.6628 2.20713 10.99 1.92374 11.2215C1.78191 11.3374 1.6667 11.4295 1.58646 11.4931C1.54633 11.5249 1.51492 11.5496 1.49327 11.5665L1.46824 11.586L1.45954 11.5928C1.45954 11.5928 1.45863 11.5935 1.00004 11L0.541382 10.4066L0.54769 10.4017L0.569188 10.385C0.588434 10.3699 0.617327 10.3472 0.654834 10.3175C0.729864 10.258 0.83926 10.1705 0.974775 10.0598C1.24608 9.83821 1.62067 9.52477 2.03302 9.15823C2.18275 9.02513 2.33598 8.88633 2.48994 8.74353C2.40319 8.57776 2.3227 8.4078 2.24857 8.23544C1.67499 6.90184 1.40877 5.24573 1.72479 3.95815C1.88526 3.30437 2.21794 2.66542 2.82696 2.26862ZM3.61753 7.62178C3.91016 7.30452 4.1759 6.98847 4.38974 6.6891C4.95459 5.8983 5.25385 5.05717 5.2658 4.42951C5.27166 4.12173 5.20846 3.90807 5.1218 3.77088C5.04399 3.6477 4.9183 3.53779 4.68178 3.47471C4.12083 3.32512 3.81576 3.41467 3.64579 3.52541C3.46185 3.64525 3.28672 3.88725 3.18156 4.3157C2.96766 5.18718 3.13552 6.48988 3.61753 7.62178Z" fill="#44546F"/>
<path d="M7.90986 9.58253C8.35247 9.0373 8.77612 8.3302 9.18111 7.45198L8.50004 7.1379C7.76472 6.99023 7.76462 6.99074 7.76462 6.99074L7.76423 6.9927L7.76352 6.99632L7.76147 7.00697L7.75515 7.04137C7.75007 7.06993 7.74335 7.10963 7.73586 7.15888C7.72091 7.25716 7.70271 7.39483 7.68841 7.55915C7.66025 7.88269 7.64506 8.3331 7.71047 8.79838C7.745 9.04402 7.80492 9.31533 7.90986 9.58253Z" fill="#44546F"/>
<path d="M12.229 10.037C12.5929 9.63998 12.8398 9.16584 12.9712 8.70608L12.25 8.50004C11.5019 8.55347 11.502 8.55459 11.502 8.55459L11.5021 8.55574L11.5023 8.55819L11.5027 8.56359L11.5039 8.57645C11.5048 8.58592 11.506 8.59717 11.5076 8.6101C11.5107 8.63593 11.5153 8.66858 11.5222 8.70708C11.5359 8.78387 11.5587 8.88523 11.5966 9.00298C11.6721 9.23796 11.81 9.54538 12.0611 9.85109C12.1132 9.91446 12.1691 9.97655 12.229 10.037Z" fill="#44546F"/>
</svg>
