<svg width="16" height="16" viewBox="0 0 16 16" fill="none" xmlns="http://www.w3.org/2000/svg">
<path d="M13.5 3C13.5 2.72386 13.2761 2.5 13 2.5H3C2.72386 2.5 2.5 2.72386 2.5 3V13C2.5 13.2761 2.72386 13.5 3 13.5H13C13.2761 13.5 13.5 13.2761 13.5 13V3ZM15 13C15 14.1046 14.1046 15 13 15H3C1.89543 15 1 14.1046 1 13V3C1 1.89543 1.89543 1 3 1H13C14.1046 1 15 1.89543 15 3V13Z" fill="#292A2E"/>
<path d="M11.1104 4.93359L6.11035 11.9336L4.88965 11.0625L9.88965 4.0625L11.1104 4.93359Z" fill="#292A2E"/>
</svg>
