<svg width="16" height="16" viewBox="0 0 16 16" fill="none" xmlns="http://www.w3.org/2000/svg">
<path d="M7.34375 10.5264C7.14436 10.5921 7 10.7786 7 11V12C7 12.2761 7.22386 12.5 7.5 12.5H8.5C8.72163 12.5 8.90709 12.355 8.97266 12.1553L10.0625 13.2451C9.69604 13.7044 9.13323 14 8.5 14H7.5C6.39543 14 5.5 13.1046 5.5 12V11C5.5 10.3668 5.79471 9.80298 6.25391 9.43652L7.34375 10.5264Z" fill="#292A2E"/>
<path d="M2.96094 6.14355C2.04759 7.26298 1.5 8.69258 1.5 10.25V11H0V10.25C0 8.27829 0.713853 6.47364 1.89648 5.0791L2.96094 6.14355Z" fill="#292A2E"/>
<path d="M8 2.25C10.6789 2.25 13.0485 3.56718 14.5 5.58691V2.5H16V7.25C16 7.66421 15.6642 8 15.25 8H11.1807L10.5 7.31934V6.5H13.3086C12.1308 4.83578 10.192 3.75 8 3.75C7.66199 3.75 7.32995 3.77546 7.00586 3.8252L5.75195 2.57129C6.4652 2.36282 7.21939 2.25 8 2.25Z" fill="#292A2E"/>
<path d="M15.5303 14.4697L14.4697 15.5303L0.469727 1.53027L1.53027 0.469727L15.5303 14.4697Z" fill="#292A2E"/>
</svg>
