<svg width="16" height="16" viewBox="0 0 16 16" fill="none" xmlns="http://www.w3.org/2000/svg">
<path d="M9 11C9 10.7239 8.77614 10.5 8.5 10.5H7.5C7.22386 10.5 7 10.7239 7 11V12C7 12.2761 7.22386 12.5 7.5 12.5H8.5C8.77614 12.5 9 12.2761 9 12V11ZM10.5 12C10.5 13.1046 9.60457 14 8.5 14H7.5C6.39543 14 5.5 13.1046 5.5 12V11C5.5 9.89543 6.39543 9 7.5 9H8.5C9.60457 9 10.5 9.89543 10.5 11V12Z" fill="#292A2E"/>
<path d="M0 10.25C0 5.83172 3.58172 2.25 8 2.25C10.6789 2.25 13.0485 3.56718 14.5 5.58691V2.5H16V7.25C16 7.66421 15.6642 8 15.25 8H10.5V6.5H13.3086C12.1308 4.83578 10.192 3.75 8 3.75C4.41015 3.75 1.5 6.66015 1.5 10.25V11H0V10.25Z" fill="#292A2E"/>
</svg>
