<svg width="16" height="16" viewBox="0 0 16 16" fill="none" xmlns="http://www.w3.org/2000/svg">
<path d="M13.8086 9.4964C13.4214 11.0022 12.453 12.3567 11 13.1956C9.54706 14.0345 7.88936 14.1968 6.39163 13.7796C7.61947 13.2954 8.9357 12.6566 10.25 11.8978C11.5644 11.1389 12.7754 10.3177 13.8086 9.4964Z" fill="#292A2E"/>
<path fill-rule="evenodd" clip-rule="evenodd" d="M5.00003 2.80402C7.11334 1.58389 9.65809 1.79677 11.5147 3.13702C12.3739 2.87303 13.1645 2.71265 13.8233 2.68976C14.2003 2.6767 14.5742 2.70693 14.9063 2.81573C15.2444 2.92663 15.5835 3.13579 15.794 3.5003C16.1478 4.11327 15.9459 4.79707 15.6875 5.30011C15.4109 5.83852 14.9509 6.41346 14.3809 6.98859C14.251 7.11961 14.1118 7.25111 13.9678 7.38507C13.5241 7.79765 13.014 8.22158 12.4512 8.64777C11.581 9.3068 10.5845 9.97185 9.50003 10.598C8.41547 11.2241 7.34093 11.7549 6.33499 12.179C5.68464 12.4532 5.06343 12.6837 4.4844 12.8616L4.48245 12.8607C4.29477 12.9183 4.1117 12.973 3.93362 13.0198C3.15067 13.2259 2.42291 13.3375 1.81839 13.3079C1.31271 13.2831 0.704069 13.1462 0.328151 12.678C0.310417 12.6559 0.293055 12.6333 0.276393 12.6097L0.20608 12.5003L0.135768 12.3616C-0.00625373 12.0366 -0.00623797 11.6936 0.0576429 11.389C0.129455 11.047 0.289487 10.708 0.489284 10.388C0.838378 9.82912 1.37241 9.22447 2.0303 8.61261C1.7978 6.33458 2.88669 4.02419 5.00003 2.80402ZM2.45901 10.303C2.15719 10.6275 1.92262 10.9228 1.76077 11.1819C1.61412 11.4168 1.54823 11.5888 1.52542 11.6976C1.52152 11.7162 1.52185 11.7316 1.52053 11.7435C1.56861 11.7652 1.6764 11.7993 1.89163 11.8099C2.21961 11.8259 2.67104 11.7741 3.2344 11.6448C3.07958 11.4419 2.93477 11.2272 2.80374 11.0003C2.67236 10.7728 2.55765 10.5396 2.45901 10.303ZM10.8877 4.54718C9.4789 3.3693 7.4307 3.13252 5.75003 4.10284C4.17421 5.01264 3.35539 6.73268 3.51956 8.43487L3.56546 8.77472C3.6536 9.27935 3.83031 9.77874 4.10256 10.2503C4.30099 10.594 4.53791 10.902 4.80471 11.1712C5.98617 10.7419 7.34677 10.1093 8.75003 9.29913C10.1529 8.48916 11.3804 7.62703 12.3428 6.81866C12.2431 6.45305 12.0958 6.09393 11.8975 5.7503C11.6592 5.33754 11.3661 4.97687 11.0332 4.67316L10.8877 4.54718ZM13.875 4.1878C13.5695 4.19844 13.1959 4.25356 12.7637 4.35284C12.9194 4.55668 13.0649 4.7726 13.1963 5.0003C13.3273 5.22725 13.4398 5.46006 13.5381 5.69562C13.9323 5.27193 14.2034 4.90686 14.3535 4.61456C14.4519 4.42309 14.4753 4.31266 14.4805 4.26007C14.4697 4.25527 14.457 4.24725 14.4395 4.24152C14.3339 4.20689 14.1517 4.17822 13.875 4.1878Z" fill="#292A2E"/>
</svg>
