<svg width="16" height="16" viewBox="0 0 16 16" fill="none" xmlns="http://www.w3.org/2000/svg">
<path d="M13.8086 9.49623C13.4214 11.002 12.453 12.3565 11 13.1954C9.54707 14.0343 7.88937 14.1966 6.39163 13.7794C7.61947 13.2953 8.93571 12.6564 10.25 11.8976C11.5644 11.1388 12.7754 10.3175 13.8086 9.49623Z" fill="#292A2E"/>
<path fill-rule="evenodd" clip-rule="evenodd" d="M5.00003 2.80385C7.11335 1.58372 9.65809 1.7966 11.5147 3.13686C12.3739 2.87287 13.1645 2.71248 13.8233 2.68959C14.2003 2.67653 14.5742 2.70677 14.9063 2.81557C15.2444 2.92646 15.5835 3.13562 15.794 3.50014C16.1478 4.1131 15.9459 4.7969 15.6875 5.29994C15.4109 5.83835 14.9509 6.41329 14.3809 6.98842C14.251 7.11944 14.1118 7.25094 13.9678 7.3849C13.5242 7.79748 13.014 8.22141 12.4512 8.6476C11.581 9.30663 10.5845 9.97168 9.50003 10.5978C8.41547 11.224 7.34094 11.7547 6.33499 12.1788C5.68464 12.4531 5.06344 12.6836 4.4844 12.8615L4.48245 12.8605C4.29478 12.9181 4.1117 12.9728 3.93362 13.0197C3.15067 13.2257 2.42291 13.3374 1.81839 13.3078C1.31272 13.2829 0.704073 13.146 0.328155 12.6779C0.310421 12.6558 0.293059 12.6331 0.276397 12.6095L0.206084 12.5001L0.135772 12.3615C-0.00624991 12.0365 -0.00623415 11.6935 0.0576467 11.3888C0.129459 11.0469 0.289491 10.7078 0.489287 10.3878C0.838382 9.82896 1.37241 9.2243 2.0303 8.61244C1.79781 6.33441 2.88669 4.02402 5.00003 2.80385ZM2.45901 10.3029C2.1572 10.6273 1.92262 10.9226 1.76077 11.1818C1.61412 11.4166 1.54823 11.5886 1.52542 11.6974C1.52153 11.716 1.52185 11.7314 1.52054 11.7433C1.56862 11.7651 1.67641 11.7991 1.89163 11.8097C2.21961 11.8258 2.67104 11.774 3.2344 11.6447C3.07959 11.4417 2.93478 11.2271 2.80374 11.0001C2.67237 10.7726 2.55765 10.5394 2.45901 10.3029ZM10.8877 4.54701C9.4789 3.36914 7.4307 3.13235 5.75003 4.10268C4.17422 5.01247 3.35539 6.73252 3.51956 8.43471L3.56546 8.77455C3.6536 9.27919 3.83031 9.77857 4.10257 10.2501C4.30099 10.5938 4.53792 10.9018 4.80472 11.171C5.98618 10.7418 7.34678 10.1091 8.75003 9.29896C10.1529 8.48899 11.3804 7.62686 12.3428 6.8185C12.2431 6.45288 12.0958 6.09376 11.8975 5.75014C11.6592 5.33738 11.3661 4.9767 11.0332 4.67299L10.8877 4.54701ZM13.875 4.18764C13.5695 4.19827 13.1959 4.25339 12.7637 4.35268C12.9194 4.55651 13.0649 4.77243 13.1963 5.00014C13.3273 5.22708 13.4398 5.45989 13.5381 5.69545C13.9323 5.27176 14.2034 4.90669 14.3535 4.61439C14.4519 4.42292 14.4753 4.31249 14.4805 4.2599C14.4697 4.25511 14.457 4.24709 14.4395 4.24135C14.3339 4.20672 14.1517 4.17805 13.875 4.18764Z" fill="#292A2E"/>
</svg>
