<svg width="16" height="16" viewBox="0 0 16 16" fill="none" xmlns="http://www.w3.org/2000/svg">
<path d="M10.2131 11.9182C10.2254 11.9112 10.2377 11.9042 10.25 11.8971C10.2622 11.8901 10.2745 11.8829 10.2866 11.8758C11.5874 11.1226 12.7866 10.3098 13.8105 9.49587C13.4227 11.0019 12.4532 12.3571 11 13.1962C9.54672 14.0352 7.88833 14.1972 6.3901 13.78C7.60697 13.3003 8.91046 12.6681 10.2131 11.9182Z" fill="#44546F"/>
<path fill-rule="evenodd" clip-rule="evenodd" d="M0.205681 12.4999C-0.00469409 12.1354 -0.0158926 11.7378 0.0571242 11.3896C0.128893 11.0473 0.28933 10.7085 0.489336 10.3882C0.838352 9.82935 1.37234 9.22576 2.03019 8.6139C1.79718 6.33546 2.88623 4.02424 4.99999 2.80386C7.11375 1.58348 9.65985 1.79594 11.5165 3.13695C12.3754 2.87317 13.1651 2.71252 13.8236 2.68969C14.2009 2.67661 14.5746 2.7071 14.9069 2.81608C15.245 2.92698 15.5838 3.13549 15.7942 3.50001C15.9801 3.82204 16.0128 4.16372 15.9644 4.48847C15.9207 4.78182 15.8109 5.06135 15.6883 5.30009C15.4117 5.83872 14.9505 6.41342 14.3803 6.98879C13.2319 8.14744 11.5136 9.43531 9.50002 10.5979C7.48639 11.7604 5.51194 12.6046 3.93433 13.0198C3.15091 13.2259 2.42265 13.3379 1.81786 13.3082C1.25297 13.2804 0.559602 13.1129 0.205681 12.4999ZM3.56574 8.77476C3.24984 6.96559 4.06917 5.07333 5.74999 4.1029C7.43082 3.13247 9.47923 3.36904 10.8881 4.5472C11.2811 4.87589 11.6248 5.27837 11.8971 5.75001C12.096 6.09447 12.2441 6.4543 12.3439 6.82084C11.3816 7.62912 10.1527 8.48917 8.74999 9.29905C7.34725 10.1089 5.98801 10.7431 4.80685 11.1724C4.53929 10.9027 4.30175 10.5945 4.10288 10.25C3.83058 9.77837 3.65387 9.27948 3.56574 8.77476ZM2.80384 11C2.93542 11.2279 3.0797 11.4439 3.23525 11.6477C2.67157 11.777 2.21952 11.8263 1.89147 11.8102C1.67187 11.7994 1.56443 11.764 1.51774 11.7424C1.51907 11.7305 1.52137 11.7157 1.5252 11.6974C1.54801 11.5886 1.61496 11.4176 1.76161 11.1828C1.9235 10.9235 2.15677 10.6271 2.45873 10.3025C2.55742 10.5393 2.67235 10.7723 2.80384 11ZM13.1961 5.00001C13.0647 4.77227 12.9203 4.55624 12.7646 4.35238C13.1967 4.25316 13.5701 4.19938 13.8755 4.18879C14.1522 4.1792 14.3338 4.20675 14.4394 4.24138C14.4572 4.2472 14.4712 4.25263 14.4821 4.25739C14.4775 4.30867 14.4544 4.41941 14.354 4.61497C14.2039 4.90714 13.9352 5.27398 13.5413 5.69745C13.4427 5.46087 13.3277 5.22792 13.1961 5.00001Z" fill="#44546F"/>
</svg>
