<svg width="16" height="16" viewBox="0 0 16 16" fill="none" xmlns="http://www.w3.org/2000/svg">
<path d="M1.50012 9C1.50012 5.41015 4.41027 2.5 8.00012 2.5C9.55512 2.5 10.9826 3.04604 12.1012 3.95683L13.4729 3.16488C12.042 1.82228 10.1171 1 8.00012 1C3.58184 1 0.00012207 4.58172 0.00012207 9C0.00012207 11.2792 0.954246 13.3368 2.4828 14.793L3.51744 13.707C2.2737 12.5221 1.50012 10.852 1.50012 9Z" fill="#292A2E"/>
<path fill-rule="evenodd" clip-rule="evenodd" d="M9.69104 7.65773C8.90802 6.93862 7.71953 6.77526 6.75009 7.33496C5.55436 8.02532 5.14468 9.55429 5.83503 10.75C6.52539 11.9458 8.05436 12.3554 9.25009 11.6651C10.2195 11.1054 10.6723 9.99444 10.441 8.95677L15.4455 6.06738C15.2603 5.59759 15.032 5.14955 14.7653 4.72814L9.69104 7.65773ZM7.50009 8.634C7.97839 8.35786 8.58998 8.52173 8.86612 9.00002C9.14226 9.47832 8.97839 10.0899 8.50009 10.366C8.0218 10.6422 7.41021 10.4783 7.13407 10C6.85793 9.52173 7.0218 8.91014 7.50009 8.634Z" fill="#292A2E"/>
<path d="M15.9485 8.08637L14.4997 8.92287C14.5 8.94854 14.5001 8.97425 14.5001 9C14.5001 10.852 13.7265 12.5221 12.4828 13.707L13.5174 14.793C15.046 13.3368 16.0001 11.2792 16.0001 9C16.0001 8.69106 15.9826 8.3862 15.9485 8.08637Z" fill="#292A2E"/>
</svg>
