<svg width="16" height="16" viewBox="0 0 16 16" fill="none" xmlns="http://www.w3.org/2000/svg">
<path d="M1.505 9.21387C1.56208 10.9804 2.32203 12.568 3.5177 13.707L2.48254 14.793C0.954091 13.3368 0.00012207 11.2791 0.00012207 9C0.00012207 8.78463 0.0107628 8.57143 0.0274658 8.36035L1.505 9.21387Z" fill="#292A2E"/>
<path d="M8.00012 1C12.4183 1.00007 16.0001 4.58176 16.0001 9C16.0001 11.2791 15.0461 13.3368 13.5177 14.793L12.4825 13.707C13.7262 12.5222 14.5001 10.852 14.5001 9C14.5001 5.41019 11.5899 2.50007 8.00012 2.5C6.54188 2.5 5.1949 2.97915 4.11047 3.79004L2.72375 2.98926C4.13227 1.75188 5.97794 1 8.00012 1Z" fill="#292A2E"/>
<path d="M6.30872 7.65723C7.09174 6.93816 8.2807 6.77527 9.25012 7.33496C10.4458 8.02534 10.8555 9.55431 10.1652 10.75C9.47482 11.9457 7.94584 12.3553 6.75012 11.665C5.7805 11.1052 5.32716 9.99389 5.55872 8.95605L0.263794 5.89941L1.01379 4.60059L6.30872 7.65723ZM8.50012 8.63379C8.02183 8.35765 7.41005 8.52171 7.13391 9C6.85779 9.47829 7.02184 10.0901 7.50012 10.3662C7.97839 10.6422 8.59022 10.4782 8.86633 10C9.14237 9.52173 8.97837 8.90991 8.50012 8.63379Z" fill="#292A2E"/>
</svg>
