<svg width="16" height="16" viewBox="0 0 16 16" fill="none" xmlns="http://www.w3.org/2000/svg">
<path d="M9.23744 8.26256C8.92075 7.94588 8.48325 7.75 8 7.75C7.0335 7.75 6.25 8.5335 6.25 9.5C6.25 10.4665 7.0335 11.25 8 11.25C8.9665 11.25 9.75 10.4665 9.75 9.5C9.75 9.01675 9.55412 8.57925 9.23744 8.26256ZM9.23744 8.26256L13.3663 4.125C14.5367 5.41254 15.25 7.12297 15.25 9C15.25 11.0656 14.3862 12.9295 13 14.25M11.25 2.51749C10.2725 2.02644 9.16851 1.75 8 1.75C3.99594 1.75 0.75 4.99594 0.75 9C0.75 11.0656 1.61385 12.9295 2.99998 14.25" stroke="#44546F" stroke-width="1.5" stroke-linejoin="round"/>
</svg>
