<svg width="16" height="16" viewBox="0 0 16 16" fill="none" xmlns="http://www.w3.org/2000/svg">
<path d="M5 3.23242C2.92038 4.31653 1.5 6.49149 1.5 8.99902C1.5 10.851 2.27384 12.5212 3.51758 13.7061L2.48242 14.792C0.953969 13.3358 0 11.2782 0 8.99902C0 5.64184 2.06844 2.76893 5 1.58203V3.23242Z" fill="#292A2E"/>
<path d="M11 1.58203C13.9316 2.76893 16 5.64184 16 8.99902C16 11.2782 15.046 13.3358 13.5176 14.792L12.4824 13.7061C13.7262 12.5212 14.5 10.851 14.5 8.99902C14.5 6.49149 13.0796 4.31653 11 3.23242V1.58203Z" fill="#292A2E"/>
<path fill-rule="evenodd" clip-rule="evenodd" d="M8.75 7.11426C9.76431 7.43281 10.5 8.38057 10.5 9.5C10.5 10.8807 9.38071 12 8 12C6.61929 12 5.5 10.8807 5.5 9.5C5.5 8.38057 6.23569 7.43281 7.25 7.11426V1H8.75V7.11426ZM8 8.5C7.44772 8.5 7 8.94772 7 9.5C7 10.0523 7.44772 10.5 8 10.5C8.55228 10.5 9 10.0523 9 9.5C9 8.94772 8.55228 8.5 8 8.5Z" fill="#292A2E"/>
</svg>
