<svg width="16" height="16" viewBox="0 0 16 16" fill="none" xmlns="http://www.w3.org/2000/svg">
<path d="M5.25 3.10938C3.03488 4.14526 1.5 6.39313 1.5 9C1.5 10.852 2.27384 12.5222 3.51758 13.707L2.48242 14.793C0.953969 13.3368 0 11.2791 0 9C0 5.54787 2.18629 2.60572 5.25 1.48438V3.10938ZM10.75 1.48438C13.8137 2.60572 16 5.54787 16 9C16 11.2791 15.046 13.3368 13.5176 14.793L12.4824 13.707C13.7262 12.5222 14.5 10.852 14.5 9C14.5 6.39313 12.9651 4.14526 10.75 3.10938V1.48438ZM8 1C8.25293 1 8.50307 1.0122 8.75 1.03516V7.11426C9.76431 7.43281 10.5 8.38057 10.5 9.5C10.5 10.8807 9.38071 12 8 12C6.61929 12 5.5 10.8807 5.5 9.5C5.5 8.38057 6.23569 7.43281 7.25 7.11426V1.03516C7.49693 1.0122 7.74707 1 8 1ZM8 8.5C7.44772 8.5 7 8.94772 7 9.5C7 10.0523 7.44772 10.5 8 10.5C8.55228 10.5 9 10.0523 9 9.5C9 8.94772 8.55228 8.5 8 8.5Z" fill="#44546F"/>
</svg>
