<svg width="16" height="16" viewBox="0 0 16 16" fill="none" xmlns="http://www.w3.org/2000/svg">
<path d="M8 1C12.4183 1 16 4.58172 16 9C16 9.53583 15.9453 10.059 15.8447 10.5654L14.4531 9.76172C14.4823 9.51178 14.5 9.25781 14.5 9C14.5 5.41015 11.5899 2.5 8 2.5C4.41015 2.5 1.5 5.41015 1.5 9C1.5 10.852 2.27384 12.5222 3.51758 13.707L2.48242 14.793C0.953969 13.3368 0 11.2791 0 9C0 4.58172 3.58172 1 8 1Z" fill="#292A2E"/>
<path d="M5.83472 8.25C6.52504 7.05446 8.05411 6.64489 9.24976 7.33496C10.2191 7.8946 10.6712 9.00541 10.4402 10.043L15.7361 13.1006L14.9861 14.3994L9.69019 11.3418C8.90716 12.0609 7.71917 12.2247 6.74976 11.665C5.5543 10.9746 5.14443 9.44561 5.83472 8.25ZM8.49976 8.63379C8.02153 8.35799 7.40961 8.52186 7.13354 9C6.85745 9.4782 7.02167 10.09 7.49976 10.3662C7.97805 10.6424 8.58982 10.4783 8.86597 10C9.14197 9.52173 8.97799 8.9099 8.49976 8.63379Z" fill="#292A2E"/>
</svg>
