<svg width="16" height="16" viewBox="0 0 16 16" fill="none" xmlns="http://www.w3.org/2000/svg">
<path fill-rule="evenodd" clip-rule="evenodd" d="M1.5 9C1.5 6.39303 3.03474 4.14451 5.25 3.10868V1.48519C2.18643 2.60661 0 5.54797 0 9C0 11.2792 0.954124 13.3368 2.48268 14.793L3.51732 13.707C2.27358 12.5221 1.5 10.852 1.5 9ZM8.75 1.03469V1.75V2.5428V7.11445C9.76428 7.43302 10.5 8.38059 10.5 9.5C10.5 10.8807 9.38071 12 8 12C6.61929 12 5.5 10.8807 5.5 9.5C5.5 8.38059 6.23572 7.43302 7.25 7.11445V2.5428V1.75V1.03469C7.49692 1.01174 7.74709 1 8 1C8.25291 1 8.50308 1.01174 8.75 1.03469ZM10.75 1.48519V3.10868C12.9653 4.14451 14.5 6.39303 14.5 9C14.5 10.852 13.7264 12.5221 12.4827 13.707L13.5173 14.793C15.0459 13.3368 16 11.2792 16 9C16 5.54797 13.8136 2.60661 10.75 1.48519ZM7 9.5C7 8.94772 7.44772 8.5 8 8.5C8.55228 8.5 9 8.94772 9 9.5C9 10.0523 8.55228 10.5 8 10.5C7.44772 10.5 7 10.0523 7 9.5Z" fill="#44546F"/>
</svg>
