<svg width="16" height="16" viewBox="0 0 16 16" fill="none" xmlns="http://www.w3.org/2000/svg">
<path d="M2.70181 5.23354C3.88011 3.57904 5.81403 2.5 7.99997 2.5C11.5898 2.5 14.5 5.41015 14.5 9C14.5 10.852 13.7264 12.5221 12.4826 13.707L13.5173 14.793C15.0458 13.3368 16 11.2792 16 9C16 4.58172 12.4182 1 7.99997 1C5.11192 1 2.58132 2.53036 1.17483 4.82438L2.70181 5.23354Z" fill="#44546F"/>
<path fill-rule="evenodd" clip-rule="evenodd" d="M0.343884 6.67228C0.200022 7.14607 0.098936 7.63847 0.0451202 8.14499L5.50137 9.60699C5.54657 10.6692 6.27143 11.6251 7.3527 11.9148C8.68637 12.2721 10.0572 11.4807 10.4146 10.147C10.7719 8.81335 9.98046 7.44251 8.6468 7.08515C7.56553 6.79543 6.45982 7.26083 5.8896 8.1581L0.343884 6.67228ZM7.74093 10.4659C7.20746 10.323 6.89088 9.77462 7.03382 9.24115C7.17676 8.70768 7.7251 8.3911 8.25857 8.53404C8.79203 8.67698 9.10862 9.22532 8.96567 9.75879C8.82273 10.2923 8.2744 10.6088 7.74093 10.4659Z" fill="#44546F"/>
<path d="M2.48264 14.793C1.23426 13.6037 0.369022 12.0133 0.0937883 10.2286L1.71446 10.6628C2.02547 11.842 2.65958 12.8899 3.51729 13.707L2.48264 14.793Z" fill="#44546F"/>
</svg>
