<svg width="16" height="16" viewBox="0 0 16 16" fill="none" xmlns="http://www.w3.org/2000/svg">
<path d="M8 1C10.0222 1 11.8678 1.75184 13.2764 2.98926L11.8887 3.79102C10.8043 2.98016 9.4582 2.5 8 2.5C4.41015 2.5 1.5 5.41015 1.5 9C1.5 10.852 2.27384 12.5222 3.51758 13.707L2.48242 14.793C0.953969 13.3368 0 11.2791 0 9C0 4.58172 3.58172 1 8 1Z" fill="#292A2E"/>
<path d="M15.9717 8.36133C15.9883 8.57211 16 8.78494 16 9C16 11.2791 15.046 13.3368 13.5176 14.793L12.4824 13.707C13.6779 12.5682 14.4368 10.9809 14.4941 9.21484L15.9717 8.36133Z" fill="#292A2E"/>
<path d="M15.7361 5.89941L10.4402 8.95605C10.6719 9.99396 10.2195 11.1052 9.24976 11.665C8.05405 12.3552 6.52503 11.9457 5.83472 10.75C5.1445 9.55436 5.55424 8.02536 6.74976 7.33496C7.71891 6.77542 8.90715 6.93865 9.69019 7.65723L14.9861 4.60059L15.7361 5.89941ZM8.86597 9C8.58981 8.52174 7.97803 8.35766 7.49976 8.63379C7.02164 8.90993 6.8576 9.52178 7.13354 10C7.40963 10.4782 8.02151 10.6421 8.49976 10.3662C8.97805 10.0901 9.14211 9.47829 8.86597 9Z" fill="#292A2E"/>
</svg>
