<svg width="16" height="16" viewBox="0 0 16 16" fill="none" xmlns="http://www.w3.org/2000/svg">
<path fill-rule="evenodd" clip-rule="evenodd" d="M8 2.5C4.41015 2.5 1.5 5.41015 1.5 9C1.5 10.852 2.27357 12.5221 3.51731 13.707L2.48266 14.793C0.954116 13.3368 0 11.2792 0 9C0 4.58172 3.58172 1 8 1C9.28804 1 10.507 1.30496 11.5867 1.8473L10.9133 3.18769C10.0379 2.74792 9.04898 2.5 8 2.5ZM13.3838 3.3752C13.589 3.37999 13.7833 3.46865 13.9213 3.62053C15.2122 5.04071 16 6.92923 16 9C16 11.2792 15.0459 13.3368 13.5173 14.793L12.4827 13.707C13.7264 12.5221 14.5 10.852 14.5 9C14.5 7.6011 14.0588 6.30646 13.3072 5.24608L10.2166 8.34312C10.3975 8.68907 10.5 9.08282 10.5 9.5C10.5 10.8807 9.38071 12 8 12C6.61929 12 5.5 10.8807 5.5 9.5C5.5 8.11929 6.61929 7 8 7C8.41668 7 8.80999 7.1023 9.15564 7.28276L12.8355 3.59523C12.9804 3.44994 13.1786 3.37042 13.3838 3.3752ZM8 8.5C7.44772 8.5 7 8.94772 7 9.5C7 10.0523 7.44772 10.5 8 10.5C8.55228 10.5 9 10.0523 9 9.5C9 9.22365 8.88889 8.97468 8.70711 8.79289C8.52532 8.61111 8.27635 8.5 8 8.5Z" fill="#44546F"/>
</svg>
