<svg width="16" height="16" viewBox="0 0 16 16" fill="none" xmlns="http://www.w3.org/2000/svg">
<path d="M8.00012 1C12.4183 1.00007 16.0001 4.58176 16.0001 9C16.0001 11.2791 15.0461 13.3368 13.5177 14.793L12.4825 13.707C13.7262 12.5222 14.5001 10.852 14.5001 9C14.5001 5.41019 11.5899 2.50007 8.00012 2.5C4.41027 2.5 1.50012 5.41015 1.50012 9C1.50012 9.25774 1.51589 9.51185 1.54504 9.76172L0.154419 10.5645C0.0540343 10.0584 0.00012207 9.53544 0.00012207 9C0.00012207 4.58172 3.58184 1 8.00012 1Z" fill="#292A2E"/>
<path d="M6.75012 7.33496C7.94576 6.6448 9.47479 7.05447 10.1652 8.25C10.8555 9.44566 10.4457 10.9746 9.25012 11.665C8.28044 12.2249 7.09173 12.0614 6.30871 11.3418L1.01379 14.3994L0.263792 13.1006L5.55871 10.043C5.32778 9.00548 5.78088 7.89455 6.75012 7.33496ZM8.86633 9C8.59022 8.52187 7.97834 8.3579 7.50012 8.63379C7.02191 8.90988 6.85797 9.52174 7.13391 10C7.41005 10.4783 8.02183 10.6424 8.50012 10.3662C8.97831 10.09 9.14245 9.47825 8.86633 9Z" fill="#292A2E"/>
</svg>
