<svg width="16" height="16" viewBox="0 0 16 16" fill="none" xmlns="http://www.w3.org/2000/svg">
<path d="M4.25 4.5L4.25 11.5M6.5 7.25H10.5C11.1904 7.25 11.75 7.80964 11.75 8.5V10.875M4.25 4.75C5.07843 4.75 5.75 4.07843 5.75 3.25C5.75 2.42157 5.07843 1.75 4.25 1.75C3.42157 1.75 2.75 2.42157 2.75 3.25C2.75 4.07843 3.42157 4.75 4.25 4.75ZM4.25 14.25C5.07843 14.25 5.75 13.5784 5.75 12.75C5.75 11.9216 5.07843 11.25 4.25 11.25C3.42157 11.25 2.75 11.9216 2.75 12.75C2.75 13.5784 3.42157 14.25 4.25 14.25ZM11.75 14.25C12.5784 14.25 13.25 13.5784 13.25 12.75C13.25 11.9216 12.5784 11.25 11.75 11.25C10.9216 11.25 10.25 11.9216 10.25 12.75C10.25 13.5784 10.9216 14.25 11.75 14.25Z" stroke="#44546F" stroke-width="1.5"/>
</svg>
