<svg width="16" height="16" viewBox="0 0 16 16" fill="none" xmlns="http://www.w3.org/2000/svg">
<path fill-rule="evenodd" clip-rule="evenodd" d="M4.07383 3.00692C3.84078 1.42217 5.06911 0 6.6709 0H9.3291C10.9309 0 12.1592 1.42217 11.9262 3.00692L11.1184 8.5H12.375C13.8247 8.5 15 9.67525 15 11.125V12.75C15 13.1642 14.6642 13.5 14.25 13.5H1.75C1.33579 13.5 1 13.1642 1 12.75V11.125C1 9.67525 2.17525 8.5 3.625 8.5H4.88164L4.07383 3.00692ZM6.6709 1.5C5.98442 1.5 5.45799 2.1095 5.55787 2.78868L6.49202 9.14088C6.52373 9.35652 6.46007 9.57528 6.3176 9.74023C6.17513 9.90518 5.96796 10 5.75 10H3.625C3.00368 10 2.5 10.5037 2.5 11.125V12H13.5V11.125C13.5 10.5037 12.9963 10 12.375 10H10.25C10.032 10 9.82487 9.90518 9.6824 9.74023C9.53993 9.57528 9.47627 9.35652 9.50798 9.14088L10.4421 2.78868C10.542 2.1095 10.0156 1.5 9.3291 1.5H6.6709ZM13.5 16H2.5V14.5H13.5V16Z" fill="#44546F"/>
</svg>
