<svg width="16" height="16" viewBox="0 0 16 16" fill="none" xmlns="http://www.w3.org/2000/svg">
<path d="M14.5 8C14.5 4.41015 11.5899 1.5 8 1.5C4.41015 1.5 1.5 4.41015 1.5 8C1.5 11.5899 4.41015 14.5 8 14.5C11.5899 14.5 14.5 11.5899 14.5 8ZM16 8C16 12.4183 12.4183 16 8 16C3.58172 16 0 12.4183 0 8C0 3.58172 3.58172 0 8 0C12.4183 0 16 3.58172 16 8Z" fill="#292A2E"/>
<path d="M8.75024 3.5V9H7.25024V3.5H8.75024Z" fill="#292A2E"/>
<path d="M8.00024 10.5C8.55253 10.5 9.00024 10.9477 9.00024 11.5C9.00024 12.0523 8.55253 12.5 8.00024 12.5C7.44796 12.5 7.00024 12.0523 7.00024 11.5C7.00024 10.9477 7.44796 10.5 8.00024 10.5Z" fill="#292A2E"/>
</svg>
