<svg width="16" height="16" viewBox="0 0 16 16" fill="none" xmlns="http://www.w3.org/2000/svg">
<path d="M14.5 8C14.5 4.41015 11.5899 1.5 8 1.5C4.41015 1.5 1.5 4.41015 1.5 8C1.5 11.5899 4.41015 14.5 8 14.5C11.5899 14.5 14.5 11.5899 14.5 8ZM16 8C16 12.4183 12.4183 16 8 16C3.58172 16 0 12.4183 0 8C0 3.58172 3.58172 0 8 0C12.4183 0 16 3.58172 16 8Z" fill="#292A2E"/>
<path d="M10.5 8.74979C10.5 7.78329 9.7165 6.99979 8.75 6.99979H7.29297L7.65137 7.62772C7.82896 7.93862 7.76171 8.3316 7.49121 8.5662C7.22068 8.80081 6.82172 8.81144 6.53906 8.59159L4.28906 6.84159C4.10662 6.69949 4 6.48106 4 6.24979C4 6.01852 4.10662 5.8001 4.28906 5.658L6.53906 3.908C6.82172 3.68815 7.22068 3.69877 7.49121 3.93339C7.76171 4.16799 7.82896 4.56096 7.65137 4.87186L7.29297 5.49979H8.75C10.5449 5.49979 12 6.95487 12 8.74979C12 10.5447 10.5449 11.9998 8.75 11.9998H7V10.4998H8.75C9.7165 10.4998 10.5 9.71629 10.5 8.74979Z" fill="#292A2E"/>
</svg>
