<svg width="16" height="16" viewBox="0 0 16 16" fill="none" xmlns="http://www.w3.org/2000/svg">
<path d="M8.00024 3C10.7617 3 13.0002 5.23858 13.0002 8C13.0002 10.7614 10.7617 13 8.00024 13C5.23882 13 3.00024 10.7614 3.00024 8H8.00024V3Z" fill="#292A2E"/>
<path d="M1.5 8C1.5 11.5899 4.41015 14.5 8 14.5C11.5899 14.5 14.5 11.5899 14.5 8C14.5 4.41015 11.5899 1.5 8 1.5V0C12.4183 0 16 3.58172 16 8C16 12.4183 12.4183 16 8 16C3.58172 16 0 12.4183 0 8H1.5Z" fill="#292A2E"/>
<path d="M0.811523 7.05273L1.55469 7.15039C1.51847 7.42812 1.5 7.7117 1.5 8H0C0 7.64654 0.0227729 7.29805 0.0673828 6.95605L0.811523 7.05273ZM2.84277 4.04297C2.49896 4.49037 2.21211 4.98384 1.99316 5.51172L0.607422 4.9375C0.877292 4.28672 1.23048 3.67916 1.65332 3.12891L2.84277 4.04297ZM5.51172 1.99316C4.98384 2.21211 4.49037 2.49896 4.04297 2.84277L3.12891 1.65332C3.67916 1.23048 4.28672 0.877292 4.9375 0.607422L5.51172 1.99316ZM8 1.5C7.7117 1.5 7.42812 1.51847 7.15039 1.55469L7.05273 0.811523L6.95605 0.0673828C7.29805 0.0227729 7.64654 0 8 0V1.5Z" fill="#292A2E"/>
</svg>
