<svg width="16" height="16" viewBox="0 0 16 16" fill="none" xmlns="http://www.w3.org/2000/svg">
<path d="M2.34315 2.34315C5.46734 -0.781049 10.5334 -0.781049 13.6576 2.34315C16.7818 5.46734 16.7818 10.5334 13.6576 13.6576C10.5334 16.7818 5.46734 16.7818 2.34315 13.6576C-0.781049 10.5334 -0.781049 5.46734 2.34315 2.34315ZM12.5971 3.40369C10.0586 0.865285 5.9421 0.865285 3.40369 3.40369C0.865285 5.9421 0.865285 10.0586 3.40369 12.5971C5.9421 15.1355 10.0586 15.1355 12.5971 12.5971C15.1355 10.0586 15.1355 5.9421 12.5971 3.40369ZM11.7123 5.34901L9.06092 8.00037L11.7123 10.6517L10.6517 11.7123L8.00037 9.06092L5.34901 11.7123L4.28846 10.6517L6.93983 8.00037L4.28846 5.34901L5.34901 4.28846L8.00037 6.93983L10.6517 4.28846L11.7123 5.34901Z" fill="#292A2E"/>
</svg>
