<svg width="16" height="16" viewBox="0 0 16 16" fill="none" xmlns="http://www.w3.org/2000/svg">
<path fill-rule="evenodd" clip-rule="evenodd" d="M8 1.5C4.41015 1.5 1.5 4.41015 1.5 8C1.5 10.8925 3.38988 13.3447 6.00216 14.1874C6.00072 14.1251 6 14.0626 6 14C6 12.8983 6.22312 11.8468 6.62736 10.8897C7.84028 8.01778 10.6836 6 14 6C14.0626 6 14.1251 6.00072 14.1874 6.00216C13.3447 3.38988 10.8925 1.5 8 1.5ZM13.4132 7.52613C10.9751 7.74429 8.92334 9.30876 8.00917 11.4733C7.75375 12.078 7.58712 12.73 7.52608 13.4133L13.4132 7.52613ZM0 8C0 3.58172 3.58172 0 8 0C11.9841 0 15.2867 2.9116 15.8985 6.72311C15.9367 6.9607 15.8585 7.20216 15.6883 7.37231L7.37231 15.6883C7.20216 15.8585 6.9607 15.9367 6.72311 15.8985C2.9116 15.2867 0 11.9841 0 8Z" fill="#44546F"/>
</svg>
