<svg width="16" height="16" viewBox="0 0 16 16" fill="none" xmlns="http://www.w3.org/2000/svg">
<path fill-rule="evenodd" clip-rule="evenodd" d="M6.5 7.875C6.5 7.11561 7.11561 6.5 7.875 6.5H14.625C15.3844 6.5 16 7.11561 16 7.875V14.625C16 15.3844 15.3844 16 14.625 16H7.875C7.11561 16 6.5 15.3844 6.5 14.625V7.875ZM8 8V14.5H14.5V8H8Z" fill="#44546F"/>
<path d="M5.95502 0.23503C5.52078 -0.0243066 4.97922 -0.0243074 4.54498 0.23503L0.669981 2.54927C0.254455 2.79743 0 3.24577 0 3.72976V8.02034C0 8.50433 0.254455 8.95267 0.669981 9.20083L4.54498 11.5151C4.68761 11.6003 4.84182 11.6575 5 11.6867V10.0397L1.5 7.94939V3.80071L5.25 1.56112L9 3.80071V5H10.5V3.72976C10.5 3.24577 10.2455 2.79743 9.83002 2.54927L5.95502 0.23503Z" fill="#44546F"/>
</svg>
