<svg width="16" height="16" viewBox="0 0 16 16" fill="none" xmlns="http://www.w3.org/2000/svg">
<path fill-rule="evenodd" clip-rule="evenodd" d="M11.8358 5.85361C12.6169 5.07256 13.8832 5.07256 14.6642 5.85361L15.3965 6.58584C16.1775 7.36689 16.1775 8.63322 15.3965 9.41427L10.2594 14.5513C10.019 14.7917 9.72142 14.9668 9.39461 15.0602L6.20606 15.9712C5.94416 16.046 5.66229 15.973 5.46969 15.7804C5.27709 15.5878 5.20405 15.3059 5.27888 15.044L6.18989 11.8555C6.28327 11.5286 6.45839 11.231 6.69873 10.9907L11.8358 5.85361ZM13.6036 6.91427C13.4083 6.71901 13.0917 6.71901 12.8965 6.91427L12.3107 7.50006L13.75 8.9394L14.3358 8.35361C14.5311 8.15835 14.5311 7.84176 14.3358 7.6465L13.6036 6.91427ZM12.6894 10.0001L11.25 8.56072L7.75939 12.0513C7.6993 12.1114 7.65552 12.1858 7.63218 12.2675L7.09203 14.158L8.98253 13.6179C9.06424 13.5946 9.13864 13.5508 9.19872 13.4907L12.6894 10.0001Z" fill="#44546F"/>
<path fill-rule="evenodd" clip-rule="evenodd" d="M4.75 0C5.05931 0 5.3369 0.189887 5.449 0.478165L6.4494 3.0506L9.02184 4.051C9.31011 4.16311 9.5 4.44069 9.5 4.75C9.5 5.05931 9.31011 5.3369 9.02184 5.449L6.4494 6.4494L5.449 9.02184C5.3369 9.31011 5.05931 9.5 4.75 9.5C4.44069 9.5 4.16311 9.31011 4.051 9.02184L3.0506 6.4494L0.478165 5.449C0.189887 5.3369 0 5.05931 0 4.75C0 4.44069 0.189887 4.16311 0.478165 4.051L3.0506 3.0506L4.051 0.478165C4.16311 0.189887 4.44069 0 4.75 0ZM4.75 2.81927L4.329 3.90183C4.25279 4.09781 4.09781 4.25279 3.90183 4.329L2.81927 4.75L3.90183 5.171C4.09781 5.24721 4.25279 5.40219 4.329 5.59817L4.75 6.68073L5.171 5.59817C5.24721 5.40219 5.40219 5.24721 5.59817 5.171L6.68073 4.75L5.59817 4.329C5.40219 4.25279 5.24721 4.09781 5.171 3.90183L4.75 2.81927Z" fill="#44546F"/>
</svg>
