<svg width="16" height="16" viewBox="0 0 16 16" fill="none" xmlns="http://www.w3.org/2000/svg">
<path fill-rule="evenodd" clip-rule="evenodd" d="M8.75 1V3H7.25V1H8.75ZM11.75 3.84467L13.1642 2.43046L14.2249 3.49112L12.8107 4.90533L11.75 3.84467ZM3.16421 4.91421L1.75 3.5L2.81066 2.43934L4.22487 3.85355L3.16421 4.91421ZM8 6C6.34315 6 5 7.34315 5 9H3.5C3.5 6.51472 5.51472 4.5 8 4.5C10.4853 4.5 12.5 6.51472 12.5 9H11C11 7.34315 9.65685 6 8 6ZM2 9H0V7.5H2V9ZM16 9H14V7.5H16V9ZM15 12H1V10.5H15V12ZM10.5 13.5V15H5.5V13.5H10.5Z" fill="#292A2E"/>
</svg>
