<svg width="16" height="16" viewBox="0 0 16 16" fill="none" xmlns="http://www.w3.org/2000/svg">
<path d="M13 3.5C13 3.22386 12.7761 3 12.5 3H11.5V4.25C11.5 4.66421 11.1642 5 10.75 5H5.25C4.83579 5 4.5 4.66421 4.5 4.25V3H3.5C3.22386 3 3 3.22386 3 3.5V14C3 14.2761 3.22386 14.5 3.5 14.5H12.5C12.7761 14.5 13 14.2761 13 14V3.5ZM6 10.5V12H4.5V10.5H6ZM11.5 10.5V12H7.5V10.5H11.5ZM6 7.5V9H4.5V7.5H6ZM11.5 7.5V9H7.5V7.5H11.5ZM6.5 1.5C6.22386 1.5 6 1.72386 6 2V3.5H10V2C10 1.72386 9.77614 1.5 9.5 1.5H6.5ZM14.5 14C14.5 15.1046 13.6046 16 12.5 16H3.5C2.39543 16 1.5 15.1046 1.5 14V3.5C1.5 2.39543 2.39543 1.5 3.5 1.5H4.56543C4.78765 0.637683 5.56829 0 6.5 0H9.5C10.4317 0 11.2123 0.637683 11.4346 1.5H12.5C13.6046 1.5 14.5 2.39543 14.5 3.5V14Z" fill="#292A2E"/>
</svg>
