<svg width="16" height="16" viewBox="0 0 16 16" fill="none" xmlns="http://www.w3.org/2000/svg">
<path fill-rule="evenodd" clip-rule="evenodd" d="M3.21967 1.21967L0.219666 4.21967L1.28033 5.28033L3 3.56066L3 11.875C3 13.3247 4.17525 14.5 5.625 14.5H7.5V13H5.625C5.00367 13 4.5 12.4963 4.5 11.875L4.5 3.56066L6.21967 5.28033L7.28033 4.21967L4.28033 1.21967C3.98743 0.926777 3.51256 0.926777 3.21967 1.21967ZM8.5 3L10.375 3C10.9963 3 11.5 3.50368 11.5 4.125V12.4393L9.78032 10.7197L8.71967 11.7803L11.7197 14.7803C12.0126 15.0732 12.4874 15.0732 12.7803 14.7803L15.7803 11.7803L14.7197 10.7197L13 12.4393V4.125C13 2.67525 11.8247 1.5 10.375 1.5L8.5 1.5V3Z" fill="#44546F"/>
</svg>
