<svg width="16" height="16" viewBox="0 0 16 16" fill="none" xmlns="http://www.w3.org/2000/svg">
<path fill-rule="evenodd" clip-rule="evenodd" d="M5.75 3.25C5.75 2.00736 6.75736 1 8 1C9.24264 1 10.25 2.00736 10.25 3.25C10.25 4.22966 9.62389 5.06309 8.75 5.37197V7.25H10.5C11.6046 7.25 12.5 8.14543 12.5 9.25V12.4393L13.7197 11.2197L14.7803 12.2803L12.2803 14.7803C11.9874 15.0732 11.5126 15.0732 11.2197 14.7803L8.71967 12.2803L9.78032 11.2197L11 12.4393V9.25C11 8.97386 10.7761 8.75 10.5 8.75H5.5C5.22385 8.75 5 8.97386 5 9.25V12.4393L6.21967 11.2197L7.28033 12.2803L4.78033 14.7803C4.48743 15.0732 4.01256 15.0732 3.71967 14.7803L1.21967 12.2803L2.28033 11.2197L3.5 12.4393V9.25C3.5 8.14543 4.39543 7.25 5.5 7.25H7.25V5.37197C6.3761 5.06309 5.75 4.22966 5.75 3.25ZM8 2.5C7.58578 2.5 7.25 2.83579 7.25 3.25C7.25 3.66421 7.58578 4 8 4C8.41421 4 8.75 3.66421 8.75 3.25C8.75 2.83579 8.41421 2.5 8 2.5Z" fill="#292A2E"/>
</svg>
