<svg width="16" height="16" viewBox="0 0 16 16" fill="none" xmlns="http://www.w3.org/2000/svg">
<path fill-rule="evenodd" clip-rule="evenodd" d="M2 0.5L6.25 0.5C6.66421 0.5 7 0.835786 7 1.25L7 5.5H5.5L5.5 2.94118C5.1738 3.17386 4.78938 3.47998 4.40631 3.85743C3.41982 4.82945 2.5 6.21378 2.5 8C2.5 9.81285 3.31728 11.1804 4.37097 12.1093C5.44954 13.0601 6.71686 13.5 7.5 13.5L7.5 15C6.28314 15 4.67546 14.3774 3.37903 13.2345C2.05772 12.0696 1 10.3121 1 8C1 5.66122 2.21009 3.91562 3.35352 2.78897C3.66152 2.48548 3.96889 2.22248 4.25386 2L2 2V0.5ZM12.621 2.76553C13.9423 3.93037 15 5.68785 15 8C15 10.338 13.7957 12.0786 12.6563 13.2012C12.3524 13.5006 12.0491 13.7603 11.7675 13.9803H14V15.4803H9.75C9.33579 15.4803 9 15.1445 9 14.7303V10.4803H10.5V13.0544C10.8278 12.822 11.2163 12.5142 11.6035 12.1327C12.5843 11.1664 13.5 9.78704 13.5 8C13.5 6.18715 12.6827 4.81963 11.629 3.89072C10.5505 2.93987 9.28314 2.5 8.5 2.5V1C9.71686 1 11.3245 1.62263 12.621 2.76553Z" fill="#44546F"/>
</svg>
