<svg width="16" height="16" viewBox="0 0 16 16" fill="none" xmlns="http://www.w3.org/2000/svg">
<path d="M14.25 1C14.4489 1 14.6396 1.07907 14.7803 1.21973C14.9209 1.36038 15 1.55109 15 1.75V9.25C15 9.44891 14.9209 9.63962 14.7803 9.78027C14.6396 9.92093 14.4489 10 14.25 10H1.75C1.33579 10 1 9.66421 1 9.25V1.75C1 1.33579 1.33579 1 1.75 1H14.25ZM2.5 8.5H13.5V6.25H2.5V8.5ZM2.5 4.75H13.5V2.5H2.5V4.75Z" fill="#292A2E"/>
<path d="M1.75 13.5C2.16421 13.5 2.5 13.8358 2.5 14.25C2.5 14.6642 2.16421 15 1.75 15C1.33579 15 1 14.6642 1 14.25C1 13.8358 1.33579 13.5 1.75 13.5Z" fill="#292A2E"/>
<path d="M4.25 13.5C4.66421 13.5 5 13.8358 5 14.25C5 14.6642 4.66421 15 4.25 15C3.83579 15 3.5 14.6642 3.5 14.25C3.5 13.8358 3.83579 13.5 4.25 13.5Z" fill="#292A2E"/>
<path d="M6.75 13.5C7.16421 13.5 7.5 13.8358 7.5 14.25C7.5 14.6642 7.16421 15 6.75 15C6.33579 15 6 14.6642 6 14.25C6 13.8358 6.33579 13.5 6.75 13.5Z" fill="#292A2E"/>
<path d="M9.25 13.5C9.66421 13.5 10 13.8358 10 14.25C10 14.6642 9.66421 15 9.25 15C8.83579 15 8.5 14.6642 8.5 14.25C8.5 13.8358 8.83579 13.5 9.25 13.5Z" fill="#292A2E"/>
<path d="M11.75 13.5C12.1642 13.5 12.5 13.8358 12.5 14.25C12.5 14.6642 12.1642 15 11.75 15C11.3358 15 11 14.6642 11 14.25C11 13.8358 11.3358 13.5 11.75 13.5Z" fill="#292A2E"/>
<path d="M14.25 13.5C14.6642 13.5 15 13.8358 15 14.25C15 14.6642 14.6642 15 14.25 15C13.8358 15 13.5 14.6642 13.5 14.25C13.5 13.8358 13.8358 13.5 14.25 13.5Z" fill="#292A2E"/>
<path d="M1.75 11C2.16421 11 2.5 11.3358 2.5 11.75C2.5 12.1642 2.16421 12.5 1.75 12.5C1.33579 12.5 1 12.1642 1 11.75C1 11.3358 1.33579 11 1.75 11Z" fill="#292A2E"/>
<path d="M14.25 11C14.6642 11 15 11.3358 15 11.75C15 12.1642 14.6642 12.5 14.25 12.5C13.8358 12.5 13.5 12.1642 13.5 11.75C13.5 11.3358 13.8358 11 14.25 11Z" fill="#292A2E"/>
</svg>
