<svg width="16" height="16" viewBox="0 0 16 16" fill="none" xmlns="http://www.w3.org/2000/svg">
<path d="M5.75 1C6.5301 1 7.21746 1.39701 7.62109 2H14.125C15.1605 2 16 2.83947 16 3.875V13C16 14.1046 15.1046 15 14 15H2C0.895431 15 0 14.1046 0 13V3C0 1.89543 0.895431 1 2 1H5.75ZM2 2.5C1.72386 2.5 1.5 2.72386 1.5 3V13C1.5 13.2761 1.72386 13.5 2 13.5H14C14.2761 13.5 14.5 13.2761 14.5 13V6.5H8.5C7.39543 6.5 6.5 5.60457 6.5 4.5V3.25C6.5 2.83579 6.16421 2.5 5.75 2.5H2ZM12 5H14.5V3.875C14.5 3.66789 14.3321 3.5 14.125 3.5H12V5ZM8 4.5C8 4.77614 8.22386 5 8.5 5H10.5V3.5H8V4.5Z" fill="#292A2E"/>
</svg>
