<svg width="16" height="16" viewBox="0 0 16 16" fill="none" xmlns="http://www.w3.org/2000/svg">
<path fill-rule="evenodd" clip-rule="evenodd" d="M4.31288 1.44939C4.43232 1.1764 4.70203 1 5 1H11C11.298 1 11.5677 1.1764 11.6871 1.44939L13.1914 4.88769L15.084 3.62596L15.916 4.87404L13.9544 6.18181L12.9949 14.3376C12.9504 14.7153 12.6303 15 12.25 15H3.75C3.36969 15 3.04958 14.7153 3.00514 14.3376L2.04563 6.18181L0.0839767 4.87404L0.916027 3.62596L2.80862 4.88769L4.31288 1.44939ZM3.59341 6.5L4.41694 13.5H11.5831L12.4066 6.5H3.59341ZM11.6032 5L10.5095 2.5H5.49051L4.39676 5H11.6032Z" fill="#292A2E"/>
</svg>
