<svg width="16" height="16" viewBox="0 0 16 16" fill="none" xmlns="http://www.w3.org/2000/svg">
<path fill-rule="evenodd" clip-rule="evenodd" d="M5 1.5C3.61929 1.5 2.5 2.61929 2.5 4C2.5 5.38071 3.61929 6.5 5 6.5C6.38071 6.5 7.5 5.38071 7.5 4C7.5 2.61929 6.38071 1.5 5 1.5ZM1 4C1 1.79086 2.79086 0 5 0C7.20914 0 9 1.79086 9 4C9 6.20914 7.20914 8 5 8C2.79086 8 1 6.20914 1 4ZM3.75 10.5C2.50736 10.5 1.5 11.5074 1.5 12.75V15H0V12.75C0 10.6789 1.67893 9 3.75 9H6.25C8.32107 9 10 10.6789 10 12.75V15H8.5V12.75C8.5 11.5074 7.49264 10.5 6.25 10.5H3.75Z" fill="#44546F"/>
<path d="M13 9.44444L11.4739 10.4909C11.2192 10.6656 10.8847 10.4288 10.9648 10.1305L11.4444 8.34259L10.129 7.24638C9.89971 7.05531 10.0188 6.68232 10.3163 6.65943L12.0278 6.52778L12.6897 4.80688C12.799 4.52269 13.201 4.52269 13.3103 4.80688L13.9722 6.52778L15.6837 6.65943C15.9812 6.68232 16.1003 7.05531 15.871 7.24638L14.5556 8.34259L15.0352 10.1305C15.1153 10.4288 14.7808 10.6656 14.5261 10.4909L13 9.44444Z" fill="#44546F"/>
</svg>
