<svg width="16" height="16" viewBox="0 0 16 16" fill="none" xmlns="http://www.w3.org/2000/svg">
<path d="M9.00002 2.50009C9.00002 1.94781 8.5523 1.50009 8.00002 1.50009C7.44773 1.50009 7.00002 1.94781 7.00002 2.50009C7.00002 3.05238 7.44773 3.50009 8.00002 3.50009C8.5523 3.50009 9.00002 3.05238 9.00002 2.50009ZM10.5 2.50009C10.5 3.8808 9.38073 5.00009 8.00002 5.00009C6.6193 5.00009 5.50002 3.8808 5.50002 2.50009C5.50002 1.11938 6.6193 9.17765e-05 8.00002 9.17765e-05C9.38073 9.17765e-05 10.5 1.11938 10.5 2.50009Z" fill="#292A2E"/>
<path d="M3.00002 8.00009C3.00002 7.58588 2.66423 7.25009 2.25002 7.25009C1.8358 7.25009 1.50002 7.58588 1.50002 8.00009C1.50002 8.41431 1.8358 8.75009 2.25002 8.75009C2.66423 8.75009 3.00002 8.41431 3.00002 8.00009ZM4.50002 8.00009C4.50002 9.24273 3.49266 10.2501 2.25002 10.2501C1.00737 10.2501 1.52588e-05 9.24273 1.52588e-05 8.00009C1.52588e-05 6.75745 1.00737 5.75009 2.25002 5.75009C3.49266 5.75009 4.50002 6.75745 4.50002 8.00009Z" fill="#292A2E"/>
<path d="M14.5 8.00009C14.5 7.58588 14.1642 7.25009 13.75 7.25009C13.3358 7.25009 13 7.58588 13 8.00009C13 8.41431 13.3358 8.75009 13.75 8.75009C14.1642 8.75009 14.5 8.41431 14.5 8.00009ZM16 8.00009C16 9.24273 14.9927 10.2501 13.75 10.2501C12.5074 10.2501 11.5 9.24273 11.5 8.00009C11.5 6.75745 12.5074 5.75009 13.75 5.75009C14.9927 5.75009 16 6.75745 16 8.00009Z" fill="#292A2E"/>
<path d="M8.75002 13.7501C8.75002 13.3359 8.41423 13.0001 8.00002 13.0001C7.5858 13.0001 7.25002 13.3359 7.25002 13.7501C7.25002 14.1643 7.5858 14.5001 8.00002 14.5001C8.41423 14.5001 8.75002 14.1643 8.75002 13.7501ZM10.25 13.7501C10.25 14.9927 9.24266 16.0001 8.00002 16.0001C6.75737 16.0001 5.75002 14.9927 5.75002 13.7501C5.75002 12.5075 6.75737 11.5001 8.00002 11.5001C9.24266 11.5001 10.25 12.5075 10.25 13.7501Z" fill="#292A2E"/>
<path d="M2.78039 8.53035C2.92662 8.3841 2.99964 8.19403 2.99998 8.0014C3.00021 7.80798 2.92721 7.61651 2.78039 7.46969C2.48751 7.17681 2.01263 7.17683 1.71973 7.46969C1.42684 7.76258 1.42684 8.23746 1.71973 8.53035C2.01262 8.82324 2.4875 8.82324 2.78039 8.53035ZM8.53047 14.2804C8.8233 13.9876 8.82317 13.5127 8.53047 13.2198C8.23757 12.9269 7.7627 12.9269 7.46981 13.2198C7.17699 13.5127 7.17694 13.9876 7.46981 14.2804C7.76269 14.5731 8.23763 14.5732 8.53047 14.2804ZM8.53047 2.78027C8.82325 2.48737 8.82332 2.01247 8.53047 1.71961C8.23761 1.42676 7.76271 1.42683 7.46981 1.71961C7.17691 2.01251 7.17691 2.48738 7.46981 2.78027C7.7627 3.07317 8.23757 3.07317 8.53047 2.78027ZM14.2805 8.53035C14.5734 8.23752 14.5732 7.7626 14.2805 7.46969C13.9877 7.1768 13.5128 7.1768 13.2199 7.46969C13.0731 7.6165 12.9998 7.80669 13 8.00009C13.0003 8.19284 13.0735 8.38401 13.2199 8.53035C13.5128 8.82305 13.9877 8.82318 14.2805 8.53035ZM15.3412 9.59101C14.6489 10.2834 13.6189 10.4268 12.7828 10.0281L10.0296 12.7813C10.4287 13.6175 10.2836 14.6486 9.59113 15.3411C8.7125 16.2196 7.28782 16.2196 6.40915 15.3411C5.53049 14.4624 5.53054 13.0378 6.40915 12.1591C7.10177 11.4665 8.13267 11.3213 8.96896 11.7206L11.7214 8.96815C11.6875 8.89709 11.6577 8.82486 11.6317 8.75132L4.36793 8.75063C4.25954 9.05705 4.086 9.34605 3.84105 9.59101C2.96237 10.4697 1.53775 10.4697 0.659071 9.59101C-0.219609 8.71233 -0.219609 7.28771 0.659071 6.40903C1.35157 5.71657 2.38201 5.57221 3.21819 5.97123L5.97135 3.21807C5.57236 2.38189 5.71667 1.35143 6.40915 0.658953C7.28784 -0.219613 8.71249 -0.219689 9.59113 0.658953C10.4698 1.5376 10.4697 2.96224 9.59113 3.84093C8.89865 4.53341 7.86819 4.67772 7.03201 4.27873L4.27885 7.03189C4.31306 7.10361 4.34311 7.17655 4.36931 7.25079L11.6303 7.25148C11.7386 6.94409 11.9136 6.65469 12.1592 6.40903C13.0379 5.53035 14.4625 5.53035 15.3412 6.40903C16.2197 7.28772 16.2198 8.71239 15.3412 9.59101Z" fill="#292A2E"/>
</svg>
