<svg width="16" height="16" viewBox="0 0 16 16" fill="none" xmlns="http://www.w3.org/2000/svg">
<path d="M9.00002 2.5C9.00002 1.94772 8.5523 1.5 8.00002 1.5C7.44773 1.5 7.00002 1.94772 7.00002 2.5C7.00002 3.05229 7.44773 3.5 8.00002 3.5C8.5523 3.5 9.00002 3.05229 9.00002 2.5ZM10.5 2.5C10.5 3.88071 9.38073 5 8.00002 5C6.6193 5 5.50002 3.88071 5.50002 2.5C5.50002 1.11929 6.6193 2.23779e-07 8.00002 2.23779e-07C9.38073 2.23779e-07 10.5 1.11929 10.5 2.5Z" fill="#292A2E"/>
<path d="M3.00002 8C3.00002 7.58579 2.66423 7.25 2.25002 7.25C1.8358 7.25 1.50002 7.58579 1.50002 8C1.50002 8.41421 1.8358 8.75 2.25002 8.75C2.66423 8.75 3.00002 8.41421 3.00002 8ZM4.50002 8C4.50002 9.24264 3.49266 10.25 2.25002 10.25C1.00737 10.25 1.52588e-05 9.24264 1.52588e-05 8C1.52588e-05 6.75736 1.00737 5.75 2.25002 5.75C3.49266 5.75 4.50002 6.75736 4.50002 8Z" fill="#292A2E"/>
<path d="M14.5 8C14.5 7.58579 14.1642 7.25 13.75 7.25C13.3358 7.25 13 7.58579 13 8C13 8.41421 13.3358 8.75 13.75 8.75C14.1642 8.75 14.5 8.41421 14.5 8ZM16 8C16 9.24264 14.9927 10.25 13.75 10.25C12.5074 10.25 11.5 9.24264 11.5 8C11.5 6.75736 12.5074 5.75 13.75 5.75C14.9927 5.75 16 6.75736 16 8Z" fill="#292A2E"/>
<path d="M8.75002 13.75C8.75002 13.3358 8.41423 13 8.00002 13C7.5858 13 7.25002 13.3358 7.25002 13.75C7.25002 14.1642 7.5858 14.5 8.00002 14.5C8.41423 14.5 8.75002 14.1642 8.75002 13.75ZM10.25 13.75C10.25 14.9926 9.24266 16 8.00002 16C6.75737 16 5.75002 14.9926 5.75002 13.75C5.75002 12.5074 6.75737 11.5 8.00002 11.5C9.24266 11.5 10.25 12.5074 10.25 13.75Z" fill="#292A2E"/>
<path d="M2.78039 8.53026C2.92662 8.38401 2.99964 8.19394 2.99998 8.00131C3.00021 7.80789 2.92721 7.61642 2.78039 7.4696C2.48751 7.17672 2.01263 7.17674 1.71973 7.4696C1.42684 7.76249 1.42684 8.23736 1.71973 8.53026C2.01262 8.82315 2.4875 8.82315 2.78039 8.53026ZM8.53047 14.2803C8.8233 13.9875 8.82317 13.5126 8.53047 13.2197C8.23757 12.9268 7.7627 12.9268 7.46981 13.2197C7.17699 13.5126 7.17694 13.9875 7.46981 14.2803C7.76269 14.573 8.23763 14.5731 8.53047 14.2803ZM8.53047 2.78018C8.82325 2.48728 8.82332 2.01238 8.53047 1.71952C8.23761 1.42667 7.76271 1.42674 7.46981 1.71952C7.17691 2.01241 7.17691 2.48729 7.46981 2.78018C7.7627 3.07308 8.23757 3.07308 8.53047 2.78018ZM14.2805 8.53026C14.5734 8.23743 14.5732 7.76251 14.2805 7.4696C13.9877 7.1767 13.5128 7.1767 13.2199 7.4696C13.0731 7.61641 12.9998 7.8066 13 8C13.0003 8.19275 13.0735 8.38392 13.2199 8.53026C13.5128 8.82296 13.9877 8.82309 14.2805 8.53026ZM15.3412 9.59092C14.6489 10.2833 13.6189 10.4267 12.7828 10.028L10.0296 12.7812C10.4287 13.6174 10.2836 14.6485 9.59113 15.341C8.7125 16.2195 7.28782 16.2195 6.40915 15.341C5.53049 14.4623 5.53054 13.0377 6.40915 12.159C7.10177 11.4664 8.13267 11.3212 8.96896 11.7205L11.7214 8.96806C11.6875 8.897 11.6577 8.82476 11.6317 8.75123L4.36793 8.75054C4.25954 9.05696 4.086 9.34596 3.84105 9.59092C2.96237 10.4696 1.53775 10.4696 0.659071 9.59092C-0.219609 8.71224 -0.219609 7.28762 0.659071 6.40894C1.35157 5.71647 2.38201 5.57212 3.21819 5.97114L5.97135 3.21798C5.57236 2.38179 5.71667 1.35134 6.40915 0.658862C7.28784 -0.219705 8.71249 -0.21978 9.59113 0.658862C10.4698 1.5375 10.4697 2.96215 9.59113 3.84084C8.89865 4.53332 7.86819 4.67763 7.03201 4.27864L4.27885 7.0318C4.31306 7.10352 4.34311 7.17646 4.36931 7.2507L11.6303 7.25139C11.7386 6.944 11.9136 6.65459 12.1592 6.40894C13.0379 5.53026 14.4625 5.53026 15.3412 6.40894C16.2197 7.28763 16.2198 8.7123 15.3412 9.59092Z" fill="#292A2E"/>
</svg>
