<svg width="16" height="16" viewBox="0 0 16 16" fill="none" xmlns="http://www.w3.org/2000/svg">
<path d="M5.5 12.25C5.5 11.2835 4.7165 10.5 3.75 10.5C2.7835 10.5 2 11.2835 2 12.25C2 13.2165 2.7835 14 3.75 14C4.7165 14 5.5 13.2165 5.5 12.25ZM14 12.25C14 11.2835 13.2165 10.5 12.25 10.5C11.2835 10.5 10.5 11.2835 10.5 12.25C10.5 13.2165 11.2835 14 12.25 14C13.2165 14 14 13.2165 14 12.25ZM14 3.75C14 2.7835 13.2165 2 12.25 2C11.2835 2 10.5 2.7835 10.5 3.75C10.5 4.7165 11.2835 5.5 12.25 5.5C13.2165 5.5 14 4.7165 14 3.75ZM7 12.25C7 14.0449 5.54493 15.5 3.75 15.5C1.95507 15.5 0.5 14.0449 0.5 12.25C0.5 10.4551 1.95507 9 3.75 9C5.54493 9 7 10.4551 7 12.25ZM5.5 3.75C5.5 2.7835 4.7165 2 3.75 2C2.7835 2 2 2.7835 2 3.75C2 4.7165 2.7835 5.5 3.75 5.5C4.7165 5.5 5.5 4.7165 5.5 3.75ZM7 3.75C7 4.35995 6.83135 4.93027 6.53906 5.41797L10.5811 9.45996C11.0688 9.16757 11.6399 9 12.25 9C14.0449 9 15.5 10.4551 15.5 12.25C15.5 14.0449 14.0449 15.5 12.25 15.5C10.4551 15.5 9 14.0449 9 12.25C9 11.6085 9.18605 11.0106 9.50684 10.5068L5.49219 6.49219C4.98848 6.81287 4.39137 7 3.75 7C1.95507 7 0.5 5.54493 0.5 3.75C0.5 1.95507 1.95507 0.5 3.75 0.5C5.54493 0.5 7 1.95507 7 3.75ZM15.5 3.75C15.5 5.54493 14.0449 7 12.25 7C10.4551 7 9 5.54493 9 3.75C9 1.95507 10.4551 0.5 12.25 0.5C14.0449 0.5 15.5 1.95507 15.5 3.75Z" fill="#292A2E"/>
</svg>
