<svg width="16" height="16" viewBox="0 0 16 16" fill="none" xmlns="http://www.w3.org/2000/svg">
<path d="M7.68671 9.50522C7.8281 9.34428 8.03284 9.24972 8.24998 9.24971C8.49795 9.24971 8.73015 9.37261 8.86986 9.57748L12.6196 15.0778L11.3809 15.9228L8.99933 12.4317L8.99968 16.0001L7.49967 15.9999L7.4988 12.4328L5.11987 15.9223L3.87998 15.0776L7.62992 9.57736L7.68671 9.50522Z" fill="#292A2E"/>
<path d="M10.6597 2.96325L12.1914 5.6163L14.4395 4.51007L12.7417 1.56947L10.6597 2.96325ZM4.41447 7.14626L5.44621 8.93328L10.8421 6.27919L9.41092 3.80036L4.41447 7.14626ZM15.8059 3.87678C16.2035 4.5656 15.9354 5.44745 15.2216 5.79843L3.11794 11.7502C2.32076 12.1422 1.35621 11.8491 0.911984 11.0798L0.288937 10.0006C-0.155172 9.23127 0.0732408 8.24937 0.811299 7.75499L12.0175 0.248761L12.1443 0.173339C12.7888 -0.166002 13.601 0.0578536 13.9739 0.70361L15.8059 3.87678ZM2.21102 10.3298C2.26036 10.4151 2.36717 10.4473 2.45567 10.4039L4.09688 9.59617L3.16573 7.98337L1.6461 9.00168C1.56429 9.05664 1.53875 9.16522 1.58798 9.25062L2.21102 10.3298Z" fill="#292A2E"/>
</svg>
