<svg width="16" height="16" viewBox="0 0 16 16" fill="none" xmlns="http://www.w3.org/2000/svg">
<path fill-rule="evenodd" clip-rule="evenodd" d="M9.70765 4.31203L3.70243 6.79947L3.7934 7.0191C3.795 7.02279 3.79657 7.0265 3.79812 7.03023L4.75482 9.33992C4.75637 9.34365 4.75788 9.34739 4.75936 9.35112L4.85048 9.57111L6.26746 8.98418C6.39751 8.00532 7.23553 7.2501 8.24994 7.2501C8.70655 7.2501 9.12726 7.40341 9.46347 7.66035L10.8557 7.08367L9.70765 4.31203ZM11.4776 8.44968L10.2299 8.96647C10.2431 9.05921 10.2499 9.15392 10.2499 9.2501C10.2499 9.66501 10.1233 10.0504 9.90737 10.3696L12.1493 14.2499L10.8505 15.0003L8.65943 11.208C8.52711 11.2356 8.3901 11.2501 8.24994 11.2501C8.10978 11.2501 7.97278 11.2356 7.84045 11.208L5.64934 15.0003L4.35054 14.2499L6.51385 10.5057L5.30902 11.0048C4.72748 11.2457 4.07534 11.058 3.7037 10.5871L2.03923 11.2766C1.65654 11.4351 1.21782 11.2533 1.05931 10.8707L0.102598 8.56096C-0.0559151 8.17828 0.125811 7.73955 0.508495 7.58104L2.17306 6.89155C2.10311 6.29596 2.43151 5.70232 3.01292 5.46149L9.18145 2.9064C9.1114 2.31074 9.4398 1.71699 10.0213 1.47614L12.4465 0.471593C12.8292 0.313081 13.2679 0.494807 13.4264 0.87749L15.9138 6.88271C16.0723 7.26539 15.8906 7.70412 15.5079 7.86263L13.0828 8.86717C12.5013 9.10803 11.8492 8.92041 11.4776 8.44968ZM2.69922 8.2972L1.77543 8.67984L2.15811 9.60372L3.0819 9.22108L2.69922 8.2972ZM12.6242 7.43352L10.7108 2.81412L12.3276 2.14443L14.241 6.76382L12.6242 7.43352ZM8.24994 8.7501C7.9738 8.7501 7.74994 8.97396 7.74994 9.2501C7.74994 9.28294 7.75301 9.31437 7.75867 9.34433C7.78248 9.47038 7.85488 9.58174 7.9582 9.65627C8.04019 9.71543 8.13991 9.7501 8.24994 9.7501C8.35997 9.7501 8.45969 9.71543 8.54169 9.65627C8.66932 9.56419 8.74994 9.41658 8.74994 9.2501C8.74994 9.14473 8.71818 9.04905 8.66377 8.96927C8.57249 8.83541 8.42107 8.7501 8.24994 8.7501Z" fill="#44546F"/>
</svg>
