<svg width="16" height="16" viewBox="0 0 16 16" fill="none" xmlns="http://www.w3.org/2000/svg">
<path d="M13.5 3C13.5 2.72386 13.2761 2.5 13 2.5H3C2.72386 2.5 2.5 2.72386 2.5 3V4.5H13.5V3ZM2.5 13C2.5 13.2761 2.72386 13.5 3 13.5H5V6H2.5V13ZM15 8H13.5V6H6.5V13.5H8V15H3C1.89543 15 1 14.1046 1 13V3C1 1.89543 1.89543 1 3 1H13C14.1046 1 15 1.89543 15 3V8Z" fill="#292A2E"/>
<path d="M11.7764 9.16809C12.0709 8.92778 12.5057 8.94524 12.7803 9.21984L15.5303 11.9698L14.4697 13.0304L13 11.5607V16.0001H11.5V11.5607L10.0303 13.0304L8.96973 11.9698L11.7197 9.21984L11.7764 9.16809Z" fill="#292A2E"/>
</svg>
