<svg width="16" height="16" viewBox="0 0 16 16" fill="none" xmlns="http://www.w3.org/2000/svg">
<path d="M14.5 3C14.5 2.75829 14.3286 2.55629 14.1006 2.50977L14 2.5H2C1.72386 2.5 1.5 2.72386 1.5 3V13C1.5 13.2761 1.72386 13.5 2 13.5H14C14.2761 13.5 14.5 13.2761 14.5 13V3ZM16 13C16 14.1046 15.1046 15 14 15H2C0.895431 15 1.00665e-08 14.1046 0 13V3C1.61066e-07 1.89543 0.89543 1 2 1H14L14.2041 1.01074C15.2128 1.113 16 1.96435 16 3V13Z" fill="#292A2E"/>
<path d="M4.28027 4.7207L7.03027 7.4707C7.32313 7.76358 7.3231 8.23836 7.03027 8.53125L4.28027 11.2812L3.21973 10.2207L5.43945 8.00098L3.21973 5.78125L4.28027 4.7207Z" fill="#292A2E"/>
<path d="M12.5 9.5V11H8V9.5H12.5Z" fill="#292A2E"/>
</svg>
