<svg width="16" height="16" viewBox="0 0 16 16" fill="none" xmlns="http://www.w3.org/2000/svg">
<path fill-rule="evenodd" clip-rule="evenodd" d="M5 1C4.44772 1 4 1.44772 4 2V5.5H1V7H15V5.5H11.808C11.9323 5.14812 12 4.76946 12 4.375C12 2.51104 10.489 1 8.625 1H5ZM6 5.5H9.41577C9.76914 5.25116 10 4.84004 10 4.375C10 3.61561 9.38439 3 8.625 3H6V5.5Z" fill="#44546F"/>
<path d="M12.9422 8.5H10.8501C10.9459 8.68752 11 8.89994 11 9.125C11 9.88439 10.3844 10.5 9.625 10.5H6V8.5H4V11.5C4 12.0523 4.44772 12.5 5 12.5H9.625C11.489 12.5 13 10.989 13 9.125C13 8.91145 12.9802 8.70254 12.9422 8.5Z" fill="#44546F"/>
<path d="M0 16L16 16V14.5L0 14.5V16Z" fill="#44546F"/>
</svg>
