<svg width="16" height="16" viewBox="0 0 16 16" fill="none" xmlns="http://www.w3.org/2000/svg">
<path d="M4.72266 3.00012C5.04543 3.00012 5.33245 3.20662 5.43457 3.51281L7.42969 9.49621L8.45996 12.5079C8.48656 12.5859 8.5 12.6677 8.5 12.7501V13.0001H7V12.8751L6.18457 10.4894H2.32031L1.5 12.8741V13.0001H0V12.7501L0.00976562 12.6261C0.0165772 12.5854 0.02757 12.5451 0.0410156 12.506L1.07617 9.49523L3.08203 3.51184C3.18448 3.20632 3.47075 3.00023 3.79297 3.00012H4.72266ZM11.7764 3.16809C12.0709 2.92778 12.5057 2.94524 12.7803 3.21984L15.7803 6.21984L14.7197 7.28039L13 5.56066V11.0001H11.5V5.56066L9.78027 7.28039L8.71973 6.21984L11.7197 3.21984L11.7764 3.16809ZM2.82715 8.98937H5.67969L4.25684 4.72375L2.82715 8.98937Z" fill="#292A2E"/>
</svg>
