<svg width="16" height="16" viewBox="0 0 16 16" fill="none" xmlns="http://www.w3.org/2000/svg">
<path d="M3.25 1C3.44891 1 3.63962 1.07907 3.78027 1.21973L6.28027 3.71973L5.21973 4.78027L4 3.56055V12.4395L5.21973 11.2197L6.28027 12.2803L3.78027 14.7803C3.48738 15.0732 3.01262 15.0732 2.71973 14.7803L0.219727 12.2803L1.28027 11.2197L2.5 12.4395V3.56055L1.28027 4.78027L0.219727 3.71973L2.71973 1.21973L2.83398 1.12598C2.95628 1.04445 3.10085 1 3.25 1ZM13 11.5V13H8V11.5H13ZM16 7.25V8.75H8V7.25H16ZM16 3V4.5H8V3H16Z" fill="#44546F"/>
</svg>
