<svg width="16" height="16" viewBox="0 0 16 16" fill="none" xmlns="http://www.w3.org/2000/svg">
<path d="M3 2.125C3 1.50368 3.50368 1 4.125 1H8.75C11.0036 1 13 2.62564 13 5.0625C13 5.2996 12.9811 5.52901 12.9449 5.75H10.6161C10.7035 5.53885 10.75 5.30698 10.75 5.0625C10.75 4.04758 9.94818 3.25 8.75 3.25H5.25V5.75H3V2.125Z" fill="#292A2E"/>
<path d="M11.6161 10.25H13.9449C13.9811 10.471 14 10.7004 14 10.9375C14 13.3744 12.0036 15 9.75 15H4.125C3.50368 15 3 14.4963 3 13.875V10.25H5.25V12.75H9.75C10.9482 12.75 11.75 11.9524 11.75 10.9375C11.75 10.693 11.7035 10.4611 11.6161 10.25Z" fill="#292A2E"/>
<path d="M16 7.25H0V8.75H16V7.25Z" fill="#292A2E"/>
</svg>
