<svg width="16" height="16" viewBox="0 0 16 16" fill="none" xmlns="http://www.w3.org/2000/svg">
<path fill-rule="evenodd" clip-rule="evenodd" d="M16 13H14.5V12.6211C13.9735 13.0141 13.3351 13.25 12.625 13.25C10.6701 13.25 9.25 11.4739 9.25 9.5C9.25 7.52614 10.6701 5.75 12.625 5.75C13.3349 5.75 13.9736 5.9851 14.5 6.37793V5.75H16V13ZM12.625 7.25C11.6804 7.25 10.75 8.16015 10.75 9.5C10.75 10.8398 11.6804 11.75 12.625 11.75C13.5696 11.75 14.5 10.8398 14.5 9.5C14.5 8.16015 13.5696 7.25 12.625 7.25Z" fill="#292A2E"/>
<path fill-rule="evenodd" clip-rule="evenodd" d="M5.71094 3.50977L8.91504 13H7.33105L6.4873 10.5H2.5127L1.66895 13H0.0849609L3.28906 3.50977L3.46191 3H5.53809L5.71094 3.50977ZM3.01855 9H5.98145L4.5 4.61426L3.01855 9Z" fill="#292A2E"/>
</svg>
