<svg width="16" height="16" viewBox="0 0 16 16" fill="none" xmlns="http://www.w3.org/2000/svg">
<path fill-rule="evenodd" clip-rule="evenodd" d="M4 6.75C4 6.19772 4.44772 5.75 5 5.75H9.625C11.489 5.75 13 7.26104 13 9.125C13 10.989 11.489 12.5 9.625 12.5H5C4.44772 12.5 4 12.0523 4 11.5V6.75ZM6 7.75V10.5H9.625C10.3844 10.5 11 9.88439 11 9.125C11 8.36561 10.3844 7.75 9.625 7.75H6Z" fill="#44546F"/>
<path fill-rule="evenodd" clip-rule="evenodd" d="M4 2C4 1.44772 4.44772 1 5 1H8.625C10.489 1 12 2.51104 12 4.375C12 6.23896 10.489 7.75 8.625 7.75H5C4.44772 7.75 4 7.30228 4 6.75V2ZM6 3V5.75H8.625C9.38439 5.75 10 5.13439 10 4.375C10 3.61561 9.38439 3 8.625 3H6Z" fill="#44546F"/>
<path fill-rule="evenodd" clip-rule="evenodd" d="M16 16L0 16L1.31134e-07 14.5L16 14.5V16Z" fill="#44546F"/>
</svg>
