<svg width="16" height="16" viewBox="0 0 16 16" fill="none" xmlns="http://www.w3.org/2000/svg">
<path d="M4.21457 1.92981C4.3093 1.39208 4.77649 1 5.32251 1H9.94501C11.0696 1 12.1197 1.39821 12.8414 2.18795C13.575 2.9907 13.8672 4.08814 13.6603 5.25838C13.6306 5.42639 13.5919 5.59037 13.5447 5.75H11.078C11.2603 5.48519 11.3882 5.18607 11.4447 4.86663C11.5428 4.31186 11.395 3.94055 11.1805 3.7058C10.9541 3.45804 10.5479 3.25 9.94501 3.25H6.26664L5.82622 5.75H3.54157L4.21457 1.92981Z" fill="#292A2E"/>
<path d="M11.4327 10.25H13.6869C13.6986 10.5371 13.6785 10.8328 13.6253 11.1334C13.2154 13.4516 11.0871 15 8.87501 15H3.25001C2.9175 15 2.60202 14.8529 2.38826 14.5982C2.17451 14.3435 2.08438 14.0073 2.14207 13.6798L2.7463 10.25H5.03095L4.59052 12.75H8.87501C10.1129 12.75 11.2096 11.8734 11.4097 10.7416C11.4421 10.5583 11.4476 10.395 11.4327 10.25Z" fill="#292A2E"/>
<path d="M16 7.25H0V8.75H16V7.25Z" fill="#292A2E"/>
</svg>
