<svg width="16" height="16" viewBox="0 0 16 16" fill="none" xmlns="http://www.w3.org/2000/svg">
<path d="M6.12501 1C5.65631 1 5.2505 1.32553 5.14882 1.78307L4.54506 4.5H4.81734L6.12501 1Z" fill="#44546F"/>
<path d="M6.12501 1H9.07012C10.9931 1 12.4586 2.64686 12.3112 4.5H10.2949C10.4531 3.72719 9.86258 3 9.07012 3H6.92718L6.59385 4.5H4.81734L6.12501 1Z" fill="#44546F"/>
<path d="M12.3267 9H10.326C10.3258 9.0967 10.3162 9.19508 10.2964 9.29417C10.1561 9.99531 9.54052 10.5 8.8255 10.5H5.34481L5.64481 9H3.6052L3.14443 11.3039C3.08567 11.5977 3.16173 11.9023 3.35167 12.134C3.54161 12.3657 3.82542 12.5 4.12501 12.5H8.8255C10.4939 12.5 11.9303 11.3224 12.2575 9.68641C12.3038 9.45519 12.3262 9.22563 12.3267 9Z" fill="#44546F"/>
<path d="M16 16H0V14.5H16V16Z" fill="#44546F"/>
<path d="M15 6H1V7.5H15V6Z" fill="#44546F"/>
</svg>
