<svg width="16" height="16" viewBox="0 0 16 16" fill="none" xmlns="http://www.w3.org/2000/svg">
<path fill-rule="evenodd" clip-rule="evenodd" d="M4.46457 1.92981C4.5593 1.39208 5.02649 1 5.57251 1H10.195C11.3196 1 12.3697 1.39821 13.0914 2.18795C13.825 2.9907 14.1172 4.08814 13.9103 5.25838C13.7413 6.21444 13.28 7.03957 12.641 7.67915C12.7885 7.79464 12.927 7.92249 13.0552 8.06268C13.7889 8.86503 14.0824 9.96242 13.8753 11.1334C13.4654 13.4516 11.3371 15 9.12501 15H3.50001C3.1675 15 2.85202 14.8529 2.63826 14.5982C2.42451 14.3435 2.33438 14.0073 2.39207 13.6798L3.42707 7.80481C3.43143 7.78009 3.43657 7.75568 3.44247 7.7316L4.46457 1.92981ZM5.87802 6.875H9.16001C10.3979 6.875 11.4946 5.99843 11.6947 4.86663C11.7928 4.31186 11.645 3.94055 11.4305 3.7058C11.2041 3.45804 10.7979 3.25 10.195 3.25H6.51664L5.87802 6.875ZM5.47914 9.125L4.84052 12.75H9.12501C10.3629 12.75 11.4596 11.8734 11.6597 10.7416C11.7577 10.1876 11.6098 9.81622 11.3948 9.58107C11.1678 9.33282 10.7613 9.125 10.16 9.125H5.47914Z" fill="#44546F"/>
</svg>
