<svg width="16" height="16" viewBox="0 0 16 16" fill="none" xmlns="http://www.w3.org/2000/svg">
<path d="M0 8C0 3.58172 3.58172 0 8 0C12.4183 0 16 3.58172 16 8H14.5C14.5 4.41015 11.5899 1.5 8 1.5C4.41015 1.5 1.5 4.41015 1.5 8C1.5 11.5899 4.41015 14.5 8 14.5V16C3.58172 16 0 12.4183 0 8ZM12.3262 5.48047L7.32617 11.4805C7.18368 11.6513 6.9725 11.75 6.75 11.75C6.5275 11.75 6.31632 11.6513 6.17383 11.4805L3.67383 8.48047L4.82617 7.51953L6.75 9.82812L11.1738 4.51953L12.3262 5.48047Z" fill="#292A2E"/>
<path d="M13.1152 10.0088C13.3441 10.0443 13.5441 10.1841 13.6562 10.3867L13.7051 10.4932L14.1064 11.5947C14.157 11.7333 14.2667 11.843 14.4053 11.8936L15.5068 12.2949C15.8031 12.403 16 12.685 16 13C16 13.3152 15.803 13.5971 15.5068 13.7051L14.4053 14.1064C14.2667 14.157 14.157 14.2667 14.1064 14.4053L13.7051 15.5068C13.5971 15.8029 13.3153 16 13 16C12.6848 16 12.4029 15.803 12.2949 15.5068L11.8936 14.4053C11.843 14.2667 11.7333 14.157 11.5947 14.1064L10.4932 13.7051C10.2339 13.6105 10.0505 13.3827 10.0088 13.1162L10 13L10.0088 12.8838C10.0505 12.6172 10.234 12.3895 10.4932 12.2949L11.5947 11.8936C11.7333 11.843 11.843 11.7333 11.8936 11.5947L12.2949 10.4932L12.3438 10.3867C12.4742 10.1511 12.7236 10.0004 12.999 10L13.1152 10.0088Z" fill="#292A2E"/>
</svg>
