<svg width="16" height="16" viewBox="0 0 16 16" fill="none" xmlns="http://www.w3.org/2000/svg">
<path d="M11 1V2.5H6.25098V15H4.75098V2.5H0V1H11ZM14.5 12.375V11.875C14.5 11.2537 13.9963 10.75 13.375 10.75H11.625C10.1753 10.75 9 9.57475 9 8.125V7.625C9 6.17525 10.1753 5 11.625 5H13.5C14.8807 5 16 6.11929 16 7.5H14.5C14.5 6.94772 14.0523 6.5 13.5 6.5H11.625C11.0037 6.5 10.5 7.00368 10.5 7.625V8.125C10.5 8.74632 11.0037 9.25 11.625 9.25H13.375C14.8247 9.25 16 10.4253 16 11.875V12.375C16 13.8247 14.8247 15 13.375 15H11.5C10.1193 15 9 13.8807 9 12.5H10.5C10.5 13.0523 10.9477 13.5 11.5 13.5H13.375C13.9963 13.5 14.5 12.9963 14.5 12.375Z" fill="#292A2E"/>
</svg>
