<svg width="16" height="16" viewBox="0 0 16 16" fill="none" xmlns="http://www.w3.org/2000/svg">
<path d="M5 1C4.44772 1 4 1.44772 4 2V4.5H6V3H8.625C9.38439 3 10 3.61561 10 4.375C10 4.41714 9.99811 4.45883 9.99439 4.5H11.9977C11.9992 4.45852 12 4.41685 12 4.375C12 2.51104 10.489 1 8.625 1H5Z" fill="#292A2E"/>
<path d="M12.9977 9H10.9944C10.9981 9.04117 11 9.08286 11 9.125C11 9.88439 10.3844 10.5 9.625 10.5H6V9H4V11.5C4 12.0523 4.44772 12.5 5 12.5H9.625C11.489 12.5 13 10.989 13 9.125C13 9.08315 12.9992 9.04148 12.9977 9Z" fill="#292A2E"/>
<path d="M16 16H0V14.5H16V16Z" fill="#292A2E"/>
<path d="M15 6H1V7.5H15V6Z" fill="#292A2E"/>
</svg>
