<svg width="16" height="16" viewBox="0 0 16 16" fill="none" xmlns="http://www.w3.org/2000/svg">
<path fill-rule="evenodd" clip-rule="evenodd" d="M4.125 1C3.50368 1 3 1.50368 3 2.125V7.25H1V8.75H15V7.25H12.3661C12.7653 6.63806 13 5.89796 13 5.0625C13 2.62564 11.0036 1 8.75 1H4.125ZM10.75 5.0625C10.75 6.07742 9.94818 6.875 8.75 6.875H5.25V3.25H8.75C9.94818 3.25 10.75 4.04758 10.75 5.0625Z" fill="#44546F"/>
<path d="M13.9449 10.25H11.6161C11.7035 10.4611 11.75 10.693 11.75 10.9375C11.75 11.9524 10.9482 12.75 9.75 12.75H5.25V10.25H3V13.875C3 14.4963 3.50368 15 4.125 15H9.75C12.0036 15 14 13.3744 14 10.9375C14 10.7004 13.9811 10.471 13.9449 10.25Z" fill="#44546F"/>
</svg>
