<svg width="16" height="16" viewBox="0 0 16 16" fill="none" xmlns="http://www.w3.org/2000/svg">
<path d="M4.72266 3C5.04543 3 5.33245 3.2065 5.43457 3.5127L7.42969 9.49609L8.45996 12.5078C8.48656 12.5858 8.5 12.6676 8.5 12.75V13H7V12.875L6.18457 10.4893H2.32031L1.5 12.874V13H0V12.75L0.00976562 12.626C0.0165772 12.5853 0.02757 12.545 0.0410156 12.5059L1.07617 9.49512L3.08203 3.51172L3.12891 3.40137C3.25678 3.1575 3.51118 3.0001 3.79297 3H4.72266ZM13 3V8.43945L14.7197 6.71973L15.7803 7.78027L12.7803 10.7803C12.4874 11.0732 12.0126 11.0732 11.7197 10.7803L8.71973 7.78027L9.78027 6.71973L11.5 8.43945V3H13ZM2.82715 8.98926H5.67969L4.25684 4.72363L2.82715 8.98926Z" fill="#292A2E"/>
</svg>
