<svg width="16" height="16" viewBox="0 0 16 16" fill="none" xmlns="http://www.w3.org/2000/svg">
<path fill-rule="evenodd" clip-rule="evenodd" d="M1 1.00098H15V2.50098H1V1.00098ZM1 5.16728H15V6.66728H1V5.16728ZM1 9.33358H8V10.8336H1V9.33358ZM1 13.4999H6V14.9999H1V13.4999Z" fill="#44546F"/>
<path fill-rule="evenodd" clip-rule="evenodd" d="M12.3358 8.60361C13.1168 7.82256 14.3832 7.82256 15.1642 8.60361L15.3965 8.83584C16.1775 9.61689 16.1775 10.8832 15.3965 11.6643L12.048 15.0128C11.7688 15.292 11.4132 15.4823 11.026 15.5597L8.8971 15.9855C8.6512 16.0347 8.397 15.9577 8.21968 15.7804C8.04236 15.6031 7.9654 15.3489 8.01458 15.103L8.44035 12.9741C8.51779 12.5869 8.7081 12.2313 8.9873 11.9521L12.3358 8.60361ZM14.1036 9.66427C13.9083 9.46901 13.5917 9.46901 13.3965 9.66427L10.048 13.0128C9.97816 13.0826 9.93058 13.1715 9.91122 13.2683L9.70608 14.294L10.7318 14.0888C10.8286 14.0695 10.9175 14.0219 10.9873 13.9521L14.3358 10.6036C14.5311 10.4083 14.5311 10.0918 14.3358 9.8965L14.1036 9.66427Z" fill="#44546F"/>
</svg>
