<svg width="16" height="16" viewBox="0 0 16 16" fill="none" xmlns="http://www.w3.org/2000/svg">
<path fill-rule="evenodd" clip-rule="evenodd" d="M16 16L0 16L1.31134e-07 14.5L16 14.5V16Z" fill="#292A2E"/>
<path fill-rule="evenodd" clip-rule="evenodd" d="M4.14442 6.30388C4.2379 5.83646 4.64832 5.5 5.125 5.5H8.82549C11.0342 5.5 12.6907 7.52064 12.2575 9.68641C11.9303 11.3224 10.4939 12.5 8.82549 12.5H4.125C3.82541 12.5 3.5416 12.3657 3.35166 12.134C3.16172 11.9023 3.08566 11.5977 3.14442 11.3039L4.14442 6.30388ZM5.9448 7.5L5.3448 10.5H8.82549C9.54051 10.5 10.1561 9.99531 10.2964 9.29417C10.482 8.36599 9.77206 7.5 8.82549 7.5H5.9448Z" fill="#292A2E"/>
<path fill-rule="evenodd" clip-rule="evenodd" d="M5.14881 1.78307C5.25049 1.32553 5.6563 1 6.125 1H9.07011C11.1493 1 12.6938 2.92535 12.2427 4.95502C11.9123 6.44202 10.5934 7.5 9.07011 7.5H5.125C4.82168 7.5 4.53475 7.36233 4.34496 7.12573C4.15516 6.88913 4.08301 6.57917 4.14881 6.28307L5.14881 1.78307ZM6.92717 3L6.37162 5.5H9.07011C9.65599 5.5 10.1633 5.09309 10.2903 4.52116C10.4638 3.74052 9.8698 3 9.07011 3H6.92717Z" fill="#292A2E"/>
</svg>
