<svg width="16" height="16" viewBox="0 0 16 16" fill="none" xmlns="http://www.w3.org/2000/svg">
<path d="M12.3549 8.60132C13.1359 7.82039 14.402 7.8204 15.183 8.60132L15.4154 8.83374C16.1963 9.61476 16.1963 10.8808 15.4154 11.6619L12.0668 15.0105C11.7877 15.2896 11.4323 15.4799 11.0453 15.5574L8.91637 15.9832C8.67048 16.0323 8.41596 15.9554 8.23864 15.7781C8.06132 15.6008 7.98438 15.3462 8.03356 15.1003L8.45934 12.9714C8.53683 12.5844 8.72714 12.229 9.00622 11.95L12.3549 8.60132ZM14.1224 9.66186C13.9272 9.46673 13.6106 9.46673 13.4154 9.66186L10.0668 13.0105C9.99699 13.0803 9.9494 13.1696 9.93005 13.2664L9.72497 14.2917L10.7504 14.0867C10.8471 14.0673 10.9364 14.0197 11.0062 13.95L14.3549 10.6013C14.55 10.4061 14.55 10.0895 14.3549 9.89429L14.1224 9.66186Z" fill="#292A2E"/>
<path d="M15 2V3.5H1V2H15Z" fill="#292A2E"/>
<path d="M9.5 7.25V8.75H1V7.25H9.5Z" fill="#292A2E"/>
<path d="M6 12.5V14H1V12.5H6Z" fill="#292A2E"/>
</svg>
