<svg width="16" height="16" viewBox="0 0 16 16" fill="none" xmlns="http://www.w3.org/2000/svg">
<path d="M15.0016 13.9338L13.941 14.9945L11.8196 12.8732L12.8803 11.8125L15.0016 13.9338Z" fill="#292A2E"/>
<path d="M12.25 10C12.25 8.75736 11.2426 7.75 10 7.75C8.75736 7.75 7.75 8.75736 7.75 10C7.75 11.2426 8.75736 12.25 10 12.25C11.2426 12.25 12.25 11.2426 12.25 10ZM13.75 10C13.75 12.0711 12.0711 13.75 10 13.75C7.92893 13.75 6.25 12.0711 6.25 10C6.25 7.92893 7.92893 6.25 10 6.25C12.0711 6.25 13.75 7.92893 13.75 10Z" fill="#292A2E"/>
<path d="M4.5 7.25V8.75H1V7.25H4.5Z" fill="#292A2E"/>
<path d="M4.5 12.5V14H1V12.5H4.5Z" fill="#292A2E"/>
<path d="M15 2V3.5H1V2H15Z" fill="#292A2E"/>
</svg>
