<svg width="16" height="17" viewBox="0 0 16 17" fill="none" xmlns="http://www.w3.org/2000/svg">
<path fill-rule="evenodd" clip-rule="evenodd" d="M6.12499 1.75C5.65629 1.75 5.25048 2.07553 5.1488 2.53307L4.32282 6.25H1V7.75H15V6.25H12.0704C12.1427 6.07614 12.2007 5.89405 12.2427 5.70502C12.6938 3.67535 11.1493 1.75 9.0701 1.75H6.12499ZM6.37161 6.25L6.92716 3.75H9.0701C9.86979 3.75 10.4638 4.49052 10.2903 5.27116C10.1632 5.84309 9.65598 6.25 9.0701 6.25H6.37161Z" fill="#44546F"/>
<path d="M12.2915 9.25H10.2404C10.3273 9.49486 10.3518 9.76674 10.2964 10.0442C10.1561 10.7453 9.5405 11.25 8.82548 11.25H5.3448L5.7448 9.25H3.70519L3.14441 12.0539C3.08566 12.3477 3.16171 12.6523 3.35165 12.884C3.54159 13.1157 3.8254 13.25 4.12499 13.25H8.82548C10.4939 13.25 11.9303 12.0724 12.2575 10.4364C12.3384 10.0318 12.3464 9.63225 12.2915 9.25Z" fill="#44546F"/>
<path d="M0 16.75H16V15.25H0V16.75Z" fill="#44546F"/>
</svg>
