<svg width="16" height="16" viewBox="0 0 16 16" fill="none" xmlns="http://www.w3.org/2000/svg">
<path fill-rule="evenodd" clip-rule="evenodd" d="M0 2.75C0 2.33579 0.335786 2 0.75 2H15.25C15.6642 2 16 2.33579 16 2.75V6.25C16 6.66421 15.6642 7 15.25 7H15C14.4477 7 14 7.44772 14 8C14 8.55228 14.4477 9 15 9H15.25C15.6642 9 16 9.33579 16 9.75V13.25C16 13.6642 15.6642 14 15.25 14H0.75C0.335786 14 0 13.6642 0 13.25V9.75C0 9.33579 0.335786 9 0.75 9H1C1.55228 9 2 8.55228 2 8C2 7.44772 1.55228 7 1 7H0.75C0.335786 7 0 6.66421 0 6.25V2.75ZM1.5 3.5V5.55001C2.64112 5.78164 3.5 6.79052 3.5 8C3.5 9.20948 2.64112 10.2184 1.5 10.45V12.5H14.5V10.45C13.3589 10.2184 12.5 9.20948 12.5 8C12.5 6.79052 13.3589 5.78164 14.5 5.55001V3.5H1.5ZM9 6V4.5H10.5V6H9ZM10.5 8.75H9V7.25H10.5V8.75ZM9 11.5V10H10.5V11.5H9Z" fill="#44546F"/>
</svg>
