<svg width="16" height="16" viewBox="0 0 16 16" fill="none" xmlns="http://www.w3.org/2000/svg">
<path d="M1.75 5.91667V3C1.75 2.30964 2.30964 1.75 3 1.75H5.91667M1.75 5.91667V10.0833M1.75 5.91667H14.25M1.75 10.0833V13C1.75 13.6904 2.30964 14.25 3 14.25H5.91667M1.75 10.0833H14.25M14.25 5.91667V3C14.25 2.30964 13.6904 1.75 13 1.75H10.0833M14.25 5.91667V10.0833M14.25 10.0833V13C14.25 13.6904 13.6904 14.25 13 14.25H10.0833M5.91667 1.75H10.0833M5.91667 1.75V14.25M10.0833 1.75V14.25M5.91667 14.25H10.0833" stroke="#44546F" stroke-width="1.5" stroke-linejoin="round"/>
</svg>
