<svg width="16" height="16" viewBox="0 0 16 16" fill="none" xmlns="http://www.w3.org/2000/svg">
<path fill-rule="evenodd" clip-rule="evenodd" d="M3 2.5C2.72386 2.5 2.5 2.72386 2.5 3V5.16667H5.16667V2.5H3ZM6.66667 2.5V5.16667H9.33333V2.5H6.66667ZM10.8333 2.5V5.16667H13.5V3C13.5 2.72386 13.2761 2.5 13 2.5H10.8333ZM13.5 6.66667H10.8333V9.33333H13.5V6.66667ZM13.5 10.8333H10.8333V13.5H13C13.2761 13.5 13.5 13.2761 13.5 13V10.8333ZM9.33333 13.5V10.8333H6.66667V13.5H9.33333ZM5.16667 13.5V10.8333H2.5V13C2.5 13.2761 2.72386 13.5 3 13.5H5.16667ZM2.5 9.33333H5.16667V6.66667H2.5V9.33333ZM6.66667 6.66667V9.33333H9.33333V6.66667H6.66667ZM1 3C1 1.89543 1.89543 1 3 1H13C14.1046 1 15 1.89543 15 3V13C15 14.1046 14.1046 15 13 15H3C1.89543 15 1 14.1046 1 13V3Z" fill="#44546F"/>
</svg>
