<svg width="16" height="16" viewBox="0 0 16 16" fill="none" xmlns="http://www.w3.org/2000/svg">
<path fill-rule="evenodd" clip-rule="evenodd" d="M10 1L12.5 1C13.6046 1 14.5 1.89543 14.5 3V7.25L16 7.25V8.75L14.5 8.75V13C14.5 14.1046 13.6046 15 12.5 15H10V13.5H12.5C12.7761 13.5 13 13.2761 13 13L13 3C13 2.72386 12.7761 2.5 12.5 2.5L10 2.5V1ZM1.5 3C1.5 1.89543 2.39543 1 3.5 1H6V2.5H3.5C3.22386 2.5 3 2.72386 3 3V13C3 13.2761 3.22386 13.5 3.5 13.5H6V15H3.5C2.39543 15 1.5 14.1046 1.5 13V8.75H0V7.25H1.5V3ZM7.33668 5.05028C7.44466 4.75425 7.72616 4.55728 8.04127 4.55728C8.35638 4.55728 8.63835 4.75425 8.74633 5.05028L9.36147 6.73668L11.0479 7.35182C11.3439 7.4598 11.5409 7.7413 11.5409 8.05641C11.5409 8.37151 11.3439 8.65348 11.0479 8.76147L9.36147 9.3766L8.74633 11.063C8.63835 11.359 8.35684 11.556 8.04174 11.556C7.72663 11.556 7.44466 11.359 7.33668 11.063L6.72154 9.3766L5.03514 8.76147C4.73937 8.65358 4.54247 8.37246 4.54215 8.05764C4.54183 7.74225 4.73885 7.45989 5.03514 7.35182L6.72154 6.73668L7.33668 5.05028Z" fill="#44546F"/>
</svg>
