<svg width="16" height="16" viewBox="0 0 16 16" fill="none" xmlns="http://www.w3.org/2000/svg">
<path d="M8 3.25H4.38685C3.85567 3.25 3.3825 3.5857 3.20703 4.08706L1.89035 7.84899C1.79745 8.11443 1.75 8.39364 1.75 8.67486V11.5C1.75 12.1904 2.30964 12.75 3 12.75H4.5M8 3.25H11.6131C12.1443 3.25 12.6175 3.5857 12.793 4.08706L14.1096 7.84899C14.2025 8.11443 14.25 8.39364 14.25 8.67486V11.5C14.25 12.1904 13.6904 12.75 13 12.75H11.5M8 3.25V0.75M8 0.75H12M8 0.75H4M4.5 12.75L2.75 15.5M4.5 12.75H11.5M11.5 12.75L13.25 15.5M5.5 15.25H10.5M14 8.25H2" stroke="#44546F" stroke-width="1.5" stroke-linejoin="round"/>
<path d="M5 10.5C5 10.9142 4.66421 11.25 4.25 11.25C3.83579 11.25 3.5 10.9142 3.5 10.5C3.5 10.0858 3.83579 9.75 4.25 9.75C4.66421 9.75 5 10.0858 5 10.5Z" fill="#44546F"/>
<path d="M12.5 10.5C12.5 10.9142 12.1642 11.25 11.75 11.25C11.3358 11.25 11 10.9142 11 10.5C11 10.0858 11.3358 9.75 11.75 9.75C12.1642 9.75 12.5 10.0858 12.5 10.5Z" fill="#44546F"/>
</svg>
