<svg width="16" height="16" viewBox="0 0 16 16" fill="none" xmlns="http://www.w3.org/2000/svg">
<path fill-rule="evenodd" clip-rule="evenodd" d="M15.2802 0.719596C16.1944 1.63381 16.1944 3.11604 15.2802 4.03026L13.0619 6.24855L14.4862 13.6074C14.5407 13.8893 14.4296 14.1776 14.1998 14.3499L12.1998 15.8499C12.0132 15.9899 11.772 16.0351 11.5473 15.9721C11.3227 15.9091 11.1401 15.7451 11.0535 15.5285L8.95657 10.2862L7.04208 12.0411L7.24405 13.6569C7.27275 13.8866 7.19382 14.1166 7.03017 14.2803L5.53017 15.7803C5.36303 15.9474 5.12689 16.026 4.89294 15.9923C4.65898 15.9586 4.4546 15.8166 4.34142 15.6091L2.94705 13.0527L0.3907 11.6583C0.183196 11.5452 0.0411892 11.3408 0.00749782 11.1068C-0.0261936 10.8729 0.0523739 10.6367 0.21951 10.4696L1.71951 8.96959C1.88316 8.80594 2.11321 8.72701 2.34287 8.75572L3.95863 8.95769L5.71358 7.0432L0.471297 4.94628C0.25466 4.85963 0.0906928 4.67709 0.027695 4.45243C-0.0353028 4.22777 0.00984512 3.98659 0.14984 3.79993L1.64984 1.79993C1.82213 1.57021 2.11045 1.45903 2.39236 1.51359L9.75122 2.93789L11.9695 0.719596C12.8837 -0.194618 14.366 -0.194618 15.2802 0.719596ZM14.2195 2.9696C14.5479 2.64117 14.5479 2.10868 14.2195 1.78026C13.8911 1.45183 13.3586 1.45183 13.0302 1.78026L10.5302 4.28026C10.354 4.45641 10.1019 4.5336 9.85732 4.48626L2.56819 3.07546L1.93702 3.91702L7.27838 6.05357C7.5071 6.14506 7.67631 6.34303 7.73107 6.5832C7.78583 6.82338 7.71916 7.07513 7.55271 7.25672L4.80271 10.2567C4.63856 10.4358 4.39785 10.5243 4.15681 10.4941L2.52079 10.2896L1.98894 10.8215L3.85898 11.8415C3.9854 11.9105 4.0893 12.0144 4.15826 12.1408L5.17828 14.0108L5.71013 13.479L5.50563 11.843C5.4755 11.6019 5.56398 11.3612 5.74305 11.1971L8.74305 8.44706C8.92464 8.2806 9.17639 8.21393 9.41656 8.26869C9.65674 8.32345 9.85471 8.49266 9.9462 8.72138L12.0827 14.0627L12.9243 13.4316L11.5135 6.14244C11.4662 5.89787 11.5434 5.64575 11.7195 5.4696L14.2195 2.9696Z" fill="#292A2E"/>
</svg>
