<svg width="16" height="16" viewBox="0 0 16 16" fill="none" xmlns="http://www.w3.org/2000/svg">
<path fill-rule="evenodd" clip-rule="evenodd" d="M4 0H12V1.5H8.75V2.5H11.6131C12.463 2.5 13.2201 3.03713 13.5009 3.8393L14.8175 7.60123C14.9383 7.9463 15 8.30927 15 8.67486V11.5C15 12.6046 14.1046 13.5 13 13.5H12.8663L13.8827 15.0973L12.6173 15.9027L11.0883 13.5H4.91171L3.38275 15.9027L2.11725 15.0973L3.13375 13.5H3C1.89543 13.5 1 12.6046 1 11.5V8.67486C1 8.30927 1.06169 7.9463 1.18246 7.60123L2.49913 3.8393C2.7799 3.03712 3.53696 2.5 4.38685 2.5H7.25V1.5H4V0ZM4.38685 4C4.17438 4 3.98511 4.13428 3.91492 4.33482L2.80711 7.5H13.1929L12.0851 4.33482C12.0149 4.13428 11.8256 4 11.6131 4H4.38685ZM13.5 9H2.5V11.5C2.5 11.7761 2.72386 12 3 12H13C13.2761 12 13.5 11.7761 13.5 11.5V9ZM10.5 14.5V16H5.5V14.5H10.5Z" fill="#292A2E"/>
<path d="M5 10.5C5 10.9142 4.66421 11.25 4.25 11.25C3.83579 11.25 3.5 10.9142 3.5 10.5C3.5 10.0858 3.83579 9.75 4.25 9.75C4.66421 9.75 5 10.0858 5 10.5Z" fill="#292A2E"/>
<path d="M12.5 10.5C12.5 10.9142 12.1642 11.25 11.75 11.25C11.3358 11.25 11 10.9142 11 10.5C11 10.0858 11.3358 9.75 11.75 9.75C12.1642 9.75 12.5 10.0858 12.5 10.5Z" fill="#292A2E"/>
</svg>
