<svg width="16" height="16" viewBox="0 0 16 16" fill="none" xmlns="http://www.w3.org/2000/svg">
<path fill-rule="evenodd" clip-rule="evenodd" d="M15.2803 0.719596C16.1946 1.63381 16.1946 3.11604 15.2803 4.03026L13.062 6.24855L14.4863 13.6074C14.5409 13.8893 14.4297 14.1776 14.2 14.3499L12.2 15.8499C12.0133 15.9899 11.7722 16.0351 11.5475 15.9721C11.3228 15.9091 11.1403 15.7451 11.0536 15.5285L8.95674 10.2862L7.04224 12.0411L7.24422 13.6569C7.27292 13.8866 7.19399 14.1166 7.03034 14.2803L5.53034 15.7803C5.3632 15.9474 5.12706 16.026 4.8931 15.9923C4.65915 15.9586 4.45477 15.8166 4.34159 15.6091L2.94722 13.0527L0.390868 11.6583C0.183364 11.5452 0.0413571 11.3408 0.00766567 11.1068C-0.0260257 10.8729 0.0525418 10.6367 0.219678 10.4696L1.71968 8.96959C1.88333 8.80594 2.11338 8.72701 2.34303 8.75572L3.9588 8.95769L5.71375 7.0432L0.471464 4.94628C0.254828 4.85963 0.0908607 4.67709 0.0278629 4.45243C-0.0351349 4.22777 0.010013 3.98659 0.150008 3.79993L1.65001 1.79993C1.82229 1.57021 2.11061 1.45903 2.39252 1.51359L9.75139 2.93789L11.9697 0.719596C12.8839 -0.194618 14.3661 -0.194618 15.2803 0.719596ZM14.2197 2.9696C14.5481 2.64117 14.5481 2.10868 14.2197 1.78026C13.8913 1.45183 13.3588 1.45183 13.0303 1.78026L10.5303 4.28026C10.3542 4.45641 10.1021 4.5336 9.85749 4.48626L2.56836 3.07546L1.93719 3.91702L7.27855 6.05357C7.50727 6.14506 7.67648 6.34303 7.73124 6.5832C7.786 6.82338 7.71933 7.07513 7.55287 7.25672L4.80287 10.2567C4.63873 10.4358 4.39802 10.5243 4.15698 10.4941L2.52096 10.2896L1.98911 10.8215L3.85915 11.8415C3.98557 11.9105 4.08947 12.0144 4.15843 12.1408L5.17845 14.0108L5.7103 13.479L5.5058 11.843C5.47567 11.6019 5.56415 11.3612 5.74321 11.1971L8.74321 8.44706C8.9248 8.2806 9.17656 8.21393 9.41673 8.26869C9.65691 8.32345 9.85488 8.49266 9.94636 8.72138L12.0829 14.0627L12.9245 13.4316L11.5137 6.14244C11.4663 5.89787 11.5435 5.64575 11.7197 5.4696L14.2197 2.9696Z" fill="#292A2E"/>
</svg>
