<svg width="16" height="16" viewBox="0 0 16 16" fill="none" xmlns="http://www.w3.org/2000/svg">
<path fill-rule="evenodd" clip-rule="evenodd" d="M8.74996 13.3999V14.9999H7.24996V13.3999L8.74996 13.3999ZM12.75 12.5L16 12.5V14L12.75 14C11.6454 14 10.75 13.1046 10.75 12L10.75 4.00004C10.75 2.89547 11.6454 2.00004 12.75 2.00004L16 2.00004V3.50004L12.75 3.50004C12.4738 3.50004 12.25 3.72389 12.25 4.00004L12.25 12C12.25 12.2762 12.4738 12.5 12.75 12.5ZM3.24999 12.5C3.52613 12.5 3.74999 12.2762 3.74999 12L3.74999 4.00004C3.74999 3.72389 3.52613 3.50004 3.24999 3.50004L-1.51277e-05 3.50004L-1.52588e-05 2.00004L3.24999 2.00004C4.35455 2.00004 5.24999 2.89547 5.24999 4.00004L5.24999 12C5.24999 13.1046 4.35456 14 3.24999 14H-1.42097e-05L-1.43409e-05 12.5H3.24999ZM8.74996 10.2998V11.8998H7.24996V10.2998H8.74996ZM8.74996 7.19971L8.74996 8.79971H7.24996V7.19971H8.74996ZM8.74996 4.1001V5.7001H7.24997L7.24996 4.1001L8.74996 4.1001ZM8.74996 1V2.6L7.24996 2.6V1L8.74996 1Z" fill="#44546F"/>
</svg>
