<svg width="16" height="16" viewBox="0 0 16 16" fill="none" xmlns="http://www.w3.org/2000/svg">
<path fill-rule="evenodd" clip-rule="evenodd" d="M0 4C0 2.89543 0.89543 2 2 2H14C15.1046 2 16 2.89543 16 4V12C16 13.1046 15.1046 14 14 14H2C0.895431 14 0 13.1046 0 12V4ZM2 3.5C1.72386 3.5 1.5 3.72386 1.5 4V12C1.5 12.2761 1.72386 12.5 2 12.5H14C14.2761 12.5 14.5 12.2761 14.5 12V4C14.5 3.72386 14.2761 3.5 14 3.5H2ZM4.74927 6.5V9.5H5.99927V9H7.49927V9.625C7.49927 10.3844 6.88366 11 6.12427 11H4.62427C3.86488 11 3.24927 10.3844 3.24927 9.625V6.375C3.24927 5.61561 3.86488 5 4.62427 5H6.12427C6.88366 5 7.49927 5.61561 7.49927 6.375V7H5.99927V6.5H4.74927ZM9.99927 6.5V9.5H11.2493V9H12.7493V9.625C12.7493 10.3844 12.1337 11 11.3743 11H9.87427C9.11488 11 8.49927 10.3844 8.49927 9.625V6.375C8.49927 5.61561 9.11488 5 9.87427 5H11.3743C12.1337 5 12.7493 5.61561 12.7493 6.375V7H11.2493V6.5H9.99927Z" fill="#44546F"/>
</svg>
