<svg width="16" height="16" viewBox="0 0 16 16" fill="none" xmlns="http://www.w3.org/2000/svg">
<path fill-rule="evenodd" clip-rule="evenodd" d="M7.99976 1.5C4.4099 1.5 1.49976 4.41015 1.49976 8C1.49976 11.5899 4.4099 14.5 7.99976 14.5C11.5896 14.5 14.4998 11.5899 14.4998 8C14.4998 4.41015 11.5896 1.5 7.99976 1.5ZM-0.000244141 8C-0.000244141 3.58172 3.58148 0 7.99976 0C12.418 0 15.9998 3.58172 15.9998 8C15.9998 12.4183 12.418 16 7.99976 16C3.58148 16 -0.000244141 12.4183 -0.000244141 8ZM5 5.30614C5 4.49835 5.86575 3.98602 6.57384 4.37477L11.5316 7.0967C12.2665 7.50017 12.2665 8.55597 11.5316 8.95943L6.57384 11.6814C5.86575 12.0701 5 11.5578 5 10.75V5.30614ZM6.5 6.04543V10.0107L10.1112 8.02807L6.5 6.04543Z" fill="#292A2E"/>
<path d="M6.5 10.0107V6.04543L10.1112 8.02807L6.5 10.0107Z" fill="#292A2E"/>
</svg>
