<svg width="16" height="16" viewBox="0 0 16 16" fill="none" xmlns="http://www.w3.org/2000/svg">
<path d="M7.99902 5.12571C7.99902 4.14436 8.98583 3.5039 9.8623 3.84055L10.0352 3.92063L15.2861 6.79661C16.2376 7.31812 16.2377 8.68337 15.2861 9.20481L10.0352 12.0808C9.1213 12.581 7.99921 11.922 7.99902 10.8757V8.03001C7.98928 8.49199 7.75221 8.94956 7.28613 9.20481L2.03613 12.0808C1.12224 12.5812 0.000191182 11.9221 0 10.8757V5.12571C0 4.14452 0.985939 3.50428 1.8623 3.84055L2.03613 3.92063L7.28613 6.79661C7.75124 7.05138 7.98843 7.50744 7.99902 7.96848V5.12571Z" fill="#292A2E"/>
</svg>
