<svg width="16" height="16" viewBox="0 0 16 16" fill="none" xmlns="http://www.w3.org/2000/svg">
<path fill-rule="evenodd" clip-rule="evenodd" d="M6.25 0H11.5C11.9142 0 12.25 0.335786 12.25 0.75V6H10.75V2.56066L6.28033 7.03033L5.21967 5.96967L9.68934 1.5H6.25V0ZM1.5 10V14.5H6V10H1.5ZM0 9.875C0 9.11561 0.615609 8.5 1.375 8.5H6.125C6.88439 8.5 7.5 9.11561 7.5 9.875V14.625C7.5 15.3844 6.88439 16 6.125 16H1.375C0.615609 16 0 15.3844 0 14.625V9.875ZM11.5 10H9V8.5H15.5V10H13V16H11.5V10Z" fill="#44546F"/>
</svg>
