<svg width="16" height="16" viewBox="0 0 16 16" fill="none" xmlns="http://www.w3.org/2000/svg">
<path fill-rule="evenodd" clip-rule="evenodd" d="M1.81066 3.75006L4.28033 1.28039L3.21967 0.219727L0.21967 3.21973C-0.0732233 3.51262 -0.0732233 3.98749 0.21967 4.28039L3.21967 7.28039L4.28033 6.21973L1.81066 3.75006Z" fill="#44546F"/>
<path fill-rule="evenodd" clip-rule="evenodd" d="M6.06066 4.50006L7.78033 6.21973L6.71967 7.28039L3.71967 4.28039C3.42678 3.98749 3.42678 3.51262 3.71967 3.21973L6.71967 0.219727L7.78033 1.28039L6.06066 3.00006H11.75C13.5449 3.00006 15 4.45513 15 6.25006V9.75006C15 11.545 13.5449 13.0001 11.75 13.0001H11V11.5001H11.75C12.7165 11.5001 13.5 10.7166 13.5 9.75006V6.25006C13.5 5.28356 12.7165 4.50006 11.75 4.50006H6.06066Z" fill="#44546F"/>
<path fill-rule="evenodd" clip-rule="evenodd" d="M8 9.5H4.75C4.33579 9.5 4 9.83579 4 10.25V12.75C4 13.1642 4.33579 13.5 4.75 13.5H6.5V14.5H4V16H6.625C7.38439 16 8 15.3844 8 14.625V13.375C8 12.6156 7.38439 12 6.625 12H5.5V11H8V9.5Z" fill="#44546F"/>
</svg>
