<svg width="16" height="16" viewBox="0 0 16 16" fill="none" xmlns="http://www.w3.org/2000/svg">
<path fill-rule="evenodd" clip-rule="evenodd" d="M0 4C0 2.89543 0.89543 2 2 2H14C15.1046 2 16 2.89543 16 4V12C16 13.1046 15.1046 14 14 14H2C0.895431 14 0 13.1046 0 12V4ZM4.74927 9.50012V6.50012H5.99927V7.00012H7.49927V6.37512C7.49927 5.61573 6.88366 5.00012 6.12427 5.00012H4.62427C3.86488 5.00012 3.24927 5.61573 3.24927 6.37512V9.62512C3.24927 10.3845 3.86488 11.0001 4.62427 11.0001H6.12427C6.88366 11.0001 7.49927 10.3845 7.49927 9.62512V9.00012H5.99927V9.50012H4.74927ZM9.99927 9.50012V6.50012H11.2493V7.00012H12.7493V6.37512C12.7493 5.61573 12.1337 5.00012 11.3743 5.00012H9.87427C9.11488 5.00012 8.49927 5.61573 8.49927 6.37512V9.62512C8.49927 10.3845 9.11488 11.0001 9.87427 11.0001H11.3743C12.1337 11.0001 12.7493 10.3845 12.7493 9.62512V9.00012H11.2493V9.50012H9.99927Z" fill="#292A2E"/>
</svg>
