<svg width="16" height="16" viewBox="0 0 16 16" fill="none" xmlns="http://www.w3.org/2000/svg">
<path d="M8.00098 5.12571C8.00098 4.14436 7.01417 3.5039 6.13769 3.84055L5.96484 3.92063L0.713866 6.79661C-0.237753 7.31807 -0.237751 8.68335 0.713866 9.20481L5.96484 12.0808C6.8788 12.5811 8.00098 11.9222 8.00098 10.8757V8.03001C8.01063 8.49208 8.2477 8.94951 8.71387 9.20481L13.9639 12.0808C14.8779 12.5813 16 11.9223 16 10.8757V5.12571C16 4.14452 15.0141 3.50428 14.1377 3.84055L13.9639 3.92063L8.71387 6.79661C8.24868 7.05136 8.01157 7.50741 8.00098 7.96848V5.12571ZM14.5 10.6638L9.63769 8.00071L14.5 5.33665V10.6638ZM6.50098 10.6638L1.63867 8.00071L6.50098 5.33665V10.6638Z" fill="#292A2E"/>
</svg>
