<svg width="16" height="16" viewBox="0 0 16 16" fill="none" xmlns="http://www.w3.org/2000/svg">
<path d="M0.469727 1.53028L14.4697 15.5303L15.5304 14.4696L1.53039 0.46962L0.469727 1.53028Z" fill="#292A2E"/>
<path d="M8.81826 11.9999L10.2964 13.4781C10.1997 13.4924 10.1007 13.4999 10 13.4999H2C0.895431 13.4999 0 12.6045 0 11.4999V4.49989C0 4.12237 0.104598 3.76928 0.286395 3.46802L1.5 4.68163V11.4999C1.5 11.776 1.72386 11.9999 2 11.9999H8.81826Z" fill="#292A2E"/>
<path d="M10 2.49989H5.68222L7.18222 3.99989H10C10.2761 3.99989 10.5 4.22375 10.5 4.49989V7.31767L12 8.81767V6.43853L14.5 5.03228V11.3177L15.6729 12.4906C15.8749 12.2701 16 11.9757 16 11.6474V4.60482C16 3.64878 14.9704 3.04664 14.1372 3.51535L12 4.71751V4.49989C12 3.39532 11.1046 2.49989 10 2.49989Z" fill="#292A2E"/>
</svg>
