<svg width="16" height="16" viewBox="0 0 16 16" fill="none" xmlns="http://www.w3.org/2000/svg">
<path d="M8.75 16L8.75 1.31142e-07L7.25 0L7.25 16H8.75ZM6.99382e-07 4L0 12C-9.65645e-08 13.1046 0.89543 14 2 14H5V12.5H2C1.72386 12.5 1.5 12.2761 1.5 12L1.5 4C1.5 3.72386 1.72386 3.5 2 3.5L5 3.5V2L2 2C0.895432 2 1.31135e-06 2.89543 6.99382e-07 4ZM14.5 4L14.5 12C14.5 12.2761 14.2761 12.5 14 12.5L11 12.5V14L14 14C15.1046 14 16 13.1046 16 12V4C16 2.89543 15.1046 2 14 2L11 2V3.5L14 3.5C14.2761 3.5 14.5 3.72386 14.5 4Z" fill="#292A2E"/>
</svg>
