<svg width="16" height="16" viewBox="0 0 16 16" fill="none" xmlns="http://www.w3.org/2000/svg">
<path fill-rule="evenodd" clip-rule="evenodd" d="M8.74998 13.4002V15.0002H7.24998V13.4002L8.74998 13.4002ZM12.75 12.5003L16 12.5003V14.0003L12.75 14.0003C11.6454 14.0003 10.75 13.1049 10.75 12.0003L10.75 4.00033C10.75 2.89577 11.6454 2.00033 12.75 2.00033L16 2.00034V3.50033L12.75 3.50033C12.4739 3.50033 12.25 3.72419 12.25 4.00033L12.25 12.0003C12.25 12.2765 12.4739 12.5003 12.75 12.5003ZM3.25 12.5003C3.52614 12.5003 3.75 12.2765 3.75 12.0003L3.75 4.00033C3.75 3.72419 3.52614 3.50033 3.25 3.50033L1.31134e-07 3.50033L0 2.00033L3.25 2.00033C4.35457 2.00033 5.25 2.89576 5.25 4.00033L5.25 12.0003C5.25 13.1049 4.35457 14.0003 3.25 14.0003H1.04907e-06L9.17939e-07 12.5003H3.25ZM8.74998 10.3001V11.9001H7.24998V10.3001H8.74998ZM8.74998 7.2L8.74998 8.8H7.24998V7.2H8.74998ZM8.74998 4.10039V5.70039H7.24998L7.24998 4.10039L8.74998 4.10039ZM8.74998 1.0003V2.6003L7.24998 2.6003V1.0003L8.74998 1.0003Z" fill="#292A2E"/>
</svg>
