<svg width="16" height="16" viewBox="0 0 16 16" fill="none" xmlns="http://www.w3.org/2000/svg">
<path d="M0.469727 1.53039L14.4697 15.5304L15.5304 14.4697L1.53039 0.469727L0.469727 1.53039Z" fill="#292A2E"/>
<path d="M8.81826 12L10.2964 13.4782C10.1997 13.4926 10.1007 13.5 10 13.5H2C0.895431 13.5 0 12.6046 0 11.5V4.5C0 4.12248 0.104598 3.76939 0.286395 3.46813L1.5 4.68174V11.5C1.5 11.7761 1.72386 12 2 12H8.81826Z" fill="#292A2E"/>
<path d="M10 2.5H5.68222L7.18222 4H10C10.2761 4 10.5 4.22386 10.5 4.5V7.31778L12 8.81778V6.43864L14.5 5.03239V11.3178L15.6729 12.4907C15.8749 12.2702 16 11.9758 16 11.6475V4.60492C16 3.64889 14.9704 3.04675 14.1372 3.51545L12 4.71761V4.5C12 3.39543 11.1046 2.5 10 2.5Z" fill="#292A2E"/>
</svg>
