<svg width="16" height="16" viewBox="0 0 16 16" fill="none" xmlns="http://www.w3.org/2000/svg">
<path d="M13 4L13 12C13 12.2761 13.2239 12.5 13.5 12.5H16V14H13.5C12.3954 14 11.5 13.1046 11.5 12L11.5 4C11.5 2.89543 12.3954 2 13.5 2L16 2V3.5L13.5 3.5C13.2239 3.5 13 3.72386 13 4Z" fill="#292A2E"/>
<path d="M3 4L3 12C3 12.2761 2.77614 12.5 2.5 12.5H1.31134e-07L0 14H2.5C3.60457 14 4.5 13.1046 4.5 12L4.5 4C4.5 2.89543 3.60457 2 2.5 2L1.04907e-06 2L9.17939e-07 3.5L2.5 3.5C2.77614 3.5 3 3.72386 3 4Z" fill="#292A2E"/>
<path d="M8.25 0C8.66421 0 9 0.335786 9 0.75V15.25C9 15.6642 8.66421 16 8.25 16H7.75C7.33579 16 7 15.6642 7 15.25V0.75C7 0.335786 7.33579 0 7.75 0H8.25Z" fill="#292A2E"/>
</svg>
