<svg width="16" height="16" viewBox="0 0 16 16" fill="none" xmlns="http://www.w3.org/2000/svg">
<path d="M14.1378 3.84054C15.0142 3.5043 16.0002 4.14452 16.0002 5.12569V10.8757C16 11.922 14.8779 12.581 13.964 12.0808L8.71402 9.2048C8.24794 8.94955 8.01087 8.49197 8.00113 8.02999V10.8757C8.00094 11.922 6.87883 12.5808 5.96499 12.0808L0.714019 9.2048C-0.237598 8.68333 -0.2376 7.31806 0.714019 6.79659L5.96499 3.92062L6.13785 3.84054C7.01431 3.50393 8.00113 4.14436 8.00113 5.12569V7.96847C8.01173 7.50739 8.24883 7.05135 8.71402 6.79659L13.964 3.92062L14.1378 3.84054Z" fill="#292A2E"/>
</svg>
