<svg width="16" height="16" viewBox="0 0 16 16" fill="none" xmlns="http://www.w3.org/2000/svg">
<path fill-rule="evenodd" clip-rule="evenodd" d="M8.74996 13.4002V15.0002H7.24996V13.4002L8.74996 13.4002ZM12.75 12.5003L16 12.5003V14.0003L12.75 14.0003C11.6454 14.0003 10.75 13.1049 10.75 12.0003L10.75 4.00033C10.75 2.89577 11.6454 2.00033 12.75 2.00033L16 2.00034V3.50033L12.75 3.50033C12.4738 3.50033 12.25 3.72419 12.25 4.00033L12.25 12.0003C12.25 12.2765 12.4738 12.5003 12.75 12.5003ZM3.24999 12.5003C3.52613 12.5003 3.74999 12.2765 3.74999 12.0003L3.74999 4.00033C3.74999 3.72419 3.52613 3.50033 3.24999 3.50033L-1.51277e-05 3.50033L-1.52588e-05 2.00033L3.24999 2.00033C4.35455 2.00033 5.24999 2.89576 5.24999 4.00033L5.24999 12.0003C5.24999 13.1049 4.35456 14.0003 3.24999 14.0003H-1.42097e-05L-1.43409e-05 12.5003H3.24999ZM8.74996 10.3001V11.9001H7.24996V10.3001H8.74996ZM8.74996 7.2L8.74996 8.8H7.24996V7.2H8.74996ZM8.74996 4.10039V5.70039H7.24997L7.24996 4.10039L8.74996 4.10039ZM8.74996 1.0003V2.6003L7.24996 2.6003V1.0003L8.74996 1.0003Z" fill="#292A2E"/>
</svg>
