<svg width="16" height="16" viewBox="0 0 16 16" fill="none" xmlns="http://www.w3.org/2000/svg">
<path fill-rule="evenodd" clip-rule="evenodd" d="M1 3C1 1.89543 1.89543 1 3 1H13C14.1046 1 15 1.89543 15 3V13C15 14.1046 14.1046 15 13 15H3C1.89543 15 1 14.1046 1 13V3ZM3 2.5C2.72386 2.5 2.5 2.72386 2.5 3V4.125H3.75V2.5H3ZM5.25 2.5V7.25H10.75V2.5H5.25ZM12.25 2.5V4.125H13.5V3C13.5 2.72386 13.2761 2.5 13 2.5H12.25ZM13.5 5.625H12.25V7.25H13.5V5.625ZM13.5 8.75H12.25V10.375H13.5V8.75ZM13.5 11.875H12.25V13.5H13C13.2761 13.5 13.5 13.2761 13.5 13V11.875ZM10.75 13.5V8.75H5.25V13.5H10.75ZM3.75 13.5V11.875H2.5V13C2.5 13.2761 2.72386 13.5 3 13.5H3.75ZM2.5 10.375H3.75V8.75H2.5V10.375ZM2.5 7.25H3.75V5.625H2.5V7.25Z" fill="#44546F"/>
</svg>
