<svg width="16" height="16" viewBox="0 0 16 16" fill="none" xmlns="http://www.w3.org/2000/svg">
<path fill-rule="evenodd" clip-rule="evenodd" d="M5 2.5C4.72386 2.5 4.5 2.72386 4.5 3V12.8026L7.56748 10.6373C7.82719 10.454 8.17426 10.4543 8.43364 10.6381L11.5 12.811V8H13V14.2133C13 14.841 12.2928 15.2083 11.7793 14.8474L11.777 14.8457L7.99917 12.1686L4.2219 14.835L4.22072 14.8359C3.70719 15.1969 3 14.8296 3 14.2019V3C3 1.89543 3.89543 1 5 1H7.25V2.5H5ZM10.5644 3.87479L8.84468 2.15511L9.90534 1.09446L11.625 2.81413L13.3447 1.09447L14.4053 2.15513L12.6857 3.8748L14.4053 5.59447L13.3447 6.65513L11.625 4.93546L9.90534 6.65512L8.84468 5.59446L10.5644 3.87479Z" fill="#44546F"/>
</svg>
