<svg width="16" height="16" viewBox="0 0 16 16" fill="none" xmlns="http://www.w3.org/2000/svg">
<path fill-rule="evenodd" clip-rule="evenodd" d="M13.1738 0.95752L14.3262 1.9178L10.9928 5.9178C10.8503 6.08879 10.6393 6.18766 10.4167 6.18766C10.1941 6.18766 9.983 6.08879 9.8405 5.9178L8.17383 3.9178L9.32617 2.95752L10.4167 4.26612L13.1738 0.95752ZM5 2.50016C4.72386 2.50016 4.5 2.72402 4.5 3.00016V12.8028L7.56748 10.6374C7.82719 10.4541 8.17426 10.4544 8.43364 10.6382L11.5 12.8112V8.00016H13V14.2135C13 14.8412 12.2928 15.2085 11.7793 14.8475L11.777 14.8459L7.99917 12.1688L4.2219 14.8352L4.22072 14.836C3.70719 15.197 3 14.8297 3 14.202V3.00016C3 1.89559 3.89543 1.00016 5 1.00016H7.25V2.50016H5Z" fill="#44546F"/>
</svg>
