<svg width="16" height="16" viewBox="0 0 16 16" fill="none" xmlns="http://www.w3.org/2000/svg">
<path d="M7.25002 2.50029L7.25002 1.0003L8.75002 1.0003V2.50029L7.25002 2.50029ZM12.25 4.00028L12.25 12.0002C12.25 12.2766 12.4741 12.5002 12.75 12.5002C13.6682 12.5002 15.0385 12.5002 16 12.5002L16 14.0002L12.75 14.0002C11.6453 14.0002 10.75 13.1046 10.75 12.0002L10.75 4.00028C10.7501 2.89578 11.6455 2.00029 12.75 2.00029L16 2.00029V3.50028L12.75 3.50028C12.4739 3.50028 12.2501 3.7242 12.25 4.00028ZM5.25002 4.00028L5.25002 12.0002C5.25002 13.1048 4.35459 14.0002 3.25002 14.0002H1.63079e-05L1.61767e-05 12.5002H3.25002C3.52616 12.5002 3.75002 12.2764 3.75002 12.0002L3.75002 4.00028C3.74994 3.7242 3.52611 3.50028 3.25002 3.50028L1.53899e-05 3.50028L1.52588e-05 2.00029L3.25002 2.00029C4.35454 2.00029 5.24994 2.89578 5.25002 4.00028ZM7.25002 5.62527V4.12528H8.75002L8.75002 5.62527H7.25002ZM7.25002 8.75024V7.25025H8.75002V8.75024H7.25002ZM7.25002 11.8752V10.3752H8.75002V11.8752H7.25002ZM7.25002 15.0002V13.5002H8.75002V15.0002H7.25002Z" fill="#292A2E"/>
</svg>
