<svg width="16" height="16" viewBox="0 0 16 16" fill="none" xmlns="http://www.w3.org/2000/svg">
<path d="M7.99902 5.12571C7.99902 4.14436 8.98583 3.5039 9.8623 3.84055L10.0352 3.92063L15.2861 6.79661C16.2378 7.31807 16.2377 8.68335 15.2861 9.20481L10.0352 12.0808C9.1212 12.5811 7.99902 11.9222 7.99902 10.8757V8.03001C7.98937 8.49208 7.7523 8.94951 7.28613 9.20481L2.03613 12.0808C1.12214 12.5813 0 11.9223 0 10.8757V5.12571C0 4.14452 0.985939 3.50428 1.8623 3.84055L2.03613 3.92063L7.28613 6.79661C7.75132 7.05136 7.98843 7.50741 7.99902 7.96848V5.12571ZM1.5 10.6638L6.3623 8.00071L1.5 5.33665V10.6638ZM9.49902 10.6638L14.3613 8.00071L9.49902 5.33665V10.6638Z" fill="#292A2E"/>
</svg>
