<svg width="16" height="16" viewBox="0 0 16 16" fill="none" xmlns="http://www.w3.org/2000/svg">
<path d="M10.25 9.5V6.5H11.25C11.3881 6.5 11.5 6.61193 11.5 6.75V9.25C11.5 9.38807 11.3881 9.5 11.25 9.5H10.25Z" fill="#44546F"/>
<path fill-rule="evenodd" clip-rule="evenodd" d="M2 2C0.895431 2 0 2.89543 0 4V12C0 13.1046 0.895431 14 2 14H14C15.1046 14 16 13.1046 16 12V4C16 2.89543 15.1046 2 14 2H2ZM4.75 5V7.25H6V5H7.5V11H6V8.75H4.75V11H3.25V5H4.75ZM11.25 5H8.75V11H11.25C12.2165 11 13 10.2165 13 9.25V6.75C13 5.7835 12.2165 5 11.25 5Z" fill="#44546F"/>
</svg>
