<svg width="16" height="16" viewBox="0 0 16 16" fill="none" xmlns="http://www.w3.org/2000/svg">
<path fill-rule="evenodd" clip-rule="evenodd" d="M0 4C0 2.89543 0.89543 2 2 2H14C15.1046 2 16 2.89543 16 4V12C16 13.1046 15.1046 14 14 14H2C0.895431 14 0 13.1046 0 12V4ZM2 3.5C1.72386 3.5 1.5 3.72386 1.5 4V12C1.5 12.2761 1.72386 12.5 2 12.5H14C14.2761 12.5 14.5 12.2761 14.5 12V4C14.5 3.72386 14.2761 3.5 14 3.5H2ZM6.75 7.5C6.75 7.08579 7.08579 6.75 7.5 6.75H12.25C12.6642 6.75 13 7.08579 13 7.5V10.25C13 10.6642 12.6642 11 12.25 11H7.5C7.08579 11 6.75 10.6642 6.75 10.25V7.5Z" fill="#292A2E"/>
</svg>
