<svg width="16" height="16" viewBox="0 0 16 16" fill="none" xmlns="http://www.w3.org/2000/svg">
<path fill-rule="evenodd" clip-rule="evenodd" d="M8 1.5C4.41015 1.5 1.5 4.41015 1.5 8C1.5 11.5899 4.41015 14.5 8 14.5C11.5899 14.5 14.5 11.5899 14.5 8C14.5 4.41015 11.5899 1.5 8 1.5ZM0 8C0 3.58172 3.58172 0 8 0C12.4183 0 16 3.58172 16 8C16 12.4183 12.4183 16 8 16C3.58172 16 0 12.4183 0 8ZM5.00024 5.30614C5.00024 4.49835 5.86599 3.98602 6.57408 4.37477L11.5319 7.0967C12.2668 7.50017 12.2668 8.55597 11.5319 8.95943L6.57408 11.6814C5.86599 12.0701 5.00024 11.5578 5.00024 10.75V5.30614ZM6.50024 6.04543V10.0107L10.1115 8.02807L6.50024 6.04543Z" fill="#292A2E"/>
<path d="M6.50024 10.0107V6.04543L10.1115 8.02807L6.50024 10.0107Z" fill="#292A2E"/>
</svg>
