<svg width="16" height="16" viewBox="0 0 16 16" fill="none" xmlns="http://www.w3.org/2000/svg">
<path fill-rule="evenodd" clip-rule="evenodd" d="M8.75 0V2.75H7.25V0H8.75ZM4.21967 4.53033L2.21967 2.53033L3.28033 1.46967L5.28033 3.46967L4.21967 4.53033ZM13.7803 2.53033L11.7803 4.53033L10.7197 3.46967L12.7197 1.46967L13.7803 2.53033ZM4.74927 7.75V10.75H5.99927V10.25H7.49927V10.875C7.49927 11.6344 6.88366 12.25 6.12427 12.25H4.62427C3.86488 12.25 3.24927 11.6344 3.24927 10.875V7.625C3.24927 6.86561 3.86488 6.25 4.62427 6.25H6.12427C6.88366 6.25 7.49927 6.86561 7.49927 7.625V8.25H5.99927V7.75H4.74927ZM9.99927 7.75V10.75H11.2493V10.25H12.7493V10.875C12.7493 11.6344 12.1337 12.25 11.3743 12.25H9.87427C9.11488 12.25 8.49927 11.6344 8.49927 10.875V7.625C8.49927 6.86561 9.11488 6.25 9.87427 6.25H11.3743C12.1337 6.25 12.7493 6.86561 12.7493 7.625V8.25H11.2493V7.75H9.99927ZM16 16H0V14.5L16 14.5V16Z" fill="#44546F"/>
</svg>
