<svg width="16" height="16" viewBox="0 0 16 16" fill="none" xmlns="http://www.w3.org/2000/svg">
<path fill-rule="evenodd" clip-rule="evenodd" d="M3 1C1.89543 1 1 1.89543 1 3V13C1 14.1046 1.89543 15 3 15H7V13.5H3C2.72386 13.5 2.5 13.2761 2.5 13V8.75H7.25V10.1708C7.31425 10.074 7.39007 9.98411 7.47652 9.90342L10.3195 7.25H8.75V2.5H13C13.2761 2.5 13.5 2.72386 13.5 3V6.61484L15 8.01484V3C15 1.89543 14.1046 1 13 1H3ZM2.5 3C2.5 2.72386 2.72386 2.5 3 2.5H7.25V7.25H2.5V3Z" fill="#292A2E"/>
<path d="M16 11.5432V15.375C16 15.7202 15.7202 16 15.375 16H13.25V13H11.25V16H9.125C8.77982 16 8.5 15.7202 8.5 15.375V11.5432C8.5 11.1967 8.64381 10.8658 8.8971 10.6294L11.3971 8.29604C11.8774 7.8478 12.6226 7.8478 13.1029 8.29604L15.6029 10.6294C15.8562 10.8658 16 11.1967 16 11.5432Z" fill="#292A2E"/>
</svg>
