<svg width="16" height="16" viewBox="0 0 16 16" fill="none" xmlns="http://www.w3.org/2000/svg">
<path fill-rule="evenodd" clip-rule="evenodd" d="M0 4C0 2.89543 0.895431 2 2 2H14C15.1046 2 16 2.89543 16 4V8.94817L14.1805 7.25H14.5V4C14.5 3.72386 14.2761 3.5 14 3.5H6.5V7.25H10.3195L8.71233 8.75H6.5V12.5H7V14H2C0.895431 14 0 13.1046 0 12V4ZM2 3.5C1.72386 3.5 1.5 3.72386 1.5 4V7.25H5V3.5H2ZM5 12.5V8.75H1.5V12C1.5 12.2761 1.72386 12.5 2 12.5H5Z" fill="#44546F"/>
<path d="M16 15.375V11.5432C16 11.1967 15.8562 10.8658 15.6029 10.6294L13.1029 8.29604C12.6226 7.8478 11.8774 7.8478 11.3971 8.29604L8.8971 10.6294C8.64381 10.8658 8.5 11.1967 8.5 11.5432V15.375C8.5 15.7202 8.77982 16 9.125 16H11.25V13H13.25V16H15.375C15.7202 16 16 15.7202 16 15.375Z" fill="#44546F"/>
</svg>
