<svg width="16" height="16" viewBox="0 0 16 16" fill="none" xmlns="http://www.w3.org/2000/svg">
<path d="M11.5 5.5H6V11.5H11C11.2761 11.5 11.5 11.2761 11.5 11V5.5ZM2.5 11C2.5 11.2761 2.72386 11.5 3 11.5H4.5V5.5H2.5V11ZM11.5 3C11.5 2.72386 11.2761 2.5 11 2.5H3C2.72386 2.5 2.5 2.72386 2.5 3V4H11.5V3ZM13 11C13 12.1046 12.1046 13 11 13H3C1.89543 13 1 12.1046 1 11V3C1 1.89543 1.89543 1 3 1H11C12.1046 1 13 1.89543 13 3V11Z" fill="#292A2E"/>
<path d="M14.5 12.75V6H16V12.75C16 14.5449 14.5449 16 12.75 16H6V14.5H12.75C13.7165 14.5 14.5 13.7165 14.5 12.75Z" fill="#292A2E"/>
</svg>
