<svg width="16" height="16" viewBox="0 0 16 16" fill="none" xmlns="http://www.w3.org/2000/svg">
<path fill-rule="evenodd" clip-rule="evenodd" d="M6.33333 12.5V3.5H9.66667V7.85928L11.1667 6.45928V3.5H14C14.2761 3.5 14.5 3.72386 14.5 4V7.54817L16 8.94817V4C16 2.89543 15.1046 2 14 2H2C0.89543 2 0 2.89543 0 4V12C0 13.1046 0.895431 14 2 14H7V12.5H6.33333ZM1.5 4C1.5 3.72386 1.72386 3.5 2 3.5H4.83333V12.5H2C1.72386 12.5 1.5 12.2761 1.5 12V4Z" fill="#292A2E"/>
<path d="M16 11.5432V15.375C16 15.7202 15.7202 16 15.375 16H13.25V13H11.25V16H9.125C8.77982 16 8.5 15.7202 8.5 15.375V11.5432C8.5 11.1967 8.64381 10.8658 8.8971 10.6294L11.3971 8.29604C11.8774 7.8478 12.6226 7.8478 13.1029 8.29604L15.6029 10.6294C15.8562 10.8658 16 11.1967 16 11.5432Z" fill="#292A2E"/>
</svg>
