<svg width="16" height="16" viewBox="0 0 16 16" fill="none" xmlns="http://www.w3.org/2000/svg">
<mask id="mask0_39345_9427" style="mask-type:alpha" maskUnits="userSpaceOnUse" x="0" y="0" width="16" height="16">
<path fill-rule="evenodd" clip-rule="evenodd" d="M16 0H0V16H7V11C7 10.5842 7.17257 10.1871 7.47652 9.90342L11.2265 6.40342C11.8028 5.86553 12.6972 5.86553 13.2735 6.40342L16 8.94817V0Z" fill="#44546F"/>
</mask>
<g mask="url(#mask0_39345_9427)">
<path d="M5.58333 2.75H2C1.30964 2.75 0.75 3.30964 0.75 4L0.75 12C0.75 12.6904 1.30964 13.25 2 13.25H5.58333M5.58333 2.75V13.25M5.58333 2.75H10.4167M5.58333 13.25H10.4167M10.4167 2.75H14C14.6904 2.75 15.25 3.30964 15.25 4V12C15.25 12.6904 14.6904 13.25 14 13.25H10.4167M10.4167 2.75V13.25" stroke="#44546F" stroke-width="1.5"/>
</g>
<path d="M16 11.5432V15.375C16 15.7202 15.7202 16 15.375 16H13.25V13H11.25V16H9.125C8.77982 16 8.5 15.7202 8.5 15.375V11.5432C8.5 11.1967 8.64381 10.8658 8.8971 10.6294L11.3971 8.29604C11.8774 7.8478 12.6226 7.8478 13.1029 8.29604L15.6029 10.6294C15.8562 10.8658 16 11.1967 16 11.5432Z" fill="#44546F"/>
</svg>
