<svg width="16" height="16" viewBox="0 0 16 16" fill="none" xmlns="http://www.w3.org/2000/svg">
<path fill-rule="evenodd" clip-rule="evenodd" d="M3 2.5C2.72386 2.5 2.5 2.72386 2.5 3V3.49994H13C14.1046 3.49994 15 4.39537 15 5.49994V12.9999C15 14.1045 14.1046 14.9999 13 14.9999H3C1.89543 14.9999 1 14.1045 1 12.9999V3C1 1.89543 1.89543 1 3 1H13.5V2.5H3ZM2.5 4.99994V12.9999C2.5 13.2761 2.72386 13.4999 3 13.4999H13C13.2761 13.4999 13.5 13.2761 13.5 12.9999V11.5H12C10.8954 11.5 10 10.6046 10 9.5V9C10 7.89543 10.8954 7 12 7H13.5V5.49994C13.5 5.2238 13.2761 4.99994 13 4.99994H2.5ZM13.5 8.5H12C11.7239 8.5 11.5 8.72386 11.5 9V9.5C11.5 9.77614 11.7239 10 12 10H13.5V8.5Z" fill="#44546F"/>
</svg>
