<svg width="16" height="16" viewBox="0 0 16 16" fill="none" xmlns="http://www.w3.org/2000/svg">
<path fill-rule="evenodd" clip-rule="evenodd" d="M5.7004 1.38357C6.69627 -0.432417 9.30453 -0.433805 10.3023 1.38112L15.6512 11.1104C16.613 12.8598 15.3473 15 13.3509 15H2.66661C0.671465 15 -0.594347 12.8622 0.364984 11.1129L5.7004 1.38357ZM8.98787 2.10377C8.56025 1.32594 7.44242 1.32654 7.01562 2.10482L1.6802 11.8341C1.26906 12.5838 1.81155 13.5 2.66661 13.5H13.3509C14.2065 13.5 14.749 12.5828 14.3368 11.8331L8.98787 2.10377Z" fill="#44546F"/>
<path fill-rule="evenodd" clip-rule="evenodd" d="M7.24996 9.00005V4.00005H8.74996V9.00005H7.24996Z" fill="#44546F"/>
<path d="M8.99996 11.25C8.99996 11.8023 8.55225 12.25 7.99996 12.25C7.44768 12.25 6.99996 11.8023 6.99996 11.25C6.99996 10.6978 7.44768 10.25 7.99996 10.25C8.55225 10.25 8.99996 10.6978 8.99996 11.25Z" fill="#44546F"/>
</svg>
