<svg width="16" height="16" viewBox="0 0 16 16" fill="none" xmlns="http://www.w3.org/2000/svg">
<path fill-rule="evenodd" clip-rule="evenodd" d="M5.7004 1.38347C6.69627 -0.432508 9.30453 -0.433896 10.3023 1.38103L15.6512 11.1103C16.613 12.8597 15.3473 15 13.3509 15H2.66661C0.671465 15 -0.594347 12.8621 0.364984 11.1128L5.7004 1.38347ZM8.98787 2.10367C8.56025 1.32585 7.44242 1.32645 7.01562 2.10472L1.6802 11.834C1.26906 12.5837 1.81155 13.5 2.66661 13.5H13.3509C14.2065 13.5 14.749 12.5827 14.3368 11.833L8.98787 2.10367Z" fill="#292A2E"/>
<path fill-rule="evenodd" clip-rule="evenodd" d="M7.24996 8.99996V3.99995H8.74996V8.99996H7.24996Z" fill="#292A2E"/>
<path d="M8.99996 11.25C8.99996 11.8022 8.55225 12.25 7.99996 12.25C7.44768 12.25 6.99996 11.8022 6.99996 11.25C6.99996 10.6977 7.44768 10.25 7.99996 10.25C8.55225 10.25 8.99996 10.6977 8.99996 11.25Z" fill="#292A2E"/>
</svg>
