<svg width="16" height="16" viewBox="0 0 16 16" fill="none" xmlns="http://www.w3.org/2000/svg">
<path fill-rule="evenodd" clip-rule="evenodd" d="M4.25 3.75C4.25 1.67893 5.92893 1.19209e-07 8 0C10.0711 -1.19209e-07 11.75 1.67893 11.75 3.75H10.25C10.25 2.50736 9.24264 1.5 8 1.5C6.75736 1.5 5.75 2.50736 5.75 3.75C5.75 4.59941 6.22039 5.34002 6.91845 5.72364C7.28123 5.92301 7.41388 6.3786 7.21484 6.74155L4.40761 11.8606L3.09239 11.1394L5.57571 6.61097C4.76553 5.92374 4.25 4.89742 4.25 3.75ZM8.65761 3.38938L11.1405 7.91705C11.4916 7.80843 11.8644 7.75 12.25 7.75C14.3211 7.75 16 9.42893 16 11.5C16 13.5711 14.3211 15.25 12.25 15.25C11.5408 15.25 10.8754 15.0524 10.3086 14.7088L11.086 13.426C11.4251 13.6315 11.8226 13.75 12.25 13.75C13.4926 13.75 14.5 12.7426 14.5 11.5C14.5 10.2574 13.4926 9.25 12.25 9.25C11.8565 9.25 11.4887 9.35038 11.1684 9.52636C10.994 9.62221 10.7886 9.64481 10.5976 9.58917C10.4065 9.53352 10.2453 9.40421 10.1496 9.2297L7.34239 4.11063L8.65761 3.38938ZM0 11.5C-5.96046e-08 10.1228 0.74281 8.91993 1.84604 8.26874L2.60851 9.56051C1.94343 9.95307 1.5 10.6752 1.5 11.5C1.5 12.7426 2.50736 13.75 3.75 13.75C4.99264 13.75 6 12.7426 6 11.5C6 11.3011 6.07902 11.1103 6.21967 10.9697C6.36032 10.829 6.55109 10.75 6.75 10.75H12.25V12.25H7.42499C7.07753 13.9617 5.56422 15.25 3.75 15.25C1.67893 15.25 1.19209e-07 13.5711 0 11.5Z" fill="#44546F"/>
</svg>
