<svg width="16" height="16" viewBox="0 0 16 16" fill="none" xmlns="http://www.w3.org/2000/svg">
<path d="M8 3.75L9.44277 6.38093L10.8072 8.86907C11.2353 8.63381 11.727 8.5 12.25 8.5C13.9069 8.5 15.25 9.84315 15.25 11.5C15.25 13.1569 13.9069 14.5 12.25 14.5C11.6817 14.5 11.1503 14.342 10.6973 14.0674M3.75 11.5L5.19277 8.86907L6.55723 6.38093C5.62906 5.87085 5 4.88389 5 3.75C5 2.09315 6.34315 0.75 8 0.75C9.65685 0.75 11 2.09315 11 3.75M12.25 11.5H6.75C6.75 13.1569 5.40685 14.5 3.75 14.5C2.09315 14.5 0.75 13.1569 0.75 11.5C0.75 10.399 1.34312 9.4365 2.22727 8.91463" stroke="#44546F" stroke-width="1.5" stroke-linejoin="round"/>
</svg>
