<svg width="16" height="16" viewBox="0 0 16 16" fill="none" xmlns="http://www.w3.org/2000/svg">
<path fill-rule="evenodd" clip-rule="evenodd" d="M2.625 2C2.00368 2 1.5 2.50368 1.5 3.125V13.9576L4.05083 12.5H13.375C13.9963 12.5 14.5 11.9963 14.5 11.375V3.125C14.5 2.50368 13.9963 2 13.375 2H2.625ZM0 3.125C0 1.67525 1.17525 0.5 2.625 0.5H13.375C14.8247 0.5 16 1.67525 16 3.125V11.375C16 12.8247 14.8247 14 13.375 14H4.44917L1.1221 15.9012C0.889977 16.0338 0.604791 16.0329 0.373555 15.8987C0.142319 15.7645 0 15.5174 0 15.25V3.125ZM4.5 5C4.5 4.30964 5.05964 3.75 5.75 3.75C6.44036 3.75 7 4.30964 7 5C7 5.69036 6.44036 6.25 5.75 6.25C5.05964 6.25 4.5 5.69036 4.5 5ZM9 5C9 4.30964 9.55964 3.75 10.25 3.75C10.9404 3.75 11.5 4.30964 11.5 5C11.5 5.69036 10.9404 6.25 10.25 6.25C9.55964 6.25 9 5.69036 9 5ZM6.08546 8.78299C6.57081 9.16048 7.22471 9.5 8 9.5C8.77529 9.5 9.42919 9.16048 9.91454 8.78299C10.1543 8.5965 10.3414 8.40938 10.4673 8.27025C10.5299 8.20108 10.5763 8.1449 10.6056 8.10814C10.6202 8.08979 10.6304 8.07638 10.6362 8.06874L10.6414 8.06174L10.64 8.06364C10.64 8.06364 10.6397 8.06407 11.25 8.5C11.8603 8.93593 11.86 8.9364 11.86 8.9364L11.8588 8.93806L11.8568 8.94084L11.8513 8.9483L11.8348 8.97057C11.8213 8.98856 11.8027 9.01275 11.7792 9.04225C11.7323 9.10119 11.6654 9.18173 11.5796 9.27662C11.4086 9.46562 11.1582 9.716 10.8355 9.96701C10.1958 10.4645 9.22471 11 8 11C6.77529 11 5.80419 10.4645 5.16454 9.96701C4.84181 9.716 4.59141 9.46562 4.42041 9.27662C4.33455 9.18173 4.26771 9.10119 4.2208 9.04225C4.19732 9.01275 4.17875 8.98856 4.16521 8.97057L4.14867 8.9483L4.14323 8.94084L4.14123 8.93806L4.1404 8.93691C4.1404 8.93691 4.1397 8.93593 4.75 8.5C5.3603 8.06407 5.35999 8.06364 5.35999 8.06364L5.35863 8.06174L5.36384 8.06874C5.36959 8.07638 5.37983 8.08979 5.39444 8.10814C5.4237 8.1449 5.47013 8.20108 5.53271 8.27025C5.65859 8.40938 5.84569 8.5965 6.08546 8.78299Z" fill="#44546F"/>
</svg>
