<svg width="16" height="16" viewBox="0 0 16 16" fill="none" xmlns="http://www.w3.org/2000/svg">
<path d="M6.25 5C6.25 5.27614 6.02614 5.5 5.75 5.5C5.47386 5.5 5.25 5.27614 5.25 5C5.25 4.72386 5.47386 4.5 5.75 4.5C6.02614 4.5 6.25 4.72386 6.25 5Z" fill="#44546F"/>
<path d="M10.75 5C10.75 5.27614 10.5261 5.5 10.25 5.5C9.97386 5.5 9.75 5.27614 9.75 5C9.75 4.72386 9.97386 4.5 10.25 4.5C10.5261 4.5 10.75 4.72386 10.75 5Z" fill="#44546F"/>
<path d="M4.25 13.25V12.5H4.05083L3.8779 12.5988L4.25 13.25ZM0.75 15.25H0C0 15.5174 0.142319 15.7645 0.373555 15.8987C0.604791 16.0329 0.889977 16.0338 1.1221 15.9012L0.75 15.25ZM13.375 12.5H4.25V14H13.375V12.5ZM3.8779 12.5988L0.377896 14.5988L1.1221 15.9012L4.6221 13.9012L3.8779 12.5988ZM1.5 15.25V3.125H0V15.25H1.5ZM2.625 2H13.375V0.5H2.625V2ZM14.5 3.125V11.375H16V3.125H14.5ZM8 11C9.22471 11 10.1958 10.4645 10.8355 9.96701C11.1582 9.716 11.4086 9.46562 11.5796 9.27662C11.6654 9.18173 11.7323 9.10119 11.7792 9.04225C11.8027 9.01275 11.8213 8.98856 11.8348 8.97057C11.8416 8.96157 11.8471 8.95411 11.8513 8.9483C11.8535 8.9454 11.8553 8.94291 11.8568 8.94084C11.8575 8.93981 11.8582 8.93888 11.8588 8.93806C11.8591 8.93765 11.8593 8.93727 11.8596 8.93691C11.8597 8.93674 11.8599 8.93649 11.86 8.9364C11.8601 8.93616 11.8603 8.93593 11.25 8.5C10.6397 8.06407 10.6399 8.06385 10.64 8.06364C10.6401 8.06358 10.6402 8.06337 10.6403 8.06325C10.6405 8.063 10.6406 8.06278 10.6408 8.06258C10.6411 8.06218 10.6413 8.06189 10.6414 8.0617C10.6417 8.06131 10.6417 8.06133 10.6414 8.06174C10.6408 8.06255 10.639 8.06492 10.6362 8.06874C10.6304 8.07638 10.6202 8.08979 10.6056 8.10814C10.5763 8.1449 10.5299 8.20108 10.4673 8.27025C10.3414 8.40938 10.1543 8.5965 9.91454 8.78299C9.42919 9.16048 8.77529 9.5 8 9.5V11ZM8 9.5C7.22471 9.5 6.57081 9.16048 6.08546 8.78299C5.84569 8.5965 5.65859 8.40938 5.53271 8.27025C5.47013 8.20108 5.4237 8.1449 5.39444 8.10814C5.37983 8.08979 5.36959 8.07638 5.36384 8.06874C5.36097 8.06492 5.35923 8.06255 5.35863 8.06174C5.35833 8.06133 5.35832 8.06131 5.3586 8.0617C5.35873 8.06189 5.35895 8.06218 5.35923 8.06258C5.35937 8.06278 5.35953 8.063 5.35971 8.06325C5.3598 8.06337 5.35995 8.06358 5.35999 8.06364C5.36014 8.06385 5.3603 8.06407 4.75 8.5C4.1397 8.93593 4.13987 8.93616 4.14004 8.9364C4.1401 8.93649 4.14028 8.93674 4.1404 8.93691C4.14066 8.93727 4.14093 8.93765 4.14123 8.93806C4.14182 8.93888 4.14248 8.93981 4.14323 8.94084C4.14473 8.94291 4.14654 8.9454 4.14867 8.9483C4.15292 8.95411 4.15844 8.96157 4.16521 8.97057C4.17875 8.98856 4.19732 9.01275 4.2208 9.04225C4.26771 9.10119 4.33455 9.18173 4.42041 9.27662C4.59141 9.46562 4.84181 9.716 5.16454 9.96701C5.80419 10.4645 6.77529 11 8 11V9.5ZM5.5 5C5.5 4.86193 5.61193 4.75 5.75 4.75V6.25C6.44036 6.25 7 5.69036 7 5H5.5ZM5.75 4.75C5.88807 4.75 6 4.86193 6 5H4.5C4.5 5.69036 5.05964 6.25 5.75 6.25V4.75ZM6 5C6 5.13807 5.88807 5.25 5.75 5.25V3.75C5.05964 3.75 4.5 4.30964 4.5 5H6ZM5.75 5.25C5.61193 5.25 5.5 5.13807 5.5 5H7C7 4.30964 6.44036 3.75 5.75 3.75V5.25ZM10 5C10 4.86193 10.1119 4.75 10.25 4.75V6.25C10.9404 6.25 11.5 5.69036 11.5 5H10ZM10.25 4.75C10.3881 4.75 10.5 4.86193 10.5 5H9C9 5.69036 9.55964 6.25 10.25 6.25V4.75ZM10.5 5C10.5 5.13807 10.3881 5.25 10.25 5.25V3.75C9.55964 3.75 9 4.30964 9 5H10.5ZM10.25 5.25C10.1119 5.25 10 5.13807 10 5H11.5C11.5 4.30964 10.9404 3.75 10.25 3.75V5.25ZM13.375 2C13.9963 2 14.5 2.50368 14.5 3.125H16C16 1.67525 14.8247 0.5 13.375 0.5V2ZM13.375 14C14.8247 14 16 12.8247 16 11.375H14.5C14.5 11.9963 13.9963 12.5 13.375 12.5V14ZM1.5 3.125C1.5 2.50368 2.00368 2 2.625 2V0.5C1.17525 0.5 0 1.67525 0 3.125H1.5Z" fill="#44546F"/>
</svg>
