<svg width="16" height="16" viewBox="0 0 16 16" fill="none" xmlns="http://www.w3.org/2000/svg">
<path fill-rule="evenodd" clip-rule="evenodd" d="M11.4697 0.71967C11.7626 0.426777 12.2374 0.426777 12.5303 0.71967L15.3588 3.5481C15.4994 3.68875 15.5784 3.87951 15.5784 4.07843C15.5784 4.27734 15.4994 4.4681 15.3588 4.60876L12.75 7.21751V9.09451C14.0439 9.42754 15 10.6021 15 12C15 13.6568 13.6569 15 12 15C10.3431 15 9 13.6568 9 12C9 10.6021 9.95608 9.42754 11.25 9.09451V7.21751L8.78248 4.74999H6.90549C6.63415 5.8042 5.80421 6.63415 4.75 6.90548L4.75 8.99999H6.25C6.66421 8.99999 7 9.33578 7 9.74999V14.25C7 14.6642 6.66421 15 6.25 15H1.75C1.33579 15 1 14.6642 1 14.25V9.74999C1 9.33578 1.33579 8.99999 1.75 8.99999H3.25L3.25 6.90548C1.95608 6.57245 1 5.39787 1 3.99999C1 2.34314 2.34315 0.999994 4 0.999994C5.39788 0.999994 6.57245 1.95607 6.90549 3.24999H8.93935L11.4697 0.71967ZM10.2322 4.07843L12 5.84619L13.7678 4.07843L12 2.31066L10.2322 4.07843ZM4 2.49999C3.17157 2.49999 2.5 3.17157 2.5 3.99999C2.5 4.82842 3.17157 5.49999 4 5.49999C4.82843 5.49999 5.5 4.82842 5.5 3.99999C5.5 3.17157 4.82843 2.49999 4 2.49999ZM2.5 10.5V13.5H5.5V10.5H2.5ZM12 10.5C11.1716 10.5 10.5 11.1716 10.5 12C10.5 12.8284 11.1716 13.5 12 13.5C12.8284 13.5 13.5 12.8284 13.5 12C13.5 11.1716 12.8284 10.5 12 10.5Z" fill="#44546F"/>
</svg>
