<svg width="16" height="16" viewBox="0 0 16 16" fill="none" xmlns="http://www.w3.org/2000/svg">
<path d="M11.5732 5.9834L7.57324 10.7334C7.43074 10.9024 7.22106 11 7 11C6.77894 11 6.56926 10.9024 6.42676 10.7334L4.42676 8.3584L5.57324 7.3916L7 9.08496L10.4268 5.0166L11.5732 5.9834ZM14.5 4C14.5 3.75829 14.3286 3.55629 14.1006 3.50977L14 3.5H2C1.72386 3.5 1.5 3.72386 1.5 4V12C1.5 12.2761 1.72386 12.5 2 12.5H7.5V14H2C0.895431 14 2.0133e-09 13.1046 0 12V4C1.28853e-07 2.89543 0.89543 2 2 2H14L14.2041 2.01074C15.2128 2.113 16 2.96435 16 4V8.5H14.5V4Z" fill="#292A2E"/>
<path d="M13.5 9.5V12H16V13.5H13.5V16H12V13.5H9.5V12H12V9.5H13.5Z" fill="#292A2E"/>
</svg>
