<svg width="16" height="16" viewBox="0 0 16 16" fill="none" xmlns="http://www.w3.org/2000/svg">
<path fill-rule="evenodd" clip-rule="evenodd" d="M0 4C0 2.89543 0.89543 2 2 2H14C15.1046 2 16 2.89543 16 4V8.5H14.5V4C14.5 3.72386 14.2761 3.5 14 3.5H2C1.72386 3.5 1.5 3.72386 1.5 4V12C1.5 12.2761 1.72386 12.5 2 12.5H7.5V14H2C0.895431 14 0 13.1046 0 12V4ZM10.4263 5.0169L11.5737 5.9831L7.57368 10.7331C7.43118 10.9023 7.22123 11 7 11C6.77877 11 6.56882 10.9023 6.42632 10.7331L4.42632 8.3581L5.57368 7.3919L7 9.08565L10.4263 5.0169Z" fill="#44546F"/>
<path fill-rule="evenodd" clip-rule="evenodd" d="M12 12.0002V9.50024H13.5V12.0002H16V13.5002H13.5V16.0002H12V13.5002H9.5V12.0002H12Z" fill="#44546F"/>
</svg>
