<svg width="16" height="16" viewBox="0 0 16 16" fill="none" xmlns="http://www.w3.org/2000/svg">
<path d="M6.25 9.74999H7C7 9.33578 6.66421 8.99999 6.25 8.99999V9.74999ZM1.75 9.74999V8.99999C1.33579 8.99999 1 9.33578 1 9.74999H1.75ZM1.75 14.25H1C1 14.6642 1.33579 15 1.75 15L1.75 14.25ZM6.25 14.25V15C6.66421 15 7 14.6642 7 14.25H6.25ZM12 6.90685L11.4697 7.43718L12 7.96751L12.5303 7.43718L12 6.90685ZM14.8284 4.07843L15.3588 4.60876C15.4994 4.4681 15.5784 4.27734 15.5784 4.07843C15.5784 3.87951 15.4994 3.68875 15.3588 3.5481L14.8284 4.07843ZM12 1.25L12.5303 0.71967C12.2374 0.426777 11.7626 0.426777 11.4697 0.71967L12 1.25ZM9.17157 4.07843L8.64124 3.5481C8.50059 3.68875 8.42157 3.87951 8.42157 4.07843C8.42157 4.27734 8.50059 4.4681 8.64124 4.60876L9.17157 4.07843ZM4 0.999994C2.34315 0.999994 1 2.34314 1 3.99999H2.5C2.5 3.17157 3.17157 2.49999 4 2.49999V0.999994ZM7 3.99999C7 2.34314 5.65685 0.999994 4 0.999994V2.49999C4.82843 2.49999 5.5 3.17157 5.5 3.99999H7ZM4 6.99999C5.65685 6.99999 7 5.65685 7 3.99999H5.5C5.5 4.82842 4.82843 5.49999 4 5.49999V6.99999ZM4 5.49999C3.17157 5.49999 2.5 4.82842 2.5 3.99999H1C1 5.65685 2.34315 6.99999 4 6.99999V5.49999ZM12 15C13.6569 15 15 13.6568 15 12H13.5C13.5 12.8284 12.8284 13.5 12 13.5V15ZM9 12C9 13.6568 10.3431 15 12 15V13.5C11.1716 13.5 10.5 12.8284 10.5 12H9ZM12 8.99999C10.3431 8.99999 9 10.3431 9 12H10.5C10.5 11.1716 11.1716 10.5 12 10.5V8.99999ZM12 10.5C12.8284 10.5 13.5 11.1716 13.5 12H15C15 10.3431 13.6569 8.99999 12 8.99999V10.5ZM6.25 8.99999H1.75V10.5H6.25V8.99999ZM1 9.74999V14.25H2.5V9.74999H1ZM1.75 15H6.25V13.5H1.75V15ZM7 14.25V9.74999H5.5V14.25H7ZM12.5303 7.43718L15.3588 4.60876L14.2981 3.5481L11.4697 6.37652L12.5303 7.43718ZM15.3588 3.5481L12.5303 0.71967L11.4697 1.78033L14.2981 4.60876L15.3588 3.5481ZM11.4697 0.71967L8.64124 3.5481L9.7019 4.60876L12.5303 1.78033L11.4697 0.71967ZM8.64124 4.60876L11.4697 7.43718L12.5303 6.37652L9.7019 3.5481L8.64124 4.60876ZM3.25 5.99999L3.25 9.74999L4.75 9.74999L4.75 5.99999L3.25 5.99999ZM11.25 6.74999V9.49999H12.75V6.74999H11.25ZM6.25 4.74999H9.25V3.24999H6.25V4.74999Z" fill="#44546F"/>
</svg>
