<svg width="16" height="16" viewBox="0 0 16 16" fill="none" xmlns="http://www.w3.org/2000/svg">
<path d="M14.5 8C14.5 4.41015 11.5899 1.5 8 1.5C4.41015 1.5 1.5 4.41015 1.5 8C1.5 11.5899 4.41015 14.5 8 14.5C11.5899 14.5 14.5 11.5899 14.5 8ZM16 8C16 12.4183 12.4183 16 8 16C3.58172 16 0 12.4183 0 8C0 3.58172 3.58172 0 8 0C12.4183 0 16 3.58172 16 8Z" fill="#292A2E"/>
<path d="M9.5 12.125C9.5 10.6753 10.6753 9.5 12.125 9.5H15V11H12.125C11.5037 11 11 11.5037 11 12.125V15H9.5V12.125Z" fill="#292A2E"/>
<path d="M8 12.75C8 11.6454 7.10457 10.75 6 10.75C5.72386 10.75 5.5 10.5261 5.5 10.25V9.75C5.5 8.36929 4.38071 7.25 3 7.25H1V8.75H3C3.55228 8.75 4 9.19772 4 9.75V10.25C4 11.3546 4.89543 12.25 6 12.25C6.27614 12.25 6.5 12.4739 6.5 12.75V15H8V12.75Z" fill="#292A2E"/>
<path d="M6.75 6.25C6.75 5.83579 6.41421 5.5 6 5.5H5.75C4.36929 5.5 3.25 4.38071 3.25 3V1.625H4.75V3C4.75 3.55228 5.19772 4 5.75 4H6C7.24264 4 8.25 5.00736 8.25 6.25C8.25 6.66421 8.58579 7 9 7H10.5C10.7761 7 11 6.77614 11 6.5C11 5.39543 11.8954 4.5 13 4.5H14.75V6H13C12.7239 6 12.5 6.22386 12.5 6.5C12.5 7.60457 11.6046 8.5 10.5 8.5H9C7.75736 8.5 6.75 7.49264 6.75 6.25Z" fill="#292A2E"/>
</svg>
