<svg width="16" height="16" viewBox="0 0 16 16" fill="none" xmlns="http://www.w3.org/2000/svg">
<path fill-rule="evenodd" clip-rule="evenodd" d="M10.5 1.5C8.29083 1.5 6.49997 3.29086 6.49997 5.5C6.49997 6.11648 6.63891 6.69841 6.88649 7.21802C7.02309 7.50472 6.96431 7.84638 6.73974 8.07095L1.78924 13.0214C1.46081 13.3499 1.46081 13.8824 1.78924 14.2108C2.11767 14.5392 2.65015 14.5392 2.97858 14.2108L7.9291 9.26027C8.15366 9.03571 8.49531 8.97692 8.78202 9.11352C9.30161 9.36107 9.88352 9.5 10.5 9.5C12.7091 9.5 14.5 7.70914 14.5 5.5C14.5 5.28238 14.4827 5.06906 14.4494 4.86127L12.0303 7.28033C11.7374 7.57323 11.2625 7.57323 10.9696 7.28033L8.71964 5.03033C8.42675 4.73744 8.42675 4.26257 8.71964 3.96967L11.1387 1.55061C10.9309 1.51731 10.7176 1.5 10.5 1.5ZM4.99997 5.5C4.99997 2.46243 7.46241 0 10.5 0C11.3444 0 12.1463 0.1908 12.8631 0.532344C13.0831 0.637121 13.2384 0.842178 13.2797 1.08225C13.321 1.32232 13.2431 1.5675 13.0709 1.73975L10.3106 4.5L11.5 5.68934L14.2602 2.92909C14.4325 2.75684 14.6777 2.67898 14.9177 2.72028C15.1578 2.76159 15.3629 2.91692 15.4676 3.13683C15.8092 3.85369 16 4.65561 16 5.5C16 8.53757 13.5375 11 10.5 11C9.84632 11 9.21811 10.8857 8.63512 10.6756L4.03924 15.2714C3.12503 16.1857 1.64279 16.1857 0.72858 15.2714C-0.185634 14.3572 -0.185631 12.875 0.728582 11.9608L5.32443 7.36494C5.11432 6.78192 4.99997 6.15368 4.99997 5.5Z" fill="#292A2E"/>
</svg>
