<svg width="16" height="16" viewBox="0 0 16 16" fill="none" xmlns="http://www.w3.org/2000/svg">
<path d="M11.5 6.75L9.24997 4.5L12.5406 1.20942C11.9223 0.914868 11.2304 0.75 10.5 0.75C7.87662 0.75 5.74997 2.87665 5.74997 5.5C5.74997 6.23044 5.91485 6.92238 6.20941 7.54062L1.25891 12.4911C0.637591 13.1124 0.63759 14.1198 1.25891 14.7411C1.88023 15.3624 2.88759 15.3624 3.50891 14.7411L8.45943 9.7906C9.07765 10.0851 9.76956 10.25 10.5 10.25C13.1233 10.25 15.25 8.12335 15.25 5.5C15.25 4.76957 15.0851 4.07765 14.7906 3.45942L11.5 6.75Z" stroke="#44546F" stroke-width="1.5" stroke-linejoin="round"/>
</svg>
