<svg xmlns="http://www.w3.org/2000/svg" width="16" height="16" viewBox="0 0 16 16">
  <path fill="#FF5630" fill-rule="evenodd" d="M2,0 L14,0 C15.1045695,-2.02906125e-16 16,0.8954305 16,2 L16,14 C16,15.1045695 15.1045695,16 14,16 L2,16 C0.8954305,16 1.3527075e-16,15.1045695 0,14 L0,2 C-1.3527075e-16,0.8954305 0.8954305,2.02906125e-16 2,0 Z M3.2306383,8.11276596 L3.55297872,8.11276596 C4.29659574,8.11276596 4.35468085,7.89893617 4.35468085,7.59574468 C4.35468085,7.25042553 4.17595745,7.08191489 3.81021277,7.08191489 L3.2306383,7.08191489 L3.2306383,8.11276596 Z M7.42361702,9.5687234 L7.86659574,9.5687234 C8.3612766,9.5687234 8.86744681,9.42191489 8.86744681,8.33170213 C8.86744681,7.23255319 8.33255319,7.09148936 7.86659574,7.09148936 L7.42361702,7.09148936 L7.42361702,9.5687234 Z M2.97531915,10.6602128 L2.25531915,10.6602128 C2.11425532,10.6602128 2,10.5453191 2,10.4042553 L2,6.25531915 C2,6.11489362 2.11425532,6 2.25531915,6 L3.91808511,6 C4.90680851,6 5.59808511,6.65617021 5.59808511,7.59574468 C5.59808511,8.5487234 4.92148936,9.18893617 3.91489362,9.18893617 L3.2306383,9.18893617 L3.2306383,10.4042553 C3.2306383,10.5453191 3.11638298,10.6602128 2.97531915,10.6602128 Z M7.94255319,10.6602128 L6.44829787,10.6602128 C6.30723404,10.6602128 6.19297872,10.5453191 6.19297872,10.4042553 L6.19297872,6.25531915 C6.19297872,6.11489362 6.30723404,6 6.44829787,6 L7.94255319,6 C9.34744681,6 10.1210638,6.82468085 10.1210638,8.32276596 C10.1210638,9.82978723 9.34744681,10.6602128 7.94255319,10.6602128 Z M11.792766,10.6602128 L11.0721277,10.6602128 C10.9310638,10.6602128 10.8168085,10.5453191 10.8168085,10.4042553 L10.8168085,6.25531915 C10.8168085,6.11489362 10.9310638,6 11.0721277,6 L13.7446809,6 C13.8851064,6 14,6.11489362 14,6.25531915 L14,6.84191489 C14,6.98297872 13.8851064,7.09723404 13.7446809,7.09723404 L12.0480851,7.09723404 L12.0480851,7.85744681 L13.5761702,7.85744681 C13.717234,7.85744681 13.8314894,7.97170213 13.8314894,8.11276596 L13.8314894,8.69042553 C13.8314894,8.83085106 13.717234,8.94574468 13.5761702,8.94574468 L12.0480851,8.94574468 L12.0480851,10.4042553 C12.0480851,10.5453191 11.9338298,10.6602128 11.792766,10.6602128 Z"/>
</svg>
