<svg xmlns="http://www.w3.org/2000/svg" width="48" height="64" viewBox="0 0 48 64">
  <g fill="none" fill-rule="evenodd">
    <path fill="#FFF" stroke="#091E42" stroke-opacity=".08" d="M4,0.5 L32.007097,0.5 C32.9580806,0.5 33.8681235,0.886970896 34.5278649,1.57188773 L46.5207679,14.0224343 C47.1490066,14.6746463 47.5,15.5449725 47.5,16.4505466 L47.5,60 C47.5,61.9329966 45.9329966,63.5 44,63.5 L4,63.5 C2.06700338,63.5 0.5,61.9329966 0.5,60 L0.5,4 C0.5,2.06700338 2.06700338,0.5 4,0.5 Z"/>
    <path fill="#FF5630" d="M15.653617,32.1973404 L15.653617,30.3933511 L16.6678723,30.3933511 C17.3079255,30.3933511 17.6206915,30.6882447 17.6206915,31.2925532 C17.6206915,31.8231383 17.5190426,32.1973404 16.2177128,32.1973404 L15.653617,32.1973404 Z M22.9913298,34.745266 L23.7665426,34.745266 C24.632234,34.745266 25.5180319,34.4883511 25.5180319,32.5804787 C25.5180319,30.6569681 24.5819681,30.4101064 23.7665426,30.4101064 L22.9913298,30.4101064 L22.9913298,34.745266 Z M15.2068085,36.6553723 L13.9468085,36.6553723 C13.6999468,36.6553723 13.5,36.4543085 13.5,36.2074468 L13.5,28.9468085 C13.5,28.7010638 13.6999468,28.5 13.9468085,28.5 L16.8566489,28.5 C18.5869149,28.5 19.7966489,29.6482979 19.7966489,31.2925532 C19.7966489,32.960266 18.6126064,34.0806383 16.8510638,34.0806383 L15.653617,34.0806383 L15.653617,36.2074468 C15.653617,36.4543085 15.4536702,36.6553723 15.2068085,36.6553723 Z M23.8994681,36.6553723 L21.2845213,36.6553723 C21.0376596,36.6553723 20.8377128,36.4543085 20.8377128,36.2074468 L20.8377128,28.9468085 C20.8377128,28.7010638 21.0376596,28.5 21.2845213,28.5 L23.8994681,28.5 C26.3580319,28.5 27.7118617,29.9431915 27.7118617,32.5648404 C27.7118617,35.2021277 26.3580319,36.6553723 23.8994681,36.6553723 Z M30.6373404,36.6553723 L29.3762234,36.6553723 C29.1293617,36.6553723 28.9294149,36.4543085 28.9294149,36.2074468 L28.9294149,28.9468085 C28.9294149,28.7010638 29.1293617,28.5 29.3762234,28.5 L34.0531915,28.5 C34.2989362,28.5 34.5,28.7010638 34.5,28.9468085 L34.5,29.9733511 C34.5,30.2202128 34.2989362,30.4201596 34.0531915,30.4201596 L31.0841489,30.4201596 L31.0841489,31.7505319 L33.7582979,31.7505319 C34.0051596,31.7505319 34.2051064,31.9504787 34.2051064,32.1973404 L34.2051064,33.2082447 C34.2051064,33.4539894 34.0051596,33.6550532 33.7582979,33.6550532 L31.0841489,33.6550532 L31.0841489,36.2074468 C31.0841489,36.4543085 30.8842021,36.6553723 30.6373404,36.6553723 Z"/>
  </g>
</svg>
