<svg xmlns="http://www.w3.org/2000/svg" width="16" height="16" viewBox="0 0 16 16">
  <path fill="#007442" fill-rule="evenodd" d="M2,0 L14,0 C15.1045695,-2.02906125e-16 16,0.8954305 16,2 L16,14 C16,15.1045695 15.1045695,16 14,16 L2,16 C0.8954305,16 1.3527075e-16,15.1045695 0,14 L0,2 C-1.3527075e-16,0.8954305 0.8954305,2.02906125e-16 2,0 Z M3.23501729,4.25823992 C3.10019612,4.27737321 3,4.39279273 3,4.52896479 L3,11.4976936 C3,11.634241 3.10073437,11.749858 3.23599559,11.7685555 L10.1891206,12.7297031 C10.2015275,12.7314181 10.2140376,12.7322787 10.2265625,12.7322787 C10.3775779,12.7322787 10.5,12.6098565 10.5,12.4588412 L10.5,3.54220465 C10.5,3.52935007 10.4990935,3.51651149 10.4972874,3.50378444 C10.4760685,3.35426722 10.3376595,3.25026089 10.1881423,3.27147978 L3.23501729,4.25823992 Z M11.125,4.875 L11.125,11.125 L12.6875,11.125 C12.860089,11.125 13,10.985089 13,10.8125 L13,5.1875 C13,5.01491102 12.860089,4.875 12.6875,4.875 L11.125,4.875 Z M4.8578124,10.1999998 L6.20839834,8.070117 L4.86660147,5.97246075 L5.90664053,5.97246075 L6.78847647,7.45195293 L6.84121084,7.45195293 L7.73183584,5.97246075 L8.72207022,5.97246075 L7.33046865,8.08476543 L8.7015624,10.1999998 L7.6937499,10.1999998 L6.78554678,8.76738262 L6.7328124,8.76738262 L5.81289053,10.1999998 L4.8578124,10.1999998 Z"/>
</svg>
