<svg xmlns="http://www.w3.org/2000/svg" width="24" height="24" viewBox="0 0 24 24">
  <path fill="#007442" fill-rule="evenodd" d="M3,0 L21,0 C22.6568542,-3.04359188e-16 24,1.34314575 24,3 L24,21 C24,22.6568542 22.6568542,24 21,24 L3,24 C1.34314575,24 2.02906125e-16,22.6568542 0,21 L0,3 C-2.02906125e-16,1.34314575 1.34314575,3.04359188e-16 3,0 Z M4.37602767,6.01318388 C4.16031379,6.04379714 4,6.22846836 4,6.44634367 L4,17.5963098 C4,17.8147857 4.16117499,17.9997729 4.37759295,18.0296888 L15.5025929,19.5675249 C15.522444,19.570269 15.5424602,19.5716459 15.5625,19.5716459 C15.8041246,19.5716459 16,19.3757705 16,19.1341459 L16,4.86752744 C16,4.84696011 15.9985497,4.82641839 15.9956598,4.8060551 C15.9617096,4.56682756 15.7402552,4.40041742 15.5010277,4.43436765 L4.37602767,6.01318388 Z M17,7 L17,17 L19.5,17 C19.7761424,17 20,16.7761424 20,16.5 L20,7.5 C20,7.22385763 19.7761424,7 19.5,7 L17,7 Z M6.9296875,15.5 L9.18066406,11.9501953 L6.94433594,8.45410156 L8.67773438,8.45410156 L10.1474609,10.9199219 L10.2353516,10.9199219 L11.7197266,8.45410156 L13.3701172,8.45410156 L11.0507812,11.9746094 L13.3359375,15.5 L11.65625,15.5 L10.1425781,13.1123047 L10.0546875,13.1123047 L8.52148438,15.5 L6.9296875,15.5 Z"/>
</svg>
