<svg xmlns="http://www.w3.org/2000/svg" width="48" height="64" viewBox="0 0 48 64">
  <g fill="none" fill-rule="evenodd">
    <path fill="#FFF" stroke="#091E42" stroke-opacity=".08" d="M4,0.5 L32.007097,0.5 C32.9580806,0.5 33.8681235,0.886970896 34.5278649,1.57188773 L46.5207679,14.0224343 C47.1490066,14.6746463 47.5,15.5449725 47.5,16.4505466 L47.5,60 C47.5,61.9329966 45.9329966,63.5 44,63.5 L4,63.5 C2.06700338,63.5 0.5,61.9329966 0.5,60 L0.5,4 C0.5,2.06700338 2.06700338,0.5 4,0.5 Z"/>
    <path fill="#007442" d="M15.0426943,25.0242753 L28.1676943,23.1616269 C28.4069219,23.1276767 28.6283762,23.2940868 28.6623265,23.5333143 C28.6652163,23.5536776 28.6666667,23.5742194 28.6666667,23.5947867 L28.6666667,40.4068597 C28.6666667,40.6484843 28.4707912,40.8443597 28.2291667,40.8443597 C28.2091268,40.8443597 28.1891107,40.8429828 28.1692596,40.8402387 L15.0442596,39.0259377 C14.8278417,38.9960217 14.6666667,38.8110345 14.6666667,38.5925587 L14.6666667,25.457435 C14.6666667,25.2395597 14.8269805,25.0548885 15.0426943,25.0242753 Z M29.8333333,26.1666667 L32.8333333,26.1666667 C33.1094757,26.1666667 33.3333333,26.3905243 33.3333333,26.6666667 L33.3333333,37.3333333 C33.3333333,37.6094757 33.1094757,37.8333333 32.8333333,37.8333333 L29.8333333,37.8333333 L29.8333333,26.1666667 Z M18.0846354,36.0833333 L19.9417318,36.0833333 L21.7304688,33.2976888 L21.8330078,33.2976888 L23.5989583,36.0833333 L25.5585938,36.0833333 L22.8925781,31.9703776 L25.5984701,27.8631185 L23.6730143,27.8631185 L21.9412435,30.7399089 L21.8387044,30.7399089 L20.1240234,27.8631185 L18.1017253,27.8631185 L20.7107747,31.9418945 L18.0846354,36.0833333 Z"/>
  </g>
</svg>
