<svg width="140" height="88" xmlns="http://www.w3.org/2000/svg" xmlns:xlink="http://www.w3.org/1999/xlink"><defs><path id="a" d="M.165.083h20.038v21.151H.165z"/><path id="c" d="M0 .3h8.665v7.326H0z"/><path id="e" d="M0 .312h39.33v49.259H0z"/><path d="M.145 29.327c0 2.165 2.683 2.398 4.375 4.037 1.649-2.225 12.093-1.46 18.05-1.46 5.798 0 7.82 1.31 10.947-2.81v-16.29C33.517 8.975 35.012.45 16.82.45 1.577.451.145 6.549.145 12.804v16.523z" id="g"/></defs><g fill="none" fill-rule="evenodd"><g fill="#EFB3AB"><path d="M139.319 83.646c0 1.522-10.173 2.757-22.722 2.757-12.549 0-22.721-1.235-22.721-2.757s10.172-2.756 22.721-2.756 22.722 1.234 22.722 2.756M8.744 79.333c-2.463-.122-5.017 1.171-5.103 2.891-.085 1.72 2.336 1.905 4.96 2.035 2.626.13 30.05 1.277 30.05 1.277 3.684.4 9.42.686 18.317 1.128 20.521 1.02 28.176 1.4 28.375-2.613.187-3.783-14.189-4.729-27.978-5.414-13.788-.686-25.694 1.611-25.696 1.735L8.744 79.333z"/></g><path d="M74.53 14.85s8.412-2.56 12.905-2.917c5.494-.436 6.846.295 5.442 2.226-1.404 1.93-7.88 11.46-7.88 11.46S80.26 15.283 74.531 14.85" fill="#EC5033"/><path d="M84.614 19.901c-.51-.706-1.828-2.062-1.828-2.062s6.865-4.122 8.195-4.58c1.33-.457 1.296.582.73 1.25-.568.666-5.737 8.301-5.737 8.301s-.45-1.649-1.36-2.909" fill="#E7A29F"/><path d="M87.58 17.444a2.595 2.595 0 0 0-.864-.067c.11-.178.374-.625.313-.7-.077-.094-.305-.011-.553.125-.248.136-2.162 1.172-2.162 1.172 1.283.983 1.379 2.324 1.758 2.128.38-.196.017-1.039.017-1.039.329.242.834.36 1.008.098.174-.261-.319-.557-.319-.557s.726.416.831.087c.106-.33-.66-.758-.66-.758 1.144-.094.822-.434.63-.489" fill="#EFDFDE"/><path d="M57.608 17.756s-7.944 6.539-11.139 21.79c-1.065 2.594-21.096 3.775-21.36 28.88-.077 7.363 6.908 14.284 19.687 14.284h35.548c-1.015-5.904-4.26-6.507-5.984-6.507-1.251 0-3.783-14.075-5.04-25.102-.476-4.174 5.013-7.704 5.041-10.077.101-8.642-16.753-23.268-16.753-23.268" fill="#EC5033"/><g transform="translate(54.159 .454)"><mask id="b" fill="#fff"><use xlink:href="#a"/></mask><path d="M.165 21.234s.65-6.522 5.595-14.479c4.944-7.957 5.964-7.435 7.731-5.348 1.767 2.087 5.54 10.696 6.712 13.305 0 0-11.059-1.104-20.038 6.522" fill="#EC5033" mask="url(#b)"/></g><path d="M70.084 82.71L61.85 64.565s-.777 2.028-11.122 2.46V82.71h19.355z" fill="#CC3727"/><path d="M56.815 62.577s6.542.153 6.542 5.872c0 6.787-7.227 7.703-7.227 7.703s.761.076 3.576.076c2.814 0 3.703 1.22 3.703 6.482H44.112V65.967c0-4.17 12.703-3.39 12.703-3.39" fill="#EC5033"/><path d="M69.282 51.107s-15.962-9.863-15.5-15.235c.552-6.395 3.826-18.116 3.826-18.116l14.568 27.078s-2.092.867-2.894 6.273" fill="#CC3727"/><path d="M50.348 34.742s13.937 9.772 24.105 10.361c6.762.392 9.193-2.932 12.946-5.06-.02-8.94-.846-14.017-1.04-16.365-.196-2.348-4.342-12.555-16.19-10.73-11.85 1.827-15.637 4.808-19.82 21.794" fill="#EC5033"/><path d="M61.02 14.628c-.133.602 1.575-2.326 10.246-1.897 0 0-3.701-8.111-4.31-9.433-.608-1.322-1.42-1.627-2.613 1.017-.985 2.18-2.073 4.614-3.324 10.313" fill="#E7A29F"/><path d="M69.646 11.767s-1.197-4.735-4.23-5.208c0 0-.714-.112 1.203 1.655 0 0-1.503-.675-1.878-.147-.375.529 1.062 1.156 1.062 1.156s-.995-.412-1.192.145c-.197.556.546 1.185 1.278 1.41 0 0-1.671.399-1.54 1.19.133.79 4.77-.576 5.297-.201" fill="#EFDFDE"/><path d="M83.234 40.109c-.419 3.493-3.583 5.985-7.068 5.566-3.485-.42-5.97-3.592-5.551-7.086.418-3.493 3.582-5.985 7.067-5.566 3.484.42 5.97 3.592 5.552 7.086" fill="#FEFEFE"/><path d="M72.176 29.253a3.259 3.259 0 0 1-3.255 3.263 3.259 3.259 0 0 1-3.255-3.263 3.259 3.259 0 0 1 3.255-3.263 3.259 3.259 0 0 1 3.255 3.263" fill="#464F22"/><path d="M70.922 30.789a1.396 1.396 0 1 1-2.646-.9 1.396 1.396 0 0 1 1.771-.876 1.402 1.402 0 0 1 .875 1.776" fill="#211C1B"/><path d="M69.471 29.294a.773.773 0 1 1-1.546.002.773.773 0 0 1 1.546-.002" fill="#FEFEFE"/><path d="M78.96 36.036s-1.29-.265-2.084.003c-.794.27-.862.516-.61 1.284.253.768 1.41 2.056 1.883 2.158.474.102 1.887-.365 2.75-1.753.818-1.313-1.939-1.692-1.939-1.692" fill="#F4999F"/><path d="M83.863 24.245s-3.2.662-5.25-.312 1.829-2.357 1.829-2.357l3.421 2.669z" fill="#EC5033"/><path d="M81.431 30.82a2.276 2.276 0 0 0 2.274 2.279c1.255 0 2.207-1.02 2.207-2.28 0-1.258-.952-2.279-2.207-2.279a2.276 2.276 0 0 0-2.274 2.28" fill="#464F22"/><path d="M82.856 31.06a.98.98 0 0 0 .278 1.355.974.974 0 0 0 1.352-.278.98.98 0 0 0-.278-1.355.974.974 0 0 0-1.352.278" fill="#211C1B"/><path d="M83.25 31.16a.54.54 0 1 0-.002-1.079.54.54 0 0 0 .002 1.08" fill="#FEFEFE"/><path d="M75.91 42.101s1.71-1.534 4.209-1.062" stroke="#010202" stroke-width="1.039" stroke-linecap="round"/><path d="M37.128 74.372s-3.955 1.655-13.894 2.334c-9.94.678-14.706-.631-18.56-.36C.82 76.62.008 79.414.21 80.576c.203 1.16 2.029 2.381 6.897 2.381h26.521c5.071 0 10.483-.246 10.483-.246l-6.984-8.338z" fill="#EC5033"/><g transform="translate(0 75.8)"><mask id="d" fill="#fff"><use xlink:href="#c"/></mask><path d="M.123 4.688C.58 6.213 1.564 8.5 7.956 7.28c0 0 1.595-1.525 0-3.432-1.595-1.906-.68-3.37-.68-3.37C4.71.178 2.686.307 2.176.493.504 1.104-.333 3.163.123 4.688" fill="#FFF" mask="url(#d)"/></g><g><g transform="translate(90.661 34.231)"><mask id="f" fill="#fff"><use xlink:href="#e"/></mask><path d="M32.408 11.016s-1.113-1.591-1.113-3.183c0-1.59 1.113-.49 1.113-3.304 0-2.815-2.27-3.218-4.717-3.564-5.964-.842-11.31-.898-16.408 0-2.434.43-4.338.749-4.338 3.564s1.113 1.713 1.113 3.304c0 1.592-1.113 3.183-1.113 3.183C-.78 17.185.024 19.583.024 23.01v16.523c0 6.732 8.775 10.037 12.113 10.037h15.08c3.337 0 12.112-3.305 12.112-10.037V23.011c0-3.428 0-6.56-6.921-11.995" fill="#E3EFF4" mask="url(#f)"/></g><use fill="#95D7E4" xlink:href="#g" transform="translate(93.507 44.99)"/><path d="M120.197 37.458c0 .814-4.42 1.475-9.87 1.475-5.452 0-9.872-.66-9.872-1.475 0-.814 4.42-1.474 9.871-1.474 5.452 0 9.871.66 9.871 1.474" fill="#838C91"/><path d="M121.782 45.085a7.46 7.46 0 0 1 2.297.984c-.32-.268-2.123-2.411-2.123-4.002 0-.691.21-.875.447-1.091-.765.476-1.628 1.006-2.206 1.344-1.258.734-1.196 2.104 1.585 2.765M98.934 45.085a7.46 7.46 0 0 0-2.297.984c.32-.268 2.122-2.411 2.122-4.002 0-.691-.21-.875-.447-1.091.766.476 1.629 1.006 2.207 1.344 1.258.734 1.196 2.104-1.585 2.765" fill="#BCD8E9"/><path d="M127.024 74.083s.094 3.18-2.945 4.403c-3.039 1.224-7.18-.49-8.6 0-1.422.49-2.782 1.224-4.512 1.101-1.73-.122-5.734-1.17-7.107-.856-3.817.87-6.046-.528-6.046-.528s2.523-3.022 4.563-3.634c2.039-.612 3.27-.026 4.663-.809 1.393-.782 5.843-2.618 7.944-2.25 2.101.366 6.23.611 6.76.489.532-.123 4.095-.91 5.28 2.084" fill="#BDECF3"/><path d="M120.005 49.811c0 .744-4.333.685-9.679.685s-9.68.059-9.68-.685c0-.743 4.334-2.007 9.68-2.007s9.68 1.264 9.68 2.007" fill="#67CADC"/><path d="M118.434 74.41s-.428-.582-.438-1.293c-.01-.712-.006-.984 1.197-2.148 1.201-1.164 1.204-2.692 1.204-2.692s.634 2.341.05 3.558c-.583 1.218.795 3.498.685 3.475-.11-.023-2.032.115-2.698-.9M103.968 74.929s-.255-.347-.261-.772c-.006-.425-.003-.587.714-1.282.717-.694.719-1.606.719-1.606s.378 1.397.03 2.123c-.349.727.474 2.087.408 2.074-.066-.014-1.212.068-1.61-.537" fill="#3F6F21"/><path d="M102.239 74.827s-.406-.412-.416-.917c-.01-.505-.005-.698 1.135-1.523 1.141-.826 1.144-1.91 1.144-1.91s.602 1.66.047 2.524c-.554.864.754 2.481.65 2.465-.104-.017-1.928.08-2.56-.639" fill="#61BD4F"/><path d="M116.913 75.349s-2.012-2.347-.544-3.842c1.468-1.493 1.794-1.973 1.196-3.147-.598-1.174.924-2.08.924-2.08s-.272 1.28.38 2.24c.653.96.762 2.508 0 3.574-.76 1.067.98 3.575.98 3.575s-2.284.293-2.936-.32l14.718 1.688" fill="#63BC50"/><path d="M118.135 57.746c.617-2.341 2.334-3.437 5.15-3.286-1.123 1.59-1.86 3.2-2.208 4.829l2.209 5.078c-2.403.372-4.12-.639-5.151-3.032-2.546 1.247-5.725 4.147-11.41 3.59-3.791-.372-6.69-2.25-8.699-5.636 2.249-3.41 5.35-5.116 9.303-5.116 3.954 0 7.555 1.19 10.806 3.573z" stroke="#E4F7FA" stroke-width="2.64" stroke-linecap="round" stroke-dasharray="2.640000162124636,3.960000243186954"/></g></g></svg>
