<svg xmlns="http://www.w3.org/2000/svg" width="48" height="64" viewBox="0 0 48 64">
  <g fill="none" fill-rule="evenodd">
    <path fill="#B3D4FF" d="M20,16 L44,16 C46.209139,16 48,17.790861 48,20 L48,48 C48,50.209139 46.209139,52 44,52 L4,52 C1.790861,52 2.705415e-16,50.209139 0,48 L0,20 L0,16 C-2.705415e-16,13.790861 1.790861,12 4,12 L16,12 C18.209139,12 20,13.790861 20,16 Z"/>
    <path fill="#B3D4FF" d="M0,20 L48,20 L48,48 C48,50.209139 46.209139,52 44,52 L4,52 C1.790861,52 2.705415e-16,50.209139 0,48 L0,20 Z" style="mix-blend-mode:multiply"/>
  </g>
</svg>
