<svg xmlns="http://www.w3.org/2000/svg" width="48" height="64" viewBox="0 0 48 64">
  <g fill="none" fill-rule="evenodd">
    <path fill="#FFF" stroke="#091E42" stroke-opacity=".08" d="M4,0.5 L32.007097,0.5 C32.9580806,0.5 33.8681235,0.886970896 34.5278649,1.57188773 L46.5207679,14.0224343 C47.1490066,14.6746463 47.5,15.5449725 47.5,16.4505466 L47.5,60 C47.5,61.9329966 45.9329966,63.5 44,63.5 L4,63.5 C2.06700338,63.5 0.5,61.9329966 0.5,60 L0.5,4 C0.5,2.06700338 2.06700338,0.5 4,0.5 Z"/>
    <path fill="#FFC107" d="M27.5568306,23.8331318 L33.0133661,33.3419352 L26.6881383,33.4064335 L21.2316028,23.8969583 L27.5568306,23.8331318 Z M14.6666667,34.4599065 L17.883699,39.9395787 L23.3402346,30.4301035 L20.1232022,24.9504313 L14.6666667,34.4599065 Z M22.4201286,34.6238398 L19.3126009,40.1666667 L30.2256721,40.1666667 L33.3331998,34.6238398 L22.4201286,34.6238398 Z"/>
  </g>
</svg>
