<svg width="24" height="24" viewBox="0 0 24 24" fill="none" xmlns="http://www.w3.org/2000/svg">
<path d="M0 6C0 2.68629 2.68629 0 6 0H18C21.3137 0 24 2.68629 24 6V18C24 21.3137 21.3137 24 18 24H6C2.68629 24 0 21.3137 0 18V6Z" fill="#DDDEE1"/>
<path fill-rule="evenodd" clip-rule="evenodd" d="M10.4444 5H13.5555L14.5343 7.61018L17.2845 7.15272L18.8401 9.84703L17.0686 12.0002L18.8397 14.153L17.2841 16.8473L14.5343 16.3899L13.5555 19H10.4444L9.46549 16.3896L6.7157 16.847L5.16014 14.1527L6.931 12.0002L5.15979 9.84728L6.71535 7.15297L9.46547 7.61042L10.4444 5ZM12.0001 14.625C13.4499 14.625 14.6251 13.4497 14.6251 12C14.6251 10.5503 13.4499 9.375 12.0001 9.375C10.5504 9.375 9.37512 10.5503 9.37512 12C9.37512 13.4497 10.5504 14.625 12.0001 14.625Z" fill="#101214"/>
</svg>
