<svg width="32" height="32" viewBox="0 0 32 32" fill="none" xmlns="http://www.w3.org/2000/svg">
<path d="M0 8C0 3.58172 3.58172 0 8 0H24C28.4183 0 32 3.58172 32 8V24C32 28.4183 28.4183 32 24 32H8C3.58172 32 0 28.4183 0 24V8Z" fill="#DDDEE1"/>
<path fill-rule="evenodd" clip-rule="evenodd" d="M13.9259 6.66666H18.074L19.3791 10.1469L23.046 9.53696L25.1201 13.1294L22.7582 16.0003L25.1196 18.8706L23.0456 22.463L19.3791 21.8532L18.074 25.3333H13.9259L12.6207 21.8528L8.95431 22.4627L6.88023 18.8703L9.24138 16.0003L6.87976 13.1297L8.95383 9.53729L12.6207 10.1472L13.9259 6.66666ZM16.0002 19.5C17.9332 19.5 19.5002 17.933 19.5002 16C19.5002 14.067 17.9332 12.5 16.0002 12.5C14.0672 12.5 12.5002 14.067 12.5002 16C12.5002 17.933 14.0672 19.5 16.0002 19.5Z" fill="#1E1F21"/>
</svg>
