<svg width="24" height="24" viewBox="0 0 24 24" fill="none" xmlns="http://www.w3.org/2000/svg">
<path d="M0 6C0 2.68629 2.68629 0 6 0H18C21.3137 0 24 2.68629 24 6V18C24 21.3137 21.3137 24 18 24H6C2.68629 24 0 21.3137 0 18V6Z" fill="#FB9700"/>
<path d="M17.8012 17.8013C17.8012 15.6051 16.0043 13.8303 13.8302 13.8303H10.1698V10.4804H6.19873V17.0692C6.19873 17.5795 6.42058 17.8013 6.93082 17.8013H17.8012ZM6.19873 6.19882C6.19873 8.39509 7.95131 10.1698 10.1476 10.1698H13.8302V13.5197H17.8012V6.93091C17.8012 6.44285 17.5572 6.19882 17.0691 6.19882H6.19873Z" fill="#101214"/>
</svg>
