<svg width="32" height="32" viewBox="0 0 32 32" fill="none" xmlns="http://www.w3.org/2000/svg">
<path d="M0 8C0 3.58172 3.58172 0 8 0H24C28.4183 0 32 3.58172 32 8V24C32 28.4183 28.4183 32 24 32H8C3.58172 32 0 28.4183 0 24V8Z" fill="#FB9700"/>
<path d="M24.33 24.3301C24.33 21.1765 21.7498 18.6281 18.628 18.6281H13.372V13.8181H7.66998V23.2789C7.66998 24.0116 7.98853 24.3301 8.72119 24.3301H24.33ZM7.66998 7.67014C7.66998 10.8237 10.1865 13.3721 13.3401 13.3721H18.628V18.1822H24.33V8.72134C24.33 8.02054 23.9796 7.67014 23.2788 7.67014H7.66998Z" fill="#101214"/>
</svg>
