<svg width="24" height="24" viewBox="0 0 24 24" fill="none" xmlns="http://www.w3.org/2000/svg">
<path d="M0 6C0 2.68629 2.68629 0 6 0H18C21.3137 0 24 2.68629 24 6V18C24 21.3137 21.3137 24 18 24H6C2.68629 24 0 21.3137 0 18V6Z" fill="#FB9700"/>
<path d="M18.545 18.5451C18.545 16.0672 16.5176 14.0649 14.0648 14.0649H9.93509V10.2856H5.45496V17.7191C5.45496 18.2948 5.70524 18.5451 6.2809 18.5451H18.545ZM5.45496 5.45508C5.45496 7.93292 7.43222 9.93521 9.91006 9.93521H14.0648V13.7145H18.545V6.28102C18.545 5.73039 18.2696 5.45508 17.719 5.45508H5.45496Z" fill="#101214"/>
</svg>
