<svg width="24" height="24" viewBox="0 0 24 24" fill="none" xmlns="http://www.w3.org/2000/svg">
<path d="M0 6C0 2.68629 2.68629 0 6 0H18C21.3137 0 24 2.68629 24 6V18C24 21.3137 21.3137 24 18 24H6C2.68629 24 0 21.3137 0 18V6Z" fill="#DDDEE1"/>
<path d="M14.625 5.875L14.625 15.0625H17.6875V5.875H14.625Z" fill="#101214"/>
<path d="M5.875 18.125H17.6875V16.375H5.875V18.125Z" fill="#101214"/>
<path d="M5.875 15.0625V10.25H8.9375L8.9375 15.0625H5.875Z" fill="#101214"/>
<path d="M10.25 8.5L10.25 15.0625H13.3125V8.5L10.25 8.5Z" fill="#101214"/>
</svg>
