<svg width="32" height="32" viewBox="0 0 32 32" fill="none" xmlns="http://www.w3.org/2000/svg">
<path d="M0 8C0 3.58172 3.58172 0 8 0H24C28.4183 0 32 3.58172 32 8V24C32 28.4183 28.4183 32 24 32H8C3.58172 32 0 28.4183 0 24V8Z" fill="#DDDEE1"/>
<path d="M19.5 7.83334L19.5 20.0833H23.5834V7.83334H19.5Z" fill="#1E1F21"/>
<path d="M7.83337 24.1667H23.5834V21.8333H7.83337V24.1667Z" fill="#1E1F21"/>
<path d="M7.83337 20.0833V13.6667H11.9167L11.9167 20.0833H7.83337Z" fill="#1E1F21"/>
<path d="M13.6667 11.3333L13.6667 20.0833H17.75V11.3333L13.6667 11.3333Z" fill="#1E1F21"/>
</svg>
