<svg width="24" height="24" viewBox="0 0 24 24" fill="none" xmlns="http://www.w3.org/2000/svg">
<path d="M0 6C0 2.68629 2.68629 0 6 0H18C21.3137 0 24 2.68629 24 6V18C24 21.3137 21.3137 24 18 24H6C2.68629 24 0 21.3137 0 18V6Z" fill="#FFC716"/>
<path fill-rule="evenodd" clip-rule="evenodd" d="M8.75011 11.5686C10.2202 11.3853 11.3854 10.2201 11.5687 8.75H13.6251V7.125H11.3576C10.8755 5.93394 9.7078 5.09375 8.34386 5.09375C6.54894 5.09375 5.09386 6.54882 5.09386 8.34375C5.09386 9.70768 5.93406 10.8754 7.12511 11.3575L7.12511 13.625H8.75011V11.5686ZM8.34386 9.5625C9.01696 9.5625 9.56261 9.01685 9.56261 8.34375C9.56261 7.67065 9.01696 7.125 8.34386 7.125C7.67077 7.125 7.12511 7.67065 7.12511 8.34375C7.12511 9.01685 7.67077 9.5625 8.34386 9.5625Z" fill="#101214"/>
<path d="M18.5001 7.9375C18.5001 9.05933 17.5907 9.96875 16.4689 9.96875C15.347 9.96875 14.4376 9.05933 14.4376 7.9375C14.4376 6.81567 15.347 5.90625 16.4689 5.90625C17.5907 5.90625 18.5001 6.81567 18.5001 7.9375Z" fill="#101214"/>
<path d="M7.93761 18.5C9.05944 18.5 9.96886 17.5906 9.96886 16.4688C9.96886 15.3469 9.05944 14.4375 7.93761 14.4375C6.81579 14.4375 5.90636 15.3469 5.90636 16.4688C5.90636 17.5906 6.81579 18.5 7.93761 18.5Z" fill="#101214"/>
<path d="M16.4689 18.5C17.5907 18.5 18.5001 17.5906 18.5001 16.4688C18.5001 15.3469 17.5907 14.4375 16.4689 14.4375C15.347 14.4375 14.4376 15.3469 14.4376 16.4688C14.4376 17.5906 15.347 18.5 16.4689 18.5Z" fill="#101214"/>
<path d="M13.6251 15.6562H10.7814V17.2812H13.6251V15.6562Z" fill="#101214"/>
<path d="M15.6564 10.7812V13.625H17.2814V10.7812H15.6564Z" fill="#101214"/>
</svg>
