<svg width="24" height="24" viewBox="0 0 24 24" fill="none" xmlns="http://www.w3.org/2000/svg">
<path d="M0 6C0 2.68629 2.68629 0 6 0H18C21.3137 0 24 2.68629 24 6V18C24 21.3137 21.3137 24 18 24H6C2.68629 24 0 21.3137 0 18V6Z" fill="#FFC716"/>
<path fill-rule="evenodd" clip-rule="evenodd" d="M8.34091 11.4946C9.98578 11.2895 11.2895 9.98578 11.4946 8.34091H13.7955V6.52273H11.2584C10.719 5.19008 9.41244 4.25 7.88636 4.25C5.87806 4.25 4.25 5.87806 4.25 7.88636C4.25 9.41244 5.19008 10.719 6.52273 11.2584L6.52273 13.7955H8.34091V11.4946ZM7.88636 9.25C8.63948 9.25 9.25 8.63948 9.25 7.88636C9.25 7.13325 8.63948 6.52273 7.88636 6.52273C7.13325 6.52273 6.52273 7.13325 6.52273 7.88636C6.52273 8.63948 7.13325 9.25 7.88636 9.25Z" fill="#101214"/>
<path d="M19.25 7.43182C19.25 8.68701 18.2325 9.70455 16.9773 9.70455C15.7221 9.70455 14.7045 8.68701 14.7045 7.43182C14.7045 6.17663 15.7221 5.15909 16.9773 5.15909C18.2325 5.15909 19.25 6.17663 19.25 7.43182Z" fill="#101214"/>
<path d="M7.43182 19.25C8.68701 19.25 9.70455 18.2325 9.70455 16.9773C9.70455 15.7221 8.68701 14.7045 7.43182 14.7045C6.17663 14.7045 5.15909 15.7221 5.15909 16.9773C5.15909 18.2325 6.17663 19.25 7.43182 19.25Z" fill="#101214"/>
<path d="M16.9773 19.25C18.2325 19.25 19.25 18.2325 19.25 16.9773C19.25 15.7221 18.2325 14.7045 16.9773 14.7045C15.7221 14.7045 14.7045 15.7221 14.7045 16.9773C14.7045 18.2325 15.7221 19.25 16.9773 19.25Z" fill="#101214"/>
<path d="M13.7955 16.0682H10.6136V17.8864H13.7955V16.0682Z" fill="#101214"/>
<path d="M16.0682 10.6136V13.7955H17.8864V10.6136H16.0682Z" fill="#101214"/>
</svg>
