<svg width="32" height="32" viewBox="0 0 32 32" fill="none" xmlns="http://www.w3.org/2000/svg">
<path d="M0 8C0 3.58172 3.58172 0 8 0H24C28.4183 0 32 3.58172 32 8V24C32 28.4183 28.4183 32 24 32H8C3.58172 32 0 28.4183 0 24V8Z" fill="#FFC716"/>
<path fill-rule="evenodd" clip-rule="evenodd" d="M11.4318 15.4265C13.5153 15.1667 15.1667 13.5153 15.4265 11.4318H18.3409V9.12879H15.1273C14.444 7.44076 12.7891 6.25 10.8561 6.25C8.3122 6.25 6.25 8.3122 6.25 10.8561C6.25 12.7891 7.44076 14.444 9.12879 15.1273L9.12879 18.3409H11.4318V15.4265ZM10.8561 12.5833C11.81 12.5833 12.5833 11.81 12.5833 10.8561C12.5833 9.90211 11.81 9.12879 10.8561 9.12879C9.90211 9.12879 9.12879 9.90211 9.12879 10.8561C9.12879 11.81 9.90211 12.5833 10.8561 12.5833Z" fill="#101214"/>
<path d="M25.25 10.2803C25.25 11.8702 23.9611 13.1591 22.3712 13.1591C20.7813 13.1591 19.4924 11.8702 19.4924 10.2803C19.4924 8.69039 20.7813 7.40152 22.3712 7.40152C23.9611 7.40152 25.25 8.69039 25.25 10.2803Z" fill="#101214"/>
<path d="M10.2803 25.25C11.8702 25.25 13.1591 23.9611 13.1591 22.3712C13.1591 20.7813 11.8702 19.4924 10.2803 19.4924C8.69039 19.4924 7.40152 20.7813 7.40152 22.3712C7.40152 23.9611 8.69039 25.25 10.2803 25.25Z" fill="#101214"/>
<path d="M22.3712 25.25C23.9611 25.25 25.25 23.9611 25.25 22.3712C25.25 20.7813 23.9611 19.4924 22.3712 19.4924C20.7813 19.4924 19.4924 20.7813 19.4924 22.3712C19.4924 23.9611 20.7813 25.25 22.3712 25.25Z" fill="#101214"/>
<path d="M18.3409 21.2197H14.3106V23.5227H18.3409V21.2197Z" fill="#101214"/>
<path d="M21.2197 14.3106V18.3409H23.5227V14.3106H21.2197Z" fill="#101214"/>
</svg>
