<svg width="24" height="24" viewBox="0 0 24 24" fill="none" xmlns="http://www.w3.org/2000/svg">
<path d="M0 6C0 2.68629 2.68629 0 6 0H18C21.3137 0 24 2.68629 24 6V18C24 21.3137 21.3137 24 18 24H6C2.68629 24 0 21.3137 0 18V6Z" fill="#94C748"/>
<path d="M17.8416 11.7632L16.8555 17.7872C16.7912 18.1516 16.5339 18.366 16.1695 18.366H7.80876C7.44432 18.366 7.18707 18.1516 7.12276 17.7872L5.3863 7.04685C5.32199 6.68241 5.51493 6.44659 5.85793 6.44659H18.1203C18.4633 6.44659 18.6563 6.68241 18.5919 7.04685L18.1203 9.87663C18.056 10.2839 17.8202 10.4554 17.4343 10.4554H10.0597C9.95254 10.4554 9.88822 10.5198 9.90966 10.6484L10.4885 14.2071C10.5099 14.2928 10.5742 14.3571 10.66 14.3571H13.3183C13.404 14.3571 13.4683 14.2928 13.4898 14.2071L13.8971 11.6345C13.94 11.313 14.1543 11.1843 14.4545 11.1843H17.3486C17.7773 11.1843 17.9059 11.3987 17.8416 11.7632Z" fill="#101214"/>
</svg>
