<svg width="24" height="24" viewBox="0 0 24 24" fill="none" xmlns="http://www.w3.org/2000/svg">
<path d="M0 6C0 2.68629 2.68629 0 6 0H18C21.3137 0 24 2.68629 24 6V18C24 21.3137 21.3137 24 18 24H6C2.68629 24 0 21.3137 0 18V6Z" fill="#94C748"/>
<path d="M17.898 11.3525L16.9042 17.4173C16.8394 17.7842 16.5801 18 16.2129 18H7.78697C7.41969 18 7.16043 17.7842 7.09562 17.4173L5.34562 6.60432C5.28081 6.23741 5.47525 6 5.82093 6H18.1789C18.5246 6 18.719 6.23741 18.6542 6.60432L18.1789 9.45324C18.1141 9.86331 17.8764 10.036 17.4876 10.036H10.0555C9.94746 10.036 9.88264 10.1007 9.90425 10.2302L10.4876 13.8129C10.5092 13.8993 10.574 13.964 10.6604 13.964H13.3394C13.4258 13.964 13.4907 13.8993 13.5123 13.8129L13.9228 11.223C13.966 10.8993 14.182 10.7698 14.4845 10.7698H17.4011C17.8332 10.7698 17.9629 10.9856 17.898 11.3525Z" fill="#101214"/>
</svg>
