<svg width="24" height="24" viewBox="0 0 24 24" fill="none" xmlns="http://www.w3.org/2000/svg">
<path fill-rule="evenodd" clip-rule="evenodd" d="M6 0C2.68629 0 0 2.68629 0 6V18C0 21.3137 2.68629 24 6 24H18C21.3137 24 24 21.3137 24 18V6C24 2.68629 21.3137 0 18 0H6ZM16.8554 17.7872L17.8416 11.7632C17.9059 11.3987 17.7772 11.1843 17.3485 11.1843H14.4544C14.1543 11.1843 13.9399 11.313 13.897 11.6345L13.4897 14.2071C13.4683 14.2928 13.4039 14.3571 13.3182 14.3571H10.6599C10.5742 14.3571 10.5099 14.2928 10.4884 14.2071L9.9096 10.6484C9.88816 10.5198 9.95247 10.4554 10.0597 10.4554H17.4342C17.8201 10.4554 18.0559 10.2839 18.1202 9.87663L18.5919 7.04685C18.6562 6.68241 18.4633 6.44659 18.1202 6.44659H5.85787C5.51487 6.44659 5.32193 6.68241 5.38624 7.04685L7.12269 17.7872C7.18701 18.1516 7.44426 18.366 7.8087 18.366H16.1694C16.5339 18.366 16.7911 18.1516 16.8554 17.7872Z" fill="#292A2E"/>
</svg>
