<svg width="24" height="24" viewBox="0 0 24 24" fill="none" xmlns="http://www.w3.org/2000/svg">
<path d="M18 0C21.3137 0 24 2.68629 24 6V18C24 21.3137 21.3137 24 18 24H6C2.68629 24 0 21.3137 0 18V6C0 2.68629 2.68629 0 6 0H18ZM5.82129 6C5.47561 6 5.28089 6.23759 5.3457 6.60449L7.0957 17.417C7.16052 17.7839 7.41983 18 7.78711 18H16.2129C16.5802 18 16.8395 17.7839 16.9043 17.417L17.8984 11.3525C17.9632 10.9857 17.8333 10.7696 17.4014 10.7695H14.4844C14.1821 10.7696 13.9662 10.8992 13.9229 11.2227L13.5127 13.8125C13.4911 13.8987 13.4261 13.9637 13.3398 13.9639H10.6602C10.5739 13.9637 10.5089 13.8987 10.4873 13.8125L9.9043 10.2305C9.88269 10.101 9.94764 10.0361 10.0557 10.0361H17.4873C17.8762 10.0361 18.1139 9.8632 18.1787 9.45312L18.6543 6.60449C18.7191 6.23759 18.5244 6 18.1787 6H5.82129Z" fill="#292A2E"/>
</svg>
