<svg width="32" height="32" viewBox="0 0 32 32" fill="none" xmlns="http://www.w3.org/2000/svg">
<path d="M0 8C0 3.58172 3.58172 0 8 0H24C28.4183 0 32 3.58172 32 8V24C32 28.4183 28.4183 32 24 32H8C3.58172 32 0 28.4183 0 24V8Z" fill="#94C748"/>
<path d="M23.8642 15.1367L22.5391 23.223C22.4527 23.7122 22.107 24 21.6173 24H10.3827C9.89303 24 9.54735 23.7122 9.46094 23.223L7.12761 8.80576C7.04119 8.31655 7.30045 8 7.76135 8H24.2387C24.6996 8 24.9588 8.31655 24.8724 8.80576L24.2387 12.6043C24.1522 13.1511 23.8354 13.3813 23.3168 13.3813H13.4074C13.2634 13.3813 13.177 13.4676 13.2058 13.6403L13.9836 18.4173C14.0124 18.5324 14.0988 18.6187 14.214 18.6187H17.786C17.9012 18.6187 17.9876 18.5324 18.0165 18.4173L18.5638 14.964C18.6214 14.5324 18.9095 14.3597 19.3127 14.3597H23.2016C23.7778 14.3597 23.9506 14.6475 23.8642 15.1367Z" fill="#111213"/>
</svg>
