<svg width="32" height="32" viewBox="0 0 32 32" fill="none" xmlns="http://www.w3.org/2000/svg">
<path d="M0 8C0 3.58172 3.58172 0 8 0H24C28.4183 0 32 3.58172 32 8V24C32 28.4183 28.4183 32 24 32H8C3.58172 32 0 28.4183 0 24V8Z" fill="#DDDEE1"/>
<path fill-rule="evenodd" clip-rule="evenodd" d="M13.4027 22.5387L24.6527 22.5385V8L7.34497 8.00024V26L13.4027 22.5387ZM15.9988 16.4808C16.6679 16.4808 17.2104 15.9383 17.2104 15.2692C17.2104 14.6001 16.6679 14.0577 15.9988 14.0577C15.3297 14.0577 14.7873 14.6001 14.7873 15.2692C14.7873 15.9383 15.3297 16.4808 15.9988 16.4808ZM21.5373 15.2692C21.5373 15.9383 20.9949 16.4808 20.3257 16.4808C19.6566 16.4808 19.1142 15.9383 19.1142 15.2692C19.1142 14.6001 19.6566 14.0577 20.3257 14.0577C20.9949 14.0577 21.5373 14.6001 21.5373 15.2692ZM11.6719 16.4808C12.341 16.4808 12.8834 15.9383 12.8834 15.2692C12.8834 14.6001 12.341 14.0577 11.6719 14.0577C11.0028 14.0577 10.4604 14.6001 10.4604 15.2692C10.4604 15.9383 11.0028 16.4808 11.6719 16.4808Z" fill="#1E1F21"/>
</svg>
