<svg width="24" height="24" viewBox="0 0 24 24" fill="none" xmlns="http://www.w3.org/2000/svg">
<path d="M0 6C0 2.68629 2.68629 0 6 0H18C21.3137 0 24 2.68629 24 6V18C24 21.3137 21.3137 24 18 24H6C2.68629 24 0 21.3137 0 18V6Z" fill="#DDDEE1"/>
<path fill-rule="evenodd" clip-rule="evenodd" d="M18.1252 16.3751L10.2502 16.3753L5.87524 19.0001V5.87526L18.1252 5.87509V16.3751ZM8.93737 12.0001C9.42062 12.0001 9.81237 11.6083 9.81237 11.1251C9.81237 10.6418 9.42062 10.2501 8.93737 10.2501C8.45412 10.2501 8.06237 10.6418 8.06237 11.1251C8.06237 11.6083 8.45412 12.0001 8.93737 12.0001ZM12.0002 12.0001C12.4835 12.0001 12.8752 11.6083 12.8752 11.1251C12.8752 10.6418 12.4835 10.2501 12.0002 10.2501C11.517 10.2501 11.1252 10.6418 11.1252 11.1251C11.1252 11.6083 11.517 12.0001 12.0002 12.0001ZM15.9376 11.1251C15.9376 11.6083 15.5458 12.0001 15.0626 12.0001C14.5793 12.0001 14.1876 11.6083 14.1876 11.1251C14.1876 10.6418 14.5793 10.2501 15.0626 10.2501C15.5458 10.2501 15.9376 10.6418 15.9376 11.1251Z" fill="#101214"/>
</svg>
