<svg width="32" height="32" viewBox="0 0 32 32" fill="none" xmlns="http://www.w3.org/2000/svg">
<path d="M0 8C0 3.58172 3.58172 0 8 0H24C28.4183 0 32 3.58172 32 8V24C32 28.4183 28.4183 32 24 32H8C3.58172 32 0 28.4183 0 24V8Z" fill="#94C748"/>
<path d="M17.0002 10.5032V6.01059L25.2121 6H25.2232C25.6612 6.00907 26.0096 6.36547 26.0005 6.79699V14.9932H21.5125V10.5032H17.0002Z" fill="#111213"/>
<path d="M17.0004 19.4863V14.9932H21.4909V23.2136C21.494 23.6451 21.1411 23.997 20.7025 24H8.77745C8.33939 23.9909 7.99105 23.6345 8.00013 23.203V11.2896C7.9971 10.8581 8.34997 10.5062 8.78854 10.5032L17.0002 10.5032L17.0004 14.9932H12.4987V19.4863H17.0004Z" fill="#111213"/>
</svg>
