<svg width="32" height="32" viewBox="0 0 32 32" fill="none" xmlns="http://www.w3.org/2000/svg">
<path d="M0 8C0 3.58172 3.58172 0 8 0H24C28.4183 0 32 3.58172 32 8V24C32 28.4183 28.4183 32 24 32H8C3.58172 32 0 28.4183 0 24V8Z" fill="#DDDEE1"/>
<path fill-rule="evenodd" clip-rule="evenodd" d="M9 25.3333V6.66666H23V25.3333H17.7503V21.25H14.2503V25.3333H9ZM12.5 10.75H14.8333V8.99999H12.5V10.75ZM17.1667 10.75H19.5V8.99999H17.1667V10.75ZM14.8333 14.8333H12.5V13.0833H14.8333V14.8333ZM12.5 18.9167H14.8333V17.1667H12.5V18.9167ZM19.5 14.8333H17.1667V13.0833H19.5V14.8333ZM17.1667 18.9167H19.5V17.1667H17.1667V18.9167Z" fill="#1E1F21"/>
</svg>
