<svg width="24" height="24" viewBox="0 0 24 24" fill="none" xmlns="http://www.w3.org/2000/svg">
<path d="M0 6C0 2.68629 2.68629 0 6 0H18C21.3137 0 24 2.68629 24 6V18C24 21.3137 21.3137 24 18 24H6C2.68629 24 0 21.3137 0 18V6Z" fill="#94C748"/>
<path d="M12.0046 11.8847V14.9485H8.93487V11.8847H12.0046V8.82289H6.40487C6.10581 8.82495 5.86518 9.06489 5.86724 9.35914C5.86724 9.36155 5.86724 9.36395 5.86724 9.36636V17.483C5.86106 17.7772 6.09859 18.0203 6.39731 18.0265C6.39971 18.0265 6.40246 18.0265 6.40487 18.0265H14.5291C14.8281 18.0244 15.0687 17.7845 15.0667 17.4902C15.0667 17.4878 15.0667 17.4854 15.0667 17.483V11.8847H12.0046Z" fill="#101214"/>
<path d="M12.0046 5.75935L12.0046 8.82289L15.0815 8.82286V11.8846H18.1419V6.2956C18.1481 6.00135 17.9105 5.75832 17.6118 5.75214C17.6094 5.75214 17.6067 5.75214 17.6042 5.75214L12.0046 5.75935Z" fill="#101214"/>
</svg>
