<svg width="32" height="32" viewBox="0 0 32 32" fill="none" xmlns="http://www.w3.org/2000/svg">
<path d="M0 8C0 3.58172 3.58172 0 8 0H24C28.4183 0 32 3.58172 32 8V24C32 28.4183 28.4183 32 24 32H8C3.58172 32 0 28.4183 0 24V8Z" fill="#1868DB"/>
<path d="M23.8504 19.2815C18.4655 16.6778 16.8924 16.2887 14.6235 16.2887C11.9613 16.2887 9.69244 17.3961 7.66555 20.5086L7.33277 21.0174C7.0605 21.4364 7 21.586 7 21.7656C7 21.9452 7.09076 22.0948 7.42353 22.3043L10.842 24.4292C11.0235 24.5489 11.1748 24.6088 11.3261 24.6088C11.5076 24.6088 11.6286 24.519 11.8101 24.2496L12.3546 23.4116C13.2017 22.1247 13.958 21.7057 14.9261 21.7057C15.7731 21.7057 16.7714 21.9452 18.0118 22.5437L21.5815 24.2197C21.9445 24.3993 22.3378 24.3095 22.5193 23.8905L24.2134 20.1794C24.395 19.7604 24.2739 19.491 23.8504 19.2815ZM8.14958 12.7272C13.5345 15.331 15.1076 15.7201 17.3765 15.7201C20.0387 15.7201 22.3076 14.6127 24.3345 11.5002L24.6672 10.9914C24.9395 10.5724 25 10.4228 25 10.2432C25 10.0636 24.9092 9.91397 24.5765 9.70448L21.158 7.57956C20.9765 7.45985 20.8252 7.39999 20.6739 7.39999C20.4924 7.39999 20.3714 7.48978 20.1899 7.75913L19.6454 8.59713C18.7983 9.88405 18.042 10.303 17.0739 10.303C16.2269 10.303 15.2286 10.0636 13.9882 9.46505L10.4185 7.78906C10.0555 7.60949 9.66218 7.69928 9.48067 8.11827L7.78655 11.8294C7.60504 12.2484 7.72605 12.5177 8.14958 12.7272Z" fill="white"/>
</svg>
