<svg width="32" height="32" viewBox="0 0 32 32" fill="none" xmlns="http://www.w3.org/2000/svg">
<path fill-rule="evenodd" clip-rule="evenodd" d="M8 0C3.58172 0 0 3.58172 0 8V24C0 28.4183 3.58172 32 8 32H24C28.4183 32 32 28.4183 32 24V8C32 3.58172 28.4183 0 24 0H8ZM7.46432 10.8997C7.71237 10.3654 8.19879 9.32964 8.54536 8.5979C8.89178 7.86615 9.20274 7.26758 9.23617 7.26758C9.2696 7.26758 10.8502 8.00437 12.7485 8.90476C15.6625 10.2871 16.3017 10.5419 16.8526 10.5421C18.0897 10.5423 18.8974 9.98894 19.9007 8.45395C20.2535 7.91405 20.5912 7.4163 20.6511 7.34808C20.7745 7.20741 24.9989 9.71414 25 9.92849C25.0004 10.0038 24.6338 10.626 24.1854 11.3112C22.6938 13.5905 20.7155 15.0608 18.5196 15.5218C17.2972 15.7784 16.6363 15.7773 15.3727 15.5162C14.1612 15.266 13.9451 15.1768 10.0376 13.3134L7.01324 11.871L7.46432 10.8997ZM7.56447 21.2078C9.18173 18.6008 11.1873 16.9838 13.4407 16.4698C14.5475 16.2174 16.3405 16.308 17.5209 16.676C18.3806 16.944 24.6518 19.8479 24.9217 20.1029C25.0363 20.2114 23.0045 24.7323 22.841 24.7323C22.8046 24.7323 21.2735 24.0165 19.4384 23.1418C15.8985 21.4542 15.2776 21.2681 14.2832 21.5963C13.5631 21.834 12.6644 22.7078 12.0136 23.8033C11.7102 24.3142 11.4089 24.7323 11.3445 24.7323C11.2407 24.7323 9.48708 23.6858 7.64319 22.5231L7 22.1176L7.56447 21.2078Z" fill="#292A2E"/>
</svg>
