<svg width="24" height="24" viewBox="0 0 24 24" fill="none" xmlns="http://www.w3.org/2000/svg">
<path fill-rule="evenodd" clip-rule="evenodd" d="M6 0C2.68629 0 0 2.68629 0 6V18C0 21.3137 2.68629 24 6 24H18C21.3137 24 24 21.3137 24 18V6C24 2.68629 21.3137 0 18 0H6ZM11.1492 12.2068C12.7096 12.2068 13.7914 12.4744 17.4948 14.265C17.7861 14.4091 17.8693 14.5944 17.7445 14.8825L16.5794 17.4348C16.4545 17.7229 16.1841 17.7847 15.9344 17.6612L13.4794 16.5086C12.6264 16.0969 11.9398 15.9322 11.3572 15.9322C10.6915 15.9322 10.1713 16.2204 9.58878 17.1054L9.21429 17.6818C9.08946 17.867 9.00624 17.9288 8.8814 17.9288C8.77738 17.9288 8.67335 17.8876 8.54852 17.8053L6.19752 16.3439C5.96867 16.1998 5.90625 16.0969 5.90625 15.9734C5.90625 15.8499 5.94786 15.747 6.13511 15.4588L6.36397 15.1089C7.75792 12.9683 9.31832 12.2068 11.1492 12.2068ZM13.0425 11.8157C11.4821 11.8157 10.4002 11.5481 6.69685 9.75745C6.40558 9.61338 6.32236 9.42813 6.44719 9.13998L7.61228 6.58773C7.73711 6.29958 8.00758 6.23783 8.25725 6.36132L10.7123 7.51395C11.5653 7.9256 12.2519 8.09026 12.8344 8.09026C13.5002 8.09026 14.0203 7.80211 14.6029 6.91705L14.9773 6.34074C15.1022 6.1555 15.1854 6.09375 15.3102 6.09375C15.4143 6.09375 15.5183 6.13492 15.6431 6.21725L17.9941 7.67861C18.223 7.82269 18.2854 7.9256 18.2854 8.0491C18.2854 8.17259 18.2438 8.27551 18.0565 8.56366L17.8277 8.91357C16.4337 11.0542 14.8733 11.8157 13.0425 11.8157Z" fill="#292A2E"/>
</svg>
