<svg width="24" height="24" viewBox="0 0 24 24" fill="none" xmlns="http://www.w3.org/2000/svg">
<path d="M0 6C0 2.68629 2.68629 0 6 0H18C21.3137 0 24 2.68629 24 6V18C24 21.3137 21.3137 24 18 24H6C2.68629 24 0 21.3137 0 18V6Z" fill="#1868DB"/>
<path d="M17.4948 14.265C13.7914 12.4744 12.7096 12.2068 11.1492 12.2068C9.31832 12.2068 7.75792 12.9683 6.36397 15.1089L6.13511 15.4588C5.94786 15.747 5.90625 15.8499 5.90625 15.9734C5.90625 16.0969 5.96867 16.1998 6.19752 16.3439L8.54852 17.8053C8.67335 17.8876 8.77738 17.9288 8.8814 17.9288C9.00624 17.9288 9.08946 17.867 9.21429 17.6818L9.58878 17.1054C10.1713 16.2204 10.6915 15.9322 11.3572 15.9322C11.9398 15.9322 12.6264 16.0969 13.4794 16.5085L15.9344 17.6612C16.1841 17.7847 16.4545 17.7229 16.5794 17.4348L17.7445 14.8825C17.8693 14.5944 17.7861 14.4091 17.4948 14.265ZM6.69685 9.75745C10.4002 11.5481 11.4821 11.8157 13.0425 11.8157C14.8733 11.8157 16.4337 11.0542 17.8277 8.91357L18.0565 8.56366C18.2438 8.27551 18.2854 8.17259 18.2854 8.0491C18.2854 7.9256 18.223 7.82269 17.9941 7.67861L15.6431 6.21725C15.5183 6.13492 15.4143 6.09375 15.3102 6.09375C15.1854 6.09375 15.1022 6.1555 14.9774 6.34074L14.6029 6.91705C14.0203 7.80211 13.5002 8.09026 12.8344 8.09026C12.2519 8.09026 11.5653 7.9256 10.7123 7.51395L8.25725 6.36132C8.00758 6.23783 7.73711 6.29958 7.61228 6.58773L6.44719 9.13998C6.32236 9.42813 6.40558 9.61338 6.69685 9.75745Z" fill="white"/>
</svg>
