<svg width="24" height="24" viewBox="0 0 24 24" fill="none" xmlns="http://www.w3.org/2000/svg">
<path d="M0 6C0 2.68629 2.68629 0 6 0H18C21.3137 0 24 2.68629 24 6V18C24 21.3137 21.3137 24 18 24H6C2.68629 24 0 21.3137 0 18V6Z" fill="#FFC716"/>
<path d="M16.4302 17.42C15.2235 18.4075 13.6809 19 12 19H6.4V18.5333L10.2385 14.7515C10.7468 15.0776 11.3513 15.2667 12 15.2667C12.6487 15.2667 13.2533 15.0776 13.7616 14.7515L16.4302 17.42Z" fill="#101214"/>
<path d="M17.4201 16.4301C18.4076 15.2234 19 13.6809 19 12C19 10.3191 18.4076 8.77665 17.4201 7.56995L14.7515 10.2385C15.0776 10.7468 15.2667 11.3513 15.2667 12C15.2667 12.6487 15.0776 13.2532 14.7515 13.7615L17.4201 16.4301Z" fill="#101214"/>
<path d="M16.4302 6.57999L13.7616 9.24855C13.2533 8.92245 12.6487 8.73333 12 8.73333C11.3513 8.73333 10.7468 8.92241 10.2385 9.24847L7.56995 6.57989C8.77665 5.59244 10.3191 5 12 5C13.6809 5 15.2235 5.59248 16.4302 6.57999Z" fill="#101214"/>
<path d="M6.57999 7.56983C5.59248 8.77655 5 10.3191 5 12C5 13.6809 5.59248 15.2235 6.57999 16.4302L9.24855 13.7616C8.92245 13.2533 8.73333 12.6487 8.73333 12C8.73333 11.3513 8.92245 10.7467 9.24855 10.2384L6.57999 7.56983Z" fill="#101214"/>
</svg>
