<svg width="32" height="32" viewBox="0 0 32 32" fill="none" xmlns="http://www.w3.org/2000/svg">
<path d="M0 8C0 3.58172 3.58172 0 8 0H24C28.4183 0 32 3.58172 32 8V24C32 28.4183 28.4183 32 24 32H8C3.58172 32 0 28.4183 0 24V8Z" fill="#DDDEE1"/>
<path fill-rule="evenodd" clip-rule="evenodd" d="M25.3328 16C25.3328 13.5248 24.3495 11.151 22.5993 9.40071C20.849 7.65047 18.4752 6.6672 16 6.6672C13.5248 6.6672 11.151 7.65047 9.40071 9.40071C7.65047 11.151 6.6672 13.5248 6.6672 16C6.6672 18.4752 7.65047 20.849 9.40071 22.5993C11.151 24.3495 13.5248 25.3328 16 25.3328C18.4752 25.3328 20.849 24.3495 22.5993 22.5993C24.3495 20.849 25.3328 18.4752 25.3328 16ZM12.8384 22.1664L12.8752 22.2656C11.8885 21.773 11.0319 21.0544 10.3752 20.1684C9.71855 19.2823 9.28026 18.2538 9.096 17.1664H11.944C12.0368 19.0688 12.352 20.8064 12.8384 22.1664ZM14.2832 17.1664C14.3728 18.84 14.6528 20.304 15.0384 21.3824C15.2752 22.048 15.5312 22.504 15.7584 22.7728C15.8263 22.8593 15.9086 22.9334 16.0016 22.992C16.0946 22.9334 16.1769 22.8593 16.2448 22.7728C16.472 22.504 16.728 22.048 16.9648 21.3824C17.3488 20.304 17.6304 18.84 17.72 17.1664H14.2832ZM17.72 14.8336H14.2816C14.3712 13.16 14.6512 11.696 15.0368 10.6176C15.2736 9.952 15.5296 9.496 15.7568 9.2272C15.8247 9.14075 15.907 9.0666 16 9.008C16.093 9.0666 16.1753 9.14075 16.2432 9.2272C16.4704 9.496 16.7264 9.952 16.9632 10.6192C17.3472 11.696 17.6304 13.16 17.72 14.8336ZM20.0544 17.1664C19.9632 19.0688 19.6464 20.8064 19.1616 22.1664L19.1248 22.2656C20.1115 21.773 20.9681 21.0544 21.6248 20.1684C22.2814 19.2823 22.7197 18.2538 22.904 17.1664H20.0544ZM22.9024 14.8336H20.0544C19.9632 12.9312 19.6464 11.1936 19.1616 9.8336L19.1248 9.7344C20.1115 10.227 20.9681 10.9456 21.6248 11.8316C22.2814 12.7177 22.7181 13.7462 22.9024 14.8336ZM11.9456 14.8336H9.0976C9.28186 13.7462 9.72015 12.7177 10.3768 11.8316C11.0335 10.9456 11.8901 10.227 12.8768 9.7344L12.84 9.8336C12.3552 11.1936 12.04 12.9312 11.9456 14.8336Z" fill="#111213"/>
</svg>
