<svg width="24" height="24" viewBox="0 0 24 24" fill="none" xmlns="http://www.w3.org/2000/svg">
<path d="M0 6C0 2.68629 2.68629 0 6 0H18C21.3137 0 24 2.68629 24 6V18C24 21.3137 21.3137 24 18 24H6C2.68629 24 0 21.3137 0 18V6Z" fill="#DDDEE1"/>
<path fill-rule="evenodd" clip-rule="evenodd" d="M19 12C19 8.13401 15.866 5.00001 12 5C8.13402 5 5 8.13401 5 12C5 15.866 8.13401 19 12 19C15.866 19 19 15.866 19 12ZM9.62919 16.6253C9.63798 16.6499 9.64687 16.6745 9.65587 16.6989C8.18273 15.9626 7.10425 14.5539 6.82259 12.875H8.95859C9.02782 14.3012 9.26489 15.6053 9.62919 16.6253ZM10.7109 12.875C10.7785 14.1302 10.9885 15.2283 11.2772 16.0367C11.4556 16.5362 11.6476 16.8785 11.8171 17.0792C11.9093 17.1884 11.971 17.2297 12 17.2445C12.029 17.2297 12.0907 17.1884 12.1829 17.0792C12.3524 16.8785 12.5444 16.5362 12.7228 16.0367C13.0115 15.2283 13.2215 14.1302 13.2891 12.875L10.7109 12.875ZM13.2891 11.125L10.7109 11.125C10.7785 9.86979 10.9885 8.77167 11.2772 7.96327C11.4556 7.46377 11.6476 7.12151 11.8171 6.92085C11.9093 6.81164 11.971 6.77033 12 6.75555C12.0291 6.77033 12.0907 6.81164 12.1829 6.92085C12.3524 7.12151 12.5444 7.46377 12.7228 7.96327C13.0115 8.77167 13.2215 9.86979 13.2891 11.125ZM15.0414 12.875C14.9722 14.3012 14.7351 15.6053 14.3708 16.6253C14.362 16.6499 14.3531 16.6745 14.3441 16.6989C15.8173 15.9626 16.8957 14.5539 17.1774 12.875H15.0414ZM17.1774 11.125L15.0414 11.125C14.9722 9.69882 14.7351 8.39473 14.3708 7.37468C14.362 7.35007 14.3531 7.32554 14.3441 7.30111C15.8173 8.03743 16.8957 9.44612 17.1774 11.125ZM8.95859 11.125L6.82259 11.125C7.10425 9.44612 8.18273 8.03743 9.65587 7.30111C9.64687 7.32554 9.63798 7.35007 9.62919 7.37468C9.26489 8.39473 9.02782 9.69882 8.95859 11.125Z" fill="#1E1F21"/>
</svg>
