<svg width="24" height="24" viewBox="0 0 24 24" fill="none" xmlns="http://www.w3.org/2000/svg">
<path fill-rule="evenodd" clip-rule="evenodd" d="M6 0C2.68629 0 0 2.68629 0 6V18C0 21.3137 2.68629 24 6 24H18C21.3137 24 24 21.3137 24 18V6C24 2.68629 21.3137 0 18 0H6ZM16.4302 6.57998L13.7617 9.24854C13.2534 8.92244 12.6488 8.73333 12.0001 8.73333C11.3514 8.73333 10.7468 8.92241 10.2386 9.24846L7.57001 6.57988C8.77671 5.59243 10.3192 4.99999 12.0001 4.99999C13.681 4.99999 15.2235 5.59247 16.4302 6.57998ZM19.0001 12C19.0001 13.6809 18.4076 15.2233 17.4202 16.43L14.7516 13.7615C15.0776 13.2532 15.2667 12.6487 15.2667 12C15.2667 11.3513 15.0776 10.7468 14.7516 10.2385L17.4202 7.56994C18.4076 8.77664 19.0001 10.3191 19.0001 12ZM12.0001 19C13.681 19 15.2235 18.4075 16.4302 17.42L13.7617 14.7514C13.2534 15.0775 12.6488 15.2667 12.0001 15.2667C11.3514 15.2667 10.7468 15.0776 10.2386 14.7515L6.40006 18.5333V19H12.0001ZM5.00006 12C5.00006 10.3191 5.59254 8.77654 6.58005 7.56982L9.24861 10.2384C8.92251 10.7467 8.73339 11.3512 8.73339 12C8.73339 12.6487 8.92251 13.2533 9.24861 13.7616L6.58005 16.4302C5.59254 15.2234 5.00006 13.6809 5.00006 12Z" fill="#292A2E"/>
</svg>
