<svg width="32" height="32" viewBox="0 0 32 32" fill="none" xmlns="http://www.w3.org/2000/svg">
<path d="M0 8C0 3.58172 3.58172 0 8 0H24C28.4183 0 32 3.58172 32 8V24C32 28.4183 28.4183 32 24 32H8C3.58172 32 0 28.4183 0 24V8Z" fill="#FB9700"/>
<path d="M27.4908 16.2718C25.315 14.096 21.7787 14.1191 19.626 16.2718L17.8145 18.0833C16.8142 19.0835 15.1896 19.0835 14.1894 18.0833L12.6843 16.5782L8.75091 20.5116L10.256 22.0167C13.4282 25.1889 18.5738 25.1889 21.7459 22.0167L27.4908 16.2718ZM4.50919 15.7301C6.68497 17.9059 10.177 17.9271 12.3528 15.7513L14.1875 13.9166C15.1877 12.9164 16.8123 12.9164 17.8125 13.9166L19.3177 15.4218L23.251 11.4884L21.7459 9.98326C18.5738 6.81112 13.4282 6.81112 10.256 9.98326L4.51111 15.7282L4.50919 15.7301Z" fill="#1E1F21"/>
</svg>
