<svg width="24" height="24" viewBox="0 0 24 24" fill="none" xmlns="http://www.w3.org/2000/svg">
<path d="M0 6C0 2.68629 2.68629 0 6 0H18C21.3137 0 24 2.68629 24 6V18C24 21.3137 21.3137 24 18 24H6C2.68629 24 0 21.3137 0 18V6Z" fill="#FB9700"/>
<path d="M20.8391 12.2091C19.1654 10.5354 16.4451 10.5532 14.7892 12.2091L13.3957 13.6026C12.6263 14.372 11.3766 14.372 10.6072 13.6026L9.44943 12.4448L6.42376 15.4705L7.58155 16.6283C10.0217 19.0684 13.9798 19.0684 16.4199 16.6283L20.8391 12.2091ZM3.16089 11.7924C4.83457 13.4661 7.52077 13.4824 9.19445 11.8087L10.6057 10.3974C11.3751 9.62805 12.6248 9.62805 13.3942 10.3974L14.552 11.5552L17.5777 8.52956L16.4199 7.37177C13.9798 4.93166 10.0217 4.93166 7.58155 7.37177L3.16237 11.7909L3.16089 11.7924Z" fill="#101214"/>
</svg>
