<svg width="24" height="24" viewBox="0 0 24 24" fill="none" xmlns="http://www.w3.org/2000/svg">
<path d="M0 6C0 2.68629 2.68629 0 6 0H18C21.3137 0 24 2.68629 24 6V18C24 21.3137 21.3137 24 18 24H6C2.68629 24 0 21.3137 0 18V6Z" fill="#FB9700"/>
<path d="M20.705 12.2038C19.0731 10.572 16.4209 10.5894 14.8064 12.2038L13.4477 13.5625C12.6975 14.3127 11.4791 14.3127 10.7289 13.5625L9.60008 12.4337L6.65005 15.3837L7.77889 16.5125C10.158 18.8917 14.0172 18.8917 16.3963 16.5125L20.705 12.2038ZM3.46875 11.7976C5.10059 13.4294 7.71963 13.4453 9.35147 11.8135L10.7275 10.4375C11.4776 9.68733 12.6961 9.68733 13.4463 10.4375L14.5751 11.5663L17.5251 8.6163L16.3963 7.48745C14.0172 5.10835 10.158 5.10835 7.77889 7.48745L3.47019 11.7962L3.46875 11.7976Z" fill="#101214"/>
</svg>
