<svg width="24" height="24" viewBox="0 0 24 24" fill="none" xmlns="http://www.w3.org/2000/svg">
<path d="M0 6C0 2.68629 2.68629 0 6 0H18C21.3137 0 24 2.68629 24 6V18C24 21.3137 21.3137 24 18 24H6C2.68629 24 0 21.3137 0 18V6Z" fill="#DDDEE1"/>
<path d="M14.5195 12C14.5195 13.3915 13.3915 14.5195 12 14.5195C10.6085 14.5195 9.48047 13.3915 9.48047 12C9.48047 10.6085 10.6085 9.48047 12 9.48047C13.3915 9.48047 14.5195 10.6085 14.5195 12Z" fill="#101214"/>
<path fill-rule="evenodd" clip-rule="evenodd" d="M12 19.0312C15.8833 19.0312 19.0312 15.8833 19.0312 12C19.0312 8.11675 15.8833 4.96875 12 4.96875C8.11675 4.96875 4.96875 8.11675 4.96875 12C4.96875 15.8833 8.11675 19.0312 12 19.0312ZM16.3945 12C16.3945 14.427 14.427 16.3945 12 16.3945C9.57297 16.3945 7.60547 14.427 7.60547 12C7.60547 9.57297 9.57297 7.60547 12 7.60547C14.427 7.60547 16.3945 9.57297 16.3945 12Z" fill="#101214"/>
</svg>
