<svg width="32" height="32" viewBox="0 0 32 32" fill="none" xmlns="http://www.w3.org/2000/svg">
<path d="M0 8C0 3.58172 3.58172 0 8 0H24C28.4183 0 32 3.58172 32 8V24C32 28.4183 28.4183 32 24 32H8C3.58172 32 0 28.4183 0 24V8Z" fill="#DDDEE1"/>
<path d="M19.1354 16C19.1354 17.7316 17.7316 19.1354 16 19.1354C14.2684 19.1354 12.8646 17.7316 12.8646 16C12.8646 14.2684 14.2684 12.8646 16 12.8646C17.7316 12.8646 19.1354 14.2684 19.1354 16Z" fill="#1E1F21"/>
<path fill-rule="evenodd" clip-rule="evenodd" d="M16 24.75C20.8325 24.75 24.75 20.8325 24.75 16C24.75 11.1675 20.8325 7.25 16 7.25C11.1675 7.25 7.25 11.1675 7.25 16C7.25 20.8325 11.1675 24.75 16 24.75ZM21.4687 16C21.4687 19.0203 19.0203 21.4687 16 21.4687C12.9797 21.4687 10.5312 19.0203 10.5312 16C10.5312 12.9797 12.9797 10.5312 16 10.5312C19.0203 10.5312 21.4687 12.9797 21.4687 16Z" fill="#1E1F21"/>
</svg>
