<svg width="24" height="24" viewBox="0 0 24 24" fill="none" xmlns="http://www.w3.org/2000/svg">
<path d="M0 6C0 2.68629 2.68629 0 6 0H18C21.3137 0 24 2.68629 24 6V18C24 21.3137 21.3137 24 18 24H6C2.68629 24 0 21.3137 0 18V6Z" fill="#DDDEE1"/>
<path d="M14.3516 12C14.3516 13.2987 13.2987 14.3516 12 14.3516C10.7013 14.3516 9.64844 13.2987 9.64844 12C9.64844 10.7013 10.7013 9.64844 12 9.64844C13.2987 9.64844 14.3516 10.7013 14.3516 12Z" fill="#101214"/>
<path fill-rule="evenodd" clip-rule="evenodd" d="M12 18.5625C15.6244 18.5625 18.5625 15.6244 18.5625 12C18.5625 8.37563 15.6244 5.4375 12 5.4375C8.37563 5.4375 5.4375 8.37563 5.4375 12C5.4375 15.6244 8.37563 18.5625 12 18.5625ZM16.1016 12C16.1016 14.2652 14.2652 16.1016 12 16.1016C9.73477 16.1016 7.89844 14.2652 7.89844 12C7.89844 9.73477 9.73477 7.89844 12 7.89844C14.2652 7.89844 16.1016 9.73477 16.1016 12Z" fill="#101214"/>
</svg>
