<svg width="32" height="32" viewBox="0 0 32 32" fill="none" xmlns="http://www.w3.org/2000/svg">
<path d="M0 8C0 3.58172 3.58172 0 8 0H24C28.4183 0 32 3.58172 32 8V24C32 28.4183 28.4183 32 24 32H8C3.58172 32 0 28.4183 0 24V8Z" fill="#DDDEE1"/>
<path d="M6.88644 14.418H25.1126C25.6364 14.418 25.9157 14.1387 25.9157 13.615V7.46973C25.9157 6.94599 25.6364 6.66666 25.1126 6.66666H21.2719C20.7481 6.66666 20.4688 6.94599 20.4688 7.46973V10.5773H18.723V7.46973C18.723 6.94599 18.4437 6.66666 17.9199 6.66666H14.0792C13.5554 6.66666 13.2761 6.94599 13.2761 7.46973V10.5773H11.5303V7.46973C11.5303 6.94599 11.251 6.66666 10.7272 6.66666H6.88644C6.3627 6.66666 6.08337 6.94599 6.08337 7.46973V13.615C6.08337 14.1387 6.3627 14.418 6.88644 14.418ZM7.20069 19.7951C6.81661 18.7127 6.5722 17.5954 6.50237 16.3035C6.46745 15.8496 6.67695 15.6052 7.16577 15.6052H24.8333C25.3221 15.6052 25.5316 15.8147 25.5316 16.2337C25.4618 17.5256 25.2174 18.7127 24.7984 19.7951C24.5889 20.3538 24.2746 20.5982 23.6811 20.5982H8.318C7.72443 20.5982 7.41018 20.3538 7.20069 19.7951ZM23.3668 22.6931C21.6909 24.7532 18.9325 26.08 15.9995 26.08C13.0666 26.08 10.2384 24.7532 8.59733 22.6931C8.17834 22.1345 8.38783 21.7853 8.80683 21.7853H23.1922C23.6112 21.7853 23.8207 22.1345 23.3668 22.6931Z" fill="#111213"/>
</svg>
