<svg width="24" height="24" viewBox="0 0 24 24" fill="none" xmlns="http://www.w3.org/2000/svg">
<path d="M0 6C0 2.68629 2.68629 0 6 0H18C21.3137 0 24 2.68629 24 6V18C24 21.3137 21.3137 24 18 24H6C2.68629 24 0 21.3137 0 18V6Z" fill="#DDDEE1"/>
<path d="M6.14126 10.983H17.8581C18.1948 10.983 18.3744 10.8035 18.3744 10.4668V6.51626C18.3744 6.17957 18.1948 6 17.8581 6H15.389C15.0523 6 14.8728 6.17957 14.8728 6.51626V8.51396H13.7505V6.51626C13.7505 6.17957 13.5709 6 13.2342 6H10.7651C10.4285 6 10.2489 6.17957 10.2489 6.51626V8.51396H9.12658V6.51626C9.12658 6.17957 8.94701 6 8.61032 6H6.14126C5.80457 6 5.625 6.17957 5.625 6.51626V10.4668C5.625 10.8035 5.80457 10.983 6.14126 10.983ZM6.34327 14.4397C6.09637 13.7439 5.93924 13.0256 5.89435 12.1951C5.87191 11.9033 6.00658 11.7462 6.32083 11.7462H17.6785C17.9928 11.7462 18.1274 11.8809 18.1274 12.1502C18.0826 12.9807 17.9254 13.7439 17.6561 14.4397C17.5214 14.7988 17.3194 14.956 16.9378 14.956H7.06155C6.67996 14.956 6.47795 14.7988 6.34327 14.4397ZM16.7358 16.3027C15.6584 17.627 13.8851 18.48 11.9997 18.48C10.1142 18.48 8.29608 17.627 7.24111 16.3027C6.97176 15.9436 7.10644 15.7191 7.37579 15.7191H16.6236C16.8929 15.7191 17.0276 15.9436 16.7358 16.3027Z" fill="#101214"/>
</svg>
