<svg width="32" height="32" viewBox="0 0 32 32" fill="none" xmlns="http://www.w3.org/2000/svg">
<g clip-path="url(#clip0_95164_16219)">
<path d="M0 8C0 3.58172 3.58172 0 8 0H24C28.4183 0 32 3.58172 32 8V24C32 28.4183 28.4183 32 24 32H8C3.58172 32 0 28.4183 0 24V8Z" fill="#DDDEE1"/>
<g clip-path="url(#clip1_95164_16219)">
<path fill-rule="evenodd" clip-rule="evenodd" d="M9 25.3332V6.6665H23V25.3332H17.7503V21.2498H14.2503V25.3332H9ZM12.5 10.7498H14.8333V8.99984H12.5V10.7498ZM17.1667 10.7498H19.5V8.99984H17.1667V10.7498ZM14.8333 14.8332H12.5V13.0832H14.8333V14.8332ZM12.5 18.9165H14.8333V17.1665H12.5V18.9165ZM19.5 14.8332H17.1667V13.0832H19.5V14.8332ZM17.1667 18.9165H19.5V17.1665H17.1667V18.9165Z" fill="#101214"/>
</g>
</g>
<defs>
<clipPath id="clip0_95164_16219">
<rect width="32" height="32" fill="white"/>
</clipPath>
<clipPath id="clip1_95164_16219">
<rect width="28" height="28" fill="white" transform="translate(2 2)"/>
</clipPath>
</defs>
</svg>
