<svg width="32" height="32" viewBox="0 0 32 32" fill="none" xmlns="http://www.w3.org/2000/svg">
<path d="M0 8C0 3.58172 3.58172 0 8 0H24C28.4183 0 32 3.58172 32 8V24C32 28.4183 28.4183 32 24 32H8C3.58172 32 0 28.4183 0 24V8Z" fill="#6CC3E0"/>
<path d="M21.5377 22.775C20.0293 24.0094 18.1011 24.75 16 24.75C13.8989 24.75 11.9708 24.0095 10.4624 22.7751L13.7982 19.4394C14.4335 19.847 15.1891 20.0833 16 20.0833C16.8109 20.0833 17.5666 19.8469 18.202 19.4393L21.5377 22.775Z" fill="#101214"/>
<path d="M22.7751 21.5376C24.0095 20.0292 24.75 18.1011 24.75 16C24.75 13.8989 24.0095 11.9708 22.7751 10.4624L19.4394 13.7982C19.847 14.4335 20.0833 15.1891 20.0833 16C20.0833 16.8109 19.847 17.5665 19.4394 18.2018L22.7751 21.5376Z" fill="#101214"/>
<path d="M21.5377 9.22498L18.202 12.5607C17.5667 12.1531 16.8109 11.9167 16 11.9167C15.1891 11.9167 14.4335 12.153 13.7982 12.5606L10.4624 9.22486C11.9708 7.99055 13.8989 7.25 16 7.25C18.1011 7.25 20.0293 7.99059 21.5377 9.22498Z" fill="#101214"/>
<path d="M9.22498 10.4623C7.99059 11.9707 7.25 13.8989 7.25 16C7.25 18.1011 7.99059 20.0293 9.22498 21.5377L12.5607 18.202C12.1531 17.5667 11.9167 16.8109 11.9167 16C11.9167 15.1891 12.1531 14.4333 12.5607 13.798L9.22498 10.4623Z" fill="#101214"/>
</svg>
