<svg width="24" height="24" viewBox="0 0 24 24" fill="none" xmlns="http://www.w3.org/2000/svg">
<path d="M18 0C21.3137 0 24 2.68629 24 6V18C24 21.3137 21.3137 24 18 24H6C2.68629 24 0 21.3137 0 18V6C0 2.68629 2.68629 0 6 0H18ZM12.0186 5.60449C8.48639 5.60449 5.62514 8.45752 5.625 11.998C5.625 15.5387 8.48631 18.375 12.0186 18.375C15.5507 18.3749 18.4297 15.521 18.4297 11.998V11.4346H14.1904V11.7344C14.1903 13.1258 13.2194 14.1474 12.0186 14.1475C10.8176 14.1475 9.86328 13.1783 9.86328 11.9805C9.86341 10.7827 10.8355 9.83203 12.1953 9.83203H12.5479V5.62207C12.3714 5.60449 12.195 5.60449 12.0186 5.60449ZM18.8887 4.88184C17.0873 5.41027 15.2682 5.41023 13.4668 4.88184C13.3256 4.84663 13.2022 4.95199 13.2549 5.11035C13.7317 6.9599 13.7317 8.66901 13.2549 10.5186C13.2019 10.6595 13.3255 10.7833 13.4668 10.7305C15.2682 10.2373 17.0872 10.2373 18.8887 10.7305C19.0475 10.7831 19.1535 10.6594 19.1182 10.5186C18.606 8.669 18.606 6.95991 19.1182 5.11035C19.1532 4.95206 19.0475 4.84668 18.8887 4.88184Z" fill="#292A2E"/>
</svg>
