<svg width="32" height="32" viewBox="0 0 32 32" fill="none" xmlns="http://www.w3.org/2000/svg">
<path d="M0 8C0 3.58172 3.58172 0 8 0H24C28.4183 0 32 3.58172 32 8V24C32 28.4183 28.4183 32 24 32H8C3.58172 32 0 28.4183 0 24V8Z" fill="#1868DB"/>
<path d="M12.2754 20.3371H10.611C8.10079 20.3371 6.29999 18.7996 6.29999 16.5482H15.2494C15.7133 16.5482 16.0134 16.8777 16.0134 17.3444V26.35C13.776 26.35 12.2754 24.5379 12.2754 22.012V20.3371ZM16.6955 15.8618H15.0311C12.5209 15.8618 10.7201 14.3517 10.7201 12.1003H19.6695C20.1334 12.1003 20.4608 12.4023 20.4608 12.8691V21.8747C18.2235 21.8747 16.6955 20.0626 16.6955 17.5366V15.8618ZM21.1429 11.4139H19.4786C16.9684 11.4139 15.1676 9.87639 15.1676 7.625H24.117C24.5808 7.625 24.8809 7.95447 24.8809 8.39377V17.3993C22.6436 17.3993 21.1429 15.5872 21.1429 13.0613V11.4139Z" fill="white"/>
</svg>
