<svg width="24" height="24" viewBox="0 0 24 24" fill="none" xmlns="http://www.w3.org/2000/svg">
<path d="M0 6C0 2.68629 2.68629 0 6 0H18C21.3137 0 24 2.68629 24 6V18C24 21.3137 21.3137 24 18 24H6C2.68629 24 0 21.3137 0 18V6Z" fill="#1868DB"/>
<path d="M8.97371 15.5239H7.6214C5.58186 15.5239 4.11871 14.2747 4.11871 12.4454H11.3901C11.767 12.4454 12.0108 12.7131 12.0108 13.0923V20.4094C10.193 20.4094 8.97371 18.937 8.97371 16.8847V15.5239ZM12.5651 11.8877H11.2128C9.17323 11.8877 7.71008 10.6608 7.71008 8.83152H14.9815C15.3584 8.83152 15.6244 9.07691 15.6244 9.45614V16.7732C13.8065 16.7732 12.5651 15.3008 12.5651 13.2485V11.8877ZM16.1786 8.27382H14.8263C12.7868 8.27382 11.3236 7.02457 11.3236 5.19531H18.595C18.9719 5.19531 19.2157 5.46301 19.2157 5.81994V13.137C17.3979 13.137 16.1786 11.6646 16.1786 9.6123V8.27382Z" fill="white"/>
</svg>
