<svg width="24" height="24" viewBox="0 0 24 24" fill="none" xmlns="http://www.w3.org/2000/svg">
<path d="M0 6C0 2.68629 2.68629 0 6 0H18C21.3137 0 24 2.68629 24 6V18C24 21.3137 21.3137 24 18 24H6C2.68629 24 0 21.3137 0 18V6Z" fill="#FFC716"/>
<path d="M13.7007 10.2021H18.164C18.8344 10.2021 19.0632 10.8397 18.6545 11.3466L11.6735 19.9625C9.41728 18.1641 9.62982 15.3194 11.2811 13.2431L13.7007 10.2021ZM10.2511 13.6354H5.78779C5.11747 13.6354 4.88859 12.9978 5.29731 12.491L12.2784 3.87503C14.5345 5.67343 14.2893 8.48547 12.6544 10.5782L10.2511 13.6354Z" fill="#101214"/>
</svg>
