<svg width="24" height="24" viewBox="0 0 24 24" fill="none" xmlns="http://www.w3.org/2000/svg">
<path d="M18 0C21.3137 0 24 2.68629 24 6V18C24 21.3137 21.3137 24 18 24H6C2.68629 24 0 21.3137 0 18V6C0 2.68629 2.68629 0 6 0H18ZM4.32129 12.4336C4.32129 14.2159 5.74631 15.4335 7.7334 15.4336H9.05176V16.7598C9.05188 18.7593 10.2396 20.1934 12.0107 20.1934V13.0645C12.0107 12.6951 11.7732 12.4338 11.4062 12.4336H4.32129ZM7.82031 8.91309C7.82049 10.6953 9.24628 11.8906 11.2334 11.8906H12.5508V13.2168C12.5509 15.2163 13.7602 16.6503 15.5312 16.6504V9.52148C15.5312 9.15204 15.2724 8.91318 14.9053 8.91309H7.82031ZM11.3408 5.37012C11.341 7.15229 12.7668 8.36914 14.7539 8.36914H16.0713V9.67383C16.0714 11.6732 17.2594 13.1072 19.0303 13.1074V5.97852C19.0303 5.63074 18.793 5.37012 18.4258 5.37012H11.3408Z" fill="#292A2E"/>
</svg>
