<svg width="24" height="24" viewBox="0 0 24 24" fill="none" xmlns="http://www.w3.org/2000/svg">
<path fill-rule="evenodd" clip-rule="evenodd" d="M6 0C2.68629 0 0 2.68629 0 6V18C0 21.3137 2.68629 24 6 24H18C21.3137 24 24 21.3137 24 18V6C24 2.68629 21.3137 0 18 0H6ZM7.62146 15.5239H8.97377V16.8847C8.97377 18.9371 10.1931 20.4094 12.0109 20.4094V13.0924C12.0109 12.7131 11.7671 12.4454 11.3902 12.4454H4.11877C4.11877 14.2747 5.58192 15.5239 7.62146 15.5239ZM11.2128 11.8877H12.5651V13.2485C12.5651 15.3008 13.8066 16.7732 15.6244 16.7732V9.45615C15.6244 9.07691 15.3584 8.83153 14.9815 8.83153H7.71014C7.71014 10.6608 9.17329 11.8877 11.2128 11.8877ZM14.8264 8.27383H16.1787V9.61231C16.1787 11.6646 17.398 13.137 19.2158 13.137V5.81994C19.2158 5.46302 18.9719 5.19532 18.5951 5.19532H11.3237C11.3237 7.02458 12.7868 8.27383 14.8264 8.27383Z" fill="#292A2E"/>
</svg>
