<svg width="24" height="24" viewBox="0 0 24 24" fill="none" xmlns="http://www.w3.org/2000/svg">
<path fill-rule="evenodd" clip-rule="evenodd" d="M6 0C2.68629 0 0 2.68629 0 6V18C0 21.3137 2.68629 24 6 24H18C21.3137 24 24 21.3137 24 18V6C24 2.68629 21.3137 0 18 0H6ZM18.8283 5.22613C16.9204 5.7858 14.9939 5.7858 13.086 5.22613C12.9364 5.18882 12.8055 5.30075 12.8616 5.46865C13.3666 7.4275 13.3666 9.23709 12.8616 11.1959C12.8055 11.3452 12.9364 11.4758 13.086 11.4198C14.9939 10.8974 16.9204 10.8974 18.8283 11.4198C18.9966 11.4758 19.1089 11.3452 19.0715 11.1959C18.529 9.23709 18.529 7.4275 19.0715 5.46865C19.1089 5.30075 18.9966 5.18882 18.8283 5.22613ZM13.8529 12.4832V12.166H18.342V12.763C18.342 16.4941 15.2932 19.5164 11.5523 19.5164C7.81137 19.5164 4.78125 16.5128 4.78125 12.763C4.78125 9.01323 7.81137 5.99101 11.5523 5.99101C11.7393 5.99101 11.9264 5.99101 12.1134 6.00967V10.4684H11.7393C10.2991 10.4684 9.27032 11.4758 9.27032 12.7444C9.27032 14.0129 10.2804 15.039 11.5523 15.039C12.8242 15.039 13.8529 13.957 13.8529 12.4832Z" fill="#292A2E"/>
</svg>
