<svg width="24" height="24" viewBox="0 0 24 24" fill="none" xmlns="http://www.w3.org/2000/svg">
<path d="M18 0C21.3137 0 24 2.68629 24 6V18C24 21.3137 21.3137 24 18 24H6C2.68629 24 0 21.3137 0 18V6C0 2.68629 2.68629 0 6 0H18ZM13.7441 10.1562L11.2627 13.2754C9.56928 15.4049 9.35111 18.3226 11.665 20.167L18.8252 11.3301C19.2444 10.8103 19.0096 10.1563 18.3223 10.1562H13.7441ZM5.125 12.5039C4.70625 13.0237 4.94159 13.6777 5.62891 13.6777H10.2061L12.6709 10.542C14.3477 8.39565 14.5992 5.5115 12.2852 3.66699L5.125 12.5039Z" fill="#292A2E"/>
</svg>
