<svg width="24" height="24" viewBox="0 0 24 24" fill="none" xmlns="http://www.w3.org/2000/svg">
<path d="M0 6C0 2.68629 2.68629 0 6 0H18C21.3137 0 24 2.68629 24 6V18C24 21.3137 21.3137 24 18 24H6C2.68629 24 0 21.3137 0 18V6Z" fill="#C97CF4"/>
<path d="M13.086 5.22612C14.9939 5.78579 16.9204 5.78579 18.8283 5.22612C18.9966 5.18881 19.1089 5.30075 19.0715 5.46865C18.529 7.42749 18.529 9.23709 19.0715 11.1959C19.1089 11.3452 18.9966 11.4758 18.8283 11.4198C16.9204 10.8974 14.9939 10.8974 13.086 11.4198C12.9364 11.4758 12.8055 11.3452 12.8616 11.1959C13.3666 9.23709 13.3666 7.42749 12.8616 5.46865C12.8055 5.30075 12.9364 5.18881 13.086 5.22612ZM13.8529 12.166V12.4832C13.8529 13.957 12.8242 15.039 11.5523 15.039C10.2804 15.039 9.27032 14.0129 9.27032 12.7443C9.27032 11.4758 10.2991 10.4684 11.7393 10.4684H12.1134V6.00966C11.9264 5.991 11.7393 5.991 11.5523 5.991C7.81137 5.991 4.78125 9.01322 4.78125 12.763C4.78125 16.5128 7.81137 19.5163 11.5523 19.5163C15.2932 19.5163 18.342 16.4941 18.342 12.763V12.166H13.8529Z" fill="#101214"/>
</svg>
