<svg width="24" height="24" viewBox="0 0 24 24" fill="none" xmlns="http://www.w3.org/2000/svg">
<path fill-rule="evenodd" clip-rule="evenodd" d="M6 0C2.68629 0 0 2.68629 0 6V18C0 21.3137 2.68629 24 6 24H18C21.3137 24 24 21.3137 24 18V6C24 2.68629 21.3137 0 18 0H6ZM18.164 10.2021H13.7007L11.2811 13.2431C9.62981 15.3194 9.41728 18.1641 11.6734 19.9625L18.6545 11.3466C19.0632 10.8397 18.8343 10.2021 18.164 10.2021ZM5.78778 13.6354H10.2511L12.6544 10.5782C14.2893 8.48548 14.5345 5.67344 12.2784 3.87504L5.29731 12.491C4.88858 12.9978 5.11747 13.6354 5.78778 13.6354Z" fill="#292A2E"/>
</svg>
