<svg width="24" height="24" viewBox="0 0 24 24" fill="none" xmlns="http://www.w3.org/2000/svg">
<path d="M0 6C0 2.68629 2.68629 0 6 0H18C21.3137 0 24 2.68629 24 6V18C24 21.3137 21.3137 24 18 24H6C2.68629 24 0 21.3137 0 18V6Z" fill="#1868DB"/>
<path d="M9.05131 15.4336H7.73368C5.74643 15.4336 4.3208 14.2163 4.3208 12.434H11.4058C11.773 12.434 12.0106 12.6948 12.0106 13.0643V20.1937C10.2393 20.1937 9.05131 18.7592 9.05131 16.7595V15.4336ZM12.5506 11.8906H11.233C9.24571 11.8906 7.82008 10.6951 7.82008 8.91275H14.905C15.2722 8.91275 15.5315 9.15185 15.5315 9.52136V16.6508C13.7602 16.6508 12.5506 15.2162 12.5506 13.2165V11.8906ZM16.0715 8.36935H14.7538C12.7666 8.36935 11.341 7.15213 11.341 5.36978H18.4259C18.7931 5.36978 19.0307 5.63061 19.0307 5.97839V13.1078C17.2595 13.1078 16.0715 11.6732 16.0715 9.67351V8.36935Z" fill="white"/>
</svg>
