<svg width="32" height="32" viewBox="0 0 32 32" fill="none" xmlns="http://www.w3.org/2000/svg">
<path d="M0 8C0 3.58172 3.58172 0 8 0H24C28.4183 0 32 3.58172 32 8V24C32 28.4183 28.4183 32 24 32H8C3.58172 32 0 28.4183 0 24V8Z" fill="#FFC716"/>
<path d="M18.2676 13.6028H24.2187C25.1125 13.6028 25.4176 14.453 24.8727 15.1288L15.5646 26.6167C12.5564 24.2189 12.8398 20.4259 15.0414 17.6574L18.2676 13.6028ZM13.6681 18.1806H7.71704C6.82329 18.1806 6.5181 17.3304 7.06307 16.6547L16.3712 5.16672C19.3794 7.56458 19.0524 11.314 16.8725 14.1042L13.6681 18.1806Z" fill="#101214"/>
</svg>
