<svg width="32" height="32" viewBox="0 0 32 32" fill="none" xmlns="http://www.w3.org/2000/svg">
<path fill-rule="evenodd" clip-rule="evenodd" d="M8 0C3.58172 0 0 3.58172 0 8V24C0 28.4183 3.58172 32 8 32H24C28.4183 32 32 28.4183 32 24V8C32 3.58172 28.4183 0 24 0H8ZM24.2187 13.6028H18.2676L15.0414 17.6574C12.8398 20.4259 12.5564 24.2189 15.5646 26.6167L24.8727 15.1288C25.4176 14.453 25.1125 13.6028 24.2187 13.6028ZM7.71704 18.1806H13.6681L16.8725 14.1042C19.0524 11.314 19.3794 7.56458 16.3712 5.16672L7.06307 16.6547C6.5181 17.3304 6.82329 18.1806 7.71704 18.1806Z" fill="#292A2E"/>
</svg>
