<svg width="32" height="32" viewBox="0 0 32 32" fill="none" xmlns="http://www.w3.org/2000/svg">
<path d="M0 8C0 3.58172 3.58172 0 8 0H24C28.4183 0 32 3.58172 32 8V24C32 28.4183 28.4183 32 24 32H8C3.58172 32 0 28.4183 0 24V8Z" fill="#C97CF4"/>
<path d="M17.9555 6.50905C20.3574 7.21366 22.7829 7.21366 25.1848 6.50905C25.3967 6.46208 25.538 6.603 25.4909 6.81438C24.808 9.2805 24.808 11.5587 25.4909 14.0249C25.538 14.2127 25.3967 14.3772 25.1848 14.3067C22.7829 13.6491 20.3574 13.6491 17.9555 14.3067C17.7671 14.3772 17.6022 14.2127 17.6729 14.0249C18.3087 11.5587 18.3087 9.2805 17.6729 6.81438C17.6022 6.603 17.7671 6.46208 17.9555 6.50905ZM18.9209 15.2462V15.6454C18.9209 17.5009 17.6258 18.8632 16.0245 18.8632C14.4232 18.8632 13.1516 17.5714 13.1516 15.9743C13.1516 14.3772 14.4468 13.1089 16.26 13.1089H16.7309V7.4955C16.4955 7.47201 16.26 7.47201 16.0245 7.47201C11.3148 7.47201 7.5 11.2769 7.5 15.9978C7.5 20.7186 11.3148 24.5 16.0245 24.5C20.7342 24.5 24.5725 20.6951 24.5725 15.9978V15.2462H18.9209Z" fill="#111213"/>
</svg>
