<svg width="32" height="32" viewBox="0 0 32 32" fill="none" xmlns="http://www.w3.org/2000/svg">
<path fill-rule="evenodd" clip-rule="evenodd" d="M8 0C3.58172 0 0 3.58172 0 8V24C0 28.4183 3.58172 32 8 32H24C28.4183 32 32 28.4183 32 24V8C32 3.58172 28.4183 0 24 0H8ZM25.1848 6.50905C22.7829 7.21366 20.3574 7.21366 17.9555 6.50905C17.7671 6.46208 17.6022 6.603 17.6729 6.81438C18.3087 9.2805 18.3087 11.5587 17.6729 14.0249C17.6022 14.2127 17.7671 14.3772 17.9555 14.3067C20.3574 13.6491 22.7829 13.6491 25.1848 14.3067C25.3967 14.3772 25.538 14.2127 25.4909 14.0249C24.808 11.5587 24.808 9.2805 25.4909 6.81438C25.538 6.603 25.3967 6.46208 25.1848 6.50905ZM18.9209 15.6454V15.2462H24.5725V15.9978C24.5725 20.6951 20.7342 24.5 16.0245 24.5C11.3148 24.5 7.5 20.7186 7.5 15.9978C7.5 11.2769 11.3148 7.47201 16.0245 7.47201C16.26 7.47201 16.4955 7.47201 16.7309 7.4955V13.1089H16.26C14.4468 13.1089 13.1516 14.3772 13.1516 15.9743C13.1516 17.5714 14.4232 18.8632 16.0245 18.8632C17.6258 18.8632 18.9209 17.5009 18.9209 15.6454Z" fill="#292A2E"/>
</svg>
