<svg width="32" height="32" viewBox="0 0 32 32" fill="none" xmlns="http://www.w3.org/2000/svg">
<path fill-rule="evenodd" clip-rule="evenodd" d="M6.66667 0C2.98477 0 0 2.98477 0 6.66667V25.3333C0 29.0152 2.98477 32 6.66667 32H25.3333C29.0152 32 32 29.0152 32 25.3333V6.66667C32 2.98477 29.0152 0 25.3333 0H6.66667ZM10.3116 20.5782H12.0684V22.3461C12.0684 25.0123 13.6524 26.9251 16.0141 26.9251V17.4192C16.0141 16.9265 15.6973 16.5788 15.2077 16.5788H5.76107C5.76107 18.9552 7.66191 20.5782 10.3116 20.5782ZM14.9773 15.8542H16.7341V17.6221C16.7341 20.2884 18.3469 22.2012 20.7086 22.2012V12.6953C20.7086 12.2026 20.363 11.8838 19.8734 11.8838H10.4268C10.4268 14.2603 12.3276 15.8542 14.9773 15.8542ZM19.6718 11.1593H21.4286V12.8981C21.4286 15.5644 23.0127 17.4772 25.3743 17.4772V7.97131C25.3743 7.50761 25.0575 7.15983 24.5679 7.15983H15.1213C15.1213 9.5363 17.0221 11.1593 19.6718 11.1593Z" fill="#292A2E"/>
</svg>
