<svg width="25" height="24" viewBox="0 0 25 24" fill="none" xmlns="http://www.w3.org/2000/svg">
<path d="M6.41663 0.5H18.4166C21.4542 0.5 23.9166 2.96243 23.9166 6V18C23.9166 21.0376 21.4542 23.5 18.4166 23.5H6.41663C3.37906 23.5 0.916626 21.0376 0.916626 18V6C0.916626 2.96243 3.37906 0.5 6.41663 0.5Z" fill="white"/>
<path d="M6.41663 0.5H18.4166C21.4542 0.5 23.9166 2.96243 23.9166 6V18C23.9166 21.0376 21.4542 23.5 18.4166 23.5H6.41663C3.37906 23.5 0.916626 21.0376 0.916626 18V6C0.916626 2.96243 3.37906 0.5 6.41663 0.5Z" stroke="#DDDEE1"/>
<path d="M14.1174 10.2026H18.5807C19.251 10.2026 19.4799 10.8402 19.0712 11.347L12.0901 19.963C9.83396 18.1646 10.0465 15.3198 11.6978 13.2435L14.1174 10.2026ZM10.6678 13.6359H6.20446C5.53415 13.6359 5.30527 12.9983 5.71399 12.4915L12.6951 3.87549C14.9512 5.67389 14.706 8.48593 13.0711 10.5786L10.6678 13.6359Z" fill="#1868DB"/>
</svg>
