<svg width="32" height="32" viewBox="0 0 32 32" fill="none" xmlns="http://www.w3.org/2000/svg">
<path fill-rule="evenodd" clip-rule="evenodd" d="M8 0C3.58172 0 0 3.58172 0 8V24C0 28.4183 3.58172 32 8 32H24C28.4183 32 32 28.4183 32 24V8C32 3.58172 28.4183 0 24 0H8ZM21.5377 9.22498L18.202 12.5607C17.5667 12.1531 16.8109 11.9167 16 11.9167C15.1891 11.9167 14.4335 12.153 13.7982 12.5606L10.4624 9.22486C11.9708 7.99055 13.8989 7.25 16 7.25C18.1011 7.25 20.0293 7.99059 21.5377 9.22498ZM24.75 16C24.75 18.1011 24.0095 20.0292 22.7751 21.5376L19.4394 18.2018C19.847 17.5665 20.0833 16.8109 20.0833 16C20.0833 15.1891 19.847 14.4335 19.4394 13.7982L22.7751 10.4624C24.0095 11.9708 24.75 13.8989 24.75 16ZM16 24.75C18.1011 24.75 20.0293 24.0094 21.5377 22.775L18.202 19.4393C17.5667 19.8469 16.8109 20.0833 16 20.0833C15.1891 20.0833 14.4335 19.847 13.7982 19.4394L10.4624 22.7751C11.9708 24.0095 13.8989 24.75 16 24.75ZM7.25 16C7.25 13.8989 7.99059 11.9707 9.22498 10.4623L12.5607 13.798C12.1531 14.4333 11.9167 15.1891 11.9167 16C11.9167 16.8109 12.1531 17.5667 12.5607 18.202L9.22498 21.5377C7.99059 20.0293 7.25 18.1011 7.25 16Z" fill="#292A2E"/>
</svg>
