<svg width="24" height="24" viewBox="0 0 24 24" fill="none" xmlns="http://www.w3.org/2000/svg">
<path d="M0 6C0 2.68629 2.68629 0 6 0H18C21.3137 0 24 2.68629 24 6V18C24 21.3137 21.3137 24 18 24H6C2.68629 24 0 21.3137 0 18V6Z" fill="#625DF5"/>
<path d="M19.0834 11.2122H14.9409L18.5285 9.1409L17.7406 7.77588L14.153 9.8472L16.2239 6.25985L14.8588 5.47151L12.788 9.05886V4.91663H11.2122V9.05925L9.14052 5.47151L7.77592 6.25945L9.84718 9.8468L6.25954 7.77588L5.47162 9.14051L9.05926 11.2118H4.91675V12.7877H9.05887L5.47162 14.859L6.25954 16.224L9.84678 14.1531L7.77553 17.7405L9.14052 18.5284L11.2118 14.9407V19.0833H12.7876V14.9411L14.8585 18.5284L16.2234 17.7405L14.1522 14.1527L17.7398 16.224L18.5278 14.859L14.9405 12.7881H19.0826V11.2122H19.0834ZM12.0001 14.1432C10.8119 14.1432 9.84876 13.1801 9.84876 11.9918C9.84876 10.8036 10.8119 9.84046 12.0001 9.84046C13.1883 9.84046 14.1514 10.8036 14.1514 11.9918C14.1514 13.1801 13.1883 14.1432 12.0001 14.1432Z" fill="white"/>
</svg>
