<svg width="24" height="24" viewBox="0 0 24 24" fill="none" xmlns="http://www.w3.org/2000/svg">
<path d="M0 6C0 2.68629 2.68629 0 6 0H18C21.3137 0 24 2.68629 24 6V18C24 21.3137 21.3137 24 18 24H6C2.68629 24 0 21.3137 0 18V6Z" fill="#625DF5"/>
<path d="M19.4375 11.1729H15.0878L18.8549 8.99799L18.0276 7.56472L14.2606 9.7396L16.435 5.97288L15.0017 5.14513L12.8273 8.91184V4.5625H11.1727V8.91226L8.99746 5.14513L7.56464 5.97247L9.73945 9.73919L5.97243 7.56472L5.14512 8.99757L8.91214 11.1725H4.5625V12.8271H8.91173L5.14512 15.002L5.97243 16.4353L9.73904 14.2608L7.56422 18.0275L8.99746 18.8549L11.1723 15.0878V19.4375H12.8269V15.0881L15.0013 18.8549L16.4345 18.0275L14.2597 14.2604L18.0267 16.4353L18.8541 15.002L15.0874 12.8275H19.4366V11.1729H19.4375ZM12 14.2504C10.7524 14.2504 9.74112 13.2392 9.74112 11.9915C9.74112 10.7438 10.7524 9.73253 12 9.73253C13.2476 9.73253 14.2589 10.7438 14.2589 11.9915C14.2589 13.2392 13.2476 14.2504 12 14.2504Z" fill="white"/>
</svg>
