<svg width="32" height="32" viewBox="0 0 32 32" fill="none" xmlns="http://www.w3.org/2000/svg">
<path d="M0 8C0 3.58172 3.58172 0 8 0H24C28.4183 0 32 3.58172 32 8V24C32 28.4183 28.4183 32 24 32H8C3.58172 32 0 28.4183 0 24V8Z" fill="#625DF5"/>
<path d="M25.9166 14.8972H20.1171L25.1398 11.9973L24.0368 10.0863L19.0141 12.9861L21.9133 7.96386L20.0022 6.86019L17.103 11.8825V6.08334H14.8969V11.883L11.9966 6.86019L10.0862 7.9633L12.9859 12.9856L7.96322 10.0863L6.86013 11.9968L11.8828 14.8966H6.08331V17.1029H11.8823L6.86013 20.0027L7.96322 21.9137L12.9854 19.0144L10.0856 24.0367L11.9966 25.1398L14.8963 20.117V25.9167H17.1025V20.1175L20.0017 25.1398L21.9127 24.0367L19.0129 19.0139L24.0356 21.9137L25.1387 20.0027L20.1166 17.1034H25.9155V14.8972H25.9166ZM16 19.0005C14.3365 19.0005 12.9881 17.6522 12.9881 15.9886C12.9881 14.3251 14.3365 12.9767 16 12.9767C17.6635 12.9767 19.0118 14.3251 19.0118 15.9886C19.0118 17.6522 17.6635 19.0005 16 19.0005Z" fill="white"/>
</svg>
