<svg width="32" height="32" viewBox="0 0 32 32" fill="none" xmlns="http://www.w3.org/2000/svg">
<path d="M0 8C0 3.58172 3.58172 0 8 0H24C28.4183 0 32 3.58172 32 8V24C32 28.4183 28.4183 32 24 32H8C3.58172 32 0 28.4183 0 24V8Z" fill="#FFC716"/>
<path d="M16.9744 26.4298C16.2875 26.9359 15.9259 26.8998 15.2391 26.3936C11.913 24.0076 8.84008 21.2962 6.77939 18.4763C6.56248 18.187 6.67094 17.7894 6.99631 17.6086L10.7562 15.2587C11.0815 15.0418 11.3707 15.0779 11.6238 15.3672C13.0699 17.0302 14.4799 18.657 16.1067 19.8139C17.7336 18.657 19.1435 17.0302 20.5896 15.3672C20.8427 15.0779 21.1319 15.0418 21.4573 15.2587L25.2171 17.6086C25.5425 17.7894 25.6509 18.187 25.434 18.4763C23.3733 21.2962 20.3004 24.0076 16.9744 26.4298ZM16.1067 16.0541C19.0712 16.0541 21.5296 13.6318 21.5296 10.6674C21.5296 7.70286 19.0712 5.20834 16.1067 5.20834C13.1422 5.20834 10.6839 7.66671 10.6839 10.6674C10.6839 13.668 13.0699 16.0541 16.1067 16.0541Z" fill="#111213"/>
</svg>
