<svg width="24" height="24" viewBox="0 0 24 24" fill="none" xmlns="http://www.w3.org/2000/svg">
<path d="M0 6C0 2.68629 2.68629 0 6 0H18C21.3137 0 24 2.68629 24 6V18C24 21.3137 21.3137 24 18 24H6C2.68629 24 0 21.3137 0 18V6Z" fill="#FFC716"/>
<path d="M12.6786 19.2636C12.2002 19.6161 11.9484 19.5909 11.47 19.2384C9.15371 17.5767 7.01362 15.6884 5.5785 13.7245C5.42744 13.5231 5.50297 13.2462 5.72957 13.1203L8.34803 11.4837C8.57463 11.3327 8.77605 11.3578 8.95229 11.5593C9.9594 12.7174 10.9413 13.8504 12.0743 14.6561C13.2073 13.8504 14.1892 12.7174 15.1963 11.5593C15.3726 11.3578 15.574 11.3327 15.8006 11.4837L18.4191 13.1203C18.6457 13.2462 18.7212 13.5231 18.5701 13.7245C17.135 15.6884 14.9949 17.5767 12.6786 19.2636ZM12.0743 12.0376C14.1389 12.0376 15.8509 10.3507 15.8509 8.28619C15.8509 6.22163 14.1389 4.48438 12.0743 4.48438C10.0098 4.48438 8.29768 6.19645 8.29768 8.28619C8.29768 10.3759 9.9594 12.0376 12.0743 12.0376Z" fill="#101214"/>
</svg>
