<svg width="24" height="24" viewBox="0 0 24 24" fill="none" xmlns="http://www.w3.org/2000/svg">
<path d="M0 6C0 2.68629 2.68629 0 6 0H18C21.3137 0 24 2.68629 24 6V18C24 21.3137 21.3137 24 18 24H6C2.68629 24 0 21.3137 0 18V6Z" fill="#FFC716"/>
<path d="M12.696 19.4499C12.2053 19.8114 11.9471 19.7856 11.4565 19.424C9.08074 17.7197 6.88578 15.783 5.41386 13.7688C5.25892 13.5622 5.33639 13.2781 5.5688 13.149L8.2544 11.4705C8.48681 11.3156 8.6934 11.3414 8.87416 11.548C9.90708 12.7358 10.9142 13.8979 12.0762 14.7242C13.2383 13.8979 14.2454 12.7358 15.2783 11.548C15.4591 11.3414 15.6656 11.3156 15.8981 11.4705L18.5837 13.149C18.8161 13.2781 18.8935 13.5622 18.7386 13.7688C17.2667 15.783 15.0717 17.7197 12.696 19.4499ZM12.0762 12.0386C14.1937 12.0386 15.9497 10.3085 15.9497 8.19098C15.9497 6.07348 14.1937 4.29169 12.0762 4.29169C9.95873 4.29169 8.20276 6.04766 8.20276 8.19098C8.20276 10.3343 9.90708 12.0386 12.0762 12.0386Z" fill="#101214"/>
</svg>
