<svg width="32" height="32" viewBox="0 0 32 32" fill="none" xmlns="http://www.w3.org/2000/svg">
<path d="M0 8C0 3.58172 3.58172 0 8 0H24C28.4183 0 32 3.58172 32 8V24C32 28.4183 28.4183 32 24 32H8C3.58172 32 0 28.4183 0 24V8Z" fill="#DDDEE1"/>
<path fill-rule="evenodd" clip-rule="evenodd" d="M6.80823 19.2534L9.2831 16.7785L6.80823 14.3036L8.87062 12.2412H13.8204L17.5327 8.5289H23.3074V14.3036L19.5951 18.0159V22.9657L17.5327 25.0281L15.0578 22.5532L12.5829 25.0281L10.3163 22.7614L14.0286 19.0491L12.7911 17.8117L9.07885 21.524L6.80823 19.2534ZM20.42 13.4787C19.8505 14.0482 18.9271 14.0482 18.3576 13.4787C17.7881 12.9092 17.7881 11.9859 18.3576 11.4163C18.9271 10.8468 19.8505 10.8468 20.42 11.4163C20.9895 11.9859 20.9895 12.9092 20.42 13.4787Z" fill="#1E1F21"/>
</svg>
