<svg width="24" height="24" viewBox="0 0 24 24" fill="none" xmlns="http://www.w3.org/2000/svg">
<path d="M0 6C0 2.68629 2.68629 0 6 0H18C21.3137 0 24 2.68629 24 6V18C24 21.3137 21.3137 24 18 24H6C2.68629 24 0 21.3137 0 18V6Z" fill="#DDDEE1"/>
<path fill-rule="evenodd" clip-rule="evenodd" d="M4.61377 14.6143L6.60251 12.6256L4.61377 10.6368L6.27105 8.97954H10.2485L13.2316 5.99643H17.872V10.6368L14.8889 13.6199V17.5974L13.2316 19.2547L11.2429 17.2659L9.25416 19.2547L7.43274 17.4333L10.4158 14.4502L9.42145 13.4558L6.43837 16.4389L4.61377 14.6143ZM15.5518 9.97397C15.0942 10.4316 14.3522 10.4316 13.8945 9.97397C13.4369 9.51633 13.4369 8.77434 13.8945 8.31669C14.3522 7.85904 15.0942 7.85904 15.5518 8.31669C16.0095 8.77434 16.0095 9.51633 15.5518 9.97397Z" fill="#101214"/>
</svg>
