<svg width="24" height="24" viewBox="0 0 24 24" fill="none" xmlns="http://www.w3.org/2000/svg">
<path d="M0 6C0 2.68629 2.68629 0 6 0H18C21.3137 0 24 2.68629 24 6V18C24 21.3137 21.3137 24 18 24H6C2.68629 24 0 21.3137 0 18V6Z" fill="#1868DB"/>
<path d="M11.0574 5.25717C11.5363 4.99284 12.1208 4.9977 12.5958 5.27174L17.2171 7.9398C17.7007 8.21883 18.0001 8.73651 18.0001 9.2942V14.6304C18.0001 15.1903 17.7026 15.7057 17.2175 15.9846L13.7436 17.9902C13.7512 17.9688 13.7585 17.9473 13.7654 17.9256C13.8299 17.7257 13.8641 17.5144 13.8641 17.2985V11.9623C13.8641 11.2292 13.4741 10.5532 12.8382 10.1875L10.2487 8.69312V6.6261C10.2487 6.4632 10.2738 6.30407 10.3215 6.15344C10.4387 5.78894 10.6878 5.47338 11.0287 5.2764L11.0297 5.2758C11.0395 5.27016 11.0488 5.2639 11.0574 5.25717Z" fill="white"/>
<path d="M9.88146 5.93958L6.40764 7.94517C5.92255 8.22405 5.625 8.73945 5.625 9.29935V14.6355C5.625 15.1932 5.92431 15.7109 6.40796 15.9899L11.0293 18.658C11.5043 18.932 12.0888 18.9369 12.5677 18.6726C12.5763 18.6658 12.5856 18.6596 12.5954 18.654C12.9366 18.4571 13.1862 18.1414 13.3035 17.7766C13.3512 17.6259 13.3764 17.4667 13.3764 17.3036V15.2366L10.7871 13.7423C10.1512 13.3766 9.76104 12.7004 9.76104 11.9674V6.63125C9.76104 6.4156 9.79513 6.20461 9.85944 6.00492C9.86642 5.983 9.87376 5.96122 9.88146 5.93958Z" fill="white"/>
</svg>
