<svg width="32" height="32" viewBox="0 0 32 32" fill="none" xmlns="http://www.w3.org/2000/svg">
<path d="M0 8C0 3.58172 3.58172 0 8 0H24C28.4183 0 32 3.58172 32 8V24C32 28.4183 28.4183 32 24 32H8C3.58172 32 0 28.4183 0 24V8Z" fill="#1868DB"/>
<path d="M14.7433 7.00957C15.3818 6.65712 16.1611 6.6636 16.7945 7.02899L22.9562 10.5864C23.601 10.9584 24.0002 11.6487 24.0002 12.3923V19.5072C24.0002 20.2537 23.6035 20.9409 22.9567 21.3128L18.3249 23.9869C18.335 23.9584 18.3447 23.9297 18.3539 23.9008C18.4399 23.6343 18.4855 23.3526 18.4855 23.0646V15.9497C18.4855 14.9723 17.9656 14.0709 17.1176 13.5833L13.6649 11.5908V8.8348C13.6649 8.61763 13.6985 8.40549 13.762 8.20466C13.9182 7.71863 14.2504 7.29786 14.7049 7.0352L14.7063 7.0344C14.7193 7.02688 14.7317 7.01854 14.7433 7.00957Z" fill="white"/>
<path d="M13.1753 7.91943L8.54352 10.5936C7.89673 10.9654 7.5 11.6526 7.5 12.3991V19.5141C7.5 20.2576 7.89907 20.9478 8.54394 21.3199L14.7057 24.8773C15.339 25.2427 16.1184 25.2492 16.7569 24.8968C16.7685 24.8878 16.7808 24.8795 16.7938 24.872C17.2488 24.6095 17.5815 24.1886 17.7379 23.7023C17.8016 23.5013 17.8353 23.2889 17.8353 23.0715V20.3155L14.3828 18.3231C13.535 17.8355 13.0147 16.9339 13.0147 15.9566V8.84167C13.0147 8.55414 13.0602 8.27283 13.1459 8.00659C13.1552 7.97735 13.165 7.94829 13.1753 7.91943Z" fill="white"/>
</svg>
