<svg width="24" height="24" viewBox="0 0 24 24" fill="none" xmlns="http://www.w3.org/2000/svg">
<path d="M0 6C0 2.68629 2.68629 0 6 0H18C21.3137 0 24 2.68629 24 6V18C24 21.3137 21.3137 24 18 24H6C2.68629 24 0 21.3137 0 18V6Z" fill="#1868DB"/>
<path d="M12.8013 4.72668C12.287 4.42995 11.6542 4.42454 11.1355 4.71047C11.1259 4.71792 11.1158 4.7248 11.105 4.73103L11.1038 4.73172C10.7203 4.95337 10.4439 5.31359 10.3236 5.72787C10.281 5.87732 10.2586 6.03393 10.2586 6.1939V8.43317L13.0637 10.052C13.7527 10.4482 14.1752 11.1806 14.1752 11.9748V17.7556C14.1752 17.9682 14.1447 18.1765 14.0867 18.3753C14.0741 18.4189 14.0603 18.4621 14.0451 18.5048L17.8077 16.3325C18.3332 16.0304 18.656 15.4718 18.656 14.8652V9.08434C18.656 8.48018 18.3317 7.9194 17.8078 7.61712L12.8013 4.72668Z" fill="white"/>
<path d="M6.09777 7.62295L9.86083 5.45036C9.84645 5.49078 9.83323 5.53167 9.82118 5.57298C9.7619 5.77382 9.73062 5.98454 9.73062 6.19953V11.9804C9.73062 12.7745 10.153 13.5068 10.8418 13.903L13.6473 15.522V17.7613C13.6473 17.9236 13.6242 18.0825 13.5803 18.234C13.4589 18.6459 13.183 19.0037 12.801 19.2241C12.7902 19.2303 12.78 19.2372 12.7705 19.2447C12.2518 19.5306 11.619 19.5253 11.1046 19.2285L6.09818 16.3381C5.57423 16.0358 5.24991 15.475 5.24991 14.8708V9.08997C5.24991 8.48342 5.57225 7.92507 6.09777 7.62295Z" fill="white"/>
</svg>
