<svg width="32" height="32" viewBox="0 0 32 32" fill="none" xmlns="http://www.w3.org/2000/svg">
<path d="M0 8C0 3.58172 3.58172 0 8 0H24C28.4183 0 32 3.58172 32 8V24C32 28.4183 28.4183 32 24 32H8C3.58172 32 0 28.4183 0 24V8Z" fill="#DDDEE1"/>
<path fill-rule="evenodd" clip-rule="evenodd" d="M7 14.3125C7 18.3511 10.2792 21.625 14.3242 21.625C15.6228 21.625 16.8425 21.2876 17.9001 20.6957L22.2113 25L25 22.2158L20.6968 17.9195C21.3025 16.8551 21.6484 15.6241 21.6484 14.3125C21.6484 10.2739 18.3692 7 14.3242 7C10.2792 7 7 10.2739 7 14.3125ZM9.817 14.3125C9.817 16.7978 11.8349 18.8125 14.3242 18.8125C16.8135 18.8125 18.8314 16.7978 18.8314 14.3125C18.8314 11.8272 16.8135 9.8125 14.3242 9.8125C11.8349 9.8125 9.817 11.8272 9.817 14.3125Z" fill="#1E1F21"/>
</svg>
