<svg width="24" height="24" viewBox="0 0 24 24" fill="none" xmlns="http://www.w3.org/2000/svg">
<path d="M0 6C0 2.68629 2.68629 0 6 0H18C21.3137 0 24 2.68629 24 6V18C24 21.3137 21.3137 24 18 24H6C2.68629 24 0 21.3137 0 18V6Z" fill="#DDDEE1"/>
<path fill-rule="evenodd" clip-rule="evenodd" d="M5.34558 11.1249C5.34558 14.2661 7.89196 16.8124 11.0331 16.8124C12.0415 16.8124 12.9887 16.55 13.8099 16.0897L17.1577 19.4374L19.3232 17.2719L15.9817 13.9304C16.452 13.1025 16.7206 12.1451 16.7206 11.1249C16.7206 7.98382 14.1742 5.43744 11.0331 5.43744C7.89196 5.43744 5.34558 7.98382 5.34558 11.1249ZM7.53308 11.1249C7.53308 13.0579 9.10008 14.6249 11.0331 14.6249C12.9661 14.6249 14.5331 13.0579 14.5331 11.1249C14.5331 9.19194 12.9661 7.62494 11.0331 7.62494C9.10008 7.62494 7.53308 9.19194 7.53308 11.1249Z" fill="#101214"/>
</svg>
