<svg width="24" height="24" viewBox="0 0 24 24" fill="none" xmlns="http://www.w3.org/2000/svg">
<path d="M0 6C0 2.68629 2.68629 0 6 0H18C21.3137 0 24 2.68629 24 6V18C24 21.3137 21.3137 24 18 24H6C2.68629 24 0 21.3137 0 18V6Z" fill="#DDDEE1"/>
<path fill-rule="evenodd" clip-rule="evenodd" d="M5 10.6875C5 13.8286 7.55045 16.375 10.6966 16.375C11.7067 16.375 12.6553 16.1126 13.4779 15.6522L16.831 19L19 16.8345L15.6531 13.4929C16.1242 12.6651 16.3932 11.7077 16.3932 10.6875C16.3932 7.54638 13.8427 5 10.6966 5C7.55045 5 5 7.54638 5 10.6875ZM7.191 10.6875C7.191 12.6205 8.76051 14.1875 10.6966 14.1875C12.6327 14.1875 14.2022 12.6205 14.2022 10.6875C14.2022 8.75451 12.6327 7.1875 10.6966 7.1875C8.76051 7.1875 7.191 8.75451 7.191 10.6875Z" fill="#101214"/>
</svg>
