<svg width="24" height="24" viewBox="0 0 24 24" fill="none" xmlns="http://www.w3.org/2000/svg">
<path d="M0 6.625C0 3.31129 2.68629 0.625 6 0.625H18C21.3137 0.625 24 3.31129 24 6.625V18.625C24 21.9387 21.3137 24.625 18 24.625H6C2.68629 24.625 0 21.9387 0 18.625V6.625Z" fill="#DDDEE1"/>
<path fill-rule="evenodd" clip-rule="evenodd" d="M10.7597 17.1757C7.56145 17.1757 4.96875 14.583 4.96875 11.3847C4.96875 8.18645 7.56145 5.59375 10.7597 5.59375C13.958 5.59375 16.5507 8.18645 16.5507 11.3847C16.5507 12.4234 16.2772 13.3983 15.7983 14.2412L19.2007 17.6435L16.9958 19.8484L13.5871 16.4397C12.7509 16.9085 11.7865 17.1757 10.7597 17.1757ZM10.4865 7.80563L10.2444 8.42105C9.90023 9.29549 9.72816 9.73274 9.41064 10.0619C9.09313 10.391 8.66236 10.5787 7.80082 10.954L7.43189 11.1147V11.6239L7.80065 11.7845C8.66227 12.1598 9.09308 12.3474 9.41062 12.6766C9.72816 13.0057 9.90023 13.443 10.2444 14.3176L10.4865 14.933H10.9956L11.2378 14.3174C11.5819 13.4429 11.754 13.0057 12.0715 12.6766C12.389 12.3474 12.8198 12.1598 13.6814 11.7845L14.0501 11.6239V11.1147L13.6812 10.9539C12.8197 10.5786 12.389 10.391 12.0715 10.0619C11.754 9.73278 11.582 9.29559 11.2378 8.4212L10.9956 7.80563H10.4865Z" fill="#101214"/>
</svg>
