<svg width="24" height="24" viewBox="0 0 24 24" fill="none" xmlns="http://www.w3.org/2000/svg">
<path d="M0 6C0 2.68629 2.68629 0 6 0H18C21.3137 0 24 2.68629 24 6V18C24 21.3137 21.3137 24 18 24H6C2.68629 24 0 21.3137 0 18V6Z" fill="#FFC716"/>
<path d="M11.9997 9.80391C10.1521 9.80391 8.35513 10.6391 6.88717 11.9299C6.73532 12.0818 6.58346 12.1577 6.4316 12.1577C6.30506 12.1577 6.17851 12.0818 6.07727 11.9552L4.22968 9.7786C4.12844 9.65206 4.07782 9.52551 4.07782 9.42427C4.07782 9.27241 4.15375 9.14587 4.30561 8.99401C6.53284 7.01987 9.24096 5.90625 11.9997 5.90625C14.7584 5.90625 17.4665 7.01987 19.6938 8.99401C19.8456 9.14587 19.9216 9.27241 19.9216 9.42427C19.9216 9.52551 19.871 9.65206 19.7697 9.7786L17.9221 11.9552C17.8209 12.0818 17.6943 12.1577 17.5678 12.1577C17.4159 12.1577 17.2641 12.0818 17.1122 11.9299C15.6443 10.6391 13.8473 9.80391 11.9997 9.80391ZM11.9997 17.9536C9.94963 17.9536 8.2792 16.2831 8.2792 14.2584C8.2792 12.2336 9.94963 10.5632 11.9997 10.5632C14.0498 10.5632 15.7202 12.2083 15.7202 14.2584C15.7202 16.3085 14.0498 17.9536 11.9997 17.9536Z" fill="#101214"/>
</svg>
