<svg width="32" height="32" viewBox="0 0 32 32" fill="none" xmlns="http://www.w3.org/2000/svg">
<path d="M0 8C0 3.58172 3.58172 0 8 0H24C28.4183 0 32 3.58172 32 8V24C32 28.4183 28.4183 32 24 32H8C3.58172 32 0 28.4183 0 24V8Z" fill="#FFC716"/>
<path d="M16 13.0615C13.4345 13.0615 10.9393 14.1707 8.90096 15.885C8.6901 16.0867 8.47923 16.1875 8.26837 16.1875C8.09265 16.1875 7.91693 16.0867 7.77636 15.9186L5.21086 13.0278C5.07029 12.8598 5 12.6917 5 12.5572C5 12.3556 5.10543 12.1875 5.31629 11.9858C8.40895 9.36397 12.1693 7.88498 16 7.88498C19.8307 7.88498 23.5911 9.36397 26.6837 11.9858C26.8946 12.1875 27 12.3556 27 12.5572C27 12.6917 26.9297 12.8598 26.7891 13.0278L24.2236 15.9186C24.0831 16.0867 23.9073 16.1875 23.7316 16.1875C23.5208 16.1875 23.3099 16.0867 23.099 15.885C21.0607 14.1707 18.5655 13.0615 16 13.0615ZM16 23.885C13.1534 23.885 10.8339 21.6665 10.8339 18.9774C10.8339 16.2883 13.1534 14.0699 16 14.0699C18.8466 14.0699 21.1661 16.2547 21.1661 18.9774C21.1661 21.7001 18.8466 23.885 16 23.885Z" fill="#111213"/>
</svg>
