<svg width="24" height="24" viewBox="0 0 24 24" fill="none" xmlns="http://www.w3.org/2000/svg">
<path d="M0 6C0 2.68629 2.68629 0 6 0H18C21.3137 0 24 2.68629 24 6V18C24 21.3137 21.3137 24 18 24H6C2.68629 24 0 21.3137 0 18V6Z" fill="#FB9700"/>
<path fill-rule="evenodd" clip-rule="evenodd" d="M9.29663 8.7531L11.5735 3.67999H12.4322L14.7091 8.7531L20.2375 9.35089L20.5029 10.1675L16.3817 13.9007L17.5215 19.3432L16.8268 19.848L12.0029 17.0821L7.17892 19.848L6.48424 19.3432L7.62408 13.9007L3.50287 10.1675L3.76821 9.35089L9.29663 8.7531ZM10.0743 15.1684V14.4899C10.0743 13.4642 10.9058 12.6328 11.9314 12.6328C12.9571 12.6328 13.7886 13.4642 13.7886 14.4899V15.1026C13.2413 15.4456 12.5954 15.6457 11.9032 15.6506H11.8505C11.2037 15.646 10.5974 15.4711 10.0743 15.1684ZM11.9314 12.0342C12.7007 12.0342 13.3243 11.4106 13.3243 10.6413C13.3243 9.87206 12.7007 9.24846 11.9314 9.24846C11.1622 9.24846 10.5386 9.87206 10.5386 10.6413C10.5386 11.4106 11.1622 12.0342 11.9314 12.0342Z" fill="#101214"/>
</svg>
