<svg width="32" height="32" viewBox="0 0 32 32" fill="none" xmlns="http://www.w3.org/2000/svg">
<path d="M0 8C0 3.58172 3.58172 0 8 0H24C28.4183 0 32 3.58172 32 8V24C32 28.4183 28.4183 32 24 32H8C3.58172 32 0 28.4183 0 24V8Z" fill="#FB9700"/>
<path d="M19.75 11.2188C19.75 13.2726 18.0711 14.9375 16 14.9375C13.9289 14.9375 12.25 13.2726 12.25 11.2188C12.25 9.16494 13.9289 7.5 16 7.5C18.0711 7.5 19.75 9.16494 19.75 11.2188Z" fill="#101214"/>
<path d="M11 21.7552C11 19.0168 13.2386 16.7969 16 16.7969C18.7614 16.7969 21 19.0168 21 21.7552V24.5H11V21.7552Z" fill="#101214"/>
</svg>
