<svg width="24" height="24" viewBox="0 0 24 24" fill="none" xmlns="http://www.w3.org/2000/svg">
<path d="M0 6C0 2.68629 2.68629 0 6 0H18C21.3137 0 24 2.68629 24 6V18C24 21.3137 21.3137 24 18 24H6C2.68629 24 0 21.3137 0 18V6Z" fill="#DDDEE1"/>
<path d="M8.0625 11.25C9.51225 11.25 10.6875 10.0747 10.6875 8.625C10.6875 7.17525 9.51225 6 8.0625 6C6.61275 6 5.4375 7.17525 5.4375 8.625C5.4375 10.0747 6.61275 11.25 8.0625 11.25Z" fill="#101214"/>
<path d="M15.9375 11.25C17.3872 11.25 18.5625 10.0747 18.5625 8.625C18.5625 7.17525 17.3872 6 15.9375 6C14.4878 6 13.3125 7.17525 13.3125 8.625C13.3125 10.0747 14.4878 11.25 15.9375 11.25Z" fill="#101214"/>
<path d="M16.1057 12.5625C17.7042 12.5625 19 13.8583 19 15.4568V18H11.7812L13.4401 14.3291C13.8931 13.2583 14.943 12.5625 16.1057 12.5625Z" fill="#101214"/>
<path d="M5 15.625L5 18H9.8125L11.125 15.1875C11.125 13.7377 9.94975 12.5625 8.5 12.5625H8.0625C6.37113 12.5625 5 13.9336 5 15.625Z" fill="#101214"/>
</svg>
