<svg width="32" height="32" viewBox="0 0 32 32" fill="none" xmlns="http://www.w3.org/2000/svg">
<path d="M0 8C0 3.58172 3.58172 0 8 0H24C28.4183 0 32 3.58172 32 8V24C32 28.4183 28.4183 32 24 32H8C3.58172 32 0 28.4183 0 24V8Z" fill="#DDDEE1"/>
<path d="M10.75 15C12.683 15 14.25 13.433 14.25 11.5C14.25 9.567 12.683 8 10.75 8C8.81702 8 7.25002 9.567 7.25002 11.5C7.25002 13.433 8.81702 15 10.75 15Z" fill="#1E1F21"/>
<path d="M21.25 15C23.183 15 24.75 13.433 24.75 11.5C24.75 9.567 23.183 8 21.25 8C19.317 8 17.75 9.567 17.75 11.5C17.75 13.433 19.317 15 21.25 15Z" fill="#1E1F21"/>
<path d="M21.4743 16.75C23.6056 16.75 25.3334 18.4778 25.3334 20.6091V24H15.7084L17.9202 19.1054C18.5242 17.6777 19.924 16.75 21.4743 16.75Z" fill="#1E1F21"/>
<path d="M6.66669 20.8333L6.66669 24H13.0834L14.8334 20.25C14.8334 18.317 13.2663 16.75 11.3334 16.75H10.75C8.49486 16.75 6.66669 18.5782 6.66669 20.8333Z" fill="#1E1F21"/>
</svg>
