<svg width="32" height="32" viewBox="0 0 32 32" fill="none" xmlns="http://www.w3.org/2000/svg">
<path d="M0 8C0 3.58172 3.58172 0 8 0H24C28.4183 0 32 3.58172 32 8V24C32 28.4183 28.4183 32 24 32H8C3.58172 32 0 28.4183 0 24V8Z" fill="#1558BC"/>
<path d="M12.5205 24.312C13.2182 24.312 13.7843 23.7469 13.7843 23.0482V7.17185C13.7843 6.47419 13.2191 5.90802 12.5205 5.90802H7.17179C6.47413 5.90802 5.90796 6.47321 5.90796 7.17185V23.0482C5.90796 23.7459 6.47315 24.312 7.17179 24.312H12.5205Z" fill="white"/>
<path d="M24.8281 17.0234C25.5258 17.0234 26.0919 16.4582 26.0919 15.7596V7.17185C26.0919 6.47419 25.5268 5.90802 24.8281 5.90802H19.4794C18.7817 5.90802 18.2156 6.47321 18.2156 7.17185V15.7596C18.2156 16.4573 18.7808 17.0234 19.4794 17.0234H24.8281Z" fill="white"/>
</svg>
