<svg width="24" height="24" viewBox="0 0 24 24" fill="none" xmlns="http://www.w3.org/2000/svg">
<path d="M0 6C0 2.68629 2.68629 0 6 0H18C21.3137 0 24 2.68629 24 6V18C24 21.3137 21.3137 24 18 24H6C2.68629 24 0 21.3137 0 18V6Z" fill="#1558BC"/>
<path d="M9.39043 18.234C9.91367 18.234 10.3383 17.8101 10.3383 17.2861V5.37887C10.3383 4.85563 9.91441 4.431 9.39043 4.431H5.3789C4.85566 4.431 4.43103 4.85489 4.43103 5.37887V17.2861C4.43103 17.8094 4.85492 18.234 5.3789 18.234H9.39043Z" fill="white"/>
<path d="M18.6211 12.7676C19.1444 12.7676 19.569 12.3437 19.569 11.8197V5.37887C19.569 4.85563 19.1451 4.431 18.6211 4.431H14.6096C14.0864 4.431 13.6617 4.85489 13.6617 5.37887V11.8197C13.6617 12.3429 14.0856 12.7676 14.6096 12.7676H18.6211Z" fill="white"/>
</svg>
