<svg width="24" height="24" viewBox="0 0 24 24" fill="none" xmlns="http://www.w3.org/2000/svg">
<path d="M18 0C21.3137 0 24 2.68629 24 6V18C24 21.3137 21.3137 24 18 24H6C2.68629 24 0 21.3137 0 18V6C0 2.68629 2.68629 0 6 0H18ZM5.37891 4.43066C4.85566 4.43066 4.43066 4.85493 4.43066 5.37891V17.2861C4.43066 17.8094 4.85493 18.2344 5.37891 18.2344H9.39062C9.91378 18.2343 10.3379 17.81 10.3379 17.2861V5.37891C10.3379 4.85573 9.91452 4.43077 9.39062 4.43066H5.37891ZM14.6094 4.43066C14.0862 4.43079 13.6621 4.85501 13.6621 5.37891V11.8193C13.6621 12.3425 14.0855 12.7674 14.6094 12.7676H18.6211C19.1443 12.7676 19.5693 12.3433 19.5693 11.8193V5.37891C19.5693 4.85566 19.1451 4.43066 18.6211 4.43066H14.6094Z" fill="#292A2E"/>
</svg>
