<svg width="32" height="32" viewBox="0 0 32 32" fill="none" xmlns="http://www.w3.org/2000/svg">
<path fill-rule="evenodd" clip-rule="evenodd" d="M8 0C3.58172 0 0 3.58172 0 8V24C0 28.4183 3.58172 32 8 32H24C28.4183 32 32 28.4183 32 24V8C32 3.58172 28.4183 0 24 0H8ZM13.7846 23.0481C13.7846 23.7467 13.2184 24.3119 12.5207 24.3119H7.17203C6.47339 24.3119 5.9082 23.7457 5.9082 23.0481V7.17171C5.9082 6.47307 6.47438 5.90788 7.17203 5.90788H12.5207C13.2194 5.90788 13.7846 6.47405 13.7846 7.17171V23.0481ZM26.0922 15.7595C26.0922 16.4581 25.526 17.0233 24.8284 17.0233H19.4796C18.781 17.0233 18.2158 16.4571 18.2158 15.7595V7.17171C18.2158 6.47307 18.782 5.90788 19.4796 5.90788H24.8284C25.527 5.90788 26.0922 6.47405 26.0922 7.17171V15.7595Z" fill="#292A2E"/>
</svg>
