<svg width="24" height="24" viewBox="0 0 24 24" fill="none" xmlns="http://www.w3.org/2000/svg">
<path fill-rule="evenodd" clip-rule="evenodd" d="M6 0C2.68629 0 0 2.68629 0 6V18C0 21.3137 2.68629 24 6 24H18C21.3137 24 24 21.3137 24 18V6C24 2.68629 21.3137 0 18 0H6ZM10.3382 17.2862C10.3382 17.8101 9.91361 18.234 9.39037 18.234H5.37884C4.85486 18.234 4.43097 17.8094 4.43097 17.2862V5.37889C4.43097 4.85491 4.8556 4.43102 5.37884 4.43102H9.39037C9.91435 4.43102 10.3382 4.85564 10.3382 5.37889V17.2862ZM19.569 11.8197C19.569 12.3437 19.1443 12.7676 18.6211 12.7676H14.6096C14.0856 12.7676 13.6617 12.3429 13.6617 11.8197V5.37889C13.6617 4.85491 14.0863 4.43102 14.6096 4.43102H18.6211C19.1451 4.43102 19.569 4.85564 19.569 5.37889V11.8197Z" fill="#292A2E"/>
</svg>
