<svg xmlns="http://www.w3.org/2000/svg" width="24" height="24" viewBox="0 0 24 24">
  <path fill="#FF5630" fill-rule="evenodd" d="M8.82852964,12 L7.92252934,15 L16.0774707,15 L15.1714704,12 L8.82852964,12 Z M9.43252984,10 L14.5674702,10 L12.9572977,4.66830491 C12.8604893,4.34774733 12.6096616,4.09691963 12.289104,4.00011121 C11.7604031,3.84044348 11.20237,4.13960399 11.0427023,4.66830491 L9.43252984,10 Z M17,17 L7,17 L6,17 C5.44771525,17 5,17.4477153 5,18 L5,20 L19,20 L19,18 C19,17.4477153 18.5522847,17 18,17 L17,17 Z M3,0 L21,0 C22.6568542,-3.04359188e-16 24,1.34314575 24,3 L24,21 C24,22.6568542 22.6568542,24 21,24 L3,24 C1.34314575,24 2.02906125e-16,22.6568542 0,21 L0,3 C-2.02906125e-16,1.34314575 1.34314575,3.04359188e-16 3,0 Z"/>
</svg>
