<?xml version="1.0" encoding="UTF-8" standalone="no"?>
<svg width="24px" height="24px" viewBox="0 0 24 24" version="1.1" xmlns="http://www.w3.org/2000/svg" xmlns:xlink="http://www.w3.org/1999/xlink">
    <!-- Generator: Sketch 45.1 (43504) - http://www.bohemiancoding.com/sketch -->
    <title>emoji/custom</title>
    <desc>Created with Sketch.</desc>
    <defs></defs>
    <g id="Emoji" stroke="none" stroke-width="1" fill="none" fill-rule="evenodd">
        <g id="emoji/custom" fill="#42526E">
            <path d="M13,11 L13,7.00247329 C13,6.45576096 12.5522847,6 12,6 C11.4438648,6 11,6.44882258 11,7.00247329 L11,11 L7.00247329,11 C6.45576096,11 6,11.4477153 6,12 C6,12.5561352 6.44882258,13 7.00247329,13 L11,13 L11,16.9975267 C11,17.544239 11.4477153,18 12,18 C12.5561352,18 13,17.5511774 13,16.9975267 L13,13 L16.9975267,13 C17.544239,13 18,12.5522847 18,12 C18,11.4438648 17.5511774,11 16.9975267,11 L13,11 Z" id="Shape"></path>
        </g>
    </g>
</svg>