<?xml version="1.0" encoding="UTF-8" standalone="no"?>
<svg width="24px" height="24px" viewBox="0 0 24 24" version="1.1" xmlns="http://www.w3.org/2000/svg" xmlns:xlink="http://www.w3.org/1999/xlink">
    <!-- Generator: Sketch 45.1 (43504) - http://www.bohemiancoding.com/sketch -->
    <title>emoji/emoji</title>
    <desc>Created with Sketch.</desc>
    <defs></defs>
    <g id="Emoji" stroke="none" stroke-width="1" fill="none" fill-rule="evenodd">
        <g id="emoji/emoji" fill="#42526E">
            <path d="M12,21 C7.02943727,21 3,16.9705627 3,12 C3,7.02943727 7.02943727,3 12,3 C16.9705627,3 21,7.02943727 21,12 C21,16.9705627 16.9705627,21 12,21 Z M12,19 C15.8659933,19 19,15.8659933 19,12 C19,8.13400677 15.8659933,5 12,5 C8.13400677,5 5,8.13400677 5,12 C5,15.8659933 8.13400677,19 12,19 Z M8.04912826,14.1967436 C7.88280779,13.7204608 8.15246655,13.2056562 8.65142796,13.0468953 C9.15038937,12.8881344 9.68970688,13.1455367 9.85602735,13.6218194 C9.91685575,13.7960103 10.0806841,14.1087744 10.3507935,14.4181734 C10.776687,14.9060165 11.3066151,15.1819302 12,15.1819302 C12.693385,15.1819302 13.223313,14.9060165 13.6492066,14.4181734 C13.9193159,14.1087744 14.0831443,13.7960103 14.1439727,13.6218194 C14.3102931,13.1455367 14.8496106,12.8881344 15.3485721,13.0468953 C15.8475335,13.2056562 16.1171922,13.7204608 15.9508717,14.1967436 C15.8212363,14.5679735 15.5565209,15.0733408 15.1123907,15.5820732 C14.3478849,16.4577824 13.3064859,17 12,17 C10.6935141,17 9.65211509,16.4577824 8.88760936,15.5820732 C8.44347917,15.0733408 8.17876375,14.5679735 8.04912826,14.1967436 Z M9.5,11 C8.67157287,11 8,10.3284271 8,9.5 C8,8.67157287 8.67157287,8 9.5,8 C10.3284271,8 11,8.67157287 11,9.5 C11,10.3284271 10.3284271,11 9.5,11 Z M14.4999999,11 C13.6715728,11 13,10.3284271 13,9.5 C13,8.67157287 13.6715728,8 14.4999999,8 C15.3284272,8 16,8.67157287 16,9.5 C16,10.3284271 15.3284272,11 14.4999999,11 Z" id="Combined-Shape"></path>
        </g>
    </g>
</svg>