<?xml version="1.0" encoding="UTF-8" standalone="no"?>
<svg width="24px" height="24px" viewBox="0 0 24 24" version="1.1" xmlns="http://www.w3.org/2000/svg" xmlns:xlink="http://www.w3.org/1999/xlink">
    <!-- Generator: Sketch 45.1 (43504) - http://www.bohemiancoding.com/sketch -->
    <title>emoji/flags</title>
    <desc>Created with Sketch.</desc>
    <defs></defs>
    <g id="Emoji" stroke="none" stroke-width="1" fill="none" fill-rule="evenodd">
        <g id="emoji/flags" fill="#42526E">
            <path d="M6.0001,12.2347877 L6.0001,18.6807102 C6.0001,19.2180546 6.4501,19.6577 7.0001,19.6577 C7.5501,19.6577 8.0001,19.2180546 8.0001,18.6807102 L8.0001,12.9030653 C9.16955916,12.5620382 10.388722,12.857669 11.768,13.1925873 C12.75,13.4305873 13.804,13.6875873 14.898,13.6875873 C15.73,13.6875873 16.585,13.5385873 17.445,13.1205873 C17.79,12.9525873 18.008,12.6045873 18.008,12.2205873 L18.008,5.46558729 C18.008,5.12158729 17.831,4.80058729 17.539,4.61858729 C17.248,4.43558729 16.882,4.41658729 16.571,4.56658729 C15.226,5.21958729 13.84,4.88258729 12.24,4.49458729 C10.511,4.07458729 8.553,3.59958729 6.562,4.56658729 C6.218,4.73358729 6,5.08358729 6,5.46558729 L6,12.2205873 C6,12.2253256 6.00003339,12.2300591 6.0001,12.2347877 Z M9.111,10.7545873 C10.205,10.7545873 11.259,11.0105873 12.24,11.2495873 C13.621,11.5845873 14.84,11.8805873 16.008,11.5385873 L16.008,6.83558729 C14.52,7.10658729 13.078,6.75558729 11.768,6.43758729 C10.389,6.10258729 9.17,5.80558729 8,6.14858729 L8,10.8515873 C8.374,10.7835873 8.745,10.7545873 9.111,10.7545873 Z" id="Shape"></path>
        </g>
    </g>
</svg>