<?xml version="1.0" encoding="UTF-8" standalone="no"?>
<svg width="24px" height="24px" viewBox="0 0 24 24" version="1.1" xmlns="http://www.w3.org/2000/svg" xmlns:xlink="http://www.w3.org/1999/xlink">
    <!-- Generator: Sketch 45.1 (43504) - http://www.bohemiancoding.com/sketch -->
    <title>emoji/food</title>
    <desc>Created with Sketch.</desc>
    <defs></defs>
    <g id="Emoji" stroke="none" stroke-width="1" fill="none" fill-rule="evenodd">
        <g id="emoji/food" fill="#42526E">
            <path d="M9.42537112,4.79783798 C9.42525525,4.79939511 9.42514279,4.80095332 9.42503375,4.8025126 L9.27137046,7 L4.99539757,7 C4.4556644,7 4.04912579,7.44704472 4.10972553,7.99850233 L5.3188459,19.0014977 C5.37939677,19.5525106 5.87542141,20 6.42663879,20 L10.5528505,20 L17.9914698,20 C19.0980496,20 20,19.1047419 20,18.000385 L20,14.009763 C20,11.7877996 18.2110077,10 16.0041738,10 L13.5604396,10 L13.8536993,7.99850233 C13.9344338,7.44748943 13.5543453,7 13.0046024,7 L11.2762543,7 L11.3510589,5.93024353 L14.3529506,6.14015624 C14.8914385,6.17781098 15.3725462,5.76264478 15.4110716,5.21170537 C15.4498656,4.65692491 15.0383222,4.1831983 14.4924636,4.14502814 L10.4838083,3.86471566 C9.94532039,3.82706092 9.46421273,4.24222712 9.42568729,4.79316653 C9.42557825,4.79472592 9.42547276,4.79628468 9.42537083,4.79784279 L9.42537112,4.79783798 Z M18,15 L18,13.9979131 C18,12.8982606 17.1054196,12 16.0018986,12 L11.9981014,12 C10.8867064,12 10,12.8944962 10,13.9979131 L10,15 L18,15 Z M18,17 L18,18 L10,18 L10,17 L18,17 Z M11.8887309,10.0014217 L12,9 L6,9 L7,18 L8,18 L8,14.009763 C8,11.8312872 9.7384986,10.058568 11.8887309,10.0014217 Z" id="Shape"></path>
        </g>
    </g>
</svg>