<?xml version="1.0" encoding="UTF-8" standalone="no"?>
<svg width="24px" height="24px" viewBox="0 0 24 24" version="1.1" xmlns="http://www.w3.org/2000/svg" xmlns:xlink="http://www.w3.org/1999/xlink">
    <!-- Generator: Sketch 45.1 (43504) - http://www.bohemiancoding.com/sketch -->
    <title>emoji/frequent</title>
    <desc>Created with Sketch.</desc>
    <defs></defs>
    <g id="Emoji" stroke="none" stroke-width="1" fill="none" fill-rule="evenodd">
        <g id="emoji/frequent" fill="#42526E">
            <path d="M12,4 C7.58844444,4 4,7.58844444 4,12 C4,16.4115556 7.58844444,20 12,20 C16.4115556,20 20,16.4115556 20,12 C20,7.58844444 16.4115556,4 12,4 Z M12,18.2222222 C8.56977778,18.2222222 5.77777778,15.4302222 5.77777778,12 C5.77777778,8.56977778 8.56977778,5.77777778 12,5.77777778 C15.4302222,5.77777778 18.2222222,8.56977778 18.2222222,12 C18.2222222,15.4302222 15.4302222,18.2222222 12,18.2222222 Z M12.8888889,11.6323556 L12.8888889,8.44835556 C12.8888889,7.95946667 12.4888889,7.55946667 12,7.55946667 C11.5111111,7.55946667 11.1111111,7.95946667 11.1111111,8.44835556 L11.1111111,12.0039111 C11.1111111,12.2519111 11.2142222,12.4750222 11.3786667,12.6368 L13.5742222,14.8314667 C13.92,15.1772444 14.4853333,15.1772444 14.8311111,14.8314667 C15.1768889,14.4856889 15.1768889,13.9203556 14.8311111,13.5745778 L12.8888889,11.6323556 Z" id="Shape"></path>
        </g>
    </g>
</svg>