<?xml version="1.0" encoding="UTF-8" standalone="no"?>
<svg width="24px" height="24px" viewBox="0 0 24 24" version="1.1" xmlns="http://www.w3.org/2000/svg" xmlns:xlink="http://www.w3.org/1999/xlink">
    <!-- Generator: Sketch 45.1 (43504) - http://www.bohemiancoding.com/sketch -->
    <title>emoji/keyboard</title>
    <desc>Created with Sketch.</desc>
    <defs></defs>
    <g id="Emoji" stroke="none" stroke-width="1" fill="none" fill-rule="evenodd">
        <g id="emoji/keyboard" fill="#42526E">
            <path d="M5.8361589,6.94930809 L2.01145809,16.920548 L2.01145809,16.920548 C1.91256286,17.1783741 2.04140186,17.467554 2.29922806,17.5664492 C2.35638317,17.5883724 2.41707825,17.5996136 2.47829371,17.5996136 L3.68622733,17.5996136 L3.68622733,17.5996136 C3.89645329,17.5996136 4.08422596,17.4681133 4.15609862,17.270555 L4.83929061,15.392647 L4.83929061,15.392647 C4.91116327,15.1950887 5.09893594,15.0635884 5.3091619,15.0635884 L9.12011946,15.0635884 L9.12011946,15.0635884 C9.33034541,15.0635884 9.51811809,15.1950887 9.58999074,15.392647 L10.2731827,17.270555 L10.2731827,17.270555 C10.3450554,17.4681133 10.5328281,17.5996136 10.743054,17.5996136 L12.0154636,17.5996136 L12.0154636,17.5996136 C12.2916059,17.5996136 12.5154636,17.375756 12.5154636,17.0996136 C12.5154636,17.0387913 12.5043663,16.9784794 12.4827168,16.9216406 L8.68491883,6.95083782 L8.68491883,6.95083782 C8.58152677,6.67939058 8.32123546,6.5 8.03076425,6.5 L6.48972877,6.5 L6.48972877,6.5 C6.19985622,6.5 5.93997134,6.67866243 5.8361589,6.94930809 Z M7.40246801,9.40694004 L8.6514311,12.8211973 L8.6514311,12.8211973 C8.6893779,12.9249315 8.6360467,13.0397866 8.53231253,13.0777334 C8.51029986,13.0857858 8.48704304,13.0899061 8.46360377,13.0899061 L5.96567759,13.0899061 L5.96567759,13.0899061 C5.85522064,13.0899061 5.76567759,13.000363 5.76567759,12.8899061 C5.76567759,12.8664668 5.76979784,12.84321 5.77785026,12.8211973 L7.02681335,9.40694004 L7.02681335,9.40694004 C7.06476015,9.30320587 7.17961527,9.24987467 7.28334944,9.28782148 C7.33865682,9.30805337 7.38223612,9.35163266 7.40246801,9.40694004 Z" id="Page-1"></path>
            <path d="M17.5496429,15.8717111 C18.7720937,15.8717111 19.6915893,14.8618605 19.6915893,13.2691311 C19.6915893,11.6746301 18.7898104,10.7374178 17.5496429,10.7374178 C16.2935305,10.7374178 15.3722632,11.6746301 15.3722632,13.2691311 C15.3722632,14.8441438 16.2758138,15.8717111 17.5496429,15.8717111 L17.5496429,15.8717111 Z M19.7110777,16.4740782 C19.3390274,17.306762 18.4354768,17.9073574 17.2661761,17.9073574 C14.6990294,17.9073574 13,15.9071445 13,13.2691311 C13,10.7179294 14.6635961,8.69999981 17.1953094,8.69999981 C18.7543771,8.69999981 19.4789892,9.53268368 19.6915893,10.0287507 C19.6915893,9.87803903 19.6915893,9.76500529 19.6915893,9.68964947 C19.6915893,9.44244408 19.6986124,9.29674833 19.9045196,9.11344576 C20.041791,8.99124405 20.2485047,8.93610657 20.5246606,8.9480333 L21.2886017,8.9480333 C21.4773613,8.92348117 21.6428512,8.97861866 21.7850714,9.11344576 C21.9984017,9.31568642 21.9770408,9.53447481 21.9770408,9.68964947 C21.9770408,11.118157 21.9770408,13.2497109 21.9770408,16.0843113 C21.9770408,16.3108389 21.9846939,16.6103716 22,16.9829093 C22,17.1740326 21.9587453,17.3188379 21.8762358,17.4173252 C21.7524716,17.5650561 21.5944322,17.6593239 21.3676945,17.6593239 C21.1354596,17.6593239 20.8258351,17.6593239 20.4388211,17.6593239 C20.2451483,17.6593239 19.9871809,17.5752598 19.9045196,17.4752299 C19.8218583,17.3752 19.7397948,17.2445762 19.7222821,16.9427589 C19.715351,16.8233076 19.7110777,16.6996751 19.7110777,16.5786066 L19.7110777,16.4740782 Z" id="Fill-1"></path>
        </g>
    </g>
</svg>