<?xml version="1.0" encoding="UTF-8" standalone="no"?>
<svg width="24px" height="24px" viewBox="0 0 24 24" version="1.1" xmlns="http://www.w3.org/2000/svg" xmlns:xlink="http://www.w3.org/1999/xlink">
    <!-- Generator: Sketch 45.1 (43504) - http://www.bohemiancoding.com/sketch -->
    <title>emoji/people</title>
    <desc>Created with Sketch.</desc>
    <defs></defs>
    <g id="Emoji" stroke="none" stroke-width="1" fill="none" fill-rule="evenodd">
        <g id="emoji/people" fill="#42526E">
            <path d="M12,4 C7.58844444,4 4,7.58844444 4,12 C4,16.4115556 7.58844444,20 12,20 C16.4115556,20 20,16.4115556 20,12 C20,7.58844444 16.4115556,4 12,4 Z M12,18.2222222 C8.56977778,18.2222222 5.77777778,15.4302222 5.77777778,12 C5.77777778,8.56977778 8.56977778,5.77777778 12,5.77777778 C15.4302222,5.77777778 18.2222222,8.56977778 18.2222222,12 C18.2222222,15.4302222 15.4302222,18.2222222 12,18.2222222 Z M14.8292943,14 C14.4174579,15.1651924 13.3062188,16 12,16 C10.6937812,16 9.58254212,15.1651924 9.17070571,14 L14.8292943,14 L14.8292943,14 Z M14,11 C14.5522847,11 15,10.5522847 15,10 C15,9.44771525 14.5522847,9 14,9 C13.4477153,9 13,9.44771525 13,10 C13,10.5522847 13.4477153,11 14,11 Z M10,11 C10.5522847,11 11,10.5522847 11,10 C11,9.44771525 10.5522847,9 10,9 C9.44771525,9 9,9.44771525 9,10 C9,10.5522847 9.44771525,11 10,11 Z" id="Shape"></path>
        </g>
    </g>
</svg>