<svg width="16" height="16" fill="none" viewBox="0 0 16 16"><path fill="currentcolor" d="M14.5 3.125C14.5 2.504 13.996 2 13.375 2H2.625C2.004 2 1.5 2.504 1.5 3.125v10.832L4.05 12.5h9.325c.621 0 1.125-.504 1.125-1.125zm1.5 8.25A2.625 2.625 0 0 1 13.375 14H4.449l-3.327 1.901A.75.75 0 0 1 0 15.25V3.125A2.625 2.625 0 0 1 2.625.5h10.75A2.625 2.625 0 0 1 16 3.125z"/><path fill="currentcolor" d="M5 6.25a1 1 0 1 1 0 2 1 1 0 0 1 0-2m3 0a1 1 0 1 1 0 2 1 1 0 0 1 0-2m3 0a1 1 0 1 1 0 2 1 1 0 0 1 0-2"/></svg>