<svg width="16" height="16" fill="none" viewBox="0 0 16 16"><path fill="currentcolor" d="M4.25 11a.75.75 0 0 1 .75.75v2.5a.75.75 0 0 1-.75.75h-2.5a.75.75 0 0 1-.75-.75v-2.5a.75.75 0 0 1 .75-.75zm5 0a.75.75 0 0 1 .75.75v2.5a.75.75 0 0 1-.75.75h-2.5a.75.75 0 0 1-.75-.75v-2.5a.75.75 0 0 1 .75-.75zm5 0a.75.75 0 0 1 .75.75v2.5a.75.75 0 0 1-.75.75h-2.5a.75.75 0 0 1-.75-.75v-2.5a.75.75 0 0 1 .75-.75zm-10-5a.75.75 0 0 1 .75.75v2.5a.75.75 0 0 1-.75.75h-2.5A.75.75 0 0 1 1 9.25v-2.5A.75.75 0 0 1 1.75 6zm5 0a.75.75 0 0 1 .75.75v2.5a.75.75 0 0 1-.75.75h-2.5A.75.75 0 0 1 6 9.25v-2.5A.75.75 0 0 1 6.75 6zm5 0a.75.75 0 0 1 .75.75v2.5a.75.75 0 0 1-.75.75h-2.5a.75.75 0 0 1-.75-.75v-2.5a.75.75 0 0 1 .75-.75zm-10-5a.75.75 0 0 1 .75.75v2.5a.75.75 0 0 1-.75.75h-2.5A.75.75 0 0 1 1 4.25v-2.5A.75.75 0 0 1 1.75 1zm5 0a.75.75 0 0 1 .75.75v2.5a.75.75 0 0 1-.75.75h-2.5A.75.75 0 0 1 6 4.25v-2.5A.75.75 0 0 1 6.75 1zm5 0a.75.75 0 0 1 .75.75v2.5a.75.75 0 0 1-.75.75h-2.5a.75.75 0 0 1-.75-.75v-2.5a.75.75 0 0 1 .75-.75z"/></svg>