<svg width="16" height="16" fill="none" viewBox="0 0 16 16"><path fill="currentcolor" d="M11.75 11.75h2.5v2.5h-2.5zm-10-10h2.5v2.5h-2.5zm0 5h2.5v2.5h-2.5zm0 5h2.5v2.5h-2.5zm5-10h2.5v2.5h-2.5zm0 5h2.5v2.5h-2.5zm0 5h2.5v2.5h-2.5zm5-10h2.5v2.5h-2.5zm0 5h2.5v2.5h-2.5z"/><path stroke="currentcolor" stroke-linejoin="round" stroke-width="1.5" d="M11.75 11.75h2.5v2.5h-2.5zm-10-10h2.5v2.5h-2.5zm0 5h2.5v2.5h-2.5zm0 5h2.5v2.5h-2.5zm5-10h2.5v2.5h-2.5zm0 5h2.5v2.5h-2.5zm0 5h2.5v2.5h-2.5zm5-10h2.5v2.5h-2.5zm0 5h2.5v2.5h-2.5z"/></svg>