<svg width="16" height="16" fill="none" viewBox="0 0 16 16"><path fill="currentcolor" d="M13.5 5.208a.5.5 0 0 0-.243-.429l-5-3a.5.5 0 0 0-.514 0l-5 3a.5.5 0 0 0-.243.43v5.583a.5.5 0 0 0 .243.429l5 3a.5.5 0 0 0 .514 0l5-3a.5.5 0 0 0 .243-.429zm1.5 5.584a2 2 0 0 1-.97 1.715l-5 3a2 2 0 0 1-2.06 0l-5-3A2 2 0 0 1 1 10.792V5.208a2 2 0 0 1 .97-1.715l5-3a2 2 0 0 1 2.06 0l5 3A2 2 0 0 1 15 5.208z"/><path fill="currentcolor" d="M9.5 8a1.5 1.5 0 1 0-3 0 1.5 1.5 0 0 0 3 0M11 8a3 3 0 1 1-6 0 3 3 0 0 1 6 0"/></svg>