<svg width="16" height="16" fill="none" viewBox="0 0 16 16"><path fill="currentcolor" fill-rule="evenodd" d="M8.257 1.779a.5.5 0 0 0-.514 0l-5 3a.5.5 0 0 0-.243.429v5.584a.5.5 0 0 0 .243.429l5 3a.5.5 0 0 0 .514 0l5-3a.5.5 0 0 0 .243-.429V5.208a.5.5 0 0 0-.243-.429zM6.971.493a2 2 0 0 1 2.058 0l5 3A2 2 0 0 1 15 5.208v5.584a2 2 0 0 1-.971 1.715l-5 3a2 2 0 0 1-2.058 0l-5-3A2 2 0 0 1 1 10.792V5.208a2 2 0 0 1 .971-1.715zM8 6.5a1.5 1.5 0 1 0 0 3 1.5 1.5 0 0 0 0-3M5 8a3 3 0 1 1 6 0 3 3 0 0 1-6 0" clip-rule="evenodd"/></svg>