<svg width="16" height="16" fill="none" viewBox="0 0 16 16"><path stroke="currentcolor" stroke-linejoin="round" stroke-width="1.5" d="M12 9v6m-3-3h6M3 14.25h2c.69 0 1.25-.56 1.25-1.25v-2c0-.69-.56-1.25-1.25-1.25H3c-.69 0-1.25.56-1.25 1.25v2c0 .69.56 1.25 1.25 1.25Zm8-8h2c.69 0 1.25-.56 1.25-1.25V3c0-.69-.56-1.25-1.25-1.25h-2c-.69 0-1.25.56-1.25 1.25v2c0 .69.56 1.25 1.25 1.25Zm-8 0h2c.69 0 1.25-.56 1.25-1.25V3c0-.69-.56-1.25-1.25-1.25H3c-.69 0-1.25.56-1.25 1.25v2c0 .69.56 1.25 1.25 1.25Z"/></svg>