<svg width="16" height="16" fill="none" viewBox="0 0 16 16"><path fill="currentcolor" d="M5.5 11a.5.5 0 0 0-.5-.5H3a.5.5 0 0 0-.5.5v2a.5.5 0 0 0 .5.5h2a.5.5 0 0 0 .5-.5zm7.25-2v2.25H15v1.5h-2.25V15h-1.5v-2.25H9v-1.5h2.25V9zM5.5 3a.5.5 0 0 0-.5-.5H3a.5.5 0 0 0-.5.5v2a.5.5 0 0 0 .5.5h2a.5.5 0 0 0 .5-.5zm8 0a.5.5 0 0 0-.5-.5h-2a.5.5 0 0 0-.5.5v2a.5.5 0 0 0 .5.5h2a.5.5 0 0 0 .5-.5zM7 13a2 2 0 0 1-2 2H3a2 2 0 0 1-2-2v-2a2 2 0 0 1 2-2h2a2 2 0 0 1 2 2zm0-8a2 2 0 0 1-2 2H3a2 2 0 0 1-2-2V3a2 2 0 0 1 2-2h2a2 2 0 0 1 2 2zm8 0a2 2 0 0 1-2 2h-2a2 2 0 0 1-2-2V3a2 2 0 0 1 2-2h2a2 2 0 0 1 2 2z"/></svg>