<svg width="16" height="16" fill="none" viewBox="0 0 16 16"><path fill="currentcolor" fill-rule="evenodd" d="M4.487 2.013a1.75 1.75 0 1 0-2.474 2.474 1.75 1.75 0 0 0 2.474-2.474M.952.952A3.25 3.25 0 0 1 6.412 2.5H9.5V4H6.413a3.24 3.24 0 0 1-.865 1.548c-.442.442-.98.73-1.548.865V9.5H2.5V6.413A3.25 3.25 0 0 1 .952.953M10.5 3.25a2.25 2.25 0 1 1 4.5 0 2.25 2.25 0 0 1-4.5 0m3 3.25v3H12v-3zM1 12.75a2.25 2.25 0 1 1 4.5 0 2.25 2.25 0 0 1-4.5 0m9.5 0a2.25 2.25 0 1 1 4.5 0 2.25 2.25 0 0 1-4.5 0m-1 .75h-3V12h3z" clip-rule="evenodd"/></svg>