<svg width="16" height="16" fill="none" viewBox="0 0 16 16"><path fill="currentcolor" fill-rule="evenodd" d="M7.953 1.5a8 8 0 0 1-.05 4.192 15.4 15.4 0 0 1 2.147 1.24 8 8 0 0 1 3.605-2.14 6.47 6.47 0 0 0-2.404-2.42A6.47 6.47 0 0 0 7.953 1.5m6.29 4.69a6.5 6.5 0 0 0-2.992 1.661c1.017.862 1.9 1.84 2.639 2.903a6.48 6.48 0 0 0 .354-4.565m-1.232 5.954a13.7 13.7 0 0 0-2.704-3.126 6.48 6.48 0 0 0-.754 5.295 6.5 6.5 0 0 0 3.459-2.17m-4.963 2.36a7.98 7.98 0 0 1 1.06-6.395 14 14 0 0 0-1.755-1.014 7.98 7.98 0 0 1-5.008 4.116A6.47 6.47 0 0 0 4.75 13.63a6.47 6.47 0 0 0 3.299.872m-6.29-4.689a6.48 6.48 0 0 0 4.208-3.3 13.7 13.7 0 0 0-4.059-.78 6.5 6.5 0 0 0-.15 4.08m.914-5.535a15 15 0 0 1 3.833.834A6.5 6.5 0 0 0 6.45 1.69a6.48 6.48 0 0 0-3.776 2.589M6.837.086A7.97 7.97 0 0 1 12 1.073a7.97 7.97 0 0 1 3.437 3.979 7.99 7.99 0 0 1-.908 7.574 8 8 0 0 1-5.364 3.29A7.97 7.97 0 0 1 4 14.93a7.97 7.97 0 0 1-3.436-3.98 7.99 7.99 0 0 1 .509-6.949A7.99 7.99 0 0 1 6.837.086" clip-rule="evenodd"/></svg>