<svg width="16" height="16" fill="none" viewBox="0 0 16 16"><path fill="currentcolor" d="M16 2.5c-2.66 0-4.15.73-5.13 1.73C9.85 5.27 9.3 6.68 8.7 8.27c-.58 1.53-1.22 3.25-2.5 4.55C4.88 14.17 2.97 15 0 15v-1.5c2.66 0 4.15-.73 5.13-1.73C6.15 10.73 6.7 9.32 7.3 7.73c.58-1.53 1.22-3.25 2.5-4.55C11.12 1.83 13.03 1 16 1zm-4.5 11a.75.75 0 1 1 0 1.5.75.75 0 0 1 0-1.5M4.5 1a.75.75 0 1 1 0 1.5.75.75 0 0 1 0-1.5m4 12.5a.75.75 0 1 1 0 1.5.75.75 0 0 1 0-1.5M7.5 1a.75.75 0 1 1 0 1.5.75.75 0 0 1 0-1.5"/></svg>