<svg width="16" height="16" fill="none" viewBox="0 0 16 16"><path stroke="currentcolor" stroke-linejoin="round" stroke-width="1.5" d="M13 1.75H3c-.69 0-1.25.56-1.25 1.25v10c0 .69.56 1.25 1.25 1.25h10c.69 0 1.25-.56 1.25-1.25V3c0-.69-.56-1.25-1.25-1.25Z"/><path fill="currentcolor" d="M8.75 8a.75.75 0 1 1-1.5 0 .75.75 0 0 1 1.5 0M5.5 8A.75.75 0 1 1 4 8a.75.75 0 0 1 1.5 0M12 8a.75.75 0 1 1-1.5 0A.75.75 0 0 1 12 8m-3.25 3.25a.75.75 0 1 1-1.5 0 .75.75 0 0 1 1.5 0m0-6.5a.75.75 0 1 1-1.5 0 .75.75 0 0 1 1.5 0"/></svg>