<svg width="16" height="16" fill="none" viewBox="0 0 16 16"><path fill="currentcolor" d="M14 10.555A13.4 13.4 0 0 1 8 12a13.4 13.4 0 0 1-6-1.445V13a.5.5 0 0 0 .5.5h11a.5.5 0 0 0 .5-.5zM14 6a.5.5 0 0 0-.5-.5h-11A.5.5 0 0 0 2 6v2.84q.056.036.121.075A11.9 11.9 0 0 0 8 10.5a11.9 11.9 0 0 0 5.879-1.585L14 8.84zm-4-3a.5.5 0 0 0-.5-.5h-3A.5.5 0 0 0 6 3v1h4zm1.5 1h2a2 2 0 0 1 2 2v7a2 2 0 0 1-2 2h-11a2 2 0 0 1-2-2V6a2 2 0 0 1 2-2h2V3a2 2 0 0 1 2-2h3a2 2 0 0 1 2 2z"/><path fill="currentcolor" d="M8 8a.75.75 0 1 1 0 1.5A.75.75 0 0 1 8 8"/></svg>