<svg width="16" height="16" fill="none" viewBox="0 0 16 16"><path fill="currentcolor" fill-rule="evenodd" d="M5.4.8A.75.75 0 0 1 6 .5h4a.75.75 0 0 1 .6.3l1.275 1.7h1.375A2.75 2.75 0 0 1 16 5.25V12a2 2 0 0 1-2 2H2a2 2 0 0 1-2-2V5.25A2.75 2.75 0 0 1 2.75 2.5h1.375zM6.375 2 5.1 3.7a.75.75 0 0 1-.6.3H2.75c-.69 0-1.25.56-1.25 1.25V12a.5.5 0 0 0 .5.5h12a.5.5 0 0 0 .5-.5V5.25c0-.69-.56-1.25-1.25-1.25H11.5a.75.75 0 0 1-.6-.3L9.625 2zM8 6.5A1.75 1.75 0 1 0 8 10a1.75 1.75 0 0 0 0-3.5M4.75 8.25a3.25 3.25 0 1 1 6.5 0 3.25 3.25 0 0 1-6.5 0" clip-rule="evenodd"/></svg>