<svg width="16" height="16" fill="none" viewBox="0 0 16 16"><mask id="mask0_56555_3394" width="16" height="16" x="0" y="0" maskUnits="userSpaceOnUse" style="mask-type:alpha"><path fill="currentcolor" d="M5.106 0C5.04.239 5 .49 5 .75v7.5a2.75 2.75 0 0 0 3.462 2.656l7.246-1.941q.15-.04.292-.098V16H0V0zm5.672 4.59-.278.076v-.29q.143.102.278.215M16 2.17A10.3 10.3 0 0 0 13.831 0H16z"/></mask><g mask="url(#mask0_56555_3394)"><path stroke="currentcolor" stroke-linejoin="round" stroke-width="1.5" d="M1.75 8a6.25 6.25 0 1 0 12.5 0 6.25 6.25 0 0 0-12.5 0Z"/></g><path stroke="currentcolor" stroke-linejoin="round" stroke-width="1.5" d="M7.75 8.25V.75c3.47 0 6.39 2.357 7.246 5.558z"/></svg>