<svg width="16" height="16" fill="none" viewBox="0 0 16 16"><path fill="currentcolor" d="M8 4.25a1.5 1.5 0 1 1-3 0 1.5 1.5 0 0 1 3 0M13.25 8a1 1 0 1 1-2 0 1 1 0 0 1 2 0m-5.5 2.25a.75.75 0 1 1-1.5 0 .75.75 0 0 1 1.5 0"/><path fill="currentcolor" fill-rule="evenodd" d="M1 13V1h1.5v12a.5.5 0 0 0 .5.5h12V15H3a2 2 0 0 1-2-2m5.5-9.5a.75.75 0 1 0 0 1.5.75.75 0 0 0 0-1.5m-2.25.75a2.25 2.25 0 1 1 4.5 0 2.25 2.25 0 0 1-4.5 0m8 3.5a.25.25 0 1 0 0 .5.25.25 0 0 0 0-.5M10.5 8A1.75 1.75 0 1 1 14 8a1.75 1.75 0 0 1-3.5 0m-5 2.25a1.5 1.5 0 1 1 3 0 1.5 1.5 0 0 1-3 0" clip-rule="evenodd"/></svg>