<svg width="16" height="16" fill="none" viewBox="0 0 16 16"><path fill="currentcolor" fill-rule="evenodd" d="M3 2.375C3 1.615 3.616 1 4.375 1h1.75c.76 0 1.375.616 1.375 1.375v4.25C7.5 7.385 6.884 8 6.125 8h-1.75C3.615 8 3 7.384 3 6.625V5.25H0v-1.5h3zm1.5.125v4H6v-4zM16 5.25H8.5v-1.5H16zM8.5 9.375C8.5 8.615 9.116 8 9.875 8h1.75C12.385 8 13 8.616 13 9.375v1.375h3v1.5h-3v1.375c0 .76-.616 1.375-1.375 1.375h-1.75c-.76 0-1.375-.616-1.375-1.375zM10 9.5v4h1.5v-4zM0 12.25v-1.5h7.5v1.5z" clip-rule="evenodd"/></svg>