<svg width="16" height="16" fill="none" viewBox="0 0 16 16"><path fill="currentcolor" fill-rule="evenodd" d="M13.75 1.5a.75.75 0 1 0 0 1.5.75.75 0 0 0 0-1.5m-2.122 0a2.251 2.251 0 1 1 0 1.5H9.563C8.976 3 8.5 3.476 8.5 4.063V7.25h3.128a2.251 2.251 0 1 1 0 1.5H8.5v3.188c0 .586.476 1.062 1.063 1.062h2.065a2.251 2.251 0 1 1 0 1.5H9.563A2.563 2.563 0 0 1 7 11.938V8.75H4.372a2.25 2.25 0 1 1 0-1.5H7V4.063A2.56 2.56 0 0 1 9.563 1.5zM2.25 7.25a.75.75 0 1 0 0 1.5.75.75 0 0 0 0-1.5m11.5 0a.75.75 0 1 0 0 1.5.75.75 0 0 0 0-1.5m0 5.75a.75.75 0 1 0 0 1.5.75.75 0 0 0 0-1.5" clip-rule="evenodd"/></svg>