<svg width="16" height="16" fill="none" viewBox="0 0 16 16"><path fill="currentcolor" fill-rule="evenodd" d="M0 6a2 2 0 0 1 2-2h1a2 2 0 0 1 2 2v6H3.5V9.5h-2V12H0zm1.5 2h2V6a.5.5 0 0 0-.5-.5H2a.5.5 0 0 0-.5.5zM6 8a.75.75 0 0 1 .75-.75H9a2 2 0 0 1 2 2V10a2 2 0 0 1-2 2H6.75a.75.75 0 0 1-.75-.75zm1.5.75v1.75H9a.5.5 0 0 0 .5-.5v-.75a.5.5 0 0 0-.5-.5z" clip-rule="evenodd"/><path fill="currentcolor" fill-rule="evenodd" d="M6 4.75A.75.75 0 0 1 6.75 4H9a2 2 0 0 1 2 2v.75a2 2 0 0 1-2 2H6.75A.75.75 0 0 1 6 8zm1.5.75v1.75H9a.5.5 0 0 0 .5-.5V6a.5.5 0 0 0-.5-.5zM12 6a2 2 0 0 1 2-2h2v1.5h-2a.5.5 0 0 0-.5.5v4a.5.5 0 0 0 .5.5h2V12h-2a2 2 0 0 1-2-2z" clip-rule="evenodd"/></svg>