<svg width="16" height="16" fill="none" viewBox="0 0 16 16"><path fill="currentcolor" fill-rule="evenodd" d="M5.5.75A.75.75 0 0 1 6.25 0h3.5a.75.75 0 0 1 .75.75v3.5a.75.75 0 0 1-.75.75h-1v2.25h3.125c.76 0 1.375.616 1.375 1.375V11h1a.75.75 0 0 1 .75.75v3.5a.75.75 0 0 1-.75.75h-3.5a.75.75 0 0 1-.75-.75v-3.5a.75.75 0 0 1 .75-.75h1V8.75h-7.5V11h1a.75.75 0 0 1 .75.75v3.5a.75.75 0 0 1-.75.75h-3.5a.75.75 0 0 1-.75-.75v-3.5a.75.75 0 0 1 .75-.75h1V8.625c0-.76.616-1.375 1.375-1.375H7.25V5h-1a.75.75 0 0 1-.75-.75zM7 1.5v2h2v-2zm-4.5 11v2h2v-2zm9 0v2h2v-2z" clip-rule="evenodd"/></svg>