<svg width="16" height="16" fill="none" viewBox="0 0 16 16"><path fill="currentcolor" fill-rule="evenodd" d="M1 1.75A.75.75 0 0 1 1.75 1h2.5a.75.75 0 0 1 .75.75v2.5a.75.75 0 0 1-.75.75h-2.5A.75.75 0 0 1 1 4.25zm1.5.75v1h1v-1zm9.836.104a2 2 0 0 1 2.828 0l.232.232a2 2 0 0 1 0 2.828l-4.848 4.849a2 2 0 0 1-1.022.547l-2.129.425a.75.75 0 0 1-.882-.882l.425-2.129a2 2 0 0 1 .547-1.022zm1.768 1.06a.5.5 0 0 0-.708 0L13.061 4l.939.94.336-.336a.5.5 0 0 0 0-.708zM12.939 6 12 5.06 8.548 8.514a.5.5 0 0 0-.137.255l-.205 1.026 1.026-.205a.5.5 0 0 0 .255-.137zM1 6.75A.75.75 0 0 1 1.75 6h2.5a.75.75 0 0 1 .75.75v2.5a.75.75 0 0 1-.75.75h-2.5A.75.75 0 0 1 1 9.25zm1.5.75v1h1v-1zM1 11.75a.75.75 0 0 1 .75-.75h2.5a.75.75 0 0 1 .75.75v2.5a.75.75 0 0 1-.75.75h-2.5a.75.75 0 0 1-.75-.75zm1.5.75v1h1v-1z" clip-rule="evenodd"/></svg>