<svg width="16" height="16" fill="none" viewBox="0 0 16 16"><path stroke="currentcolor" stroke-width="1.5" d="M11.25 10.25S10 12 8 12s-3.25-1.75-3.25-1.75m-3.233-5.5a7.25 7.25 0 1 0 12.965 0m-12.965 0A7.25 7.25 0 0 1 8 .75a7.25 7.25 0 0 1 6.483 4m-12.966 0h.733m12.233 0h-.733m-4.875 0 .196 1.825a1.875 1.875 0 0 0 1.864 1.675h1.054a1.25 1.25 0 0 0 1.223-.988l.538-2.512m-4.875 0h4.875m-4.875 0h-1.75m0 0-.196 1.825A1.875 1.875 0 0 1 5.065 8.25H4.011a1.25 1.25 0 0 1-1.223-.988L2.25 4.75m4.875 0H2.25"/></svg>