<svg width="16" height="16" fill="none" viewBox="0 0 16 16"><path fill="currentcolor" fill-rule="evenodd" d="M8 1.5a6.5 6.5 0 0 0-2.44.473L4.997.583a8 8 0 0 1 10.42 10.42l-1.39-.563A6.5 6.5 0 0 0 8 1.5M1.838 2.898.47 1.53 1.53.47l14 14-1.06 1.06-1.368-1.368A8 8 0 0 1 1.838 2.898m1.066 1.067a6.5 6.5 0 0 0 9.131 9.131l-1.597-1.597c-.62.4-1.445.751-2.438.751-1.225 0-2.196-.536-2.835-1.033a6 6 0 0 1-.944-.925l-.056-.071-.016-.023-.006-.007-.002-.003v-.001s-.001-.001.609-.437l.61-.436-.001-.002.005.007.03.04q.045.056.139.161c.126.14.313.327.552.513.486.378 1.14.717 1.915.717a2.9 2.9 0 0 0 1.343-.346L6.308 7.369a1.25 1.25 0 0 1-1.677-1.677zM9 6.25a1.25 1.25 0 1 1 2.5 0 1.25 1.25 0 0 1-2.5 0" clip-rule="evenodd"/></svg>