<svg width="16" height="16" fill="none" viewBox="0 0 16 16"><path fill="currentcolor" fill-rule="evenodd" d="M1.5 8a6.5 6.5 0 1 0 13 0H16a8 8 0 1 1-8-8v1.5A6.5 6.5 0 0 0 1.5 8m4.585 2.033c.486.378 1.14.717 1.915.717s1.43-.34 1.915-.717a4.4 4.4 0 0 0 .721-.714l.005-.007-.001.002.61.436.61.436-.001.002-.002.003-.006.007-.016.023-.056.071q-.07.091-.2.235c-.17.189-.42.439-.744.69-.64.497-1.61 1.033-2.835 1.033s-2.196-.536-2.835-1.033a6 6 0 0 1-.944-.925l-.056-.071-.016-.023-.006-.007-.002-.003v-.001s-.001-.001.609-.437l.61-.436-.001-.002.005.007.03.04q.045.056.139.161c.126.14.313.327.552.513M5.75 7.5a1.25 1.25 0 1 1 0-2.5 1.25 1.25 0 0 1 0 2.5m4.5 0a1.25 1.25 0 1 1 0-2.5 1.25 1.25 0 0 1 0 2.5m2.25-4h-2V2h2V0H14v2h2v1.5h-2v2h-1.5z" clip-rule="evenodd"/></svg>