<svg width="16" height="16" fill="none" viewBox="0 0 16 16"><path fill="currentcolor" fill-rule="evenodd" d="M8 3.5c-2.943 0-5.49 1.845-6.424 4.396a.3.3 0 0 0 0 .208C2.509 10.655 5.057 12.5 8 12.5s5.49-1.845 6.424-4.396a.3.3 0 0 0 0-.208C13.491 5.345 10.943 3.5 8 3.5M.167 7.38C1.32 4.232 4.433 2 8 2c3.566 0 6.681 2.232 7.833 5.38.146.4.146.84 0 1.24C14.68 11.768 11.566 14 8 14 4.433 14 1.319 11.768.167 8.62a1.8 1.8 0 0 1 0-1.24M8 6.5a1.5 1.5 0 1 0 0 3 1.5 1.5 0 0 0 0-3M5 8a3 3 0 1 1 6 0 3 3 0 0 1-6 0" clip-rule="evenodd"/></svg>