<svg width="16" height="16" fill="none" viewBox="0 0 16 16"><path fill="currentcolor" d="M7.33.24c.39-.32.95-.32 1.34 0l.08.07 2.31 2.31a1.06 1.06 0 0 1 0 1.5L8.75 6.43a1.06 1.06 0 0 1-1.5 0l-2.31-2.3a1.06 1.06 0 0 1 0-1.5L7.25.32zm0 9.25c.39-.32.95-.32 1.34 0l.08.07 2.31 2.31a1.06 1.06 0 0 1 0 1.5l-2.31 2.31a1.06 1.06 0 0 1-1.5 0l-2.31-2.3a1.06 1.06 0 0 1 0-1.5l2.31-2.31zm4.62-4.62c.39-.32.95-.32 1.34 0l.08.07 2.31 2.31a1.06 1.06 0 0 1 0 1.5l-2.31 2.31a1.06 1.06 0 0 1-1.5 0l-2.3-2.31a1.06 1.06 0 0 1 0-1.5l2.31-2.31zm-9.25 0c.39-.32.95-.32 1.34 0l.08.07 2.31 2.31a1.06 1.06 0 0 1 0 1.5l-2.3 2.31a1.06 1.06 0 0 1-1.5 0L.32 8.75a1.06 1.06 0 0 1 0-1.5l2.3-2.31z"/></svg>