<svg width="16" height="16" fill="none" viewBox="0 0 16 16"><path fill="currentcolor" fill-rule="evenodd" d="M10.417 0a3.166 3.166 0 0 1 0 6.332H5.583a3.166 3.166 0 0 1 0-6.332zM5.583 1.5a1.666 1.666 0 0 0 0 3.332H7.25V1.5zM8.75 4.832h1.666a1.666 1.666 0 0 0 0-3.332H8.75z" clip-rule="evenodd"/><path fill="currentcolor" fill-rule="evenodd" d="M8 4.832a.75.75 0 0 1 .75.75v4.832a.75.75 0 0 1-.75.75H5.584a3.166 3.166 0 0 1 0-6.332zm-2.416 1.5a1.666 1.666 0 0 0 0 3.332H7.25V6.332z" clip-rule="evenodd"/><path fill="currentcolor" fill-rule="evenodd" d="M10.417 4.832a3.166 3.166 0 1 1 0 6.331 3.166 3.166 0 0 1 0-6.331m0 1.5a1.667 1.667 0 1 0 0 3.333 1.667 1.667 0 0 0 0-3.333" clip-rule="evenodd"/><path fill="currentcolor" fill-rule="evenodd" d="M8 9.664a.75.75 0 0 1 .75.75v2.416a3.166 3.166 0 1 1-3.166-3.166zm-2.416 1.5A1.666 1.666 0 1 0 7.25 12.83v-1.666z" clip-rule="evenodd"/></svg>