<svg width="16" height="16" fill="none" viewBox="0 0 16 16"><path fill="currentcolor" d="M9.25 2.75a1.25 1.25 0 1 0-2.5 0 1.25 1.25 0 0 0 2.5 0m1.5 0a2.75 2.75 0 1 1-5.5 0 2.75 2.75 0 0 1 5.5 0m4.21 1.81a.75.75 0 0 1 1.04.69v7a.75.75 0 0 1-.46.69l-7.25 3a.75.75 0 0 1-1.04-.69v-7a.75.75 0 0 1 .46-.69zM8.75 8.75v5.38l5.75-2.38V6.37z"/><path fill="currentcolor" d="M1.037 4.557A.75.75 0 0 0 0 5.25v7a.75.75 0 0 0 .463.693l7.25 3a.75.75 0 0 0 1.037-.693v-7a.75.75 0 0 0-.463-.693zM7.25 8.75v5.376L1.5 11.748V6.372z"/></svg>