<svg width="16" height="16" fill="none" viewBox="0 0 16 16"><path fill="currentcolor" fill-rule="evenodd" d="M2 11a2 2 0 0 0 2 2h6a2 2 0 0 0 2-2V4.25c0-.52-.208-1.02-.578-1.385L9.072.543A1.88 1.88 0 0 0 7.75 0H4a2 2 0 0 0-2 2zm2 .5a.5.5 0 0 1-.5-.5V2a.5.5 0 0 1 .5-.5h3v2.75c0 .414.336.75.75.75h2.75v6a.5.5 0 0 1-.5.5zm5.93-8H8.5V2.087z" clip-rule="evenodd"/><path fill="currentcolor" fill-rule="evenodd" d="M7 16h4.75A3.25 3.25 0 0 0 15 12.75V5h-1.5v7.75a1.75 1.75 0 0 1-1.75 1.75H7z" clip-rule="evenodd"/></svg>