<svg width="16" height="16" fill="none" viewBox="0 0 16 16"><path fill="currentcolor" fill-rule="evenodd" d="M8 1.5A5.5 5.5 0 0 0 2.5 7v.208A2.5 2.5 0 0 1 6 9.5v3.72A1.78 1.78 0 0 1 4.22 15 3.22 3.22 0 0 1 1 11.78V7a7 7 0 0 1 14 0v4.78A3.22 3.22 0 0 1 11.78 15 1.78 1.78 0 0 1 10 13.22V9.5a2.5 2.5 0 0 1 3.5-2.292V7A5.5 5.5 0 0 0 8 1.5m5.5 8a1 1 0 1 0-2 0v3.72c0 .155.125.28.28.28.95 0 1.72-.77 1.72-1.72zm-11 0v2.28c0 .95.77 1.72 1.72 1.72a.28.28 0 0 0 .28-.28V9.5a1 1 0 1 0-2 0" clip-rule="evenodd"/></svg>