<svg width="16" height="16" fill="none" viewBox="0 0 16 16"><path fill="currentcolor" d="M6.75 5.75a1 1 0 1 1-2 0 1 1 0 0 1 2 0"/><path fill="currentcolor" fill-rule="evenodd" d="M5.75 6.75a1 1 0 1 0 0-2 1 1 0 0 0 0 2" clip-rule="evenodd"/><path stroke="currentcolor" stroke-linejoin="round" stroke-width="1.5" d="M4 14.25h9c.69 0 1.25-.56 1.25-1.25v-2M4 14.25H3c-.69 0-1.25-.56-1.25-1.25V3c0-.69.56-1.25 1.25-1.25h10c.69 0 1.25.56 1.25 1.25v8M4 14.25 10 7l4.25 4m-7.5-5.25a1 1 0 1 1-2 0 1 1 0 0 1 2 0Z"/></svg>