<svg width="16" height="16" fill="none" viewBox="0 0 16 16"><path fill="currentcolor" fill-rule="evenodd" d="M2 3.5a.5.5 0 0 0-.5.5v6a.5.5 0 0 0 .5.5h9a.5.5 0 0 0 .5-.5V4a.5.5 0 0 0-.5-.5zM0 4a2 2 0 0 1 2-2h9a2 2 0 0 1 2 2v6a2 2 0 0 1-2 2H2a2 2 0 0 1-2-2zm8.302.641 1.146.968-3.167 3.75a.75.75 0 0 1-1.146 0L3.552 7.484l1.146-.968 1.01 1.197z" clip-rule="evenodd"/><path fill="currentcolor" fill-rule="evenodd" d="M16 7v4.75A3.25 3.25 0 0 1 12.75 15H5v-1.5h7.75a1.75 1.75 0 0 0 1.75-1.75V7z" clip-rule="evenodd"/></svg>