<svg width="16" height="16" fill="none" viewBox="0 0 16 16"><path fill="currentcolor" d="M9.027 3.911a1.376 1.376 0 0 1 1.841-.094l.105.094 1.116 1.116a1.376 1.376 0 0 1 0 1.946l-8.616 8.616a1.376 1.376 0 0 1-1.946 0L.411 14.473a1.376 1.376 0 0 1 0-1.946zM1.561 13.5l.939.94L7.938 9 7 8.061zm13.431-4.067-1.06 1.06-1.415-1.414 1.061-1.06zM8.061 7l.938.938L10.939 6l-.94-.94zM16 5v1.5h-2V5zM7.982 2.422l-1.06 1.06-1.414-1.414 1.06-1.06zm7.01-.354-1.414 1.414-1.06-1.06 1.414-1.414zM11 0v2H9.5V0z"/></svg>