<svg width="16" height="16" fill="none" viewBox="0 0 16 16"><path fill="currentcolor" fill-rule="evenodd" d="M8 1.5a6.5 6.5 0 1 0 3.25 12.13l.75 1.3A8 8 0 1 1 16 8c0 .842-.28 1.775-.817 2.513-.547.751-1.401 1.344-2.522 1.344-.577 0-1.07-.177-1.462-.507a2.5 2.5 0 0 1-.66-.908C9.387 11.776 7.529 12.346 6 11.464 4.229 10.441 3.926 8.057 4.969 6.25S8.229 3.513 10 4.536c1.12.647 1.66 1.87 1.633 3.105l-.005.13c0 .687.038 1.397.226 1.923.091.255.201.415.313.51.098.083.242.153.494.153.536 0 .976-.27 1.31-.727.342-.47.529-1.091.529-1.63A6.5 6.5 0 0 0 8 1.5m2.133 6.102c.015-.798-.328-1.447-.883-1.767C8.39 5.339 7.02 5.698 6.268 7s-.377 2.67.482 3.165c.86.496 2.23.137 2.982-1.165.244-.422.37-.866.397-1.287z" clip-rule="evenodd"/></svg>