<svg width="16" height="16" fill="none" viewBox="0 0 16 16"><path fill="currentcolor" fill-rule="evenodd" d="M0 2.75A.75.75 0 0 1 .75 2h3.5a.75.75 0 0 1 .721.544l.821 2.874a1.75 1.75 0 0 1-.562 1.825L3.29 8.86a12.3 12.3 0 0 0 3.85 3.85l1.617-1.94a1.75 1.75 0 0 1 1.825-.562l2.874.82a.75.75 0 0 1 .544.722v3.5a.75.75 0 0 1-.75.75c-2.266 0-4.422-.61-6.309-1.664a13.77 13.77 0 0 1-5.277-5.277A12.9 12.9 0 0 1 0 2.75m8.484 10.69c1.25.578 2.606.94 4.016 1.035v-2.16l-2.33-.665a.25.25 0 0 0-.26.08zM2.56 7.516 4.27 6.09a.25.25 0 0 0 .08-.261L3.684 3.5H1.525A11.4 11.4 0 0 0 2.56 7.516" clip-rule="evenodd"/><path fill="currentcolor" d="M16 1a1 1 0 1 1-2 0 1 1 0 0 1 2 0m-2.5 2.5a1 1 0 1 1-2 0 1 1 0 0 1 2 0M11 6a1 1 0 1 1-2 0 1 1 0 0 1 2 0"/></svg>