<svg width="16" height="16" fill="none" viewBox="0 0 16 16"><path stroke="currentcolor" stroke-linejoin="round" stroke-width="1.5" d="M6.124.997a7.25 7.25 0 0 0-5.127 8.88c.508 1.527 1.441 1.898 3.37 1.274 1.728-.559 3.354.48 3.384 2.296.019 1.156.404 1.779 2.125 1.556A7.25 7.25 0 0 0 6.124.997Z"/><path fill="currentcolor" d="M8.26 5.6a1.13 1.13 0 1 1-.58-2.17 1.13 1.13 0 0 1 .58 2.17m3.19 2.25a1.13 1.13 0 1 1-.58-2.17 1.13 1.13 0 0 1 .58 2.17m-6.49-.07a1.13 1.13 0 1 1-.58-2.17 1.13 1.13 0 0 1 .58 2.17"/></svg>