<svg width="16" height="16" fill="none" viewBox="0 0 16 16"><path fill="currentcolor" d="M5.93.273a8 8 0 0 1 4.14 15.455 1 1 0 0 1-.097.02c-.908.117-1.72.054-2.29-.44-.573-.497-.672-1.239-.682-1.849-.011-.672-.309-1.151-.72-1.426-.42-.279-1.016-.384-1.682-.169-1.006.326-1.93.458-2.717.157-.837-.32-1.308-1.041-1.597-1.908l-.012-.043A8 8 0 0 1 5.93.273m8.348 6.044A6.5 6.5 0 0 0 1.716 9.658c.218.647.464.872.701.962.29.11.796.117 1.72-.182 1.061-.344 2.14-.209 2.974.346.84.56 1.371 1.507 1.39 2.65.009.546.112.695.166.742.059.05.291.181 1.064.088a6.5 6.5 0 0 0 4.547-7.947"/><path fill="currentcolor" d="M10.87 5.68a1.13 1.13 0 1 1 .58 2.17 1.13 1.13 0 0 1-.58-2.17m-6.49-.07a1.13 1.13 0 1 1 .58 2.17 1.13 1.13 0 0 1-.58-2.17m3.3-2.18a1.13 1.13 0 1 1 .58 2.17 1.13 1.13 0 0 1-.58-2.17"/></svg>