<svg width="16" height="16" fill="none" viewBox="0 0 16 16"><path fill="currentcolor" d="M.22.22A.75.75 0 0 1 .936.023l9.96 2.548.142.042a2 2 0 0 1 1.336 1.568l.643 3.858a.75.75 0 0 1 .763.18l2 2a.75.75 0 0 1 0 1.061l-4.5 4.5a.75.75 0 0 1-1.06 0l-2-2a.75.75 0 0 1-.18-.763l-3.86-.643a2 2 0 0 1-1.567-1.336l-.042-.142L.023.936A.75.75 0 0 1 .22.22m9.59 13.03.94.94 3.44-3.44-.94-.94zM8 7.5a.5.5 0 1 0-1 0 .5.5 0 0 0 1 0m1.5 0a2 2 0 1 1-3.842-.781L2.154 3.215l1.87 7.31.024.07a.5.5 0 0 0 .379.3l4.815.801 2.454-2.454-.801-4.815a.5.5 0 0 0-.3-.38l-.07-.023-7.31-1.87 3.504 3.504A2 2 0 0 1 9.5 7.5"/></svg>