<svg width="16" height="16" fill="none" viewBox="0 0 16 16"><path fill="currentcolor" fill-rule="evenodd" d="M3.925.528C4.004.38 4.255 0 4.75 0h6.502c.462 0 .718.333.814.495.114.194.172.416.19.622a1.83 1.83 0 0 1-.44 1.376c-.1.113-.196.216-.279.305l-.022.023c-.09.098-.16.173-.214.238l-.051.064v4.39l.112.059.213.113c.45.242 1.09.634 1.568 1.429.34.567.565 1.003.697 1.42.138.436.16.809.16 1.216a.75.75 0 0 1-.75.75h-4.5V16h-1.5v-3.5h-4.5a.75.75 0 0 1-.75-.75c0-.936.273-1.662.857-2.636.478-.797 1.119-1.188 1.569-1.43l.324-.172v-4.4a1 1 0 0 0-.065-.089 7 7 0 0 0-.457-.486l-.01-.011c-.417-.42-.503-.98-.47-1.378.018-.204.071-.425.177-.62" clip-rule="evenodd"/></svg>