<svg width="16" height="16" fill="none" viewBox="0 0 16 16"><path fill="currentcolor" fill-rule="evenodd" d="M11.825 2.082A1.375 1.375 0 0 0 10.646 0H5.354a1.375 1.375 0 0 0-1.18 2.082L5 3.458v3.475a5 5 0 0 0-1.184.611C2.898 8.194 2 9.347 2 11.25c0 .414.336.75.75.75h4.5v4h1.5v-4h4.5a.75.75 0 0 0 .75-.75c0-1.903-.898-3.055-1.816-3.706A5 5 0 0 0 11 6.933V3.458zM10.123 8.24l.012.002.066.015a3.4 3.4 0 0 1 1.115.512c.463.328.939.853 1.114 1.732H3.57a2.68 2.68 0 0 1 1.114-1.732 3.4 3.4 0 0 1 1.181-.527l.012-.002h-.002A.75.75 0 0 0 6.5 7.5V3.25a.75.75 0 0 0-.107-.386L5.575 1.5h4.85l-.818 1.364a.75.75 0 0 0-.107.386V7.5a.75.75 0 0 0 .623.74" clip-rule="evenodd"/></svg>