<svg width="16" height="16" fill="none" viewBox="0 0 16 16"><path fill="currentcolor" fill-rule="evenodd" d="M5 4H2.75a.75.75 0 0 0-.75.75v3.9c0 .911.382 1.78 1.054 2.396L5 12.83V14a2 2 0 0 0 2 2h2a2 2 0 0 0 2-2v-1.17l1.946-1.784A3.25 3.25 0 0 0 14 8.65v-3.9a.75.75 0 0 0-.75-.75H11V0H9.5v4h-3V0H5zM3.5 5.5v3.15c0 .49.206.959.567 1.29l2.19 2.007a.75.75 0 0 1 .243.553V14a.5.5 0 0 0 .5.5h2a.5.5 0 0 0 .5-.5v-1.5c0-.21.088-.41.243-.553l2.19-2.007c.361-.331.567-.8.567-1.29V5.5z" clip-rule="evenodd"/></svg>