<svg width="16" height="16" fill="none" viewBox="0 0 16 16"><path fill="currentcolor" fill-rule="evenodd" d="M1.5 3v1.5H3V3h1.5V1.5H3V0H1.5v1.5H0V3zM8 1c.31 0 .587.19.699.478l1.63 4.193 4.193 1.63a.75.75 0 0 1 0 1.398l-4.193 1.63-1.63 4.193a.75.75 0 0 1-1.398 0l-1.63-4.193L1.478 8.7a.75.75 0 0 1 0-1.398l4.193-1.63L7.3 1.478A.75.75 0 0 1 8 1m0 2.82L6.949 6.521a.75.75 0 0 1-.427.427L3.819 8l2.703 1.051a.75.75 0 0 1 .427.427L8 12.181l1.051-2.703a.75.75 0 0 1 .427-.427L12.181 8 9.478 6.949a.75.75 0 0 1-.427-.427zm5 10.68V16h1.5v-1.5H16V13h-1.5v-1.5H13V13h-1.5v1.5z" clip-rule="evenodd"/></svg>