<svg width="16" height="16" fill="none" viewBox="0 0 16 16"><path fill="currentcolor" fill-rule="evenodd" d="M3 .75A.75.75 0 0 1 3.75 0h8.5a.75.75 0 0 1 .75.75V4h1a2 2 0 0 1 2 2v5a2 2 0 0 1-2 2h-1v2.25a.75.75 0 0 1-.75.75h-8.5a.75.75 0 0 1-.75-.75V13H2a2 2 0 0 1-2-2V6a2 2 0 0 1 2-2h1zM4.5 4h7V1.5h-7zM3 11.5v-1.25a.75.75 0 0 1 .75-.75h8.5a.75.75 0 0 1 .75.75v1.25h1a.5.5 0 0 0 .5-.5V6a.5.5 0 0 0-.5-.5H2a.5.5 0 0 0-.5.5v5a.5.5 0 0 0 .5.5zM11 7h2v1.5h-2zm-6.5 4v3.5h7V11z" clip-rule="evenodd"/></svg>