<svg width="16" height="16" fill="none" viewBox="0 0 16 16"><path fill="currentcolor" fill-rule="evenodd" d="M3.5 2.625A2.625 2.625 0 0 1 6.125 0h3.75A2.625 2.625 0 0 1 12.5 2.625v8.75A2.625 2.625 0 0 1 9.875 14H8.75v2h-1.5v-2H6.125A2.625 2.625 0 0 1 3.5 11.375zM6.125 1.5C5.504 1.5 5 2.004 5 2.625v8.75c0 .621.504 1.125 1.125 1.125h3.75c.621 0 1.125-.504 1.125-1.125v-8.75c0-.621-.504-1.125-1.125-1.125zM6.5 4.75a1.5 1.5 0 1 1 3 0 1.5 1.5 0 0 1-3 0m0 4.5a1.5 1.5 0 1 1 3 0 1.5 1.5 0 0 1-3 0" clip-rule="evenodd"/></svg>