<svg width="16" height="16" fill="none" viewBox="0 0 16 16"><path fill="currentcolor" fill-rule="evenodd" d="M2 .5h4.25a.75.75 0 0 1 .75.75V5.5H5.5V2.941a9 9 0 0 0-1.094.916C3.42 4.83 2.5 6.214 2.5 8c0 1.813.817 3.18 1.871 4.11 1.079.95 2.346 1.39 3.129 1.39V15c-1.217 0-2.825-.623-4.121-1.765C2.058 12.07 1 10.312 1 8c0-2.339 1.21-4.084 2.354-5.211.308-.304.615-.567.9-.789H2zm10.621 2.266C13.942 3.93 15 5.688 15 8c0 2.338-1.204 4.079-2.344 5.201-.304.3-.607.56-.889.78H14v1.5H9.75a.75.75 0 0 1-.75-.75v-4.25h1.5v2.573a9 9 0 0 0 1.104-.921C12.584 11.166 13.5 9.787 13.5 8c0-1.813-.817-3.18-1.871-4.11C10.551 2.94 9.283 2.5 8.5 2.5V1c1.217 0 2.825.623 4.121 1.766" clip-rule="evenodd"/></svg>