<svg width="16" height="16" fill="none" viewBox="0 0 16 16"><path fill="currentcolor" fill-rule="evenodd" d="m7.25 3.406-3.672.864a.75.75 0 0 0-.504.405l-3 6.25A.75.75 0 0 0 0 11.25a3.75 3.75 0 1 0 7.5 0 .75.75 0 0 0-.074-.324l-2.595-5.41 6.068-1.428-2.325 4.837a.75.75 0 0 0-.074.325 3.75 3.75 0 1 0 7.5 0 .75.75 0 0 0-.074-.325l-3-6.25a.75.75 0 0 0-.848-.405l-3.328.783V1h-1.5zm5.001 1.33L10.443 8.5h3.615zM14.372 10h-4.244a2.251 2.251 0 0 0 4.244 0M3.751 6.732 1.94 10.5h3.617zM5.872 12H1.628a2.25 2.25 0 0 0 4.244 0" clip-rule="evenodd"/></svg>