<svg width="16" height="16" fill="none" viewBox="0 0 16 16"><path fill="currentcolor" fill-rule="evenodd" d="M15 2.38C15 1.62 14.38 1 13.63 1h-3.25C9.62 1 9 1.62 9 2.38v3.25C9 6.39 9.62 7 10.38 7h3.25C14.39 7 15 6.38 15 5.63zm-1.5.13v3h-3v-3zM3.13 1.26a1 1 0 0 1 1.74 0l2.57 4.5a1 1 0 0 1-.87 1.5H1.43a1 1 0 0 1-.87-1.5zM4 2.76 2.29 5.75h3.42zM.75 12a3.25 3.25 0 1 1 6.5 0 3.25 3.25 0 0 1-6.5 0M4 10.25a1.75 1.75 0 1 0 0 3.5 1.75 1.75 0 0 0 0-3.5M10 9h4.25a.75.75 0 0 1 .75.75V14h-1.5v-2.44l-3.72 3.72-1.06-1.06 3.72-3.72H10z" clip-rule="evenodd"/></svg>