<svg width="16" height="16" fill="none" viewBox="0 0 16 16"><path fill="currentcolor" fill-rule="evenodd" d="M7.47.22a.75.75 0 0 1 1.06 0c1.298 1.298 2.784 2.191 3.955 2.762.583.284 1.083.486 1.434.615a11 11 0 0 0 .51.174l.023.007h.004A.75.75 0 0 1 15 4.5c0 2.338-.48 4.248-1.194 5.79l-1.362-.63c.568-1.225.98-2.746 1.047-4.623l-.09-.032a17 17 0 0 1-1.573-.675C10.714 3.788 9.31 2.963 8 1.783a15.5 15.5 0 0 1-1.837 1.415l-.826-1.252A13.6 13.6 0 0 0 7.47.22M2.41 3.47.47 1.53 1.53.47l14 14-1.06 1.06L12 13.062a11.4 11.4 0 0 1-2.305 1.997 10 10 0 0 1-1.004.576 7 7 0 0 1-.386.175l-.026.01-.008.004-.003.001h-.002l-.267-.7c-.266.701-.267.7-.267.7h-.004l-.006-.003-.02-.008-.066-.027a9 9 0 0 1-1-.519 11.3 11.3 0 0 1-2.303-1.842C2.651 11.676 1 8.838 1 4.5a.75.75 0 0 1 .543-.72l.207.72a54 54 0 0 0-.207-.72l.004-.002.021-.006.092-.03a10 10 0 0 0 .75-.271m1.146 1.147a16 16 0 0 1-1.047.42c.128 3.604 1.532 5.92 2.907 7.35a9.8 9.8 0 0 0 1.993 1.595c.24.144.443.25.591.322l.029-.014c.204-.1.5-.26.848-.487A10 10 0 0 0 10.938 12zM8 15.125l-.267.7a.75.75 0 0 0 .533.001z" clip-rule="evenodd"/></svg>