<svg width="16" height="16" fill="none" viewBox="0 0 16 16"><path fill="currentcolor" d="M3.63 6.75H2.38a.63.63 0 0 1-.62-.62V4.25h1.88c.35 0 .63.28.63.63v1.25c0 .35-.28.63-.62.63m4.98-.01H7.38a.63.63 0 0 1-.62-.62V4.25h1.88c.35 0 .63.28.63.63v1.25c0 .35-.28.63-.62.63"/><path stroke="currentcolor" stroke-width="1.5" d="M3.5 1.75A1.75 1.75 0 0 0 1.75 3.5v.75m0 0v1.875c0 .345.28.625.625.625h1.25c.345 0 .625-.28.625-.625v-1.25a.625.625 0 0 0-.625-.625zm6.75-2.5A1.75 1.75 0 0 0 6.75 3.5v.75m0 0v1.875c0 .345.28.625.625.625h1.25c.345 0 .625-.28.625-.625v-1.25a.625.625 0 0 0-.625-.625zm-5.75 9h14M1 9.75h14m-3.5-3.5H15m-3.5-3.5H15"/></svg>