<svg width="16" height="16" fill="none" viewBox="0 0 16 16"><path fill="currentcolor" fill-rule="evenodd" d="M7.5 3.5a1 1 0 0 1 1-1V1A2.5 2.5 0 0 0 6 3.5v2.625c0 .76.616 1.375 1.375 1.375h1.25C9.385 7.5 10 6.884 10 6.125v-1.25c0-.76-.616-1.375-1.375-1.375zm0 1.5h1v1h-1zm-5-1.5a1 1 0 0 1 1-1V1A2.5 2.5 0 0 0 1 3.5v2.625c0 .76.616 1.375 1.375 1.375h1.25C4.385 7.5 5 6.884 5 6.125v-1.25C5 4.115 4.384 3.5 3.625 3.5zm0 1.5h1v1h-1zM15 2h-3.5v1.5H15zm0 3.5h-3.5V7H15zM15 9H1v1.5h14zm0 3.5H1V14h14z" clip-rule="evenodd"/><path fill="currentcolor" d="M8.5 5h-1v1h1zm-5 0h-1v1h1z"/></svg>