<svg width="16" height="16" fill="none" viewBox="0 0 16 16"><path fill="currentcolor" d="M11 4a1 1 0 1 0 0 2 1 1 0 0 0 0-2"/><path fill="currentcolor" fill-rule="evenodd" d="M9.286 1a3.25 3.25 0 0 0-2.299.952L1.604 7.336a2 2 0 0 0 0 2.828l4.232 4.232a2 2 0 0 0 2.828 0l5.384-5.383A3.25 3.25 0 0 0 15 6.714V3a2 2 0 0 0-2-2zM8.048 3.013A1.75 1.75 0 0 1 9.286 2.5H13a.5.5 0 0 1 .5.5v3.714c0 .465-.184.91-.513 1.238l-5.383 5.384a.5.5 0 0 1-.708 0L2.664 9.104a.5.5 0 0 1 0-.708z" clip-rule="evenodd"/></svg>