<svg width="16" height="16" fill="none" viewBox="0 0 16 16"><path fill="currentcolor" fill-rule="evenodd" d="M8.028 1.5H8V0h.034c1.957.008 3.75.72 5.135 1.894L12.2 3.04A6.47 6.47 0 0 0 8.03 1.5m-2.278.4a6.52 6.52 0 0 0-3.395 2.875l-1.302-.746A8.02 8.02 0 0 1 5.23.493zM14.5 8a6.47 6.47 0 0 0-.856-3.227l1.301-.745A7.97 7.97 0 0 1 16 8q0 .727-.126 1.42l-1.476-.264A6.6 6.6 0 0 0 14.5 8M1.593 6.895A6.6 6.6 0 0 0 1.5 8c0 1.194.321 2.31.882 3.27l-1.296.757A7.97 7.97 0 0 1 0 8q.001-.694.115-1.358zm8.605 7.224a6.52 6.52 0 0 0 3.419-2.845l1.295.757a8.02 8.02 0 0 1-4.208 3.5zm-6.344-1.113A6.47 6.47 0 0 0 8 14.5V16a7.97 7.97 0 0 1-5.104-1.84z" clip-rule="evenodd"/></svg>