<svg width="16" height="16" fill="none" viewBox="0 0 16 16"><path fill="currentcolor" fill-rule="evenodd" d="M1 3a2 2 0 0 1 2-2h8a2 2 0 0 1 2 2v8a2 2 0 0 1-2 2H3a2 2 0 0 1-2-2zm2-.5a.5.5 0 0 0-.5.5v8a.5.5 0 0 0 .5.5h8a.5.5 0 0 0 .5-.5V3a.5.5 0 0 0-.5-.5zm6.426 1.517 1.148.966-4 4.75a.75.75 0 0 1-1.148 0l-2-2.375 1.148-.966L6 8.086z" clip-rule="evenodd"/><path fill="currentcolor" fill-rule="evenodd" d="M16 6v6.75A3.25 3.25 0 0 1 12.75 16H6v-1.5h6.75a1.75 1.75 0 0 0 1.75-1.75V6z" clip-rule="evenodd"/></svg>