<svg width="16" height="16" fill="none" viewBox="0 0 16 16"><path fill="currentcolor" fill-rule="evenodd" d="M4 2.5a1.5 1.5 0 1 0 0 3 1.5 1.5 0 0 0 0-3M1 4a3 3 0 1 1 6 0 3 3 0 0 1-6 0m11-1.5a1.5 1.5 0 1 0 0 3 1.5 1.5 0 0 0 0-3M9 4a3 3 0 1 1 6 0 3 3 0 0 1-6 0M3.75 9.5a2.25 2.25 0 0 0-2.25 2.25V13a.5.5 0 0 0 .5.5h4V15H2a2 2 0 0 1-2-2v-1.25A3.75 3.75 0 0 1 3.75 8h1.149a3.75 3.75 0 0 1 3.524 2.469l.564 1.55A2.25 2.25 0 0 0 11.1 13.5H14a.5.5 0 0 0 .5-.5v-1.25a2.25 2.25 0 0 0-2.25-2.25H12c-.775 0-1.258.06-1.531.112-.137.026-.22.05-.26.062l-.027.01.007-.003.01-.004.005-.003.003-.002h.002c.001-.001.001-.001-.334-.672l-.335-.671h.001l.002-.002.004-.001.008-.004.018-.008a1 1 0 0 1 .174-.066q.156-.053.44-.11C10.572 8.065 11.15 8 12 8h.25A3.75 3.75 0 0 1 16 11.75V13a2 2 0 0 1-2 2h-2.899a3.75 3.75 0 0 1-3.524-2.469l-.564-1.55A2.25 2.25 0 0 0 4.9 9.5z" clip-rule="evenodd"/></svg>