<svg width="16" height="16" fill="none" viewBox="0 0 16 16"><path fill="currentcolor" fill-rule="evenodd" d="M7.292 13.406a.5.5 0 0 0 .77-.15l2.438-4.69V2.5H4.128c-.492 0-.927.32-1.073.79L1.726 7.54A1.125 1.125 0 0 0 2.8 9h3.45a.75.75 0 0 1 .75.75v3.175a.5.5 0 0 0 .174.38zM12 2.5V8h2a.5.5 0 0 0 .5-.5V3a.5.5 0 0 0-.5-.5zm-.295 7-2.313 4.45a2 2 0 0 1-3.076.596l-.118-.101a2 2 0 0 1-.698-1.519V10.5H2.8A2.625 2.625 0 0 1 .295 7.092l1.328-4.25A2.625 2.625 0 0 1 4.128 1H14a2 2 0 0 1 2 2v4.5a2 2 0 0 1-2 2z" clip-rule="evenodd"/></svg>