<svg width="16" height="16" fill="none" viewBox="0 0 16 16"><path fill="currentcolor" fill-rule="evenodd" d="M5.395 4.5H0V3h4V1h1.5v2h4v1.5H6.911c-.252 1.771-.704 3.325-1.338 4.685.471.522.973.973 1.479 1.323l-.854 1.234a10 10 0 0 1-1.377-1.17 12.2 12.2 0 0 1-2.991 3.275l-.91-1.194a10.7 10.7 0 0 0 2.867-3.276 12.5 12.5 0 0 1-1.74-3.114l1.405-.526c.265.706.633 1.418 1.073 2.087.385-.982.68-2.085.87-3.324m5.17 1.945A.75.75 0 0 1 11.25 6h.5a.75.75 0 0 1 .685.445l3.5 7.875a.75.75 0 0 1 .065.305V15h-1.5v-.216L13.707 13H9.293L8.5 14.784V15H7v-.375a.75.75 0 0 1 .065-.305zM9.96 11.5h3.08L11.5 8.034z" clip-rule="evenodd"/></svg>