<svg width="16" height="16" fill="none" viewBox="0 0 16 16"><path fill="currentcolor" fill-rule="evenodd" d="m12.78.22 3 3a.75.75 0 0 1 0 1.06l-3 3-1.06-1.06 2.47-2.47-2.47-2.47z" clip-rule="evenodd"/><path fill="currentcolor" fill-rule="evenodd" d="m9.28.22 3 3a.75.75 0 0 1 0 1.06l-3 3-1.06-1.06L9.94 4.5H4.25A1.75 1.75 0 0 0 2.5 6.25v3.5c0 .967.784 1.75 1.75 1.75H5V13h-.75A3.25 3.25 0 0 1 1 9.75v-3.5A3.25 3.25 0 0 1 4.25 3h5.69L8.22 1.28z" clip-rule="evenodd"/><path fill="currentcolor" fill-rule="evenodd" d="M7 9.5h1.75a.75.75 0 0 1 .75.75V16H8v-5H7zm8 0h-3.25a.75.75 0 0 0-.75.75v2.5c0 .41.34.75.75.75h1.75v1H11V16h2.63c.76 0 1.38-.62 1.38-1.37v-1.25c0-.76-.62-1.37-1.37-1.37H12.5v-1H15z" clip-rule="evenodd"/></svg>