<svg width="16" height="16" fill="none" viewBox="0 0 16 16"><path fill="currentcolor" fill-rule="evenodd" d="M6.814 14.645a1.8 1.8 0 0 1-.707-.663l-.002-.002a1.97 1.97 0 0 1-.243-.99v-2.48q-.001-.557.244-.983.255-.433.71-.664.455-.239 1.052-.238.605-.001 1.054.238.454.232.7.664.254.426.253.983v2.48q0 .558-.252.991a1.7 1.7 0 0 1-.7.664h-.001q-.45.231-1.046.23-.604.001-1.06-.23zm1.543-1.22c.11-.1.17-.24.17-.435v-2.48c0-.195-.06-.335-.17-.435l-.002-.002c-.106-.1-.262-.158-.487-.158-.223 0-.383.058-.495.159-.105.1-.164.24-.164.436v2.48c0 .195.06.335.171.435.113.102.27.16.488.16.225 0 .38-.058.487-.158zm-7.216 1.37v-1.33h1.442v-3.172l-1.458 1.072v-1.64l1.426-1.02h1.458v4.76h1.145v1.33z" clip-rule="evenodd"/><path fill="currentcolor" d="m4.007 3.507-.53-.53zM1.75 5.75H1c0 .414.336.75.75.75zm11.273 6.773a6.75 6.75 0 0 0 0-9.546l-1.061 1.06a5.25 5.25 0 0 1 0 7.425zm0-9.546a6.75 6.75 0 0 0-9.546 0l1.06 1.06a5.25 5.25 0 0 1 7.425 0zm-9.546 0L1.469 4.984l1.06 1.061 2.008-2.007zM1.75 6.5H5.5V5H1.75zm.75-.75V2H1v3.75z"/></svg>