<svg width="16" height="16" fill="none" viewBox="0 0 16 16"><path fill="currentcolor" d="M2.75 3c0-.69.56-1.25 1.25-1.25h1c.69 0 1.25.56 1.25 1.25v10c0 .69-.56 1.25-1.25 1.25H4c-.69 0-1.25-.56-1.25-1.25zm7 0c0-.69.56-1.25 1.25-1.25h1c.69 0 1.25.56 1.25 1.25v10c0 .69-.56 1.25-1.25 1.25h-1c-.69 0-1.25-.56-1.25-1.25z"/><path stroke="currentcolor" stroke-width="1.5" d="M2.75 3c0-.69.56-1.25 1.25-1.25h1c.69 0 1.25.56 1.25 1.25v10c0 .69-.56 1.25-1.25 1.25H4c-.69 0-1.25-.56-1.25-1.25zm7 0c0-.69.56-1.25 1.25-1.25h1c.69 0 1.25.56 1.25 1.25v10c0 .69-.56 1.25-1.25 1.25h-1c-.69 0-1.25-.56-1.25-1.25z"/></svg>