<svg xmlns="http://www.w3.org/2000/svg" width="24" height="24" viewBox="0 0 24 24">
  <path fill="#FFC107" fill-rule="evenodd" d="M3,0 L21,0 C22.6568542,-3.04359188e-16 24,1.34314575 24,3 L24,21 C24,22.6568542 22.6568542,24 21,24 L3,24 C1.34314575,24 2.02906125e-16,22.6568542 0,21 L0,3 C-2.02906125e-16,1.34314575 1.34314575,3.04359188e-16 3,0 Z M15.0487119,4.99982724 L9.62708809,5.05453566 L14.3041186,13.2055144 L19.7257424,13.1502301 L15.0487119,4.99982724 Z M4,14.1084913 L6.75745631,18.8053532 L11.4344868,10.6543744 L8.6770305,5.95751254 L4,14.1084913 Z M10.6458245,14.2490056 L7.98222934,19 L17.3362903,19 L19.9998855,14.2490056 L10.6458245,14.2490056 Z"/>
</svg>
