<svg width="40" height="40" view-box="0 0 40 40" fill="none" xmlns="http://www.w3.org/2000/svg">
			<rect width="40" height="40" fill="#F6F8FA" />
			<path
				d="M20 8.5C13.3705 8.5 8 13.777 8 20.291C8 25.508 11.4353 29.9157 16.2047 31.4774C16.8047 31.5803 17.0295 31.2277 17.0295 30.9179C17.0295 30.6371 17.0153 29.7088 17.0153 28.7216C14 29.2672 13.22 27.9991 12.98 27.3367C12.8447 26.9969 12.26 25.9507 11.7505 25.6709C11.3305 25.449 10.7295 24.9045 11.7353 24.8895C12.68 24.8745 13.3553 25.7438 13.58 26.0986C14.66 27.8812 16.3847 27.3806 17.0753 27.0708C17.18 26.3044 17.4953 25.7888 17.84 25.494C15.1695 25.1993 12.38 24.182 12.38 19.6714C12.38 18.3894 12.8447 17.3282 13.6105 16.5029C13.4895 16.2081 13.0695 15.0001 13.7305 13.3783C13.7305 13.3783 14.7353 13.0695 17.0295 14.5874C18.0063 14.3211 19.0157 14.1873 20.0295 14.1897C21.0505 14.1897 22.0705 14.3215 23.0295 14.5874C25.3247 13.0545 26.3295 13.3783 26.3295 13.3783C26.9895 15.0001 26.5705 16.2081 26.4505 16.5029C27.2153 17.3282 27.68 18.3755 27.68 19.6714C27.68 24.197 24.8753 25.1993 22.2047 25.494C22.64 25.8628 23.0153 26.5702 23.0153 27.6754C23.0153 29.2522 23 30.5202 23 30.9179C23 31.2277 23.2247 31.5953 23.8247 31.4774C28.5647 29.9157 32 25.494 32 20.291C32 13.777 26.6305 8.5 20 8.5Z"
				fill="#1F2328"
			/>
		</svg>
