<svg width="385" height="181" viewBox="0 0 385 181" fill="none" xmlns="http://www.w3.org/2000/svg">
	<rect width="385" height="181" fill="url(#paint0_linear_6163_47829)"/>
	<g clip-path="url(#clip0_6163_47829)">
		<g filter="url(#filter0_dd_6163_47829)">
			<g clip-path="url(#clip1_6163_47829)">
				<rect x="127" y="36" width="100" height="69.7161" rx="3" fill="white"/>
				<rect width="26" height="67" transform="translate(201 46.6667)" fill="#171717" fill-opacity="0.03"/>
				<rect x="203" y="58.6667" width="22" height="45" fill="white"/>
				<rect width="14" height="36" transform="translate(207 62.6667)" fill="white"/>
				<path d="M207 62.6667H221" stroke="#051524" stroke-opacity="0.06" stroke-width="3" stroke-linecap="round"/>
				<path d="M207 68.6667H221" stroke="#051524" stroke-opacity="0.06" stroke-width="3" stroke-linecap="round"/>
				<path d="M207 74.6667H221" stroke="#051524" stroke-opacity="0.06" stroke-width="3" stroke-linecap="round"/>
				<path d="M207 80.6667H221" stroke="#051524" stroke-opacity="0.06" stroke-width="3" stroke-linecap="round"/>
				<path d="M207 86.6667H221" stroke="#051524" stroke-opacity="0.06" stroke-width="3" stroke-linecap="round"/>
				<path d="M207 92.6667H221" stroke="#051524" stroke-opacity="0.06" stroke-width="3" stroke-linecap="round"/>
				<path d="M207 98.6667H221" stroke="#051524" stroke-opacity="0.06" stroke-width="3" stroke-linecap="round"/>
				<rect x="203" y="48.6667" width="22" height="8" fill="white"/>
				<path d="M207 52.6667H221" stroke="#051524" stroke-opacity="0.06" stroke-width="3" stroke-linecap="round"/>
				<g clip-path="url(#clip2_6163_47829)">
					<rect x="137.667" y="54.6667" width="16" height="10.6667" rx="1" fill="#171717" fill-opacity="0.03"/>
					<rect x="157.667" y="54.6667" width="16" height="10.6667" rx="1" fill="#171717" fill-opacity="0.03"/>
					<rect x="177.667" y="54.6667" width="16" height="10.6667" rx="1" fill="#171717" fill-opacity="0.03"/>
				</g>
				<path d="M139 74.6667H163" stroke="#051524" stroke-opacity="0.06" stroke-width="3" stroke-linecap="round"/>
				<path d="M139 80.6667H162" stroke="#051524" stroke-opacity="0.06" stroke-width="3" stroke-linecap="round"/>
				<path d="M139 86.6667H163" stroke="#051524" stroke-opacity="0.06" stroke-width="3" stroke-linecap="round"/>
				<path d="M139 92.6667H159" stroke="#051524" stroke-opacity="0.06" stroke-width="3" stroke-linecap="round"/>
				<path d="M139 98.6667H163" stroke="#051524" stroke-opacity="0.06" stroke-width="3" stroke-linecap="round"/>
				<path d="M139 104.667H159" stroke="#051524" stroke-opacity="0.06" stroke-width="3" stroke-linecap="round"/>
				<path d="M187.667 74.6667H189.667" stroke="#051524" stroke-opacity="0.06" stroke-width="3" stroke-linecap="round"/>
				<path d="M187.667 80.6667H189.667" stroke="#051524" stroke-opacity="0.06" stroke-width="3" stroke-linecap="round"/>
				<path d="M187.667 86.6667H189.667" stroke="#051524" stroke-opacity="0.06" stroke-width="3" stroke-linecap="round"/>
				<path d="M187.667 92.6667H189.667" stroke="#051524" stroke-opacity="0.06" stroke-width="3" stroke-linecap="round"/>
				<path d="M187.667 98.6667H189.667" stroke="#051524" stroke-opacity="0.06" stroke-width="3" stroke-linecap="round"/>
				<path d="M187.667 104.667H189.667" stroke="#051524" stroke-opacity="0.06" stroke-width="3" stroke-linecap="round"/>
				<mask id="path-27-inside-1_6163_47829" fill="white">
					<path d="M127 36H227V46.6667H127V36Z"/>
				</mask>
				<path d="M227 45.6667H127V47.6667H227V45.6667Z" fill="#0B1228" fill-opacity="0.14" mask="url(#path-27-inside-1_6163_47829)"/>
				<line x1="137.5" y1="41.1667" x2="146.167" y2="41.1667" stroke="#051524" stroke-opacity="0.06" stroke-width="3" stroke-linecap="round"/>
				<path d="M150.5 41.1667H160.667" stroke="#051524" stroke-opacity="0.06" stroke-width="3" stroke-linecap="round"/>
				<path d="M164.5 41.1667H174.667" stroke="#051524" stroke-opacity="0.06" stroke-width="3" stroke-linecap="round"/>
				<line x1="131.5" y1="41.1667" x2="132.5" y2="41.1667" stroke="#1868DB" stroke-width="3" stroke-linecap="round"/>
				<line x1="206.5" y1="41.1667" x2="207.5" y2="41.1667" stroke="#051524" stroke-opacity="0.06" stroke-width="3" stroke-linecap="round"/>
				<line x1="211.5" y1="41.1667" x2="212.5" y2="41.1667" stroke="#051524" stroke-opacity="0.06" stroke-width="3" stroke-linecap="round"/>
				<line x1="216.5" y1="41.1667" x2="217.5" y2="41.1667" stroke="#051524" stroke-opacity="0.06" stroke-width="3" stroke-linecap="round"/>
				<line x1="221.5" y1="41.1667" x2="222.5" y2="41.1667" stroke="#051524" stroke-opacity="0.06" stroke-width="3" stroke-linecap="round"/>
			</g>
		</g>
		<g filter="url(#filter1_dd_6163_47829)">
			<path d="M159 63.3333C159 60.0195 161.686 57.3333 165 57.3333H253C256.314 57.3333 259 60.0195 259 63.3333V111.333C259 114.647 256.314 117.333 253 117.333H165C161.686 117.333 159 114.647 159 111.333V63.3333Z" fill="white"/>
			<g clip-path="url(#clip3_6163_47829)">
				<g clip-path="url(#clip4_6163_47829)">
					<g clip-path="url(#clip5_6163_47829)">
						<path d="M204.275 94.6704H202.611C200.101 94.6704 198.3 93.1329 198.3 90.8815H207.249C207.713 90.8815 208.013 91.2109 208.013 91.6777V100.683C205.776 100.683 204.275 98.8712 204.275 96.3452V94.6704ZM208.696 90.1951H207.031C204.521 90.1951 202.72 88.685 202.72 86.4336H211.67C212.133 86.4336 212.461 86.7356 212.461 87.2024V96.2079C210.224 96.2079 208.696 94.3958 208.696 91.8699V90.1951ZM213.143 85.7472H211.479C208.968 85.7472 207.168 84.2096 207.168 81.9583H216.117C216.581 81.9583 216.881 82.2877 216.881 82.727V91.7326C214.644 91.7326 213.143 89.9205 213.143 87.3945V85.7472Z" fill="#1868DB"/>
					</g>
				</g>
			</g>
			<mask id="path-39-inside-2_6163_47829" fill="white">
				<path d="M159 57.3333H259V67.9999H159V57.3333Z"/>
			</mask>
			<path d="M259 66.9999H159V68.9999H259V66.9999Z" fill="#0B1228" fill-opacity="0.14" mask="url(#path-39-inside-2_6163_47829)"/>
			<line x1="169.5" y1="62.5" x2="178.167" y2="62.5" stroke="#051524" stroke-opacity="0.06" stroke-width="3" stroke-linecap="round"/>
			<path d="M182.5 62.5H192.667" stroke="#051524" stroke-opacity="0.06" stroke-width="3" stroke-linecap="round"/>
			<path d="M196.5 62.5H206.667" stroke="#051524" stroke-opacity="0.06" stroke-width="3" stroke-linecap="round"/>
			<line x1="163.5" y1="62.5" x2="164.5" y2="62.5" stroke="#669DF1" stroke-width="3" stroke-linecap="round"/>
			<line x1="238.5" y1="62.5" x2="239.5" y2="62.5" stroke="#051524" stroke-opacity="0.06" stroke-width="3" stroke-linecap="round"/>
			<line x1="243.5" y1="62.5" x2="244.5" y2="62.5" stroke="#051524" stroke-opacity="0.06" stroke-width="3" stroke-linecap="round"/>
			<line x1="248.5" y1="62.5" x2="249.5" y2="62.5" stroke="#051524" stroke-opacity="0.06" stroke-width="3" stroke-linecap="round"/>
			<line x1="253.5" y1="62.5" x2="254.5" y2="62.5" stroke="#051524" stroke-opacity="0.06" stroke-width="3" stroke-linecap="round"/>
		</g>
		<g clip-path="url(#clip6_6163_47829)">
			<g clip-path="url(#clip7_6163_47829)">
				<g clip-path="url(#clip8_6163_47829)">
					<path d="M169.975 145.837H168.311C165.801 145.837 164 144.3 164 142.048H172.949C173.413 142.048 173.713 142.378 173.713 142.844V151.85C171.476 151.85 169.975 150.038 169.975 147.512V145.837ZM174.396 141.362H172.731C170.221 141.362 168.42 139.852 168.42 137.6H177.37C177.833 137.6 178.161 137.902 178.161 138.369V147.375C175.923 147.375 174.396 145.563 174.396 143.037V141.362ZM178.843 136.914H177.179C174.668 136.914 172.868 135.376 172.868 133.125H181.817C182.281 133.125 182.581 133.454 182.581 133.894V142.899C180.344 142.899 178.843 141.087 178.843 138.561V136.914Z" fill="white"/>
				</g>
				<path d="M212.767 143.25C212.767 146.01 213.871 147.39 215.918 147.39C217.689 147.39 219.276 146.263 219.276 143.71V142.79C219.276 140.237 217.827 139.11 216.148 139.11C213.917 139.11 212.767 140.582 212.767 143.25ZM219.276 149V146.93C218.54 148.448 217.16 149.23 215.389 149.23C212.33 149.23 210.789 146.631 210.789 143.25C210.789 140.007 212.399 137.27 215.619 137.27C217.298 137.27 218.586 138.029 219.276 139.524V137.5H221.254V149H219.276Z" fill="white"/>
				<path d="M205.932 142.215V149H204V137.5H205.932V139.524C206.599 138.167 207.749 137.201 210.003 137.339V139.271C207.473 139.018 205.932 139.777 205.932 142.215Z" fill="white"/>
				<path d="M198.668 134.464C198.668 133.59 199.243 133.084 200.048 133.084C200.853 133.084 201.428 133.59 201.428 134.464C201.428 135.338 200.853 135.844 200.048 135.844C199.243 135.844 198.668 135.338 198.668 134.464ZM199.036 149V137.5H201.014V149H199.036Z" fill="white"/>
				<path d="M194.215 144.538V133.889H196.285V144.4C196.285 147.183 195.066 149.092 192.214 149.092C191.133 149.092 190.305 148.908 189.73 148.701V146.7C190.351 146.953 191.11 147.091 191.869 147.091C193.617 147.091 194.215 146.033 194.215 144.538Z" fill="white"/>
			</g>
		</g>
	</g>
	<defs>
		<filter id="filter0_dd_6163_47829" x="126" y="35" width="102" height="72.7161" filterUnits="userSpaceOnUse" color-interpolation-filters="sRGB">
			<feFlood flood-opacity="0" result="BackgroundImageFix"/>
			<feColorMatrix in="SourceAlpha" type="matrix" values="0 0 0 0 0 0 0 0 0 0 0 0 0 0 0 0 0 0 127 0" result="hardAlpha"/>
			<feOffset dy="1"/>
			<feGaussianBlur stdDeviation="0.5"/>
			<feColorMatrix type="matrix" values="0 0 0 0 0.117647 0 0 0 0 0.121569 0 0 0 0 0.129412 0 0 0 0.25 0"/>
			<feBlend mode="normal" in2="BackgroundImageFix" result="effect1_dropShadow_6163_47829"/>
			<feColorMatrix in="SourceAlpha" type="matrix" values="0 0 0 0 0 0 0 0 0 0 0 0 0 0 0 0 0 0 127 0" result="hardAlpha"/>
			<feOffset/>
			<feGaussianBlur stdDeviation="0.5"/>
			<feColorMatrix type="matrix" values="0 0 0 0 0.117647 0 0 0 0 0.121569 0 0 0 0 0.129412 0 0 0 0.31 0"/>
			<feBlend mode="normal" in2="effect1_dropShadow_6163_47829" result="effect2_dropShadow_6163_47829"/>
			<feBlend mode="normal" in="SourceGraphic" in2="effect2_dropShadow_6163_47829" result="shape"/>
		</filter>
		<filter id="filter1_dd_6163_47829" x="158" y="56.3333" width="102" height="63" filterUnits="userSpaceOnUse" color-interpolation-filters="sRGB">
			<feFlood flood-opacity="0" result="BackgroundImageFix"/>
			<feColorMatrix in="SourceAlpha" type="matrix" values="0 0 0 0 0 0 0 0 0 0 0 0 0 0 0 0 0 0 127 0" result="hardAlpha"/>
			<feOffset dy="1"/>
			<feGaussianBlur stdDeviation="0.5"/>
			<feColorMatrix type="matrix" values="0 0 0 0 0.117647 0 0 0 0 0.121569 0 0 0 0 0.129412 0 0 0 0.25 0"/>
			<feBlend mode="normal" in2="BackgroundImageFix" result="effect1_dropShadow_6163_47829"/>
			<feColorMatrix in="SourceAlpha" type="matrix" values="0 0 0 0 0 0 0 0 0 0 0 0 0 0 0 0 0 0 127 0" result="hardAlpha"/>
			<feOffset/>
			<feGaussianBlur stdDeviation="0.5"/>
			<feColorMatrix type="matrix" values="0 0 0 0 0.117647 0 0 0 0 0.121569 0 0 0 0 0.129412 0 0 0 0.31 0"/>
			<feBlend mode="normal" in2="effect1_dropShadow_6163_47829" result="effect2_dropShadow_6163_47829"/>
			<feBlend mode="normal" in="SourceGraphic" in2="effect2_dropShadow_6163_47829" result="shape"/>
		</filter>
		<linearGradient id="paint0_linear_6163_47829" x1="314.417" y1="1.62464e-05" x2="253.744" y2="224.442" gradientUnits="userSpaceOnUse">
			<stop stop-color="#4C9AFF"/>
			<stop offset="1" stop-color="#403294"/>
		</linearGradient>
		<clipPath id="clip0_6163_47829">
			<rect width="132" height="121.667" fill="white" transform="translate(127 36)"/>
		</clipPath>
		<clipPath id="clip1_6163_47829">
			<rect x="127" y="36" width="100" height="69.7161" rx="3" fill="white"/>
		</clipPath>
		<clipPath id="clip2_6163_47829">
			<rect width="53.3333" height="10.6667" fill="white" transform="translate(137.667 54.6667)"/>
		</clipPath>
		<clipPath id="clip3_6163_47829">
			<rect width="24" height="24" fill="white" transform="translate(196 78.3333)"/>
		</clipPath>
		<clipPath id="clip4_6163_47829">
			<rect width="24" height="24" fill="white" transform="translate(196 78.3333)"/>
		</clipPath>
		<clipPath id="clip5_6163_47829">
			<rect width="18.581" height="18.725" fill="white" transform="translate(198.3 81.9583)"/>
		</clipPath>
		<clipPath id="clip6_6163_47829">
			<rect width="57.5" height="24" fill="white" transform="translate(164 130)"/>
		</clipPath>
		<clipPath id="clip7_6163_47829">
			<rect width="57.5" height="24" fill="white" transform="translate(164 130)"/>
		</clipPath>
		<clipPath id="clip8_6163_47829">
			<rect width="18.581" height="18.725" fill="white" transform="translate(164 133.125)"/>
		</clipPath>
	</defs>
</svg>
