<svg xmlns="http://www.w3.org/2000/svg" width="24" height="24" viewBox="0 0 24 24">
  <path fill="#6554C0" fill-rule="evenodd" d="M3,0 L21,0 C22.6568542,-3.04359188e-16 24,1.34314575 24,3 L24,21 C24,22.6568542 22.6568542,24 21,24 L3,24 C1.34314575,24 2.02906125e-16,22.6568542 0,21 L0,3 C-2.02906125e-16,1.34314575 1.34314575,3.04359188e-16 3,0 Z M18.1875,9.4 L15.125,9.4 L15.125,4.8 C15.125,3.80261507 14.3098441,3 13.3125,3 C12.786559,3 12.3057802,3.22820418 11.9641282,3.60847767 L11.7684218,3.8182425 C11.6727284,3.93237073 11.6727284,3.93237073 11.4437645,4.21475964 C11.2212444,4.48936413 10.9733234,4.79581792 10.706343,5.12646288 C9.94345588,6.0712692 9.18052942,7.02081922 8.4681962,7.91397549 C8.42151221,7.97251689 8.42151221,7.97251689 8.37483685,8.03107544 C5.18814094,12.029567 5,12.2744886 5,12.8 C5,13.8104178 5.81859781,14.3985043 6.7700213,14.5602545 L6.937625,14.5744 L9.875,14.5744 L9.875,19.2 C9.875,20.1973849 10.6901559,21 11.6875,21 C12.1186864,21 12.6506353,20.7635783 13.2071068,20.2071068 L13.2814304,20.1239924 C13.3324062,20.0601549 13.3324062,20.0601549 13.5611539,19.7733796 C13.7835044,19.4945374 14.031251,19.1835788 14.2980492,18.8483708 C15.0603768,17.8905746 15.8227256,16.9302497 16.534394,16.0302629 L16.5828384,15.9689934 C17.4875521,14.8246553 18.2403825,13.8661896 18.7927374,13.1538041 C19.1081244,12.7470418 19.3546133,12.4250536 19.527288,12.1937646 C19.6222582,12.0665569 19.6959413,11.9654197 19.7495781,11.8882418 C19.7921807,11.8263597 19.7921807,11.8263597 19.8352027,11.758409 C19.8846996,11.712293 19.8846996,11.712293 20,11.2 C20,10.2026151 19.1848441,9.4 18.1875,9.4 Z M13.125,11.4 L13.125,5.316897 C13.0939246,5.35517563 13.0530647,5.4055573 12.9976418,5.47391224 C12.7655896,5.76027992 12.518265,6.06604184 12.262407,6.38291212 C11.4666619,7.36841181 10.7136897,8.30604452 10.0318751,9.16093516 C10.0027155,9.19750104 10.0027155,9.19750104 9.98534249,9.21929015 C9.96796155,9.24109268 9.96796155,9.24109268 9.93888009,9.27757805 C8.36599878,11.2511434 7.7221709,12.0659446 7.34294869,12.5744 L11.875,12.5744 L11.875,18.6799632 C11.9049557,18.6424092 11.9442647,18.5931284 11.9974398,18.5264642 C12.2296701,18.2352321 12.4771714,17.9245572 12.7332008,17.6028792 C13.5294879,16.6024159 14.2830761,15.6528749 14.9655473,14.7898113 L15.0139326,14.7286166 C15.9388772,13.5586892 16.6775018,12.6178964 17.2121825,11.9283058 C17.3660323,11.7298818 17.5018845,11.5536826 17.6195191,11.4 L13.125,11.4 Z"/>
</svg>
