<svg xmlns="http://www.w3.org/2000/svg" width="24" height="24" viewBox="0 0 24 24">
  <path fill="#FFAB00" fill-rule="evenodd" d="M3,0 L21,0 C22.6568542,-3.04359188e-16 24,1.34314575 24,3 L24,21 C24,22.6568542 22.6568542,24 21,24 L3,24 C1.34314575,24 2.02906125e-16,22.6568542 0,21 L0,3 C-2.02906125e-16,1.34314575 1.34314575,3.04359188e-16 3,0 Z M10,17 L8.7071068,15.7071067 C8.31658251,15.3165824 7.68341753,15.3165824 7.29289323,15.7071067 L4,19 L10,19 L20,19 L20,15.3999995 L16.705467,11.7760136 C16.3339601,11.3673561 15.7015118,11.3372395 15.2928542,11.7087465 C15.2811174,11.7194162 15.2696362,11.7303637 15.2584202,11.7415797 L10,17 Z M6.66666667,10.3333333 C8.139426,10.3333333 9.33333333,9.139426 9.33333333,7.66666667 C9.33333333,6.19390733 8.139426,5 6.66666667,5 C5.19390733,5 4,6.19390733 4,7.66666667 C4,9.139426 5.19390733,10.3333333 6.66666667,10.3333333 Z"/>
</svg>
