<svg xmlns="http://www.w3.org/2000/svg" width="48" height="64" viewBox="0 0 48 64">
  <g fill="none" fill-rule="evenodd">
    <path fill="#FFF" stroke="#091E42" stroke-opacity=".08" d="M4,0.5 L32.007097,0.5 C32.9580806,0.5 33.8681235,0.886970896 34.5278649,1.57188773 L46.5207679,14.0224343 C47.1490066,14.6746463 47.5,15.5449725 47.5,16.4505466 L47.5,60 C47.5,61.9329966 45.9329966,63.5 44,63.5 L4,63.5 C2.06700338,63.5 0.5,61.9329966 0.5,60 L0.5,4 C0.5,2.06700338 2.06700338,0.5 4,0.5 Z"/>
    <path fill="#FFAB00" d="M21.6666667,37.8333333 L27.9250869,31.574913 C27.9363028,31.5636971 27.9477841,31.5527496 27.9595208,31.5420798 C28.3681784,31.1705728 29.0006267,31.2006894 29.3721337,31.609347 L33.3333334,35.9666661 L33.3333334,40.1666667 L21.6666667,40.1666667 L14.6666667,40.1666667 L18.6262266,36.2071067 C19.0167509,35.8165824 19.6499158,35.8165824 20.0404401,36.2071067 L21.6666667,37.8333333 Z M17.7777778,30.0555556 C16.0595586,30.0555556 14.6666667,28.6626637 14.6666667,26.9444444 C14.6666667,25.2262252 16.0595586,23.8333333 17.7777778,23.8333333 C19.495997,23.8333333 20.8888889,25.2262252 20.8888889,26.9444444 C20.8888889,28.6626637 19.495997,30.0555556 17.7777778,30.0555556 Z"/>
  </g>
</svg>
