<svg width="16" height="16" fill="none" viewBox="0 0 16 16"><path fill="currentcolor" d="M15.78 11.22a.75.75 0 0 1 0 1.06l-2.5 2.5-1.06-1.06 1.22-1.22h-2.845a2 2 0 0 1-1.552-.74l-1.124-1.382.967-1.189 1.321 1.626a.5.5 0 0 0 .388.185h2.845l-1.22-1.22 1.06-1.06z"/><path fill="currentcolor" d="M15.78 3.72a.75.75 0 0 1 0 1.06l-2.5 2.5-1.06-1.06L13.44 5H10.6a.5.5 0 0 0-.39.19l-5.75 7.08a2 2 0 0 1-1.55.73H0v-1.5h2.91a.5.5 0 0 0 .39-.18l5.75-7.08a2 2 0 0 1 1.55-.74h2.85l-1.22-1.22 1.06-1.06zM6 4.25a.75.75 0 0 1-.49.71l-1.1.4a.5.5 0 0 0-.3.3l-.4 1.1a.75.75 0 0 1-1.41 0l-.4-1.1a.5.5 0 0 0-.3-.3l-1.1-.4a.75.75 0 0 1-.48-.59L0 4.25l.01-.12a.75.75 0 0 1 .48-.59l1.1-.4a.5.5 0 0 0 .3-.3l.4-1.1.05-.11A.75.75 0 0 1 3 1.24l.12.01a.75.75 0 0 1 .54.38l.05.11.4 1.1c.05.14.16.25.3.3l1.1.4a.75.75 0 0 1 .49.71"/></svg>