<svg width="16" height="16" fill="none" viewBox="0 0 16 16"><path fill="currentcolor" fill-rule="evenodd" d="M3.115 1.664A7.98 7.98 0 0 1 8 0v1.5a6.48 6.48 0 0 0-3.968 1.35zM1.5 8c0 1.664.635 3.326 1.904 4.595A6.48 6.48 0 0 0 8 14.5V16a7.98 7.98 0 0 1-5.657-2.343A7.97 7.97 0 0 1 0 8m11.795 1.494a.75.75 0 0 1 1.41 0l.615 1.687 1.686.615a.75.75 0 0 1 0 1.41l-1.686.615-.615 1.686a.75.75 0 0 1-1.41 0l-.615-1.686-1.686-.615a.75.75 0 0 1 0-1.41l1.686-.615z" clip-rule="evenodd"/><path fill="currentcolor" d="m2.92 3.95-1.17-.94A7.98 7.98 0 0 0 0 8a7.97 7.97 0 0 0 2.34 5.66A7.98 7.98 0 0 0 8 16v-1.5a6.48 6.48 0 0 1-4.6-1.9A6.48 6.48 0 0 1 1.5 8c0-1.44.47-2.87 1.42-4.05m10.45-1.8a.75.75 0 0 1-1 1.11l-.02-.01a.75.75 0 1 1 1-1.12zM10.69.55a.75.75 0 1 1-.5 1.41l-.02-.01a.75.75 0 1 1 .5-1.41zm4.59 4.27a.75.75 0 0 0-1.41.5l.01.02a.75.75 0 1 0 1.41-.5zM16 8.06a.75.75 0 0 0-1.5-.08V8a.75.75 0 0 0 1.5.08v-.01z"/></svg>