<svg width="16" height="16" fill="none" viewBox="0 0 16 16"><path fill="currentcolor" d="M12.617 9.011a.75.75 0 0 1 .588.483l.615 1.687 1.687.615a.75.75 0 0 1 0 1.41l-1.687.615-.615 1.686a.75.75 0 0 1-1.409 0l-.616-1.686-1.686-.616a.75.75 0 0 1 0-1.409l1.686-.615.616-1.687.048-.106A.75.75 0 0 1 12.5 9z"/><path fill="currentcolor" fill-rule="evenodd" d="M9.337.604a2 2 0 0 1 2.828 0l1.233 1.232a2 2 0 0 1 0 2.828l-8.1 8.099a2 2 0 0 1-1.022.547l-3.378.676a.75.75 0 0 1-.883-.883l.676-3.38a2 2 0 0 1 .546-1.02zm-7.04 9.159a.5.5 0 0 0-.136.256l-.456 2.275 2.278-.455a.5.5 0 0 0 .254-.137l6.078-6.078-1.94-1.94zm8.808-8.099a.5.5 0 0 0-.707 0l-.961.961 1.94 1.94.96-.961a.5.5 0 0 0 0-.707z" clip-rule="evenodd"/></svg>