<svg width="16" height="16" fill="none" viewBox="0 0 16 16"><path fill="currentcolor" d="M1 10V3.5H0V2h8v1.5H2.5V10a.5.5 0 0 0 .5.5h10a.5.5 0 0 0 .5-.5V7.5H15V10a2 2 0 0 1-2 2h-1.376l1.822 2.139-1.142.972L9.654 12H8.75v3h-1.5v-3h-.903l-2.65 3.111-1.143-.972L4.376 12H3a2 2 0 0 1-2-2"/><path fill="currentcolor" d="M13.115.009a.75.75 0 0 1 .541.378l.05.106.4 1.102c.051.138.16.248.3.299l1.1.4a.75.75 0 0 1 0 1.411l-1.1.401a.5.5 0 0 0-.3.3l-.4 1.1a.75.75 0 0 1-1.411 0l-.401-1.1a.5.5 0 0 0-.3-.3l-1.1-.4a.75.75 0 0 1-.485-.59L10 3l.009-.116a.75.75 0 0 1 .484-.59l1.102-.4a.5.5 0 0 0 .299-.3l.4-1.1.05-.107A.75.75 0 0 1 12.999 0z"/></svg>