<svg width="16" height="16" fill="none" viewBox="0 0 16 16"><path fill="currentcolor" fill-rule="evenodd" d="M8 0c.97 0 1.88.2 2.72.55l-.24.09c-.52.19-.93.56-1.19 1.02A5.5 5.5 0 0 0 2.5 7v.71A2.5 2.5 0 0 1 6 10v3.08A1.92 1.92 0 0 1 4.08 15 3.08 3.08 0 0 1 1 12V7a7 7 0 0 1 7-7M3.5 9a1 1 0 0 0-1 1v1.92c0 .87.71 1.58 1.58 1.58.23 0 .42-.19.42-.42V10a1 1 0 0 0-1-1m11.46-2.78Q15 6.6 15 7v5a3.08 3.08 0 0 1-3.08 3A1.92 1.92 0 0 1 10 13.08V10a2.5 2.5 0 0 1 3.5-2.29v-.73a2.25 2.25 0 0 0 1.46-.77M12.5 9a1 1 0 0 0-1 1v3.08c0 .23.19.42.42.42.87 0 1.58-.71 1.58-1.58V10a1 1 0 0 0-1-1" clip-rule="evenodd"/><path fill="currentcolor" d="M13.365.009a.75.75 0 0 1 .541.378l.05.106.334.92a.5.5 0 0 0 .298.297l.919.335a.75.75 0 0 1 0 1.41l-.92.335a.5.5 0 0 0-.297.298l-.335.919a.75.75 0 0 1-1.41 0l-.335-.92a.5.5 0 0 0-.298-.297l-.919-.335a.75.75 0 0 1-.484-.589L10.5 2.75l.009-.116a.75.75 0 0 1 .484-.59l.92-.334a.5.5 0 0 0 .297-.298l.335-.919A.75.75 0 0 1 13.249 0z"/></svg>