<svg width="16" height="16" fill="none" viewBox="0 0 16 16"><path fill="currentcolor" fill-rule="evenodd" d="M9.337.603a2 2 0 0 1 2.828 0l1.233 1.233a2 2 0 0 1 0 2.828l-8.1 8.099a2 2 0 0 1-1.022.547l-3.379.675a.75.75 0 0 1-.882-.882L.69 9.724a2 2 0 0 1 .547-1.022zm1.767 1.061a.5.5 0 0 0-.707 0l-.96.961 1.939 1.94.96-.961a.5.5 0 0 0 0-.708zm-.789 3.961-1.94-1.94-6.077 6.078a.5.5 0 0 0-.137.255l-.455 2.276 2.276-.455a.5.5 0 0 0 .256-.137zm1.48 3.87a.75.75 0 0 1 1.41 0l.615 1.686 1.687.615a.75.75 0 0 1 0 1.41l-1.687.615-.615 1.686a.75.75 0 0 1-1.41 0l-.615-1.686-1.686-.615a.75.75 0 0 1 0-1.41l1.686-.615z" clip-rule="evenodd"/></svg>