<svg width="16" height="16" fill="none" viewBox="0 0 16 16"><path fill="currentcolor" fill-rule="evenodd" d="M1.5 2.5v10h5.75V14H1.375C.615 14 0 13.384 0 12.625V2.375C0 1.617.613 1 1.374 1h3.5A3.87 3.87 0 0 1 8 2.583 3.87 3.87 0 0 1 11.125 1h3.5C15.387 1 16 1.62 16 2.376V8.25h-1.5V2.5h-3.375A2.375 2.375 0 0 0 8.75 4.875V10h-1.5V4.875A2.375 2.375 0 0 0 4.875 2.5zM13.25 6H10.5V4.5h2.75zM2.75 4.5H5.5V6H2.75zm0 2.5H5.5v1.5H2.75zm9.045 2.494a.75.75 0 0 1 1.41 0l.614 1.687 1.687.615a.75.75 0 0 1 0 1.41l-1.687.615-.615 1.686a.75.75 0 0 1-1.41 0l-.615-1.686-1.686-.615a.75.75 0 0 1 0-1.41l1.686-.615z" clip-rule="evenodd"/></svg>