<svg width="16" height="16" fill="none" viewBox="0 0 16 16"><path fill="currentcolor" d="M8.75 3.19c0-.644.536-1.19 1.229-1.19.692 0 1.228.546 1.228 1.19q0 .137-.03.263a.75.75 0 0 0 .902.9.996.996 0 0 1 .59 1.897.75.75 0 0 0 .054 1.416 1.811 1.811 0 0 1-.368 3.533.75.75 0 0 0-.682.747v.593a1.462 1.462 0 0 1-2.923 0V9.362c.6.348 1.32.552 2.043.552v-1.5a2.6 2.6 0 0 1-1.481-.47c-.4-.289-.562-.61-.562-.875zm-1.5 9.35a2.961 2.961 0 0 0 5.923.016 3.31 3.31 0 0 0 1.116-5.72 2.496 2.496 0 0 0-1.604-3.98C12.517 1.518 11.359.5 9.979.5 8.486.5 7.25 1.69 7.25 3.19z"/><path fill="currentcolor" d="M7.25 3.19C7.25 2.545 6.714 2 6.021 2c-.692 0-1.228.546-1.228 1.19q0 .137.03.263a.75.75 0 0 1-.902.9.996.996 0 0 0-.59 1.897.75.75 0 0 1-.054 1.416 1.811 1.811 0 0 0 .368 3.533.75.75 0 0 1 .682.747v.593a1.462 1.462 0 0 0 2.923 0V9.362a4.13 4.13 0 0 1-2.043.552v-1.5c.542 0 1.086-.184 1.481-.47.4-.289.562-.61.562-.875zm1.5 9.35a2.961 2.961 0 0 1-5.923.016 3.31 3.31 0 0 1-1.116-5.72 2.496 2.496 0 0 1 1.604-3.98C3.483 1.518 4.641.5 6.021.5 7.514.5 8.75 1.69 8.75 3.19z"/></svg>