<svg width="16" height="16" fill="none" viewBox="0 0 16 16"><path fill="currentcolor" d="M6 2.612A4.501 4.501 0 0 0 7 11.5a4.48 4.48 0 0 0 3.182-1.318A4.5 4.5 0 0 0 11.387 8h1.53a6 6 0 0 1-1.179 2.678l3.292 3.292-1.06 1.06-3.292-3.292A6 6 0 1 1 6 1.084z"/><path fill="currentcolor" d="M14 3.25a.75.75 0 0 1-.493.705l-1.285.469a.5.5 0 0 0-.298.298l-.469 1.285a.75.75 0 0 1-1.41 0l-.469-1.285a.5.5 0 0 0-.298-.298l-1.285-.469a.75.75 0 0 1-.484-.589L7.5 3.25l.009-.116a.75.75 0 0 1 .484-.59l1.285-.468a.5.5 0 0 0 .298-.298l.469-1.285.049-.106A.75.75 0 0 1 10.749 0l.116.009a.75.75 0 0 1 .541.378l.05.106.468 1.285a.5.5 0 0 0 .298.298l1.285.469A.75.75 0 0 1 14 3.25"/></svg>