<svg width="16" height="16" fill="none" viewBox="0 0 16 16"><path fill="currentcolor" fill-rule="evenodd" d="M0 1h16v1.5H0z" clip-rule="evenodd"/><path fill="currentcolor" d="M7 8a.75.75 0 1 1-1.5 0A.75.75 0 0 1 7 8M3.5 8A.75.75 0 1 1 2 8a.75.75 0 0 1 1.5 0m7 0A.75.75 0 1 1 9 8a.75.75 0 0 1 1.5 0M14 8a.75.75 0 1 1-1.5 0A.75.75 0 0 1 14 8m-7 6.25a.75.75 0 1 1-1.5 0 .75.75 0 0 1 1.5 0m-3.5 0a.75.75 0 1 1-1.5 0 .75.75 0 0 1 1.5 0m7 0a.75.75 0 1 1-1.5 0 .75.75 0 0 1 1.5 0m3.5 0a.75.75 0 1 1-1.5 0 .75.75 0 0 1 1.5 0"/></svg>