<svg width="16" height="16" fill="none" viewBox="0 0 16 16"><path fill="currentcolor" d="M7 1.75a.75.75 0 1 1-1.5 0 .75.75 0 0 1 1.5 0m-3.5 0a.75.75 0 1 1-1.5 0 .75.75 0 0 1 1.5 0m7 0a.75.75 0 1 1-1.5 0 .75.75 0 0 1 1.5 0m3.5 0a.75.75 0 1 1-1.5 0 .75.75 0 0 1 1.5 0m-7 12.5a.75.75 0 1 1-1.5 0 .75.75 0 0 1 1.5 0m-3.5 0a.75.75 0 1 1-1.5 0 .75.75 0 0 1 1.5 0m7 0a.75.75 0 1 1-1.5 0 .75.75 0 0 1 1.5 0m3.5 0a.75.75 0 1 1-1.5 0 .75.75 0 0 1 1.5 0"/><path fill="currentcolor" fill-rule="evenodd" d="M0 7.25h16v1.5H0z" clip-rule="evenodd"/></svg>