<svg width="16" height="16" fill="none" viewBox="0 0 16 16"><path fill="currentcolor" fill-rule="evenodd" d="M8.75 0v3.75h-1.5V0zm0 6.75v2.5h-1.5v-2.5zm0 5.5V16h-1.5v-3.75z" clip-rule="evenodd"/><path fill="currentcolor" fill-rule="evenodd" d="M1 4.38C1 3.62 1.62 3 2.38 3h11.25c.76 0 1.37.62 1.37 1.38v1.5c0 .76-.62 1.38-1.37 1.38H2.38C1.62 7.25 1 6.63 1 5.88zm1.5.13v1.25h11V4.5zm.5 5.62c0-.76.62-1.37 1.38-1.37h7.25c.76 0 1.38.62 1.38 1.38v1.5c0 .76-.62 1.38-1.37 1.38H4.39C3.62 13 3 12.38 3 11.63zm1.5.13v1.25h7v-1.25z" clip-rule="evenodd"/></svg>