<svg width="16" height="16" fill="none" viewBox="0 0 16 16"><path fill="currentcolor" fill-rule="evenodd" d="M16 8.75h-3.75v-1.5H16zm-6.75 0h-2.5v-1.5h2.5zm-5.5 0H0v-1.5h3.75z" clip-rule="evenodd"/><path fill="currentcolor" fill-rule="evenodd" d="M11.63 1c.76 0 1.37.62 1.37 1.38v11.25c0 .76-.62 1.38-1.37 1.38h-1.5c-.76 0-1.37-.62-1.37-1.37V2.38c0-.76.62-1.37 1.38-1.37zm-.13 1.5h-1.25v11h1.25zM5.88 3c.76 0 1.38.62 1.38 1.38v7.25c0 .76-.62 1.38-1.37 1.38h-1.5C3.62 13 3 12.38 3 11.63V4.38C3 3.62 3.62 3 4.38 3zm-.13 1.5H4.5v7h1.25z" clip-rule="evenodd"/></svg>