<svg width="16" height="16" fill="none" viewBox="0 0 16 16"><path fill="currentcolor" d="m12.78 4.28-1.833 1.832a3.5 3.5 0 0 1 0 3.775l1.833 1.833-1.06 1.06-1.833-1.833a3.5 3.5 0 0 1-3.775 0L4.28 12.78l-1.06-1.06 1.832-1.833a3.5 3.5 0 0 1 0-3.775L3.22 4.28l1.06-1.06 1.832 1.832a3.5 3.5 0 0 1 3.775 0L11.72 3.22zM9.414 6.586a2 2 0 1 0-2.828 2.828 2 2 0 0 0 2.828-2.828"/><path fill="currentcolor" d="M11.73.73a2.5 2.5 0 1 1 3.54 3.54A2.5 2.5 0 0 1 11.73.73m2.48 1.06A1 1 0 1 0 12.8 3.2a1 1 0 0 0 1.41-1.41m-2.48 9.94a2.5 2.5 0 1 1 3.54 3.53 2.5 2.5 0 0 1-3.54-3.53m2.48 1.06a1 1 0 1 0-1.41 1.41 1 1 0 0 0 1.41-1.41M.73.73a2.5 2.5 0 1 1 3.54 3.54A2.5 2.5 0 0 1 .73.73m2.48 1.06A1 1 0 1 0 1.8 3.2a1 1 0 0 0 1.41-1.41M.73 11.73a2.5 2.5 0 1 1 3.54 3.53 2.5 2.5 0 0 1-3.54-3.53m2.48 1.06A1 1 0 1 0 1.8 14.2a1 1 0 0 0 1.41-1.41"/></svg>