<svg width="16" height="16" fill="none" viewBox="0 0 16 16"><path fill="currentcolor" d="M7.25 12V4a.5.5 0 0 0-.5-.5h-2V2h2a2 2 0 0 1 2 2v3.25h2.5v1.5h-2.5V12a2 2 0 0 1-2 2h-2v-1.5h2a.5.5 0 0 0 .5-.5"/><path fill="currentcolor" d="M13.25 6.75a1.25 1.25 0 1 0 0 2.5 1.25 1.25 0 0 0 0-2.5m0-1.5a2.75 2.75 0 1 1 0 5.5 2.75 2.75 0 0 1 0-5.5M2.75 1.5a1.25 1.25 0 1 0 0 2.5 1.25 1.25 0 0 0 0-2.5m0-1.5a2.75 2.75 0 1 1 0 5.5 2.75 2.75 0 0 1 0-5.5m0 12a1.25 1.25 0 1 0 0 2.5 1.25 1.25 0 0 0 0-2.5m0-1.5a2.75 2.75 0 1 1 0 5.5 2.75 2.75 0 0 1 0-5.5"/></svg>