<svg width="16" height="16" fill="none" viewBox="0 0 16 16"><path fill="currentcolor" fill-rule="evenodd" d="M3.28 2.22a.75.75 0 1 0-1.06 1.06.75.75 0 0 0 1.06-1.06M1.16 1.159A2.25 2.25 0 0 1 4.781 3.72l1.695 1.695a3 3 0 0 1 3.048 0l1.695-1.695a2.251 2.251 0 1 1 1.06 1.06l-1.694 1.696a3 3 0 0 1 0 3.048l1.695 1.695a2.251 2.251 0 1 1-1.06 1.06l-1.696-1.694a3 3 0 0 1-3.048 0L4.78 12.28a2.251 2.251 0 1 1-1.06-1.06l1.694-1.696a3 3 0 0 1 0-3.048L3.72 4.78a2.25 2.25 0 0 1-2.56-3.621m12.621 1.06a.75.75 0 1 0-1.06 1.061.75.75 0 0 0 1.06-1.06M9.06 6.94a1.5 1.5 0 1 0-2.12 2.122A1.5 1.5 0 0 0 9.06 6.94m-5.78 5.78a.75.75 0 1 0-1.06 1.061.75.75 0 0 0 1.06-1.06m10.5 0a.75.75 0 1 0-1.06 1.061.75.75 0 0 0 1.06-1.06" clip-rule="evenodd"/></svg>