<svg width="16" height="16" fill="none" viewBox="0 0 16 16"><path fill="currentcolor" d="M9.56 15.85a8 8 0 0 1-3.12 0l.29-1.47a6.5 6.5 0 0 0 2.54 0zM2.6 11.61a6.5 6.5 0 0 0 1.79 1.79l-.83 1.25a8 8 0 0 1-2.21-2.21zm12.06.83a8 8 0 0 1-2.21 2.21l-.83-1.25a6.5 6.5 0 0 0 1.79-1.79zM0 8q0-.8.15-1.56l1.47.29a6.5 6.5 0 0 0 0 2.54l-1.47.29A8 8 0 0 1 0 8m14.5 0q0-.65-.12-1.27l1.47-.29a8 8 0 0 1 0 3.12l-1.47-.29q.12-.62.12-1.27M4.39 2.6A6.5 6.5 0 0 0 2.6 4.39l-1.25-.83a8 8 0 0 1 2.21-2.21zm8.06-1.25a8 8 0 0 1 2.21 2.21l-1.25.83a6.5 6.5 0 0 0-1.79-1.79zM8 0q.8 0 1.56.15l-.29 1.47a6.5 6.5 0 0 0-2.54 0L6.44.15A8 8 0 0 1 8 0m0 6a2 2 0 1 1 0 4 2 2 0 0 1 0-4"/></svg>