<svg width="16" height="16" fill="none" viewBox="0 0 16 16"><path fill="currentcolor" d="M13.5 3a.5.5 0 0 0-.5-.5H3a.5.5 0 0 0-.5.5v10a.5.5 0 0 0 .5.5h3V15H3a2 2 0 0 1-2-2V3a2 2 0 0 1 2-2h10a2 2 0 0 1 2 2v2h-1.5z"/><path fill="currentcolor" d="M14.9 8.71a3.75 3.75 0 0 1 0 5.303l-.024.026.439.146a.75.75 0 0 1-.13 1.454l-2.476.354a.75.75 0 0 1-.848-.849l.353-2.474.029-.125a.75.75 0 0 1 1.425-.006l.147.44.025-.026a2.25 2.25 0 0 0 0-3.183l-.707-.707 1.06-1.06zm-3.818-1.98a.75.75 0 0 1 .85.849l-.354 2.475a.75.75 0 0 1-1.454.13l-.147-.44-.025.026a2.25 2.25 0 0 0 0 3.183l.707.707-1.06 1.06-.708-.707a3.75 3.75 0 0 1 0-5.303l.026-.026-.44-.146a.75.75 0 0 1 .13-1.454z"/></svg>