<svg width="16" height="16" fill="none" viewBox="0 0 16 16"><path fill="currentcolor" d="M6.67 2a1 1 0 1 1-2 0 1 1 0 0 1 2 0m-1 2a1.75 1.75 0 1 0 0 3.5 1.75 1.75 0 0 0 0-3.5m0 4.5a1.75 1.75 0 1 0 0 3.5 1.75 1.75 0 0 0 0-3.5m4.5-4.5a1.75 1.75 0 1 0 0 3.5 1.75 1.75 0 0 0 0-3.5m0 4.5a1.75 1.75 0 1 0 0 3.5 1.75 1.75 0 0 0 0-3.5M5.67 15a1 1 0 1 0 0-2 1 1 0 0 0 0 2M3 5.75a1 1 0 1 1-2 0 1 1 0 0 1 2 0m11 1a1 1 0 1 0 0-2 1 1 0 0 0 0 2m-11 3.5a1 1 0 1 1-2 0 1 1 0 0 1 2 0m11 1a1 1 0 1 0 0-2 1 1 0 0 0 0 2M11.17 2a1 1 0 1 1-2 0 1 1 0 0 1 2 0m-1 13a1 1 0 1 0 0-2 1 1 0 0 0 0 2"/></svg>