<svg width="16" height="16" fill="none" viewBox="0 0 16 16"><path fill="currentcolor" fill-rule="evenodd" d="M14.5 2.25v10H8.75V4.625a2.375 2.375 0 0 1 2.375-2.375zM8 2.333A3.87 3.87 0 0 1 11.125.75h3.501C15.387.75 16 1.367 16 2.125v10.25c0 .76-.616 1.375-1.375 1.375H8.75v1.5h-1.5v-1.5H1.375C.615 13.75 0 13.134 0 12.375V2.125C0 1.366.615.75 1.375.75h3.5A3.87 3.87 0 0 1 8 2.333m-.75 9.917V4.625A2.375 2.375 0 0 0 4.875 2.25H1.5v10zm6-8H10.5v1.5h2.75zm0 2.5H10.5v1.5h2.75z" clip-rule="evenodd"/></svg>