<svg width="16" height="16" fill="none" viewBox="0 0 16 16"><path fill="currentcolor" d="M7.33.24c.39-.32.95-.32 1.34 0l.08.07 2.31 2.31a1.06 1.06 0 0 1 0 1.5L8.75 6.43a1.06 1.06 0 0 1-1.5 0l-2.31-2.3a1.06 1.06 0 0 1 0-1.5L7.25.32zM6.31 3.38 8 5.07l1.69-1.69L8 1.69zm1.02 6.11c.39-.32.95-.32 1.34 0l.08.07 2.31 2.31a1.06 1.06 0 0 1 0 1.5l-2.31 2.31a1.06 1.06 0 0 1-1.5 0l-2.31-2.3a1.06 1.06 0 0 1 0-1.5l2.31-2.31zm-1.02 3.13L8 14.32l1.69-1.69L8 10.94zm5.64-7.75c.39-.32.95-.32 1.34 0l.08.07 2.31 2.31a1.06 1.06 0 0 1 0 1.5l-2.31 2.31a1.06 1.06 0 0 1-1.5 0l-2.3-2.31a1.06 1.06 0 0 1 0-1.5l2.31-2.31zM10.94 8l1.69 1.69L14.32 8l-1.69-1.69zM2.7 4.87c.39-.32.95-.32 1.34 0l.08.07 2.32 2.31a1.06 1.06 0 0 1 0 1.5l-2.31 2.31a1.06 1.06 0 0 1-1.5 0L.32 8.75a1.06 1.06 0 0 1 0-1.5l2.3-2.31zM1.69 8l1.69 1.69L5.07 8 3.38 6.31z"/></svg>