<svg width="16" height="16" fill="none" viewBox="0 0 16 16"><path fill="currentcolor" d="M1 13V1h1.5v12a.5.5 0 0 0 .5.5h12V15H3a2 2 0 0 1-2-2"/><path fill="currentcolor" d="M14 2v1.5h-2.97L7.24 6.81a.75.75 0 0 1-.49.19H3.5V5.5h2.97l3.79-3.31.11-.08a.75.75 0 0 1 .38-.11zm-8.75 8h.08a.75.75 0 0 1 .67.75v1a.75.75 0 0 1-.75.75h-1a.75.75 0 0 1-.75-.75v-1a.75.75 0 0 1 .75-.75zm4-2h.08a.75.75 0 0 1 .67.75v3a.75.75 0 0 1-.75.75h-1a.75.75 0 0 1-.75-.75v-3A.75.75 0 0 1 8.25 8zm4-2a.75.75 0 0 1 .75.75v5a.75.75 0 0 1-.75.75h-1a.75.75 0 0 1-.75-.75v-5a.75.75 0 0 1 .75-.75z"/></svg>