<svg width="16" height="16" fill="none" viewBox="0 0 16 16"><path fill="currentcolor" fill-rule="evenodd" d="m.47 1.53 2.66 2.661a5.7 5.7 0 0 0-.798 2.087A3.75 3.75 0 0 0 3.75 13.5H12q.211 0 .418-.022l2.052 2.052 1.06-1.06-1.514-1.515.004-.002-1.12-1.12-.005.002-7.74-7.742.003-.003-1.062-1.06-.004.003L1.53.47zM3.764 6.9a4.2 4.2 0 0 1 .464-1.611l6.711 6.71H3.75a2.25 2.25 0 0 1-.55-4.431.75.75 0 0 0 .564-.667" clip-rule="evenodd"/><path fill="currentcolor" d="m5.34 2.151 1.132 1.132a4.25 4.25 0 0 1 5.715 3.23.75.75 0 0 0 .525.59 2.5 2.5 0 0 1 1.366 3.787l1.074 1.073A4 4 0 0 0 13.57 5.82a5.752 5.752 0 0 0-8.23-3.669"/></svg>