<svg width="16" height="16" fill="none" viewBox="0 0 16 16"><path fill="currentcolor" d="M9.25 4.25a1.25 1.25 0 1 0-1.799 1.124l.128.054a1.25 1.25 0 0 0 .97-.054l.15-.087A1.25 1.25 0 0 0 9.25 4.25m-.763 2.706a2.8 2.8 0 0 1-.974 0L6.173 9.7a5.72 5.72 0 0 0 3.653 0zM10.75 4.25c0 .814-.355 1.545-.916 2.048l1.341 2.744a5.77 5.77 0 0 0 2.037-2.36l1.359.635a7.3 7.3 0 0 1-2.733 3.083l2.086 4.27-1.348.66-2.085-4.27A7.2 7.2 0 0 1 8 11.5a7.2 7.2 0 0 1-2.492-.44l-2.085 4.27-1.348-.66L4.16 10.4a7.3 7.3 0 0 1-2.73-3.083l1.36-.634a5.77 5.77 0 0 0 2.035 2.36l1.34-2.745A2.75 2.75 0 0 1 7.25 1.606V0h1.5v1.606a2.75 2.75 0 0 1 2 2.644"/></svg>