<svg width="16" height="16" fill="none" viewBox="0 0 16 16"><path fill="currentcolor" d="M4.5 10H2v2a.5.5 0 0 0 .5.5H4a.5.5 0 0 0 .5-.5zM2 8.5h2.5V6H2zm4-4h2.5V2H6zm6.5-2A.5.5 0 0 0 12 2h-2v2.5h2a.5.5 0 0 0 .5-.5zM2 4.5h2.5V2h-2a.5.5 0 0 0-.5.5zM14 4a2 2 0 0 1-2 2H6v6a2 2 0 0 1-2 2H2.5a2 2 0 0 1-2-2V2.5a2 2 0 0 1 2-2H12a2 2 0 0 1 2 2zm-1 8.5v-1.79l-.41.21a.75.75 0 0 1-.94-1.12l1.5-2 .06-.07a.75.75 0 0 1 1.14.07l1.5 2a.75.75 0 0 1-.93 1.12l-.41-.21v1.79a2 2 0 0 1-2 2H8V13h4.5a.5.5 0 0 0 .5-.5"/></svg>