<svg width="16" height="16" fill="none" viewBox="0 0 16 16"><path fill="currentcolor" d="M14.5 3a.5.5 0 0 0-.4-.49L14 2.5H2a.5.5 0 0 0-.5.5v10a.5.5 0 0 0 .5.5h12a.5.5 0 0 0 .5-.5zM16 13a2 2 0 0 1-2 2H2a2 2 0 0 1-2-2V3a2 2 0 0 1 2-2h12l.204.01A2 2 0 0 1 16 3z"/><path fill="currentcolor" d="M5 6h1v1.5H5zm2.5-.12c0-.76-.62-1.37-1.37-1.37H4.88c-.76 0-1.37.62-1.37 1.38v1.75C3.5 8.39 4.12 9 4.88 9H6v1H4v1.5h2.13c.76 0 1.38-.62 1.38-1.37zm3.5.62c.22 0 .43.1.58.27l1.25 1.5a.75.75 0 0 1-.58 1.23h-2.5a.75.75 0 0 1-.58-1.23l1.25-1.5.06-.06A.75.75 0 0 1 11 6.5"/></svg>