<svg width="16" height="16" fill="none" viewBox="0 0 16 16"><path fill="currentcolor" fill-rule="evenodd" d="M.5 4.875A3.875 3.875 0 0 1 4.375 1h7.25A3.875 3.875 0 0 1 15.5 4.875v.75H14v-.75A2.375 2.375 0 0 0 11.625 2.5h-7.25a2.375 2.375 0 1 0 0 4.75H8v1.5H4.375a2.375 2.375 0 1 0 0 4.75H8V15H4.375a3.875 3.875 0 0 1-2.292-7A3.87 3.87 0 0 1 .5 4.875m5 .75H4v-1.5h1.5zm6.5 0H8v-1.5h4zm-6.5 6.25H4v-1.5h1.5z" clip-rule="evenodd"/><path fill="currentcolor" fill-rule="evenodd" d="M9.5 8a.75.75 0 0 1 .75-.75h5A.75.75 0 0 1 16 8v.922a2 2 0 0 1-.705 1.524l-1.387 1.179 1.387 1.18A2 2 0 0 1 16 14.327v.922a.75.75 0 0 1-.75.75h-5a.75.75 0 0 1-.75-.75v-.922a2 2 0 0 1 .705-1.524l1.387-1.179-1.387-1.18A2 2 0 0 1 9.5 8.923zm3.25 2.64 1.574-1.337a.5.5 0 0 0 .176-.381V8.75H11v.172a.5.5 0 0 0 .176.38zm0 1.97-1.574 1.337a.5.5 0 0 0-.176.381v.172h3.5v-.172a.5.5 0 0 0-.176-.38z" clip-rule="evenodd"/></svg>