<svg width="16" height="16" fill="none" viewBox="0 0 16 16"><path fill="currentcolor" d="M11.5 10H14v2a.5.5 0 0 1-.5.5H12a.5.5 0 0 1-.5-.5zM14 8.5h-2.5V6H14zm-4-4H7.5V2H10zm-6.5-2A.5.5 0 0 1 4 2h2v2.5H4a.5.5 0 0 1-.5-.5zm10.5 2h-2.5V2h2a.5.5 0 0 1 .5.5zM2 4a2 2 0 0 0 2 2h6v6a2 2 0 0 0 2 2h1.5a2 2 0 0 0 2-2V2.5a2 2 0 0 0-2-2H4a2 2 0 0 0-2 2zm1.5 9h1.79l-.21-.41a.75.75 0 0 1 1.12-.94l2 1.5.07.06a.75.75 0 0 1-.07 1.14l-2 1.5a.75.75 0 0 1-1.12-.93l.21-.41H3.5a2 2 0 0 1-2-2V8H3v4.5a.5.5 0 0 0 .5.5"/></svg>