<svg width="16" height="16" fill="none" viewBox="0 0 16 16"><path fill="currentcolor" d="M2.38 6.18c.746-.473 1.695-.811 2.793-.665 1.096.146 2.228.76 3.372 1.97.98 1.04 1.818 1.426 2.48 1.514.66.088 1.258-.105 1.792-.444.542-.344.989-.82 1.307-1.227a7 7 0 0 0 .444-.646l.02-.035.004-.006.658.36c.658.358.658.36.658.36l-.002.003-.003.004-.008.017a5 5 0 0 1-.15.246 8 8 0 0 1-.44.62c-.377.483-.945 1.102-1.685 1.57-.746.474-1.695.812-2.793.666-1.096-.146-2.228-.76-3.372-1.971-.98-1.039-1.818-1.425-2.48-1.514-.66-.088-1.258.105-1.792.445-.542.343-.989.819-1.307 1.226a7 7 0 0 0-.444.647q-.015.023-.02.034l-.004.007L.75 9l-.658-.36.002-.002.003-.005.008-.018a4 4 0 0 1 .15-.246c.1-.158.249-.374.44-.619.377-.483.945-1.101 1.685-1.57"/></svg>