<svg width="16" height="16" fill="none" viewBox="0 0 16 16"><path fill="currentcolor" d="M11.026 1.168a.75.75 0 0 1 1.004.052l2.75 2.75a.75.75 0 0 1 0 1.06L11.81 8l2.97 2.97a.75.75 0 0 1 0 1.06l-2.75 2.75a.75.75 0 0 1-1.06 0L8 11.81l-2.97 2.97a.75.75 0 0 1-1.06 0l-2.75-2.75a.75.75 0 0 1 0-1.06L4.19 8 1.22 5.03a.75.75 0 0 1-.001-1.06l2.745-2.75.114-.094a.75.75 0 0 1 .946.094L8 4.19l2.97-2.97zM8 6.311l-3.505-3.5L2.81 4.499 6.31 8l-3.5 3.5 1.69 1.69L8 9.69l3.5 3.5 1.69-1.69L9.69 8l3.5-3.5-1.69-1.69z"/></svg>