<svg width="16" height="16" fill="none" viewBox="0 0 16 16"><path fill="currentcolor" d="M12.5 4a.5.5 0 0 0-.5-.5H4a.5.5 0 0 0-.5.5v8a.5.5 0 0 0 .5.5h8a.5.5 0 0 0 .5-.5zM9.75 5.5a.75.75 0 0 1 .75.75v3.5a.75.75 0 0 1-.75.75h-3.5a.75.75 0 0 1-.75-.75v-3.5a.75.75 0 0 1 .75-.75zM7 9h2V7H7zm7-4.5h1.5V6H14v1.25h1.5v1.5H14V10h1.5v1.5H14v.5a2 2 0 0 1-2 2h-.5v1.5H10V14H8.75v1.5h-1.5V14H6v1.5H4.5V14H4a2 2 0 0 1-2-2v-.5H.5V10H2V8.75H.5v-1.5H2V6H.5V4.5H2V4a2 2 0 0 1 2-2h.5V.5H6V2h1.25V.5h1.5V2H10V.5h1.5V2h.5a2 2 0 0 1 2 2z"/></svg>