<svg width="16" height="16" fill="none" viewBox="0 0 16 16"><path fill="currentcolor" d="M11.75 8c0-1.546.326-2.983.89-4.06a5 5 0 0 1 .26-.44H4c-.397 0-1.01.324-1.57 1.165C1.895 5.473 1.5 6.64 1.5 8s.394 2.527.93 3.335C2.99 12.176 3.604 12.5 4 12.5h8.9a5 5 0 0 1-.26-.44c-.564-1.077-.89-2.514-.89-4.06m1.5 0c0 1.353.289 2.542.72 3.364.45.858.94 1.136 1.28 1.136l.077.004a.75.75 0 0 1 0 1.492L15.25 14H4c-1.121 0-2.133-.801-2.82-1.835C.473 11.098 0 9.64 0 8s.472-3.098 1.18-4.165C1.868 2.801 2.88 2 4 2h11.25l.077.004A.75.75 0 0 1 15.25 3.5c-.34 0-.83.278-1.28 1.136-.431.822-.72 2.01-.72 3.364"/></svg>