<svg width="16" height="16" fill="none" viewBox="0 0 16 16"><path fill="currentcolor" d="M8.267 15.826a.75.75 0 0 1-.534 0l.267-.7zM7.527.168A.75.75 0 0 1 8.53.22c1.298 1.298 2.783 2.192 3.954 2.763a16 16 0 0 0 1.841.755l.103.033.024.006.004.002.116.043A.75.75 0 0 1 15 4.5c0 4.338-1.65 7.175-3.334 8.926a11.3 11.3 0 0 1-2.304 1.843 9 9 0 0 1-.999.518l-.066.028-.02.007-.006.002-.004.002-.267-.7-.267.7-.004-.002-.006-.002-.02-.007-.066-.028a9 9 0 0 1-.999-.518 11.3 11.3 0 0 1-2.304-1.843C2.651 11.676 1 8.838 1 4.5l.01-.123a.75.75 0 0 1 .534-.598l.004-.002q.007 0 .024-.006l.103-.033a16 16 0 0 0 1.84-.756C4.688 2.413 6.173 1.519 7.47.22zM8 1.782C6.69 2.962 5.286 3.787 4.172 4.33a17 17 0 0 1-1.572.675l-.09.03c.127 3.605 1.531 5.922 2.906 7.352a9.8 9.8 0 0 0 1.993 1.595c.24.143.443.248.591.32.148-.072.351-.177.59-.32a9.8 9.8 0 0 0 1.994-1.595c1.375-1.43 2.778-3.747 2.905-7.352l-.089-.03a17 17 0 0 1-1.572-.675C10.714 3.787 9.31 2.962 8 1.782m3.076 4.824-3.333 4a.75.75 0 0 1-1.152 0l-1.667-2 1.152-.961 1.09 1.308 2.758-3.308z"/></svg>