<svg width="16" height="16" fill="none" viewBox="0 0 16 16"><path fill="currentcolor" d="M12 13.5h2.5v-2H12zM1.5 9H4V7H1.5zM12 4.5h2.5v-2H12zm4 .125C16 5.385 15.384 6 14.625 6h-2.75c-.76 0-1.375-.616-1.375-1.375V4.25h-1a.5.5 0 0 0-.5.5v6.5a.5.5 0 0 0 .5.5h1v-.375c0-.76.616-1.375 1.375-1.375h2.75c.76 0 1.375.616 1.375 1.375v2.25c0 .76-.616 1.375-1.375 1.375h-2.75c-.76 0-1.375-.616-1.375-1.375v-.375h-1a2 2 0 0 1-2-2v-2.5h-2v.375c0 .76-.616 1.375-1.375 1.375h-2.75C.615 10.5 0 9.884 0 9.125v-2.25C0 6.115.616 5.5 1.375 5.5h2.75c.76 0 1.375.616 1.375 1.375v.375h2v-2.5a2 2 0 0 1 2-2h1v-.375c0-.76.616-1.375 1.375-1.375h2.75l.14.007c.694.07 1.235.656 1.235 1.368z"/></svg>