<svg width="17" height="16" fill="none" viewBox="0 0 17 16"><path fill="currentcolor" d="M13 6.376a.75.75 0 0 0-.75-.75H5.858l.668-1.13.417-.708a.786.786 0 0 0-1.172-1.011L2.612 5.334A3 3 0 0 0 1.5 7.666v2.46a3 3 0 0 0 3 3h7.25a.75.75 0 0 0 0-1.5H8.5v-1.5h4.75a.75.75 0 0 0 0-1.5H8.5v-1.5h3.75a.75.75 0 0 0 .75-.75m1.5 0c0 .358-.086.694-.234.995a2.248 2.248 0 0 1-.427 4.173 2.25 2.25 0 0 1-2.089 3.082H4.5a4.5 4.5 0 0 1-4.5-4.5v-2.46c0-1.358.614-2.644 1.669-3.499l3.158-2.556A2.287 2.287 0 0 1 8.43 4.126h3.821a2.25 2.25 0 0 1 2.25 2.25"/></svg>