<svg width="16" height="16" fill="none" viewBox="0 0 16 16"><path fill="currentcolor" d="M14.5 8c0-1.306-.391-2.475-.933-3.3-.566-.866-1.181-1.2-1.567-1.2H4.696a.5.5 0 0 0-.425.237L1.631 8l2.64 4.263a.5.5 0 0 0 .425.237H12c.386 0 1-.334 1.567-1.2.542-.825.933-1.994.933-3.3M16 8c0 1.593-.474 3.049-1.178 4.123C14.144 13.158 13.133 14 12 14H4.696a2 2 0 0 1-1.7-.947l-2.68-4.33a1.38 1.38 0 0 1 0-1.447l2.68-4.329.071-.107A2 2 0 0 1 4.697 2H12c1.133 0 2.144.842 2.822 1.877C15.526 4.95 16 6.407 16 8"/></svg>