<svg width="16" height="16" fill="none" viewBox="0 0 16 16"><path fill="currentcolor" d="M10 14.5h4.5v-3H10zm6 .13c0 .76-.62 1.38-1.37 1.38H9.88c-.76 0-1.37-.62-1.37-1.37v-3.25c0-.76.62-1.37 1.38-1.37h4.75c.76 0 1.38.62 1.38 1.38zM1 13v-2h1.5v2a.5.5 0 0 0 .5.5h4V15H3a2 2 0 0 1-2-2m12.5-8a.5.5 0 0 0-.5-.5h-3V3h3a2 2 0 0 1 2 2v3.5h-1.5zM7 6.78c-.74.32-1.72.5-2.75.5s-2-.18-2.75-.5v.43c0 .22.14.53.65.81.5.28 1.24.48 2.1.48s1.61-.19 2.1-.48c.5-.29.65-.59.65-.81zm0-2.72c-.74.32-1.72.5-2.75.5s-2-.18-2.75-.5v.93a.3.3 0 0 0 .06.08c.09.09.25.21.51.32.52.23 1.29.39 2.17.39s1.66-.16 2.17-.38c.26-.11.42-.23.51-.32A.3.3 0 0 0 7 4.99zM4.25 1.5c-.89 0-1.66.16-2.17.39a1.6 1.6 0 0 0-.51.32.4.4 0 0 0-.06.07c.01.02.03.04.06.07.09.09.25.21.51.32.52.23 1.29.39 2.17.39s1.66-.16 2.17-.38c.26-.11.42-.23.51-.32a.4.4 0 0 0 .06-.07.4.4 0 0 0-.06-.07 1.6 1.6 0 0 0-.51-.32c-.51-.24-1.28-.4-2.17-.4M8.5 7.21c0 .97-.64 1.68-1.4 2.12-.77.44-1.78.67-2.85.67s-2.08-.23-2.85-.67C.64 8.89 0 8.18 0 7.21V2.28c0-.46.22-.84.49-1.12s.62-.49.99-.65C2.22.18 3.21 0 4.25 0s2.03.18 2.78.51c.37.16.72.38.99.65.27.28.49.66.49 1.12z"/></svg>