<svg width="16" height="16" fill="none" viewBox="0 0 16 16"><path fill="currentcolor" d="M10.063 13.5a7 7 0 0 1-.36-.826C9.26 11.442 9 9.789 9 8s.26-3.442.703-4.674q.159-.44.36-.826H4.75c-.428 0-.985.352-1.478 1.4C2.8 4.905 2.5 6.352 2.5 8s.3 3.094.772 4.1c.493 1.048 1.05 1.4 1.478 1.4zm1.937 0c.007 0 .113-.002.305-.227.19-.223.394-.59.58-1.108.372-1.03.615-2.503.615-4.165s-.243-3.135-.614-4.165c-.187-.518-.392-.885-.581-1.107-.192-.226-.298-.228-.305-.228s-.113.002-.305.228c-.19.222-.394.589-.58 1.107C10.742 4.865 10.5 6.338 10.5 8s.243 3.135.614 4.165c.187.518.392.885.581 1.108.192.225.298.227.305.227M4.75 15c-1.322 0-2.265-1.047-2.835-2.262C1.325 11.483 1 9.805 1 8s.325-3.483.915-4.738C2.485 2.047 3.428 1 4.75 1H12c.615 0 1.101.348 1.447.755.349.41.63.959.85 1.571C14.74 4.558 15 6.211 15 8s-.26 3.442-.703 4.674c-.22.613-.501 1.161-.85 1.571-.346.407-.832.755-1.447.755z"/></svg>