<svg width="16" height="16" fill="none" viewBox="0 0 16 16"><path fill="currentcolor" d="M13.5 5.938a7 7 0 0 1-.826.359C11.442 6.74 9.789 7 8 7s-3.442-.26-4.674-.703a7 7 0 0 1-.826-.36v5.313c0 .428.352.985 1.4 1.477 1.006.473 2.453.773 4.1.773s3.094-.3 4.1-.773c1.048-.492 1.4-1.05 1.4-1.477zM13.5 4c0-.007-.002-.113-.227-.305-.223-.19-.59-.394-1.108-.58C11.135 2.742 9.662 2.5 8 2.5s-3.135.244-4.165.614c-.518.187-.885.392-1.107.581-.226.192-.228.298-.228.305s.002.113.228.305c.222.19.589.394 1.107.58C4.865 5.258 6.338 5.5 8 5.5s3.135-.244 4.165-.614c.518-.187.885-.392 1.108-.581.225-.192.227-.298.227-.305m1.5 7.25c0 1.322-1.047 2.265-2.262 2.835C11.483 14.675 9.805 15 8 15s-3.483-.325-4.738-.915C2.047 13.515 1 12.572 1 11.25V4c0-.615.348-1.101.755-1.447.41-.349.959-.63 1.571-.85C4.558 1.26 6.211 1 8 1s3.442.26 4.674.703c.613.22 1.161.501 1.571.85.407.346.755.832.755 1.447z"/></svg>