<svg width="16" height="16" fill="none" viewBox="0 0 16 16"><path fill="currentcolor" fill-rule="evenodd" d="M11.836.854a2 2 0 0 1 2.828 0l.482.482a2 2 0 0 1 0 2.828l-2.148 2.148c.588 1.027.988 2.15 1.1 3.23.13 1.266-.133 2.554-1.068 3.488-1.018 1.02-2.299 1.025-3.367.606-1.038-.408-1.965-1.237-2.537-2.095l1.248-.832c.428.643 1.126 1.251 1.838 1.53.682.268 1.276.212 1.758-.27.515-.515.737-1.294.636-2.273-.075-.723-.324-1.51-.714-2.277l-1.724 1.723c-.197.198-.45.33-.726.38l-2.558.466a.75.75 0 0 1-.872-.872l.465-2.558c.05-.275.183-.529.38-.726l1.766-1.765c-1.535-.756-3.354-.92-4.768.26-1.04.867-1.497 2.919-.725 5.129.747 2.138 2.615 4.253 5.924 5.066l-.358 1.456c-3.816-.937-6.073-3.426-6.982-6.027-.884-2.53-.528-5.353 1.18-6.777 2.215-1.845 4.938-1.29 6.837-.215zm1.768 1.06a.5.5 0 0 0-.708 0l-4.95 4.95-.264 1.454 1.453-.264 4.95-4.95a.5.5 0 0 0 0-.707z" clip-rule="evenodd"/></svg>