<svg width="16" height="16" fill="none" viewBox="0 0 16 16"><path stroke="currentcolor" stroke-linejoin="round" stroke-width="1.5" d="M.75 4c0-.69.56-1.25 1.25-1.25h9c.69 0 1.25.56 1.25 1.25v6c0 .69-.56 1.25-1.25 1.25H2c-.69 0-1.25-.56-1.25-1.25z"/><path fill="currentcolor" d="M4 14.25a.75.75 0 1 1-1.5 0 .75.75 0 0 1 1.5 0m3 0a.75.75 0 1 1-1.5 0 .75.75 0 0 1 1.5 0m3 0a.75.75 0 1 1-1.5 0 .75.75 0 0 1 1.5 0m3 0a.75.75 0 1 1-1.5 0 .75.75 0 0 1 1.5 0m3 0a.75.75 0 1 1-1.5 0 .75.75 0 0 1 1.5 0m0-3a.75.75 0 1 1-1.5 0 .75.75 0 0 1 1.5 0m0-3a.75.75 0 1 1-1.5 0 .75.75 0 0 1 1.5 0m0-3a.75.75 0 1 1-1.5 0 .75.75 0 0 1 1.5 0"/></svg>