<svg width="16" height="16" fill="none" viewBox="0 0 16 16"><path fill="currentcolor" d="M14.5 8a6.5 6.5 0 1 0-13 0 6.5 6.5 0 0 0 13 0m-9.14 3.935-1.22-.872.004-.003.004-.008.017-.023.056-.071a6 6 0 0 1 .943-.925C5.804 9.536 6.775 9 8 9s2.196.536 2.836 1.033a6 6 0 0 1 .999.996l.017.023.004.008.002.002.001.002-1.22.871-.003-.003-.03-.04a4.4 4.4 0 0 0-.691-.675C9.428 10.839 8.774 10.5 8 10.5s-1.429.34-1.914.717a4.4 4.4 0 0 0-.691.675l-.03.04zM16 8A8 8 0 1 1 0 8a8 8 0 0 1 16 0M7 6.25a1.25 1.25 0 1 1-2.5 0 1.25 1.25 0 0 1 2.5 0m4.5 0a1.25 1.25 0 1 1-2.5 0 1.25 1.25 0 0 1 2.5 0"/></svg>