<svg width="16" height="16" fill="none" viewBox="0 0 16 16"><path fill="currentcolor" fill-rule="evenodd" d="M10.345 1.845a2.694 2.694 0 1 1 3.81 3.81l-2.47 2.47L13.03 9.47l-1.06 1.06-1.345-1.344-5.173 5.173A2.2 2.2 0 0 1 3.904 15H1.75a.75.75 0 0 1-.75-.75v-2.154c0-.58.23-1.137.641-1.548l5.173-5.173L5.47 4.03l1.06-1.06 1.345 1.344zm-2.47 4.59L2.702 11.61a.7.7 0 0 0-.202.487V13.5h1.404a.7.7 0 0 0 .487-.202l5.173-5.173zm2.75.63-1.69-1.69 2.47-2.47a1.195 1.195 0 0 1 1.69 1.69z" clip-rule="evenodd"/></svg>