<svg width="16" height="16" fill="none" viewBox="0 0 16 16"><path fill="currentcolor" d="M10.5 5.5a4 4 0 1 0-8 0 4 4 0 0 0 8 0m1.5 0a5.5 5.5 0 1 1-11 0 5.5 5.5 0 0 1 11 0M14.04.59A8.96 8.96 0 0 1 15.5 5.5H14c0-1.51-.44-2.91-1.21-4.09z"/><path fill="currentcolor" fill-rule="evenodd" d="M14.25 7.5a1.75 1.75 0 1 1 0 3.5 1.75 1.75 0 0 1 0-3.5m0 1.5a.25.25 0 1 0 0 .5.25.25 0 0 0 0-.5" clip-rule="evenodd"/><path fill="currentcolor" d="M14.413 10.477c-.346.653-.7 1.31-1.337 1.81-.646.508-1.499.794-2.728.956l-.196-1.486c1.111-.147 1.656-.38 1.997-.65.352-.276.577-.652.938-1.334z"/><path fill="currentcolor" d="M9.5 11.5A.5.5 0 0 0 9 11H4a.5.5 0 0 0-.5.5V14a.5.5 0 0 0 .5.5h5a.5.5 0 0 0 .5-.5zM11 14a2 2 0 0 1-2 2H4a2 2 0 0 1-2-2v-2.5a2 2 0 0 1 2-2h5a2 2 0 0 1 2 2zM6.5 4.5a1 1 0 1 1 0 2 1 1 0 0 1 0-2"/></svg>