<svg width="16" height="16" fill="none" viewBox="0 0 16 16"><path fill="currentcolor" d="M7.25 10.645a2.7 2.7 0 0 1-.59-.246L5.53 11.53l-1.06-1.06L5.6 9.339a2.7 2.7 0 0 1-.245-.589h-.48a2.375 2.375 0 1 0 2.375 2.375zm1.634-3.529a1.25 1.25 0 1 0-1.768 1.768 1.25 1.25 0 0 0 1.768-1.768m-.134 4.009a2.375 2.375 0 1 0 2.375-2.375h-.48q-.087.305-.246.589l1.131 1.13-1.06 1.061-1.131-1.13a2.7 2.7 0 0 1-.589.245zm-1.5-6.25A2.375 2.375 0 1 0 4.875 7.25h.48a2.7 2.7 0 0 1 .245-.59L4.47 5.53l1.06-1.06L6.66 5.6q.284-.159.59-.246zm1.5.48q.305.087.589.245l1.13-1.13 1.061 1.06-1.13 1.13q.158.284.245.59h.48A2.375 2.375 0 1 0 8.75 4.875zm6.25-.48c0 1.283-.624 2.42-1.585 3.125A3.875 3.875 0 1 1 8 13.415 3.875 3.875 0 1 1 2.584 8 3.875 3.875 0 1 1 8 2.584a3.875 3.875 0 0 1 7 2.291"/></svg>