<svg width="16" height="16" fill="none" viewBox="0 0 16 16"><path fill="currentcolor" fill-rule="evenodd" d="M1.5 2a.5.5 0 0 1 .5-.5h2.94l1.75 1.75H12a.5.5 0 0 1 .5.5V5h-11zm0 10V6.5H14V3.75a2 2 0 0 0-2-2H7.31L5.56 0H2a2 2 0 0 0-2 2v10a2 2 0 0 0 2 2h4.5v-1.5H2a.5.5 0 0 1-.5-.5m9.25 1A2.75 2.75 0 0 0 8 15.75V16h1.5v-.25c0-.69.56-1.25 1.25-1.25h2.5c.69 0 1.25.56 1.25 1.25V16H16v-.25A2.75 2.75 0 0 0 13.25 13z" clip-rule="evenodd"/><path fill="currentcolor" fill-rule="evenodd" d="M12 8a2 2 0 1 0 0 4 2 2 0 0 0 0-4m0 1.5a.5.5 0 1 0 0 1 .5.5 0 0 0 0-1" clip-rule="evenodd"/><path fill="currentcolor" d="M11.5 10a.5.5 0 1 1 1 0 .5.5 0 0 1-1 0"/></svg>