<svg width="16" height="16" fill="none" viewBox="0 0 16 16"><path fill="currentcolor" d="M13.5 3a.5.5 0 0 0-.5-.5h-1.5v2H10v-2H6v2H4.5v-2H3a.5.5 0 0 0-.5.5v3h11zM15 7.5H2.5V13a.5.5 0 0 0 .5.5h4.5V15H3a2 2 0 0 1-2-2V3a2 2 0 0 1 2-2h1.5V0H6v1h4V0h1.5v1H13l.204.01A2 2 0 0 1 15 3z"/><path fill="currentcolor" d="M12.616 9.009a.75.75 0 0 1 .59.484l.613 1.687 1.688.615A.75.75 0 0 1 16 12.5l-.009.116a.75.75 0 0 1-.484.59l-1.688.613-.614 1.688a.75.75 0 0 1-.589.484L12.5 16a.75.75 0 0 1-.705-.493l-.615-1.688-1.687-.614a.75.75 0 0 1-.484-.589L9 12.5a.75.75 0 0 1 .493-.705l1.687-.615.615-1.687.049-.106a.75.75 0 0 1 .54-.378L12.5 9z"/></svg>