<svg width="16" height="16" fill="none" viewBox="0 0 16 16"><path fill="currentcolor" fill-rule="evenodd" d="M5.5 1.5a1.25 1.25 0 1 0 0 2.5h1.75c0-1.899-1.12-2.5-1.75-2.5M8 1.379C7.366.472 6.418 0 5.5 0a2.75 2.75 0 0 0-2.45 4h-1.3a.75.75 0 0 0-.75.75v3.5c0 .414.336.75.75.75H2v4a2 2 0 0 0 2 2h8a2 2 0 0 0 2-2V9h.25a.75.75 0 0 0 .75-.75v-3.5a.75.75 0 0 0-.75-.75h-1.3a2.75 2.75 0 0 0-2.45-4C9.582 0 8.634.472 8 1.379M7.25 5.5H2.5v2h4.75zm1.5 2v-2h4.75v2zM7.25 9H3.5v4a.5.5 0 0 0 .5.5h3.25zm1.5 4.5V9h3.75v4a.5.5 0 0 1-.5.5zm0-9.5h1.75a1.25 1.25 0 1 0 0-2.5c-.63 0-1.75.601-1.75 2.5" clip-rule="evenodd"/></svg>