<svg width="16" height="16" fill="none" viewBox="0 0 16 16"><path fill="currentcolor" fill-rule="evenodd" d="M16 8c0 1.39-.35 2.7-.98 3.84l-1.12-1.12a6.5 6.5 0 0 0 .55-1.97h-2.52l-1.71-1.71c-.09-1.53-.38-2.88-.79-3.88-.25-.6-.53-1.04-.8-1.32-.27-.27-.48-.34-.63-.34s-.36.07-.63.34c-.27.28-.55.71-.8 1.32l-.07.16-1.14-1.14.08-.16-.17.08L4.16.98A8 8 0 0 1 16 8m-4.26-.75c-.07-1.78-.4-3.41-.92-4.66a8 8 0 0 0-.26-.57 6.5 6.5 0 0 1 3.9 5.23zm-2.25 5.43 1.14 1.14-.08.16.17-.07 1.12 1.12A8 8 0 0 1 .98 4.16L2.1 5.28a6.5 6.5 0 0 0-.55 1.97h2.53l1.71 1.71c.09 1.53.38 2.88.79 3.88.25.6.53 1.04.8 1.32.27.27.48.34.63.34s.36-.07.63-.34c.27-.28.55-.71.8-1.32zm-4.05 1.3q-.14-.27-.26-.57c-.52-1.25-.85-2.88-.92-4.66H1.54a6.5 6.5 0 0 0 3.9 5.23" clip-rule="evenodd"/><path fill="currentcolor" d="m.47 1.53 14 14 1.06-1.06-14-14z"/></svg>