<svg width="16" height="16" fill="none" viewBox="0 0 16 16"><path fill="currentcolor" fill-rule="evenodd" d="M15 3a2 2 0 0 0-2-2H6a2 2 0 0 0-2 2v7a2 2 0 0 0 2 2h7a2 2 0 0 0 2-2zm-2-.5a.5.5 0 0 1 .5.5v7a.5.5 0 0 1-.5.5H6a.5.5 0 0 1-.5-.5V3a.5.5 0 0 1 .5-.5z" clip-rule="evenodd"/><path fill="currentcolor" d="M7 4.5h1.5V6H7zm3 0h1.5V6H10zm0 3h1.5V9H10z"/><path fill="currentcolor" fill-rule="evenodd" d="M3 5.5h1.464V4H3a2 2 0 0 0-2 2v7a2 2 0 0 0 2 2h7a2 2 0 0 0 2-2v-1.464h-1.5V13a.5.5 0 0 1-.5.5H3a.5.5 0 0 1-.5-.5V6a.5.5 0 0 1 .5-.5" clip-rule="evenodd"/></svg>