<svg width="16" height="16" fill="none" viewBox="0 0 16 16"><path stroke="currentcolor" stroke-linejoin="round" stroke-width="1.5" d="M6 1.75h7c.69 0 1.25.56 1.25 1.25v7c0 .69-.56 1.25-1.25 1.25H6c-.69 0-1.25-.56-1.25-1.25V3c0-.69.56-1.25 1.25-1.25Z"/><path fill="currentcolor" d="M7 4.5h1.5V6H7zm3 0h1.5V6H10zm0 3h1.5V9H10z"/><path stroke="currentcolor" stroke-linejoin="round" stroke-width="1.5" d="M4.464 4.75H3c-.69 0-1.25.56-1.25 1.25v7c0 .69.56 1.25 1.25 1.25h7c.69 0 1.25-.56 1.25-1.25v-1.464"/></svg>