<svg width="16" height="16" fill="none" viewBox="0 0 16 16"><path fill="currentcolor" fill-rule="evenodd" d="M15 3a2 2 0 0 0-2-2H8.5a2 2 0 0 0-2 2v4.5a2 2 0 0 0 2 2H13a2 2 0 0 0 2-2zm-2-.5a.5.5 0 0 1 .5.5v4.5a.5.5 0 0 1-.5.5H8.5a.5.5 0 0 1-.5-.5V3a.5.5 0 0 1 .5-.5z" clip-rule="evenodd"/><path fill="currentcolor" fill-rule="evenodd" d="M3 8h2V6.5H3a2 2 0 0 0-2 2V13a2 2 0 0 0 2 2h4.5a2 2 0 0 0 2-2v-2H8v2a.5.5 0 0 1-.5.5H3a.5.5 0 0 1-.5-.5V8.5A.5.5 0 0 1 3 8m2-8v3H3.5V0zM0 3.5h3V5H0zm16 9h-3V11h3zM11 16v-3h1.5v3z" clip-rule="evenodd"/></svg>