<svg width="16" height="16" fill="none" viewBox="0 0 16 16"><path fill="currentcolor" fill-rule="evenodd" d="M1.207 10.882a2 2 0 0 1-.2-2.238l.113-.205A2 2 0 0 1 4 7.76V4.125A2.625 2.625 0 0 1 6.625 1.5h.503a2.25 2.25 0 0 1 4.358.5h.389A2.625 2.625 0 0 1 14.5 4.625V11.5A4.5 4.5 0 0 1 10 16H7.527a4.5 4.5 0 0 1-3.483-1.65zM11.5 3.5V8H10V2.25a.75.75 0 0 0-1.5 0V7.5H7V3h-.375C6.004 3 5.5 3.504 5.5 4.125v4.846l1.473 1.197-.946 1.164-2.843-2.31a.5.5 0 0 0-.752.145l-.114.205a.5.5 0 0 0 .05.56L5.205 13.4a3 3 0 0 0 2.322 1.1H10a3 3 0 0 0 3-3V4.625c0-.621-.504-1.125-1.125-1.125z" clip-rule="evenodd"/></svg>