<svg width="16" height="16" fill="none" viewBox="0 0 16 16"><path fill="currentcolor" d="M9.75 2.5a.75.75 0 0 1 .75.75v5.148L9.27 9.424l.96 1.152 1.5-1.25.756-.587.067-.046a.656.656 0 0 1 .91.247l.034.073a.66.66 0 0 1-.048.584l-.05.072-2.606 3.219A3 3 0 0 1 8.461 14h-2.46a3 3 0 0 1-3-3V3.75a.75.75 0 0 1 1.495-.077l.004.077V7H6V2.25a.75.75 0 1 1 1.5 0V7H9V3.25a.75.75 0 0 1 .75-.75m0-1.5c-.357 0-.694.086-.994.234a2.247 2.247 0 0 0-4.174.427A2.25 2.25 0 0 0 1.5 3.75V11A4.5 4.5 0 0 0 6 15.5h2.461a4.5 4.5 0 0 0 3.498-1.669l2.606-3.218.088-.117c.417-.593.509-1.36.237-2.04l-.053-.122A2.16 2.16 0 0 0 12 7.291V3.25A2.25 2.25 0 0 0 9.75 1"/></svg>