<svg width="16" height="16" fill="none" viewBox="0 0 16 16"><path fill="currentcolor" d="M7.17 15.992a4.5 4.5 0 0 1-3.403-1.897L1.328 10.64l-.128-.207a2 2 0 0 1 1.073-2.825L4 6.977v-.264l.004-.15a2.626 2.626 0 0 1 3.053-2.439l.112.02a2.25 2.25 0 0 1 4.161 0l.113-.02A2.625 2.625 0 0 1 14.5 6.713V11.5a4.5 4.5 0 0 1-4.269 4.494L10 16H7.443zM10 14.5l.154-.004A3 3 0 0 0 13 11.5V6.713c0-.695-.624-1.223-1.31-1.11l-.19.033V8H10V5a.75.75 0 0 0-1.496-.077L8.5 5v3H7V5.636l-.19-.032a1.126 1.126 0 0 0-1.303.981l-.007.128v2.615H4v-.754l-1.21.444a.5.5 0 0 0-.294.652l.058.105 2.438 3.455a3 3 0 0 0 2.451 1.27z"/></svg>