<svg width="16" height="16" fill="none" viewBox="0 0 16 16"><path fill="currentcolor" d="M1 10V3a2 2 0 0 1 2-2h4v1.5H3a.5.5 0 0 0-.5.5v7a.5.5 0 0 0 .5.5h10a.5.5 0 0 0 .5-.5V8H15v2a2 2 0 0 1-2 2H8.75v1.5H12V15H4v-1.5h3.25V12H3a2 2 0 0 1-2-2"/><path fill="currentcolor" d="M13 3.5a1 1 0 1 0-2 0 1 1 0 0 0 2 0m1.5 0q-.002.28-.061.542l.967.559-.75 1.298-.968-.56a2.5 2.5 0 0 1-.938.546V7h-1.5V5.885a2.5 2.5 0 0 1-.938-.545l-.968.56-.75-1.3.967-.558a2.5 2.5 0 0 1 0-1.085l-.967-.558.75-1.298.968.558c.266-.244.585-.434.938-.545V0h1.5v1.114c.354.111.671.3.938.545l.968-.558.75 1.298-.967.558q.059.262.061.543"/></svg>