<svg width="16" height="16" fill="none" viewBox="0 0 16 16"><path fill="currentcolor" d="M1 10V3a2 2 0 0 1 2-2h3v1.5H3a.5.5 0 0 0-.5.5v7a.5.5 0 0 0 .5.5h10a.5.5 0 0 0 .5-.5V9H15v1a2 2 0 0 1-2 2H8.75v1.5H12V15H4v-1.5h3.25V12H3a2 2 0 0 1-2-2"/><path fill="currentcolor" d="M7 6.25a.75.75 0 0 1 .26-.57l1.75-1.5a.75.75 0 0 1 1.06 1.05l-.22.27H14V7H9.85l.22.27a.75.75 0 0 1-1.06 1.05l-1.75-1.5-.06-.06a.75.75 0 0 1-.2-.51m9-4a.75.75 0 0 0-.26-.57L13.99.18a.75.75 0 0 0-1.06 1.05l.22.27H9V3h4.15l-.22.27a.75.75 0 0 0 1.06 1.05l1.75-1.5.06-.06a.75.75 0 0 0 .2-.51"/></svg>