<svg width="16" height="16" fill="none" viewBox="0 0 16 16"><path fill="currentcolor" d="M1 10V3a2 2 0 0 1 2-2h5v1.5H3a.5.5 0 0 0-.5.5v7a.5.5 0 0 0 .5.5h10a.5.5 0 0 0 .5-.5V8H15v2a2 2 0 0 1-2 2H8.75v1.5H12V15H4v-1.5h3.25V12H3a2 2 0 0 1-2-2"/><path fill="currentcolor" d="m15.985 2.398-.175.88a2 2 0 0 1-.547 1.02l-.38.38a1.957 1.957 0 0 1-2.627.127L10.03 7.03 8.97 5.97l2.225-2.227a1.96 1.96 0 0 1 .128-2.627l.38-.379a2 2 0 0 1 1.02-.547l.88-.175.295 1.47-.88.176a.5.5 0 0 0-.255.137l-.38.379a.457.457 0 0 0 0 .646l.794.793a.457.457 0 0 0 .646 0l.38-.379a.5.5 0 0 0 .136-.256l.176-.878z"/></svg>