<svg width="16" height="16" fill="none" viewBox="0 0 16 16"><path fill="currentcolor" d="M1 10V3a2 2 0 0 1 2-2h3v1.5H3a.5.5 0 0 0-.5.5v7a.5.5 0 0 0 .5.5h10a.5.5 0 0 0 .5-.5V9H15v1a2 2 0 0 1-2 2H8.75v1.5H12V15H4v-1.5h3.25V12H3a2 2 0 0 1-2-2"/><path fill="currentcolor" d="M14.5 4.25a2 2 0 0 0-3.716-1.027l.562.187a.75.75 0 0 1-.18 1.46l-2.298.176a.75.75 0 0 1-.805-.806l.176-2.298.022-.13a.75.75 0 0 1 1.438-.05l.092.276A3.49 3.49 0 0 1 12.501.75a3.5 3.5 0 1 1-1.911 6.434l.41-.628.41-.63A2 2 0 0 0 14.5 4.25"/></svg>