<svg width="16" height="16" fill="none" viewBox="0 0 16 16"><path fill="currentcolor" fill-rule="evenodd" d="M16 8h-3.5V6.5H16zm0 3.5h-3.5V10H16zm0 3.5H5v-1.5h11zM0 3a2 2 0 0 1 2-2h7a2 2 0 0 1 2 2v7a2 2 0 0 1-2 2H2a2 2 0 0 1-2-2zm2-.5a.5.5 0 0 0-.5.5v7a.5.5 0 0 0 .5.5h7a.5.5 0 0 0 .5-.5V3a.5.5 0 0 0-.5-.5z" clip-rule="evenodd"/><path fill="currentcolor" fill-rule="evenodd" d="M7.206 5.001a.75.75 0 0 1 .55.196l3 2.75-1.013 1.106-2.43-2.228-4.245 4.915-1.136-.98 4.75-5.5A.75.75 0 0 1 7.206 5" clip-rule="evenodd"/><path fill="currentcolor" d="M5 4.875a1.125 1.125 0 1 1-2.25 0 1.125 1.125 0 0 1 2.25 0"/></svg>