<svg width="16" height="16" fill="none" viewBox="0 0 16 16"><path fill="currentcolor" fill-rule="evenodd" d="M10.58 1.08a2 2 0 0 1 2.44 1.49l.92 4.04q.94.18 1.97.41l-.32 1.47C12.49 7.8 10.23 7.47 8 7.47S3.51 7.8.41 8.48L.09 7.02a73 73 0 0 1 1.97-.41l.92-4.03a2 2 0 0 1 2.44-1.5l2.46.62a.5.5 0 0 0 .24 0zM3.66 6.33C5.21 6.09 6.6 5.97 8 5.97s2.79.12 4.34.36l-.78-3.42a.5.5 0 0 0-.61-.37l-2.46.62a2 2 0 0 1-.97 0l-2.46-.61a.5.5 0 0 0-.61.37zm7.84 4.17a1.5 1.5 0 1 0 0 3 1.5 1.5 0 0 0 0-3m-3 1.5a3 3 0 1 1 6 0 3 3 0 0 1-6 0" clip-rule="evenodd"/><path fill="currentcolor" fill-rule="evenodd" d="M8 11.5c-.43 0-.825.134-1.15.363l-.863-1.226A3.5 3.5 0 0 1 8 10c.748 0 1.444.236 2.013.637l-.863 1.226A2 2 0 0 0 8 11.5" clip-rule="evenodd"/><path fill="currentcolor" fill-rule="evenodd" d="M4.5 10.5a1.5 1.5 0 1 0 0 3 1.5 1.5 0 0 0 0-3m-3 1.5a3 3 0 1 1 6 0 3 3 0 0 1-6 0" clip-rule="evenodd"/></svg>