<svg width="16" height="16" fill="none" viewBox="0 0 16 16"><path fill="currentcolor" fill-rule="evenodd" d="M6 .75A.75.75 0 0 1 6.75 0h6a.75.75 0 0 1 .75.75v6a.75.75 0 0 1-.75.75h-1.393c-.302 0-.591-.057-.857-.16v2.41a.75.75 0 0 1-.75.75H8.357a2.4 2.4 0 0 1-.857-.16v2.41a.75.75 0 0 1-.75.75H5.357A2.357 2.357 0 0 1 3 11.143V10.5h-.643A2.357 2.357 0 0 1 0 8.143V6.75A.75.75 0 0 1 .75 6h2.41A2.4 2.4 0 0 1 3 5.143V3.75A.75.75 0 0 1 3.75 3h2.41A2.4 2.4 0 0 1 6 2.143zM8.357 3H9.75a.75.75 0 0 1 .75.75v1.393c0 .473.384.857.857.857H12V1.5H7.5v.643c0 .473.384.857.857.857M9 4.5H4.5v.643c0 .473.384.857.857.857H6.75a.75.75 0 0 1 .75.75v1.393c0 .473.384.857.857.857H9zm-3 3H1.5v.643c0 .473.384.857.857.857H3.75a.75.75 0 0 1 .75.75v1.393c0 .473.384.857.857.857H6zm6.25 4.75V10h1.5v2.25H16v1.5h-2.25V16h-1.5v-2.25H10v-1.5z" clip-rule="evenodd"/></svg>