<svg width="16" height="16" fill="none" viewBox="0 0 16 16"><path fill="currentcolor" fill-rule="evenodd" d="M7 1.25A.75.75 0 0 1 7.75.5h7a.75.75 0 0 1 .75.75v7a.75.75 0 0 1-.75.75h-1.625A2.6 2.6 0 0 1 12 8.747v3.003a.75.75 0 0 1-.75.75H9.625a2.6 2.6 0 0 1-1.125-.253v3.003a.75.75 0 0 1-.75.75H6.125A2.625 2.625 0 0 1 3.5 13.375V12.5h-.875A2.625 2.625 0 0 1 0 9.875V8.25a.75.75 0 0 1 .75-.75h3.003A2.6 2.6 0 0 1 3.5 6.375V4.75A.75.75 0 0 1 4.25 4h3.003A2.6 2.6 0 0 1 7 2.875zM9.625 4h1.625a.75.75 0 0 1 .75.75v1.625c0 .621.504 1.125 1.125 1.125H14V2H8.5v.875C8.5 3.496 9.004 4 9.625 4m.875 1.5H5v.875C5 6.996 5.504 7.5 6.125 7.5H7.75a.75.75 0 0 1 .75.75v1.625c0 .621.504 1.125 1.125 1.125h.875zM7 9H1.5v.875c0 .621.504 1.125 1.125 1.125H4.25a.75.75 0 0 1 .75.75v1.625c0 .621.504 1.125 1.125 1.125H7z" clip-rule="evenodd"/></svg>