<svg width="16" height="16" fill="none" viewBox="0 0 16 16"><path fill="currentcolor" d="M11.223 9.717a.75.75 0 0 1 .962-.077l3.5 2.5a.75.75 0 0 1 0 1.22l-3.5 2.5a.75.75 0 0 1-1.05-1.04l.925-1.32H5.125a3.125 3.125 0 1 1 0-6.25h3.75a1.625 1.625 0 0 0 0-3.25H4.25V2.5h4.625a3.125 3.125 0 1 1 0 6.25h-3.75a1.625 1.625 0 0 0 0 3.25h6.935l-.924-1.32a.75.75 0 0 1 .087-.963"/><path fill="currentcolor" d="M3 3.25a.75.75 0 1 0-1.5 0 .75.75 0 0 0 1.5 0m1.5 0a2.25 2.25 0 1 1-4.5 0 2.25 2.25 0 0 1 4.5 0"/></svg>