<svg width="16" height="16" fill="none" viewBox="0 0 16 16"><path fill="currentcolor" d="M13.25 13.5h1.25v-11h-1.25zm-11.75-2h1.25v-9H1.5zm5.75-2h1.5v-7h-1.5zm-3 2.125c0 .76-.616 1.375-1.375 1.375h-1.5C.615 13 0 12.384 0 11.625v-9.25C0 1.615.616 1 1.375 1h1.5c.76 0 1.375.616 1.375 1.375zm6-2c0 .76-.616 1.375-1.375 1.375h-1.75c-.76 0-1.375-.616-1.375-1.375v-7.25C5.75 1.615 6.366 1 7.125 1h1.75c.76 0 1.375.616 1.375 1.375zm5.75 4c0 .76-.616 1.375-1.375 1.375h-1.5c-.76 0-1.375-.616-1.375-1.375V2.375c0-.76.616-1.375 1.375-1.375h1.5C15.385 1 16 1.616 16 2.375z"/></svg>