<svg width="16" height="16" fill="none" viewBox="0 0 16 16"><path fill="currentcolor" fill-rule="evenodd" d="M0 1.75A.75.75 0 0 1 .75 1h.5a.75.75 0 0 1 .75.75v12.5a.75.75 0 0 1-.75.75h-.5a.75.75 0 0 1-.75-.75zm3.5 0A.75.75 0 0 1 4.25 1h.5a.75.75 0 0 1 .75.75v12.5a.75.75 0 0 1-.75.75h-.5a.75.75 0 0 1-.75-.75zm3.5 0A.75.75 0 0 1 7.75 1h.5a.75.75 0 0 1 .75.75v12.5a.75.75 0 0 1-.75.75h-.5a.75.75 0 0 1-.75-.75zm3.5 0a.75.75 0 0 1 .75-.75h.5a.75.75 0 0 1 .75.75v12.5a.75.75 0 0 1-.75.75h-.5a.75.75 0 0 1-.75-.75zm3.5 0a.75.75 0 0 1 .75-.75h.5a.75.75 0 0 1 .75.75v12.5a.75.75 0 0 1-.75.75h-.5a.75.75 0 0 1-.75-.75z" clip-rule="evenodd"/></svg>