<svg width="16" height="16" fill="none" viewBox="0 0 16 16"><path fill="currentcolor" fill-rule="evenodd" d="M0 2.375C0 1.615.616 1 1.375 1h3.25C5.385 1 6 1.616 6 2.375v11.25C6 14.385 5.384 15 4.625 15h-3.25C.615 15 0 14.384 0 13.625zm1.5.125v11h3v-11zm6-.125C7.5 1.615 8.116 1 8.875 1h.75C10.385 1 11 1.616 11 2.375v11.25c0 .76-.616 1.375-1.375 1.375h-.75c-.76 0-1.375-.616-1.375-1.375zM9 2.5v11h.5v-11zm3.5-.125c0-.76.616-1.375 1.375-1.375h.75C15.385 1 16 1.616 16 2.375v11.25c0 .76-.616 1.375-1.375 1.375h-.75c-.76 0-1.375-.616-1.375-1.375zM14 2.5v11h.5v-11z" clip-rule="evenodd"/></svg>