<svg width="16" height="16" fill="none" viewBox="0 0 16 16"><path fill="currentcolor" fill-rule="evenodd" d="M0 1.75A.75.75 0 0 1 .75 1h1.375a.75.75 0 0 1 .75.75v12.5a.75.75 0 0 1-.75.75H.75a.75.75 0 0 1-.75-.75zm4.375 0a.75.75 0 0 1 .75-.75H6.5a.75.75 0 0 1 .75.75v12.5a.75.75 0 0 1-.75.75H5.125a.75.75 0 0 1-.75-.75zm4.375 0A.75.75 0 0 1 9.5 1h1.375a.75.75 0 0 1 .75.75v12.5a.75.75 0 0 1-.75.75H9.5a.75.75 0 0 1-.75-.75zm4.375 0a.75.75 0 0 1 .75-.75h1.375a.75.75 0 0 1 .75.75v12.5a.75.75 0 0 1-.75.75h-1.375a.75.75 0 0 1-.75-.75z" clip-rule="evenodd"/></svg>