<svg width="16" height="16" fill="none" viewBox="0 0 16 16"><path fill="currentcolor" fill-rule="evenodd" d="M0 2.375C0 1.615.616 1 1.375 1h.75c.76 0 1.375.616 1.375 1.375v11.25c0 .76-.616 1.375-1.375 1.375h-.75C.615 15 0 14.384 0 13.625zm1.5.125v11H2v-11zM5 2.375C5 1.615 5.616 1 6.375 1h.75c.76 0 1.375.616 1.375 1.375v11.25c0 .76-.616 1.375-1.375 1.375h-.75C5.615 15 5 14.384 5 13.625zm1.5.125v11H7v-11zm3.5-.125C10 1.615 10.616 1 11.375 1h3.25C15.385 1 16 1.616 16 2.375v11.25c0 .76-.616 1.375-1.375 1.375h-3.25c-.76 0-1.375-.616-1.375-1.375zm1.5.125v11h3v-11z" clip-rule="evenodd"/></svg>