<svg width="16" height="16" fill="none" viewBox="0 0 16 16"><path fill="currentcolor" d="m.47 1.53 14 14 1.06-1.06-14-14zm11.9 7.66-1.06-1.06 1.41-1.41a2.43 2.43 0 1 0-3.44-3.44L7.87 4.69 6.81 3.63l1.41-1.41a3.93 3.93 0 1 1 5.56 5.56z"/><path fill="currentcolor" d="m11.28 5.78-1.16 1.16-1.06-1.06 1.16-1.16zM4.69 7.87 3.63 6.81 2.22 8.22a3.93 3.93 0 1 0 5.56 5.56l1.41-1.41-1.06-1.06-1.41 1.41a2.43 2.43 0 0 1-3.44-3.44z"/><path fill="currentcolor" d="m5.78 11.28 1.16-1.159-1.061-1.06-1.16 1.159z"/></svg>