<svg width="16" height="16" fill="none" viewBox="0 0 16 16"><path fill="currentcolor" d="m8.751 5.198 2.6-4.503 1.3.75-2.604 4.507 4.507-2.6.75 1.298-4.505 2.6H16v1.5h-5.203l4.506 2.602-.75 1.298-4.504-2.6 2.6 4.502-1.3.75L8.752 10.8V16h-1.5v-5.205l-2.6 4.507-1.3-.75L5.95 10.05l-4.502 2.6-.75-1.298L5.202 8.75H0v-1.5h5.2L.696 4.65l.75-1.298 4.505 2.6L3.35 1.445l1.298-.75 2.603 4.508V0h1.5zM8 5.75q-.244.002-.472.053A2.24 2.24 0 0 0 5.81 8.5c.081.36.248.688.48.96l.001-.001c.328.383.782.654 1.299.749l-.002.001q.2.04.412.041c.202 0 .398-.03.584-.081a2.24 2.24 0 0 0 1.56-1.5c.066-.211.106-.435.106-.669a2 2 0 0 0-.04-.41 2.24 2.24 0 0 0-.75-1.299l.002-.001a2.2 2.2 0 0 0-.711-.411v.002A2.2 2.2 0 0 0 8 5.75"/></svg>