<svg width="16" height="16" fill="none" viewBox="0 0 16 16"><path fill="currentcolor" d="M4.585 2.603a2 2 0 0 1 2.432-.304L5.682 3.634q-.019.014-.036.03L1.664 7.646a.5.5 0 0 0 0 .707l3.982 3.983.026.021 1.344 1.344a2 2 0 0 1-2.43-.305L.602 9.414a2 2 0 0 1 0-2.828z"/><path fill="currentcolor" d="M8.586 2.604a2 2 0 0 1 2.828 0l3.983 3.982a2 2 0 0 1 0 2.828l-3.983 3.983a2 2 0 0 1-2.828 0L4.604 9.414a2 2 0 0 1 0-2.828zm1.768 1.06a.5.5 0 0 0-.708 0L5.664 7.646a.5.5 0 0 0 0 .708l3.982 3.982a.5.5 0 0 0 .707 0l3.983-3.982a.5.5 0 0 0 0-.708z"/></svg>