<svg width="16" height="16" fill="none" viewBox="0 0 16 16"><path fill="currentcolor" d="M4.9 8.93a11.36 11.36 0 0 1 6.2 0 10.7 10.7 0 0 1 4.68 2.75.75.75 0 0 1 0 1.06l-2.03 2.04a.75.75 0 0 1-.9.13l-2.14-1.2a1.58 1.58 0 0 1-.8-1.52l.18-1.96a9.9 9.9 0 0 0-4.18 0l.18 1.96a1.58 1.58 0 0 1-.8 1.52l-2.14 1.2a.75.75 0 0 1-.9-.13L.22 12.74a.75.75 0 0 1 0-1.06A10.7 10.7 0 0 1 4.9 8.93m-.46 1.74a9.2 9.2 0 0 0-2.61 1.56l1.08 1.09 1.65-.92a.08.08 0 0 0 .04-.07zm6.96 1.66a.08.08 0 0 0 .04.08l1.65.92 1.08-1.09a9.2 9.2 0 0 0-2.61-1.56zM14 5.5h-1.5V3.06L8.97 6.59a1.38 1.38 0 0 1-1.95 0L3.47 3.03l1.06-1.06L8 5.44 11.44 2H9V.5h4.25a.75.75 0 0 1 .75.75z"/></svg>