<svg width="16" height="16" fill="none" viewBox="0 0 16 16"><path fill="currentcolor" fill-rule="evenodd" d="M3.25 3.5a.75.75 0 1 0 0 1.5.75.75 0 0 0 0-1.5M1 4.25a2.25 2.25 0 1 1 4.5 0 2.25 2.25 0 0 1-4.5 0M3.25 11a.75.75 0 1 0 0 1.5.75.75 0 0 0 0-1.5M1 11.75a2.25 2.25 0 1 1 4.5 0 2.25 2.25 0 0 1-4.5 0" clip-rule="evenodd"/><path fill="currentcolor" fill-rule="evenodd" d="M4 3.5h11V5H4z" clip-rule="evenodd"/><path fill="currentcolor" fill-rule="evenodd" d="M10.75 4.25v6.25a2 2 0 0 1-2 2H4V11h4.75a.5.5 0 0 0 .5-.5V4.25z" clip-rule="evenodd"/></svg>