<svg width="16" height="16" fill="none" viewBox="0 0 16 16"><path fill="currentcolor" fill-rule="evenodd" d="M3.25 3.5a.75.75 0 1 0 0 1.5.75.75 0 0 0 0-1.5M1 4.25a2.25 2.25 0 1 1 4.5 0 2.25 2.25 0 0 1-4.5 0M3.25 11a.75.75 0 1 0 0 1.5.75.75 0 0 0 0-1.5M1 11.75a2.25 2.25 0 1 1 4.5 0 2.25 2.25 0 0 1-4.5 0" clip-rule="evenodd"/><path fill="currentcolor" fill-rule="evenodd" d="M4 11h11v1.5H4z" clip-rule="evenodd"/><path fill="currentcolor" fill-rule="evenodd" d="M8.75 5H4V3.5h4.75a2 2 0 0 1 2 2v6.25h-1.5V5.5a.5.5 0 0 0-.5-.5" clip-rule="evenodd"/></svg>