<svg width="16" height="16" fill="none" viewBox="0 0 16 16"><path fill="currentcolor" fill-rule="evenodd" d="M13.5 3a.5.5 0 0 0-.5-.5H3a.5.5 0 0 0-.5.5v10a.5.5 0 0 0 .5.5h4.5V15H3a2 2 0 0 1-2-2V3a2 2 0 0 1 2-2h10a2 2 0 0 1 2 2v4.5h-1.5zM12 6H4V4.5h8zM9 9.5H4V8h5z" clip-rule="evenodd"/><path fill="currentcolor" d="m8.59 12.207 3.093-4.488c.314-.456 1.026-.14.898.4l-.481 2.014a.25.25 0 0 0 .243.308h2.16a.5.5 0 0 1 .412.783l-3.093 4.489c-.315.455-1.027.138-.898-.4l.48-2.014a.25.25 0 0 0-.243-.308h-2.16a.5.5 0 0 1-.412-.784"/></svg>