<svg width="16" height="16" fill="none" viewBox="0 0 16 16"><path fill="currentcolor" fill-rule="evenodd" d="M1.792 14.446a.188.188 0 0 1-.238-.238l1.711-5.132 3.66 3.659zm6.723-2.242-4.72-4.72.533-1.596 5.784 5.784zm-8.384 1.53c-.44 1.32.816 2.574 2.135 2.135l8.512-2.838a1.375 1.375 0 0 0 .537-2.276L7.811 7.25l.952-.952a3.25 3.25 0 0 0 0-4.596L8.53 1.47 7.47 2.53l.232.233a1.75 1.75 0 0 1 0 2.474l-.952.952-1.505-1.504a1.375 1.375 0 0 0-2.276.537zM5.5 1H4v1.5h1.5zm5.53 7.03.982-.982a1.75 1.75 0 0 1 2.475 0l.233.232 1.06-1.06-.232-.233a3.25 3.25 0 0 0-4.596 0l-.982.983zM15 8.5h-1.5V10H15zM13 1h-1.5v1.5H13z" clip-rule="evenodd"/></svg>