<svg width="17" height="16" fill="none" viewBox="0 0 17 16"><path fill="currentcolor" d="M0 6.25c0-1.8.598-3.134 1.538-4.016C2.465 1.366 3.658 1 4.75 1 6.878 1 8.074 2.093 8.7 3.191A5.5 5.5 0 0 1 9.37 5.3l.414 4.06a2.625 2.625 0 0 1-2.611 2.891H6.75V15h-1.5v-3.5a.75.75 0 0 1 .75-.75h1.174c.666 0 1.187-.576 1.119-1.24l-.414-4.059-.002-.021v-.002l-.002-.018-.01-.087a4 4 0 0 0-.47-1.39C6.988 3.22 6.247 2.5 4.75 2.5c-.773 0-1.58.26-2.187.828C1.97 3.884 1.5 4.8 1.5 6.25c0 .9.385 2.078.763 2.998.373.91.537 1.942.327 2.964l-.606 2.94-1.468-.303.604-2.94c.139-.673.039-1.399-.245-2.09C.49 8.88 0 7.465 0 6.25m14.155-2.222a6.5 6.5 0 0 1 0 9.194l-1.06-1.062a5 5 0 0 0 0-7.07zm-2.048 2.3a3.25 3.25 0 0 1 0 4.595l-1.06-1.06a1.75 1.75 0 0 0 0-2.475z"/></svg>