<svg width="16" height="16" fill="none" viewBox="0 0 16 16"><path fill="currentcolor" d="M1 12.75A3.75 3.75 0 0 1 4.75 9H9v1.5H4.75a2.25 2.25 0 0 0-2.25 2.25V15H1zM9.5 4a2.5 2.5 0 1 0-5 0 2.5 2.5 0 0 0 5 0M11 4a4 4 0 1 1-8 0 4 4 0 0 1 8 0"/><path fill="currentcolor" fill-rule="evenodd" d="M13 8.5a2 2 0 0 1 2 2v1.253c.558.032 1 .494 1 1.06v2.124c0 .587-.476 1.063-1.062 1.063h-3.876A1.063 1.063 0 0 1 10 14.938v-2.126c0-.565.442-1.027 1-1.06V10.5a2 2 0 0 1 2-2m0 1.5a.5.5 0 0 0-.5.5v1.25h1V10.5a.5.5 0 0 0-.5-.5" clip-rule="evenodd"/></svg>