<svg width="16" height="16" fill="none" viewBox="0 0 16 16"><path fill="currentcolor" d="M12.18 7.54c.84.6 1.67 1.62 1.8 3.26L9.5 6.32V3.25a.75.75 0 0 1 .11-.39l.82-1.36H5.58l.82 1.36a.75.75 0 0 1 .11.39v.07L4.07.89A1.37 1.37 0 0 1 5.35 0h5.29a1.38 1.38 0 0 1 1.18 2.08L11 3.46v3.48c.33.12.75.31 1.18.61m-8.03-.22 1.11 1.11c-.18.08-.38.19-.58.33a2.7 2.7 0 0 0-1.11 1.73h3.75l1.5 1.5h-.07v4h-1.5v-4h-4.5a.75.75 0 0 1-.75-.75c0-1.9.9-3.05 1.82-3.71a5 5 0 0 1 .33-.21M.47 1.53l14 14 1.06-1.06-14-14z"/></svg>