<svg width="16" height="16" fill="none" viewBox="0 0 16 16"><path fill="currentcolor" d="M14.5 8A2.5 2.5 0 0 0 12 5.5c-.763 0-1.334.298-1.852.803-.546.532-.998 1.26-1.51 2.09-.488.794-1.036 1.692-1.74 2.379C6.166 11.485 5.238 12 4 12a4 4 0 0 1-.082-7.999l-.37-.987a.75.75 0 0 1 1.17-.85l2.5 2a.75.75 0 0 1 0 1.172l-2.5 2a.75.75 0 0 1-1.17-.85l.368-.982A2.498 2.498 0 0 0 4 10.5c.763 0 1.334-.297 1.852-.802.545-.533.998-1.26 1.51-2.091.488-.794 1.036-1.692 1.74-2.378C9.834 4.515 10.762 4 12 4a4 4 0 0 1 0 8c-1.313 0-2.275-.58-3.023-1.354l1.079-1.041c.545.564 1.14.895 1.944.895A2.5 2.5 0 0 0 14.5 8"/></svg>