<svg width="16" height="16" fill="none" viewBox="0 0 16 16"><path fill="currentcolor" d="M8.124 7.351a.75.75 0 0 1 .748-.003l3.5 2a.75.75 0 0 1 0 1.303l-3.5 2A.75.75 0 0 1 7.75 12V8a.75.75 0 0 1 .374-.649"/><path fill="currentcolor" d="M4 6.624A2.626 2.626 0 0 1 6.625 4h4.052l-.34-1.6a1.125 1.125 0 0 0-1.334-.866L2.4 2.937a1.124 1.124 0 0 0-.866 1.334l1.403 6.602c.11.517.558.873 1.063.889zm1.5 6.75c0 .621.504 1.125 1.125 1.125h6.75c.621 0 1.125-.503 1.125-1.125v-6.75c0-.62-.504-1.125-1.125-1.125h-6.75c-.621 0-1.125.504-1.125 1.125zm10.5 0A2.625 2.625 0 0 1 13.375 16h-6.75A2.625 2.625 0 0 1 4 13.374v-.112a2.624 2.624 0 0 1-2.53-2.077L.065 4.582A2.626 2.626 0 0 1 2.09 1.47L8.69.066a2.626 2.626 0 0 1 3.114 2.022L12.211 4h1.164A2.625 2.625 0 0 1 16 6.624z"/></svg>