<svg width="16" height="16" fill="none" viewBox="0 0 16 16"><path fill="currentcolor" d="M8.69.058a2.63 2.63 0 0 1 3.116 2.024l.406 1.912h1.165a2.626 2.626 0 0 1 2.626 2.626v6.754A2.626 2.626 0 0 1 13.377 16H6.623a2.626 2.626 0 0 1-2.626-2.626v-.112a2.63 2.63 0 0 1-2.532-2.08L.062 4.578a2.627 2.627 0 0 1 2.023-3.115zm.467 11.013L7.97 9.544l-1.184.923 1.751 2.251a.75.75 0 0 0 1.162.027l3.752-4.377-1.14-.977zm1.18-8.677a1.126 1.126 0 0 0-1.335-.867L2.397 2.93c-.608.13-.997.727-.867 1.335l1.404 6.605c.11.517.558.874 1.063.89V6.62a2.626 2.626 0 0 1 2.626-2.627h4.055z"/></svg>