<svg width="16" height="16" fill="none" viewBox="0 0 16 16"><path fill="currentcolor" d="m12.78 8.28-1.72 1.719 1.72 1.72-1.06 1.06L10 11.06l-1.72 1.72-1.06-1.06L8.94 10 7.22 8.28l1.06-1.06L10 8.939l1.72-1.72z"/><path fill="currentcolor" d="M3.999 6.624A2.626 2.626 0 0 1 6.624 4h4.053l-.341-1.6a1.124 1.124 0 0 0-1.334-.866L2.399 2.937a1.124 1.124 0 0 0-.866 1.334l1.403 6.602c.11.517.558.873 1.063.889zm1.5 6.75c0 .621.504 1.125 1.125 1.125h6.75c.621 0 1.125-.503 1.125-1.125v-6.75c0-.62-.504-1.125-1.125-1.125h-6.75c-.621 0-1.125.504-1.125 1.125zm10.5 0A2.625 2.625 0 0 1 13.374 16h-6.75a2.625 2.625 0 0 1-2.625-2.625v-.112a2.624 2.624 0 0 1-2.53-2.077L.064 4.582A2.626 2.626 0 0 1 2.088 1.47L8.689.066a2.626 2.626 0 0 1 3.114 2.022L12.21 4h1.164a2.625 2.625 0 0 1 2.625 2.625z"/></svg>