<svg width="16" height="16" fill="none" viewBox="0 0 16 16"><path fill="currentcolor" fill-rule="evenodd" d="M3 2.5a2 2 0 0 0-2 2V13a2 2 0 0 0 2 2h8.5a2 2 0 0 0 2-2v-2.75H12V13a.5.5 0 0 1-.5.5H3a.5.5 0 0 1-.5-.5V4.5A.5.5 0 0 1 3 4h3V2.5z" clip-rule="evenodd"/><path fill="currentcolor" fill-rule="evenodd" d="M6 8.94V6.5H4.5v4.25a.75.75 0 0 0 .75.75H9.5V10H7.06l2.22-2.22-1.06-1.06z" clip-rule="evenodd"/><path fill="currentcolor" fill-rule="evenodd" d="M14 8a2 2 0 0 0 2-2V2a2 2 0 0 0-2-2h-4a2 2 0 0 0-2 2v4a2 2 0 0 0 2 2zm.5-2a.5.5 0 0 1-.5.5h-4a.5.5 0 0 1-.5-.5V2a.5.5 0 0 1 .5-.5h4a.5.5 0 0 1 .5.5z" clip-rule="evenodd"/></svg>