<svg width="16" height="16" fill="none" viewBox="0 0 16 16"><path fill="currentcolor" d="M15.78 11.22a.75.75 0 0 1 .052 1.004l-.052.056-2.5 2.5-1.06-1.06 1.22-1.22h-2.845a2 2 0 0 1-1.552-.74l-1.124-1.382.967-1.189 1.321 1.626a.5.5 0 0 0 .388.185h2.845l-1.22-1.22 1.06-1.06z"/><path fill="currentcolor" d="m15.78 3.72.05.06a.75.75 0 0 1-.05 1l-2.5 2.5-1.06-1.06L13.44 5H10.6a.5.5 0 0 0-.39.19l-5.75 7.08a2 2 0 0 1-1.55.73H0v-1.5h2.91a.5.5 0 0 0 .39-.18l5.75-7.08a2 2 0 0 1 1.55-.74h2.85l-1.22-1.22 1.06-1.06zM2.91 3a2 2 0 0 1 1.55.74l1.53 1.88-.97 1.19-1.73-2.13a.5.5 0 0 0-.39-.18H0V3z"/></svg>