<svg width="16" height="16" fill="none" viewBox="0 0 16 16"><path fill="currentcolor" d="M8.75 13.75a.748.748 0 1 0-1.5 0 .75.75 0 0 0 1.5 0M3.5 9.25a.75.75 0 1 0-1.5 0 .75.75 0 0 0 1.5 0m1.5 0c0 .35-.083.679-.225.974L6.718 11.9A2.24 2.24 0 0 1 8 11.5c.477 0 .918.15 1.281.401l1.943-1.677a2.24 2.24 0 0 1 .268-2.38L8.833 4.34a2.24 2.24 0 0 1-1.667 0l-2.66 3.506c.309.384.494.873.494 1.405m7.5 0c0 .217.091.41.24.549a.75.75 0 1 0-.24-.549m-3.75-7a.75.75 0 1 0-1.5 0 .75.75 0 0 0 1.5 0m1.5 0c0 .398-.105.772-.287 1.097l2.81 3.705Q13.005 7 13.25 7a2.25 2.25 0 1 1-.958 4.283l-2.132 1.841a2.25 2.25 0 1 1-4.321 0l-2.132-1.84a2.25 2.25 0 1 1-.481-4.231l2.81-3.706A2.25 2.25 0 1 1 10.25 2.25"/></svg>