<svg width="16" height="16" fill="none" viewBox="0 0 16 16"><path fill="currentcolor" d="M14.5 5.518a.5.5 0 0 0-.146-.354l-3.518-3.518a.5.5 0 0 0-.354-.146H5.518a.5.5 0 0 0-.354.146L1.646 5.164a.5.5 0 0 0-.146.354v4.964a.5.5 0 0 0 .146.354l3.518 3.518a.5.5 0 0 0 .354.146h4.964a.5.5 0 0 0 .354-.146l3.518-3.518a.5.5 0 0 0 .146-.354zm1.5 4.964a2 2 0 0 1-.586 1.415l-3.517 3.517a2 2 0 0 1-1.415.586H5.518a2 2 0 0 1-1.414-.586L.586 11.897A2 2 0 0 1 0 10.482V5.518a2 2 0 0 1 .586-1.414L4.104.586A2 2 0 0 1 5.518 0h4.964a2 2 0 0 1 1.415.586l3.517 3.518A2 2 0 0 1 16 5.518z"/><path fill="currentcolor" d="M8.75 3.5V9h-1.5V3.5zm-.75 7a1 1 0 1 1 0 2 1 1 0 0 1 0-2"/></svg>