<svg width="16" height="16" fill="none" viewBox="0 0 16 16"><path fill="currentcolor" d="M1.5 10.75v3.207l2.378-1.358.744 1.302-3.5 2A.75.75 0 0 1 0 15.25v-4.5zm8.25 1.75V14h-3.5v-1.5zm4.75-1.125v-.625H16v.625A2.625 2.625 0 0 1 13.375 14H12.25v-1.5h1.125c.621 0 1.125-.504 1.125-1.125M1.5 6.25V9H0V6.25zm14.5 0V9h-1.5V6.25zM0 3.125A2.625 2.625 0 0 1 2.625.5H4V2H2.625C2.004 2 1.5 2.504 1.5 3.125V4.25H0zm14.5 0C14.5 2.504 13.996 2 13.375 2H12V.5h1.375A2.625 2.625 0 0 1 16 3.125V4.25h-1.5zM9.75.5V2h-3.5V.5z"/></svg>