<svg width="16" height="16" fill="none" viewBox="0 0 16 16"><path fill="currentcolor" d="M14.5 12.75a.5.5 0 0 0-.5-.5h-2a.5.5 0 0 0-.5.5v.5a.5.5 0 0 0 .5.5h2a.5.5 0 0 0 .5-.5zm0-10a.5.5 0 0 0-.5-.5h-2a.5.5 0 0 0-.5.5v.5a.5.5 0 0 0 .5.5h2a.5.5 0 0 0 .5-.5zm-13 5.5a.5.5 0 0 0 .5.5h2a.5.5 0 0 0 .5-.5v-.5a.5.5 0 0 0-.5-.5H2a.5.5 0 0 0-.5.5zm14.5-5a2 2 0 0 1-2 2h-2a2 2 0 0 1-1.935-1.5H9.25a.5.5 0 0 0-.5.5v7.5a.5.5 0 0 0 .5.5h.815A2 2 0 0 1 12 10.75h2a2 2 0 0 1 2 2v.5a2 2 0 0 1-2 2h-2a2 2 0 0 1-1.935-1.5H9.25a2 2 0 0 1-2-2v-3H5.935A2 2 0 0 1 4 10.25H2a2 2 0 0 1-2-2v-.5a2 2 0 0 1 2-2h2a2 2 0 0 1 1.935 1.5H7.25v-3a2 2 0 0 1 2-2h.815A2 2 0 0 1 12 .75h2a2 2 0 0 1 2 2z"/></svg>