<svg width="16" height="16" fill="none" viewBox="0 0 16 16"><path fill="currentcolor" d="M8 1c1.715 0 3.299.23 4.48.624.586.196 1.116.446 1.513.759.39.306.757.763.757 1.367v8.5c0 .604-.368 1.06-.757 1.367-.397.313-.927.563-1.514.759C11.3 14.77 9.716 15 8 15s-3.299-.23-4.48-.624c-.586-.195-1.116-.445-1.513-.759-.39-.307-.757-.763-.757-1.367v-8.5c0-.604.368-1.06.757-1.367.397-.313.927-.563 1.514-.759C4.7 1.23 6.285 1 8 1m5.25 4.567q-.362.172-.77.309C11.299 6.27 9.715 6.5 8 6.5s-3.299-.23-4.48-.624a7 7 0 0 1-.77-.309v6.67c.006.018.04.087.186.203.21.165.559.347 1.058.513.99.33 2.407.547 4.006.547s3.015-.217 4.006-.547c.499-.166.849-.348 1.059-.513.146-.116.179-.185.185-.203zM8 2.5c-1.599 0-3.015.217-4.006.547-.499.166-.849.348-1.058.514a.7.7 0 0 0-.181.189.7.7 0 0 0 .18.19c.21.165.56.347 1.06.513C4.984 4.783 6.4 5 8 5s3.015-.217 4.006-.547c.499-.166.849-.348 1.059-.514a.6.6 0 0 0 .18-.189.6.6 0 0 0-.18-.19c-.21-.165-.56-.347-1.06-.513C11.016 2.717 9.6 2.5 8 2.5"/></svg>