<svg width="16" height="16" fill="none" viewBox="0 0 16 16"><path fill="currentcolor" d="M14.5 6a.5.5 0 0 0-.5-.5H4.5A.5.5 0 0 0 4 6v5.815l2.099 1.323.123.071a1.75 1.75 0 0 0 1.941-.217l1.785-1.515.213-.165a3.25 3.25 0 0 1 3.694-.06l.645.43zm1.5 6.618a1 1 0 0 1-1.428.905l-.127-.073-1.424-.949a1.75 1.75 0 0 0-1.988.031l-.114.09-1.785 1.514a3.25 3.25 0 0 1-3.606.403l-.23-.132-2.331-1.469a1 1 0 0 1-.467-.846V6a2 2 0 0 1 2-2h8v-.5A.5.5 0 0 0 12 3H2a.5.5 0 0 0-.5.5v7H0v-7a2 2 0 0 1 2-2h10a2 2 0 0 1 2 2V4a2 2 0 0 1 2 2z"/></svg>