<svg width="16" height="16" fill="none" viewBox="0 0 16 16"><path fill="currentcolor" d="M15.25 8c0 1.784-.24 3.43-.648 4.656-.202.61-.46 1.156-.783 1.567-.316.401-.783.777-1.4.777H3.58c-.616 0-1.083-.376-1.4-.777-.322-.41-.58-.958-.783-1.567C.99 11.43.75 9.784.75 8s.24-3.43.647-4.656c.203-.61.46-1.156.784-1.567.316-.401.783-.777 1.4-.777h8.839c.616 0 1.083.376 1.4.777.322.41.58.958.782 1.567.409 1.226.648 2.872.648 4.656m-4.672 5.5a7 7 0 0 1-.34-.844C9.828 11.43 9.59 9.784 9.59 8s.24-3.43.647-4.656c.1-.3.214-.584.341-.844h-6.99c-.013.003-.092.032-.229.205-.174.222-.364.59-.538 1.112C2.477 4.853 2.25 6.332 2.25 8s.227 3.147.571 4.183c.174.521.364.89.538 1.112.137.173.216.201.23.205zM13.75 8c0-1.668-.226-3.147-.571-4.183-.174-.521-.364-.89-.538-1.112-.118-.15-.194-.19-.221-.201-.027.01-.102.052-.22.201-.175.222-.365.59-.539 1.112-.345 1.036-.571 2.515-.571 4.183s.226 3.147.571 4.183c.174.521.364.89.54 1.112.117.15.192.19.219.201.027-.01.103-.051.22-.201.175-.222.365-.59.539-1.112.345-1.036.571-2.515.571-4.183"/></svg>