<svg width="16" height="16" fill="none" viewBox="0 0 16 16"><path fill="currentcolor" d="m10.213 11.918.037-.02.037-.022c1.3-.753 2.5-1.566 3.523-2.38a5.98 5.98 0 0 1-2.81 3.7 5.98 5.98 0 0 1-4.61.584 29 29 0 0 0 3.823-1.862"/><path fill="currentcolor" fill-rule="evenodd" d="M.206 12.5c-.21-.365-.222-.762-.149-1.11.072-.343.232-.681.432-1.002.35-.559.883-1.162 1.541-1.774a6 6 0 0 1 9.487-5.477c.858-.264 1.648-.424 2.307-.447.377-.013.75.017 1.083.126.338.111.677.32.887.684.186.322.219.664.17.988a2.7 2.7 0 0 1-.276.812c-.276.539-.738 1.113-1.308 1.689-1.148 1.158-2.866 2.446-4.88 3.609s-3.988 2.007-5.566 2.422c-.783.206-1.511.318-2.116.288C1.253 13.28.56 13.113.206 12.5m3.36-3.725a4.502 4.502 0 0 1 8.778-1.954c-.962.808-2.191 1.668-3.594 2.478s-2.762 1.444-3.943 1.873a4.5 4.5 0 0 1-1.241-2.397M2.804 11q.197.342.431.648c-.563.129-1.015.178-1.344.162-.22-.01-.327-.046-.373-.068l.007-.045c.023-.108.09-.28.237-.514a6 6 0 0 1 .697-.88q.147.355.345.697m10.392-6a6 6 0 0 0-.431-.648 6 6 0 0 1 1.11-.163c.277-.01.459.018.564.052l.043.016c-.005.052-.028.162-.128.358-.15.292-.419.659-.813 1.082A6 6 0 0 0 13.196 5" clip-rule="evenodd"/></svg>