<svg width="16" height="16" fill="none" viewBox="0 0 16 16"><path fill="currentcolor" d="M13.809 9.496a5.98 5.98 0 0 1-2.809 3.7 5.98 5.98 0 0 1-4.608.584 29.4 29.4 0 0 0 3.858-1.882 29.4 29.4 0 0 0 3.559-2.402"/><path fill="currentcolor" fill-rule="evenodd" d="M5 2.804a6 6 0 0 1 6.515.333c.859-.264 1.65-.424 2.308-.447.377-.013.751.017 1.083.126.338.11.678.32.888.684.354.613.152 1.297-.107 1.8-.276.539-.736 1.113-1.306 1.689q-.197.195-.413.396c-.444.413-.954.837-1.517 1.263a29 29 0 0 1-2.951 1.95 29 29 0 0 1-3.165 1.581 20 20 0 0 1-1.85.683l-.003-.001q-.28.087-.548.159c-.783.206-1.511.318-2.116.288-.505-.025-1.114-.162-1.49-.63l-.052-.068-.07-.11-.07-.138a1.6 1.6 0 0 1-.078-.973c.071-.342.231-.681.431-1.001.35-.559.883-1.164 1.541-1.775A6 6 0 0 1 5 2.804m-2.541 7.499c-.302.324-.536.62-.698.879-.147.235-.213.407-.236.516l-.004.045c.048.022.155.056.37.067.329.016.78-.036 1.343-.165a6 6 0 0 1-.775-1.342m8.429-5.756A4.502 4.502 0 0 0 3.52 8.435l.045.34c.089.504.265 1.004.538 1.475.198.344.435.652.702.921 1.181-.43 2.542-1.062 3.945-1.872s2.63-1.672 3.593-2.48a4.5 4.5 0 0 0-1.31-2.146zm2.987-.36c-.306.011-.68.067-1.111.166q.233.306.432.647.196.341.342.696c.394-.424.665-.79.816-1.081.098-.192.121-.302.127-.355q-.016-.009-.041-.018c-.106-.035-.288-.064-.565-.054" clip-rule="evenodd"/></svg>