<svg width="16" height="16" fill="none" viewBox="0 0 16 16"><path fill="currentcolor" fill-rule="evenodd" d="M4.074 3.007A2.625 2.625 0 0 1 6.67 0h2.658a2.625 2.625 0 0 1 2.597 3.007L11.118 8.5h1.257A2.625 2.625 0 0 1 15 11.125v1.625a.75.75 0 0 1-.75.75H1.75a.75.75 0 0 1-.75-.75v-1.625A2.625 2.625 0 0 1 3.625 8.5h1.257zM6.67 1.5c-.687 0-1.213.61-1.113 1.289l.934 6.352A.75.75 0 0 1 5.75 10H3.625c-.621 0-1.125.504-1.125 1.125V12h11v-.875c0-.621-.504-1.125-1.125-1.125H10.25a.75.75 0 0 1-.742-.86l.934-6.351c.1-.68-.426-1.289-1.113-1.289zM13.5 16h-11v-1.5h11z" clip-rule="evenodd"/></svg>