<svg width="16" height="16" fill="none" viewBox="0 0 16 16"><path fill="currentcolor" fill-rule="evenodd" d="M6.5 7.875c0-.76.616-1.375 1.375-1.375h6.75c.76 0 1.375.616 1.375 1.375v6.75c0 .76-.616 1.375-1.375 1.375h-6.75c-.76 0-1.375-.616-1.375-1.375zM8 8v6.5h6.5V8z" clip-rule="evenodd"/><path fill="currentcolor" d="M5.955.235a1.38 1.38 0 0 0-1.41 0L.67 2.549C.254 2.797 0 3.246 0 3.73v4.29c0 .484.254.933.67 1.18l3.875 2.315q.216.128.455.172V10.04L1.5 7.95V3.8l3.75-2.239L9 3.801V5h1.5V3.73c0-.484-.255-.933-.67-1.18z"/></svg>