<svg width="16" height="16" fill="none" viewBox="0 0 16 16"><path fill="currentcolor" fill-rule="evenodd" d="M11.84 5.85a2 2 0 0 1 2.83 0l.73.73a2 2 0 0 1 0 2.83l-5.14 5.14a2 2 0 0 1-.86.51l-3.19.91a.75.75 0 0 1-.93-.93l.91-3.19a2 2 0 0 1 .51-.86zm1.77 1.06a.5.5 0 0 0-.71 0l-.59.59 1.44 1.44.59-.59a.5.5 0 0 0 0-.71zM12.69 10l-1.44-1.44-3.49 3.49a.5.5 0 0 0-.13.22l-.54 1.89 1.89-.54a.5.5 0 0 0 .22-.13zM4.75 0c.31 0 .59.19.7.48l1 2.57 2.57 1a.75.75 0 0 1 0 1.4l-2.57 1-1 2.57a.75.75 0 0 1-1.4 0l-1-2.57-2.57-1a.75.75 0 0 1 0-1.4l2.57-1 1-2.57a.75.75 0 0 1 .7-.48m0 2.82L4.33 3.9a.75.75 0 0 1-.43.43l-1.08.42 1.08.42a.75.75 0 0 1 .43.43l.42 1.08.42-1.08a.75.75 0 0 1 .43-.43l1.08-.42-1.08-.42a.75.75 0 0 1-.43-.43z" clip-rule="evenodd"/></svg>