<svg width="16" height="16" fill="none" viewBox="0 0 16 16"><path fill="currentcolor" d="M14.25 1a.75.75 0 0 1 .75.75v7.5a.75.75 0 0 1-.75.75H1.75A.75.75 0 0 1 1 9.25v-7.5A.75.75 0 0 1 1.75 1zM2.5 8.5h11V6.25h-11zm0-3.75h11V2.5h-11zm-.75 8.75a.75.75 0 1 1 0 1.5.75.75 0 0 1 0-1.5m2.5 0a.75.75 0 1 1 0 1.5.75.75 0 0 1 0-1.5m2.5 0a.75.75 0 1 1 0 1.5.75.75 0 0 1 0-1.5m2.5 0a.75.75 0 1 1 0 1.5.75.75 0 0 1 0-1.5m2.5 0a.75.75 0 1 1 0 1.5.75.75 0 0 1 0-1.5m2.5 0a.75.75 0 1 1 0 1.5.75.75 0 0 1 0-1.5M1.75 11a.75.75 0 1 1 0 1.5.75.75 0 0 1 0-1.5m12.5 0a.75.75 0 1 1 0 1.5.75.75 0 0 1 0-1.5"/></svg>