<svg width="16" height="16" fill="none" viewBox="0 0 16 16"><path fill="currentcolor" fill-rule="evenodd" d="M5 1.5a2.5 2.5 0 1 0 0 5 2.5 2.5 0 0 0 0-5M1 4a4 4 0 1 1 8 0 4 4 0 0 1-8 0m2.75 6.5a2.25 2.25 0 0 0-2.25 2.25V15H0v-2.25A3.75 3.75 0 0 1 3.75 9h2.5A3.75 3.75 0 0 1 10 12.75V15H8.5v-2.25a2.25 2.25 0 0 0-2.25-2.25z" clip-rule="evenodd"/><path fill="currentcolor" d="m13 9.444-1.526 1.047a.332.332 0 0 1-.51-.36l.48-1.788-1.315-1.097a.332.332 0 0 1 .187-.587l1.712-.131.662-1.721a.332.332 0 0 1 .62 0l.662 1.72 1.712.132a.332.332 0 0 1 .187.587l-1.315 1.097.48 1.787a.332.332 0 0 1-.51.36z"/></svg>