<svg width="16" height="16" fill="none" viewBox="0 0 16 16"><path fill="currentcolor" d="M9 2.5a1 1 0 1 0-2 0 1 1 0 0 0 2 0m1.5 0a2.5 2.5 0 1 1-5 0 2.5 2.5 0 0 1 5 0M3 8a.75.75 0 1 0-1.5 0A.75.75 0 0 0 3 8m1.5 0A2.25 2.25 0 1 1 0 8a2.25 2.25 0 0 1 4.5 0m10 0A.75.75 0 1 0 13 8a.75.75 0 0 0 1.5 0M16 8a2.25 2.25 0 1 1-4.5 0A2.25 2.25 0 0 1 16 8m-7.25 5.75a.75.75 0 1 0-1.5 0 .75.75 0 0 0 1.5 0m1.5 0a2.25 2.25 0 1 1-4.5 0 2.25 2.25 0 0 1 4.5 0"/><path fill="currentcolor" d="M2.78 8.53a.746.746 0 0 0 0-1.06.75.75 0 1 0 0 1.06m5.75 5.75a.75.75 0 1 0-1.06-1.06.75.75 0 0 0 1.06 1.06m0-11.5a.75.75 0 1 0-1.06-1.06.75.75 0 0 0 1.06 1.06m5.75 5.75a.75.75 0 1 0-1.06-1.06.75.75 0 0 0 1.06 1.06m1.061 1.06a2.25 2.25 0 0 1-2.558.438l-2.753 2.753a2.25 2.25 0 1 1-1.061-1.06l2.752-2.753a2 2 0 0 1-.09-.217H4.369a2.2 2.2 0 0 1-.527.84 2.25 2.25 0 1 1-.623-3.62l2.753-2.753a2.249 2.249 0 0 1 3.62-2.56 2.25 2.25 0 0 1-2.559 3.62L4.279 7.033q.051.107.09.219h7.261a2.25 2.25 0 1 1 3.71 2.34"/></svg>