<svg width="16" height="16" fill="none" viewBox="0 0 16 16"><path fill="currentcolor" d="M5.5 12.25a1.75 1.75 0 1 0-3.5 0 1.75 1.75 0 0 0 3.5 0m8.5 0a1.75 1.75 0 1 0-3.5 0 1.75 1.75 0 0 0 3.5 0m0-8.5a1.75 1.75 0 1 0-3.5 0 1.75 1.75 0 0 0 3.5 0m-7 8.5a3.25 3.25 0 1 1-6.5 0 3.25 3.25 0 0 1 6.5 0m-1.5-8.5a1.75 1.75 0 1 0-3.5 0 1.75 1.75 0 0 0 3.5 0m1.5 0c0 .61-.169 1.18-.46 1.668l4.04 4.042a3.25 3.25 0 1 1-1.074 1.047L5.492 6.492A3.25 3.25 0 1 1 7 3.75m8.5 0a3.25 3.25 0 1 1-6.5 0 3.25 3.25 0 0 1 6.5 0"/></svg>