<svg width="16" height="16" fill="none" viewBox="0 0 16 16"><path fill="currentcolor" fill-rule="evenodd" d="M9.708 4.312 3.702 6.799l.091.22.005.011.957 2.31.004.011.091.22 1.417-.587A2 2 0 0 1 9.463 7.66l1.393-.576zm1.77 4.138-1.248.516a2 2 0 0 1-.323 1.404l2.242 3.88-1.298.75-2.192-3.792a2 2 0 0 1-.819 0L5.65 15l-1.3-.75 2.164-3.744-1.205.499a1.376 1.376 0 0 1-1.605-.418l-1.665.69a.75.75 0 0 1-.98-.406L.103 8.56a.75.75 0 0 1 .405-.98l1.665-.69a1.38 1.38 0 0 1 .84-1.43L9.18 2.906a1.38 1.38 0 0 1 .84-1.43L12.446.472a.75.75 0 0 1 .98.405l2.488 6.006a.75.75 0 0 1-.406.98l-2.425 1.004a1.376 1.376 0 0 1-1.605-.417m-8.779-.153-.924.383.383.924.924-.383zm9.925-.863-1.913-4.62 1.617-.67 1.913 4.62zM8.25 8.75a.5.5 0 1 0 0 1 .5.5 0 0 0 0-1" clip-rule="evenodd"/></svg>