<svg width="16" height="16" fill="none" viewBox="0 0 16 16"><path fill="currentcolor" d="M7.687 9.505a.75.75 0 0 1 1.183.072l3.75 5.5-1.24.846L9 12.432V16H7.5l-.001-3.567-2.38 3.49-1.239-.845 3.75-5.5z"/><path fill="currentcolor" d="m10.66 2.963 1.531 2.653L14.44 4.51l-1.698-2.94zM4.414 7.146l1.032 1.787 5.396-2.654L9.411 3.8zm11.392-3.27c.397.69.13 1.571-.584 1.922L3.118 11.75a1.687 1.687 0 0 1-2.206-.67L.289 10A1.687 1.687 0 0 1 .81 7.756L12.018.249l.126-.076a1.375 1.375 0 0 1 1.83.53zM2.21 10.33c.05.085.156.117.245.074l1.64-.808-.93-1.613-1.52 1.019a.187.187 0 0 0-.058.249z"/></svg>