<svg width="16" height="16" fill="none" viewBox="0 0 16 16"><path fill="currentcolor" fill-rule="evenodd" d="M4.125 1C3.504 1 3 1.504 3 2.125V7.25H1v1.5h14v-1.5h-2.634A3.96 3.96 0 0 0 13 5.063C13 2.626 11.004 1 8.75 1zm6.625 4.063c0 1.014-.802 1.812-2 1.812h-3.5V3.25h3.5c1.198 0 2 .798 2 1.813" clip-rule="evenodd"/><path fill="currentcolor" d="M13.945 10.25h-2.329q.133.319.134.688c0 1.014-.802 1.812-2 1.812h-4.5v-2.5H3v3.625C3 14.496 3.504 15 4.125 15H9.75c2.254 0 4.25-1.626 4.25-4.062a4 4 0 0 0-.055-.688"/></svg>