<svg width="16" height="16" fill="none" viewBox="0 0 16 16"><path fill="currentcolor" fill-rule="evenodd" d="M4.215 1.93c.094-.538.561-.93 1.108-.93h4.622c1.125 0 2.175.398 2.896 1.188.734.803 1.026 1.9.82 3.07a4.5 4.5 0 0 1-.89 1.992H15v1.5H1v-1.5h2.277zm1.413 4.945H8.91c1.238 0 2.335-.877 2.535-2.008.098-.555-.05-.926-.264-1.161-.227-.248-.633-.456-1.236-.456H6.267z" clip-rule="evenodd"/><path fill="currentcolor" d="M11.433 10.25h2.254q.019.432-.062.883C13.215 13.452 11.087 15 8.875 15H3.25a1.125 1.125 0 0 1-1.108-1.32l.604-3.43h2.285l-.44 2.5h4.284c1.238 0 2.335-.877 2.535-2.008q.047-.275.023-.492"/></svg>