<svg width="16" height="16" fill="none" viewBox="0 0 16 16"><path fill="currentcolor" fill-rule="evenodd" d="M15 6.5H1V5h14zm0-4H1V1h14z" clip-rule="evenodd"/><path fill="currentcolor" d="M1.75 11a.75.75 0 1 0 0-1.5.75.75 0 0 0 0 1.5m0 4a.75.75 0 1 0 0-1.5.75.75 0 0 0 0 1.5m3.88-4.75a.75.75 0 1 1-1.5 0 .75.75 0 0 1 1.5 0M4.88 15a.75.75 0 1 0 0-1.5.75.75 0 0 0 0 1.5m3.87-4.75a.75.75 0 1 1-1.5 0 .75.75 0 0 1 1.5 0M8 15a.75.75 0 1 0 0-1.5.75.75 0 0 0 0 1.5m3.88-4.75a.75.75 0 1 1-1.5 0 .75.75 0 0 1 1.5 0m2.37.75a.75.75 0 1 0 0-1.5.75.75 0 0 0 0 1.5"/></svg>