<svg width="16" height="16" fill="none" viewBox="0 0 16 16"><path fill="currentcolor" fill-rule="evenodd" d="M15 9.5H1V11h14zm-7 4H1V15h7z" clip-rule="evenodd"/><path fill="currentcolor" d="M1.75 5a.75.75 0 1 1 0 1.5.75.75 0 0 1 0-1.5m0-4a.75.75 0 1 1 0 1.5.75.75 0 0 1 0-1.5m3.88 4.75a.75.75 0 1 0-1.5 0 .75.75 0 0 0 1.5 0M4.88 1a.75.75 0 1 1 0 1.5.75.75 0 0 1 0-1.5m3.87 4.75a.75.75 0 1 0-1.5 0 .75.75 0 0 0 1.5 0M8 1a.75.75 0 1 1 0 1.5A.75.75 0 0 1 8 1m3.88 4.75a.75.75 0 1 0-1.5 0 .75.75 0 0 0 1.5 0M11.13 1a.75.75 0 1 1 0 1.5.75.75 0 0 1 0-1.5M15 5.75a.75.75 0 1 0-1.5 0 .75.75 0 0 0 1.5 0M14.25 1a.75.75 0 1 1 0 1.5.75.75 0 0 1 0-1.5"/></svg>