<svg width="16" height="16" fill="none" viewBox="0 0 16 16"><path fill="currentcolor" fill-rule="evenodd" d="M4.465 1.93c.094-.538.561-.93 1.108-.93h4.622c1.125 0 2.175.398 2.896 1.188.734.803 1.026 1.9.82 3.07a4.53 4.53 0 0 1-1.27 2.421q.222.173.414.384c.734.802 1.027 1.9.82 3.07-.41 2.319-2.538 3.867-4.75 3.867H3.5a1.125 1.125 0 0 1-1.108-1.32l1.035-5.875.015-.073zm1.413 4.945H9.16c1.238 0 2.335-.877 2.535-2.008.098-.555-.05-.926-.264-1.161-.227-.248-.633-.456-1.236-.456H6.517zm-.399 2.25-.638 3.625h4.284c1.238 0 2.335-.877 2.535-2.008.098-.554-.05-.926-.265-1.16-.227-.25-.634-.457-1.235-.457z" clip-rule="evenodd"/></svg>