<svg width="16" height="16" fill="none" viewBox="0 0 16 16"><path fill="currentcolor" d="M0 8a8 8 0 1 1 16 0h-1.5A6.5 6.5 0 1 0 8 14.5V16a8 8 0 0 1-8-8m12.326-2.52-5 6a.75.75 0 0 1-1.152 0l-2.5-3 1.152-.96L6.75 9.828l4.424-5.308z"/><path fill="currentcolor" d="M13.115 10.009a.75.75 0 0 1 .541.378l.05.106.4 1.102c.051.138.16.248.3.299l1.1.4a.75.75 0 0 1 0 1.411l-1.1.401a.5.5 0 0 0-.3.3l-.4 1.1a.75.75 0 0 1-1.411 0l-.401-1.1a.5.5 0 0 0-.3-.3l-1.1-.4a.75.75 0 0 1-.485-.59L10 13l.009-.116a.75.75 0 0 1 .484-.59l1.102-.4a.5.5 0 0 0 .299-.3l.4-1.1.05-.107a.75.75 0 0 1 .655-.387z"/></svg>