<svg width="16" height="16" fill="none" viewBox="0 0 16 16"><path fill="currentcolor" fill-rule="evenodd" d="M3 2.5a.5.5 0 0 0-.5.5v2.167h2.667V2.5zm3.667 0v2.667h2.666V2.5zm4.166 0v2.667H13.5V3a.5.5 0 0 0-.5-.5zM13.5 6.667h-2.667v2.666H13.5zm0 4.166h-2.667V13.5H13a.5.5 0 0 0 .5-.5zM9.333 13.5v-2.667H6.667V13.5zm-4.166 0v-2.667H2.5V13a.5.5 0 0 0 .5.5zM2.5 9.333h2.667V6.667H2.5zm4.167-2.666v2.666h2.666V6.667zM1 3a2 2 0 0 1 2-2h10a2 2 0 0 1 2 2v10a2 2 0 0 1-2 2H3a2 2 0 0 1-2-2z" clip-rule="evenodd"/></svg>