<svg width="16" height="16" fill="none" viewBox="0 0 16 16"><path fill="currentcolor" fill-rule="evenodd" d="M4 0h8v1.5H8.75v1h2.863a2 2 0 0 1 1.888 1.34l1.317 3.76c.12.345.182.708.182 1.074V11.5a2 2 0 0 1-2 2h-.134l1.017 1.597-1.266.806-1.529-2.403H4.912l-1.53 2.403-1.265-.806L3.134 13.5H3a2 2 0 0 1-2-2V8.675c0-.366.062-.729.182-1.074L2.5 3.84A2 2 0 0 1 4.387 2.5H7.25v-1H4zm.387 4a.5.5 0 0 0-.472.335L2.807 7.5h10.386l-1.108-3.165A.5.5 0 0 0 11.613 4zM13.5 9h-11v2.5a.5.5 0 0 0 .5.5h10a.5.5 0 0 0 .5-.5zm-3 5.5V16h-5v-1.5z" clip-rule="evenodd"/><path fill="currentcolor" d="M5 10.5a.75.75 0 1 1-1.5 0 .75.75 0 0 1 1.5 0m7.5 0a.75.75 0 1 1-1.5 0 .75.75 0 0 1 1.5 0"/></svg>