<svg width="16" height="16" fill="none" viewBox="0 0 16 16"><path fill="currentcolor" fill-rule="evenodd" d="M15.28.72a2.34 2.34 0 0 1 0 3.31l-2.218 2.22 1.424 7.358a.75.75 0 0 1-.286.743l-2 1.5a.75.75 0 0 1-1.146-.322l-2.097-5.242-1.915 1.755.202 1.616a.75.75 0 0 1-.214.623l-1.5 1.5a.75.75 0 0 1-1.189-.17l-1.394-2.557-2.556-1.395A.75.75 0 0 1 .22 10.47l1.5-1.5a.75.75 0 0 1 .623-.214l1.616.202 1.755-1.915L.47 4.946A.75.75 0 0 1 .15 3.8l1.5-2a.75.75 0 0 1 .742-.286l7.36 1.424L11.968.72a2.34 2.34 0 0 1 3.311 0m-1.06 2.25a.841.841 0 0 0-1.19-1.19l-2.5 2.5a.75.75 0 0 1-.673.206l-7.289-1.41-.631.841 5.341 2.137a.75.75 0 0 1 .275 1.203l-2.75 3a.75.75 0 0 1-.646.237L2.52 10.29l-.532.532 1.87 1.02a.75.75 0 0 1 .3.299l1.02 1.87.531-.532-.204-1.636a.75.75 0 0 1 .237-.646l3-2.75a.75.75 0 0 1 1.203.274l2.137 5.342.841-.631-1.41-7.29a.75.75 0 0 1 .206-.672z" clip-rule="evenodd"/></svg>