<svg width="16" height="16" fill="none" viewBox="0 0 16 16"><path fill="currentcolor" fill-rule="evenodd" d="M1 3a2 2 0 0 1 2-2h10a2 2 0 0 1 2 2v10a2 2 0 0 1-2 2H3a2 2 0 0 1-2-2zm2-.5a.5.5 0 0 0-.5.5v1.125h1.25V2.5zm2.25 0v4.75h5.5V2.5zm7 0v1.625h1.25V3a.5.5 0 0 0-.5-.5zm1.25 3.125h-1.25V7.25h1.25zm0 3.125h-1.25v1.625h1.25zm0 3.125h-1.25V13.5H13a.5.5 0 0 0 .5-.5zM10.75 13.5V8.75h-5.5v4.75zm-7 0v-1.625H2.5V13a.5.5 0 0 0 .5.5zM2.5 10.375h1.25V8.75H2.5zm0-3.125h1.25V5.625H2.5z" clip-rule="evenodd"/></svg>