<svg width="16" height="16" fill="none" viewBox="0 0 16 16"><path fill="currentcolor" fill-rule="evenodd" d="M0 4a2 2 0 0 1 2-2h12a2 2 0 0 1 2 2v8a2 2 0 0 1-2 2H2a2 2 0 0 1-2-2zm2-.5a.5.5 0 0 0-.5.5v8a.5.5 0 0 0 .5.5h12a.5.5 0 0 0 .5-.5V4a.5.5 0 0 0-.5-.5z" clip-rule="evenodd"/><path fill="currentcolor" fill-rule="evenodd" d="M8.75 5h2.5c.97 0 1.75.78 1.75 1.75v2.5A1.75 1.75 0 0 1 11.25 11h-2.5zm1.5 1.5v3h1a.25.25 0 0 0 .25-.25v-2.5a.25.25 0 0 0-.25-.25zm-5.5.75V5h-1.5v6h1.5V8.75H6V11h1.5V5H6v2.25z" clip-rule="evenodd"/></svg>