<svg width="16" height="16" fill="none" viewBox="0 0 16 16"><path fill="currentcolor" fill-rule="evenodd" d="M0 4a2 2 0 0 1 2-2h12a2 2 0 0 1 2 2v8a2 2 0 0 1-2 2H2a2 2 0 0 1-2-2zm4.75 5.5v-3H6V7h1.5v-.625C7.5 5.615 6.883 5 6.123 5h-1.5c-.76 0-1.375.616-1.375 1.375v3.25c0 .76.616 1.375 1.375 1.375h1.5c.76 0 1.375-.616 1.375-1.375V9H6v.5zm5.25 0v-3h1.25V7h1.5v-.625c0-.76-.616-1.375-1.376-1.375h-1.5C9.114 5 8.5 5.616 8.5 6.375v3.25c0 .76.616 1.375 1.375 1.375h1.5c.76 0 1.375-.616 1.375-1.375V9h-1.5v.5z" clip-rule="evenodd"/></svg>