<svg width="16" height="16" fill="none" viewBox="0 0 16 16"><path fill="currentcolor" fill-rule="evenodd" d="M0 4a2 2 0 0 1 2-2h12a2 2 0 0 1 2 2v8a2 2 0 0 1-2 2H2a2 2 0 0 1-2-2zm2-.5a.5.5 0 0 0-.5.5v8a.5.5 0 0 0 .5.5h12a.5.5 0 0 0 .5-.5V4a.5.5 0 0 0-.5-.5zm2.75 3v3H6V9h1.5v.625c0 .76-.616 1.375-1.376 1.375h-1.5c-.76 0-1.375-.616-1.375-1.375v-3.25A1.376 1.376 0 0 1 4.624 5h1.5c.76 0 1.375.616 1.375 1.375V7H6v-.5zm5.25 0v3h1.25V9h1.5v.625c0 .76-.616 1.375-1.376 1.375h-1.5c-.76 0-1.375-.616-1.375-1.375v-3.25A1.376 1.376 0 0 1 9.874 5h1.5c.76 0 1.375.616 1.375 1.375V7h-1.5v-.5z" clip-rule="evenodd"/></svg>