<svg width="16" height="16" fill="none" viewBox="0 0 16 16"><path fill="currentcolor" fill-rule="evenodd" d="m1.81 3.75 2.47-2.47L3.22.22l-3 3a.75.75 0 0 0 0 1.06l3 3 1.06-1.06z" clip-rule="evenodd"/><path fill="currentcolor" fill-rule="evenodd" d="m6.06 4.5 1.72 1.72-1.06 1.06-3-3a.75.75 0 0 1 0-1.06l3-3 1.06 1.06L6.06 3h5.69A3.25 3.25 0 0 1 15 6.25v3.5A3.25 3.25 0 0 1 11.75 13H11v-1.5h.75a1.75 1.75 0 0 0 1.75-1.75v-3.5a1.75 1.75 0 0 0-1.75-1.75zM8 9.5H4.75a.75.75 0 0 0-.75.75v2.5c0 .41.34.75.75.75H6.5v1H4V16h2.63C7.39 16 8 15.38 8 14.63v-1.25C8 12.62 7.38 12 6.63 12H5.5v-1H8z" clip-rule="evenodd"/></svg>