<svg width="16" height="16" fill="none" viewBox="0 0 16 16"><path fill="currentcolor" fill-rule="evenodd" d="M8.75 0v2.75h-1.5V0zM4.22 4.53l-2-2 1.06-1.06 2 2zm9.56-2-2 2-1.06-1.06 2-2zM4.75 7.75v3H6v-.5h1.5v.625c0 .76-.616 1.375-1.376 1.375h-1.5c-.76 0-1.375-.616-1.375-1.375v-3.25c0-.76.616-1.375 1.375-1.375h1.5c.76 0 1.375.616 1.375 1.375v.625H6v-.5zm5.25 0v3h1.25v-.5h1.5v.625c0 .76-.616 1.375-1.376 1.375h-1.5c-.76 0-1.375-.616-1.375-1.375v-3.25c0-.76.616-1.375 1.375-1.375h1.5c.76 0 1.375.616 1.375 1.375v.625h-1.5v-.5zM16 16H0v-1.5h16z" clip-rule="evenodd"/></svg>