<svg width="16" height="16" fill="none" viewBox="0 0 16 16"><path fill="currentcolor" fill-rule="evenodd" d="M0 4a2 2 0 0 1 2-2h12a2 2 0 0 1 2 2v4.948L14.18 7.25h.32V4a.5.5 0 0 0-.5-.5H6.5v3.75h3.82l-1.608 1.5H6.5v3.75H7V14H2a2 2 0 0 1-2-2zm2-.5a.5.5 0 0 0-.5.5v3.25H5V3.5zm3 9V8.75H1.5V12a.5.5 0 0 0 .5.5z" clip-rule="evenodd"/><path fill="currentcolor" d="M16 15.375v-3.832a1.25 1.25 0 0 0-.397-.914l-2.5-2.333a1.25 1.25 0 0 0-1.706 0l-2.5 2.333a1.25 1.25 0 0 0-.397.914v3.832c0 .345.28.625.625.625h2.125v-3h2v3h2.125c.345 0 .625-.28.625-.625"/></svg>