<svg width="16" height="16" fill="none" viewBox="0 0 16 16"><mask id="mask0_39345_9427" width="16" height="16" x="0" y="0" maskUnits="userSpaceOnUse" style="mask-type:alpha"><path fill="currentcolor" fill-rule="evenodd" d="M16 0H0v16h7v-5a1.5 1.5 0 0 1 .477-1.097l3.75-3.5a1.5 1.5 0 0 1 2.047 0L16 8.948z" clip-rule="evenodd"/></mask><g mask="url(#mask0_39345_9427)"><path stroke="currentcolor" stroke-width="1.5" d="M5.583 2.75H2C1.31 2.75.75 3.31.75 4v8c0 .69.56 1.25 1.25 1.25h3.583m0-10.5v10.5m0-10.5h4.834m-4.834 10.5h4.834m0-10.5H14c.69 0 1.25.56 1.25 1.25v8c0 .69-.56 1.25-1.25 1.25h-3.583m0-10.5v10.5"/></g><path fill="currentcolor" d="M16 11.543v3.832c0 .345-.28.625-.625.625H13.25v-3h-2v3H9.125a.625.625 0 0 1-.625-.625v-3.832c0-.346.144-.677.397-.914l2.5-2.333a1.25 1.25 0 0 1 1.706 0l2.5 2.333c.253.237.397.568.397.914"/></svg>