<svg width="16" height="16" fill="none" viewBox="0 0 16 16"><mask id="mask0_39345_9442" width="16" height="16" x="0" y="0" maskUnits="userSpaceOnUse" style="mask-type:alpha"><path fill="currentcolor" fill-rule="evenodd" d="M16 0H0v16h7v-5a1.5 1.5 0 0 1 .477-1.097l3.75-3.5a1.5 1.5 0 0 1 2.047 0L16 8.948z" clip-rule="evenodd"/></mask><g mask="url(#mask0_39345_9442)"><path stroke="currentcolor" stroke-linejoin="round" stroke-width="1.5" d="M8 1.75H3c-.69 0-1.25.56-1.25 1.25v5M8 1.75h5c.69 0 1.25.56 1.25 1.25v5M8 1.75v12.5m0 0h5c.69 0 1.25-.56 1.25-1.25V8M8 14.25H3c-.69 0-1.25-.56-1.25-1.25V8m0 0h12.5"/></g><path fill="currentcolor" d="M16 11.543v3.832c0 .345-.28.625-.625.625H13.25v-3h-2v3H9.125a.625.625 0 0 1-.625-.625v-3.832c0-.346.144-.677.397-.914l2.5-2.333a1.25 1.25 0 0 1 1.706 0l2.5 2.333c.253.237.397.568.397.914"/></svg>