<svg width="16" height="16" fill="none" viewBox="0 0 16 16"><path fill="currentcolor" fill-rule="evenodd" d="M3 1a2 2 0 0 0-2 2v10a2 2 0 0 0 2 2h4v-1.5H3a.5.5 0 0 1-.5-.5V8.75h4.75v1.42q.096-.145.227-.267l2.842-2.653H8.75V2.5H13a.5.5 0 0 1 .5.5v3.615l1.5 1.4V3a2 2 0 0 0-2-2zm-.5 2a.5.5 0 0 1 .5-.5h4.25v4.75H2.5z" clip-rule="evenodd"/><path fill="currentcolor" d="M16 11.543v3.832c0 .345-.28.625-.625.625H13.25v-3h-2v3H9.125a.625.625 0 0 1-.625-.625v-3.832c0-.346.144-.677.397-.914l2.5-2.333a1.25 1.25 0 0 1 1.706 0l2.5 2.333c.253.237.397.568.397.914"/></svg>