<svg width="16" height="16" fill="none" viewBox="0 0 16 16"><path fill="currentcolor" fill-rule="evenodd" d="M6.333 12.5v-9h3.334v4.36l1.5-1.4V3.5H14a.5.5 0 0 1 .5.5v3.548l1.5 1.4V4a2 2 0 0 0-2-2H2a2 2 0 0 0-2 2v8a2 2 0 0 0 2 2h5v-1.5zM1.5 4a.5.5 0 0 1 .5-.5h2.833v9H2a.5.5 0 0 1-.5-.5z" clip-rule="evenodd"/><path fill="currentcolor" d="M16 11.543v3.832c0 .345-.28.625-.625.625H13.25v-3h-2v3H9.125a.625.625 0 0 1-.625-.625v-3.832c0-.346.144-.677.397-.914l2.5-2.333a1.25 1.25 0 0 1 1.706 0l2.5 2.333c.253.237.397.568.397.914"/></svg>