<svg width="16" height="16" fill="none" viewBox="0 0 16 16"><path fill="currentcolor" fill-rule="evenodd" d="M5.7 1.383c.996-1.816 3.605-1.817 4.602-.002l5.35 9.73C16.612 12.86 15.346 15 13.35 15H2.667C.67 15-.594 12.862.365 11.113zm3.288.72a1.125 1.125 0 0 0-1.972.002L1.68 11.834c-.41.75.132 1.666.987 1.666H13.35c.855 0 1.398-.917.986-1.667z" clip-rule="evenodd"/><path fill="currentcolor" fill-rule="evenodd" d="M7.25 9V4h1.5v5z" clip-rule="evenodd"/><path fill="currentcolor" d="M9 11.25a1 1 0 1 1-2 0 1 1 0 0 1 2 0"/></svg>