<svg width="16" height="16" fill="none" viewBox="0 0 16 16"><path fill="currentcolor" fill-rule="evenodd" d="M4.25 3.75a3.75 3.75 0 1 1 7.5 0h-1.5a2.25 2.25 0 1 0-3.332 1.974.75.75 0 0 1 .297 1.018L4.408 11.86l-1.316-.722L5.576 6.61A3.74 3.74 0 0 1 4.25 3.75m4.408-.36 2.483 4.527a3.75 3.75 0 1 1-.832 6.792l.777-1.283a2.25 2.25 0 1 0 .082-3.9.75.75 0 0 1-1.018-.296L7.342 4.11zM0 11.5c0-1.377.743-2.58 1.846-3.231l.763 1.292A2.25 2.25 0 1 0 6 11.5a.75.75 0 0 1 .75-.751h5.5v1.5H7.425A3.751 3.751 0 0 1 0 11.5" clip-rule="evenodd"/></svg>