<svg width="16" height="16" fill="none" viewBox="0 0 16 16"><path fill="currentcolor" fill-rule="evenodd" d="M11.47.72a.75.75 0 0 1 1.06 0l2.829 2.828a.75.75 0 0 1 0 1.06l-2.609 2.61v1.877A3.001 3.001 0 0 1 12 15a3 3 0 0 1-.75-5.905V7.218L8.782 4.75H6.905A3 3 0 0 1 4.75 6.905V9h1.5a.75.75 0 0 1 .75.75v4.5a.75.75 0 0 1-.75.75h-4.5a.75.75 0 0 1-.75-.75v-4.5A.75.75 0 0 1 1.75 9h1.5V6.905A3.001 3.001 0 1 1 6.905 3.25H8.94zm-1.238 3.358L12 5.846l1.768-1.768L12 2.311zM4 2.5a1.5 1.5 0 1 0 0 3 1.5 1.5 0 0 0 0-3m-1.5 8v3h3v-3zm9.5 0a1.5 1.5 0 1 0 0 3 1.5 1.5 0 0 0 0-3" clip-rule="evenodd"/></svg>