<svg width="16" height="16" fill="none" viewBox="0 0 16 16"><path fill="currentcolor" d="M14.5 8a6.5 6.5 0 1 0-13 0 6.5 6.5 0 0 0 13 0M16 8A8 8 0 1 1 0 8a8 8 0 0 1 16 0"/><path fill="currentcolor" d="M9.5 12.13a2.63 2.63 0 0 1 2.63-2.63H15V11h-2.87c-.62 0-1.12.5-1.12 1.13V15H9.5zm-1.5.62a2 2 0 0 0-2-2 .5.5 0 0 1-.5-.5v-.5A2.5 2.5 0 0 0 3 7.25H1v1.5h2a1 1 0 0 1 1 1v.5a2 2 0 0 0 2 2 .5.5 0 0 1 .5.5V15H8zm-1.25-6.5A.75.75 0 0 0 6 5.5h-.25A2.5 2.5 0 0 1 3.25 3V1.63h1.5V3a1 1 0 0 0 1 1H6a2.25 2.25 0 0 1 2.25 2.25c0 .41.34.75.75.75h1.5a.5.5 0 0 0 .5-.5 2 2 0 0 1 2-2h1.75V6H13a.5.5 0 0 0-.5.5 2 2 0 0 1-2 2H9a2.25 2.25 0 0 1-2.25-2.25"/></svg>