<svg width="16" height="16" fill="none" viewBox="0 0 16 16"><path fill="currentcolor" fill-rule="evenodd" d="M10.5 1.5a4 4 0 0 0-3.614 5.718.75.75 0 0 1-.146.853l-4.95 4.95a.841.841 0 0 0 1.189 1.19l4.95-4.95a.75.75 0 0 1 .853-.147 4 4 0 0 0 5.667-4.252L12.03 7.28a.75.75 0 0 1-1.06 0L8.72 5.03a.75.75 0 0 1 0-1.06l2.419-2.42a4 4 0 0 0-.639-.05M5 5.5A5.5 5.5 0 0 1 12.863.532a.75.75 0 0 1 .208 1.208L10.31 4.5l1.19 1.19 2.76-2.76a.75.75 0 0 1 1.208.207 5.5 5.5 0 0 1-6.832 7.539L4.038 15.27a2.34 2.34 0 1 1-3.31-3.31l4.595-4.596A5.5 5.5 0 0 1 5 5.5" clip-rule="evenodd"/></svg>