<svg width="16" height="16" viewBox="0 0 16 16"><path fill="#cd519d" fill-rule="evenodd" d="M14 0H2a2 2 0 0 0-2 2v12a2 2 0 0 0 2 2h12a2 2 0 0 0 2-2V2a2 2 0 0 0-2-2M3 4a1 1 0 0 1 1-1h8a1 1 0 1 1 0 2H4a1 1 0 0 1-1-1m0 4a1 1 0 0 1 1-1h3a1 1 0 1 1 0 2H4a1 1 0 0 1-1-1m0 4a1 1 0 0 1 1-1h2.5a1 1 0 1 1 0 2H4a1 1 0 0 1-1-1m8.293-5.793-2.854 4.05c-.21.314.009.743.38.743h1.993c.149 0 .259.143.224.292l-.443 2.121c-.119.511.538.812.828.38l2.854-4.05c.21-.314-.008-.743-.38-.743h-1.993a.236.236 0 0 1-.224-.292l.443-2.121c.119-.511-.538-.812-.828-.38" clip-rule="evenodd"/></svg>