<svg xmlns="http://www.w3.org/2000/svg" width="24" height="24" viewBox="0 0 24 24">
  <path fill="#36B37E" fill-rule="evenodd" d="M3,0 L21,0 C22.6568542,-3.04359188e-16 24,1.34314575 24,3 L24,21 C24,22.6568542 22.6568542,24 21,24 L3,24 C1.34314575,24 2.02906125e-16,22.6568542 0,21 L0,3 C-2.02906125e-16,1.34314575 1.34314575,3.04359188e-16 3,0 Z M5,5 C4.44771525,5 4,5.44771525 4,6 C4,6.55228475 4.44771525,7 5,7 L8,7 C8.55228475,7 9,6.55228475 9,6 C9,5.44771525 8.55228475,5 8,5 L5,5 Z M5,9 C4.44771525,9 4,9.44771525 4,10 C4,10.5522847 4.44771525,11 5,11 L8,11 C8.55228475,11 9,10.5522847 9,10 C9,9.44771525 8.55228475,9 8,9 L5,9 Z M5,13 C4.44771525,13 4,13.4477153 4,14 C4,14.5522847 4.44771525,15 5,15 L8,15 C8.55228475,15 9,14.5522847 9,14 C9,13.4477153 8.55228475,13 8,13 L5,13 Z M5,17 C4.44771525,17 4,17.4477153 4,18 C4,18.5522847 4.44771525,19 5,19 L8,19 C8.55228475,19 9,18.5522847 9,18 C9,17.4477153 8.55228475,17 8,17 L5,17 Z M12,5 C11.4477153,5 11,5.44771525 11,6 C11,6.55228475 11.4477153,7 12,7 L19,7 C19.5522847,7 20,6.55228475 20,6 C20,5.44771525 19.5522847,5 19,5 L12,5 Z M12,9 C11.4477153,9 11,9.44771525 11,10 C11,10.5522847 11.4477153,11 12,11 L19,11 C19.5522847,11 20,10.5522847 20,10 C20,9.44771525 19.5522847,9 19,9 L12,9 Z M12,13 C11.4477153,13 11,13.4477153 11,14 C11,14.5522847 11.4477153,15 12,15 L19,15 C19.5522847,15 20,14.5522847 20,14 C20,13.4477153 19.5522847,13 19,13 L12,13 Z M12,17 C11.4477153,17 11,17.4477153 11,18 C11,18.5522847 11.4477153,19 12,19 L19,19 C19.5522847,19 20,18.5522847 20,18 C20,17.4477153 19.5522847,17 19,17 L12,17 Z"/>
</svg>
