<?xml version="1.0" encoding="UTF-8"?>
<svg width="24px" height="24px" viewBox="0 0 24 24" version="1.1" xmlns="http://www.w3.org/2000/svg" xmlns:xlink="http://www.w3.org/1999/xlink">
    <!-- Generator: Sketch 52.5 (67469) - http://www.bohemiancoding.com/sketch -->
    <title>jira/priority-lowest</title>
    <desc>Created with Sketch.</desc>
    <g id="jira/priority-lowest" stroke="none" stroke-width="1" fill="none" fill-rule="evenodd">
        <path d="M5.61291798,17.8258244 C5.13909341,18.109565 4.52496551,17.9554715 4.24122491,17.4816469 C3.95748431,17.0078223 4.11157781,16.3936944 4.58540238,16.1099538 L11.5550233,11.9363323 C11.8725961,11.74616 12.2692423,11.7469695 12.5860362,11.9384363 L19.4915562,16.1120579 C19.9642187,16.39773 20.1158044,17.0124817 19.8301323,17.4851443 C19.5444601,17.9578068 18.9297084,18.1093925 18.4570459,17.8237204 L12.0663995,13.9612828 L5.61291798,17.8258244 Z" id="Path-4-Copy-94" fill="#0065FF" fill-rule="nonzero" transform="translate(12.036729, 14.881154) rotate(-180.000000) translate(-12.036729, -14.881154) "></path>
        <path d="M12.0663995,7.95869118 L5.61291798,11.8232327 C5.13909341,12.1069733 4.52496551,11.9528798 4.24122491,11.4790553 C3.95748431,11.0052307 4.11157781,10.3911028 4.58540238,10.1073622 L11.5550233,5.93374065 C11.8725961,5.74356839 12.2692423,5.74437784 12.5860362,5.93584468 L19.4915562,10.1094662 C19.9642187,10.3951384 20.1158044,11.0098901 19.8301323,11.4825526 C19.5444601,11.9552152 18.9297084,12.1068008 18.4570459,11.8211287 L12.0663995,7.95869118 Z" id="Path-4-Copy-95" fill="#2684FF" fill-rule="nonzero" transform="translate(12.036729, 8.878563) rotate(-180.000000) translate(-12.036729, -8.878563) "></path>
    </g>
</svg>