<?xml version="1.0" encoding="UTF-8"?>
<svg width="24px" height="24px" viewBox="0 0 24 24" version="1.1" xmlns="http://www.w3.org/2000/svg" xmlns:xlink="http://www.w3.org/1999/xlink">
    <!-- Generator: Sketch 52.5 (67469) - http://www.bohemiancoding.com/sketch -->
    <title>jira/priority-critical</title>
    <desc>Created with Sketch.</desc>
    <g id="jira/priority-critical" stroke="none" stroke-width="1" fill="none" fill-rule="evenodd">
        <g id="icon/20px/critical-priority-without-gradient" transform="translate(4.000000, 3.000000)" fill="#FF5630" fill-rule="nonzero">
            <path d="M0.671301183,4.16516108 L7.31380893,0.219342152 C7.7464534,-0.0376596902 8.28507453,-0.0371890779 8.71726923,0.220568405 L15.330759,4.16480111 C15.7457869,4.41232044 16,4.85992111 16,5.34315394 L16,16.5961919 C16,17.3539273 15.3857341,17.9681932 14.6279988,17.9681932 C14.3808376,17.9681932 14.1382662,17.9014268 13.9259172,17.7749493 L8.01516724,14.2544381 L2.07211852,17.7807901 C1.42046389,18.1674542 0.578740263,17.952637 0.192076163,17.3009823 C0.066348266,17.08909 -5.29889698e-15,16.8472507 -5.32907052e-15,16.6008651 L-1.77635684e-15,5.34474017 C-1.83564051e-15,4.8606523 0.255106274,4.41239147 0.671301183,4.16516108 Z" id="icon/20px/critical-priority"></path>
        </g>
    </g>
</svg>