<?xml version="1.0" encoding="UTF-8" standalone="no"?>
<svg width="24px" height="24px" viewBox="0 0 24 24" version="1.1" xmlns="http://www.w3.org/2000/svg" xmlns:xlink="http://www.w3.org/1999/xlink">
    <!-- Generator: Sketch 45.1 (43504) - http://www.bohemiancoding.com/sketch -->
    <title>hipchat/chevron-double-up</title>
    <desc>Created with Sketch.</desc>
    <defs></defs>
    <g id="HipChat" stroke="none" stroke-width="1" fill="none" fill-rule="evenodd">
        <g id="hipchat/chevron-double-up" fill="#42526E">
            <path d="M11.22075,6.322 L8.29175,9.277 C7.90275,9.669 7.90275,10.304 8.29175,10.696 C8.67975,11.088 9.30975,11.088 9.69675,10.696 L11.99475,8.379 L14.30175,10.706 C14.69075,11.098 15.32075,11.098 15.70875,10.706 C16.09675,10.314 16.09675,9.679 15.70875,9.287 L12.76875,6.322 C12.55075,6.107 12.26975,6 11.99075,6 C11.71175,6 11.43375,6.107 11.22075,6.322 Z" id="Clip-4"></path>
            <path d="M11.22075,12.322 L8.29175,15.277 C7.90275,15.669 7.90275,16.304 8.29175,16.696 C8.67975,17.088 9.30975,17.088 9.69675,16.696 L11.99475,14.379 L14.30175,16.706 C14.69075,17.098 15.32075,17.098 15.70875,16.706 C16.09675,16.314 16.09675,15.679 15.70875,15.287 L12.76875,12.322 C12.55075,12.107 12.26975,12 11.99075,12 C11.71175,12 11.43375,12.107 11.22075,12.322 Z" id="Clip-4-Copy"></path>
        </g>
    </g>
</svg>