<?xml version="1.0" encoding="UTF-8" standalone="no"?>
<svg width="24px" height="24px" viewBox="0 0 24 24" version="1.1" xmlns="http://www.w3.org/2000/svg" xmlns:xlink="http://www.w3.org/1999/xlink">
    <!-- Generator: Sketch 45.1 (43504) - http://www.bohemiancoding.com/sketch -->
    <title>hipchat/dial-out</title>
    <desc>Created with Sketch.</desc>
    <defs></defs>
    <g id="HipChat" stroke="none" stroke-width="1" fill="none" fill-rule="evenodd">
        <g id="hipchat/dial-out" fill="#42526E">
            <path d="M7.794,5.3639 C6.068,7.4969 7.183,10.3209 8.06,12.4529 C8.476,13.4649 9.133,14.4779 9.689,15.2929 C10.662,16.7169 12.878,19.4239 15.59,19.0149 C16.758,18.8389 18.117,17.4599 17.187,16.5789 L15.318,14.6399 C15.318,14.6399 14.795,14.2029 14.147,14.5599 L13.099,15.1719 C13.099,15.1719 12.671,15.3739 12.3,14.8969 C11.137,13.5259 10.305,12.0999 9.722,10.4009 C9.495,9.7379 9.89,9.5729 9.89,9.5729 L10.657,9.1239 C11.294,8.7449 11.181,8.0719 11.181,8.0719 L10.743,5.3339 C10.611,4.7659 10.142,4.5309 9.598,4.5309 C8.95,4.5309 8.198,4.8649 7.794,5.3639 Z" id="Clip-2"></path>
        </g>
    </g>
</svg>