<svg width="48" height="64" viewBox="0 0 48 64"><path fill="#fff" fill-rule="evenodd" stroke="#091e42" stroke-opacity=".08" d="M4 .5h28.007a3.5 3.5 0 0 1 2.52 1.072l11.994 12.45a3.5 3.5 0 0 1 .979 2.429V60a3.5 3.5 0 0 1-3.5 3.5H4A3.5 3.5 0 0 1 .5 60V4A3.5 3.5 0 0 1 4 .5Z" clip-rule="evenodd"/><path fill="#8270db" d="M21.49 39.52A2.51 2.51 0 0 0 24 37.01V34.5h-2.51a2.51 2.51 0 0 0 0 5.01M18.99 32a2.51 2.51 0 0 1 2.51-2.51H24v5.01h-2.51a2.51 2.51 0 0 1-2.5-2.5m0-5.01a2.51 2.51 0 0 1 2.51-2.51H24v5.01h-2.51a2.51 2.51 0 0 1-2.51-2.51m5.02-2.5h2.51a2.51 2.51 0 0 1 0 5.01H24z"/><path fill="#8270db" d="M29.013 32A2.508 2.508 0 0 1 24 32a2.508 2.508 0 0 1 5.013 0"/></svg>