<svg xmlns="http://www.w3.org/2000/svg" width="48" height="64" viewBox="0 0 48 64">
  <g fill="none" fill-rule="evenodd">
    <path fill="#FFF" stroke="#091E42" stroke-opacity=".08" d="M4,0.5 L32.007097,0.5 C32.9580806,0.5 33.8681235,0.886970896 34.5278649,1.57188773 L46.5207679,14.0224343 C47.1490066,14.6746463 47.5,15.5449725 47.5,16.4505466 L47.5,60 C47.5,61.9329966 45.9329966,63.5 44,63.5 L4,63.5 C2.06700338,63.5 0.5,61.9329966 0.5,60 L0.5,4 C0.5,2.06700338 2.06700338,0.5 4,0.5 Z"/>
    <path fill="#00B8D9" d="M26.513525,22.7305943 C27.122525,22.9405943 27.4468583,23.6044277 27.2368583,24.2134277 L21.603025,40.6004277 C21.3941917,41.2094277 20.7303583,41.533761 20.1201917,41.323761 C19.5111917,41.113761 19.1868583,40.4499277 19.3968583,39.8409277 L25.0306917,23.4550943 C25.2406917,22.8449277 25.904525,22.5205943 26.513525,22.7305943 Z M19.352875,32.3090443 C19.814875,32.7570443 19.8265417,33.496711 19.3785417,33.958711 C18.929375,34.4218777 18.190875,34.4323777 17.728875,33.9843777 L13.854375,30.2288777 C13.381875,29.7703777 13.381875,29.0120443 13.854375,28.5535443 L17.984375,24.5495443 C18.4475417,24.1003777 19.1860417,24.1120443 19.6340417,24.575211 C20.0832083,25.037211 20.0715417,25.775711 19.608375,26.2248777 L16.342875,29.391211 L19.352875,32.3090443 Z M33.608725,34.1384943 C34.081225,34.5969943 34.081225,35.3553277 33.608725,35.8138277 L29.478725,39.8178277 C29.0155583,40.2658277 28.2770583,40.2553277 27.8290583,39.792161 C27.3798917,39.3289943 27.3915583,38.5904943 27.854725,38.1424943 L31.120225,34.976161 L28.110225,32.0583277 C27.648225,31.609161 27.6365583,30.870661 28.0845583,30.408661 C28.533725,29.9454943 29.272225,29.9338277 29.734225,30.3829943 L33.608725,34.1384943 Z"/>
  </g>
</svg>
