<svg xmlns="http://www.w3.org/2000/svg" width="16" height="16" viewBox="0 0 16 16">
  <path fill="#6554C0" fill-rule="evenodd" d="M2,0 L14,0 C15.1045695,-2.02906125e-16 16,0.8954305 16,2 L16,14 C16,15.1045695 15.1045695,16 14,16 L2,16 C0.8954305,16 1.3527075e-16,15.1045695 0,14 L0,2 C-1.3527075e-16,0.8954305 0.8954305,2.02906125e-16 2,0 Z M11.7510223,5.75 C11.7510223,3.679 10.0720223,2 8.00102234,2 C5.93002234,2 4.25102234,3.679 4.25102234,5.75 C4.25102234,6.302 4.69902234,6.75 5.25102234,6.75 C5.80302234,6.75 6.25102234,6.302 6.25102234,5.75 C6.25102234,4.784 7.03402234,4 8.00102234,4 C8.96702234,4 9.75102234,4.784 9.75102234,5.75 C9.75102234,6.371 9.42602234,6.916 8.93802234,7.226 L7.45802234,8.183 C7.17302234,8.367 7.00102234,8.683 7.00102234,9.023 L7.00102234,9.255 L7.00102234,9.479 L7.00102234,10 C7.00102234,10.552 7.44902234,11 8.00102234,11 C8.55302234,11 9.00102234,10.552 9.00102234,10 L9.00102234,9.546 L9.87402234,8.981 C10.9910223,8.331 11.7510223,7.135 11.7510223,5.75 Z M8.00102234,12 C7.44902234,12 7.00102234,12.448 7.00102234,13 C7.00102234,13.552 7.44902234,14 8.00102234,14 C8.55302234,14 9.00102234,13.552 9.00102234,13 C9.00102234,12.448 8.55302234,12 8.00102234,12 Z"/>
</svg>
