<svg xmlns="http://www.w3.org/2000/svg" width="24" height="24" viewBox="0 0 24 24">
  <path fill="#6554C0" fill-rule="evenodd" d="M3,0 L21,0 C22.6568542,-3.04359188e-16 24,1.34314575 24,3 L24,21 C24,22.6568542 22.6568542,24 21,24 L3,24 C1.34314575,24 2.02906125e-16,22.6568542 0,21 L0,3 C-2.02906125e-16,1.34314575 1.34314575,3.04359188e-16 3,0 Z M12,21 C16.9705627,21 21,16.9705627 21,12 C21,7.02943725 16.9705627,3 12,3 C7.02943725,3 3,7.02943725 3,12 C3,16.9705627 7.02943725,21 12,21 Z M12,19 C8.13400675,19 5,15.8659932 5,12 C5,8.13400675 8.13400675,5 12,5 C15.8659932,5 19,8.13400675 19,12 C19,15.8659932 15.8659932,19 12,19 Z M15.2384,10.1192 C15.2384,8.3962 13.8414,7.0002 12.1194,7.0002 C10.3964,7.0002 9.0004,8.3962 9.0004,10.1192 C9.0004,10.6712 9.4474,11.1192 10.0004,11.1192 C10.5524,11.1192 11.0004,10.6712 11.0004,10.1192 C11.0004,9.5012 11.5014,9.0002 12.1194,9.0002 C12.7374,9.0002 13.2384,9.5012 13.2384,10.1192 C13.2384,10.4242 13.1084,10.6942 12.9094,10.8952 L11.4104,11.8892 C11.1304,12.0742 10.9624,12.3872 10.9624,12.7232 L10.9624,12.7452 L10.9604,12.7452 L10.9604,13.4982 C10.9604,14.0502 11.4084,14.4982 11.9604,14.4982 C12.5124,14.4982 12.9604,14.0502 12.9604,13.4982 L12.9604,13.2702 L13.6774,12.8062 C14.6064,12.2662 15.2384,11.2712 15.2384,10.1192 Z M11.9533,15.0023 C11.4023,15.0023 10.9553,15.4493 10.9553,16.0003 C10.9553,16.5513 11.4023,16.9973 11.9533,16.9973 C12.5043,16.9973 12.9513,16.5513 12.9513,16.0003 C12.9513,15.4493 12.5043,15.0023 11.9533,15.0023 Z"/>
</svg>
