<svg xmlns="http://www.w3.org/2000/svg" width="16" height="16" viewBox="0 0 16 16">
  <path fill="#FFAB00" fill-rule="evenodd" d="M2,0 L14,0 C15.1045695,-2.02906125e-16 16,0.8954305 16,2 L16,14 C16,15.1045695 15.1045695,16 14,16 L2,16 C0.8954305,16 1.3527075e-16,15.1045695 0,14 L0,2 C-1.3527075e-16,0.8954305 0.8954305,2.02906125e-16 2,0 Z M8,9 C8.55228475,9 9,8.55228475 9,8 C9,7.44771525 8.55228475,7 8,7 C7.44771525,7 7,7.44771525 7,8 C7,8.55228475 7.44771525,9 8,9 Z M7.01369835,10.8340984 C5.84135601,10.4261546 5,9.31133193 5,8 C5,6.68866807 5.84135601,5.57384536 7.01369835,5.16590157 C7.0046887,5.11194132 7,5.05651821 7,5 L7,3 C7,2.44771525 7.44771525,2 8,2 C8.55228475,2 9,2.44771525 9,3 L9,5 C9,5.05651821 8.9953113,5.11194132 8.98630165,5.16590157 C10.158644,5.57384536 11,6.68866807 11,8 C11,9.31133193 10.158644,10.4261546 8.98630165,10.8340984 C8.9953113,10.8880587 9,10.9434818 9,11 L9,13 C9,13.5522847 8.55228475,14 8,14 C7.44771525,14 7,13.5522847 7,13 L7,11 C7,10.9434818 7.0046887,10.8880587 7.01369835,10.8340984 Z"/>
</svg>
