<svg xmlns="http://www.w3.org/2000/svg" width="16" height="16" viewBox="0 0 16 16">
  <path fill="#36B37E" fill-rule="evenodd" d="M9,7 L9,4 C9,3.44771525 8.55228475,3 8,3 C7.44771525,3 7,3.44771525 7,4 L7,7 L4,7 C3.44771525,7 3,7.44771525 3,8 C3,8.55228475 3.44771525,9 4,9 L7,9 L7,12 C7,12.5522847 7.44771525,13 8,13 C8.55228475,13 9,12.5522847 9,12 L9,9 L12,9 C12.5522847,9 13,8.55228475 13,8 C13,7.44771525 12.5522847,7 12,7 L9,7 Z M2,0 L14,0 C15.1045695,-2.02906125e-16 16,0.8954305 16,2 L16,14 C16,15.1045695 15.1045695,16 14,16 L2,16 C0.8954305,16 1.3527075e-16,15.1045695 0,14 L0,2 C-1.3527075e-16,0.8954305 0.8954305,2.02906125e-16 2,0 Z"/>
</svg>
