<svg width="16" height="16" fill="none" viewBox="0 0 16 16"><path fill="currentcolor" d="M4.25 13.25v-.75h-.2l-.17.1zm-3.5 2H0a.75.75 0 0 0 1.12.65zM2.63 2h10.75V.5H2.63zM14.5 3.13v8.25H16V3.13zm-1.12 9.37H4.25V14h9.13zm-9.5.1-3.5 2 .74 1.3 3.5-2zM1.5 15.25V3.13H0v12.12zm13-3.87c0 .62-.5 1.13-1.12 1.13V14A2.63 2.63 0 0 0 16 11.38zM13.38 2c.62 0 1.13.5 1.13 1.13H16A2.63 2.63 0 0 0 13.38.5zM2.63.5A2.63 2.63 0 0 0 0 3.13h1.5C1.5 2.5 2 2 2.63 2zM6 7.25a1 1 0 1 1-2 0 1 1 0 0 1 2 0m3 0a1 1 0 1 1-2 0 1 1 0 0 1 2 0m3 0a1 1 0 1 1-2 0 1 1 0 0 1 2 0"/></svg>