<svg width="16" height="16" fill="none" viewBox="0 0 16 16"><path fill="currentcolor" fill-rule="evenodd" d="M11.65 11.56v-1.31h1.32V6.09h-1.32V4.78h4.14v1.31h-1.32v4.16h1.32v1.31zm-5.37 0V4.78h2.34q.71 0 1.25.27.55.27.84.76.3.49.3 1.15 0 .65-.3 1.15-.3.49-.84.76t-1.25.27h-.85v2.43zm2.99-5.2c-.16-.15-.37-.23-.65-.23h-.85v1.65h.84q.42 0 .65-.22a.78.78 0 0 0 .24-.6q0-.38-.24-.59zm-9.08 5.2 1.66-6.79h1.83l1.68 6.79H3.84l-.32-1.51H2.04l-.32 1.51zm3.07-2.73-.3-1.53a23 23 0 0 0-.14-.68l-.04-.21-.04.2q-.06.34-.13.69l-.32 1.54z" clip-rule="evenodd"/></svg>