<svg width="16" height="16" fill="none" viewBox="0 0 16 16"><path stroke="currentcolor" stroke-linejoin="round" stroke-width="1.5" d="M9.59 6.409a2.25 2.25 0 0 1 0 3.182m0-3.182a2.25 2.25 0 0 0-3.181 0m3.182 0 2.598-2.598M9.591 9.59a2.25 2.25 0 0 1-3.182 0m3.182 0 2.598 2.598M6.41 9.591a2.25 2.25 0 0 1 0-3.182m0 3.182-2.6 2.598m2.598-5.78L3.81 3.811m8.378 0a1.5 1.5 0 1 0 2.122-2.122 1.5 1.5 0 0 0-2.122 2.122Zm0 8.378a1.5 1.5 0 1 0 2.122 2.122 1.5 1.5 0 0 0-2.122-2.122ZM3.811 3.811a1.5 1.5 0 1 0-2.122-2.122 1.5 1.5 0 0 0 2.122 2.122Zm0 8.378a1.5 1.5 0 1 1-2.122 2.122 1.5 1.5 0 0 1 2.122-2.122Z"/></svg>