<svg width="16" height="16" fill="none" viewBox="0 0 16 16"><path stroke="currentcolor" stroke-width="1.5" d="M9.055 15.173a7.23 7.23 0 0 1 .46-6.298 7.23 7.23 0 0 1 5.224-3.548m-5.684 9.846a7.22 7.22 0 0 1-4.68-.894 7.22 7.22 0 0 1-3.115-3.606m7.795 4.5a7.24 7.24 0 0 0 4.861-2.981M1.26 10.673q.33-.048.65-.126a7.23 7.23 0 0 0 4.574-3.422A7.23 7.23 0 0 0 6.945.827M1.26 10.673a7.24 7.24 0 0 1 .152-5.7m0 0q.14-.304.31-.598A7.24 7.24 0 0 1 6.944.827M1.412 4.972c2.452.004 4.937.631 7.213 1.945a14.43 14.43 0 0 1 5.291 5.275M6.946.827a7.22 7.22 0 0 1 4.679.894 7.22 7.22 0 0 1 3.114 3.606m0 0a7.24 7.24 0 0 1-.823 6.865"/></svg>