<svg width="16" height="16" fill="none" viewBox="0 0 16 16"><path fill="currentcolor" fill-rule="evenodd" d="M12.84 10.2q-.2-.19-.2-.53v-.06h-1.49v.06q0 .6.28 1.06.28.45.79.69.52.23 1.21.23t1.21-.23q.52-.24.79-.69a1.95 1.95 0 0 0 .28-1.05v-.56c0-.61-.21-1.1-.62-1.46a2.1 2.1 0 0 0-.95-.46l1.3-1.15V4.78h-3.98v1.27h2.36l-1.24 1.1v1.27h.85c.26 0 .46.07.59.19.14.12.21.29.21.53v.55c0 .24-.07.41-.2.53q-.195.18-.6.18-.39 0-.6-.18m-6.99 1.34v-1.37l2.14-2.06q.37-.36.55-.66t.18-.64c0-.26-.07-.44-.2-.58q-.19-.2-.54-.2-.39 0-.6.23-.21.21-.21.62v.06h-1.5V6.9q0-.67.28-1.16.29-.5.82-.77t1.23-.27q.66 0 1.15.25.5.24.77.69.28.45.28 1.05 0 .66-.33 1.27T8.83 9.22l-1.08.99h2.52v1.36zm-3.7-1.31H.46v1.31h4.51v-1.31H3.63V4.78H2.05L.44 5.9v1.57l1.7-1.26z" clip-rule="evenodd"/></svg>