<svg width="16" height="16" fill="none" viewBox="0 0 16 16"><path fill="currentcolor" fill-rule="evenodd" d="m6.25 6.25-.5-.5a.5.5 0 1 0 .5.5" clip-rule="evenodd"/><path fill="currentcolor" d="M10.75 6.25a.5.5 0 1 1-1 0 .5.5 0 0 1 1 0"/><path stroke="currentcolor" stroke-width="1.5" d="M4.75 9.75S6 11.5 8 11.5c1.085 0 1.95-.515 2.513-.987M6.25 6.25a.501.501 0 1 1-.5-.5m.5.5-.5-.5m.5.5 4.263 4.263M5.75 5.75 2.873 2.873M1 1l1.873 1.873M15 15l-1.873-1.873M5.278 1.277a7.25 7.25 0 0 1 9.444 9.444M2.873 2.873a7.25 7.25 0 1 0 10.253 10.253M2.874 2.874l7.64 7.64m2.614 2.614-2.614-2.614m.237-4.263a.5.5 0 1 1-1 0 .5.5 0 0 1 1 0Z"/></svg>