<svg width="16" height="16" fill="none" viewBox="0 0 16 16"><path fill="currentcolor" d="M6 15.25h-.75a.75.75 0 0 0 1.304.505zm7.75-8.5.554.505a.75.75 0 0 0-.407-1.24zM10 6h-.75v.615l.603.12zm0-5.25h.75A.75.75 0 0 0 9.446.245zm-7.75 8.5-.554-.505a.75.75 0 0 0 .407 1.24zM6 10h.75v-.615l-.603-.12zm.554 5.755 7.75-8.5-1.108-1.01-7.75 8.5zm7.343-9.74-3.75-.75-.294 1.47 3.75.75zM10.75 6V.75h-1.5V6zM9.446.245l-7.75 8.5 1.108 1.01 7.75-8.5zm-7.343 9.74 3.75.75.294-1.47-3.75-.75zM5.25 10v5.25h1.5V10z"/></svg>