<svg width="16" height="16" fill="none" viewBox="0 0 16 16"><path fill="currentColor" fill-rule="evenodd" d="M8 3.5A8.07 8.07 0 0 0 .75 8 8.07 8.07 0 0 0 8 12.5 8.07 8.07 0 0 0 15.25 8 8.07 8.07 0 0 0 8 3.5m0 8.75a4.25 4.25 0 1 0 0-8.5 4.25 4.25 0 0 0 0 8.5" clip-rule="evenodd"/><path fill="currentColor" d="M9.25 8a1.25 1.25 0 1 1-2.5 0 1.25 1.25 0 0 1 2.5 0"/><path stroke="currentColor" stroke-linejoin="round" stroke-width="1.5" d="M8 3.5A8.07 8.07 0 0 0 .75 8 8.07 8.07 0 0 0 8 12.5 8.07 8.07 0 0 0 15.25 8 8.07 8.07 0 0 0 8 3.5Zm0 8.75a4.25 4.25 0 1 0 0-8.5 4.25 4.25 0 0 0 0 8.5Z" clip-rule="evenodd"/><path stroke="currentColor" stroke-linejoin="round" stroke-width="1.5" d="M9.25 8a1.25 1.25 0 1 1-2.5 0 1.25 1.25 0 0 1 2.5 0Z"/></svg>