<svg width="16" height="16" fill="none" viewBox="0 0 16 16"><path stroke="currentcolor" stroke-width="1.5" d="M5 2.75h10M5 8h10M5 13.25h10"/><path fill="currentcolor" d="M2.02 8.22.75 9.44v.98h2.81V9.38H2.31l.38-.35q.42-.38.62-.76a1.65 1.65 0 0 0 .2-.79q0-.38-.18-.67a1.2 1.2 0 0 0-.5-.44 1.55 1.55 0 0 0-.72-.16q-.43 0-.77.17t-.52.49c-.12.21-.18.46-.18.73v.17h1.12v-.16c0-.14.04-.22.09-.27a.34.34 0 0 1 .25-.09c.11 0 .18.03.22.08.05.05.08.12.08.24a.56.56 0 0 1-.09.3 1.8 1.8 0 0 1-.29.35m-.25-6v1.94H.81v1.01h2.85V4.15h-.77V1H1.81L.8 1.71v1.23zm-.42 13.35q.33.15.75.15t.75-.15.51-.45.18-.67v-.32c0-.38-.13-.7-.4-.94a1.3 1.3 0 0 0-.37-.22l.62-.55v-.92H.84v.99h1.15l-.5.44v.92h.62c.13 0 .2.03.25.08.04.04.08.1.08.21v.32c0 .11-.03.17-.07.21s-.12.07-.26.07c-.13 0-.21-.03-.26-.07-.04-.04-.07-.11-.07-.21v-.16H.66v.17c0 .25.06.48.18.68q.19.29.51.44"/></svg>