<svg width="16" height="16" fill="none" viewBox="0 0 16 16"><path stroke="currentcolor" stroke-width="1.5" d="M10.652 5.348A3.75 3.75 0 1 0 8 11.75m-.25-3.5 5.377-5.377A7.25 7.25 0 1 0 8 15.25"/><path fill="currentcolor" fill-rule="evenodd" d="M14.58 4.862a.75.75 0 0 1 .959.454l.008.025a.75.75 0 1 1-1.414.499l-.007-.02a.75.75 0 0 1 .454-.958m-2.798 2.573a.75.75 0 0 1 .713.786l-.001.014-.001.015a.75.75 0 1 1-1.498-.083v-.01l.001-.01a.75.75 0 0 1 .786-.712m3.497.183a.75.75 0 0 1 .71.788v.026a.75.75 0 1 1-1.498-.081v-.022a.75.75 0 0 1 .788-.71m-4.205 2.657a.75.75 0 0 1-.052 1.06l-.022.019a.75.75 0 1 1-1-1.118l.015-.013a.75.75 0 0 1 1.059.052m3.799.159a.75.75 0 0 1 .355 1l-.011.023a.75.75 0 0 1-1.353-.649l.01-.019a.75.75 0 0 1 .999-.355m-1.457 2.443a.75.75 0 0 1-.053 1.06l-.02.017a.75.75 0 1 1-1.001-1.117l.015-.014a.75.75 0 0 1 1.06.054m-2.278 1.703a.75.75 0 0 1-.454.958l-.025.009a.75.75 0 1 1-.499-1.415l.02-.007a.75.75 0 0 1 .958.455" clip-rule="evenodd"/></svg>