<svg width="16" height="16" fill="none" viewBox="0 0 16 16"><path fill="currentcolor" d="M.75 7.75V7a.75.75 0 0 0-.75.75zm14.5 0 .646.382A.75.75 0 0 0 15.25 7zm-12.5-3V4a.75.75 0 0 0-.75.75zm6.25 0 .648-.378A.75.75 0 0 0 9 4zm-4.25-2V2H4v.75zm1.5 0H7V2h-.75zm6.113 9.886.646.382zm2.241-5.268-2.887 4.886 1.292.764 2.887-4.886zM11.287 12.5H2V14h9.287zM1.5 12V7.75H0V12zM.75 8.5h2V7h-2zm2.75-.75v-3H2v3zm-.75.75h8V7h-8zm8 0h4.5V7h-4.5zM8.352 5.128l1.75 3 1.296-.756-1.75-3zM2.75 5.5h2V4h-2zm2.75-.75v-2H4v2zM4.75 3.5h1.5V2h-1.5zm0 2h1.5V4h-1.5zm1.5 0H9V4H6.25zM5.5 2.75v2H7v-2zM2 12.5a.5.5 0 0 1-.5-.5H0a2 2 0 0 0 2 2zm9.717-.246a.5.5 0 0 1-.43.246V14a2 2 0 0 0 1.722-.982z"/></svg>