<svg width="16" height="16" fill="none" viewBox="0 0 16 16"><path stroke="currentcolor" stroke-linejoin="round" stroke-width="1.5" d="M6.75.75 5.687 3.302a.625.625 0 0 1-.667.378l-2.674-.388-1.25 2.166L2.72 7.625a.625.625 0 0 1 0 .75l-1.624 2.168 1.25 2.165 2.674-.388a.625.625 0 0 1 .667.378L6.75 15.25h2.5l1.063-2.552a.625.625 0 0 1 .667-.378l2.674.388 1.25-2.165-1.623-2.168a.625.625 0 0 1 0-.75l1.623-2.167-1.25-2.166-2.674.388a.625.625 0 0 1-.667-.378L9.25.75z"/><path stroke="currentcolor" stroke-linejoin="round" stroke-width="1.5" d="M10.25 8a2.25 2.25 0 1 1-4.5 0 2.25 2.25 0 0 1 4.5 0Z"/></svg>