<svg width="16" height="17" fill="none" viewBox="0 0 16 17"><path fill="currentcolor" fill-rule="evenodd" d="M9.15 1.406a1.713 1.713 0 0 0-2.3 0L5.7 2.448a.2.2 0 0 1-.15.055L4 2.443a1.713 1.713 0 0 0-1.763 1.48l-.21 1.536a.2.2 0 0 1-.08.14l-1.226.95c-.696.54-.87 1.52-.4 2.266l.828 1.312c.03.047.04.103.027.158L.848 11.8A1.713 1.713 0 0 0 2 13.793l1.477.474a.2.2 0 0 1 .123.103l.723 1.372c.41.78 1.346 1.12 2.162.787l1.436-.586a.2.2 0 0 1 .16 0l1.436.586a1.713 1.713 0 0 0 2.162-.787l.723-1.372a.2.2 0 0 1 .123-.103l1.477-.474a1.713 1.713 0 0 0 1.15-1.993l-.328-1.515a.2.2 0 0 1 .028-.159l.827-1.311a1.71 1.71 0 0 0-.4-2.267l-1.225-.95a.2.2 0 0 1-.08-.14l-.21-1.535A1.713 1.713 0 0 0 12 2.443l-1.55.06a.2.2 0 0 1-.15-.055zm3.176 5.074-1.152-.96-4.424 5.31-1.924-2.31-1.152.96 2.5 3a.75.75 0 0 0 1.152 0z" clip-rule="evenodd"/></svg>