<svg width="16" height="16" fill="none" viewBox="0 0 16 16"><path stroke="currentcolor" stroke-linejoin="round" stroke-width="1.5" d="M13.127 2.873a7.25 7.25 0 0 1 0 10.253m0-10.253a7.25 7.25 0 0 0-10.254 0m10.253 0-2.828 2.829m2.829 7.425a7.25 7.25 0 0 1-10.254 0m10.253 0-2.828-2.829m-7.425 2.829a7.25 7.25 0 0 1 0-10.254m0 10.253 2.829-2.828M2.873 2.873l2.829 2.829m4.596 0a3.25 3.25 0 0 1 0 4.596m0-4.596a3.25 3.25 0 0 0-4.596 0m4.596 4.596a3.25 3.25 0 0 1-4.596 0m0 0a3.25 3.25 0 0 1 0-4.596"/></svg>