<svg width="16" height="16" fill="none" viewBox="0 0 16 16"><path stroke="currentcolor" stroke-linejoin="round" stroke-width="1.5" d="M3 9.75h3m4 0h3M15.625 5l-1.903 1M.375 5l1.903 1m.26.5.48-3.206A1.81 1.81 0 0 1 4.811 1.75h6.378c.897 0 1.66.656 1.793 1.544l.48 3.206m1.788 5.25v-2.5a2.5 2.5 0 0 0-2.5-2.5h-9.5a2.5 2.5 0 0 0-2.5 2.5v4.375c0 .345.28.625.625.625h2.25c.345 0 .625-.28.625-.625v-.25c0-.345.28-.625.625-.625h6.25c.345 0 .625.28.625.625v.25c0 .345.28.625.625.625h2.25c.345 0 .625-.28.625-.625z"/></svg>