<svg width="16" height="16" fill="none" viewBox="0 0 16 16"><path fill="currentcolor" fill-rule="evenodd" d="M11.814 14.645a1.8 1.8 0 0 1-.707-.663l-.002-.002a1.97 1.97 0 0 1-.243-.99v-2.48q-.001-.557.244-.983.255-.433.709-.664.456-.239 1.053-.238.605-.001 1.054.238.454.232.7.664.254.426.253.983v2.48q0 .558-.252.991a1.7 1.7 0 0 1-.7.664h-.001q-.45.231-1.046.23-.604.001-1.06-.23zm1.543-1.22c.11-.1.17-.24.17-.435v-2.48c0-.195-.06-.335-.17-.435l-.002-.002c-.106-.1-.263-.158-.487-.158s-.383.058-.495.159c-.105.1-.164.24-.164.436v2.48c0 .195.06.335.171.435.113.102.27.16.488.16.224 0 .38-.058.487-.158zm-7.216 1.37v-1.33h1.442v-3.172l-1.458 1.072v-1.64l1.426-1.02h1.458v4.76h1.145v1.33z" clip-rule="evenodd"/><path fill="currentcolor" d="M14.25 5.75v.75a.75.75 0 0 0 .75-.75zM3.507 3.507l-.53-.53zm8.486 0 .53-.53zM14.25 5H10.5v1.5h3.75zm.75.75V2h-1.5v3.75zM4.038 11.462a5.25 5.25 0 0 1 0-7.424L2.977 2.977a6.75 6.75 0 0 0 0 9.546zm0-7.424a5.25 5.25 0 0 1 7.424 0l1.06-1.061a6.75 6.75 0 0 0-9.545 0zm7.424 0 2.008 2.007 1.06-1.06-2.007-2.008z"/></svg>