<svg xmlns="http://www.w3.org/2000/svg" width="24" height="24" viewBox="0 0 24 24">
  <path fill="#FF5630" fill-rule="evenodd" d="M3,0 L21,0 C22.6568542,-3.04359188e-16 24,1.34314575 24,3 L24,21 C24,22.6568542 22.6568542,24 21,24 L3,24 C1.34314575,24 2.02906125e-16,22.6568542 0,21 L0,3 C-2.02906125e-16,1.34314575 1.34314575,3.04359188e-16 3,0 Z M4.84595745,12.1691489 L5.32946809,12.1691489 C6.44489362,12.1691489 6.53202128,11.8484043 6.53202128,11.393617 C6.53202128,10.8756383 6.26393617,10.6228723 5.71531915,10.6228723 L4.84595745,10.6228723 L4.84595745,12.1691489 Z M11.1354255,14.3530851 L11.7998936,14.3530851 C12.5419149,14.3530851 13.3011702,14.1328723 13.3011702,12.4975532 C13.3011702,10.8488298 12.4988298,10.637234 11.7998936,10.637234 L11.1354255,10.637234 L11.1354255,14.3530851 Z M4.46297872,15.9903191 L3.38297872,15.9903191 C3.17138298,15.9903191 3,15.8179787 3,15.606383 L3,9.38297872 C3,9.17234043 3.17138298,9 3.38297872,9 L5.87712766,9 C7.36021277,9 8.39712766,9.98425532 8.39712766,11.393617 C8.39712766,12.8230851 7.38223404,13.7834043 5.87234043,13.7834043 L4.84595745,13.7834043 L4.84595745,15.606383 C4.84595745,15.8179787 4.67457447,15.9903191 4.46297872,15.9903191 Z M11.9138298,15.9903191 L9.67244681,15.9903191 C9.46085106,15.9903191 9.28946809,15.8179787 9.28946809,15.606383 L9.28946809,9.38297872 C9.28946809,9.17234043 9.46085106,9 9.67244681,9 L11.9138298,9 C14.0211702,9 15.1815957,10.2370213 15.1815957,12.4841489 C15.1815957,14.7446809 14.0211702,15.9903191 11.9138298,15.9903191 Z M17.6891489,15.9903191 L16.6081915,15.9903191 C16.3965957,15.9903191 16.2252128,15.8179787 16.2252128,15.606383 L16.2252128,9.38297872 C16.2252128,9.17234043 16.3965957,9 16.6081915,9 L20.6170213,9 C20.8276596,9 21,9.17234043 21,9.38297872 L21,10.2628723 C21,10.4744681 20.8276596,10.6458511 20.6170213,10.6458511 L18.0721277,10.6458511 L18.0721277,11.7861702 L20.3642553,11.7861702 C20.5758511,11.7861702 20.747234,11.9575532 20.747234,12.1691489 L20.747234,13.0356383 C20.747234,13.2462766 20.5758511,13.418617 20.3642553,13.418617 L18.0721277,13.418617 L18.0721277,15.606383 C18.0721277,15.8179787 17.9007447,15.9903191 17.6891489,15.9903191 Z"/>
</svg>
