<svg xmlns="http://www.w3.org/2000/svg" width="16" height="16" viewBox="0 0 16 16">
  <path fill="#2684FF" fill-rule="evenodd" d="M9.99971599,8.73227129 L9.99973917,9.01128868 C9.99731177,10.1120688 9.10298533,11.0024597 8.00220516,11.0000323 L7.99779484,13.0000373 C10.2031418,13.0048906 11.9948711,11.221046 11.999744,9.00655274 L11.9997206,8.73259719 C12.5976761,8.38682755 13,7.74039767 13,7 C13,5.8954305 12.1045695,5 11,5 C9.8954305,5 9,5.8954305 9,7 C9,7.74016512 9.40207125,8.38642146 9.99971599,8.73227129 Z M6,5.73243561 C6.59780137,5.38662619 7,4.74028236 7,4 C7,2.8954305 6.1045695,2 5,2 C3.8954305,2 3,2.8954305 3,4 C3,4.74028236 3.40219863,5.38662619 4,5.73243561 L4,10.2675644 C3.40219863,10.6133738 3,11.2597176 3,12 C3,13.1045695 3.8954305,14 5,14 C6.1045695,14 7,13.1045695 7,12 C7,11.2597176 6.59780137,10.6133738 6,10.2675644 L6,5.73243561 Z M2,0 L14,0 C15.1045695,-2.02906125e-16 16,0.8954305 16,2 L16,14 C16,15.1045695 15.1045695,16 14,16 L2,16 C0.8954305,16 1.3527075e-16,15.1045695 0,14 L0,2 C-1.3527075e-16,0.8954305 0.8954305,2.02906125e-16 2,0 Z"/>
</svg>
