<svg xmlns="http://www.w3.org/2000/svg" width="24" height="24" viewBox="0 0 24 24">
  <path fill="#2684FF" fill-rule="evenodd" d="M9,15.1707057 L9,8.82929429 C10.1651924,8.41745788 11,7.30621883 11,6 C11,4.34314575 9.65685425,3 8,3 C6.34314575,3 5,4.34314575 5,6 C5,7.30621883 5.83480763,8.41745788 7,8.82929429 L7,15.1707057 C5.83480763,15.5825421 5,16.6937812 5,18 C5,19.6568542 6.34314575,21 8,21 C9.30621883,21 10.4174579,20.1651924 10.8292943,19 L15,19 C16.6568542,19 18,17.6568542 18,16 L18,13.6916232 C19.1651924,13.2797867 20,12.1685477 20,10.8623289 C20,9.20547462 18.6568542,7.86232887 17,7.86232887 C15.3431458,7.86232887 14,9.20547462 14,10.8623289 C14,12.1685477 14.8348076,13.2797867 16,13.6916232 L16,16 C16,16.5522847 15.5522847,17 15,17 L10.8292943,17 C10.5280094,16.1475866 9.85241345,15.4719906 9,15.1707057 Z M3,0 L21,0 C22.6568542,-3.04359188e-16 24,1.34314575 24,3 L24,21 C24,22.6568542 22.6568542,24 21,24 L3,24 C1.34314575,24 2.02906125e-16,22.6568542 0,21 L0,3 C-2.02906125e-16,1.34314575 1.34314575,3.04359188e-16 3,0 Z M8,7 C7.44771525,7 7,6.55228475 7,6 C7,5.44771525 7.44771525,5 8,5 C8.55228475,5 9,5.44771525 9,6 C9,6.55228475 8.55228475,7 8,7 Z M17,11.8623289 C16.4477153,11.8623289 16,11.4146136 16,10.8623289 C16,10.3100441 16.4477153,9.86232887 17,9.86232887 C17.5522847,9.86232887 18,10.3100441 18,10.8623289 C18,11.4146136 17.5522847,11.8623289 17,11.8623289 Z M8,19 C7.44771525,19 7,18.5522847 7,18 C7,17.4477153 7.44771525,17 8,17 C8.55228475,17 9,17.4477153 9,18 C9,18.5522847 8.55228475,19 8,19 Z"/>
</svg>
