<svg width="66" height="24" viewBox="0 0 66 24" fill="none" xmlns="http://www.w3.org/2000/svg">
<path d="M0 6C0 2.68629 2.68629 0 6 0H18C21.3137 0 24 2.68629 24 6V18C24 21.3137 21.3137 24 18 24H6C2.68629 24 0 21.3137 0 18V6Z" fill="#FB9700"/>
<path d="M18.545 18.5451C18.545 16.0672 16.5176 14.0649 14.0648 14.0649H9.93509V10.2856H5.45496V17.7191C5.45496 18.2948 5.70524 18.5451 6.2809 18.5451H18.545ZM5.45496 5.45508C5.45496 7.93292 7.43222 9.93521 9.91006 9.93521H14.0648V13.7145H18.545V6.28102C18.545 5.73039 18.2696 5.45508 17.719 5.45508H5.45496Z" fill="#101214"/>
<path d="M59.9551 12.5498V17H58.0273V9.35742H59.8457L59.8799 11.2578H59.75C59.9551 10.6107 60.2627 10.1162 60.6729 9.77441C61.083 9.43262 61.6071 9.26172 62.2451 9.26172C62.7692 9.26172 63.2272 9.37565 63.6191 9.60352C64.0156 9.83138 64.321 10.1595 64.5352 10.5879C64.7539 11.0163 64.8633 11.5335 64.8633 12.1396V17H62.9424V12.4609C62.9424 11.9642 62.8148 11.5768 62.5596 11.2988C62.3044 11.0208 61.9535 10.8818 61.5068 10.8818C61.2061 10.8818 60.9372 10.9479 60.7002 11.0801C60.4678 11.2077 60.2855 11.3968 60.1533 11.6475C60.0212 11.8936 59.9551 12.1943 59.9551 12.5498Z" fill="#292A2E"/>
<path d="M52.5723 20.0215C51.9479 20.0215 51.4033 19.9417 50.9385 19.7822C50.4782 19.6273 50.0999 19.4108 49.8037 19.1328C49.512 18.8594 49.307 18.5472 49.1885 18.1963L50.8291 17.6836C50.902 17.8249 51.0068 17.9661 51.1436 18.1074C51.2803 18.2487 51.4648 18.3649 51.6973 18.4561C51.9297 18.5518 52.2191 18.5996 52.5654 18.5996C53.1032 18.5996 53.5293 18.4743 53.8438 18.2236C54.1582 17.9775 54.3154 17.5902 54.3154 17.0615V15.6396H54.165C54.0739 15.8356 53.9417 16.0293 53.7686 16.2207C53.5999 16.4121 53.3743 16.5716 53.0918 16.6992C52.8092 16.8268 52.4538 16.8906 52.0254 16.8906C51.4466 16.8906 50.9202 16.7539 50.4463 16.4805C49.9769 16.207 49.6009 15.7946 49.3184 15.2432C49.0404 14.6917 48.9014 13.999 48.9014 13.165C48.9014 12.3128 49.0426 11.5973 49.3252 11.0186C49.6077 10.4398 49.986 10.0023 50.46 9.70605C50.9339 9.40983 51.4603 9.26172 52.0391 9.26172C52.4766 9.26172 52.8411 9.33691 53.1328 9.4873C53.4245 9.63314 53.6592 9.81315 53.8369 10.0273C54.0146 10.237 54.1491 10.4398 54.2402 10.6357H54.3291V9.35742H56.2158V16.9795C56.2158 17.6631 56.0586 18.2305 55.7441 18.6816C55.4342 19.1328 55.0036 19.4678 54.4521 19.6865C53.9053 19.9098 53.2786 20.0215 52.5723 20.0215ZM52.5996 15.4004C52.9688 15.4004 53.2809 15.3115 53.5361 15.1338C53.7913 14.9561 53.985 14.6986 54.1172 14.3613C54.2539 14.0241 54.3223 13.6208 54.3223 13.1514C54.3223 12.682 54.2562 12.2741 54.124 11.9277C53.9919 11.5768 53.7982 11.3057 53.543 11.1143C53.2878 10.9183 52.9733 10.8203 52.5996 10.8203C52.2214 10.8203 51.9023 10.9206 51.6426 11.1211C51.3874 11.3216 51.1937 11.5973 51.0615 11.9482C50.9339 12.2992 50.8701 12.7002 50.8701 13.1514C50.8701 13.6071 50.9362 14.0036 51.0684 14.3408C51.2005 14.6781 51.3942 14.9401 51.6494 15.127C51.9092 15.3092 52.2259 15.4004 52.5996 15.4004Z" fill="#292A2E"/>
<path d="M45.4902 17V9.35742H47.418V17H45.4902ZM45.4697 8.27051V6.51367H47.4521V8.27051H45.4697Z" fill="#292A2E"/>
<path d="M43.4258 17.0479C42.6784 17.0479 42.127 16.8815 41.7715 16.5488C41.416 16.2161 41.2383 15.7194 41.2383 15.0586V6.81445H43.166V14.7783C43.166 15.0381 43.207 15.2272 43.2891 15.3457C43.3757 15.4596 43.526 15.5166 43.7402 15.5166C43.8542 15.5166 43.9408 15.512 44 15.5029C44.0638 15.4938 44.1185 15.4824 44.1641 15.4688L44.4785 16.8906C44.3691 16.9271 44.221 16.9635 44.0342 17C43.8519 17.0319 43.6491 17.0479 43.4258 17.0479Z" fill="#292A2E"/>
<path d="M30.335 17L33.8555 6.81445H36.3916L39.9941 17H37.8203L36.1045 11.9072C35.9176 11.3148 35.724 10.6562 35.5234 9.93164C35.3275 9.20703 35.1156 8.40267 34.8877 7.51855H35.3115C35.0882 8.40723 34.8831 9.21615 34.6963 9.94531C34.5094 10.6745 34.3271 11.3285 34.1494 11.9072L32.4951 17H30.335ZM32.4609 14.5596V13.001H37.8613V14.5596H32.4609Z" fill="#292A2E"/>
</svg>
