<svg width="95" height="24" viewBox="0 0 95 24" fill="none" xmlns="http://www.w3.org/2000/svg">
<path d="M0 6C0 2.68629 2.68629 0 6 0H18C21.3137 0 24 2.68629 24 6V18C24 21.3137 21.3137 24 18 24H6C2.68629 24 0 21.3137 0 18V6Z" fill="#DDDEE1"/>
<path d="M14.625 5.875L14.625 15.0625H17.6875V5.875H14.625Z" fill="#101214"/>
<path d="M5.875 18.125H17.6875V16.375H5.875V18.125Z" fill="#101214"/>
<path d="M5.875 15.0625V10.25H8.9375L8.9375 15.0625H5.875Z" fill="#101214"/>
<path d="M10.25 8.5L10.25 15.0625H13.3125V8.5L10.25 8.5Z" fill="#101214"/>
<path d="M91.0654 17.1504C90.4639 17.1504 89.9307 17.0661 89.4658 16.8975C89.001 16.7243 88.6204 16.4736 88.3242 16.1455C88.0326 15.8128 87.8411 15.4141 87.75 14.9492L89.5479 14.6279C89.6481 14.9925 89.8281 15.266 90.0879 15.4482C90.3477 15.626 90.6895 15.7148 91.1133 15.7148C91.5234 15.7148 91.8493 15.6351 92.0908 15.4756C92.3324 15.3115 92.4531 15.1087 92.4531 14.8672C92.4531 14.6576 92.3711 14.4867 92.207 14.3545C92.043 14.2178 91.79 14.113 91.4482 14.04L90.1357 13.7666C89.4066 13.6117 88.862 13.3564 88.502 13.001C88.1419 12.641 87.9619 12.1761 87.9619 11.6064C87.9619 11.1279 88.0941 10.7132 88.3584 10.3623C88.6227 10.0114 88.9896 9.74023 89.459 9.54883C89.9329 9.35742 90.4821 9.26172 91.1064 9.26172C91.6989 9.26172 92.2093 9.34603 92.6377 9.51465C93.0706 9.67871 93.4193 9.91113 93.6836 10.2119C93.9525 10.5081 94.1348 10.8613 94.2305 11.2715L92.5215 11.5859C92.4395 11.3216 92.2845 11.1029 92.0566 10.9297C91.8333 10.752 91.5257 10.6631 91.1338 10.6631C90.7783 10.6631 90.4798 10.7406 90.2383 10.8955C90.0013 11.0459 89.8828 11.2441 89.8828 11.4902C89.8828 11.6999 89.9603 11.873 90.1152 12.0098C90.2747 12.1465 90.5413 12.2559 90.915 12.3379L92.2549 12.6113C92.984 12.7617 93.5264 13.0078 93.8818 13.3496C94.2419 13.6914 94.4219 14.1335 94.4219 14.6758C94.4219 15.168 94.2783 15.6009 93.9912 15.9746C93.7041 16.3438 93.3076 16.6331 92.8018 16.8428C92.3005 17.0479 91.7217 17.1504 91.0654 17.1504Z" fill="#292A2E"/>
<path d="M83.2588 17.1504C82.5068 17.1504 81.8529 16.9863 81.2969 16.6582C80.7454 16.3301 80.3193 15.8698 80.0186 15.2773C79.7178 14.6849 79.5674 13.9967 79.5674 13.2129C79.5674 12.4245 79.7178 11.734 80.0186 11.1416C80.3193 10.5446 80.7454 10.082 81.2969 9.75391C81.8529 9.42578 82.5068 9.26172 83.2588 9.26172C83.7008 9.26172 84.1087 9.31868 84.4824 9.43262C84.8561 9.54655 85.1888 9.71061 85.4805 9.9248C85.7721 10.139 86.0137 10.3988 86.2051 10.7041C86.401 11.0094 86.5378 11.3535 86.6152 11.7363L84.8174 12.0918C84.7764 11.8913 84.7103 11.7113 84.6191 11.5518C84.528 11.3923 84.4163 11.2578 84.2842 11.1484C84.1566 11.0345 84.0085 10.9479 83.8398 10.8887C83.6712 10.8249 83.4844 10.793 83.2793 10.793C82.8919 10.793 82.5684 10.8978 82.3086 11.1074C82.0488 11.3125 81.8529 11.5973 81.7207 11.9619C81.5885 12.3219 81.5225 12.7367 81.5225 13.2061C81.5225 13.6709 81.5885 14.0856 81.7207 14.4502C81.8529 14.8102 82.0488 15.0951 82.3086 15.3047C82.5684 15.5143 82.8919 15.6191 83.2793 15.6191C83.4889 15.6191 83.6781 15.5895 83.8467 15.5303C84.0199 15.4665 84.1725 15.3753 84.3047 15.2568C84.4368 15.1383 84.5485 14.9971 84.6396 14.833C84.7308 14.6644 84.7969 14.4775 84.8379 14.2725L86.6289 14.6211C86.5514 15.0176 86.417 15.3708 86.2256 15.6807C86.0342 15.9906 85.7904 16.2549 85.4941 16.4736C85.2025 16.6924 84.8675 16.861 84.4893 16.9795C84.1156 17.0934 83.7054 17.1504 83.2588 17.1504Z" fill="#292A2E"/>
<path d="M76.1562 17V9.35742H78.084V17H76.1562ZM76.1357 8.27051V6.51367H78.1182V8.27051H76.1357Z" fill="#292A2E"/>
<path d="M74.7891 9.35742V10.8408H70.3457V9.35742H74.7891ZM71.4121 7.53906H73.333V14.8057C73.333 15.0609 73.39 15.25 73.5039 15.373C73.6178 15.4961 73.8047 15.5576 74.0645 15.5576C74.1419 15.5576 74.249 15.5485 74.3857 15.5303C74.5225 15.5075 74.6296 15.487 74.707 15.4688L74.9941 16.9316C74.7845 16.9954 74.5726 17.0387 74.3584 17.0615C74.1442 17.0889 73.9368 17.1025 73.7363 17.1025C72.9844 17.1025 72.4079 16.9202 72.0068 16.5557C71.6104 16.1865 71.4121 15.6579 71.4121 14.9697V7.53906Z" fill="#292A2E"/>
<path d="M62.4775 19.7139L62.9219 18.2441L63.1543 18.3057C63.4277 18.3786 63.6693 18.3991 63.8789 18.3672C64.0931 18.3353 64.2663 18.2441 64.3984 18.0938C64.5352 17.9479 64.6263 17.7406 64.6719 17.4717L64.7539 17.0273L61.876 9.35742H63.9199L65.2598 13.4111C65.4193 13.9079 65.5492 14.4046 65.6494 14.9014C65.7542 15.3981 65.8682 15.9108 65.9912 16.4395H65.5195C65.6471 15.9108 65.7702 15.3981 65.8887 14.9014C66.0117 14.4001 66.1553 13.9033 66.3193 13.4111L67.7139 9.35742H69.7373L66.4766 17.9365C66.3216 18.3467 66.1234 18.6999 65.8818 18.9961C65.6449 19.2923 65.3509 19.5179 65 19.6729C64.6536 19.8324 64.2367 19.9121 63.749 19.9121C63.4847 19.9121 63.2386 19.8916 63.0107 19.8506C62.7874 19.8141 62.6097 19.7686 62.4775 19.7139Z" fill="#292A2E"/>
<path d="M60.8711 17.0479C60.1237 17.0479 59.5723 16.8815 59.2168 16.5488C58.8613 16.2161 58.6836 15.7194 58.6836 15.0586V6.81445H60.6113V14.7783C60.6113 15.0381 60.6523 15.2272 60.7344 15.3457C60.821 15.4596 60.9714 15.5166 61.1855 15.5166C61.2995 15.5166 61.3861 15.512 61.4453 15.5029C61.5091 15.4938 61.5638 15.4824 61.6094 15.4688L61.9238 16.8906C61.8145 16.9271 61.6663 16.9635 61.4795 17C61.2972 17.0319 61.0944 17.0479 60.8711 17.0479Z" fill="#292A2E"/>
<path d="M52.6953 17.1299C52.1074 17.1299 51.5765 16.9772 51.1025 16.6719C50.6331 16.3665 50.2594 15.9222 49.9814 15.3389C49.708 14.751 49.5713 14.0355 49.5713 13.1924C49.5713 12.3311 49.7126 11.6087 49.9951 11.0254C50.2777 10.4421 50.6559 10.0023 51.1299 9.70605C51.6038 9.40983 52.1302 9.26172 52.709 9.26172C53.1465 9.26172 53.5088 9.33691 53.7959 9.4873C54.083 9.63314 54.3132 9.81315 54.4863 10.0273C54.6595 10.237 54.7917 10.4398 54.8828 10.6357H54.958V9.35742H56.8652V17H54.9648V15.7832H54.8828C54.7917 15.9792 54.6549 16.182 54.4727 16.3916C54.2949 16.6012 54.0625 16.7767 53.7754 16.918C53.4883 17.0592 53.1283 17.1299 52.6953 17.1299ZM53.2695 15.5781C53.6387 15.5781 53.9508 15.4779 54.2061 15.2773C54.4613 15.0768 54.6549 14.7965 54.7871 14.4365C54.9238 14.0765 54.9922 13.6595 54.9922 13.1855C54.9922 12.707 54.9261 12.2923 54.7939 11.9414C54.6618 11.5859 54.4681 11.3102 54.2129 11.1143C53.9577 10.9183 53.6432 10.8203 53.2695 10.8203C52.8913 10.8203 52.5723 10.9206 52.3125 11.1211C52.0573 11.3216 51.8636 11.5996 51.7314 11.9551C51.6038 12.3105 51.54 12.7207 51.54 13.1855C51.54 13.6458 51.6061 14.056 51.7383 14.416C51.8704 14.776 52.0641 15.0609 52.3193 15.2705C52.5791 15.4756 52.8958 15.5781 53.2695 15.5781Z" fill="#292A2E"/>
<path d="M43.166 12.5498V17H41.2383V9.35742H43.0566L43.0908 11.2578H42.9609C43.166 10.6107 43.4736 10.1162 43.8838 9.77441C44.2939 9.43262 44.818 9.26172 45.4561 9.26172C45.9801 9.26172 46.4382 9.37565 46.8301 9.60352C47.2266 9.83138 47.5319 10.1595 47.7461 10.5879C47.9648 11.0163 48.0742 11.5335 48.0742 12.1396V17H46.1533V12.4609C46.1533 11.9642 46.0257 11.5768 45.7705 11.2988C45.5153 11.0208 45.1644 10.8818 44.7178 10.8818C44.417 10.8818 44.1481 10.9479 43.9111 11.0801C43.6787 11.2077 43.4964 11.3968 43.3643 11.6475C43.2321 11.8936 43.166 12.1943 43.166 12.5498Z" fill="#292A2E"/>
<path d="M30.335 17L33.8555 6.81445H36.3916L39.9941 17H37.8203L36.1045 11.9072C35.9176 11.3148 35.724 10.6562 35.5234 9.93164C35.3275 9.20703 35.1156 8.40267 34.8877 7.51855H35.3115C35.0882 8.40723 34.8831 9.21615 34.6963 9.94531C34.5094 10.6745 34.3271 11.3285 34.1494 11.9072L32.4951 17H30.335ZM32.4609 14.5596V13.001H37.8613V14.5596H32.4609Z" fill="#292A2E"/>
</svg>
