<svg width="110" height="24" viewBox="0 0 110 24" fill="none" xmlns="http://www.w3.org/2000/svg">
<path d="M18 0C21.3137 0 24 2.68629 24 6V18C24 21.3137 21.3137 24 18 24H6C2.68629 24 0 21.3137 0 18V6C0 2.68629 2.68629 0 6 0H18ZM10.9678 12.2168C8.97114 12.2168 7.26919 13.0474 5.74902 15.3818L5.5 15.7627C5.2958 16.0769 5.25 16.1895 5.25 16.3242C5.25001 16.4589 5.31787 16.5714 5.56738 16.7285L8.13184 18.3223C8.26764 18.4118 8.38094 18.4569 8.49414 18.457C8.63022 18.457 8.72138 18.3893 8.85742 18.1875L9.26562 17.5586C9.90086 16.5935 10.4684 16.2794 11.1943 16.2793C11.8296 16.2793 12.5785 16.4593 13.5088 16.9082L16.1865 18.165C16.4587 18.2994 16.7536 18.232 16.8896 17.918L18.1602 15.1348C18.2963 14.8205 18.2053 14.6181 17.8877 14.4609C13.8493 12.5082 12.6694 12.2168 10.9678 12.2168ZM15.5059 5.5498C15.3697 5.5498 15.2787 5.61737 15.1426 5.81934L14.7344 6.44824C14.0992 7.41324 13.5316 7.72748 12.8057 7.72754C12.1704 7.72754 11.4215 7.54756 10.4912 7.09863L7.81348 5.8418C7.54129 5.70732 7.24643 5.77474 7.11035 6.08887L5.83984 8.87207C5.70375 9.18628 5.79468 9.38878 6.1123 9.5459C10.1506 11.4985 11.3307 11.79 13.0322 11.79C15.0289 11.79 16.7308 10.9594 18.251 8.625L18.5 8.24316C18.704 7.92915 18.7499 7.81718 18.75 7.68262C18.75 7.54797 18.6821 7.43539 18.4326 7.27832L15.8682 5.68457C15.7323 5.59501 15.6191 5.54991 15.5059 5.5498Z" fill="#292A2E"/>
<path d="M105.462 17.1504C104.687 17.1504 104.02 16.9909 103.459 16.6719C102.898 16.3483 102.468 15.8926 102.167 15.3047C101.866 14.7168 101.716 14.0218 101.716 13.2197C101.716 12.4359 101.864 11.7477 102.16 11.1553C102.461 10.5583 102.882 10.0934 103.425 9.76074C103.972 9.42806 104.614 9.26172 105.353 9.26172C105.836 9.26172 106.289 9.33919 106.713 9.49414C107.141 9.64909 107.52 9.88607 107.848 10.2051C108.176 10.5195 108.431 10.9206 108.613 11.4082C108.8 11.8913 108.894 12.4655 108.894 13.1309V13.6982H102.557V12.4473H107.95L107.048 12.7959C107.048 12.3812 106.984 12.0212 106.856 11.7158C106.729 11.4059 106.54 11.1667 106.289 10.998C106.043 10.8249 105.733 10.7383 105.359 10.7383C104.99 10.7383 104.676 10.8249 104.416 10.998C104.156 11.1712 103.958 11.4059 103.821 11.7021C103.685 11.9938 103.616 12.3219 103.616 12.6865V13.5615C103.616 14.0218 103.694 14.4115 103.849 14.7305C104.008 15.0449 104.227 15.2819 104.505 15.4414C104.787 15.6009 105.116 15.6807 105.489 15.6807C105.735 15.6807 105.961 15.6442 106.166 15.5713C106.371 15.4984 106.547 15.3936 106.692 15.2568C106.838 15.1156 106.95 14.9424 107.027 14.7373L108.777 15.0791C108.654 15.4938 108.442 15.8584 108.142 16.1729C107.841 16.4827 107.463 16.7243 107.007 16.8975C106.556 17.0661 106.041 17.1504 105.462 17.1504Z" fill="#292A2E"/>
<path d="M97.2041 17.1504C96.4521 17.1504 95.7982 16.9863 95.2422 16.6582C94.6908 16.3301 94.2646 15.8698 93.9639 15.2773C93.6631 14.6849 93.5127 13.9967 93.5127 13.2129C93.5127 12.4245 93.6631 11.734 93.9639 11.1416C94.2646 10.5446 94.6908 10.082 95.2422 9.75391C95.7982 9.42578 96.4521 9.26172 97.2041 9.26172C97.6462 9.26172 98.054 9.31868 98.4277 9.43262C98.8014 9.54655 99.1341 9.71061 99.4258 9.9248C99.7174 10.139 99.959 10.3988 100.15 10.7041C100.346 11.0094 100.483 11.3535 100.561 11.7363L98.7627 12.0918C98.7217 11.8913 98.6556 11.7113 98.5645 11.5518C98.4733 11.3923 98.3617 11.2578 98.2295 11.1484C98.1019 11.0345 97.9538 10.9479 97.7852 10.8887C97.6165 10.8249 97.4297 10.793 97.2246 10.793C96.8372 10.793 96.5137 10.8978 96.2539 11.1074C95.9941 11.3125 95.7982 11.5973 95.666 11.9619C95.5339 12.3219 95.4678 12.7367 95.4678 13.2061C95.4678 13.6709 95.5339 14.0856 95.666 14.4502C95.7982 14.8102 95.9941 15.0951 96.2539 15.3047C96.5137 15.5143 96.8372 15.6191 97.2246 15.6191C97.4342 15.6191 97.6234 15.5895 97.792 15.5303C97.9652 15.4665 98.1178 15.3753 98.25 15.2568C98.3822 15.1383 98.4938 14.9971 98.585 14.833C98.6761 14.6644 98.7422 14.4775 98.7832 14.2725L100.574 14.6211C100.497 15.0176 100.362 15.3708 100.171 15.6807C99.9795 15.9906 99.7357 16.2549 99.4395 16.4736C99.1478 16.6924 98.8128 16.861 98.4346 16.9795C98.0609 17.0934 97.6507 17.1504 97.2041 17.1504Z" fill="#292A2E"/>
<path d="M87.1074 12.5498V17H85.1797V9.35742H86.998L87.0322 11.2578H86.9023C87.1074 10.6107 87.415 10.1162 87.8252 9.77441C88.2354 9.43262 88.7594 9.26172 89.3975 9.26172C89.9216 9.26172 90.3796 9.37565 90.7715 9.60352C91.168 9.83138 91.4733 10.1595 91.6875 10.5879C91.9062 11.0163 92.0156 11.5335 92.0156 12.1396V17H90.0947V12.4609C90.0947 11.9642 89.9671 11.5768 89.7119 11.2988C89.4567 11.0208 89.1058 10.8818 88.6592 10.8818C88.3584 10.8818 88.0895 10.9479 87.8525 11.0801C87.6201 11.2077 87.4378 11.3968 87.3057 11.6475C87.1735 11.8936 87.1074 12.1943 87.1074 12.5498Z" fill="#292A2E"/>
<path d="M80.292 17.1504C79.5173 17.1504 78.8496 16.9909 78.2891 16.6719C77.7285 16.3483 77.2979 15.8926 76.9971 15.3047C76.6963 14.7168 76.5459 14.0218 76.5459 13.2197C76.5459 12.4359 76.694 11.7477 76.9902 11.1553C77.291 10.5583 77.7126 10.0934 78.2549 9.76074C78.8018 9.42806 79.4443 9.26172 80.1826 9.26172C80.6657 9.26172 81.1191 9.33919 81.543 9.49414C81.9714 9.64909 82.3496 9.88607 82.6777 10.2051C83.0059 10.5195 83.2611 10.9206 83.4434 11.4082C83.6302 11.8913 83.7236 12.4655 83.7236 13.1309V13.6982H77.3867V12.4473H82.7803L81.8779 12.7959C81.8779 12.3812 81.8141 12.0212 81.6865 11.7158C81.5589 11.4059 81.3698 11.1667 81.1191 10.998C80.873 10.8249 80.5632 10.7383 80.1895 10.7383C79.8203 10.7383 79.5059 10.8249 79.2461 10.998C78.9863 11.1712 78.7881 11.4059 78.6514 11.7021C78.5146 11.9938 78.4463 12.3219 78.4463 12.6865V13.5615C78.4463 14.0218 78.5238 14.4115 78.6787 14.7305C78.8382 15.0449 79.057 15.2819 79.335 15.4414C79.6175 15.6009 79.9456 15.6807 80.3193 15.6807C80.5654 15.6807 80.791 15.6442 80.9961 15.5713C81.2012 15.4984 81.3766 15.3936 81.5225 15.2568C81.6683 15.1156 81.7799 14.9424 81.8574 14.7373L83.6074 15.0791C83.4844 15.4938 83.2725 15.8584 82.9717 16.1729C82.6709 16.4827 82.2926 16.7243 81.8369 16.8975C81.3857 17.0661 80.8708 17.1504 80.292 17.1504Z" fill="#292A2E"/>
<path d="M70.8447 17.0957C70.3161 17.0957 69.8535 16.9818 69.457 16.7539C69.0651 16.526 68.7598 16.1979 68.541 15.7695C68.3223 15.3366 68.2129 14.8193 68.2129 14.2178V9.35742H70.1406V13.8965C70.1406 14.3932 70.2682 14.7806 70.5234 15.0586C70.7786 15.3366 71.1296 15.4756 71.5762 15.4756C71.8815 15.4756 72.1504 15.4118 72.3828 15.2842C72.6152 15.152 72.7975 14.9606 72.9297 14.71C73.0618 14.4593 73.1279 14.1585 73.1279 13.8076V9.35742H75.0557V17H73.2305L73.21 15.0996H73.333C73.1279 15.7559 72.818 16.2526 72.4033 16.5898C71.9886 16.9271 71.4691 17.0957 70.8447 17.0957Z" fill="#292A2E"/>
<path d="M66.1484 17.0479C65.401 17.0479 64.8496 16.8815 64.4941 16.5488C64.1387 16.2161 63.9609 15.7194 63.9609 15.0586V6.81445H65.8887V14.7783C65.8887 15.0381 65.9297 15.2272 66.0117 15.3457C66.0983 15.4596 66.2487 15.5166 66.4629 15.5166C66.5768 15.5166 66.6634 15.512 66.7227 15.5029C66.7865 15.4938 66.8411 15.4824 66.8867 15.4688L67.2012 16.8906C67.0918 16.9271 66.9437 16.9635 66.7568 17C66.5745 17.0319 66.3717 17.0479 66.1484 17.0479Z" fill="#292A2E"/>
<path d="M62.6006 9.35742V10.8408H57.6855V9.35742H62.6006ZM59.0596 17V8.70117C59.0596 8.17708 59.1667 7.73958 59.3809 7.38867C59.5951 7.03776 59.8867 6.77572 60.2559 6.60254C60.625 6.4248 61.0352 6.33594 61.4863 6.33594C61.8053 6.33594 62.0924 6.361 62.3477 6.41113C62.6029 6.46126 62.7897 6.50684 62.9082 6.54785L62.5459 8.01758C62.4639 7.99023 62.3659 7.96517 62.252 7.94238C62.138 7.9196 62.0081 7.9082 61.8623 7.9082C61.5433 7.9082 61.3154 7.98568 61.1787 8.14062C61.042 8.29557 60.9736 8.5166 60.9736 8.80371V17H59.0596Z" fill="#292A2E"/>
<path d="M51.7246 12.5498V17H49.7969V9.35742H51.6152L51.6494 11.2578H51.5195C51.7246 10.6107 52.0322 10.1162 52.4424 9.77441C52.8525 9.43262 53.3766 9.26172 54.0146 9.26172C54.5387 9.26172 54.9967 9.37565 55.3887 9.60352C55.7852 9.83138 56.0905 10.1595 56.3047 10.5879C56.5234 11.0163 56.6328 11.5335 56.6328 12.1396V17H54.7119V12.4609C54.7119 11.9642 54.5843 11.5768 54.3291 11.2988C54.0739 11.0208 53.723 10.8818 53.2764 10.8818C52.9756 10.8818 52.7067 10.9479 52.4697 11.0801C52.2373 11.2077 52.055 11.3968 51.9229 11.6475C51.7907 11.8936 51.7246 12.1943 51.7246 12.5498Z" fill="#292A2E"/>
<path d="M44.6152 17.1504C43.8587 17.1504 43.2025 16.9863 42.6465 16.6582C42.0951 16.3301 41.6689 15.8698 41.3682 15.2773C41.0674 14.6849 40.917 13.9967 40.917 13.2129C40.917 12.4245 41.0674 11.734 41.3682 11.1416C41.6689 10.5446 42.0951 10.082 42.6465 9.75391C43.2025 9.42578 43.8587 9.26172 44.6152 9.26172C45.3717 9.26172 46.0257 9.42578 46.5771 9.75391C47.1331 10.082 47.5615 10.5446 47.8623 11.1416C48.1631 11.734 48.3135 12.4245 48.3135 13.2129C48.3135 13.9967 48.1631 14.6849 47.8623 15.2773C47.5615 15.8698 47.1331 16.3301 46.5771 16.6582C46.0257 16.9863 45.3717 17.1504 44.6152 17.1504ZM44.6152 15.6191C45.0026 15.6191 45.3262 15.5143 45.5859 15.3047C45.8457 15.0905 46.0394 14.8011 46.167 14.4365C46.2946 14.0719 46.3584 13.6618 46.3584 13.2061C46.3584 12.7503 46.2946 12.3402 46.167 11.9756C46.0394 11.611 45.8457 11.3239 45.5859 11.1143C45.3262 10.9001 45.0026 10.793 44.6152 10.793C44.2279 10.793 43.9043 10.9001 43.6445 11.1143C43.3893 11.3239 43.1956 11.611 43.0635 11.9756C42.9359 12.3356 42.8721 12.7458 42.8721 13.2061C42.8721 13.6618 42.9359 14.0719 43.0635 14.4365C43.1956 14.8011 43.3893 15.0905 43.6445 15.3047C43.9043 15.5143 44.2279 15.6191 44.6152 15.6191Z" fill="#292A2E"/>
<path d="M35.3662 17.1367C34.4684 17.1367 33.6663 16.9316 32.96 16.5215C32.2536 16.1068 31.6953 15.5098 31.2852 14.7305C30.875 13.9512 30.6699 13.0124 30.6699 11.9141C30.6699 10.8112 30.875 9.87012 31.2852 9.09082C31.6999 8.30697 32.2604 7.70996 32.9668 7.2998C33.6777 6.88509 34.4775 6.67773 35.3662 6.67773C35.9359 6.67773 36.4668 6.75749 36.959 6.91699C37.4557 7.0765 37.8955 7.3112 38.2783 7.62109C38.6611 7.92643 38.9756 8.30013 39.2217 8.74219C39.4678 9.18424 39.6296 9.68783 39.707 10.2529H37.7246C37.6745 9.96126 37.5811 9.70378 37.4443 9.48047C37.3076 9.25716 37.1367 9.06803 36.9316 8.91309C36.7311 8.75358 36.501 8.63281 36.2412 8.55078C35.9814 8.46875 35.7035 8.42773 35.4072 8.42773C34.8649 8.42773 34.3864 8.56445 33.9717 8.83789C33.557 9.10677 33.2334 9.50098 33.001 10.0205C32.7731 10.54 32.6592 11.1712 32.6592 11.9141C32.6592 12.666 32.7754 13.3018 33.0078 13.8213C33.2402 14.3363 33.5615 14.7259 33.9717 14.9902C34.3864 15.2546 34.8626 15.3867 35.4004 15.3867C35.6966 15.3867 35.9723 15.3457 36.2275 15.2637C36.4873 15.1816 36.7197 15.0632 36.9248 14.9082C37.1344 14.7487 37.3076 14.5573 37.4443 14.334C37.5811 14.1061 37.6768 13.8486 37.7314 13.5615H39.7139C39.6546 14.04 39.5111 14.4935 39.2832 14.9219C39.0553 15.3503 38.7546 15.7331 38.3809 16.0703C38.0072 16.403 37.5674 16.665 37.0615 16.8564C36.5557 17.0433 35.9906 17.1367 35.3662 17.1367Z" fill="#292A2E"/>
</svg>
