<svg width="247" height="24" viewBox="0 0 247 24" fill="none" xmlns="http://www.w3.org/2000/svg">
<path d="M0 6C0 2.68629 2.68629 0 6 0H18C21.3137 0 24 2.68629 24 6V18C24 21.3137 21.3137 24 18 24H6C2.68629 24 0 21.3137 0 18V6Z" fill="#FFC716"/>
<path d="M16.4302 17.42C15.2235 18.4075 13.6809 19 12 19H6.4V18.5333L10.2385 14.7515C10.7468 15.0776 11.3513 15.2667 12 15.2667C12.6487 15.2667 13.2533 15.0776 13.7616 14.7515L16.4302 17.42Z" fill="#101214"/>
<path d="M17.4201 16.4301C18.4076 15.2234 19 13.6809 19 12C19 10.3191 18.4076 8.77665 17.4201 7.56995L14.7515 10.2385C15.0776 10.7468 15.2667 11.3513 15.2667 12C15.2667 12.6487 15.0776 13.2532 14.7515 13.7615L17.4201 16.4301Z" fill="#101214"/>
<path d="M16.4302 6.57999L13.7616 9.24855C13.2533 8.92245 12.6487 8.73333 12 8.73333C11.3513 8.73333 10.7468 8.92241 10.2385 9.24847L7.56995 6.57989C8.77665 5.59244 10.3191 5 12 5C13.6809 5 15.2235 5.59248 16.4302 6.57999Z" fill="#101214"/>
<path d="M6.57999 7.56983C5.59247 8.77655 5 10.3191 5 12C5 13.6809 5.59248 15.2235 6.57999 16.4302L9.24855 13.7616C8.92245 13.2533 8.73333 12.6487 8.73333 12C8.73333 11.3513 8.92245 10.7467 9.24855 10.2384L6.57999 7.56983Z" fill="#101214"/>
<path d="M246.18 9.35742V10.8408H241.736V9.35742H246.18ZM242.803 7.53906H244.724V14.8057C244.724 15.0609 244.781 15.25 244.895 15.373C245.008 15.4961 245.195 15.5576 245.455 15.5576C245.533 15.5576 245.64 15.5485 245.776 15.5303C245.913 15.5075 246.02 15.487 246.098 15.4688L246.385 16.9316C246.175 16.9954 245.963 17.0387 245.749 17.0615C245.535 17.0889 245.327 17.1025 245.127 17.1025C244.375 17.1025 243.799 16.9202 243.397 16.5557C243.001 16.1865 242.803 15.6579 242.803 14.9697V7.53906Z" fill="#292A2E"/>
<path d="M235.775 12.5498V17H233.848V9.35742H235.666L235.7 11.2578H235.57C235.775 10.6107 236.083 10.1162 236.493 9.77441C236.903 9.43262 237.427 9.26172 238.065 9.26172C238.59 9.26172 239.048 9.37565 239.439 9.60352C239.836 9.83138 240.141 10.1595 240.355 10.5879C240.574 11.0163 240.684 11.5335 240.684 12.1396V17H238.763V12.4609C238.763 11.9642 238.635 11.5768 238.38 11.2988C238.125 11.0208 237.774 10.8818 237.327 10.8818C237.026 10.8818 236.757 10.9479 236.521 11.0801C236.288 11.2077 236.106 11.3968 235.974 11.6475C235.841 11.8936 235.775 12.1943 235.775 12.5498Z" fill="#292A2E"/>
<path d="M228.96 17.1504C228.185 17.1504 227.518 16.9909 226.957 16.6719C226.396 16.3483 225.966 15.8926 225.665 15.3047C225.364 14.7168 225.214 14.0218 225.214 13.2197C225.214 12.4359 225.362 11.7477 225.658 11.1553C225.959 10.5583 226.381 10.0934 226.923 9.76074C227.47 9.42806 228.112 9.26172 228.851 9.26172C229.334 9.26172 229.787 9.33919 230.211 9.49414C230.639 9.64909 231.018 9.88607 231.346 10.2051C231.674 10.5195 231.929 10.9206 232.111 11.4082C232.298 11.8913 232.392 12.4655 232.392 13.1309V13.6982H226.055V12.4473H231.448L230.546 12.7959C230.546 12.3812 230.482 12.0212 230.354 11.7158C230.227 11.4059 230.038 11.1667 229.787 10.998C229.541 10.8249 229.231 10.7383 228.857 10.7383C228.488 10.7383 228.174 10.8249 227.914 10.998C227.654 11.1712 227.456 11.4059 227.319 11.7021C227.183 11.9938 227.114 12.3219 227.114 12.6865V13.5615C227.114 14.0218 227.192 14.4115 227.347 14.7305C227.506 15.0449 227.725 15.2819 228.003 15.4414C228.285 15.6009 228.614 15.6807 228.987 15.6807C229.233 15.6807 229.459 15.6442 229.664 15.5713C229.869 15.4984 230.045 15.3936 230.19 15.2568C230.336 15.1156 230.448 14.9424 230.525 14.7373L232.275 15.0791C232.152 15.4938 231.94 15.8584 231.64 16.1729C231.339 16.4827 230.961 16.7243 230.505 16.8975C230.054 17.0661 229.539 17.1504 228.96 17.1504Z" fill="#292A2E"/>
<path d="M212.834 17V9.35742H214.632L214.714 11.2305H214.577C214.691 10.7656 214.862 10.3874 215.09 10.0957C215.322 9.80404 215.593 9.58984 215.903 9.45312C216.213 9.31185 216.537 9.24121 216.874 9.24121C217.425 9.24121 217.87 9.41439 218.207 9.76074C218.544 10.1071 218.788 10.6312 218.938 11.333H218.713C218.822 10.859 219.005 10.4671 219.26 10.1572C219.52 9.84733 219.823 9.61719 220.169 9.4668C220.52 9.31641 220.894 9.24121 221.29 9.24121C221.75 9.24121 222.163 9.34147 222.527 9.54199C222.896 9.74251 223.186 10.0365 223.396 10.4238C223.61 10.8112 223.717 11.2852 223.717 11.8457V17H221.796V12.1807C221.796 11.7295 221.673 11.3968 221.427 11.1826C221.181 10.9684 220.882 10.8613 220.531 10.8613C220.262 10.8613 220.028 10.9206 219.827 11.0391C219.631 11.153 219.479 11.3148 219.369 11.5244C219.264 11.734 219.212 11.9779 219.212 12.2559V17H217.346V12.1123C217.346 11.7295 217.229 11.4264 216.997 11.2031C216.769 10.9753 216.473 10.8613 216.108 10.8613C215.858 10.8613 215.63 10.9183 215.425 11.0322C215.22 11.1462 215.058 11.3148 214.939 11.5381C214.821 11.7568 214.762 12.028 214.762 12.3516V17H212.834Z" fill="#292A2E"/>
<path d="M207.946 17.1504C207.172 17.1504 206.504 16.9909 205.943 16.6719C205.383 16.3483 204.952 15.8926 204.651 15.3047C204.351 14.7168 204.2 14.0218 204.2 13.2197C204.2 12.4359 204.348 11.7477 204.645 11.1553C204.945 10.5583 205.367 10.0934 205.909 9.76074C206.456 9.42806 207.099 9.26172 207.837 9.26172C208.32 9.26172 208.773 9.33919 209.197 9.49414C209.626 9.64909 210.004 9.88607 210.332 10.2051C210.66 10.5195 210.915 10.9206 211.098 11.4082C211.285 11.8913 211.378 12.4655 211.378 13.1309V13.6982H205.041V12.4473H210.435L209.532 12.7959C209.532 12.3812 209.468 12.0212 209.341 11.7158C209.213 11.4059 209.024 11.1667 208.773 10.998C208.527 10.8249 208.217 10.7383 207.844 10.7383C207.475 10.7383 207.16 10.8249 206.9 10.998C206.641 11.1712 206.442 11.4059 206.306 11.7021C206.169 11.9938 206.101 12.3219 206.101 12.6865V13.5615C206.101 14.0218 206.178 14.4115 206.333 14.7305C206.493 15.0449 206.711 15.2819 206.989 15.4414C207.272 15.6009 207.6 15.6807 207.974 15.6807C208.22 15.6807 208.445 15.6442 208.65 15.5713C208.855 15.4984 209.031 15.3936 209.177 15.2568C209.323 15.1156 209.434 14.9424 209.512 14.7373L211.262 15.0791C211.139 15.4938 210.927 15.8584 210.626 16.1729C210.325 16.4827 209.947 16.7243 209.491 16.8975C209.04 17.0661 208.525 17.1504 207.946 17.1504Z" fill="#292A2E"/>
<path d="M199.066 20.0215C198.442 20.0215 197.897 19.9417 197.433 19.7822C196.972 19.6273 196.594 19.4108 196.298 19.1328C196.006 18.8594 195.801 18.5472 195.683 18.1963L197.323 17.6836C197.396 17.8249 197.501 17.9661 197.638 18.1074C197.774 18.2487 197.959 18.3649 198.191 18.4561C198.424 18.5518 198.713 18.5996 199.06 18.5996C199.597 18.5996 200.023 18.4743 200.338 18.2236C200.652 17.9775 200.81 17.5902 200.81 17.0615V15.6396H200.659C200.568 15.8356 200.436 16.0293 200.263 16.2207C200.094 16.4121 199.868 16.5716 199.586 16.6992C199.303 16.8268 198.948 16.8906 198.52 16.8906C197.941 16.8906 197.414 16.7539 196.94 16.4805C196.471 16.207 196.095 15.7946 195.812 15.2432C195.535 14.6917 195.396 13.999 195.396 13.165C195.396 12.3128 195.537 11.5973 195.819 11.0186C196.102 10.4398 196.48 10.0023 196.954 9.70605C197.428 9.40983 197.954 9.26172 198.533 9.26172C198.971 9.26172 199.335 9.33691 199.627 9.4873C199.919 9.63314 200.153 9.81315 200.331 10.0273C200.509 10.237 200.643 10.4398 200.734 10.6357H200.823V9.35742H202.71V16.9795C202.71 17.6631 202.553 18.2305 202.238 18.6816C201.928 19.1328 201.498 19.4678 200.946 19.6865C200.399 19.9098 199.773 20.0215 199.066 20.0215ZM199.094 15.4004C199.463 15.4004 199.775 15.3115 200.03 15.1338C200.285 14.9561 200.479 14.6986 200.611 14.3613C200.748 14.0241 200.816 13.6208 200.816 13.1514C200.816 12.682 200.75 12.2741 200.618 11.9277C200.486 11.5768 200.292 11.3057 200.037 11.1143C199.782 10.9183 199.467 10.8203 199.094 10.8203C198.715 10.8203 198.396 10.9206 198.137 11.1211C197.882 11.3216 197.688 11.5973 197.556 11.9482C197.428 12.2992 197.364 12.7002 197.364 13.1514C197.364 13.6071 197.43 14.0036 197.562 14.3408C197.695 14.6781 197.888 14.9401 198.144 15.127C198.403 15.3092 198.72 15.4004 199.094 15.4004Z" fill="#292A2E"/>
<path d="M189.729 17.1299C189.141 17.1299 188.61 16.9772 188.136 16.6719C187.666 16.3665 187.293 15.9222 187.015 15.3389C186.741 14.751 186.604 14.0355 186.604 13.1924C186.604 12.3311 186.746 11.6087 187.028 11.0254C187.311 10.4421 187.689 10.0023 188.163 9.70605C188.637 9.40983 189.163 9.26172 189.742 9.26172C190.18 9.26172 190.542 9.33691 190.829 9.4873C191.116 9.63314 191.346 9.81315 191.52 10.0273C191.693 10.237 191.825 10.4398 191.916 10.6357H191.991V9.35742H193.898V17H191.998V15.7832H191.916C191.825 15.9792 191.688 16.182 191.506 16.3916C191.328 16.6012 191.096 16.7767 190.809 16.918C190.521 17.0592 190.161 17.1299 189.729 17.1299ZM190.303 15.5781C190.672 15.5781 190.984 15.4779 191.239 15.2773C191.494 15.0768 191.688 14.7965 191.82 14.4365C191.957 14.0765 192.025 13.6595 192.025 13.1855C192.025 12.707 191.959 12.2923 191.827 11.9414C191.695 11.5859 191.501 11.3102 191.246 11.1143C190.991 10.9183 190.676 10.8203 190.303 10.8203C189.924 10.8203 189.605 10.9206 189.346 11.1211C189.09 11.3216 188.897 11.5996 188.765 11.9551C188.637 12.3105 188.573 12.7207 188.573 13.1855C188.573 13.6458 188.639 14.056 188.771 14.416C188.904 14.776 189.097 15.0609 189.353 15.2705C189.612 15.4756 189.929 15.5781 190.303 15.5781Z" fill="#292A2E"/>
<path d="M180.199 12.5498V17H178.271V9.35742H180.09L180.124 11.2578H179.994C180.199 10.6107 180.507 10.1162 180.917 9.77441C181.327 9.43262 181.851 9.26172 182.489 9.26172C183.013 9.26172 183.471 9.37565 183.863 9.60352C184.26 9.83138 184.565 10.1595 184.779 10.5879C184.998 11.0163 185.107 11.5335 185.107 12.1396V17H183.187V12.4609C183.187 11.9642 183.059 11.5768 182.804 11.2988C182.549 11.0208 182.198 10.8818 181.751 10.8818C181.45 10.8818 181.181 10.9479 180.944 11.0801C180.712 11.2077 180.53 11.3968 180.397 11.6475C180.265 11.8936 180.199 12.1943 180.199 12.5498Z" fill="#292A2E"/>
<path d="M172.283 17.1299C171.695 17.1299 171.164 16.9772 170.69 16.6719C170.221 16.3665 169.847 15.9222 169.569 15.3389C169.296 14.751 169.159 14.0355 169.159 13.1924C169.159 12.3311 169.3 11.6087 169.583 11.0254C169.866 10.4421 170.244 10.0023 170.718 9.70605C171.192 9.40983 171.718 9.26172 172.297 9.26172C172.734 9.26172 173.097 9.33691 173.384 9.4873C173.671 9.63314 173.901 9.81315 174.074 10.0273C174.247 10.237 174.38 10.4398 174.471 10.6357H174.546V9.35742H176.453V17H174.553V15.7832H174.471C174.38 15.9792 174.243 16.182 174.061 16.3916C173.883 16.6012 173.65 16.7767 173.363 16.918C173.076 17.0592 172.716 17.1299 172.283 17.1299ZM172.857 15.5781C173.227 15.5781 173.539 15.4779 173.794 15.2773C174.049 15.0768 174.243 14.7965 174.375 14.4365C174.512 14.0765 174.58 13.6595 174.58 13.1855C174.58 12.707 174.514 12.2923 174.382 11.9414C174.25 11.5859 174.056 11.3102 173.801 11.1143C173.546 10.9183 173.231 10.8203 172.857 10.8203C172.479 10.8203 172.16 10.9206 171.9 11.1211C171.645 11.3216 171.451 11.5996 171.319 11.9551C171.192 12.3105 171.128 12.7207 171.128 13.1855C171.128 13.6458 171.194 14.056 171.326 14.416C171.458 14.776 171.652 15.0609 171.907 15.2705C172.167 15.4756 172.484 15.5781 172.857 15.5781Z" fill="#292A2E"/>
<path d="M156.561 17V6.81445H159.548L161.332 11.7637C161.4 11.9688 161.478 12.2376 161.564 12.5703C161.651 12.8984 161.74 13.2516 161.831 13.6299C161.922 14.0081 162.007 14.3773 162.084 14.7373C162.166 15.0973 162.232 15.4118 162.282 15.6807H161.893C161.947 15.4209 162.013 15.1133 162.091 14.7578C162.173 14.3978 162.259 14.0286 162.351 13.6504C162.442 13.2676 162.531 12.9098 162.617 12.5771C162.704 12.2445 162.781 11.9733 162.85 11.7637L164.606 6.81445H167.601V17H165.639V12.0371C165.639 11.8184 165.641 11.5495 165.646 11.2305C165.655 10.9069 165.664 10.5605 165.673 10.1914C165.682 9.81771 165.691 9.44173 165.7 9.06348C165.709 8.68522 165.714 8.32975 165.714 7.99707H165.851C165.759 8.36165 165.659 8.73991 165.55 9.13184C165.445 9.52376 165.34 9.9043 165.235 10.2734C165.131 10.638 165.03 10.973 164.935 11.2783C164.839 11.5837 164.757 11.8366 164.688 12.0371L162.911 17H161.25L159.445 12.0371C159.377 11.8411 159.295 11.5928 159.199 11.292C159.108 10.9867 159.008 10.6517 158.898 10.2871C158.794 9.92253 158.687 9.54427 158.577 9.15234C158.468 8.76042 158.363 8.37533 158.263 7.99707H158.42C158.424 8.31152 158.431 8.6556 158.44 9.0293C158.45 9.40299 158.459 9.77669 158.468 10.1504C158.477 10.5241 158.484 10.875 158.488 11.2031C158.497 11.5312 158.502 11.8092 158.502 12.0371V17H156.561Z" fill="#292A2E"/>
<path d="M148.187 17.1504C147.412 17.1504 146.744 16.9909 146.184 16.6719C145.623 16.3483 145.192 15.8926 144.892 15.3047C144.591 14.7168 144.44 14.0218 144.44 13.2197C144.44 12.4359 144.589 11.7477 144.885 11.1553C145.186 10.5583 145.607 10.0934 146.149 9.76074C146.696 9.42806 147.339 9.26172 148.077 9.26172C148.56 9.26172 149.014 9.33919 149.438 9.49414C149.866 9.64909 150.244 9.88607 150.572 10.2051C150.9 10.5195 151.156 10.9206 151.338 11.4082C151.525 11.8913 151.618 12.4655 151.618 13.1309V13.6982H145.281V12.4473H150.675L149.772 12.7959C149.772 12.3812 149.709 12.0212 149.581 11.7158C149.453 11.4059 149.264 11.1667 149.014 10.998C148.768 10.8249 148.458 10.7383 148.084 10.7383C147.715 10.7383 147.4 10.8249 147.141 10.998C146.881 11.1712 146.683 11.4059 146.546 11.7021C146.409 11.9938 146.341 12.3219 146.341 12.6865V13.5615C146.341 14.0218 146.418 14.4115 146.573 14.7305C146.733 15.0449 146.951 15.2819 147.229 15.4414C147.512 15.6009 147.84 15.6807 148.214 15.6807C148.46 15.6807 148.686 15.6442 148.891 15.5713C149.096 15.4984 149.271 15.3936 149.417 15.2568C149.563 15.1156 149.674 14.9424 149.752 14.7373L151.502 15.0791C151.379 15.4938 151.167 15.8584 150.866 16.1729C150.565 16.4827 150.187 16.7243 149.731 16.8975C149.28 17.0661 148.765 17.1504 148.187 17.1504Z" fill="#292A2E"/>
<path d="M139.929 17.1504C139.177 17.1504 138.523 16.9863 137.967 16.6582C137.415 16.3301 136.989 15.8698 136.688 15.2773C136.388 14.6849 136.237 13.9967 136.237 13.2129C136.237 12.4245 136.388 11.734 136.688 11.1416C136.989 10.5446 137.415 10.082 137.967 9.75391C138.523 9.42578 139.177 9.26172 139.929 9.26172C140.371 9.26172 140.779 9.31868 141.152 9.43262C141.526 9.54655 141.859 9.71061 142.15 9.9248C142.442 10.139 142.684 10.3988 142.875 10.7041C143.071 11.0094 143.208 11.3535 143.285 11.7363L141.487 12.0918C141.446 11.8913 141.38 11.7113 141.289 11.5518C141.198 11.3923 141.086 11.2578 140.954 11.1484C140.826 11.0345 140.678 10.9479 140.51 10.8887C140.341 10.8249 140.154 10.793 139.949 10.793C139.562 10.793 139.238 10.8978 138.979 11.1074C138.719 11.3125 138.523 11.5973 138.391 11.9619C138.258 12.3219 138.192 12.7367 138.192 13.2061C138.192 13.6709 138.258 14.0856 138.391 14.4502C138.523 14.8102 138.719 15.0951 138.979 15.3047C139.238 15.5143 139.562 15.6191 139.949 15.6191C140.159 15.6191 140.348 15.5895 140.517 15.5303C140.69 15.4665 140.842 15.3753 140.975 15.2568C141.107 15.1383 141.218 14.9971 141.31 14.833C141.401 14.6644 141.467 14.4775 141.508 14.2725L143.299 14.6211C143.221 15.0176 143.087 15.3708 142.896 15.6807C142.704 15.9906 142.46 16.2549 142.164 16.4736C141.872 16.6924 141.537 16.861 141.159 16.9795C140.785 17.0934 140.375 17.1504 139.929 17.1504Z" fill="#292A2E"/>
<path d="M132.826 17V9.35742H134.754V17H132.826ZM132.806 8.27051V6.51367H134.788V8.27051H132.806Z" fill="#292A2E"/>
<path d="M126.681 17L123.851 9.35742H125.895L127.234 13.4111C127.394 13.9033 127.531 14.4001 127.645 14.9014C127.763 15.3981 127.886 15.9108 128.014 16.4395H127.569C127.692 15.9108 127.811 15.3981 127.925 14.9014C128.039 14.4001 128.175 13.9033 128.335 13.4111L129.661 9.35742H131.685L128.854 17H126.681Z" fill="#292A2E"/>
<path d="M118.662 17V9.35742H120.528V10.6631H120.61C120.747 10.2074 120.984 9.85872 121.321 9.61719C121.659 9.37565 122.044 9.25488 122.477 9.25488C122.577 9.25488 122.688 9.26172 122.812 9.27539C122.935 9.28451 123.042 9.29818 123.133 9.31641V11.0527C123.051 11.0254 122.923 11.0026 122.75 10.9844C122.581 10.9661 122.42 10.957 122.265 10.957C121.946 10.957 121.659 11.0254 121.403 11.1621C121.148 11.2988 120.948 11.4902 120.802 11.7363C120.66 11.9779 120.59 12.2604 120.59 12.584V17H118.662Z" fill="#292A2E"/>
<path d="M113.774 17.1504C113 17.1504 112.332 16.9909 111.771 16.6719C111.211 16.3483 110.78 15.8926 110.479 15.3047C110.179 14.7168 110.028 14.0218 110.028 13.2197C110.028 12.4359 110.176 11.7477 110.473 11.1553C110.773 10.5583 111.195 10.0934 111.737 9.76074C112.284 9.42806 112.927 9.26172 113.665 9.26172C114.148 9.26172 114.602 9.33919 115.025 9.49414C115.454 9.64909 115.832 9.88607 116.16 10.2051C116.488 10.5195 116.743 10.9206 116.926 11.4082C117.113 11.8913 117.206 12.4655 117.206 13.1309V13.6982H110.869V12.4473H116.263L115.36 12.7959C115.36 12.3812 115.297 12.0212 115.169 11.7158C115.041 11.4059 114.852 11.1667 114.602 10.998C114.355 10.8249 114.046 10.7383 113.672 10.7383C113.303 10.7383 112.988 10.8249 112.729 10.998C112.469 11.1712 112.271 11.4059 112.134 11.7021C111.997 11.9938 111.929 12.3219 111.929 12.6865V13.5615C111.929 14.0218 112.006 14.4115 112.161 14.7305C112.321 15.0449 112.539 15.2819 112.817 15.4414C113.1 15.6009 113.428 15.6807 113.802 15.6807C114.048 15.6807 114.273 15.6442 114.479 15.5713C114.684 15.4984 114.859 15.3936 115.005 15.2568C115.151 15.1156 115.262 14.9424 115.34 14.7373L117.09 15.0791C116.967 15.4938 116.755 15.8584 116.454 16.1729C116.153 16.4827 115.775 16.7243 115.319 16.8975C114.868 17.0661 114.353 17.1504 113.774 17.1504Z" fill="#292A2E"/>
<path d="M104.929 17.1504C104.127 17.1504 103.429 17.0273 102.837 16.7812C102.244 16.5306 101.782 16.166 101.449 15.6875C101.117 15.2044 100.939 14.6143 100.916 13.917H102.837C102.864 14.2679 102.969 14.5596 103.151 14.792C103.338 15.0244 103.584 15.1999 103.89 15.3184C104.195 15.4323 104.537 15.4893 104.915 15.4893C105.298 15.4893 105.635 15.4323 105.927 15.3184C106.218 15.1999 106.446 15.0381 106.61 14.833C106.774 14.6234 106.856 14.3818 106.856 14.1084C106.856 13.8577 106.784 13.6504 106.638 13.4863C106.492 13.3223 106.285 13.1833 106.016 13.0693C105.751 12.9508 105.432 12.8483 105.059 12.7617L103.924 12.4678C103.067 12.2536 102.397 11.9232 101.914 11.4766C101.431 11.0299 101.189 10.4421 101.189 9.71289C101.189 9.10677 101.354 8.57585 101.682 8.12012C102.01 7.66439 102.459 7.3112 103.028 7.06055C103.598 6.80534 104.245 6.67773 104.97 6.67773C105.708 6.67773 106.353 6.80534 106.904 7.06055C107.46 7.31576 107.893 7.66895 108.203 8.12012C108.518 8.56673 108.679 9.08171 108.688 9.66504H106.788C106.747 9.24121 106.562 8.91536 106.234 8.6875C105.911 8.45508 105.48 8.33887 104.942 8.33887C104.578 8.33887 104.263 8.39355 103.999 8.50293C103.739 8.60775 103.539 8.75586 103.397 8.94727C103.261 9.13411 103.192 9.34831 103.192 9.58984C103.192 9.85872 103.272 10.0798 103.432 10.2529C103.596 10.4261 103.805 10.5651 104.061 10.6699C104.32 10.7747 104.589 10.8613 104.867 10.9297L105.804 11.1621C106.209 11.2578 106.592 11.3854 106.952 11.5449C107.317 11.7044 107.64 11.9027 107.923 12.1396C108.205 12.3721 108.426 12.6523 108.586 12.9805C108.745 13.304 108.825 13.6846 108.825 14.1221C108.825 14.7282 108.67 15.2591 108.36 15.7148C108.055 16.1706 107.611 16.5238 107.027 16.7744C106.449 17.0251 105.749 17.1504 104.929 17.1504Z" fill="#292A2E"/>
<path d="M92.1523 17V9.35742H94.0186V10.6631H94.1006C94.2373 10.2074 94.4743 9.85872 94.8115 9.61719C95.1488 9.37565 95.5339 9.25488 95.9668 9.25488C96.0671 9.25488 96.1787 9.26172 96.3018 9.27539C96.4248 9.28451 96.5319 9.29818 96.623 9.31641V11.0527C96.541 11.0254 96.4134 11.0026 96.2402 10.9844C96.0716 10.9661 95.9098 10.957 95.7549 10.957C95.4359 10.957 95.1488 11.0254 94.8936 11.1621C94.6383 11.2988 94.4378 11.4902 94.292 11.7363C94.1507 11.9779 94.0801 12.2604 94.0801 12.584V17H92.1523Z" fill="#292A2E"/>
<path d="M87.2646 17.1504C86.4899 17.1504 85.8223 16.9909 85.2617 16.6719C84.7012 16.3483 84.2705 15.8926 83.9697 15.3047C83.6689 14.7168 83.5186 14.0218 83.5186 13.2197C83.5186 12.4359 83.6667 11.7477 83.9629 11.1553C84.2637 10.5583 84.6852 10.0934 85.2275 9.76074C85.7744 9.42806 86.417 9.26172 87.1553 9.26172C87.6383 9.26172 88.0918 9.33919 88.5156 9.49414C88.944 9.64909 89.3223 9.88607 89.6504 10.2051C89.9785 10.5195 90.2337 10.9206 90.416 11.4082C90.6029 11.8913 90.6963 12.4655 90.6963 13.1309V13.6982H84.3594V12.4473H89.7529L88.8506 12.7959C88.8506 12.3812 88.7868 12.0212 88.6592 11.7158C88.5316 11.4059 88.3424 11.1667 88.0918 10.998C87.8457 10.8249 87.5358 10.7383 87.1621 10.7383C86.793 10.7383 86.4785 10.8249 86.2188 10.998C85.959 11.1712 85.7607 11.4059 85.624 11.7021C85.4873 11.9938 85.4189 12.3219 85.4189 12.6865V13.5615C85.4189 14.0218 85.4964 14.4115 85.6514 14.7305C85.8109 15.0449 86.0296 15.2819 86.3076 15.4414C86.5902 15.6009 86.9183 15.6807 87.292 15.6807C87.5381 15.6807 87.7637 15.6442 87.9688 15.5713C88.1738 15.4984 88.3493 15.3936 88.4951 15.2568C88.6409 15.1156 88.7526 14.9424 88.8301 14.7373L90.5801 15.0791C90.457 15.4938 90.2451 15.8584 89.9443 16.1729C89.6436 16.4827 89.2653 16.7243 88.8096 16.8975C88.3584 17.0661 87.8434 17.1504 87.2646 17.1504Z" fill="#292A2E"/>
<path d="M71.1387 17V9.35742H72.9365L73.0186 11.2305H72.8818C72.9958 10.7656 73.1667 10.3874 73.3945 10.0957C73.627 9.80404 73.8981 9.58984 74.208 9.45312C74.5179 9.31185 74.8415 9.24121 75.1787 9.24121C75.7301 9.24121 76.1745 9.41439 76.5117 9.76074C76.849 10.1071 77.0928 10.6312 77.2432 11.333H77.0176C77.127 10.859 77.3092 10.4671 77.5645 10.1572C77.8242 9.84733 78.1273 9.61719 78.4736 9.4668C78.8245 9.31641 79.1982 9.24121 79.5947 9.24121C80.055 9.24121 80.4674 9.34147 80.832 9.54199C81.2012 9.74251 81.4906 10.0365 81.7002 10.4238C81.9144 10.8112 82.0215 11.2852 82.0215 11.8457V17H80.1006V12.1807C80.1006 11.7295 79.9775 11.3968 79.7314 11.1826C79.4854 10.9684 79.1868 10.8613 78.8359 10.8613C78.5671 10.8613 78.3324 10.9206 78.1318 11.0391C77.9359 11.153 77.7832 11.3148 77.6738 11.5244C77.569 11.734 77.5166 11.9779 77.5166 12.2559V17H75.6504V12.1123C75.6504 11.7295 75.5342 11.4264 75.3018 11.2031C75.0739 10.9753 74.7777 10.8613 74.4131 10.8613C74.1624 10.8613 73.9346 10.9183 73.7295 11.0322C73.5244 11.1462 73.3626 11.3148 73.2441 11.5381C73.1257 11.7568 73.0664 12.028 73.0664 12.3516V17H71.1387Z" fill="#292A2E"/>
<path d="M65.957 17.1504C65.2005 17.1504 64.5443 16.9863 63.9883 16.6582C63.4368 16.3301 63.0107 15.8698 62.71 15.2773C62.4092 14.6849 62.2588 13.9967 62.2588 13.2129C62.2588 12.4245 62.4092 11.734 62.71 11.1416C63.0107 10.5446 63.4368 10.082 63.9883 9.75391C64.5443 9.42578 65.2005 9.26172 65.957 9.26172C66.7135 9.26172 67.3675 9.42578 67.9189 9.75391C68.4749 10.082 68.9033 10.5446 69.2041 11.1416C69.5049 11.734 69.6553 12.4245 69.6553 13.2129C69.6553 13.9967 69.5049 14.6849 69.2041 15.2773C68.9033 15.8698 68.4749 16.3301 67.9189 16.6582C67.3675 16.9863 66.7135 17.1504 65.957 17.1504ZM65.957 15.6191C66.3444 15.6191 66.668 15.5143 66.9277 15.3047C67.1875 15.0905 67.3812 14.8011 67.5088 14.4365C67.6364 14.0719 67.7002 13.6618 67.7002 13.2061C67.7002 12.7503 67.6364 12.3402 67.5088 11.9756C67.3812 11.611 67.1875 11.3239 66.9277 11.1143C66.668 10.9001 66.3444 10.793 65.957 10.793C65.5697 10.793 65.2461 10.9001 64.9863 11.1143C64.7311 11.3239 64.5374 11.611 64.4053 11.9756C64.2777 12.3356 64.2139 12.7458 64.2139 13.2061C64.2139 13.6618 64.2777 14.0719 64.4053 14.4365C64.5374 14.8011 64.7311 15.0905 64.9863 15.3047C65.2461 15.5143 65.5697 15.6191 65.957 15.6191Z" fill="#292A2E"/>
<path d="M61.3496 9.35742V10.8408H56.9062V9.35742H61.3496ZM57.9727 7.53906H59.8936V14.8057C59.8936 15.0609 59.9505 15.25 60.0645 15.373C60.1784 15.4961 60.3652 15.5576 60.625 15.5576C60.7025 15.5576 60.8096 15.5485 60.9463 15.5303C61.083 15.5075 61.1901 15.487 61.2676 15.4688L61.5547 16.9316C61.3451 16.9954 61.1331 17.0387 60.9189 17.0615C60.7048 17.0889 60.4974 17.1025 60.2969 17.1025C59.5449 17.1025 58.9684 16.9202 58.5674 16.5557C58.1709 16.1865 57.9727 15.6579 57.9727 14.9697V7.53906Z" fill="#292A2E"/>
<path d="M52.8662 17.1504C52.2646 17.1504 51.7314 17.0661 51.2666 16.8975C50.8018 16.7243 50.4212 16.4736 50.125 16.1455C49.8333 15.8128 49.6419 15.4141 49.5508 14.9492L51.3486 14.6279C51.4489 14.9925 51.6289 15.266 51.8887 15.4482C52.1484 15.626 52.4902 15.7148 52.9141 15.7148C53.3242 15.7148 53.6501 15.6351 53.8916 15.4756C54.1331 15.3115 54.2539 15.1087 54.2539 14.8672C54.2539 14.6576 54.1719 14.4867 54.0078 14.3545C53.8438 14.2178 53.5908 14.113 53.249 14.04L51.9365 13.7666C51.2074 13.6117 50.6628 13.3564 50.3027 13.001C49.9427 12.641 49.7627 12.1761 49.7627 11.6064C49.7627 11.1279 49.8949 10.7132 50.1592 10.3623C50.4235 10.0114 50.7904 9.74023 51.2598 9.54883C51.7337 9.35742 52.2829 9.26172 52.9072 9.26172C53.4997 9.26172 54.0101 9.34603 54.4385 9.51465C54.8714 9.67871 55.2201 9.91113 55.4844 10.2119C55.7533 10.5081 55.9355 10.8613 56.0312 11.2715L54.3223 11.5859C54.2402 11.3216 54.0853 11.1029 53.8574 10.9297C53.6341 10.752 53.3265 10.6631 52.9346 10.6631C52.5791 10.6631 52.2806 10.7406 52.0391 10.8955C51.8021 11.0459 51.6836 11.2441 51.6836 11.4902C51.6836 11.6999 51.7611 11.873 51.916 12.0098C52.0755 12.1465 52.3421 12.2559 52.7158 12.3379L54.0557 12.6113C54.7848 12.7617 55.3271 13.0078 55.6826 13.3496C56.0426 13.6914 56.2227 14.1335 56.2227 14.6758C56.2227 15.168 56.0791 15.6009 55.792 15.9746C55.5049 16.3438 55.1084 16.6331 54.6025 16.8428C54.1012 17.0479 53.5225 17.1504 52.8662 17.1504Z" fill="#292A2E"/>
<path d="M43.8701 17.0957C43.3415 17.0957 42.8789 16.9818 42.4824 16.7539C42.0905 16.526 41.7852 16.1979 41.5664 15.7695C41.3477 15.3366 41.2383 14.8193 41.2383 14.2178V9.35742H43.166V13.8965C43.166 14.3932 43.2936 14.7806 43.5488 15.0586C43.804 15.3366 44.1549 15.4756 44.6016 15.4756C44.9069 15.4756 45.1758 15.4118 45.4082 15.2842C45.6406 15.152 45.8229 14.9606 45.9551 14.71C46.0872 14.4593 46.1533 14.1585 46.1533 13.8076V9.35742H48.0811V17H46.2559L46.2354 15.0996H46.3584C46.1533 15.7559 45.8434 16.2526 45.4287 16.5898C45.014 16.9271 44.4945 17.0957 43.8701 17.0957Z" fill="#292A2E"/>
<path d="M35.3662 17.1367C34.4684 17.1367 33.6663 16.9316 32.96 16.5215C32.2536 16.1068 31.6953 15.5098 31.2852 14.7305C30.875 13.9512 30.6699 13.0124 30.6699 11.9141C30.6699 10.8112 30.875 9.87012 31.2852 9.09082C31.6999 8.30697 32.2604 7.70996 32.9668 7.2998C33.6777 6.88509 34.4775 6.67773 35.3662 6.67773C35.9359 6.67773 36.4668 6.75749 36.959 6.91699C37.4557 7.0765 37.8955 7.3112 38.2783 7.62109C38.6611 7.92643 38.9756 8.30013 39.2217 8.74219C39.4678 9.18424 39.6296 9.68783 39.707 10.2529H37.7246C37.6745 9.96126 37.5811 9.70378 37.4443 9.48047C37.3076 9.25716 37.1367 9.06803 36.9316 8.91309C36.7311 8.75358 36.501 8.63281 36.2412 8.55078C35.9814 8.46875 35.7035 8.42773 35.4072 8.42773C34.8649 8.42773 34.3864 8.56445 33.9717 8.83789C33.557 9.10677 33.2334 9.50098 33.001 10.0205C32.7731 10.54 32.6592 11.1712 32.6592 11.9141C32.6592 12.666 32.7754 13.3018 33.0078 13.8213C33.2402 14.3363 33.5615 14.7259 33.9717 14.9902C34.3864 15.2546 34.8626 15.3867 35.4004 15.3867C35.6966 15.3867 35.9723 15.3457 36.2275 15.2637C36.4873 15.1816 36.7197 15.0632 36.9248 14.9082C37.1344 14.7487 37.3076 14.5573 37.4443 14.334C37.5811 14.1061 37.6768 13.8486 37.7314 13.5615H39.7139C39.6546 14.04 39.5111 14.4935 39.2832 14.9219C39.0553 15.3503 38.7546 15.7331 38.3809 16.0703C38.0072 16.403 37.5674 16.665 37.0615 16.8564C36.5557 17.0433 35.9906 17.1367 35.3662 17.1367Z" fill="#292A2E"/>
</svg>
