<svg width="121" height="24" viewBox="0 0 121 24" fill="none" xmlns="http://www.w3.org/2000/svg">
<path d="M0 6C0 2.68629 2.68629 0 6 0H18C21.3137 0 24 2.68629 24 6V18C24 21.3137 21.3137 24 18 24H6C2.68629 24 0 21.3137 0 18V6Z" fill="#DDDEE1"/>
<path d="M5.49025 10.87H18.5089C18.8831 10.87 19.0826 10.6705 19.0826 10.2964V5.90696C19.0826 5.53286 18.8831 5.33334 18.5089 5.33334H15.7655C15.3914 5.33334 15.1919 5.53286 15.1919 5.90696V8.12663H13.9449V5.90696C13.9449 5.53286 13.7454 5.33334 13.3713 5.33334H10.6279C10.2538 5.33334 10.0543 5.53286 10.0543 5.90696V8.12663H8.80727V5.90696C8.80727 5.53286 8.60775 5.33334 8.23365 5.33334H5.49025C5.11615 5.33334 4.91663 5.53286 4.91663 5.90696V10.2964C4.91663 10.6705 5.11615 10.87 5.49025 10.87ZM5.71471 14.7108C5.44037 13.9377 5.26579 13.1396 5.21591 12.2168C5.19097 11.8926 5.34061 11.718 5.68977 11.718H18.3094C18.6586 11.718 18.8082 11.8676 18.8082 12.1669C18.7584 13.0897 18.5838 13.9377 18.2845 14.7108C18.1348 15.1098 17.9104 15.2844 17.4864 15.2844H6.51279C6.08881 15.2844 5.86435 15.1098 5.71471 14.7108ZM17.2619 16.7808C16.0648 18.2523 14.0946 19.2 11.9996 19.2C9.90463 19.2 7.88449 18.2523 6.71231 16.7808C6.41303 16.3818 6.56267 16.1324 6.86195 16.1324H17.1372C17.4365 16.1324 17.5862 16.3818 17.2619 16.7808Z" fill="#101214"/>
<path d="M120.029 9.35742V10.8408H115.586V9.35742H120.029ZM116.652 7.53906H118.573V14.8057C118.573 15.0609 118.63 15.25 118.744 15.373C118.858 15.4961 119.045 15.5576 119.305 15.5576C119.382 15.5576 119.489 15.5485 119.626 15.5303C119.763 15.5075 119.87 15.487 119.947 15.4688L120.234 16.9316C120.025 16.9954 119.813 17.0387 119.599 17.0615C119.384 17.0889 119.177 17.1025 118.977 17.1025C118.225 17.1025 117.648 16.9202 117.247 16.5557C116.851 16.1865 116.652 15.6579 116.652 14.9697V7.53906Z" fill="#292A2E"/>
<path d="M111.519 17.1504C110.767 17.1504 110.113 16.9863 109.557 16.6582C109.005 16.3301 108.579 15.8698 108.278 15.2773C107.978 14.6849 107.827 13.9967 107.827 13.2129C107.827 12.4245 107.978 11.734 108.278 11.1416C108.579 10.5446 109.005 10.082 109.557 9.75391C110.113 9.42578 110.767 9.26172 111.519 9.26172C111.961 9.26172 112.368 9.31868 112.742 9.43262C113.116 9.54655 113.449 9.71061 113.74 9.9248C114.032 10.139 114.273 10.3988 114.465 10.7041C114.661 11.0094 114.798 11.3535 114.875 11.7363L113.077 12.0918C113.036 11.8913 112.97 11.7113 112.879 11.5518C112.788 11.3923 112.676 11.2578 112.544 11.1484C112.416 11.0345 112.268 10.9479 112.1 10.8887C111.931 10.8249 111.744 10.793 111.539 10.793C111.152 10.793 110.828 10.8978 110.568 11.1074C110.309 11.3125 110.113 11.5973 109.98 11.9619C109.848 12.3219 109.782 12.7367 109.782 13.2061C109.782 13.6709 109.848 14.0856 109.98 14.4502C110.113 14.8102 110.309 15.0951 110.568 15.3047C110.828 15.5143 111.152 15.6191 111.539 15.6191C111.749 15.6191 111.938 15.5895 112.106 15.5303C112.28 15.4665 112.432 15.3753 112.564 15.2568C112.697 15.1383 112.808 14.9971 112.899 14.833C112.991 14.6644 113.057 14.4775 113.098 14.2725L114.889 14.6211C114.811 15.0176 114.677 15.3708 114.485 15.6807C114.294 15.9906 114.05 16.2549 113.754 16.4736C113.462 16.6924 113.127 16.861 112.749 16.9795C112.375 17.0934 111.965 17.1504 111.519 17.1504Z" fill="#292A2E"/>
<path d="M103.261 17.1504C102.486 17.1504 101.818 16.9909 101.258 16.6719C100.697 16.3483 100.267 15.8926 99.9658 15.3047C99.665 14.7168 99.5146 14.0218 99.5146 13.2197C99.5146 12.4359 99.6628 11.7477 99.959 11.1553C100.26 10.5583 100.681 10.0934 101.224 9.76074C101.771 9.42806 102.413 9.26172 103.151 9.26172C103.634 9.26172 104.088 9.33919 104.512 9.49414C104.94 9.64909 105.318 9.88607 105.646 10.2051C105.975 10.5195 106.23 10.9206 106.412 11.4082C106.599 11.8913 106.692 12.4655 106.692 13.1309V13.6982H100.355V12.4473H105.749L104.847 12.7959C104.847 12.3812 104.783 12.0212 104.655 11.7158C104.528 11.4059 104.339 11.1667 104.088 10.998C103.842 10.8249 103.532 10.7383 103.158 10.7383C102.789 10.7383 102.475 10.8249 102.215 10.998C101.955 11.1712 101.757 11.4059 101.62 11.7021C101.483 11.9938 101.415 12.3219 101.415 12.6865V13.5615C101.415 14.0218 101.493 14.4115 101.647 14.7305C101.807 15.0449 102.026 15.2819 102.304 15.4414C102.586 15.6009 102.914 15.6807 103.288 15.6807C103.534 15.6807 103.76 15.6442 103.965 15.5713C104.17 15.4984 104.345 15.3936 104.491 15.2568C104.637 15.1156 104.749 14.9424 104.826 14.7373L106.576 15.0791C106.453 15.4938 106.241 15.8584 105.94 16.1729C105.64 16.4827 105.261 16.7243 104.806 16.8975C104.354 17.0661 103.84 17.1504 103.261 17.1504Z" fill="#292A2E"/>
<path d="M98.6055 9.35742V10.8408H94.1621V9.35742H98.6055ZM95.2285 7.53906H97.1494V14.8057C97.1494 15.0609 97.2064 15.25 97.3203 15.373C97.4342 15.4961 97.6211 15.5576 97.8809 15.5576C97.9583 15.5576 98.0654 15.5485 98.2021 15.5303C98.3389 15.5075 98.446 15.487 98.5234 15.4688L98.8105 16.9316C98.6009 16.9954 98.389 17.0387 98.1748 17.0615C97.9606 17.0889 97.7533 17.1025 97.5527 17.1025C96.8008 17.1025 96.2243 16.9202 95.8232 16.5557C95.4268 16.1865 95.2285 15.6579 95.2285 14.9697V7.53906Z" fill="#292A2E"/>
<path d="M90.04 17.1504C89.2653 17.1504 88.5977 16.9909 88.0371 16.6719C87.4766 16.3483 87.0459 15.8926 86.7451 15.3047C86.4443 14.7168 86.2939 14.0218 86.2939 13.2197C86.2939 12.4359 86.4421 11.7477 86.7383 11.1553C87.0391 10.5583 87.4606 10.0934 88.0029 9.76074C88.5498 9.42806 89.1924 9.26172 89.9307 9.26172C90.4137 9.26172 90.8672 9.33919 91.291 9.49414C91.7194 9.64909 92.0977 9.88607 92.4258 10.2051C92.7539 10.5195 93.0091 10.9206 93.1914 11.4082C93.3783 11.8913 93.4717 12.4655 93.4717 13.1309V13.6982H87.1348V12.4473H92.5283L91.626 12.7959C91.626 12.3812 91.5622 12.0212 91.4346 11.7158C91.307 11.4059 91.1178 11.1667 90.8672 10.998C90.6211 10.8249 90.3112 10.7383 89.9375 10.7383C89.5684 10.7383 89.2539 10.8249 88.9941 10.998C88.7344 11.1712 88.5361 11.4059 88.3994 11.7021C88.2627 11.9938 88.1943 12.3219 88.1943 12.6865V13.5615C88.1943 14.0218 88.2718 14.4115 88.4268 14.7305C88.5863 15.0449 88.805 15.2819 89.083 15.4414C89.3656 15.6009 89.6937 15.6807 90.0674 15.6807C90.3135 15.6807 90.5391 15.6442 90.7441 15.5713C90.9492 15.4984 91.1247 15.3936 91.2705 15.2568C91.4163 15.1156 91.528 14.9424 91.6055 14.7373L93.3555 15.0791C93.2324 15.4938 93.0205 15.8584 92.7197 16.1729C92.4189 16.4827 92.0407 16.7243 91.585 16.8975C91.1338 17.0661 90.6188 17.1504 90.04 17.1504Z" fill="#292A2E"/>
<path d="M80.0801 17H77.4756V15.3047H79.9912C80.6702 15.3047 81.2399 15.1816 81.7002 14.9355C82.1605 14.6895 82.5046 14.3158 82.7324 13.8145C82.9648 13.3086 83.0811 12.6706 83.0811 11.9004C83.0811 11.1302 82.9648 10.4967 82.7324 10C82.5046 9.4987 82.1628 9.125 81.707 8.87891C81.2513 8.63281 80.6885 8.50977 80.0186 8.50977H77.4209V6.81445H80.1348C81.151 6.81445 82.0238 7.01725 82.7529 7.42285C83.4867 7.82845 84.0495 8.41178 84.4414 9.17285C84.8379 9.93392 85.0361 10.8431 85.0361 11.9004C85.0361 12.9577 84.8379 13.8691 84.4414 14.6348C84.0495 15.3958 83.4821 15.9814 82.7393 16.3916C82.001 16.7972 81.1146 17 80.0801 17ZM78.5283 6.81445V17H76.5664V6.81445H78.5283Z" fill="#292A2E"/>
<path d="M67.0986 17.1299C66.5062 17.1299 65.973 16.9772 65.499 16.6719C65.0251 16.3665 64.6514 15.9222 64.3779 15.3389C64.1045 14.751 63.9678 14.0355 63.9678 13.1924C63.9678 12.3311 64.1068 11.6087 64.3848 11.0254C64.6673 10.4421 65.0456 10.0023 65.5195 9.70605C65.9935 9.40983 66.5176 9.26172 67.0918 9.26172C67.5339 9.26172 67.8984 9.33691 68.1855 9.4873C68.4727 9.63314 68.7028 9.81315 68.876 10.0273C69.0537 10.237 69.1859 10.4398 69.2725 10.6357H69.3408V6.81445H71.2617V17H69.375V15.7832H69.2725C69.1813 15.9792 69.0469 16.182 68.8691 16.3916C68.6914 16.5967 68.459 16.7721 68.1719 16.918C67.8848 17.0592 67.527 17.1299 67.0986 17.1299ZM67.6592 15.5781C68.0283 15.5781 68.3405 15.4779 68.5957 15.2773C68.8509 15.0768 69.0446 14.7965 69.1768 14.4365C69.3135 14.0765 69.3818 13.6595 69.3818 13.1855C69.3818 12.707 69.3158 12.2923 69.1836 11.9414C69.0514 11.5859 68.8555 11.3102 68.5957 11.1143C68.3405 10.9183 68.0283 10.8203 67.6592 10.8203C67.2809 10.8203 66.9642 10.9229 66.709 11.1279C66.4538 11.3285 66.2601 11.6064 66.1279 11.9619C66.0003 12.3174 65.9365 12.7253 65.9365 13.1855C65.9365 13.6458 66.0003 14.056 66.1279 14.416C66.2601 14.776 66.4538 15.0609 66.709 15.2705C66.9688 15.4756 67.2855 15.5781 67.6592 15.5781Z" fill="#292A2E"/>
<path d="M58.9844 17V9.35742H60.8506V10.6631H60.9326C61.0693 10.2074 61.3063 9.85872 61.6436 9.61719C61.9808 9.37565 62.3659 9.25488 62.7988 9.25488C62.8991 9.25488 63.0107 9.26172 63.1338 9.27539C63.2568 9.28451 63.3639 9.29818 63.4551 9.31641V11.0527C63.373 11.0254 63.2454 11.0026 63.0723 10.9844C62.9036 10.9661 62.7419 10.957 62.5869 10.957C62.2679 10.957 61.9808 11.0254 61.7256 11.1621C61.4704 11.2988 61.2699 11.4902 61.124 11.7363C60.9827 11.9779 60.9121 12.2604 60.9121 12.584V17H58.9844Z" fill="#292A2E"/>
<path d="M52.9961 17.1299C52.4082 17.1299 51.8773 16.9772 51.4033 16.6719C50.9339 16.3665 50.5602 15.9222 50.2822 15.3389C50.0088 14.751 49.8721 14.0355 49.8721 13.1924C49.8721 12.3311 50.0133 11.6087 50.2959 11.0254C50.5785 10.4421 50.9567 10.0023 51.4307 9.70605C51.9046 9.40983 52.431 9.26172 53.0098 9.26172C53.4473 9.26172 53.8096 9.33691 54.0967 9.4873C54.3838 9.63314 54.6139 9.81315 54.7871 10.0273C54.9603 10.237 55.0924 10.4398 55.1836 10.6357H55.2588V9.35742H57.166V17H55.2656V15.7832H55.1836C55.0924 15.9792 54.9557 16.182 54.7734 16.3916C54.5957 16.6012 54.3633 16.7767 54.0762 16.918C53.7891 17.0592 53.429 17.1299 52.9961 17.1299ZM53.5703 15.5781C53.9395 15.5781 54.2516 15.4779 54.5068 15.2773C54.762 15.0768 54.9557 14.7965 55.0879 14.4365C55.2246 14.0765 55.293 13.6595 55.293 13.1855C55.293 12.707 55.2269 12.2923 55.0947 11.9414C54.9626 11.5859 54.7689 11.3102 54.5137 11.1143C54.2585 10.9183 53.944 10.8203 53.5703 10.8203C53.1921 10.8203 52.873 10.9206 52.6133 11.1211C52.3581 11.3216 52.1644 11.5996 52.0322 11.9551C51.9046 12.3105 51.8408 12.7207 51.8408 13.1855C51.8408 13.6458 51.9069 14.056 52.0391 14.416C52.1712 14.776 52.3649 15.0609 52.6201 15.2705C52.8799 15.4756 53.1966 15.5781 53.5703 15.5781Z" fill="#292A2E"/>
<path d="M44.1709 17.0957C43.6423 17.0957 43.1797 16.9818 42.7832 16.7539C42.3913 16.526 42.0859 16.1979 41.8672 15.7695C41.6484 15.3366 41.5391 14.8193 41.5391 14.2178V9.35742H43.4668V13.8965C43.4668 14.3932 43.5944 14.7806 43.8496 15.0586C44.1048 15.3366 44.4557 15.4756 44.9023 15.4756C45.2077 15.4756 45.4766 15.4118 45.709 15.2842C45.9414 15.152 46.1237 14.9606 46.2559 14.71C46.388 14.4593 46.4541 14.1585 46.4541 13.8076V9.35742H48.3818V17H46.5566L46.5361 15.0996H46.6592C46.4541 15.7559 46.1442 16.2526 45.7295 16.5898C45.3148 16.9271 44.7952 17.0957 44.1709 17.0957Z" fill="#292A2E"/>
<path d="M35.2158 17.1367C34.3545 17.1367 33.582 16.9248 32.8984 16.501C32.2148 16.0771 31.6725 15.4756 31.2715 14.6963C30.8704 13.917 30.6699 12.9919 30.6699 11.9209C30.6699 10.8226 30.8773 9.88379 31.292 9.10449C31.7067 8.32064 32.2673 7.72135 32.9736 7.30664C33.6846 6.88737 34.4867 6.67773 35.3799 6.67773C35.945 6.67773 36.4714 6.75977 36.959 6.92383C37.4512 7.08789 37.8887 7.32259 38.2715 7.62793C38.6543 7.93327 38.9665 8.29557 39.208 8.71484C39.4541 9.12956 39.6159 9.58529 39.6934 10.082H37.6904C37.6175 9.82682 37.5104 9.59668 37.3691 9.3916C37.2324 9.18652 37.0661 9.01335 36.8701 8.87207C36.6787 8.72624 36.46 8.61686 36.2139 8.54395C35.9723 8.46647 35.7035 8.42773 35.4072 8.42773C34.8695 8.42773 34.3932 8.56217 33.9785 8.83105C33.5638 9.09993 33.2402 9.49414 33.0078 10.0137C32.7754 10.5286 32.6592 11.1576 32.6592 11.9004C32.6592 12.6432 32.7754 13.2744 33.0078 13.7939C33.2402 14.3135 33.5661 14.71 33.9854 14.9834C34.4092 15.2523 34.9014 15.3867 35.4619 15.3867C35.9678 15.3867 36.4007 15.2887 36.7607 15.0928C37.1253 14.8968 37.4033 14.6188 37.5947 14.2588C37.7907 13.8942 37.8887 13.4635 37.8887 12.9668H38.3057V13.8213C38.3057 14.2588 38.251 14.6781 38.1416 15.0791C38.0322 15.4756 37.8568 15.8288 37.6152 16.1387C37.3783 16.4486 37.0615 16.6924 36.665 16.8701C36.2731 17.0479 35.79 17.1367 35.2158 17.1367ZM38.4561 17L38.1963 14.5664V13.1377H35.5986V11.6201H39.7891V17H38.4561Z" fill="#292A2E"/>
</svg>
