<svg width="206" height="24" viewBox="0 0 206 24" fill="none" xmlns="http://www.w3.org/2000/svg">
<path d="M18 0C21.3137 0 24 2.68629 24 6V18C24 21.3137 21.3137 24 18 24H6C2.68629 24 0 21.3137 0 18V6C0 2.68629 2.68629 0 6 0H18ZM13.7441 10.1562L11.2627 13.2754C9.56928 15.4049 9.35111 18.3226 11.665 20.167L18.8252 11.3301C19.2444 10.8103 19.0096 10.1563 18.3223 10.1562H13.7441ZM5.125 12.5039C4.70625 13.0237 4.94159 13.6777 5.62891 13.6777H10.2061L12.6709 10.542C14.3477 8.39565 14.5992 5.5115 12.2852 3.66699L5.125 12.5039Z" fill="#292A2E"/>
<path d="M205.273 9.35742V10.8408H200.83V9.35742H205.273ZM201.896 7.53906H203.817V14.8057C203.817 15.0609 203.874 15.25 203.988 15.373C204.102 15.4961 204.289 15.5576 204.549 15.5576C204.626 15.5576 204.733 15.5485 204.87 15.5303C205.007 15.5075 205.114 15.487 205.191 15.4688L205.479 16.9316C205.269 16.9954 205.057 17.0387 204.843 17.0615C204.629 17.0889 204.421 17.1025 204.221 17.1025C203.469 17.1025 202.892 16.9202 202.491 16.5557C202.095 16.1865 201.896 15.6579 201.896 14.9697V7.53906Z" fill="#292A2E"/>
<path d="M194.869 12.5498V17H192.941V9.35742H194.76L194.794 11.2578H194.664C194.869 10.6107 195.177 10.1162 195.587 9.77441C195.997 9.43262 196.521 9.26172 197.159 9.26172C197.683 9.26172 198.141 9.37565 198.533 9.60352C198.93 9.83138 199.235 10.1595 199.449 10.5879C199.668 11.0163 199.777 11.5335 199.777 12.1396V17H197.856V12.4609C197.856 11.9642 197.729 11.5768 197.474 11.2988C197.218 11.0208 196.868 10.8818 196.421 10.8818C196.12 10.8818 195.851 10.9479 195.614 11.0801C195.382 11.2077 195.2 11.3968 195.067 11.6475C194.935 11.8936 194.869 12.1943 194.869 12.5498Z" fill="#292A2E"/>
<path d="M188.054 17.1504C187.279 17.1504 186.611 16.9909 186.051 16.6719C185.49 16.3483 185.06 15.8926 184.759 15.3047C184.458 14.7168 184.308 14.0218 184.308 13.2197C184.308 12.4359 184.456 11.7477 184.752 11.1553C185.053 10.5583 185.474 10.0934 186.017 9.76074C186.563 9.42806 187.206 9.26172 187.944 9.26172C188.427 9.26172 188.881 9.33919 189.305 9.49414C189.733 9.64909 190.111 9.88607 190.439 10.2051C190.768 10.5195 191.023 10.9206 191.205 11.4082C191.392 11.8913 191.485 12.4655 191.485 13.1309V13.6982H185.148V12.4473H190.542L189.64 12.7959C189.64 12.3812 189.576 12.0212 189.448 11.7158C189.321 11.4059 189.132 11.1667 188.881 10.998C188.635 10.8249 188.325 10.7383 187.951 10.7383C187.582 10.7383 187.268 10.8249 187.008 10.998C186.748 11.1712 186.55 11.4059 186.413 11.7021C186.276 11.9938 186.208 12.3219 186.208 12.6865V13.5615C186.208 14.0218 186.285 14.4115 186.44 14.7305C186.6 15.0449 186.819 15.2819 187.097 15.4414C187.379 15.6009 187.707 15.6807 188.081 15.6807C188.327 15.6807 188.553 15.6442 188.758 15.5713C188.963 15.4984 189.138 15.3936 189.284 15.2568C189.43 15.1156 189.542 14.9424 189.619 14.7373L191.369 15.0791C191.246 15.4938 191.034 15.8584 190.733 16.1729C190.433 16.4827 190.054 16.7243 189.599 16.8975C189.147 17.0661 188.632 17.1504 188.054 17.1504Z" fill="#292A2E"/>
<path d="M171.928 17V9.35742H173.726L173.808 11.2305H173.671C173.785 10.7656 173.956 10.3874 174.184 10.0957C174.416 9.80404 174.687 9.58984 174.997 9.45312C175.307 9.31185 175.631 9.24121 175.968 9.24121C176.519 9.24121 176.964 9.41439 177.301 9.76074C177.638 10.1071 177.882 10.6312 178.032 11.333H177.807C177.916 10.859 178.098 10.4671 178.354 10.1572C178.613 9.84733 178.916 9.61719 179.263 9.4668C179.614 9.31641 179.987 9.24121 180.384 9.24121C180.844 9.24121 181.257 9.34147 181.621 9.54199C181.99 9.74251 182.28 10.0365 182.489 10.4238C182.703 10.8112 182.811 11.2852 182.811 11.8457V17H180.89V12.1807C180.89 11.7295 180.767 11.3968 180.521 11.1826C180.274 10.9684 179.976 10.8613 179.625 10.8613C179.356 10.8613 179.121 10.9206 178.921 11.0391C178.725 11.153 178.572 11.3148 178.463 11.5244C178.358 11.734 178.306 11.9779 178.306 12.2559V17H176.439V12.1123C176.439 11.7295 176.323 11.4264 176.091 11.2031C175.863 10.9753 175.567 10.8613 175.202 10.8613C174.951 10.8613 174.724 10.9183 174.519 11.0322C174.313 11.1462 174.152 11.3148 174.033 11.5381C173.915 11.7568 173.855 12.028 173.855 12.3516V17H171.928Z" fill="#292A2E"/>
<path d="M167.04 17.1504C166.265 17.1504 165.598 16.9909 165.037 16.6719C164.477 16.3483 164.046 15.8926 163.745 15.3047C163.444 14.7168 163.294 14.0218 163.294 13.2197C163.294 12.4359 163.442 11.7477 163.738 11.1553C164.039 10.5583 164.461 10.0934 165.003 9.76074C165.55 9.42806 166.192 9.26172 166.931 9.26172C167.414 9.26172 167.867 9.33919 168.291 9.49414C168.719 9.64909 169.098 9.88607 169.426 10.2051C169.754 10.5195 170.009 10.9206 170.191 11.4082C170.378 11.8913 170.472 12.4655 170.472 13.1309V13.6982H164.135V12.4473H169.528L168.626 12.7959C168.626 12.3812 168.562 12.0212 168.435 11.7158C168.307 11.4059 168.118 11.1667 167.867 10.998C167.621 10.8249 167.311 10.7383 166.938 10.7383C166.568 10.7383 166.254 10.8249 165.994 10.998C165.734 11.1712 165.536 11.4059 165.399 11.7021C165.263 11.9938 165.194 12.3219 165.194 12.6865V13.5615C165.194 14.0218 165.272 14.4115 165.427 14.7305C165.586 15.0449 165.805 15.2819 166.083 15.4414C166.366 15.6009 166.694 15.6807 167.067 15.6807C167.313 15.6807 167.539 15.6442 167.744 15.5713C167.949 15.4984 168.125 15.3936 168.271 15.2568C168.416 15.1156 168.528 14.9424 168.605 14.7373L170.355 15.0791C170.232 15.4938 170.021 15.8584 169.72 16.1729C169.419 16.4827 169.041 16.7243 168.585 16.8975C168.134 17.0661 167.619 17.1504 167.04 17.1504Z" fill="#292A2E"/>
<path d="M158.16 20.0215C157.536 20.0215 156.991 19.9417 156.526 19.7822C156.066 19.6273 155.688 19.4108 155.392 19.1328C155.1 18.8594 154.895 18.5472 154.776 18.1963L156.417 17.6836C156.49 17.8249 156.595 17.9661 156.731 18.1074C156.868 18.2487 157.053 18.3649 157.285 18.4561C157.518 18.5518 157.807 18.5996 158.153 18.5996C158.691 18.5996 159.117 18.4743 159.432 18.2236C159.746 17.9775 159.903 17.5902 159.903 17.0615V15.6396H159.753C159.662 15.8356 159.53 16.0293 159.356 16.2207C159.188 16.4121 158.962 16.5716 158.68 16.6992C158.397 16.8268 158.042 16.8906 157.613 16.8906C157.035 16.8906 156.508 16.7539 156.034 16.4805C155.565 16.207 155.189 15.7946 154.906 15.2432C154.628 14.6917 154.489 13.999 154.489 13.165C154.489 12.3128 154.631 11.5973 154.913 11.0186C155.196 10.4398 155.574 10.0023 156.048 9.70605C156.522 9.40983 157.048 9.26172 157.627 9.26172C158.064 9.26172 158.429 9.33691 158.721 9.4873C159.012 9.63314 159.247 9.81315 159.425 10.0273C159.603 10.237 159.737 10.4398 159.828 10.6357H159.917V9.35742H161.804V16.9795C161.804 17.6631 161.646 18.2305 161.332 18.6816C161.022 19.1328 160.591 19.4678 160.04 19.6865C159.493 19.9098 158.867 20.0215 158.16 20.0215ZM158.188 15.4004C158.557 15.4004 158.869 15.3115 159.124 15.1338C159.379 14.9561 159.573 14.6986 159.705 14.3613C159.842 14.0241 159.91 13.6208 159.91 13.1514C159.91 12.682 159.844 12.2741 159.712 11.9277C159.58 11.5768 159.386 11.3057 159.131 11.1143C158.876 10.9183 158.561 10.8203 158.188 10.8203C157.809 10.8203 157.49 10.9206 157.23 11.1211C156.975 11.3216 156.782 11.5973 156.649 11.9482C156.522 12.2992 156.458 12.7002 156.458 13.1514C156.458 13.6071 156.524 14.0036 156.656 14.3408C156.788 14.6781 156.982 14.9401 157.237 15.127C157.497 15.3092 157.814 15.4004 158.188 15.4004Z" fill="#292A2E"/>
<path d="M148.822 17.1299C148.234 17.1299 147.703 16.9772 147.229 16.6719C146.76 16.3665 146.386 15.9222 146.108 15.3389C145.835 14.751 145.698 14.0355 145.698 13.1924C145.698 12.3311 145.84 11.6087 146.122 11.0254C146.405 10.4421 146.783 10.0023 147.257 9.70605C147.731 9.40983 148.257 9.26172 148.836 9.26172C149.273 9.26172 149.636 9.33691 149.923 9.4873C150.21 9.63314 150.44 9.81315 150.613 10.0273C150.786 10.237 150.919 10.4398 151.01 10.6357H151.085V9.35742H152.992V17H151.092V15.7832H151.01C150.919 15.9792 150.782 16.182 150.6 16.3916C150.422 16.6012 150.189 16.7767 149.902 16.918C149.615 17.0592 149.255 17.1299 148.822 17.1299ZM149.396 15.5781C149.766 15.5781 150.078 15.4779 150.333 15.2773C150.588 15.0768 150.782 14.7965 150.914 14.4365C151.051 14.0765 151.119 13.6595 151.119 13.1855C151.119 12.707 151.053 12.2923 150.921 11.9414C150.789 11.5859 150.595 11.3102 150.34 11.1143C150.085 10.9183 149.77 10.8203 149.396 10.8203C149.018 10.8203 148.699 10.9206 148.439 11.1211C148.184 11.3216 147.991 11.5996 147.858 11.9551C147.731 12.3105 147.667 12.7207 147.667 13.1855C147.667 13.6458 147.733 14.056 147.865 14.416C147.997 14.776 148.191 15.0609 148.446 15.2705C148.706 15.4756 149.023 15.5781 149.396 15.5781Z" fill="#292A2E"/>
<path d="M139.293 12.5498V17H137.365V9.35742H139.184L139.218 11.2578H139.088C139.293 10.6107 139.601 10.1162 140.011 9.77441C140.421 9.43262 140.945 9.26172 141.583 9.26172C142.107 9.26172 142.565 9.37565 142.957 9.60352C143.354 9.83138 143.659 10.1595 143.873 10.5879C144.092 11.0163 144.201 11.5335 144.201 12.1396V17H142.28V12.4609C142.28 11.9642 142.153 11.5768 141.897 11.2988C141.642 11.0208 141.291 10.8818 140.845 10.8818C140.544 10.8818 140.275 10.9479 140.038 11.0801C139.806 11.2077 139.623 11.3968 139.491 11.6475C139.359 11.8936 139.293 12.1943 139.293 12.5498Z" fill="#292A2E"/>
<path d="M131.377 17.1299C130.789 17.1299 130.258 16.9772 129.784 16.6719C129.315 16.3665 128.941 15.9222 128.663 15.3389C128.39 14.751 128.253 14.0355 128.253 13.1924C128.253 12.3311 128.394 11.6087 128.677 11.0254C128.959 10.4421 129.338 10.0023 129.812 9.70605C130.285 9.40983 130.812 9.26172 131.391 9.26172C131.828 9.26172 132.19 9.33691 132.478 9.4873C132.765 9.63314 132.995 9.81315 133.168 10.0273C133.341 10.237 133.473 10.4398 133.564 10.6357H133.64V9.35742H135.547V17H133.646V15.7832H133.564C133.473 15.9792 133.337 16.182 133.154 16.3916C132.977 16.6012 132.744 16.7767 132.457 16.918C132.17 17.0592 131.81 17.1299 131.377 17.1299ZM131.951 15.5781C132.32 15.5781 132.632 15.4779 132.888 15.2773C133.143 15.0768 133.337 14.7965 133.469 14.4365C133.605 14.0765 133.674 13.6595 133.674 13.1855C133.674 12.707 133.608 12.2923 133.476 11.9414C133.343 11.5859 133.15 11.3102 132.895 11.1143C132.639 10.9183 132.325 10.8203 131.951 10.8203C131.573 10.8203 131.254 10.9206 130.994 11.1211C130.739 11.3216 130.545 11.5996 130.413 11.9551C130.285 12.3105 130.222 12.7207 130.222 13.1855C130.222 13.6458 130.288 14.056 130.42 14.416C130.552 14.776 130.746 15.0609 131.001 15.2705C131.261 15.4756 131.577 15.5781 131.951 15.5781Z" fill="#292A2E"/>
<path d="M115.654 17V6.81445H118.642L120.426 11.7637C120.494 11.9688 120.572 12.2376 120.658 12.5703C120.745 12.8984 120.834 13.2516 120.925 13.6299C121.016 14.0081 121.1 14.3773 121.178 14.7373C121.26 15.0973 121.326 15.4118 121.376 15.6807H120.986C121.041 15.4209 121.107 15.1133 121.185 14.7578C121.267 14.3978 121.353 14.0286 121.444 13.6504C121.535 13.2676 121.624 12.9098 121.711 12.5771C121.798 12.2445 121.875 11.9733 121.943 11.7637L123.7 6.81445H126.694V17H124.732V12.0371C124.732 11.8184 124.735 11.5495 124.739 11.2305C124.748 10.9069 124.757 10.5605 124.767 10.1914C124.776 9.81771 124.785 9.44173 124.794 9.06348C124.803 8.68522 124.808 8.32975 124.808 7.99707H124.944C124.853 8.36165 124.753 8.73991 124.644 9.13184C124.539 9.52376 124.434 9.9043 124.329 10.2734C124.224 10.638 124.124 10.973 124.028 11.2783C123.933 11.5837 123.851 11.8366 123.782 12.0371L122.005 17H120.344L118.539 12.0371C118.471 11.8411 118.389 11.5928 118.293 11.292C118.202 10.9867 118.102 10.6517 117.992 10.2871C117.887 9.92253 117.78 9.54427 117.671 9.15234C117.562 8.76042 117.457 8.37533 117.356 7.99707H117.514C117.518 8.31152 117.525 8.6556 117.534 9.0293C117.543 9.40299 117.552 9.77669 117.562 10.1504C117.571 10.5241 117.577 10.875 117.582 11.2031C117.591 11.5312 117.596 11.8092 117.596 12.0371V17H115.654Z" fill="#292A2E"/>
<path d="M107.28 17.1504C106.506 17.1504 105.838 16.9909 105.277 16.6719C104.717 16.3483 104.286 15.8926 103.985 15.3047C103.685 14.7168 103.534 14.0218 103.534 13.2197C103.534 12.4359 103.682 11.7477 103.979 11.1553C104.279 10.5583 104.701 10.0934 105.243 9.76074C105.79 9.42806 106.433 9.26172 107.171 9.26172C107.654 9.26172 108.107 9.33919 108.531 9.49414C108.96 9.64909 109.338 9.88607 109.666 10.2051C109.994 10.5195 110.249 10.9206 110.432 11.4082C110.618 11.8913 110.712 12.4655 110.712 13.1309V13.6982H104.375V12.4473H109.769L108.866 12.7959C108.866 12.3812 108.802 12.0212 108.675 11.7158C108.547 11.4059 108.358 11.1667 108.107 10.998C107.861 10.8249 107.551 10.7383 107.178 10.7383C106.809 10.7383 106.494 10.8249 106.234 10.998C105.975 11.1712 105.776 11.4059 105.64 11.7021C105.503 11.9938 105.435 12.3219 105.435 12.6865V13.5615C105.435 14.0218 105.512 14.4115 105.667 14.7305C105.826 15.0449 106.045 15.2819 106.323 15.4414C106.606 15.6009 106.934 15.6807 107.308 15.6807C107.554 15.6807 107.779 15.6442 107.984 15.5713C108.189 15.4984 108.365 15.3936 108.511 15.2568C108.657 15.1156 108.768 14.9424 108.846 14.7373L110.596 15.0791C110.473 15.4938 110.261 15.8584 109.96 16.1729C109.659 16.4827 109.281 16.7243 108.825 16.8975C108.374 17.0661 107.859 17.1504 107.28 17.1504Z" fill="#292A2E"/>
<path d="M99.0225 17.1504C98.2705 17.1504 97.6165 16.9863 97.0605 16.6582C96.5091 16.3301 96.083 15.8698 95.7822 15.2773C95.4814 14.6849 95.3311 13.9967 95.3311 13.2129C95.3311 12.4245 95.4814 11.734 95.7822 11.1416C96.083 10.5446 96.5091 10.082 97.0605 9.75391C97.6165 9.42578 98.2705 9.26172 99.0225 9.26172C99.4645 9.26172 99.8724 9.31868 100.246 9.43262C100.62 9.54655 100.952 9.71061 101.244 9.9248C101.536 10.139 101.777 10.3988 101.969 10.7041C102.165 11.0094 102.301 11.3535 102.379 11.7363L100.581 12.0918C100.54 11.8913 100.474 11.7113 100.383 11.5518C100.292 11.3923 100.18 11.2578 100.048 11.1484C99.9202 11.0345 99.7721 10.9479 99.6035 10.8887C99.4349 10.8249 99.248 10.793 99.043 10.793C98.6556 10.793 98.332 10.8978 98.0723 11.1074C97.8125 11.3125 97.6165 11.5973 97.4844 11.9619C97.3522 12.3219 97.2861 12.7367 97.2861 13.2061C97.2861 13.6709 97.3522 14.0856 97.4844 14.4502C97.6165 14.8102 97.8125 15.0951 98.0723 15.3047C98.332 15.5143 98.6556 15.6191 99.043 15.6191C99.2526 15.6191 99.4417 15.5895 99.6104 15.5303C99.7835 15.4665 99.9362 15.3753 100.068 15.2568C100.201 15.1383 100.312 14.9971 100.403 14.833C100.494 14.6644 100.561 14.4775 100.602 14.2725L102.393 14.6211C102.315 15.0176 102.181 15.3708 101.989 15.6807C101.798 15.9906 101.554 16.2549 101.258 16.4736C100.966 16.6924 100.631 16.861 100.253 16.9795C99.8792 17.0934 99.4691 17.1504 99.0225 17.1504Z" fill="#292A2E"/>
<path d="M91.9199 17V9.35742H93.8477V17H91.9199ZM91.8994 8.27051V6.51367H93.8818V8.27051H91.8994Z" fill="#292A2E"/>
<path d="M85.7744 17L82.9443 9.35742H84.9883L86.3281 13.4111C86.4876 13.9033 86.6243 14.4001 86.7383 14.9014C86.8568 15.3981 86.9798 15.9108 87.1074 16.4395H86.6631C86.7861 15.9108 86.9046 15.3981 87.0186 14.9014C87.1325 14.4001 87.2692 13.9033 87.4287 13.4111L88.7549 9.35742H90.7783L87.9482 17H85.7744Z" fill="#292A2E"/>
<path d="M77.7559 17V9.35742H79.6221V10.6631H79.7041C79.8408 10.2074 80.0778 9.85872 80.415 9.61719C80.7523 9.37565 81.1374 9.25488 81.5703 9.25488C81.6706 9.25488 81.7822 9.26172 81.9053 9.27539C82.0283 9.28451 82.1354 9.29818 82.2266 9.31641V11.0527C82.1445 11.0254 82.0169 11.0026 81.8438 10.9844C81.6751 10.9661 81.5133 10.957 81.3584 10.957C81.0394 10.957 80.7523 11.0254 80.4971 11.1621C80.2419 11.2988 80.0413 11.4902 79.8955 11.7363C79.7542 11.9779 79.6836 12.2604 79.6836 12.584V17H77.7559Z" fill="#292A2E"/>
<path d="M72.8682 17.1504C72.0934 17.1504 71.4258 16.9909 70.8652 16.6719C70.3047 16.3483 69.874 15.8926 69.5732 15.3047C69.2725 14.7168 69.1221 14.0218 69.1221 13.2197C69.1221 12.4359 69.2702 11.7477 69.5664 11.1553C69.8672 10.5583 70.2887 10.0934 70.8311 9.76074C71.3779 9.42806 72.0205 9.26172 72.7588 9.26172C73.2419 9.26172 73.6953 9.33919 74.1191 9.49414C74.5475 9.64909 74.9258 9.88607 75.2539 10.2051C75.582 10.5195 75.8372 10.9206 76.0195 11.4082C76.2064 11.8913 76.2998 12.4655 76.2998 13.1309V13.6982H69.9629V12.4473H75.3564L74.4541 12.7959C74.4541 12.3812 74.3903 12.0212 74.2627 11.7158C74.1351 11.4059 73.946 11.1667 73.6953 10.998C73.4492 10.8249 73.1393 10.7383 72.7656 10.7383C72.3965 10.7383 72.082 10.8249 71.8223 10.998C71.5625 11.1712 71.3643 11.4059 71.2275 11.7021C71.0908 11.9938 71.0225 12.3219 71.0225 12.6865V13.5615C71.0225 14.0218 71.0999 14.4115 71.2549 14.7305C71.4144 15.0449 71.6331 15.2819 71.9111 15.4414C72.1937 15.6009 72.5218 15.6807 72.8955 15.6807C73.1416 15.6807 73.3672 15.6442 73.5723 15.5713C73.7773 15.4984 73.9528 15.3936 74.0986 15.2568C74.2445 15.1156 74.3561 14.9424 74.4336 14.7373L76.1836 15.0791C76.0605 15.4938 75.8486 15.8584 75.5479 16.1729C75.2471 16.4827 74.8688 16.7243 74.4131 16.8975C73.9619 17.0661 73.4469 17.1504 72.8682 17.1504Z" fill="#292A2E"/>
<path d="M64.0225 17.1504C63.2204 17.1504 62.5231 17.0273 61.9307 16.7812C61.3382 16.5306 60.8757 16.166 60.543 15.6875C60.2103 15.2044 60.0326 14.6143 60.0098 13.917H61.9307C61.958 14.2679 62.0628 14.5596 62.2451 14.792C62.432 15.0244 62.6781 15.1999 62.9834 15.3184C63.2887 15.4323 63.6305 15.4893 64.0088 15.4893C64.3916 15.4893 64.7288 15.4323 65.0205 15.3184C65.3122 15.1999 65.54 15.0381 65.7041 14.833C65.8682 14.6234 65.9502 14.3818 65.9502 14.1084C65.9502 13.8577 65.8773 13.6504 65.7314 13.4863C65.5856 13.3223 65.3783 13.1833 65.1094 13.0693C64.8451 12.9508 64.526 12.8483 64.1523 12.7617L63.0176 12.4678C62.1608 12.2536 61.4909 11.9232 61.0078 11.4766C60.5247 11.0299 60.2832 10.4421 60.2832 9.71289C60.2832 9.10677 60.4473 8.57585 60.7754 8.12012C61.1035 7.66439 61.5524 7.3112 62.1221 7.06055C62.6917 6.80534 63.3389 6.67773 64.0635 6.67773C64.8018 6.67773 65.4466 6.80534 65.998 7.06055C66.554 7.31576 66.987 7.66895 67.2969 8.12012C67.6113 8.56673 67.7731 9.08171 67.7822 9.66504H65.8818C65.8408 9.24121 65.6562 8.91536 65.3281 8.6875C65.0046 8.45508 64.5739 8.33887 64.0361 8.33887C63.6716 8.33887 63.3571 8.39355 63.0928 8.50293C62.833 8.60775 62.6325 8.75586 62.4912 8.94727C62.3545 9.13411 62.2861 9.34831 62.2861 9.58984C62.2861 9.85872 62.3659 10.0798 62.5254 10.2529C62.6895 10.4261 62.8991 10.5651 63.1543 10.6699C63.4141 10.7747 63.6829 10.8613 63.9609 10.9297L64.8975 11.1621C65.3031 11.2578 65.6859 11.3854 66.0459 11.5449C66.4105 11.7044 66.7341 11.9027 67.0166 12.1396C67.2992 12.3721 67.5202 12.6523 67.6797 12.9805C67.8392 13.304 67.9189 13.6846 67.9189 14.1221C67.9189 14.7282 67.764 15.2591 67.4541 15.7148C67.1488 16.1706 66.7044 16.5238 66.1211 16.7744C65.5423 17.0251 64.8428 17.1504 64.0225 17.1504Z" fill="#292A2E"/>
<path d="M50.8906 17.1299C50.3027 17.1299 49.7718 16.9772 49.2979 16.6719C48.8285 16.3665 48.4548 15.9222 48.1768 15.3389C47.9033 14.751 47.7666 14.0355 47.7666 13.1924C47.7666 12.3311 47.9079 11.6087 48.1904 11.0254C48.473 10.4421 48.8512 10.0023 49.3252 9.70605C49.7992 9.40983 50.3255 9.26172 50.9043 9.26172C51.3418 9.26172 51.7041 9.33691 51.9912 9.4873C52.2783 9.63314 52.5085 9.81315 52.6816 10.0273C52.8548 10.237 52.987 10.4398 53.0781 10.6357H53.1533V9.35742H55.0605V17H53.1602V15.7832H53.0781C52.987 15.9792 52.8503 16.182 52.668 16.3916C52.4902 16.6012 52.2578 16.7767 51.9707 16.918C51.6836 17.0592 51.3236 17.1299 50.8906 17.1299ZM51.4648 15.5781C51.834 15.5781 52.1462 15.4779 52.4014 15.2773C52.6566 15.0768 52.8503 14.7965 52.9824 14.4365C53.1191 14.0765 53.1875 13.6595 53.1875 13.1855C53.1875 12.707 53.1214 12.2923 52.9893 11.9414C52.8571 11.5859 52.6634 11.3102 52.4082 11.1143C52.153 10.9183 51.8385 10.8203 51.4648 10.8203C51.0866 10.8203 50.7676 10.9206 50.5078 11.1211C50.2526 11.3216 50.0589 11.5996 49.9268 11.9551C49.7992 12.3105 49.7354 12.7207 49.7354 13.1855C49.7354 13.6458 49.8014 14.056 49.9336 14.416C50.0658 14.776 50.2594 15.0609 50.5146 15.2705C50.7744 15.4756 51.0911 15.5781 51.4648 15.5781Z" fill="#292A2E"/>
<path d="M42.7832 17V9.35742H44.6494V10.6631H44.7314C44.8682 10.2074 45.1051 9.85872 45.4424 9.61719C45.7796 9.37565 46.1647 9.25488 46.5977 9.25488C46.6979 9.25488 46.8096 9.26172 46.9326 9.27539C47.0557 9.28451 47.1628 9.29818 47.2539 9.31641V11.0527C47.1719 11.0254 47.0443 11.0026 46.8711 10.9844C46.7025 10.9661 46.5407 10.957 46.3857 10.957C46.0667 10.957 45.7796 11.0254 45.5244 11.1621C45.2692 11.2988 45.0687 11.4902 44.9229 11.7363C44.7816 11.9779 44.7109 12.2604 44.7109 12.584V17H42.7832Z" fill="#292A2E"/>
<path d="M39.0508 17V9.35742H40.9785V17H39.0508ZM39.0303 8.27051V6.51367H41.0127V8.27051H39.0303Z" fill="#292A2E"/>
<path d="M33.8555 17.1367C32.821 17.1367 32.0029 16.8633 31.4014 16.3164C30.7998 15.765 30.499 14.9811 30.499 13.9648V13.377H32.4609V13.9854C32.4609 14.4958 32.5863 14.8831 32.8369 15.1475C33.0876 15.4072 33.4271 15.5371 33.8555 15.5371C34.2793 15.5371 34.6143 15.4072 34.8604 15.1475C35.111 14.8831 35.2363 14.4958 35.2363 13.9854V6.81445H37.1777V13.958C37.1777 14.9743 36.8792 15.7581 36.2822 16.3096C35.6898 16.861 34.8809 17.1367 33.8555 17.1367Z" fill="#292A2E"/>
</svg>
