<svg width="69" height="24" viewBox="0 0 69 24" fill="none" xmlns="http://www.w3.org/2000/svg">
<path d="M0 6C0 2.68629 2.68629 0 6 0H18C21.3137 0 24 2.68629 24 6V18C24 21.3137 21.3137 24 18 24H6C2.68629 24 0 21.3137 0 18V6Z" fill="#1868DB"/>
<path d="M19.0834 11.2123H14.9409L18.5285 9.14093L17.7406 7.77592L14.153 9.84723L16.2239 6.25988L14.8588 5.47154L12.788 9.05889V4.91666H11.2122V9.05928L9.14052 5.47154L7.77592 6.25948L9.84718 9.84683L6.25954 7.77592L5.47162 9.14054L9.05926 11.2119H4.91675V12.7877H9.05887L5.47162 14.859L6.25954 16.2241L9.84678 14.1531L7.77553 17.7405L9.14052 18.5284L11.2118 14.9407V19.0833H12.7876V14.9411L14.8585 18.5284L16.2234 17.7405L14.1522 14.1528L17.7398 16.2241L18.5278 14.859L14.9405 12.7881H19.0826V11.2123H19.0834ZM12.0001 14.1432C10.8119 14.1432 9.84876 13.1801 9.84876 11.9919C9.84876 10.8036 10.8119 9.84049 12.0001 9.84049C13.1883 9.84049 14.1514 10.8036 14.1514 11.9919C14.1514 13.1801 13.1883 14.1432 12.0001 14.1432Z" fill="white"/>
<path d="M56.9355 17V9.35742H58.7334L58.8154 11.2305H58.6787C58.7926 10.7656 58.9635 10.3874 59.1914 10.0957C59.4238 9.80404 59.695 9.58984 60.0049 9.45312C60.3148 9.31185 60.6383 9.24121 60.9756 9.24121C61.527 9.24121 61.9714 9.41439 62.3086 9.76074C62.6458 10.1071 62.8896 10.6312 63.04 11.333H62.8145C62.9238 10.859 63.1061 10.4671 63.3613 10.1572C63.6211 9.84733 63.9242 9.61719 64.2705 9.4668C64.6214 9.31641 64.9951 9.24121 65.3916 9.24121C65.8519 9.24121 66.2643 9.34147 66.6289 9.54199C66.998 9.74251 67.2874 10.0365 67.4971 10.4238C67.7113 10.8112 67.8184 11.2852 67.8184 11.8457V17H65.8975V12.1807C65.8975 11.7295 65.7744 11.3968 65.5283 11.1826C65.2822 10.9684 64.9837 10.8613 64.6328 10.8613C64.3639 10.8613 64.1292 10.9206 63.9287 11.0391C63.7327 11.153 63.5801 11.3148 63.4707 11.5244C63.3659 11.734 63.3135 11.9779 63.3135 12.2559V17H61.4473V12.1123C61.4473 11.7295 61.3311 11.4264 61.0986 11.2031C60.8708 10.9753 60.5745 10.8613 60.21 10.8613C59.9593 10.8613 59.7314 10.9183 59.5264 11.0322C59.3213 11.1462 59.1595 11.3148 59.041 11.5381C58.9225 11.7568 58.8633 12.028 58.8633 12.3516V17H56.9355Z" fill="#292A2E"/>
<path d="M51.7539 17.1504C50.9974 17.1504 50.3411 16.9863 49.7852 16.6582C49.2337 16.3301 48.8076 15.8698 48.5068 15.2773C48.2061 14.6849 48.0557 13.9967 48.0557 13.2129C48.0557 12.4245 48.2061 11.734 48.5068 11.1416C48.8076 10.5446 49.2337 10.082 49.7852 9.75391C50.3411 9.42578 50.9974 9.26172 51.7539 9.26172C52.5104 9.26172 53.1644 9.42578 53.7158 9.75391C54.2718 10.082 54.7002 10.5446 55.001 11.1416C55.3018 11.734 55.4521 12.4245 55.4521 13.2129C55.4521 13.9967 55.3018 14.6849 55.001 15.2773C54.7002 15.8698 54.2718 16.3301 53.7158 16.6582C53.1644 16.9863 52.5104 17.1504 51.7539 17.1504ZM51.7539 15.6191C52.1413 15.6191 52.4648 15.5143 52.7246 15.3047C52.9844 15.0905 53.1781 14.8011 53.3057 14.4365C53.4333 14.0719 53.4971 13.6618 53.4971 13.2061C53.4971 12.7503 53.4333 12.3402 53.3057 11.9756C53.1781 11.611 52.9844 11.3239 52.7246 11.1143C52.4648 10.9001 52.1413 10.793 51.7539 10.793C51.3665 10.793 51.043 10.9001 50.7832 11.1143C50.528 11.3239 50.3343 11.611 50.2021 11.9756C50.0745 12.3356 50.0107 12.7458 50.0107 13.2061C50.0107 13.6618 50.0745 14.0719 50.2021 14.4365C50.3343 14.8011 50.528 15.0905 50.7832 15.3047C51.043 15.5143 51.3665 15.6191 51.7539 15.6191Z" fill="#292A2E"/>
<path d="M43.1953 17.1504C42.4388 17.1504 41.7826 16.9863 41.2266 16.6582C40.6751 16.3301 40.249 15.8698 39.9482 15.2773C39.6475 14.6849 39.4971 13.9967 39.4971 13.2129C39.4971 12.4245 39.6475 11.734 39.9482 11.1416C40.249 10.5446 40.6751 10.082 41.2266 9.75391C41.7826 9.42578 42.4388 9.26172 43.1953 9.26172C43.9518 9.26172 44.6058 9.42578 45.1572 9.75391C45.7132 10.082 46.1416 10.5446 46.4424 11.1416C46.7432 11.734 46.8936 12.4245 46.8936 13.2129C46.8936 13.9967 46.7432 14.6849 46.4424 15.2773C46.1416 15.8698 45.7132 16.3301 45.1572 16.6582C44.6058 16.9863 43.9518 17.1504 43.1953 17.1504ZM43.1953 15.6191C43.5827 15.6191 43.9062 15.5143 44.166 15.3047C44.4258 15.0905 44.6195 14.8011 44.7471 14.4365C44.8747 14.0719 44.9385 13.6618 44.9385 13.2061C44.9385 12.7503 44.8747 12.3402 44.7471 11.9756C44.6195 11.611 44.4258 11.3239 44.166 11.1143C43.9062 10.9001 43.5827 10.793 43.1953 10.793C42.8079 10.793 42.4844 10.9001 42.2246 11.1143C41.9694 11.3239 41.7757 11.611 41.6436 11.9756C41.516 12.3356 41.4521 12.7458 41.4521 13.2061C41.4521 13.6618 41.516 14.0719 41.6436 14.4365C41.7757 14.8011 41.9694 15.0905 42.2246 15.3047C42.4844 15.5143 42.8079 15.6191 43.1953 15.6191Z" fill="#292A2E"/>
<path d="M31.9707 17V6.81445H33.9326V15.3594H38.376V17H31.9707Z" fill="#292A2E"/>
</svg>
