<svg width="110" height="24" viewBox="0 0 110 24" fill="none" xmlns="http://www.w3.org/2000/svg">
<path d="M0 6C0 2.68629 2.68629 0 6 0H18C21.3137 0 24 2.68629 24 6V18C24 21.3137 21.3137 24 18 24H6C2.68629 24 0 21.3137 0 18V6Z" fill="#FFC716"/>
<path d="M12 9.79611C10.0759 9.79611 8.20447 10.628 6.67572 11.9138C6.51757 12.065 6.35943 12.1406 6.20128 12.1406C6.06949 12.1406 5.9377 12.065 5.83227 11.939L3.90815 9.7709C3.80272 9.64485 3.75 9.5188 3.75 9.41796C3.75 9.2667 3.82907 9.14065 3.98722 8.98939C6.30671 7.023 9.127 5.91376 12 5.91376C14.873 5.91376 17.6933 7.023 20.0128 8.98939C20.1709 9.14065 20.25 9.2667 20.25 9.41796C20.25 9.5188 20.1973 9.64485 20.0919 9.7709L18.1677 11.939C18.0623 12.065 17.9305 12.1406 17.7987 12.1406C17.6406 12.1406 17.4824 12.065 17.3243 11.9138C15.7955 10.628 13.9241 9.79611 12 9.79611ZM12 17.9138C9.86502 17.9138 8.1254 16.2499 8.1254 14.2331C8.1254 12.2163 9.86502 10.5524 12 10.5524C14.135 10.5524 15.8746 12.1911 15.8746 14.2331C15.8746 16.2751 14.135 17.9138 12 17.9138Z" fill="#101214"/>
<path d="M105.038 17.1504C104.263 17.1504 103.596 16.9909 103.035 16.6719C102.475 16.3483 102.044 15.8926 101.743 15.3047C101.442 14.7168 101.292 14.0218 101.292 13.2197C101.292 12.4359 101.44 11.7477 101.736 11.1553C102.037 10.5583 102.459 10.0934 103.001 9.76074C103.548 9.42806 104.19 9.26172 104.929 9.26172C105.412 9.26172 105.865 9.33919 106.289 9.49414C106.717 9.64909 107.096 9.88607 107.424 10.2051C107.752 10.5195 108.007 10.9206 108.189 11.4082C108.376 11.8913 108.47 12.4655 108.47 13.1309V13.6982H102.133V12.4473H107.526L106.624 12.7959C106.624 12.3812 106.56 12.0212 106.433 11.7158C106.305 11.4059 106.116 11.1667 105.865 10.998C105.619 10.8249 105.309 10.7383 104.936 10.7383C104.566 10.7383 104.252 10.8249 103.992 10.998C103.732 11.1712 103.534 11.4059 103.397 11.7021C103.261 11.9938 103.192 12.3219 103.192 12.6865V13.5615C103.192 14.0218 103.27 14.4115 103.425 14.7305C103.584 15.0449 103.803 15.2819 104.081 15.4414C104.364 15.6009 104.692 15.6807 105.065 15.6807C105.312 15.6807 105.537 15.6442 105.742 15.5713C105.947 15.4984 106.123 15.3936 106.269 15.2568C106.414 15.1156 106.526 14.9424 106.604 14.7373L108.354 15.0791C108.23 15.4938 108.019 15.8584 107.718 16.1729C107.417 16.4827 107.039 16.7243 106.583 16.8975C106.132 17.0661 105.617 17.1504 105.038 17.1504Z" fill="#292A2E"/>
<path d="M96.1582 20.0215C95.5339 20.0215 94.9893 19.9417 94.5244 19.7822C94.0641 19.6273 93.6859 19.4108 93.3896 19.1328C93.098 18.8594 92.8929 18.5472 92.7744 18.1963L94.415 17.6836C94.488 17.8249 94.5928 17.9661 94.7295 18.1074C94.8662 18.2487 95.0508 18.3649 95.2832 18.4561C95.5156 18.5518 95.805 18.5996 96.1514 18.5996C96.6891 18.5996 97.1152 18.4743 97.4297 18.2236C97.7441 17.9775 97.9014 17.5902 97.9014 17.0615V15.6396H97.751C97.6598 15.8356 97.5277 16.0293 97.3545 16.2207C97.1859 16.4121 96.9603 16.5716 96.6777 16.6992C96.3952 16.8268 96.0397 16.8906 95.6113 16.8906C95.0326 16.8906 94.5062 16.7539 94.0322 16.4805C93.5628 16.207 93.1868 15.7946 92.9043 15.2432C92.6263 14.6917 92.4873 13.999 92.4873 13.165C92.4873 12.3128 92.6286 11.5973 92.9111 11.0186C93.1937 10.4398 93.5719 10.0023 94.0459 9.70605C94.5199 9.40983 95.0462 9.26172 95.625 9.26172C96.0625 9.26172 96.4271 9.33691 96.7188 9.4873C97.0104 9.63314 97.2451 9.81315 97.4229 10.0273C97.6006 10.237 97.735 10.4398 97.8262 10.6357H97.915V9.35742H99.8018V16.9795C99.8018 17.6631 99.6445 18.2305 99.3301 18.6816C99.0202 19.1328 98.5895 19.4678 98.0381 19.6865C97.4912 19.9098 96.8646 20.0215 96.1582 20.0215ZM96.1855 15.4004C96.5547 15.4004 96.8669 15.3115 97.1221 15.1338C97.3773 14.9561 97.571 14.6986 97.7031 14.3613C97.8398 14.0241 97.9082 13.6208 97.9082 13.1514C97.9082 12.682 97.8421 12.2741 97.71 11.9277C97.5778 11.5768 97.3841 11.3057 97.1289 11.1143C96.8737 10.9183 96.5592 10.8203 96.1855 10.8203C95.8073 10.8203 95.4883 10.9206 95.2285 11.1211C94.9733 11.3216 94.7796 11.5973 94.6475 11.9482C94.5199 12.2992 94.4561 12.7002 94.4561 13.1514C94.4561 13.6071 94.5221 14.0036 94.6543 14.3408C94.7865 14.6781 94.9801 14.9401 95.2354 15.127C95.4951 15.3092 95.8119 15.4004 96.1855 15.4004Z" fill="#292A2E"/>
<path d="M86.8203 17.1299C86.2324 17.1299 85.7015 16.9772 85.2275 16.6719C84.7581 16.3665 84.3844 15.9222 84.1064 15.3389C83.833 14.751 83.6963 14.0355 83.6963 13.1924C83.6963 12.3311 83.8376 11.6087 84.1201 11.0254C84.4027 10.4421 84.7809 10.0023 85.2549 9.70605C85.7288 9.40983 86.2552 9.26172 86.834 9.26172C87.2715 9.26172 87.6338 9.33691 87.9209 9.4873C88.208 9.63314 88.4382 9.81315 88.6113 10.0273C88.7845 10.237 88.9167 10.4398 89.0078 10.6357H89.083V9.35742H90.9902V17H89.0898V15.7832H89.0078C88.9167 15.9792 88.7799 16.182 88.5977 16.3916C88.4199 16.6012 88.1875 16.7767 87.9004 16.918C87.6133 17.0592 87.2533 17.1299 86.8203 17.1299ZM87.3945 15.5781C87.7637 15.5781 88.0758 15.4779 88.3311 15.2773C88.5863 15.0768 88.7799 14.7965 88.9121 14.4365C89.0488 14.0765 89.1172 13.6595 89.1172 13.1855C89.1172 12.707 89.0511 12.2923 88.9189 11.9414C88.7868 11.5859 88.5931 11.3102 88.3379 11.1143C88.0827 10.9183 87.7682 10.8203 87.3945 10.8203C87.0163 10.8203 86.6973 10.9206 86.4375 11.1211C86.1823 11.3216 85.9886 11.5996 85.8564 11.9551C85.7288 12.3105 85.665 12.7207 85.665 13.1855C85.665 13.6458 85.7311 14.056 85.8633 14.416C85.9954 14.776 86.1891 15.0609 86.4443 15.2705C86.7041 15.4756 87.0208 15.5781 87.3945 15.5781Z" fill="#292A2E"/>
<path d="M75.2266 19.8574V9.35742H77.1201V10.6357H77.2227C77.3138 10.4398 77.446 10.237 77.6191 10.0273C77.7923 9.81315 78.0225 9.63314 78.3096 9.4873C78.5967 9.33691 78.9613 9.26172 79.4033 9.26172C79.9821 9.26172 80.5062 9.40983 80.9756 9.70605C81.4495 10.0023 81.8255 10.4421 82.1035 11.0254C82.3861 11.6087 82.5273 12.3311 82.5273 13.1924C82.5273 14.0355 82.3906 14.751 82.1172 15.3389C81.8438 15.9222 81.4701 16.3665 80.9961 16.6719C80.5267 16.9772 79.9935 17.1299 79.3965 17.1299C78.9727 17.1299 78.6149 17.0592 78.3232 16.918C78.0361 16.7721 77.8037 16.5967 77.626 16.3916C77.4528 16.182 77.3184 15.9792 77.2227 15.7832H77.1543V19.8574H75.2266ZM78.8359 15.5781C79.2142 15.5781 79.5309 15.4756 79.7861 15.2705C80.0413 15.0609 80.2327 14.776 80.3604 14.416C80.4925 14.056 80.5586 13.6458 80.5586 13.1855C80.5586 12.7253 80.4925 12.3174 80.3604 11.9619C80.2327 11.6064 80.0413 11.3285 79.7861 11.1279C79.5309 10.9229 79.2142 10.8203 78.8359 10.8203C78.4668 10.8203 78.1523 10.9183 77.8926 11.1143C77.6374 11.3102 77.4437 11.5859 77.3115 11.9414C77.1794 12.2923 77.1133 12.707 77.1133 13.1855C77.1133 13.6595 77.1794 14.0765 77.3115 14.4365C77.4482 14.7965 77.6442 15.0768 77.8994 15.2773C78.1592 15.4779 78.4714 15.5781 78.8359 15.5781Z" fill="#292A2E"/>
<path d="M70.4209 17.1504C69.8193 17.1504 69.2861 17.0661 68.8213 16.8975C68.3564 16.7243 67.9759 16.4736 67.6797 16.1455C67.388 15.8128 67.1966 15.4141 67.1055 14.9492L68.9033 14.6279C69.0036 14.9925 69.1836 15.266 69.4434 15.4482C69.7031 15.626 70.0449 15.7148 70.4688 15.7148C70.8789 15.7148 71.2048 15.6351 71.4463 15.4756C71.6878 15.3115 71.8086 15.1087 71.8086 14.8672C71.8086 14.6576 71.7266 14.4867 71.5625 14.3545C71.3984 14.2178 71.1455 14.113 70.8037 14.04L69.4912 13.7666C68.762 13.6117 68.2174 13.3564 67.8574 13.001C67.4974 12.641 67.3174 12.1761 67.3174 11.6064C67.3174 11.1279 67.4495 10.7132 67.7139 10.3623C67.9782 10.0114 68.3451 9.74023 68.8145 9.54883C69.2884 9.35742 69.8376 9.26172 70.4619 9.26172C71.0544 9.26172 71.5648 9.34603 71.9932 9.51465C72.4261 9.67871 72.7747 9.91113 73.0391 10.2119C73.3079 10.5081 73.4902 10.8613 73.5859 11.2715L71.877 11.5859C71.7949 11.3216 71.64 11.1029 71.4121 10.9297C71.1888 10.752 70.8812 10.6631 70.4893 10.6631C70.1338 10.6631 69.8353 10.7406 69.5938 10.8955C69.3568 11.0459 69.2383 11.2441 69.2383 11.4902C69.2383 11.6999 69.3158 11.873 69.4707 12.0098C69.6302 12.1465 69.8968 12.2559 70.2705 12.3379L71.6104 12.6113C72.3395 12.7617 72.8818 13.0078 73.2373 13.3496C73.5973 13.6914 73.7773 14.1335 73.7773 14.6758C73.7773 15.168 73.6338 15.6009 73.3467 15.9746C73.0596 16.3438 72.6631 16.6331 72.1572 16.8428C71.6559 17.0479 71.0771 17.1504 70.4209 17.1504Z" fill="#292A2E"/>
<path d="M61.4248 17.0957C60.8962 17.0957 60.4336 16.9818 60.0371 16.7539C59.6452 16.526 59.3398 16.1979 59.1211 15.7695C58.9023 15.3366 58.793 14.8193 58.793 14.2178V9.35742H60.7207V13.8965C60.7207 14.3932 60.8483 14.7806 61.1035 15.0586C61.3587 15.3366 61.7096 15.4756 62.1562 15.4756C62.4616 15.4756 62.7305 15.4118 62.9629 15.2842C63.1953 15.152 63.3776 14.9606 63.5098 14.71C63.6419 14.4593 63.708 14.1585 63.708 13.8076V9.35742H65.6357V17H63.8105L63.79 15.0996H63.9131C63.708 15.7559 63.3981 16.2526 62.9834 16.5898C62.5687 16.9271 62.0492 17.0957 61.4248 17.0957Z" fill="#292A2E"/>
<path d="M57.4258 9.35742V10.8408H52.9824V9.35742H57.4258ZM54.0488 7.53906H55.9697V14.8057C55.9697 15.0609 56.0267 15.25 56.1406 15.373C56.2546 15.4961 56.4414 15.5576 56.7012 15.5576C56.7786 15.5576 56.8857 15.5485 57.0225 15.5303C57.1592 15.5075 57.2663 15.487 57.3438 15.4688L57.6309 16.9316C57.4212 16.9954 57.2093 17.0387 56.9951 17.0615C56.7809 17.0889 56.5736 17.1025 56.373 17.1025C55.6211 17.1025 55.0446 16.9202 54.6436 16.5557C54.2471 16.1865 54.0488 15.6579 54.0488 14.9697V7.53906Z" fill="#292A2E"/>
<path d="M47.7598 17.1299C47.1719 17.1299 46.641 16.9772 46.167 16.6719C45.6976 16.3665 45.3239 15.9222 45.0459 15.3389C44.7725 14.751 44.6357 14.0355 44.6357 13.1924C44.6357 12.3311 44.777 11.6087 45.0596 11.0254C45.3421 10.4421 45.7204 10.0023 46.1943 9.70605C46.6683 9.40983 47.1947 9.26172 47.7734 9.26172C48.2109 9.26172 48.5732 9.33691 48.8604 9.4873C49.1475 9.63314 49.3776 9.81315 49.5508 10.0273C49.724 10.237 49.8561 10.4398 49.9473 10.6357H50.0225V9.35742H51.9297V17H50.0293V15.7832H49.9473C49.8561 15.9792 49.7194 16.182 49.5371 16.3916C49.3594 16.6012 49.127 16.7767 48.8398 16.918C48.5527 17.0592 48.1927 17.1299 47.7598 17.1299ZM48.334 15.5781C48.7031 15.5781 49.0153 15.4779 49.2705 15.2773C49.5257 15.0768 49.7194 14.7965 49.8516 14.4365C49.9883 14.0765 50.0566 13.6595 50.0566 13.1855C50.0566 12.707 49.9906 12.2923 49.8584 11.9414C49.7262 11.5859 49.5326 11.3102 49.2773 11.1143C49.0221 10.9183 48.7077 10.8203 48.334 10.8203C47.9557 10.8203 47.6367 10.9206 47.377 11.1211C47.1217 11.3216 46.9281 11.5996 46.7959 11.9551C46.6683 12.3105 46.6045 12.7207 46.6045 13.1855C46.6045 13.6458 46.6706 14.056 46.8027 14.416C46.9349 14.776 47.1286 15.0609 47.3838 15.2705C47.6436 15.4756 47.9603 15.5781 48.334 15.5781Z" fill="#292A2E"/>
<path d="M43.7266 9.35742V10.8408H39.2832V9.35742H43.7266ZM40.3496 7.53906H42.2705V14.8057C42.2705 15.0609 42.3275 15.25 42.4414 15.373C42.5553 15.4961 42.7422 15.5576 43.002 15.5576C43.0794 15.5576 43.1865 15.5485 43.3232 15.5303C43.46 15.5075 43.5671 15.487 43.6445 15.4688L43.9316 16.9316C43.722 16.9954 43.5101 17.0387 43.2959 17.0615C43.0817 17.0889 42.8743 17.1025 42.6738 17.1025C41.9219 17.1025 41.3454 16.9202 40.9443 16.5557C40.5479 16.1865 40.3496 15.6579 40.3496 14.9697V7.53906Z" fill="#292A2E"/>
<path d="M34.6279 17.1504C33.8258 17.1504 33.1286 17.0273 32.5361 16.7812C31.9437 16.5306 31.4811 16.166 31.1484 15.6875C30.8158 15.2044 30.638 14.6143 30.6152 13.917H32.5361C32.5635 14.2679 32.6683 14.5596 32.8506 14.792C33.0374 15.0244 33.2835 15.1999 33.5889 15.3184C33.8942 15.4323 34.236 15.4893 34.6143 15.4893C34.9971 15.4893 35.3343 15.4323 35.626 15.3184C35.9176 15.1999 36.1455 15.0381 36.3096 14.833C36.4736 14.6234 36.5557 14.3818 36.5557 14.1084C36.5557 13.8577 36.4827 13.6504 36.3369 13.4863C36.1911 13.3223 35.9837 13.1833 35.7148 13.0693C35.4505 12.9508 35.1315 12.8483 34.7578 12.7617L33.623 12.4678C32.7663 12.2536 32.0964 11.9232 31.6133 11.4766C31.1302 11.0299 30.8887 10.4421 30.8887 9.71289C30.8887 9.10677 31.0527 8.57585 31.3809 8.12012C31.709 7.66439 32.1579 7.3112 32.7275 7.06055C33.2972 6.80534 33.9443 6.67773 34.6689 6.67773C35.4072 6.67773 36.0521 6.80534 36.6035 7.06055C37.1595 7.31576 37.5924 7.66895 37.9023 8.12012C38.2168 8.56673 38.3786 9.08171 38.3877 9.66504H36.4873C36.4463 9.24121 36.2617 8.91536 35.9336 8.6875C35.61 8.45508 35.1794 8.33887 34.6416 8.33887C34.277 8.33887 33.9626 8.39355 33.6982 8.50293C33.4385 8.60775 33.238 8.75586 33.0967 8.94727C32.96 9.13411 32.8916 9.34831 32.8916 9.58984C32.8916 9.85872 32.9714 10.0798 33.1309 10.2529C33.2949 10.4261 33.5046 10.5651 33.7598 10.6699C34.0195 10.7747 34.2884 10.8613 34.5664 10.9297L35.5029 11.1621C35.9085 11.2578 36.2913 11.3854 36.6514 11.5449C37.016 11.7044 37.3395 11.9027 37.6221 12.1396C37.9046 12.3721 38.1257 12.6523 38.2852 12.9805C38.4447 13.304 38.5244 13.6846 38.5244 14.1221C38.5244 14.7282 38.3695 15.2591 38.0596 15.7148C37.7542 16.1706 37.3099 16.5238 36.7266 16.7744C36.1478 17.0251 35.4482 17.1504 34.6279 17.1504Z" fill="#292A2E"/>
</svg>
