<svg width="69" height="24" viewBox="0 0 69 24" fill="none" xmlns="http://www.w3.org/2000/svg">
<path d="M0 6C0 2.68629 2.68629 0 6 0H18C21.3137 0 24 2.68629 24 6V18C24 21.3137 21.3137 24 18 24H6C2.68629 24 0 21.3137 0 18V6Z" fill="#1558BC"/>
<path d="M9.39043 18.234C9.91367 18.234 10.3383 17.8102 10.3383 17.2862V5.3789C10.3383 4.85566 9.91441 4.43103 9.39043 4.43103H5.3789C4.85566 4.43103 4.43103 4.85492 4.43103 5.3789V17.2862C4.43103 17.8094 4.85492 18.234 5.3789 18.234H9.39043Z" fill="white"/>
<path d="M18.6211 12.7676C19.1444 12.7676 19.569 12.3437 19.569 11.8197V5.3789C19.569 4.85566 19.1451 4.43103 18.6211 4.43103H14.6096C14.0864 4.43103 13.6617 4.85492 13.6617 5.3789V11.8197C13.6617 12.343 14.0856 12.7676 14.6096 12.7676H18.6211Z" fill="white"/>
<path d="M64.6309 15.1504C63.8743 15.1504 63.2181 14.9863 62.6621 14.6582C62.1107 14.3301 61.6846 13.8698 61.3838 13.2773C61.083 12.6849 60.9326 11.9967 60.9326 11.2129C60.9326 10.4245 61.083 9.73405 61.3838 9.1416C61.6846 8.5446 62.1107 8.08203 62.6621 7.75391C63.2181 7.42578 63.8743 7.26172 64.6309 7.26172C65.3874 7.26172 66.0413 7.42578 66.5928 7.75391C67.1488 8.08203 67.5771 8.5446 67.8779 9.1416C68.1787 9.73405 68.3291 10.4245 68.3291 11.2129C68.3291 11.9967 68.1787 12.6849 67.8779 13.2773C67.5771 13.8698 67.1488 14.3301 66.5928 14.6582C66.0413 14.9863 65.3874 15.1504 64.6309 15.1504ZM64.6309 13.6191C65.0182 13.6191 65.3418 13.5143 65.6016 13.3047C65.8613 13.0905 66.055 12.8011 66.1826 12.4365C66.3102 12.0719 66.374 11.6618 66.374 11.2061C66.374 10.7503 66.3102 10.3402 66.1826 9.97559C66.055 9.611 65.8613 9.32389 65.6016 9.11426C65.3418 8.90007 65.0182 8.79297 64.6309 8.79297C64.2435 8.79297 63.9199 8.90007 63.6602 9.11426C63.4049 9.32389 63.2113 9.611 63.0791 9.97559C62.9515 10.3356 62.8877 10.7458 62.8877 11.2061C62.8877 11.6618 62.9515 12.0719 63.0791 12.4365C63.2113 12.8011 63.4049 13.0905 63.6602 13.3047C63.9199 13.5143 64.2435 13.6191 64.6309 13.6191Z" fill="#292A2E"/>
<path d="M59.4629 15.0479C58.7155 15.0479 58.1641 14.8815 57.8086 14.5488C57.4531 14.2161 57.2754 13.7194 57.2754 13.0586V4.81445H59.2031V12.7783C59.2031 13.0381 59.2441 13.2272 59.3262 13.3457C59.4128 13.4596 59.5632 13.5166 59.7773 13.5166C59.8913 13.5166 59.9779 13.512 60.0371 13.5029C60.1009 13.4938 60.1556 13.4824 60.2012 13.4688L60.5156 14.8906C60.4062 14.9271 60.2581 14.9635 60.0713 15C59.889 15.0319 59.6862 15.0479 59.4629 15.0479Z" fill="#292A2E"/>
<path d="M55.2109 15.0479C54.4635 15.0479 53.9121 14.8815 53.5566 14.5488C53.2012 14.2161 53.0234 13.7194 53.0234 13.0586V4.81445H54.9512V12.7783C54.9512 13.0381 54.9922 13.2272 55.0742 13.3457C55.1608 13.4596 55.3112 13.5166 55.5254 13.5166C55.6393 13.5166 55.7259 13.512 55.7852 13.5029C55.849 13.4938 55.9036 13.4824 55.9492 13.4688L56.2637 14.8906C56.1543 14.9271 56.0062 14.9635 55.8193 15C55.637 15.0319 55.4342 15.0479 55.2109 15.0479Z" fill="#292A2E"/>
<path d="M48.1357 15.1504C47.361 15.1504 46.6934 14.9909 46.1328 14.6719C45.5723 14.3483 45.1416 13.8926 44.8408 13.3047C44.54 12.7168 44.3896 12.0218 44.3896 11.2197C44.3896 10.4359 44.5378 9.74772 44.834 9.15527C45.1348 8.55827 45.5563 8.09342 46.0986 7.76074C46.6455 7.42806 47.2881 7.26172 48.0264 7.26172C48.5094 7.26172 48.9629 7.33919 49.3867 7.49414C49.8151 7.64909 50.1934 7.88607 50.5215 8.20508C50.8496 8.51953 51.1048 8.92057 51.2871 9.4082C51.474 9.89128 51.5674 10.4655 51.5674 11.1309V11.6982H45.2305V10.4473H50.624L49.7217 10.7959C49.7217 10.3812 49.6579 10.0212 49.5303 9.71582C49.4027 9.40592 49.2135 9.16667 48.9629 8.99805C48.7168 8.82487 48.4069 8.73828 48.0332 8.73828C47.6641 8.73828 47.3496 8.82487 47.0898 8.99805C46.8301 9.17122 46.6318 9.40592 46.4951 9.70215C46.3584 9.99382 46.29 10.3219 46.29 10.6865V11.5615C46.29 12.0218 46.3675 12.4115 46.5225 12.7305C46.682 13.0449 46.9007 13.2819 47.1787 13.4414C47.4613 13.6009 47.7894 13.6807 48.1631 13.6807C48.4092 13.6807 48.6348 13.6442 48.8398 13.5713C49.0449 13.4984 49.2204 13.3936 49.3662 13.2568C49.512 13.1156 49.6237 12.9424 49.7012 12.7373L51.4512 13.0791C51.3281 13.4938 51.1162 13.8584 50.8154 14.1729C50.5146 14.4827 50.1364 14.7243 49.6807 14.8975C49.2295 15.0661 48.7145 15.1504 48.1357 15.1504Z" fill="#292A2E"/>
<path d="M39.4062 15V7.35742H41.2725V8.66309H41.3545C41.4912 8.20736 41.7282 7.85872 42.0654 7.61719C42.4027 7.37565 42.7878 7.25488 43.2207 7.25488C43.321 7.25488 43.4326 7.26172 43.5557 7.27539C43.6787 7.28451 43.7858 7.29818 43.877 7.31641V9.05273C43.7949 9.02539 43.6673 9.0026 43.4941 8.98438C43.3255 8.96615 43.1637 8.95703 43.0088 8.95703C42.6898 8.95703 42.4027 9.02539 42.1475 9.16211C41.8923 9.29883 41.6917 9.49023 41.5459 9.73633C41.4046 9.97786 41.334 10.2604 41.334 10.584V15H39.4062Z" fill="#292A2E"/>
<path d="M30.54 6.45508V4.81445H38.7568V6.45508H35.6328V15H33.6709V6.45508H30.54Z" fill="#292A2E"/>
</svg>
