<svg xmlns="http://www.w3.org/2000/svg" width="32" height="32" fill="none"><defs><filter id="a"><feMorphology in="SourceAlpha" operator="dilate" radius="1" result="expanded"/><feFlood flood-color="#fff" result="color"/><feComposite in="color" in2="expanded" operator="in"/><feComposite in="SourceGraphic"/></filter></defs><g filter="url(#a)"><path fill="#DD2E44" d="M19 10.5c-1.5 0-1.5.5-3 .5s-1.5-.5-3-.5c-2 0-4.5 1-4.5 4.5 0 5.5 3 10 5 10 1.5 0 1.5-.5 2.5-.5s1 .5 2.5.5c2 0 5-4.5 5-10 0-3.5-2.5-4.5-4.5-4.5"/><path fill="#77B255" d="M16.5 10.5s1.5-2 4-2c2 0 3 1 3 1S21.5 11 20 11s-3.5-.5-3.5-.5"/><path fill="#662113" d="M16 12a.5.5 0 0 1-.5-.5c0-1.72.6-3.307 1.646-4.353a.5.5 0 1 1 .707.707c-.86.86-1.353 2.189-1.353 3.646a.5.5 0 0 1-.5.5"/></g></svg>