<svg xmlns="http://www.w3.org/2000/svg" width="32" height="32" fill="none"><defs><filter id="a"><feMorphology in="SourceAlpha" operator="dilate" radius="1" result="expanded"/><feFlood flood-color="#fff" result="color"/><feComposite in="color" in2="expanded" operator="in"/><feComposite in="SourceGraphic"/></filter></defs><g filter="url(#a)"><path fill="#3E721D" d="M23.556 10.625c1.064 2.685-.64 9.13-4.667 11.778-4.026 2.647-9.064 1.588-10.265-2.864-.742-2.75 1.24-4.765 5.267-7.412s8.616-4.15 9.665-1.502"/><path fill="#3E721D" d="M17.158 19.57c-2.899 2.02-6.794 2.288-8.208.258s.186-5.59 3.086-7.61c2.898-2.02 9.756-4.354 11.17-2.325 1.415 2.031-3.149 7.656-6.048 9.676"/><path fill="#A6D388" d="M16.807 19.813c-2.559 1.784-5.992 1.377-7.24-.415s.21-4.964 2.77-6.747c2.557-1.783 9.003-4.118 10.252-2.326 1.247 1.79-2.145 7.189-5.782 9.488"/><path fill="#C6E5B3" d="M16.075 18.634c-2.002 1.396-4.417 1.39-5.393-.012-.978-1.402-.147-3.669 1.855-5.064 2.004-1.396 7.038-3.217 8.016-1.815.977 1.401-2.474 5.495-4.478 6.891"/><path fill="#662113" d="M12.96 13.55c1.547-1.036 3.282-.664 4.355.443.637.656-.39 2.392-1.937 3.428-1.546 1.036-3.453.784-3.662.325-.64-1.403-.3-3.16 1.245-4.195"/><path fill="#7C3225" d="M13.81 13.825c.67-.45 1.517-.364 1.89.191.372.556.13 1.372-.54 1.822-.672.45-1.518.364-1.891-.192s-.13-1.372.54-1.821"/></g></svg>