<svg xmlns="http://www.w3.org/2000/svg" width="32" height="32" fill="none"><defs><filter id="a"><feMorphology in="SourceAlpha" operator="dilate" radius="1" result="expanded"/><feFlood flood-color="#fff" result="color"/><feComposite in="color" in2="expanded" operator="in"/><feComposite in="SourceGraphic"/></filter></defs><g filter="url(#a)"><path fill="#66757F" d="M18.778 17.666c0 3.53-1.667 5.556-2.778 5.556s-2.778-2.027-2.778-5.556 1.244-3.889 2.778-3.889 2.778.36 2.778 3.89"/><path fill="#66757F" d="M16 14.333a2.222 2.222 0 1 0 0-4.444 2.222 2.222 0 0 0 0 4.444"/><path fill="#66757F" d="M13.778 12.112c-1.111-2.778.556-3.89.556-3.89s1.11.556 1.11 2.223-1.666 1.666-1.666 1.666"/><path fill="#546066" d="M14.149 11.503c-.431-1.366-.066-2.165.224-2.545.23.25.516.713.516 1.487 0 .704-.41.963-.74 1.057"/><path fill="#66757F" d="M18.222 12.112c1.111-2.778-.555-3.89-.555-3.89s-1.112.556-1.112 2.223 1.667 1.666 1.667 1.666m-3.324 1.666c-.9.643-5.556 1.111-5-2.778.079-.55-.556-.555-1.111 0-1.667 1.667-3.334 4.353-2.223 11.112 1.667-2.778 3.334-2.223 3.89.555 1.666-2.222 3.333-1.111 4.444 0 1.666-1.667 0-8.889 0-8.889m2.187 0c.9.643 5.555 1.111 5-2.778-.079-.55.555-.555 1.111 0 1.667 1.667 3.333 4.353 2.222 11.112-1.666-2.778-3.333-2.223-3.889.555-1.666-2.222-3.333-1.111-4.444 0-1.667-1.667 0-8.889 0-8.889"/><path fill="#292F33" d="M14.89 12.667a.556.556 0 1 0-.001-1.111.556.556 0 0 0 0 1.11M17.111 12.667a.556.556 0 1 0 0-1.112.556.556 0 0 0 0 1.112"/><path fill="#546066" d="M17.851 11.503c.43-1.366.066-2.165-.224-2.545-.23.25-.516.713-.516 1.487 0 .704.41.963.74 1.057"/><path fill="#99AAB5" d="M10.443 20.95c.495-1.495.318-3.327-.554-5.506-.826-2.066-.73-3.516-.627-4.124-.027.023-.053.044-.082.072-1.504 1.504-2.915 3.792-2.258 9.294.71-.766 1.34-.957 1.794-.957.703 0 1.296.435 1.727 1.22"/><path fill="#99AAB5" d="m9.796 13.36-.034-.047c.127 1.576.905 2.132 1.238 3.798.327 1.633.264 3.066.049 4.202.466-.317.959-.485 1.475-.485.703 0 1.416.298 2.164.903-.91-5.176-3.688-6.287-4.892-8.37m11.762 7.59c-.496-1.495-.318-3.327.553-5.506.826-2.066.73-3.516.627-4.124.027.023.054.044.082.072 1.504 1.504 2.915 3.792 2.258 9.294-.709-.766-1.34-.957-1.793-.957-.703 0-1.297.435-1.727 1.22"/><path fill="#99AAB5" d="m22.205 13.362.034-.049c-.128 1.576-.905 2.132-1.239 3.798-.326 1.634-.265 3.067-.049 4.203-.466-.317-.959-.486-1.475-.486-.703 0-1.416.299-2.164.904.91-5.176 3.688-6.287 4.893-8.37m-5.823-.08a.54.54 0 0 1-.764 0l-.316-.318c-.21-.21-.139-.382.158-.382h1.08c.298 0 .37.172.16.382z"/></g></svg>