<svg xmlns="http://www.w3.org/2000/svg" width="32" height="32" fill="none"><defs><filter id="a"><feMorphology in="SourceAlpha" operator="dilate" radius="1" result="expanded"/><feFlood flood-color="#fff" result="color"/><feComposite in="color" in2="expanded" operator="in"/><feComposite in="SourceGraphic"/></filter></defs><g filter="url(#a)"><path fill="#C1694F" d="M11.111 13.333a2.667 2.667 0 1 0 0-5.333 2.667 2.667 0 0 0 0 5.333M20.889 13.333a2.667 2.667 0 1 0 0-5.333 2.667 2.667 0 0 0 0 5.333"/><path fill="#E6AAAA" d="M11.111 12.444a1.778 1.778 0 1 0 0-3.555 1.778 1.778 0 0 0 0 3.555M20.89 12.444a1.778 1.778 0 1 0 0-3.555 1.778 1.778 0 0 0 0 3.555"/><path fill="#C1694F" d="M23.555 17.778S22.975 8 16 8s-7.556 9.778-7.556 9.778c0 2.61 2 4.588 5.43 5.16a2.66 2.66 0 0 0 4.252 0c3.43-.572 5.43-2.55 5.43-5.16"/><path fill="#DD2E44" d="M16 23.111a1.778 1.778 0 1 0 0-3.555 1.778 1.778 0 0 0 0 3.555"/><path fill="#D99E82" d="M16 16.889s-4.889 1.638-4.889 3.11a2.667 2.667 0 0 0 4.89 1.474A2.667 2.667 0 0 0 20.89 20c0-1.473-4.89-3.111-4.89-3.111"/><path fill="#272B2B" d="M12.889 15.556s0-.889.889-.889c.888 0 .888.889.888.889v.889s0 .889-.888.889c-.89 0-.89-.89-.89-.89zm4.444 0s0-.889.889-.889.889.889.889.889v.889s0 .889-.889.889-.889-.89-.889-.89zm-3.5 3.555c-.722.445 1.445 1.778 2.167 1.778s2.888-1.333 2.166-1.778c-.722-.444-3.61-.444-4.333 0"/></g></svg>