<svg xmlns="http://www.w3.org/2000/svg" width="32" height="32" fill="none"><defs><filter id="a"><feMorphology in="SourceAlpha" operator="dilate" radius="1" result="expanded"/><feFlood flood-color="#fff" result="color"/><feComposite in="color" in2="expanded" operator="in"/><feComposite in="SourceGraphic"/></filter></defs><g filter="url(#a)"><path fill="#C1694F" d="M7.256 11.417c-.132.96 0 1.786.629 1.687.295-.047.595-.827.496-1.323-.1-.496-1.125-.364-1.125-.364"/><path fill="#FFE9B7" d="M7.422 11.682c-.132.96.033 1.39.33 1.356s.463-.728.364-1.223-.694-.133-.694-.133"/><path fill="#C1694F" d="M6.761 9.802c.518-.374 1.386-1.064 2.401-1.336 1.015-.273 2.302-.322 2.723-.421s1.435-.248 1.584.173c.148.421 2.08 1.164 3.07 1.015.99-.148 4.088-.576 6.039.57 2.277 1.336 3.119 4.034 2.648 5.965-.47 1.93-1.609 3.366-3.07 3.54s-3.193.099-4.628-1.386-2.327-3.02-3.713-3.169c-1.386-.148-1.683-1.188-2.104-1.683-.42-.495-1.782-.198-2.896-.446-.851-.189-1.534-1.015-1.857-1.633-.322-.62-.642-.867-.197-1.189"/><path fill="#93493B" d="M12.747 12.297c-1.376 0-2.66-1.035-2.66-1.035s-2.241.525-3.128-.272c.322.619 1.005 1.444 1.857 1.634 1.114.248 2.475-.05 2.896.445.14.166.27.394.43.628.351-.46.75-1.157.605-1.4m-.008-3.2s.403.154.688-.153c.195-.208.211-.405.178-.555a.45.45 0 0 1-.136-.171l-.003-.004c-.015.195-.12.639-.727.884m2.85 4.375c-.249.426-.772 1.12-1.057 1.492.734.36 1.362 1.113 2.098 1.962.777-.389 2.71-1.322 3.803-1.558-1.723-1.714-3.718-.869-4.844-1.896m5.873 2.497c-.243.105-.334 2.02-.369 3.402.365.002.722-.024 1.064-.065 1.46-.173 2.6-1.609 3.07-3.54.247-1.015.128-2.243-.37-3.374.268 2.636-2.364 3.716-3.395 3.577"/><path fill="#292F33" d="M6.274 10.306c-.09-.553.61-.735.76-.438.147.297.486 1.403.197 1.395-.354-.01-.836-.223-.957-.957"/><path fill="#662113" d="M19.78 15.148c-.869-.195-2.87-.297-3.341.817-.08.19-.1.413-.08.648.36.415.74.863 1.17 1.307 1.333 1.38 2.422 1.435 3.81 1.312.293-.524.785-1.251.67-1.881-.174-.94-.793-1.88-2.229-2.203"/><path fill="#C1694F" d="M19.855 15.248c-1.485-.173-2.723.198-3.267.99s.223 2.178 1.683 2.673c0 0-1.93.1-2.178.42-.248.323-.248.917.099.941.346.025 4.01-.321 4.975-.445s1.188-1.56 1.015-2.5-.897-1.912-2.327-2.079"/><path fill="#662113" d="M14.005 12.29c-.743-.173-1.493-.09-1.617.677-.05.3-.141.675-.182.907.32.487.635.774 1.609.878.334.036.64.154.932.331.242-.352.446-.75.553-1.148.239-.888-.552-1.472-1.295-1.645"/><path fill="#C1694F" d="M12.207 12.822c-.12.742-.118 1.258-.471 1.634-.371.396-1.04.643-1.584.668s-.99.52-.99 1.065.42.816.693.866c.426.077.867.099.471-.297s-.05-.798.396-.817c.57-.025 1.658-.025 2.252-.272s1.795-.984 2.327-1.733c1.337-1.881-.47-1.733-1.213-1.906s-1.758.025-1.881.792"/><path fill="#662113" d="M12.058 8.474c.254-.38 1.46-.347.966.099-.495.445-1.411.57-.966-.099"/><path fill="#292F33" d="M9.889 10.056a.556.556 0 1 0 0-1.11.556.556 0 0 0 0 1.11"/><path fill="#662113" d="M23.395 16.832c.684-.129 2.202 1.237 1.955 2.995-.248 1.757-2.03 3.267-3.96 3.91-1.932.645-7.006.892-8.985.174-1.98-.718-1.584-2.475 0-3.168 1.583-.694 3.811-.94 6.336-.891 1.981.038 3.911-.941 3.812-1.535s.05-1.337.841-1.485"/><path fill="#C1694F" d="M23.692 17.945c.57 1.04.234 2.731-2.13 3.54-1.88.643-3.773.458-5.222.495-1.089.027-2.054.124-2.574.223 0 0 .922-.377 2.425-.471 1.264-.079 3.777-.076 4.703-.371 3.49-1.114 2.798-3.416 2.798-3.416"/></g></svg>