<svg xmlns="http://www.w3.org/2000/svg" width="32" height="32" fill="none"><defs><filter id="a"><feMorphology in="SourceAlpha" operator="dilate" radius="1" result="expanded"/><feFlood flood-color="#fff" result="color"/><feComposite in="color" in2="expanded" operator="in"/><feComposite in="SourceGraphic"/></filter></defs><g filter="url(#a)"><path fill="#31373D" d="M20.908 18.732c.15-.574.233-1.159.233-1.732 0-2.08-1.061-3.39-2.63-4.017a4.2 4.2 0 0 0 .333-1.6c0-.79-.247-1.25-.657-1.516.545-.241 1.258-.75 1.513-1.006.39-.39.47-.944.177-1.237s-.846-.214-1.237.177c-.306.305-.974 1.265-1.112 1.81-.442-.098-.965-.11-1.528-.11-.562 0-1.086.012-1.527.109-.138-.545-.806-1.504-1.112-1.81-.39-.39-.944-.47-1.237-.177-.293.294-.214.847.177 1.238.255.256.968.765 1.513 1.006-.41.266-.658.725-.658 1.516 0 .546.124 1.096.333 1.6-1.568.628-2.63 1.937-2.63 4.017 0 .573.084 1.159.233 1.732v.012l.003-.002c.605 2.31 2.322 4.424 4.406 4.72v.038c0 .829.223 1.5.5 1.5.276 0 .5-.671.5-1.5l-.002-.037c2.084-.297 3.802-2.41 4.406-4.72l.003.001z"/><path fill="#FFCC4D" d="M14.312 16.5h3.376c-.73-.712-1.307-1.44-1.553-2h-.27c-.245.56-.822 1.288-1.553 2m-2.689 2q-.27.14-.53.244c.16.61.399 1.204.7 1.756h8.415a7.8 7.8 0 0 0 .7-1.756q-.26-.104-.531-.244zm1.797 4c.759.617 1.639 1 2.58 1s1.822-.383 2.581-1z"/><path fill="#CCD6DD" d="M16 13.752c0 1.323-3.929 4.292-6 4.292s-3-1.221-3-2.545.929-2.248 3-2.248c2.072.001 6-.821 6 .501m0 0c0 1.323 3.928 4.292 6 4.292s3-1.221 3-2.545-.928-2.248-3-2.248-6-.821-6 .501"/><path fill="#99AAB5" d="M8 16.5a.5.5 0 0 1-.001-1c.024 0 2.475-.034 6.798-1.956a.5.5 0 1 1 .406.913c-4.545 2.02-7.097 2.044-7.203 2.044m16 0c-.107 0-2.658-.023-7.203-2.042a.5.5 0 0 1 .406-.914c4.324 1.922 6.774 1.957 6.799 1.957a.501.501 0 0 1-.002 1"/></g></svg>