<svg xmlns="http://www.w3.org/2000/svg" width="32" height="32" fill="none"><defs><filter id="a"><feMorphology in="SourceAlpha" operator="dilate" radius="1" result="expanded"/><feFlood flood-color="#fff" result="color"/><feComposite in="color" in2="expanded" operator="in"/><feComposite in="SourceGraphic"/></filter></defs><g filter="url(#a)"><path fill="#C1694F" d="M24.84 12.983c-.016-.567-.909-1.145-2.173-1.872s-7.201-3.037-10.688-1.783c-1.145.412-.907 1.783-1.22 1.783-.556 0-1.519-.191-2.755-.07-1.254.122-1.62.937-1.62 2.292s.31 4.433 1.039 5.292c.918 1.081 3.25 1.085 3.75-.374.382.068.623.099 1.01.593C13.36 21.29 13.803 25 14.332 25c.536 0 1.405-2.45 1.619-3.89l5.068-.804c.082 1.378.429 4.694 1.091 4.694.564 0 1.8-2.713 2.415-6.8.175-.902.296-2.053.342-3.51q.02.14.02.31v4.444a.555.555 0 1 0 1.112 0V15c0-1.004-.416-1.696-1.16-2.017"/><path fill="#662113" d="M6.59 15.905s-1.07-3.787.046-5.048 4.293 0 4.293 0-.104-1.651.883-1.996c.986-.344 4.898-.94 9.387 1.583-1.888.482-2.392 1.422-2.186 3.532s-.524 6.81-3.013 7.428c-2.49.618-4.432.223-4.826-3.153s.574-4.661-.736-5.615c-3.51-.505-3.848 3.269-3.848 3.269"/><path fill="#292F33" d="M9.889 15.555a.556.556 0 1 0 0-1.11.556.556 0 0 0 0 1.11"/><path fill="#D99E82" d="M8.05 17.34c0 .608.165.994-.443.994s-1.101-.58-1.208-1.207c-.102-.6.34-.544.948-.544s.703.15.703.758"/><path fill="#99AAB5" d="M10.152 12.342c.966-.307 1.551-1.345 1.294-2.262-.12-.434-.708-1.322-1.03-1.22-.321.104.887 1.742-.996 2.297-.649.191.088 1.391.732 1.185"/></g></svg>