<svg xmlns="http://www.w3.org/2000/svg" width="32" height="32" fill="none"><defs><filter id="a"><feMorphology in="SourceAlpha" operator="dilate" radius="1" result="expanded"/><feFlood flood-color="#fff" result="color"/><feComposite in="color" in2="expanded" operator="in"/><feComposite in="SourceGraphic"/></filter></defs><g filter="url(#a)"><path fill="#77B255" d="M16.8 23.165c3.255 3.253 8.628-3.835 7.86-3.835-3.834 0-11.113.58-7.86 3.835"/><path fill="#77B255" d="M14.822 23.687c-3.016 3.016-7.857-3.555-7.146-3.555 1.905 0 4.687-.174 6.395.434 1.479.526 2.152 1.721.75 3.121"/><path fill="#F4ABBA" d="M24.306 14.877c-.026-.45-.087-1.293-.699-2.114-.58-.774-1.902-1.685-2.767-1.292.258-.838-.132-2.063-.595-2.745-.59-.868-2.131-1.922-4.073-1.513-.877.184-2.09 1.018-2.316 1.932-.59-.736-2.11-.838-3.008-.611-1.013.255-1.577.888-1.87 1.23l.002-.002-.015.017-.013.016c-.292.345-.828.997-.924 2.037-.096 1.073.375 2.916 1.513 3.021l.257.026c-1.135.049-1.786 1.827-1.797 2.9-.011 1.05.463 1.753.721 2.121l-.001-.002q.007.008.012.018.007.009.013.018c.262.367.763 1.047 1.758 1.388.979.335 2.776.328 3.283-.618-.136 1.122 1.514 2.039 2.585 2.22 1.057.178 1.855-.18 2.275-.377l-.003.001.02-.01.021-.01c.42-.2 1.2-.59 1.731-1.52.365-.641.635-1.702.476-2.508l.096.064c.913.612 2.315-.56 2.852-1.47.522-.88.466-2.211.466-2.217"/><path fill="#EA596E" d="M20.771 13.771c-.893-.498-2.437-.217-3.396.154a1.9 1.9 0 0 0-.525-.598c.696-.803 1.763-2.296.734-3.181-1.096-.941-1.87 1.077-1.788 2.802-.034-.001-.066-.01-.1-.01-.51 0-.97.201-1.316.523-.7-1.139-1.971-2.122-2.657-1.196-.741 1.001.574 1.576 2.11 2.1a2 2 0 0 0-.076.512c0 .228.046.444.119.647-1.27.366-3.118 1.359-2.105 2.455 1.06 1.148 2.236-.619 2.802-1.526.317.227.703.363 1.123.363.113 0 .22-.014.328-.033-.055 2.401.721 3.535 2.018 2.946 1.147-.521-.069-2.65-.89-3.582q.238-.273.364-.621c3.504 1.272 4.294-1.175 3.255-1.755"/><path fill="#BE1931" d="M15.853 15.73c-.34 0-.334-.282-.416-.626-.266-1.116-1.19-3.154-2.3-4.581a.75.75 0 1 1 1.184-.921c1.22 1.568 1.632 3.702 1.99 5.21.096.403.12.8-.284.896a.7.7 0 0 1-.174.021"/><path fill="#FFCC4D" d="M14.952 9.664c.249.342.04.919-.468 1.289l-.238.173c-.508.37-1.121.393-1.37.05l-1.39-1.908c-.25-.342-.04-.919.468-1.288l.237-.174c.508-.369 1.121-.392 1.37-.05z"/></g></svg>