<svg xmlns="http://www.w3.org/2000/svg" width="32" height="32" fill="none"><defs><filter id="a"><feMorphology in="SourceAlpha" operator="dilate" radius="1" result="expanded"/><feFlood flood-color="#fff" result="color"/><feComposite in="color" in2="expanded" operator="in"/><feComposite in="SourceGraphic"/></filter></defs><g filter="url(#a)"><path fill="#D99E82" d="M24.333 15.444c.257.102.502 1.667-.555 1.667-3.333 0-6.111 6.11-11.111 6.11s-6.111-6.943-6.111-8.332 2.677-5.556 6.666-5.556 8.334 5 11.111 6.111"/><path fill="#D99E82" d="M7.667 16.555c0 .307-.373.555-.834.555S6 16.862 6 16.556s0-1.111.833-.556c.383.256.834.249.834.556"/><path fill="#C1694F" d="M24.333 15.444c.257.102.487.382-.555.556-3.333.555-5.58-.498-10.556 0-5.555.555-6.666.555-6.666-1.111 0-1.39 2.677-5.556 6.666-5.556s8.334 5 11.111 6.111"/><path fill="#D99E82" d="M22.667 15.723c0 1.38 1.857 2.5 2.777 2.5s0-1.12 0-2.5.92-2.5 0-2.5-2.777 1.12-2.777 2.5"/><path fill="#292F33" d="M9.889 13.778a.556.556 0 1 0 0-1.11.556.556 0 0 0 0 1.11"/><path fill="#D99E82" d="M16.645 19.889s1.577 2.222 2.688 2.222 0-2.778 0-2.778h-1.577c-1.667 0-1.111.556-1.111.556"/><path fill="#C1694F" d="M17.862 10.958s1.588-1.565 2.582-1.069c2.264 1.132-1.11 2.223-1.11 2.223l-.886-.06c-1.663-.111-.587-1.094-.587-1.094M14.889 21a1.111 1.111 0 1 0 0-2.223 1.111 1.111 0 0 0 0 2.223M17.111 18.222a.556.556 0 1 0 0-1.11.556.556 0 0 0 0 1.11M19.611 18.222a.833.833 0 1 0 0-1.666.833.833 0 0 0 0 1.666"/><path fill="#662113" d="M15.167 14.89a.833.833 0 1 0 0-1.667.833.833 0 0 0 0 1.666M19.056 15.444a.833.833 0 1 0 0-1.667.833.833 0 0 0 0 1.667M17.111 12.667a.556.556 0 1 0 0-1.112.556.556 0 0 0 0 1.112"/><path fill="#C1694F" d="M7.667 15.444c0 .307.555 1.111-.834.556-.427-.171-.833-.25-.833-.556s.373-.555.833-.555.834.249.834.555"/></g></svg>