<svg xmlns="http://www.w3.org/2000/svg" width="32" height="32" fill="none"><defs><filter id="a"><feMorphology in="SourceAlpha" operator="dilate" radius="1" result="expanded"/><feFlood flood-color="#fff" result="color"/><feComposite in="color" in2="expanded" operator="in"/><feComposite in="SourceGraphic"/></filter></defs><g filter="url(#a)"><path fill="#5C913B" d="M10.874 7.076s3.187.335 4.647 2.21c1.744 2.24.484 4.332.484 4.332s-2.625-.232-3.825-1.718c-1.743-2.16-1.306-4.824-1.306-4.824"/><path fill="#77B255" d="M18.39 7.076s.496 2.512-.548 4.065c-1.248 1.855-3.088 1.382-3.088 1.382s-.443-2.06.376-3.323c1.19-1.835 3.26-2.124 3.26-2.124"/><path fill="#5864B7" d="M19.388 16.088c2.078 0 3.763-1.468 3.763-3.28 0-1.81-1.685-3.279-3.763-3.279-2.079 0-3.764 1.469-3.764 3.28s1.685 3.28 3.764 3.28"/><path fill="#334372" d="M16.995 15.78c0-.462-.067-.892-.185-1.29a6.9 6.9 0 0 1 2.167-.35c1.232 0 2.37.3 3.305.85-.674.873-1.826 1.337-3.137 1.337-.803 0-1.542-.18-2.152-.517z"/><path fill="#334372" d="M18.313 15.542q-.002.22-.022.43c-1.543-.345-2.667-1.438-2.667-3.163 0-.423.07-.807.196-1.153 1.486.678 2.493 2.035 2.493 3.886"/><path fill="#5864B7" d="M12.398 19.914c2.672 0 4.839-1.958 4.839-4.372 0-2.415-2.166-4.372-4.839-4.372-2.672 0-4.838 1.957-4.838 4.372s2.166 4.372 4.838 4.372"/><path fill="#334372" d="M12.398 19.64c0-2.872 2.04-4.741 4.727-5.119q.11.48.112 1.02c0 2.711-2.159 4.365-4.824 4.37-.005-.09-.015-.178-.015-.271"/><path fill="#AA8DD8" d="M17.175 18.921c.38-.657.16-1.494-.49-1.87a1.367 1.367 0 0 0-1.866.51c-.38.657-.16 1.494.491 1.87s1.486.148 1.865-.51"/><path fill="#5864B7" d="M18.682 25.38c3.174 0 5.746-2.325 5.746-5.193s-2.572-5.192-5.746-5.192c-3.173 0-5.745 2.325-5.745 5.192s2.572 5.192 5.745 5.192"/><path fill="#334372" d="M15.746 17.276c.382-.669.924-.322 1.568-.744.517-.34.587-.856 1.13-.856.545 0 .874.453 1.18.566.723.266 1.153-.124 1.698.42s-.42 1.034-.502 1.454c-.102.535.566.921.097 1.18-.673.372-.843-.303-1.93-.25-.817.04-1.14.832-1.851.589-.729-.248.258-.953-.178-1.406-.534-.554-1.47-.5-1.212-.953m-5.915-4.348c.242-.564.58-.239 1.051-.632.379-.316.388-.731.818-.781.431-.05.733.28.986.341.597.145 1.023-.043 1.383.18.522.322-.075.713-.101 1.053-.033.433.368.822.02 1.07-.5.356-.812-.095-1.669.045-.644.106-.692.564-1.277.436-.6-.13-.082-.715-.468-1.034-.473-.39-.907-.296-.743-.678m9.913-2.762c.452-.162.445.205.92.266.383.05.627-.167.884.055.258.22.23.568.33.747.232.419.568.563.631.888.093.47-.45.336-.658.502-.266.212-.276.649-.603.58-.47-.098-.377-.515-.913-.932-.403-.314-.691-.096-.93-.5-.243-.414.367-.427.345-.82-.028-.478-.312-.678-.006-.786"/><path fill="#253356" d="M18.806 18.813c1.13 0 2.045-.581 2.045-1.298s-.916-1.3-2.045-1.3-2.045.582-2.045 1.3c0 .717.916 1.298 2.045 1.298M12.161 14.006c.847 0 1.534-.437 1.534-.975s-.687-.974-1.534-.974-1.533.436-1.533.974.686.975 1.533.975M21.714 12.428c.297-.25.218-.833-.176-1.3s-.954-.643-1.252-.393c-.297.25-.218.833.176 1.3.395.467.955.643 1.252.393"/></g></svg>