<svg xmlns="http://www.w3.org/2000/svg" width="32" height="32" fill="none"><defs><filter id="a"><feMorphology in="SourceAlpha" operator="dilate" radius="1" result="expanded"/><feFlood flood-color="#fff" result="color"/><feComposite in="color" in2="expanded" operator="in"/><feComposite in="SourceGraphic"/></filter></defs><g filter="url(#a)"><path fill="#77B255" d="m18.506 19.161-2.773-2.773-2.773-2.773s.227 5.592-5.592 7.047c0 0 .516 1.243 1.682 2.41 1.166 1.165 2.41 1.681 2.41 1.681 1.455-5.82 7.046-5.592 7.046-5.592"/><path fill="#5C913B" d="M13.915 15.297c-.363 1.818-2.546 4.728-2.546 4.728l4.364-4.364c1.455-1.455-1.818-.364-1.818-.364m6.183 3.273s-5.455.363-8.729 2.91c4-4.001 5.82-4.365 5.82-4.365z"/><path fill="#3E721D" d="M22.078 21.096c.333.022.674-.09.929-.344a1.2 1.2 0 0 0 0-1.697c-.043-.043-.09-.077-.137-.112.205-.05.4-.152.561-.313.156-.155.255-.344.307-.542a1.2 1.2 0 0 0 .542-.306 1.2 1.2 0 0 0 0-1.697 1.2 1.2 0 0 0-.62-2.027 1.2 1.2 0 0 0-.229-1.367 1.2 1.2 0 0 0-.561-.313q.072-.05.137-.112a1.196 1.196 0 0 0-1.367-1.925 1.195 1.195 0 0 0-1.26-.964 1.2 1.2 0 0 0-.343-.93 1.2 1.2 0 0 0-1.697 0 1.2 1.2 0 0 0-1.368-.227 1.2 1.2 0 0 0-2.356 0 1.2 1.2 0 0 0-1.367.228c-.16.16-.262.356-.313.561q-.05-.072-.112-.137a1.2 1.2 0 0 0-1.697 0c-.37.37-.444.92-.229 1.367a1.2 1.2 0 0 0-.62 2.027c.16.16.356.262.561.312q-.072.05-.137.112a1.2 1.2 0 0 0 .62 2.027c-.214.446-.141.997.229 1.367s.92.444 1.367.228a1.188 1.188 0 0 0 .891.933q-.072.05-.137.112a1.196 1.196 0 0 0 1.367 1.925 1.195 1.195 0 0 0 1.503.922c.032.042.062.085.1.123.255.255.596.366.93.344-.023.334.088.674.343.93a1.2 1.2 0 0 0 1.697 0c.043-.043.077-.09.112-.138.05.206.152.401.313.562a1.2 1.2 0 0 0 1.697 0c.255-.255.366-.596.344-.93"/><path fill="#5C913B" d="M12.46 10.613a.771.771 0 1 0 0-1.543.771.771 0 0 0 0 1.543M14.643 10.613a.771.771 0 1 0 0-1.543.771.771 0 0 0 0 1.543M16.097 9.16a.771.771 0 1 0 0-1.544.771.771 0 0 0 0 1.543M17.916 10.25a.771.771 0 1 0 0-1.543.771.771 0 0 0 0 1.543"/><path fill="#5C913B" d="M19.37 10.25a.771.771 0 1 0 0-1.543.771.771 0 0 0 0 1.543"/><path fill="#5C913B" d="M19.734 11.34a.772.772 0 1 0 0-1.542.772.772 0 0 0 0 1.543"/><path fill="#5C913B" d="M20.825 11.704a.771.771 0 1 0 0-1.543.771.771 0 0 0 0 1.543"/><path fill="#5C913B" d="M22.28 12.432a.771.771 0 1 0 0-1.543.771.771 0 0 0 0 1.543"/><path fill="#5C913B" d="M21.916 13.523a.771.771 0 1 0 0-1.543.771.771 0 0 0 0 1.543M23.007 15.34a.772.772 0 1 0 0-1.542.772.772 0 0 0 0 1.543M23.37 17.16a.771.771 0 1 0 0-1.543.771.771 0 0 0 0 1.543"/><path fill="#5C913B" d="M20.461 13.523a.772.772 0 1 0 0-1.544.772.772 0 0 0 0 1.544M19.006 12.068a.771.771 0 1 0 0-1.543.771.771 0 0 0 0 1.543M17.188 10.977a.771.771 0 1 0 0-1.543.771.771 0 0 0 0 1.543M15.006 11.704a.771.771 0 1 0 0-1.543.771.771 0 0 0 0 1.543"/><path fill="#5C913B" d="M15.733 10.977a.771.771 0 1 0 0-1.543.771.771 0 0 0 0 1.543M13.551 12.432a.771.771 0 1 0 0-1.543.771.771 0 0 0 0 1.543M17.188 13.16a.771.771 0 1 0 0-1.544.771.771 0 0 0 0 1.543M19.734 15.704a.771.771 0 1 0 0-1.543.771.771 0 0 0 0 1.543M20.461 17.888a.772.772 0 1 0 0-1.543.772.772 0 0 0 0 1.543"/></g></svg>