<svg xmlns="http://www.w3.org/2000/svg" width="32" height="32" fill="none"><defs><filter id="a"><feMorphology in="SourceAlpha" operator="dilate" radius="1" result="expanded"/><feFlood flood-color="#fff" result="color"/><feComposite in="color" in2="expanded" operator="in"/><feComposite in="SourceGraphic"/></filter></defs><g filter="url(#a)"><path fill="#1C6399" d="M16.991 17.108q-.316 0-.64.016c-.215.627-.231 1.358 0 2.52.163.814 1.315 3.115 2.267 3.923.338.287.81.437 1.33.437 1.06 0 2.32-.625 3.045-1.995 1.484-2.804-1.718-4.9-6.002-4.9"/><path fill="#1C6399" d="M23.747 8.074q-.15 0-.328.033c-1.573.297-4.6 2.535-7.064 5.82 0 0-.39 2.552-.39 3.064 0 .166.624.247 1.512.247 1.838 0 4.8-.349 5.649-1.01.938-.73 1.805-4.848 1.725-6.962-.023-.58-.328-1.192-1.104-1.192"/><path fill="#55ACEE" d="m20.5 13.99 3.278-.216s-.522 1.79-1.534 2.302c-1.012.513-3.817.742-3.817.742s1.152-2.107 1.625-2.616a.67.67 0 0 1 .448-.213m.257-.966 3.721-4.03s.001 2.652-.596 4.27c0 0-2.662.187-2.925.193-.347.008-.479-.131-.2-.433m-3 3.794 2.719-4.227a.42.42 0 0 0 .084-.394l-.478-1.599-3.324 3.268-.418 2.983zm3.12-5.329c.085.2.256.247.464.062.209-.186 3.004-3.014 2.967-3.075 0 0-1.4-.59-3.857 1.712 0 0 .341 1.1.426 1.301m-4.413 5.983 2.657 2.585c.1.088.126.234.062.351l-1.175 2.143s-2.07-2.71-1.544-5.079m3.6 3.116 2.745.366s-.523 1.902-1.678 2.4c-1.932.835-2.627-.308-2.627-.308l1.163-2.256a.38.38 0 0 1 .398-.202m-2.941-3.178 2.658 2.452a.3.3 0 0 0 .133.064l3.025.446s-.602-1.498-2.19-2.24c-1.834-.857-3.626-.722-3.626-.722"/><path fill="#292F33" d="M16.991 17.108q-.316 0-.64.016c-.215.627-.231 1.358 0 2.52.163.814 1.315 3.115 2.267 3.923.338.287.81.437 1.33.437 1.06 0 2.32-.625 3.045-1.995 1.484-2.804-1.718-4.9-6.002-4.9m5.21 4.612c-.65 1.23-1.508 1.718-2.253 1.718-.38 0-.843-.155-1.063-.342-.839-.712-1.7-2.265-2.102-3.572-.23-.749-.175-1.99-.175-1.99l.33-.01c2.555 0 4.573 1.018 5.304 2.232.353.586.34 1.247-.04 1.964"/><path fill="#292F33" d="M23.747 8.692c.115 0 .463 0 .486.598.05 1.326-.294 2.997-.691 4.392-.268.94-.785 1.628-1.036 1.823-.277.216-.921.612-1.839.773-1.004.176-2.08.412-3.192.412-.41 0-.71.01-.888-.01.065-.603.242-1.756.355-2.505 1.863-2.442 4.802-5.123 6.592-5.46q.116-.023.213-.023m0-.618q-.15 0-.328.033c-1.573.297-4.6 2.535-7.064 5.82 0 0-.39 2.552-.39 3.064 0 .166.624.247 1.512.247 1.838 0 4.8-.349 5.649-1.01.938-.73 1.805-4.848 1.725-6.962-.023-.58-.328-1.192-1.104-1.192"/><path fill="#1C6399" d="M9.029 22.01c.725 1.369 1.984 1.994 3.044 1.994.52 0 .993-.15 1.33-.437.952-.807 2.105-3.108 2.267-3.923.232-1.162.216-1.893 0-2.52q-.323-.015-.64-.016c-4.284 0-7.486 2.097-6.001 4.901"/><path fill="#1C6399" d="M8.274 8.074c-.776 0-1.081.611-1.103 1.192-.08 2.114.786 6.231 1.725 6.962.848.66 3.81 1.01 5.65 1.01.886 0 1.511-.082 1.511-.248 0-.51-.39-3.063-.39-3.063-2.465-3.285-5.492-5.523-7.065-5.82a2 2 0 0 0-.328-.033"/><path fill="#55ACEE" d="m11.521 13.99-3.277-.216s.521 1.79 1.534 2.302c1.012.513 3.817.742 3.817.742s-1.152-2.107-1.625-2.616a.67.67 0 0 0-.449-.213m-.256-.966-3.722-4.03s-.001 2.652.596 4.27c0 0 2.662.187 2.925.193.348.008.479-.131.2-.433m3 3.794-2.72-4.227a.42.42 0 0 1-.084-.394l.479-1.599 3.324 3.268.417 2.983zm-3.122-5.329c-.085.2-.255.247-.463.062-.21-.186-3.004-3.014-2.967-3.075 0 0 1.4-.59 3.857 1.712 0 0-.341 1.1-.427 1.301m4.414 5.983L12.9 20.057a.284.284 0 0 0-.061.351l1.174 2.143s2.07-2.71 1.544-5.079m-3.601 3.116-2.744.366s.523 1.902 1.678 2.4c1.932.835 2.627-.308 2.627-.308l-1.163-2.256a.38.38 0 0 0-.398-.202m2.943-3.178-2.658 2.452a.3.3 0 0 1-.133.064l-3.026.446s.603-1.498 2.19-2.24c1.834-.857 3.627-.722 3.627-.722"/><path fill="#292F33" d="M9.029 22.01c.725 1.369 1.984 1.994 3.044 1.994.52 0 .993-.15 1.33-.437.952-.807 2.105-3.108 2.267-3.923.232-1.162.216-1.893 0-2.52q-.323-.015-.64-.016c-4.284 0-7.486 2.097-6.001 4.901m.75-2.255c.73-1.213 2.749-2.231 5.304-2.231l.33.01s.055 1.241-.175 1.99c-.402 1.306-1.263 2.86-2.101 3.571-.221.188-.684.342-1.064.342-.745 0-1.603-.488-2.254-1.717-.38-.717-.393-1.378-.04-1.965"/><path fill="#292F33" d="M8.274 8.692q.098 0 .213.022c1.79.338 4.729 3.019 6.592 5.461.113.749.29 1.902.355 2.505-.179.02-.478.01-.887.01-1.112 0-2.189-.236-3.193-.412-.918-.16-1.562-.557-1.839-.773-.251-.196-.768-.883-1.035-1.823-.397-1.395-.742-3.066-.691-4.392.023-.598.37-.598.485-.598m0-.618c-.776 0-1.081.611-1.103 1.192-.08 2.114.786 6.231 1.725 6.962.848.66 3.81 1.01 5.65 1.01.886 0 1.511-.082 1.511-.248 0-.51-.39-3.063-.39-3.063-2.465-3.285-5.492-5.523-7.065-5.82a2 2 0 0 0-.328-.033"/><path fill="#292F33" d="M17.922 9.453a.255.255 0 0 0-.347.1l-1.354 2.463c-.01.016-.011.033-.016.05-.063-.003-.121-.009-.195-.009-.073 0-.131.005-.194.01-.005-.018-.007-.035-.015-.051l-1.355-2.463a.255.255 0 0 0-.448.246l1.313 2.387c-.583.388.569 1.7.188 4.551-.51 3.833.511 4.855.511 4.855s1.022-1.022.511-4.855c-.38-2.851.772-4.163.188-4.551l1.314-2.387a.255.255 0 0 0-.1-.346"/></g></svg>