<svg xmlns="http://www.w3.org/2000/svg" width="32" height="32" fill="none"><defs><filter id="a"><feMorphology in="SourceAlpha" operator="dilate" radius="1" result="expanded"/><feFlood flood-color="#fff" result="color"/><feComposite in="color" in2="expanded" operator="in"/><feComposite in="SourceGraphic"/></filter></defs><g filter="url(#a)"><path fill="#77B255" d="M22 9a2 2 0 0 0-2 2v4.563c0 .542-.444.98-1 1.223V10a3 3 0 0 0-6 0v8.814c-.561-.237-1-.685-1-1.251V15a2 2 0 0 0-4 0v3.5c0 1.105.875 1.938 1.688 2.406.621.359 2.365.8 3.312.826V23.5c0 1.657 6 1.657 6 0v-3.774c.99-.06 2.645-.477 3.24-.82.812-.468 1.76-1.301 1.76-2.406V11a2 2 0 0 0-2-2"/><path fill="#3E721D" d="M13 10.5a.5.5 0 1 0 0-1 .5.5 0 0 0 0 1M18.5 9a.5.5 0 1 0 0-1 .5.5 0 0 0 0 1M17.5 12.001a.5.5 0 1 0 0-1 .5.5 0 0 0 0 1M14 15.501a.5.5 0 1 0 0-1 .5.5 0 0 0 0 1M17 17.499a.5.5 0 1 0 0-1 .5.5 0 0 0 0 1M13.5 20.5a.5.5 0 1 0 0-1 .5.5 0 0 0 0 1M9.5 21.001a.5.5 0 1 0 0-1 .5.5 0 0 0 0 1M11.5 17.499a.5.5 0 1 0 0-1 .5.5 0 0 0 0 1M8 16.501a.5.5 0 1 0 0-1 .5.5 0 0 0 0 1M24 11.5a.5.5 0 1 0 0-1 .5.5 0 0 0 0 1M21 12.999a.5.5 0 1 0 0-1 .5.5 0 0 0 0 1M23 15.501a.5.5 0 1 0 0-1 .5.5 0 0 0 0 1M21.5 19.5a.5.5 0 1 0 0-1 .5.5 0 0 0 0 1M18 22.5a.5.5 0 1 0 0-1 .5.5 0 0 0 0 1"/></g></svg>