<svg xmlns="http://www.w3.org/2000/svg" width="32" height="32" fill="none"><defs><filter id="a"><feMorphology in="SourceAlpha" operator="dilate" radius="1" result="expanded"/><feFlood flood-color="#fff" result="color"/><feComposite in="color" in2="expanded" operator="in"/><feComposite in="SourceGraphic"/></filter></defs><g filter="url(#a)"><path fill="#C1694F" d="M23.553 14.338c-.973-2.013-3.297-5.03-5.295-5.03-2.262 0-4.571 4.033-5.595 5.766a9 9 0 0 0-.258.476c-1.873-.657-.298-3.684-.298-5.813 0-.532-.076-.91-.244-1.177.271-.337.325-.748.106-.944-.229-.204-.663-.09-.969.253-.044.05-.072.104-.105.156a5 5 0 0 0-.818-.057c-.314 0-1.62.148-2.35.44C5.998 9.102 6.553 11 7.108 11H9.33c.556 0 .42 1.283 0 2.625-.46 1.475-.8 2.858-.555 3.67.449 1.493 2.062 1.994 3.424 2.145.589 1.477.843 3.586.819 4.423-.033 1.11 1.077 1.144 1.11.033.02-.673-.057-2.045.08-3.212.365 1.574.52 3.387.5 4.063-.034 1.11 1.077 1.143 1.11.033.026-.89-.101-3.533.31-4.99q.421.015.9.02c.985.05 2.07.047 3.058-.009.584.885 1.11 1.662 1.102 1.909-.017.555-.62 2.205-.637 2.76-.016.556.522 1.127 1.11.033.36-.67.736-1.9.854-3.012.095.202.152.365.15.468-.017.556-.54 2.184-.556 2.74-.016.554.523 1.126 1.11.032.59-1.095 1.11-2.721.589-3.849-.443-.955.24-2.314.457-4.396.602.925.621 1.861.622 1.921a.555.555 0 1 0 1.11 0c0-.12-.037-2.694-2.443-4.07"/><path fill="#292F33" d="M10.6 9.095a.556.556 0 1 1-1.11-.032.556.556 0 0 1 1.11.032"/></g></svg>