<svg xmlns="http://www.w3.org/2000/svg" width="32" height="32" fill="none"><defs><filter id="a"><feMorphology in="SourceAlpha" operator="dilate" radius="1" result="expanded"/><feFlood flood-color="#fff" result="color"/><feComposite in="color" in2="expanded" operator="in"/><feComposite in="SourceGraphic"/></filter></defs><g filter="url(#a)"><path fill="#DD2E44" d="M13.649 8.769c-.265-2.038-2.813-2.15-3.124-1.063l-.466 2.02-2.021.467c-1.088.31-.975 2.859 1.062 3.124l1.527.2c2.037.265 3.487-1.184 3.221-3.22zm9.497 9.495c2.037.266 2.149 2.815 1.062 3.125l-2.02.466-.467 2.021c-.31 1.087-2.859.974-3.125-1.063l-.198-1.527c-.266-2.037 1.183-3.487 3.22-3.22z"/><path fill="#BE1931" d="m22.245 18.147-.627-.082c-2.037-.265-3.486 1.184-3.22 3.22l.043.334c.811-.134 1.725-.618 2.507-1.4.645-.644 1.086-1.379 1.297-2.072m-11.792-4.653.175.023c2.037.266 3.486-1.183 3.22-3.22l-.06-.455c-.658.223-1.348.652-1.957 1.261-.745.745-1.218 1.61-1.378 2.391"/><path fill="#DD2E44" d="M16.39 20.987a5.325 5.325 0 1 0 0-10.651 5.325 5.325 0 0 0 0 10.65"/><path fill="#F5F8FA" d="M16.375 15.5c.195 1.472-.316 3.37-1.296 4.546.42.125.86.19 1.31.19.366 0 .724-.047 1.07-.13.282-1.293.128-2.963-1.084-4.606m0 0c1.704.318 3.116 1.643 3.39 3.242a4.53 4.53 0 0 0 1.173-2.595c-.93-.944-2.45-1.604-4.563-.647m0 0c.525-1.134 2.255-2.169 3.918-2.219a4.6 4.6 0 0 0-.668-.855 4.5 4.5 0 0 0-1.286-.898c-1.186.62-2.226 1.824-1.964 3.972"/><path fill="#F5F8FA" d="M16.396 15.521c-1.405-.74-2.289-2.52-1.908-4.015-.483.22-.937.523-1.334.92a4.6 4.6 0 0 0-.706.922c.643.98 1.877 1.914 3.948 2.173m-.042 0c-1.285.779-3.115 1.196-4.479.842.117.77.431 1.515.943 2.154 1.187-.355 2.533-1.251 3.536-2.996"/></g></svg>