<svg xmlns="http://www.w3.org/2000/svg" width="32" height="32" fill="none"><defs><filter id="a"><feMorphology in="SourceAlpha" operator="dilate" radius="1" result="expanded"/><feFlood flood-color="#fff" result="color"/><feComposite in="color" in2="expanded" operator="in"/><feComposite in="SourceGraphic"/></filter></defs><g filter="url(#a)"><path fill="#3E721D" d="M15 12c-.5-1.5 0-4 2-4.5s3 .5 3 1-.5 1.5-1 1-1.5-.5-2 .5 0 2 0 2z"/><path fill="#5C913B" d="M18.973 17.983c0 3.6-1.546 4.49-5.5 6.017-3.88 1.5-3.38-2.5-4-6.017-.261-1.482-.51-1.89-.781-2.993-.377-1.536-.29-3.524 2.28-3.524 4.42 0 8 2.918 8 6.517"/><path fill="#5C913B" d="M13.027 17.983c0 3.6 1.546 4.49 5.5 6.017 3.88 1.5 3.38-2.5 4-6.017.261-1.482.51-1.89.781-2.993.377-1.536.29-3.524-2.28-3.524-4.42 0-8 2.918-8 6.517"/><path fill="#77B255" d="M19.486 18.216c0 3.727-.461 6.284-3.486 6.284s-3.485-2.556-3.485-6.285C12.515 14.488 10.025 11 16 11c5.976 0 3.485 3.488 3.485 7.215"/></g></svg>