<svg xmlns="http://www.w3.org/2000/svg" width="32" height="32" fill="none"><defs><filter id="a"><feMorphology in="SourceAlpha" operator="dilate" radius="1" result="expanded"/><feFlood flood-color="#fff" result="color"/><feComposite in="color" in2="expanded" operator="in"/><feComposite in="SourceGraphic"/></filter></defs><g filter="url(#a)"><path fill="#77B255" d="M22.548 11.467c1.768-1.062 2.204-4.16 1.85-3.807.354-.354-2.828 0-3.888 1.768 0-.707-.707-3.536-1.768-1.06-1.06 2.474-.707 2.828-.707 3.535s1.414.707 1.414.707-.062 1.352.645 1.352.999.292 3.473-.769c2.475-1.061-.312-1.726-1.019-1.726"/><path fill="#F4900C" d="M18.211 18.797c-3.807 3.808-10.076 6.54-10.96 5.657-.884-.884 1.85-7.153 5.657-10.96s5.765-3.781 7.425-2.122c1.659 1.66 1.686 3.618-2.122 7.425"/><path fill="#D67503" d="M17.938 14.28c-.486-.486-1.385-1.393-2.346-3.053a13 13 0 0 0-1.205.904c1.402 1.806 4.06 2.658 3.55 2.149m-3.743 4.036c-.52-.52-1.515-1.525-2.552-3.423a24 24 0 0 0-.99 1.285c1.403 1.798 4.05 2.646 3.542 2.138m4.65-.176c-1.79-1.004-2.744-1.955-3.25-2.46-.51-.511.346 2.157 2.158 3.557.156-.145.893-.884 1.093-1.097m-6.09 4.662a27 27 0 0 0 1.357-.798c-1.637-.953-2.535-1.842-3.017-2.324-.461-.462.193 1.673 1.66 3.122"/></g></svg>