<svg xmlns="http://www.w3.org/2000/svg" width="32" height="32" fill="none"><defs><filter id="a"><feMorphology in="SourceAlpha" operator="dilate" radius="1" result="expanded"/><feFlood flood-color="#fff" result="color"/><feComposite in="color" in2="expanded" operator="in"/><feComposite in="SourceGraphic"/></filter></defs><g filter="url(#a)"><path fill="#FFCC4D" d="M23.174 14s1.723-4.406.826-5.999c-.302-.536-4 1-5.362 2.721 0 0-1.293-.43-2.638-.43s-2.638.43-2.638.43C12.001 9 8.302 7.465 8.001 8.002 7.104 9.593 8.826 14 8.826 14c-.448.861-.616 2.173-.777 3.58-.177 1.543.175 2.773.329 3.045.175.308 1.061 1.302 2.242 2.153C12.413 24.069 15.103 24.5 16 24.5s3.587-.43 5.38-1.722c1.181-.85 2.068-1.845 2.242-2.153.154-.272.506-1.502.33-3.045-.162-1.407-.33-2.719-.778-3.58"/><path fill="#F18F26" d="M8.18 8.486c.1-.3 2.674 1.087 3.258 2.702 0 0-1.904 1.312-2.264 2.312 0 0-1.495-3.514-.995-5.014"/><path fill="#FFCC4D" d="M9.99 10.63c0-.707 2.729 1.366 2.229 1.866s-.628.36-1.128.86-1.1-2.226-1.1-2.726"/><path fill="#F18F26" d="M23.82 8.486c-.1-.3-2.674 1.087-3.259 2.702 0 0 1.904 1.312 2.265 2.312 0 0 1.494-3.514.994-5.014"/><path fill="#FFCC4D" d="M22.01 10.63c0-.707-2.729 1.366-2.229 1.866s.628.36 1.128.86 1.1-2.226 1.1-2.726"/><path fill="#292F33" d="M14 17a1 1 0 1 1-1.999 0 1 1 0 0 1 2 0m6 0a1 1 0 1 1-2 0 1 1 0 0 1 2 0"/><path fill="#FEE7B8" d="M8.1 22.23a.25.25 0 0 1-.155-.447c.081-.063 2.01-1.56 5.324-1.302.138.01.24.13.23.268-.01.137-.128.25-.268.23-3.117-.237-4.958 1.183-4.976 1.197a.26.26 0 0 1-.155.053m4.434-2.332a.3.3 0 0 1-.074-.011c-2.395-.749-4.369-.174-4.389-.168a.25.25 0 1 1-.144-.479c.087-.026 2.143-.623 4.681.17a.25.25 0 0 1-.074.488M23.9 22.229a.25.25 0 0 0 .155-.446c-.08-.063-2.01-1.56-5.324-1.302a.25.25 0 0 0-.23.268c.011.137.129.25.269.23 3.116-.237 4.957 1.183 4.975 1.197a.26.26 0 0 0 .155.053m-4.434-2.331q.038 0 .075-.011c2.395-.749 4.368-.174 4.388-.168a.25.25 0 1 0 .144-.479c-.086-.026-2.143-.623-4.68.17a.25.25 0 0 0 .073.488"/><path fill="#67757F" d="M19.368 22.449a.25.25 0 0 0-.322-.147 2.3 2.3 0 0 1-.78.155c-.575 0-.78-.153-1.016-.33-.225-.168-.478-.357-.995-.4v-1.17a.25.25 0 0 0-.5 0v1.186c-.405.058-.673.22-.908.372-.284.183-.53.342-1.041.342q-.363 0-.78-.155a.25.25 0 0 0-.174.469c.332.123.653.186.953.186.66 0 1.007-.224 1.314-.422.262-.17.49-.316.924-.318.496.004.679.14.907.31.27.202.574.43 1.317.43.3 0 .622-.063.954-.186a.25.25 0 0 0 .147-.322"/><path fill="#E75A70" d="M16.7 19.403h-1.4a.583.583 0 0 0-.581.582c0 .32.261.581.581.581h.119v.173c0 .32.261.581.581.581s.582-.261.582-.581v-.173h.118c.32 0 .582-.261.582-.581a.583.583 0 0 0-.582-.582"/><path fill="#F18F26" d="M16.011 15.577a.25.25 0 0 1-.25-.25v-4.142a.25.25 0 0 1 .5 0v4.142a.25.25 0 0 1-.25.25m1.49-.791a.25.25 0 0 1-.25-.25 6.16 6.16 0 0 1 .642-2.654.25.25 0 0 1 .44.236c-.006.01-.583 1.107-.583 2.418a.25.25 0 0 1-.25.25m-3 0a.25.25 0 0 1-.25-.25c0-1.312-.578-2.407-.584-2.418a.25.25 0 0 1 .44-.236 6.16 6.16 0 0 1 .643 2.654.25.25 0 0 1-.25.25"/></g></svg>