<svg xmlns="http://www.w3.org/2000/svg" width="32" height="32" fill="none"><defs><filter id="a"><feMorphology in="SourceAlpha" operator="dilate" radius="1" result="expanded"/><feFlood flood-color="#fff" result="color"/><feComposite in="color" in2="expanded" operator="in"/><feComposite in="SourceGraphic"/></filter></defs><g filter="url(#a)"><path fill="#AA8DD8" d="M10.707 9c.5-.5.125-2-.719-2s-.78 1-.28 1 .5 1 .5 1.5.5-.5.5-.5m-2.091.86c.5-.5.125-2-.72-2-.843 0-.78 1-.28 1s.5 1 .5 1.5.5-.5.5-.5"/><path fill="#744EAA" d="M21.803 23.428c.095.404.614 1.14 1.016 1.045.403-.095.539-.985.444-1.388a.75.75 0 1 0-1.46.343m-2.717.324c.002.415.34 1.25.755 1.248.414-.002.747-.839.745-1.253a.75.75 0 0 0-1.5.005m-2.635-1.223c-.163.382-.183 1.282.198 1.445.381.162 1.018-.473 1.181-.855a.751.751 0 0 0-1.38-.59m-2.516-5.52c-.406.086-1.154.587-1.07.992.087.405.973.562 1.38.476a.751.751 0 0 0-.31-1.468m-1.018-2.5c-.406.086-1.154.587-1.07.992.087.405.973.562 1.379.476a.751.751 0 0 0-.31-1.468"/><path fill="#9266CC" d="M20.622 24c1.416 0 2.463-.438 2.633-.513a2.25 2.25 0 0 0-1.794-4.126c-.066.025-.896.324-1.671-.036-.926-.43-1.498-1.655-1.814-2.605-.072-.215-.193-.637-.343-1.158-.933-3.235-1.416-4.142-1.992-4.91-1.855-2.475-4.796-2.648-6.241-2.358a2.25 2.25 0 1 0 .883 4.413c.08-.013 1.101-.153 1.712.584.321.644 1.04 2.564 1.315 3.517.172.6.314 1.086.396 1.334.887 2.658 2.334 4.446 4.302 5.314a6.4 6.4 0 0 0 2.614.545"/><path fill="#fff" d="M10.34 10a.5.5 0 1 0 0-1 .5.5 0 0 0 0 1"/><path fill="#744EAA" d="M22.462 23.482a.5.5 0 0 1-.483-.633c.379-1.362-.385-2.272-.392-2.28a.5.5 0 0 1 .758-.652c.046.053 1.117 1.33.598 3.198a.5.5 0 0 1-.481.367m-3.6-.282a.5.5 0 0 1-.365-.842c.742-.793.726-2.096.726-2.11a.5.5 0 0 1 .486-.514.507.507 0 0 1 .514.486c.002.07.036 1.719-.996 2.822a.5.5 0 0 1-.365.158m-4.27-4.348a.5.5 0 0 1-.082-.993c1.537-.255 2.387-1.188 2.396-1.198a.5.5 0 0 1 .75.661c-.044.05-1.078 1.208-2.982 1.523a1 1 0 0 1-.083.007m1.46 2.429a.5.5 0 0 1-.151-.977c1.346-.426 1.94-1.415 1.946-1.425a.5.5 0 1 1 .862.506c-.031.054-.797 1.331-2.506 1.872a.5.5 0 0 1-.151.024m-2.31-5.335a.5.5 0 0 1-.062-.997c1.345-.17 2.329-.985 2.338-.994a.5.5 0 0 1 .647.763c-.049.042-1.21 1.015-2.86 1.223a1 1 0 0 1-.063.005m-.91-2.384a.5.5 0 0 1-.15-.977c1.565-.492 2.126-1.346 2.15-1.382a.5.5 0 0 1 .849.527c-.03.048-.753 1.198-2.7 1.81a.5.5 0 0 1-.15.022"/></g></svg>