<svg xmlns="http://www.w3.org/2000/svg" width="32" height="32" fill="none"><defs><filter id="a"><feMorphology in="SourceAlpha" operator="dilate" radius="1" result="expanded"/><feFlood flood-color="#fff" result="color"/><feComposite in="color" in2="expanded" operator="in"/><feComposite in="SourceGraphic"/></filter></defs><g filter="url(#a)"><path fill="#77B255" d="M20 19a.5.5 0 0 1-.286-.09c-3.272-2.29-6.083-6.183-7.699-8.72.85 5.264.499 8.23.481 8.372a.5.5 0 0 1-.992-.123c.005-.04.468-4.017-.993-10.834a.5.5 0 0 1 .93-.34c.04.074 4.004 7.436 8.846 10.826A.5.5 0 0 1 20 19"/><path fill="#5C913B" d="M20.273 11.409c-1.738.48-2.525 1.273-5.374.333-2.36-.778-3.519-2.103-3.173-3.152s1.59-1.582 3.95-.803c2.375.783 2.062 1.733 4.597 3.622"/><path fill="#BE1931" d="M20 25a4 4 0 1 0 0-8 4 4 0 0 0 0 8"/><path fill="#BE1931" d="M12.5 25a4 4 0 1 0 0-8 4 4 0 0 0 0 8"/></g></svg>