<svg xmlns="http://www.w3.org/2000/svg" width="32" height="32" fill="none"><defs><filter id="a"><feMorphology in="SourceAlpha" operator="dilate" radius="1" result="expanded"/><feFlood flood-color="#fff" result="color"/><feComposite in="color" in2="expanded" operator="in"/><feComposite in="SourceGraphic"/></filter></defs><g filter="url(#a)"><path fill="#DA2F47" d="M9.021 20.958c2.445.275 4.73-.813 6.736-2.973 2.406-2.591 2.5-6.5 2.5-7s5.655-1.528 5.5 2.5c-.215 5.598-3.715 10.473-9.959 10.958-2.99.232-4.84-.464-5.693-1.173-1.345-1.115-.376-2.458.916-2.312"/><path fill="#77B255" d="M22.273 10.123c.102-.822.04-1.877-.374-2.427-.555-.74-2.215-.382-1.784.057.48.49 1.227 1.127 1.2 2.075l-.065-.016c-1.928-.434-3.36.703-3.583 1.48-.391 1.36 2.032.283 2.34.88.91 1.765 1.951.078 2.201.64s2.049 2.152 2.049.318c0-1.505-.596-2.451-1.984-3.007"/></g></svg>