<svg xmlns="http://www.w3.org/2000/svg" width="32" height="32" fill="none"><defs><filter id="a"><feMorphology in="SourceAlpha" operator="dilate" radius="1" result="expanded"/><feFlood flood-color="#fff" result="color"/><feComposite in="color" in2="expanded" operator="in"/><feComposite in="SourceGraphic"/></filter></defs><g filter="url(#a)"><path fill="#77B255" d="M23.17 16.604c.1-.737 1.335-1.104 1.335-2.271s-2.88-3.208-7.005.667c1.906-2.656 3.271-7.254 1.102-7.254-.735 0-1.29.67-2.164.67C15.25 8.417 15.104 7 14 7c-1.291 0-2.5 3.125.5 7.5-.75-.812-5.541-3.312-6.5-.634-.315.876.865 1.39.771 2.259-.089.827-1.298 1.018-1.298 2.186 0 1.646 4.024 2.417 8.022-.806-.123 2.262.278 5.257 1.928 7.079.672.741 1.204.275 1.411.093s.802-.707.093-1.411a9.66 9.66 0 0 1-2.81-5.69c1.022 1.107 6.179 4.37 7.759 1.383.44-.834-.822-1.488-.706-2.355"/></g></svg>