<svg xmlns="http://www.w3.org/2000/svg" width="32" height="32" fill="none"><defs><filter id="a"><feMorphology in="SourceAlpha" operator="dilate" radius="1" result="expanded"/><feFlood flood-color="#fff" result="color"/><feComposite in="color" in2="expanded" operator="in"/><feComposite in="SourceGraphic"/></filter></defs><g filter="url(#a)"><path fill="#8B5E3C" d="M9.753 22.083c-3.515-3.514-3.199-9.53.707-13.435l12.728 12.728c-3.905 3.906-9.92 4.222-13.435.707"/><path fill="#603913" d="M10.46 8.649c-1.953 1.952-.687 6.385 2.827 9.9 3.516 3.514 7.948 4.78 9.9 2.828 1.953-1.952.687-6.385-2.829-9.9-3.514-3.515-7.946-4.78-9.898-2.828"/><path fill="#F5F8FA" d="M22.795 19.108a.5.5 0 0 0 .839-.234c.033-.135.787-3.335-1.507-5.63-.56-.56-1.391-1.886-1.628-2.271-.2-.208-.366-.135-.749-.518-.175-.175-.702-1.124-2.22.315a.494.494 0 0 0-.057.637l5.264 7.632a1 1 0 0 0 .058.07"/><path fill="#603913" d="M19.136 10.781c.353.353.729.708.729.708s1.202 1.402 1.909 2.11c2.121 2.121 1.375 5.156 1.375 5.156l-5.826-7.838s1.396-.521 1.813-.136m.635-.677c-.916-.719-2.389-.158-2.75.198-.341.341-.233.992.04 1.389l5.265 7.632a1.01 1.01 0 0 0 1.003.415 1 1 0 0 0 .79-.744c.037-.147.853-3.612-1.638-6.103-.446-.446-.969-.869-1.455-1.457-.164-.211-.593-.72-1.037-1.163z"/><path fill="#F5F8FA" d="M11.167 9.356c-1.562 1.562-.296 5.36 2.828 8.484 3.124 3.125 6.923 4.391 8.485 2.829s.296-5.362-2.828-8.485c-3.124-3.124-6.923-4.39-8.485-2.828"/><path fill="#99AAB5" d="M12.206 10.439c-1.16 1.159-.042 4.156 2.497 6.695s5.536 3.656 6.695 2.497.042-4.156-2.497-6.696-5.536-3.656-6.695-2.497"/><path fill="#99AAB5" d="m17.1 11.97.587-.168c.281-.156.677-.166.948.084l.606.636c.286.345.96 1.069 1.497 1.607 1.904 1.903 1.16 4.36 1.127 4.465a.25.25 0 0 1-.444.067l-4.399-6.334a.251.251 0 0 1 .077-.357"/><path fill="#F5F8FA" d="M18.88 20.028s-1.605-1.042-1.886-1.885c-.314-.943-2.33-1.126-2.645-2.07-.313-.942-.838-2.382-1.126-2.958s-.63 0-.943-.943c-.314-.944-.943-1.572-.943-1.572s0 4.4.943 5.343 4.714 4.714 5.029 4.4 1.57-.315 1.57-.315"/><path fill="#603913" d="M18.419 20.865s-1.865-1.269-2.158-2.147c-.328-.982-2.645-1.31-2.972-2.292-.328-.982-.798-2.743-.957-2.946-.458-.59-.654 0-.982-.982s-.982-1.637-.982-1.637 0 4.583.982 5.565 4.91 4.91 5.238 4.583 1.83-.144 1.83-.144"/><path fill="#8B5E3C" d="M17.884 21.73s-1.805-1.172-2.12-2.12c-.354-1.061-3.183-1.768-3.537-2.829-.353-1.061-.353-2.475-.707-2.828-.353-.354-.707 0-1.06-1.061S9.4 11.124 9.4 11.124s0 4.95 1.06 6.01c1.06 1.061 5.303 5.304 5.656 4.95.354-.354 1.768-.354 1.768-.354"/><path fill="#A97C50" d="M12.405 23.426c.046-.143.418-.03.557 0 3.467.763 5.83-.692 5.856-.704.136-.068.29-.017.342.112s-.013.288-.148.356c-.112.056-2.404 1.275-6.062.47-.046-.011-.36-.066-.39-.096-.062-.062-.186-.042-.155-.138m-4.182-4.984c.058.057.054.106.145.082.144-.036.15-.258.128-.399-.246-1.596.18-3.252.92-5.176.054-.14-.013-.287-.147-.326-.136-.04-.29.042-.343.182-.778 2.017-1.029 3.818-.768 5.507a.24.24 0 0 0 .065.13m5.179 4.589a.24.24 0 0 0 .14.066c1.884.213 3.446-.569 3.511-.602.135-.069.2-.228.146-.357-.054-.13-.209-.178-.344-.11-.015.008-1.372.922-3.09.727-.143-.016-.414-.008-.445.138-.018.088.026.083.082.138"/></g></svg>