<svg xmlns="http://www.w3.org/2000/svg" width="32" height="32" fill="none"><defs><filter id="a"><feMorphology in="SourceAlpha" operator="dilate" radius="1" result="expanded"/><feFlood flood-color="#fff" result="color"/><feComposite in="color" in2="expanded" operator="in"/><feComposite in="SourceGraphic"/></filter></defs><g filter="url(#a)"><path fill="#DA9F83" d="M24.483 15.935c.207 2.324-1.041 4.365-2.416 6.103-1.152 1.277-2.8 1.815-4.45 2.142a6.06 6.06 0 0 1-4.858-.447c-.517-.215-1.124-.28-1.584-.588-1.44-.923-2.262-2.464-2.89-4.015-.813-1.458-.87-3.241-.706-4.87.11-.554.483-1.017.694-1.526a6.5 6.5 0 0 1 1.784-2.738c.393-.393.689-.911 1.152-1.222.46-.308 1.051-.379 1.568-.594.508-.21.984-.54 1.536-.65.536-.106 1.1.054 1.668.054 1.117-.028 2.24.074 3.287.394.517.215.89.69 1.35.999.463.31 1 .52 1.392.913.802.783 1.492 1.706 1.97 2.723.325 1.055.479 2.195.503 3.322"/><path fill="#8A4B38" d="M18.319 15.474a1.123 1.123 0 0 1 .693 2.136c-.59.191-1.936.1-2.128-.49-.191-.59.844-1.456 1.435-1.647m4.285-.337a.535.535 0 1 1-.819-.688c.19-.226.757-.528.983-.338s.026.8-.164 1.026m-11-3.5a.535.535 0 1 1-.819-.688c.19-.226.757-.528.983-.338s.026.8-.164 1.026m6.047-.947a.803.803 0 1 1 .866-1.354c.374.239.936 1.024.697 1.399s-1.189.196-1.563-.044M13.688 13.8a1.072 1.072 0 1 1 1.934-.928c.257.535.341 1.822-.194 2.077-.535.257-1.485-.614-1.74-1.149m.511 7.05a.96.96 0 1 1 1.582 1.091c-.303.437-1.264 1.073-1.7.772-.438-.302-.183-1.427.119-1.863m5.007-.204a.736.736 0 1 1 .793-1.24c.343.219.858.939.638 1.281-.219.344-1.088.18-1.431-.04M9.768 16.21a1.034 1.034 0 1 1 1.542 1.38c-.382.427-1.496.977-1.921.595-.427-.381-.003-1.55.379-1.975"/></g></svg>