<svg xmlns="http://www.w3.org/2000/svg" width="32" height="32" fill="none"><defs><filter id="a"><feMorphology in="SourceAlpha" operator="dilate" radius="1" result="expanded"/><feFlood flood-color="#fff" result="color"/><feComposite in="color" in2="expanded" operator="in"/><feComposite in="SourceGraphic"/></filter></defs><g filter="url(#a)"><path fill="#5C913B" d="M14.686 7.51c-.831.833-3.327 4.16-2.08 7.072 1.248 2.911 2.955 1.12 3.744-1.248.416-1.248.416-2.912-.416-5.407-.416-1.248-1.248-.416-1.248-.416m9.652 9.653c-.831.831-4.16 3.327-7.07 2.08-2.913-1.249-1.121-2.955 1.247-3.744 1.248-.416 2.911-.416 5.407.416 1.248.416.416 1.248.416 1.248"/><path fill="#F4900C" d="M23.157 10.158s-.073-.863-.39-1.126c-.218-.273-1.01-.273-1.01-.273-.832 0-10.399 1.248-12.062 9.566-.298 1.487 2.313 4.12 3.819 3.82 8.32-1.664 9.642-11.155 9.643-11.987"/><path fill="#F7B82D" d="m19.385 11.409-.809-.809a.573.573 0 0 0-.809.809l.81.808a.572.572 0 0 0 .808-.809m-4.853.809a.572.572 0 0 0 .809-.809l-.385-.385q-.491.298-.97.649zm1.213-1.213a.571.571 0 1 0 .809-.809l-.013-.012a16 16 0 0 0-1.074.543zM13.32 13.43a.573.573 0 0 0 .81-.809l-.6-.598q-.44.357-.853.764zm5.661-4.044a.57.57 0 0 0 0 .808l.809.809a.571.571 0 1 0 .808-.809l-.808-.808a.57.57 0 0 0-.809 0m1.204-.398q.003.006.008.012l.808.808a.571.571 0 1 0 .809-.808l-.231-.231c-.27.022-.758.086-1.394.219m-2.012 4.442a.573.573 0 0 0 0-.809l-.81-.809a.571.571 0 1 0-.808.809l.809.809a.573.573 0 0 0 .809 0m-1.214 1.213a.57.57 0 0 0 0-.809l-.809-.809a.571.571 0 1 0-.808.809l.808.809a.57.57 0 0 0 .809 0m-2.426 2.426a.57.57 0 0 0 0-.809l-.809-.808a.572.572 0 0 0-.808.808l.808.809a.573.573 0 0 0 .81 0m-.404-2.83a.57.57 0 0 0 0 .809l.809.808a.573.573 0 0 0 .809-.808l-.81-.81a.57.57 0 0 0-.808 0"/><path fill="#77B255" d="M20.933 18.787c-3.562-1.187-7.549.326-9.709 1.788 1.463-2.16 2.975-6.147 1.788-9.709-.467-1.4-2.801-2.8-4.201-1.4-.467.467-.934.934 0 .934.933 0 2.334 1.4 1.867 2.8-.417 1.253-3.444 4.371-2.076 7.688-.135.057-.262.139-.372.249l-.358.357c-.459.46-.459 1.204 0 1.665l.358.358c.46.46 1.205.46 1.664 0l.358-.358a1.2 1.2 0 0 0 .158-.2c3.5 1.92 6.874-1.399 8.19-1.838 1.4-.466 2.8.934 2.8 1.867 0 .934.466.467.933 0 1.4-1.4 0-3.735-1.4-4.201"/></g></svg>