<svg xmlns="http://www.w3.org/2000/svg" width="32" height="32" fill="none"><defs><filter id="a"><feMorphology in="SourceAlpha" operator="dilate" radius="1" result="expanded"/><feFlood flood-color="#fff" result="color"/><feComposite in="color" in2="expanded" operator="in"/><feComposite in="SourceGraphic"/></filter></defs><g filter="url(#a)"><path fill="#99AAB5" d="M9.778 11.555S8 12.445 8 16.445c0 0 2.667-.445 3.111-1.334 0 0 .889-5.444-1.333-3.556m12.442.02s1.778.888 1.778 4.888c0 0-2.667-.444-3.111-1.333 0 0-.89-5.444 1.333-3.556"/><path fill="#FFE8B6" d="M8.444 8.445c-.448.44.445 3.556 2.223 4s1.777-2.222 1.333-2.222c-1.778 0-2.648-2.667-3.556-1.778m15.244 0c.449.44-.445 3.556-2.223 4s-1.777-2.222-1.333-2.222c1.778 0 2.648-2.667 3.555-1.778"/><path fill="#CCD6DD" d="M17.767 21.778h-3.534a4.455 4.455 0 0 1-4.455-4.456v-3.978a4.455 4.455 0 0 1 4.455-4.455h3.534a4.455 4.455 0 0 1 4.455 4.455v3.978a4.455 4.455 0 0 1-4.455 4.456"/><path fill="#E6AAAA" d="M23.555 20.444c0 2.455-1.99 3.556-4.444 3.556h-6.222c-2.455 0-4.445-1.101-4.445-3.556A4.445 4.445 0 0 1 12.89 16h6.222a4.445 4.445 0 0 1 4.444 4.444"/><path fill="#C1694F" d="M12.222 20.888c.369 0 .667-.597.667-1.333s-.298-1.333-.667-1.333c-.368 0-.666.597-.666 1.333s.298 1.333.666 1.333M19.778 20.888c.368 0 .666-.597.666-1.333s-.298-1.333-.666-1.333-.667.597-.667 1.333.298 1.333.666 1.333"/><path fill="#272B2B" d="M12.89 13.333s0-.889.888-.889c.889 0 .889.89.889.89v.888s0 .889-.889.889-.889-.889-.889-.889zm4.444 0s0-.889.889-.889c.888 0 .888.89.888.89v.888s0 .889-.889.889c-.888 0-.888-.889-.888-.889z"/></g></svg>