<svg xmlns="http://www.w3.org/2000/svg" width="32" height="32" fill="none"><defs><filter id="a"><feMorphology in="SourceAlpha" operator="dilate" radius="1" result="expanded"/><feFlood flood-color="#fff" result="color"/><feComposite in="color" in2="expanded" operator="in"/><feComposite in="SourceGraphic"/></filter></defs><g filter="url(#a)"><path fill="#A0041E" d="M10.48 17.318c.034.32-.272.614-.684.658s-.774-.179-.808-.498c-.034-.32.272-.613.684-.657s.774.178.808.497m1.043 1.359c.063.409-.878 1.272-1.288 1.334a.75.75 0 0 1-.854-.628c-.062-.41.29-.57.7-.633.409-.062 1.38-.482 1.442-.073m.892 1.052c.086.405-.814 1.963-1.22 2.05-.405.086-.822.073-.908-.333-.086-.405.153-.844.558-.93s1.483-1.192 1.57-.787m1.926.429c.083.405-.669 2.177-1.075 2.26s-.72.225-.802-.18c-.082-.407.13-.988.503-1.29.322-.262 1.292-1.196 1.374-.79"/><path fill="#A0041E" d="M8.963 16.435c.303.357.59.614.232.917s-.874.081-1.177-.277c-.303-.357-1.12-1.71-.762-2.012.358-.304 1.404 1.014 1.707 1.371m.165 2.44c.446.147.928.4.781.845-.147.446-.664.495-1.11.349-.444-.147-1.885-.845-1.738-1.29s1.622-.052 2.067.096m.607 2.265c.452-.126.953-.141 1.08.31.125.451-.142.768-.594.893-.45.126-2.17.364-2.297-.087-.125-.453 1.36-.99 1.81-1.116m2.174 1.595c.042-.469.322-.835.788-.793.467.043.63.512.587.98s.073 1.781-.858 2.008c-.456.11-.56-1.73-.517-2.195m9.611-5.416c-.034.319.272.614.684.657s.773-.178.807-.497c.034-.32-.272-.614-.683-.657-.412-.045-.774.178-.808.497m-1.043 1.358c-.063.409.878 1.272 1.287 1.335a.75.75 0 0 0 .855-.629c.062-.41-.29-.57-.7-.633-.409-.061-1.38-.482-1.442-.073m-.892 1.052c-.086.405.814 1.963 1.22 2.05.404.087.821.073.907-.332s-.152-.844-.557-.931-1.483-1.192-1.57-.787m-1.926.429c-.083.406.669 2.177 1.074 2.26.406.082.72.225.802-.18.082-.407-.13-.988-.503-1.29-.321-.262-1.291-1.195-1.373-.79"/><path fill="#A0041E" d="M23.038 16.435c-.304.357-.59.615-.233.917.358.303.874.081 1.177-.277.303-.357 1.12-1.71.762-2.012s-1.404 1.014-1.706 1.372m-.165 2.44c-.446.147-.929.4-.781.845.146.446.664.496 1.11.35.444-.148 1.885-.846 1.738-1.291s-1.622-.051-2.067.096m-.608 2.266c-.452-.127-.953-.142-1.079.31-.126.45.141.767.593.893.45.125 2.171.363 2.297-.089s-1.359-.99-1.81-1.114m-2.173 1.594c-.042-.469-.323-.835-.789-.793-.467.043-.629.513-.586.98.042.467-.074 1.781.857 2.008.456.11.56-1.73.518-2.195M8.574 13.939a.848.848 0 1 1 1.55-.692c.19.428 1.326 2.806.898 2.997s-2.257-1.877-2.448-2.305"/><path fill="#A0041E" d="M8.997 13.018c.61 1.478 4.17-1.67 4.402-3.14.23-1.47-.154-2.101-.347-2.25-.194-.15.072.717-.594 1.652-.527.741-3.883 2.717-3.461 3.738m14.429.922a.848.848 0 1 0-1.55-.692c-.191.427-1.326 2.806-.898 2.997s2.257-1.878 2.448-2.305"/><path fill="#A0041E" d="M23.003 13.018c-.61 1.478-4.17-1.67-4.402-3.14-.23-1.47.155-2.101.347-2.25.193-.15-.072.717.594 1.652.527.741 3.883 2.717 3.461 3.738"/><path fill="#BE1931" d="M10 18c0-1 1-5 6-5s6 4 6 5c-2.5 1.5-2.687 3.5-6 3.5s-3-2-6-3.5M9.16 13.11c-1.576.272-.179-4.07.942-5.05 1.12-.978 2.328-.958 2.557-.874s-.587 1.297-.875 2.089c-.146.401-1.536 3.648-2.624 3.835m13.677 0c1.576.272.18-4.07-.94-5.05-1.12-.978-2.329-.958-2.558-.874-.23.083.587 1.297.875 2.089.146.401 1.535 3.648 2.623 3.835"/><path fill="#A0041E" d="M15.516 13.068c.167.67-.023.794-.425.894s-.863.14-1.03-.53.022-1.294.424-1.395.863.36 1.03 1.03m2.423.364c-.168.67-.63.63-1.03.53-.403-.1-.593-.225-.425-.894.167-.67.629-1.131 1.03-1.03.402.1.592.724.425 1.394"/><path fill="#292F33" d="M14.25 12.5a.75.75 0 1 0 0-1.5.75.75 0 0 0 0 1.5M17.75 12.5a.75.75 0 1 0 0-1.5.75.75 0 0 0 0 1.5"/><path fill="#DD2E44" d="M11.527 17.764c-.07.118-1.527.366-1.152-.365.375-.732 1.222.248 1.152.365"/><path fill="#DD2E44" d="M11.946 17.062c-.11.112-1.594.195-.961-.702.632-.897 1.117.54.96.702"/><path fill="#DD2E44" d="M12.829 16.33c-.19.116-1.736-.25-.704-.966.936-.648.953.813.704.966"/><path fill="#DD2E44" d="M14.051 15.714c-.504.15-1.689-.651-.44-1.07s.944.92.44 1.07m6.377 2.05c.07.118 1.527.366 1.152-.365s-1.222.249-1.152.366"/><path fill="#DD2E44" d="M20.01 17.062c.108.112 1.593.195.96-.702s-1.117.54-.96.702"/><path fill="#DD2E44" d="M19.127 16.33c.189.116 1.735-.25.703-.966-.936-.648-.953.813-.703.966"/><path fill="#DD2E44" d="M17.904 15.714c.504.15 1.69-.651.44-1.07s-.944.92-.44 1.07"/><path fill="#A0041E" d="M20.425 15.125C20.425 15.332 19.33 14 16 14s-4.424 1.332-4.424 1.125S12.953 13.25 16 13.25s4.425 1.668 4.425 1.875"/><path fill="#DD2E44" d="M12.397 19.217c0-.207.89 1.125 3.603 1.125s3.604-1.332 3.604-1.125-1.122 1.875-3.604 1.875-3.604-1.668-3.604-1.875"/></g></svg>