<svg xmlns="http://www.w3.org/2000/svg" width="32" height="32" fill="none"><defs><filter id="a"><feMorphology in="SourceAlpha" operator="dilate" radius="1" result="expanded"/><feFlood flood-color="#fff" result="color"/><feComposite in="color" in2="expanded" operator="in"/><feComposite in="SourceGraphic"/></filter></defs><g filter="url(#a)"><path fill="#3E721D" d="M16.556 19.778c0 .556-.958 1.667-1.853 1.667-.894 0-.925-.746-.925-1.667 0-.92.725-1.667 1.62-1.667s1.158.746 1.158 1.667m6.11 0c0 .556-.957 1.667-1.852 1.667-.894 0-.925-.746-.925-1.667 0-.92.726-1.667 1.62-1.667s1.158.746 1.158 1.667"/><path fill="#5C913B" d="M26 15.889c0-3.333-1.762-5.095-3.333-6.667-.556-.555-.778.179-.556.556.282.479 1.667 4.444-1.111 4.444h-1.111c-2.778 0-3.429-.65-5-2.222-2.5-2.5-3.889 0-5 0C6.556 12 6 10.993 6 13.111c0 1.667 1.667 2.222 3.333 2.222s1.667.556 2.778 2.223a6.55 6.55 0 0 0 2.79 2.308c.13.622 1.542 2.136 2.396 2.136.894 0 .925-.746.925-1.667H21c.019 0 .037-.005.056-.005.162.003.326.005.5.005 0 .556.957 1.667 1.852 1.667.894 0 .925-.746.925-1.667 0-.167-.031-.326-.076-.478.972-.526 1.743-1.628 1.743-3.966"/><path fill="#292F33" d="M11.556 12.069a.833.833 0 1 0 1.666 0c0-.46-.372 0-.833 0s-.833-.46-.833 0"/><path fill="#77B255" d="M21.278 15.89c.46 0 .833-.25.833-.556s-.373-.556-.833-.556-.834.25-.834.556.373.555.834.555M19.056 15.89c.46 0 .833-.25.833-.556s-.373-.556-.834-.556-.833.25-.833.556.373.555.833.555M16.833 15.89c.46 0 .834-.25.834-.556s-.373-.556-.834-.556-.833.25-.833.556.373.555.833.555M17.945 17c.46 0 .833-.248.833-.555s-.373-.555-.833-.555-.834.248-.834.555.373.556.834.556M20.167 17c.46 0 .833-.248.833-.555s-.373-.555-.833-.555-.834.248-.834.555.374.556.834.556"/><path fill="#fff" d="M9.333 14.223c-.216 0-.555-.556-.555-.556h1.111s-.34.556-.556.556m-1.11.26c-.217 0-.556-.816-.556-.816h1.11s-.339.816-.555.816m-1.112.295c-.216 0-.555-1.111-.555-1.111h1.11s-.339 1.111-.555 1.111"/></g></svg>