<svg xmlns="http://www.w3.org/2000/svg" width="32" height="32" fill="none"><defs><filter id="a"><feMorphology in="SourceAlpha" operator="dilate" radius="1" result="expanded"/><feFlood flood-color="#fff" result="color"/><feComposite in="color" in2="expanded" operator="in"/><feComposite in="SourceGraphic"/></filter></defs><g filter="url(#a)"><path fill="#662113" d="M14.986 14.542c-.73-1.167-.334-3.854 0-4.48.333-.624-.271-1.228-.75-.228-.48 1-.498 1.5-1.581 1.229s-.544-1.646-.19-2.813c.365-1.2-.458-.98-.833-.229-.375.75-.627 2.847-1.45 2.992-.824.146-3.05.3-1.426-2.825.653-1.257-.37-1.516-.916-.458-.66 1.274-1.042 2.895-.73 3.583.557 1.224 1.742 1.475 3.492 1.142s3.05-.317 3.05.566c0 .936.105 1.73.522 1.813s.812-.292.812-.292m2.028 0c.73-1.167.334-3.854 0-4.48-.333-.624.271-1.228.75-.228.48 1 .498 1.5 1.581 1.229s.544-1.646.19-2.813c-.365-1.2.458-.98.833-.229.375.75.627 2.847 1.45 2.992.824.146 3.05.3 1.426-2.825-.653-1.257.369-1.516.916-.458.659 1.274 1.042 2.896.73 3.583-.557 1.224-1.742 1.475-3.492 1.142s-3.05-.317-3.05.567c0 .936-.105 1.729-.521 1.812-.417.084-.813-.292-.813-.292"/><path fill="#C1694F" d="M13.93 14.747c.297 1.196.08 2.21-1.116 2.508s-3.172.28-3.979-.651c-1.147-1.323-1.265-3.196-.594-3.363s5.391.31 5.689 1.506m4.141 0c-.298 1.196-.08 2.21 1.115 2.508 1.197.298 3.173.28 3.98-.651 1.147-1.323 1.265-3.196.594-3.363s-5.392.31-5.689 1.506"/><path fill="#272B2B" d="M8.24 13.241c-.472.118-.551 1.079-.159 2.1l1.687-2.068c-.728-.073-1.321-.083-1.528-.032m15.52 0c-.21-.052-.816-.041-1.559.035l1.723 2.053c.387-1.016.306-1.97-.164-2.088"/><path fill="#E6AAAA" d="M13.026 14.998c.436.697-.276 1.115-.973 1.55s-2.304-.102-2.74-.798c-.435-.697-.592-1.566-.337-1.725s3.615.276 4.05.973m5.948 0c-.435.697.277 1.115.973 1.55.697.435 2.304-.102 2.74-.798.435-.697.592-1.566.337-1.725s-3.614.276-4.05.973"/><path fill="#C1694F" d="M16 14.063h-.001c-5.136 0-4.352 1.979-3.802 5.27.55 3.292 1.2 5.628 3.803 5.628 2.601 0 3.25-2.336 3.802-5.628.55-3.291 1.333-5.27-3.802-5.27"/><path fill="#272B2B" d="M12.913 18.425s-.375-.65.274-1.024c.65-.375 1.025.274 1.025.274l.375.65s.375.65-.275 1.024c-.65.375-1.024-.274-1.024-.274zm4.875-.75s.375-.65 1.024-.274c.65.375.275 1.024.275 1.024l-.375.65s-.375.65-1.025.274c-.65-.375-.274-1.024-.274-1.024zm-3.175 6.458c-.463-.094.925-1.798 1.387-1.798s1.85 1.703 1.387 1.798c-.462.094-2.312.094-2.774 0"/></g></svg>