<svg xmlns="http://www.w3.org/2000/svg" width="32" height="32" fill="none"><defs><filter id="a"><feMorphology in="SourceAlpha" operator="dilate" radius="1" result="expanded"/><feFlood flood-color="#fff" result="color"/><feComposite in="color" in2="expanded" operator="in"/><feComposite in="SourceGraphic"/></filter></defs><g filter="url(#a)"><path fill="#3E721D" d="M15.822 18.222s1.076 4.374.66 5.207c-1.319 2.637-.66 2.571 0 2.571H17.8c1.318 0-.66-7.778-.66-7.778zM8.92 16.77s-.243 4.441-.66 5.274C6.942 24.681 6.942 26 7.601 26H8.92c.66 0 .66-2.308.66-2.967s.66-4.78.66-4.78z"/><path fill="#77B255" d="M12.875 8.917c-1.15.01-2.339-.241-3.069 1.167-.78 1.505-1.147 4.766.431 5.368 1.378.527 4.408-.66 7.704.66 3.296 1.318 4.614 9.229 7.23 9.239.68.003.67.624 0 .629-3.285.025-4.726-3.277-5.282-3.277 0 0 .556 3.297 0 3.297h-2.222c-.556 0 0-1.712 0-2.37v-.927s-.885.677-3.298.677c-1.824 0-3.369-.677-3.369-.677S11.556 26 11 26H8.92c-.933 0 .092-2.23 0-3.297-.057-.656-.284-2.642-.68-3.296-.96-1.581-1.535-6.4-1.072-8.491.434-1.96 1.734-3.685 2.597-4.172.844-.478 1.59-.834 3.44-.537.986.159 1.995 1.624 1.605 2.375-.234.45-1.078.328-1.935.335"/><path fill="#000" d="M13.204 7.211a.33.33 0 1 1-.658.001.33.33 0 0 1 .658 0"/><path fill="#5C913B" d="M11.677 16.27a.32.32 0 1 1-.611.188.32.32 0 0 1 .61-.189m2.152.693a.455.455 0 1 1-.869.27.455.455 0 0 1 .869-.27m-.903-.793a.242.242 0 1 1-.462.144.242.242 0 0 1 .462-.144m1.366-.184a.23.23 0 1 1-.438.136.23.23 0 0 1 .438-.136m1.58.195a.424.424 0 1 1-.81.25.424.424 0 0 1 .81-.25m2.64 1.1a.27.27 0 1 1-.518.16.27.27 0 1 1 .518-.16m-3.253 0a.27.27 0 1 1-.518.161.27.27 0 0 1 .518-.162m2.344-.726a.27.27 0 1 1-.517.16.27.27 0 0 1 .517-.16m-.834.11a.4.4 0 1 1-.766.238.4.4 0 0 1 .766-.238"/></g></svg>