<svg xmlns="http://www.w3.org/2000/svg" width="32" height="32" fill="none"><defs><filter id="a"><feMorphology in="SourceAlpha" operator="dilate" radius="1" result="expanded"/><feFlood flood-color="#fff" result="color"/><feComposite in="color" in2="expanded" operator="in"/><feComposite in="SourceGraphic"/></filter></defs><g filter="url(#a)"><path fill="#E08110" d="M15.632 20.504c0 .842-.018 1.365-.428 1.563s-1.864.036-2.114.189c-.25.152-.47.44-.234.433s.558.072.558.072-.456.123-.626.295-.258.534-.082.513c.175-.021 1.038-.237 1.21-.238 0 0-.215.267-.239.453s.127.265.127.265.621-.275.862-.387c.24-.112.645-.461.835-.543.191-.081.427-.087 1.182.139 0 0 .008-.364-.284-.477-.292-.114-.508-.033-.445-.471.074-.52.242-1.575.396-1.857.154-.28-.718-.57-.718.051"/><path fill="#66757F" d="M13.46 18.128c.723.557 1.595 1.346 1.78 1.74.187.393.104 1.036.622 1.056s.807-.414 1.015-1.056.56-1.678.352-2.32c-.207-.641-3.044-.414-3.48-.227-.434.185-.828.392-.29.807"/><path fill="#CCD6DD" d="M11.56 7.078c0 .445-.361.751-.862.89-.5.139-1.335.111-1.78.556s-.667 1.558.807 2.67c0 0-.223-.39-.14-.668 0 0 .446.112.752-.055s.445-.528.723-.723c.279-.195.918-.362 1.03.417.11.779 1.214-.233 1.371-.464.242-.352.9-1.418.65-1.724-.251-.306-.706-.538-.928-.816s-1.623-.083-1.623-.083"/><path fill="#E1E8ED" d="M11.56 7.078c0 .445-.361.751-.862.89-.5.139-1.335.111-1.78.556s-.667 1.558.807 2.67c0 0-.223-.39-.14-.668 0 0 .446.112.752-.055s.445-.528.723-.723c.279-.195.918-.362 1.03.417.11.779 1.084-.056 1.112-.334s.139-.612-.111-.918-1.057-.334-1.28-.612-.25-1.223-.25-1.223"/><path fill="#FFAC33" d="M9.494 10.282c.093-.278.255-.416.486-.547.225-.492.296-1.168.253-1.678-.458.07-.99.142-1.314.467-.43.43-.647 1.482.665 2.555a.92.92 0 0 1-.09-.797"/><path fill="#FFAC33" d="m10.617 9.568-.049.04c-.296.241-.704.285-.944.73a.4.4 0 0 0-.036.189c.01.002.447.109.75-.056.045-.025.082-.061.12-.094.164-.202.17-.596.159-.809"/><path fill="#C1694F" d="M11.477 8.737c-.481.093-.779.63-1.186.835q-.174.085-.311.163c-.232.131-.393.27-.486.547a.92.92 0 0 0 .09.797c.046.038.09.077.141.115 0 0-.222-.39-.139-.667h.002c0-.07.008-.137.035-.189.242-.445.65-.489.946-.73l.048-.04c.295-.246.713-.646 1.064-.664.37-.018 1.113.093 1.113.093s-.834-.353-1.317-.26"/><path fill="#7F8E97" d="M11.57 7.29c-.142-.04-.236-.26-.167-.445.08-.21.63-.649 1.595-.593.964.055 2.3.742 2.336 2.559s-.872 2.355-1.224 2.78c-.352.428-.352.984.482 1.02.835.038-.11 2.004-.76 2.8-.649.798-2.41 1.836-3.115.854-.704-.983-1.056-1.465-1.094-2.56-.037-1.093.52-2.02 1.15-2.558s1.205-.63 1.298-1.15c0 0 .315.038.5-.24.186-.279.427-.279.668-.316s.668-.537.649-.908c-.018-.364-.211-.914-.491-1.15-.575-.482-1.47.011-1.827-.093"/><path fill="#292F33" d="M12.72 8.417a.417.417 0 1 0 0-.833.417.417 0 0 0 0 .833"/><path fill="#7F8E97" d="M13.777 12.402c.37.208 1.117.143 1.45.048s1.45-.333 2.163-.238 1.758.617 2.328.95.975.476 1.331.262c.357-.214 1.118 1.616 1.213 2.567.095.95.166 1.806-.713 2.495-.88.69-2.392 1.47-4.73 1.331-2.38-.14-6.192-1.35-6.327-4.019-.155-3.087.267-2.445 1.099-3.087.831-.642 1.592-.642 2.186-.31"/><path fill="#FFAC33" d="M17.365 21.223c-.021.643-.025 1.485-.445 1.832-.42.346-2.154.57-2.402.816-.247.248-.42.644-.148.57s.669-.075.669-.075-.495.273-.644.52c-.148.248-.148.694.05.62.197-.075 1.139-.57 1.336-.62 0 0-.173.371-.148.594a.315.315 0 0 0 .223.272s.643-.495.89-.693c.249-.198.62-.718.818-.866s.47-.223 1.41-.173c0 0-.123-.347-.494-.396-.372-.05-.842.049-.743-.471s.396-1.782.495-2.153c.099-.37-.842-.52-.867.223"/><path fill="#99AAB5" d="M14.865 18.426c.865.665 1.906 1.609 2.13 2.08.222.47.123 1.237.742 1.261.619.025.965-.495 1.213-1.262.247-.767.668-2.005.42-2.772s-3.638-.495-4.158-.272-.99.47-.347.965"/><path fill="#66757F" d="M13.563 14.503c-.18.451-.167 1.808.167 2.086.334.279.803.668.834 1.002.056.583.724 1.501 1.419 1.863.695.361 1.668.361 2.086.306.417-.056.695-.528.556-1.307-.14-.78-.529-1.67-1.113-1.836 0 0 .696-.528.696-1 0-.474-.668-1.587-1.085-1.92-.417-.334-3.17-.167-3.56.806"/><path fill="#7F8E97" d="M13.473 14.34c-.18.452.062 1.777.396 2.055s.89.778.917 1.112.501 1.28 1.197 1.641c.695.362 1.446.473 1.863.418.417-.056.751-.362.611-1.14-.138-.78-.389-1.753-1.251-1.892 0 0 .834-.473.834-.946 0-.472-.496-1.72-.913-2.054s-3.264-.167-3.654.807"/><path fill="#CCD6DD" d="M20.444 13.513c.127-.616.82-1.237 1.612-1.186.512.033 1.024.248 1.246.66.234.434-.032.842-.032.842s.198.289.132.775c-.058.429-.413.446-.413.446s-.17.746-.445 1.04c-.793.841-.94.783-.94.783s.164-.486.239-.932c0 0-.264-.041-.264-.487 0-.445-.01-.76-.182-1.304-.166-.519-.953-.637-.953-.637m-4.235 3.182s.672-.045.986.045 1.054.606.65.628-1.636-.673-1.636-.673m-.045.448s.874.135 1.188.225 1.054.646.65.628c-.964-.045-1.838-.853-1.838-.853m.201.56s.875.293 1.189.382 1.054.49.65.47c-.964-.044-1.839-.851-1.839-.851m0 .539s.875.291 1.189.38 1.054.49.65.471c-.964-.044-1.839-.851-1.839-.851m-.598-2.717s.922.018 1.248.011c.326-.008 1.151.155.76.257-.933.243-2.008-.268-2.008-.268m.464-.354s.548-.098.874-.105c.326-.008.997.183.605.284-.695.179-1.48-.18-1.48-.18m.112-.404s.503-.06.83-.068c.326-.007.884.101.493.202-.695.18-1.323-.134-1.323-.134m-.134 4.035s.627.157.941.247 1.054.49.65.47c-.964-.044-1.591-.717-1.591-.717m-.45-2.735s.55-.132.874-.104c.326.027 1.129.276.729.336-.954.142-1.602-.232-1.602-.232"/></g></svg>