<svg xmlns="http://www.w3.org/2000/svg" width="32" height="32" fill="none"><defs><filter id="a"><feMorphology in="SourceAlpha" operator="dilate" radius="1" result="expanded"/><feFlood flood-color="#fff" result="color"/><feComposite in="color" in2="expanded" operator="in"/><feComposite in="SourceGraphic"/></filter></defs><g filter="url(#a)"><path fill="#DD2E44" d="M14.5 20.5v3s0 1.5 1.5 1.5 1.5-1.5 1.5-1.5v-3z"/><path fill="#BE1931" d="M14.5 23.5v.018c.521-.017 1.008-.137 1.316-.643a.213.213 0 0 1 .368 0c.308.506.796.626 1.316.643V20.5h-3z"/><path fill="#D99E82" d="M22.977 17.81c0 3.138-2.5 3.138-2.5 3.138h-9s-2.5 0-2.5-3.139c0-3.362 2.5-9.309 7-9.309s7 6.448 7 9.31"/><path fill="#F4C7B5" d="M16 17c-3.5 0-5 1.764-5 3.198a2.75 2.75 0 0 0 2.75 2.75c.803 0 1.521-.332 2.024-1.384a.248.248 0 0 1 .451 0c.503 1.052 1.223 1.384 2.024 1.384a2.75 2.75 0 0 0 2.75-2.75C21 18.764 19.5 17 16 17"/><path fill="#292F33" d="M14.5 18.448c-.5.5 1 2 1.5 2s2-1.5 1.5-2-2.5-.5-3 0m-1-1.948c-.55 0-1-.45-1-1v-1c0-.55.45-1 1-1s1 .45 1 1v1c0 .55-.45 1-1 1m5 0c-.55 0-1-.45-1-1v-1c0-.55.45-1 1-1s1 .45 1 1v1c0 .55-.45 1-1 1"/><path fill="#662113" d="M14.5 8.803c-.53-.704-1.66-1.363-6.086.296-2.072.777-1.06 6.802.553 7.193.553 0 2.214 0 2.214-4.426q0-.163-.003-.313c.997-1.405 2.072-2.125 3.322-2.75m9.086.296c-4.426-1.66-5.556-1-6.086-.296 1.25.625 2.325 1.346 3.322 2.75q-.002.15-.002.313c0 4.426 1.659 4.426 2.212 4.426 1.614-.39 2.626-6.416.554-7.193"/><path fill="#D99E82" d="M18.75 20a.25.25 0 1 0 0-.5.25.25 0 0 0 0 .5M12.75 20a.25.25 0 1 0 0-.5.25.25 0 0 0 0 .5M19.75 21a.25.25 0 1 0 0-.5.25.25 0 0 0 0 .5M12.25 21a.25.25 0 1 0 0-.5.25.25 0 0 0 0 .5M18.5 21.5a.5.5 0 1 0 0-1 .5.5 0 0 0 0 1M13.5 21.5a.5.5 0 1 0 0-1 .5.5 0 0 0 0 1"/><path fill="#380F09" d="M11.942 10.616c-.13-.336-.317-.698-.588-.97a.5.5 0 1 0-.707.708c.285.285.533.967.534 1.173.072-.202.42-.575.76-.91m8.108 0c.13-.336.317-.698.588-.97a.5.5 0 1 1 .707.708c-.285.285-.533.967-.534 1.173-.072-.202-.42-.575-.76-.91"/></g></svg>