<svg xmlns="http://www.w3.org/2000/svg" width="32" height="32" fill="none"><defs><filter id="a"><feMorphology in="SourceAlpha" operator="dilate" radius="1" result="expanded"/><feFlood flood-color="#fff" result="color"/><feComposite in="color" in2="expanded" operator="in"/><feComposite in="SourceGraphic"/></filter></defs><g filter="url(#a)"><path fill="#4292E0" d="M21.292 11.927A5.2 5.2 0 0 1 22.78 9c.352-.352.125-1-.5-1 0 0-3.03.004-4.947 1.664A7.5 7.5 0 0 0 15.78 9.5c-4 0-6 2-7 6-.222.889-.433.7-1.5 1.5-.598.448-1.059 1.5.5 1.5 1.5 0 2.5.477 4.5.5 1.814.021 4.752-1.614 5.543-.646 1.106 1.353.698 2.719.299 3.333-1.452 1.698-2.97.27-4.343-.187-1.5-.5-.5.5 0 1s.656 2 0 3 1.5 0 2.5-1.5q.009-.012.016-.023c3.901-.227 6.985-3.009 6.985-6.977a7.47 7.47 0 0 0-1.988-5.073"/><path fill="#1F2326" d="M12.559 16a1 1 0 1 0 0-2 1 1 0 0 0 0 2"/><path fill="#77BCF7" d="M11.198 18.949s2-.438 3.583-1.344c2.313-1.323 3.63-1.297 4.443-.412.812.886.995 3.297-1.443 4.839 1.302-1.375.573-4.175-1.007-3.794-4.076.982-4.451.773-5.576.71"/><path fill="#4292E0" d="m15.691 16.872-1.46.642a.27.27 0 0 0-.207.28c.061.753.378 1.813 1.132 2.315 1.177.785 1.183.949 1.5 0 .384-1.151-.091-2.23-.667-3.12a.28.28 0 0 0-.298-.117"/></g></svg>