<svg xmlns="http://www.w3.org/2000/svg" width="32" height="32" fill="none"><defs><filter id="a"><feMorphology in="SourceAlpha" operator="dilate" radius="1" result="expanded"/><feFlood flood-color="#fff" result="color"/><feComposite in="color" in2="expanded" operator="in"/><feComposite in="SourceGraphic"/></filter></defs><g filter="url(#a)"><path fill="#FFAC33" d="M24.668 17.974c-.523 3.135-3.86 5.226-8.622 5.226s-8.1-2.091-8.622-5.226c-.123-.74.078-4.06.527-4.703 1.28-1.832 1.737 5.182 8.095 5.182 6.923 0 6.82-7.013 8.1-5.182.448.643.645 3.964.522 4.703"/><path fill="#8A4B38" d="M16.046 9.198c-4.665 0-8.447 2.292-8.447 5.12 0 2.827 3.782 5.12 8.447 5.12s8.448-2.293 8.448-5.12-3.783-5.12-8.448-5.12m0 6.687c-1.587 0-2.874-.35-2.874-.784 0-.433 1.287-.783 2.874-.783s2.874.35 2.874.783-1.287.784-2.874.784"/><path fill="#8A4B38" d="M7.86 13.511c-.327.523-.46 2.747.24 3.789 1.066 1.59 1.589.783 2.373 1.023 1.167.358 1.254 1.28 2.177 1.742 1.045.522 1.653.37 3.135 0 2.09-.523 3.418.544 4.702 0 1.054-.447 1.656-2.069 2.243-2.264 1.864-.621 2.258-3.562.87-4.769-.434.915-2.568 4.202-3.94 4.355s-5.487.5-7.228-.392c-1.742-.892-3.505-2.003-3.723-2.308s-.85-1.176-.85-1.176"/><path fill="#F4900C" d="M16.046 13.14c-1.876 0-3.397.615-3.397 1.372 0 .295.232.567.623.79-.063-.064-.1-.132-.1-.202 0-.433 1.287-.783 2.874-.783 1.586 0 2.873.35 2.873.783 0 .07-.036.137-.1.202.391-.223.623-.495.623-.79 0-.757-1.52-1.371-3.396-1.371"/><path fill="#F4ABBA" d="M9.21 15.276a.523.523 0 0 1-.244-.985l1.154-.61a.521.521 0 1 1 .488.924l-1.154.61a.5.5 0 0 1-.244.06m5.944 3.897a.52.52 0 0 1-.483-.323l-.37-.893a.522.522 0 1 1 .965-.4l.37.893a.522.522 0 0 1-.482.723"/><path fill="#55ACEE" d="M21.076 17.082a.522.522 0 0 1-.449-.788l.566-.958a.523.523 0 0 1 .9.532l-.567.957a.52.52 0 0 1-.45.257"/><path fill="#F4ABBA" d="M21.947 13.2a.54.54 0 0 1-.522-.522.53.53 0 0 1 .503-.55l.61-.026a.52.52 0 0 1 .54.501.54.54 0 0 1-.503.558l-.61.04zm-5.051-2.061a.524.524 0 0 1-.158-1.021l.413-.13a.523.523 0 0 1 .316.997l-.413.13a.5.5 0 0 1-.158.024"/><path fill="#88C9F9" d="M14 11.987a.5.5 0 0 1-.234-.055l-.392-.196a.523.523 0 0 1 .467-.935l.392.196a.523.523 0 0 1-.234.99m4.55 6.64a.5.5 0 0 1-.232-.054l-.392-.196a.523.523 0 0 1 .465-.935l.392.195a.523.523 0 0 1-.233.99"/><path fill="#55ACEE" d="M11.713 17.475a.522.522 0 0 1-.48-.729l.196-.457a.522.522 0 1 1 .96.412l-.196.457a.52.52 0 0 1-.48.317m7.796-4.943a.522.522 0 0 1-.21-1.001l.348-.153a.522.522 0 1 1 .419.958l-.348.152a.5.5 0 0 1-.21.044m-8.492-.021a.5.5 0 0 1-.117-.014l-.283-.065a.523.523 0 0 1 .234-1.018l.283.065a.523.523 0 0 1-.117 1.032"/></g></svg>