<svg xmlns="http://www.w3.org/2000/svg" width="32" height="32" fill="none"><defs><filter id="a"><feMorphology in="SourceAlpha" operator="dilate" radius="1" result="expanded"/><feFlood flood-color="#fff" result="color"/><feComposite in="color" in2="expanded" operator="in"/><feComposite in="SourceGraphic"/></filter></defs><g filter="url(#a)"><path fill="#3E721D" d="M25.514 13.413c0-.556.428-1.293.428-1.464 0-.364-.863-.234-.903-.58-.116-.998 1.048-1.844-.97-1.84-.75 0-.152-.983-.152-1.515s-1.442-.08-1.973-.08-.532-1.595-1.063-1.595c-1.594 0-2.126 1.595-2.657 1.595s-.969-2.012-1.594-1.595c-1.595 1.063-2.126 4.252-2.126 4.252s2.657-2.126 5.845-1.595c2.97.495 2.662 6.012 3.134 9.383l-3.811 7.62h1.866c.19-.833 1.077-.293 1.32-.937.21-.565-.373-1.092-.053-1.65s.543-.419 1.163-.763c.658-.365 0-1.222 0-1.754 0-.53 1.285-.874 1.285-1.406 0-.35-.593-.718-.451-1.309.143-.59.88-.659.971-1.213.077-.47-.511-.808-.442-1.33.07-.52.652-.765.652-1.165.002-.398-.47-.556-.47-1.059"/><path fill="#77B255" d="M25.132 13.477c0-2.243-1.594-5.047-5.314-5.047s-9.592 5.569-11.16 5.609C7.594 12.956 6 14.069 6 15.159c0 1.682 2.985 2.561 3.137 2.722.604.638 2.177 4.49 4.835 1.08.446-.572.724-.234 1.935.302C19.927 21.405 14.89 26 14.89 26h5.314c2.657-2.657 4.929-7.69 4.929-12.22l-.012.004c.004-.103.012-.205.012-.307"/><path fill="#292F33" d="M19.286 12.716a1.063 1.063 0 1 1-2.125 0 1.063 1.063 0 0 1 2.125 0"/><path fill="#3E721D" d="M8.657 15.639c0 .44-.357.266-.797.266s-.797.175-.797-.266a.798.798 0 0 1 1.594 0"/><path fill="#fff" d="M16.098 16.434c0 .588-.357.531-.798.531-.44 0-.796.056-.796-.53s.356-2.126.796-2.126.798 1.539.798 2.125m-2.126.531c0 .588-.357.532-.797.532s-.798.056-.798-.532c0-.586.358-2.125.798-2.125s.797 1.54.797 2.125"/><path fill="#3E721D" d="M16.022 16.442c-2.82.403-5.662 1.115-6.885 1.439.152.16.367.528.645.93 1.342-.347 3.875-.958 6.39-1.316a.532.532 0 1 0-.15-1.053m.305-3.437a.555.555 0 0 1-.393-.947c.072-.072 1.79-1.757 4.644-1.757a.555.555 0 1 1 0 1.11c-2.378 0-3.846 1.42-3.86 1.434a.55.55 0 0 1-.39.16"/></g></svg>