<svg xmlns="http://www.w3.org/2000/svg" width="32" height="32" fill="none"><defs><filter id="a"><feMorphology in="SourceAlpha" operator="dilate" radius="1" result="expanded"/><feFlood flood-color="#fff" result="color"/><feComposite in="color" in2="expanded" operator="in"/><feComposite in="SourceGraphic"/></filter></defs><g filter="url(#a)"><path fill="#D99E82" d="M12.583 16.86c.681 1.22 1.031-.755 5.174-1.457 4.142-.703 7.627 2.474 7.7 3.007.072.532-2.471 5.256-5.257 5.256h-8.728c-2.301 0-3.9-4.013-2.222-6.354 0 0 2.5-1.944 3.333-.451"/><path fill="#C1694F" d="M12.727 17.076c-2.771 3.853-3.355 6.59-1.255 6.59-2.301 0-3.654-3.437-2.482-6.128.257-.59.977-1.384.977-1.384l2.321-.005c.09.178.333.759.439.927"/><path fill="#99AAB5" d="M16.646 19.64c3.706-1.49 8.738-1.762 8.81-1.23.073.533-2.47 5.257-5.256 5.257h-8.137c-2.302 0 .684-2.46 4.583-4.028"/><path fill="#292F33" d="M19.588 18.736c3.334-.729 5.816-.712 5.869-.326.044.32-.866 2.17-2.207 3.585 1.224-1.558.788-3.396-3.662-3.26"/><path fill="#3E721D" d="M9.458 10.403c.868-2.744 5.8-2.302 5.59.382-.21 2.683-3.585 4.366-2.322 6.29-.88.767-2.786.508-3.737.463.39-.75.767-1.462 1.007-1.892 1.62-2.908-1.184-3.202-.538-5.243"/><path fill="#FFCC4D" d="M6.552 12.025c.315-.612.305.058 1.862.078.863.012.813-.31.925-.9.022-.124.43.898 1.144 1.004 1.975.295 1.044 1.077 0 1.256-.5.085-1.116.177-2.187.086-1.4-.118-2.094-.849-1.744-1.524"/><path fill="#F5F8FA" d="M12.446 16.236c.024.348.28.84.28.84-.564.819-3.134 1.676-4.085 1.628.053-.35.157-.757.348-1.165 1.025-.262 2.59-.595 3.457-1.303"/><path fill="#292F33" d="M12.004 10.418a.72.72 0 1 1-1.44 0 .72.72 0 0 1 1.44 0"/></g></svg>