<svg xmlns="http://www.w3.org/2000/svg" width="32" height="32" fill="none"><defs><filter id="a"><feMorphology in="SourceAlpha" operator="dilate" radius="1" result="expanded"/><feFlood flood-color="#fff" result="color"/><feComposite in="color" in2="expanded" operator="in"/><feComposite in="SourceGraphic"/></filter></defs><g filter="url(#a)"><path fill="#99AAB5" d="M24.227 14.286c-.432-3.65-2.865-5.223-6.965-5.223-.196 0-.382.008-.57.015l-.017-.015c-2.347-1.76-7.63-1.174-8.802.587-1.628 2.441-.587 11.15 0 12.323.586 1.175 2.347 1.76 2.934 1.175.587-.588 0-.588-.587-1.76-.425-.851-.233-2.93.128-4.236.014.084.034.16.05.243.195 1.435.996 3.706.996 4.872 0 1.782 1.051 2.053 2.347 2.053s2.348-.271 2.348-2.053c0-.12-.004-.232-.006-.348.378.032.767.054 1.18.054q.371-.001.723-.02c-.002.105-.006.205-.006.314 0 1.782 1.051 2.053 2.347 2.053s2.347-.271 2.347-2.053c0-.9.596-2.313 1.02-3.491a6 6 0 0 0 .21-.559c.059.654.096 1.353.096 2.103a.5.5 0 1 0 1 0c0-2.576-.385-4.624-.773-6.034"/><path fill="#66757F" d="M16.675 9.063S18.5 11.82 17 14.32s-3.92 2.5-5.5 2.5c-1 0-.5 1 0 1 .707 0 4.197.605 6-3 1.5-3-.825-5.757-.825-5.757"/><path fill="#292F33" d="M10.25 14.32a.75.75 0 1 0 0-1.5.75.75 0 0 0 0 1.5"/></g></svg>