<svg xmlns="http://www.w3.org/2000/svg" width="32" height="32" fill="none"><defs><filter id="a"><feMorphology in="SourceAlpha" operator="dilate" radius="1" result="expanded"/><feFlood flood-color="#fff" result="color"/><feComposite in="color" in2="expanded" operator="in"/><feComposite in="SourceGraphic"/></filter></defs><g filter="url(#a)"><path fill="#3B88C3" d="M23.077 17c0-.5.761-3.106 1.523-3.867s0-1.583-.762-1.583c-1.702 0-4.569 3.45-4.569 5.45 0 2.5 2.867 5.212 4.57 5.212.761 0 1.523-.702.761-1.464-.762-.76-1.524-2.748-1.524-3.748"/><path fill="#3B88C3" d="M11.51 12.192c0-1.523.75-3.046 1.51-3.046 2.285 0 6.662 2.411 7.423 6.219s-8.932-3.173-8.932-3.173m2.428 9.139c.761.762 2.285 1.524 3.808 1.524s-1.555-2.095-.761-3.047c1.09-1.308-3.047 1.523-3.047 1.523"/><path fill="#000" d="M8.035 19.364c.38-1.143.095-1.968-.571-2.792-.667-.826 1.936-.952 2.792.19.857 1.143 2.857 3.14 1.08 3.11-1.777-.032-3.3-.508-3.3-.508"/><path fill="#55ACEE" d="M7.084 16.744c.48.437 3.611 2.155 3.582 2.569s-1.139-.044-1.552-.14c-.743-.17-.953-.299-1.159-.263-.42.16-.277.6-.12.852.748 1.305 3.642 2.331 6.08 2.331 4.206 0 8.4-3.807 8.4-5.33s-4.672-5.332-8.878-5.332c-4.196 0-6.347 3.03-6.353 5.313"/><path fill="#000" d="M10.5 13.5a1 1 0 1 1 0 2 1 1 0 0 1 0-2"/><path fill="#269" d="M14.54 19.99a.5.5 0 0 1-.442-.731c.792-1.517 1.109-2.884.077-4.622a.5.5 0 0 1 .86-.51c1.346 2.267.73 4.1-.051 5.595a.5.5 0 0 1-.444.268"/></g></svg>