<svg xmlns="http://www.w3.org/2000/svg" width="32" height="32" fill="none"><defs><filter id="a"><feMorphology in="SourceAlpha" operator="dilate" radius="1" result="expanded"/><feFlood flood-color="#fff" result="color"/><feComposite in="color" in2="expanded" operator="in"/><feComposite in="SourceGraphic"/></filter></defs><g filter="url(#a)"><path fill="#EA596E" d="M18.724 21.305c.676-.45 1.24-.435 1.707-.032-.242-.628-1.305-2.013-1.305-2.013z"/><path fill="#F4ABBA" d="m18.75 21.377-.051-.004a.407.407 0 0 1-.354-.453l.237-1.916a.4.4 0 0 1 .146-.265l2.471-2.014-3.949-2.129a.406.406 0 1 1 .387-.716l4.485 2.418a.405.405 0 0 1 .063.673l-2.817 2.294-.216 1.754a.405.405 0 0 1-.403.358"/><path fill="#E1E8ED" d="M8.989 7.957 6.82 10.126c-.542.542-.542 2.169-.542 3.253s1.084 1.085 1.084 0 2.17-2.71 3.796-3.253c1.627-.542-2.17-2.169-2.17-2.169"/><path fill="#292F33" d="M6.82 10.126c-.542.542-.542 2.169-.542 3.253s1.084 1.085 1.084 0c0-.372.256-.809.658-1.243.768-.83-1.2-.383-1.2-2.01"/><path fill="#EA596E" d="M15.221 23.73c.29.483.266 1.268.157 1.715.532-.254 1.353-1.571 1.353-1.571z"/><path fill="#EA596E" d="M15.648 25.557c.515-.342 1.442-.319 1.989-.077s-.378-1.405-.378-1.405l-1.353.837z"/><path fill="#F4ABBA" d="M20.376 21.377a.4.4 0 0 1-.339-.18l-1.084-1.627a.407.407 0 0 1 .676-.451l1.085 1.626a.407.407 0 0 1-.338.632m-3.254 2.712h-1.626a.407.407 0 0 1 0-.814h1.22v-8.269a.407.407 0 0 1 .813 0v8.676a.407.407 0 0 1-.407.407"/><path fill="#F4ABBA" d="M17.664 25.716a.41.41 0 0 1-.386-.278l-.334-1.002-1.161 1.16a.406.406 0 1 1-.575-.574l1.627-1.627a.407.407 0 0 1 .673.159l.542 1.627a.407.407 0 0 1-.386.535"/><path fill="#EA596E" d="M10.616 10.668a2.169 2.169 0 1 0 0-4.338 2.169 2.169 0 0 0 0 4.338"/><path fill="#EA596E" d="M12.988 17.509a2.7 2.7 0 0 1-.937-.167c-1.126-.415-1.788-1.53-1.687-2.841.124-1.616 1.03-2.696 1.758-3.564.652-.78 1.018-1.245.942-1.78-.09-.635-.471-.93-.774-1.065-.593-.265-1.392-.159-2.037.271L9.351 7.01c1.115-.744 2.496-.898 3.603-.403.943.421 1.57 1.267 1.72 2.32.183 1.28-.575 2.182-1.306 3.055-.668.796-1.299 1.548-1.383 2.643-.044.584.19 1.029.629 1.191.476.175 1.3.022 2.044-.995l1.314.96c-.812 1.109-1.913 1.728-2.984 1.728"/><path fill="#EA596E" d="M14.411 15.549c-1.203-1.805 0-4.338 1.627-5.423s5.964-1.626 8.675 2.712c3.001 4.8-1.535 2.462-2.71 2.168-4.338-1.084-6.507 2.17-7.592.543"/><path fill="#292F33" d="M9.531 9.041a.542.542 0 1 0 0-1.084.542.542 0 0 0 0 1.084"/><path fill="#EA596E" d="M11.158 9.584c1.085-.542 2.364-.554.737 1.615-.65.868 2.935-2.595 1.088-4.542-.298-.314-2.449-.604-3.302-.096-.546.324 1.477 3.023 1.477 3.023M22.002 17.175a.542.542 0 1 0 0-1.084.542.542 0 0 0 0 1.084M17.122 20.428a.542.542 0 1 0 0-1.084.542.542 0 0 0 0 1.084"/></g></svg>