<svg xmlns="http://www.w3.org/2000/svg" width="32" height="32" fill="none"><defs><filter id="a"><feMorphology in="SourceAlpha" operator="dilate" radius="1" result="expanded"/><feFlood flood-color="#fff" result="color"/><feComposite in="color" in2="expanded" operator="in"/><feComposite in="SourceGraphic"/></filter></defs><g filter="url(#a)"><path fill="#F4900C" d="M13.716 12.501c.329 1.32.088 2.44-1.231 2.768-1.32.329-3.106 2.477-4.391-.719-.746-1.851-1.397-5.733-.657-5.917s5.95 2.549 6.279 3.868"/><path fill="#A0041E" d="M12.718 12.779c.48.769-.915 2.28-1.684 2.76-.769.481-1.45-.275-2.207-2.206-.33-.845-.833-3.135-.551-3.311.28-.176 3.962 1.988 4.442 2.757"/><path fill="#F4900C" d="M18.279 12.501c-.329 1.32-.089 2.44 1.231 2.768 1.32.329 3.105 2.477 4.391-.719.745-1.851 1.396-5.733.656-5.917s-5.95 2.549-6.278 3.868"/><path fill="#A0041E" d="M19.276 12.778c-.48.77.915 2.28 1.684 2.761.768.48 1.449-.276 2.206-2.207.331-.844.833-3.134.552-3.31s-3.962 1.987-4.442 2.756"/><path fill="#F4900C" d="M16 12.228c-3.31-1.104-5.735.987-7.724 4.966H9.38s-1.104 1.103-1.656 2.759C8.828 19.4 9.38 19.4 9.38 19.4s-.552 1.104-.552 1.656c1.655-1.104 3.31-1.104 4.414.551s2.759 0 2.759-2.207z"/><path fill="#F4900C" d="M16 12.228c3.311-1.104 5.736.987 7.724 4.966h-1.102s1.102 1.103 1.654 2.758c-1.103-.552-1.654-.552-1.654-.552s.551 1.104.551 1.656c-1.655-1.104-3.31-1.104-4.414.552-1.104 1.655-2.759 0-2.759-2.207z"/><path fill="#F4900C" d="M16 11.745c-5.668 0-4.803 2.185-4.196 5.816.607 3.633 1.325 6.21 4.197 6.21 2.87 0 3.587-2.577 4.195-6.21.607-3.632 1.47-5.815-4.195-5.816"/><path fill="#F18F26" d="M24.354 20.62c-.042-2.854-4.65-1.872-5.043-1.486-.552.542-.554 3.853-3.312 3.853s-3.31-3.31-3.861-3.853c-.394-.386-4.617-.701-4.513 1.486 1.103-.552 1.754-.392 1.754-.392s-.713.413-.608 1.392c1.604-.729 2.354-.625 3.229-.187.606 1.811 2.103 3.166 4 3.166s3.373-1.397 3.98-3.208c.728-.625 1.853-.437 3.207.208.146-.916-.566-1.37-.566-1.37s.63-.16 1.733.391"/><path fill="#FFD983" d="M24.277 19.953c-.452-1.36-4.573-2.032-4.966-1.646-.552.542-.554 3.853-3.311 3.853-2.758 0-3.31-3.31-3.862-3.853-.393-.386-3.96.287-4.414 1.646C8.828 19.4 9.38 19.4 9.38 19.4s-.552 1.104-.552 1.656c1.335-.89 2.67-1.061 3.714-.226.607 1.811 1.561 2.941 3.459 2.941 1.896 0 2.85-1.13 3.456-2.94 1.046-.837 2.381-.665 3.717.225 0-.552-.552-1.656-.552-1.656s.552 0 1.655.552"/><path fill="#272B2B" d="M12.5 16.1s0-.75.75-.75.75.75.75.75v.75s0 .75-.75.75-.75-.75-.75-.75zm5.5 0s0-.75.75-.75.75.75.75.75v.75s0 .75-.75.75-.75-.75-.75-.75zm-3.53 5.405c-.51.104 1.02 1.984 1.531 1.984s2.041-1.88 1.531-1.984-2.552-.104-3.062 0"/></g></svg>