<svg xmlns="http://www.w3.org/2000/svg" width="32" height="32" fill="none"><defs><filter id="a"><feMorphology in="SourceAlpha" operator="dilate" radius="1" result="expanded"/><feFlood flood-color="#fff" result="color"/><feComposite in="color" in2="expanded" operator="in"/><feComposite in="SourceGraphic"/></filter></defs><g filter="url(#a)"><path fill="#C6E5B3" d="M25 18c0 3.728-4.03 6-9 6s-9-2.272-9-6 4.03-7.5 9-7.5 9 3.772 9 7.5"/><path fill="#77B255" d="M22.878 13.338a3 3 0 1 0-4.803-2.995A5.9 5.9 0 0 0 16 9.962c-.732 0-1.43.138-2.075.38a3 3 0 1 0-4.802 2.995C7.8 14.678 7 16.343 7 18c0 3.728 4.03.5 9 .5s9 3.228 9-.5c0-1.657-.8-3.322-2.122-4.662"/><path fill="#fff" d="M10.75 12.5a1.75 1.75 0 1 0 0-3.5 1.75 1.75 0 0 0 0 3.5"/><path fill="#292F33" d="M10.75 11.5a.75.75 0 1 0 0-1.5.75.75 0 0 0 0 1.5"/><path fill="#fff" d="M21.25 12.5a1.75 1.75 0 1 0 0-3.5 1.75 1.75 0 0 0 0 3.5"/><path fill="#292F33" d="M21.25 11.5a.75.75 0 1 0 0-1.5.75.75 0 0 0 0 1.5"/><path fill="#5C913B" d="M14 17.5a.5.5 0 1 0 0-1 .5.5 0 0 0 0 1M18 17.5a.5.5 0 1 0 0-1 .5.5 0 0 0 0 1"/></g></svg>