<svg xmlns="http://www.w3.org/2000/svg" width="32" height="32" fill="none"><defs><filter id="a"><feMorphology in="SourceAlpha" operator="dilate" radius="1" result="expanded"/><feFlood flood-color="#fff" result="color"/><feComposite in="color" in2="expanded" operator="in"/><feComposite in="SourceGraphic"/></filter></defs><g filter="url(#a)"><path fill="#F4900C" d="M18.343 25.786h-.001a.82.82 0 0 1-.666-.95l.328-1.859s.378-1.758-.598-3.027c.7-.65 2.791.047 2.791.047l-.903 5.123a.82.82 0 0 1-.951.666m-7.051-.011h-.002a.82.82 0 0 1-.665-.951l.729-3.903s.28-1.344.28-2.466c.634-.244 1.512 1.531 1.512 1.531l-.903 5.123a.82.82 0 0 1-.951.666m11.82-5.458a.547.547 0 0 1-.547-.538c-.007-.402-.169-2.403-2.736-2.403a.547.547 0 1 1 0-1.095c2.98 0 3.81 2.188 3.831 3.48a.547.547 0 0 1-.538.557z"/><path fill="#754C29" d="M14.459 15.584 12.537 8.93l.937-.567c.205.34.349.957.585 2.019.317 1.42.75 3.366 1.477 4.375a.55.55 0 0 1-.125.765c-.097.07-.952.063-.952.063M10.23 7.506V6.41a.41.41 0 0 1 .82 0v1.095zm1.295 0V6.41a.41.41 0 0 1 .821 0v1.095zM23.112 21.96c.605 0 1.095-.613 1.095-1.37 0-.755-.49-1.368-1.095-1.368s-1.095.613-1.095 1.369.49 1.368 1.095 1.368"/><path fill="#FFCC4D" d="M22.075 24.94s-.36-1.396-.554-2.307c-.185-.86-.57-2.212-.65-4.57a1.7 1.7 0 0 0-.077-.432c-.068-.183-.316-.518-.426-.669-.432-.584-1.118-.939-1.959-1.026-.713-.073-1.43-.102-2.141-.188-.328-.04-.611-.087-.79-.151-.909-.327-1.09-1.39-1.341-2.203-.445-1.439-.838-2.903-1.09-4.389l-.02.005.02-.005-.015-.091v-.225c.87-.397 1.55-1.605 1.095-2.06-.786-.393-1.57.062-1.951.552q-.016-.002-.033-.004H10.7c-.364 0-.725.09-1.04.284-.325.2-.548.504-.908.66-.436.192-.956.053-1.342.356-.661.519-.348 1.403.474 1.433.112.32.414.551.772.551h1.17q.043.01.096.016c.336.04.605.292.82.675.583 1.032.692 2.358.787 3.514q.101 1.208.088 2.422c-.163.87-.067 1.876-.067 1.876.025.233.103.432.219.609l-.005.006c1.105 1.56 1.36 3.316 1.36 3.316l.436 2.33a.821.821 0 0 0 1.617-.285l-.7-3.978c1.098.297 2.56.518 3.582.474q-.001.006-.001.01c1.317-.08 1.811.962 1.919 1.432s.482 2.349.482 2.349a.821.821 0 1 0 1.616-.286"/><path fill="#F4900C" d="M12.653 18.278c-.548.547-.645 1.337-.218 1.765s1.219.33 1.766-.217c.547-.548.644-1.338.217-1.766s-1.218-.33-1.765.218m.604-3.437a1.642 1.642 0 0 0 3.01.908c-.328-.04-.61-.087-.79-.152-.869-.312-1.04-1.242-1.251-1.911l-.09-.29c-.52.275-.879.815-.879 1.445m-.548-2.463c0-.756-.612-1.369-1.368-1.369-.216 0-.417.055-.599.143.353.626.564 1.603.69 2.585a1.364 1.364 0 0 0 1.277-1.359m-.607-2.266c0 .621.503 1.124 1.124 1.124.101 0 .197-.018.29-.043a29 29 0 0 1-.47-2.187 1.12 1.12 0 0 0-.944 1.106m4.987 6.92a1.642 1.642 0 0 0 3.285 0c0-.024-.006-.046-.007-.069-.432-.584-1.118-.94-1.96-1.026a32 32 0 0 0-.832-.071 1.64 1.64 0 0 0-.486 1.166m-4.646-9.58c.28-.269.732-.606.988-.476s.143.707-.648 1.195c.063-.244.306-.675-.34-.72"/><path fill="#292F33" d="M10.873 8.82a.547.547 0 1 0 0-1.094.547.547 0 0 0 0 1.094"/><path fill="#754C29" d="M17.693 24.636s-.635.75-.548.99c.088.238 1.523.272 1.806.012.282-.26-1.084-1.024-1.258-1.002m-7.013 0s-.634.75-.547.99c.086.238 1.523.272 1.805.012s-1.084-1.024-1.258-1.002m2.526 1.233c.076.218 1.537.183 1.78-.256s-1.487-.731-1.487-.731-.39.707-.293.987m6.891 0c.076.218 1.537.183 1.78-.256.245-.439-1.487-.731-1.487-.731s-.39.707-.293.987"/></g></svg>