<svg xmlns="http://www.w3.org/2000/svg" width="32" height="32" fill="none"><defs><filter id="a"><feMorphology in="SourceAlpha" operator="dilate" radius="1" result="expanded"/><feFlood flood-color="#fff" result="color"/><feComposite in="color" in2="expanded" operator="in"/><feComposite in="SourceGraphic"/></filter></defs><g filter="url(#a)"><path fill="#31373D" d="M9.5 15c0-2-2.5-1.5-2 .5S9 18 9 18zm13 0c0-2 2.5-1.5 2 .5S23 18 23 18z"/><path fill="#31373D" d="M23.325 17.869c0 5.446-2.345 7.043-7.325 7.043-4.979 0-7.325-1.597-7.325-7.043S11.02 7.162 16 7.162c4.98 0 7.325 5.26 7.325 10.707"/><path fill="#66757F" d="M20.784 18.5c.745-2.228 1.044-3.655-.222-3.655h-9.124c-1.266 0-.966 1.427-.222 3.656-2.464 5.6 4.367 5.911 4.784 5.911s7.151-.53 4.784-5.911"/><path fill="#31373D" d="M14.5 16.001a1 1 0 0 1-2 0c0-.552.448-.5 1-.5s1-.052 1 .5m5 0a1 1 0 0 1-2 0c0-.552.448-.5 1-.5s1-.052 1 .5M14.786 19.327c.395 0 .714-.224.714-.5s-.32-.5-.714-.5-.714.224-.714.5.32.5.714.5M17.928 18.827c0 .277-.32.5-.714.5-.395 0-.714-.223-.714-.5 0-.276.319-.5.714-.5s.714.224.714.5"/><path fill="#99AAB5" d="M17.51 17.52c-.983-.13-1.51.417-1.51.417s-.528-.547-1.51-.417c-1.579.209-1.643 1.643-.97 1.553.383-.053.067-.47.856-.779.79-.308 1.624.33 1.624.33s.833-.637 1.623-.329.473.726.857.778c.673.09.609-1.344-.97-1.553"/><path fill="#31373D" d="M19.418 22.01c-.605.162-1.602.298-3.418.298-1.815 0-2.812-.136-3.418-.298-1.602-.427-.961-.867 0-.738.962.13 1.816.207 3.418.207s2.457-.078 3.418-.207c.961-.13 1.602.311 0 .738"/><path fill="#66757F" d="M9.126 15.312c.702-.613-.539-1.883-1.098-1.272-.17.186.46-.094.668.543.154.47 0 1.104.43.729m13.747 0c-.701-.613.539-1.883 1.098-1.272.17.186-.46-.094-.669.543-.153.47 0 1.104-.43.729"/></g></svg>