<svg xmlns="http://www.w3.org/2000/svg" width="32" height="32" fill="none"><defs><filter id="a"><feMorphology in="SourceAlpha" operator="dilate" radius="1" result="expanded"/><feFlood flood-color="#fff" result="color"/><feComposite in="color" in2="expanded" operator="in"/><feComposite in="SourceGraphic"/></filter></defs><g filter="url(#a)"><path fill="#77B255" d="M12 13a.5.5 0 0 1-.223-.053c-2.19-1.095-3.742-3.763-4.25-5.29a.5.5 0 1 1 .948-.316c.438 1.316 1.844 3.759 3.75 4.711A.5.5 0 0 1 12 13"/><path fill="#553788" d="M16.5 25a3.5 3.5 0 1 0 0-7 3.5 3.5 0 0 0 0 7"/><path fill="#9266CC" d="M12 18a3.5 3.5 0 1 0 0-7 3.5 3.5 0 0 0 0 7"/><path fill="#AA8DD8" d="M16.5 16.5a3.5 3.5 0 1 0 0-7 3.5 3.5 0 0 0 0 7"/><path fill="#744EAA" d="M20.5 19.5a3.5 3.5 0 1 0 0-7 3.5 3.5 0 0 0 0 7M11.5 23.5a3.5 3.5 0 1 0 0-7 3.5 3.5 0 0 0 0 7"/><path fill="#9266CC" d="M16 21a3.5 3.5 0 1 0 0-7 3.5 3.5 0 0 0 0 7"/><path fill="#9266CC" d="M21.5 25a3.5 3.5 0 1 0 0-7 3.5 3.5 0 0 0 0 7"/></g></svg>