<svg xmlns="http://www.w3.org/2000/svg" width="32" height="32" fill="none"><defs><filter id="a"><feMorphology in="SourceAlpha" operator="dilate" radius="1" result="expanded"/><feFlood flood-color="#fff" result="color"/><feComposite in="color" in2="expanded" operator="in"/><feComposite in="SourceGraphic"/></filter></defs><g filter="url(#a)"><path fill="#6D6E71" d="M21.938 16.784A5.937 5.937 0 0 1 16 22.722a5.938 5.938 0 1 1 5.938-5.938"/><path fill="#662113" d="M20.444 24.111h-8.888c-.925 0-1.378-.743-1.535-1.283l-1.48-.031a.277.277 0 0 1-.263-.35l.33-1.231-1.359-.362a.278.278 0 0 1-.166-.411l.666-1.108-1.198-.662a.28.28 0 0 1-.057-.444l.96-.915-.96-.915a.28.28 0 0 1 .057-.444l1.198-.664-.667-1.107a.278.278 0 0 1 .167-.412l1.359-.361-.33-1.232a.278.278 0 0 1 .262-.35l1.431-.03.032-1.279a.278.278 0 0 1 .338-.264l1.4.312.399-1.241a.279.279 0 0 1 .388-.163l1.27.632.744-1.116a.28.28 0 0 1 .195-.12c.08-.011.159.013.219.065L16 9.533l1.044-.91a.278.278 0 0 1 .414.056l.745 1.116 1.27-.632a.278.278 0 0 1 .388.163l.398 1.241 1.4-.312a.278.278 0 0 1 .338.264l.032 1.28 1.43.029a.277.277 0 0 1 .263.35l-.331 1.231 1.36.361a.277.277 0 0 1 .167.412l-.666 1.108 1.197.663a.278.278 0 0 1 .057.445l-.96.914.96.915a.278.278 0 0 1-.057.444l-1.197.663.667 1.107a.278.278 0 0 1-.167.412l-1.361.361.33 1.231a.278.278 0 0 1-.262.35l-1.48.031c-.157.542-.61 1.285-1.535 1.285"/><path fill="#8A4B38" d="M14.994 21.513q-.02 0-.037-.002a.28.28 0 0 1-.195-.122l-.587-.88-1.003.499a.279.279 0 0 1-.389-.164l-.313-.976-1.106.245a.277.277 0 0 1-.338-.264L11 18.847l-1.127-.024a.277.277 0 0 1-.263-.35l.258-.962-1.067-.284a.278.278 0 0 1-.166-.411l.52-.865-.937-.52a.276.276 0 0 1-.058-.444l.751-.716-.75-.715a.28.28 0 0 1 .057-.444l.938-.52-.52-.865a.277.277 0 0 1 .166-.412l1.068-.284-.26-.962a.278.278 0 0 1 .264-.35l1.127-.023.025-1.003a.278.278 0 0 1 .338-.264l1.105.246.313-.976a.28.28 0 0 1 .39-.163l1.002.5.588-.88a.28.28 0 0 1 .414-.056l.823.717.825-.717a.278.278 0 0 1 .413.055l.588.88 1.004-.5a.278.278 0 0 1 .388.164l.312.975 1.106-.245a.278.278 0 0 1 .338.264L21 9.695l1.127.024a.277.277 0 0 1 .262.35l-.258.963 1.069.284a.277.277 0 0 1 .167.412l-.521.865.938.52a.278.278 0 0 1 .057.444l-.751.715.751.716a.277.277 0 0 1-.057.444l-.938.52.521.864a.277.277 0 0 1-.166.412l-1.07.284.259.963a.278.278 0 0 1-.263.35L21 18.849l-.025 1.002a.278.278 0 0 1-.338.264l-1.106-.245-.312.976a.28.28 0 0 1-.389.164l-1.003-.5-.588.88a.28.28 0 0 1-.414.056l-.825-.72-.824.719a.28.28 0 0 1-.183.068"/><path fill="#8A4B38" d="M13.5 20.53h5c1.956 0 3.61 1.43 3.61 2.5 0 .916-.75 1.11-1.666 1.11h-8.889c-.916 0-1.666-.194-1.666-1.11 0-1.07 1.66-2.5 3.61-2.5"/><path fill="#D99E82" d="M20.568 18.155c0 2.271-2.045 4.11-4.568 4.11s-4.568-1.839-4.568-4.11c0-2.27 2.045-4.111 4.568-4.111s4.568 1.84 4.568 4.111"/><path fill="#E6E7E8" d="M17.827 20.21c0 1.135-.818 2.055-1.827 2.055s-1.827-.92-1.827-2.055.818-2.055 1.827-2.055c1.01 0 1.827.92 1.827 2.055"/><path fill="#231F20" d="M16.914 20.895a.914.914 0 1 1-1.828 0 .914.914 0 0 1 1.828 0m-2.741-3.425a.685.685 0 1 1-1.37 0 .685.685 0 0 1 1.37 0m5.024 0a.685.685 0 1 1-1.37 0 .685.685 0 0 1 1.37 0"/><path fill="#C1694F" d="M12.346 15.415s2.284-.914 2.74 0c.457.913.914.913.914.913v-2.741s-3.654 0-3.654 1.828m7.308 0s-2.283-.914-2.74 0c-.457.913-.914.913-.914.913v-2.741s3.654 0 3.654 1.828"/><path fill="#D99E82" d="M12.803 15.643a1.142 1.142 0 1 1-2.284 0 1.142 1.142 0 0 1 2.284 0m8.678 0a1.142 1.142 0 1 1-2.283 0 1.142 1.142 0 0 1 2.283 0m-9.37 9.302c-1.11 0-1.11-2.222 1.111-2.222 2.223 0 2.257 2.222 1.112 2.222zm5.556 0c-1.111 0-1.111-2.222 1.11-2.222 2.223 0 2.258 2.222 1.112 2.222z"/></g></svg>