<svg xmlns="http://www.w3.org/2000/svg" width="32" height="32" fill="none"><defs><filter id="a"><feMorphology in="SourceAlpha" operator="dilate" radius="1" result="expanded"/><feFlood flood-color="#fff" result="color"/><feComposite in="color" in2="expanded" operator="in"/><feComposite in="SourceGraphic"/></filter></defs><g filter="url(#a)"><path fill="#99AAB5" d="M13.222 10.716c1.08-.492 3.907-.004 4.613-.027 2.145-.07 3.656-.725 5.74 0S26 13.292 26 15.333c0 .453-.259-.5-.56-.923 0 0 .25 2.023-.475 3.474-.369.737-.906 1.42-.906 2.084 0 .666.274.99.274 1.476 0 .496-.555.544-1.111.544-.515 0-1.667.012-1.667-.544 0-.79.214-1.33-.173-1.157-.96.428-3.415.278-4.317-.093-.426-.174-.24.888-.238 1.073.005.619-.272.733-1.383.733-.967 0-1.667-.007-1.667-.556s.511-1.21.157-2.1c-.712-1.789-1.823-.122-3.49-.122-1.65 0 2.778-8.506 2.778-8.506"/><path fill="#9AAAB4" d="M7.828 13.11s1.691-.18 2.175-.724 1.42-1.964 2.93-1.964 1.692.876 2.236 1.148c.543.272 1.616 2.03.83 3.207-.785 1.179-3.332 4.445-5.555 4.445-2.689 0-3.047-.425-3.49-.764-.44-.337-.583-1.134-.19-1.406 0 0-.73-.556-.628-1.826.102-1.295.392-1.45.392-1.45s.06-.514.363-.755c.302-.243.937.09.937.09"/><path fill="#F5F8FA" d="M7.495 18.472c.35.074.55-.14.431-.777-.365.026-.923-.454-.923-.454-.182.705.006 1.13.492 1.231"/><path fill="#67757F" d="M8.556 18.066c-.638 0-1.296-.24-1.848-.71a.208.208 0 0 1 .27-.317c.726.62 1.873.92 2.8.196.276-.215.532-.613.803-1.034.507-.786 1.08-1.685 2.001-1.59a.208.208 0 1 1-.04.415c-.673-.07-1.148.681-1.61 1.401-.292.451-.566.878-.898 1.137-.43.336-.947.502-1.478.502"/><path fill="#66757F" d="M7.007 13.522c.34-.301.941.495.732.764-.297.381-1.282-.275-.732-.764"/><path fill="#292F33" d="M11.556 12.834a.556.556 0 1 0 0-1.111.556.556 0 0 0 0 1.11"/><path fill="#9AAAB4" d="M10.576 10.272c.053-.606.997-.363 1.209.544.211.906-.234.649-.363.332-.272-.665-.906-.182-.846-.876m2.257.332c.143-.466.634-1.088 1.299-1.148s.846.544.604.816c-.241.272-.544.09-.725.06s-.604.272-.785.544-.514.12-.393-.272"/></g></svg>