<svg xmlns="http://www.w3.org/2000/svg" width="32" height="32" fill="none"><defs><filter id="a"><feMorphology in="SourceAlpha" operator="dilate" radius="1" result="expanded"/><feFlood flood-color="#fff" result="color"/><feComposite in="color" in2="expanded" operator="in"/><feComposite in="SourceGraphic"/></filter></defs><g filter="url(#a)"><path fill="#BF6952" d="M9.619 6.493c0 .546.36 2.18.64 2.804.28.622-.28.194-.801-.429-.52-.623-.92-1.246-.68-1.908s.84-1.207.84-.467"/><path fill="#D99E82" d="M6.174 11.943c-.002.534.678 1.165 1.602.935.74-.185 1.797-.755 1.842-.312s-.655 1.928-.35 3.487c.517 2.633 1.322 4.93 4.001 5.608 0 0 .402 1.542.822 2.215.386.617.572 1.123.25 1.23s-1.929.215-2.608.322c-.678.107-.785.572-.035.572h3.857c.393 0 .358-.358.108-.893-.25-.536.447-1.469.332-2.962.23.077.775.037 1.097.465s2.071 3.32 4.893 3.32c2.823 0 3.573-2.125 3.787-2.697s-.25-.572-.608-.107c-.357.464-1.534 1.072-3.179.837-1.75-.25-2.123-2.48-2.587-3.838-.465-1.357-1.523-3.871-3.914-5.27-1.765-1.033-3.046-.728-2.98-1.865.1-1.685.181-2.894-.61-3.829-.639-.754-2.14-.702-3.01-.177-.387.233-.62.886-.987 1.168-1.104.846-1.721 1.319-1.723 1.791"/><path fill="#D79E84" d="M9.357 18.569c-.144.295-.004.566-.088.753-.125.276-.697.446-.75-.018s-.012-1.082.25-1.429c.179-.237 1.822-1.554 1.893-1.607.072-.053-.196-1.607-.196-1.607s.053-.625.804-.483c.75.143.732.786.732 1.465 0 .678.125 1.357-.215 1.518S9.5 18.274 9.357 18.57"/><path fill="#292F33" d="M9.698 10.113a.474.474 0 0 1-.48.468.474.474 0 0 1-.48-.468c0-.257.214-.311.48-.311.265 0 .48.053.48.311"/><path fill="#D99E82" d="M11.54 6.141c.508-.37.562 1.09.442 1.558S10.94 9.374 10.94 9.374s-.72.35-.72-.507c0-.856.84-2.375 1.32-2.726"/><path fill="#BF6952" d="M11.59 7.16c.322.193-.726 1.836-.981 1.698-.255-.137.549-1.955.981-1.697"/><path fill="#292F33" d="M6.174 11.633c.483-.293.6.506.44.779-.16.272-.76-.585-.44-.779"/><path fill="#BF6952" d="M10.041 18.411a.18.18 0 0 1-.071-.345 5.1 5.1 0 0 0 1.314-.852c.084-.1.291-.804.432-1.395a.18.18 0 0 1 .217-.133.18.18 0 0 1 .133.217c-.124.517-.358 1.408-.537 1.575a5.5 5.5 0 0 1-1.416.917.2.2 0 0 1-.072.016"/></g></svg>