<svg xmlns="http://www.w3.org/2000/svg" width="32" height="32" fill="none"><defs><filter id="a"><feMorphology in="SourceAlpha" operator="dilate" radius="1" result="expanded"/><feFlood flood-color="#fff" result="color"/><feComposite in="color" in2="expanded" operator="in"/><feComposite in="SourceGraphic"/></filter></defs><g filter="url(#a)"><path fill="#C1694F" d="M19.97 14.593c1.023 4.12-.821 8.123-4.117 8.94-3.296.819-6.797-1.859-7.82-5.978-1.022-4.12.821-8.123 4.119-8.941 3.295-.818 6.796 1.859 7.818 5.98"/><path fill="#C1694F" d="M24.073 13.575c1.195 4.817-3.148 8.7-7.474 9.774s-7.17-1.766-8.192-5.887.163-7.96 4.49-9.033c4.326-1.074 9.9.003 11.176 5.146"/><path fill="#77B255" d="M19.224 14.78c.894 3.605-.72 7.107-3.603 7.822-2.884.717-5.947-1.626-6.842-5.231s.719-7.108 3.603-7.824c2.883-.715 5.947 1.627 6.842 5.232"/><path fill="#A6D388" d="M13.436 9.919c2.356 0 4.587 2.095 5.303 4.98.406 1.634.28 3.291-.353 4.666-.616 1.337-1.64 2.243-2.884 2.552a4 4 0 0 1-.934.114c-2.356 0-4.586-2.095-5.303-4.981-.827-3.331.626-6.57 3.238-7.217a4 4 0 0 1 .933-.114m0-.5q-.527 0-1.053.128c-2.885.716-4.498 4.219-3.603 7.824.786 3.167 3.246 5.36 5.787 5.36q.528 0 1.055-.129c2.883-.715 4.497-4.217 3.602-7.823-.786-3.167-3.247-5.36-5.788-5.36"/><path fill="#A6D388" d="m16.487 16.26-1.4.655.829 2.076-1.478-1.163-.348 2.085-.69-2.049-1.325.873.503-1.988-1.521-.85 1.4-.658-.829-2.075 1.479 1.058.348-2.086.69 2.155 1.322-.873-.5 1.987z"/><path fill="#A6D388" d="M14.089 20.413a.5.5 0 0 1-.473-.341l-.482-1.434-.784.516a.5.5 0 0 1-.76-.54L12 16.996l-1.187-.663a.5.5 0 0 1 .032-.889l.973-.457-.654-1.637a.5.5 0 0 1 .755-.592l.827.592.216-1.295a.5.5 0 0 1 .97-.07l.488 1.526.772-.51a.5.5 0 0 1 .76.54l-.407 1.616 1.187.665a.502.502 0 0 1-.032.889l-.973.456.654 1.638a.5.5 0 0 1-.773.578l-.814-.641-.21 1.253a.5.5 0 0 1-.453.416zm-.689-3.05q.084 0 .163.028a.5.5 0 0 1 .311.314l.052.153.019-.113a.5.5 0 0 1 .802-.31l.014.01-.138-.346a.5.5 0 0 1 .252-.637l.518-.243-.671-.376a.5.5 0 0 1-.24-.558l.186-.739-.248.164a.5.5 0 0 1-.752-.265l-.06-.188-.008.049a.5.5 0 0 1-.784.324l-.09-.064.195.49a.5.5 0 0 1-.252.637l-.519.244.672.375a.5.5 0 0 1 .24.559l-.186.74.25-.165a.5.5 0 0 1 .274-.082"/><path fill="#C6E5B3" d="m15.394 16.01-.855.405.538 1.27-.923-.645-.189 1.278-.455-1.317-.803.539.283-1.219-.95-.517.852-.406-.539-1.27.926.643.187-1.278.455 1.319.805-.54-.283 1.22z"/><path fill="#C6E5B3" d="M13.965 18.568a.25.25 0 0 1-.236-.169l-.349-1.01-.533.358a.25.25 0 0 1-.383-.264l.24-1.033-.784-.426a.25.25 0 0 1 .012-.446l.637-.303-.446-1.05a.25.25 0 0 1 .373-.302l.594.413.128-.879a.25.25 0 0 1 .224-.212.25.25 0 0 1 .26.167l.35 1.012.536-.36a.25.25 0 0 1 .382.265l-.24 1.034.784.427a.25.25 0 0 1-.012.445l-.638.304.445 1.048a.25.25 0 0 1-.374.303l-.592-.413-.13.878a.25.25 0 0 1-.224.213zm-.455-1.817q.04 0 .08.013a.25.25 0 0 1 .156.155l.122.35.04-.266a.25.25 0 0 1 .39-.168l.21.147-.2-.47a.25.25 0 0 1 .124-.322l.411-.196-.52-.283a.25.25 0 0 1-.124-.276l.14-.603-.279.187a.248.248 0 0 1-.376-.126l-.12-.348-.038.262a.25.25 0 0 1-.39.17l-.214-.15.2.473a.25.25 0 0 1-.122.323l-.41.195.52.283a.25.25 0 0 1 .124.276l-.14.602.277-.186a.25.25 0 0 1 .14-.042"/><path fill="#292F33" d="M11.653 14.478c.115.249.074.512-.092.59-.166.076-.393-.064-.508-.313-.115-.248-.074-.512.092-.588.166-.077.393.063.508.311m3.35-1.468c-.065.266-.261.447-.439.405-.178-.044-.269-.295-.204-.56.064-.267.26-.448.438-.404.177.042.269.293.204.56m-1.323 4.957c-.064.266-.26.447-.437.405-.179-.044-.27-.294-.205-.56.064-.266.26-.448.438-.404.177.043.269.293.204.56m1.608 1.09c.115.248.074.51-.092.589-.166.075-.393-.064-.508-.313-.114-.248-.074-.511.092-.589.166-.076.394.064.508.312m.56-3.842c-.151.146-.34.195-.42.112-.081-.085-.023-.27.128-.417.152-.146.34-.197.422-.112.08.084.023.27-.13.417m-2.636-1.183c.09.19.079.384-.027.436-.106.049-.265-.065-.355-.255s-.078-.385.028-.435c.105-.05.264.064.354.254m-1.99 3.547c-.152.146-.34.196-.422.113-.08-.085-.022-.271.13-.417.15-.146.34-.197.42-.113.082.085.024.271-.128.417m5.31-.464c.165.178.192.421.059.547-.134.123-.376.08-.541-.098s-.192-.421-.058-.547c.133-.124.375-.08.54.098"/></g></svg>