<svg xmlns="http://www.w3.org/2000/svg" width="32" height="32" fill="none"><defs><filter id="a"><feMorphology in="SourceAlpha" operator="dilate" radius="1" result="expanded"/><feFlood flood-color="#fff" result="color"/><feComposite in="color" in2="expanded" operator="in"/><feComposite in="SourceGraphic"/></filter></defs><g filter="url(#a)"><path fill="#99AAB5" d="M26 13.519c0-2.592-1.741-3.63-3.889-3.63-.9 0-1.825.197-2.598.57A6.14 6.14 0 0 0 16 9.37a6.14 6.14 0 0 0-3.513 1.09c-.773-.373-1.698-.57-2.598-.57C7.74 9.89 6 10.927 6 13.52c0 2.135 1.182 3.565 2.799 4.003q-.037.447-.038.895c0 3.183 2.511 4.264 4.767 4.626.61.45 1.49.735 2.472.735s1.862-.285 2.472-.735c2.256-.361 4.767-1.443 4.767-4.625q-.001-.45-.038-.895c1.617-.44 2.799-1.869 2.799-4.004"/><path fill="#66757F" d="M11.308 11.474a5 5 0 0 0-.53-.03c-1.719 0-3.112.83-3.112 2.904 0 1.196.466 2.115 1.188 2.68.263-2.11 1.114-4.12 2.454-5.554m9.914-.03q-.265.002-.53.03c1.34 1.434 2.19 3.444 2.453 5.554.723-.565 1.188-1.483 1.188-2.68 0-2.074-1.393-2.904-3.11-2.904"/><path fill="#292F33" d="M18.071 19.782c0 1.858-.96 2.33-2.07 2.33-1.112 0-2.071-.472-2.071-2.33s.96-3.365 2.07-3.365c1.111 0 2.071 1.507 2.071 3.365M12.945 17.875a.833.833 0 1 0 0-1.667.833.833 0 0 0 0 1.667M19.056 17.875a.833.833 0 1 0 0-1.667.833.833 0 0 0 0 1.667"/></g></svg>