<svg xmlns="http://www.w3.org/2000/svg" width="32" height="32" fill="none"><defs><filter id="a"><feMorphology in="SourceAlpha" operator="dilate" radius="1" result="expanded"/><feFlood flood-color="#fff" result="color"/><feComposite in="color" in2="expanded" operator="in"/><feComposite in="SourceGraphic"/></filter></defs><g filter="url(#a)"><path fill="#5C913B" d="M13.07 9.484c2.88-.567 3.756.562 5.18.037 1.422-.525.04 1.254-.332 1.56-.373.305-3.618 2.137-5.025 1.465s-1.414-2.75.176-3.062"/><path fill="#77B255" d="M14.667 15.11a.44.44 0 0 1-.356-.177c-.305-.407-.581-.869-.873-1.358-1.008-1.687-2.15-3.6-5.09-4.253a.444.444 0 0 1 .193-.867c3.313.736 4.614 2.914 5.66 4.664.28.469.544.911.821 1.28a.444.444 0 0 1-.355.712"/><path fill="#FFCC4D" d="m23.245 22.014-.002-.019c1.233-2.37 1.177-6.717-1.487-9.38-2.578-2.578-6.08-2.588-8.34-1.808-.702.273-1.297.03-1.696.429-.392.391-.156 1.208-.318 1.697-1.408 2.312-1.513 5.789 1.195 8.497 2.206 2.205 4.64 3.04 8.88 2.156h.004c.51-.097 1.31.232 1.585-.042.482-.483.137-1.048.179-1.53"/><path fill="#77B255" d="M11.648 10.925S9.75 10.663 8.6 12.969s.259 4.056.13 5.624c-.131 1.569.695.562 1.164-.198s1.88-2.176 2.195-4.12c.314-1.945-.031-2.87-.441-3.35"/></g></svg>