<svg xmlns="http://www.w3.org/2000/svg" width="32" height="32" fill="none"><defs><filter id="a"><feMorphology in="SourceAlpha" operator="dilate" radius="1" result="expanded"/><feFlood flood-color="#fff" result="color"/><feComposite in="color" in2="expanded" operator="in"/><feComposite in="SourceGraphic"/></filter></defs><g filter="url(#a)"><path fill="#5C913B" d="M22.104 18.629c1.19-.398 2.778-1.985 2.778-2.779s-1.19-.397-.794-1.588c.397-1.19.794-2.381 0-3.175s-1.587 0-2.381-.794c-.794-.793 0-1.587-.794-2.381s-1.985-.397-3.175 0-.794-.794-1.588-.794-2.382 1.588-2.779 2.779-1.19.396-1.587 1.587c-.368 1.106.084 2.278-.931 4.604-.485.765-.942 1.5-1.37 2.145-1.878 2.836-1.27 5.556-1.27 5.556s2.72.606 5.555-1.272c.644-.427 1.38-.885 2.145-1.37 2.326-1.014 3.498-.562 4.603-.93 1.19-.397.397-1.191 1.588-1.588"/><path fill="#679E44" d="M24.175 15.98a.28.28 0 0 0-.354-.178c-1.516.497-2.715.32-3.306.164 1.328-1.353 2.52-2.758 3.41-4.056a.281.281 0 0 0-.462-.317 26 26 0 0 1-1.832 2.334c.04-.833-.03-2.132-.626-3.418a.28.28 0 0 0-.51.236c.794 1.711.565 3.502.502 3.89a41 41 0 0 1-2.057 2.078c.074-.885.04-2.324-.736-3.465a.28.28 0 1 0-.464.316c.925 1.36.637 3.307.557 3.742a34 34 0 0 1-3.462 2.756c.725-1.168 1.486-3.008.945-5.121a.28.28 0 1 0-.544.139c.793 3.096-1.572 5.66-1.784 5.882-2.553 1.585-3.954 2.063-3.97 2.068a.28.28 0 0 0 .177.532c.076-.025 1.887-.639 5.221-2.85a29 29 0 0 0 1.972-1.44c.328.201 1.08.539 2.438.539.38 0 .805-.027 1.283-.09a.28.28 0 0 0-.074-.556c-1.749.232-2.728-.065-3.172-.275a40 40 0 0 0 2.739-2.472c.291.103.907.277 1.763.277.614 0 1.348-.09 2.169-.36a.283.283 0 0 0 .177-.355"/><path fill="#3E721D" d="M14.023 18.488c.215-.043.476-.086.76-.133 1.8-.299 3.66-.608 3.66-1.76 0-.587-.313-.937-.52-1.151.119-.036.28-.07.39-.094.506-.107 1.135-.24 1.409-.797q.256-.518-.068-1.245c.197-.145.746-.32 1.09-.43.848-.27 1.65-.525 1.87-1.181.077-.23.105-.59-.193-1.013l-.014-.024a1.24 1.24 0 0 1-.7-.367 1.3 1.3 0 0 1-.299-.443c.11.304.4.988.53 1.174.96 1.356-3.457 1.196-2.844 2.477.727 1.522-1.373 1.042-1.77 1.638s.53.661.53 1.455-2.714 1.072-3.945 1.314c-2.488.49-5.697 5.88-5.697 5.88s.24.053.644.079c.969-1.57 3.427-5.037 5.167-5.379"/><path fill="#77B255" d="M13.909 17.909c1.231-.242 3.944-.52 3.944-1.314s-.926-.86-.529-1.456c.397-.595 2.497-.115 1.77-1.637-.613-1.281 3.803-1.121 2.844-2.478-.152-.214-.516-1.102-.569-1.288-.171-.608.152-1.216-.456-1.824-.794-.793-1.985-.397-3.176 0-1.19.398-.793-.794-1.587-.794s-2.382 1.588-2.779 2.779-1.19.396-1.587 1.587c-.368 1.106.084 2.278-.931 4.604-.485.765-.942 1.5-1.37 2.145-1.878 2.836-1.27 5.556-1.27 5.556s3.207-5.391 5.696-5.88"/><path fill="#A6D388" d="M21.411 10.916c-1.285-.596-2.585-.665-3.419-.626.8-.697 1.59-1.32 2.335-1.831a.28.28 0 0 0-.317-.464c-1.297.89-2.703 2.083-4.056 3.41-.155-.59-.333-1.79.165-3.305a.28.28 0 1 0-.533-.175c-.645 1.963-.26 3.43-.084 3.932a40 40 0 0 0-2.472 2.739c-.21-.444-.505-1.423-.273-3.173a.28.28 0 0 0-.557-.074c-.29 2.186.193 3.301.45 3.72a29 29 0 0 0-1.44 1.972c-2.212 3.334-2.826 5.146-2.851 5.22a.28.28 0 1 0 .532.178c.006-.016.483-1.416 2.068-3.97.218-.21 2.777-2.58 5.882-1.784a.281.281 0 0 0 .139-.545c-2.114-.54-3.954.222-5.123.947.767-1.123 1.717-2.31 2.757-3.464.436-.08 2.383-.366 3.742.558a.28.28 0 0 0 .39-.074.28.28 0 0 0-.074-.39c-1.141-.776-2.581-.81-3.466-.736a41 41 0 0 1 2.079-2.057c.384-.063 2.171-.295 3.889.501a.28.28 0 0 0 .373-.136.28.28 0 0 0-.136-.373"/></g></svg>