<svg xmlns="http://www.w3.org/2000/svg" width="32" height="32" fill="none"><defs><filter id="a"><feMorphology in="SourceAlpha" operator="dilate" radius="1" result="expanded"/><feFlood flood-color="#fff" result="color"/><feComposite in="color" in2="expanded" operator="in"/><feComposite in="SourceGraphic"/></filter></defs><g filter="url(#a)"><path fill="#662113" d="M23.163 12.479s1.157.012 1.755.589c-.168-2.486-1.052-4.125-2.972-5.065-1.57-.56-3.033.726-3.033.726s.431-.995 1.095-1.373C18.895 7.118 17.573 7 16 7c-1.568 0-2.892.114-4.003.35.67.373 1.108 1.38 1.108 1.38S11.597 7.401 10 8.027c-1.89.948-2.76 2.585-2.92 5.06.59-.595 1.774-.607 1.774-.607s-1.906 1.153-1.713 2.827c.194 1.473.697 2.984 1.44 4.361C8.52 18.075 9.959 17 9.959 17s-1.246 2.98-.29 4.369c.967 1.271 2.156 2.32 3.487 2.958-.477-.823-.068-1.522-.051-1.473.02.063.23 1.556 1.068 1.872.59.178 1.2.274 1.827.274.646 0 1.275-.104 1.88-.291.808-.346 1.013-1.793 1.033-1.854.016-.05.421.643-.045 1.46 1.353-.655 2.559-1.732 3.532-3.036.85-1.424-.342-4.279-.342-4.279s1.425 1.065 1.379 2.644c.778-1.453 1.292-3.052 1.455-4.6-.017-1.53-1.73-2.565-1.73-2.565"/><path fill="#FFCC4D" d="M13.93 11.748c.298 1.196.08 2.21-1.116 2.508s-3.181.044-3.479-1.152.235-2.695.905-2.862 3.392.31 3.69 1.506m4.552 9.216a2.482 2.482 0 1 1-4.964 0 2.482 2.482 0 0 1 4.964 0"/><path fill="#DD2E44" d="M17.655 20.964a1.655 1.655 0 1 1-3.31 0 1.655 1.655 0 0 1 3.31 0"/><path fill="#E6AAAA" d="M12.526 11.498a1.49 1.49 0 0 1-.473 2.05c-.697.436-1.304.399-1.74-.298s-.093-2.065.162-2.225 1.616-.224 2.051.473"/><path fill="#FFCC4D" d="M18.07 11.748c-.298 1.196-.08 2.21 1.116 2.508s3.182.044 3.48-1.152-.235-2.695-.906-2.862c-.67-.167-3.393.31-3.69 1.506"/><path fill="#E6AAAA" d="M19.474 11.498a1.49 1.49 0 0 0 .472 2.05c.697.436 1.304.399 1.74-.298s.092-2.065-.162-2.225c-.255-.16-1.615-.224-2.05.473"/><path fill="#FFCC4D" d="M16 10.563c-6.416 0-5.437 2.478-4.75 5.77s.942 4.167.942 4.167h7.614s.255-.875.943-4.166c.687-3.293 1.666-5.771-4.749-5.771"/><path fill="#272B2B" d="M13 15s0-.75.75-.75.75.75.75.75v.75s0 .75-.75.75-.75-.75-.75-.75zm4.5 0s0-.75.75-.75.75.75.75.75v.75s0 .75-.75.75-.75-.75-.75-.75z"/><path fill="#FFE8B6" d="M17.084 17.76c-.8 0-.693.425-1.084 1.057-.392-.633-.286-1.056-1.084-1.056-3.433 0-3.419.187-3.433 1.414-.029 2.493 1.401 3.066 2.629 3.03A2.3 2.3 0 0 0 16 21.139a2.3 2.3 0 0 0 1.888 1.066c1.228.036 2.658-.537 2.629-3.03-.015-1.227 0-1.414-3.433-1.414"/><path fill="#272B2B" d="M14.291 17.705c-.57.117 1.14 2.216 1.709 2.216s2.28-2.1 1.71-2.216-2.85-.116-3.419 0"/><path fill="#D99E82" d="M12.75 19.5a.25.25 0 1 0 0-.5.25.25 0 0 0 0 .5M12.25 20.5a.25.25 0 1 0 0-.5.25.25 0 0 0 0 .5M13.25 21a.25.25 0 1 0 0-.5.25.25 0 0 0 0 .5M19.25 19.5a.25.25 0 1 0 0-.5.25.25 0 0 0 0 .5M19.75 20.5a.25.25 0 1 0 0-.5.25.25 0 0 0 0 .5M18.75 21a.25.25 0 1 0 0-.5.25.25 0 0 0 0 .5"/></g></svg>