<svg xmlns="http://www.w3.org/2000/svg" width="32" height="32" fill="none"><defs><filter id="a"><feMorphology in="SourceAlpha" operator="dilate" radius="1" result="expanded"/><feFlood flood-color="#fff" result="color"/><feComposite in="color" in2="expanded" operator="in"/><feComposite in="SourceGraphic"/></filter></defs><g filter="url(#a)"><path fill="#3E721D" d="M14.83 10.422c.243-1.015.192-1.57-.276-1.839s.168-1.333.988-.396.714 1.809.331 2.426-1.168.33-1.043-.191m-.24 1.475c-.458.939-.85 1.334-1.382 1.244s-.717 1.136.512.934c1.228-.201 1.7-.943 1.797-1.663s-.691-.997-.927-.515m5.668 3.13c-1.036-.688-2.69.716-2.85 1.14-.158.426.861 1.731.574 2.47-.289.74.57.885.96.246.389-.639.152-1.806.078-2.084-.074-.279 1.094-.61 1.835-.019.74.59-.161-1.462-.597-1.752m.534-.408c-.773-.975.488-2.741.897-2.935s1.286.2 1.999-.148c.712-.348.872.427.325.937-.614.571-1.12.668-1.56.763-.281.061-.016 1.017-.004 1.985.011.9-1.332-.192-1.657-.602"/><path fill="#3E721D" d="M14.66 8.584a.362.362 0 1 1-.724 0 .362.362 0 0 1 .724 0m-1.5 4.448a.362.362 0 1 1-.724 0 .362.362 0 0 1 .724 0m-.149.839a.362.362 0 1 1-.724 0 .362.362 0 0 1 .724 0m.724.362a.362.362 0 1 1-.725 0 .362.362 0 0 1 .725 0m4.287 4.424a.362.362 0 1 1-.684.233.362.362 0 0 1 .684-.233m.386.634a.362.362 0 1 1-.686.233.362.362 0 0 1 .686-.233m.814-.12a.362.362 0 1 1-.685.234.362.362 0 0 1 .685-.234m4.901-7.876a.363.363 0 1 1-.725-.001.363.363 0 0 1 .725 0m.752.362a.362.362 0 1 1-.725 0 .362.362 0 0 1 .725 0m-.173.858a.362.362 0 1 1-.725 0 .362.362 0 0 1 .725 0M14.756 7.81a.362.362 0 1 1-.724 0 .362.362 0 0 1 .724 0m.786-.234a.362.362 0 1 1-.724 0 .362.362 0 0 1 .724 0"/><path fill="#3E721D" d="M7.104 9.826c.132-.526 2.328-2.361 4.32-2.017 1.013.176 1.472 1.677 2.552 1.714 5.644.195 11.136 5.57 9.423 10.696-.753 2.253-2.809 4.399-7.73 2.5-.978-.377-1.985-.992-3.912-.613-1.426.281-1.575 1.58-1.402 2.248.136.524-.08.791-.35.38-.613-.934-.659-2.174.321-2.978 1.956-1.605 4.624-.642 6.569-.03 3.24 1.023 4.958-1.825 3.173-5.157-1.752-3.27-4.906-4.162-7.003-4.408-.584-.068-1.82 1.024-2.683.871-1.81-.321-3.373-2.824-3.278-3.206"/><path fill="#77B255" d="M7.104 9.826c.132-.526 2.328-2.361 4.321-2.017 1.012.176 1.471 1.677 2.551 1.714 5.644.195 11.136 5.57 9.423 10.696-.753 2.253-2.809 4.399-7.73 2.5-.978-.377-1.985-.992-3.912-.613-1.426.281-1.575 1.58-1.402 2.248.067.258.049.453-.019.537-.461-.64-.681-2.17.33-2.932 1.77-1.334 4.284-.066 6.651.52 5.125 1.271 6.092-3.997 3.953-7.437-2.593-4.174-10.77-5.167-14.166-5.216"/><path fill="#292F33" d="M10.5 9a.5.5 0 1 0 0-1 .5.5 0 0 0 0 1M10 12.5a.5.5 0 1 0 0-1 .5.5 0 0 0 0 1"/></g></svg>