<svg xmlns="http://www.w3.org/2000/svg" width="32" height="32" fill="none"><defs><filter id="a"><feMorphology in="SourceAlpha" operator="dilate" radius="1" result="expanded"/><feFlood flood-color="#fff" result="color"/><feComposite in="color" in2="expanded" operator="in"/><feComposite in="SourceGraphic"/></filter></defs><g filter="url(#a)"><path fill="#C1694F" d="M9.753 7.248c-.247-.204-.584-.542-.905-.721-.277-.154-.138.51.096.773.234.262 1.013.745 1.363 1.008s.52.221.175-.263c-.36-.506-.73-.797-.73-.797"/><path fill="#D99E82" d="M10.55 6.41c.183.188.41 1.33.41 1.33s.711.05 1.336.436c2.5 1.542 1.413 5.301 2.192 6.168.24.267 5.378-.913 7.9.302 2.136 1.029 1.713 2.581 2.269 2.928.421.264-1.111.695-1.432-1.285-.281 6.193-.596 7.704-.93 9.086-.187.781-1.099.89-.995-.185.056-.57.258-4.013-.324-4.884-.416-.625-2.615 1.342-6.503.985-.27 2.375-.61 3.964-.707 4.177-.312.683-1.035.677-.931-.005s.248-2.75-.491-5.006c-3.126-2.21-.904-7.882-1.808-8.97-.2-.241-1.47-.545-1.84-.582s-.704-.095-.925-.133c-.222-.037-.552-.986-.515-1.245s.219-.346.7-.531c.48-.185.549-.124.523-.405-.054-.584 1.213-.985 1.934-.914-.074-.074-.6-.992-.752-1.33-.195-.43.593-.245.89.062"/><path fill="#C1694F" d="M7.611 9.467c.038.19-.218.219-.175.383.044.165.298.698.528.643s.505-.039.125.144c-.29.139-.47.007-.47.007s-.43-.819-.386-1.052c.045-.233.367-.18.378-.125"/><path fill="#292F33" d="M10.211 8.67a.407.407 0 1 1-.814 0c0-.225.204-.172.43-.172.224 0 .384-.053.384.172m-2.978.745c.035-.257.856-.186.559.076-.186.165-.614.329-.559-.076"/><path fill="#C1694F" d="M10.152 6.47c.276.071.614 1.267.505 1.284-.143.022-.843-1.371-.505-1.284m1.373 3.248s.56.735.14 1.26c-.42.526-1.296.35-1.296.35s.84-.245 1.05-.665.106-.945.106-.945"/></g></svg>