<svg xmlns="http://www.w3.org/2000/svg" width="32" height="32" fill="none"><defs><filter id="a"><feMorphology in="SourceAlpha" operator="dilate" radius="1" result="expanded"/><feFlood flood-color="#fff" result="color"/><feComposite in="color" in2="expanded" operator="in"/><feComposite in="SourceGraphic"/></filter></defs><g filter="url(#a)"><path fill="#BE1931" d="M14.424 18.2h-.032c-1.058-.034-2.46-.503-3.123-2.538a.397.397 0 0 1 .252-.5.39.39 0 0 1 .496.25l.001.005c.156.48.632 1.938 2.4 1.996a.394.394 0 0 1 .006.787M11.75 21.02a.4.4 0 0 1 .35-.171c1.516.09 2.288-.97 2.542-1.317a.394.394 0 0 1 .55-.087.4.4 0 0 1 .087.55c-.85 1.165-1.935 1.717-3.227 1.64a.394.394 0 0 1-.302-.615"/><path fill="#BE1931" d="M14.181 18.982c.21-.032.384-.07.511-.1l.09-.02a.394.394 0 1 0-.167-.77l-.097.022c-.543.122-1.817.412-3.231-.575a.394.394 0 0 0-.45.646c1.332.93 2.582.913 3.344.797"/><path fill="#BE1931" d="M14.702 19.649c.188-.1.526-.312.526-.312a.394.394 0 1 0-.412-.672l-.084.053c-.472.295-1.578.99-3.24.528a.394.394 0 0 0-.21.759c1.565.435 2.739.005 3.42-.357M17.916 18.2h.032c1.059-.034 2.46-.503 3.123-2.538a.397.397 0 0 0-.251-.5.39.39 0 0 0-.496.25l-.002.005c-.156.48-.631 1.938-2.4 1.996a.394.394 0 0 0-.006.787m2.674 2.819a.4.4 0 0 0-.349-.171c-1.517.09-2.289-.97-2.543-1.317a.394.394 0 0 0-.55-.087.4.4 0 0 0-.086.55c.849 1.165 1.934 1.717 3.226 1.64a.394.394 0 0 0 .302-.615"/><path fill="#BE1931" d="M18.159 18.982a7 7 0 0 1-.511-.1l-.09-.02a.394.394 0 1 1 .167-.77l.097.022c.543.122 1.817.412 3.231-.575a.394.394 0 0 1 .45.646c-1.331.93-2.582.913-3.344.797"/><path fill="#BE1931" d="M17.638 19.649c-.188-.1-.526-.312-.526-.312a.394.394 0 1 1 .412-.672l.084.053c.472.295 1.578.99 3.24.528a.394.394 0 0 1 .21.759c-1.565.435-2.739.005-3.42-.357M11.492 10.46c.376-.39 1.158-1.23.795-1.977.474.039 3.378 3.08-.03 4.537-.536-.069-.765-2.56-.765-2.56m4.386 11.697c-.363.165-2.125 1.086-2.177 2.73.034.395 1.365-.625 2.505-.625v-1.727z"/><path fill="#BE1931" d="M16.518 22.158c.363.165 2.124 1.086 2.177 2.73-.035.395-1.366-.625-2.506-.625v-1.727zm-5.7-9.151c.066.714 1.487 1.444 2.511 1.613.131-.285-.677-1.118-1.114-1.623-.243-.282-.35-.952-1.092-.66s-.305.67-.305.67"/><path fill="#BE1931" d="M12.87 13.896c-.327 0-.414.877 1.245 1.272s.78-.439.524-.833c-.328-.505-1.768-.439-1.768-.439"/><path fill="#89021F" d="M14.732 19.691c-.093.494-.037 3.109 1.48 3.306v-3.503z"/><path fill="#BE1931" d="M20.815 10.46c-.376-.39-1.158-1.23-.795-1.977-.475.039-3.379 3.08.03 4.537.536-.069.765-2.56.765-2.56"/><path fill="#BE1931" d="M21.488 13.007c-.066.714-1.487 1.444-2.511 1.613-.131-.285.677-1.118 1.113-1.623.244-.282.35-.952 1.093-.66.742.291.305.67.305.67"/><path fill="#BE1931" d="M19.435 13.896c.328 0 .415.877-1.244 1.272s-.78-.439-.524-.833c.327-.505 1.768-.439 1.768-.439"/><path fill="#DD2E44" d="M21.195 7.021c1.317.335 2.338 2.546 2.087 3.924-.39 2.151-1.496 2.893-2.714 3.082-.374-.029-1.646-1.737-.288-3.136 1.359-1.399 1.253-2.928.915-3.87"/><path fill="#BE1931" d="M15.77 13.25a.25.25 0 0 1-.248-.23c-.25-3.176-1.318-5.033-3.01-5.23a.25.25 0 1 1 .06-.497c1.131.132 3.084 1.047 3.448 5.687a.25.25 0 0 1-.23.27zm.71 0h-.02a.25.25 0 0 1-.23-.27c.364-4.64 2.318-5.555 3.45-5.687a.25.25 0 1 1 .058.497c-1.692.197-2.76 2.054-3.01 5.23a.25.25 0 0 1-.248.23"/><path fill="#A0041E" d="M16.19 18.52c0 .5.01 1.663.01 2.438-.288 0-.746-.008-1.22-.15-.748-.226-.556-1.951-.306-2.351z"/><path fill="#BE1931" d="M16.168 16.62c0 .556.01 1.85.01 2.713-.327 0-.847-.008-1.386-.167-.851-.25-.633-2.17-.35-2.616z"/><path fill="#DD2E44" d="M16.167 12.866c0 1.085.14 4.411.14 4.749-.699 0-2.65.168-2.541-1.567s1.179-3.182 2.401-3.182"/><path fill="#89021F" d="M17.576 19.691c.093.494.037 3.109-1.48 3.306v-3.503z"/><path fill="#A0041E" d="M16.118 18.52c0 .5-.076 1.663-.076 2.438.287 0 .811-.008 1.284-.15.749-.226.557-1.951.308-2.351z"/><path fill="#BE1931" d="M16.141 16.62c0 .556-.082 1.85-.082 2.713.327 0 .92-.008 1.458-.167.851-.25.633-2.17.35-2.616z"/><path fill="#DD2E44" d="M16.14 12.866c0 1.085-.104 4.411-.104 4.749.698 0 2.615.168 2.506-1.567-.109-1.736-1.179-3.182-2.401-3.182m-5.03-5.845c-1.317.335-2.338 2.546-2.087 3.924.39 2.151 1.496 2.893 2.714 3.082.374-.029 1.646-1.737.288-3.136-1.359-1.399-1.252-2.928-.915-3.87"/><path fill="#BE1931" d="M15.414 14.176c.276-.05.444-.405.374-.795-.069-.39-.349-.667-.625-.618s-.443.405-.374.795c.07.39.35.667.625.618M17.437 13.536c.07-.39-.098-.746-.374-.795s-.556.228-.625.618c-.07.39.098.746.374.795s.556-.227.625-.618"/><path fill="#292F33" d="M15.352 13.822c.276-.049.443-.405.374-.795-.07-.39-.35-.667-.625-.618-.276.05-.444.405-.375.795.07.39.35.667.626.618M17.495 13.205c.07-.39-.099-.746-.375-.795s-.555.228-.625.618.099.746.375.795.556-.228.625-.618"/><path fill="#EA596E" d="M14.188 16.453c.14.422.422.875 1.922.875 1.047 0 2.078-.187 2.047-.953-.391.328-.875.469-2.047.469-1.25 0-1.922-.391-1.922-.391"/><path fill="#DD2E44" d="M14.636 18.461c.109.298.326.617 1.487.617.81 0 1.609-.132 1.584-.672-.302.232-.677.33-1.584.33-.967 0-1.487-.275-1.487-.275"/><path fill="#BE1931" d="M14.688 20.044c.102.298.307.617 1.402.617.763 0 1.515-.132 1.492-.672-.285.232-.637.33-1.492.33-.912 0-1.402-.275-1.402-.275"/><path fill="#EA596E" d="M11.406 13.391a.4.4 0 0 1-.158-.035c-1.013-.472-1.579-1.31-1.68-2.49-.019-.206.132-.406.338-.424s.386.116.405.322l.003.038c.032.368.116 1.346 1.25 1.875a.375.375 0 0 1-.158.714m9.469 0a.375.375 0 0 1-.159-.715c1.134-.528 1.219-1.506 1.25-1.875l.377-.004.37.069c-.102 1.18-.667 2.018-1.68 2.49a.4.4 0 0 1-.158.035"/></g></svg>