<svg xmlns="http://www.w3.org/2000/svg" width="32" height="32" fill="none"><defs><filter id="a"><feMorphology in="SourceAlpha" operator="dilate" radius="1" result="expanded"/><feFlood flood-color="#fff" result="color"/><feComposite in="color" in2="expanded" operator="in"/><feComposite in="SourceGraphic"/></filter></defs><g filter="url(#a)"><path fill="#77B255" d="M19.725 9.573c.214-.017.56-.291.74-.265.18.027.698.48.741.57.044.092-.283.524-.331.659-.049.134-.285.106-.671-.242-.387-.347-.48-.722-.48-.722"/><path fill="#EA564B" d="M13.467 9.395c2.02-1.183 5.007-1.16 6.082-.258.719.603 1.308 1.067 1.989 1.338.898.357 1.64 1.402 1.962 2.393.436 1.344.746 5.59-3.569 8.23-2.77 1.694-7.847 2.383-8.427 2.099-.437-.215-2.054-.93-2.967-2.869-.912-1.939-1.125-7.39 4.93-10.933"/><path fill="#F97253" d="M15.702 9.159c2.332-.659 4.076.95 3 1.063-1.938.206-4.008 2.209-5.612 3.723-2.944 2.777-3.611 6.11-4 5.555-.633-.904-.652-4.066 1.583-6.838s4.046-3.225 5.028-3.503"/><path fill="#77B255" d="M20.565 9.902c.966.31 2.216 2.029 2.197 3.472-.05 3.847-1.837 5.33-1.837 5.33s-1.133-4.145-.965-5.653c.124-1.101.732-1.407.841-2.03.102-.58-.236-1.119-.236-1.119"/></g></svg>