<svg xmlns="http://www.w3.org/2000/svg" width="32" height="32" fill="none"><defs><filter id="a"><feMorphology in="SourceAlpha" operator="dilate" radius="1" result="expanded"/><feFlood flood-color="#fff" result="color"/><feComposite in="color" in2="expanded" operator="in"/><feComposite in="SourceGraphic"/></filter></defs><g filter="url(#a)"><path fill="#A6D388" d="M22.962 12.491c2.21 3.826.995 8.663-2.712 10.804s-8.252 1.206-10.462-2.62c-2.5-4.33-1.245-9.097 2.462-11.237s8.962.022 10.712 3.053"/><path fill="#77B255" d="M19 10c1.5.5 3 2 4 3.5.418.627.364-.04-.147-1.174-1.843-2.942-6.965-4.989-10.603-2.888a7.42 7.42 0 0 0-3.207 3.704c.361-.407.717-.642.957-.642.5 0-.948 1.64.5 5.5 1.5 4 1.5 2 1.5 2s-1-4.5-.5-6 1-2.5 1.5-2 2.5 4.5 3.5 7c1.13 2.823 1-.5-.5-4-1.42-3.314-1.5-4-1-4s1.733.732 3.5 2.5c1 1 1.5 2.5 2 3s.5-.5 0-2c-.354-1.06-1.5-3-3-4-1.248-.832 0-1 1.5-.5"/><path fill="#5C913B" d="M12.967 10.18a.5.5 0 0 1-.684-.183c-.552-.957-.63-2.152-.633-2.202a.501.501 0 0 1 1-.061c0 .01.068 1.013.5 1.762a.5.5 0 0 1-.183.684"/><path fill="#77B255" d="M12.98 22.267c-.48-.267-.863-.988-1.204-1.613-.341-.624.138-.638.443-.08.34.625.602.807.943 1.431.34.625.097.416-.182.262m4.772.186c-.437-1.03-.406-1.528-.843-2.557-.437-1.03-.375-2.027.062-.998s.874 2.059.843 2.557zM20.5 16.5c.5 1.5 0 1 .5 2.5s.5 2.5.5 0c0-1.58-.5-3-1-3.5-.79-.79 0 1 0 1"/></g></svg>