<svg xmlns="http://www.w3.org/2000/svg" width="32" height="32" fill="none"><defs><filter id="a"><feMorphology in="SourceAlpha" operator="dilate" radius="1" result="expanded"/><feFlood flood-color="#fff" result="color"/><feComposite in="color" in2="expanded" operator="in"/><feComposite in="SourceGraphic"/></filter></defs><g filter="url(#a)"><path fill="#D79E84" d="M10.23 18.363c1.02-.273 1.529-1.674 1.139-3.129s-1.532-2.413-2.55-2.14-1.528 1.673-1.138 3.129c.39 1.454 1.531 2.413 2.55 2.14M24.369 16.22c.39-1.454-.12-2.855-1.138-3.128-1.019-.273-2.16.686-2.55 2.14-.39 1.456.12 2.856 1.138 3.13 1.018.272 2.16-.686 2.55-2.141"/><path fill="#BF6952" d="M16.509 25h-1.018c-3.359 0-6.616-2.576-6.616-6.182 0-2.06.764-3.091.764-3.091s-.255-1.03-.255-2.06C9.384 10.575 12.641 8 16 8s6.616 3.091 6.616 5.666c0 1.031-.255 2.061-.255 2.061s.764 1.03.764 3.091c0 3.606-3.257 6.182-6.616 6.182"/><path fill="#D79E84" d="M22 15.021c0-1.945-1.587-3.521-3.546-3.521-.953 0-1.817.376-2.454.984a3.54 3.54 0 0 0-2.454-.984C11.588 11.5 10 13.076 10 15.021c0 1.18.586 2.22 1.483 2.86a5.35 5.35 0 0 0-.392 2.015c0 2.842 2.198 4.604 4.909 4.604s4.909-1.762 4.909-4.604c0-.716-.14-1.396-.392-2.015A3.5 3.5 0 0 0 22 15.02"/><path fill="#292F33" d="M13.5 17.125c.621 0 1.125-.727 1.125-1.625s-.504-1.625-1.125-1.625-1.125.727-1.125 1.625.504 1.625 1.125 1.625M18.5 17.125c.621 0 1.125-.727 1.125-1.625s-.504-1.625-1.125-1.625-1.125.727-1.125 1.625.504 1.625 1.125 1.625"/><path fill="#642116" d="M16 23.364c1.419 0 2.627-.753 3.08-1.805a.66.66 0 0 0-.604-.922h-4.952a.66.66 0 0 0-.605.922c.454 1.052 1.662 1.805 3.08 1.805M15.125 19a.5.5 0 1 0 0-1 .5.5 0 0 0 0 1M16.875 19a.5.5 0 1 0 0-1 .5.5 0 0 0 0 1"/><path fill="#BF6952" d="M18.33 7.087s-2.727-.545-3.818 1.091c-1.09 1.637 2.182.546 2.182.546s.545-1.637 1.636-1.637"/></g></svg>