<svg xmlns="http://www.w3.org/2000/svg" width="32" height="32" fill="none"><defs><filter id="a"><feMorphology in="SourceAlpha" operator="dilate" radius="1" result="expanded"/><feFlood flood-color="#fff" result="color"/><feComposite in="color" in2="expanded" operator="in"/><feComposite in="SourceGraphic"/></filter></defs><g filter="url(#a)"><path fill="#99AAB5" d="M11.25 16a4.25 4.25 0 1 0 0-8.5 4.25 4.25 0 0 0 0 8.5M20.75 16a4.25 4.25 0 1 0 0-8.5 4.25 4.25 0 0 0 0 8.5"/><path fill="#F4ABBA" d="M13.906 12.016a2.922 2.922 0 1 1-5.844 0 2.922 2.922 0 0 1 5.844 0m10.032 0a2.922 2.922 0 1 1-5.845 0 2.922 2.922 0 0 1 5.845 0"/><path fill="#99AAB5" d="M22 16c0 3.59-4 7.5-6 7.5s-6-3.91-6-7.5 3.5-4.5 6-4.5 6 .91 6 4.5"/><path fill="#F4ABBA" d="M17.453 21.825c0 .802-1.006 1.676-1.453 1.676s-1.452-.874-1.452-1.676c0-.803.894-.978 1.452-.978.559 0 1.453.175 1.453.978"/><path fill="#66757F" d="M24.5 23.08a.5.5 0 0 1-.257-.071c-2.314-1.389-5.64-.939-5.673-.933a.5.5 0 0 1-.141-.99c.15-.022 3.706-.508 6.328 1.066a.5.5 0 0 1-.257.928"/><path fill="#66757F" d="M23 24.58a.5.5 0 0 1-.4-.2c-1.364-1.818-4.155-2.301-4.182-2.306a.5.5 0 1 1 .164-.986c.13.022 3.216.558 4.818 2.694a.5.5 0 0 1-.4.799m-15.5-1.5a.5.5 0 0 1-.257-.928c2.622-1.573 6.177-1.087 6.328-1.066a.5.5 0 0 1-.141.99c-.033-.004-3.359-.454-5.673.934a.5.5 0 0 1-.257.07"/><path fill="#66757F" d="M9 24.58a.498.498 0 0 1-.4-.799c1.601-2.135 4.688-2.671 4.818-2.693a.5.5 0 0 1 .165.986c-.028.005-2.825.495-4.184 2.306a.5.5 0 0 1-.4.2"/><path fill="#272B2B" d="M13 17.5s0-1 1-1 1 1 1 1v1s0 1-1 1-1-1-1-1zm4 0s0-1 1-1 1 1 1 1v1s0 1-1 1-1-1-1-1z"/></g></svg>