<svg xmlns="http://www.w3.org/2000/svg" width="32" height="32" fill="none"><defs><filter id="a"><feMorphology in="SourceAlpha" operator="dilate" radius="1" result="expanded"/><feFlood flood-color="#fff" result="color"/><feComposite in="color" in2="expanded" operator="in"/><feComposite in="SourceGraphic"/></filter></defs><g filter="url(#a)"><path fill="#553788" d="M12.444 12.333c1.333 2.222 0 4.752-1.333 4.308-1.334-.445-1.778.889-.445 1.333 1.334.444 4.207-.207 5.778-1.778.445-.444.89-.444.89-.444z"/><path fill="#553788" d="M19.555 12.333c-1.333 2.222 0 4.752 1.334 4.308 1.333-.445 1.777.889.444 1.333s-4.206-.207-5.778-1.778c-.444-.444-.889-.444-.889-.444z"/><path fill="#744EAA" d="M21.417 14.111c-1.333 2.223 0 4.752 1.333 4.308 1.334-.445 1.778.889.445 1.333-1.333.445-4.207-.206-5.778-1.778-.444-.444-.889-.444-.889-.444zm-10.834 0c1.334 2.223 0 4.752-1.333 4.308-1.333-.445-1.778.889-.444 1.333 1.333.445 4.206-.206 5.777-1.778.445-.444.89-.444.89-.444z"/><path fill="#9266CC" d="M22.75 20.944c-1.212.405-2.855-2.5-2.138-4.7.731-1.442 1.166-3.048 1.166-4.355C21.778 8.698 19.191 7 16 7s-5.778 1.698-5.778 4.889c0 1.307.435 2.913 1.167 4.354.716 2.201-.926 5.106-2.139 4.701-1.333-.444-1.778 1.334-.444 1.778 1.333.445 3.693-.278 5.333-1.778.973-.888 1.862-.888 1.862-.888s.889 0 1.861.888c1.64 1.5 4 2.223 5.333 1.778s.889-2.222-.445-1.778"/><path fill="#292F33" d="M14.222 17.222a.889.889 0 1 0 0-1.778.889.889 0 0 0 0 1.778M17.778 17.222a.889.889 0 1 0 0-1.778.889.889 0 0 0 0 1.778"/></g></svg>