<svg xmlns="http://www.w3.org/2000/svg" width="32" height="32" fill="none"><defs><filter id="a"><feMorphology in="SourceAlpha" operator="dilate" radius="1" result="expanded"/><feFlood flood-color="#fff" result="color"/><feComposite in="color" in2="expanded" operator="in"/><feComposite in="SourceGraphic"/></filter></defs><g filter="url(#a)"><path fill="#909B50" d="M13.62 18.996c.637-.808 2.228-.445 3.208.268s1.545 2.168.95 2.97c-.593.802-2.078.98-3.207.208s-1.723-2.465-.95-3.446M15.848 8.6c1.4.171 1.604 1.485 1.396 2.852s-1.218 2.673-2.347 2.614c-1.128-.06-1.574-1.723-1.396-3.12.179-1.395 1.13-2.494 2.347-2.346"/><path fill="#C1694F" d="M7.65 23.438a.312.312 0 0 1-.288-.432c1.197-2.878 3.031-4.323 4.36-5.028.785-.416 1.47-1.124 2.018-1.693.332-.344.618-.64.884-.836.678-.502 3.167-2.248 3.273-2.322a.312.312 0 1 1 .359.512c-.026.018-2.589 1.816-3.26 2.313-.224.165-.494.444-.806.768-.58.6-1.302 1.348-2.175 1.81-1.238.658-2.95 2.01-4.075 4.717a.32.32 0 0 1-.29.191"/><path fill="#C1694F" d="M10.769 19.25a.31.31 0 0 1-.311-.286c-.005-.056-.12-1.4-.06-2.218a.31.31 0 0 1 .334-.29.313.313 0 0 1 .29.335c-.058.768.057 2.105.058 2.119a.313.313 0 0 1-.284.338zm3 .178a.3.3 0 0 1-.17-.05l-.115-.076c-.419-.272-1.2-.775-1.582-.738a.31.31 0 0 1-.345-.277.31.31 0 0 1 .276-.344c.565-.059 1.263.36 1.992.836l.114.074a.312.312 0 0 1-.17.575m1.025-3.425a.29.29 0 0 1-.26-.154c-.267-.49.094-2.01.192-2.256a.312.312 0 1 1 .58.232c-.13.327-.315 1.509-.222 1.728a.324.324 0 0 1-.146.416.3.3 0 0 1-.144.034"/><path fill="#C1694F" d="M16.887 17.081a.3.3 0 0 1-.183-.06c-.788-.573-1.492-.78-2.153-.63a.313.313 0 0 1-.138-.61c.844-.192 1.715.049 2.658.735a.311.311 0 0 1-.184.566M18.7 15.27a.3.3 0 0 1-.104-.018c-.51-.18-1.562-.441-2.264-.286a.313.313 0 0 1-.136-.61c1.037-.23 2.45.25 2.608.307a.313.313 0 0 1-.104.607"/><path fill="#3E721D" d="M24.224 8.422c1.25.568-.713 2.703-1.812 3.326s-5.227 2.703-5.495 2.525c-.267-.179 1.545-3.386 3.357-4.574s3.297-1.574 3.95-1.277m-7.752 7.87c.672-.251 3.386.684 4.693 1.575s2.02 2.317 1.455 2.792c-.564.475-2.91.12-4.396-1.218-1.485-1.337-2.228-2.97-1.752-3.148m-4.664-7.81c1.113-.193 1.426 2.108 1.07 3.89s-1.901 5.317-2.169 5.376c-.267.06-1.455-2.91-1.247-5.079s1.485-4.04 2.346-4.188"/><path fill="#909B50" d="M23.17 16.746c-.4 1.354-1.729 1.337-3.042.906-1.314-.43-2.436-1.642-2.19-2.746.244-1.103 1.958-1.268 3.306-.862 1.347.407 2.274 1.526 1.927 2.702"/><path fill="#C7CC62" d="M20.554 14.252c.964.231 1.575.624 1.753.92.178.298-.03.625-.475.298-.446-.327-1.515-.743-2.05-.832-.535-.09.03-.565.772-.386M15 9.113c.7-.323 1.336 0 1.307.208s-.921 0-1.337.446c-.415.445-.98.653-.861.326.118-.327.505-.802.89-.98m.772 10.01c.716.05 1.485 1.099 1.218 1.307s-.832-.832-1.367-.95c-.534-.12-.683-.416.149-.357"/></g></svg>