<svg xmlns="http://www.w3.org/2000/svg" width="32" height="32" fill="none"><defs><filter id="a"><feMorphology in="SourceAlpha" operator="dilate" radius="1" result="expanded"/><feFlood flood-color="#fff" result="color"/><feComposite in="color" in2="expanded" operator="in"/><feComposite in="SourceGraphic"/></filter></defs><g filter="url(#a)"><path fill="#E26000" d="M24.5 22.112c0-5.667-.944-13.222-8.5-13.222s-8.5 7.555-8.5 13.222h3.778V19.75c0-.473.472-.473.472 0 0 3.305 1.889 2.833 1.889 2.833l.944.945.473-.473c0-.26.683-.472.944-.472s.944.212.944.472l.473.473.944-.945s1.889.472 1.889-2.833c0-.473.472-.473.472 0v2.36z"/><path fill="#E26000" d="M16 18.805a5.43 5.43 0 1 0 0-10.86 5.43 5.43 0 0 0 0 10.86"/><path fill="#D9B981" d="M22.611 21.64c-1.417 0-1.889.472-1.889.472v.472a.472.472 0 0 0 .945 0 .472.472 0 0 0 .944 0 .472.472 0 0 0 .945 0 .472.472 0 0 0 .944 0v-.472s-.472-.472-1.889-.472m-13.222 0c-1.417 0-1.889.472-1.889.472v.472a.472.472 0 0 0 .944 0 .472.472 0 0 0 .945 0 .472.472 0 0 0 .944 0 .472.472 0 0 0 .945 0v-.472s-.472-.472-1.89-.472"/><path fill="#C45400" d="M10.57 16.26c0 2.57 3.62 3.49 5.43 3.49s5.43-.92 5.43-3.49c0-1.118-.459-2.142-1.224-2.945q.017-.171.018-.352c0-2.25-.965-4.073-4.224-4.073-3.258 0-4.223 1.823-4.223 4.073q.001.18.019.352c-.766.803-1.226 1.827-1.226 2.945"/><path fill="#D9B981" d="M11.278 15.298c0 2.236 3.148 3.036 4.722 3.036s4.722-.8 4.722-3.036c0-.971-.4-1.862-1.065-2.56q.015-.15.016-.307c0-1.956-.84-3.541-3.673-3.541s-3.673 1.585-3.673 3.541q.001.158.017.307c-.666.698-1.066 1.589-1.066 2.56"/><path fill="#292F33" d="M15.056 12.667a.472.472 0 1 0 0-.944.472.472 0 0 0 0 .944M16.944 12.667a.472.472 0 1 0 0-.944.472.472 0 0 0 0 .944"/><path fill="#FFE8B6" d="M13.483 12.229a.236.236 0 0 1-.229-.296 1.656 1.656 0 0 1 2.017-1.182.236.236 0 1 1-.12.457 1.183 1.183 0 0 0-1.44.844.24.24 0 0 1-.228.177m5.034 0c-.105 0-.2-.07-.228-.177a1.17 1.17 0 0 0-.546-.72 1.17 1.17 0 0 0-.895-.124.236.236 0 1 1-.119-.457c.425-.11.872-.05 1.253.174s.652.581.763 1.008a.236.236 0 0 1-.228.296"/><path fill="#C09154" d="m13.639 9.362.944 1.416.472-.472.945 1.417.944-1.417.472.473.945-1.417S17.416 8.89 16 8.89s-2.361.472-2.361.472"/><path fill="#E26000" d="m13.639 9.361.944.945.472-.945.945 1.417.944-1.417.472.945.945-.945s-.945-.944-2.361-.944-2.361.944-2.361.944"/><path fill="#C09154" d="M15.764 13.612a.236.236 0 1 0 0-.472.236.236 0 0 0 0 .472"/><path fill="#C09154" d="M16.236 13.612a.236.236 0 1 0 0-.472.236.236 0 0 0 0 .472"/><path fill="#292F33" d="M16 16.917c-1.73 0-2.496-.746-2.528-.778a.236.236 0 0 1 .333-.335c.006.006.676.64 2.195.64 1.52 0 2.189-.633 2.195-.64a.24.24 0 0 1 .334.003.235.235 0 0 1-.001.332c-.032.032-.797.777-2.528.777"/><path fill="#D9B981" d="M15.667 22.583c-.11 1.05-2.361 1.889-2.833.944-.117-.233-1.106-2.33-1.197-2.575a.472.472 0 1 1 .884-.33.472.472 0 1 1 .885-.332.472.472 0 1 1 .884-.33.472.472 0 1 1 .885-.332c.09.243.542 2.485.492 2.955m.666 0c.11 1.05 2.361 1.889 2.833.944.117-.233 1.106-2.33 1.197-2.575a.472.472 0 1 0-.884-.33.472.472 0 1 0-.885-.332.472.472 0 1 0-.884-.33.472.472 0 1 0-.885-.332c-.09.243-.542 2.485-.492 2.955"/></g></svg>