<svg xmlns="http://www.w3.org/2000/svg" width="32" height="32" fill="none"><defs><filter id="a"><feMorphology in="SourceAlpha" operator="dilate" radius="1" result="expanded"/><feFlood flood-color="#fff" result="color"/><feComposite in="color" in2="expanded" operator="in"/><feComposite in="SourceGraphic"/></filter></defs><g filter="url(#a)"><path fill="#F4900C" d="M9.334 16.666a7.333 7.333 0 1 1 14.666 0 7.333 7.333 0 0 1-14.666 0"/><path fill="#662113" d="M13.073 11.37c-.119-.118-.354-.087-.602.054-1.467-1.214-3.846-1.623-3.954-1.64a.444.444 0 0 0-.146.876c.024.004 2.193.38 3.476 1.404-.122.233-.144.451-.031.564.173.174.595.033.943-.315.347-.346.487-.768.314-.942"/><path fill="#5C913B" d="M17.333 8.444s-1.38 1.92-3.12 2.344c-1.324.323-3.084.354-3.26-.055-.174-.409.7-1.75 2.21-2.397 1.509-.647 4.17.108 4.17.108"/></g></svg>