<svg xmlns="http://www.w3.org/2000/svg" width="32" height="32" fill="none"><defs><filter id="a"><feMorphology in="SourceAlpha" operator="dilate" radius="1" result="expanded"/><feFlood flood-color="#fff" result="color"/><feComposite in="color" in2="expanded" operator="in"/><feComposite in="SourceGraphic"/></filter></defs><g filter="url(#a)"><path fill="#A78E81" d="M7.323 10.817c-.874 0-1.311.437-.874.874.874.874 1.747.874 2.184.436zm3.494-3.494c0-.874.437-1.311.874-.874.874.874.874 1.747.436 2.184zm-2.62 5.241s4.748 8.018 8.299 9.174c1.858.603 3.162.332 4.368-.874 1.206-1.207 1.337-2.47.874-4.369-.773-3.169-9.174-8.299-9.174-8.299z"/><path fill="#A78E81" d="M14.96 20.918c2.351 2.978 4.885 4.337 5.814 3.622.902-.695-.18-1.433-1.207-3.864-1.076-2.544-5.848-1.331-4.607.242m5.956-5.99c2.978 2.35 4.336 4.921 3.62 5.85-.694.902-1.432-.18-3.863-1.208-2.545-1.075-1.33-5.884.244-4.642"/><path fill="#846659" d="M15.449 17.98c.388-.715-.508-1.868-1.391-1.841-.651.02-2.01 1.074-3.268-.414-.117.116-.17.275-.173.46a34 34 0 0 0 2.137 2.647c.92.266 2.174.107 2.695-.852m.69-3.922c-.027.883 1.127 1.78 1.841 1.391.951-.517 1.115-1.755.858-2.672a38 38 0 0 0-2.695-2.157.63.63 0 0 0-.418.17c1.488 1.259.434 2.617.414 3.268"/><path fill="#CAB8AC" d="M13.412 15.387c.882-.028 1.78 1.126 1.39 1.84-.621 1.146-2.296 1.16-3.188.658-.995-.56-2.073-2.31-1.47-2.913 1.258 1.49 2.616.435 3.268.415m1.974-1.974c-.028.883 1.126 1.78 1.84 1.39 1.146-.621 1.16-2.296.658-3.188-.56-.995-2.31-2.073-2.913-1.47 1.488 1.258.435 2.617.415 3.268"/><path fill="#A78E81" d="M21.301 19.554c1.93 1.93 4.85 5.633 4.369 6.116-.483.482-4.186-2.439-6.116-4.369s-2.23-3.012-1.747-3.494 1.564-.183 3.494 1.747m-8.3-11.794c1.207 1.206.864 2.63-.873 4.368-1.737 1.737-3.162 2.08-4.368.874s-1.3-3.068.437-4.805 3.598-1.643 4.805-.437"/><path fill="#CAB8AC" d="M13.632 8.39c.68.68 1.106 2.875-.631 4.612s-3.931 1.31-4.611.631c-1.072-1.072.68-2.815 1.553-3.689.874-.874 2.617-2.625 3.689-1.553"/><path fill="#292F33" d="M11.254 9.506a1.236 1.236 0 0 1-1.748 1.748c-.482-.483-.045-.828.438-1.31.482-.483.827-.92 1.31-.438M8.633 11.871a.618.618 0 1 0 0-1.235.618.618 0 0 0 0 1.235M11.254 9.251a.618.618 0 1 0 0-1.235.618.618 0 0 0 0 1.235"/><path fill="#A78E81" d="M11.92 11.778c-.237 0-.456-.056-.63-.171a.229.229 0 0 1 .253-.381c.251.166.744.104 1.122-.141.153-.1.503-.375.436-.777a.228.228 0 0 1 .45-.075c.078.464-.161.926-.639 1.235-.314.205-.669.31-.992.31"/><path fill="#A78E81" d="M10.406 13.566q-.086 0-.172-.015a.228.228 0 1 1 .075-.45c.401.067.678-.283.777-.437.245-.378.307-.871.14-1.122a.228.228 0 1 1 .382-.252c.271.41.215 1.077-.139 1.622-.27.419-.659.654-1.063.654"/><path fill="#846659" d="M20.242 22.058c-.568-.908-.834-1.98-.5-2.315.341-.34 1.152-.414 2.326.488-.748-.715-2.087-1.497-2.325-2.802.068 1.202-.233 2.57-2.292 2.246 1.157.34 2.79 2.383 2.79 2.383"/><path fill="#67757F" d="M7.627 14.739a.27.27 0 0 1-.266-.318c.226-1.26.996-2.162 2.06-2.41a.27.27 0 1 1 .123.526c-.848.198-1.464.938-1.652 1.98a.27.27 0 0 1-.265.222"/><path fill="#67757F" d="M8.818 14.874a.27.27 0 0 1-.27-.25c-.043-.6.275-1.389.882-1.672a.27.27 0 1 1 .228.49c-.372.173-.6.741-.57 1.142a.27.27 0 0 1-.25.289zm3.449-5.116a.27.27 0 0 1-.263-.332c.248-1.063 1.15-1.833 2.41-2.06a.27.27 0 0 1 .094.532c-1.041.187-1.781.804-1.98 1.65a.27.27 0 0 1-.261.21"/><path fill="#67757F" d="M13.191 9.82a.27.27 0 0 1-.245-.384c.284-.607 1.067-.925 1.672-.881a.27.27 0 1 1-.04.538c-.395-.027-.967.198-1.142.571a.27.27 0 0 1-.245.156"/></g></svg>