<svg xmlns="http://www.w3.org/2000/svg" width="32" height="32" fill="none"><defs><filter id="a"><feMorphology in="SourceAlpha" operator="dilate" radius="1" result="expanded"/><feFlood flood-color="#fff" result="color"/><feComposite in="color" in2="expanded" operator="in"/><feComposite in="SourceGraphic"/></filter></defs><g filter="url(#a)"><path fill="#662113" d="M10.659 12.5c-2.862 4.541.478 9 .478 9s1.438-.221 3.438-2.6-3.916-6.4-3.916-6.4m10.67 0c2.862 4.541-.479 9-.479 9s-1.437-.221-3.437-2.6 3.916-6.4 3.916-6.4"/><path fill="#FFAC33" d="M14.601 22.779a.6.6 0 0 0-.265-.248c-1.016-1.086-.295-2.359-.295-2.359 0-.351.636-1.272 0-1.272l-.636.636c-.636.636-.636 2.545-.636 2.545h-1.272a.635.635 0 1 0 0 1.271h.704l-.14.077a.637.637 0 0 0 .604 1.12l1.679-.908a.637.637 0 0 0 .257-.862m2.798 0a.6.6 0 0 1 .265-.248c1.017-1.086.295-2.359.295-2.359 0-.351-.636-1.272 0-1.272l.636.636c.636.636.636 2.545.636 2.545h1.272a.635.635 0 1 1 0 1.271H19.8l.14.077a.637.637 0 1 1-.605 1.12l-1.678-.908a.636.636 0 0 1-.257-.862"/><path fill="#662113" d="M21.139 12.646c1.445-3.046 0-5.271 0-5.271s-2.89.48-3.372 1.438c-.61 1.211 3.372 3.833 3.372 3.833"/><path fill="#662113" d="M21.781 13.369c0 5.148-1.576 10.297-5.78 10.297s-5.782-5.149-5.782-10.298c0-5.148 2.588-5.327 5.781-5.327 3.194 0 5.781.179 5.781 5.327"/><path fill="#C1694F" d="M20.833 15.869c0 5.148-3.887 7.297-4.833 7.297s-4.833-2.149-4.833-7.297c0-5.15 9.666-5.15 9.666 0"/><path fill="#662113" d="M10.861 12.646c-1.445-3.046 0-5.271 0-5.271s2.891.48 3.373 1.438c.61 1.211-3.373 3.833-3.373 3.833"/><path fill="#C1694F" d="M14.464 9.187c-2.113-.792-3.603-1.812-3.603-1.812s-1.038 1.61-.464 3.963c.223 1.069.97 2.098 1.952 2.331 1.318.313 3.65-.024 3.65-1.982 0-1.347-.536-2.125-1.535-2.5m3.071 0c2.114-.792 3.603-1.812 3.603-1.812s1.038 1.61.464 3.963c-.222 1.069-.97 2.098-1.95 2.331-1.32.313-3.652-.024-3.652-1.982 0-1.347.537-2.125 1.535-2.5"/><path fill="#FFD983" d="M15.042 11.209a1.916 1.916 0 1 1-3.833 0 1.916 1.916 0 0 1 3.832 0m5.75 0a1.916 1.916 0 1 1-3.833 0 1.916 1.916 0 0 1 3.832 0"/><path fill="#292F33" d="M14.084 11.209a.958.958 0 1 1-1.917 0 .958.958 0 0 1 1.917 0m5.75 0a.958.958 0 1 1-1.917 0 .958.958 0 0 1 1.916 0"/><path fill="#FFCC4D" d="M17.438 13.365c0 1.19-1.438 1.676-1.438 1.676s-1.437-.486-1.437-1.677c0-1.19 1.437-1.677 1.437-1.677s1.438.487 1.438 1.678"/><path fill="#F4900C" d="M17.438 13.364c0 1.191-1.438 1.677-1.438 1.677s-1.437-.486-1.437-1.677c.598.6 1.437.72 1.437.72s.838-.12 1.438-.72"/></g></svg>