<svg xmlns="http://www.w3.org/2000/svg" width="32" height="32" fill="none"><defs><filter id="a"><feMorphology in="SourceAlpha" operator="dilate" radius="1" result="expanded"/><feFlood flood-color="#fff" result="color"/><feComposite in="color" in2="expanded" operator="in"/><feComposite in="SourceGraphic"/></filter></defs><g filter="url(#a)"><path fill="#C1694F" d="M24.84 11.984c-.18-.983-1.075-1.873-2.173-1.873H11c-.555 0-2.958.02-3.333 1.111l-1.283 3.503c-.375 1.092.172 2.657 1.298 2.657.639 0 1.442-.016 2.221-.029C11.565 19.581 13.166 24 13.778 24c.472 0 .873-1.896 1.034-3.333h6.25c.13 1.404.469 3.333 1.05 3.333.53 0 1.653-2.39 2.297-6.065.24-1.056.403-2.454.458-4.248q.02.141.022.313v5A.555.555 0 1 0 26 19v-5c0-1.004-.416-1.696-1.16-2.016"/><path fill="#CCD6DD" d="M11.556 10.666c-1.112 1.111-2.662-.555-3.89-.555C6.44 10.11 6 9.87 6 9.573s.995-.539 2.222-.539 4.445.521 3.334 1.632"/><path fill="#292F33" d="M9.333 13.444a.556.556 0 1 0 0-1.11.556.556 0 0 0 0 1.11"/></g></svg>