<svg xmlns="http://www.w3.org/2000/svg" width="32" height="32" fill="none"><defs><filter id="a"><feMorphology in="SourceAlpha" operator="dilate" radius="1" result="expanded"/><feFlood flood-color="#fff" result="color"/><feComposite in="color" in2="expanded" operator="in"/><feComposite in="SourceGraphic"/></filter></defs><g filter="url(#a)"><path fill="#662113" d="M23.747 15.189c-.113-2.383-16.44-2.05-16.44-2.05 0 1.5.762 2.029.698 2.733-.06.653.98.89.98.89s.822.377.822 1.377c0 .656.575 1.381 1.08 3.085.15 1.575 1.887 1.994 2.674 1.767.85-.244 1.536-.103 1.782.134.586.564 1.595.358 2.198.104.392-.165.643-.699 1.545-.267.683.326 1.177.075 1.784-.45l-.004.014c.022-.032.056-.055.083-.082l.104-.095c.486-.317 1.453-.233 1.685-.774.276-.644 1.294-.938 1.398-1.123.416-.743-.291-1.022-.24-1.343.3-.202.7-.35.953-.84.555-1.079-1.057-2.125-1.102-3.08"/><path fill="#C1694F" d="M7.307 11.14c.5-1.5 2.5-2 4-2s6.5.5 8 1.5 4.5 3.5 4.5 4 1 2 1 2.5-.5 1.5-1 1.5.5.5 0 1.5c-.224.447-2 1.5-2.5 1.5s-1 1-1.5 1-1.5-.5-2 0-1.5.5-2.5 0-1.5 0-2 0-2-1-2-1.5-.5-3-1-3.5-1-2-2-2.5-1.5-2.5-1-4"/><path fill="#CCD6DD" d="M8.564 11.07c.908-1.155 2.243-1.43 3.743-1.43s6 .5 7.5 1.5c.771.514 1.807 1.425 2.632 2.257.778.786 1.368 1.5 1.368 1.743 0 .5 1 1.5 1 2s-.5 1-1 1-.304.9-.5 2c-.111.623-1.423 1.12-2 1-.49-.102-1 1-1.5 1s-1.5-.5-2 0-1 1-2 .5-1.5-.5-2-.5-2-.5-2-1-.5-3-1-3.5-1-2-2-2.5-1.22-2.826-.243-4.07"/><path fill="#E1E8ED" d="M9.1 11.525c.993-1.23 2.712-1.197 4.212-1.197s4.816.197 6.316 1.197 3.68 3.115 3.68 3.615 1.15 1.789 1.15 2.289-.65.21-1.15.21.247 1.473-.253 2.473c-.224.447-1.248.528-1.748.528s-.972 1.247-1.472 1.247-1.528-.747-2.028-.247-.77 1.367-1.77.867-1.791-1.108-2.23-.867c-.825.454-1.5-.5-1.5-1s-.848-3.29-1.348-3.79-.652-1.935-1.652-2.435-.817-2.133-.206-2.89"/><path fill="#FFAC33" d="M8.743 11.196c.616-1.146 2.544-1.178 3.608-1.133 1.064.046 4.21.499 5.042 1.495s1.942 1.813 2.636 2.13 2.73 1.042 2.683 2.039-.787 1.404-.787 1.404 1.064.997.555 1.767-2.451 1.043-3.284.544-1.619.543-2.96.317-2.497-.77-3.423-2.401c-.925-1.632-2.405-2.674-3.191-3.353-.787-.68-1.341-1.948-.879-2.809"/><path fill="#FFD983" d="M20.447 18.814c-.29 0-.548-.061-.726-.171a1.65 1.65 0 0 0-.892-.264c-.321 0-.607.09-.881.178-.285.09-.553.175-.884.175q-.164 0-.353-.031c-1.447-.253-2.457-.988-3.178-2.31-.761-1.392-1.753-2.098-2.55-2.665a8 8 0 0 1-.707-.538c-.6-.539-1.044-1.436-.75-2.005.246-.476.806-.688 1.814-.688.255 0 .505.013.736.024l.204.01c2.086.092 3.794.535 4.25 1.103.924 1.148 2.48 2.265 3.25 2.63.131.062.297.131.484.207.453.185 1.657.678 1.64 1.07-.026.564-.508.769-.562.79l-1.199.468 1.063.731c.285.197.654.61.568.745-.197.309-.767.54-1.327.54"/><path fill="#FFAC33" d="M15.433 15.664c.99 0 1.794-.48 1.794-1.072s-.803-1.072-1.794-1.072c-.99 0-1.793.48-1.793 1.072s.803 1.072 1.793 1.072"/><path fill="#E1E8ED" d="M15.434 14.952a1.75 1.75 0 1 0 0-3.5 1.75 1.75 0 0 0 0 3.5"/><path fill="#fff" d="M15.434 13.53c.598 0 1.083-.41 1.083-.916s-.485-.916-1.083-.916-1.083.41-1.083.916.484.916 1.083.916"/></g></svg>