<svg xmlns="http://www.w3.org/2000/svg" width="32" height="32" fill="none"><defs><filter id="a"><feMorphology in="SourceAlpha" operator="dilate" radius="1" result="expanded"/><feFlood flood-color="#fff" result="color"/><feComposite in="color" in2="expanded" operator="in"/><feComposite in="SourceGraphic"/></filter></defs><g filter="url(#a)"><path fill="#272B2B" d="M11.111 13.833a2.667 2.667 0 1 0 0-5.333 2.667 2.667 0 0 0 0 5.333M20.889 13.833a2.667 2.667 0 1 0 0-5.333 2.667 2.667 0 0 0 0 5.333"/><path fill="#66757F" d="M11.111 12.944a1.778 1.778 0 1 0 0-3.555 1.778 1.778 0 0 0 0 3.555M20.89 12.944a1.778 1.778 0 1 0 0-3.555 1.778 1.778 0 0 0 0 3.555"/><path fill="#EEE" d="M23.555 18.278c0 3.11-2.833 5.333-7.555 5.333s-7.556-2.222-7.556-5.333c0 0 .582-9.778 7.556-9.778s7.555 9.778 7.555 9.778"/><path fill="#CCD6DD" d="M16 24.5a2.667 2.667 0 1 0 0-5.333 2.667 2.667 0 0 0 0 5.333"/><path fill="#DD2E44" d="M16 23.611a1.778 1.778 0 1 0 0-3.555 1.778 1.778 0 0 0 0 3.555"/><path fill="#272B2B" d="M17.204 14.123c1.98-1.234 5.018 1.932 2.775 4.452-1.55 1.742-3.09 1.035-3.09 1.035s-1.172-4.56.315-5.487m-2.419.005c-1.98-1.234-5.018 1.931-2.775 4.451 1.551 1.743 3.09 1.036 3.09 1.036s1.172-4.56-.315-5.487"/><path fill="#66757F" d="M12.889 16.056s0-.889.889-.889c.888 0 .888.889.888.889v.889s0 .889-.888.889c-.89 0-.89-.89-.89-.89z"/><path fill="#fff" d="M16 17.389s-4.889 1.638-4.889 3.11a2.667 2.667 0 0 0 4.89 1.474A2.667 2.667 0 0 0 20.89 20.5c0-1.473-4.89-3.111-4.89-3.111"/><path fill="#66757F" d="M17.334 16.056s0-.889.888-.889c.89 0 .89.889.89.889v.889s0 .889-.89.889c-.889 0-.889-.89-.889-.89z"/><path fill="#272B2B" d="M13.834 19.61c-.722.445 1.444 1.779 2.166 1.779.723 0 2.889-1.334 2.167-1.778-.723-.445-3.611-.445-4.333 0"/></g></svg>