<svg xmlns="http://www.w3.org/2000/svg" width="32" height="32" fill="none"><defs><filter id="a"><feMorphology in="SourceAlpha" operator="dilate" radius="1" result="expanded"/><feFlood flood-color="#fff" result="color"/><feComposite in="color" in2="expanded" operator="in"/><feComposite in="SourceGraphic"/></filter></defs><g filter="url(#a)"><path fill="#66757F" d="M15.722 25.445a.278.278 0 0 1-.197-.474l1.03-1.03v-1.552a.278.278 0 0 1 .556 0v1.782l-1.192 1.192a.28.28 0 0 1-.197.082"/><path fill="#66757F" d="M16.833 24.334h-1.667a.278.278 0 0 1 0-.556h1.667a.278.278 0 0 1 0 .556m1.667 1.11a.278.278 0 0 1-.197-.474l1.03-1.03v-1.55a.278.278 0 0 1 .556 0v1.78l-1.193 1.193a.28.28 0 0 1-.196.082"/><path fill="#66757F" d="M19.61 24.333h-1.666a.278.278 0 0 1 0-.556h1.667a.278.278 0 0 1 0 .556"/><path fill="#F4900C" d="M7.961 13.666c.47.251 2.119-.784 2.422-1.838.304-1.054-.567-1.175-1.6-.689-1.035.487-1.227 2.31-.822 2.527"/><path fill="#FFAC33" d="M9.514 8.222c-1.42.556-2.377 1.877-2.385 3.383-.01 1.5.677 2.457 1.44 2.248.21-.057-.168-1.068.473-2.428.316-.67.724-.75.93-.73.208.02.247-2.748-.458-2.473"/><path fill="#77B255" d="M25.18 23.436c-.007.277-1.064.456-3.106-2-1.626 1.717-4.097 1.768-6.568.79-2.777-1.099-4.657-3.846-4.278-7.764.212-2.197-2.904-1.993-2.823-4.944.062-2.22 1.952-3.075 3.542-3.031 2.633.073 3.788 2.94 4.473 3.645 3.608 3.716 8.783 12.483 8.76 13.304"/><path fill="#EA596E" d="M22.073 21.436c-1.626 1.717-4.096 1.768-6.567.79-2.777-1.1-4.657-3.846-4.278-7.764.02 2.413.866 4.212 1.633 4.676-.322-1.55.065-3.924.436-4.322.883 5.223 5.567 8.21 8.776 6.62"/><path fill="#3B88C3" d="M13.298 14.815s.964 3.216 4.072 5.215c3.107 2 4.704 1.406 4.704 1.406s-1.633 1.868-4.248 1.158-5.178-3.332-4.529-7.779"/><path fill="#5C913B" d="M15.41 11.232c-1.391-.327-3.703 3.957-.56 7.44 4.13 4.578 7.224 2.764 7.224 2.764s-2.305-9.181-6.664-10.204"/><path fill="#292F33" d="M10.444 9.888a.556.556 0 1 0 0-1.11.556.556 0 0 0 0 1.11"/><path fill="#5C913B" d="M11.958 13.367c-.439 0-.838-.106-1.098-.25a.287.287 0 0 1 .28-.5c.369.207 1.336.35 2.007-.235a.286.286 0 1 1 .376.431c-.465.405-1.043.553-1.565.553"/></g></svg>