<svg xmlns="http://www.w3.org/2000/svg" width="32" height="32" fill="none"><defs><filter id="a"><feMorphology in="SourceAlpha" operator="dilate" radius="1" result="expanded"/><feFlood flood-color="#fff" result="color"/><feComposite in="color" in2="expanded" operator="in"/><feComposite in="SourceGraphic"/></filter></defs><g filter="url(#a)"><path fill="#292F33" d="M14.055 25a.278.278 0 0 1-.197-.474l1.03-1.03V22.5a.278.278 0 0 1 .556 0v1.227l-1.192 1.192a.28.28 0 0 1-.197.081"/><path fill="#292F33" d="M15.167 23.89H13.5a.278.278 0 0 1 0-.556h1.667a.278.278 0 0 1 0 .555M17.944 25a.28.28 0 0 1-.196-.08l-1.193-1.194V22.5a.278.278 0 0 1 .556 0v.997l1.03 1.03a.278.278 0 0 1-.197.473"/><path fill="#292F33" d="M18.5 23.889h-1.667a.278.278 0 0 1 0-.556H18.5a.278.278 0 0 1 0 .556"/><path fill="#A6D388" d="M26 19.394c0 2.121-1.11 2.829-10 2.829s-10-.708-10-2.829c0-7.029 4.477-12.171 10-12.171s10 5.142 10 12.171"/><path fill="#77B255" d="M16 21.11a.278.278 0 0 1-.088-.541l9.167-3.056a.28.28 0 0 1 .352.176.28.28 0 0 1-.176.352l-9.167 3.055a.3.3 0 0 1-.088.015m0-1.666a.278.278 0 0 1-.163-.503l8.055-5.833a.277.277 0 1 1 .326.45l-8.056 5.833a.27.27 0 0 1-.162.053m0-2.222a.278.278 0 0 1-.235-.425l4.722-7.5a.278.278 0 0 1 .47.296l-4.722 7.5a.28.28 0 0 1-.235.129"/><path fill="#55ACEE" d="M24.055 21.11a1.111 1.111 0 1 0 0-2.221 1.111 1.111 0 0 0 0 2.222M24.055 17.222a1.111 1.111 0 1 0 0-2.222 1.111 1.111 0 0 0 0 2.222M21.833 13.334a1.111 1.111 0 1 0 0-2.223 1.111 1.111 0 0 0 0 2.223M17.945 10.555a1.111 1.111 0 1 0 0-2.222 1.111 1.111 0 0 0 0 2.222M21.556 21.667a.833.833 0 1 0 0-1.667.833.833 0 0 0 0 1.667M21.556 18.334a.833.833 0 1 0 0-1.667.833.833 0 0 0 0 1.667M19.889 15a.833.833 0 1 0 0-1.667.833.833 0 0 0 0 1.667M19.611 21.667a.556.556 0 1 0 0-1.112.556.556 0 0 0 0 1.112M19.611 18.889a.556.556 0 1 0 0-1.112.556.556 0 0 0 0 1.111M17.944 16.667a.556.556 0 1 0 0-1.111.556.556 0 0 0 0 1.11"/><path fill="#77B255" d="M15.722 21.111a.3.3 0 0 1-.088-.014l-9.166-3.055a.278.278 0 0 1 .175-.527l9.167 3.055a.278.278 0 0 1-.088.541m0-1.666a.28.28 0 0 1-.163-.053l-8.055-5.834a.277.277 0 1 1 .326-.45l8.055 5.834a.277.277 0 0 1-.163.503m0-2.223a.28.28 0 0 1-.235-.13l-4.723-7.5a.279.279 0 0 1 .47-.297l4.723 7.501a.277.277 0 0 1-.235.426"/><path fill="#77B255" d="M15.722 18.333a.28.28 0 0 1-.278-.278v-10a.278.278 0 0 1 .556 0v10a.28.28 0 0 1-.278.278"/><path fill="#269" d="M14.333 13.89c-.555-1.112 0-2.223 0-2.223s0 .555.556 1.111c0-1.667.555-1.667.555-1.667s0 1.111.556 1.667c.555.556-1.667 1.111-1.667 1.111m4.443 7.221c-.24-1.11-.958-1.7-1.422-2.5-.372-.642-1.185-2.083-.073-3.676.296-.424-1.047-1.018-1.28-1.043v-.002h-.017v.002c-.234.025-1.576.62-1.28 1.043 1.111 1.593.298 3.034-.074 3.676-.464.8-1.181 1.39-1.422 2.5-.2.927 1.249 2.212 2.776 2.221v.001H16c1.528-.01 2.977-1.295 2.776-2.222"/><path fill="#292F33" d="M16.556 13.889c1.666 0 3.333 1.11 3.333 1.11s-1.667.556-3.333 0c-1.667-.555 0-1.11 0-1.11"/><path fill="#269" d="M16 15.556a1.667 1.667 0 1 0 0-3.333 1.667 1.667 0 0 0 0 3.333"/><path fill="#292F33" d="M16.556 14.444a.555.555 0 1 0 0-1.11.555.555 0 0 0 0 1.11"/><path fill="#55ACEE" d="M7.667 21.11a1.111 1.111 0 1 0 0-2.221 1.111 1.111 0 0 0 0 2.222M7.667 17.222a1.111 1.111 0 1 0 0-2.222 1.111 1.111 0 0 0 0 2.222M9.889 13.334a1.111 1.111 0 1 0 0-2.223 1.111 1.111 0 0 0 0 2.223M13.778 10.555a1.111 1.111 0 1 0 0-2.222 1.111 1.111 0 0 0 0 2.222M10.167 21.667a.833.833 0 1 0 0-1.667.833.833 0 0 0 0 1.667M10.167 18.334a.833.833 0 1 0 0-1.667.833.833 0 0 0 0 1.667M11.833 15a.833.833 0 1 0 0-1.667.833.833 0 0 0 0 1.667M12.111 21.667a.556.556 0 1 0 0-1.112.556.556 0 0 0 0 1.112M12.111 18.889a.556.556 0 1 0 0-1.112.556.556 0 0 0 0 1.111M13.778 16.667a.556.556 0 1 0 0-1.112.556.556 0 0 0 0 1.112"/></g></svg>