<svg xmlns="http://www.w3.org/2000/svg" width="32" height="32" fill="none"><defs><filter id="a"><feMorphology in="SourceAlpha" operator="dilate" radius="1" result="expanded"/><feFlood flood-color="#fff" result="color"/><feComposite in="color" in2="expanded" operator="in"/><feComposite in="SourceGraphic"/></filter></defs><g filter="url(#a)"><path fill="#A6D388" d="M10.84 11.549c.794-1.576 3.85-.958 5.98 1.085 1.348 1.293 4.028.749 5.749 2.402 1.746 1.677 1.63 4.68-1.527 7.884-2.542 2.58-6.042 2.58-8.124.772-2.194-1.905-1.238-4.305-2.206-6.792s-2.162-5.212.129-5.351"/><path fill="#662113" d="M11.089 11.767c-.215.224-.557.245-.764.047-1.604-1.54-1.959-3.772-1.973-3.888a.593.593 0 0 1 .47-.64.493.493 0 0 1 .602.422c.003.025.329 1.998 1.68 3.295.206.198.2.54-.015.764"/></g></svg>