<svg xmlns="http://www.w3.org/2000/svg" width="32" height="32" fill="none"><defs><filter id="a"><feMorphology in="SourceAlpha" operator="dilate" radius="1" result="expanded"/><feFlood flood-color="#fff" result="color"/><feComposite in="color" in2="expanded" operator="in"/><feComposite in="SourceGraphic"/></filter></defs><g filter="url(#a)"><path fill="#FFAC33" d="M20.475 21.936c-.99 0-3.764.348-4.475.814-.711-.466-3.484-.814-4.475-.814-1.14 0-.516.461-.516 1.032 0 .57-.623 1.032.516 1.032.99 0 3.764-.349 4.475-.814.712.465 3.485.814 4.475.814 1.14 0 .516-.462.516-1.032s.624-1.032-.516-1.032"/><path fill="#292F33" d="M22.102 15.052a11.6 11.6 0 0 0-2.197-2.988C18.816 9.649 17.225 8 16 8c-1.227 0-2.817 1.649-3.906 4.064a11.6 11.6 0 0 0-2.197 2.988c-1.084 2.167-1.385 5.078-.924 5.308.388.195 1.033-.69 1.87-2.258.12 4.833 3.133 4.866 5.157 4.866s5.037-.032 5.156-4.865c.837 1.568 1.482 2.452 1.87 2.257.46-.23.16-3.141-.924-5.308"/><path fill="#F5F8FA" d="M17.633 11.086c-.377.27-.965.527-1.633.527a2.9 2.9 0 0 1-1.633-.527c-1.468.95-2.496 3.138-2.496 5.688 0 3.42 1.848 6.194 4.129 6.194s4.13-2.773 4.13-6.194c0-2.55-1.029-4.738-2.497-5.688"/><path fill="#FFAC33" d="M20.645 10.667h-2.581c-1.71 0-2.064-.347-2.064-.775 0-.427-.162-.774 1.548-.774 2.581 0 3.613 1.55 3.097 1.55"/><path fill="#F5F8FA" d="M15.484 9.548a.516.516 0 1 1-1.032 0 .516.516 0 0 1 1.032 0"/></g></svg>