<svg xmlns="http://www.w3.org/2000/svg" width="32" height="32" fill="none"><defs><filter id="a"><feMorphology in="SourceAlpha" operator="dilate" radius="1" result="expanded"/><feFlood flood-color="#fff" result="color"/><feComposite in="color" in2="expanded" operator="in"/><feComposite in="SourceGraphic"/></filter></defs><g filter="url(#a)"><path fill="#F4ABBA" d="M24.097 14.165c.193-.186.366-.398.509-.64.843-1.427.135-5.146-.296-5.4-.348-.206-2.764.525-4.123 1.566C18.938 8.942 17.515 8.5 16 8.5c-1.51 0-2.928.439-4.174 1.183-1.361-1.037-3.767-1.764-4.114-1.56-.43.255-1.138 3.974-.296 5.4.139.236.307.443.494.625C7.334 15.425 7 16.82 7 18.24c0 4.995 4.005 6.261 9 6.261 4.994 0 9-1.266 9-6.26 0-1.414-.33-2.803-.904-4.075"/><path fill="#EA596E" d="M10.699 10.482c-1.083-.633-2.201-1.04-2.4-.922-.285.168-.541 2.499-.176 4.132a10.2 10.2 0 0 1 2.576-3.21m13.178 3.21c.366-1.634.109-3.964-.176-4.133-.199-.117-1.317.29-2.4.923 1.057.87 1.94 1.969 2.576 3.21M21 19.062c0 2.244-1.549 4.688-5 4.688s-5-2.444-5-4.688 1.548-2.812 5-2.812 5 .569 5 2.812"/><path fill="#662113" d="M14.5 19.8c0 .929-.17 1.2-.75 1.2S13 20.73 13 19.8s.17-1.2.75-1.2.75.272.75 1.2m4.5 0c0 .929-.17 1.2-.75 1.2s-.75-.271-.75-1.2.17-1.2.75-1.2.75.272.75 1.2"/><path fill="#292F33" d="M10.5 17a1 1 0 1 0 0-2 1 1 0 0 0 0 2M21.5 17a1 1 0 1 0 0-2 1 1 0 0 0 0 2"/></g></svg>