<svg xmlns="http://www.w3.org/2000/svg" width="32" height="32" fill="none"><defs><filter id="a"><feMorphology in="SourceAlpha" operator="dilate" radius="1" result="expanded"/><feFlood flood-color="#fff" result="color"/><feComposite in="color" in2="expanded" operator="in"/><feComposite in="SourceGraphic"/></filter></defs><g filter="url(#a)"><path fill="#5C913B" d="M16.134 11.352c-.154-1.838 1.205-2.623 1.205-2.623-1.777.063-2.719 1.57-2.719 1.57-.417-.722.526-2.229 1.205-2.621-1.776.062-2.039 1.177-2.039 1.177-.835-1.445-.572-2.56-.572-2.56-.623.36-.982 1.175-1.19 1.952l-1.287-1.483c-.128.58.087 1.763.318 2.755-1.697-.995-3.28-.084-3.28-.084 2.195.66 3.029 2.105 3.029 2.105s-2.194-.66-3.137.848c1.443-.052 2.5.277 3.253.683-.646.16-1.747-.131-2.42.762 0 0 1.777-.063 2.14.586-1.206.34-1.986 1.25-1.986 1.25 2.457-.454 5.069.927 5.069.927l3.399-1.962c-.572-2.56 1.468-3.737 1.468-3.737-1.514-1.053-2.456.454-2.456.454"/><path fill="#FFAC33" d="M22.423 18.712c1.382 2.394.676 5.389-1.577 6.69-2.252 1.3-5.2.414-6.58-1.98l-.883-1.53c-1.383-2.394-.677-5.387 1.576-6.688 2.252-1.3 5.199-.415 6.58 1.979z"/><path fill="#FFCC4D" d="M22.979 20.091a5.3 5.3 0 0 0-.557-1.38l-.103-.179-1.084-.46.347-.817-.042-.072c-1.125-1.95-3.289-2.899-5.27-2.482l-.454 1.07-1.047-.444c-1.822 1.179-2.537 3.51-1.812 5.627l.558.237-.222.525c.03.059.056.118.09.175l.883 1.53c.38.66.883 1.2 1.454 1.616l.128-.299 1.084.46-.18.424c.369.154.754.259 1.145.318l.119-.281.78.33a4.45 4.45 0 0 0 1.857-.49l-.01-.004.46-1.084.66.28c.29-.29.541-.613.742-.965l-.94-.4.46-1.084.926.393q.161-.585.175-1.204l-.642-.272.46-1.084zm-3.451-4.024 1.083.461-.46 1.083-1.084-.46zm.163 2.629-.46 1.083-1.084-.46.46-1.083zm-2.332-3.549 1.084.46-.46 1.085-1.084-.46zm-.92 2.168 1.084.46-.46 1.084-1.083-.46zm-2.167-.92 1.083.46-.46 1.084-1.083-.46zm-1.38 3.253.46-1.085 1.083.46-.46 1.085zm2.33 3.547-1.083-.46.46-1.084 1.084.46zm-.163-2.628.46-1.084 1.084.46-.46 1.084zm2.33 3.548-1.082-.46.46-1.084 1.083.461zm-.162-2.628.46-1.084 1.083.46-.46 1.085zm2.331 3.549-1.084-.46.46-1.084 1.084.46zm.92-2.169-1.083-.46.46-1.084 1.084.46zm.92-2.167-1.083-.46.46-1.084 1.084.46z"/></g></svg>