<svg xmlns="http://www.w3.org/2000/svg" width="32" height="32" fill="none"><defs><filter id="a"><feMorphology in="SourceAlpha" operator="dilate" radius="1" result="expanded"/><feFlood flood-color="#fff" result="color"/><feComposite in="color" in2="expanded" operator="in"/><feComposite in="SourceGraphic"/></filter></defs><g filter="url(#a)"><path fill="#99AAB5" d="M22.425 24.414c-.413.336-.657.364-.698.594-.077.44.44.44.956.388.517-.052.569-.465.465-.956s-.723-.026-.723-.026m-8.526 0c-.413.336-.657.364-.697.594-.078.44.439.44.956.388s.568-.465.465-.956c-.104-.49-.724-.026-.724-.026"/><path fill="#66757F" d="M19.867 24.026c-.413.337-.657.364-.697.595-.078.439.44.439.956.387.517-.052.568-.465.465-.956-.104-.49-.724-.026-.724-.026m-8.19 0c-.413.337-.657.364-.698.595-.077.439.44.439.956.387.517-.052.569-.465.465-.956s-.723-.026-.723-.026"/><path fill="#66757F" d="M16.993 18.913c.966.005 1.201.184 1.405.703.652 1.662 1.006 1.028 1.163 2.27.16 1.261.14 2.287.364 2.403.516.27 1.331.42.57-2.566-.203-.8-.402-2.193-.137-3.003.387-1.184.382-2.06.455-2.385-3.85.149-4.7 2.573-3.82 2.578"/><path fill="#CCD6DD" d="M21.52 15.604c1.025-.651 1.602-1.018 1.602-3.384 0-.272-.037-.724-.31-.724-.272 0-.18.27-.18.543 0 1.885-.547 2.404-1.545 2.875-.78-.642-2.413-.636-3.974-.636-2.149 0-3.89.813-3.89 2.5 0 1.689.457 2.35 2.606 2.35.745 0 1.467-.146 2.327-.333.944-.204 1.2.324 1.511.786.998 1.481 1.451.877 1.874 2.055.43 1.197.633 2.202.877 2.267.562.15 1.39.12 0-2.63-.372-.735-.869-2.053-.786-2.901.12-1.24-.074-2.093-.074-2.427 0-.063-.031-.289-.038-.34"/><path fill="#66757F" d="M11.986 23.56c-.742-.195.43-3.358-.612-4.384-.697-.686.703-3.988 1.466-3.904.762.084.356 2.543.25 3.515-.075.672-.663 2.75-.374 3.942.166.686-.357.93-.73.832"/><path fill="#66757F" d="M13.33 23.234c-.075.917-.652 1.061-1.344 1.004s-1.238-.293-1.162-1.21c.075-.918.697-1.615 1.39-1.559.692.057 1.192.847 1.116 1.765"/><path fill="#CCD6DD" d="M14.077 23.687c-.765-.057-.187-3.38-1.399-4.2-.809-.548-.033-4.05.733-4.105.764-.056.812 2.436.883 3.41.05.675-.151 2.825.35 3.945.288.644-.18.979-.567.95"/><path fill="#99AAB5" d="M17.748 16.345c0 2.364-.616 3.723-2.964 4.004-2.9.347-5.155-1.523-4.937-3.877.27-2.933 1.942-3.816 3.746-3.819 2.364-.004 4.155 1.327 4.155 3.692"/><path fill="#99AAB5" d="M18.601 16.457c0 2.363-1.469 3.61-3.817 3.891-2.9.347-5.155-1.522-4.937-3.876.27-2.933 1.938-3.94 3.742-3.943 1.335-.002 2.79 0 3.689 1.34 1.09.289 1.323 1.558 1.323 2.588m-3.151 6.89c.093.916-.449 1.163-1.14 1.233s-1.27-.064-1.362-.98.392-1.715 1.083-1.785c.69-.07 1.326.617 1.419 1.532"/><path fill="#66757F" d="M21.265 23.22c-.023.92-.542 1.098-1.176 1.083s-1.144-.218-1.121-1.138.553-1.654 1.188-1.64c.634.016 1.13.774 1.109 1.694"/><path fill="#99AAB5" d="M23.798 23.214c.193.9-.271 1.194-.891 1.327-.62.132-1.164.053-1.356-.847s.155-1.738.776-1.87c.62-.133 1.28.49 1.471 1.39m.264-10.518c.047.92-.56 1.699-1.354 1.74-.795.04-1.48-.671-1.527-1.59-.048-.92.126-2.243.921-2.284.795-.042 1.912 1.215 1.96 2.134"/><path fill="#CCD6DD" d="M13.8 10.941c.168.887-.949 1.918-2.525 2.144-3.16.455-3.68-1.263-3.747-1.804-.053-.429 1.39-.605 3.287-1.618 2.35-1.255 2.816.391 2.985 1.278"/><path fill="#66757F" d="M14.287 8.603c-.023-.597-.181-1.562-1.89-1.562-.718 0-1.908.218-1.96.941-.93-.18-1.482.911-1.175 1.447.318.556.641.565 1.892.336.475-.087 1.032.297.926.767l-.04.172c-.144.611-.802 1.47-.802 2.213 0 .718.497 1.244 1.397 1.213-.061.779.632 1.603 1.754 1.603 1.601 0 2.274-1.007 2.17-2.893-.041-.761-.336-1.602-.93-2.093-.025-1.188-.49-2.041-1.342-2.144"/><path fill="#292F33" d="M8.295 11.554c0 .32.012.641-.302.7-.191.037-.624-.144-.732-.584-.094-.389.147-.618.462-.678.314-.06.572.157.572.562M10.965 11.045a.514.514 0 1 0 0-1.027.514.514 0 0 0 0 1.027"/><path fill="#99AAB5" d="M18.994 14.029c.727.035 1.525.748 1.235 1.395-.29.646-.83.79-1.318.723-.569-.078-1.28-.42-1.171-1.333.06-.502.57-.819 1.254-.785"/></g></svg>