<svg xmlns="http://www.w3.org/2000/svg" width="32" height="32" fill="none"><defs><filter id="a"><feMorphology in="SourceAlpha" operator="dilate" radius="1" result="expanded"/><feFlood flood-color="#fff" result="color"/><feComposite in="color" in2="expanded" operator="in"/><feComposite in="SourceGraphic"/></filter></defs><g filter="url(#a)"><path fill="#99AAB5" d="M23.9 7.002c-.234-.09-4 1.985-4.985 4.565-.583 1.526-.843 3.03-.826 4.056-.735-.394-1.46-.624-2.09-.624-.628 0-1.354.23-2.088.625.016-1.028-.243-2.53-.826-4.056C12.1 8.988 8.334 6.913 8.1 7.002c-.227.087 2.134 8.022 3.513 10.419C10.403 18.7 9.5 20.33 9.5 21.913c0 1.617.817 2.57 2 2.97 1.265.429 2.5-.47 4.5-.47s3.234.9 4.5.47c1.182-.4 2-1.353 2-2.97 0-1.583-.903-3.211-2.113-4.492 1.378-2.397 3.74-10.332 3.512-10.42"/><path fill="#F4ABBA" d="M13.346 15.96c-.089-.77-.34-1.774-.729-2.791-.767-2.008-2.843-3.623-3.024-3.554-.16.061 1.313 5.07 2.392 7.432a9.5 9.5 0 0 1 1.361-1.086m6.669 1.087c1.078-2.362 2.551-7.37 2.392-7.431-.181-.07-2.258 1.545-3.025 3.553-.389 1.017-.64 2.022-.729 2.792a9.5 9.5 0 0 1 1.362 1.086"/><path fill="#CCD6DD" d="M19.5 22c0 1.381-1.53 2.5-3.417 2.5s-3.416-1.119-3.416-2.5 1.53-2.5 3.416-2.5c1.887 0 3.417 1.119 3.417 2.5"/><path fill="#fff" d="M17.5 22.29c0 1.38-.119 1.5-1.5 1.5-1.38 0-1.5-.12-1.5-1.5 0-.5 3-.5 3 0"/><path fill="#292F33" d="M13.25 19.914a.75.75 0 1 0 0-1.5.75.75 0 0 0 0 1.5M18.75 19.914a.75.75 0 1 0 0-1.5.75.75 0 0 0 0 1.5"/><path fill="#F4ABBA" d="M17.5 19.913c0 .829-1 1.5-1.5 1.5s-1.5-.671-1.5-1.5c0-.828 3-.828 3 0"/></g></svg>