<svg xmlns="http://www.w3.org/2000/svg" width="32" height="32" fill="none"><defs><filter id="a"><feMorphology in="SourceAlpha" operator="dilate" radius="1" result="expanded"/><feFlood flood-color="#fff" result="color"/><feComposite in="color" in2="expanded" operator="in"/><feComposite in="SourceGraphic"/></filter></defs><g filter="url(#a)"><path fill="#99AAB5" d="M12.334 9.808C11.516 8.24 9.219 7.503 8.792 8.15c-.428.647.353 5.076.878 4.984.526-.093 2.664-3.325 2.664-3.325"/><path fill="#292F33" d="M11.92 10.838c-.635-1.34-2.348-2.41-2.652-1.873-.217.386.061 2.632.379 3.848z"/><path fill="#99AAB5" d="M19.642 9.808c.818-1.568 3.114-2.305 3.542-1.659s-.354 5.076-.879 4.984c-.525-.093-2.663-3.325-2.663-3.325"/><path fill="#292F33" d="M20.18 10.838c.616-1.343 2.25-2.427 2.535-1.893.208.39-.089 2.712-.407 3.912z"/><path fill="#99AAB5" d="M23.565 13.658c-1.292-1.582-4.524-5.8-7.578-5.8-3.053 0-6.285 4.218-7.576 5.8-1.57 1.922-1.526 4.148-1.124 5.438.402 1.294 1.577 2.52 4.63 3.716 1.033.404 2.853 1.196 4.071 1.196s3.038-.791 4.071-1.196c3.053-1.197 4.229-2.422 4.63-3.716.401-1.29.445-3.516-1.124-5.438"/><path fill="#E1E8ED" d="M15.988 14.204c0-2.457-2.04-2.428-3.271-2.286-2.256.258-5.68 3.38-5.68 5.366 0 .695.08 1.316.249 1.812.292.863.937 1.508 2.517 2.633 1.745-4.175 6.185-5.623 6.185-7.525"/><path fill="#292F33" d="M15.988 14.888c0-1.2-2.194-1.52-3.324-1.34-2.442.392-5.37 3.768-5.378 5.486v.062s.193.7.812 1.408c.434.495 1.173 1.034 1.667 1.292l.005-.006c1.476-1.93 3.438-3.208 5.01-3.808.882-.337 1.208-1.75 1.208-3.094"/><path fill="#99AAB5" d="M13.698 16.508a.764.764 0 1 0 0-1.527.764.764 0 0 0 0 1.527"/><path fill="#E1E8ED" d="M15.988 14.204c0-2.457 2.04-2.428 3.271-2.286 2.256.259 5.679 3.38 5.679 5.367 0 .695-.08 1.315-.248 1.812-.292.863-.938 1.507-2.517 2.633-1.745-4.176-6.185-5.624-6.185-7.526"/><path fill="#292F33" d="M15.988 14.888c0-1.2 2.195-1.52 3.325-1.34 2.442.392 5.37 3.768 5.377 5.486v.062s-.192.7-.812 1.408c-.434.495-1.173 1.034-1.666 1.292l-.005-.006c-1.476-1.93-3.439-3.208-5.011-3.808-.882-.337-1.208-1.75-1.208-3.094"/><path fill="#99AAB5" d="M18.277 16.508a.764.764 0 1 0 0-1.527.764.764 0 0 0 0 1.527"/><path fill="#66757F" d="M17.373 18.05c-.462-.536-.875-9.517-1.385-9.517s-.923 8.981-1.385 9.518z"/><path fill="#E1E8ED" d="M19.458 19.092c-.818-1.03-2.082-1.853-3.47-1.853s-2.652.823-3.47 1.853c-.695.874-.695 1.53-.463 2.113.241.607.694 1.41 2.082 1.993.47.197 1.297.582 1.85.582s1.382-.385 1.851-.582c1.388-.583 1.841-1.386 2.082-1.993.231-.583.231-1.24-.463-2.113"/><path fill="#292F33" d="M17.807 21.186c-.344-.281-.814.092-1.82.092-1.004 0-1.474-.373-1.819-.092-.344.28.293 1.154 1.82 1.154s2.164-.873 1.82-1.154"/><path fill="#66757F" d="M13.583 19.384a.4.4 0 0 1-.196-.054c-1.5-.896-4.178-.456-4.832-.143a.382.382 0 1 1-.33-.688c.872-.419 3.812-.862 5.553.175a.382.382 0 0 1-.195.71"/><path fill="#66757F" d="M8.07 21.852a.382.382 0 0 1-.297-.622c.728-.903 2.448-2.443 5.79-2.608.21-.017.39.152.4.363.011.21-.151.39-.362.4-3.044.15-4.585 1.52-5.233 2.324a.38.38 0 0 1-.298.143m15.835 0a.38.38 0 0 1-.297-.143c-.648-.803-2.189-2.174-5.234-2.324a.38.38 0 0 1-.362-.4.38.38 0 0 1 .4-.363c3.342.165 5.062 1.705 5.79 2.608a.382.382 0 0 1-.297.622"/><path fill="#66757F" d="M18.393 19.385a.382.382 0 0 1-.196-.71c1.74-1.038 4.683-.594 5.553-.175a.38.38 0 0 1 .18.509.38.38 0 0 1-.51.178c-.655-.314-3.332-.752-4.832.143a.4.4 0 0 1-.195.055"/><path fill="#292F33" d="M17.807 18.122c0 .882-1.27 1.611-1.82 1.611s-1.819-.729-1.819-1.611c0-.883.815-.905 1.82-.905s1.819.022 1.819.905"/></g></svg>