<svg xmlns="http://www.w3.org/2000/svg" width="32" height="32" fill="none"><defs><filter id="a"><feMorphology in="SourceAlpha" operator="dilate" radius="1" result="expanded"/><feFlood flood-color="#fff" result="color"/><feComposite in="color" in2="expanded" operator="in"/><feComposite in="SourceGraphic"/></filter></defs><g filter="url(#a)"><path fill="#66757F" d="M20.131 11.345c-.512-1.358-1.177-3.023-3.688-3.074-.782-.016-.676.24-.154.454.999.41-1.1 2.416 2.115 3.288 2.51.68 2.24.689 1.727-.668"/><path fill="#99AAB5" d="M24.002 9.735c-3.44 0-6.405 1.118-8.047 2.559-2.167 1.902-2.391 4.58-6.237 6.96-1.266.783-.188 3.34.512 4.275.848 1.13 12.719.105 13.772-3.901z"/><path fill="#66757F" d="M11.856 21.178c.45.226.794.467.586.883s-.521.111-.971-.114c-.45-.226-1.016-.008-.807-.424s.743-.57 1.192-.345m11.345-10.367c.106-1.139-.968-2.221-2.644-2.625-.75-.18-1.459-.155-1.043.213.797.704-.036 1.78.567 3.166.323.744 1.439 1.668 2.097 1.698.47.021.913-1.265 1.023-2.452"/><path fill="#99AAB5" d="M22.777 10.81c.106-1.138-1.01-2.42-2.742-2.67-.763-.109-1.017.04-.6.407.796.705-.284 1.612.318 2.998.324.744 1.508 1.707 2.167 1.736.469.022.747-1.284.857-2.47"/><path fill="#CCD6DD" d="M9.173 19.956c-1.134-1.77-1.612-5.321-.663-7.821.142-.376.481-.476.524.057.08 1.015 1.074 3.037 3.54 4.875.552.41-2.539 4.234-3.401 2.889"/><path fill="#CCD6DD" d="M13.888 14.838c-.91-.379-1.604-1.418-1.819-2.072-.256-.781-.956 1.745.379 3.952.536.886 2.068-1.62 1.44-1.88"/><path fill="#292F33" d="M15.462 18.225a.889.889 0 1 0 0-1.778.889.889 0 0 0 0 1.778"/><path fill="#E6AAAA" d="M21.463 12.183c.592.047.869-.772.54-2.084-.286-1.145-1.89-1.444-1.878-1.364.011.08.47.688.006 1.306-.45.6.599 2.084 1.332 2.142"/></g></svg>