<svg xmlns="http://www.w3.org/2000/svg" width="32" height="32" fill="none"><defs><filter id="a"><feMorphology in="SourceAlpha" operator="dilate" radius="1" result="expanded"/><feFlood flood-color="#fff" result="color"/><feComposite in="color" in2="expanded" operator="in"/><feComposite in="SourceGraphic"/></filter></defs><g filter="url(#a)"><path fill="#F4900C" d="M23.75 16c.69 0 1.25-.784 1.25-1.75s-.56-1.75-1.25-1.75-1.25.784-1.25 1.75.56 1.75 1.25 1.75M8.25 16c.69 0 1.25-.784 1.25-1.75s-.56-1.75-1.25-1.75S7 13.284 7 14.25 7.56 16 8.25 16"/><path fill="#FFAC33" d="M24 16.5a.5.5 0 0 1-.5.5H22a.5.5 0 0 1-.5-.5V12a.5.5 0 0 1 .5-.5h1.5a.5.5 0 0 1 .5.5zm-13.5 0a.5.5 0 0 1-.5.5H8.5a.5.5 0 0 1-.5-.5V12a.5.5 0 0 1 .5-.5H10a.5.5 0 0 1 .5.5z"/><path fill="#FFCC4D" d="M21 9.5c0 1.38-2.239 2-5 2s-5-.62-5-2S13.239 7 16 7s5 1.12 5 2.5"/><path fill="#F4900C" d="M19.5 9.042c0 .805-1.567 1.458-3.5 1.458s-3.5-.653-3.5-1.458c0-.806 1.567-1.459 3.5-1.459s3.5.653 3.5 1.459"/><path fill="#269" d="M22 9.75c0 .69-.56.75-1.25.75h-9.5c-.69 0-1.25-.06-1.25-.75s.56-1.25 1.25-1.25h9.5c.69 0 1.25.56 1.25 1.25"/><path fill="#55ACEE" d="M22 10H10a1 1 0 0 0-1 1v13h14V11a1 1 0 0 0-1-1"/><path fill="#3B88C3" d="M24.5 23.5V23a1 1 0 0 0-1-1h-5.464l-1.682 1.682a.5.5 0 0 1-.707 0L13.965 22H8.5a1 1 0 0 0-1 1v.5c0 .552-.052 1 .5 1h16c.552 0 .5-.448.5-1"/><path fill="#fff" d="M19.25 16.5a2.25 2.25 0 1 0 0-4.5 2.25 2.25 0 0 0 0 4.5"/><path fill="#DD2E44" d="M19.25 15.61a1.36 1.36 0 1 0 0-2.72 1.36 1.36 0 0 0 0 2.72"/><path fill="#fff" d="M12.75 16.5a2.25 2.25 0 1 0 0-4.5 2.25 2.25 0 0 0 0 4.5"/><path fill="#F5F8FA" d="M21.5 19.75c0 .69-.56 1.25-1.25 1.25h-8.5a1.25 1.25 0 1 1 0-2.5h8.5c.69 0 1.25.56 1.25 1.25"/><path fill="#CCD6DD" d="M15.5 18.5h1V21h-1zm-2.5 0h1V21h-1zm5 0h1V21h-1zm-7.5 1.25c0 .605.43 1.109 1 1.225v-2.45c-.57.116-1 .62-1 1.225m10-1.225v2.45a1.25 1.25 0 0 0 0-2.45"/><path fill="#DD2E44" d="M12.75 15.61a1.36 1.36 0 1 0 0-2.72 1.36 1.36 0 0 0 0 2.72"/></g></svg>