<svg xmlns="http://www.w3.org/2000/svg" width="32" height="32" fill="none"><defs><filter id="a"><feMorphology in="SourceAlpha" operator="dilate" radius="1" result="expanded"/><feFlood flood-color="#fff" result="color"/><feComposite in="color" in2="expanded" operator="in"/><feComposite in="SourceGraphic"/></filter></defs><g filter="url(#a)"><path fill="#3E721D" d="M16.66 19.68q-.084 0-.16.002v-.208c2.402-.24 4.274-2.132 4.274-3.65 0-1.625 0 .735-4.781.735s-4.78-2.36-4.78-.735c0 1.521 1.88 3.419 4.287 3.652v.206q-.077-.002-.16-.003c-1.277 0-3.302-1.025-3.302-.66 0 .323 2.093 2.009 3.462 2.398V24.5a.5.5 0 1 0 1 0v-3.083c1.369-.39 3.462-2.075 3.462-2.398 0-.364-2.025.66-3.302.66"/><path fill="#A0041E" d="M20.264 10.677c-1.944-2.206.753-2.941-1.296-2.941-.357 0-.96.22-1.645.594C16.976 7.544 16.512 7 16 7c-1.025 0-1.863 2.171-1.936 4.134-.554.772-.928 1.618-.928 2.483 0 3.046 1.296 4.412 3.24 4.412 3.888 0 6.822-4.024 3.888-7.352"/><path fill="#BE1931" d="M18.864 13.617c0 3.046-1.295 4.411-3.24 4.411-3.888 0-6.821-4.024-3.888-7.353 1.945-2.206-.752-2.94 1.296-2.94 1.297 0 5.832 2.836 5.832 5.882"/></g></svg>