<svg xmlns="http://www.w3.org/2000/svg" width="32" height="32" fill="none"><defs><filter id="a"><feMorphology in="SourceAlpha" operator="dilate" radius="1" result="expanded"/><feFlood flood-color="#fff" result="color"/><feComposite in="color" in2="expanded" operator="in"/><feComposite in="SourceGraphic"/></filter></defs><g filter="url(#a)"><path fill="#99AAB5" d="M7.676 8.89a.07.07 0 0 1-.071-.059c-.059-.308-.052-.88.093-1.041a.073.073 0 0 1 .102-.006c.03.027.032.072.006.102-.089.098-.12.596-.06.918a.07.07 0 0 1-.057.084q-.006.003-.013.002m.287.5a.07.07 0 0 1-.07-.054c-.112-.41-.041-1.032-.004-1.165a.074.074 0 0 1 .089-.05c.038.01.06.05.05.09-.038.136-.096.72.004 1.087a.073.073 0 0 1-.05.09zM8.317 9.908a.07.07 0 0 1-.069-.05 3.9 3.9 0 0 1-.184-1.46.072.072 0 0 1 .144.014c0 .007-.063.688.177 1.4a.073.073 0 0 1-.068.096m.483.517a.07.07 0 0 1-.067-.043c-.433-1.005-.426-1.728-.425-1.758 0-.04.032-.071.072-.071h.001c.04 0 .072.033.071.073 0 .007-.006.725.414 1.7a.073.073 0 0 1-.038.094.1.1 0 0 1-.028.005"/><path fill="#292F33" d="M10.282 14.973c-.001 1.262.147 3.999.106 4.34s-.326.812-.839.867c-.512.056-2.309.228-2.772.252-.463.025-.362.246.11.299s2.425.123 2.919.147c.495.025 1.093-.195 1.347-.482s1.04-1.64 1.315-2.214c.275-.573-.206-2.386-.867-2.988s-1.318-1.413-1.319-.221"/><path fill="#66757F" d="M10.506 17.038c-.085-.786-.189-3.121.095-2.48.283.642.925 2.335.61 4.022-.065.34-.235.955-.38 1.306s-.418.49-.844.506c-.426.015-.32-.163.007-.26.326-.096.537-.3.584-1.179.039-.719-.072-1.915-.072-1.915"/><path fill="#99AAB5" d="M10.653 17.125c-.005.201.026.723.023 1.016s-.085 1.288-.196 1.541c-.11.254.186.118.255-.2s.286-1.343.293-1.603c.006-.26-.364-1.29-.375-.754"/><path fill="#66757F" d="M7.583 7.001c.394-.374.96-.01 1.323.013.521.035.994-.146 1.676-.064.683.081 1.933.27 2.464 1.223.437.786 1.029 2.112 1.49 2.766.566.803 1.53 2.032 2.153 2.669.67.684 2.726 1.62 3.385 1.732 1.306.221 3.883 1.057 4.468 3.117s.738 3.236.313 3.619-.873-.165-1.442-.88c-.57-.716-2.499-1.078-4.154-1.055-1.656.024-4.526.799-6.21-.417-1.685-1.217-2.563-3.35-2.835-5.393-.273-2.042-.114-2.733-.32-3.436-.227-.78-.725-1.682-1.463-2.043-.739-.36-1.247-1.47-.848-1.85"/><path fill="#99AAB5" d="M7.583 7.001c.394-.374.96-.01 1.323.013.521.035.994-.146 1.676-.064s1.933.27 2.464 1.223c.437.786 1.029 2.112 1.49 2.766.566.803 1.53 2.032 2.152 2.669.67.684 2.727 1.62 3.386 1.732 1.306.221 3.883 1.057 4.468 3.117s.737 3.236.313 3.619c-.425.383-.644-.3-1.213-1.015-.57-.716-2.64-1.302-4.295-1.279s-4.549.667-6.233-.549c-1.686-1.217-2.628-2.858-2.9-4.9s-.114-2.734-.319-3.437c-.228-.78-.726-1.682-1.464-2.043-.738-.36-1.247-1.472-.848-1.852"/><path fill="#292F33" d="M14.748 16.83c-.519.863-.591 1.977-.677 2.659-.085.681-.054 1.153.287 1.454.342.301.952.419 1.37.453s2.813.32 3.38.288c.565-.033.396-.17-.027-.256-.423-.087-1.696-.538-1.989-.87-.293-.333-.15-1.77-.18-2.31-.03-.541-.386-1.955-.682-2.313-.296-.357-1.084.234-1.482.896"/><path fill="#66757F" d="M14.971 16.608c-.513.864-.596 2.154-.678 2.836s-.027 1.03.316 1.33.893.439 1.4.488c.417.04 1.766.206 2.426.239.566.027.242-.156-.181-.24-.424-.084-1.018-.304-1.312-.635-.294-.33-.075-2.21-.107-2.751-.033-.54-.263-1.794-.56-2.15s-.91.22-1.304.883"/><path fill="#99AAB5" d="M14.787 16.663c-.513.865-.228 1.562-.357 2.611-.083.682.065 1.236.326 1.416.375.258.789.433 1.295.482.417.04 1.125.189 1.785.221.566.028.335-.096-.089-.18-.423-.084-.702-.27-.997-.6-.295-.332.146-2.36.293-2.881.313-1.105-.376-1.885-.673-2.242-.297-.356-1.188.51-1.583 1.173"/><path fill="#292F33" d="M7.629 6.945c.315-.252.646-.018.258.231s-.52-.021-.258-.231m.167 1.303s-.099-.43.152-.508c.25-.079 1.154.134 1.627.679 0 0-1.175-.572-1.477-.488-.302.085-.302.317-.302.317"/><path fill="#66757F" d="M12.238 8.13c.34.042.618.452.22.365-.398-.086-.22-.364-.22-.364"/><path fill="#292F33" d="M10.214 7.131c.342.027.297.357.032.308-.264-.05-.45-.34-.032-.308m14.154 14.144c.838-.194 1.336 1.932.992 2.794-.35.875-1.137 1.09-1.79 1.187-.326.049-.594.068-.82-.024-.22-.09-.2-.283.05-.327.214-.038.56-.136.727-.198.195-.072.291-.243.291-.243s-1.022.37-1.713.21c-.71-.162-.385-.45.232-.49.445-.03.943-.14 1.348-.47 0 0-.517.211-1.098.274-.58.063-1.183.022-.79-.368.08-.08.686-.159 1.059-.27a4 4 0 0 0 .804-.345s-.794.184-1.12.172c-.388-.012-.422-.235-.28-.306.295-.148.784-.204 1.072-.31.532-.196.193-1.092 1.035-1.286"/><path fill="#CCD6DD" d="M8.898 8.576a.07.07 0 0 1-.07-.057c-.119-.527-.533-.922-.537-.926a.07.07 0 0 1-.003-.101.07.07 0 0 1 .102-.004c.018.017.45.428.578 1a.072.072 0 0 1-.07.088m.694.43a.07.07 0 0 1-.07-.05c-.209-.675-.78-1.197-.785-1.202a.073.073 0 0 1-.005-.102.073.073 0 0 1 .102-.006c.024.023.606.554.827 1.267a.073.073 0 0 1-.07.094m.587.403a.07.07 0 0 1-.068-.049 3.8 3.8 0 0 0-.886-1.4.073.073 0 0 1 .098-.107c.025.024.621.58.925 1.46a.073.073 0 0 1-.069.096m.663.744a.07.07 0 0 1-.07-.053 4.7 4.7 0 0 0-.9-1.736.072.072 0 1 1 .109-.097c.025.028.632.709.931 1.795a.072.072 0 0 1-.07.091"/></g></svg>