<svg xmlns="http://www.w3.org/2000/svg" width="32" height="32" fill="none"><defs><filter id="a"><feMorphology in="SourceAlpha" operator="dilate" radius="1" result="expanded"/><feFlood flood-color="#fff" result="color"/><feComposite in="color" in2="expanded" operator="in"/><feComposite in="SourceGraphic"/></filter></defs><g filter="url(#a)"><path fill="#77B255" d="M18.455 14.2c-.54.36-1.023.78-1.44 1.21-.063-2.122-.573-4.867-3.386-6.21-.556-3.028-7.046-1.49-6.465-1.196 1.157.585 1.772 2.074 2.517 2.857 1.326 1.396 2.801 1.482 3.535.39 1.734 1.126 1.848 3.264 1.795 5.549q-.01.38-.011.7v7c0 .553 2 .553 2 0v-5.744c.27-.477 1.06-1.753 2.215-2.647.793.696 2.07.474 3.231-.748.745-.783 1.147-2.272 2.304-2.857.61-.31-6.4-1.997-6.295 1.696"/></g></svg>