<svg xmlns="http://www.w3.org/2000/svg" width="32" height="32" fill="none"><defs><filter id="a"><feMorphology in="SourceAlpha" operator="dilate" radius="1" result="expanded"/><feFlood flood-color="#fff" result="color"/><feComposite in="color" in2="expanded" operator="in"/><feComposite in="SourceGraphic"/></filter></defs><g filter="url(#a)"><path fill="#66757F" d="M26 17.667c0 2.777-1.667 5-6.111 6.11-3.923.982-11.667-.518-11.667-1.11 0-.628 1.39-.762 3.785-.625 6.076.347 7.639-2.143 6.666-2.917-1.7-1.354-3.576.208-6.7-.07C8.1 18.712 6 15.707 6 14.89c0-1.111 6.509-4.445 11.111-4.445S26 12.805 26 17.667"/><path fill="#292F33" d="M14.333 12.944a.833.833 0 1 1-1.667 0c0-.46.373-.277.834-.277s.833-.183.833.277"/><path fill="#66757F" d="M13.778 11c1.11-2.778 2.939-5 4.42-5 1.482 0-.532 1.111 2.246 5.556C23.222 16 13.778 11 13.778 11M7.666 22.667c0-2.223-.577-3.334.082-3.334s3.339 2.24 3.339 3.467S8.406 26 7.747 26s-.08-1.111-.08-3.333"/><path fill="#292F33" d="m20.956 18.5 4.442 4.167s-1.8 1.018-4.442-4.167"/><path fill="#66757F" d="m20.956 18.5 3.076-2.13s2.153 5.51 1.366 6.296c-1.435-.555-4.442-4.166-4.442-4.166"/><path fill="#fff" d="M11 17.282c0 .273-.282 1.485-.556 1.485-.273 0-.555-1.212-.555-1.485v-.989c0-.274.282.494.555.494s.556-.768.556-.494zm1.666 0c0 .273-.282 1.485-.555 1.485s-.556-1.212-.556-1.485v-.989c0-.274.283.494.556.494s.555-.768.555-.494zm1.667-.556c0 .274-.282 1.485-.555 1.485s-.556-1.211-.556-1.485v-.988c0-.274.282.494.556.494.273 0 .555-.768.555-.494zm1.667 0c0 .274-.282 1.485-.556 1.485-.273 0-.555-1.211-.555-1.485v-.988c0-.274.282.494.555.494s.556-.768.556-.494z"/><path fill="#66757F" d="m9.334 17.111 3.888-.556h3.334v-1.11H9.334z"/><path fill="#292F33" d="M16.232 16.648c-2.223-1.157-7.437-.006-8.288.84.26.2.55.393.86.572 3.394-1.823 7.823-1.205 7.428-1.412"/></g></svg>