<svg xmlns="http://www.w3.org/2000/svg" width="32" height="32" fill="none"><defs><filter id="a"><feMorphology in="SourceAlpha" operator="dilate" radius="1" result="expanded"/><feFlood flood-color="#fff" result="color"/><feComposite in="color" in2="expanded" operator="in"/><feComposite in="SourceGraphic"/></filter></defs><g filter="url(#a)"><path fill="#BE1931" d="M9.23 10.715c-2.266.16-2.388-2.756 1.9-2.37 4.288.387 8.982 1.7 10.109.895.894-.64.708-1.804.483-2.039-.225-.234-.566-.022-.394.341s-.03 1.34-1.13 1.438-5.2-.676-7.788-1.04c-2.643-.372-4.766-.188-5.228 1.29-.46 1.474.972 1.937 1.73 2.009.756.071.317-.524.317-.524"/><path fill="#DD2E44" d="M10.041 10.355c-2.27 0-2.187-2.917 2.063-2.23 4.25.688 8.84 2.33 10.02 1.605.938-.575.834-1.75.626-2s-.563-.063-.417.312-.125 1.334-1.229 1.354c-1.104.022-5.14-1.04-7.695-1.585-2.61-.557-4.74-.523-5.305.919-.563 1.437.833 2 1.583 2.125s.354-.5.354-.5"/><path fill="#DD2E44" d="M23.69 13.622c-1.271-1.964-3.383-3.314-5.628-3.742C14.403 9.184 9.406 9.468 8 11.5c-.28.405-.239 2.335 1.5 3 .882.336 3.271-.082 4.92-.232l-.11.869a.5.5 0 0 0 .993.126l.132-1.041q.596.016 1.168.116l-.3.98a.5.5 0 0 0 .956.292l.32-1.044q.555.168 1.109.413l-.522.847a.5.5 0 0 0 .852.524l.57-.927q.066.034.13.07c1.405.778 2.264 2.968 2.228 3.777q-.027.61.304.885c.396.326 1.039.172 1.509.059.159-.039.323-.078.4-.077l.15-.496.05-.142c.99-2.886.182-4.56-.67-5.877"/><path fill="#BE1931" d="M18.096 11.25c-.304.573.068.469.513.034.298-.292.77-.61 1.27-.836a9 9 0 0 0-.857-.32c-.392.378-.76.814-.926 1.123m2.99 1.549c.636-.315 1.414-.108 2.179.24a8.4 8.4 0 0 0-1.148-1.194c-.359.022-.716.13-1.017.351-.503.369-1.108 1.144-.013.603m1.932 1.954c-.598.174-1.432.696-.219.562.706-.078 1.366.384 1.965.973a5.4 5.4 0 0 0-.39-1.41c-.417-.185-.896-.26-1.356-.125m1.22 4.316c-.2-.102-1.002.886-1.843-.369q-.003-.002-.005-.005c-.038-.586-.313-3.11-2.944-4.495a7 7 0 0 0-.919-.4 8.6 8.6 0 0 0-1.413-.357 11 11 0 0 0-.843-.11q-.079-.006-.157-.01a12 12 0 0 0-1.512-.001q-.5.03-1 .084c-1.984.211-3.921.62-5.245.226.253.353.62.668 1.143.867.745.285 2.568.03 4.11-.146l.002.114a.5.5 0 0 0 1-.009l-.002-.205c.298-.024.57-.038.794-.033q.247.006.49.027l-.048.203a.5.5 0 1 0 .973.232l.068-.289q.59.123 1.171.334l-.132.262a.501.501 0 0 0 .893.452l.163-.324c.244.116.489.238.736.376 1.396.775 2.253 2.943 2.227 3.763q-.016.09-.015.193.008.383-.183.872a5.4 5.4 0 0 1-1.31 1.89q-.312.285-.447.626c-.16.415-.083.843.193 1.066a.6.6 0 0 0 .173.098c1.666-1.51 1.035-.683 1.449.559.166.305.41.378.532.394.353.046.702-.199.89-.624l.024-.06c.282-.725 1.088-4.328 1.164-4.857a.33.33 0 0 0-.177-.344"/><path fill="#292F33" d="M20.357 24.001c.195.073.42.046.622-.087.269-.177.446-.203.516-.172.074.032.137.175.17.381.03.184.08.325.14.436-.413-1.242.974-3.365-1.448-.558M10.5 12a.5.5 0 1 0 0-1 .5.5 0 0 0 0 1"/></g></svg>