<svg xmlns="http://www.w3.org/2000/svg" width="32" height="32" fill="none"><defs><filter id="a"><feMorphology in="SourceAlpha" operator="dilate" radius="1" result="expanded"/><feFlood flood-color="#fff" result="color"/><feComposite in="color" in2="expanded" operator="in"/><feComposite in="SourceGraphic"/></filter></defs><g filter="url(#a)"><path fill="#292F33" d="M25.93 19.096c0-1.833-.566-3.004-2.722-5.08-1.525-1.47-1.16-3.226-.131-2.98 1.028.245 1.238 1.273 1.238 1.273s.63-.804-.21-1.632c.609.201.96.644 1.114 1.262.795-1.01 1.348-3.403-.765-4.967-1.957-1.45-5.107-1.156-6.835.896-1.953 2.32-.836 4.637.704 5.929.93.78 1.716 1.454 2.154 2.18-1.893-.412-4.161.3-5.035.649-.905.362-1.413-.129-1.59-.18.598-1.42-1.648-1.304-1.665-.404a6 6 0 0 0-.678-.04c-.013-.8-1.226-.504-1.173.165-.124.036-.248.068-.372.12-1.797.753-1.435 1.798-2.543 2.554-.655.446-1.303.215-1.303 1.21 0 .548.88.978 1.762 1.02 1.699.081 2.546-.448 3.223-.266 1.847.494 2.26 2.445 2.499 3.75.214 1.184.188 1.443.731 1.413S16 26.06 16 24.395c.947-.152 2.208.398 3.889.215.234-.026.387 1.152.706 1.299.287.132 1.195.082 1.629-.352.316-.316.328-.825.33-1.37 2.706-1.133 3.377-3.438 3.377-5.09"/><path fill="#E1E8ED" d="M10.539 18.458a.556.556 0 1 0 0-1.111.556.556 0 0 0 0 1.11M8.75 17.903c.23-1.02 1.028-1.754 2.263-1.875.856-.084 1.173.015 1.173.015s-.384.591-.834.714c-.63.172-1.547-.1-2.602 1.146m5.906-1.106c1.526.624 2.531 2.63 4.217 3.422 3.38 1.59 5.062-.518 5.459-1.88.473-1.63-.841-3.456-2.523-5.038-1.997-1.878-1.53-4.371-.444-5.253 1.056-.856 2.35-1.159 3.957-.202-1.341-1.419-2.84-1.443-4.185-.884-1.346.56-2.798 2.303-2.003 4.435.719 1.926 2.982 3.15 3.517 4.665.273.773-.157 2.344-1.575 2.536-2.347.318-3.655-1.514-6.42-1.8"/><path fill="#E1E8ED" d="M15.51 16.763s1.65-.388 3.241-.297c1.59.092 2.31.297 2.31.297s.407-1.022-1.33-2.538c-1.977-1.724-3.174-2.942-2.491-5.089.603-1.894 3.484-3.81 6.366-2.655-3.035-.666-4.701 1.123-5.313 2.208s-.657 2.645.902 4.374 2.982 2.644 2.324 3.807c-.223.394-1.208.817-2.6.453-1.045-.273-2.217-.682-3.41-.56"/></g></svg>