<svg xmlns="http://www.w3.org/2000/svg" width="32" height="32" fill="none"><defs><filter id="a"><feMorphology in="SourceAlpha" operator="dilate" radius="1" result="expanded"/><feFlood flood-color="#fff" result="color"/><feComposite in="color" in2="expanded" operator="in"/><feComposite in="SourceGraphic"/></filter></defs><g filter="url(#a)"><path fill="#7A5C44" d="M10 17.5a1 1 0 0 1-1-1V9c0-.553.447-.5 1-.5s1-.053 1 .5c0 0-.303 3.212 0 5.998.27 2.487 2 3.002 2 3.002 0 .552-2.447-.5-3-.5m7 2.5a1 1 0 0 1-1-1V8.5c0-.553.448-.5 1-.5s1-.053 1 .5c0 0-.223 2.553-.062 4.648.16 2.093.062 5.851.062 5.851a1 1 0 0 1-1 1"/><path fill="#662113" d="M25 9 7 11V9l18-1z"/><path fill="#A78E81" d="M18.322 16.203c-.317.563-.682.904-1.08 1.096-.201.02-.566-.043-.709-.721a16 16 0 0 1-.334-3.297c0-2.072.3-4.371.3-4.371 0-.465.707-.468 1.044-.496-.078-.416-.875-.415-1.842-.415-.727 0-1.128.537-1.201 1.15-.074.615-.395 3.174-.372 5 .012.993.077 2.081.157 3.008a10 10 0 0 0-1.182-.245c-1.403-.178-3.252-.267-3.564-2.94-.247-2.117-.04-4.562-.04-4.562 0-.465.707-.58 1.044-.607-.078-.416-.84-.455-1.805-.391-.725.048-1.12.422-1.238 1.238-.19 1.314-.211 4.343-.1 6.437.062 1.17.245 5.38 2.05 7.018 1.053.956 2.843 1.521 5.05 1.395 2.092-.12 3.811-.898 4.774-1.707 1.67-1.403 2.045-2.418 2.114-3.517.112-1.776-2.378-4.297-3.066-3.073"/><path fill="#A78E81" d="M24.513 18.335c-1.05 1.6-3.139 2.087-5.38.616-2.24-1.47-2.626-3.58-1.576-5.18s3.744-1.292 5.192-.312 2.814 3.276 1.764 4.876"/><path fill="#E2D2C7" d="M23.636 18.589c-.75 1.143-2.582 1.492-4.503.232-1.92-1.26-2.21-3-1.459-4.144s2.147-.96 4.068.3 2.644 2.469 1.894 3.612"/><path fill="#292F33" d="M17.283 14.282a3.16 3.16 0 0 0-.246 1.775c.749.22 1.819.485 2.325.38.823-.171 1.099-.909.978-1.49-.168-.809-1.596-1.273-3.058-.665"/><path fill="#F5F8FA" d="M18.695 15.882a.594.594 0 1 0 0-1.188.594.594 0 0 0 0 1.188"/><path fill="#292F33" d="M24.154 18.79a3.17 3.17 0 0 1-1.53.932c-.5-.6-1.17-1.475-1.275-1.982-.17-.823.396-1.37.978-1.49.809-.168 1.803.957 1.827 2.54"/><path fill="#F5F8FA" d="M22.67 18.49a.594.594 0 1 0 0-1.188.594.594 0 0 0 0 1.188"/><path fill="#292F33" d="M21.023 18.238a1.188 1.188 0 1 1-1.987-1.304c.36-.55.771-.205 1.32.155.548.36 1.027.6.667 1.149"/><path fill="#292F33" d="m20.99 19.561-.037-.002c-2.24-.327-3.148-2.035-3.186-2.108a.25.25 0 0 1 .444-.23c.009.015.837 1.554 2.815 1.843a.25.25 0 0 1-.036.497"/></g></svg>