<svg xmlns="http://www.w3.org/2000/svg" width="32" height="32" fill="none"><defs><filter id="a"><feMorphology in="SourceAlpha" operator="dilate" radius="1" result="expanded"/><feFlood flood-color="#fff" result="color"/><feComposite in="color" in2="expanded" operator="in"/><feComposite in="SourceGraphic"/></filter></defs><g filter="url(#a)"><path fill="#9266CC" d="M11.5 13.781c0-2 1-4 0-5s-1.5 1-1 1c.707 0 1 1 .5 2.5s.5 2 .5 1.5m-1.938 0c0-2 1-4 0-5s-1.5 1-1 1c.707 0 1 1 .5 2.5s.5 2 .5 1.5"/><path fill="#AA8DD8" d="M25 23.468c0 .5-.5.5-1 .5H12.5c-2.5 0-3.636-1.545-4-3-.5-2 1-5.5 0-6s-1.5-.5-1.5-1.5 2.235-2.633 3.5-2c2 1 1.383 3.466 1 5-.44 1.76.557 1.797 2.5 2.5 2.47.893 6.16 2.22 7 2.5 1.5.5 4 1.5 4 2"/><path fill="#FFCC4D" d="M12.463 18.467c1.443.5 1.924 4.5 6.736 4.5 3.188 0 4.33-2.74 4.33-5.5 0-2.762-2.585-5-5.774-5s-5.749 5.842-5.292 6"/><path fill="#FFAC33" d="M19.457 22.968c.854 0 1.694-.24 2.446-.709 1.093-.68 1.864-1.763 2.174-3.049.765-3.181-1.103-6.417-4.164-7.212-3.697-.962-7.46 1.384-8.385 5.227-.129.536.185 1.08.7 1.213.514.136 1.038-.191 1.168-.727.666-2.773 3.38-4.465 6.05-3.772 2.031.528 3.271 2.675 2.763 4.787a2.93 2.93 0 0 1-1.296 1.82 2.74 2.74 0 0 1-2.156.332c-.54-.14-.995-.49-1.282-.986a2.23 2.23 0 0 1-.235-1.64c.096-.398.335-.733.673-.944.337-.21.763-.354 1.116-.173.65.333.65 1.333.169 1.833-.377.39.802.532 1.443 0 .575-.478.823-1.246.534-2.1-.29-.862-.902-1.47-1.679-1.673a3.27 3.27 0 0 0-2.574.398 3.5 3.5 0 0 0-1.549 2.174 4.28 4.28 0 0 0 .452 3.153 4 4 0 0 0 2.465 1.899c.387.1.779.15 1.167.15"/></g></svg>