<svg xmlns="http://www.w3.org/2000/svg" width="32" height="32" fill="none"><defs><filter id="a"><feMorphology in="SourceAlpha" operator="dilate" radius="1" result="expanded"/><feFlood flood-color="#fff" result="color"/><feComposite in="color" in2="expanded" operator="in"/><feComposite in="SourceGraphic"/></filter></defs><g filter="url(#a)"><path fill="#E1E8ED" d="M16 26a5.556 5.556 0 1 0 0-11.111 5.556 5.556 0 0 0 0 11.11"/><path fill="#E1E8ED" d="M12.667 12.11a3.333 3.333 0 1 1 6.666 0 3.333 3.333 0 0 1-6.666 0"/><path fill="#414042" d="M18.778 9.333c0 .614-.498 1.111-1.111 1.111h-3.334a1.11 1.11 0 0 1-1.11-1.11V7.11c0-.613.497-1.111 1.11-1.111h3.334c.613 0 1.11.498 1.11 1.111z"/><path fill="#231F20" d="M19.89 9.889a.555.555 0 0 1-.556.555h-6.667a.556.556 0 0 1 0-1.111h6.667c.307 0 .555.249.555.556"/><path fill="#DD2E44" d="M18.5 14.333h-5a.83.83 0 0 0-.278 1.616v3.94c0 .307.249.555.556.555h.555a.555.555 0 0 0 .556-.555v-3.89h3.61a.833.833 0 1 0 0-1.666"/><path fill="#414042" d="M16.555 19.333a.555.555 0 1 1-1.11.001.555.555 0 0 1 1.11-.001m0 2.778a.555.555 0 1 1-1.11 0 .555.555 0 0 1 1.11 0"/><path fill="#F4900C" d="M16.555 12.667a.555.555 0 1 1-1.11 0 .555.555 0 0 1 1.11 0"/><path fill="#414042" d="M14.889 11.556a.555.555 0 1 1-1.11 0 .555.555 0 0 1 1.11 0m3.333 0a.555.555 0 1 1-1.11 0 .555.555 0 0 1 1.11 0"/><path fill="#FFAC33" d="m11.774 17.157-1.917-.822-.304-1.592a.556.556 0 0 0-1.092.208l.163.856-.739-.317a.555.555 0 1 0-.437 1.021l.412.177-.586.586a.555.555 0 1 0 .785.786l.9-.9 2.377 1.018a.555.555 0 1 0 .438-1.021m12.735-1.684-.814-.27.475-.476a.555.555 0 1 0-.786-.785l-.417.417-.318-1.27a.554.554 0 1 0-1.077.27l.479 1.916-2 2a.555.555 0 1 0 .786.785l1.98-1.98 1.34.448q.089.029.176.028a.555.555 0 0 0 .176-1.083"/></g></svg>