<svg xmlns="http://www.w3.org/2000/svg" width="32" height="32" fill="none"><defs><filter id="a"><feMorphology in="SourceAlpha" operator="dilate" radius="1" result="expanded"/><feFlood flood-color="#fff" result="color"/><feComposite in="color" in2="expanded" operator="in"/><feComposite in="SourceGraphic"/></filter></defs><g filter="url(#a)"><path fill="#AD743D" d="M24.716 18.387c-.097.428-.319.886-.51 1.079.699-2.209.699-4.555-1.126-5.584.056.554-.055.846-.132 1.077-.105-1.11-.29-1.872-1.08-2.463-.91-.682-1.305-.226-.367 1.882 1.1 2.473.737 4.302.413 5.608-.019.077-.04.145-.06.22.402-2.883-.494-5.861-3.412-7.458-1.495-.818-2.606-.926-2.665-1.518-.067-.689-.609-1.85-1.905-2.664.222-.655-.243-1.394-.559-1.42-.315-.028-1.012.519-1.08 1.263-2.347.7-4.746 3.61-4.672 4.199.074.588.17 1.319 3.285 1.828.552.09 1.997.918 2.2 2.89.228 2.22 1.138 4.026 2.356 5.607h-.865c-2.066 0-2.066 2.067-.689 2.067h5.464v-.002c.18-.001.393-.014.651-.042 3.466-.306 5.396-3.674 4.753-6.57"/><path fill="#D99E82" d="M12.663 14.639c1.629-.045 2.262-3.025-.341-3.41-.061-.539-.382-1.307-1.129-1.362-1.174-.087-2.647 1.058-3.05 3.739.441.3 1.234.59 2.703.83.552.09 1.998.918 2.2 2.89.266 2.587 1.457 4.612 2.983 6.373.452-.47.818-1.162 1.014-2.142.69-3.443-3.692-6.23-4.38-6.918"/><path fill="#292F33" d="M10.846 12.418a.688.688 0 1 0 0-1.377.688.688 0 0 0 0 1.377"/><path fill="#662113" d="M17.627 13.783c2.032 1.67 3.079 3.648 2.7 6.185-.158 1.071.416 1.466.845.45.3-.71.468-4.943-3.025-7.155-.93-.588-.98.142-.52.52"/><path fill="#AD743D" d="M13.617 16.837c-.622-.621-2.485 0-3.106-1.244-.393-.786-1.864.623-1.242 1.867.62 1.242 2.484 1.242 3.727.621 1.242-.62.62-1.244.62-1.244"/><path fill="#662113" d="M10.13 17.072c.152.745-.192 2.148-.937 2.3s-1.61-1.003-1.762-1.748a1.378 1.378 0 1 1 2.699-.552"/><path fill="#AD743D" d="M13.954 17.688c-.818-.531-2.695.574-3.655-.63-.607-.761-1.876 1.105-.916 2.308s2.981.771 4.184-.19c1.204-.96.386-1.488.386-1.488"/></g></svg>