<svg xmlns="http://www.w3.org/2000/svg" width="32" height="32" fill="none"><defs><filter id="a"><feMorphology in="SourceAlpha" operator="dilate" radius="1" result="expanded"/><feFlood flood-color="#fff" result="color"/><feComposite in="color" in2="expanded" operator="in"/><feComposite in="SourceGraphic"/></filter></defs><g filter="url(#a)"><path fill="#BE1931" d="M18.307 24.423c1.731-.577 3.059-1.517 3.06-4.687.001-2.005 2.133-4.236 2.133-6.275-.001-1.96-2.308-5.192-7.55-4.643C10.56 9.382 8.5 11 8.5 14.537c0 2.463 2.652 4.19 4.063 6.759.937 1.704 3.713 4.798 5.744 3.127"/><path fill="#77B255" d="M20.126 8.786c-.639-.522-1.64-.775-2.675-.839.136-.018.271-.038.41-.047.486-.031 1.807-.616.7-.543-.485.031-.95.13-1.419.211q.177-.117.37-.22C17.5 7 15.5 7 14.491 7.843 14.235 7.788 14 7.5 12.5 7.5c-1 0-2.342.463-1.5.5.459.02 1 0 .929.182C11.601 8.212 10 8.5 10 9c0 .176 1.38-.087 1.5 0-.861.322-1.5 1-1.5 1.5 0 .211 1.105-.412 1.5-.5-.5.5-.7.85-.671 1.213.019.238 1.194-.044 1.316-.084.411-.135 1.855-.629 2.3-1.362.059.142 1.482.67 2.055.733.265.029 1.31.137 1.07-.355C17.5 10 17 9.5 16.848 9.012c.223-.009 4.153.488 3.279-.226"/><path fill="#F4ABBA" d="M11.67 15.653c-.069-.73-1.27-1.626-1.166-.5.068.73 1.27 1.626 1.165.5m3.729.277a1.53 1.53 0 0 0-.344-.836c-.233-.275-.537-.181-.617.158-.094.4.041.876.303 1.186l.02.024-.32-.787.002.023c.036.32.199.866.569.953.377.091.412-.494.386-.721m2.876-2.421c.238-.478.085-1.981-.416-.977-.238.477-.086 1.981.415.977m3.605-.729c-.015-.178-.037-.39-.195-.505-.595-.428-1.191 1.18-.693 1.54l.027.02-.165-.46q0 .014.002.027c.024.282.188.688.541.474.334-.203.515-.723.483-1.095m-.672 4.284c.508-.785-.273-1.726-.89-.771-.509.784.272 1.725.89.771m-2.874 1.447c.086-.969-1.155-1.376-1.256-.248-.086.969 1.155 1.376 1.256.248m-4.948-.606-.025.002.681.358-.009-.009c-.153-.14-.676-.541-.894-.296-.22.248.249.71.402.851.171.157.464.382.714.366.719-.047-.391-1.303-.87-1.272m6.613 2.953c.485-.532.363-2.024-.399-1.187-.485.532-.362 2.024.399 1.188m-6.7-6.982q.07-.003.14-.009c.352-.023.502-.727.521-.976.022-.286-.021-.728-.392-.703l-.14.009c-.352.024-.503.727-.522.976-.022.286.022.729.393.704m3.924 7.629c.197.382.126.812-.16.96s-.679-.041-.877-.422c-.197-.383-.126-.812.16-.96s.678.04.877.422"/></g></svg>