<svg xmlns="http://www.w3.org/2000/svg" width="32" height="32" fill="none"><defs><filter id="a"><feMorphology in="SourceAlpha" operator="dilate" radius="1" result="expanded"/><feFlood flood-color="#fff" result="color"/><feComposite in="color" in2="expanded" operator="in"/><feComposite in="SourceGraphic"/></filter></defs><g filter="url(#a)"><path fill="#3E721D" d="M21 20.5c-4 0-4 3-4 3V18h-2v5.5s0-3-4-3c-2 0-3.5-1-3.5-1S7.5 24 12 24h3s0 1 1 1 1-1 1-1h3c4.5 0 4.5-4.5 4.5-4.5s-1.5 1-3.5 1"/><path fill="#FFAC33" d="M17.562 20.83a.83.83 0 0 1-.463-.141l-1.162-.788-1.16.788a.83.83 0 0 1-.68.113.82.82 0 0 1-.53-.437l-.612-1.263-1.399.101-.06.003a.83.83 0 0 1-.825-.886l.1-1.4-1.26-.613a.83.83 0 0 1-.325-1.209l.787-1.162-.787-1.16a.825.825 0 0 1 .324-1.209l1.262-.613-.1-1.398a.828.828 0 0 1 .884-.886l1.399.101.612-1.262a.83.83 0 0 1 1.21-.324l1.16.787 1.162-.787a.82.82 0 0 1 .677-.114.83.83 0 0 1 .531.438l.613 1.262 1.4-.1q.028-.003.058-.002a.83.83 0 0 1 .826.887l-.102 1.399 1.263.612a.827.827 0 0 1 .323 1.208l-.787 1.162.788 1.161a.828.828 0 0 1-.324 1.209l-1.263.613.102 1.4a.83.83 0 0 1-.24.643.83.83 0 0 1-.644.24l-1.4-.101-.613 1.263a.82.82 0 0 1-.745.466"/><path fill="#732700" d="M16 17.5a3.5 3.5 0 1 0 0-7 3.5 3.5 0 0 0 0 7"/></g></svg>