<svg xmlns="http://www.w3.org/2000/svg" width="32" height="32" fill="none"><defs><filter id="a"><feMorphology in="SourceAlpha" operator="dilate" radius="1" result="expanded"/><feFlood flood-color="#fff" result="color"/><feComposite in="color" in2="expanded" operator="in"/><feComposite in="SourceGraphic"/></filter></defs><g filter="url(#a)"><path fill="#662113" d="M13.5 19.05s-.613.765-.41 1.815c.126.648.731 1.315 1.542 1.44.271.042.404.571.33.96-.086.44-.39 1.057-.556 1.37s-.494.312-.897.674c-.282.252-.377.691.103.691h2.123c.426 0 .697-.26.788-.69.125-.594.607-2.86.47-3.296-.098-.314-.432-.564-.647-1.17-.16-.448.21-1.648.21-1.648zm-6.089-.338s.443-.402.747-.52 1.419-.032 1.703-.091c.284-.06.757-.54.757-.54s1.191.465 1.203.579-.8.899-.978 1.103-1.287-.298-1.617-.298-1.023.296-1.267.435c-.244.138-.284-.073-.145-.225 0 0-.223.273-.3.173s.129-.318.129-.318-.192.244-.297.165c-.106-.079-.108-.254.065-.463m6.597-8.991c-.129.344-.461.91.198.955.659.046.011.694-.573.735-.585.042-2.483-.772-2.275-1.252s1.044-1.002 1.691-.877c.647.126.96.439.96.439"/><path fill="#F4900C" d="M17.562 9.03c-.043.32-.13.555-.191.546-.06-.009-.208-.59-.208-.59s-.113.642-.192.634c-.078-.01-.156-.59-.156-.59s-.13.59-.217.59-.2-.59-.2-.59-.094.584-.163.593c-.07.008-.28-.533-.28-.533s-.12.548-.181.548-.235-.548-.235-.548-.104.539-.156.539-.243-.54-.243-.54-.077.58-.13.592c-.143.034-.4-.495-.4-.495s.12.589.044.6c-.13.017-.547-.409-.547-.409s.53-.53.955-.616c.426-.087 2.231-.434 2.44-.356.208.078.06.624.06.624m-.353 1.523c-.076-.315-.187-.54-.247-.525s-.073.557-.073.557-.252-.576-.329-.56c-.076.018-.034.598-.034.598s-.25-.568-.337-.558c-.086.009-.051.599-.051.599s-.29-.607-.36-.609c-.07-.001-.078.593-.078.593s-.216-.563-.276-.556-.129.616-.129.616-.16-.542-.213-.537c-.051.006-.142.564-.142.564s-.162-.48-.216-.492c-.053-.011-.122.502-.122.502s-.161-.38-.234-.407-.12.489-.12.489.07.209.502.251 2.264.202 2.463.102-.004-.627-.004-.627"/><path fill="#AB7E59" d="M12.13 10.159c.064-.38 1.19.187 1.42.125.229-.063 1.147-.982 1.398-1.002s2.483-.063 2.734-.188.104-1.106-.125-1.377c-.23-.271-1.044-.877-2.004-.981-.96-.105-1.628-.125-1.94-.292-.314-.168-1.002-.23-1.482 0-.481.23-2.192.5-2.902 1.21-.709.71-1.523 1.649-1.71 3.172a5 5 0 0 0 .584 3.101c.219.413.835 1.95.98 2.555.147.605 1.026 2.765 2.742 3.266s2.977 1.471 4.542 1.722c1.782.285 5.05-.105 6.72-1.148s2.483-2.108 2.483-3.506-.897-2.922-2.149-2.963c-1.252-.042-.438.375-.063.459.376.083 1.106.981.94 1.774s-.502 1.398-1.4 1.419c-.896.02-1.836-.98-2.336-1.65-.502-.667-2.755-1.854-3.82-1.918s-3.277-.064-3.548-.732-.209-1.001-.02-1.085c.187-.083 1.23-.312 1.961-.334.73-.02 2.024-.208 2.191-.458.167-.251.125-.773-.063-.793-.187-.021-1.356.104-1.69.104s-.522-.271-.877-.167-1.002.501-1.273.459-1.314-.647-1.293-.772"/><path fill="#8B5E3C" d="M20.974 20.585c-1.497.216-4.359-.259-5.2-.545-.84-.287-2.564-.732-3.778-.99-1.214-.257-2.157-1.277-2.824-2.277.288.825 1.15 2.537 2.653 2.976 1.715.501 2.977 1.471 4.542 1.722 1.782.285 5.05-.105 6.72-1.148.605-.379 1.095-.76 1.478-1.16-.526.394-2.103 1.208-3.591 1.422M13.12 6.872c.742.115.114.505 1.49.502 0 0-1.04.555-1.457.555-.72 0-.871-.357-.87-.656 0-.27.449-.462.837-.401"/><path fill="#292F33" d="M12.944 7.667a.278.278 0 1 0 0-.556.278.278 0 0 0 0 .556"/><path fill="#AB7E59" d="M15.518 19.759s.236.835.998 1.586 2.29.918 2.56.96c.271.042.565.146.69.522.126.375.362 1.495.195 1.807-.167.313-.86.488-1.048.843-.105.2-.38.523.1.523h2.543c.425 0 .53-.335.53-.773s.145-1.148-.126-1.92c-.27-.772-.375-1.94-.835-2.066s-1.19-1.377-1.19-1.377zM8.42 20.86s.31-.553.576-.774c.265-.222 1.416-.51 1.682-.664s.58-.797.58-.797 1.355.067 1.406.177-.503 1.174-.614 1.44c-.11.265-1.394.132-1.726.242-.333.111-.93.643-1.13.864s-.31.022-.22-.177c0 0-.133.349-.244.274s.022-.363.022-.363-.11.31-.243.266c-.133-.045-.194-.22-.09-.488"/><path fill="#8B5E3C" d="M14.728 14.702a.32.32 0 1 1-.64 0 .32.32 0 0 1 .64 0m1.7.703a.455.455 0 1 1-.91 0 .455.455 0 0 1 .91 0m-.91-.93a.242.242 0 1 1-.484 0 .242.242 0 0 1 .484 0m1.642.134a.229.229 0 1 1-.458 0 .229.229 0 0 1 .458 0m1.451.652a.423.423 0 1 1-.846 0 .423.423 0 0 1 .846 0M19.948 17.56a.271.271 0 1 0 0-.541.271.271 0 0 0 0 .542M17.43 16.402a.271.271 0 1 0 0-.543.271.271 0 0 0 0 .543M19.883 16.402a.271.271 0 1 0 0-.543.271.271 0 0 0 0 .543M18.924 16.39a.401.401 0 1 0 0-.802.401.401 0 0 0 0 .802"/></g></svg>