<svg xmlns="http://www.w3.org/2000/svg" width="32" height="32" fill="none"><defs><filter id="a"><feMorphology in="SourceAlpha" operator="dilate" radius="1" result="expanded"/><feFlood flood-color="#fff" result="color"/><feComposite in="color" in2="expanded" operator="in"/><feComposite in="SourceGraphic"/></filter></defs><g filter="url(#a)"><path fill="#FFCC4D" d="M11.111 13.333a2.667 2.667 0 1 0 0-5.333 2.667 2.667 0 0 0 0 5.333M16 24a2.667 2.667 0 1 0 0-5.333A2.667 2.667 0 0 0 16 24"/><path fill="#DD2E44" d="M16 23.111a1.778 1.778 0 1 0 0-3.555 1.778 1.778 0 0 0 0 3.555"/><path fill="#FFCC4D" d="M20.889 13.333a2.667 2.667 0 1 0 0-5.333 2.667 2.667 0 0 0 0 5.333"/><path fill="#E6AAAA" d="M11.111 12.444a1.778 1.778 0 1 0 0-3.555 1.778 1.778 0 0 0 0 3.555M20.89 12.444a1.778 1.778 0 1 0 0-3.555 1.778 1.778 0 0 0 0 3.555"/><path fill="#FFCC4D" d="M23.11 17.778c0 3.11-2.187 3.11-2.187 3.11h-9.846s-2.188 0-2.188-3.11c0 0 .547-9.778 7.11-9.778 6.565 0 7.112 9.778 7.112 9.778"/><path fill="#272B2B" d="M12.889 15.556s0-.889.889-.889c.888 0 .888.889.888.889v.889s0 .889-.888.889c-.89 0-.89-.89-.89-.89zm4.444 0s0-.889.889-.889.889.889.889.889v.889s0 .889-.889.889-.889-.89-.889-.89z"/><path fill="#fff" d="M18.524 18.223c-1.068 0-2 .423-2.524 1.056-.523-.633-1.456-1.056-2.524-1.056-4.587 0-4.568.187-4.587 1.414-.039 2.493 2.947 3.066 4.587 3.03 1.067-.024 2.001-.44 2.524-1.065.523.625 1.456 1.042 2.524 1.065 1.64.036 4.626-.537 4.587-3.03-.02-1.227 0-1.414-4.587-1.414"/><path fill="#272B2B" d="M22.96 19.219c.09.124.148.261.15.417a2.4 2.4 0 0 1-.85 1.923l-2.26.219zm-8.293-.108c-.445.445.889 1.778 1.333 1.778.445 0 1.778-1.333 1.334-1.778-.445-.444-2.223-.444-2.667 0m-2.222-9.778c1.185.89 3.555 1.778 3.555 1.778s2.37-.889 3.556-1.778L16 9.778zM16 8.89s.734-.276 1.59-.673A5.8 5.8 0 0 0 16 8c-.575 0-1.102.08-1.59.216.856.397 1.59.673 1.59.673M12.89 12c1.333.889 3.111 1.778 3.111 1.778s1.778-.89 3.111-1.778l-3.11.444zm9.176 1.016L20 14.666l2.67.334a16 16 0 0 0-.605-1.984m.849 3.181-2.47 2.47h2.594c.045-.265.073-.556.073-.89 0 0-.036-.635-.197-1.58m-13.828 0c-.16.945-.197 1.58-.197 1.58 0 .333.028.625.073.89h2.594zM9.04 19.22a.7.7 0 0 0-.15.417 2.4 2.4 0 0 0 .85 1.924l2.26.218zM12 14.667l-2.064-1.651c-.26.683-.457 1.361-.605 1.984z"/></g></svg>