<svg xmlns="http://www.w3.org/2000/svg" width="32" height="32" fill="none"><defs><filter id="a"><feMorphology in="SourceAlpha" operator="dilate" radius="1" result="expanded"/><feFlood flood-color="#fff" result="color"/><feComposite in="color" in2="expanded" operator="in"/><feComposite in="SourceGraphic"/></filter></defs><g filter="url(#a)"><path fill="#DD2E44" d="M18.247 9.672a6 6 0 0 0-.995.088 20 20 0 0 0-1.796-.115c-4.236 0-7.943 1.588-7.943 7.149 0 4.517 3.525 8.18 8.488 8.18 4.964 0 8.987-3.663 8.987-8.18 0-5.625-4.693-7.122-6.74-7.122"/><path fill="#77B255" d="M11.22 7.046c.818.818 1.385 1.133 1.637 2.455.149.782 1.133.755 1.133.755s-1.952.881-2.77 1.7c0 0 2.455-.819 3.273-.819 0 0 1.637.819 1.637 1.637 0 0 0-1.637-.818-1.637 0 0 2.454 0 2.454 1.637 0 0 0-2.455-.818-2.455 0 0 2.455-.818 3.274 0 0 0-.843-.86-2.456-.818 0 0 .82-.819 2.456-.819 0 0-2.644-.755-3.463.882 0 0-.692-.693.693-2.078 0 0-2.14.378-2.14 2.015 0 0-.776-.02-1.322-.63-1.07-1.196-2.77-1.825-2.77-1.825"/></g></svg>