<svg xmlns="http://www.w3.org/2000/svg" width="32" height="32" fill="none"><defs><filter id="a"><feMorphology in="SourceAlpha" operator="dilate" radius="1" result="expanded"/><feFlood flood-color="#fff" result="color"/><feComposite in="color" in2="expanded" operator="in"/><feComposite in="SourceGraphic"/></filter></defs><g filter="url(#a)"><path fill="#662113" d="M18 23c0 1.105-.895 1.5-2 1.5s-2-.395-2-1.5l.5-4.5c0-1.104.396-1 1.5-1s1.5-.104 1.5 1z"/><path fill="#5C913B" d="M22.703 20.149c-3.481-2.983-4.891-7.254-6.703-7.254-1.811 0-3.221 4.271-6.702 7.253-1.463 1.254-.766 1.979 1.24 1.834 1.787-.129 3.459-.534 5.462-.534 2.004 0 3.676.406 5.463.534 2.006.145 2.703-.58 1.24-1.834"/><path fill="#3E721D" d="M21.573 18.967C18.897 16.514 17.393 13 16 13c-1.392 0-2.896 3.514-5.572 5.967-2.126 1.949 2.786 2.387 5.572 0 2.785 2.387 7.698 1.949 5.573 0"/><path fill="#5C913B" d="M21.573 16.98c-2.676-2.293-4.18-5.575-5.573-5.575-1.392 0-2.896 3.282-5.572 5.574-2.126 1.821 2.786 2.23 5.572 0 2.785 2.23 7.698 1.821 5.573 0"/><path fill="#3E721D" d="M20.35 15.352C18.262 13.561 17.088 11 16 11s-2.261 2.563-4.35 4.352c-1.66 1.421 2.175 1.74 4.35 0 2.175 1.74 6.01 1.421 4.35 0"/><path fill="#5C913B" d="M20.35 13.863c-2.088-1.79-3.262-4.351-4.35-4.351s-2.261 2.562-4.35 4.351c-1.66 1.422 2.175 1.74 4.35 0 2.175 1.74 6.01 1.422 4.35 0"/><path fill="#3E721D" d="M19.51 12.54c-1.685-1.444-2.632-3.512-3.51-3.512s-1.825 2.068-3.51 3.512c-1.34 1.148 1.755 1.405 3.51 0 1.755 1.405 4.85 1.148 3.51 0"/><path fill="#5C913B" d="M19.51 11.42C17.826 9.976 16.879 7.908 16 7.908s-1.825 2.068-3.51 3.512c-1.34 1.148 1.755 1.405 3.51 0 1.755 1.405 4.85 1.148 3.51 0"/><path fill="#3E721D" d="M18.671 9.77C17.39 8.671 16.668 7.098 16 7.098s-1.39 1.574-2.672 2.672c-1.019.874 1.336 1.07 2.672 0 1.335 1.07 3.69.873 2.671 0"/><path fill="#5C913B" d="M18.671 9.173C17.39 8.073 16.668 6.5 16 6.5s-1.39 1.574-2.672 2.672c-1.019.874 1.336 1.07 2.672 0 1.335 1.07 3.69.874 2.671 0"/></g></svg>