<svg xmlns="http://www.w3.org/2000/svg" width="32" height="32" fill="none"><defs><filter id="a"><feMorphology in="SourceAlpha" operator="dilate" radius="1" result="expanded"/><feFlood flood-color="#fff" result="color"/><feComposite in="color" in2="expanded" operator="in"/><feComposite in="SourceGraphic"/></filter></defs><g filter="url(#a)"><path fill="#FFAC33" d="M18.44 23.548a.5.5 0 0 0-.209-.195c-.799-.854-.231-1.854-.231-1.854 0-.276.5-1 0-1l-.5.5c-.5.5-.5 2-.5 2h-1a.5.5 0 1 0 0 1h.553l-.11.06a.5.5 0 1 0 .476.88l1.319-.713a.5.5 0 0 0 .202-.678m-3.5 0a.5.5 0 0 0-.208-.195c-.799-.854-.232-1.854-.232-1.854 0-.276.5-1 0-1l-.5.5c-.5.5-.5 2-.5 2h-1a.5.5 0 1 0 0 1h.554l-.111.06a.5.5 0 1 0 .476.88l1.32-.713a.5.5 0 0 0 .201-.678"/><path fill="#BE1931" d="M9.567 10.5c1 2.5-1.5 2.5-1 3.5s2.5-1 1.5-3.5-.5 0-.5 0"/><path fill="#FFAC33" d="M10.5 10c0 .552.966 1 0 1S7 10.5 7 10s.534-1.5 1.5-1.5 2 .948 2 1.5"/><path fill="#C1694F" d="M10 17.5c0-3 1.604-6.5.5-6.5-2 0-2-.896-2-2a2 2 0 0 1 2-2c3.5 0 3 4.5 2 6.5-.837 1.674-1.011 4-2.5 4"/><path fill="#31373D" d="M25 15.5c0 3.98-2.5 5.65-5 5.625-1.017.898-2.463 1.375-4 1.375-3.313 0-6-2.418-6-5.4s2.687-5.4 6-5.4c1.5-1.35 3.5-3.25 5-3.7 3 1.8 4 3.9 4 7.5"/><path fill="#292F33" d="M10 9a.5.5 0 1 0 0-1 .5.5 0 0 0 0 1"/><path fill="#66757F" d="M15.992 11.7a6.5 6.5 0 0 0-2.292.415c1.957-.115 3.175-.021 4.8.775-.46-.757-1.695-1.19-2.508-1.19m8.971 2.718a10.4 10.4 0 0 0-.26-1.773c-3.125.636-1.702 1.773.26 1.773m-.992-3.612a6.7 6.7 0 0 0-1.312-1.593c-3.58 1.787-1.503 2.365 1.312 1.593m.606 7.237c-1.701-.543-2.124.41-1.108 1.707-1.25-1.172-2.015-.531-1.672 1-.734-1.094-1.484-.104-1.797.375 1.88.018 3.76-.922 4.577-3.082m-1.92-8.831A10.4 10.4 0 0 0 21 8c-3.5 1.844-1 2.203 1.658 1.212m1.92 8.83c.269-.712.423-1.556.423-2.542 0-.377-.013-.735-.037-1.082-2.305.192-1.9 1.442.003 1.676-1.778.031-2.09 1.125-.39 1.948m-.605-7.235c-3.214 1.193-1.847 2.146.73 1.837a6.8 6.8 0 0 0-.73-1.837"/></g></svg>