<svg xmlns="http://www.w3.org/2000/svg" width="32" height="32" fill="none"><defs><filter id="a"><feMorphology in="SourceAlpha" operator="dilate" radius="1" result="expanded"/><feFlood flood-color="#fff" result="color"/><feComposite in="color" in2="expanded" operator="in"/><feComposite in="SourceGraphic"/></filter></defs><g filter="url(#a)"><path fill="#77B255" d="M11.468 13.068c0 5.467 3.653 5.373 2.865 5.598-3.889 1.111-4.89-4.232-5.257-4.232C7.754 14.434 6 14.2 6 13.068c0-1.133 1.367-2.735 3.417-2.735 1.322 0 2.05 1.602 2.05 2.735M26 17.91c0 .613-1.954-.412-2.778 0-1.11.555-1.11-.498-1.11-1.111 0-.614.745-.556 1.666-.556S26 17.296 26 17.91"/><path fill="#77B255" d="M15.286 20.413c0 1.534-.71 1.587-1.587 1.587s-1.588-.054-1.588-1.587c0-.272.048-.572.13-.882.384-1.439 1.53-3.087 2.251-3.087.877 0 .794 2.435.794 3.969m4.762 0c0 1.534.71 1.587 1.587 1.587s1.587-.054 1.587-1.587c0-.272-.047-.572-.13-.882-.383-1.439-1.53-3.087-2.25-3.087-.877 0-.794 2.435-.794 3.969"/><path fill="#3E721D" d="M23.778 17c0 2.222-2.86 2.222-6.39 2.222-3.527 0-6.388 0-6.388-2.222 0-3.682 2.86-6.667 6.389-6.667 3.528 0 6.389 2.985 6.389 6.667"/><path fill="#292F33" d="M8.778 12.555a.556.556 0 1 0 0-1.11.556.556 0 0 0 0 1.11"/><path fill="#5C913B" d="M19.148 15.944c0 1.995-.787 2.167-1.76 2.167-.97 0-1.759-.172-1.759-2.167s.788-4.5 1.76-4.5 1.76 2.506 1.76 4.5m3.519-.61c.484 1.934-.436 2.221-1.408 2.221-.971 0-1.407.384-1.407-1.61s-.62-3.612.352-3.612c.971 0 1.907.778 2.463 3m-7.74.61c0 1.995-.437 1.611-1.409 1.611-.971 0-1.89-.287-1.407-2.222.556-2.222 1.806-3 2.778-3s.037 1.617.037 3.611"/></g></svg>