<svg xmlns="http://www.w3.org/2000/svg" width="32" height="32" fill="none"><defs><filter id="a"><feMorphology in="SourceAlpha" operator="dilate" radius="1" result="expanded"/><feFlood flood-color="#fff" result="color"/><feComposite in="color" in2="expanded" operator="in"/><feComposite in="SourceGraphic"/></filter></defs><g filter="url(#a)"><path fill="#5C913B" d="M7.373 9.651a9.46 9.46 0 0 0-.817 3.85c0 5.369 4.477 9.722 10 9.722 4.303 0 7.96-2.649 9.37-6.356z"/><path fill="#FFE8B6" d="M8.407 10.053a8.4 8.4 0 0 0-.74 3.447c0 4.773 3.98 8.642 8.888 8.642 3.836 0 7.095-2.366 8.34-5.677z"/><path fill="#DD2E44" d="M9.44 10.455a7.35 7.35 0 0 0-.662 3.045c0 4.177 3.482 7.562 7.778 7.562 3.367 0 6.227-2.085 7.308-4.998z"/><path fill="#000" d="M11.509 13.932c-.17.256-.412.394-.54.309-.127-.085-.093-.361.078-.617.17-.255.411-.393.539-.308s.093.36-.077.616m3.333.556c-.17.255-.412.393-.54.308-.127-.085-.093-.36.078-.616.17-.255.411-.393.54-.308.127.085.093.36-.078.616m2.823 2.599c.028.306-.073.564-.225.578s-.3-.222-.327-.528.073-.565.226-.578c.152-.015.299.221.326.528m-5-1.111c.028.306-.073.564-.225.578s-.3-.222-.327-.528.074-.565.226-.578c.153-.015.299.22.326.528m2.168 2.97c-.185.245-.434.368-.556.276-.123-.093-.072-.366.114-.61.185-.246.434-.37.556-.277s.072.365-.114.61m4.464.252c.152.267.166.544.033.62s-.364-.08-.516-.347c-.151-.267-.166-.544-.032-.62.133-.076.363.079.515.347m-3.898-2.794c.168.258.2.533.073.617-.129.084-.369-.056-.537-.313-.168-.256-.2-.532-.073-.615.128-.086.368.054.537.311m4.99.875c-.186.245-.434.368-.557.276s-.072-.366.114-.61c.185-.246.433-.369.555-.277.124.093.073.365-.113.61"/></g></svg>