<svg xmlns="http://www.w3.org/2000/svg" width="32" height="32" fill="none"><defs><filter id="a"><feMorphology in="SourceAlpha" operator="dilate" radius="1" result="expanded"/><feFlood flood-color="#fff" result="color"/><feComposite in="color" in2="expanded" operator="in"/><feComposite in="SourceGraphic"/></filter></defs><g filter="url(#a)"><path fill="#3B88C3" d="M26 7.89c-1.111 1.666-1.111-.556-2.778 1.11-1.666-1.11-1.666 1.667-3.333 0 .5 1.5 1.9 2.542 3.389 2.737-.154.994.112 2.193-1.167 3.374-1.115 1.032-1.68.174-4.444-1.666-1.667-1.109-2.778-2.222-5.556-1.667C8.843 12.433 6 15.112 6 16.223s1.667 7.761 11.667 7.761c1.11 0 2.912-.369 4.444-1.65 3.308-2.765 3.268-8.527 2.545-10.808C25.644 10.899 26 9.219 26 7.89"/><path fill="#55ACEE" d="M22.786 21.674q.122-.139.238-.284c1.044-1.306 1.612-2.972 1.864-4.606-1.11 2.776-1.67 5.55-7.777 5.55C11 22.334 8.778 15.112 6 16.223c0 1.11 1.667 7.76 11.667 7.76 1.11 0 2.912-.369 4.444-1.65a7 7 0 0 0 .675-.66"/><path fill="#292F33" d="M9.611 16.778a.833.833 0 1 0 0-1.667.833.833 0 0 0 0 1.667"/></g></svg>