<svg xmlns="http://www.w3.org/2000/svg" width="32" height="32" fill="none"><defs><filter id="a"><feMorphology in="SourceAlpha" operator="dilate" radius="1" result="expanded"/><feFlood flood-color="#fff" result="color"/><feComposite in="color" in2="expanded" operator="in"/><feComposite in="SourceGraphic"/></filter></defs><g filter="url(#a)"><path fill="#66757F" d="M14.43 11.748c.237 1.163-.092 2.118-1.461 2.32-1.37.2-3.35 1.948-4.424-.9-.623-1.65-.999-5.051-.23-5.164.768-.113 5.877 2.581 6.114 3.744"/><path fill="#CCD6DD" d="M13.392 11.926c.432.696-1.103 1.916-1.922 2.284-.82.368-1.458-.33-2.087-2.05-.275-.751-.617-2.766-.317-2.901s3.893 1.971 4.326 2.667"/><path fill="#66757F" d="M17.686 11.748c-.229 1.163.088 2.118 1.409 2.319 1.322.201 3.232 1.949 4.268-.9.6-1.65.963-5.05.223-5.164-.742-.112-5.671 2.582-5.9 3.745"/><path fill="#CCD6DD" d="M18.687 11.926c-.418.696 1.063 1.916 1.854 2.284.79.368 1.406-.33 2.012-2.05.266-.751.595-2.766.306-2.901s-3.754 1.971-4.173 2.667"/><path fill="#66757F" d="M23.173 20.456c0-.227-.094-.546-.203-.843.292.014.76.095 1.385.408a2 2 0 0 0-.137-.697q.029.013.058.028a7.8 7.8 0 0 0-1.654-2.759h1.103c-1.166-2.331-2.483-4.007-4.038-4.779-.695-.437-1.844-.669-3.686-.67h-.002c-1.848 0-2.998.235-3.692.674-1.552.773-2.867 2.448-4.03 4.775H9.38s-1.104 1.104-1.656 2.759l.042-.02c-.1.197-.153.424-.14.689.63-.316 1.108-.396 1.406-.409a3.2 3.2 0 0 0-.193.738 1.6 1.6 0 0 0-.068.671c1.604-.729 2.354-.625 3.229-.187.606 1.811 2.103 3.166 4 3.166s3.373-1.397 3.98-3.208c.728-.625 1.853-.437 3.207.208a1.4 1.4 0 0 0-.018-.547z"/><path fill="#CCD6DD" d="M24.277 19.352c-.219-.657-1.833-1.55-3.487-2.256.13-.332.21-.701.21-1.096 0-1.38-.895-2.5-2-2.5s-2 1.12-2 2.5c0 1.5 2 5-1 5.559-2.563-.478-1.477-3.1-1.106-4.79q.054-.207.079-.426.026-.185.027-.343c0-1.38-.895-2.5-2-2.5s-2 1.12-2 2.5c0 .395.08.764.21 1.096-1.653.706-3.267 1.6-3.486 2.256C8.828 18.8 9.38 18.8 9.38 18.8s-.552 1.104-.552 1.656c1.335-.89 2.67-1.061 3.714-.226.607 1.811 1.458 3.27 3.459 1.832 2 1.438 2.85-.02 3.456-1.831 1.046-.837 2.381-.665 3.717.225 0-.552-.552-1.656-.552-1.656s.552 0 1.655.552"/><path fill="#292F33" d="M12.5 15.5s0-.75.75-.75.75.75.75.75v.75s0 .75-.75.75-.75-.75-.75-.75zm5.5 0s0-.75.75-.75.75.75.75.75v.75s0 .75-.75.75-.75-.75-.75-.75zm-3.53 4.578c-.511.104 1.02 1.984 1.53 1.984s2.041-1.88 1.532-1.984c-.51-.104-2.552-.104-3.062 0"/></g></svg>