<?xml version="1.0" encoding="UTF-8" standalone="no"?>
<svg width="24px" height="24px" viewBox="0 0 24 24" version="1.1" xmlns="http://www.w3.org/2000/svg" xmlns:xlink="http://www.w3.org/1999/xlink">
    <!-- Generator: Sketch 45.1 (43504) - http://www.bohemiancoding.com/sketch -->
    <title>editor/advanced</title>
    <desc>Created with Sketch.</desc>
    <defs></defs>
    <g id="Original" stroke="none" stroke-width="1" fill="none" fill-rule="evenodd">
        <g id="editor/advanced" fill="#42526E">
            <path d="M9.8,17 L9,19 L7,19 L7.7628866,17 L9.8,17 Z M8.90721649,14 L10.814433,9 L13.185567,9 L15.0927835,14 L13.1666667,14 L12,10.5 L10.8333333,14 L8.90721649,14 Z M16.2371134,17 L17,19 L15,19 L14.2,17 L16.2371134,17 Z M5,15 L19,15 L19,16 L5,16 L5,15 Z M18,5 L18,6 L16,6 L16,8 L18,8 L18,9 L15,9 L15,5 L18,5 Z M18,6 L19,6 L19,8 L18,8 L18,6 Z" id="Shape"></path>
        </g>
    </g>
</svg>