<?xml version="1.0" encoding="UTF-8"?>
<svg width="24px" height="24px" viewBox="0 0 24 24" version="1.1" xmlns="http://www.w3.org/2000/svg" xmlns:xlink="http://www.w3.org/1999/xlink">
    <!-- Generator: Sketch 47.1 (45422) - http://www.bohemiancoding.com/sketch -->
    <title>editor/align-left</title>
    <desc>Created with Sketch.</desc>
    <defs></defs>
    <g id="Desktop" stroke="none" stroke-width="1" fill="none" fill-rule="evenodd">
        <g id="editor/align-left" fill="#42526E">
            <path d="M7,7 L17,7 C17.5522847,7 18,7.44771525 18,8 L18,8 C18,8.55228475 17.5522847,9 17,9 L7,9 C6.44771525,9 6,8.55228475 6,8 L6,8 L6,8 C6,7.44771525 6.44771525,7 7,7 L7,7 Z M7,11 L17,11 C17.5522847,11 18,11.4477153 18,12 C18,12.5522847 17.5522847,13 17,13 L7,13 C6.44771525,13 6,12.5522847 6,12 C6,11.4477153 6.44771525,11 7,11 L7,11 Z M7,15 L12,15 C12.5522847,15 13,15.4477153 13,16 C13,16.5522847 12.5522847,17 12,17 L7,17 C6.44771525,17 6,16.5522847 6,16 C6,15.4477153 6.44771525,15 7,15 L7,15 Z" id="align-left"></path>
        </g>
    </g>
</svg>