<?xml version="1.0" encoding="UTF-8"?>
<svg width="24px" height="24px" viewBox="0 0 24 24" version="1.1" xmlns="http://www.w3.org/2000/svg" xmlns:xlink="http://www.w3.org/1999/xlink">
    <!-- Generator: Sketch 47.1 (45422) - http://www.bohemiancoding.com/sketch -->
    <title>editor/attachment</title>
    <desc>Created with Sketch.</desc>
    <defs></defs>
    <g id="Desktop" stroke="none" stroke-width="1" fill="none" fill-rule="evenodd">
        <g id="editor/attachment" fill-rule="nonzero" fill="#42526E">
            <path d="M17.2221691,11.5574077 L12.1090466,16.6392224 C10.9388536,17.8022503 9.03857203,17.802728 7.87129294,16.6425962 C6.70445135,15.4828992 6.70647109,13.5918539 7.87252308,12.4329417 L13.338613,7.00032089 C14.0246425,6.318492 15.1246403,6.31639824 15.8107161,6.99827318 C16.4936105,7.67698621 16.4948225,8.77327424 15.8134894,9.45043544 L10.6874644,14.5450736 C10.4957296,14.7356344 10.1861678,14.7348652 9.98847246,14.5383803 C9.7905572,14.3416769 9.78972052,14.0345099 9.98847246,13.836975 L14.7521264,9.10248912 C15.0444479,8.81195753 15.0444479,8.34091275 14.7521264,8.05038115 C14.4598049,7.75984956 13.9858581,7.75984956 13.6935366,8.05038115 L8.9298827,12.784867 C8.14520088,13.5647442 8.14860368,14.813993 8.9298827,15.5904882 C9.71103942,16.3668619 10.9684882,16.3699864 11.7460542,15.5971816 L16.8720792,10.5025434 C18.1385766,9.24380086 18.1363232,7.20542452 16.8693059,5.94616522 C15.5976775,4.68232307 13.54979,4.68622105 12.2800233,5.94821292 L6.81393332,11.3808338 C5.06374086,13.1203097 5.06071493,15.9534434 6.81270319,17.6947042 C8.56474517,19.4360183 11.4129202,19.4353023 13.1676363,17.6913304 L18.2807589,12.6095157 C18.5730804,12.3189841 18.5730804,11.8479393 18.2807589,11.5574077 C17.9884374,11.2668761 17.5144906,11.2668761 17.2221691,11.5574077 L17.2221691,11.5574077 Z" id="attachment"></path>
        </g>
    </g>
</svg>