<?xml version="1.0" encoding="UTF-8"?>
<svg width="24px" height="24px" viewBox="0 0 24 24" version="1.1" xmlns="http://www.w3.org/2000/svg" xmlns:xlink="http://www.w3.org/1999/xlink">
    <!-- Generator: Sketch 49.2 (51160) - http://www.bohemiancoding.com/sketch -->
    <title>editor/cellbackground</title>
    <desc>Created with Sketch.</desc>
    <defs></defs>
    <g id="editor/cellbackground" stroke="none" stroke-width="1" fill="none" fill-rule="evenodd">
        <path d="M7.81801948,12.5606602 L12.0606602,16.8033009 L16.3033009,12.5606602 L12.0606602,8.31801948 L7.81801948,12.5606602 Z M6.40353367,13.9746015 C5.62263545,13.1937033 5.61710246,11.9331501 6.40353367,11.1467189 L10.6467189,6.90353367 C11.4276171,6.12263545 12.6881703,6.11710246 13.4746015,6.90353367 L17.7177867,11.1467189 C18.4986849,11.9276171 18.5042179,13.1881703 17.7177867,13.9746015 L13.4746015,18.2177867 C12.6937033,18.9986849 11.4331501,19.0042179 10.6467189,18.2177867 L6.40353367,13.9746015 Z M6.5,13 L17.5,13 L12.0606602,18.2175144 L6.5,13 Z M9.23223305,4.0753788 C9.62275734,3.68485451 10.2559223,3.68485451 10.6464466,4.0753788 L14.1819805,7.6109127 L12.767767,9.02512627 L9.23223305,5.48959236 C8.84170876,5.09906807 8.84170876,4.46590309 9.23223305,4.0753788 Z M18,16 C18,16 19.5,18 19.5,19.5 C19.5,20.5 18.5,21 18,21 C17.5,21 16.5,20.6 16.5,19.5 C16.5,18 18,16 18,16 Z" id="Combined-Shape" fill="#42526E" fill-rule="nonzero"></path>
    </g>
</svg>