<?xml version="1.0" encoding="UTF-8"?>
<svg width="24px" height="24px" viewBox="0 0 24 24" version="1.1" xmlns="http://www.w3.org/2000/svg" xmlns:xlink="http://www.w3.org/1999/xlink">
    <!-- Generator: Sketch 47.1 (45422) - http://www.bohemiancoding.com/sketch -->
    <title>editor/bullet-list</title>
    <desc>Created with Sketch.</desc>
    <defs></defs>
    <g id="Desktop" stroke="none" stroke-width="1" fill="none" fill-rule="evenodd">
        <g id="editor/bullet-list" fill="#42526E">
            <path d="M6,8 C6,7.44771525 6.44386482,7 7,7 C7.55228475,7 8,7.44386482 8,8 C8,8.55228475 7.55613518,9 7,9 C6.44771525,9 6,8.55613518 6,8 Z M11,7 L17,7 C17.5522847,7 18,7.44771525 18,8 L18,8 C18,8.55228475 17.5522847,9 17,9 L11,9 C10.4477153,9 10,8.55228475 10,8 L10,8 L10,8 C10,7.44771525 10.4477153,7 11,7 Z M6,12 C6,11.4477153 6.44386482,11 7,11 C7.55228475,11 8,11.4438648 8,12 C8,12.5522847 7.55613518,13 7,13 C6.44771525,13 6,12.5561352 6,12 Z M11,11 L17,11 C17.5522847,11 18,11.4477153 18,12 C18,12.5522847 17.5522847,13 17,13 L11,13 C10.4477153,13 10,12.5522847 10,12 C10,11.4477153 10.4477153,11 11,11 Z M6,16 C6,15.4477153 6.44386482,15 7,15 C7.55228475,15 8,15.4438648 8,16 C8,16.5522847 7.55613518,17 7,17 C6.44771525,17 6,16.5561352 6,16 Z M11,15 L17,15 C17.5522847,15 18,15.4477153 18,16 C18,16.5522847 17.5522847,17 17,17 L11,17 C10.4477153,17 10,16.5522847 10,16 C10,15.4477153 10.4477153,15 11,15 Z" id="bullet-list"></path>
        </g>
    </g>
</svg>