<?xml version="1.0" encoding="UTF-8" standalone="no"?>
<svg width="24px" height="24px" viewBox="0 0 24 24" version="1.1" xmlns="http://www.w3.org/2000/svg" xmlns:xlink="http://www.w3.org/1999/xlink">
    <!-- Generator: Sketch 45.1 (43504) - http://www.bohemiancoding.com/sketch -->
    <title>editor/close</title>
    <desc>Created with Sketch.</desc>
    <defs></defs>
    <g id="Original" stroke="none" stroke-width="1" fill="none" fill-rule="evenodd">
        <g id="editor/close" fill="#42526E">
            <path d="M15.1853531,7.3991668 L12.0007508,10.5847289 L8.8151475,7.3991668 C8.62192894,7.20695186 8.30056544,7.20494962 8.10334235,7.40217016 L7.40254966,8.10295377 C7.19631638,8.30918438 7.20332431,8.61953141 7.39854513,8.8147497 L10.5841485,11.9993107 L7.39854513,15.1848728 C7.2063277,15.3780888 7.20532657,15.6994482 7.40254966,15.8966687 L8.10334235,16.5974523 C8.3085745,16.8036829 8.61892554,16.7966751 8.8151475,16.6014568 L12.0007508,13.4158947 L15.1853531,16.6014568 C15.3775705,16.7936717 15.6999351,16.7946728 15.8971582,16.5974523 L16.5979509,15.8966687 C16.8031831,15.6914392 16.7971763,15.3810922 16.6009543,15.1848728 L13.415351,11.9993107 L16.6009543,8.8147497 C16.7931717,8.62253477 16.795174,8.3001743 16.5979509,8.10295377 L15.8971582,7.40217016 C15.7940416,7.30005597 15.6658966,7.25 15.5387528,7.25 C15.4106079,7.25 15.283464,7.30105709 15.1853531,7.3991668 Z" id="Clip-2"></path>
        </g>
    </g>
</svg>
