<?xml version="1.0" encoding="UTF-8" standalone="no"?>
<svg width="24px" height="24px" viewBox="0 0 24 24" version="1.1" xmlns="http://www.w3.org/2000/svg" xmlns:xlink="http://www.w3.org/1999/xlink">
    <!-- Generator: Sketch 45.1 (43504) - http://www.bohemiancoding.com/sketch -->
    <title>editor/date</title>
    <desc>Created with Sketch.</desc>
    <defs></defs>
    <g id="Original" stroke="none" stroke-width="1" fill="none" fill-rule="evenodd">
        <g id="editor/date" fill="#42526E">
            <path d="M6,8.50964952 C6,8.22817786 6.22900057,8 6.50034732,8 L17.4996527,8 C17.7759869,8 18,8.22765279 18,8.50964952 L18,17.4903505 C18,17.7718221 17.7709994,18 17.4996527,18 L6.50034732,18 C6.22401312,18 6,17.7723472 6,17.4903505 L6,8.50964952 Z M8,11.5046844 L8,12.4953156 C8,12.785965 8.22595492,13 8.50468445,13 L9.49531555,13 C9.78596497,13 10,12.7740451 10,12.4953156 L10,11.5046844 C10,11.214035 9.77404508,11 9.49531555,11 L8.50468445,11 C8.21403503,11 8,11.2259549 8,11.5046844 Z M11,11.5046844 L11,12.4953156 C11,12.785965 11.2259549,13 11.5046844,13 L12.4953156,13 C12.785965,13 13,12.7740451 13,12.4953156 L13,11.5046844 C13,11.214035 12.7740451,11 12.4953156,11 L11.5046844,11 C11.214035,11 11,11.2259549 11,11.5046844 Z M8,14.5046844 L8,15.4953156 C8,15.785965 8.22595492,16 8.50468445,16 L9.49531555,16 C9.78596497,16 10,15.7740451 10,15.4953156 L10,14.5046844 C10,14.214035 9.77404508,14 9.49531555,14 L8.50468445,14 C8.21403503,14 8,14.2259549 8,14.5046844 Z M7.5,8 L7.5,9 L10.5,9 L10.5,8 L7.5,8 Z M13.5,8 L13.5,9 L16.5,9 L16.5,8 L13.5,8 Z M14,6.50468445 C14,6.22595492 14.214035,6 14.5046844,6 L15.4953156,6 C15.7740451,6 16,6.21403503 16,6.50468445 L16,8 L14,8 L14,6.50468445 Z M8,6.50468445 C8,6.22595492 8.21403503,6 8.50468445,6 L9.49531555,6 C9.77404508,6 10,6.21403503 10,6.50468445 L10,8 L8,8 L8,6.50468445 Z" id="Shape"></path>
        </g>
    </g>
</svg>