<?xml version="1.0" encoding="UTF-8"?>
<svg width="24px" height="24px" viewBox="0 0 24 24" version="1.1" xmlns="http://www.w3.org/2000/svg" xmlns:xlink="http://www.w3.org/1999/xlink">
    <!-- Generator: Sketch 47.1 (45422) - http://www.bohemiancoding.com/sketch -->
    <title>editor/emoji</title>
    <desc>Created with Sketch.</desc>
    <defs></defs>
    <g id="Desktop" stroke="none" stroke-width="1" fill="none" fill-rule="evenodd">
        <g id="editor/emoji" fill="#42526E">
            <path d="M12,5 C15.866,5 19,8.134 19,12 C19,15.866 15.866,19 12,19 C8.134,19 5,15.866 5,12 C5,8.134 8.134,5 12,5 Z M12,17.5 C15.033,17.5 17.5,15.033 17.5,12 C17.5,8.967 15.033,6.5 12,6.5 C8.967,6.5 6.5,8.967 6.5,12 C6.5,15.033 8.967,17.5 12,17.5 Z M10.5,11.5 C9.948,11.5 9.5,11.052 9.5,10.5 C9.5,9.948 9.948,9.5 10.5,9.5 C11.052,9.5 11.5,9.948 11.5,10.5 C11.5,11.052 11.052,11.5 10.5,11.5 Z M13.5,11.5 C12.948,11.5 12.5,11.052 12.5,10.5 C12.5,9.948 12.948,9.5 13.5,9.5 C14.052,9.5 14.5,9.948 14.5,10.5 C14.5,11.052 14.052,11.5 13.5,11.5 Z M13.77,13.083 C14,12.826 14.395,12.804 14.653,13.034 C14.91,13.265 14.932,13.66 14.702,13.917 C14.014,14.685 13.03,15.125 12,15.125 C10.972,15.125 9.988,14.686 9.302,13.921 C9.071,13.664 9.093,13.269 9.35,13.038 C9.606,12.808 10.001,12.828 10.232,13.086 C11.133,14.089 12.871,14.089 13.77,13.083 Z" id="emoji"></path>
        </g>
    </g>
</svg>