<svg width="24" height="24" viewBox="0 0 24 24" fill="none" xmlns="http://www.w3.org/2000/svg">
<path fill-rule="evenodd" clip-rule="evenodd" d="M6 18H9C9.26522 18 9.51957 18.1054 9.70711 18.2929C9.89464 18.4804 10 18.7348 10 19C10 19.2652 9.89464 19.5196 9.70711 19.7071C9.51957 19.8946 9.26522 20 9 20H6C5.46957 20 4.96086 19.7893 4.58579 19.4142C4.21071 19.0391 4 18.5304 4 18V15C4 14.7348 4.10536 14.4804 4.29289 14.2929C4.48043 14.1054 4.73478 14 5 14C5.26522 14 5.51957 14.1054 5.70711 14.2929C5.89464 14.4804 6 14.7348 6 15V18ZM18 20H15C14.7348 20 14.4804 19.8946 14.2929 19.7071C14.1054 19.5196 14 19.2652 14 19C14 18.7348 14.1054 18.4804 14.2929 18.2929C14.4804 18.1054 14.7348 18 15 18H18V15C18 14.7348 18.1054 14.4804 18.2929 14.2929C18.4804 14.1054 18.7348 14 19 14C19.2652 14 19.5196 14.1054 19.7071 14.2929C19.8946 14.4804 20 14.7348 20 15V18C20 18.5304 19.7893 19.0391 19.4142 19.4142C19.0391 19.7893 18.5304 20 18 20ZM6 4H9C9.26522 4 9.51957 4.10536 9.70711 4.29289C9.89464 4.48043 10 4.73478 10 5C10 5.26522 9.89464 5.51957 9.70711 5.70711C9.51957 5.89464 9.26522 6 9 6H6V9C6 9.26522 5.89464 9.51957 5.70711 9.70711C5.51957 9.89464 5.26522 10 5 10C4.73478 10 4.48043 9.89464 4.29289 9.70711C4.10536 9.51957 4 9.26522 4 9V6C4 5.46957 4.21071 4.96086 4.58579 4.58579C4.96086 4.21071 5.46957 4 6 4ZM18 6H15C14.7348 6 14.4804 5.89464 14.2929 5.70711C14.1054 5.51957 14 5.26522 14 5C14 4.73478 14.1054 4.48043 14.2929 4.29289C14.4804 4.10536 14.7348 4 15 4H18C18.5304 4 19.0391 4.21071 19.4142 4.58579C19.7893 4.96086 20 5.46957 20 6V9C20 9.26522 19.8946 9.51957 19.7071 9.70711C19.5196 9.89464 19.2652 10 19 10C18.7348 10 18.4804 9.89464 18.2929 9.70711C18.1054 9.51957 18 9.26522 18 9V6Z" fill="#42526E"/>
<path d="M10.5498 12.0612L8.67737 12.3977C8.54461 12.4001 8.41271 12.3759 8.28938 12.3267C8.16606 12.2775 8.05376 12.2042 7.95906 12.1111C7.86435 12.018 7.78913 11.907 7.73779 11.7846C7.68644 11.6621 7.65999 11.5307 7.65999 11.3979C7.65999 11.2651 7.68644 11.1337 7.73779 11.0112C7.78913 10.8887 7.86435 10.7777 7.95906 10.6847C8.05376 10.5916 8.16606 10.5183 8.28939 10.4691C8.41271 10.4199 8.54461 10.3957 8.67737 10.398L12.377 10.398C12.693 10.3181 13.0628 10.4193 13.3344 10.6908C13.6059 10.9623 13.707 11.3321 13.6271 11.6482L13.6271 15.3478C13.6226 15.61 13.5152 15.8599 13.3282 16.0436C13.1412 16.2274 12.8895 16.3304 12.6273 16.3304C12.3651 16.3304 12.1133 16.2274 11.9263 16.0436C11.7393 15.8599 11.632 15.61 11.6274 15.3478L11.964 13.4754L9.36185 16.0775C9.01749 16.4219 8.4214 16.3844 8.03108 15.9941C7.64075 15.6038 7.60328 15.0077 7.94764 14.6633L10.5498 12.0612Z" fill="#42526E"/>
</svg>
