<?xml version="1.0" encoding="UTF-8" standalone="no"?>
<svg width="24px" height="24px" viewBox="0 0 24 24" version="1.1" xmlns="http://www.w3.org/2000/svg" xmlns:xlink="http://www.w3.org/1999/xlink">
    <!-- Generator: Sketch 45.1 (43504) - http://www.bohemiancoding.com/sketch -->
    <title>editor/image-border</title>
    <desc>Created with Sketch.</desc>
    <defs></defs>
    <g id="Original" stroke="none" stroke-width="1" fill="none" fill-rule="evenodd">
        <g id="editor/image-border" fill="#42526E">
            <path d="M17,9 L18,9 L18,12 L17,12 L17,9 Z M17,13 L18,13 L18,15 L17,15 L17,13 Z M6,9 L7,9 L7,11 L6,11 L6,9 Z M6,12 L7,12 L7,15 L6,15 L6,12 Z M9,17 L11,17 L11,18 L9,18 L9,17 Z M12,17 L15,17 L15,18 L12,18 L12,17 Z M9,6 L12,6 L12,7 L9,7 L9,6 Z M13,6 L15,6 L15,7 L13,7 L13,6 Z M6,6.50468445 C6,6.22595492 6.21403503,6 6.50468445,6 L8,6 L8,7 L7,7 L7,8 L6,8 L6,6.50468445 Z M18,6.50468445 L18,8 L17,8 L17,7 L16,7 L16,6 L17.4953156,6 C17.785965,6 18,6.22595492 18,6.50468445 Z M6,17.4953156 L6,16 L7,16 L7,17 L8,17 L8,18 L6.50468445,18 C6.21403503,18 6,17.7740451 6,17.4953156 Z M18,17.4953156 C18,17.7740451 17.785965,18 17.4953156,18 L16,18 L16,17 L17,17 L17,16 L18,16 L18,17.4953156 Z" id="Combined-Shape"></path>
        </g>
    </g>
</svg>