<?xml version="1.0" encoding="UTF-8" standalone="no"?>
<svg width="24px" height="24px" viewBox="0 0 24 24" version="1.1" xmlns="http://www.w3.org/2000/svg" xmlns:xlink="http://www.w3.org/1999/xlink">
    <!-- Generator: Sketch 45.1 (43504) - http://www.bohemiancoding.com/sketch -->
    <title>editor/image-resize</title>
    <desc>Created with Sketch.</desc>
    <defs></defs>
    <g id="Original" stroke="none" stroke-width="1" fill="none" fill-rule="evenodd">
        <g id="editor/image-resize" fill="#42526E">
            <path d="M15,9.70710678 L15,11 L16,11 L16,8 L13,8 L13,9 L14.2928932,9 L9,14.2928932 L9,13 L8,13 L8,16 L11,16 L11,15 L9.70710678,15 L15,9.70710678 Z M6,6.50034732 C6,6.22401312 6.22900057,6 6.50034732,6 L17.4996527,6 C17.7759869,6 18,6.22900057 18,6.50034732 L18,17.4996527 C18,17.7759869 17.7709994,18 17.4996527,18 L6.50034732,18 C6.22401312,18 6,17.7709994 6,17.4996527 L6,6.50034732 Z" id="Combined-Shape"></path>
        </g>
    </g>
</svg>