<?xml version="1.0" encoding="UTF-8" standalone="no"?>
<svg width="24px" height="24px" viewBox="0 0 24 24" version="1.1" xmlns="http://www.w3.org/2000/svg" xmlns:xlink="http://www.w3.org/1999/xlink">
    <!-- Generator: Sketch 45.1 (43504) - http://www.bohemiancoding.com/sketch -->
    <title>editor/indent</title>
    <desc>Created with Sketch.</desc>
    <defs></defs>
    <g id="Original" stroke="none" stroke-width="1" fill="none" fill-rule="evenodd">
        <g id="editor/indent" fill="#42526E">
            <path d="M9,9.00004182 C8.99688039,9.00001396 8.99375741,9 8.9906311,9 L6.49047852,9 C6.21505737,9 6,9.22595492 6,9.50468445 L6,10.4953156 C6,10.785965 6.21959471,11 6.49047852,11 L8.9906311,11 C8.99375783,11 8.99688081,10.9999863 9,10.9999591 L9,13 L12,10 L9,7 L9,9.00003785 Z M13,7.50468445 C13,7.22595492 13.2278805,7 13.4910052,7 L18.5089948,7 C18.7801695,7 19,7.21403503 19,7.50468445 L19,8.49531555 C19,8.77404508 18.7721195,9 18.5089948,9 L13.4910052,9 C13.2198305,9 13,8.78596497 13,8.49531555 L13,7.50468445 Z M13,11.5046844 C13,11.2259549 13.2278805,11 13.4910052,11 L18.5089948,11 C18.7801695,11 19,11.214035 19,11.5046844 L19,12.4953156 C19,12.7740451 18.7721195,13 18.5089948,13 L13.4910052,13 C13.2198305,13 13,12.785965 13,12.4953156 L13,11.5046844 Z M7,15.5046844 C7,15.2259549 7.22900057,15 7.50034732,15 L18.4996527,15 C18.7759869,15 19,15.214035 19,15.5046844 L19,16.4953156 C19,16.7740451 18.7709994,17 18.4996527,17 L7.50034732,17 C7.22401312,17 7,16.785965 7,16.4953156 L7,15.5046844 Z" id="Shape"></path>
        </g>
    </g>
</svg>