<?xml version="1.0" encoding="UTF-8"?>
<svg width="24px" height="24px" viewBox="0 0 24 24" version="1.1" xmlns="http://www.w3.org/2000/svg" xmlns:xlink="http://www.w3.org/1999/xlink">
    <!-- Generator: Sketch 47.1 (45422) - http://www.bohemiancoding.com/sketch -->
    <title>editor/italic</title>
    <desc>Created with Sketch.</desc>
    <defs></defs>
    <g id="Desktop" stroke="none" stroke-width="1" fill="none" fill-rule="evenodd">
        <g id="editor/italic" fill="#42526E">
            <path d="M10,6 L16,6 C16.5522847,6 17,6.44771525 17,7 L17,7 C17,7.55228475 16.5522847,8 16,8 L10,8 C9.44771525,8 9,7.55228475 9,7 L9,7 L9,7 C9,6.44771525 9.44771525,6 10,6 Z M8,16 L14,16 C14.5522847,16 15,16.4477153 15,17 C15,17.5522847 14.5522847,18 14,18 L8,18 C7.44771525,18 7,17.5522847 7,17 C7,16.4477153 7.44771525,16 8,16 L8,16 Z M12,8 L14,8 L12,16 L10,16 L12,8 Z" id="italic"></path>
        </g>
    </g>
</svg>