<?xml version="1.0" encoding="UTF-8"?>
<svg width="24px" height="24px" viewBox="0 0 24 24" version="1.1" xmlns="http://www.w3.org/2000/svg" xmlns:xlink="http://www.w3.org/1999/xlink">
    <!-- Generator: Sketch 51 (57462) - http://www.bohemiancoding.com/sketch -->
    <title>layout-two-even</title>
    <desc>Created with Sketch.</desc>
    <defs></defs>
    <g id="layout-two-even" stroke="none" stroke-width="1" fill="none" fill-rule="evenodd">
        <path d="M5,5 L10,5 C10.5522847,5 11,5.44771525 11,6 L11,18 C11,18.5522847 10.5522847,19 10,19 L5,19 C4.44771525,19 4,18.5522847 4,18 L4,6 C4,5.44771525 4.44771525,5 5,5 Z M14,5 L19,5 C19.5522847,5 20,5.44771525 20,6 L20,18 C20,18.5522847 19.5522847,19 19,19 L14,19 C13.4477153,19 13,18.5522847 13,18 L13,6 C13,5.44771525 13.4477153,5 14,5 Z" id="Icon" fill="#42526E"></path>
    </g>
</svg>