<?xml version="1.0" encoding="UTF-8"?>
<svg width="24px" height="24px" viewBox="0 0 24 24" version="1.1" xmlns="http://www.w3.org/2000/svg" xmlns:xlink="http://www.w3.org/1999/xlink">
    <!-- Generator: Sketch 51 (57462) - http://www.bohemiancoding.com/sketch -->
    <title>layout-left-sidebar</title>
    <desc>Created with Sketch.</desc>
    <defs></defs>
    <g id="layout-left-sidebar" stroke="none" stroke-width="1" fill="none" fill-rule="evenodd">
        <path d="M5,5 L6,5 C6.55228475,5 7,5.44771525 7,6 L7,18 C7,18.5522847 6.55228475,19 6,19 L5,19 C4.44771525,19 4,18.5522847 4,18 L4,6 C4,5.44771525 4.44771525,5 5,5 Z M10,5 L19,5 C19.5522847,5 20,5.44771525 20,6 L20,18 C20,18.5522847 19.5522847,19 19,19 L10,19 C9.44771525,19 9,18.5522847 9,18 L9,6 C9,5.44771525 9.44771525,5 10,5 Z" id="Icon" fill="#42526E"></path>
    </g>
</svg>