<?xml version="1.0" encoding="UTF-8"?>
<svg width="24px" height="24px" viewBox="0 0 24 24" version="1.1" xmlns="http://www.w3.org/2000/svg" xmlns:xlink="http://www.w3.org/1999/xlink">
    <!-- Generator: Sketch 51 (57462) - http://www.bohemiancoding.com/sketch -->
    <title>layout-three-sidebar</title>
    <desc>Created with Sketch.</desc>
    <defs></defs>
    <g id="layout-three-sidebar" stroke="none" stroke-width="1" fill="none" fill-rule="evenodd">
        <path d="M5,5 C5.55228475,5 6,5.44771525 6,6 L6,18 C6,18.5522847 5.55228475,19 5,19 C4.44771525,19 4,18.5522847 4,18 L4,6 C4,5.44771525 4.44771525,5 5,5 Z M9,5 L15,5 C15.5522847,5 16,5.44771525 16,6 L16,18 C16,18.5522847 15.5522847,19 15,19 L9,19 C8.44771525,19 8,18.5522847 8,18 L8,6 C8,5.44771525 8.44771525,5 9,5 Z M19,5 C19.5522847,5 20,5.44771525 20,6 L20,18 C20,18.5522847 19.5522847,19 19,19 C18.4477153,19 18,18.5522847 18,18 L18,6 C18,5.44771525 18.4477153,5 19,5 Z" id="Icon" fill="#42526E"></path>
    </g>
</svg>