<?xml version="1.0" encoding="UTF-8"?>
<svg width="24px" height="24px" viewBox="0 0 24 24" version="1.1" xmlns="http://www.w3.org/2000/svg" xmlns:xlink="http://www.w3.org/1999/xlink">
    <!-- Generator: Sketch 47.1 (45422) - http://www.bohemiancoding.com/sketch -->
    <title>editor/media-wide</title>
    <desc>Created with Sketch.</desc>
    <defs></defs>
    <g id="Desktop" stroke="none" stroke-width="1" fill="none" fill-rule="evenodd">
        <g id="editor/media-wide" fill="#42526E">
            <path d="M7,5 L17,5 C17.5522847,5 18,5.44771525 18,6 L18,6 C18,6.55228475 17.5522847,7 17,7 L7,7 C6.44771525,7 6,6.55228475 6,6 L6,6 L6,6 C6,5.44771525 6.44771525,5 7,5 Z M7,17 L17,17 C17.5522847,17 18,17.4477153 18,18 L18,18 L18,18 C18,18.5522847 17.5522847,19 17,19 L7,19 C6.44771525,19 6,18.5522847 6,18 L6,18 C6,17.4477153 6.44771525,17 7,17 Z M4,9 L20,9 C20.5522847,9 21,9.44771525 21,10 L21,14 C21,14.5522847 20.5522847,15 20,15 L4,15 C3.44771525,15 3,14.5522847 3,14 L3,10 C3,9.44771525 3.44771525,9 4,9 L4,9 Z" id="icon"></path>
        </g>
    </g>
</svg>