<?xml version="1.0" encoding="UTF-8"?>
<svg width="24px" height="24px" viewBox="0 0 24 24" version="1.1" xmlns="http://www.w3.org/2000/svg" xmlns:xlink="http://www.w3.org/1999/xlink">
    <!-- Generator: Sketch 47.1 (45422) - http://www.bohemiancoding.com/sketch -->
    <title>editor/media-full-width</title>
    <desc>Created with Sketch.</desc>
    <defs></defs>
    <g id="Desktop" stroke="none" stroke-width="1" fill="none" fill-rule="evenodd">
        <g id="editor/media-full-width" fill="#42526E">
            <path d="M7,17 L17,17 C17.5522847,17 18,17.4477153 18,18 L18,18 L18,18 C18,18.5522847 17.5522847,19 17,19 L7,19 C6.44771525,19 6,18.5522847 6,18 L6,18 C6,17.4477153 6.44771525,17 7,17 Z M4,5 L20,5 C20.5522847,5 21,5.44771525 21,6 L21,14 C21,14.5522847 20.5522847,15 20,15 L4,15 L4,15 C3.44771525,15 3,14.5522847 3,14 L3,6 L3,6 C3,5.44771525 3.44771525,5 4,5 L4,5 Z" id="icon"></path>
        </g>
    </g>
</svg>