<?xml version="1.0" encoding="UTF-8"?>
<svg width="24px" height="24px" viewBox="0 0 24 24" version="1.1" xmlns="http://www.w3.org/2000/svg" xmlns:xlink="http://www.w3.org/1999/xlink">
    <!-- Generator: Sketch 47.1 (45422) - http://www.bohemiancoding.com/sketch -->
    <title>editor/mention</title>
    <desc>Created with Sketch.</desc>
    <defs></defs>
    <g id="Desktop" stroke="none" stroke-width="1" fill="none" fill-rule="evenodd">
        <g id="editor/mention" fill="#42526E">
            <path d="M12.0615,13.9302 C11.1575,13.9302 10.6105,13.1962 10.6105,11.9852 C10.6105,10.7592 11.1495,10.0332 12.0775,10.0332 C13.0055,10.0332 13.4995,10.7972 13.4995,12.0002 C13.4995,13.1952 12.9975,13.9302 12.0615,13.9302 M11.9995,5.0002 C8.0745,5.0002 4.9995,8.0752 4.9995,12.0002 C4.9995,16.5962 8.5215,19.0002 11.9995,19.0002 C12.8735,19.0002 13.6125,18.9092 14.2585,18.7212 C14.6555,18.6052 14.8845,18.1882 14.7685,17.7902 C14.6525,17.3932 14.2395,17.1662 13.8385,17.2802 C13.3315,17.4282 12.7295,17.5002 11.9995,17.5002 C9.3515,17.5002 6.4995,15.7792 6.4995,12.0002 C6.4995,8.9162 8.9155,6.5002 11.9995,6.5002 C15.2385,6.5002 17.4995,8.4532 17.4995,11.2502 C17.4995,13.2962 16.4555,14.2502 15.7505,14.2502 C15.7435,14.2502 14.9995,14.1412 14.9995,13.5002 L14.9995,9.5002 C14.9995,9.0862 14.6645,8.7502 14.2495,8.7502 C13.8355,8.7502 13.4995,9.0862 13.4995,9.5002 L13.4995,9.6882 C13.1535,9.1032 12.4835,8.7362 11.7045,8.7362 C10.1025,8.7362 8.9995,10.0402 8.9995,11.9382 C8.9995,13.9222 10.1025,15.2502 11.7525,15.2502 C12.6175,15.2502 13.2625,14.8632 13.6175,14.1742 C13.9515,15.1902 14.9865,15.7502 15.7495,15.7502 C17.3475,15.7502 18.9995,14.0672 18.9995,11.2502 C18.9995,7.6282 16.0565,5.0002 11.9995,5.0002" id="mention"></path>
        </g>
    </g>
</svg>