<?xml version="1.0" encoding="UTF-8"?>
<svg width="24px" height="24px" viewBox="0 0 24 24" version="1.1" xmlns="http://www.w3.org/2000/svg" xmlns:xlink="http://www.w3.org/1999/xlink">
    <!-- Generator: Sketch 47.1 (45422) - http://www.bohemiancoding.com/sketch -->
    <title>editor/more</title>
    <desc>Created with Sketch.</desc>
    <defs></defs>
    <g id="Desktop" stroke="none" stroke-width="1" fill="none" fill-rule="evenodd">
        <g id="editor/more" fill="#42526E">
            <path d="M12,14 C11.1715729,14 10.5,13.3284271 10.5,12.5 C10.5,11.6715729 11.1715729,11 12,11 C12.8284271,11 13.5,11.6715729 13.5,12.5 C13.5,13.3284271 12.8284271,14 12,14 Z M7.5,14 C6.67157288,14 6,13.3284271 6,12.5 C6,11.6715729 6.67157288,11 7.5,11 C8.32842712,11 9,11.6715729 9,12.5 C9,13.3284271 8.32842712,14 7.5,14 Z M16.5,14 C15.6715729,14 15,13.3284271 15,12.5 C15,11.6715729 15.6715729,11 16.5,11 C17.3284271,11 18,11.6715729 18,12.5 C18,13.3284271 17.3284271,14 16.5,14 Z" id="more"></path>
        </g>
    </g>
</svg>