<?xml version="1.0" encoding="UTF-8" standalone="no"?>
<svg width="24px" height="24px" viewBox="0 0 24 24" version="1.1" xmlns="http://www.w3.org/2000/svg" xmlns:xlink="http://www.w3.org/1999/xlink">
    <!-- Generator: Sketch 45.1 (43504) - http://www.bohemiancoding.com/sketch -->
    <title>editor/note</title>
    <desc>Created with Sketch.</desc>
    <defs></defs>
    <g id="Original" stroke="none" stroke-width="1" fill="none" fill-rule="evenodd">
        <g id="editor/note" fill="#42526E">
            <path d="M8,4 L16,4 C17.1045695,4 18,4.8954305 18,6 L18,18 C18,19.1045695 17.1045695,20 16,20 L8,20 C6.8954305,20 6,19.1045695 6,18 L6,6 C6,4.8954305 6.8954305,4 8,4 Z M9.5,8 C9.22385763,8 9,8.22385763 9,8.5 L9,9.5 C9,9.77614237 9.22385763,10 9.5,10 L14.5,10 C14.7761424,10 15,9.77614237 15,9.5 L15,8.5 C15,8.22385763 14.7761424,8 14.5,8 L9.5,8 Z M9.5,12 C9.22385763,12 9,12.2238576 9,12.5 L9,13.5 C9,13.7761424 9.22385763,14 9.5,14 L12.5,14 C12.7761424,14 13,13.7761424 13,13.5 L13,12.5 C13,12.2238576 12.7761424,12 12.5,12 L9.5,12 Z" id="Shape"></path>
        </g>
    </g>
</svg>