<?xml version="1.0" encoding="UTF-8"?>
<svg width="24px" height="24px" viewBox="0 0 24 24" version="1.1" xmlns="http://www.w3.org/2000/svg" xmlns:xlink="http://www.w3.org/1999/xlink">
    <!-- Generator: Sketch 47.1 (45422) - http://www.bohemiancoding.com/sketch -->
    <title>editor/quote</title>
    <desc>Created with Sketch.</desc>
    <defs></defs>
    <g id="Desktop" stroke="none" stroke-width="1" fill="none" fill-rule="evenodd">
        <g id="editor/quote" fill="#42526E">
            <path d="M15.6981413,17 C16.9691618,17 18.0001884,15.9824987 18.0001884,14.7271005 C18.0001884,13.47246 16.9691618,12.4542011 15.6981413,12.4542011 C13.3968836,12.4542011 14.9307923,8.06068642 18.0001884,8.06068642 L18.0001884,7 C12.5221689,6.99924237 10.3756441,17 15.6981413,17 L15.6981413,17 Z M11.3679875,14.7271005 C11.3679875,13.47246 10.3369609,12.4542011 9.06672979,12.4542011 C6.76468265,12.4542011 8.29859129,8.06068642 11.3679875,8.06068642 L11.3679875,7 C5.89075734,6.99924237 3.74423259,17 9.06672979,17 C10.3369609,17 11.3679875,15.9824987 11.3679875,14.7271005 Z" id="Combined-Shape"></path>
        </g>
    </g>
</svg>