<svg width="24" height="24" viewBox="0 0 24 24" fill="none" xmlns="http://www.w3.org/2000/svg">
<path fill-rule="evenodd" clip-rule="evenodd" d="M5.84238 8.67075C5.29444 9.68427 5 10.827 5 12C5 13.8565 5.7375 15.637 7.05025 16.9497C8.36301 18.2625 10.1435 19 12 19C12.9193 19 13.8295 18.8189 14.6788 18.4672C14.9012 18.375 15.1183 18.2717 15.3292 18.1576L14.2087 17.037C13.5324 17.3347 12.7851 17.5 12 17.5C8.967 17.5 6.5 15.033 6.5 12C6.50084 11.2327 6.66182 10.4821 6.9644 9.79277L5.84238 8.67075ZM17.0371 14.2086C17.3347 13.5323 17.5 12.7851 17.5 12C17.5 8.967 15.033 6.5 12 6.5C11.2327 6.50084 10.4821 6.6618 9.79285 6.96437L8.67083 5.84234C9.68433 5.29442 10.827 5 12 5C12.9193 5 13.8295 5.18106 14.6788 5.53284C15.5281 5.88463 16.2997 6.40024 16.9497 7.05025C17.5998 7.70026 18.1154 8.47194 18.4672 9.32122C18.8189 10.1705 19 11.0807 19 12C19 12.9193 18.8189 13.8295 18.4672 14.6788C18.375 14.9012 18.2717 15.1182 18.1577 15.3292L17.0371 14.2086Z" fill="#42526E"/>
<rect x="4.31885" y="5.55615" width="1.75" height="19.9758" rx="0.875" transform="rotate(-45 4.31885 5.55615)" fill="#42526E"/>
</svg>
