<?xml version="1.0" encoding="UTF-8"?>
<svg width="24px" height="24px" viewBox="0 0 24 24" version="1.1" xmlns="http://www.w3.org/2000/svg" xmlns:xlink="http://www.w3.org/1999/xlink">
    <!-- Generator: Sketch 47.1 (45422) - http://www.bohemiancoding.com/sketch -->
    <title>editor/remove</title>
    <desc>Created with Sketch.</desc>
    <defs></defs>
    <g id="Desktop" stroke="none" stroke-width="1" fill="none" fill-rule="evenodd">
        <g id="editor/remove" fill="#42526E">
            <path d="M7,7 L17,7 C17.5522847,7 18,7.44771525 18,8 L18,8 C18,8.55228475 17.5522847,9 17,9 L7,9 C6.44771525,9 6,8.55228475 6,8 C6,7.44771525 6.44771525,7 7,7 L7,7 Z M9.78077641,18 C9.32190876,18 8.92192566,17.6877026 8.81063391,17.2425356 L7.15531695,10.6212678 C7.14540188,10.5816075 7.1403882,10.5408809 7.1403882,10.5 C7.1403882,10.2238576 7.36424583,10 7.6403882,10 L16.3596118,10 C16.4004927,10 16.4412193,10.0050137 16.4808796,10.0149287 C16.7487771,10.0819031 16.9116574,10.3533704 16.844683,10.6212678 L16.844683,10.6212678 L15.1893661,17.2425356 C15.0780743,17.6877026 14.6780912,18 14.2192236,18 L9.78077641,18 Z M11,6 L13,6 C13.5522847,6 14,6.44771525 14,7 L14,7 L10,7 L10,7 C10,6.44771525 10.4477153,6 11,6 Z" id="remove"></path>
        </g>
    </g>
</svg>