<?xml version="1.0" encoding="UTF-8"?>
<svg width="24px" height="24px" viewBox="0 0 24 24" version="1.1" xmlns="http://www.w3.org/2000/svg" xmlns:xlink="http://www.w3.org/1999/xlink">
    <!-- Generator: Sketch 47.1 (45422) - http://www.bohemiancoding.com/sketch -->
    <title>editor/strikethrough</title>
    <desc>Created with Sketch.</desc>
    <defs></defs>
    <g id="Desktop" stroke="none" stroke-width="1" fill="none" fill-rule="evenodd">
        <g id="editor/strikethrough" fill="#42526E">
            <path d="M8.58014353,11 L6,11 L6,11 C5.44771525,11 5,11.4477153 5,12 C5,12.5522847 5.44771525,13 6,13 L12.3269344,13 C13.6215222,13.340652 14.174,13.821827 14.174,14.642 C14.174,15.6 13.302,16.29 12.099,16.29 C11.091,16.29 10.32,15.892 9.972,15.234 C9.782,14.873 9.45,14.61 9.042,14.61 L8.882,14.61 C8.398,14.61 8.014,15.07 8.151,15.535 C8.602,17.068 10.013,18 11.986,18 C14.464,18 16,16.614 16,14.388 C16,13.85614 15.9189005,13.396627 15.7472688,13 L18,13 C18.5522847,13 19,12.5522847 19,12 C19,11.4477153 18.5522847,11 18,11 L12.4441556,11 L11.88,10.855 C10.612,10.531 10.096,10.08 10.096,9.311 C10.096,8.336 10.874,7.703 12.049,7.703 C12.92,7.703 13.593,8.086 13.909,8.73 C14.083,9.086 14.408,9.342 14.803,9.342 L14.948,9.342 C15.434,9.342 15.823,8.879 15.677,8.415 C15.221,6.958 13.846,6 12.057,6 C9.77,6 8.255,7.378 8.255,9.453 C8.255,10.0498446 8.36173396,10.5638784 8.58014353,11 Z" id="strikethrough"></path>
        </g>
    </g>
</svg>