<?xml version="1.0" encoding="UTF-8"?>
<svg width="24px" height="24px" viewBox="0 0 24 24" version="1.1" xmlns="http://www.w3.org/2000/svg" xmlns:xlink="http://www.w3.org/1999/xlink">
    <!-- Generator: Sketch 47.1 (45422) - http://www.bohemiancoding.com/sketch -->
    <title>editor/task</title>
    <desc>Created with Sketch.</desc>
    <defs></defs>
    <g id="Desktop" stroke="none" stroke-width="1" fill="none" fill-rule="evenodd">
        <g id="editor/task" fill="#42526E">
            <path d="M7.5,6 L16.5,6 C17.3284271,6 18,6.67157288 18,7.5 L18,16.5 C18,17.3284271 17.3284271,18 16.5,18 L7.5,18 C6.67157288,18 6,17.3284271 6,16.5 L6,7.5 L6,7.5 C6,6.67157288 6.67157288,6 7.5,6 L7.5,6 Z M10.5716843,14.8376406 L10.7147805,14.9923569 L10.7147805,14.9923569 C10.9022812,15.1950836 11.2186229,15.2074267 11.4213496,15.019926 C11.4442937,14.9987052 11.4651976,14.9753799 11.4837868,14.9502564 L11.6132634,14.775268 L15.346583,9.72966324 C15.5880887,9.40326664 15.539144,8.92699255 15.2372617,8.66587528 C14.9353795,8.404758 14.4948764,8.45767735 14.2533706,8.78407394 L11.0096872,13.1705427 L9.69497035,11.7490643 C9.42160435,11.4534996 8.9783905,11.4534996 8.7050245,11.7490643 C8.4316585,12.0446289 8.4316585,12.523834 8.7050245,12.8193987 L10.5716843,14.8376406 Z" id="task"></path>
        </g>
    </g>
</svg>