<?xml version="1.0" encoding="UTF-8"?>
<svg width="24px" height="24px" viewBox="0 0 24 24" version="1.1" xmlns="http://www.w3.org/2000/svg" xmlns:xlink="http://www.w3.org/1999/xlink">
    <!-- Generator: Sketch 47.1 (45422) - http://www.bohemiancoding.com/sketch -->
    <title>editor/text-style</title>
    <desc>Created with Sketch.</desc>
    <defs></defs>
    <g id="Desktop" stroke="none" stroke-width="1" fill="none" fill-rule="evenodd">
        <g id="editor/text-style" fill="#42526E">
            <path d="M6.26021083,6.67841521 L3.02252691,16.2115174 L3.02252691,16.2115174 C2.93372372,16.4729913 3.073701,16.756947 3.3351749,16.8457502 C3.38695916,16.8633375 3.441278,16.8723098 3.4959673,16.8723098 L4.52803706,16.8723098 L4.52803706,16.8723098 C4.85732025,16.8723098 5.14809088,16.6575301 5.24489483,16.3427978 L5.89322564,14.2349228 L9.6297569,14.2349228 L10.2769866,16.3424854 L10.2769866,16.3424854 C10.3736889,16.6573753 10.6645365,16.8723098 10.9939404,16.8723098 L12.1071237,16.8723098 L12.1071237,16.8723098 C12.3832661,16.8723098 12.6071237,16.6484522 12.6071237,16.3723098 C12.6071237,16.3175335 12.5981228,16.2631295 12.5804807,16.211272 L9.3371995,6.67792432 L9.3371995,6.67792432 C9.19929947,6.272579 8.81864588,6 8.39048557,6 L7.20709161,6 L7.20709161,6 C6.77874066,6 6.39796198,6.27281792 6.26021083,6.67841521 Z M7.73570908,8.07930514 L7.78727346,8.07930514 L9.15058544,12.5323872 L6.3723971,12.5323872 L7.73570908,8.07930514 Z M18.8486265,10.1217049 L18.8486265,9.79465298 L18.8486265,9.79465298 C18.8486265,9.24236823 19.2963418,8.79465298 19.8486265,8.79465298 L20,8.79465298 L20,8.79465298 C20.5522847,8.79465298 21,9.24236823 21,9.79465298 L21,15.8726956 C21,16.4249804 20.5522847,16.8726956 20,16.8726956 L19.8486265,16.8726956 C19.2963418,16.8726956 18.8486265,16.4249804 18.8486265,15.8726956 L18.8486265,15.5610745 L18.7605834,15.5610745 C18.3694203,16.4354886 17.5292372,17 16.3431703,17 C14.3684884,17 13.122049,15.3874776 13.122049,12.8182435 C13.122049,10.2721555 14.3760349,8.66734858 16.3431703,8.66734858 C17.5154018,8.66734858 18.3694203,9.26272167 18.7605834,10.1217049 L18.8486265,10.1217049 Z M18.8041925,12.8336743 C18.8041925,11.3638872 18.1187635,10.4303216 17.0497458,10.4303216 C15.9819858,10.4303216 15.3254832,11.3497422 15.3254832,12.8336743 C15.3254832,14.3253218 15.9819858,15.2293116 17.0497458,15.2293116 C18.1263095,15.2293116 18.8041925,14.3176064 18.8041925,12.8336743 Z" id="text-style"></path>
        </g>
    </g>
</svg>