<svg width="16" height="16" fill="none" viewBox="0 0 16 16"><mask id="a" width="16" height="16" x="0" y="0" maskUnits="userSpaceOnUse" style="mask-type:alpha"><path fill="currentcolor" fill-rule="evenodd" d="M16 0H0v16h16v-1.067L2.598 1.53 3.658.47 16 12.812z" clip-rule="evenodd"/></mask><g mask="url(#a)"><path fill="currentcolor" d="m3.017 6.84.182.728a.75.75 0 0 0 .565-.667zm9.908-.456-.739.129a.75.75 0 0 0 .526.59zM12 12H3.75v1.5H12zm-8.25 0A2.25 2.25 0 0 1 1.5 9.75H0a3.75 3.75 0 0 0 3.75 3.75zM1.5 9.75a2.25 2.25 0 0 1 1.7-2.182l-.366-1.455A3.75 3.75 0 0 0 0 9.75zM3.764 6.9A4.25 4.25 0 0 1 8 3V1.5a5.75 5.75 0 0 0-5.731 5.28zM8 3a4.25 4.25 0 0 1 4.186 3.513l1.478-.258A5.75 5.75 0 0 0 8 1.5zm4.712 4.103A2.5 2.5 0 0 1 14.5 9.5H16a4 4 0 0 0-2.862-3.835zM14.5 9.5A2.5 2.5 0 0 1 12 12v1.5a4 4 0 0 0 4-4z"/><path stroke="currentcolor" stroke-linejoin="round" stroke-width="1.5" d="m1 1 14 14"/></g></svg>