<svg width="16" height="16" fill="none" viewBox="0 0 16 16"><mask id="a" width="16" height="16" x="0" y="0" maskUnits="userSpaceOnUse" style="mask-type:alpha"><path fill="currentcolor" fill-rule="evenodd" d="M16 0H0v16h8V5.625h8z" clip-rule="evenodd"/></mask><g mask="url(#a)"><path stroke="currentcolor" stroke-linejoin="round" stroke-width="1.5" d="M4.375 8a3.125 3.125 0 1 1 0-6.25h7.25a3.125 3.125 0 1 1 0 6.25m-7.25 0a3.125 3.125 0 1 0 0 6.25h7.25a3.125 3.125 0 1 0 0-6.25m-7.25 0h7.25M4 4.875h1.5m2.5 0h4m-8 6.25h1.5m2.5 0h4"/></g><path stroke="currentcolor" stroke-linejoin="round" stroke-width="1.5" d="M10.25 15.25v-.922c0-.367.161-.715.44-.952l4.12-3.502c.279-.237.44-.585.44-.952V8h-5v.922c0 .367.161.715.44.952l4.12 3.502c.279.237.44.585.44.952v.922z"/></svg>