<svg width="16" height="16" fill="none" viewBox="0 0 16 16"><path stroke="currentcolor" stroke-linejoin="round" stroke-width="1.5" d="m2.75 6.958.965-4.215a1.25 1.25 0 0 1 1.522-.934l2.46.615c.199.05.407.05.606 0l2.46-.615a1.25 1.25 0 0 1 1.522.934l.965 4.215m-13 .792c6.25-1.375 9.25-1.375 15.5 0"/><circle cx="11.5" cy="12" r="2.25" stroke="currentcolor" stroke-linejoin="round" stroke-width="1.5"/><path stroke="currentcolor" stroke-linejoin="round" stroke-width="1.5" d="M9.582 11.25A2.74 2.74 0 0 0 8 10.75a2.74 2.74 0 0 0-1.582.5"/><circle cx="4.5" cy="12" r="2.25" stroke="currentcolor" stroke-linejoin="round" stroke-width="1.5"/></svg>