<svg width="16" height="16" fill="none" viewBox="0 0 16 16"><path stroke="currentcolor" stroke-linejoin="round" stroke-width="1.5" d="M8 3.25H4.387a1.25 1.25 0 0 0-1.18.837L1.89 7.85a2.5 2.5 0 0 0-.14.826V11.5c0 .69.56 1.25 1.25 1.25h1.5M8 3.25h3.613a1.25 1.25 0 0 1 1.18.837L14.11 7.85a2.5 2.5 0 0 1 .14.826V11.5c0 .69-.56 1.25-1.25 1.25h-1.5M8 3.25V.75m0 0h4m-4 0H4m.5 12L2.75 15.5m1.75-2.75h7m0 0 1.75 2.75m-7.75-.25h5m3.5-7H2"/><path fill="currentcolor" d="M5 10.5a.75.75 0 1 1-1.5 0 .75.75 0 0 1 1.5 0m7.5 0a.75.75 0 1 1-1.5 0 .75.75 0 0 1 1.5 0"/></svg>