<svg width="16" height="16" fill="none" viewBox="0 0 16 16"><path fill="currentcolor" d="M6.25 5a.5.5 0 1 1-1 0 .5.5 0 0 1 1 0m4.5 0a.5.5 0 1 1-1 0 .5.5 0 0 1 1 0"/><path fill="currentcolor" d="M4.25 13.25v-.75h-.2l-.172.099zm-3.5 2H0a.75.75 0 0 0 1.122.651zm12.625-2.75H4.25V14h9.125zm-9.497.099-3.5 2 .744 1.302 3.5-2zM1.5 15.25V3.125H0V15.25zM2.625 2h10.75V.5H2.625zM14.5 3.125v8.25H16v-8.25zM8 11c1.225 0 2.196-.536 2.835-1.033a6 6 0 0 0 .944-.925l.072-.094.006-.007.002-.003v-.001h.001l-.61-.437-.61-.436v-.001l.001-.001-.005.007-.03.04q-.045.056-.139.161a4.3 4.3 0 0 1-.552.513C9.429 9.16 8.775 9.5 8 9.5zm0-1.5c-.775 0-1.43-.34-1.915-.717a4.4 4.4 0 0 1-.721-.714l-.005-.007v.001h.001l-.61.437-.61.436.001.002.002.003a1 1 0 0 0 .078.101 6 6 0 0 0 .944.925C5.805 10.465 6.775 11 8 11zM5.5 5a.25.25 0 0 1 .25-.25v1.5C6.44 6.25 7 5.69 7 5zm.25-.25A.25.25 0 0 1 6 5H4.5c0 .69.56 1.25 1.25 1.25zM6 5a.25.25 0 0 1-.25.25v-1.5c-.69 0-1.25.56-1.25 1.25zm-.25.25A.25.25 0 0 1 5.5 5H7c0-.69-.56-1.25-1.25-1.25zM10 5a.25.25 0 0 1 .25-.25v1.5c.69 0 1.25-.56 1.25-1.25zm.25-.25a.25.25 0 0 1 .25.25H9c0 .69.56 1.25 1.25 1.25zm.25.25a.25.25 0 0 1-.25.25v-1.5C9.56 3.75 9 4.31 9 5zm-.25.25A.25.25 0 0 1 10 5h1.5c0-.69-.56-1.25-1.25-1.25zM13.375 2c.621 0 1.125.504 1.125 1.125H16A2.625 2.625 0 0 0 13.375.5zm0 12A2.625 2.625 0 0 0 16 11.375h-1.5c0 .621-.504 1.125-1.125 1.125zM1.5 3.125C1.5 2.504 2.004 2 2.625 2V.5A2.625 2.625 0 0 0 0 3.125z"/></svg>