<svg width="47" height="31" viewBox="0 0 47 31" fill="none" xmlns="http://www.w3.org/2000/svg">
	<path
		d="M45.9864 16.4945H43.958L42.982 14.0361H37.4858C37.5722 8.95222 38.0906 4.24342 39.0214 0H12.3434C12.2649 0.769745 12.1942 1.54931 12.1274 2.3328H4.43585L5.41178 4.79324H15.1337L16.1097 7.25367H11.7916C11.7916 7.28509 11.7877 7.31651 11.7857 7.34793L11.7484 7.25367H0L0.975927 9.71411H4.43782L5.41375 12.1745H11.6228C11.6012 13.2349 11.5894 14.3012 11.5894 15.3792C11.5894 18.9079 11.6974 22.3246 11.9036 25.6313H7.27331L8.24924 28.0918H5.3136L6.28953 30.5522H38.9546C38.4971 28.4276 38.1456 26.1871 37.8982 23.8385H33.6253L32.6494 21.3781H36.0622L35.0863 18.9177L46.9643 18.953L45.9884 16.4926L45.9864 16.4945Z"
		fill="#DDDEE1"
	/>
	<path d="M11.6208 12.1748H17.28L16.3041 9.71436H11.6208V12.1748Z" fill="#B7B9BE" />
	<path d="M12.3925 30.5542H18.0517L17.0758 28.0918H12.2178L12.3925 30.5542Z" fill="#B7B9BE" />
	<path d="M37.3425 16.4614H33.7529L34.7289 18.9238H35.6282H37.3425V16.4614Z" fill="#B7B9BE" />
	<path
		fill-rule="evenodd"
		clip-rule="evenodd"
		d="M24.4434 17.4884V7.69775H25.6098V17.4884H24.4434Z"
		fill="white"
	/>
	<path
		fill-rule="evenodd"
		clip-rule="evenodd"
		d="M24.7618 19.2729C24.8665 19.2541 24.9664 19.2485 25.0521 19.2485C25.1426 19.2485 25.2324 19.2548 25.3225 19.2687L25.3258 19.2692L25.3291 19.2697C25.9 19.363 26.3751 19.7602 26.4902 20.395C26.5105 20.5025 26.5159 20.6058 26.5159 20.6908C26.5159 20.7568 26.5126 20.8311 26.5022 20.9097V20.9218L26.4909 20.9849C26.3773 21.6178 25.9033 22.0201 25.3291 22.1139L25.3258 22.1144L25.3225 22.1149C25.2324 22.1288 25.1426 22.1351 25.0521 22.1351C24.9658 22.1351 24.865 22.1294 24.7595 22.1103C24.1961 22.0127 23.7233 21.619 23.6081 20.9871C23.588 20.8806 23.5823 20.7795 23.5823 20.6928C23.5823 20.6043 23.588 20.5021 23.6085 20.3942C23.7251 19.772 24.188 19.3694 24.7618 19.2729ZM25.0216 20.689C25.0216 20.6902 25.0216 20.6915 25.0216 20.6928C25.0216 20.6934 25.0216 20.694 25.0216 20.6946C25.0223 20.6947 25.023 20.6947 25.0238 20.6948C25.0305 20.6953 25.0399 20.6957 25.0521 20.6957C25.0613 20.6957 25.0694 20.6955 25.0766 20.6951C25.0766 20.6937 25.0766 20.6923 25.0766 20.6908C25.0766 20.69 25.0766 20.6893 25.0766 20.6885C25.0694 20.6881 25.0613 20.6879 25.0521 20.6879C25.0399 20.6879 25.0305 20.6883 25.0238 20.6888C25.023 20.6889 25.0223 20.689 25.0216 20.689Z"
		fill="white"
	/>
</svg>