<svg width="38" height="40" viewBox="0 0 38 40" fill="none" xmlns="http://www.w3.org/2000/svg">
<path d="M27.8544 28.8706C28.0253 27.9084 28.1156 26.8873 28.1156 25.8054C28.1156 24.7234 28.0253 23.6729 27.8505 22.6989C26.8098 16.9062 22.7843 13.3343 17.1428 12.4173C16.1806 12.2602 15.1713 12.1797 14.1208 12.1797C13.0702 12.1797 11.9745 12.2661 10.973 12.433C5.32563 13.3755 1.30999 16.9376 0.267299 22.6969C0.0905715 23.6709 0.000244141 24.7057 0.000244141 25.8034C0.000244141 26.9011 0.0905714 27.9065 0.263371 28.8686C1.29821 34.6221 5.31777 38.19 10.975 39.1326C11.9765 39.2995 13.027 39.3859 14.1227 39.3859C15.2184 39.3859 16.1826 39.3054 17.1448 39.1483C22.7981 38.2293 26.8255 34.6515 27.8584 28.8667L27.8544 28.8706Z" fill="#1868DB"/>
<path d="M17.8535 24.3781C17.9007 24.113 17.9262 23.8322 17.9262 23.5337C17.9262 23.2353 17.9007 22.9466 17.8535 22.6796C17.5669 21.0851 16.4594 20.1033 14.9061 19.85C14.641 19.8068 14.3642 19.7852 14.0735 19.7852C13.7829 19.7852 13.4825 19.8087 13.2076 19.8558C11.6524 20.115 10.5469 21.0949 10.2602 22.6815C10.2111 22.9486 10.1855 23.2353 10.1855 23.5357C10.1855 23.8361 10.2111 24.115 10.2582 24.3801C10.5429 25.9628 11.6504 26.9465 13.2056 27.2057C13.4805 27.2509 13.7711 27.2764 14.0716 27.2764C14.372 27.2764 14.6391 27.2548 14.9042 27.2116C16.4594 26.9583 17.5688 25.9745 17.8535 24.382V24.3781Z" fill="white"/>
<path d="M24.2766 8.6875H3.83716V17.5808H24.2766V8.6875Z" fill="#1868DB"/>
<path d="M16.5183 25.3477H11.5955V31.8709H16.5183V25.3477Z" fill="white"/>
<path d="M14.0872 17.3745C13.4451 17.3745 12.8108 17.3235 12.206 17.2214C8.46922 16.5989 5.95184 14.1699 5.30384 10.5607C5.1978 9.96771 5.14282 9.33935 5.14282 8.69724C5.14282 8.05513 5.1978 7.41105 5.3058 6.81018C5.9597 3.20102 8.47315 0.773963 12.206 0.151491C13.398 -0.0468366 14.7077 -0.0507637 15.8977 0.141673C19.6364 0.7504 22.1558 3.18138 22.8077 6.81411C22.9157 7.41498 22.9707 8.04924 22.9707 8.69724C22.9707 9.34524 22.9177 9.96574 22.8116 10.5588C22.1636 14.1915 19.6443 16.6244 15.8996 17.2332C15.3184 17.3274 14.7097 17.3765 14.0892 17.3765L14.0872 17.3745ZM14.0872 1.81862C13.5491 1.81862 13.0092 1.85985 12.5065 1.94429C9.53351 2.44109 7.61308 4.28298 7.09664 7.13222C7.00631 7.62509 6.96115 8.15135 6.96115 8.69527C6.96115 9.2392 7.00631 9.74975 7.09271 10.2367C7.60522 13.086 9.52762 14.9298 12.5045 15.4266C13.5001 15.5935 14.6174 15.5955 15.6051 15.4345C18.5839 14.9495 20.5063 13.1036 21.0188 10.2367C21.1052 9.74778 21.1504 9.22938 21.1504 8.69527C21.1504 8.16116 21.1052 7.62705 21.0169 7.13222C20.5024 4.26531 18.58 2.41949 15.6051 1.93447C15.122 1.85593 14.6036 1.81665 14.0852 1.81665L14.0872 1.81862Z" fill="#1868DB"/>
<path d="M30.9136 22.4785C30.5464 20.4364 29.1306 19.0697 27.0295 18.728C26.3638 18.62 25.6294 18.622 24.9618 18.7339C22.8921 19.0795 21.4901 20.4148 21.0993 22.402H10.3896C10.3661 22.4923 10.3464 22.5865 10.3288 22.6808C10.2797 22.9478 10.2561 23.2345 10.2561 23.535C10.2561 23.8354 10.2816 24.1142 10.3288 24.3793C10.3464 24.4736 10.3661 24.5678 10.3896 24.6582H21.0993C21.4861 26.6454 22.8882 27.9806 24.9618 28.3262C25.3015 28.3832 25.6549 28.4126 26.0162 28.4126C26.3776 28.4126 26.7055 28.3852 27.0314 28.3321C29.1365 27.9905 30.5522 26.6218 30.9175 24.5796C30.9764 24.2478 31.0078 23.8963 31.0078 23.5369C31.0078 23.1776 30.9764 22.8182 30.9175 22.4805L30.9136 22.4785ZM28.677 24.1771C28.4865 25.2414 27.7914 25.9012 26.6642 26.0857C26.246 26.1545 25.761 26.1525 25.3349 26.0818C24.2058 25.8933 23.5087 25.2355 23.3182 24.1771C23.2829 23.9768 23.2632 23.7608 23.2632 23.535C23.2632 23.3092 23.2809 23.0853 23.3182 22.883C23.5107 21.8246 24.2077 21.1649 25.3349 20.9764C25.5509 20.941 25.7787 20.9214 26.0143 20.9214C26.2499 20.9214 26.4581 20.939 26.6642 20.9724C27.7894 21.155 28.4845 21.8148 28.675 22.8811C28.7123 23.0853 28.73 23.3052 28.73 23.535C28.73 23.7647 28.7123 23.9768 28.675 24.179L28.677 24.1771Z" fill="#FCA700"/>
<path d="M37.577 29.5056C37.8263 29.4879 37.8303 29.268 37.5829 29.2405C37.2294 29.2012 36.8602 29.1776 36.3831 29.1659C35.8431 29.1659 35.7076 29.2091 35.3404 29.1973C34.7218 29.1855 33.6791 29.105 33.4278 29.0854C33.3905 29.0834 33.3532 29.0814 33.3159 29.0814C33.2805 29.0814 33.2314 29.0814 33.1372 29.0814C33.0901 29.0814 33.0311 29.0814 32.9565 29.0814H32.933H32.931L32.9231 29.0834C32.9231 29.0834 32.9192 29.0834 32.9192 29.0795V29.0755C32.9192 29.0755 32.9153 29.0873 32.9192 29.0441C32.929 28.9224 32.9408 28.7731 32.9546 28.6082C32.984 28.2783 33.0213 27.8856 33.0645 27.5144C33.1352 26.8075 33.1784 26.3696 33.2 26.1399C33.253 25.5999 33.2707 25.1934 33.2687 24.7928C33.2687 24.5729 33.0783 24.5533 33.0331 24.7693C32.9526 25.162 32.8898 25.5626 32.8348 26.1026C32.8132 26.3127 32.717 26.7447 32.6482 27.3613C32.6365 27.4614 32.6306 27.5635 32.6286 27.6637C32.6247 27.9484 32.607 28.2606 32.5854 28.5473C32.5736 28.6907 32.5618 28.8281 32.552 28.9518C32.5343 29.1423 32.5167 29.3151 32.5029 29.4584C32.8525 29.4663 33.0488 29.4722 33.0488 29.4722C33.0488 29.4722 34.7238 29.5036 35.4327 29.5174C35.9648 29.5272 36.2221 29.5311 36.3791 29.5331C36.8563 29.5409 37.2274 29.5291 37.5809 29.5036L37.577 29.5056Z" fill="#101214"/>
<path d="M26.0505 14.5248C25.4594 14.7977 25.5635 14.9921 26.1467 14.7722C26.9871 14.4914 27.9061 14.2793 29.1 14.2852C29.7755 14.293 30.1957 14.3461 30.559 14.4089C30.9242 14.4658 31.2305 14.5444 31.6645 14.6936C32.3989 14.9489 33.3218 15.4712 34.0248 16.0741C34.1112 16.1506 34.1976 16.2253 34.2801 16.2999C34.3213 16.3372 34.3625 16.3725 34.4038 16.4098C34.4411 16.4491 34.4784 16.4884 34.5137 16.5277C34.6571 16.6828 34.7906 16.8281 34.9123 16.9577C35.1323 17.2385 35.2972 17.4643 35.3915 17.59C35.4406 17.6685 35.4897 17.7471 35.5407 17.8256C35.631 17.965 35.8137 18.2125 35.9904 18.5777C36.0375 18.668 36.0886 18.7623 36.1416 18.8624C36.1907 18.9645 36.2319 19.0765 36.279 19.1904C36.3262 19.3042 36.3753 19.424 36.4243 19.5477C36.4715 19.6714 36.5049 19.805 36.5461 19.9405C36.5854 20.076 36.6325 20.2134 36.6659 20.3568C36.6953 20.5021 36.7228 20.6493 36.7523 20.7986C36.768 20.8732 36.7817 20.9498 36.7974 21.0244C36.8112 21.101 36.8131 21.1795 36.823 21.2561C36.8387 21.4132 36.8524 21.5703 36.8681 21.7293C36.8838 21.8884 36.8721 22.0494 36.874 22.2104V22.452C36.874 22.5325 36.8721 22.613 36.8603 22.6935C36.823 23.0136 36.8092 23.3356 36.7287 23.64C36.658 24.0798 36.5225 24.4588 36.4165 24.8044C36.3556 24.9752 36.281 25.1284 36.2201 25.2776C36.1534 25.4249 36.1043 25.5682 36.0355 25.6939C35.7783 26.2025 35.5407 26.5481 35.3758 26.7818C34.9771 27.3316 34.5687 27.7636 34.1603 28.1308C33.7518 28.498 33.3434 28.7945 32.9173 29.0616C32.446 29.3404 32.5206 29.5171 33.0331 29.2677C33.4907 29.0301 33.9364 28.7474 34.3763 28.3821C34.8161 28.0169 35.254 27.5712 35.6723 26.9978C35.8313 26.7739 36.0846 26.4303 36.3537 25.9374C36.4243 25.8157 36.4872 25.6821 36.55 25.5368C36.6148 25.3935 36.6816 25.2423 36.7523 25.0852C36.8249 24.9281 36.8681 24.7514 36.931 24.5727C36.9879 24.392 37.0566 24.2074 37.09 24.0052L37.1686 23.6144L37.2039 23.4181C37.2118 23.3533 37.2157 23.2865 37.2196 23.2197C37.2294 23.0784 37.2412 22.933 37.251 22.7877C37.255 22.7151 37.2648 22.6424 37.2648 22.5678L37.2609 22.3459C37.2589 22.1967 37.2569 22.0474 37.253 21.8982C37.2569 21.749 37.2255 21.5997 37.2137 21.4525C37.198 21.3052 37.1823 21.1579 37.1666 21.0126C37.1371 20.8693 37.1097 20.7279 37.0822 20.5904C37.0527 20.453 37.0311 20.3155 36.9977 20.184C36.9585 20.0544 36.9211 19.9287 36.8858 19.8069C36.8485 19.6852 36.8131 19.5674 36.7798 19.4554C36.7366 19.3474 36.6953 19.2434 36.6541 19.1452C36.5716 18.9508 36.5166 18.7701 36.4381 18.6346C36.2967 18.3578 36.2142 18.1948 36.2142 18.1948C36.2142 18.1948 36.1828 18.1339 36.1259 18.024C36.0591 17.9199 35.9629 17.7706 35.8431 17.5861C35.7312 17.3956 35.5662 17.1933 35.3856 16.9675C35.2167 16.7319 34.983 16.5139 34.7553 16.2724C33.8225 15.3161 32.4067 14.5837 31.5231 14.3205C30.8594 14.1085 30.3469 14.028 29.9581 13.9769C29.7617 13.9573 29.5968 13.9435 29.4554 13.9337C29.3121 13.9298 29.1942 13.9258 29.0902 13.9219C27.8413 13.918 26.8811 14.1772 26.0367 14.5287L26.0505 14.5248Z" fill="#101214"/>
<path d="M28.1155 25.8046C28.1155 25.6553 28.1096 25.512 28.1057 25.3647C27.7601 25.7378 27.277 25.9852 26.6624 26.0854C26.2442 26.1541 25.7591 26.1521 25.333 26.0814C24.2039 25.8929 23.5069 25.2351 23.3164 24.1767C23.281 23.9764 23.2614 23.7604 23.2614 23.5346C23.2614 23.3088 23.2791 23.0849 23.3164 22.8827C23.5088 21.8243 24.2059 21.1645 25.333 20.976C25.549 20.9406 25.7768 20.921 26.0125 20.921C26.2481 20.921 26.4562 20.9387 26.6624 20.972C26.9825 21.0231 27.2613 21.1193 27.5107 21.245C27.2456 20.3182 26.8961 19.4561 26.468 18.6648C25.9653 18.6294 25.445 18.651 24.9599 18.7335C22.8903 19.0791 21.4882 20.4144 21.0975 22.4016H10.3191C10.2955 22.4919 10.2759 22.5862 10.2582 22.6804C10.2091 22.9475 10.1855 23.2342 10.1855 23.5346C10.1855 23.835 10.2111 24.1139 10.2582 24.379C10.2759 24.4732 10.2955 24.5675 10.3191 24.6578H21.0975C21.4843 26.645 22.8863 27.9803 24.9599 28.3259C25.2997 28.3828 25.6531 28.4123 26.0144 28.4123C26.3757 28.4123 26.7037 28.3848 27.0296 28.3318C27.3634 28.2768 27.6776 28.1943 27.9741 28.0902C28.0684 27.3617 28.1175 26.5998 28.1175 25.8065L28.1155 25.8046Z" fill="#164B35"/>
<path d="M10.3191 24.6586H17.7927C17.8162 24.5682 17.8359 24.474 17.8535 24.3797C17.9007 24.1146 17.9262 23.8338 17.9262 23.5354C17.9262 23.2369 17.9007 22.9482 17.8535 22.6812C17.8359 22.585 17.8162 22.4927 17.7927 22.4023H10.321C10.2975 22.4927 10.2778 22.5869 10.2602 22.6812C10.2366 22.8147 10.217 22.9541 10.2052 23.0955C10.1934 23.2389 10.1875 23.3842 10.1875 23.5354C10.1875 23.6866 10.1934 23.8279 10.2052 23.9693C10.217 24.1107 10.2346 24.2462 10.2582 24.3778C10.2759 24.472 10.2955 24.5663 10.3191 24.6566V24.6586Z" fill="#FCA700"/>
</svg>
