<svg width="166" height="32" viewBox="0 0 166 32" fill="none" xmlns="http://www.w3.org/2000/svg">
<path d="M161.212 20.58C161.212 21.9293 162.009 22.8493 163.634 22.8493C164.248 22.8493 164.83 22.7267 165.29 22.6347V25.18C164.83 25.3027 164.309 25.4253 163.512 25.4253C160.23 25.4253 158.636 23.4933 158.636 20.6413V12.4533H156.152V10H158.636V6.74933H161.212V10H165.29V12.4533H161.212V20.58Z" fill="#1E1F21"/>
<path d="M147.675 12.0853C144.884 12.0853 143.474 13.8946 143.198 16.5626H151.754C151.6 13.7106 150.312 12.0853 147.675 12.0853ZM153.563 24.72C152.306 25.3946 150.374 25.64 148.81 25.64C143.075 25.64 140.56 22.328 140.56 17.636C140.56 13.0053 143.136 9.6933 147.798 9.6933C152.52 9.6933 154.422 12.9746 154.422 17.636V18.832H143.228C143.596 21.4386 145.283 23.1253 148.902 23.1253C150.68 23.1253 152.183 22.788 153.563 22.2973V24.72Z" fill="#1E1F21"/>
<path d="M129.743 25.3333H127.105V3.59064H129.743V17.176L136.336 9.99997H139.771L132.564 17.544L140.077 25.3333H136.489L129.743 18.1573V25.3333Z" fill="#1E1F21"/>
<path d="M124.095 22.5733V24.9346C123.175 25.4253 121.764 25.64 120.353 25.64C114.895 25.64 112.349 22.328 112.349 17.636C112.349 13.0053 114.895 9.6933 120.353 9.6933C121.733 9.6933 122.807 9.8773 124.003 10.4293V12.8826C123.021 12.4226 121.979 12.1466 120.537 12.1466C116.551 12.1466 114.925 14.6613 114.925 17.636C114.925 20.6106 116.581 23.1253 120.599 23.1253C122.163 23.1253 123.144 22.9106 124.095 22.5733Z" fill="#1E1F21"/>
<path d="M96.2518 18.9853V10H98.8891V19.2613C98.8891 22.0213 99.9931 23.248 102.508 23.248C104.961 23.248 106.648 21.6227 106.648 18.5253V10H109.285V25.3333H106.648V22.8187C105.666 24.628 103.857 25.64 101.802 25.64C98.2758 25.64 96.2518 23.2173 96.2518 18.9853Z" fill="#1E1F21"/>
<path d="M90.864 17.6666C90.864 13.9866 89.392 12.1466 86.6627 12.1466C84.3014 12.1466 82.1854 13.6493 82.1854 17.0533V18.28C82.1854 21.684 84.1174 23.1866 86.356 23.1866C89.3307 23.1866 90.864 21.224 90.864 17.6666ZM87.0614 25.64C84.8227 25.64 83.1054 24.628 82.1854 22.6346V25.3333H79.548V3.59064H82.1854V12.76C83.1667 10.736 85.0067 9.6933 87.368 9.6933C91.4467 9.6933 93.5014 13.1586 93.5014 17.6666C93.5014 21.9906 91.3547 25.64 87.0614 25.64Z" fill="#1E1F21"/>
<path d="M72.0867 20.58C72.0867 21.9293 72.884 22.8493 74.5093 22.8493C75.1227 22.8493 75.7053 22.7267 76.1653 22.6347V25.18C75.7053 25.3027 75.184 25.4253 74.3867 25.4253C71.1053 25.4253 69.5107 23.4933 69.5107 20.6413V12.4533H67.0267V10H69.5107V6.74933H72.0867V10H76.1653V12.4533H72.0867V20.58Z" fill="#1E1F21"/>
<path d="M61.3282 5.952C61.3282 4.78667 62.0949 4.112 63.1682 4.112C64.2415 4.112 65.0082 4.78667 65.0082 5.952C65.0082 7.11733 64.2415 7.792 63.1682 7.792C62.0949 7.792 61.3282 7.11733 61.3282 5.952ZM61.8189 25.3333V10H64.4562V25.3333H61.8189Z" fill="#1E1F21"/>
<path d="M51.9907 16.2867H45.796V22.5734H52.052C54.6893 22.5734 55.8853 21.6227 55.8853 19.5987C55.8853 17.452 54.7507 16.2867 51.9907 16.2867ZM51.1013 7.8227H45.796V13.8334H51.1013C53.708 13.8334 54.7813 12.6374 54.7813 10.7054C54.7813 8.7427 53.616 7.8227 51.1013 7.8227ZM43.036 25.3334V5.18536H51.4693C55.5787 5.18536 57.572 7.20936 57.572 10.46C57.572 12.8827 56.468 14.3854 54.1987 14.9374C57.1733 15.428 58.6453 17.0534 58.6453 19.9054C58.6453 23.1254 56.468 25.3334 51.96 25.3334H43.036Z" fill="#1E1F21"/>
<path d="M8 0.666992H24C28.0501 0.666992 31.333 3.94991 31.333 8V24C31.333 28.0501 28.0501 31.333 24 31.333H8C3.94991 31.333 0.666992 28.0501 0.666992 24V8C0.666992 3.94991 3.94991 0.666992 8 0.666992Z" fill="white"/>
<path d="M8 0.666992H24C28.0501 0.666992 31.333 3.94991 31.333 8V24C31.333 28.0501 28.0501 31.333 24 31.333H8C3.94991 31.333 0.666992 28.0501 0.666992 24V8C0.666992 3.94991 3.94991 0.666992 8 0.666992Z" stroke="#DDDEE1" stroke-width="1.33333"/>
<path d="M23.7901 15.6844L22.4753 23.7164C22.3896 24.2024 22.0465 24.4882 21.5606 24.4882H10.413C9.92708 24.4882 9.58408 24.2024 9.49833 23.7164L7.18306 9.39604C7.09731 8.91012 7.35456 8.5957 7.8119 8.5957H24.1617C24.6191 8.5957 24.8763 8.91012 24.7906 9.39604L24.1617 13.1691C24.076 13.7122 23.7616 13.9408 23.2471 13.9408H13.4143C13.2714 13.9408 13.1856 14.0266 13.2142 14.1981L13.986 18.943C14.0145 19.0573 14.1003 19.1431 14.2146 19.1431H17.759C17.8733 19.1431 17.9591 19.0573 17.9877 18.943L18.5308 15.5129C18.5879 15.0842 18.8738 14.9127 19.2739 14.9127H23.1327C23.7044 14.9127 23.8759 15.1985 23.7901 15.6844Z" fill="#1868DB"/>
</svg>
