<svg width="102" height="32" viewBox="0 0 102 32" fill="none" xmlns="http://www.w3.org/2000/svg">
<path d="M97.5125 20.5802C97.5125 21.9295 98.3098 22.8495 99.9351 22.8495C100.548 22.8495 101.131 22.7268 101.591 22.6348V25.1802C101.131 25.3028 100.61 25.4255 99.8125 25.4255C96.5311 25.4255 94.9365 23.4935 94.9365 20.6415V12.4535H92.4525V10.0002H94.9365V6.74951H97.5125V10.0002H101.591V12.4535H97.5125V20.5802Z" fill="#1E1F21"/>
<path d="M78.57 17.6669C78.57 21.3469 80.042 23.1869 82.7713 23.1869C85.1326 23.1869 87.2486 21.6842 87.2486 18.2802V17.0535C87.2486 13.6495 85.3166 12.1469 83.078 12.1469C80.1033 12.1469 78.57 14.1095 78.57 17.6669ZM87.2486 25.3335V22.5735C86.2673 24.5975 84.4273 25.6402 82.066 25.6402C77.9873 25.6402 75.9326 22.1749 75.9326 17.6669C75.9326 13.3429 78.0793 9.69353 82.3726 9.69353C84.6113 9.69353 86.3286 10.7055 87.2486 12.6989V10.0002H89.886V25.3335H87.2486Z" fill="#1E1F21"/>
<path d="M73.145 16.348V25.3333H70.5077V16.808C70.5077 13.6493 69.4037 12.0853 66.889 12.0853C64.4357 12.0853 62.749 13.7107 62.749 16.808V25.3333H60.1117V3.59067H62.749V12.5453C63.761 10.736 65.601 9.69333 67.809 9.69333C71.2437 9.69333 73.145 12.024 73.145 16.348Z" fill="#1E1F21"/>
<path d="M56.9279 21.7758V24.4438C55.6706 25.2718 53.6772 25.6398 51.5919 25.6398C44.9679 25.6398 41.2266 21.6531 41.2266 15.3051C41.2266 9.17175 44.9679 4.87842 51.5306 4.87842C53.4932 4.87842 55.4559 5.24642 56.8972 6.28909V8.95709C55.4559 8.03709 53.8612 7.54642 51.5306 7.54642C46.8079 7.54642 43.9866 10.6744 43.9866 15.3051C43.9866 19.9358 46.8999 23.0024 51.6839 23.0024C53.7999 23.0024 55.4559 22.5118 56.9279 21.7758Z" fill="#1E1F21"/>
<path d="M0 8C0 3.58172 3.58172 0 8 0H24C28.4183 0 32 3.58172 32 8V24C32 28.4183 28.4183 32 24 32H8C3.58172 32 0 28.4183 0 24V8Z" fill="#DDDEE1"/>
<path fill-rule="evenodd" clip-rule="evenodd" d="M24.7504 22.25L13.5004 22.2502L7.25036 26V7.25024L24.7504 7.25V22.25ZM15.6433 9.75L15.3035 10.6135C14.8207 11.8404 14.5793 12.4538 14.1338 12.9156C13.6883 13.3774 13.0839 13.6407 11.8751 14.1673L11.3575 14.3927V15.1071L11.8749 15.3325C13.0838 15.8591 13.6882 16.1224 14.1338 16.5842C14.5793 17.046 14.8207 17.6595 15.3035 18.8865L15.6433 19.75H16.3575L16.6974 18.8863C17.1802 17.6594 17.4216 17.0459 17.8671 16.5842C18.3126 16.1224 18.917 15.8591 20.1258 15.3325L20.6432 15.1071V14.3927L20.1256 14.1672C18.9169 13.6407 18.3126 13.3774 17.8671 12.9156C17.4217 12.4539 17.1802 11.8405 16.6974 10.6137L16.3575 9.75H15.6433Z" fill="#101214"/>
</svg>
