<svg width="102" height="32" viewBox="0 0 102 32" fill="none" xmlns="http://www.w3.org/2000/svg">
<path d="M97.5124 20.5797C97.5124 21.929 98.3097 22.849 99.9351 22.849C100.548 22.849 101.131 22.7264 101.591 22.6344V25.1797C101.131 25.3024 100.61 25.425 99.8124 25.425C96.5311 25.425 94.9364 23.493 94.9364 20.641V12.453H92.4524V9.99969H94.9364V6.74902H97.5124V9.99969H101.591V12.453H97.5124V20.5797Z" fill="#1E1F21"/>
<path d="M78.57 17.6662C78.57 21.3462 80.042 23.1862 82.7713 23.1862C85.1326 23.1862 87.2486 21.6835 87.2486 18.2795V17.0529C87.2486 13.6489 85.3166 12.1462 83.078 12.1462C80.1033 12.1462 78.57 14.1089 78.57 17.6662ZM87.2486 25.3329V22.5729C86.2673 24.5969 84.4273 25.6395 82.066 25.6395C77.9873 25.6395 75.9326 22.1742 75.9326 17.6662C75.9326 13.3422 78.0793 9.69287 82.3726 9.69287C84.6113 9.69287 86.3286 10.7049 87.2486 12.6982V9.99954H89.886V25.3329H87.2486Z" fill="#1E1F21"/>
<path d="M73.1449 16.3472V25.3325H70.5076V16.8072C70.5076 13.6485 69.4036 12.0845 66.8889 12.0845C64.4356 12.0845 62.7489 13.7098 62.7489 16.8072V25.3325H60.1116V3.58984H62.7489V12.5445C63.7609 10.7352 65.6009 9.69251 67.8089 9.69251C71.2436 9.69251 73.1449 12.0232 73.1449 16.3472Z" fill="#1E1F21"/>
<path d="M56.9279 21.7753V24.4433C55.6706 25.2713 53.6772 25.6393 51.5919 25.6393C44.9679 25.6393 41.2266 21.6526 41.2266 15.3046C41.2266 9.17126 44.9679 4.87793 51.5306 4.87793C53.4932 4.87793 55.4559 5.24593 56.8972 6.2886V8.9566C55.4559 8.0366 53.8612 7.54593 51.5306 7.54593C46.8079 7.54593 43.9866 10.6739 43.9866 15.3046C43.9866 19.9353 46.8999 23.0019 51.6839 23.0019C53.7999 23.0019 55.4559 22.5113 56.9279 21.7753Z" fill="#1E1F21"/>
<path d="M0 8C0 3.58172 3.58172 0 8 0H24C28.4183 0 32 3.58172 32 8V24C32 28.4183 28.4183 32 24 32H8C3.58172 32 0 28.4183 0 24V8Z" fill="#DDDEE1"/>
<path fill-rule="evenodd" clip-rule="evenodd" d="M24.1673 21.834L13.6673 21.8342L7.83398 25.334V7.83421L24.1673 7.83398V21.834ZM11.9168 16.0006C12.5612 16.0006 13.0835 15.4783 13.0835 14.834C13.0835 14.1896 12.5612 13.6673 11.9168 13.6673C11.2725 13.6673 10.7502 14.1896 10.7502 14.834C10.7502 15.4783 11.2725 16.0006 11.9168 16.0006ZM16.0007 16.0006C16.645 16.0006 17.1673 15.4783 17.1673 14.834C17.1673 14.1896 16.645 13.6673 16.0007 13.6673C15.3563 13.6673 14.834 14.1896 14.834 14.834C14.834 15.4783 15.3563 16.0006 16.0007 16.0006ZM21.2504 14.834C21.2504 15.4783 20.7281 16.0006 20.0837 16.0006C19.4394 16.0006 18.9171 15.4783 18.9171 14.834C18.9171 14.1896 19.4394 13.6673 20.0837 13.6673C20.7281 13.6673 21.2504 14.1896 21.2504 14.834Z" fill="#101214"/>
</svg>
