<svg width="188" height="32" viewBox="0 0 188 32" fill="none" xmlns="http://www.w3.org/2000/svg">
<path d="M181.157 12.0853C178.366 12.0853 176.955 13.8946 176.679 16.5626H185.235C185.082 13.7106 183.794 12.0853 181.157 12.0853ZM187.045 24.72C185.787 25.3946 183.855 25.64 182.291 25.64C176.557 25.64 174.042 22.328 174.042 17.636C174.042 13.0053 176.618 9.6933 181.279 9.6933C186.002 9.6933 187.903 12.9746 187.903 17.636V18.832H176.71C177.078 21.4386 178.765 23.1253 182.383 23.1253C184.162 23.1253 185.665 22.788 187.045 22.2973V24.72Z" fill="#1E1F21"/>
<path d="M171.952 22.5733V24.9346C171.032 25.4253 169.621 25.64 168.21 25.64C162.752 25.64 160.206 22.328 160.206 17.636C160.206 13.0053 162.752 9.6933 168.21 9.6933C169.59 9.6933 170.664 9.8773 171.86 10.4293V12.8826C170.878 12.4226 169.836 12.1466 168.394 12.1466C164.408 12.1466 162.782 14.6613 162.782 17.636C162.782 20.6106 164.438 23.1253 168.456 23.1253C170.02 23.1253 171.001 22.9106 171.952 22.5733Z" fill="#1E1F21"/>
<path d="M157.449 16.348V25.3333H154.811V16.072C154.811 13.312 153.707 12.0853 151.193 12.0853C148.739 12.0853 147.053 13.7106 147.053 16.808V25.3333H144.415V9.99997H147.053V12.5146C148.034 10.7053 149.843 9.6933 151.898 9.6933C155.425 9.6933 157.449 12.116 157.449 16.348Z" fill="#1E1F21"/>
<path d="M134.528 12.0853C131.737 12.0853 130.327 13.8946 130.051 16.5626H138.607C138.453 13.7106 137.165 12.0853 134.528 12.0853ZM140.416 24.72C139.159 25.3946 137.227 25.64 135.663 25.64C129.928 25.64 127.413 22.328 127.413 17.636C127.413 13.0053 129.989 9.6933 134.651 9.6933C139.373 9.6933 141.275 12.9746 141.275 17.636V18.832H130.081C130.449 21.4386 132.136 23.1253 135.755 23.1253C137.533 23.1253 139.036 22.788 140.416 22.2973V24.72Z" fill="#1E1F21"/>
<path d="M111.316 18.9853V10H113.953V19.2613C113.953 22.0213 115.057 23.248 117.572 23.248C120.025 23.248 121.712 21.6227 121.712 18.5253V10H124.349V25.3333H121.712V22.8187C120.73 24.628 118.921 25.64 116.866 25.64C113.34 25.64 111.316 23.2173 111.316 18.9853Z" fill="#1E1F21"/>
<path d="M109.085 25.3026C108.87 25.364 108.41 25.4253 107.735 25.4253C105.221 25.4253 103.626 24.2293 103.626 21.408V3.59064H106.263V21.1013C106.263 22.4813 107.183 22.972 108.318 22.972C108.594 22.972 108.778 22.972 109.085 22.9413V25.3026Z" fill="#1E1F21"/>
<path d="M96.8237 8.37469V10H100.78V12.4534H96.8237V25.3334H94.2477V12.4534H91.7637V10H94.2477V8.31336C94.2477 5.46136 95.8423 3.52936 99.1237 3.52936C99.921 3.52936 100.442 3.65202 100.902 3.77469V6.19736C100.442 6.10536 99.8597 6.04403 99.2463 6.04403C97.621 6.04403 96.8237 6.99469 96.8237 8.37469Z" fill="#1E1F21"/>
<path d="M89.4968 16.348V25.3333H86.8594V16.072C86.8594 13.312 85.7554 12.0853 83.2408 12.0853C80.7874 12.0853 79.1008 13.7106 79.1008 16.808V25.3333H76.4634V9.99997H79.1008V12.5146C80.0821 10.7053 81.8914 9.6933 83.9461 9.6933C87.4728 9.6933 89.4968 12.116 89.4968 16.348Z" fill="#1E1F21"/>
<path d="M66.1611 25.64C61.5611 25.64 58.8624 22.236 58.8624 17.636C58.8624 13.036 61.5611 9.6933 66.1611 9.6933C70.7304 9.6933 73.3984 13.036 73.3984 17.636C73.3984 22.236 70.7304 25.64 66.1611 25.64ZM66.1611 12.1466C62.8798 12.1466 61.4384 14.7226 61.4384 17.636C61.4384 20.5493 62.8798 23.1866 66.1611 23.1866C69.4118 23.1866 70.8224 20.5493 70.8224 17.636C70.8224 14.7226 69.4118 12.1466 66.1611 12.1466Z" fill="#1E1F21"/>
<path d="M56.928 21.776V24.444C55.6707 25.272 53.6774 25.64 51.592 25.64C44.968 25.64 41.2267 21.6533 41.2267 15.3053C41.2267 9.172 44.968 4.87866 51.5307 4.87866C53.4934 4.87866 55.456 5.24666 56.8974 6.28933V8.95733C55.456 8.03733 53.8614 7.54666 51.5307 7.54666C46.808 7.54666 43.9867 10.6747 43.9867 15.3053C43.9867 19.936 46.9 23.0027 51.684 23.0027C53.8 23.0027 55.456 22.512 56.928 21.776Z" fill="#1E1F21"/>
<path d="M8 0.666992H24C28.0501 0.666992 31.333 3.94991 31.333 8V24C31.333 28.0501 28.0501 31.333 24 31.333H8C3.94991 31.333 0.666992 28.0501 0.666992 24V8C0.666992 3.94991 3.94991 0.666992 8 0.666992Z" fill="white"/>
<path d="M8 0.666992H24C28.0501 0.666992 31.333 3.94991 31.333 8V24C31.333 28.0501 28.0501 31.333 24 31.333H8C3.94991 31.333 0.666992 28.0501 0.666992 24V8C0.666992 3.94991 3.94991 0.666992 8 0.666992Z" stroke="#DDDEE1" stroke-width="1.33333"/>
<path d="M23.1597 19.0201C18.2219 16.6325 16.7794 16.2757 14.6989 16.2757C12.2577 16.2757 10.1772 17.2911 8.3186 20.1452L8.01346 20.6118C7.76379 20.996 7.70831 21.1332 7.70831 21.2979C7.70831 21.4625 7.79153 21.5997 8.09668 21.7919L11.2313 23.7403C11.3978 23.8501 11.5365 23.905 11.6752 23.905C11.8416 23.905 11.9526 23.8227 12.119 23.5757L12.6184 22.8073C13.3951 21.6272 14.0886 21.243 14.9763 21.243C15.753 21.243 16.6685 21.4625 17.8058 22.0114L21.0792 23.5482C21.4121 23.7129 21.7727 23.6306 21.9391 23.2464L23.4926 19.8434C23.659 19.4592 23.5481 19.2122 23.1597 19.0201ZM8.76245 13.0099C13.7002 15.3975 15.1427 15.7543 17.2233 15.7543C19.6644 15.7543 21.7449 14.7389 23.6035 11.8848L23.9087 11.4182C24.1584 11.034 24.2138 10.8968 24.2138 10.7321C24.2138 10.5675 24.1306 10.4303 23.8255 10.2381L20.6908 8.28966C20.5244 8.17989 20.3857 8.125 20.247 8.125C20.0805 8.125 19.9696 8.20733 19.8031 8.45432L19.3038 9.22274C18.5271 10.4028 17.8335 10.787 16.9459 10.787C16.1691 10.787 15.2537 10.5675 14.1163 10.0186L10.843 8.48177C10.5101 8.3171 10.1495 8.39943 9.98302 8.78364L8.42956 12.1866C8.26312 12.5708 8.37408 12.8178 8.76245 13.0099Z" fill="#1868DB"/>
</svg>
