<svg width="456" height="32" viewBox="0 0 456 32" fill="none" xmlns="http://www.w3.org/2000/svg">
<path d="M451.856 20.5797C451.856 21.929 452.653 22.849 454.279 22.849C454.892 22.849 455.475 22.7264 455.935 22.6344V25.1797C455.475 25.3024 454.953 25.425 454.156 25.425C450.875 25.425 449.28 23.493 449.28 20.641V12.453H446.796V9.99969H449.28V6.74902H451.856V9.99969H455.935V12.453H451.856V20.5797Z" fill="#1E1F21"/>
<path d="M444.529 16.348V25.3334H441.892V16.072C441.892 13.312 440.788 12.0854 438.273 12.0854C435.82 12.0854 434.133 13.7107 434.133 16.808V25.3334H431.496V10H434.133V12.5147C435.115 10.7054 436.924 9.69336 438.979 9.69336C442.505 9.69336 444.529 12.116 444.529 16.348Z" fill="#1E1F21"/>
<path d="M421.609 12.0854C418.818 12.0854 417.407 13.8947 417.131 16.5627H425.687C425.534 13.7107 424.246 12.0854 421.609 12.0854ZM427.497 24.72C426.239 25.3947 424.307 25.64 422.743 25.64C417.009 25.64 414.494 22.328 414.494 17.636C414.494 13.0054 417.07 9.69336 421.731 9.69336C426.454 9.69336 428.355 12.9747 428.355 17.636V18.832H417.162C417.53 21.4387 419.217 23.1254 422.835 23.1254C424.614 23.1254 426.117 22.788 427.497 22.2974V24.72Z" fill="#1E1F21"/>
<path d="M401.344 16.808V25.3334H398.707V16.072C398.707 13.312 397.603 12.0854 395.088 12.0854C392.635 12.0854 390.948 13.7107 390.948 16.808V25.3334H388.311V10H390.948V12.5147C391.929 10.7054 393.739 9.69336 395.793 9.69336C398.4 9.69336 400.179 11.012 400.945 13.4347C401.804 11.0734 403.859 9.69336 406.404 9.69336C409.839 9.69336 411.74 12.024 411.74 16.348V25.3334H409.103V16.808C409.103 13.6494 407.999 12.0854 405.484 12.0854C403.031 12.0854 401.344 13.7107 401.344 16.808Z" fill="#1E1F21"/>
<path d="M378.424 12.0854C375.633 12.0854 374.222 13.8947 373.946 16.5627H382.502C382.349 13.7107 381.061 12.0854 378.424 12.0854ZM384.312 24.72C383.054 25.3947 381.122 25.64 379.558 25.64C373.824 25.64 371.309 22.328 371.309 17.636C371.309 13.0054 373.885 9.69336 378.546 9.69336C383.269 9.69336 385.17 12.9747 385.17 17.636V18.832H373.977C374.345 21.4387 376.032 23.1254 379.65 23.1254C381.429 23.1254 382.932 22.788 384.312 22.2974V24.72Z" fill="#1E1F21"/>
<path d="M365.673 24.1067V22.5734C364.692 24.5974 362.852 25.64 360.49 25.64C356.442 25.64 354.418 22.1747 354.418 17.6667C354.418 13.3427 356.534 9.69336 360.797 9.69336C363.036 9.69336 364.753 10.7054 365.673 12.6987V10H368.249V23.9534C368.249 28.4614 366.133 31.4974 360.644 31.4974C358.068 31.4974 356.657 31.16 355.185 30.6694V28.0934C356.872 28.6454 358.62 29.0134 360.521 29.0134C364.354 29.0134 365.673 26.9587 365.673 24.1067ZM356.994 17.6667C356.994 21.3467 358.466 23.1867 361.196 23.1867C363.557 23.1867 365.673 21.684 365.673 18.28V17.0534C365.673 13.6494 363.741 12.1467 361.502 12.1467C358.528 12.1467 356.994 14.1094 356.994 17.6667Z" fill="#1E1F21"/>
<path d="M340.045 17.6667C340.045 21.3467 341.517 23.1867 344.247 23.1867C346.608 23.1867 348.724 21.684 348.724 18.28V17.0534C348.724 13.6494 346.792 12.1467 344.553 12.1467C341.579 12.1467 340.045 14.1094 340.045 17.6667ZM348.724 25.3334V22.5734C347.743 24.5974 345.903 25.64 343.541 25.64C339.463 25.64 337.408 22.1747 337.408 17.6667C337.408 13.3427 339.555 9.69336 343.848 9.69336C346.087 9.69336 347.804 10.7054 348.724 12.6987V10H351.361V25.3334H348.724Z" fill="#1E1F21"/>
<path d="M334.65 16.348V25.3334H332.013V16.072C332.013 13.312 330.909 12.0854 328.394 12.0854C325.941 12.0854 324.254 13.7107 324.254 16.808V25.3334H321.617V10H324.254V12.5147C325.236 10.7054 327.045 9.69336 329.1 9.69336C332.626 9.69336 334.65 12.116 334.65 16.348Z" fill="#1E1F21"/>
<path d="M306.324 17.6667C306.324 21.3467 307.796 23.1867 310.525 23.1867C312.887 23.1867 315.003 21.684 315.003 18.28V17.0534C315.003 13.6494 313.071 12.1467 310.832 12.1467C307.857 12.1467 306.324 14.1094 306.324 17.6667ZM315.003 25.3334V22.5734C314.021 24.5974 312.181 25.64 309.82 25.64C305.741 25.64 303.687 22.1747 303.687 17.6667C303.687 13.3427 305.833 9.69336 310.127 9.69336C312.365 9.69336 314.083 10.7054 315.003 12.6987V10H317.64V25.3334H315.003Z" fill="#1E1F21"/>
<path d="M283.557 14.3242L280.797 6.84155V25.3335H278.037V5.18555H282.821L287.39 16.7469L289.261 22.2975L291.132 16.7469L295.732 5.18555H300.178V25.3335H297.418V7.05621L295.057 14.3242L290.61 25.3335H287.942L283.557 14.3242Z" fill="#1E1F21"/>
<path d="M262.046 12.0854C259.255 12.0854 257.845 13.8947 257.569 16.5627H266.125C265.971 13.7107 264.683 12.0854 262.046 12.0854ZM267.934 24.72C266.677 25.3947 264.745 25.64 263.181 25.64C257.446 25.64 254.931 22.328 254.931 17.636C254.931 13.0054 257.507 9.69336 262.169 9.69336C266.891 9.69336 268.793 12.9747 268.793 17.636V18.832H257.599C257.967 21.4387 259.654 23.1254 263.273 23.1254C265.051 23.1254 266.554 22.788 267.934 22.2974V24.72Z" fill="#1E1F21"/>
<path d="M252.841 22.5734V24.9347C251.921 25.4254 250.51 25.64 249.099 25.64C243.641 25.64 241.095 22.328 241.095 17.636C241.095 13.0054 243.641 9.69336 249.099 9.69336C250.479 9.69336 251.553 9.87736 252.749 10.4294V12.8827C251.767 12.4227 250.725 12.1467 249.283 12.1467C245.297 12.1467 243.671 14.6614 243.671 17.636C243.671 20.6107 245.327 23.1254 249.345 23.1254C250.909 23.1254 251.89 22.9107 252.841 22.5734Z" fill="#1E1F21"/>
<path d="M234.906 5.9523C234.906 4.78697 235.673 4.1123 236.746 4.1123C237.82 4.1123 238.586 4.78697 238.586 5.9523C238.586 7.11764 237.82 7.7923 236.746 7.7923C235.673 7.7923 234.906 7.11764 234.906 5.9523ZM235.397 25.3336V10.0003H238.034V25.3336H235.397Z" fill="#1E1F21"/>
<path d="M227.163 25.3338H223.637L217.688 10.0005H220.447L225.416 23.0952L230.353 10.0005H233.113L227.163 25.3338Z" fill="#1E1F21"/>
<path d="M211.709 16.2874V25.334H209.133V10.0007H211.709V12.6994C212.598 10.89 214.131 9.60204 217.137 9.78604V12.362C213.763 12.0247 211.709 13.0367 211.709 16.2874Z" fill="#1E1F21"/>
<path d="M199.245 12.0854C196.455 12.0854 195.044 13.8947 194.768 16.5627H203.324C203.171 13.7107 201.883 12.0854 199.245 12.0854ZM205.133 24.72C203.876 25.3947 201.944 25.64 200.38 25.64C194.645 25.64 192.131 22.328 192.131 17.636C192.131 13.0054 194.707 9.69336 199.368 9.69336C204.091 9.69336 205.992 12.9747 205.992 17.636V18.832H194.799C195.167 21.4387 196.853 23.1254 200.472 23.1254C202.251 23.1254 203.753 22.788 205.133 22.2974V24.72Z" fill="#1E1F21"/>
<path d="M189.806 19.7834C189.806 23.2794 187.721 25.6407 182.722 25.6407C178.828 25.6407 177.018 24.8741 175.454 24.0767V21.2554C177.325 22.2367 180.208 22.9421 182.876 22.9421C185.912 22.9421 187.046 21.7461 187.046 19.9674C187.046 18.1887 185.942 17.2381 182.109 16.3181C177.57 15.2141 175.546 13.6501 175.546 10.3381C175.546 7.21006 177.938 4.87939 182.63 4.87939C185.544 4.87939 187.414 5.58473 188.794 6.3514V9.1114C186.77 7.94606 184.593 7.57806 182.508 7.57806C179.87 7.57806 178.306 8.49806 178.306 10.3381C178.306 11.9941 179.594 12.8221 183.152 13.7114C187.414 14.7847 189.806 16.1647 189.806 19.7834Z" fill="#1E1F21"/>
<path d="M163.402 16.2874V25.334H160.826V10.0007H163.402V12.6994C164.292 10.89 165.825 9.60204 168.83 9.78604V12.362C165.457 12.0247 163.402 13.0367 163.402 16.2874Z" fill="#1E1F21"/>
<path d="M150.939 12.0854C148.148 12.0854 146.738 13.8947 146.462 16.5627H155.018C154.864 13.7107 153.576 12.0854 150.939 12.0854ZM156.827 24.72C155.57 25.3947 153.638 25.64 152.074 25.64C146.339 25.64 143.824 22.328 143.824 17.636C143.824 13.0054 146.4 9.69336 151.062 9.69336C155.784 9.69336 157.686 12.9747 157.686 17.636V18.832H146.492C146.86 21.4387 148.547 23.1254 152.166 23.1254C153.944 23.1254 155.447 22.788 156.827 22.2974V24.72Z" fill="#1E1F21"/>
<path d="M130.675 16.808V25.3334H128.038V16.072C128.038 13.312 126.934 12.0854 124.419 12.0854C121.966 12.0854 120.279 13.7107 120.279 16.808V25.3334H117.642V10H120.279V12.5147C121.26 10.7054 123.07 9.69336 125.124 9.69336C127.731 9.69336 129.51 11.012 130.276 13.4347C131.135 11.0734 133.19 9.69336 135.735 9.69336C139.17 9.69336 141.071 12.024 141.071 16.348V25.3334H138.434V16.808C138.434 13.6494 137.33 12.0854 134.815 12.0854C132.362 12.0854 130.675 13.7107 130.675 16.808Z" fill="#1E1F21"/>
<path d="M107.339 25.64C102.739 25.64 100.041 22.236 100.041 17.636C100.041 13.036 102.739 9.69336 107.339 9.69336C111.909 9.69336 114.577 13.036 114.577 17.636C114.577 22.236 111.909 25.64 107.339 25.64ZM107.339 12.1467C104.058 12.1467 102.617 14.7227 102.617 17.636C102.617 20.5494 104.058 23.1867 107.339 23.1867C110.59 23.1867 112.001 20.5494 112.001 17.636C112.001 14.7227 110.59 12.1467 107.339 12.1467Z" fill="#1E1F21"/>
<path d="M94.0983 20.5797C94.0983 21.929 94.8957 22.849 96.521 22.849C97.1343 22.849 97.717 22.7264 98.177 22.6344V25.1797C97.717 25.3024 97.1957 25.425 96.3983 25.425C93.117 25.425 91.5223 23.493 91.5223 20.641V12.453H89.0383V9.99969H91.5223V6.74902H94.0983V9.99969H98.177V12.453H94.0983V20.5797Z" fill="#1E1F21"/>
<path d="M87.4027 21.1627C87.4027 23.708 85.7467 25.64 81.6374 25.64C79.3374 25.64 77.4667 25.1187 76.3014 24.5054V21.7147C77.62 22.4814 79.828 23.2174 81.76 23.2174C83.784 23.2174 84.8267 22.3894 84.8267 21.1934C84.8267 20.028 83.9374 19.3534 81.024 18.648C77.62 17.82 76.1787 16.5014 76.1787 13.9867C76.1787 11.3187 78.2334 9.69336 81.7294 9.69336C83.7227 9.69336 85.532 10.184 86.6667 10.7974V13.5267C84.8267 12.6067 83.324 12.116 81.6987 12.116C79.7667 12.116 78.724 12.7907 78.724 13.9867C78.724 15.06 79.46 15.7347 82.2814 16.4094C85.6854 17.2374 87.4027 18.4947 87.4027 21.1627Z" fill="#1E1F21"/>
<path d="M59.8049 18.9858V10.0005H62.4423V19.2618C62.4423 22.0218 63.5463 23.2485 66.0609 23.2485C68.5143 23.2485 70.2009 21.6232 70.2009 18.5258V10.0005H72.8383V25.3338H70.2009V22.8192C69.2196 24.6285 67.4103 25.6405 65.3556 25.6405C61.8289 25.6405 59.8049 23.2178 59.8049 18.9858Z" fill="#1E1F21"/>
<path d="M56.9279 21.7767V24.4447C55.6706 25.2727 53.6772 25.6407 51.5919 25.6407C44.9679 25.6407 41.2266 21.6541 41.2266 15.3061C41.2266 9.17273 44.9679 4.87939 51.5306 4.87939C53.4932 4.87939 55.4559 5.2474 56.8972 6.29006V8.95806C55.4559 8.03806 53.8612 7.54739 51.5306 7.54739C46.8079 7.54739 43.9866 10.6754 43.9866 15.3061C43.9866 19.9367 46.8999 23.0034 51.6839 23.0034C53.7999 23.0034 55.4559 22.5127 56.9279 21.7767Z" fill="#1E1F21"/>
<path d="M0 8C0 3.58172 3.58172 0 8 0H24C28.4183 0 32 3.58172 32 8V24C32 28.4183 28.4183 32 24 32H8C3.58172 32 0 28.4183 0 24V8Z" fill="#FFC716"/>
<path d="M21.907 23.2265C20.298 24.5432 18.2413 25.3332 16.0001 25.3332H8.53341V24.7109L13.6514 19.6686C14.3291 20.1033 15.1352 20.3554 16.0001 20.3554C16.8651 20.3554 17.6712 20.1032 18.3489 19.6684L21.907 23.2265Z" fill="#101214"/>
<path d="M23.2269 21.9066C24.5435 20.2976 25.3334 18.241 25.3334 15.9998C25.3334 13.7587 24.5435 11.702 23.2269 10.0931L19.6688 13.6512C20.1035 14.3289 20.3556 15.1349 20.3556 15.9998C20.3556 16.8648 20.1035 17.6708 19.6688 18.3485L23.2269 21.9066Z" fill="#101214"/>
<path d="M21.907 8.77315L18.3489 12.3312C17.6712 11.8964 16.8651 11.6443 16.0001 11.6443C15.1352 11.6443 14.3291 11.8964 13.6514 12.3311L10.0933 8.77302C11.7023 7.45642 13.7589 6.6665 16.0001 6.6665C18.2413 6.6665 20.298 7.45647 21.907 8.77315Z" fill="#101214"/>
<path d="M8.7734 10.0929C7.45671 11.7019 6.66675 13.7586 6.66675 15.9998C6.66675 18.2411 7.45671 20.2978 8.7734 21.9067L12.3315 18.3486C11.8967 17.6709 11.6445 16.8648 11.6445 15.9998C11.6445 15.1348 11.8967 14.3287 12.3315 13.651L8.7734 10.0929Z" fill="#101214"/>
</svg>
