<svg width="117" height="32" viewBox="0 0 117 32" fill="none" xmlns="http://www.w3.org/2000/svg">
<path d="M116.033 21.1627C116.033 23.708 114.377 25.64 110.268 25.64C107.968 25.64 106.097 25.1187 104.932 24.5054V21.7147C106.251 22.4814 108.459 23.2174 110.391 23.2174C112.415 23.2174 113.457 22.3894 113.457 21.1934C113.457 20.028 112.568 19.3534 109.655 18.648C106.251 17.82 104.809 16.5014 104.809 13.9867C104.809 11.3187 106.864 9.69336 110.36 9.69336C112.353 9.69336 114.163 10.184 115.297 10.7974V13.5267C113.457 12.6067 111.955 12.116 110.329 12.116C108.397 12.116 107.355 12.7907 107.355 13.9867C107.355 15.06 108.091 15.7347 110.912 16.4094C114.316 17.2374 116.033 18.4947 116.033 21.1627Z" fill="#1E1F21"/>
<path d="M88.4355 18.9853V10H91.0729V19.2613C91.0729 22.0213 92.1769 23.248 94.6915 23.248C97.1449 23.248 98.8315 21.6227 98.8315 18.5253V10H101.469V25.3333H98.8315V22.8187C97.8502 24.628 96.0409 25.64 93.9862 25.64C90.4595 25.64 88.4355 23.2173 88.4355 18.9853Z" fill="#1E1F21"/>
<path d="M85.7317 22.5734V24.9347C84.8117 25.4254 83.401 25.64 81.9903 25.64C76.5317 25.64 73.9863 22.328 73.9863 17.636C73.9863 13.0054 76.5317 9.69336 81.9903 9.69336C83.3703 9.69336 84.4437 9.87736 85.6397 10.4294V12.8827C84.6583 12.4227 83.6157 12.1467 82.1743 12.1467C78.1877 12.1467 76.5623 14.6614 76.5623 17.636C76.5623 20.6107 78.2183 23.1254 82.2357 23.1254C83.7997 23.1254 84.781 22.9107 85.7317 22.5734Z" fill="#1E1F21"/>
<path d="M64.6041 25.64C60.0041 25.64 57.3054 22.236 57.3054 17.636C57.3054 13.036 60.0041 9.69336 64.6041 9.69336C69.1734 9.69336 71.8414 13.036 71.8414 17.636C71.8414 22.236 69.1734 25.64 64.6041 25.64ZM64.6041 12.1467C61.3228 12.1467 59.8814 14.7227 59.8814 17.636C59.8814 20.5494 61.3228 23.1867 64.6041 23.1867C67.8548 23.1867 69.2654 20.5494 69.2654 17.636C69.2654 14.7227 67.8548 12.1467 64.6041 12.1467Z" fill="#1E1F21"/>
<path d="M54.6282 17.8197H45.4895V25.3331H42.7295V5.18506H55.6708V7.82239H45.4895V15.1824H54.6282V17.8197Z" fill="#1E1F21"/>
<path d="M0 8C0 3.58172 3.58172 0 8 0H24C28.4183 0 32 3.58172 32 8V24C32 28.4183 28.4183 32 24 32H8C3.58172 32 0 28.4183 0 24V8Z" fill="#FB9700"/>
<path d="M27.6066 16.2721C25.4309 14.0963 21.8945 14.1195 19.7418 16.2721L17.9303 18.0837C16.9301 19.0839 15.3054 19.0839 14.3052 18.0837L12.8001 16.5785L8.86673 20.5119L10.3719 22.0171C13.544 25.1892 18.6896 25.1892 21.8617 22.0171L27.6066 16.2721ZM4.625 15.7305C6.80079 17.9062 10.2928 17.9274 12.4686 15.7517L14.3033 13.917C15.3035 12.9168 16.9281 12.9168 17.9283 13.917L19.4335 15.4221L23.3668 11.4887L21.8617 9.9836C18.6896 6.81146 13.544 6.81146 10.3719 9.9836L4.62693 15.7285L4.625 15.7305Z" fill="#101214"/>
</svg>
