<svg width="116" height="32" viewBox="0 0 116 32" fill="none" xmlns="http://www.w3.org/2000/svg">
<path d="M115.554 21.1627C115.554 23.708 113.898 25.64 109.788 25.64C107.488 25.64 105.618 25.1187 104.452 24.5054V21.7147C105.771 22.4814 107.979 23.2174 109.911 23.2174C111.935 23.2174 112.978 22.3894 112.978 21.1934C112.978 20.028 112.089 19.3534 109.175 18.648C105.771 17.82 104.33 16.5014 104.33 13.9867C104.33 11.3187 106.384 9.69336 109.88 9.69336C111.874 9.69336 113.683 10.184 114.818 10.7974V13.5267C112.978 12.6067 111.475 12.116 109.85 12.116C107.918 12.116 106.875 12.7907 106.875 13.9867C106.875 15.06 107.611 15.7347 110.433 16.4094C113.837 17.2374 115.554 18.4947 115.554 21.1627Z" fill="#1E1F21"/>
<path d="M102.436 25.3028C102.222 25.3642 101.762 25.4255 101.087 25.4255C98.5722 25.4255 96.9775 24.2295 96.9775 21.4082V3.59082H99.6149V21.1015C99.6149 22.4815 100.535 22.9722 101.67 22.9722C101.946 22.9722 102.13 22.9722 102.436 22.9415V25.3028Z" fill="#1E1F21"/>
<path d="M81.6845 17.6667C81.6845 21.3467 83.1565 23.1867 85.8858 23.1867C88.2471 23.1867 90.3631 21.684 90.3631 18.28V17.0534C90.3631 13.6494 88.4311 12.1467 86.1925 12.1467C83.2178 12.1467 81.6845 14.1094 81.6845 17.6667ZM90.3631 25.3334V22.5734C89.3818 24.5974 87.5418 25.64 85.1805 25.64C81.1018 25.64 79.0471 22.1747 79.0471 17.6667C79.0471 13.3427 81.1938 9.69336 85.4871 9.69336C87.7258 9.69336 89.4431 10.7054 90.3631 12.6987V10H93.0005V25.3334H90.3631Z" fill="#1E1F21"/>
<path d="M69.6649 25.64C65.0649 25.64 62.3662 22.236 62.3662 17.636C62.3662 13.036 65.0649 9.69336 69.6649 9.69336C74.2342 9.69336 76.9022 13.036 76.9022 17.636C76.9022 22.236 74.2342 25.64 69.6649 25.64ZM69.6649 12.1467C66.3835 12.1467 64.9422 14.7227 64.9422 17.636C64.9422 20.5494 66.3835 23.1867 69.6649 23.1867C72.9155 23.1867 74.3262 20.5494 74.3262 17.636C74.3262 14.7227 72.9155 12.1467 69.6649 12.1467Z" fill="#1E1F21"/>
<path d="M58.7066 24.1993C57.1119 25.15 54.1679 25.6406 51.8986 25.6406C44.9679 25.6406 41.2266 21.4086 41.2266 15.306C41.2266 8.7433 45.4892 4.84863 52.6652 4.84863C54.2599 4.84863 56.1306 5.03263 57.9092 5.64597V8.40597C56.3759 7.79263 54.5666 7.51663 52.6959 7.51663C46.7159 7.51663 43.9866 10.4913 43.9866 15.2446C43.9866 19.906 46.7466 23.0033 52.5426 23.0033C53.4932 23.0033 54.8119 22.9113 55.9466 22.574V16.962H50.7946V14.3246H58.7066V24.1993Z" fill="#1E1F21"/>
<path d="M0 8C0 3.58172 3.58172 0 8 0H24C28.4183 0 32 3.58172 32 8V24C32 28.4183 28.4183 32 24 32H8C3.58172 32 0 28.4183 0 24V8Z" fill="#DDDEE1"/>
<path d="M19.3594 16C19.3594 17.8553 17.8553 19.3594 16 19.3594C14.1447 19.3594 12.6406 17.8553 12.6406 16C12.6406 14.1447 14.1447 12.6406 16 12.6406C17.8553 12.6406 19.3594 14.1447 19.3594 16Z" fill="#101214"/>
<path fill-rule="evenodd" clip-rule="evenodd" d="M16 25.375C21.1777 25.375 25.375 21.1777 25.375 16C25.375 10.8223 21.1777 6.625 16 6.625C10.8223 6.625 6.625 10.8223 6.625 16C6.625 21.1777 10.8223 25.375 16 25.375ZM21.8594 16C21.8594 19.236 19.236 21.8594 16 21.8594C12.764 21.8594 10.1406 19.236 10.1406 16C10.1406 12.764 12.764 10.1406 16 10.1406C19.236 10.1406 21.8594 12.764 21.8594 16Z" fill="#101214"/>
</svg>
