<svg width="95" height="32" viewBox="0 0 95 32" fill="none" xmlns="http://www.w3.org/2000/svg">
<path d="M91.6099 17.6668C91.6099 13.9868 90.1379 12.1468 87.4086 12.1468C85.0473 12.1468 82.9313 13.6495 82.9313 17.0535V18.2802C82.9313 21.6842 84.8633 23.1868 87.1019 23.1868C90.0766 23.1868 91.6099 21.2242 91.6099 17.6668ZM87.8073 25.6402C85.5686 25.6402 83.8513 24.6282 82.9313 22.6348V25.3335H80.2939V3.59082H82.9313V12.7602C83.9126 10.7362 85.7526 9.69349 88.114 9.69349C92.1926 9.69349 94.2473 13.1588 94.2473 17.6668C94.2473 21.9908 92.1006 25.6402 87.8073 25.6402Z" fill="#1E1F21"/>
<path d="M63.2764 18.9848V9.99951H65.9137V19.2608C65.9137 22.0208 67.0177 23.2475 69.5324 23.2475C71.9857 23.2475 73.6724 21.6222 73.6724 18.5248V9.99951H76.3097V25.3328H73.6724V22.8182C72.691 24.6275 70.8817 25.6395 68.827 25.6395C65.3004 25.6395 63.2764 23.2168 63.2764 18.9848Z" fill="#1E1F21"/>
<path d="M56.4039 5.18457H59.1639V25.3326H56.4039V16.6232H45.7932V25.3326H43.0332V5.18457H45.7932V13.9859H56.4039V5.18457Z" fill="#1E1F21"/>
<path d="M0 8C0 3.58172 3.58172 0 8 0H24C28.4183 0 32 3.58172 32 8V24C32 28.4183 28.4183 32 24 32H8C3.58172 32 0 28.4183 0 24V8Z" fill="#DDDEE1"/>
<path fill-rule="evenodd" clip-rule="evenodd" d="M9 25.3332V6.6665H23V25.3332H17.7503V21.2498H14.2503V25.3332H9ZM12.5 10.7498H14.8333V8.99984H12.5V10.7498ZM17.1667 10.7498H19.5V8.99984H17.1667V10.7498ZM14.8333 14.8332H12.5V13.0832H14.8333V14.8332ZM12.5 18.9165H14.8333V17.1665H12.5V18.9165ZM19.5 14.8332H17.1667V13.0832H19.5V14.8332ZM17.1667 18.9165H19.5V17.1665H17.1667V18.9165Z" fill="#101214"/>
</svg>
