<svg width="83" height="32" viewBox="0 0 83 32" fill="none" xmlns="http://www.w3.org/2000/svg">
<path d="M71.0231 17.6667C71.0231 21.3467 72.4951 23.1867 75.2244 23.1867C77.5857 23.1867 79.7017 21.684 79.7017 18.28V17.0534C79.7017 13.6494 77.7697 12.1467 75.5311 12.1467C72.5564 12.1467 71.0231 14.1094 71.0231 17.6667ZM79.7017 25.3334V22.5734C78.7204 24.5974 76.8804 25.64 74.5191 25.64C70.4404 25.64 68.3857 22.1747 68.3857 17.6667C68.3857 13.3427 70.5324 9.69336 74.8257 9.69336C77.0644 9.69336 78.7817 10.7054 79.7017 12.6987V10H82.3391V25.3334H79.7017Z" fill="#1E1F21"/>
<path d="M61.909 16.2869V25.3336H59.333V10.0002H61.909V12.6989C62.7983 10.8896 64.3317 9.60156 67.337 9.78556V12.3616C63.9637 12.0242 61.909 13.0362 61.909 16.2869Z" fill="#1E1F21"/>
<path d="M52.2239 5.95182C52.2239 4.78648 52.9905 4.11182 54.0639 4.11182C55.1372 4.11182 55.9039 4.78648 55.9039 5.95182C55.9039 7.11715 55.1372 7.79182 54.0639 7.79182C52.9905 7.79182 52.2239 7.11715 52.2239 5.95182ZM52.7145 25.3332V9.99982H55.3519V25.3332H52.7145Z" fill="#1E1F21"/>
<path d="M46.2866 19.3837V5.18506H49.0466V19.1997C49.0466 22.9104 47.4213 25.4557 43.6186 25.4557C42.1773 25.4557 41.0733 25.2104 40.3066 24.9344V22.2664C41.1346 22.6037 42.1466 22.7877 43.1586 22.7877C45.4893 22.7877 46.2866 21.3771 46.2866 19.3837Z" fill="#1E1F21"/>
<path d="M0 8C0 3.58172 3.58172 0 8 0H24C28.4183 0 32 3.58172 32 8V24C32 28.4183 28.4183 32 24 32H8C3.58172 32 0 28.4183 0 24V8Z" fill="#1868DB"/>
<path d="M11.9648 20.6977H10.1617C7.44232 20.6977 5.49146 19.0321 5.49146 16.5931H15.1867C15.6892 16.5931 16.0143 16.95 16.0143 17.4557V27.2117C13.5905 27.2117 11.9648 25.2486 11.9648 22.5121V20.6977ZM16.7533 15.8495H14.9502C12.2308 15.8495 10.2799 14.2136 10.2799 11.7745H19.9751C20.4776 11.7745 20.8323 12.1017 20.8323 12.6074V22.3634C18.4085 22.3634 16.7533 20.4003 16.7533 17.6639V15.8495ZM21.5713 11.0309H19.7682C17.0489 11.0309 15.098 9.36528 15.098 6.92627H24.7932C25.2957 6.92627 25.6208 7.2832 25.6208 7.7591V17.5151C23.197 17.5151 21.5713 15.552 21.5713 12.8156V11.0309Z" fill="white"/>
</svg>
