<svg width="83" height="32" viewBox="0 0 83 32" fill="none" xmlns="http://www.w3.org/2000/svg">
<path d="M71.0231 17.6664C71.0231 21.3464 72.4951 23.1864 75.2244 23.1864C77.5857 23.1864 79.7017 21.6837 79.7017 18.2797V17.0531C79.7017 13.6491 77.7697 12.1464 75.5311 12.1464C72.5564 12.1464 71.0231 14.1091 71.0231 17.6664ZM79.7017 25.3331V22.5731C78.7204 24.5971 76.8804 25.6397 74.5191 25.6397C70.4404 25.6397 68.3857 22.1744 68.3857 17.6664C68.3857 13.3424 70.5324 9.69305 74.8257 9.69305C77.0644 9.69305 78.7817 10.7051 79.7017 12.6984V9.99972H82.3391V25.3331H79.7017Z" fill="#1E1F21"/>
<path d="M61.909 16.2861V25.3328H59.333V9.99943H61.909V12.6981C62.7983 10.8888 64.3317 9.60076 67.337 9.78476V12.3608C63.9637 12.0234 61.909 13.0354 61.909 16.2861Z" fill="#1E1F21"/>
<path d="M52.2239 5.95169C52.2239 4.78636 52.9906 4.11169 54.0639 4.11169C55.1373 4.11169 55.9039 4.78636 55.9039 5.95169C55.9039 7.11703 55.1373 7.79169 54.0639 7.79169C52.9906 7.79169 52.2239 7.11703 52.2239 5.95169ZM52.7146 25.333V9.9997H55.3519V25.333H52.7146Z" fill="#1E1F21"/>
<path d="M46.2866 19.3839V5.18524H49.0466V19.1999C49.0466 22.9106 47.4213 25.4559 43.6186 25.4559C42.1773 25.4559 41.0733 25.2106 40.3066 24.9346V22.2666C41.1346 22.6039 42.1466 22.7879 43.1586 22.7879C45.4893 22.7879 46.2866 21.3772 46.2866 19.3839Z" fill="#1E1F21"/>
<path d="M8 0.666992H24C28.0501 0.666992 31.333 3.94991 31.333 8V24C31.333 28.0501 28.0501 31.333 24 31.333H8C3.94991 31.333 0.666992 28.0501 0.666992 24V8C0.666992 3.94991 3.94991 0.666992 8 0.666992Z" fill="white"/>
<path d="M8 0.666992H24C28.0501 0.666992 31.333 3.94991 31.333 8V24C31.333 28.0501 28.0501 31.333 24 31.333H8C3.94991 31.333 0.666992 28.0501 0.666992 24V8C0.666992 3.94991 3.94991 0.666992 8 0.666992Z" stroke="#DDDEE1" stroke-width="1.33333"/>
<path d="M11.9647 20.6988H10.1616C7.4422 20.6988 5.49133 19.0332 5.49133 16.5942H15.1865C15.689 16.5942 16.0142 16.9511 16.0142 17.4567V27.2128C13.5904 27.2128 11.9647 25.2497 11.9647 22.5132V20.6988ZM16.7531 15.8506H14.9501C12.2307 15.8506 10.2798 14.2147 10.2798 11.7756H19.975C20.4775 11.7756 20.8322 12.1028 20.8322 12.6085V22.3645C18.4084 22.3645 16.7531 20.4014 16.7531 17.665V15.8506ZM21.5712 11.032H19.7681C17.0487 11.032 15.0979 9.36638 15.0979 6.92737H24.7931C25.2956 6.92737 25.6207 7.2843 25.6207 7.7602V17.5162C23.1969 17.5162 21.5712 15.5531 21.5712 12.8167V11.032Z" fill="#1868DB"/>
</svg>
