<svg width="372" height="32" viewBox="0 0 372 32" fill="none" xmlns="http://www.w3.org/2000/svg">
<path d="M367.074 20.58C367.074 21.9293 367.871 22.8493 369.496 22.8493C370.11 22.8493 370.692 22.7267 371.152 22.6347V25.18C370.692 25.3027 370.171 25.4253 369.374 25.4253C366.092 25.4253 364.498 23.4933 364.498 20.6413V12.4533H362.014V10H364.498V6.74933H367.074V10H371.152V12.4533H367.074V20.58Z" fill="#1E1F21"/>
<path d="M359.747 16.348V25.3333H357.109V16.072C357.109 13.312 356.005 12.0853 353.491 12.0853C351.037 12.0853 349.351 13.7106 349.351 16.808V25.3333H346.713V9.99997H349.351V12.5146C350.332 10.7053 352.141 9.6933 354.196 9.6933C357.723 9.6933 359.747 12.116 359.747 16.348Z" fill="#1E1F21"/>
<path d="M336.826 12.0853C334.035 12.0853 332.625 13.8946 332.349 16.5626H340.905C340.751 13.7106 339.463 12.0853 336.826 12.0853ZM342.714 24.72C341.457 25.3946 339.525 25.64 337.961 25.64C332.226 25.64 329.711 22.328 329.711 17.636C329.711 13.0053 332.287 9.6933 336.949 9.6933C341.671 9.6933 343.573 12.9746 343.573 17.636V18.832H332.379C332.747 21.4386 334.434 23.1253 338.053 23.1253C339.831 23.1253 341.334 22.788 342.714 22.2973V24.72Z" fill="#1E1F21"/>
<path d="M316.562 16.808V25.3333H313.924V16.072C313.924 13.312 312.82 12.0853 310.306 12.0853C307.852 12.0853 306.166 13.7106 306.166 16.808V25.3333H303.528V9.99997H306.166V12.5146C307.147 10.7053 308.956 9.6933 311.011 9.6933C313.618 9.6933 315.396 11.012 316.163 13.4346C317.022 11.0733 319.076 9.6933 321.622 9.6933C325.056 9.6933 326.958 12.024 326.958 16.348V25.3333H324.32V16.808C324.32 13.6493 323.216 12.0853 320.702 12.0853C318.248 12.0853 316.562 13.7106 316.562 16.808Z" fill="#1E1F21"/>
<path d="M293.641 12.0853C290.85 12.0853 289.44 13.8946 289.164 16.5626H297.72C297.566 13.7106 296.278 12.0853 293.641 12.0853ZM299.529 24.72C298.272 25.3946 296.34 25.64 294.776 25.64C289.041 25.64 286.526 22.328 286.526 17.636C286.526 13.0053 289.102 9.6933 293.764 9.6933C298.486 9.6933 300.388 12.9746 300.388 17.636V18.832H289.194C289.562 21.4386 291.249 23.1253 294.868 23.1253C296.646 23.1253 298.149 22.788 299.529 22.2973V24.72Z" fill="#1E1F21"/>
<path d="M280.89 24.1066V22.5733C279.909 24.5973 278.069 25.64 275.708 25.64C271.66 25.64 269.636 22.1746 269.636 17.6666C269.636 13.3426 271.752 9.6933 276.014 9.6933C278.253 9.6933 279.97 10.7053 280.89 12.6986V9.99997H283.466V23.9533C283.466 28.4613 281.35 31.4973 275.861 31.4973C273.285 31.4973 271.874 31.16 270.402 30.6693V28.0933C272.089 28.6453 273.837 29.0133 275.738 29.0133C279.572 29.0133 280.89 26.9586 280.89 24.1066ZM272.212 17.6666C272.212 21.3466 273.684 23.1866 276.413 23.1866C278.774 23.1866 280.89 21.684 280.89 18.28V17.0533C280.89 13.6493 278.958 12.1466 276.72 12.1466C273.745 12.1466 272.212 14.1093 272.212 17.6666Z" fill="#1E1F21"/>
<path d="M255.263 17.6666C255.263 21.3466 256.735 23.1866 259.464 23.1866C261.825 23.1866 263.941 21.684 263.941 18.28V17.0533C263.941 13.6493 262.009 12.1466 259.771 12.1466C256.796 12.1466 255.263 14.1093 255.263 17.6666ZM263.941 25.3333V22.5733C262.96 24.5973 261.12 25.64 258.759 25.64C254.68 25.64 252.625 22.1746 252.625 17.6666C252.625 13.3426 254.772 9.6933 259.065 9.6933C261.304 9.6933 263.021 10.7053 263.941 12.6986V9.99997H266.579V25.3333H263.941Z" fill="#1E1F21"/>
<path d="M249.868 16.348V25.3333H247.23V16.072C247.23 13.312 246.126 12.0853 243.612 12.0853C241.158 12.0853 239.472 13.7106 239.472 16.808V25.3333H236.834V9.99997H239.472V12.5146C240.453 10.7053 242.262 9.6933 244.317 9.6933C247.844 9.6933 249.868 12.116 249.868 16.348Z" fill="#1E1F21"/>
<path d="M221.541 17.6666C221.541 21.3466 223.013 23.1866 225.743 23.1866C228.104 23.1866 230.22 21.684 230.22 18.28V17.0533C230.22 13.6493 228.288 12.1466 226.049 12.1466C223.075 12.1466 221.541 14.1093 221.541 17.6666ZM230.22 25.3333V22.5733C229.239 24.5973 227.399 25.64 225.037 25.64C220.959 25.64 218.904 22.1746 218.904 17.6666C218.904 13.3426 221.051 9.6933 225.344 9.6933C227.583 9.6933 229.3 10.7053 230.22 12.6986V9.99997H232.857V25.3333H230.22Z" fill="#1E1F21"/>
<path d="M198.775 14.324L196.015 6.8413V25.3333H193.255V5.1853H198.039L202.608 16.7466L204.479 22.2973L206.349 16.7466L210.949 5.1853H215.396V25.3333H212.636V7.05597L210.275 14.324L205.828 25.3333H203.16L198.775 14.324Z" fill="#1E1F21"/>
<path d="M177.263 12.0853C174.473 12.0853 173.062 13.8946 172.786 16.5626H181.342C181.189 13.7106 179.901 12.0853 177.263 12.0853ZM183.151 24.72C181.894 25.3946 179.962 25.64 178.398 25.64C172.663 25.64 170.149 22.328 170.149 17.636C170.149 13.0053 172.725 9.6933 177.386 9.6933C182.109 9.6933 184.01 12.9746 184.01 17.636V18.832H172.817C173.185 21.4386 174.871 23.1253 178.49 23.1253C180.269 23.1253 181.771 22.788 183.151 22.2973V24.72Z" fill="#1E1F21"/>
<path d="M168.058 22.5733V24.9346C167.138 25.4253 165.728 25.64 164.317 25.64C158.858 25.64 156.313 22.328 156.313 17.636C156.313 13.0053 158.858 9.6933 164.317 9.6933C165.697 9.6933 166.77 9.8773 167.966 10.4293V12.8826C166.985 12.4226 165.942 12.1466 164.501 12.1466C160.514 12.1466 158.889 14.6613 158.889 17.636C158.889 20.6106 160.545 23.1253 164.562 23.1253C166.126 23.1253 167.108 22.9106 168.058 22.5733Z" fill="#1E1F21"/>
<path d="M150.124 5.952C150.124 4.78667 150.89 4.112 151.964 4.112C153.037 4.112 153.804 4.78667 153.804 5.952C153.804 7.11733 153.037 7.792 151.964 7.792C150.89 7.792 150.124 7.11733 150.124 5.952ZM150.614 25.3333V10H153.252V25.3333H150.614Z" fill="#1E1F21"/>
<path d="M142.381 25.3333H138.854L132.905 10H135.665L140.633 23.0947L145.57 10H148.33L142.381 25.3333Z" fill="#1E1F21"/>
<path d="M126.926 16.2866V25.3333H124.35V9.99998H126.926V12.6986C127.815 10.8893 129.349 9.60131 132.354 9.78531V12.3613C128.981 12.024 126.926 13.036 126.926 16.2866Z" fill="#1E1F21"/>
<path d="M114.463 12.0853C111.672 12.0853 110.261 13.8946 109.985 16.5626H118.541C118.388 13.7106 117.1 12.0853 114.463 12.0853ZM120.351 24.72C119.093 25.3946 117.161 25.64 115.597 25.64C109.863 25.64 107.348 22.328 107.348 17.636C107.348 13.0053 109.924 9.6933 114.585 9.6933C119.308 9.6933 121.209 12.9746 121.209 17.636V18.832H110.016C110.384 21.4386 112.071 23.1253 115.689 23.1253C117.468 23.1253 118.971 22.788 120.351 22.2973V24.72Z" fill="#1E1F21"/>
<path d="M105.024 19.7827C105.024 23.2787 102.939 25.64 97.9401 25.64C94.0455 25.64 92.2361 24.8733 90.6721 24.076V21.2547C92.5428 22.236 95.4255 22.9413 98.0935 22.9413C101.129 22.9413 102.264 21.7453 102.264 19.9667C102.264 18.188 101.16 17.2373 97.3268 16.3173C92.7881 15.2133 90.7641 13.6493 90.7641 10.3373C90.7641 7.20933 93.1561 4.87866 97.8481 4.87866C100.761 4.87866 102.632 5.584 104.012 6.35066V9.11066C101.988 7.94533 99.8108 7.57733 97.7255 7.57733C95.0881 7.57733 93.5241 8.49733 93.5241 10.3373C93.5241 11.9933 94.8121 12.8213 98.3695 13.7107C102.632 14.784 105.024 16.164 105.024 19.7827Z" fill="#1E1F21"/>
<path d="M71.0232 17.6666C71.0232 21.3466 72.4952 23.1866 75.2245 23.1866C77.5859 23.1866 79.7019 21.684 79.7019 18.28V17.0533C79.7019 13.6493 77.7699 12.1466 75.5312 12.1466C72.5565 12.1466 71.0232 14.1093 71.0232 17.6666ZM79.7019 25.3333V22.5733C78.7205 24.5973 76.8805 25.64 74.5192 25.64C70.4405 25.64 68.3859 22.1746 68.3859 17.6666C68.3859 13.3426 70.5325 9.6933 74.8259 9.6933C77.0645 9.6933 78.7819 10.7053 79.7019 12.6986V9.99997H82.3392V25.3333H79.7019Z" fill="#1E1F21"/>
<path d="M61.9092 16.2866V25.3333H59.3332V9.99998H61.9092V12.6986C62.7985 10.8893 64.3319 9.60131 67.3372 9.78531V12.3613C63.9639 12.024 61.9092 13.036 61.9092 16.2866Z" fill="#1E1F21"/>
<path d="M52.2241 5.952C52.2241 4.78667 52.9907 4.112 54.0641 4.112C55.1374 4.112 55.9041 4.78667 55.9041 5.952C55.9041 7.11733 55.1374 7.792 54.0641 7.792C52.9907 7.792 52.2241 7.11733 52.2241 5.952ZM52.7147 25.3333V10H55.3521V25.3333H52.7147Z" fill="#1E1F21"/>
<path d="M46.2867 19.384V5.1853H49.0467V19.2C49.0467 22.9106 47.4214 25.456 43.6187 25.456C42.1774 25.456 41.0734 25.2106 40.3067 24.9346V22.2666C41.1347 22.604 42.1467 22.788 43.1587 22.788C45.4894 22.788 46.2867 21.3773 46.2867 19.384Z" fill="#1E1F21"/>
<path d="M8 0.666992H24C28.0501 0.666993 31.333 3.94991 31.333 8V24C31.333 28.0501 28.0501 31.333 24 31.333H8C3.94991 31.333 0.666993 28.0501 0.666992 24V8C0.666992 3.94991 3.94991 0.666992 8 0.666992Z" fill="white"/>
<path d="M8 0.666992H24C28.0501 0.666993 31.333 3.94991 31.333 8V24C31.333 28.0501 28.0501 31.333 24 31.333H8C3.94991 31.333 0.666993 28.0501 0.666992 24V8C0.666992 3.94991 3.94991 0.666992 8 0.666992Z" stroke="#DDDEE1" stroke-width="1.33333"/>
<path d="M18.2678 13.6036H24.2188C25.1126 13.6036 25.4178 14.4538 24.8728 15.1295L15.5647 26.6175C12.5565 24.2196 12.8399 20.4266 15.0415 17.6582L18.2678 13.6036ZM13.6682 18.1814H7.71716C6.82341 18.1814 6.51823 17.3312 7.0632 16.6554L16.3713 5.16748C19.3795 7.56535 19.0525 11.3147 16.8726 14.105L13.6682 18.1814Z" fill="#1868DB"/>
</svg>
