<svg width="103" height="32" viewBox="0 0 103 32" fill="none" xmlns="http://www.w3.org/2000/svg">
<path d="M0 8C0 3.58172 3.58172 0 8 0H24C28.4183 0 32 3.58172 32 8V24C32 28.4183 28.4183 32 24 32H8C3.58172 32 0 28.4183 0 24V8Z" fill="#1868DB"/>
<path d="M25.3752 15.3098H19.9899L24.6538 12.617L23.6296 10.8425L18.9656 13.5352L21.6578 8.87168L19.8832 7.84684L17.1911 12.5104V7.12549H15.1425V12.5109L12.4494 7.84684L10.6754 8.87116L13.3681 13.5347L8.70412 10.8425L7.67983 12.6165L12.3438 15.3093H6.9585V17.3579H12.3433L7.67983 20.0506L8.70412 21.8251L13.3675 19.1329L10.6749 23.7965L12.4494 24.8208L15.142 20.1568V25.5422H17.1906V20.1572L19.8827 24.8208L21.6572 23.7965L18.9646 19.1324L23.6285 21.8251L24.6528 20.0506L19.9894 17.3584H25.3741V15.3098H25.3752ZM16.1668 19.12C14.6222 19.12 13.3701 17.868 13.3701 16.3233C13.3701 14.7785 14.6222 13.5265 16.1668 13.5265C17.7115 13.5265 18.9635 14.7785 18.9635 16.3233C18.9635 17.868 17.7115 19.12 16.1668 19.12Z" fill="white"/>
<path d="M42.667 25.3432V3.93359H46.5977V25.3432H42.667Z" fill="#1E1F21"/>
<path d="M80.3674 10.7937H84.1211V12.5686C84.9188 11.1494 86.7817 10.3799 88.3772 10.3799C90.3583 10.3799 91.9538 11.2379 92.6925 12.8046C93.8444 11.0297 95.3827 10.3799 97.3038 10.3799C99.993 10.3799 102.564 12.0065 102.564 15.9094V25.3429H98.7517V16.7085C98.7517 15.1408 97.9826 13.9584 96.1796 13.9584C94.4946 13.9584 93.4894 15.2597 93.4894 16.8273V25.3438H89.5891V16.7085C89.5891 15.1408 88.7913 13.9584 87.017 13.9584C85.3025 13.9584 84.2972 15.2302 84.2972 16.8273V25.3438H80.3674V10.7937Z" fill="#1E1F21"/>
<path d="M55.4805 25.7651C51.0523 25.7651 47.8457 22.4807 47.8457 18.0693C47.8457 13.7282 51.042 10.3657 55.4805 10.3657C59.9407 10.3657 63.1153 13.7595 63.1153 18.0693C63.1153 22.4486 59.9068 25.7651 55.4805 25.7651ZM55.4805 13.9269C53.1966 13.9269 51.3388 15.7851 51.3388 18.0702C51.3388 20.3552 53.1966 22.2135 55.4805 22.2135C57.7645 22.2135 59.6213 20.3552 59.6213 18.0702C59.6213 15.7851 57.7645 13.9269 55.4805 13.9269Z" fill="#1E1F21"/>
<path d="M71.5113 25.7651C67.0831 25.7651 63.8765 22.4807 63.8765 18.0693C63.8765 13.7282 67.0728 10.3657 71.5113 10.3657C75.9714 10.3657 79.1461 13.7595 79.1461 18.0693C79.1461 22.4486 75.9359 25.7651 71.5113 25.7651ZM71.5113 13.8774C69.2013 13.8774 67.3219 15.7582 67.3219 18.0684C67.3219 20.3787 69.2013 22.2595 71.5113 22.2595C73.8212 22.2595 75.7007 20.3787 75.7007 18.0684C75.6998 15.7582 73.8204 13.8774 71.5113 13.8774Z" fill="#1E1F21"/>
</svg>
