<svg width="106" height="32" viewBox="0 0 106 32" fill="none" xmlns="http://www.w3.org/2000/svg">
<path d="M98.3553 25.64C93.7553 25.64 91.0566 22.236 91.0566 17.636C91.0566 13.036 93.7553 9.69336 98.3553 9.69336C102.925 9.69336 105.593 13.036 105.593 17.636C105.593 22.236 102.925 25.64 98.3553 25.64ZM98.3553 12.1467C95.074 12.1467 93.6326 14.7227 93.6326 17.636C93.6326 20.5494 95.074 23.1867 98.3553 23.1867C101.606 23.1867 103.017 20.5494 103.017 17.636C103.017 14.7227 101.606 12.1467 98.3553 12.1467Z" fill="#1E1F21"/>
<path d="M84.342 25.3333H80.8153L74.866 10H77.626L82.594 23.0947L87.5313 10H90.2913L84.342 25.3333Z" fill="#1E1F21"/>
<path d="M66.88 25.64C62.28 25.64 59.5813 22.236 59.5813 17.636C59.5813 13.036 62.28 9.69336 66.88 9.69336C71.4493 9.69336 74.1173 13.036 74.1173 17.636C74.1173 22.236 71.4493 25.64 66.88 25.64ZM66.88 12.1467C63.5986 12.1467 62.1573 14.7227 62.1573 17.636C62.1573 20.5494 63.5986 23.1867 66.88 23.1867C70.1306 23.1867 71.5413 20.5494 71.5413 17.636C71.5413 14.7227 70.1306 12.1467 66.88 12.1467Z" fill="#1E1F21"/>
<path d="M49.8441 7.82288H45.7961V15.1829H49.8441C53.4321 15.1829 54.5361 13.8029 54.5361 11.5029C54.5361 9.32555 53.4015 7.82288 49.8441 7.82288ZM57.2961 11.4415C57.2961 14.4775 56.0081 16.5322 53.3401 17.3909L58.2775 25.3335H55.0268L50.5801 17.8202C50.4575 17.8202 50.3041 17.8202 50.1508 17.8202H45.7961V25.3335H43.0361V5.18555H50.1508C54.9655 5.18555 57.2961 7.57754 57.2961 11.4415Z" fill="#1E1F21"/>
<path d="M0 8C0 3.58172 3.58172 0 8 0H24C28.4183 0 32 3.58172 32 8V24C32 28.4183 28.4183 32 24 32H8C3.58172 32 0 28.4183 0 24V8Z" fill="#1868DB"/>
<path d="M15.0128 6.28117C15.7045 5.89939 16.5487 5.9064 17.2347 6.30221L23.9092 10.1557C24.6077 10.5587 25.0401 11.3063 25.0401 12.1118V19.8188C25.0401 20.6275 24.6103 21.3719 23.9097 21.7747L18.8925 24.6713C18.9035 24.6405 18.914 24.6094 18.9239 24.5781C19.0171 24.2894 19.0664 23.9842 19.0664 23.6724V15.9653C19.0664 14.9066 18.5033 13.9302 17.5847 13.402L13.8447 11.2437V8.2583C13.8447 8.02306 13.8811 7.79326 13.9499 7.57572C14.1191 7.04924 14.4789 6.59345 14.9713 6.30893L14.9727 6.30807C14.9869 6.29992 15.0003 6.29088 15.0128 6.28117Z" fill="white"/>
<path d="M13.3143 7.26675L8.29711 10.1634C7.5965 10.5662 7.16675 11.3106 7.16675 12.1193V19.8263C7.16675 20.6317 7.59903 21.3794 8.29757 21.7824L14.9721 25.6359C15.6581 26.0316 16.5024 26.0387 17.194 25.6569C17.2065 25.6472 17.2199 25.6382 17.234 25.6301C17.7268 25.3457 18.0872 24.8898 18.2567 24.3631C18.3257 24.1453 18.3621 23.9153 18.3621 23.6798V20.6944L14.6223 18.5362C13.704 18.008 13.1404 17.0314 13.1404 15.9728V8.26574C13.1404 7.95428 13.1896 7.64956 13.2825 7.36116C13.2926 7.32949 13.3032 7.29802 13.3143 7.26675Z" fill="white"/>
</svg>
