<svg width="130" height="32" viewBox="0 0 130 32" fill="none" xmlns="http://www.w3.org/2000/svg">
<path d="M128.818 16.3475V25.3328H126.181V16.8075C126.181 13.6488 125.077 12.0848 122.562 12.0848C120.109 12.0848 118.422 13.7102 118.422 16.8075V25.3328H115.785V3.59018H118.422V12.5448C119.434 10.7355 121.274 9.69285 123.482 9.69285C126.917 9.69285 128.818 12.0235 128.818 16.3475Z" fill="#1E1F21"/>
<path d="M112.774 22.573V24.9344C111.854 25.425 110.444 25.6397 109.033 25.6397C103.574 25.6397 101.029 22.3277 101.029 17.6357C101.029 13.005 103.574 9.69304 109.033 9.69304C110.413 9.69304 111.486 9.87704 112.682 10.429V12.8824C111.701 12.4224 110.658 12.1464 109.217 12.1464C105.23 12.1464 103.605 14.661 103.605 17.6357C103.605 20.6104 105.261 23.125 109.278 23.125C110.842 23.125 111.824 22.9104 112.774 22.573Z" fill="#1E1F21"/>
<path d="M94.5523 16.2861V25.3327H91.9763V9.99941H94.5523V12.6981C95.4417 10.8887 96.975 9.60075 99.9803 9.78475V12.3607C96.607 12.0234 94.5523 13.0354 94.5523 16.2861Z" fill="#1E1F21"/>
<path d="M76.6832 17.6664C76.6832 21.3464 78.1552 23.1864 80.8846 23.1864C83.2459 23.1864 85.3619 21.6837 85.3619 18.2797V17.053C85.3619 13.649 83.4299 12.1464 81.1912 12.1464C78.2166 12.1464 76.6832 14.109 76.6832 17.6664ZM85.3619 25.333V22.573C84.3806 24.597 82.5406 25.6397 80.1792 25.6397C76.1006 25.6397 74.0459 22.1744 74.0459 17.6664C74.0459 13.3424 76.1926 9.69304 80.4859 9.69304C82.7246 9.69304 84.4419 10.705 85.3619 12.6984V9.99971H87.9992V25.333H85.3619Z" fill="#1E1F21"/>
<path d="M65.0785 12.085C62.2879 12.085 60.8772 13.8944 60.6012 16.5624H69.1572C69.0039 13.7104 67.7159 12.085 65.0785 12.085ZM70.9665 24.7197C69.7092 25.3944 67.7772 25.6397 66.2132 25.6397C60.4785 25.6397 57.9639 22.3277 57.9639 17.6357C57.9639 13.005 60.5399 9.69304 65.2012 9.69304C69.9239 9.69304 71.8252 12.9744 71.8252 17.6357V18.8317H60.6319C60.9999 21.4384 62.6865 23.125 66.3052 23.125C68.0839 23.125 69.5865 22.7877 70.9665 22.297V24.7197Z" fill="#1E1F21"/>
<path d="M55.6399 19.7819C55.6399 23.2779 53.5546 25.6393 48.5559 25.6393C44.6613 25.6393 42.8519 24.8726 41.2879 24.0753V21.2539C43.1586 22.2353 46.0413 22.9406 48.7093 22.9406C51.7453 22.9406 52.8799 21.7446 52.8799 19.9659C52.8799 18.1873 51.7759 17.2366 47.9426 16.3166C43.4039 15.2126 41.3799 13.6486 41.3799 10.3366C41.3799 7.2086 43.7719 4.87793 48.4639 4.87793C51.3773 4.87793 53.2479 5.58326 54.6279 6.34993V9.10993C52.6039 7.9446 50.4266 7.5766 48.3413 7.5766C45.7039 7.5766 44.1399 8.4966 44.1399 10.3366C44.1399 11.9926 45.4279 12.8206 48.9853 13.7099C53.2479 14.7833 55.6399 16.1633 55.6399 19.7819Z" fill="#1E1F21"/>
<path d="M0 8C0 3.58172 3.58172 0 8 0H24C28.4183 0 32 3.58172 32 8V24C32 28.4183 28.4183 32 24 32H8C3.58172 32 0 28.4183 0 24V8Z" fill="#DDDEE1"/>
<path fill-rule="evenodd" clip-rule="evenodd" d="M14.3463 22.0676C10.0819 22.0676 6.625 18.6106 6.625 14.3463C6.625 10.0819 10.0819 6.625 14.3463 6.625C18.6106 6.625 22.0676 10.0819 22.0676 14.3463C22.0676 15.7312 21.7029 17.031 21.0644 18.1549L25.6009 22.6914L22.661 25.6312L18.1161 21.0863C17.0012 21.7113 15.7153 22.0676 14.3463 22.0676ZM13.9821 9.57418L13.6591 10.3947C13.2003 11.5607 12.9709 12.1437 12.5475 12.5825C12.1242 13.0213 11.5498 13.2715 10.4011 13.7719L9.90918 13.9862V14.6651L10.4009 14.8793C11.5497 15.3797 12.1241 15.6299 12.5475 16.0688C12.9709 16.5077 13.2003 17.0907 13.6592 18.2567L13.9821 19.0773H14.6607L14.9838 18.2565C15.4426 17.0906 15.672 16.5076 16.0954 16.0688C16.5187 15.6299 17.0931 15.3797 18.2418 14.8793L18.7335 14.6651V13.9862L18.2416 13.7719C17.093 13.2715 16.5187 13.0213 16.0953 12.5825C15.672 12.1437 15.4426 11.5608 14.9838 10.3949L14.6607 9.57418H13.9821Z" fill="#101214"/>
</svg>
