<svg width="122" height="32" viewBox="0 0 122 32" fill="none" xmlns="http://www.w3.org/2000/svg">
<path d="M117.099 20.5797C117.099 21.929 117.896 22.849 119.521 22.849C120.135 22.849 120.717 22.7264 121.177 22.6344V25.1797C120.717 25.3024 120.196 25.425 119.399 25.425C116.117 25.425 114.523 23.493 114.523 20.641V12.453H112.039V9.99969H114.523V6.74902H117.099V9.99969H121.177V12.453H117.099V20.5797Z" fill="#1E1F21"/>
<path d="M109.772 16.3475V25.3329H107.135V16.0715C107.135 13.3115 106.031 12.0849 103.516 12.0849C101.063 12.0849 99.3759 13.7102 99.3759 16.8075V25.3329H96.7385V9.99954H99.3759V12.5142C100.357 10.7049 102.167 9.69287 104.221 9.69287C107.748 9.69287 109.772 12.1155 109.772 16.3475Z" fill="#1E1F21"/>
<path d="M86.851 12.0849C84.0603 12.0849 82.6497 13.8942 82.3737 16.5622H90.9297C90.7763 13.7102 89.4883 12.0849 86.851 12.0849ZM92.739 24.7195C91.4817 25.3942 89.5497 25.6395 87.9857 25.6395C82.251 25.6395 79.7363 22.3275 79.7363 17.6355C79.7363 13.0049 82.3123 9.69287 86.9737 9.69287C91.6963 9.69287 93.5977 12.9742 93.5977 17.6355V18.8315H82.4043C82.7723 21.4382 84.459 23.1249 88.0777 23.1249C89.8563 23.1249 91.359 22.7875 92.739 22.2969V24.7195Z" fill="#1E1F21"/>
<path d="M78.2687 25.3018C78.0541 25.3632 77.5941 25.4245 76.9194 25.4245C74.4047 25.4245 72.8101 24.2285 72.8101 21.4072V3.58984H75.4474V21.1005C75.4474 22.4805 76.3674 22.9712 77.5021 22.9712C77.7781 22.9712 77.9621 22.9712 78.2687 22.9405V25.3018Z" fill="#1E1F21"/>
<path d="M57.5167 17.6662C57.5167 21.3462 58.9887 23.1862 61.7181 23.1862C64.0794 23.1862 66.1954 21.6835 66.1954 18.2795V17.0529C66.1954 13.6489 64.2634 12.1462 62.0247 12.1462C59.0501 12.1462 57.5167 14.1089 57.5167 17.6662ZM66.1954 25.3329V22.5729C65.2141 24.5969 63.3741 25.6395 61.0127 25.6395C56.9341 25.6395 54.8794 22.1742 54.8794 17.6662C54.8794 13.3422 57.0261 9.69287 61.3194 9.69287C63.5581 9.69287 65.2754 10.7049 66.1954 12.6982V9.99954H68.8327V25.3329H66.1954Z" fill="#1E1F21"/>
<path d="M40.2764 5.18457H55.3644V7.8219H49.2004V25.3326H46.4404V7.8219H40.2764V5.18457Z" fill="#1E1F21"/>
<path d="M0 8C0 3.58172 3.58172 0 8 0H24C28.4183 0 32 3.58172 32 8V24C32 28.4183 28.4183 32 24 32H8C3.58172 32 0 28.4183 0 24V8Z" fill="#FB9700"/>
<path d="M16.5769 4.90674L19.6121 11.6704L26.9841 12.4673L27.3376 13.5562L21.8425 18.5337L23.3621 25.7905L22.4363 26.4634L16.0046 22.7759L9.57202 26.4634L8.64624 25.7905L10.1658 18.5337L4.67065 13.5562L5.02417 12.4673L12.3962 11.6704L15.4314 4.90674H16.5769ZM15.9089 16.8433C14.5414 16.8433 13.4333 17.9523 13.4333 19.3198V20.2241C14.1308 20.6276 14.9393 20.8615 15.8015 20.8677H15.8718C16.7947 20.861 17.656 20.5944 18.3855 20.1372V19.3198C18.3855 17.9523 17.2765 16.8433 15.9089 16.8433ZM15.9089 12.3315C14.8834 12.3316 14.0517 13.1625 14.0515 14.188C14.0515 15.2136 14.8833 16.0453 15.9089 16.0454C16.9346 16.0454 17.7664 15.2137 17.7664 14.188C17.7662 13.1625 16.9345 12.3315 15.9089 12.3315Z" fill="#101214"/>
</svg>
