<?xml version="1.0" encoding="UTF-8"?>
<svg width="24px" height="24px" viewBox="0 0 24 24" version="1.1" xmlns="http://www.w3.org/2000/svg" xmlns:xlink="http://www.w3.org/1999/xlink">
    <!-- Generator: Sketch 50.2 (55047) - http://www.bohemiancoding.com/sketch -->
    <title>actual-size-updated</title>
    <desc>Created with Sketch.</desc>
    <defs></defs>
    <g id="actual-size-updated" stroke="none" stroke-width="1" fill="none" fill-rule="evenodd">
        <path d="M16.5868023,6.003 L15,6.003 C14.447,6.003 14,5.555 14,5.002 C14,4.449 14.447,4 15,4 L18.9,4 C18.915904,4 18.9317297,4.00033913 18.9474703,4.00101054 C19.2116507,3.98901625 19.4807263,4.08378292 19.6828978,4.28589531 L19.7151068,4.31809491 C19.9156173,4.51854693 20.0110814,4.78845385 19.9989782,5.05413859 C19.9996571,5.07000845 20,5.08596457 20,5.102 L20,8.998 C20,9.552 19.552,10 19,10 C18.448,10 18,9.552 18,8.998 L18,7.41078714 L14.6914779,10.7189853 C14.50408,10.9053527 14.2561683,11 14.0082566,11 C13.7583928,11 13.5085289,10.9043769 13.317227,10.7141066 L13.285018,10.681907 C12.9092462,10.306245 12.902414,9.68664658 13.2801378,9.30805733 L16.5868023,6.003 Z M7.41319769,17.997 L9,17.997 C9.553,17.997 10,18.445 10,18.998 C10,19.551 9.553,20 9,20 L5.1,20 C5.08409604,20 5.06827035,19.9996609 5.05252973,19.9989895 C4.78834925,20.0109838 4.51927365,19.9162171 4.31710223,19.7141047 L4.28489322,19.6819051 C4.08438265,19.4814531 3.98891856,19.2115461 4.00102183,18.9458614 C4.00034293,18.9299916 4,18.9140354 4,18.898 L4,15.002 C4,14.448 4.448,14 5,14 C5.552,14 6,14.448 6,15.002 L6,16.5892129 L9.30852211,13.2810147 C9.49591996,13.0946473 9.7438317,13 9.99174345,13 C10.2416072,13 10.4914711,13.0956231 10.682773,13.2858934 L10.714982,13.318093 C11.0907538,13.693755 11.097586,14.3133534 10.7198622,14.6919427 L7.41319769,17.997 Z" id="Combined-Shape" fill="#42526E"></path>
    </g>
</svg>