<?xml version="1.0" encoding="UTF-8" standalone="no"?>
<svg width="24px" height="24px" viewBox="0 0 24 24" version="1.1" xmlns="http://www.w3.org/2000/svg" xmlns:xlink="http://www.w3.org/1999/xlink">
    <!-- Generator: Sketch 45.1 (43504) - http://www.bohemiancoding.com/sketch -->
    <title>media-services/audio</title>
    <desc>Created with Sketch.</desc>
    <defs></defs>
    <g id="Media-services" stroke="none" stroke-width="1" fill="none" fill-rule="evenodd">
        <g id="media-services/audio" fill-rule="nonzero">
            <rect id="Rectangle-5-Copy" fill="#42526E" x="4" y="4" width="16" height="16" rx="2"></rect>
            <path d="M16,9.28311395 L16,13.6 L15.9967195,13.6 C15.9452609,14.3818032 15.2948243,15 14.5,15 C13.6715729,15 13,14.3284271 13,13.5 C13,12.6715729 13.6715729,12 14.5,12 L14.5,12 L14.5,12 C14.6753177,12 14.8436105,12.0300771 15,12.0853529 L15,10.0048288 L11,10.4361596 L11,14.5999999 L10.9967196,14.5999999 C10.945261,15.3818031 10.2948243,16 9.5,16 L9.5,16 C8.67157288,16 8,15.3284271 8,14.5 L8,14.5 C8,13.6715729 8.67157288,13 9.5,13 C9.67531771,13 9.84361054,13.0300771 10,13.0853529 L10,10.056612 L10,9.0337721 C10,8.79586537 10.1861475,8.58293108 10.4315052,8.55647349 L15.5684948,8.00253808 C15.8068085,7.97684007 16,8.14921323 16,8.38677596 L16,9.28311395 Z" id="Combined-Shape-Copy" fill="#79F2C0"></path>
        </g>
    </g>
</svg>