<?xml version="1.0" encoding="UTF-8" standalone="no"?>
<svg width="24px" height="24px" viewBox="0 0 24 24" version="1.1" xmlns="http://www.w3.org/2000/svg" xmlns:xlink="http://www.w3.org/1999/xlink">
    <!-- Generator: Sketch 45.1 (43504) - http://www.bohemiancoding.com/sketch -->
    <title>media-services/code</title>
    <desc>Created with Sketch.</desc>
    <defs></defs>
    <g id="Media-services" stroke="none" stroke-width="1" fill="none" fill-rule="evenodd">
        <g id="media-services/code" fill-rule="nonzero">
            <rect id="Rectangle-5" fill="#42526E" x="4" y="4" width="16" height="16" rx="2"></rect>
            <path d="M15.652346,12.0139724 L14.2849487,10.6465751 C13.9111381,10.2727645 13.9076372,9.6494986 14.2898966,9.26723918 C14.674821,8.88231472 15.2897057,8.8827645 15.6692325,9.26229126 L17.6906602,11.283719 C17.7892563,11.3823151 17.8620902,11.4982655 17.9088786,11.6225705 C18.0770973,11.9840608 18.0118858,12.4230002 17.7161384,12.7187476 L15.6963916,14.7384944 C15.3228919,15.1119941 14.6998866,15.1152344 14.3176272,14.732975 C13.9327028,14.3480505 13.9328967,13.7334217 14.3121078,13.3542106 L15.652346,12.0139724 Z M6.09112138,11.6225705 C6.13790976,11.4982655 6.21074373,11.3823151 6.30933978,11.283719 L8.33076754,9.26229126 C8.71029429,8.8827645 9.32517896,8.88231472 9.71010343,9.26723918 C10.0923628,9.6494986 10.0888619,10.2727645 9.71505135,10.6465751 L8.34765401,12.0139724 L9.68789216,13.3542106 C10.0671033,13.7334217 10.0672972,14.3480505 9.68237278,14.732975 C9.30011336,15.1152344 8.6771081,15.1119941 8.30360835,14.7384944 L6.28386157,12.7187476 C5.98811417,12.4230002 5.92290269,11.9840608 6.09112138,11.6225705 Z M13.2826173,8.05109212 C13.8277262,8.22827232 14.1260428,8.81396199 13.9489262,9.35926659 L12.0250875,15.2823597 C11.8479709,15.8276643 11.2624915,16.1260881 10.7173827,15.9489079 C10.1722738,15.7717277 9.87395717,15.186038 10.0510738,14.6407334 L11.9749125,8.71764031 C12.1520291,8.1723357 12.7375085,7.87391191 13.2826173,8.05109212 Z" id="Combined-Shape" fill="#79F2C0"></path>
        </g>
    </g>
</svg>