<?xml version="1.0" encoding="UTF-8"?>
<svg width="24px" height="24px" viewBox="0 0 24 24" version="1.1" xmlns="http://www.w3.org/2000/svg" xmlns:xlink="http://www.w3.org/1999/xlink">
    <!-- Generator: Sketch 50.2 (55047) - http://www.bohemiancoding.com/sketch -->
    <title>fit-to-page-new</title>
    <desc>Created with Sketch.</desc>
    <defs></defs>
    <g id="fit-to-page-new" stroke="none" stroke-width="1" fill="none" fill-rule="evenodd">
        <path d="M16.4131977,8.997 L18,8.997 C18.553,8.997 19,9.445 19,9.998 C19,10.551 18.553,11 18,11 L14.1,11 C14.084096,11 14.0682703,10.9996609 14.0525297,10.9989895 C13.7883493,11.0109838 13.5192737,10.9162171 13.3171022,10.7141047 L13.2848932,10.6819051 C13.0843827,10.4814531 12.9889186,10.2115461 13.0010218,9.94586141 C13.0003429,9.92999155 13,9.91403543 13,9.898 L13,6.002 C13,5.448 13.448,5 14,5 C14.552,5 15,5.448 15,6.002 L15,7.58921286 L18.3085221,4.2810147 C18.49592,4.09464731 18.7438317,4 18.9917434,4 C19.2416072,4 19.4914711,4.09562306 19.682773,4.28589343 L19.714982,4.31809303 C20.0907538,4.69375504 20.097586,5.31335342 19.7198622,5.69194267 L16.4131977,8.997 Z M7.58680231,15.003 L6,15.003 C5.447,15.003 5,14.555 5,14.002 C5,13.449 5.447,13 6,13 L9.9,13 C9.91590396,13 9.93172965,13.0003391 9.94747027,13.0010105 C10.2116507,12.9890162 10.4807263,13.0837829 10.6828978,13.2858953 L10.7151068,13.3180949 C10.9156173,13.5185469 11.0110814,13.7884539 10.9989782,14.0541386 C10.9996571,14.0700084 11,14.0859646 11,14.102 L11,17.998 C11,18.552 10.552,19 10,19 C9.448,19 9,18.552 9,17.998 L9,16.4107871 L5.69147789,19.7189853 C5.50408004,19.9053527 5.2561683,20 5.00825655,20 C4.75839275,20 4.50852895,19.9043769 4.31722697,19.7141066 L4.28501797,19.681907 C3.90924623,19.306245 3.90241402,18.6866466 4.28013782,18.3080573 L7.58680231,15.003 Z" id="Combined-Shape" fill="#42526E"></path>
    </g>
</svg>