<?xml version="1.0" encoding="UTF-8"?>
<svg width="24px" height="24px" viewBox="0 0 24 24" version="1.1" xmlns="http://www.w3.org/2000/svg" xmlns:xlink="http://www.w3.org/1999/xlink">
    <!-- Generator: Sketch 50.2 (55047) - http://www.bohemiancoding.com/sketch -->
    <title>full-screen-off-updated</title>
    <desc>Created with Sketch.</desc>
    <defs></defs>
    <g id="full-screen-off-updated" stroke="none" stroke-width="1" fill="none" fill-rule="evenodd">
        <path d="M16,8 L19,8 C19.5522847,8 20,8.44771525 20,9 C20,9.55228475 19.5522847,10 19,10 L16,10 C14.8954305,10 14,9.1045695 14,8 L14,5 C14,4.44771525 14.4477153,4 15,4 C15.5522847,4 16,4.44771525 16,5 L16,8 Z M8,10 L5,10 C4.44771525,10 4,9.55228475 4,9 C4,8.44771525 4.44771525,8 5,8 L8,8 L8,5 C8,4.44771525 8.44771525,4 9,4 C9.55228475,4 10,4.44771525 10,5 L10,8 C10,9.1045695 9.1045695,10 8,10 Z M16,14 L19,14 C19.5522847,14 20,14.4477153 20,15 C20,15.5522847 19.5522847,16 19,16 L16,16 L16,19 C16,19.5522847 15.5522847,20 15,20 C14.4477153,20 14,19.5522847 14,19 L14,16 C14,14.8954305 14.8954305,14 16,14 Z M8,16 L5,16 C4.44771525,16 4,15.5522847 4,15 C4,14.4477153 4.44771525,14 5,14 L8,14 C9.1045695,14 10,14.8954305 10,16 L10,19 C10,19.5522847 9.55228475,20 9,20 C8.44771525,20 8,19.5522847 8,19 L8,16 Z" id="Combined-Shape" fill="#42526E"></path>
    </g>
</svg>