<?xml version="1.0" encoding="UTF-8" standalone="no"?>
<svg width="24px" height="24px" viewBox="0 0 24 24" version="1.1" xmlns="http://www.w3.org/2000/svg" xmlns:xlink="http://www.w3.org/1999/xlink">
    <!-- Generator: Sketch 46.2 (44496) - http://www.bohemiancoding.com/sketch -->
    <title>media-services/no-image</title>
    <desc>Created with Sketch.</desc>
    <defs></defs>
    <g id="Media-services" stroke="none" stroke-width="1" fill="none" fill-rule="evenodd">
        <g id="media-services/no-image" fill-rule="nonzero" fill="#42526E">
            <path d="M19.4101598,3.04115894 L20.1305764,2.32074238 C20.5582329,1.89308587 21.2516011,1.89308587 21.6792576,2.32074238 C22.1069141,2.74839889 22.1069141,3.44176709 21.6792576,3.8694236 L3.8694236,21.6792576 L3.8694236,21.6792576 C3.44176709,22.1069141 2.74839889,22.1069141 2.32074238,21.6792576 L2.32074238,21.6792576 L2.32074238,21.6792576 C1.89308587,21.2516011 1.89308587,20.5582329 2.32074238,20.1305764 L2.32074238,20.1305764 L3.04114989,19.4101689 C3.01417272,19.2793221 3,19.1437812 3,19.0049107 L3,4.99508929 C3,3.8932319 3.8926228,3 4.99508929,3 L19.0049107,3 C19.1437635,3 19.2793032,3.0141751 19.4101598,3.04115894 Z M21,7.53021847 L21,19.0049107 C21,20.1067681 20.1073772,21 19.0049107,21 L7.53021847,21 L10.5302184,18 L18,18 L18,15.2999997 L15.7286755,12.801543 L21,7.53021847 Z M8,10 C9.1045695,10 10,9.1045695 10,8 C10,6.8954305 9.1045695,6 8,6 C6.8954305,6 6,6.8954305 6,8 C6,9.1045695 6.8954305,10 8,10 Z" id="Combined-Shape"></path>
        </g>
    </g>
</svg>