<?xml version="1.0" encoding="UTF-8" standalone="no"?>
<svg width="24px" height="24px" viewBox="0 0 24 24" version="1.1" xmlns="http://www.w3.org/2000/svg" xmlns:xlink="http://www.w3.org/1999/xlink">
    <!-- Generator: Sketch 45.1 (43504) - http://www.bohemiancoding.com/sketch -->
    <title>media-services/open-mediaviewer</title>
    <desc>Created with Sketch.</desc>
    <defs></defs>
    <g id="Media-services" stroke="none" stroke-width="1" fill="none" fill-rule="evenodd">
        <g id="media-services/open-mediaviewer" fill="#42526E">
            <path d="M14,11.4142136 L11,14.4142136 L11,18 L14,18 L14,20 L10.5,20 L6.00591905,20 C4.89808055,20 4,19.1134452 4,17.9940809 L4,13.5 L4,10 L6,10 L6,13 L9.58578644,13 L12.5857864,10 L11.9998075,10 C11.4476291,10 11,9.55613518 11,9 C11,8.44771525 11.4437166,8 11.9998075,8 L15.0001925,8 C15.2762499,8 15.5261759,8.1109406 15.7071005,8.29138684 C15.8880972,8.47186828 16,8.72179437 16,8.99980749 L16,12.0001925 C16,12.5523709 15.5561352,13 15,13 C14.4477153,13 14,12.5562834 14,12.0001925 L14,11.4142136 Z" id="Combined-Shape"></path>
            <path d="M16,18 L16,20 L18,20 C19.1045695,20 20,19.1122704 20,18 L20,16 L18,16 L18,17.4965773 C18,17.7670975 17.77461,18 17.4965773,18 L16,18 Z M8,6 L8,4 L6,4 C4.8954305,4 4,4.88772964 4,6 L4,8 L6,8 L6,6.50342274 C6,6.23290253 6.22539004,6 6.50342274,6 L8,6 Z M18,8 L20,8 L20,6 C20,4.88772964 19.1045695,4 18,4 L16,4 L16,6 L17.4965773,6 C17.77461,6 18,6.23290253 18,6.50342274 L18,8 Z M10,4 L14,4 L14,6 L10,6 L10,4 Z M18,10 L20,10 L20,14 L18,14 L18,10 Z" id="Combined-Shape"></path>
        </g>
    </g>
</svg>