<?xml version="1.0" encoding="UTF-8" standalone="no"?>
<svg width="24px" height="24px" viewBox="0 0 24 24" version="1.1" xmlns="http://www.w3.org/2000/svg" xmlns:xlink="http://www.w3.org/1999/xlink">
    <!-- Generator: Sketch 45.1 (43504) - http://www.bohemiancoding.com/sketch -->
    <title>media-services/zip</title>
    <desc>Created with Sketch.</desc>
    <defs></defs>
    <g id="Media-services" stroke="none" stroke-width="1" fill="none" fill-rule="evenodd">
        <g id="media-services/zip">
            <rect id="Rectangle-5" fill="#42526E" x="4" y="4" width="16" height="16" rx="2"></rect>
            <path d="M9,6.99895656 C9,6.44724809 9.44266033,6 9.99895656,6 L12,6 L12,9 L9.99895656,9 C9.44724809,9 9,8.55733967 9,8.00104344 L9,6.99895656 Z" id="Rectangle-8" fill="#79F2C0"></path>
            <path d="M12,9 L14.0010434,9 C14.5527519,9 15,9.44266033 15,9.99895656 L15,11.0010434 C15,11.5527519 14.5573397,12 14.0010434,12 L12,12 L12,9 Z" id="Rectangle-8-Copy-3" fill="#79F2C0"></path>
            <path d="M9,12.9989566 C9,12.4472481 9.44266033,12 9.99895656,12 L12,12 L12,15 L9.99895656,15 C9.44724809,15 9,14.5573397 9,14.0010434 L9,12.9989566 Z" id="Rectangle-8-Copy-4" fill="#79F2C0"></path>
            <path d="M12,15 L14.0010434,15 C14.5527519,15 15,15.4426603 15,15.9989566 L15,17.0010434 C15,17.5527519 14.5573397,18 14.0010434,18 L12,18 L12,15 Z" id="Rectangle-8-Copy-5" fill="#79F2C0"></path>
        </g>
    </g>
</svg>