<?xml version="1.0" encoding="UTF-8" standalone="no"?>
<svg width="24px" height="24px" viewBox="0 0 24 24" version="1.1" xmlns="http://www.w3.org/2000/svg" xmlns:xlink="http://www.w3.org/1999/xlink">
    <!-- Generator: Sketch 45.1 (43504) - http://www.bohemiancoding.com/sketch -->
    <title>bitbucket/builds</title>
    <desc>Created with Sketch.</desc>
    <defs></defs>
    <g id="Bitbucket" stroke="none" stroke-width="1" fill="none" fill-rule="evenodd">
        <g id="bitbucket/builds" fill-rule="nonzero" fill="#42526E">
            <path d="M10,5 C10,5.55089175 10.4482916,6 10.9968697,6 L14.0031303,6 C14.5501047,6 15,5.55022012 15,5 C15,4.44910825 14.5517084,4 14.0031303,4 L10.9968697,4 C10.4498953,4 10,4.44977988 10,5 Z M8,5 C8,3.34314575 9.34739093,2 10.9968697,2 L14.0031303,2 C15.6582557,2 17,3.34651712 17,5 C17,6.65685425 15.6526091,8 14.0031303,8 L10.9968697,8 C9.34174426,8 8,6.65348288 8,5 Z" id="Rectangle-9"></path>
            <path d="M10,12 C10,12.5508917 10.4482916,13 10.9968697,13 L14.0031303,13 C14.5501047,13 15,12.5502201 15,12 C15,11.4491083 14.5517084,11 14.0031303,11 L10.9968697,11 C10.4498953,11 10,11.4497799 10,12 Z M8,12 C8,10.3431458 9.34739093,9 10.9968697,9 L14.0031303,9 C15.6582557,9 17,10.3465171 17,12 C17,13.6568542 15.6526091,15 14.0031303,15 L10.9968697,15 C9.34174426,15 8,13.6534829 8,12 Z" id="Rectangle-9-Copy"></path>
            <path d="M10,19 C10,19.5508917 10.4482916,20 10.9968697,20 L14.0031303,20 C14.5501047,20 15,19.5502201 15,19 C15,18.4491083 14.5517084,18 14.0031303,18 L10.9968697,18 C10.4498953,18 10,18.4497799 10,19 Z M8,19 C8,17.3431458 9.34739093,16 10.9968697,16 L14.0031303,16 C15.6582557,16 17,17.3465171 17,19 C17,20.6568542 15.6526091,22 14.0031303,22 L10.9968697,22 C9.34174426,22 8,20.6534829 8,19 Z" id="Rectangle-9-Copy-2"></path>
            <path d="M16.0621664,6 L18.476947,6 C19.2893597,6 19.9489939,6.65925194 19.9489939,7.46920295 L19.9489939,9.42419137 C19.9489939,10.2390188 19.2949596,10.8933943 18.474497,10.8933943 L16,10.8933943 L16,12.8933943 L18.474497,12.8933943 C20.3997626,12.8933943 21.9489939,11.3433549 21.9489939,9.42419137 L21.9489939,7.46920295 C21.9489939,5.55442281 20.3936698,4 18.476947,4 L16.0621664,4 L16.0621664,6 Z" id="Path-2"></path>
            <path d="M8.88682755,11 L6.47204695,11 C4.55532418,11 3,12.5544228 3,14.4692029 L3,16.4241914 C3,18.3433549 4.5492313,19.8933943 6.47449697,19.8933943 L8.94899394,19.8933943 L8.94899394,17.8933943 L6.47449697,17.8933943 C5.65403434,17.8933943 5,17.2390188 5,16.4241914 L5,14.4692029 C5,13.6592519 5.65963422,13 6.47204695,13 L8.88682755,13 L8.88682755,11 Z" id="Path-2-Copy"></path>
        </g>
    </g>
</svg>