<?xml version="1.0" encoding="UTF-8" standalone="no"?>
<svg width="24px" height="24px" viewBox="0 0 24 24" version="1.1" xmlns="http://www.w3.org/2000/svg" xmlns:xlink="http://www.w3.org/1999/xlink">
    <!-- Generator: Sketch 45.1 (43504) - http://www.bohemiancoding.com/sketch -->
    <title>bitbucket/commits</title>
    <desc>Created with Sketch.</desc>
    <defs></defs>
    <g id="Bitbucket" stroke="none" stroke-width="1" fill="none" fill-rule="evenodd">
        <g id="bitbucket/commits" fill="#42526E">
            <path d="M16,12 C16,10.1 14.7,8.6 13,8.1 L13,4 C13,3.4 12.6,3 12,3 C11.4,3 11,3.4 11,4 L11,8.1 C9.3,8.5 8,10.1 8,12 C8,13.9 9.3,15.4 11,15.9 L11,20 C11,20.6 11.4,21 12,21 C12.6,21 13,20.6 13,20 L13,15.9 C14.7,15.4 16,13.9 16,12 Z M12,14 C10.9,14 10,13.1 10,12 C10,10.9 10.9,10 12,10 L12,10 L12,10 C13.1,10 14,10.9 14,12 C14,13.1 13.1,14 12,14 Z" id="Shape"></path>
        </g>
    </g>
</svg>