<?xml version="1.0" encoding="UTF-8" standalone="no"?>
<svg width="24px" height="24px" viewBox="0 0 24 24" version="1.1" xmlns="http://www.w3.org/2000/svg" xmlns:xlink="http://www.w3.org/1999/xlink">
    <!-- Generator: Sketch 45.1 (43504) - http://www.bohemiancoding.com/sketch -->
    <title>bitbucket/forks</title>
    <desc>Created with Sketch.</desc>
    <defs></defs>
    <g id="Bitbucket" stroke="none" stroke-width="1" fill="none" fill-rule="evenodd">
        <g id="bitbucket/forks" fill="#42526E">
            <path d="M3,12 C3,11.4477153 3.4463114,11 3.99754465,11 L12,11 L12,13 L3.99754465,13 C3.44661595,13 3,12.5561352 3,12 L3,12 Z" id="Rectangle-7"></path>
            <path d="M12,11 L12,9 C12,8.4489634 12.4494489,8 13.0001482,8 L19.3950093,8 L19.3950093,6 L13.0001482,6 C11.3453629,6 10,7.34390977 10,9 L10,11 L12,11 Z" id="Path-4-Copy" fill-rule="nonzero"></path>
            <path d="M10,13 L10,15 C10,16.6560902 11.3453629,18 13.0001482,18 L19.3950093,18 L19.3950093,16 L13.0001482,16 C12.4494489,16 12,15.5510366 12,15 L12,13 L10,13 Z" id="Path-4-Copy-2" fill-rule="nonzero"></path>
            <path d="M17.2928932,8.29289322 C16.9023689,8.68341751 16.9023689,9.31658249 17.2928932,9.70710678 C17.6834175,10.0976311 18.3165825,10.0976311 18.7071068,9.70710678 L20.7029531,7.71126044 C21.0957714,7.31844215 21.103674,6.68946043 20.7029531,6.28873956 L18.7071068,4.29289322 C18.3165825,3.90236893 17.6834175,3.90236893 17.2928932,4.29289322 C16.9023689,4.68341751 16.9023689,5.31658249 17.2928932,5.70710678 L18.5857864,7 L17.2928932,8.29289322 Z" id="Path-3" fill-rule="nonzero"></path>
            <path d="M17.2928932,18.2928932 C16.9023689,18.6834175 16.9023689,19.3165825 17.2928932,19.7071068 C17.6834175,20.0976311 18.3165825,20.0976311 18.7071068,19.7071068 L20.7029531,17.7112604 C21.0957714,17.3184421 21.103674,16.6894604 20.7029531,16.2887396 L18.7071068,14.2928932 C18.3165825,13.9023689 17.6834175,13.9023689 17.2928932,14.2928932 C16.9023689,14.6834175 16.9023689,15.3165825 17.2928932,15.7071068 L18.5857864,17 L17.2928932,18.2928932 Z" id="Path-3-Copy" fill-rule="nonzero"></path>
        </g>
    </g>
</svg>