<?xml version="1.0" encoding="UTF-8" standalone="no"?>
<svg width="24px" height="24px" viewBox="0 0 24 24" version="1.1" xmlns="http://www.w3.org/2000/svg" xmlns:xlink="http://www.w3.org/1999/xlink">
    <!-- Generator: Sketch 45.1 (43504) - http://www.bohemiancoding.com/sketch -->
    <title>bitbucket/output</title>
    <desc>Created with Sketch.</desc>
    <defs></defs>
    <g id="Bitbucket" stroke="none" stroke-width="1" fill="none" fill-rule="evenodd">
        <g id="bitbucket/output" fill="#42526E">
            <path d="M7,15 L7,16.9941413 C7,18.1029399 7.89805351,19 9.00585866,19 L18.9941413,19 C20.1029399,19 21,18.1019465 21,16.9941413 L21,7.00585866 C21,5.89706013 20.1019465,5 18.9941413,5 L9.00585866,5 C7.89706013,5 7,5.89805351 7,7.00585866 L7,9 L9.00305214,9 C9.00384688,7.82456286 9.00478648,7 9.00585866,7 C9.00585866,7 19,7.00212593 19,7.00585866 C19,7.00585866 18.9978741,17 18.9941413,17 C18.9941413,17 9,16.9978741 9,16.9941413 C9,16.9941413 9.00017482,16.1723174 9.00051221,15 L7,15 Z" id="Combined-Shape" fill-rule="nonzero"></path>
            <rect id="Rectangle-4" x="8" y="6" width="12" height="3"></rect>
            <path d="M4.291,9.293 L2.297,11.288 C1.897,11.69 1.905,12.318 2.297,12.711 L4.291,14.708 C4.682,15.097 5.314,15.097 5.704,14.708 C6.094,14.317 6.094,13.683 5.704,13.293 L4.412,12 L5.704,10.707 C6.094,10.316 6.094,9.684 5.704,9.293 C5.509,9.098 5.253,9.001 4.997,9.001 C4.742,9.001 4.486,9.098 4.291,9.293 Z" id="Clip-2"></path>
            <rect id="Rectangle-5" x="3" y="11" width="12" height="2" rx="1"></rect>
        </g>
    </g>
</svg>