<?xml version="1.0" encoding="UTF-8" standalone="no"?>
<svg width="24px" height="24px" viewBox="0 0 24 24" version="1.1" xmlns="http://www.w3.org/2000/svg" xmlns:xlink="http://www.w3.org/1999/xlink">
    <!-- Generator: Sketch 45.1 (43504) - http://www.bohemiancoding.com/sketch -->
    <title>bitbucket/snippets</title>
    <desc>Created with Sketch.</desc>
    <defs></defs>
    <g id="Bitbucket" stroke="none" stroke-width="1" fill="none" fill-rule="evenodd">
        <g id="bitbucket/snippets" fill="#42526E">
            <path d="M16,9 C16.8,9 17.6,8.7 18.1,8.1 C18.7,7.5 19,6.8 19,6 C19,5.2 18.7,4.4 18.1,3.9 C17,2.8 15,2.8 13.9,3.9 C13.3,4.4 13,5.2 13,6 C13,6.8 13.3,7.5 13.8,8 L12,11.1 L10.2,8 C10.7,7.5 11,6.8 11,6 C11,5.2 10.7,4.4 10.1,3.9 C9,2.7 7,2.7 5.9,3.9 C5.3,4.4 5,5.2 5,6 C5,6.8 5.3,7.6 5.9,8.1 C6.5,8.7 7.2,9 8,9 L8.4,9 L15.1,20.5 C15.3,20.8 15.6,21 16,21 C16.2,21 16.3,21 16.5,20.9 C17,20.6 17.1,20 16.9,19.5 L13.2,13.1 L15.6,8.9 C15.7,9 15.9,9 16,9 Z M8.7,6.7 C8.3,7.1 7.7,7.1 7.3,6.7 C7.1,6.5 7,6.3 7,6 C7,5.7 7.1,5.5 7.3,5.3 C7.5,5.1 7.7,5 8,5 C8.3,5 8.5,5.1 8.7,5.3 C8.9,5.5 9,5.7 9,6 C9,6.3 8.9,6.5 8.7,6.7 Z M15.3,5.3 C15.5,5.1 15.7,5 16,5 C16.3,5 16.5,5.1 16.7,5.3 C16.9,5.5 17,5.7 17,6 C17,6.3 16.9,6.5 16.7,6.7 C16.3,7.1 15.7,7.1 15.3,6.7 C15.1,6.5 15,6.3 15,6 C15,5.7 15.1,5.5 15.3,5.3 Z" id="Shape"></path>
            <path d="M10.3,14.1 L7.2,19.5 C6.9,20 7,20.6 7.5,20.8 C7.7,20.9 7.8,21 8,21 C8.3,21 8.7,20.8 8.9,20.5 L11.5,16.1 L10.3,14.1 Z" id="Shape"></path>
        </g>
    </g>
</svg>