<svg xmlns="http://www.w3.org/2000/svg" width="16" height="16" viewBox="0 0 16 16">
  <g fill="none" fill-rule="evenodd">
    <path fill="#B3D4FF" d="M6.66666667,3 L15,3 C15.5522847,3 16,3.44771525 16,4 L16,14.05 C16,14.6022847 15.5522847,15.05 15,15.05 L1,15.05 C0.44771525,15.05 6.76353751e-17,14.6022847 0,14.05 L0,4 L0,3 C-6.76353751e-17,2.44771525 0.44771525,2 1,2 L5.66666667,2 C6.21895142,2 6.66666667,2.44771525 6.66666667,3 Z"/>
    <path fill="#B3D4FF" d="M0,4.05 L16,4.05 L16,14.05 C16,14.6022847 15.5522847,15.05 15,15.05 L1,15.05 C0.44771525,15.05 6.76353751e-17,14.6022847 0,14.05 L0,4.05 Z" style="mix-blend-mode:multiply"/>
  </g>
</svg>
