<svg xmlns="http://www.w3.org/2000/svg" width="24" height="24" viewBox="0 0 24 24">
  <g fill="none" fill-rule="evenodd">
    <path fill="#B3D4FF" d="M10,4 L22,4 C23.1045695,4 24,4.8954305 24,6 L24,20 C24,21.1045695 23.1045695,22 22,22 L2,22 C0.8954305,22 1.3527075e-16,21.1045695 0,20 L0,6 L0,4 C-1.3527075e-16,2.8954305 0.8954305,2 2,2 L8,2 C9.1045695,2 10,2.8954305 10,4 Z"/>
    <path fill="#B3D4FF" d="M0,6 L24,6 L24,20 C24,21.1045695 23.1045695,22 22,22 L2,22 C0.8954305,22 1.3527075e-16,21.1045695 0,20 L0,6 Z" style="mix-blend-mode:multiply"/>
  </g>
</svg>
