<?xml version="1.0" encoding="UTF-8"?>
<svg width="24px" height="24px" viewBox="0 0 24 24" version="1.1" xmlns="http://www.w3.org/2000/svg" xmlns:xlink="http://www.w3.org/1999/xlink">
    <!-- Generator: Sketch 52.5 (67469) - http://www.bohemiancoding.com/sketch -->
    <title>jira/priority-minor</title>
    <desc>Created with Sketch.</desc>
    <g id="jira/priority-minor" stroke="none" stroke-width="1" fill="none" fill-rule="evenodd">
        <path d="M5.60092457,20.8642155 C5.12710001,21.1479561 4.5129721,20.9938626 4.2292315,20.520038 C3.94549091,20.0462135 4.09958441,19.4320856 4.57340897,19.148345 L11.5430299,14.9747234 C11.8606027,14.7845512 12.2572489,14.7853606 12.5740428,14.9768274 L19.4795628,19.150449 C19.9522253,19.4361211 20.103811,20.0508728 19.8181389,20.5235354 C19.5324667,20.9961979 18.917715,21.1477836 18.4450525,20.8621115 L12.0544061,16.9996739 L5.60092457,20.8642155 Z" id="Path-4-Copy-94" fill="#0065FF" fill-rule="nonzero" transform="translate(12.024735, 17.919545) rotate(-180.000000) translate(-12.024735, -17.919545) "></path>
        <path d="M12.0544061,10.9970823 L5.60092457,14.8616238 C5.12710001,15.1453644 4.5129721,14.9912709 4.2292315,14.5174464 C3.94549091,14.0436218 4.09958441,13.4294939 4.57340897,13.1457533 L11.5430299,8.97213177 C11.8606027,8.7819595 12.2572489,8.78276895 12.5740428,8.97423579 L19.4795628,13.1478573 C19.9522253,13.4335295 20.103811,14.0482812 19.8181389,14.5209437 C19.5324667,14.9936063 18.917715,15.1451919 18.4450525,14.8595198 L12.0544061,10.9970823 Z" id="Path-4-Copy-95" fill="#2684FF" fill-rule="nonzero" transform="translate(12.024735, 11.916954) rotate(-180.000000) translate(-12.024735, -11.916954) "></path>
        <path d="M12.0544061,4.98316628 L5.60092457,8.84770783 C5.12710001,9.13144843 4.5129721,8.97735493 4.2292315,8.50353036 C3.94549091,8.0297058 4.09958441,7.41557789 4.57340897,7.1318373 L11.5430299,2.95821575 C11.8606027,2.76804349 12.2572489,2.76885294 12.5740428,2.96031978 L19.4795628,7.13394132 C19.9522253,7.41961345 20.103811,8.03436516 19.8181389,8.50702771 C19.5324667,8.97969025 18.917715,9.13127593 18.4450525,8.84560381 L12.0544061,4.98316628 Z" id="Path-4-Copy-97" fill="#4C9AFF" fill-rule="nonzero" transform="translate(12.024735, 5.903038) rotate(-180.000000) translate(-12.024735, -5.903038) "></path>
    </g>
</svg>