<?xml version="1.0" encoding="UTF-8"?>
<svg width="24px" height="24px" viewBox="0 0 24 24" version="1.1" xmlns="http://www.w3.org/2000/svg" xmlns:xlink="http://www.w3.org/1999/xlink">
    <!-- Generator: Sketch 52.5 (67469) - http://www.bohemiancoding.com/sketch -->
    <title>jira/priority-major</title>
    <desc>Created with Sketch.</desc>
    <g id="jira/priority-major" stroke="none" stroke-width="1" fill="none" fill-rule="evenodd">
        <path d="M12.0204996,5.18658407 L5.56701802,9.05112562 C5.09319345,9.33486622 4.47906555,9.18077272 4.19532495,8.70694815 C3.91158435,8.23312359 4.06567785,7.61899569 4.53950242,7.33525509 L11.5091233,3.16163354 C11.8266961,2.97146128 12.2233423,2.97227073 12.5401363,3.16373757 L19.4456562,7.33735911 C19.9183188,7.62303124 20.0699044,8.23778296 19.7842323,8.7104455 C19.4985602,9.18310804 18.8838085,9.33469373 18.4111459,9.0490216 L12.0204996,5.18658407 Z" id="Path-4-Copy-94" fill="#FF5630" fill-rule="nonzero"></path>
        <path d="M5.56701802,15.0537173 C5.09319345,15.3374579 4.47906555,15.1833644 4.19532495,14.7095398 C3.91158435,14.2357152 4.06567785,13.6215873 4.53950242,13.3378467 L11.5091233,9.16422519 C11.8266961,8.97405293 12.2233423,8.97486238 12.5401363,9.16632921 L19.4456562,13.3399508 C19.9183188,13.6256229 20.0699044,14.2403746 19.7842323,14.7130371 C19.4985602,15.1856997 18.8838085,15.3372854 18.4111459,15.0516132 L12.0204996,11.1891757 L5.56701802,15.0537173 Z" id="Path-4-Copy-95" fill="#FF7452" fill-rule="nonzero"></path>
        <path d="M5.56701802,21.0676333 C5.09319345,21.3513739 4.47906555,21.1972804 4.19532495,20.7234558 C3.91158435,20.2496313 4.06567785,19.6355033 4.53950242,19.3517627 L11.5091233,15.1781412 C11.8266961,14.9879689 12.2233423,14.9887784 12.5401363,15.1802452 L19.4456562,19.3538668 C19.9183188,19.6395389 20.0699044,20.2542906 19.7842323,20.7269532 C19.4985602,21.1996157 18.8838085,21.3512014 18.4111459,21.0655293 L12.0204996,17.2030917 L5.56701802,21.0676333 Z" id="Path-4-Copy-97" fill="#FF8F73" fill-rule="nonzero"></path>
    </g>
</svg>