<?xml version="1.0" encoding="UTF-8"?>
<svg width="24px" height="24px" viewBox="0 0 24 24" version="1.1" xmlns="http://www.w3.org/2000/svg" xmlns:xlink="http://www.w3.org/1999/xlink">
    <!-- Generator: Sketch 52.5 (67469) - http://www.bohemiancoding.com/sketch -->
    <title>jira/priority-highest</title>
    <desc>Created with Sketch.</desc>
    <g id="jira/priority-highest" stroke="none" stroke-width="1" fill="none" fill-rule="evenodd">
        <path d="M12.0054239,8.18731649 L5.55194233,12.051858 C5.07811777,12.3355986 4.46398986,12.1815051 4.18024927,11.7076806 C3.89650867,11.233856 4.05060217,10.6197281 4.52442673,10.3359875 L11.4940477,6.16236596 C11.8116204,5.9721937 12.2082666,5.97300315 12.5250606,6.16446999 L19.4305805,10.3380915 C19.9032431,10.6237637 20.0548288,11.2385154 19.7691566,11.7111779 C19.4834845,12.1838405 18.8687328,12.3354261 18.3960702,12.049754 L12.0054239,8.18731649 Z" id="Path-4-Copy-94" fill="#FF5630" fill-rule="nonzero"></path>
        <path d="M5.55194233,18.0544497 C5.07811777,18.3381903 4.46398986,18.1840968 4.18024927,17.7102722 C3.89650867,17.2364477 4.05060217,16.6223198 4.52442673,16.3385792 L11.4940477,12.1649576 C11.8116204,11.9747853 12.2082666,11.9755948 12.5250606,12.1670616 L19.4305805,16.3406832 C19.9032431,16.6263553 20.0548288,17.241107 19.7691566,17.7137696 C19.4834845,18.1864321 18.8687328,18.3380178 18.3960702,18.0523457 L12.0054239,14.1899081 L5.55194233,18.0544497 Z" id="Path-4-Copy-95" fill="#FF7452" fill-rule="nonzero"></path>
    </g>
</svg>