<svg xmlns="http://www.w3.org/2000/svg" width="48" height="64" viewBox="0 0 48 64">
  <g fill="none" fill-rule="evenodd">
    <path fill="#FFF" stroke="#091E42" stroke-opacity=".08" d="M4,0.5 L32.007097,0.5 C32.9580806,0.5 33.8681235,0.886970896 34.5278649,1.57188773 L46.5207679,14.0224343 C47.1490066,14.6746463 47.5,15.5449725 47.5,16.4505466 L47.5,60 C47.5,61.9329966 45.9329966,63.5 44,63.5 L4,63.5 C2.06700338,63.5 0.5,61.9329966 0.5,60 L0.5,4 C0.5,2.06700338 2.06700338,0.5 4,0.5 Z"/>
    <path fill="#FF8B00" d="M24.0341782,41.3333333 C23.6981782,41.3333333 23.3785115,41.1886667 23.1580115,40.9366667 L14.9575115,31.6033333 C14.6075115,31.2066667 14.5701782,30.6245 14.8630115,30.1846667 L17.9826782,25.518 C18.1996782,25.1948333 18.5636782,25 18.9533448,25 L29.2666782,25 C29.6703448,25 30.0448448,25.2088333 30.2583448,25.5506667 L33.1575115,30.2173333 C33.4281782,30.6525 33.3826782,31.2136667 33.0466782,31.5998333 L24.9138448,40.9331667 C24.6921782,41.1863333 24.3736782,41.3321667 24.0365115,41.3333333 L24.0341782,41.3333333 Z"/>
  </g>
</svg>
