<svg xmlns="http://www.w3.org/2000/svg" width="24" height="24" viewBox="0 0 24 24">
  <path fill="#6554C0" fill-rule="evenodd" d="M3,0 L21,0 C22.6568542,-3.04359188e-16 24,1.34314575 24,3 L24,21 C24,22.6568542 22.6568542,24 21,24 L3,24 C1.34314575,24 2.02906125e-16,22.6568542 0,21 L0,3 C-2.02906125e-16,1.34314575 1.34314575,3.04359188e-16 3,0 Z M6,14 C5.44771525,14 5,14.4477153 5,15 L5,18 C5,18.5522847 5.44771525,19 6,19 C6.55228475,19 7,18.5522847 7,18 L7,15 C7,14.4477153 6.55228475,14 6,14 Z M14,8 C13.4477153,8 13,8.44771525 13,9 L13,18 C13,18.5522847 13.4477153,19 14,19 C14.5522847,19 15,18.5522847 15,18 L15,9 C15,8.44771525 14.5522847,8 14,8 Z M10,12 C9.44771525,12 9,12.4477153 9,13 L9,18 C9,18.5522847 9.44771525,19 10,19 C10.5522847,19 11,18.5522847 11,18 L11,13 C11,12.4477153 10.5522847,12 10,12 Z M18,5 C17.4477153,5 17,5.44771525 17,6 L17,18 C17,18.5522847 17.4477153,19 18,19 C18.5522847,19 19,18.5522847 19,18 L19,6 C19,5.44771525 18.5522847,5 18,5 Z"/>
</svg>
