<svg width="24" height="24" viewBox="0 0 24 24"><path fill="#2684ff" fill-rule="evenodd" d="M3 0h18a3 3 0 0 1 3 3v18a3 3 0 0 1-3 3H3a3 3 0 0 1-3-3V3a3 3 0 0 1 3-3m1 18c0 .556.446 1 .995 1h8.01c.54 0 .995-.448.995-1 0-.556-.446-1-.995-1h-8.01c-.54 0-.995.448-.995 1m0-4c0 .556.448 1 1 1h14c.555 0 1-.448 1-1 0-.556-.448-1-1-1H5c-.555 0-1 .448-1 1m0-4c0 .556.448 1 1 1h14c.555 0 1-.448 1-1 0-.556-.448-1-1-1H5c-.555 0-1 .448-1 1m0-4c0 .556.448 1 1 1h14c.555 0 1-.448 1-1 0-.556-.448-1-1-1H5c-.555 0-1 .448-1 1"/></svg>