<svg xmlns="http://www.w3.org/2000/svg" width="48" height="64" viewBox="0 0 48 64">
  <g fill="none" fill-rule="evenodd">
    <path fill="#FFF" stroke="#091E42" stroke-opacity=".08" d="M4,0.5 L32.007097,0.5 C32.9580806,0.5 33.8681235,0.886970896 34.5278649,1.57188773 L46.5207679,14.0224343 C47.1490066,14.6746463 47.5,15.5449725 47.5,16.4505466 L47.5,60 C47.5,61.9329966 45.9329966,63.5 44,63.5 L4,63.5 C2.06700338,63.5 0.5,61.9329966 0.5,60 L0.5,4 C0.5,2.06700338 2.06700338,0.5 4,0.5 Z"/>
    <path fill="#5E6C84" d="M15.8333333,33.1666667 L16.8905043,24.7092986 C16.9530579,24.2088698 17.3784589,23.8333333 17.8827822,23.8333333 L30.1172178,23.8333333 C30.6215411,23.8333333 31.0469421,24.2088698 31.1094957,24.7092986 L32.1666667,33.1666667 L32.1666667,39.1666667 C32.1666667,39.7189514 31.7189514,40.1666667 31.1666667,40.1666667 L16.8333333,40.1666667 C16.2810486,40.1666667 15.8333333,39.7189514 15.8333333,39.1666667 L15.8333333,33.1666667 Z M19.1666667,35.5 C18.6143819,35.5 18.1666667,35.9477153 18.1666667,36.5 L18.1666667,36.8333333 C18.1666667,37.3856181 18.6143819,37.8333333 19.1666667,37.8333333 L28.8333333,37.8333333 C29.3856181,37.8333333 29.8333333,37.3856181 29.8333333,36.8333333 L29.8333333,36.5 C29.8333333,35.9477153 29.3856181,35.5 28.8333333,35.5 L19.1666667,35.5 Z"/>
  </g>
</svg>
