<svg xmlns="http://www.w3.org/2000/svg" width="24" height="24" viewBox="0 0 24 24">
  <path fill="#FFAB00" fill-rule="evenodd" d="M16.5867532,15 L5,15 C4.44771525,15 4,15.4477153 4,16 C4,16.5522847 4.44771525,17 5,17 L16.5912706,17 L15.2931,18.29591 C14.9021,18.68691 14.9021,19.31891 15.2921,19.71091 C15.4871,19.90591 15.7441,20.00391 16.0001,20.00391 C16.2561,20.00391 16.5121,19.90591 16.7071,19.71191 L19.7121,16.71091 C19.8991,16.52391 20.0051,16.26891 20.0051,16.00291 C20.0051,15.73691 19.8991,15.48291 19.7121,15.29591 L16.7071,12.29291 C16.3161,11.90191 15.6841,11.90191 15.2931,12.29291 C14.9021,12.68391 14.9021,13.31691 15.2931,13.70691 L16.5867532,15 Z M7.41824681,7 L8.7119,5.70691 C9.1029,5.31691 9.1029,4.68391 8.7119,4.29291 C8.3209,3.90191 7.6889,3.90191 7.2979,4.29291 L4.2929,7.29591 C4.1059,7.48291 3.9999,7.73691 3.9999,8.00291 C3.9999,8.26891 4.1059,8.52391 4.2929,8.71091 L7.2979,11.71191 C7.4929,11.90591 7.7489,12.00391 8.0049,12.00391 C8.2609,12.00391 8.5179,11.90591 8.7129,11.71091 C9.1029,11.31891 9.1029,10.68691 8.7119,10.29591 L7.41372936,9 L19,9 C19.5522847,9 20,8.55228475 20,8 C20,7.44771525 19.5522847,7 19,7 L7.41824681,7 Z M3,0 L21,0 C22.6568542,-3.04359188e-16 24,1.34314575 24,3 L24,21 C24,22.6568542 22.6568542,24 21,24 L3,24 C1.34314575,24 2.02906125e-16,22.6568542 0,21 L0,3 C-2.02906125e-16,1.34314575 1.34314575,3.04359188e-16 3,0 Z"/>
</svg>
