<?xml version="1.0" encoding="UTF-8" standalone="no"?>
<svg width="24px" height="24px" viewBox="0 0 24 24" version="1.1" xmlns="http://www.w3.org/2000/svg" xmlns:xlink="http://www.w3.org/1999/xlink">
    <!-- Generator: Sketch 45.1 (43504) - http://www.bohemiancoding.com/sketch -->
    <title>emoji/activity</title>
    <desc>Created with Sketch.</desc>
    <defs></defs>
    <g id="Emoji" stroke="none" stroke-width="1" fill="none" fill-rule="evenodd">
        <g id="emoji/activity" fill="#42526E">
            <path d="M15.6773905,16.7376972 C14.6609285,17.5285096 13.3844089,18 12,18 C10.6155911,18 9.33907154,17.5285096 8.32260952,16.7376972 C9.56921719,15.5594185 10.3048,13.9004213 10.3048,12.1494 C10.3048,10.3191568 9.50043406,8.58887617 8.14848242,7.40302738 C9.1914296,6.5277413 10.5353343,6 12,6 C13.4645248,6 14.8083118,6.52763974 15.8512165,7.40277471 C14.4992309,8.58863081 13.6952,10.3187218 13.6952,12.1494 C13.6952,13.9004213 14.4307828,15.5594185 15.6773905,16.7376972 Z M17.0310233,15.2659207 C17.6436847,14.3254609 18,13.2034976 18,12 C18,10.8764609 17.6894579,9.82398197 17.1497122,8.92390153 C16.2368921,9.73348388 15.6952,10.9072575 15.6952,12.1494 C15.6952,13.3361597 16.1903108,14.4616314 17.0310233,15.2659207 Z M6.96897671,15.2659207 C6.35631533,14.3254609 6,13.2034976 6,12 C6,10.8764574 6.31054401,9.82397535 6.8502929,8.92389304 C7.76289888,9.73399536 8.3048,10.9078289 8.3048,12.1494 C8.3048,13.3361597 7.80968918,14.4616314 6.96897671,15.2659207 Z M12,4 C7.582,4 4,7.582 4,12 C4,16.418 7.582,20 12,20 C16.418,20 20,16.418 20,12 C20,7.582 16.418,4 12,4 Z" id="Shape"></path>
        </g>
    </g>
</svg>