<?xml version="1.0" encoding="UTF-8" standalone="no"?>
<svg width="24px" height="24px" viewBox="0 0 24 24" version="1.1" xmlns="http://www.w3.org/2000/svg" xmlns:xlink="http://www.w3.org/1999/xlink">
    <!-- Generator: Sketch 46.2 (44496) - http://www.bohemiancoding.com/sketch -->
    <title>emoji/atlassian</title>
    <desc>Created with Sketch.</desc>
    <defs></defs>
    <g id="Global" stroke="none" stroke-width="1" fill="none" fill-rule="evenodd">
        <g id="icons/atlassian" fill-rule="nonzero" fill="#42526E">
            <g id="Atlassian-icon-neutral" transform="translate(4.000000, 4.000000)">
                <path d="M4.7026087,7.47534668 C4.46608696,7.2223032 4.09391304,7.23621624 3.93565217,7.5623032 L0.0495652174,15.3301293 C-0.0225098288,15.4741375 -0.0148256971,15.6452073 0.0698701986,15.7821737 C0.154566094,15.91914 0.304179624,16.0024449 0.465217391,16.0023032 L5.87652174,16.0023032 C6.05462541,16.0057557 6.21783945,15.9033201 6.29217391,15.7414336 C7.45913043,13.3336075 6.75217391,9.66491189 4.7026087,7.47534668 Z" id="Shape"></path>
                <path d="M7.55391304,0.409459047 C5.38,3.85293731 5.52347826,7.66685035 6.95565217,10.529459 L9.56434783,15.7468504 C9.64188112,15.9058962 9.80306346,16.0070566 9.98,16.0077199 L15.3913043,16.0077199 C15.5523421,16.0078617 15.7019556,15.9245568 15.7866515,15.7875904 C15.8713474,15.650624 15.8790316,15.4795542 15.8069565,15.335546 C15.8069565,15.335546 8.52695652,0.769459047 8.34782609,0.406850352 C8.18,0.080763395 7.76434783,0.0738068732 7.55391304,0.409459047 Z" id="Shape"></path>
            </g>
        </g>
    </g>
</svg>
