<?xml version="1.0" encoding="UTF-8" standalone="no"?>
<svg width="24px" height="24px" viewBox="0 0 24 24" version="1.1" xmlns="http://www.w3.org/2000/svg" xmlns:xlink="http://www.w3.org/1999/xlink">
    <!-- Generator: Sketch 45.1 (43504) - http://www.bohemiancoding.com/sketch -->
    <title>emoji/nature</title>
    <desc>Created with Sketch.</desc>
    <defs></defs>
    <g id="Emoji" stroke="none" stroke-width="1" fill="none" fill-rule="evenodd">
        <g id="emoji/nature" fill="#42526E">
            <path d="M13,16 L16.625,16 L14.125,12 L15.3333333,12 L12,7 L8.66666667,12 L9.875,12 L7.375,16 L11,16 L11,18 L13,18 L13,16 Z M17.3300323,13.9397365 L18.8574929,16.4855042 C19.2574076,17.1520288 18.7772945,18 18,18 L14.9999946,18 C14.9973588,19.1050209 14.1001229,20 13.0020869,20 L10.9979131,20 C9.89611272,20 9.0026214,19.1087175 9.00000576,18 L6,18 C5.22270552,18 4.74259237,17.1520288 5.14250707,16.4855042 L6.6699677,13.9397365 C6.06946103,13.7102183 5.78194688,12.8720104 6.18626653,12.2430687 L11.1862665,4.4652909 C11.5850873,3.84490303 12.4149127,3.84490303 12.8137335,4.4652909 L17.8137335,12.2430687 C18.2180531,12.8720104 17.930539,13.7102183 17.3300323,13.9397365 Z" id="Shape"></path>
        </g>
    </g>
</svg>