<?xml version="1.0" encoding="UTF-8" standalone="no"?>
<svg width="24px" height="24px" viewBox="0 0 24 24" version="1.1" xmlns="http://www.w3.org/2000/svg" xmlns:xlink="http://www.w3.org/1999/xlink">
    <!-- Generator: Sketch 45.1 (43504) - http://www.bohemiancoding.com/sketch -->
    <title>emoji/symbols</title>
    <desc>Created with Sketch.</desc>
    <defs></defs>
    <g id="Emoji" stroke="none" stroke-width="1" fill="none" fill-rule="evenodd">
        <g id="emoji/symbols" fill="#42526E">
            <path d="M12,9.44020377 L13.7596429,7.69623107 L13.7597964,7.69607906 C14.7319431,6.73258953 16.3078558,6.73258953 17.2798492,7.695927 C18.2518426,8.65926446 18.2518426,10.2211431 17.2798492,11.1844806 L12,16.4173109 L6.72045766,11.1847846 L6.72030429,11.1846325 C5.74815747,10.2211431 5.74815747,8.65926446 6.72015086,7.695927 C7.69214425,6.73258953 9.2680569,6.73258953 10.2400503,7.695927 L10.2403571,7.69623107 L10.2402037,7.69607904 L12,9.44020377 Z M5.31559979,12.5832499 L5.31898414,12.5866346 L11.641217,18.8525658 C11.7404751,18.95094 11.8703272,19.0000351 12.0001345,18.9999891 C12.1308629,19.0008483 12.2597097,18.9507568 12.358783,18.8525658 L18.6810159,12.5866346 L18.6844,12.5832495 L18.6878089,12.579902 C20.437397,10.8458945 20.437397,8.03451301 18.6878089,6.30050557 C16.9382208,4.56649814 14.1015781,4.56649814 12.35199,6.30050557 L12.3485948,6.30387404 L12.3451969,6.30723814 L12,6.64936093 L11.6548032,6.30723814 L11.6513877,6.30388423 L11.6480101,6.30050557 C9.89842197,4.56649814 7.06177918,4.56649814 5.31219107,6.30050557 C3.56260297,8.03451301 3.56260297,10.8458945 5.31219107,12.579902 L5.31558981,12.5832669 L5.31559979,12.5832499 Z" id="Shape"></path>
        </g>
    </g>
</svg>