<?xml version="1.0" encoding="UTF-8" standalone="no"?>
<svg width="24px" height="24px" viewBox="0 0 24 24" version="1.1" xmlns="http://www.w3.org/2000/svg" xmlns:xlink="http://www.w3.org/1999/xlink">
    <!-- Generator: Sketch 45.1 (43504) - http://www.bohemiancoding.com/sketch -->
    <title>emoji/travel</title>
    <desc>Created with Sketch.</desc>
    <defs></defs>
    <g id="Emoji" stroke="none" stroke-width="1" fill="none" fill-rule="evenodd">
        <g id="emoji/travel" fill="#42526E">
            <path d="M15.5839575,17 L8.41604252,17 L5.7083,19.7087 C5.3193,20.0977 4.6823,20.0977 4.2933,19.7087 L4.2913,19.7067 C3.9023,19.3177 3.9023,18.6807 4.2913,18.2917 L5.90867439,16.6748973 C5.36148323,16.3178984 5,15.7009757 5,14.9972399 L5,6.00276013 C5,4.89666625 5.89706013,4 7.00585866,4 L16.9941413,4 C18.1019465,4 19,4.89354265 19,6.00276013 L19,14.9972399 C19,15.6993128 18.6385885,16.3170105 18.0910183,16.6745901 L19.7087,18.2917 C20.0977,18.6807 20.0977,19.3177 19.7087,19.7067 C19.3177,20.0977 18.6807,20.0977 18.2917,19.7087 L15.5839575,17 Z M17,10 L17,6 L7,6 L7,10 L17,10 Z M17,12 L17,15 L7,15 L7,12 L17,12 Z M15.5,18.9972 C15.5,19.5472 15.05,19.9972 14.5,19.9972 L9.5,19.9972 C8.95,19.9972 8.5,19.5472 8.5,18.9972 C8.5,18.4472 8.95,17.9972 9.5,17.9972 L14.5,17.9972 C15.05,17.9972 15.5,18.4472 15.5,18.9972 Z M15.7004,13.4798 C15.7004,14.0318 15.2524,14.4798 14.7004,14.4798 C14.1484,14.4798 13.7004,14.0318 13.7004,13.4798 C13.7004,12.9278 14.1484,12.4798 14.7004,12.4798 C15.2524,12.4798 15.7004,12.9278 15.7004,13.4798 Z M9.0087,14.4798 C8.4567,14.4798 8.0087,14.0318 8.0087,13.4798 C8.0087,12.9278 8.4567,12.4798 9.0087,12.4798 C9.5607,12.4798 10.0087,12.9278 10.0087,13.4798 C10.0087,14.0318 9.5607,14.4798 9.0087,14.4798 Z" id="Shape"></path>
        </g>
    </g>
</svg>