<?xml version="1.0" encoding="UTF-8" standalone="no"?>
<svg width="20px" height="20px" viewBox="0 0 20 20" version="1.1" xmlns="http://www.w3.org/2000/svg" xmlns:xlink="http://www.w3.org/1999/xlink">
    <!-- Generator: Sketch 41.2 (35397) - http://www.bohemiancoding.com/sketch -->
    <title>Cancel</title>
    <desc>Created with Sketch.</desc>
    <defs></defs>
    <g id="Experiments" stroke="none" stroke-width="1" fill="none" fill-rule="evenodd">
        <g id="cancel-icon" fill="white">
            <path d="M13.3635,11.94925 C13.7545,12.34025 13.7545,12.97225 13.3635,13.36325 C13.1685,13.55825 12.9125,13.65625 12.6565,13.65625 C12.4005,13.65625 12.1445,13.55825 11.9495,13.36325 L9.8285,11.24225 L7.7065,13.36325 C7.5115,13.55825 7.2555,13.65625 6.9995,13.65625 C6.7435,13.65625 6.4885,13.55825 6.2925,13.36325 C5.9025,12.97225 5.9025,12.34025 6.2925,11.94925 L8.4135,9.82825 L6.2925,7.70725 C5.9025,7.31625 5.9025,6.68325 6.2925,6.29325 C6.6835,5.90225 7.3165,5.90225 7.7065,6.29325 L9.8285,8.41425 L11.9495,6.29325 C12.3405,5.90225 12.9725,5.90225 13.3635,6.29325 C13.7545,6.68325 13.7545,7.31625 13.3635,7.70725 L11.2425,9.82825 L13.3635,11.94925 Z" id="Error-Icon"></path>
        </g>
    </g>
</svg>
