<svg width="275" height="276" viewBox="0 0 275 276" fill="none" xmlns="http://www.w3.org/2000/svg">
<path d="M183.2 187.14C184.07 182.24 184.53 177.04 184.53 171.53C184.53 166.02 184.07 160.67 183.18 155.71C177.88 126.21 157.38 108.02 128.65 103.35C123.75 102.55 118.61 102.14 113.26 102.14C107.91 102.14 102.33 102.58 97.23 103.43C68.47 108.23 48.02 126.37 42.71 155.7C41.81 160.66 41.35 165.93 41.35 171.52C41.35 177.11 41.81 182.23 42.69 187.13C47.96 216.43 68.43 234.6 97.24 239.4C102.34 240.25 107.69 240.69 113.27 240.69C118.85 240.69 123.76 240.28 128.66 239.48C157.45 234.8 177.96 216.58 183.22 187.12L183.2 187.14Z" fill="#1868DB"/>
<path d="M132.27 164.26C132.51 162.91 132.64 161.48 132.64 159.96C132.64 158.44 132.51 156.97 132.27 155.61C130.81 147.49 125.17 142.49 117.26 141.2C115.91 140.98 114.5 140.87 113.02 140.87C111.54 140.87 110.01 140.99 108.61 141.23C100.69 142.55 95.06 147.54 93.6 155.62C93.35 156.98 93.22 158.44 93.22 159.97C93.22 161.5 93.35 162.92 93.59 164.27C95.04 172.33 100.68 177.34 108.6 178.66C110 178.89 111.48 179.02 113.01 179.02C114.54 179.02 115.9 178.91 117.25 178.69C125.17 177.4 130.82 172.39 132.27 164.28V164.26Z" fill="white"/>
<path d="M164.98 84.3496H60.89V129.64H164.98V84.3496Z" fill="#1868DB"/>
<path d="M125.47 169.19H100.4V202.41H125.47V169.19Z" fill="white"/>
<path d="M113.09 128.59C109.82 128.59 106.59 128.33 103.51 127.81C84.48 124.64 71.66 112.27 68.36 93.8899C67.82 90.8699 67.54 87.6699 67.54 84.3999C67.54 81.1299 67.82 77.8499 68.37 74.7899C71.7 56.4099 84.5 44.0499 103.51 40.8799C109.58 39.8699 116.25 39.8499 122.31 40.8299C141.35 43.9299 154.18 56.3099 157.5 74.8099C158.05 77.8699 158.33 81.0999 158.33 84.3999C158.33 87.6999 158.06 90.8599 157.52 93.8799C154.22 112.38 141.39 124.77 122.32 127.87C119.36 128.35 116.26 128.6 113.1 128.6L113.09 128.59ZM113.09 49.3699C110.35 49.3699 107.6 49.5799 105.04 50.0099C89.9 52.5399 80.12 61.9199 77.49 76.4299C77.03 78.9399 76.8 81.6199 76.8 84.3899C76.8 87.1599 77.03 89.7599 77.47 92.2399C80.08 106.75 89.87 116.14 105.03 118.67C110.1 119.52 115.79 119.53 120.82 118.71C135.99 116.24 145.78 106.84 148.39 92.2399C148.83 89.7499 149.06 87.1099 149.06 84.3899C149.06 81.6699 148.83 78.9499 148.38 76.4299C145.76 61.8299 135.97 52.4299 120.82 49.9599C118.36 49.5599 115.72 49.3599 113.08 49.3599L113.09 49.3699Z" fill="#1868DB"/>
<path d="M198.78 154.59C196.91 144.19 189.7 137.23 179 135.49C175.61 134.94 171.87 134.95 168.47 135.52C157.93 137.28 150.79 144.08 148.8 154.2H94.26C94.14 154.66 94.04 155.14 93.95 155.62C93.7 156.98 93.58 158.44 93.58 159.97C93.58 161.5 93.71 162.92 93.95 164.27C94.04 164.75 94.14 165.23 94.26 165.69H148.8C150.77 175.81 157.91 182.61 168.47 184.37C170.2 184.66 172 184.81 173.84 184.81C175.68 184.81 177.35 184.67 179.01 184.4C189.73 182.66 196.94 175.69 198.8 165.29C199.1 163.6 199.26 161.81 199.26 159.98C199.26 158.15 199.1 156.32 198.8 154.6L198.78 154.59ZM187.39 163.24C186.42 168.66 182.88 172.02 177.14 172.96C175.01 173.31 172.54 173.3 170.37 172.94C164.62 171.98 161.07 168.63 160.1 163.24C159.92 162.22 159.82 161.12 159.82 159.97C159.82 158.82 159.91 157.68 160.1 156.65C161.08 151.26 164.63 147.9 170.37 146.94C171.47 146.76 172.63 146.66 173.83 146.66C175.03 146.66 176.09 146.75 177.14 146.92C182.87 147.85 186.41 151.21 187.38 156.64C187.57 157.68 187.66 158.8 187.66 159.97C187.66 161.14 187.57 162.22 187.38 163.25L187.39 163.24Z" fill="#FCA700"/>
<path d="M184.53 171.53C184.53 170.77 184.5 170.04 184.48 169.29C182.72 171.19 180.26 172.45 177.13 172.96C175 173.31 172.53 173.3 170.36 172.94C164.61 171.98 161.06 168.63 160.09 163.24C159.91 162.22 159.81 161.12 159.81 159.97C159.81 158.82 159.9 157.68 160.09 156.65C161.07 151.26 164.62 147.9 170.36 146.94C171.46 146.76 172.62 146.66 173.82 146.66C175.02 146.66 176.08 146.75 177.13 146.92C178.76 147.18 180.18 147.67 181.45 148.31C180.1 143.59 178.32 139.2 176.14 135.17C173.58 134.99 170.93 135.1 168.46 135.52C157.92 137.28 150.78 144.08 148.79 154.2H93.9C93.78 154.66 93.68 155.14 93.59 155.62C93.34 156.98 93.22 158.44 93.22 159.97C93.22 161.5 93.35 162.92 93.59 164.27C93.68 164.75 93.78 165.23 93.9 165.69H148.79C150.76 175.81 157.9 182.61 168.46 184.37C170.19 184.66 171.99 184.81 173.83 184.81C175.67 184.81 177.34 184.67 179 184.4C180.7 184.12 182.3 183.7 183.81 183.17C184.29 179.46 184.54 175.58 184.54 171.54L184.53 171.53Z" fill="#164B35"/>
<path d="M93.9 165.68H131.96C132.08 165.22 132.18 164.74 132.27 164.26C132.51 162.91 132.64 161.48 132.64 159.96C132.64 158.44 132.51 156.97 132.27 155.61C132.18 155.12 132.08 154.65 131.96 154.19H93.91C93.79 154.65 93.69 155.13 93.6 155.61C93.48 156.29 93.38 157 93.32 157.72C93.26 158.45 93.23 159.19 93.23 159.96C93.23 160.73 93.26 161.45 93.32 162.17C93.38 162.89 93.47 163.58 93.59 164.25C93.68 164.73 93.78 165.21 93.9 165.67V165.68Z" fill="#FCA700"/>
<path d="M209.97 178.98L209.8 177.33C209.8 177.33 210.4 174.56 209.92 173.38L210.56 169.18C210.56 169.18 210.57 167.4 210.26 166.84C210.07 166.49 209.82 166.25 209.58 166.18C209.09 166.04 208.61 166.59 208.63 168.31C208.6 168.33 208.56 168.39 208.52 168.4C208.71 170.23 207.91 171.9 207.81 173.74C207.96 173.74 208.07 173.8 207.99 173.85L207.81 173.81C208.06 175.07 207.39 175.77 207.91 176.95L207.68 176.8C207.55 178.71 207.3 180.96 207.06 183.24C206.94 184.38 206.83 185.54 206.74 186.67C206.63 188.25 206.52 189.8 206.42 191.26L206.45 191.2H206.48C206.61 190.76 206.83 189.76 207 188.96C207.09 188.55 207.16 188.18 207.2 188.05C207.24 187.87 207.27 187.76 207.27 187.76C207.37 187.95 207.43 188.13 207.48 188.33C207.52 188.57 207.53 188.79 207.53 189.02C207.53 189.47 207.44 189.93 207.32 190.48C207.75 190.55 208.18 190.63 208.61 190.71C208.85 190.75 209.1 190.78 209.36 190.8C209.62 190.82 209.74 190.83 209.94 190.83V191.07C209.76 191.07 209.63 191.07 209.45 191.07C209.21 191.08 208.99 191.09 208.78 191.1C208.36 191.13 208 191.18 207.77 191.22C208.54 191.29 209.5 191.37 210.56 191.46C211.34 191.52 212.2 191.56 213.05 191.58C214.75 191.62 216.45 191.57 217.54 191.4C217.49 191.22 216.8 191.6 216.64 191.02C217.2 191.02 217.76 190.95 218.29 190.96C218.29 191.34 217.98 191.21 217.92 191.27C218.82 191.7 237.4 192.45 232.99 190.75L233.11 190.55C231.97 190.44 231.02 190.36 229.83 189.96C229.66 189.99 229.64 189.95 229.64 190.15C229.59 190.18 229.52 190.24 229.54 190.32C229.54 190.8 229.18 190.6 229.02 190.61C229.25 189.12 225.32 190.4 224.8 190.33C224.71 189.62 223.78 190.29 223.47 189.98C223.49 189.95 223.63 189.8 223.65 189.77C223.38 189.31 218.74 190.5 220.08 189.64C218.51 189.18 216.57 188.99 214.45 188.92C213.39 188.88 212.29 188.88 211.18 188.88C210.63 188.88 210.08 188.88 209.53 188.89L209.05 188.93V188.59L209.07 188.34L209.12 187.74C209.2 186.95 209.28 186.17 209.38 185.41C209.59 183.91 209.86 182.51 210.25 181.3L210.16 181.34C210.16 181.34 210.16 181.15 210.27 181.12C210.04 180.51 209.98 178.97 209.98 178.97L209.97 178.98ZM210.04 189.82C210.04 189.82 210.04 189.78 210.04 189.77C210.04 189.84 210.8 189.81 210.83 189.83V190.07C210.44 190.29 209.8 189.99 209.49 189.73C209.37 189.6 209.34 189.48 209.38 189.43C209.4 189.41 209.44 189.4 209.5 189.43C209.61 189.46 209.76 189.51 209.97 189.6C210.03 189.54 210.02 189.74 210.03 189.82H210.04ZM216.77 189.96C216.9 189.98 217.04 190 217.2 190.03C215.44 190.75 213.11 189.78 211.19 190.1C211.86 189.06 213.41 189.64 214.23 189.72C215.06 189.49 216.04 189.8 216.77 189.97V189.96ZM228 190.32V190.2H228.07C228.07 190.23 228.07 190.27 228.05 190.29C228.04 190.31 228.02 190.34 228 190.33V190.32ZM209.32 179.84C209.5 179.99 209.34 180.46 209 180.1C209.07 180.02 208.92 179.77 209.32 179.84ZM218.73 190.27C218.73 189.88 219.38 189.81 219.37 190.35C219.15 190.35 218.94 190.31 218.73 190.27ZM209.38 175.06C208.98 174.85 209.44 174.95 209.7 174.91C209.64 174.95 209.6 175.1 209.41 175.05H209.37L209.38 175.06ZM209.43 172.06C209.23 172 209.12 171.82 209.12 171.74C209.29 171.55 209.62 171.99 209.43 172.06ZM209.87 167.15C209.64 167.12 209.58 167 209.81 166.99C209.98 167.02 210.1 167.17 209.83 167.17C209.84 167.17 209.86 167.17 209.87 167.16V167.15ZM221.67 191.16C221.49 191.84 220.91 191.27 220.59 191.45C220.67 190.77 221.23 191.28 221.47 191.17C221.55 191.17 221.62 191.17 221.67 191.16ZM207.59 184.54C206.99 184.49 207.53 183.88 207.42 183.65L207.66 183.68C207.69 184.01 207.82 184.22 207.6 184.53L207.59 184.54ZM215.7 191.26C215.57 191.5 215.37 191.26 215.24 191.26C215.24 190.92 215.78 190.87 215.7 191.26ZM210.26 191.07C210.24 190.7 210.5 190.89 210.58 190.85C210.52 190.92 210.42 191.15 210.36 191.15C210.32 191.15 210.31 191.1 210.26 191.07ZM207.8 184.8C207.78 185.05 207.75 185.32 207.71 185.58L207.47 185.55C207.5 185.29 207.53 185.03 207.56 184.77L207.8 184.8ZM207.18 187.3L206.94 187.28C206.75 186.89 207.36 186.91 207.18 187.29V187.3ZM207.85 181.49C207.85 181.49 207.81 181.59 207.81 181.62C207.79 182.15 207 181.33 207.85 181.49ZM207.89 178.72C207.86 178.66 207.8 178.59 207.81 178.53C207.87 178.16 208.41 178.63 207.89 178.72Z" fill="#101214"/>
<path d="M227.09 166.04C226.85 167.39 226.36 168.65 225.94 169.95C225.94 169.95 225.75 170.35 225.45 170.99C225.14 171.62 224.68 172.49 224.15 173.4C223.12 175.26 221.76 177.32 221.12 178.62C218.85 181.39 216.25 183.87 213.35 185.94C213.35 185.94 213.13 186.12 212.79 186.4C212.44 186.67 211.97 187.04 211.46 187.44C210.43 188.22 209.24 189.06 208.73 189.55C208.09 190.14 207.72 190.64 207.73 190.92C207.73 191.2 208.13 191.26 209.02 190.95C209.9 190.65 211.28 189.96 213.09 188.61C213.15 188.61 213.32 188.52 213.36 188.55C217.03 185.54 220.8 182.76 223.64 178.73C223.48 178.69 223.49 178.5 223.64 178.42L223.76 178.57C224.54 177.13 225.3 176.06 225.96 174.95C226.29 174.4 226.61 173.85 226.87 173.24C227.14 172.64 227.37 171.99 227.5 171.24C227.5 171.24 227.58 171.65 227.59 171.66C229.74 167.07 231.38 161.2 231.55 155.1C231.77 149.01 230.51 142.8 228.3 137.79V137.85L228.26 137.84C228.34 138.36 228.88 139.72 229.11 141.04C229.4 142.34 229.67 143.51 229.67 143.51C228.72 141.9 228.28 140.06 227.59 138.24C227.05 136.37 226.26 134.54 225.37 132.84L225.59 132.75C226.35 134.23 227.13 135.5 227.49 135.99C226.33 133.22 224.17 129.18 221.19 125.75C218.2 122.35 214.6 119.61 212.07 118.22C212.09 118.45 213.79 119.14 213.82 119.87C213.22 119.46 212.6 119.06 212 118.67C211.7 118.48 211.4 118.28 211.1 118.09C210.79 117.92 210.48 117.76 210.18 117.59C210.37 117.26 211.01 117.76 211.18 117.77C210.95 117.58 210.07 117.04 208.74 116.26C208.41 116.06 208.04 115.85 207.66 115.63C207.26 115.43 206.83 115.23 206.37 115.01C205.47 114.55 204.43 114.16 203.33 113.71C201.1 112.89 198.5 112.15 195.74 111.7C192.98 111.24 190.07 111.06 187.29 111.21C184.51 111.35 181.86 111.79 179.59 112.36C177.31 112.91 175.42 113.67 174.06 114.26C171.36 115.55 170.74 116.16 173.53 115.4L173.34 115.7C176.09 114.67 178.46 114.02 181.5 113.8C181.91 113.69 181.97 113.72 181.93 113.52C182.04 113.47 182.21 113.38 182.15 113.3C182.02 112.83 183 112.85 183.42 112.8C183.35 113.19 183.9 113.31 184.77 113.28C185.65 113.3 186.87 113.13 188.15 113.05C190.71 112.82 193.56 112.78 194.22 112.91C194.31 113.28 194.94 113.38 195.66 113.43C196.37 113.49 197.16 113.57 197.52 113.79C197.46 113.8 197.08 113.9 197.03 113.91C197.34 114.17 200.38 114.65 202.88 115.4C204.12 115.78 205.23 116.16 205.8 116.46C206.38 116.73 206.43 116.85 205.59 116.71C205.96 116.93 206.35 117.15 206.74 117.37C207.12 117.62 207.5 117.87 207.9 118.13C208.69 118.63 209.51 119.16 210.36 119.7C211.16 120.3 211.99 120.92 212.85 121.55L213.49 122.02L214.1 122.56C214.51 122.92 214.92 123.28 215.34 123.65C218.64 126.6 221.77 130.3 224.13 134.53C226.51 138.74 228.1 143.44 228.72 147.99C229.33 152.55 228.94 156.89 228.03 160.4L228.14 160.31C228.09 160.42 228.06 160.78 227.94 160.84C227.92 161.56 227.86 162.89 227.61 163.99C227.35 165.09 227.13 166.02 227.13 166.02L227.09 166.04ZM224.37 133.12C224.37 133.12 224.33 133.12 224.33 133.14C224.39 133.1 223.31 131.51 223.28 131.43L223.49 131.31C223.85 131.66 224.19 132.22 224.47 132.78C224.75 133.35 224.87 133.98 224.96 134.41C225.11 135.27 224.94 135.43 224.27 133.38C224.16 133.28 224.32 133.19 224.37 133.12ZM212.94 120.55C212.68 120.35 212.39 120.12 212.07 119.88C213.08 120.37 214.18 120.93 215.13 121.78C215.62 122.18 216.12 122.61 216.61 123.04C216.85 123.26 217.11 123.47 217.35 123.71L218.02 124.45C219.87 126.4 221.48 128.6 223 130.52C221.25 129.71 219.23 126.37 217.73 124.87C216.95 124.17 216.06 123.45 215.25 122.68C214.85 122.29 214.46 121.9 214.08 121.53C213.7 121.16 213.29 120.86 212.93 120.55H212.94ZM185.97 112.8V112.92L185.81 112.93C185.81 112.9 185.82 112.86 185.85 112.84C185.87 112.81 185.92 112.79 185.96 112.79L185.97 112.8ZM228.31 163.98C228.25 163.63 228.55 162.44 228.77 163.33C228.68 163.53 228.69 164.16 228.31 163.98ZM208.83 117.65C208.64 117.99 207.19 117.28 207.42 116.8C207.92 117.06 208.38 117.36 208.83 117.65ZM223.93 175.22C224.06 175.81 223.72 175.46 223.43 175.44C223.54 175.38 223.76 175.06 223.88 175.23H223.93V175.22ZM219.52 181.49C219.6 181.71 219.39 182.11 219.25 182.27C218.77 182.54 219.23 181.55 219.52 181.49ZM209.7 189.41C209.8 189.62 209.57 189.84 209.39 189.68C209.34 189.52 209.59 189.22 209.76 189.42C209.76 189.42 209.73 189.4 209.7 189.41ZM202.17 113.81C202.83 113.27 204.09 114.35 204.92 114.48C204.49 115.05 203.32 114.03 202.67 113.96C202.46 113.89 202.3 113.84 202.17 113.82V113.81ZM230.88 151.8C231.49 151.75 231 153.5 231.13 154.06H230.89C230.83 153.2 230.68 152.71 230.88 151.83V151.8ZM215.87 121.15C216.27 121.18 216.54 121.7 216.8 121.91C216.57 122.16 215.47 121.3 215.87 121.14V121.15ZM225.11 131.96C224.83 132.21 224.61 131.53 224.47 131.38C224.61 131.46 224.95 131.55 225.03 131.7C225.09 131.8 225.07 131.85 225.11 131.96ZM230.59 151.19C230.52 150.54 230.46 149.84 230.41 149.17H230.65C230.71 149.85 230.77 150.53 230.83 151.2H230.59V151.19ZM230.02 144.57L230.25 144.52C230.65 145.43 230.08 145.66 230.02 144.59V144.57ZM230.51 159.76C230.53 159.66 230.57 159.51 230.57 159.41C230.68 158.03 231.34 160.08 230.51 159.76ZM229.04 166.81C229.04 166.95 229.04 167.15 228.99 167.29C228.67 168.21 228.45 167 229.04 166.81Z" fill="#101214"/>
</svg>
